<svg width="103" height="113" viewBox="0 0 103 113" fill="none" xmlns="http://www.w3.org/2000/svg">
<path d="M98.0509 84.1537H80.2218V79.5449H75.7695V84.1976V112.092H102.503V84.2195V79.5669H98.0509V84.1537ZM80.2218 107.461V88.8064H93.5986V88.8722H98.0509V107.461H80.2218Z" fill="black" fill-opacity="0.63"/>
<path d="M102.503 32.9512H98.0508V37.6258H102.503V32.9512Z" fill="black" fill-opacity="0.63"/>
<path d="M102.503 0.338867H75.7695V28.2988H102.503V0.338867ZM98.0509 23.6461H80.2218V4.99154H98.0509V23.6461Z" fill="black" fill-opacity="0.63"/>
<path d="M89.1271 46.9313V42.2787H98.0316V37.626H84.6547V42.2787H75.73V51.606H71.2778V46.9313H66.8256V42.2787H62.3733V46.9313H57.9211V51.606H62.3733V79.5659H66.8256V84.2186H62.3733V93.5459H53.4689V102.873H49.0167V107.526H44.5645V112.179H53.4891V102.873H57.9413V98.1986H62.3936V102.873H66.8458V98.1986H71.298V74.9132H93.5793V79.5659H98.0316V70.2386H93.5793V65.5859H98.0316V70.2386H102.484V60.9333H98.0316V56.2586H93.5793V60.9333H89.1271V56.2586H84.6749V65.5859H80.2227V70.2386H66.8458V65.5859H75.7502V60.9333H71.298V56.2586H80.2227V46.9313H84.6749V51.606H98.0518V56.2586H102.504V46.9313H89.1271ZM66.8458 56.2586V51.606H71.298V56.2586H66.8458Z" fill="black" fill-opacity="0.63"/>
<path d="M93.5783 9.66602H84.6738V18.9714H93.5783V9.66602Z" fill="black" fill-opacity="0.63"/>
<path d="M93.5783 93.4805H84.6738V102.786H93.5783V93.4805Z" fill="black" fill-opacity="0.63"/>
<path d="M80.2218 32.9512H75.7695V37.6258H80.2218V32.9512Z" fill="black" fill-opacity="0.63"/>
<path d="M71.298 28.2988H66.8458V32.9515H62.3936V37.6261H66.8458V42.2788H71.298V28.2988Z" fill="black" fill-opacity="0.63"/>
<path d="M71.2979 18.9727H66.8457V23.6473H71.2979V18.9727Z" fill="black" fill-opacity="0.63"/>
<path d="M71.2979 4.99219H66.8457V9.66681H71.2979V4.99219Z" fill="black" fill-opacity="0.63"/>
<path d="M62.3927 37.626H57.9404V42.2787H62.3927V37.626Z" fill="black" fill-opacity="0.63"/>
<path d="M57.9415 79.5664H53.4893V88.8937H57.9415V79.5664Z" fill="black" fill-opacity="0.63"/>
<path d="M49.0159 9.66617V18.9715H53.4883V23.6461H49.0159V32.9515H44.5636V23.6461H40.1114V37.6261H35.6592V46.9315H40.1114V51.6061H31.1867V42.2788H26.7345V46.9315H22.2823V42.2788H17.8301V46.9315H22.2823V51.6061H31.1867V56.2588H35.6592V60.9334H40.1114V56.2588H44.5636V51.6061H49.0159V46.9315H40.1114V42.2788H49.0159V46.9315H53.4883V37.6261H49.0159V32.9515H53.4883V28.2988H62.3928V18.9715H57.9405V9.66617H62.3928V0.338867H57.9405V4.99154H53.4883V9.66617H49.0159Z" fill="black" fill-opacity="0.63"/>
<path d="M53.4891 88.8937H49.0166V79.5664H35.66V88.8937H31.1875V98.1991H35.66V88.8937H40.1122V84.2191H44.5644V93.5464H53.4891V88.8937Z" fill="black" fill-opacity="0.63"/>
<path d="M57.921 70.2393H49.0166V74.9139H57.921V70.2393Z" fill="black" fill-opacity="0.63"/>
<path d="M53.4891 0.338867H44.5645V4.99154H53.4891V0.338867Z" fill="black" fill-opacity="0.63"/>
<path d="M57.9414 56.2588H44.5645V60.9334H49.0167V65.5861H53.4891V60.9334H57.9414V56.2588Z" fill="black" fill-opacity="0.63"/>
<path d="M49.0167 18.9727H44.5645V23.6473H49.0167V18.9727Z" fill="black" fill-opacity="0.63"/>
<path d="M44.5644 93.5469H40.1122V107.527H35.66V102.874H31.1875V112.18H40.1122V107.527H44.5644V93.5469Z" fill="black" fill-opacity="0.63"/>
<path d="M44.5644 74.9132V65.5859H31.1875V70.2386H40.1122V74.9132H44.5644Z" fill="black" fill-opacity="0.63"/>
<path d="M40.1114 18.9727H35.6592V23.6473H40.1114V18.9727Z" fill="black" fill-opacity="0.63"/>
<path d="M40.1114 14.3195H44.5636V4.99219H35.6592V9.66681H40.1114V14.3195Z" fill="black" fill-opacity="0.63"/>
<path d="M35.6397 74.9141H31.1875V79.5667H35.6397V74.9141Z" fill="black" fill-opacity="0.63"/>
<path d="M35.6397 23.6465H31.1875V32.9518H35.6397V23.6465Z" fill="black" fill-opacity="0.63"/>
<path d="M35.6397 0.338867H31.1875V4.99154H35.6397V0.338867Z" fill="black" fill-opacity="0.63"/>
<path d="M17.83 56.2588H13.3576V60.9334H8.90534V65.5861H13.3576V70.2388H8.90534V65.5861H4.45312V74.9134H13.3576V79.5661H17.83V74.9134H31.1867V70.2388H17.83V56.2588Z" fill="black" fill-opacity="0.63"/>
<path d="M31.1866 32.9512H26.7344V37.6258H31.1866V32.9512Z" fill="black" fill-opacity="0.63"/>
<path d="M22.2822 65.5861H26.7344V60.9334H31.1867V56.2588H22.2822V65.5861Z" fill="black" fill-opacity="0.63"/>
<path d="M26.7344 37.626H22.2822V42.2787H26.7344V37.626Z" fill="black" fill-opacity="0.63"/>
<path d="M0.000976562 112.179H26.7345V84.2188H0.000976562V112.179ZM4.4532 88.8934H22.2823V107.526H4.4532V88.8934Z" fill="black" fill-opacity="0.63"/>
<path d="M22.2619 32.9512H13.3574V37.6258H22.2619V32.9512Z" fill="black" fill-opacity="0.63"/>
<path d="M17.8097 9.66602H8.90527V18.9714H17.8097V9.66602Z" fill="black" fill-opacity="0.63"/>
<path d="M17.8097 93.5469H8.90527V102.874H17.8097V93.5469Z" fill="black" fill-opacity="0.63"/>
<path d="M8.90542 51.6058V46.9311H13.3576V37.6258H8.90542V32.9512H0.000976562V37.6258H4.4532V56.2584H0.000976562V60.9331H8.90542V56.2584H13.3576V51.6058H8.90542Z" fill="black" fill-opacity="0.63"/>
<path d="M26.7345 0.338867H0.000976562V28.2988H26.7345V0.338867ZM22.2823 23.6461H4.4532V4.99154H22.2823V23.6461Z" fill="black" fill-opacity="0.63"/>
<path d="M98.051 84.1537H80.2217V79.5449H75.7695V84.1976V112.092H102.503V84.2195V79.5668H98.051V84.1537ZM80.2217 107.461V88.8064H93.5984V88.8722H98.051V107.461H80.2217Z" fill="black" fill-opacity="0.63"/>
<path d="M102.503 32.9512H98.0508V37.6258H102.503V32.9512Z" fill="black" fill-opacity="0.63"/>
<path d="M102.503 0.338867H75.7695V28.2988H102.503V0.338867ZM98.051 23.6461H80.2217V4.99154H98.051V23.6461Z" fill="black" fill-opacity="0.63"/>
<path d="M89.1274 46.9313V42.2787H98.0317V37.626H84.6546V42.2787H75.73V51.606H71.2778V46.9313H66.8255V42.2787H62.3733V46.9313H57.9211V51.606H62.3733V79.5659H66.8255V84.2186H62.3733V93.5461H53.4688V102.873H49.0166V107.526H44.5645V112.179H53.4891V102.873H57.9413V98.1986H62.3936V102.873H66.8458V98.1986H71.298V74.9133H93.5791V79.5659H98.0317V70.2386H93.5791V65.5859H98.0317V70.2386H102.484V60.9333H98.0317V56.2587H93.5791V60.9333H89.1274V56.2587H84.6749V65.5859H80.2226V70.2386H66.8458V65.5859H75.7503V60.9333H71.298V56.2587H80.2226V46.9313H84.6749V51.606H98.0515V56.2587H102.504V46.9313H89.1274ZM66.8458 56.2587V51.606H71.298V56.2587H66.8458Z" fill="black" fill-opacity="0.63"/>
<path d="M93.5783 9.66602H84.6738V18.9714H93.5783V9.66602Z" fill="black" fill-opacity="0.63"/>
<path d="M93.5783 93.4805H84.6738V102.786H93.5783V93.4805Z" fill="black" fill-opacity="0.63"/>
<path d="M80.2217 32.9512H75.7695V37.6258H80.2217V32.9512Z" fill="black" fill-opacity="0.63"/>
<path d="M71.298 28.2988H66.8458V32.9515H62.3936V37.6261H66.8458V42.2788H71.298V28.2988Z" fill="black" fill-opacity="0.63"/>
<path d="M71.298 18.9727H66.8457V23.6473H71.298V18.9727Z" fill="black" fill-opacity="0.63"/>
<path d="M71.298 4.99219H66.8457V9.66682H71.298V4.99219Z" fill="black" fill-opacity="0.63"/>
<path d="M62.3926 37.626H57.9404V42.2787H62.3926V37.626Z" fill="black" fill-opacity="0.63"/>
<path d="M57.9415 79.5664H53.4893V88.8938H57.9415V79.5664Z" fill="black" fill-opacity="0.63"/>
<path d="M49.0159 9.66612V18.9716H53.4883V23.6461H49.0159V32.9515H44.5636V23.6461H40.1114V37.6261H35.6592V46.9315H40.1114V51.6061H31.1867V42.2788H26.7345V46.9315H22.2823V42.2788H17.8301V46.9315H22.2823V51.6061H31.1867V56.2588H35.6592V60.9334H40.1114V56.2588H44.5636V51.6061H49.0159V46.9315H40.1114V42.2788H49.0159V46.9315H53.4883V37.6261H49.0159V32.9515H53.4883V28.2988H62.3927V18.9716H57.9405V9.66612H62.3927V0.338867H57.9405V4.99154H53.4883V9.66612H49.0159Z" fill="black" fill-opacity="0.63"/>
<path d="M53.4891 88.8938H49.0166V79.5664H35.66V88.8938H31.1875V98.1991H35.66V88.8938H40.1122V84.2191H44.5644V93.5466H53.4891V88.8938Z" fill="black" fill-opacity="0.63"/>
<path d="M57.9211 70.2393H49.0166V74.9139H57.9211V70.2393Z" fill="black" fill-opacity="0.63"/>
<path d="M53.4891 0.338867H44.5645V4.99154H53.4891V0.338867Z" fill="black" fill-opacity="0.63"/>
<path d="M57.9413 56.2588H44.5645V60.9334H49.0166V65.586H53.4891V60.9334H57.9413V56.2588Z" fill="black" fill-opacity="0.63"/>
<path d="M49.0166 18.9727H44.5645V23.6473H49.0166V18.9727Z" fill="black" fill-opacity="0.63"/>
<path d="M44.5644 93.5469H40.1122V107.527H35.66V102.874H31.1875V112.179H40.1122V107.527H44.5644V93.5469Z" fill="black" fill-opacity="0.63"/>
<path d="M44.5644 74.9133V65.5859H31.1875V70.2387H40.1122V74.9133H44.5644Z" fill="black" fill-opacity="0.63"/>
<path d="M40.1115 18.9727H35.6592V23.6473H40.1115V18.9727Z" fill="black" fill-opacity="0.63"/>
<path d="M40.1115 14.3195H44.5637V4.99219H35.6592V9.66682H40.1115V14.3195Z" fill="black" fill-opacity="0.63"/>
<path d="M35.6398 74.9141H31.1875V79.5668H35.6398V74.9141Z" fill="black" fill-opacity="0.63"/>
<path d="M35.6398 23.6465H31.1875V32.9518H35.6398V23.6465Z" fill="black" fill-opacity="0.63"/>
<path d="M35.6398 0.338867H31.1875V4.99154H35.6398V0.338867Z" fill="black" fill-opacity="0.63"/>
<path d="M17.83 56.2588H13.3576V60.9334H8.90537V65.586H13.3576V70.2388H8.90537V65.586H4.45312V74.9134H13.3576V79.566H17.83V74.9134H31.1867V70.2388H17.83V56.2588Z" fill="black" fill-opacity="0.63"/>
<path d="M31.1866 32.9512H26.7344V37.6258H31.1866V32.9512Z" fill="black" fill-opacity="0.63"/>
<path d="M22.2822 65.586H26.7345V60.9334H31.1867V56.2588H22.2822V65.586Z" fill="black" fill-opacity="0.63"/>
<path d="M26.7345 37.626H22.2822V42.2787H26.7345V37.626Z" fill="black" fill-opacity="0.63"/>
<path d="M0.000976562 112.179H26.7345V84.2188H0.000976562V112.179ZM4.45319 88.8934H22.2823V107.526H4.45319V88.8934Z" fill="black" fill-opacity="0.63"/>
<path d="M22.2619 32.9512H13.3574V37.6258H22.2619V32.9512Z" fill="black" fill-opacity="0.63"/>
<path d="M17.8097 9.66602H8.90527V18.9714H17.8097V9.66602Z" fill="black" fill-opacity="0.63"/>
<path d="M17.8097 93.5469H8.90527V102.874H17.8097V93.5469Z" fill="black" fill-opacity="0.63"/>
<path d="M8.90538 51.6058V46.9311H13.3577V37.6258H8.90538V32.9512H0.000976562V37.6258H4.45319V56.2584H0.000976562V60.933H8.90538V56.2584H13.3577V51.6058H8.90538Z" fill="black" fill-opacity="0.63"/>
<path d="M26.7345 0.338867H0.000976562V28.2988H26.7345V0.338867ZM22.2823 23.6461H4.45319V4.99154H22.2823V23.6461Z" fill="black" fill-opacity="0.63"/>
</svg>
