<svg width="288" height="39" viewBox="0 0 288 39" fill="none" xmlns="http://www.w3.org/2000/svg">
<path d="M-43.9173 -28.7112C-43.9176 -28.7112 -43.918 -28.7113 -43.9183 -28.7114C-48.8313 -30.6402 -54.2785 -31.8053 -60.0253 -32.5379C-60.6546 -32.6182 -61.2906 -32.6302 -61.9237 -32.5898C-65.244 -32.3779 -68.4923 -32.3195 -71.6294 -32.4969C-71.7123 -32.4936 -71.7222 -32.3724 -71.6409 -32.3556C-66.5369 -31.3011 -61.7187 -29.8839 -57.3637 -27.8803C-31.092 -15.7892 -10.5492 25.3994 20.2386 26.8224C31.6227 27.3485 42.1124 22.3314 52.1936 15.3128C46.5693 18.1745 40.6861 19.9492 34.4233 20.0167C4.51268 20.3361 -17.767 -18.4436 -43.9163 -28.711C-43.9166 -28.7111 -43.9169 -28.7112 -43.9173 -28.7112Z" fill="#222222"/>
<path d="M52.1934 15.3127C52.1935 15.3127 52.1935 15.3127 52.1936 15.3126C56.9021 12.9167 61.429 9.75893 65.8468 6.20056C64.2224 7.20336 62.5683 8.11064 60.881 8.90338C60.6339 9.01949 60.4002 9.1624 60.1861 9.33188C57.5447 11.4227 54.8834 13.4388 52.1933 15.3121C52.193 15.3123 52.1931 15.3126 52.1934 15.3127Z" fill="#222222"/>
<path d="M65.8464 6.20083C65.8464 6.20118 65.8468 6.2014 65.8471 6.20122C70.2764 3.46695 74.4897 0.0199611 78.5803 -3.78153C77.2863 -2.82233 75.9685 -1.92831 74.6232 -1.10955C74.0178 -0.741074 73.4419 -0.325191 72.9149 0.148591C70.5829 2.24466 68.2305 4.28101 65.8466 6.20051C65.8465 6.20059 65.8464 6.20071 65.8464 6.20083Z" fill="#222222"/>
<path d="M-18.3155 -32.9826C-18.3155 -32.9823 -18.3157 -32.9822 -18.316 -32.9822C-25.5223 -34.8993 -33.6584 -35.0806 -42.1152 -34.655C-45.1054 -34.1513 -48.0606 -33.7331 -50.9571 -33.4623C-43.7958 -33.2186 -36.9701 -32.4234 -30.8825 -30.4271C-4.97901 -21.9289 18.8233 14.3902 47.7558 12.4313C52.1737 12.1321 56.3438 10.9653 60.326 9.15969C60.4471 9.1048 60.5607 9.03485 60.6647 8.95209C61.1383 8.57533 61.6112 8.19626 62.0835 7.81529C63.3485 6.7949 61.8095 3.93872 60.1968 4.14045C32.3318 7.62831 7.22311 -26.189 -18.315 -32.983C-18.3152 -32.983 -18.3155 -32.9829 -18.3155 -32.9826Z" fill="#222222"/>
<path d="M73.1317 -1.32523C72.6015 -0.885582 73.0542 -0.189923 73.6511 -0.533456C73.6876 -0.554443 73.7221 -0.579536 73.7533 -0.607795C76.734 -3.30966 79.6834 -6.09821 82.6246 -8.85287C82.6475 -8.87424 82.6191 -8.91233 82.592 -8.89677C79.4352 -6.50545 76.287 -3.94184 73.1317 -1.32523Z" fill="#222222"/>
<path d="M82.2564 -14.2523C82.2564 -14.2528 82.2559 -14.2532 82.2555 -14.2531C56.7581 -8.05439 29.6784 -36.8166 5.20051 -40.4184C-4.41208 -41.8332 -15.3232 -39.9329 -26.3484 -37.7184C-28.6819 -37.1508 -31.0009 -36.6241 -33.2948 -36.1724C-23.756 -37.3805 -14.476 -38.0175 -6.27035 -36.328C18.7905 -31.1689 44.9911 0.124347 71.7079 -4.77762C75.6126 -5.49368 79.2165 -6.92748 82.5928 -8.89409C82.7283 -8.99736 82.8648 -9.09957 83.0002 -9.20183C85.9777 -11.9881 88.9482 -14.7351 91.936 -17.318C93.0484 -18.4907 94.1606 -19.6604 95.2722 -20.8179C91.376 -17.7427 87.0959 -15.4285 82.2573 -14.2515C82.2568 -14.2514 82.2564 -14.2518 82.2564 -14.2523Z" fill="#222222"/>
</svg>
