<svg width="255" height="96" viewBox="0 0 255 96" fill="none" xmlns="http://www.w3.org/2000/svg">
<path d="M187.85 29.0754C187.85 29.0757 187.85 29.0758 187.85 29.0758C185.051 29.2824 182.184 29.963 179.277 30.921C178.66 31.1241 178.072 31.4016 177.507 31.7203C176.03 32.5527 174.552 33.3004 173.071 33.9231C173.03 33.9456 173.055 34.0098 173.1 33.9982C175.911 33.2881 178.67 32.8332 181.344 32.7915C197.474 32.5419 217.998 48.5689 233.724 41.7606C239.539 39.2432 243.526 34.1111 246.81 28.0559C244.715 30.8953 242.22 33.2424 239.11 34.8098C224.256 42.2939 203.466 27.9234 187.851 29.075C187.851 29.075 187.85 29.0752 187.85 29.0754Z" fill="url(#paint0_radial_34_17999)"/>
<path d="M265.003 -9.79877C265.003 -9.79885 265.003 -9.79891 265.003 -9.79885C263.147 -7.64402 261.601 -5.04692 260.225 -2.19464C260.181 -2.10321 260.146 -2.00747 260.121 -1.90926C259.639 -0.0692001 259.084 1.71127 258.416 3.3947C258.395 3.46682 258.497 3.51145 258.536 3.44702C259.887 1.19721 261.36 -0.845935 263.03 -2.57071C274.661 -14.5862 300.358 -17.9656 306.417 -33.2741C307.522 -36.0653 307.879 -39.0143 307.723 -42.072C307.679 -42.9301 305.579 -42.8128 305.31 -41.9968C300.304 -26.822 275.595 -22.0974 265.003 -9.7987C265.003 -9.79864 265.003 -9.7987 265.003 -9.79877Z" fill="url(#paint1_radial_34_17999)"/>
<path d="M105.789 2.00244C105.789 2.00246 105.789 2.00237 105.789 2.00232C103.633 0.145502 101.034 -1.40093 98.18 -2.77743C98.0918 -2.81999 97.9994 -2.85362 97.9046 -2.87842C96.0627 -3.3603 94.2805 -3.91575 92.5955 -4.58431C92.5234 -4.6054 92.4788 -4.50303 92.5432 -4.46436C94.793 -3.11381 96.8361 -1.64017 98.5609 0.0291932C110.576 11.6607 113.956 37.3581 129.264 43.417C132.056 44.5216 135.005 44.8786 138.062 44.7224C138.92 44.6786 138.803 42.5791 137.987 42.3098C122.812 37.3033 118.088 12.5948 105.789 2.00255C105.789 2.0025 105.789 2.00241 105.789 2.00244Z" fill="url(#paint2_radial_34_17999)"/>
<path d="M147.435 42.9727C147.435 42.9725 147.435 42.9724 147.436 42.9723C150.332 42.5648 153.297 41.6992 156.301 40.5879C155.624 40.7413 154.95 40.8695 154.279 40.9694C153.441 41.0941 152.611 41.272 151.813 41.5526C150.344 42.0685 148.883 42.5489 147.435 42.9727Z" fill="url(#paint3_radial_34_17999)"/>
<path d="M246.81 28.0563C246.81 28.0563 246.81 28.0562 246.81 28.0562C248.563 25.679 250.036 22.9568 251.355 20.0565C250.795 20.9647 250.197 21.8316 249.554 22.6482C249.456 22.7716 249.373 22.9054 249.307 23.0479C248.51 24.7614 247.685 26.4416 246.809 28.056C246.809 28.0562 246.809 28.0563 246.81 28.0563Z" fill="url(#paint4_radial_34_17999)"/>
<path d="M251.355 20.0564C251.355 20.0566 251.356 20.0566 251.356 20.0564C252.886 17.5746 254.13 14.7813 255.225 11.8369C254.89 12.4996 254.537 13.1437 254.163 13.767C253.796 14.3773 253.465 15.0092 253.203 15.6715C252.615 17.1629 252.003 18.6311 251.355 20.0562C251.355 20.0563 251.355 20.0563 251.355 20.0564Z" fill="url(#paint5_radial_34_17999)"/>
<path d="M156.301 40.5879C159.115 39.949 161.971 38.8724 164.847 37.5719C164.172 37.7874 163.498 37.9772 162.825 38.1382C162.103 38.311 161.39 38.5253 160.707 38.8177C159.232 39.4494 157.762 40.0476 156.301 40.5879Z" fill="url(#paint6_radial_34_17999)"/>
<path d="M120.05 4.31505C120.05 4.31512 120.05 4.31511 120.05 4.31501C116.809 2.12395 112.758 0.65585 108.393 -0.563933C106.702 -0.828819 105.04 -1.13625 103.432 -1.51758C107.011 -0.17565 110.293 1.38375 112.965 3.42664C125.469 12.9872 131.435 36.6404 146.408 40.6313C148.532 41.1975 150.696 41.3292 152.889 41.1345C152.972 41.1272 153.053 41.1088 153.131 41.0804C153.685 40.8794 154.239 40.6743 154.793 40.4662C155.574 40.1734 155.305 38.5795 154.488 38.4121C139.783 35.3959 132.681 12.8569 120.051 4.3151C120.051 4.315 120.05 4.31498 120.05 4.31505Z" fill="url(#paint7_radial_34_17999)"/>
<path d="M199.568 20.6259C199.568 20.6259 199.568 20.6261 199.568 20.6261C195.492 21.4099 191.384 23.3086 187.268 25.5959C185.901 26.5853 184.53 27.5224 183.151 28.3698C186.787 26.7416 190.393 25.4774 193.93 25.0079C208.982 23.0121 229.919 35.7521 243.876 27.6694C246.006 26.4355 247.797 24.8191 249.335 22.9223C249.382 22.8633 249.422 22.7985 249.454 22.7296C249.603 22.4084 249.75 22.0861 249.897 21.7629C250.273 20.9318 248.782 19.8841 248.02 20.3865C234.977 28.9895 214.012 17.8482 199.568 20.6257C199.567 20.6257 199.567 20.6259 199.568 20.6259Z" fill="url(#paint8_radial_34_17999)"/>
<path d="M257.514 5.45694C257.254 5.99572 257.02 6.54757 256.839 7.11749C256.329 8.71681 255.797 10.2976 255.224 11.8374C256.396 9.51229 257.335 6.96124 258.147 4.29691C258.164 4.24108 258.088 4.20813 258.059 4.25879C257.885 4.66452 257.703 5.06414 257.514 5.45694Z" fill="url(#paint9_radial_34_17999)"/>
<path d="M171.054 34.6908C170.464 34.8903 169.883 35.1194 169.328 35.4024C167.83 36.1656 166.336 36.8988 164.847 37.5719C167.404 36.7557 169.974 35.5727 172.551 34.2025C172.583 34.1853 172.564 34.1369 172.529 34.1463C172.038 34.3426 171.546 34.5246 171.054 34.6908Z" fill="url(#paint10_radial_34_17999)"/>
<path d="M159.417 38.6914C159.417 38.6913 159.418 38.6912 159.418 38.6911C160.158 38.6314 160.901 38.5296 161.644 38.3902C161.703 38.3792 161.76 38.3614 161.815 38.3374C163.891 37.4286 165.976 36.4657 168.06 35.5174C168.071 35.5122 168.066 35.4952 168.053 35.4976C165.196 36.4539 162.307 37.5705 159.417 38.6914Z" fill="url(#paint11_radial_34_17999)"/>
<path d="M253.112 14.4369C252.956 14.7921 253.359 15.0276 253.573 14.7041C253.586 14.6842 253.597 14.6627 253.606 14.6405C254.42 12.5296 255.198 10.3821 255.98 8.25398C255.986 8.23749 255.962 8.22552 255.952 8.24016C254.97 10.2386 254.036 12.3234 253.112 14.4369Z" fill="url(#paint12_radial_34_17999)"/>
<path d="M178.347 30.8845C178.302 30.9117 178.256 30.9388 178.211 30.966C178.065 31.0534 178.179 31.294 178.34 31.2381C178.348 31.2351 178.356 31.2314 178.364 31.2268C179.24 30.7143 180.115 30.1749 180.99 29.616C180.113 30.0861 179.232 30.5119 178.348 30.8842L178.347 30.8845Z" fill="url(#paint13_radial_34_17999)"/>
<path d="M174.464 32.7152C173.774 33.0798 173.084 33.4452 172.394 33.8085C172.215 33.9033 172.332 34.1982 172.528 34.1463C172.709 34.0743 172.89 33.9998 173.07 33.9236C173.59 33.6426 174.11 33.3545 174.629 33.0607C174.867 32.9266 174.715 32.6122 174.463 32.7154L174.464 32.7152Z" fill="url(#paint14_radial_34_17999)"/>
<path d="M168.245 35.4335C168.244 35.4338 168.244 35.434 168.244 35.4341C168.243 35.4347 168.241 35.4353 168.24 35.4359C168.227 35.4419 168.233 35.4614 168.247 35.4585C168.884 35.3273 169.52 35.1656 170.155 34.9762C170.16 34.9749 170.164 34.9731 170.168 34.971C170.249 34.9291 170.201 34.8094 170.114 34.8362C169.492 35.0263 168.87 35.2258 168.245 35.433C168.245 35.4331 168.245 35.4333 168.245 35.4335Z" fill="url(#paint15_radial_34_17999)"/>
<path d="M169.5 32.4912C169.5 32.4914 169.5 32.4915 169.5 32.4915C155.509 31.2856 146.462 11.1148 133.799 4.55019C129.227 2.18007 123.318 1.31584 117.219 0.575622C115.871 0.46571 114.537 0.333503 113.225 0.163086C118.351 1.1697 123.19 2.41463 127.006 4.68349C139.689 12.2249 147.82 33.6002 162.196 35.687C164.157 35.9719 166.109 35.8785 168.054 35.4968C168.117 35.4755 168.18 35.4544 168.244 35.4332C170.323 34.4882 172.399 33.559 174.464 32.7142C174.679 32.6005 174.494 32.1354 174.256 32.1849C172.689 32.5102 171.106 32.6291 169.5 32.491C169.5 32.491 169.5 32.4911 169.5 32.4912Z" fill="url(#paint16_radial_34_17999)"/>
<path d="M254.45 5.58429C254.45 5.58416 254.449 5.58412 254.449 5.58421C243.264 14.9938 222.574 6.91873 209.455 11.0687C204.303 12.6982 199.33 16.3401 194.377 20.1706C193.353 21.0319 192.327 21.8687 191.294 22.6611C195.756 19.7088 200.23 17.1119 204.748 15.9672C218.546 12.4707 239.428 22.0545 251.545 13.0091C253.316 11.6874 254.758 10.0724 255.953 8.2407C255.995 8.15475 256.038 8.06911 256.08 7.98369C256.872 5.83065 257.67 3.69937 258.518 1.64774C258.781 0.776021 259.045 -0.0941256 259.311 -0.95791C258.133 1.56779 256.572 3.79842 254.45 5.58437C254.45 5.58446 254.45 5.58442 254.45 5.58429Z" fill="url(#paint17_radial_34_17999)"/>
<path d="M90.4054 -8.55042C90.4057 -8.55053 90.4057 -8.55087 90.4056 -8.55109C80.9963 -19.736 89.0712 -40.4257 84.9213 -53.5447C83.2918 -58.6966 79.6498 -63.6705 75.8193 -68.6231C74.9581 -69.6466 74.1212 -70.6732 73.3288 -71.7058C76.2811 -67.2446 78.8781 -62.7701 80.0228 -58.2521C83.5193 -44.4539 73.9354 -23.5722 82.9803 -11.4552C84.302 -9.68419 85.917 -8.24232 87.7487 -7.04682C87.8347 -7.00491 87.9203 -6.96225 88.0057 -6.92012C90.1588 -6.12807 92.29 -5.32974 94.3417 -4.48187C95.2134 -4.21881 96.0835 -3.95507 96.9473 -3.68859C94.4217 -4.86732 92.1912 -6.42742 90.4052 -8.54975C90.4051 -8.54997 90.4051 -8.5503 90.4054 -8.55042Z" fill="url(#paint18_radial_34_17999)"/>
<path d="M180.99 29.6159C180.99 29.6161 180.99 29.6162 180.99 29.6161C181.713 29.2284 182.433 28.8111 183.152 28.3695C182.922 28.4721 182.693 28.5765 182.463 28.682C182.384 28.7184 182.307 28.7609 182.234 28.8088C181.819 29.0813 181.405 29.3505 180.99 29.6156C180.99 29.6156 180.99 29.6158 180.99 29.6159Z" fill="url(#paint19_radial_34_17999)"/>
<path d="M106.57 -1.05469C107.183 -0.89472 107.791 -0.731111 108.393 -0.562934C109.112 -0.450265 109.836 -0.346087 110.563 -0.246385C109.678 -0.406413 108.809 -0.591625 107.96 -0.805426C107.497 -0.888193 107.034 -0.97072 106.572 -1.05424C106.571 -1.05434 106.571 -1.05449 106.57 -1.05469Z" fill="url(#paint20_radial_34_17999)"/>
<path d="M185.581 26.554C185.581 26.5539 185.581 26.5537 185.581 26.5536C186.144 26.2283 186.706 25.9082 187.269 25.596C187.778 25.2282 188.287 24.8524 188.795 24.4724C188.057 24.9724 187.316 25.442 186.57 25.8751C186.24 26.1018 185.911 26.3285 185.581 26.5541C185.581 26.5542 185.581 26.5542 185.581 26.554Z" fill="url(#paint21_radial_34_17999)"/>
<path d="M181.664 29.0547C182.115 28.8415 182.553 28.5998 182.969 28.3229C183.839 27.7429 184.71 27.1505 185.58 26.5538C183.806 27.5791 182.031 28.6578 180.257 29.7321C180.726 29.5019 181.195 29.2758 181.664 29.0547Z" fill="url(#paint22_radial_34_17999)"/>
<path d="M101.996 -2.03893C102.466 -1.87303 102.946 -1.73668 103.435 -1.64101C104.476 -1.4376 105.523 -1.24444 106.57 -1.0553C104.6 -1.5702 102.582 -2.04899 100.559 -2.5332C101.041 -2.37108 101.521 -2.20653 101.996 -2.03893Z" fill="url(#paint23_radial_34_17999)"/>
<path d="M178.347 30.8848C178.983 30.5031 179.62 30.1175 180.257 29.732C179.597 30.0557 178.936 30.3876 178.276 30.7252C178.146 30.7912 178.213 30.9411 178.347 30.8848Z" fill="url(#paint24_radial_34_17999)"/>
<path d="M110.563 -0.246664C110.563 -0.246587 110.563 -0.246532 110.563 -0.246517C111.436 -0.0884241 112.325 0.0467606 113.225 0.163224C112.899 0.0993501 112.573 0.0361741 112.245 -0.026027C111.683 -0.0972619 111.122 -0.170246 110.563 -0.24701C110.563 -0.247037 110.563 -0.246842 110.563 -0.246664Z" fill="url(#paint25_radial_34_17999)"/>
<path d="M188.794 24.472C188.794 24.4718 188.794 24.4717 188.795 24.4716C189.633 23.9034 190.465 23.2965 191.294 22.6614C190.982 22.868 190.67 23.0758 190.359 23.2852C189.838 23.6848 189.317 24.081 188.795 24.4721C188.795 24.4722 188.795 24.4721 188.794 24.472Z" fill="url(#paint26_radial_34_17999)"/>
<path d="M266.935 -44.4029C266.935 -44.4028 266.935 -44.4028 266.935 -44.4029C272.552 -56.9776 291.486 -66.8303 291.863 -80.3833C291.962 -83.9371 290.772 -87.3079 288.875 -90.5789C288.006 -91.8415 287.135 -93.1043 286.285 -94.3685C285.258 -95.7086 284.207 -97.0465 283.171 -98.3868C277.836 -104.725 271.55 -110.936 268.972 -117.693C264.236 -130.105 270.857 -150.502 261.159 -160.754C258.485 -163.58 254.972 -165.211 251.031 -166.204C249.595 -166.461 248.162 -166.715 246.746 -166.984C245.09 -167.194 243.424 -167.385 241.773 -167.585C233.564 -168.257 224.915 -168.124 218.599 -170.945C206.024 -176.562 196.171 -195.496 182.618 -195.873C179.064 -195.972 175.694 -194.782 172.423 -192.884C171.16 -192.016 169.897 -191.144 168.633 -190.295C167.293 -189.267 165.955 -188.217 164.615 -187.181C158.277 -181.846 152.065 -175.56 145.309 -172.981C132.897 -168.245 112.5 -174.867 102.248 -165.169C99.421 -162.495 97.79 -158.982 96.7974 -155.041C96.5409 -153.605 96.2861 -152.171 96.0174 -150.756C95.8078 -149.099 95.6164 -147.434 95.4161 -145.782C94.7448 -137.574 94.8777 -128.924 92.0565 -122.609C86.4398 -110.034 67.5054 -100.181 67.1285 -86.6279C67.0296 -83.074 68.2195 -79.7033 70.1171 -76.4323C70.9858 -75.1697 71.8571 -73.9069 72.7064 -72.6427C73.7342 -71.3026 74.7843 -69.9647 75.8204 -68.6244C81.1555 -62.2864 87.4415 -56.075 90.02 -49.3184C94.7561 -36.9063 88.1343 -16.5095 97.8322 -6.25747C100.506 -3.43068 104.02 -1.79973 107.96 -0.80715C109.397 -0.550638 110.83 -0.295845 112.246 -0.0270734C113.902 0.182485 115.567 0.373923 117.219 0.574188C125.428 1.24547 134.077 1.11262 140.393 3.93378C152.968 9.5505 162.82 28.4849 176.374 28.8617C179.927 28.9607 183.298 27.7708 186.569 25.8732C187.832 25.0045 189.095 24.1332 190.359 23.2839C191.699 22.2561 193.037 21.206 194.377 20.1699C200.715 14.8348 206.926 8.54876 213.683 5.9703C226.095 1.23422 246.492 7.85601 256.744 -1.84192C259.571 -4.51606 261.202 -8.02934 262.194 -11.9701C262.451 -13.4066 262.706 -14.8398 262.974 -16.2552C263.184 -17.9119 263.375 -19.577 263.576 -21.2289C264.247 -29.4375 264.114 -38.0865 266.935 -44.4029C266.935 -44.403 266.935 -44.403 266.935 -44.4029ZM258.438 -9.22308C249.112 0.68724 229.106 -4.54341 217.423 0.71211C205.312 6.16003 195.859 24.4435 182.791 24.8405C169.723 25.2376 159.176 7.56298 146.756 2.86116C134.775 -1.67478 115.124 4.76252 105.214 -4.56314C95.3033 -13.8888 100.534 -33.895 95.2784 -45.578C89.8305 -57.6894 71.547 -67.1423 71.15 -80.2103C70.7529 -93.2783 88.4275 -103.825 93.1294 -116.245C97.6653 -128.226 91.228 -147.877 100.554 -157.787C109.879 -167.698 129.885 -162.467 141.568 -167.723C153.68 -173.17 163.133 -191.454 176.201 -191.851C189.269 -192.248 199.816 -174.573 212.235 -169.872C224.216 -165.336 243.867 -171.773 253.778 -162.447C263.688 -153.122 258.457 -133.115 263.713 -121.432C269.161 -109.321 287.444 -99.8681 287.841 -86.8001C288.238 -73.7321 270.564 -63.1854 265.862 -50.7655C261.326 -38.7848 267.763 -19.1334 258.438 -9.22308Z" fill="url(#paint27_radial_34_17999)"/>
<path d="M283.466 -92.7392C283.466 -92.7391 283.467 -92.7392 283.467 -92.7394C282.353 -105.28 264.247 -113.343 258.332 -124.681C252.626 -135.618 256.534 -155.144 246.484 -163.553C236.435 -171.963 217.904 -164.675 206.132 -168.365C193.929 -172.19 182.801 -188.59 170.26 -187.477C157.72 -186.363 149.656 -168.257 138.318 -162.342C127.381 -156.636 107.856 -160.544 99.446 -150.494C91.0358 -140.445 98.324 -121.914 94.6345 -110.142C90.8094 -97.9391 74.4089 -86.8106 75.5225 -74.2701C76.6362 -61.7296 94.742 -53.6658 100.657 -42.3281C106.364 -31.3909 102.456 -11.8656 112.505 -3.45593C122.554 4.95428 141.085 -2.33401 152.857 1.355C165.06 5.18007 176.188 21.5806 188.729 20.467C201.269 19.3533 209.333 1.24748 220.671 -4.66789C231.608 -10.3741 251.133 -6.46601 259.543 -16.5154C267.953 -26.565 260.665 -45.0957 264.354 -56.8674C268.179 -69.0702 284.579 -80.1985 283.466 -92.7389C283.466 -92.7391 283.466 -92.7393 283.466 -92.7392ZM260.08 -23.6762C252.569 -13.5595 233.607 -16.2199 223.428 -10.1305C212.876 -3.8185 206.148 14.0124 194.172 15.7825C182.196 17.5526 170.597 2.43116 158.67 -0.558049C147.164 -3.44168 129.783 4.59058 119.667 -2.92034C109.55 -10.4313 112.21 -29.3923 106.121 -39.5718C99.8088 -50.1243 81.978 -56.8524 80.2079 -68.8281C78.4378 -80.8037 93.5592 -92.4025 96.5484 -104.33C99.432 -115.836 91.3998 -133.217 98.9107 -143.333C106.422 -153.45 125.383 -150.79 135.562 -156.879C146.115 -163.191 152.843 -181.022 164.818 -182.792C176.794 -184.562 188.393 -169.441 200.321 -166.452C211.826 -163.568 229.207 -171.6 239.324 -164.089C249.44 -156.578 246.78 -137.617 252.869 -127.438C259.181 -116.885 277.012 -110.157 278.782 -98.1815C280.552 -86.2058 265.431 -74.6071 262.442 -62.6794C259.558 -51.1735 267.591 -33.7929 260.08 -23.6762Z" fill="url(#paint28_radial_34_17999)"/>
<path d="M273.83 -103.113C271.465 -114.492 254.001 -119.945 247.363 -129.705C240.959 -139.121 242.45 -157.441 232.335 -164.075C222.22 -170.709 206.012 -162.041 194.824 -164.162C183.226 -166.361 171.265 -180.206 159.887 -177.841C148.508 -175.476 143.056 -158.012 133.295 -151.373C123.879 -144.97 105.559 -146.461 98.925 -136.346C92.2911 -126.231 100.959 -110.022 98.8378 -98.8343C96.6389 -87.2362 82.7941 -75.2759 85.1595 -63.8976C87.5244 -52.5191 104.988 -47.0663 111.627 -37.3056C118.031 -27.8897 116.539 -9.56949 126.654 -2.93559C136.769 3.69829 152.978 -4.96997 164.166 -2.84843C175.764 -0.64954 187.724 13.1953 199.103 10.8299C210.481 8.465 215.934 -8.99902 225.695 -15.6375C235.111 -22.0413 253.431 -20.5499 260.065 -30.665C266.699 -40.78 258.03 -56.9886 260.152 -68.1765C262.351 -79.7746 276.195 -91.7349 273.83 -103.113ZM259.521 -37.4423C253.738 -27.3954 236.128 -27.8011 227.476 -21.1498C218.508 -14.2547 214.264 2.75702 203.51 5.65367C192.756 8.55054 180.542 -4.02848 169.324 -5.48586C158.503 -6.89195 143.479 2.30385 133.432 -3.47876C123.385 -9.26136 123.791 -26.8716 117.139 -35.5236C110.244 -44.492 93.2326 -48.7361 90.336 -59.4894C87.4391 -70.2434 100.018 -82.4575 101.475 -93.6755C102.882 -104.497 93.6858 -119.521 99.4684 -129.568C105.252 -139.615 122.861 -139.209 131.513 -145.86C140.482 -152.755 144.726 -169.767 155.479 -172.664C166.233 -175.561 178.447 -162.982 189.665 -161.524C200.487 -160.118 215.511 -169.314 225.557 -163.531C235.604 -157.748 235.199 -140.138 241.85 -131.486C248.745 -122.518 265.757 -118.274 268.653 -107.521C271.55 -96.7667 258.971 -84.5526 257.514 -73.3346C256.108 -62.5129 265.304 -47.4889 259.521 -37.4423Z" fill="url(#paint29_radial_34_17999)"/>
<path d="M263.297 -111.396C259.933 -121.503 243.453 -124.609 236.37 -132.79C229.538 -140.681 228.946 -157.52 219.03 -162.484C209.115 -167.447 195.28 -157.83 184.868 -158.571C174.075 -159.339 161.712 -170.671 151.604 -167.307C141.497 -163.943 138.391 -147.462 130.21 -140.38C122.319 -133.547 105.48 -132.956 100.516 -123.04C95.5529 -113.124 105.17 -99.2899 104.429 -88.8781C103.661 -78.0847 92.3289 -65.7216 95.6932 -55.6139C99.0574 -45.5062 115.538 -42.4002 122.62 -34.2194C129.453 -26.3283 130.045 -9.48962 139.96 -4.52591C149.876 0.43757 163.71 -9.17946 174.122 -8.43856C184.915 -7.67068 197.278 3.66153 207.386 0.297269C217.494 -3.067 220.6 -19.5471 228.781 -26.6299C236.672 -33.4623 253.51 -34.0545 258.474 -43.9695C263.438 -53.8851 253.821 -67.7196 254.561 -78.1315C255.329 -88.9249 266.662 -101.288 263.297 -111.396ZM251.326 -82.5506C251.198 -72.5875 261.13 -59.9377 256.951 -50.2135C252.771 -40.4893 236.759 -38.9906 229.617 -32.042C222.214 -24.8384 220.17 -8.96145 210.724 -5.19445C201.279 -1.42746 188.869 -11.5403 178.541 -11.6727C168.578 -11.8004 155.928 -1.86873 146.204 -6.04796C136.48 -10.2272 134.981 -26.2402 128.032 -33.3815C120.829 -40.7842 104.952 -42.8291 101.185 -52.2746C97.4178 -61.72 107.531 -74.1297 107.663 -84.4578C107.791 -94.4208 97.8591 -107.071 102.038 -116.795C106.218 -126.519 122.231 -128.018 129.372 -134.966C136.775 -142.17 138.819 -158.047 148.265 -161.814C157.71 -165.581 170.12 -155.468 180.448 -155.336C190.411 -155.208 203.061 -165.14 212.785 -160.96C222.509 -156.781 224.008 -140.768 230.957 -133.627C238.16 -126.224 254.037 -124.179 257.804 -114.734C261.571 -105.288 251.458 -92.8786 251.326 -82.5506Z" fill="url(#paint30_radial_34_17999)"/>
<path d="M225.648 -134.009C218.646 -140.414 216.335 -155.555 206.858 -158.99C197.381 -162.425 185.904 -152.282 176.424 -151.852C166.597 -151.406 154.238 -160.334 145.467 -156.23C136.695 -152.125 135.63 -136.916 128.991 -129.658C122.587 -122.656 107.445 -120.344 104.01 -110.868C100.575 -101.391 110.718 -89.9139 111.148 -80.4339C111.594 -70.6066 102.666 -58.248 106.771 -49.4766C110.875 -40.7052 126.084 -39.6393 133.342 -33.0007C140.344 -26.5963 142.656 -11.4546 152.133 -8.01959C161.609 -4.58462 173.086 -14.7281 182.566 -15.1578C192.394 -15.6035 204.752 -6.67603 213.524 -10.7803C222.295 -14.8846 223.361 -30.0935 230 -37.3519C236.404 -44.3538 251.546 -46.6657 254.981 -56.1424C258.416 -65.6191 248.272 -77.096 247.842 -86.576C247.397 -96.4033 256.324 -108.762 252.22 -117.533C248.116 -126.305 232.907 -127.371 225.648 -134.009ZM244.146 -90.1927C245.077 -81.2262 255.331 -70.9016 252.597 -61.7244C249.862 -52.5471 235.63 -49.5182 229.943 -42.5234C224.047 -35.2728 223.877 -20.7901 215.785 -16.413C207.693 -12.0358 195.479 -19.8198 186.184 -18.8542C177.217 -17.9228 166.893 -7.6686 157.715 -10.4032C148.538 -13.1377 145.509 -27.37 138.514 -33.0574C131.264 -38.9529 116.781 -39.1232 112.404 -47.2151C108.027 -55.3071 115.811 -67.5211 114.845 -76.8162C113.914 -85.7827 103.66 -96.1072 106.394 -105.284C109.129 -114.462 123.361 -117.491 129.048 -124.485C134.944 -131.736 135.114 -146.219 143.206 -150.596C151.298 -154.973 163.512 -147.189 172.807 -148.155C181.774 -149.086 192.098 -159.34 201.276 -156.606C210.453 -153.871 213.482 -139.639 220.476 -133.951C227.727 -128.056 242.21 -127.886 246.587 -119.794C250.964 -111.702 243.18 -99.4878 244.146 -90.1927Z" fill="url(#paint31_radial_34_17999)"/>
<path d="M215.475 -133.474C208.546 -138.467 204.898 -151.76 196.068 -153.841C187.238 -155.921 178.038 -145.655 169.609 -144.28C160.871 -142.855 148.891 -149.544 141.479 -144.958C134.066 -140.373 134.703 -126.667 129.527 -119.484C124.533 -112.555 111.24 -108.907 109.159 -100.077C107.079 -91.2468 117.345 -82.0471 118.72 -73.6179C120.145 -64.8802 113.456 -52.8998 118.042 -45.4877C122.627 -38.0754 136.333 -38.7123 143.516 -33.5359C150.445 -28.5426 154.093 -15.2491 162.923 -13.1685C171.753 -11.0879 180.953 -21.3544 189.382 -22.7293C198.12 -24.1544 210.101 -17.4654 217.513 -22.0511C224.925 -26.6363 224.288 -40.3426 229.464 -47.5255C234.458 -54.454 247.751 -58.1025 249.832 -66.9326C251.912 -75.7626 241.646 -84.9624 240.271 -93.3915C238.846 -102.129 245.535 -114.11 240.949 -121.522C236.363 -128.934 222.658 -128.297 215.475 -133.474ZM236.254 -96.1636C238.013 -88.2919 248.198 -80.1821 246.721 -71.7422C245.245 -63.3023 232.911 -59.1325 228.584 -52.326C224.097 -45.2699 225.451 -32.3822 218.713 -27.6516C211.977 -22.9213 200.314 -28.5698 192.154 -26.7464C184.282 -24.9874 176.172 -14.8023 167.732 -16.2789C159.293 -17.7555 155.123 -30.0893 148.316 -34.4165C141.26 -38.9026 128.373 -37.5495 123.642 -44.2867C118.912 -51.0234 124.56 -62.6865 122.737 -70.8462C120.978 -78.7179 110.793 -86.8277 112.269 -95.2676C113.746 -103.707 126.08 -107.877 130.407 -114.684C134.893 -121.74 133.54 -134.628 140.277 -139.358C147.014 -144.088 158.677 -138.44 166.836 -140.263C174.708 -142.022 182.818 -152.207 191.258 -150.731C199.698 -149.254 203.868 -136.92 210.674 -132.593C217.73 -128.107 230.618 -129.46 235.348 -122.723C240.079 -115.986 234.43 -104.323 236.254 -96.1636Z" fill="url(#paint32_radial_34_17999)"/>
<path d="M206.104 -131.333C199.472 -135.026 194.879 -146.386 186.868 -147.312C178.858 -148.238 171.795 -138.224 164.495 -136.141C156.928 -133.981 145.66 -138.65 139.59 -133.837C133.519 -129.024 135.495 -116.989 131.666 -110.114C127.973 -103.482 116.613 -98.8883 115.687 -90.8777C114.761 -82.8671 124.775 -75.8044 126.858 -68.5045C129.019 -60.9371 124.349 -49.6701 129.162 -43.5991C133.975 -37.528 146.01 -39.5047 152.886 -35.6756C159.518 -31.9823 164.111 -20.6223 172.121 -19.6964C180.132 -18.7705 187.195 -28.7841 194.495 -30.8676C202.062 -33.0279 213.33 -28.3584 219.4 -33.1714C225.471 -37.9847 223.495 -50.0197 227.324 -56.895C231.017 -63.5269 242.377 -68.1202 243.303 -76.1309C244.229 -84.1415 234.215 -91.2041 232.132 -98.504C229.971 -106.071 234.641 -117.339 229.828 -123.409C225.015 -129.481 212.979 -127.504 206.104 -131.333ZM227.941 -100.412C230.288 -93.694 240.045 -87.6296 239.616 -80.0825C239.186 -72.5348 228.804 -67.6171 225.709 -61.2084C222.501 -54.5653 225.006 -43.4092 219.587 -38.5734C214.167 -33.7377 203.367 -37.4934 196.403 -35.0598C189.685 -32.712 183.62 -22.9553 176.073 -23.3849C168.525 -23.8143 163.608 -34.1963 157.199 -37.2912C150.556 -40.5 139.4 -37.9941 134.564 -43.4137C129.728 -48.8333 133.484 -59.633 131.05 -66.5974C128.703 -73.3157 118.946 -79.3802 119.376 -86.9273C119.805 -94.475 130.187 -99.3927 133.282 -105.801C136.491 -112.444 133.985 -123.601 139.404 -128.436C144.824 -133.272 155.624 -129.516 162.588 -131.95C169.306 -134.298 175.371 -144.055 182.918 -143.625C190.466 -143.195 195.383 -132.814 201.792 -129.719C208.435 -126.51 219.591 -129.016 224.427 -123.596C229.263 -118.176 225.507 -107.377 227.941 -100.412Z" fill="url(#paint33_radial_34_17999)"/>
<defs>
<radialGradient id="paint0_radial_34_17999" cx="0" cy="0" r="1" gradientUnits="userSpaceOnUse" gradientTransform="translate(230.254 16.8614) rotate(-39.1963) scale(132.982 41.2373)">
<stop stop-color="#FFB6D5"/>
<stop offset="0.1" stop-color="#FFE3C0"/>
<stop offset="0.29" stop-color="#C7FBDB"/>
<stop offset="0.43" stop-color="#C7CDF4"/>
<stop offset="0.54" stop-color="#FFBCD4"/>
<stop offset="0.66" stop-color="#FFE0C3"/>
<stop offset="0.76" stop-color="#B0F1D4"/>
<stop offset="0.84" stop-color="#C9CEEC"/>
<stop offset="0.91" stop-color="#FFC1DA"/>
<stop offset="1" stop-color="#BDFFE3"/>
<animateTransform xmlns="http://www.w3.org/2000/svg" attributeName="gradientTransform" attributeType="XML" type="scale" 
values="232.982 81.2373; 368.8954 216.3446; 232.982 81.2373" 
dur="5s" keyTimes="0; 0.5; 1" repeatCount="indefinite"/>
</radialGradient>
<radialGradient id="paint1_radial_34_17999" cx="0" cy="0" r="1" gradientUnits="userSpaceOnUse" gradientTransform="translate(299.72 -40.5949) rotate(-40.322) scale(125.071 41.2331)">
<stop stop-color="#FFB6D5"/>
<stop offset="0.1" stop-color="#FFE3C0"/>
<stop offset="0.29" stop-color="#C7FBDB"/>
<stop offset="0.43" stop-color="#C7CDF4"/>
<stop offset="0.54" stop-color="#FFBCD4"/>
<stop offset="0.66" stop-color="#FFE0C3"/>
<stop offset="0.76" stop-color="#B0F1D4"/>
<stop offset="0.84" stop-color="#C9CEEC"/>
<stop offset="0.91" stop-color="#FFC1DA"/>
<stop offset="1" stop-color="#BDFFE3"/>
<animateTransform xmlns="http://www.w3.org/2000/svg" attributeName="gradientTransform" attributeType="XML" type="scale" 
values="232.982 81.2373; 368.8954 216.3446; 232.982 81.2373" 
dur="5s" keyTimes="0; 0.5; 1" repeatCount="indefinite"/>
</radialGradient>
<radialGradient id="paint2_radial_34_17999" cx="0" cy="0" r="1" gradientUnits="userSpaceOnUse" gradientTransform="translate(122.974 -1.28581) rotate(-75.7874) scale(94.8954 54.3446)">
<stop stop-color="#FFB6D5"/>
<stop offset="0.1" stop-color="#FFE3C0"/>
<stop offset="0.29" stop-color="#C7FBDB"/>
<stop offset="0.43" stop-color="#C7CDF4"/>
<stop offset="0.54" stop-color="#FFBCD4"/>
<stop offset="0.66" stop-color="#FFE0C3"/>
<stop offset="0.76" stop-color="#B0F1D4"/>
<stop offset="0.84" stop-color="#C9CEEC"/>
<stop offset="0.91" stop-color="#FFC1DA"/>
<stop offset="1" stop-color="#BDFFE3"/>
<animateTransform xmlns="http://www.w3.org/2000/svg" attributeName="gradientTransform" attributeType="XML" type="scale" 
values="232.982 81.2373; 368.8954 216.3446; 232.982 81.2373" 
dur="5s" keyTimes="0; 0.5; 1" repeatCount="indefinite"/>
</radialGradient>
<radialGradient id="paint3_radial_34_17999" cx="0" cy="0" r="1" gradientUnits="userSpaceOnUse" gradientTransform="translate(154.621 40.2025) rotate(-28.6785) scale(16.5974 1.79796)">
<stop stop-color="#FFB6D5"/>
<stop offset="0.1" stop-color="#FFE3C0"/>
<stop offset="0.29" stop-color="#C7FBDB"/>
<stop offset="0.43" stop-color="#C7CDF4"/>
<stop offset="0.54" stop-color="#FFBCD4"/>
<stop offset="0.66" stop-color="#FFE0C3"/>
<stop offset="0.76" stop-color="#B0F1D4"/>
<stop offset="0.84" stop-color="#C9CEEC"/>
<stop offset="0.91" stop-color="#FFC1DA"/>
<stop offset="1" stop-color="#BDFFE3"/>
<animateTransform xmlns="http://www.w3.org/2000/svg" attributeName="gradientTransform" attributeType="XML" type="scale" 
values="232.982 81.2373; 368.8954 216.3446; 232.982 81.2373" 
dur="5s" keyTimes="0; 0.5; 1" repeatCount="indefinite"/>
</radialGradient>
<radialGradient id="paint4_radial_34_17999" cx="0" cy="0" r="1" gradientUnits="userSpaceOnUse" gradientTransform="translate(250.841 21.6949) rotate(-48.7261) scale(14.7937 6.77336)">
<stop stop-color="#FFB6D5"/>
<stop offset="0.1" stop-color="#FFE3C0"/>
<stop offset="0.29" stop-color="#C7FBDB"/>
<stop offset="0.43" stop-color="#C7CDF4"/>
<stop offset="0.54" stop-color="#FFBCD4"/>
<stop offset="0.66" stop-color="#FFE0C3"/>
<stop offset="0.76" stop-color="#B0F1D4"/>
<stop offset="0.84" stop-color="#C9CEEC"/>
<stop offset="0.91" stop-color="#FFC1DA"/>
<stop offset="1" stop-color="#BDFFE3"/>
<animateTransform xmlns="http://www.w3.org/2000/svg" attributeName="gradientTransform" attributeType="XML" type="scale" 
values="232.982 81.2373; 368.8954 216.3446; 232.982 81.2373" 
dur="5s" keyTimes="0; 0.5; 1" repeatCount="indefinite"/>
</radialGradient>
<radialGradient id="paint5_radial_34_17999" cx="0" cy="0" r="1" gradientUnits="userSpaceOnUse" gradientTransform="translate(254.829 13.5442) rotate(-52.3723) scale(14.1749 7.11339)">
<stop stop-color="#FFB6D5"/>
<stop offset="0.1" stop-color="#FFE3C0"/>
<stop offset="0.29" stop-color="#C7FBDB"/>
<stop offset="0.43" stop-color="#C7CDF4"/>
<stop offset="0.54" stop-color="#FFBCD4"/>
<stop offset="0.66" stop-color="#FFE0C3"/>
<stop offset="0.76" stop-color="#B0F1D4"/>
<stop offset="0.84" stop-color="#C9CEEC"/>
<stop offset="0.91" stop-color="#FFC1DA"/>
<stop offset="1" stop-color="#BDFFE3"/>
<animateTransform xmlns="http://www.w3.org/2000/svg" attributeName="gradientTransform" attributeType="XML" type="scale" 
values="232.982 81.2373; 368.8954 216.3446; 232.982 81.2373" 
dur="5s" keyTimes="0; 0.5; 1" repeatCount="indefinite"/>
</radialGradient>
<radialGradient id="paint6_radial_34_17999" cx="0" cy="0" r="1" gradientUnits="userSpaceOnUse" gradientTransform="translate(163.39 37.6819) rotate(-25.9422) scale(16.4658 0.861286)">
<stop stop-color="#FFB6D5"/>
<stop offset="0.1" stop-color="#FFE3C0"/>
<stop offset="0.29" stop-color="#C7FBDB"/>
<stop offset="0.43" stop-color="#C7CDF4"/>
<stop offset="0.54" stop-color="#FFBCD4"/>
<stop offset="0.66" stop-color="#FFE0C3"/>
<stop offset="0.76" stop-color="#B0F1D4"/>
<stop offset="0.84" stop-color="#C9CEEC"/>
<stop offset="0.91" stop-color="#FFC1DA"/>
<stop offset="1" stop-color="#BDFFE3"/>
<animateTransform xmlns="http://www.w3.org/2000/svg" attributeName="gradientTransform" attributeType="XML" type="scale" 
values="232.982 81.2373; 368.8954 216.3446; 232.982 81.2373" 
dur="5s" keyTimes="0; 0.5; 1" repeatCount="indefinite"/>
</radialGradient>
<radialGradient id="paint7_radial_34_17999" cx="0" cy="0" r="1" gradientUnits="userSpaceOnUse" gradientTransform="translate(136.472 -0.696572) rotate(-69.7858) scale(93.3692 55.2308)">
<stop stop-color="#FFB6D5"/>
<stop offset="0.1" stop-color="#FFE3C0"/>
<stop offset="0.29" stop-color="#C7FBDB"/>
<stop offset="0.43" stop-color="#C7CDF4"/>
<stop offset="0.54" stop-color="#FFBCD4"/>
<stop offset="0.66" stop-color="#FFE0C3"/>
<stop offset="0.76" stop-color="#B0F1D4"/>
<stop offset="0.84" stop-color="#C9CEEC"/>
<stop offset="0.91" stop-color="#FFC1DA"/>
<stop offset="1" stop-color="#BDFFE3"/>
<animateTransform xmlns="http://www.w3.org/2000/svg" attributeName="gradientTransform" attributeType="XML" type="scale" 
values="232.982 81.2373; 368.8954 216.3446; 232.982 81.2373" 
dur="5s" keyTimes="0; 0.5; 1" repeatCount="indefinite"/>
</radialGradient>
<radialGradient id="paint8_radial_34_17999" cx="0" cy="0" r="1" gradientUnits="userSpaceOnUse" gradientTransform="translate(237.834 9.68127) rotate(-36.3461) scale(126.936 32.8066)">
<stop stop-color="#FFB6D5"/>
<stop offset="0.1" stop-color="#FFE3C0"/>
<stop offset="0.29" stop-color="#C7FBDB"/>
<stop offset="0.43" stop-color="#C7CDF4"/>
<stop offset="0.54" stop-color="#FFBCD4"/>
<stop offset="0.66" stop-color="#FFE0C3"/>
<stop offset="0.76" stop-color="#B0F1D4"/>
<stop offset="0.84" stop-color="#C9CEEC"/>
<stop offset="0.91" stop-color="#FFC1DA"/>
<stop offset="1" stop-color="#BDFFE3"/>
<animateTransform xmlns="http://www.w3.org/2000/svg" attributeName="gradientTransform" attributeType="XML" type="scale" 
values="232.982 81.2373; 368.8954 216.3446; 232.982 81.2373" 
dur="5s" keyTimes="0; 0.5; 1" repeatCount="indefinite"/>
</radialGradient>
<radialGradient id="paint9_radial_34_17999" cx="0" cy="0" r="1" gradientUnits="userSpaceOnUse" gradientTransform="translate(257.999 5.57131) rotate(-56.1048) scale(12.8499 6.91876)">
<stop stop-color="#FFB6D5"/>
<stop offset="0.1" stop-color="#FFE3C0"/>
<stop offset="0.29" stop-color="#C7FBDB"/>
<stop offset="0.43" stop-color="#C7CDF4"/>
<stop offset="0.54" stop-color="#FFBCD4"/>
<stop offset="0.66" stop-color="#FFE0C3"/>
<stop offset="0.76" stop-color="#B0F1D4"/>
<stop offset="0.84" stop-color="#C9CEEC"/>
<stop offset="0.91" stop-color="#FFC1DA"/>
<stop offset="1" stop-color="#BDFFE3"/>
<animateTransform xmlns="http://www.w3.org/2000/svg" attributeName="gradientTransform" attributeType="XML" type="scale" 
values="232.982 81.2373; 368.8954 216.3446; 232.982 81.2373" 
dur="5s" keyTimes="0; 0.5; 1" repeatCount="indefinite"/>
</radialGradient>
<radialGradient id="paint10_radial_34_17999" cx="0" cy="0" r="1" gradientUnits="userSpaceOnUse" gradientTransform="translate(171.518 34.5016) rotate(-25.2592) scale(15.7744 0.603062)">
<stop stop-color="#FFB6D5"/>
<stop offset="0.1" stop-color="#FFE3C0"/>
<stop offset="0.29" stop-color="#C7FBDB"/>
<stop offset="0.43" stop-color="#C7CDF4"/>
<stop offset="0.54" stop-color="#FFBCD4"/>
<stop offset="0.66" stop-color="#FFE0C3"/>
<stop offset="0.76" stop-color="#B0F1D4"/>
<stop offset="0.84" stop-color="#C9CEEC"/>
<stop offset="0.91" stop-color="#FFC1DA"/>
<stop offset="1" stop-color="#BDFFE3"/>
<animateTransform xmlns="http://www.w3.org/2000/svg" attributeName="gradientTransform" attributeType="XML" type="scale" 
values="232.982 81.2373; 368.8954 216.3446; 232.982 81.2373" 
dur="5s" keyTimes="0; 0.5; 1" repeatCount="indefinite"/>
</radialGradient>
<radialGradient id="paint11_radial_34_17999" cx="0" cy="0" r="1" gradientUnits="userSpaceOnUse" gradientTransform="translate(166.693 35.7021) rotate(-25.8421) scale(16.9053 0.849415)">
<stop stop-color="#FFB6D5"/>
<stop offset="0.1" stop-color="#FFE3C0"/>
<stop offset="0.29" stop-color="#C7FBDB"/>
<stop offset="0.43" stop-color="#C7CDF4"/>
<stop offset="0.54" stop-color="#FFBCD4"/>
<stop offset="0.66" stop-color="#FFE0C3"/>
<stop offset="0.76" stop-color="#B0F1D4"/>
<stop offset="0.84" stop-color="#C9CEEC"/>
<stop offset="0.91" stop-color="#FFC1DA"/>
<stop offset="1" stop-color="#BDFFE3"/>
<animateTransform xmlns="http://www.w3.org/2000/svg" attributeName="gradientTransform" attributeType="XML" type="scale" 
values="232.982 81.2373; 368.8954 216.3446; 232.982 81.2373" 
dur="5s" keyTimes="0; 0.5; 1" repeatCount="indefinite"/>
</radialGradient>
<radialGradient id="paint12_radial_34_17999" cx="0" cy="0" r="1" gradientUnits="userSpaceOnUse" gradientTransform="translate(255.64 9.89515) rotate(-53.0082) scale(14.4877 7.36967)">
<stop stop-color="#FFB6D5"/>
<stop offset="0.1" stop-color="#FFE3C0"/>
<stop offset="0.29" stop-color="#C7FBDB"/>
<stop offset="0.43" stop-color="#C7CDF4"/>
<stop offset="0.54" stop-color="#FFBCD4"/>
<stop offset="0.66" stop-color="#FFE0C3"/>
<stop offset="0.76" stop-color="#B0F1D4"/>
<stop offset="0.84" stop-color="#C9CEEC"/>
<stop offset="0.91" stop-color="#FFC1DA"/>
<stop offset="1" stop-color="#BDFFE3"/>
<animateTransform xmlns="http://www.w3.org/2000/svg" attributeName="gradientTransform" attributeType="XML" type="scale" 
values="232.982 81.2373; 368.8954 216.3446; 232.982 81.2373" 
dur="5s" keyTimes="0; 0.5; 1" repeatCount="indefinite"/>
</radialGradient>
<radialGradient id="paint13_radial_34_17999" cx="0" cy="0" r="1" gradientUnits="userSpaceOnUse" gradientTransform="translate(180.377 29.9933) rotate(-26.7732) scale(8.50421 0.590155)">
<stop stop-color="#FFB6D5"/>
<stop offset="0.1" stop-color="#FFE3C0"/>
<stop offset="0.29" stop-color="#C7FBDB"/>
<stop offset="0.43" stop-color="#C7CDF4"/>
<stop offset="0.54" stop-color="#FFBCD4"/>
<stop offset="0.66" stop-color="#FFE0C3"/>
<stop offset="0.76" stop-color="#B0F1D4"/>
<stop offset="0.84" stop-color="#C9CEEC"/>
<stop offset="0.91" stop-color="#FFC1DA"/>
<stop offset="1" stop-color="#BDFFE3"/>
<animateTransform xmlns="http://www.w3.org/2000/svg" attributeName="gradientTransform" attributeType="XML" type="scale" 
values="232.982 81.2373; 368.8954 216.3446; 232.982 81.2373" 
dur="5s" keyTimes="0; 0.5; 1" repeatCount="indefinite"/>
</radialGradient>
<radialGradient id="paint14_radial_34_17999" cx="0" cy="0" r="1" gradientUnits="userSpaceOnUse" gradientTransform="translate(175.932 32.2217) rotate(-26.4284) scale(12.0497 0.750844)">
<stop stop-color="#FFB6D5"/>
<stop offset="0.1" stop-color="#FFE3C0"/>
<stop offset="0.29" stop-color="#C7FBDB"/>
<stop offset="0.43" stop-color="#C7CDF4"/>
<stop offset="0.54" stop-color="#FFBCD4"/>
<stop offset="0.66" stop-color="#FFE0C3"/>
<stop offset="0.76" stop-color="#B0F1D4"/>
<stop offset="0.84" stop-color="#C9CEEC"/>
<stop offset="0.91" stop-color="#FFC1DA"/>
<stop offset="1" stop-color="#BDFFE3"/>
<animateTransform xmlns="http://www.w3.org/2000/svg" attributeName="gradientTransform" attributeType="XML" type="scale" 
values="232.982 81.2373; 368.8954 216.3446; 232.982 81.2373" 
dur="5s" keyTimes="0; 0.5; 1" repeatCount="indefinite"/>
</radialGradient>
<radialGradient id="paint15_radial_34_17999" cx="0" cy="0" r="1" gradientUnits="userSpaceOnUse" gradientTransform="translate(170.382 34.595) rotate(-27.7158) scale(5.18196 0.459664)">
<stop stop-color="#FFB6D5"/>
<stop offset="0.1" stop-color="#FFE3C0"/>
<stop offset="0.29" stop-color="#C7FBDB"/>
<stop offset="0.43" stop-color="#C7CDF4"/>
<stop offset="0.54" stop-color="#FFBCD4"/>
<stop offset="0.66" stop-color="#FFE0C3"/>
<stop offset="0.76" stop-color="#B0F1D4"/>
<stop offset="0.84" stop-color="#C9CEEC"/>
<stop offset="0.91" stop-color="#FFC1DA"/>
<stop offset="1" stop-color="#BDFFE3"/>
<animateTransform xmlns="http://www.w3.org/2000/svg" attributeName="gradientTransform" attributeType="XML" type="scale" 
values="232.982 81.2373; 368.8954 216.3446; 232.982 81.2373" 
dur="5s" keyTimes="0; 0.5; 1" repeatCount="indefinite"/>
</radialGradient>
<radialGradient id="paint16_radial_34_17999" cx="0" cy="0" r="1" gradientUnits="userSpaceOnUse" gradientTransform="translate(154.008 -3.62486) rotate(-59.9555) scale(104.071 58.9686)">
<stop stop-color="#FFB6D5"/>
<stop offset="0.1" stop-color="#FFE3C0"/>
<stop offset="0.29" stop-color="#C7FBDB"/>
<stop offset="0.43" stop-color="#C7CDF4"/>
<stop offset="0.54" stop-color="#FFBCD4"/>
<stop offset="0.66" stop-color="#FFE0C3"/>
<stop offset="0.76" stop-color="#B0F1D4"/>
<stop offset="0.84" stop-color="#C9CEEC"/>
<stop offset="0.91" stop-color="#FFC1DA"/>
<stop offset="1" stop-color="#BDFFE3"/>
<animateTransform xmlns="http://www.w3.org/2000/svg" attributeName="gradientTransform" attributeType="XML" type="scale" 
values="232.982 81.2373; 368.8954 216.3446; 232.982 81.2373" 
dur="5s" keyTimes="0; 0.5; 1" repeatCount="indefinite"/>
</radialGradient>
<radialGradient id="paint17_radial_34_17999" cx="0" cy="0" r="1" gradientUnits="userSpaceOnUse" gradientTransform="translate(247.491 -0.65009) rotate(-32.8916) scale(132.45 25.4935)">
<stop stop-color="#FFB6D5"/>
<stop offset="0.1" stop-color="#FFE3C0"/>
<stop offset="0.29" stop-color="#C7FBDB"/>
<stop offset="0.43" stop-color="#C7CDF4"/>
<stop offset="0.54" stop-color="#FFBCD4"/>
<stop offset="0.66" stop-color="#FFE0C3"/>
<stop offset="0.76" stop-color="#B0F1D4"/>
<stop offset="0.84" stop-color="#C9CEEC"/>
<stop offset="0.91" stop-color="#FFC1DA"/>
<stop offset="1" stop-color="#BDFFE3"/>
<animateTransform xmlns="http://www.w3.org/2000/svg" attributeName="gradientTransform" attributeType="XML" type="scale" 
values="232.982 81.2373; 368.8954 216.3446; 232.982 81.2373" 
dur="5s" keyTimes="0; 0.5; 1" repeatCount="indefinite"/>
</radialGradient>
<radialGradient id="paint18_radial_34_17999" cx="0" cy="0" r="1" gradientUnits="userSpaceOnUse" gradientTransform="translate(80.6024 -56.4917) rotate(-90.4621) scale(89.1112 37.8931)">
<stop stop-color="#FFB6D5"/>
<stop offset="0.1" stop-color="#FFE3C0"/>
<stop offset="0.29" stop-color="#C7FBDB"/>
<stop offset="0.43" stop-color="#C7CDF4"/>
<stop offset="0.54" stop-color="#FFBCD4"/>
<stop offset="0.66" stop-color="#FFE0C3"/>
<stop offset="0.76" stop-color="#B0F1D4"/>
<stop offset="0.84" stop-color="#C9CEEC"/>
<stop offset="0.91" stop-color="#FFC1DA"/>
<stop offset="1" stop-color="#BDFFE3"/>
<animateTransform xmlns="http://www.w3.org/2000/svg" attributeName="gradientTransform" attributeType="XML" type="scale" 
values="232.982 81.2373; 368.8954 216.3446; 232.982 81.2373" 
dur="5s" keyTimes="0; 0.5; 1" repeatCount="indefinite"/>
</radialGradient>
<radialGradient id="paint19_radial_34_17999" cx="0" cy="0" r="1" gradientUnits="userSpaceOnUse" gradientTransform="translate(182.831 28.5814) rotate(-27.5416) scale(4.52283 0.385089)">
<stop stop-color="#FFB6D5"/>
<stop offset="0.1" stop-color="#FFE3C0"/>
<stop offset="0.29" stop-color="#C7FBDB"/>
<stop offset="0.43" stop-color="#C7CDF4"/>
<stop offset="0.54" stop-color="#FFBCD4"/>
<stop offset="0.66" stop-color="#FFE0C3"/>
<stop offset="0.76" stop-color="#B0F1D4"/>
<stop offset="0.84" stop-color="#C9CEEC"/>
<stop offset="0.91" stop-color="#FFC1DA"/>
<stop offset="1" stop-color="#BDFFE3"/>
<animateTransform xmlns="http://www.w3.org/2000/svg" attributeName="gradientTransform" attributeType="XML" type="scale" 
values="232.982 81.2373; 368.8954 216.3446; 232.982 81.2373" 
dur="5s" keyTimes="0; 0.5; 1" repeatCount="indefinite"/>
</radialGradient>
<radialGradient id="paint20_radial_34_17999" cx="0" cy="0" r="1" gradientUnits="userSpaceOnUse" gradientTransform="translate(109.386 -1.67838) rotate(-47.0356) scale(6.63793 2.88687)">
<stop stop-color="#FFB6D5"/>
<stop offset="0.1" stop-color="#FFE3C0"/>
<stop offset="0.29" stop-color="#C7FBDB"/>
<stop offset="0.43" stop-color="#C7CDF4"/>
<stop offset="0.54" stop-color="#FFBCD4"/>
<stop offset="0.66" stop-color="#FFE0C3"/>
<stop offset="0.76" stop-color="#B0F1D4"/>
<stop offset="0.84" stop-color="#C9CEEC"/>
<stop offset="0.91" stop-color="#FFC1DA"/>
<stop offset="1" stop-color="#BDFFE3"/>
<animateTransform xmlns="http://www.w3.org/2000/svg" attributeName="gradientTransform" attributeType="XML" type="scale" 
values="232.982 81.2373; 368.8954 216.3446; 232.982 81.2373" 
dur="5s" keyTimes="0; 0.5; 1" repeatCount="indefinite"/>
</radialGradient>
<radialGradient id="paint21_radial_34_17999" cx="0" cy="0" r="1" gradientUnits="userSpaceOnUse" gradientTransform="translate(188.324 24.8381) rotate(-29.4267) scale(6.90898 0.853223)">
<stop stop-color="#FFB6D5"/>
<stop offset="0.1" stop-color="#FFE3C0"/>
<stop offset="0.29" stop-color="#C7FBDB"/>
<stop offset="0.43" stop-color="#C7CDF4"/>
<stop offset="0.54" stop-color="#FFBCD4"/>
<stop offset="0.66" stop-color="#FFE0C3"/>
<stop offset="0.76" stop-color="#B0F1D4"/>
<stop offset="0.84" stop-color="#C9CEEC"/>
<stop offset="0.91" stop-color="#FFC1DA"/>
<stop offset="1" stop-color="#BDFFE3"/>
<animateTransform xmlns="http://www.w3.org/2000/svg" attributeName="gradientTransform" attributeType="XML" type="scale" 
values="232.982 81.2373; 368.8954 216.3446; 232.982 81.2373" 
dur="5s" keyTimes="0; 0.5; 1" repeatCount="indefinite"/>
</radialGradient>
<radialGradient id="paint22_radial_34_17999" cx="0" cy="0" r="1" gradientUnits="userSpaceOnUse" gradientTransform="translate(184.793 27.0997) rotate(-28.0936) scale(11.2224 1.08206)">
<stop stop-color="#FFB6D5"/>
<stop offset="0.1" stop-color="#FFE3C0"/>
<stop offset="0.29" stop-color="#C7FBDB"/>
<stop offset="0.43" stop-color="#C7CDF4"/>
<stop offset="0.54" stop-color="#FFBCD4"/>
<stop offset="0.66" stop-color="#FFE0C3"/>
<stop offset="0.76" stop-color="#B0F1D4"/>
<stop offset="0.84" stop-color="#C9CEEC"/>
<stop offset="0.91" stop-color="#FFC1DA"/>
<stop offset="1" stop-color="#BDFFE3"/>
<animateTransform xmlns="http://www.w3.org/2000/svg" attributeName="gradientTransform" attributeType="XML" type="scale" 
values="232.982 81.2373; 368.8954 216.3446; 232.982 81.2373" 
dur="5s" keyTimes="0; 0.5; 1" repeatCount="indefinite"/>
</radialGradient>
<radialGradient id="paint23_radial_34_17999" cx="0" cy="0" r="1" gradientUnits="userSpaceOnUse" gradientTransform="translate(104.741 -3.38603) rotate(-48.9153) scale(9.93835 4.57488)">
<stop stop-color="#FFB6D5"/>
<stop offset="0.1" stop-color="#FFE3C0"/>
<stop offset="0.29" stop-color="#C7FBDB"/>
<stop offset="0.43" stop-color="#C7CDF4"/>
<stop offset="0.54" stop-color="#FFBCD4"/>
<stop offset="0.66" stop-color="#FFE0C3"/>
<stop offset="0.76" stop-color="#B0F1D4"/>
<stop offset="0.84" stop-color="#C9CEEC"/>
<stop offset="0.91" stop-color="#FFC1DA"/>
<stop offset="1" stop-color="#BDFFE3"/>
<animateTransform xmlns="http://www.w3.org/2000/svg" attributeName="gradientTransform" attributeType="XML" type="scale" 
values="232.982 81.2373; 368.8954 216.3446; 232.982 81.2373" 
dur="5s" keyTimes="0; 0.5; 1" repeatCount="indefinite"/>
</radialGradient>
<radialGradient id="paint24_radial_34_17999" cx="0" cy="0" r="1" gradientUnits="userSpaceOnUse" gradientTransform="translate(179.75 30.028) rotate(-26.2268) scale(6.95164 0.404341)">
<stop stop-color="#FFB6D5"/>
<stop offset="0.1" stop-color="#FFE3C0"/>
<stop offset="0.29" stop-color="#C7FBDB"/>
<stop offset="0.43" stop-color="#C7CDF4"/>
<stop offset="0.54" stop-color="#FFBCD4"/>
<stop offset="0.66" stop-color="#FFE0C3"/>
<stop offset="0.76" stop-color="#B0F1D4"/>
<stop offset="0.84" stop-color="#C9CEEC"/>
<stop offset="0.91" stop-color="#FFC1DA"/>
<stop offset="1" stop-color="#BDFFE3"/>
<animateTransform xmlns="http://www.w3.org/2000/svg" attributeName="gradientTransform" attributeType="XML" type="scale" 
values="232.982 81.2373; 368.8954 216.3446; 232.982 81.2373" 
dur="5s" keyTimes="0; 0.5; 1" repeatCount="indefinite"/>
</radialGradient>
<radialGradient id="paint25_radial_34_17999" cx="0" cy="0" r="1" gradientUnits="userSpaceOnUse" gradientTransform="translate(112.469 -0.70561) rotate(-44.9677) scale(4.46038 1.80549)">
<stop stop-color="#FFB6D5"/>
<stop offset="0.1" stop-color="#FFE3C0"/>
<stop offset="0.29" stop-color="#C7FBDB"/>
<stop offset="0.43" stop-color="#C7CDF4"/>
<stop offset="0.54" stop-color="#FFBCD4"/>
<stop offset="0.66" stop-color="#FFE0C3"/>
<stop offset="0.76" stop-color="#B0F1D4"/>
<stop offset="0.84" stop-color="#C9CEEC"/>
<stop offset="0.91" stop-color="#FFC1DA"/>
<stop offset="1" stop-color="#BDFFE3"/>
<animateTransform xmlns="http://www.w3.org/2000/svg" attributeName="gradientTransform" attributeType="XML" type="scale" 
values="232.982 81.2373; 368.8954 216.3446; 232.982 81.2373" 
dur="5s" keyTimes="0; 0.5; 1" repeatCount="indefinite"/>
</radialGradient>
<radialGradient id="paint26_radial_34_17999" cx="0" cy="0" r="1" gradientUnits="userSpaceOnUse" gradientTransform="translate(190.934 22.9884) rotate(-31.348) scale(5.53489 0.896838)">
<stop stop-color="#FFB6D5"/>
<stop offset="0.1" stop-color="#FFE3C0"/>
<stop offset="0.29" stop-color="#C7FBDB"/>
<stop offset="0.43" stop-color="#C7CDF4"/>
<stop offset="0.54" stop-color="#FFBCD4"/>
<stop offset="0.66" stop-color="#FFE0C3"/>
<stop offset="0.76" stop-color="#B0F1D4"/>
<stop offset="0.84" stop-color="#C9CEEC"/>
<stop offset="0.91" stop-color="#FFC1DA"/>
<stop offset="1" stop-color="#BDFFE3"/>
<animateTransform xmlns="http://www.w3.org/2000/svg" attributeName="gradientTransform" attributeType="XML" type="scale" 
values="232.982 81.2373; 368.8954 216.3446; 232.982 81.2373" 
dur="5s" keyTimes="0; 0.5; 1" repeatCount="indefinite"/>
</radialGradient>
<radialGradient id="paint27_radial_34_17999" cx="0" cy="0" r="1" gradientUnits="userSpaceOnUse" gradientTransform="translate(224.973 -164.848) rotate(-55.5429) scale(458.22 244.456)">
<stop stop-color="#FFB6D5"/>
<stop offset="0.1" stop-color="#FFE3C0"/>
<stop offset="0.29" stop-color="#C7FBDB"/>
<stop offset="0.43" stop-color="#C7CDF4"/>
<stop offset="0.54" stop-color="#FFBCD4"/>
<stop offset="0.66" stop-color="#FFE0C3"/>
<stop offset="0.76" stop-color="#B0F1D4"/>
<stop offset="0.84" stop-color="#C9CEEC"/>
<stop offset="0.91" stop-color="#FFC1DA"/>
<stop offset="1" stop-color="#BDFFE3"/>
<animateTransform xmlns="http://www.w3.org/2000/svg" attributeName="gradientTransform" attributeType="XML" type="scale" 
values="232.982 81.2373; 368.8954 216.3446; 232.982 81.2373" 
dur="5s" keyTimes="0; 0.5; 1" repeatCount="indefinite"/>
</radialGradient>
<radialGradient id="paint28_radial_34_17999" cx="0" cy="0" r="1" gradientUnits="userSpaceOnUse" gradientTransform="translate(222.063 -159.645) rotate(-55.5428) scale(428.916 228.823)">
<stop stop-color="#FFB6D5"/>
<stop offset="0.1" stop-color="#FFE3C0"/>
<stop offset="0.29" stop-color="#C7FBDB"/>
<stop offset="0.43" stop-color="#C7CDF4"/>
<stop offset="0.54" stop-color="#FFBCD4"/>
<stop offset="0.66" stop-color="#FFE0C3"/>
<stop offset="0.76" stop-color="#B0F1D4"/>
<stop offset="0.84" stop-color="#C9CEEC"/>
<stop offset="0.91" stop-color="#FFC1DA"/>
<stop offset="1" stop-color="#BDFFE3"/>
<animateTransform xmlns="http://www.w3.org/2000/svg" attributeName="gradientTransform" attributeType="XML" type="scale" 
values="232.982 81.2373; 368.8954 216.3446; 232.982 81.2373" 
dur="5s" keyTimes="0; 0.5; 1" repeatCount="indefinite"/>
</radialGradient>
<radialGradient id="paint29_radial_34_17999" cx="0" cy="0" r="1" gradientUnits="userSpaceOnUse" gradientTransform="translate(219.852 -155.691) rotate(-55.5429) scale(406.637 216.937)">
<stop stop-color="#FFB6D5"/>
<stop offset="0.1" stop-color="#FFE3C0"/>
<stop offset="0.29" stop-color="#C7FBDB"/>
<stop offset="0.43" stop-color="#C7CDF4"/>
<stop offset="0.54" stop-color="#FFBCD4"/>
<stop offset="0.66" stop-color="#FFE0C3"/>
<stop offset="0.76" stop-color="#B0F1D4"/>
<stop offset="0.84" stop-color="#C9CEEC"/>
<stop offset="0.91" stop-color="#FFC1DA"/>
<stop offset="1" stop-color="#BDFFE3"/>
<animateTransform xmlns="http://www.w3.org/2000/svg" attributeName="gradientTransform" attributeType="XML" type="scale" 
values="232.982 81.2373; 368.8954 216.3446; 232.982 81.2373" 
dur="5s" keyTimes="0; 0.5; 1" repeatCount="indefinite"/>
</radialGradient>
<radialGradient id="paint30_radial_34_17999" cx="0" cy="0" r="1" gradientUnits="userSpaceOnUse" gradientTransform="translate(217.039 -150.657) rotate(-55.5429) scale(378.282 201.81)">
<stop stop-color="#FFB6D5"/>
<stop offset="0.1" stop-color="#FFE3C0"/>
<stop offset="0.29" stop-color="#C7FBDB"/>
<stop offset="0.43" stop-color="#C7CDF4"/>
<stop offset="0.54" stop-color="#FFBCD4"/>
<stop offset="0.66" stop-color="#FFE0C3"/>
<stop offset="0.76" stop-color="#B0F1D4"/>
<stop offset="0.84" stop-color="#C9CEEC"/>
<stop offset="0.91" stop-color="#FFC1DA"/>
<stop offset="1" stop-color="#BDFFE3"/>
<animateTransform xmlns="http://www.w3.org/2000/svg" attributeName="gradientTransform" attributeType="XML" type="scale" 
values="232.982 81.2373; 368.8954 216.3446; 232.982 81.2373" 
dur="5s" keyTimes="0; 0.5; 1" repeatCount="indefinite"/>
</radialGradient>
<radialGradient id="paint31_radial_34_17999" cx="0" cy="0" r="1" gradientUnits="userSpaceOnUse" gradientTransform="translate(213.726 -144.732) rotate(-55.5429) scale(344.905 184.004)">
<stop stop-color="#FFB6D5"/>
<stop offset="0.1" stop-color="#FFE3C0"/>
<stop offset="0.29" stop-color="#C7FBDB"/>
<stop offset="0.43" stop-color="#C7CDF4"/>
<stop offset="0.54" stop-color="#FFBCD4"/>
<stop offset="0.66" stop-color="#FFE0C3"/>
<stop offset="0.76" stop-color="#B0F1D4"/>
<stop offset="0.84" stop-color="#C9CEEC"/>
<stop offset="0.91" stop-color="#FFC1DA"/>
<stop offset="1" stop-color="#BDFFE3"/>
<animateTransform xmlns="http://www.w3.org/2000/svg" attributeName="gradientTransform" attributeType="XML" type="scale" 
values="232.982 81.2373; 368.8954 216.3446; 232.982 81.2373" 
dur="5s" keyTimes="0; 0.5; 1" repeatCount="indefinite"/>
</radialGradient>
<radialGradient id="paint32_radial_34_17999" cx="0" cy="0" r="1" gradientUnits="userSpaceOnUse" gradientTransform="translate(210.032 -138.124) rotate(-55.5429) scale(307.684 164.147)">
<stop stop-color="#FFB6D5"/>
<stop offset="0.1" stop-color="#FFE3C0"/>
<stop offset="0.29" stop-color="#C7FBDB"/>
<stop offset="0.43" stop-color="#C7CDF4"/>
<stop offset="0.54" stop-color="#FFBCD4"/>
<stop offset="0.66" stop-color="#FFE0C3"/>
<stop offset="0.76" stop-color="#B0F1D4"/>
<stop offset="0.84" stop-color="#C9CEEC"/>
<stop offset="0.91" stop-color="#FFC1DA"/>
<stop offset="1" stop-color="#BDFFE3"/>
<animateTransform xmlns="http://www.w3.org/2000/svg" attributeName="gradientTransform" attributeType="XML" type="scale" 
values="232.982 81.2373; 368.8954 216.3446; 232.982 81.2373" 
dur="5s" keyTimes="0; 0.5; 1" repeatCount="indefinite"/>
</radialGradient>
<radialGradient id="paint33_radial_34_17999" cx="0" cy="0" r="1" gradientUnits="userSpaceOnUse" gradientTransform="translate(206.082 -131.06) rotate(-55.5429) scale(267.893 142.918)">
<stop stop-color="#FFB6D5"/>
<stop offset="0.1" stop-color="#FFE3C0"/>
<stop offset="0.29" stop-color="#C7FBDB"/>
<stop offset="0.43" stop-color="#C7CDF4"/>
<stop offset="0.54" stop-color="#FFBCD4"/>
<stop offset="0.66" stop-color="#FFE0C3"/>
<stop offset="0.76" stop-color="#B0F1D4"/>
<stop offset="0.84" stop-color="#C9CEEC"/>
<stop offset="0.91" stop-color="#FFC1DA"/>
<stop offset="1" stop-color="#BDFFE3"/>
<animateTransform xmlns="http://www.w3.org/2000/svg" attributeName="gradientTransform" attributeType="XML" type="scale" 
values="232.982 81.2373; 368.8954 216.3446; 232.982 81.2373" 
dur="5s" keyTimes="0; 0.5; 1" repeatCount="indefinite"/>
</radialGradient>
</defs>
</svg>
