<svg width="156" height="33" viewBox="0 0 156 33" fill="none" xmlns="http://www.w3.org/2000/svg">
<path d="M-2.72258 -0.990237C-2.72275 -0.990245 -2.72292 -0.99028 -2.72307 -0.990343C-5.0369 -1.89874 -7.58837 -2.46734 -10.2789 -2.8354C-10.9075 -2.92139 -11.5435 -2.93029 -12.177 -2.89551C-13.6664 -2.81374 -15.1249 -2.79768 -16.5382 -2.87759C-16.5795 -2.87593 -16.5845 -2.81551 -16.5439 -2.80714C-13.9994 -2.28141 -11.5973 -1.5749 -9.42615 -0.576027C3.67136 5.45191 13.9128 25.9861 29.2617 26.6955C34.9372 26.9578 40.1667 24.4566 45.1926 20.9575C42.3887 22.3842 39.4557 23.2689 36.3334 23.3026C21.4217 23.4618 10.3144 4.12859 -2.72208 -0.990131C-2.72224 -0.990193 -2.72241 -0.99023 -2.72258 -0.990237Z" fill="#222222"/>
<path d="M74.7303 -1.81841C74.7303 -1.81845 74.7303 -1.81853 74.7302 -1.81851C72.3864 -0.837883 70.1187 0.61107 67.8876 2.32662C67.819 2.37943 67.7557 2.43908 67.6985 2.50412C66.5863 3.76794 65.4383 4.95641 64.2373 6.02471C64.1921 6.07326 64.2552 6.14911 64.3112 6.11358C66.2845 4.86323 68.2757 3.82317 70.2996 3.10947C84.3951 -1.85989 106.432 5.39575 117.331 -4.31578C119.31 -6.07942 120.753 -8.25238 121.828 -10.7072C122.137 -11.4142 120.412 -12.1548 119.867 -11.6087C109.869 -1.59629 88.0997 -7.41153 74.7303 -1.81831C74.7303 -1.81828 74.7302 -1.81836 74.7303 -1.81841Z" fill="#222222"/>
<path d="M45.1926 20.9575C45.1927 20.9575 45.1927 20.9575 45.1927 20.9575C47.5401 19.763 49.7969 18.1887 51.9994 16.4147C51.1896 16.9147 50.3649 17.367 49.5238 17.7622C49.4006 17.8201 49.284 17.8913 49.1773 17.9758C47.8605 19.0182 46.5337 20.0233 45.1926 20.9572C45.1924 20.9573 45.1925 20.9575 45.1926 20.9575Z" fill="#222222"/>
<path d="M51.9992 16.4147C51.9992 16.4149 51.9994 16.415 51.9995 16.4149C54.2077 15.0517 56.3082 13.3333 58.3476 11.4381C57.8276 11.8235 57.2999 12.1878 56.7636 12.5284C56.2084 12.881 55.6728 13.265 55.182 13.7029C54.1312 14.6402 53.0716 15.5511 51.9993 16.4145C51.9992 16.4146 51.9992 16.4146 51.9992 16.4147Z" fill="#222222"/>
<path d="M10.0408 -3.12007C10.0408 -3.11994 10.0407 -3.11985 10.0405 -3.11988C6.44788 -4.07562 2.39169 -4.166 -1.82432 -3.95385C-3.3151 -3.7027 -4.78838 -3.49422 -6.23241 -3.35923C-2.66217 -3.2377 0.740716 -2.84128 3.77562 -1.84604C16.6896 2.39065 28.556 20.4972 42.98 19.5206C45.1825 19.3714 47.2615 18.7898 49.2468 17.8896C49.3071 17.8622 49.3638 17.8273 49.4156 17.7861C49.6517 17.5983 49.8875 17.4093 50.1229 17.2193C50.7536 16.7106 49.9863 15.2867 49.1823 15.3873C35.2905 17.1261 22.7728 0.266843 10.041 -3.12025C10.0409 -3.12029 10.0408 -3.1202 10.0408 -3.12007Z" fill="#222222"/>
<path d="M82.1984 -12.1512C82.1984 -12.1511 82.1983 -12.1509 82.1981 -12.1509C79.159 -10.4459 76.3837 -7.82319 73.6856 -4.85871C72.8075 -3.62972 71.9064 -2.43971 70.9672 -1.32124C73.4551 -3.62052 76.0018 -5.6026 78.6982 -6.91743C91.3165 -13.0699 112.723 -8.63943 121.823 -18.8846C123.113 -20.3368 124.069 -21.9877 124.774 -23.7878C124.802 -23.8584 124.82 -23.9325 124.828 -24.0079C124.882 -24.5127 124.934 -25.0196 124.984 -25.5282C125.056 -26.2715 123.673 -26.6877 123.21 -26.1012C115.001 -15.6905 94.0458 -18.7971 82.1986 -12.1516C82.1985 -12.1515 82.1984 -12.1514 82.1984 -12.1512Z" fill="#222222"/>
<path d="M62.7783 7.23799C62.306 7.60405 61.8499 7.99166 61.4316 8.41842C60.4154 9.45501 59.3893 10.4691 58.3474 11.4376C60.2049 10.0599 61.9634 8.41456 63.6644 6.63129C63.7002 6.59378 63.6532 6.53743 63.61 6.56608C63.3358 6.79662 63.0586 7.0208 62.7783 7.23799Z" fill="#222222"/>
<path d="M55.6311 12.6625C55.3668 12.8817 55.5925 13.2285 55.8901 13.0572C55.9082 13.0468 55.9254 13.0342 55.941 13.0202C57.427 11.6732 58.8974 10.283 60.3637 8.90965C60.3751 8.899 60.3609 8.88001 60.3474 8.88777C58.7736 10.0799 57.2041 11.358 55.6311 12.6625Z" fill="#222222"/>
<path d="M67.5971 2.22684C67.5032 2.33683 67.6609 2.50055 67.7752 2.4121C67.7813 2.40742 67.7868 2.40223 67.7918 2.39648C68.4324 1.66441 69.0619 0.907289 69.6823 0.134699C69.0712 0.791043 68.4429 1.41474 67.7933 1.9965C67.7279 2.07334 67.6625 2.15012 67.5971 2.22684Z" fill="#222222"/>
<path d="M65.0052 4.68817C65.0052 4.68807 65.0051 4.68803 65.005 4.68809C64.48 5.24164 63.954 5.79676 63.4266 6.35012C63.3163 6.46585 63.4759 6.65442 63.6094 6.56642C63.8197 6.38958 64.0288 6.20863 64.2364 6.02458C64.6579 5.57203 65.0762 5.11191 65.4919 4.64617C65.6243 4.49789 65.4431 4.31204 65.2922 4.44135C65.1965 4.5233 65.1009 4.60561 65.0053 4.68825C65.0053 4.68831 65.0052 4.68826 65.0052 4.68817Z" fill="#222222"/>
<path d="M60.5503 8.7346C60.5503 8.73475 60.5502 8.73489 60.5501 8.73499C60.5488 8.7362 60.5475 8.73741 60.5462 8.73863C60.5343 8.74982 60.5488 8.76924 60.5629 8.76081C61.0699 8.45692 61.5665 8.12836 62.0538 7.77882C62.0567 7.77669 62.0595 7.7743 62.0621 7.77168C62.114 7.71821 62.046 7.63877 61.9853 7.68205C61.5063 8.02353 61.0282 8.37485 60.5505 8.73416C60.5504 8.73427 60.5503 8.73443 60.5503 8.7346Z" fill="#222222"/>
<path d="M60.1802 6.21753C60.1802 6.21728 60.1799 6.21709 60.1797 6.21715C47.4682 9.30744 33.9679 -5.0317 21.7647 -6.82733C16.9724 -7.53268 11.5328 -6.5853 6.03624 -5.48128C4.87293 -5.19831 3.71677 -4.93574 2.5732 -4.71051C7.32867 -5.31284 11.9551 -5.63041 16.046 -4.7881C28.5398 -2.21606 41.6019 13.3849 54.9213 10.941C56.868 10.5841 58.6646 9.86925 60.3479 8.88881C60.4154 8.83733 60.4835 8.78637 60.551 8.73539C62.0354 7.34634 63.5163 5.97684 65.0058 4.68915C65.5604 4.10451 66.1149 3.52139 66.6691 2.94432C64.7267 4.47743 62.5928 5.63114 60.1806 6.21792C60.1804 6.21798 60.1802 6.21779 60.1802 6.21753Z" fill="#222222"/>
<path d="M69.6821 0.135259C70.1191 -0.33397 70.5465 -0.820325 70.9669 -1.32116C70.6292 -1.00958 70.321 -0.667836 70.0355 -0.307827C69.9179 -0.159565 69.8001 -0.0118393 69.6821 0.135259Z" fill="#222222"/>
<path d="M69.9181 -0.330714C70.2788 -0.678124 70.6179 -1.04753 70.9241 -1.44384C71.478 -2.16083 72.0266 -2.88622 72.5726 -3.61361C71.3831 -2.26098 70.2042 -0.8573 69.019 0.548111C69.3182 0.251638 69.6178 -0.0414708 69.9181 -0.330714Z" fill="#222222"/>
<path d="M67.7928 1.99696C68.2029 1.51536 68.6111 1.03166 69.0193 0.547953C68.2334 1.32717 67.4505 2.12928 66.6686 2.94357C67.0503 2.64217 67.4254 2.32631 67.7928 1.99696Z" fill="#222222"/>
<path d="M-20.3147 -157.345C-20.3147 -157.345 -20.3148 -157.345 -20.3149 -157.345C-29.783 -149.614 -48.9138 -149.165 -54.5435 -138.643C-56.0198 -135.884 -56.3855 -132.771 -56.1417 -129.465C-55.9378 -128.136 -55.7319 -126.805 -55.5442 -125.483C-55.2426 -124.031 -54.9221 -122.573 -54.6138 -121.118C-52.8051 -114.071 -50.1802 -106.756 -50.7574 -100.443C-51.8183 -88.8463 -65.1703 -75.3469 -61.3837 -63.5354C-60.3395 -60.2786 -58.1491 -57.6392 -55.3634 -55.3374C-54.3066 -54.5812 -53.2516 -53.8276 -52.2166 -53.0699C-50.9639 -52.2658 -49.6972 -51.4726 -48.4446 -50.6775C-42.0932 -46.9813 -35.0707 -43.749 -31.0895 -39.0914C-23.1628 -29.8183 -22.6635 -11.1131 -11.8893 -5.58693C-9.06413 -4.13774 -5.88006 -3.77368 -2.49832 -4.00519C-1.13937 -4.20176 0.220706 -4.4003 1.57323 -4.58098C3.0571 -4.8729 4.54802 -5.18319 6.03528 -5.48153C13.2396 -7.2352 20.7156 -9.78629 27.1739 -9.20871C39.0378 -8.14721 52.8732 4.93515 64.9463 1.25768C68.2752 0.24359 70.9702 -1.89242 73.3188 -4.61121C74.09 -5.6429 74.8586 -6.67269 75.6314 -7.68307C76.4513 -8.90615 77.2599 -10.1429 78.0705 -11.3659C81.8373 -17.568 85.1292 -24.4271 89.8848 -28.3098C99.3529 -36.0402 118.484 -36.4893 124.114 -47.0117C125.59 -49.7708 125.956 -52.8831 125.712 -56.1899C125.508 -57.5189 125.302 -58.8491 125.114 -60.1718C124.813 -61.6232 124.492 -63.0815 124.184 -64.5362C122.375 -71.5835 119.75 -78.8981 120.328 -85.2112C121.388 -96.8082 134.74 -110.308 130.954 -122.119C129.91 -125.376 127.719 -128.015 124.933 -130.317C123.877 -131.073 122.822 -131.827 121.787 -132.585C120.534 -133.389 119.267 -134.182 118.015 -134.977C111.663 -138.673 104.641 -141.906 100.66 -146.563C92.7329 -155.836 92.2336 -174.541 81.4594 -180.068C78.6342 -181.517 75.4502 -181.881 72.0684 -181.649C70.7095 -181.453 69.3494 -181.254 67.9969 -181.074C66.513 -180.782 65.0221 -180.471 63.5348 -180.173C56.3305 -178.419 48.8545 -175.868 42.3962 -176.446C30.5323 -177.507 16.6969 -190.59 4.62383 -186.912C1.29489 -185.898 -1.40012 -183.762 -3.74867 -181.043C-4.5199 -180.012 -5.28846 -178.982 -6.0613 -177.971C-6.8812 -176.748 -7.68984 -175.512 -8.50041 -174.289C-12.2672 -168.087 -15.559 -161.228 -20.3145 -157.344C-20.3146 -157.344 -20.3147 -157.344 -20.3147 -157.345ZM0.35818 -181.756C11.7682 -185.958 25.8354 -174.121 37.3159 -173.75C49.2172 -173.365 64.0203 -184.108 74.7077 -179.379C85.3951 -174.649 86.9488 -156.667 95.1101 -148.174C102.983 -139.981 121.349 -137.465 125.671 -126.301C129.993 -115.137 117.916 -101.408 117.56 -90.1843C117.191 -78.5492 128.21 -64.0538 123.395 -53.6147C118.579 -43.1756 100.191 -41.6941 91.5209 -33.7326C83.1573 -26.0527 80.6225 -8.10109 69.2125 -3.899C57.8025 0.303095 43.7353 -11.5336 32.2548 -11.9049C20.3534 -12.2901 5.55034 -1.54657 -5.13704 -6.27647C-15.8244 -11.0064 -17.3781 -28.9877 -25.5394 -37.4809C-33.412 -45.674 -51.7786 -48.1898 -56.1004 -59.3541C-60.4222 -70.5184 -48.3449 -84.2471 -47.9891 -95.4707C-47.62 -107.106 -58.6396 -121.601 -53.8241 -132.04C-49.0086 -142.479 -30.6202 -143.961 -21.9503 -151.922C-13.5867 -159.602 -11.0518 -177.554 0.35818 -181.756Z" fill="#222222"/>
<path d="M-52.6327 -125.678C-52.6328 -125.678 -52.6331 -125.678 -52.6331 -125.678C-56.6634 -115.377 -45.2413 -102.044 -44.9296 -90.8377C-44.6292 -80.0271 -55.4517 -66.1666 -50.6579 -55.6696C-45.8641 -45.1722 -28.0662 -43.7586 -20.0292 -36.3122C-11.6982 -28.5929 -9.17501 -11.3898 1.36891 -7.42752C11.9128 -3.46519 25.5265 -14.605 36.9881 -14.8862C48.0447 -15.1574 62.2441 -4.54732 72.9705 -9.21228C83.6975 -13.8772 85.1062 -31.2752 92.7057 -39.1173C100.584 -47.2463 118.174 -49.6773 122.205 -59.9778C126.235 -70.2782 114.813 -83.6116 114.501 -94.8181C114.201 -105.629 125.023 -119.489 120.23 -129.986C115.436 -140.484 97.6379 -141.897 89.6009 -149.343C81.2699 -157.062 78.7467 -174.265 68.2028 -178.228C57.6589 -182.19 44.0452 -171.05 32.5836 -170.769C21.527 -170.498 7.32764 -181.108 -3.39882 -176.443C-14.1258 -171.778 -15.5345 -154.38 -23.1334 -146.538C-31.0114 -138.409 -48.6014 -135.978 -52.6324 -125.678C-52.6324 -125.678 -52.6326 -125.678 -52.6327 -125.678ZM-6.64531 -171.014C3.38333 -176.078 17.6185 -166.668 28.2149 -167.533C39.1995 -168.43 51.6287 -179.868 61.9754 -176.641C72.3221 -173.413 75.727 -157.035 84.1647 -150.08C92.3039 -143.371 109.467 -142.987 114.669 -133.171C119.87 -123.356 110.275 -109.458 111.182 -99.0957C112.121 -88.3542 123.847 -76.1783 120.567 -66.0691C117.288 -55.96 100.544 -52.6652 93.4472 -44.4303C86.6017 -36.4866 86.2446 -19.7069 76.216 -14.6421C66.1874 -9.57735 51.9522 -18.9873 41.3558 -18.1225C30.3712 -17.2261 17.942 -5.78737 7.59528 -9.01504C-2.7514 -12.2427 -6.15631 -28.6204 -14.594 -35.5756C-22.7332 -42.285 -39.8965 -42.6692 -45.0979 -52.4847C-50.2992 -62.3003 -40.7038 -76.1983 -41.6109 -86.5601C-42.5507 -97.3016 -54.2764 -109.477 -50.9968 -119.587C-47.7171 -129.696 -30.9728 -132.991 -23.8765 -141.226C-17.031 -149.169 -16.6739 -165.949 -6.64531 -171.014Z" fill="#222222"/>
</svg>
