<svg width="156" height="150" viewBox="0 0 156 150" fill="none" xmlns="http://www.w3.org/2000/svg">
<mask id="mask0_499_30020" style="mask-type:alpha" maskUnits="userSpaceOnUse" x="0" y="0" width="156" height="150">
<rect width="156" height="150" rx="10" fill="#222222"/>
</mask>
<g mask="url(#mask0_499_30020)">
<path d="M99.4414 12.1341C99.4412 12.1342 99.4409 12.1343 99.4407 12.1342C96.7906 11.212 93.8885 10.6973 90.84 10.4215C90.1938 10.3631 89.5435 10.3839 88.8982 10.4518C87.2127 10.6292 85.559 10.7281 83.9524 10.7111C83.9055 10.7153 83.903 10.7842 83.9495 10.7917C86.8115 11.2568 89.524 11.9355 91.9943 12.9595C106.896 19.1386 119.363 42.0002 136.5 42.0002C142.837 42.0002 148.534 38.8743 153.953 34.622C150.903 36.3956 147.681 37.5583 144.204 37.7611C127.599 38.728 114.229 17.2807 99.442 12.1339C99.4418 12.1338 99.4415 12.1339 99.4414 12.1341Z" fill="url(#paint0_radial_499_30020)"/>
<path d="M34.8892 -45.3119C34.8892 -45.3119 34.8893 -45.3119 34.8893 -45.312C33.6484 -47.8726 31.8779 -50.3242 29.8055 -52.7213C29.7414 -52.7954 29.67 -52.863 29.5928 -52.9234C28.094 -54.0974 26.6791 -55.3152 25.3984 -56.5981C25.3406 -56.6461 25.259 -56.5699 25.3027 -56.5088C26.8308 -54.3756 28.1203 -52.2116 29.0399 -49.9944C35.4455 -34.5466 28.3376 -9.62163 39.979 2.02036C42.1016 4.14302 44.6661 5.64224 47.5342 6.71369C48.3391 7.01437 49.0655 5.041 48.4237 4.46976C36.4868 -6.15343 41.9673 -30.7053 34.8891 -45.3119C34.889 -45.3119 34.8891 -45.312 34.8892 -45.3119Z" fill="url(#paint1_radial_499_30020)"/>
<path d="M56.8306 8.83105C56.8309 8.83105 56.8313 8.83111 56.8317 8.83121C59.6514 9.60781 62.7166 9.99151 65.9143 10.1649C65.2327 10.037 64.5632 9.88687 63.9074 9.71185C63.0894 9.49356 62.2569 9.32703 61.4124 9.26722C59.8599 9.15725 58.3283 9.01765 56.8306 8.83105Z" fill="url(#paint2_radial_499_30020)"/>
<path d="M153.953 34.6224C153.953 34.6224 153.953 34.6224 153.953 34.6224C156.507 33.1376 158.94 31.2246 161.303 29.0869C160.428 29.698 159.535 30.2558 158.62 30.7496C158.482 30.8243 158.352 30.914 158.235 31.0184C156.823 32.2743 155.398 33.4883 153.953 34.6221C153.953 34.6222 153.953 34.6224 153.953 34.6224Z" fill="url(#paint3_radial_499_30020)"/>
<path d="M65.915 10.1641C68.7516 10.6959 71.7997 10.8423 74.9561 10.7915C74.2511 10.7213 73.5573 10.6277 72.8757 10.5081C72.1441 10.3796 71.4046 10.2931 70.6618 10.2901C69.057 10.2837 67.4706 10.2487 65.915 10.1641Z" fill="url(#paint4_radial_499_30020)"/>
<path d="M47.058 -37.5237C47.0579 -37.5237 47.0577 -37.5237 47.0576 -37.5239C44.9545 -40.8219 41.8195 -43.7789 38.299 -46.6321C36.8522 -47.5471 35.4486 -48.4898 34.1245 -49.4785C36.8758 -46.8251 39.2688 -44.09 40.9092 -41.1537C48.5852 -27.4126 44.6637 -3.33577 56.8185 6.27515C58.5426 7.63852 60.476 8.61897 62.5663 9.3118C62.6452 9.33794 62.7272 9.35344 62.8102 9.35843C63.3977 9.39376 63.9876 9.42565 64.5793 9.45506C65.412 9.49643 65.7987 7.92691 65.1157 7.44883C52.8192 -1.16117 55.2558 -24.6667 47.0585 -37.5234C47.0584 -37.5236 47.0582 -37.5237 47.058 -37.5237Z" fill="url(#paint5_radial_499_30020)"/>
<path d="M113.551 9.03457C113.551 9.03465 113.551 9.03479 113.551 9.03477C109.5 8.13485 104.976 8.24549 100.29 8.70931C98.6421 9.07404 97.0115 9.38922 95.4097 9.61912C99.3935 9.56957 103.205 9.8421 106.637 10.8164C121.243 14.9645 135.395 34.974 151.415 33.1013C153.86 32.8154 156.145 32.0434 158.31 30.9136C158.377 30.8785 158.44 30.835 158.496 30.7844C158.76 30.5486 159.024 30.3113 159.286 30.073C159.963 29.46 159.01 27.9058 158.111 28.0642C142.724 30.7775 127.91 12.2239 113.552 9.03438C113.551 9.03435 113.551 9.03449 113.551 9.03457Z" fill="url(#paint6_radial_499_30020)"/>
<path d="M81.7971 10.6146C81.1759 10.5631 80.552 10.5426 79.93 10.5817C78.2523 10.6871 76.5896 10.7662 74.9561 10.7925C77.6271 11.0595 80.4553 10.9948 83.3646 10.7611C83.401 10.7582 83.4029 10.7062 83.3668 10.7008C82.8378 10.6858 82.3145 10.6575 81.7971 10.6146Z" fill="url(#paint7_radial_499_30020)"/>
<path d="M69.5283 9.66211C69.5287 9.66211 69.5291 9.66217 69.5294 9.66229C70.2326 9.90164 70.9543 10.1032 71.6917 10.2704C71.75 10.2837 71.8097 10.2901 71.8695 10.2898C74.1359 10.2808 76.4318 10.2254 78.7206 10.183C78.7331 10.1827 78.7349 10.1649 78.7226 10.1623C75.7207 9.9047 72.6254 9.78138 69.5283 9.66211Z" fill="url(#paint8_radial_499_30020)"/>
<path d="M90.0013 10.0184C89.9489 10.0253 89.8965 10.0322 89.8441 10.0391C89.6754 10.0613 89.6845 10.3276 89.8542 10.34C89.8632 10.3407 89.8721 10.3405 89.8811 10.3394C90.8885 10.217 91.9056 10.0695 92.9307 9.9043C91.939 9.98727 90.9618 10.0282 90.0019 10.0184H90.0013Z" fill="url(#paint9_radial_499_30020)"/>
<path d="M85.7103 10.1553C84.9324 10.2158 84.1542 10.2771 83.3771 10.3366C83.1743 10.3521 83.1647 10.6693 83.3657 10.6998C83.5605 10.7055 83.7558 10.709 83.9517 10.7107C84.54 10.6593 85.1314 10.6013 85.7252 10.5382C85.9962 10.5094 85.9821 10.1608 85.7097 10.1553H85.7103Z" fill="url(#paint10_radial_499_30020)"/>
<path d="M78.923 10.18C78.9228 10.1802 78.9226 10.1803 78.9223 10.1803C78.9208 10.1803 78.9193 10.1803 78.9178 10.1804C78.9034 10.1806 78.9014 10.201 78.9155 10.2039C79.5517 10.3364 80.1997 10.4408 80.8581 10.5194C80.8627 10.5199 80.8674 10.5201 80.8721 10.5197C80.9632 10.5135 80.9664 10.3845 80.8756 10.3743C80.2301 10.302 79.5791 10.2377 78.9237 10.1797C78.9235 10.1797 78.9232 10.1798 78.923 10.18Z" fill="url(#paint11_radial_499_30020)"/>
<path d="M81.2446 7.97794C81.2446 7.97807 81.2445 7.97816 81.2444 7.97809C68.8841 1.31309 68.5954 -20.7918 59.5821 -31.8471C56.3283 -35.8384 51.2486 -38.9792 45.9459 -42.0815C44.7531 -42.7176 43.5806 -43.3693 42.4443 -44.0469C46.7491 -41.0864 50.6949 -38.0216 53.2958 -34.4233C61.9387 -22.4638 60.9079 0.382259 73.2719 8.00876C74.9584 9.04937 76.7866 9.73909 78.7232 10.1614C78.7901 10.1672 78.8563 10.173 78.9232 10.1787C81.206 10.1372 83.4809 10.1096 85.7113 10.1545C85.9538 10.1357 85.9687 9.63533 85.7306 9.58611C84.1637 9.26226 82.6632 8.7423 81.2449 7.97778C81.2448 7.97772 81.2446 7.97781 81.2446 7.97794Z" fill="url(#paint12_radial_499_30020)"/>
<path d="M169.892 17.0355C169.892 17.0354 169.892 17.0353 169.892 17.0353C155.889 21.2268 140.11 5.59662 126.422 4.19303C121.047 3.64161 115.036 5.00775 108.969 6.55541C107.687 6.93915 106.413 7.29928 105.15 7.61619C110.417 6.6793 115.555 6.07371 120.156 6.81815C134.208 9.09124 149.563 26.1823 164.277 22.6952C166.427 22.1858 168.392 21.2766 170.216 20.0706C170.289 20.0084 170.362 19.9467 170.435 19.8851C172.017 18.2239 173.596 16.5852 175.19 15.0393C175.777 14.3438 176.365 13.6501 176.953 12.9633C174.868 14.8128 172.55 16.24 169.892 17.0357C169.892 17.0358 169.892 17.0357 169.892 17.0355Z" fill="url(#paint13_radial_499_30020)"/>
<path d="M92.9307 9.90404C92.9307 9.90421 92.9308 9.90435 92.931 9.90434C93.7485 9.83577 94.5752 9.73897 95.41 9.61914C95.1585 9.62209 94.9065 9.6267 94.6538 9.63229C94.5665 9.63421 94.4795 9.64285 94.3935 9.65784C93.9045 9.7431 93.417 9.82537 92.9309 9.90374C92.9308 9.90376 92.9307 9.90389 92.9307 9.90404Z" fill="url(#paint14_radial_499_30020)"/>
<path d="M98.3604 8.91863C98.3604 8.91849 98.3605 8.91837 98.3606 8.91835C99.0064 8.84346 99.65 8.77318 100.291 8.71038C100.904 8.57497 101.52 8.43209 102.137 8.28516C101.261 8.4511 100.395 8.58766 99.5375 8.68849C99.1452 8.76568 98.753 8.84287 98.3607 8.9189C98.3605 8.91894 98.3604 8.91881 98.3604 8.91863Z" fill="url(#paint15_radial_499_30020)"/>
<path d="M93.7725 9.65717C94.2716 9.64096 94.7695 9.59311 95.2609 9.50412C96.2902 9.31773 97.3241 9.11973 98.3598 8.91797C96.3247 9.15421 94.2671 9.43884 92.2124 9.72003C92.7346 9.69518 93.2548 9.67399 93.7725 9.65717Z" fill="url(#paint16_radial_499_30020)"/>
<path d="M90.0018 10.0188C90.7376 9.92142 91.4751 9.82056 92.2126 9.71973C91.4783 9.75457 90.7403 9.79681 89.9997 9.84408C89.8549 9.85332 89.8567 10.0174 90.0018 10.0188Z" fill="url(#paint17_radial_499_30020)"/>
<path d="M102.137 8.28383C102.137 8.28369 102.137 8.28358 102.137 8.28355C103.132 8.09515 104.137 7.86874 105.15 7.61523C104.781 7.68092 104.413 7.74774 104.044 7.81631C103.407 7.97589 102.771 8.13259 102.137 8.2841C102.137 8.28415 102.137 8.28401 102.137 8.28383Z" fill="url(#paint18_radial_499_30020)"/>
<path d="M201.209 -23.8772C201.209 -23.8771 201.209 -23.877 201.209 -23.8771C211.359 -33.1853 232.649 -34.7048 238.38 -46.9926C239.882 -50.2147 240.13 -53.7808 239.688 -57.5364C239.392 -59.0403 239.094 -60.5453 238.817 -62.0428C238.406 -63.6809 237.974 -65.3259 237.556 -66.9675C235.178 -74.9034 231.877 -83.101 232.195 -90.3258C232.78 -103.598 246.96 -119.685 242.133 -132.946C240.802 -136.603 238.226 -139.495 235.004 -141.972C233.787 -142.778 232.573 -143.581 231.381 -144.39C229.944 -145.241 228.492 -146.078 227.056 -146.918C219.789 -150.796 211.799 -154.109 207.124 -159.207C197.816 -169.358 196.296 -190.648 184.008 -196.378C180.786 -197.881 177.22 -198.128 173.465 -197.686C171.961 -197.391 170.456 -197.093 168.958 -196.816C167.32 -196.405 165.675 -195.973 164.033 -195.554C156.098 -193.176 147.9 -189.875 140.675 -190.193C127.403 -190.778 111.316 -204.958 98.0546 -200.132C94.3981 -198.801 91.5056 -196.224 89.0292 -193.002C88.2231 -191.786 87.4198 -190.572 86.6109 -189.38C85.7604 -187.943 84.9232 -186.491 84.0831 -185.054C80.2059 -177.788 76.8916 -169.798 71.7935 -165.123C61.6432 -155.814 40.3529 -154.295 34.6226 -142.007C33.1199 -138.785 32.8727 -135.219 33.3147 -131.463C33.6103 -129.959 33.9082 -128.454 34.1853 -126.957C34.5961 -125.319 35.0283 -123.674 35.4466 -122.032C37.8246 -114.096 41.1256 -105.899 40.8075 -98.6737C40.2227 -85.4017 26.0425 -69.3144 30.8693 -56.0533C32.2003 -52.3967 34.7765 -49.5043 37.9986 -47.0278C39.2149 -46.2217 40.4289 -45.4185 41.6211 -44.6095C43.0581 -43.759 44.5101 -42.9218 45.9466 -42.0817C53.213 -38.2045 61.203 -34.8902 65.8783 -29.7921C75.1867 -19.6419 76.7061 1.6485 88.994 7.37874C92.2161 8.88145 95.7821 9.12865 99.5378 8.68671C101.042 8.39113 102.547 8.09323 104.044 7.81609C105.682 7.40526 107.327 6.97311 108.969 6.55479C116.905 4.17685 125.102 0.875824 132.327 1.19388C145.599 1.77872 161.687 15.9588 174.948 11.1321C178.604 9.80107 181.497 7.2249 183.973 4.00282C184.779 2.78648 185.583 1.57243 186.391 0.380295C187.242 -1.05673 188.079 -2.50873 188.919 -3.94519C192.796 -11.2115 196.111 -19.2014 201.209 -23.8773C201.209 -23.8773 201.209 -23.8773 201.209 -23.8772ZM179.435 5.03134C166.939 10.4211 150.658 -2.32722 137.848 -2.14574C124.569 -1.95789 108.631 11.0652 96.4805 6.23788C84.3303 1.41054 81.6735 -18.9994 72.1438 -28.2485C62.9512 -37.1708 42.3598 -39.0705 36.9701 -51.5659C31.5803 -64.0612 44.3286 -80.3427 44.1471 -93.1521C43.9593 -106.431 30.9362 -122.37 35.7635 -134.52C40.5909 -146.67 61.0008 -149.327 70.2498 -158.857C79.1722 -168.049 81.0719 -188.641 93.5673 -194.03C106.063 -199.42 122.344 -186.672 135.153 -186.853C148.432 -187.041 164.371 -200.064 176.521 -195.237C188.671 -190.41 191.328 -170 200.858 -160.751C210.051 -151.828 230.642 -149.928 236.032 -137.433C241.421 -124.938 228.673 -108.656 228.855 -95.8469C229.042 -82.568 242.066 -66.6293 237.238 -54.4791C232.411 -42.3289 212.001 -39.6721 202.752 -30.1424C193.83 -20.9498 191.93 -0.358368 179.435 5.03134Z" fill="url(#paint19_radial_499_30020)"/>
<path d="M235.583 -61.6678C235.583 -61.6677 235.583 -61.6678 235.583 -61.6679C239.543 -73.6187 226.131 -88.2118 225.207 -100.966C224.315 -113.27 235.659 -129.636 229.778 -141.346C223.896 -153.056 203.995 -153.73 194.658 -161.793C184.979 -170.151 181.282 -189.623 169.331 -193.583C157.381 -197.543 142.787 -184.131 130.033 -183.207C117.729 -182.316 101.363 -193.659 89.6531 -187.778C77.9426 -181.897 77.269 -161.996 69.2063 -152.658C60.848 -142.979 41.3762 -139.283 37.416 -127.332C33.4558 -115.381 46.8679 -100.788 47.7921 -88.033C48.6834 -75.729 37.3399 -59.3634 43.2211 -47.6534C49.1023 -35.9428 69.0035 -35.2692 78.3407 -27.2072C88.0196 -18.8489 91.7165 0.623016 103.667 4.58319C115.618 8.54338 130.211 -4.86868 142.966 -5.79291C155.27 -6.68428 171.636 4.65926 183.346 -1.22195C195.056 -7.10316 195.73 -27.0043 203.792 -36.3415C212.15 -46.0203 231.622 -49.7172 235.582 -61.6677C235.582 -61.6679 235.582 -61.668 235.583 -61.6678ZM186.683 -7.58026C175.771 -1.28015 159.427 -11.2546 147.667 -9.71045C135.475 -8.11035 122.217 5.58 110.523 2.44667C98.8302 -0.686676 94.1935 -19.1715 84.4351 -26.6534C75.0218 -33.8708 55.8807 -33.4047 49.5806 -44.3166C43.2805 -55.2286 53.2544 -71.5723 51.7108 -83.333C50.1107 -95.5247 36.4203 -108.783 39.5537 -120.476C42.687 -132.169 61.1719 -136.806 68.6537 -146.564C75.8711 -155.978 75.405 -175.119 86.317 -181.419C97.2289 -187.719 113.573 -177.745 125.333 -179.289C137.525 -180.889 150.783 -194.579 162.477 -191.446C174.17 -188.313 178.806 -169.828 188.565 -162.346C197.978 -155.128 217.119 -155.595 223.419 -144.683C229.719 -133.771 219.745 -117.427 221.289 -105.666C222.889 -93.4746 236.58 -80.2164 233.446 -68.5231C230.313 -56.8298 211.828 -52.1932 204.346 -42.4348C197.129 -33.0215 197.595 -13.8804 186.683 -7.58026Z" fill="url(#paint20_radial_499_30020)"/>
<path d="M230.861 -75.0157C233.212 -86.3972 219.351 -98.3394 217.137 -109.934C215.001 -121.119 223.648 -137.339 217.001 -147.446C210.354 -157.552 192.036 -156.037 182.611 -162.428C172.841 -169.054 167.366 -186.511 155.984 -188.861C144.603 -191.211 132.661 -177.351 121.066 -175.136C109.881 -173 93.6609 -181.647 83.5545 -175C73.448 -168.353 74.9634 -150.035 68.5717 -140.611C61.946 -130.841 44.4891 -125.365 42.1394 -113.984C39.7891 -102.602 53.6494 -90.6599 55.8637 -79.0652C57.9997 -67.8801 49.3528 -51.6603 55.9997 -41.5538C62.6467 -31.4474 80.965 -32.9628 90.3893 -26.5711C100.159 -19.9454 105.635 -2.48846 117.016 -0.138748C128.398 2.21155 140.34 -11.6488 151.935 -13.8631C163.12 -15.9991 179.34 -7.3521 189.446 -13.9991C199.553 -20.646 198.037 -38.9644 204.429 -48.3886C211.055 -58.1586 228.512 -63.6341 230.861 -75.0157ZM191.64 -20.4346C182.341 -13.5122 166.342 -20.8806 155.76 -18.2139C144.79 -15.4494 134.137 -1.5239 123.118 -3.13782C112.098 -4.75174 105.887 -21.1479 96.1708 -26.9421C86.7984 -32.5318 69.3576 -30.0616 62.4352 -39.3597C55.5128 -48.6577 62.8812 -64.6575 60.2146 -75.2398C57.45 -86.2094 43.5246 -96.8626 45.1385 -107.882C46.7524 -118.901 63.1486 -125.113 68.9428 -134.829C74.5324 -144.201 72.0623 -161.642 81.3603 -168.564C90.6589 -175.487 106.658 -168.118 117.24 -170.785C128.21 -173.549 138.863 -187.475 149.882 -185.861C160.902 -184.247 167.113 -167.851 176.829 -162.057C186.202 -156.467 203.642 -158.937 210.565 -149.639C217.487 -140.34 210.119 -124.341 212.785 -113.759C215.55 -102.789 229.476 -92.1361 227.862 -81.117C226.248 -70.0973 209.852 -63.8859 204.057 -54.1702C198.468 -44.7978 200.938 -27.357 191.64 -20.4346Z" fill="url(#paint21_radial_499_30020)"/>
</g>
<defs>
<radialGradient id="paint0_radial_499_30020" cx="0" cy="0" r="1" gradientUnits="userSpaceOnUse" gradientTransform="translate(143.208 17.7718) rotate(-15.7878) scale(132.982 41.2373)">
<stop stop-color="#FFB6D5"/>
<stop offset="0.1" stop-color="#FFE3C0"/>
<stop offset="0.29" stop-color="#C7FBDB"/>
<stop offset="0.43" stop-color="#C7CDF4"/>
<stop offset="0.54" stop-color="#FFBCD4"/>
<stop offset="0.66" stop-color="#FFE0C3"/>
<stop offset="0.76" stop-color="#B0F1D4"/>
<stop offset="0.84" stop-color="#C9CEEC"/>
<stop offset="0.91" stop-color="#FFC1DA"/>
<stop offset="1" stop-color="#BDFFE3"/>
</radialGradient>
<radialGradient id="paint1_radial_499_30020" cx="0" cy="0" r="1" gradientUnits="userSpaceOnUse" gradientTransform="translate(51.9662 -41.5022) rotate(-52.3788) scale(94.8954 54.3446)">
<stop stop-color="#FFB6D5"/>
<stop offset="0.1" stop-color="#FFE3C0"/>
<stop offset="0.29" stop-color="#C7FBDB"/>
<stop offset="0.43" stop-color="#C7CDF4"/>
<stop offset="0.54" stop-color="#FFBCD4"/>
<stop offset="0.66" stop-color="#FFE0C3"/>
<stop offset="0.76" stop-color="#B0F1D4"/>
<stop offset="0.84" stop-color="#C9CEEC"/>
<stop offset="0.91" stop-color="#FFC1DA"/>
<stop offset="1" stop-color="#BDFFE3"/>
</radialGradient>
<radialGradient id="paint2_radial_499_30020" cx="0" cy="0" r="1" gradientUnits="userSpaceOnUse" gradientTransform="translate(64.5265 9.14411) rotate(-5.26992) scale(16.5974 1.79796)">
<stop stop-color="#FFB6D5"/>
<stop offset="0.1" stop-color="#FFE3C0"/>
<stop offset="0.29" stop-color="#C7FBDB"/>
<stop offset="0.43" stop-color="#C7CDF4"/>
<stop offset="0.54" stop-color="#FFBCD4"/>
<stop offset="0.66" stop-color="#FFE0C3"/>
<stop offset="0.76" stop-color="#B0F1D4"/>
<stop offset="0.84" stop-color="#C9CEEC"/>
<stop offset="0.91" stop-color="#FFC1DA"/>
<stop offset="1" stop-color="#BDFFE3"/>
</radialGradient>
<radialGradient id="paint3_radial_499_30020" cx="0" cy="0" r="1" gradientUnits="userSpaceOnUse" gradientTransform="translate(160.18 30.3861) rotate(-25.3175) scale(14.7937 6.77336)">
<stop stop-color="#FFB6D5"/>
<stop offset="0.1" stop-color="#FFE3C0"/>
<stop offset="0.29" stop-color="#C7FBDB"/>
<stop offset="0.43" stop-color="#C7CDF4"/>
<stop offset="0.54" stop-color="#FFBCD4"/>
<stop offset="0.66" stop-color="#FFE0C3"/>
<stop offset="0.76" stop-color="#B0F1D4"/>
<stop offset="0.84" stop-color="#C9CEEC"/>
<stop offset="0.91" stop-color="#FFC1DA"/>
<stop offset="1" stop-color="#BDFFE3"/>
</radialGradient>
<radialGradient id="paint4_radial_499_30020" cx="0" cy="0" r="1" gradientUnits="userSpaceOnUse" gradientTransform="translate(73.5748 10.3135) rotate(-2.53364) scale(16.4658 0.861286)">
<stop stop-color="#FFB6D5"/>
<stop offset="0.1" stop-color="#FFE3C0"/>
<stop offset="0.29" stop-color="#C7FBDB"/>
<stop offset="0.43" stop-color="#C7CDF4"/>
<stop offset="0.54" stop-color="#FFBCD4"/>
<stop offset="0.66" stop-color="#FFE0C3"/>
<stop offset="0.76" stop-color="#B0F1D4"/>
<stop offset="0.84" stop-color="#C9CEEC"/>
<stop offset="0.91" stop-color="#FFC1DA"/>
<stop offset="1" stop-color="#BDFFE3"/>
</radialGradient>
<radialGradient id="paint5_radial_499_30020" cx="0" cy="0" r="1" gradientUnits="userSpaceOnUse" gradientTransform="translate(64.1198 -35.5985) rotate(-46.3773) scale(93.3692 55.2308)">
<stop stop-color="#FFB6D5"/>
<stop offset="0.1" stop-color="#FFE3C0"/>
<stop offset="0.29" stop-color="#C7FBDB"/>
<stop offset="0.43" stop-color="#C7CDF4"/>
<stop offset="0.54" stop-color="#FFBCD4"/>
<stop offset="0.66" stop-color="#FFE0C3"/>
<stop offset="0.76" stop-color="#B0F1D4"/>
<stop offset="0.84" stop-color="#C9CEEC"/>
<stop offset="0.91" stop-color="#FFC1DA"/>
<stop offset="1" stop-color="#BDFFE3"/>
</radialGradient>
<radialGradient id="paint6_radial_499_30020" cx="0" cy="0" r="1" gradientUnits="userSpaceOnUse" gradientTransform="translate(153.017 14.1936) rotate(-12.9376) scale(126.936 32.8066)">
<stop stop-color="#FFB6D5"/>
<stop offset="0.1" stop-color="#FFE3C0"/>
<stop offset="0.29" stop-color="#C7FBDB"/>
<stop offset="0.43" stop-color="#C7CDF4"/>
<stop offset="0.54" stop-color="#FFBCD4"/>
<stop offset="0.66" stop-color="#FFE0C3"/>
<stop offset="0.76" stop-color="#B0F1D4"/>
<stop offset="0.84" stop-color="#C9CEEC"/>
<stop offset="0.91" stop-color="#FFC1DA"/>
<stop offset="1" stop-color="#BDFFE3"/>
</radialGradient>
<radialGradient id="paint7_radial_499_30020" cx="0" cy="0" r="1" gradientUnits="userSpaceOnUse" gradientTransform="translate(82.2976 10.6251) rotate(-1.85065) scale(15.7744 0.603062)">
<stop stop-color="#FFB6D5"/>
<stop offset="0.1" stop-color="#FFE3C0"/>
<stop offset="0.29" stop-color="#C7FBDB"/>
<stop offset="0.43" stop-color="#C7CDF4"/>
<stop offset="0.54" stop-color="#FFBCD4"/>
<stop offset="0.66" stop-color="#FFE0C3"/>
<stop offset="0.76" stop-color="#B0F1D4"/>
<stop offset="0.84" stop-color="#C9CEEC"/>
<stop offset="0.91" stop-color="#FFC1DA"/>
<stop offset="1" stop-color="#BDFFE3"/>
</radialGradient>
<radialGradient id="paint8_radial_499_30020" cx="0" cy="0" r="1" gradientUnits="userSpaceOnUse" gradientTransform="translate(77.3931 9.80951) rotate(-2.43352) scale(16.9053 0.849415)">
<stop stop-color="#FFB6D5"/>
<stop offset="0.1" stop-color="#FFE3C0"/>
<stop offset="0.29" stop-color="#C7FBDB"/>
<stop offset="0.43" stop-color="#C7CDF4"/>
<stop offset="0.54" stop-color="#FFBCD4"/>
<stop offset="0.66" stop-color="#FFE0C3"/>
<stop offset="0.76" stop-color="#B0F1D4"/>
<stop offset="0.84" stop-color="#C9CEEC"/>
<stop offset="0.91" stop-color="#FFC1DA"/>
<stop offset="1" stop-color="#BDFFE3"/>
</radialGradient>
<radialGradient id="paint9_radial_499_30020" cx="0" cy="0" r="1" gradientUnits="userSpaceOnUse" gradientTransform="translate(92.2178 10.0068) rotate(-3.36468) scale(8.50421 0.590155)">
<stop stop-color="#FFB6D5"/>
<stop offset="0.1" stop-color="#FFE3C0"/>
<stop offset="0.29" stop-color="#C7FBDB"/>
<stop offset="0.43" stop-color="#C7CDF4"/>
<stop offset="0.54" stop-color="#FFBCD4"/>
<stop offset="0.66" stop-color="#FFE0C3"/>
<stop offset="0.76" stop-color="#B0F1D4"/>
<stop offset="0.84" stop-color="#C9CEEC"/>
<stop offset="0.91" stop-color="#FFC1DA"/>
<stop offset="1" stop-color="#BDFFE3"/>
</radialGradient>
<radialGradient id="paint10_radial_499_30020" cx="0" cy="0" r="1" gradientUnits="userSpaceOnUse" gradientTransform="translate(87.2535 10.2856) rotate(-3.01988) scale(12.0497 0.750844)">
<stop stop-color="#FFB6D5"/>
<stop offset="0.1" stop-color="#FFE3C0"/>
<stop offset="0.29" stop-color="#C7FBDB"/>
<stop offset="0.43" stop-color="#C7CDF4"/>
<stop offset="0.54" stop-color="#FFBCD4"/>
<stop offset="0.66" stop-color="#FFE0C3"/>
<stop offset="0.76" stop-color="#B0F1D4"/>
<stop offset="0.84" stop-color="#C9CEEC"/>
<stop offset="0.91" stop-color="#FFC1DA"/>
<stop offset="1" stop-color="#BDFFE3"/>
</radialGradient>
<radialGradient id="paint11_radial_499_30020" cx="0" cy="0" r="1" gradientUnits="userSpaceOnUse" gradientTransform="translate(81.2177 10.2596) rotate(-4.30722) scale(5.18196 0.459664)">
<stop stop-color="#FFB6D5"/>
<stop offset="0.1" stop-color="#FFE3C0"/>
<stop offset="0.29" stop-color="#C7FBDB"/>
<stop offset="0.43" stop-color="#C7CDF4"/>
<stop offset="0.54" stop-color="#FFBCD4"/>
<stop offset="0.66" stop-color="#FFE0C3"/>
<stop offset="0.76" stop-color="#B0F1D4"/>
<stop offset="0.84" stop-color="#C9CEEC"/>
<stop offset="0.91" stop-color="#FFC1DA"/>
<stop offset="1" stop-color="#BDFFE3"/>
</radialGradient>
<radialGradient id="paint12_radial_499_30020" cx="0" cy="0" r="1" gradientUnits="userSpaceOnUse" gradientTransform="translate(81.3759 -31.3205) rotate(-36.5469) scale(104.071 58.9686)">
<stop stop-color="#FFB6D5"/>
<stop offset="0.1" stop-color="#FFE3C0"/>
<stop offset="0.29" stop-color="#C7FBDB"/>
<stop offset="0.43" stop-color="#C7CDF4"/>
<stop offset="0.54" stop-color="#FFBCD4"/>
<stop offset="0.66" stop-color="#FFE0C3"/>
<stop offset="0.76" stop-color="#B0F1D4"/>
<stop offset="0.84" stop-color="#C9CEEC"/>
<stop offset="0.91" stop-color="#FFC1DA"/>
<stop offset="1" stop-color="#BDFFE3"/>
</radialGradient>
<radialGradient id="paint13_radial_499_30020" cx="0" cy="0" r="1" gradientUnits="userSpaceOnUse" gradientTransform="translate(165.983 8.54968) rotate(-9.48309) scale(132.45 25.4935)">
<stop stop-color="#FFB6D5"/>
<stop offset="0.1" stop-color="#FFE3C0"/>
<stop offset="0.29" stop-color="#C7FBDB"/>
<stop offset="0.43" stop-color="#C7CDF4"/>
<stop offset="0.54" stop-color="#FFBCD4"/>
<stop offset="0.66" stop-color="#FFE0C3"/>
<stop offset="0.76" stop-color="#B0F1D4"/>
<stop offset="0.84" stop-color="#C9CEEC"/>
<stop offset="0.91" stop-color="#FFC1DA"/>
<stop offset="1" stop-color="#BDFFE3"/>
</radialGradient>
<radialGradient id="paint14_radial_499_30020" cx="0" cy="0" r="1" gradientUnits="userSpaceOnUse" gradientTransform="translate(95.0312 9.68608) rotate(-4.13307) scale(4.52283 0.385089)">
<stop stop-color="#FFB6D5"/>
<stop offset="0.1" stop-color="#FFE3C0"/>
<stop offset="0.29" stop-color="#C7FBDB"/>
<stop offset="0.43" stop-color="#C7CDF4"/>
<stop offset="0.54" stop-color="#FFBCD4"/>
<stop offset="0.66" stop-color="#FFE0C3"/>
<stop offset="0.76" stop-color="#B0F1D4"/>
<stop offset="0.84" stop-color="#C9CEEC"/>
<stop offset="0.91" stop-color="#FFC1DA"/>
<stop offset="1" stop-color="#BDFFE3"/>
</radialGradient>
<radialGradient id="paint15_radial_499_30020" cx="0" cy="0" r="1" gradientUnits="userSpaceOnUse" gradientTransform="translate(101.56 8.43391) rotate(-6.01812) scale(6.90898 0.853223)">
<stop stop-color="#FFB6D5"/>
<stop offset="0.1" stop-color="#FFE3C0"/>
<stop offset="0.29" stop-color="#C7FBDB"/>
<stop offset="0.43" stop-color="#C7CDF4"/>
<stop offset="0.54" stop-color="#FFBCD4"/>
<stop offset="0.66" stop-color="#FFE0C3"/>
<stop offset="0.76" stop-color="#B0F1D4"/>
<stop offset="0.84" stop-color="#C9CEEC"/>
<stop offset="0.91" stop-color="#FFC1DA"/>
<stop offset="1" stop-color="#BDFFE3"/>
</radialGradient>
<radialGradient id="paint16_radial_499_30020" cx="0" cy="0" r="1" gradientUnits="userSpaceOnUse" gradientTransform="translate(97.4206 9.10621) rotate(-4.6851) scale(11.2224 1.08206)">
<stop stop-color="#FFB6D5"/>
<stop offset="0.1" stop-color="#FFE3C0"/>
<stop offset="0.29" stop-color="#C7FBDB"/>
<stop offset="0.43" stop-color="#C7CDF4"/>
<stop offset="0.54" stop-color="#FFBCD4"/>
<stop offset="0.66" stop-color="#FFE0C3"/>
<stop offset="0.76" stop-color="#B0F1D4"/>
<stop offset="0.84" stop-color="#C9CEEC"/>
<stop offset="0.91" stop-color="#FFC1DA"/>
<stop offset="1" stop-color="#BDFFE3"/>
</radialGradient>
<radialGradient id="paint17_radial_499_30020" cx="0" cy="0" r="1" gradientUnits="userSpaceOnUse" gradientTransform="translate(91.6296 9.78992) rotate(-2.81821) scale(6.95164 0.404341)">
<stop stop-color="#FFB6D5"/>
<stop offset="0.1" stop-color="#FFE3C0"/>
<stop offset="0.29" stop-color="#C7FBDB"/>
<stop offset="0.43" stop-color="#C7CDF4"/>
<stop offset="0.54" stop-color="#FFBCD4"/>
<stop offset="0.66" stop-color="#FFE0C3"/>
<stop offset="0.76" stop-color="#B0F1D4"/>
<stop offset="0.84" stop-color="#C9CEEC"/>
<stop offset="0.91" stop-color="#FFC1DA"/>
<stop offset="1" stop-color="#BDFFE3"/>
</radialGradient>
<radialGradient id="paint18_radial_499_30020" cx="0" cy="0" r="1" gradientUnits="userSpaceOnUse" gradientTransform="translate(104.689 7.77223) rotate(-7.93947) scale(5.53489 0.896838)">
<stop stop-color="#FFB6D5"/>
<stop offset="0.1" stop-color="#FFE3C0"/>
<stop offset="0.29" stop-color="#C7FBDB"/>
<stop offset="0.43" stop-color="#C7CDF4"/>
<stop offset="0.54" stop-color="#FFBCD4"/>
<stop offset="0.66" stop-color="#FFE0C3"/>
<stop offset="0.76" stop-color="#B0F1D4"/>
<stop offset="0.84" stop-color="#C9CEEC"/>
<stop offset="0.91" stop-color="#FFC1DA"/>
<stop offset="1" stop-color="#BDFFE3"/>
</radialGradient>
<radialGradient id="paint19_radial_499_30020" cx="0" cy="0" r="1" gradientUnits="userSpaceOnUse" gradientTransform="translate(210.551 -151.08) rotate(-32.1344) scale(458.22 244.456)">
<stop stop-color="#FFB6D5"/>
<stop offset="0.1" stop-color="#FFE3C0"/>
<stop offset="0.29" stop-color="#C7FBDB"/>
<stop offset="0.43" stop-color="#C7CDF4"/>
<stop offset="0.54" stop-color="#FFBCD4"/>
<stop offset="0.66" stop-color="#FFE0C3"/>
<stop offset="0.76" stop-color="#B0F1D4"/>
<stop offset="0.84" stop-color="#C9CEEC"/>
<stop offset="0.91" stop-color="#FFC1DA"/>
<stop offset="1" stop-color="#BDFFE3"/>
</radialGradient>
<radialGradient id="paint20_radial_499_30020" cx="0" cy="0" r="1" gradientUnits="userSpaceOnUse" gradientTransform="translate(205.814 -147.462) rotate(-32.1343) scale(428.916 228.823)">
<stop stop-color="#FFB6D5"/>
<stop offset="0.1" stop-color="#FFE3C0"/>
<stop offset="0.29" stop-color="#C7FBDB"/>
<stop offset="0.43" stop-color="#C7CDF4"/>
<stop offset="0.54" stop-color="#FFBCD4"/>
<stop offset="0.66" stop-color="#FFE0C3"/>
<stop offset="0.76" stop-color="#B0F1D4"/>
<stop offset="0.84" stop-color="#C9CEEC"/>
<stop offset="0.91" stop-color="#FFC1DA"/>
<stop offset="1" stop-color="#BDFFE3"/>
</radialGradient>
<radialGradient id="paint21_radial_499_30020" cx="0" cy="0" r="1" gradientUnits="userSpaceOnUse" gradientTransform="translate(202.214 -144.711) rotate(-32.1344) scale(406.637 216.937)">
<stop stop-color="#FFB6D5"/>
<stop offset="0.1" stop-color="#FFE3C0"/>
<stop offset="0.29" stop-color="#C7FBDB"/>
<stop offset="0.43" stop-color="#C7CDF4"/>
<stop offset="0.54" stop-color="#FFBCD4"/>
<stop offset="0.66" stop-color="#FFE0C3"/>
<stop offset="0.76" stop-color="#B0F1D4"/>
<stop offset="0.84" stop-color="#C9CEEC"/>
<stop offset="0.91" stop-color="#FFC1DA"/>
<stop offset="1" stop-color="#BDFFE3"/>
</radialGradient>
</defs>
</svg>
