<svg width="151" height="33" viewBox="0 0 151 33" fill="none" xmlns="http://www.w3.org/2000/svg">
<path d="M165.294 33.3358C165.294 33.3357 165.294 33.3356 165.294 33.3357C167.608 34.2441 170.16 34.8127 172.85 35.1807C173.479 35.2667 174.115 35.2756 174.748 35.2409C176.237 35.1591 177.696 35.143 179.109 35.2229C179.151 35.2213 179.156 35.1608 179.115 35.1525C176.57 34.6267 174.168 33.9202 171.997 32.9214C158.9 26.894 148.659 6.35974 133.309 5.65033C127.634 5.38803 122.404 7.88926 117.378 11.3883C120.182 9.96168 123.115 9.07692 126.238 9.04325C141.149 8.88403 152.257 28.2172 165.293 33.3359C165.293 33.336 165.294 33.336 165.294 33.3358Z" fill="#222222"/>
<path d="M87.8408 34.164C87.8407 34.1641 87.8408 34.1642 87.8409 34.1641C90.1834 33.1841 92.4498 31.7362 94.6797 30.0219C94.7509 29.9672 94.8164 29.9053 94.8758 29.8379C95.987 28.5755 97.1339 27.3882 98.3337 26.3209C98.379 26.2724 98.3159 26.1965 98.2598 26.2321C96.2866 27.4824 94.2954 28.5225 92.2715 29.2362C78.176 34.2055 56.1387 26.9499 45.24 36.6614C43.2609 38.4251 41.8179 40.598 40.7435 43.0528C40.4341 43.7599 42.159 44.5005 42.7044 43.9544C52.7025 33.9419 74.4714 39.7571 87.8407 34.1639C87.8408 34.1639 87.8409 34.164 87.8408 34.164Z" fill="#222222"/>
<path d="M117.379 11.3878C117.379 11.3878 117.379 11.3878 117.379 11.3879C115.031 12.5823 112.775 14.1566 110.572 15.9306C111.382 15.4307 112.207 14.9784 113.048 14.5831C113.171 14.5252 113.287 14.454 113.394 14.3695C114.711 13.3271 116.038 12.3221 117.379 11.3881C117.379 11.388 117.379 11.3878 117.379 11.3878Z" fill="#222222"/>
<path d="M110.572 15.9302C110.572 15.93 110.572 15.9299 110.572 15.93C108.364 17.2931 106.263 19.0116 104.224 20.9068C104.744 20.5214 105.271 20.1571 105.808 19.8165C106.363 19.4639 106.899 19.0798 107.389 18.642C108.44 17.7046 109.5 16.7938 110.572 15.9303C110.572 15.9303 110.572 15.9302 110.572 15.9302Z" fill="#222222"/>
<path d="M152.531 35.4652C152.53 35.4651 152.531 35.465 152.531 35.465C156.123 36.4207 160.179 36.5111 164.395 36.2989C165.886 36.0478 167.359 35.8393 168.804 35.7043C165.233 35.5828 161.83 35.1864 158.795 34.1911C145.882 29.9544 134.015 11.8479 119.591 12.8245C117.389 12.9737 115.31 13.5553 113.324 14.4555C113.264 14.4829 113.207 14.5178 113.155 14.559C112.919 14.7468 112.684 14.9357 112.448 15.1255C111.817 15.6345 112.585 17.0584 113.389 16.9578C127.281 15.219 139.799 32.0782 152.53 35.4653C152.531 35.4654 152.531 35.4652 152.531 35.4652Z" fill="#222222"/>
<path d="M80.3729 44.4963C80.373 44.4962 80.373 44.496 80.3732 44.4959C83.4123 42.7909 86.1877 40.1683 88.8857 37.2038C89.7638 35.9748 90.665 34.7848 91.6041 33.6663C89.1162 35.9656 86.5695 37.9477 83.8731 39.2625C71.2548 45.415 49.8483 40.9845 40.748 51.2297C39.4581 52.6818 38.5021 54.3327 37.7971 56.1328C37.7695 56.2035 37.7516 56.2776 37.7434 56.3531C37.6889 56.8578 37.6373 57.3648 37.5877 57.8733C37.5153 58.6174 38.8982 59.0334 39.361 58.4463C47.5705 48.0356 68.5255 51.1422 80.3727 44.4967C80.3729 44.4966 80.3729 44.4965 80.3729 44.4963Z" fill="#222222"/>
<path d="M99.7924 25.1065C100.265 24.7404 100.721 24.3528 101.139 23.926C102.155 22.8895 103.182 21.8754 104.223 20.9069C102.366 22.2846 100.607 23.9299 98.9064 25.7131C98.8706 25.7507 98.9176 25.807 98.9608 25.7784C99.235 25.5478 99.5122 25.3236 99.7924 25.1065Z" fill="#222222"/>
<path d="M106.94 19.682C107.204 19.4628 106.979 19.116 106.681 19.2872C106.663 19.2977 106.646 19.3102 106.63 19.3243C105.144 20.6713 103.674 22.0615 102.207 23.4348C102.196 23.4455 102.21 23.4645 102.224 23.4567C103.797 22.2645 105.367 20.9865 106.94 19.682Z" fill="#222222"/>
<path d="M95.8547 29.0931C95.8547 29.0932 95.8546 29.0932 95.8546 29.0932C95.5631 29.33 95.2711 29.5627 94.9785 29.7909C94.8513 29.8902 94.7332 30.0008 94.6274 30.1227C94.0391 30.8005 93.4601 31.4988 92.8888 32.2102C93.4999 31.5539 94.1282 30.9302 94.7778 30.3484C95.1354 29.9282 95.4939 29.5096 95.8544 29.093C95.8545 29.0929 95.8547 29.093 95.8547 29.0931Z" fill="#222222"/>
<path d="M97.5656 27.6564C97.5656 27.6565 97.5657 27.6566 97.5657 27.6565C98.0908 27.103 98.6167 26.5478 99.1442 25.9945C99.2545 25.8788 99.0949 25.6902 98.9614 25.7782C98.751 25.955 98.542 26.136 98.3343 26.32C97.9128 26.7726 97.4945 27.2327 97.0788 27.6984C96.9465 27.8467 97.1276 28.0326 97.2785 27.9033C97.3742 27.8213 97.4698 27.739 97.5654 27.6564C97.5655 27.6563 97.5656 27.6564 97.5656 27.6564Z" fill="#222222"/>
<path d="M102.02 23.6102C102.02 23.61 102.02 23.6099 102.021 23.6098C102.022 23.6086 102.023 23.6074 102.024 23.6062C102.036 23.595 102.022 23.5755 102.008 23.584C101.501 23.8879 101.004 24.2164 100.517 24.566C100.514 24.5681 100.511 24.5705 100.509 24.5731C100.457 24.6266 100.525 24.706 100.585 24.6627C101.064 24.3212 101.542 23.9699 102.02 23.6106C102.02 23.6105 102.02 23.6104 102.02 23.6102Z" fill="#222222"/>
<path d="M102.391 26.1273C102.391 26.1274 102.391 26.1275 102.391 26.1275C115.102 23.0369 128.603 37.3762 140.806 39.1719C145.598 39.8772 151.038 38.9299 156.535 37.8258C157.698 37.5429 158.854 37.2803 159.998 37.0551C155.242 37.6574 150.616 37.975 146.525 37.1327C134.031 34.5606 120.969 18.9597 107.649 21.404C105.703 21.761 103.906 22.4758 102.223 23.4563C102.155 23.5077 102.087 23.5587 102.02 23.6097C100.535 24.9987 99.0545 26.3682 97.5649 27.6559C97.0104 28.2405 96.4559 28.8237 95.9017 29.4008C97.8442 27.8676 99.9781 26.7139 102.39 26.1271C102.39 26.1271 102.391 26.1272 102.391 26.1273Z" fill="#222222"/>
<path d="M92.8888 32.2096C92.4518 32.6788 92.0243 33.1652 91.604 33.666C91.9417 33.3544 92.2499 33.0127 92.5354 32.6527C92.653 32.5044 92.7708 32.3567 92.8888 32.2096Z" fill="#222222"/>
<path d="M92.6525 32.6759C92.2918 33.0233 91.9526 33.3927 91.6465 33.789C91.0926 34.506 90.5439 35.2314 89.998 35.9588C91.1875 34.6061 92.3664 33.2025 93.5516 31.7971C93.2524 32.0935 92.9528 32.3866 92.6525 32.6759Z" fill="#222222"/>
<path d="M94.778 30.3476C94.3678 30.8292 93.9596 31.3129 93.5514 31.7966C94.3374 31.0174 95.1202 30.2153 95.9021 29.401C95.5205 29.7024 95.1454 30.0182 94.778 30.3476Z" fill="#222222"/>
<path d="M72.6853 60.6555C72.6853 60.6554 72.6852 60.6553 72.6851 60.6554C63.217 68.3857 44.0862 68.8349 38.4565 79.3571C36.9802 82.1162 36.6145 85.2285 36.8583 88.5353C37.0622 89.8644 37.2681 91.1945 37.4558 92.5173C37.7574 93.9687 38.0779 95.427 38.3862 96.8817C40.1949 103.929 42.8198 111.244 42.2426 117.557C41.1817 129.154 27.8297 142.653 31.6163 154.465C32.6605 157.721 34.8509 160.361 37.6366 162.663C38.6934 163.419 39.7484 164.172 40.7834 164.93C42.0361 165.734 43.3028 166.527 44.5554 167.322C50.9068 171.019 57.9293 174.251 61.9105 178.909C69.8372 188.182 70.3365 206.887 81.1107 212.413C83.9359 213.862 87.1199 214.226 90.5017 213.995C91.8606 213.798 93.2207 213.6 94.5732 213.419C96.0571 213.127 97.548 212.817 99.0353 212.518C106.24 210.765 113.716 208.214 120.174 208.791C132.038 209.853 145.873 222.935 157.946 219.258C161.275 218.244 163.97 216.108 166.319 213.389C167.09 212.357 167.859 211.327 168.631 210.317C169.451 209.094 170.26 207.857 171.071 206.634C174.837 200.432 178.129 193.573 182.885 189.69C192.353 181.96 211.484 181.511 217.114 170.988C218.59 168.229 218.956 165.117 218.712 161.81C218.508 160.481 218.302 159.151 218.114 157.828C217.813 156.377 217.492 154.918 217.184 153.464C215.375 146.417 212.75 139.102 213.328 132.789C214.388 121.192 227.74 107.692 223.954 95.8809C222.91 92.6241 220.719 89.9847 217.933 87.6829C216.877 86.9267 215.822 86.1731 214.787 85.4154C213.534 84.6112 212.267 83.8181 211.015 83.023C204.663 79.3272 197.641 76.0944 193.66 71.4368C185.733 62.1638 185.234 43.4586 174.459 37.9324C171.634 36.4832 168.45 36.1191 165.068 36.3507C163.709 36.5472 162.349 36.7458 160.997 36.9265C159.513 37.2184 158.022 37.5287 156.535 37.827C149.33 39.5807 141.855 42.1318 135.396 41.5542C123.532 40.4927 109.697 27.4103 97.6238 31.0878C94.2949 32.1019 91.5999 34.2379 89.2513 36.9567C88.4801 37.9884 87.7115 39.0182 86.9387 40.0285C86.1188 41.2516 85.3102 42.4884 84.4996 43.7114C80.7328 49.9134 77.441 56.7724 72.6855 60.6556C72.6854 60.6557 72.6853 60.6556 72.6853 60.6555ZM93.3582 36.244C104.768 32.0419 118.835 43.8785 130.316 44.2499C142.217 44.6351 157.02 33.8916 167.708 38.6215C178.395 43.3514 179.949 61.3327 188.11 69.8259C195.983 78.019 214.349 80.5348 218.671 91.6991C222.993 102.863 210.916 116.592 210.56 127.816C210.191 139.451 221.21 153.946 216.395 164.385C211.579 174.824 193.191 176.306 184.521 184.267C176.157 191.947 173.622 209.899 162.212 214.101C150.802 218.303 136.735 206.466 125.255 206.095C113.353 205.71 98.5503 216.453 87.863 211.724C77.1756 206.994 75.6219 189.012 67.4606 180.519C59.588 172.326 41.2214 169.81 36.8996 158.646C32.5778 147.482 44.6551 133.753 45.0109 122.529C45.38 110.894 34.3604 96.3988 39.1759 85.9597C43.9914 75.5206 62.3798 74.0391 71.0497 66.0776C79.4133 58.3977 81.9482 40.4461 93.3582 36.244Z" fill="#222222"/>
<path d="M40.3673 92.3223C40.3672 92.3222 40.3669 92.3222 40.3669 92.3224C36.3366 102.623 47.7587 115.956 48.0704 127.162C48.3708 137.973 37.5483 151.833 42.3421 162.33C47.1359 172.828 64.9338 174.241 72.9708 181.688C81.3018 189.407 83.825 206.61 94.3689 210.572C104.913 214.535 118.527 203.395 129.988 203.114C141.045 202.843 155.244 213.453 165.971 208.788C176.698 204.123 178.106 186.725 185.706 178.883C193.584 170.754 211.174 168.323 215.205 158.022C219.235 147.722 207.813 134.388 207.501 123.182C207.201 112.371 218.023 98.5109 213.23 88.0139C208.436 77.5164 190.638 76.1028 182.601 68.657C174.27 60.9376 171.747 43.7346 161.203 39.7723C150.659 35.8099 137.045 46.9497 125.584 47.231C114.527 47.5022 100.328 36.8921 89.6012 41.557C78.8742 46.222 77.4655 63.6199 69.8666 71.4621C61.9886 79.591 44.3986 82.0221 40.3676 92.3222C40.3676 92.3224 40.3674 92.3224 40.3673 92.3223ZM86.3547 46.9863C96.3833 41.9216 110.618 51.332 121.215 50.4667C132.2 49.5703 144.629 38.1316 154.975 41.3593C165.322 44.5869 168.727 60.9646 177.165 67.9198C185.304 74.6292 202.467 75.0134 207.669 84.8289C212.87 94.6445 203.275 108.542 204.182 118.904C205.121 129.646 216.847 141.822 213.567 151.931C210.288 162.04 193.544 165.335 186.447 173.57C179.602 181.513 179.245 198.293 169.216 203.358C159.187 208.423 144.952 199.013 134.356 199.878C123.371 200.774 110.942 212.213 100.595 208.985C90.2486 205.757 86.8437 189.38 78.406 182.424C70.2668 175.715 53.1035 175.331 47.9021 165.515C42.7008 155.7 52.2962 141.802 51.3891 131.44C50.4493 120.698 38.7236 108.523 42.0032 98.4133C45.2829 88.3042 62.0272 85.0094 69.1235 76.7745C75.969 68.8308 76.3261 52.0511 86.3547 46.9863Z" fill="#222222"/>
</svg>
