<svg width="497" height="155" viewBox="0 0 497 155" fill="none" xmlns="http://www.w3.org/2000/svg">
<path d="M248.269 -30.4349C248.268 -30.4347 248.268 -30.4347 248.267 -30.435C242.446 -34.5575 235.665 -37.8363 228.352 -40.6414C227.758 -40.8693 227.142 -41.034 226.515 -41.1449C222.043 -41.9368 217.718 -42.9111 213.621 -44.1689C213.513 -44.1911 213.461 -44.0369 213.561 -43.9892C219.829 -40.9958 225.613 -37.6228 230.611 -33.636C260.759 -9.58161 274.267 50.4178 313.644 62.065C328.203 66.3715 343.364 63.1985 358.632 57.2976C350.449 59.2217 342.275 59.6525 334.152 57.7466C295.358 48.6405 278.84 -8.78475 248.27 -30.4349C248.27 -30.4352 248.269 -30.4352 248.269 -30.4349Z" fill="#222222"/>
<path d="M449.768 16.8626C449.768 16.8625 449.768 16.8623 449.768 16.8623C443.066 17.9183 436.264 20.2407 429.387 23.2801C429.168 23.3772 428.958 23.4963 428.761 23.6339C425.075 26.2113 421.343 28.5699 417.551 30.5826C417.402 30.6801 417.518 30.9176 417.687 30.8608C423.602 28.8656 429.43 27.4293 435.136 26.8634C474.873 22.9254 527.438 55.8855 561.897 37.5602C568.158 34.2305 573.287 29.4915 577.638 23.7825C578.887 22.1435 574.877 19.1204 573.117 20.1921C540.803 39.8758 488.018 10.837 449.768 16.8629C449.768 16.863 449.768 16.8627 449.768 16.8626Z" fill="#222222"/>
<path d="M358.632 57.3007C358.632 57.3007 358.632 57.3007 358.632 57.3007C365.483 55.6897 372.341 53.0319 379.184 49.8196C376.766 50.6039 374.339 51.2548 371.905 51.7467C371.547 51.819 371.198 51.9304 370.867 52.0827C366.787 53.9555 362.705 55.7249 358.631 57.2998C358.631 57.3 358.631 57.3005 358.632 57.3007Z" fill="#222222"/>
<path d="M379.184 49.8182C379.184 49.8187 379.184 49.8191 379.185 49.8189C385.782 47.6799 392.326 44.547 398.824 40.9149C396.734 41.795 394.633 42.5722 392.519 43.2297C391.842 43.4402 391.184 43.7083 390.561 44.0444C386.775 46.0835 382.982 48.0361 379.184 49.8178C379.184 49.8179 379.184 49.818 379.184 49.8182Z" fill="#222222"/>
<path d="M282.742 -27.8284C282.742 -27.8282 282.742 -27.8279 282.741 -27.8281C274.028 -32.61 263.56 -35.4351 252.486 -37.5746C248.458 -37.8725 244.502 -38.2704 240.669 -38.8409C249.856 -36.245 258.434 -33.0403 265.675 -28.5115C296.488 -9.23614 315.757 45.4804 353.805 52.1473C359.615 53.1651 365.379 52.9781 371.103 51.9022C371.278 51.8694 371.447 51.8146 371.609 51.7401C372.344 51.4003 373.08 51.0572 373.815 50.7114C375.776 49.7891 374.681 45.5978 372.528 45.3459C335.375 41.0033 313.623 -10.8815 282.742 -27.8288C282.742 -27.8289 282.742 -27.8287 282.742 -27.8284Z" fill="#222222"/>
<path d="M475.721 -5.26995C475.721 -5.26955 475.721 -5.26923 475.72 -5.26912C466.75 -2.77058 457.879 2.28549 448.992 8.2808C445.931 10.9198 442.836 13.4426 439.687 15.7549C447.606 11.3572 455.475 7.82295 463.309 6.12136C499.965 -1.84007 552.691 23.3622 582.824 2.49937C587.095 -0.458007 590.626 -4.1462 593.601 -8.383C593.718 -8.54856 593.811 -8.72923 593.88 -8.91955C594.343 -10.2015 594.801 -11.4909 595.254 -12.786C595.913 -14.6716 592.586 -16.6341 591.015 -15.4034C563.088 6.459 510.692 -15.0081 475.722 -5.27078C475.722 -5.27067 475.721 -5.27035 475.721 -5.26995Z" fill="#222222"/>
<path d="M411.614 33.4094C411.063 33.6403 410.53 33.911 410.024 34.2283C406.305 36.5606 402.572 38.8205 398.824 40.9165C404.52 38.5155 410.13 35.3546 415.679 31.7979C415.796 31.7231 415.709 31.5467 415.579 31.5937C414.265 32.2442 412.944 32.8516 411.614 33.4094Z" fill="#222222"/>
<path d="M390.993 42.3718C390.168 42.7738 390.535 43.8194 391.417 43.5633C391.471 43.5476 391.524 43.526 391.573 43.4993C396.286 40.9411 400.986 38.2606 405.665 35.6214C405.701 35.6009 405.676 35.5425 405.636 35.554C400.793 37.6535 395.906 39.9794 390.993 42.3718Z" fill="#222222"/>
<path d="M425.748 24.949C425.748 24.9489 425.748 24.9488 425.749 24.9488C426.655 24.5187 427.561 24.0995 428.465 23.6922C428.859 23.5146 429.236 23.3017 429.589 23.0517C431.546 21.663 433.493 20.2147 435.428 18.7274C433.424 20.046 431.397 21.2687 429.341 22.3685C428.146 23.2342 426.949 24.0952 425.749 24.9495C425.749 24.9497 425.748 24.9494 425.748 24.949Z" fill="#222222"/>
<path d="M420.394 27.5945C420.395 27.5942 420.394 27.594 420.394 27.5942C418.679 28.7005 416.96 29.8103 415.239 30.9146C414.879 31.1454 415.175 31.7372 415.577 31.5933C416.236 31.2672 416.893 30.9296 417.549 30.583C418.932 29.6733 420.311 28.7417 421.687 27.7939C422.125 27.4926 421.771 26.8943 421.298 27.1345C420.997 27.287 420.696 27.4404 420.395 27.5948C420.395 27.5949 420.394 27.5947 420.394 27.5945Z" fill="#222222"/>
<path d="M406.261 35.2853C406.261 35.2857 406.26 35.286 406.26 35.2862C406.256 35.2886 406.252 35.2909 406.248 35.2932C406.209 35.3147 406.235 35.3746 406.277 35.3616C407.786 34.8941 409.283 34.3558 410.77 33.7569C410.779 33.7533 410.788 33.7488 410.796 33.7436C410.965 33.6375 410.838 33.3876 410.653 33.4616C409.193 34.0447 407.729 34.654 406.262 35.2844C406.261 35.2846 406.261 35.2849 406.261 35.2853Z" fill="#222222"/>
<path d="M602.914 -51.3928C602.914 -51.393 602.913 -51.3931 602.913 -51.393C579.414 -28.065 528.431 -42.4377 497.06 -29.6369C485.734 -25.0162 475.153 -15.702 464.513 -5.85773C462.262 -3.60189 459.988 -1.40206 457.68 0.697422C467.333 -6.99264 476.988 -13.8028 486.979 -17.2193C520.182 -28.5707 571.994 -10.7201 597.706 -33.403C601.214 -36.4969 604.009 -40.1488 606.261 -44.2252C606.319 -44.3719 606.376 -44.5173 606.434 -44.664C607.85 -49.8374 609.293 -54.9833 610.873 -59.9798C610.992 -60.5495 609.856 -60.9234 609.581 -60.4111C607.799 -57.0992 605.61 -54.0701 602.914 -51.3927C602.914 -51.3925 602.914 -51.3927 602.914 -51.3928Z" fill="#222222"/>
<path d="M406.902 28.4947C406.902 28.4944 406.901 28.4941 406.901 28.4941C371.951 28.4242 346.045 -17.5276 315.523 -29.9941C303.537 -34.8902 288.819 -35.8968 273.854 -36.5319C270.656 -36.5379 267.489 -36.5925 264.378 -36.7362C277.101 -35.2681 289.308 -33.1411 299.386 -28.3362C330.168 -13.663 354.134 35.2937 390.25 37.434C395.529 37.7475 400.646 37.0336 405.637 35.5557C405.845 35.4648 406.054 35.3756 406.262 35.286C410.997 32.6174 415.711 29.9974 420.396 27.596C422.207 26.428 424.017 25.2638 425.822 24.1153C419.806 26.8666 413.535 28.5079 406.902 28.4953C406.902 28.4953 406.901 28.495 406.902 28.4947Z" fill="#222222"/>
<path d="M435.427 18.7254C436.86 17.7828 438.278 16.7894 439.688 15.7539C439.368 15.9312 439.048 16.11 438.728 16.2904C438.296 16.5344 437.884 16.8134 437.493 17.1201C436.805 17.6597 436.116 18.1952 435.427 18.7254Z" fill="#222222"/>
<path d="M445.313 10.8127C446.539 9.95454 447.766 9.10917 448.992 8.28189C450.293 7.16057 451.586 6.01715 452.875 4.86139C451.234 6.20958 449.571 7.49058 447.886 8.69282C447.03 9.39886 446.173 10.1062 445.316 10.8106C445.315 10.8114 445.314 10.8121 445.313 10.8127Z" fill="#222222"/>
<path d="M437.427 17.0326C437.861 16.7835 438.277 16.5043 438.669 16.1936C440.894 14.4288 443.108 12.625 445.313 10.8117C441.366 13.5738 437.414 16.4755 433.444 19.3777C434.774 18.5776 436.101 17.7946 437.427 17.0326Z" fill="#222222"/>
<path d="M429.339 22.3671C430.71 21.3751 432.077 20.3764 433.444 19.3777C430.909 20.9046 428.367 22.4931 425.82 24.1138C427.002 23.5728 428.176 22.99 429.339 22.3671Z" fill="#222222"/>
<path d="M452.875 4.86068C452.875 4.86073 452.875 4.86069 452.876 4.86057C454.495 3.5302 456.096 2.13774 457.679 0.696386C457.067 1.18428 456.453 1.67605 455.84 2.17082C454.854 3.07304 453.867 3.97057 452.875 4.85966C452.874 4.85997 452.875 4.86055 452.875 4.86068Z" fill="#222222"/>
<path d="M505.952 -42.4295C505.952 -42.4292 505.952 -42.429 505.952 -42.4291C535.439 -56.5096 585.365 -45.4645 606.668 -69.2646C612.255 -75.5054 615.184 -83.3746 616.656 -92.1395C616.972 -95.7299 617.284 -99.3244 617.639 -102.888C617.78 -106.859 617.876 -110.86 618.002 -114.845C617.793 -134.347 615.637 -155.066 621.152 -171.134C631.285 -200.649 674.52 -227.27 672.211 -260.438C671.574 -269.584 667.57 -277.854 661.806 -285.626C659.545 -288.269 657.287 -290.905 655.084 -293.538C652.345 -296.432 649.563 -299.305 646.819 -302.175C632.69 -315.853 616.525 -328.752 609.159 -343.42C594.492 -372.623 605.099 -421.641 580.659 -442.907C574.25 -448.484 566.22 -451.465 557.298 -453.021C553.647 -453.377 549.991 -453.729 546.367 -454.122C542.331 -454.309 538.265 -454.453 534.216 -454.626C514.406 -454.66 493.384 -452.792 476.994 -458.419C446.885 -468.757 419.31 -511.651 385.643 -509.785C376.36 -509.27 368.008 -505.43 360.184 -499.851C357.526 -497.657 354.877 -495.467 352.229 -493.33C349.323 -490.669 346.438 -487.965 343.556 -485.299C329.835 -471.557 316.929 -455.801 302.119 -448.729C272.632 -434.648 222.706 -445.693 201.402 -421.893C195.815 -415.652 192.886 -407.783 191.414 -399.018C191.098 -395.428 190.786 -391.833 190.431 -388.27C190.29 -384.298 190.194 -380.297 190.068 -376.313C190.277 -356.811 192.433 -336.091 186.918 -320.024C176.785 -290.509 133.55 -263.888 135.859 -230.719C136.496 -221.573 140.5 -213.303 146.264 -205.532C148.525 -202.889 150.783 -200.253 152.986 -197.62C155.725 -194.726 158.507 -191.852 161.251 -188.983C175.38 -175.306 191.545 -162.405 198.911 -147.737C213.578 -118.534 202.971 -69.5168 227.411 -48.2504C233.82 -42.6737 241.85 -39.6929 250.772 -38.1364C254.423 -37.7806 258.079 -37.429 261.703 -37.0359C265.739 -36.8485 269.805 -36.7044 273.854 -36.5316C293.664 -36.4974 314.686 -38.366 331.076 -32.7387C361.185 -22.4004 388.76 20.4929 422.427 18.627C431.71 18.1123 440.062 14.2719 447.886 8.69305C450.544 6.49949 453.193 4.30915 455.842 2.17207C458.747 -0.488721 461.632 -3.19228 464.514 -5.85883C478.235 -19.6007 491.141 -35.3561 505.951 -42.4298C505.951 -42.4299 505.952 -42.4297 505.952 -42.4295ZM436.776 7.92645C404.496 11.5815 375.527 -28.2165 345.974 -36.5133C315.338 -45.1149 270.09 -26.5957 245.369 -45.7335C220.647 -64.8714 228.058 -112.677 212.286 -140C197.072 -166.357 151.016 -184.634 146.906 -216.459C142.796 -248.285 182.87 -276.316 190.935 -305.309C199.297 -335.365 179.927 -380.14 199.065 -404.243C218.203 -428.347 266.86 -420.463 294.422 -435.655C321.011 -450.31 339.012 -495.428 371.292 -499.083C403.572 -502.738 432.542 -462.94 462.095 -454.643C492.731 -446.042 537.978 -464.561 562.699 -445.423C587.421 -426.285 580.01 -378.479 595.783 -351.157C610.997 -324.8 657.053 -306.523 661.163 -274.698C665.272 -242.872 625.198 -214.841 617.133 -185.847C608.771 -155.791 628.141 -111.017 609.003 -86.9137C589.865 -62.8101 541.209 -70.6936 513.646 -55.5015C487.057 -40.847 469.057 4.27137 436.776 7.92645Z" fill="#222222"/>
<path d="M609.96 -104.242C609.96 -104.242 609.961 -104.242 609.961 -104.242C626.974 -128.486 605.82 -170.491 612.142 -199.866C618.242 -228.203 655.144 -257.379 649.385 -287.768C643.626 -318.159 598.344 -333.202 582.228 -357.72C565.523 -383.137 569.923 -429.535 545.085 -446.583C520.248 -463.631 477.834 -443.321 447.915 -449.907C419.053 -456.26 388.961 -492.949 358.159 -487.653C327.357 -482.356 312.631 -437.96 287.922 -422.396C262.307 -406.262 215.117 -411.164 198.104 -386.92C181.09 -362.677 202.245 -320.67 195.922 -291.296C189.823 -262.959 152.921 -233.783 158.68 -203.394C164.439 -173.003 209.721 -157.959 225.837 -133.442C242.542 -108.026 238.142 -61.6274 262.98 -44.5794C287.817 -27.5316 330.231 -47.8418 360.15 -41.2562C389.012 -34.9028 419.104 1.78635 449.905 -3.51021C480.708 -8.80642 495.434 -53.2024 520.142 -68.7675C545.756 -84.9012 592.945 -79.9996 609.959 -104.242C609.959 -104.243 609.96 -104.243 609.96 -104.242ZM461.784 -15.5725C432.539 -8.78946 401.59 -42.3782 373.545 -46.8909C344.471 -51.5706 304.942 -29.7258 280.148 -44.7351C255.355 -59.7444 256.941 -104.557 239.473 -128.052C222.623 -150.717 178.333 -162.675 171.083 -191.551C163.832 -220.426 197.573 -250.484 201.814 -278.039C206.211 -306.605 183.533 -345.791 198.476 -370.016C213.419 -394.241 258.963 -392.128 282.617 -409.037C305.434 -425.347 317.038 -468.805 346.283 -475.588C375.528 -482.371 406.477 -448.784 434.523 -444.27C463.596 -439.59 503.126 -461.435 527.919 -446.426C552.712 -431.416 551.126 -386.603 568.594 -363.108C585.444 -340.444 629.734 -328.485 636.984 -299.61C644.235 -270.734 610.493 -240.677 606.253 -213.121C601.857 -184.556 624.534 -145.37 609.591 -121.145C594.648 -96.9196 549.104 -99.0326 525.451 -82.1238C502.633 -65.8132 491.029 -22.3556 461.784 -15.5725Z" fill="#222222"/>
<path d="M607.95 -137.535C620.888 -161.59 596.948 -197.926 599.538 -225.563C602.037 -252.224 632.646 -282.904 624.066 -310.2C615.485 -337.495 572.39 -346.53 554.968 -367.341C536.907 -388.914 535.885 -431.98 511.289 -445.012C486.693 -458.044 450.075 -434.922 421.967 -437.811C394.852 -440.599 363.308 -471.112 335.684 -462.999C308.061 -454.887 299.412 -412.571 278.485 -395.674C256.791 -378.158 213.053 -377.681 200.118 -353.626C187.18 -329.572 211.12 -293.236 208.53 -265.598C206.031 -238.937 175.422 -208.258 184.002 -180.962C192.583 -153.666 235.678 -144.632 253.1 -123.821C271.161 -102.247 272.183 -59.1811 296.779 -46.1498C321.375 -33.1172 357.993 -56.2396 386.101 -53.3499C413.216 -50.5621 444.76 -20.0497 472.383 -28.162C500.007 -36.2743 508.656 -78.5906 529.583 -95.487C551.277 -113.004 595.014 -113.48 607.95 -137.535ZM481.685 -41.1757C455.735 -31.8935 423.852 -59.3743 397.771 -60.5565C370.735 -61.781 337.035 -37.6359 312.784 -48.7625C288.532 -59.8894 285.118 -101.065 266.63 -120.728C248.796 -139.695 207.085 -145.982 197.337 -171.643C187.588 -197.304 215.114 -228.356 215.994 -254.02C216.906 -280.622 191.963 -314.097 202.968 -337.835C213.974 -361.575 255.761 -364.431 275.509 -382.39C294.559 -399.715 300.432 -440.702 326.381 -449.985C352.331 -459.267 384.214 -431.786 410.295 -430.604C437.331 -429.379 471.031 -453.525 495.282 -442.398C519.534 -431.271 522.949 -390.095 541.436 -370.433C559.27 -351.465 600.981 -345.179 610.73 -319.518C620.478 -293.856 592.953 -262.804 592.072 -237.141C591.161 -210.538 616.103 -177.064 605.098 -153.325C594.093 -129.586 552.305 -126.73 532.557 -108.77C513.507 -91.4455 507.634 -50.4581 481.685 -41.1757Z" fill="#222222"/>
<path d="M601.105 -168.431C610.266 -191.718 584.574 -222.339 583.941 -247.811C583.331 -272.381 607.843 -303.561 597.091 -327.55C586.338 -351.538 546.182 -355.26 528.093 -372.41C509.341 -390.187 503.755 -429.347 479.986 -438.651C456.216 -447.956 425.424 -423.038 399.556 -422.729C374.604 -422.43 342.627 -446.946 318.389 -436.655C294.152 -426.363 290.864 -386.875 273.665 -369.277C255.836 -351.034 216.123 -346.016 206.962 -322.728C197.802 -299.441 223.494 -268.82 224.126 -243.349C224.737 -218.779 200.226 -187.598 210.977 -163.61C221.729 -139.621 261.885 -135.899 279.974 -118.75C298.727 -100.973 304.312 -61.8127 328.082 -52.5079C351.852 -43.2032 382.643 -68.1211 408.511 -68.4306C433.464 -68.7299 465.441 -44.215 489.678 -54.5048C513.916 -64.7959 517.203 -104.284 534.403 -121.882C552.232 -140.126 591.945 -145.144 601.105 -168.431ZM535.151 -134.744C519.766 -117.022 518.861 -79.1859 496.361 -68.0475C473.862 -56.9091 442.03 -78.5396 418.285 -76.8924C393.669 -75.1835 365.753 -49.7383 342.593 -57.3128C319.433 -64.8874 311.907 -101.925 293.048 -117.853C274.854 -133.218 236.407 -134.574 224.815 -156.862C213.223 -179.149 234.806 -210.222 232.841 -233.621C230.802 -257.876 204.61 -285.672 212.02 -308.381C219.43 -331.089 256.963 -338.043 272.912 -356.415C288.297 -374.138 289.203 -411.973 311.702 -423.112C334.201 -434.25 366.033 -412.62 389.778 -414.267C414.394 -415.976 442.31 -441.421 465.47 -433.846C488.63 -426.272 496.156 -389.234 515.016 -373.306C533.209 -357.942 571.657 -356.585 583.248 -334.298C594.84 -312.01 573.257 -280.937 575.223 -257.539C577.261 -233.283 603.454 -205.487 596.043 -182.779C588.633 -160.07 551.1 -153.116 535.151 -134.744Z" fill="#222222"/>
</svg>
