<svg width="205" height="81" viewBox="0 0 205 81" fill="none" xmlns="http://www.w3.org/2000/svg">
<path d="M129.34 -23.9122C129.34 -23.912 129.339 -23.912 129.339 -23.9122C124.975 -26.2508 119.897 -28.1142 114.42 -29.7101C113.941 -29.8496 113.445 -29.9502 112.94 -30.0187C109.599 -30.471 106.367 -31.0259 103.305 -31.74C103.239 -31.7502 103.201 -31.6595 103.262 -31.6374C107.972 -29.9326 112.318 -28.0128 116.076 -25.7454C138.744 -12.0632 148.959 22.0082 178.543 28.6557C189.481 31.1136 200.863 29.3263 212.321 25.9905C206.178 27.0752 200.041 27.3123 193.938 26.2231C164.796 21.0185 152.323 -11.5945 129.341 -23.9122C129.341 -23.9123 129.34 -23.9124 129.34 -23.9122Z" fill="#222222"/>
<path d="M155.234 -22.4264C155.235 -22.4263 155.234 -22.4261 155.234 -22.4261C148.686 -25.1478 140.823 -26.7605 132.505 -27.9848C129.48 -28.1575 126.51 -28.3869 123.631 -28.7142C130.532 -27.2327 136.976 -25.4062 142.419 -22.8296C165.578 -11.8629 180.111 19.2056 208.688 23.0237C213.067 23.6086 217.41 23.505 221.722 22.8939C221.822 22.8796 221.923 22.8551 222.02 22.821C222.356 22.7042 222.692 22.5866 223.027 22.4685C224.468 21.9611 224.192 19.3113 222.738 19.181C194.837 16.6828 178.442 -12.7811 155.235 -22.4266C155.234 -22.4267 155.234 -22.4265 155.234 -22.4264Z" fill="#222222"/>
<path d="M248.528 9.60322C248.528 9.60303 248.528 9.60286 248.528 9.60286C222.289 9.53148 202.785 -16.5571 179.856 -23.6562C170.851 -26.4443 159.801 -27.0286 148.565 -27.4025C146.164 -27.4089 143.786 -27.4427 141.451 -27.5271C151.004 -26.6827 160.171 -25.4651 167.743 -22.7305C190.87 -14.3795 208.921 13.4117 236.038 14.6586C240.001 14.8412 243.841 14.441 247.587 13.6072C247.743 13.5559 247.9 13.5055 248.056 13.4548C251.608 11.9454 255.144 10.4636 258.658 9.10574C260.016 8.44487 261.373 7.78618 262.727 7.13635C258.214 8.69148 253.508 9.61676 248.528 9.60358C248.528 9.60358 248.528 9.6034 248.528 9.60322Z" fill="#222222"/>
<path d="M323.17 -30.7618C323.17 -30.7617 323.17 -30.7616 323.171 -30.7616C345.311 -38.7357 382.839 -32.414 398.819 -45.9184C403.009 -49.4594 405.201 -53.9282 406.297 -58.9073C406.53 -60.9472 406.76 -62.9894 407.023 -65.0139C407.124 -67.2704 407.192 -69.5439 407.281 -71.8077C407.101 -82.8896 405.456 -94.6648 409.581 -103.79C417.16 -120.552 449.616 -135.639 447.841 -154.488C447.352 -159.686 444.333 -164.389 439.993 -168.81C438.291 -170.314 436.591 -171.813 434.932 -173.312C432.871 -174.959 430.777 -176.594 428.711 -178.227C418.079 -186.012 405.916 -193.357 400.364 -201.698C389.308 -218.306 397.22 -246.149 378.829 -258.255C374.007 -261.43 367.97 -263.131 361.263 -264.023C358.519 -264.229 355.772 -264.432 353.048 -264.659C350.015 -264.769 346.96 -264.855 343.917 -264.956C329.032 -264.994 313.238 -263.951 300.915 -267.164C278.278 -273.066 257.507 -297.464 232.211 -296.434C225.236 -296.15 218.964 -293.976 213.092 -290.813C211.097 -289.569 209.109 -288.327 207.121 -287.115C204.941 -285.606 202.776 -284.072 200.614 -282.559C190.321 -274.763 180.641 -265.822 169.521 -261.817C147.381 -253.843 109.852 -260.165 93.872 -246.66C89.6816 -243.119 87.4898 -238.651 86.3945 -233.671C86.1609 -231.632 85.9306 -229.589 85.6682 -227.565C85.5672 -225.308 85.4995 -223.035 85.4097 -220.771C85.5899 -209.689 87.2351 -197.914 83.11 -188.789C75.5314 -172.027 43.075 -156.94 44.8498 -138.091C45.3394 -132.893 48.358 -128.19 52.6981 -123.769C54.4003 -122.265 56.0999 -120.765 57.7589 -119.267C59.8203 -117.62 61.9142 -115.985 63.9797 -114.352C74.6128 -106.567 86.7747 -99.222 92.3276 -90.8806C103.384 -74.2733 95.4715 -46.43 113.862 -34.3236C118.684 -31.1489 124.722 -29.4479 131.428 -28.5553C134.172 -28.3497 136.919 -28.1467 139.643 -27.92C142.676 -27.8098 145.731 -27.7242 148.774 -27.6223C163.66 -27.5848 179.454 -28.6274 191.776 -25.4149C214.413 -19.5129 235.185 4.88525 260.481 3.85575C267.456 3.57172 273.727 1.39718 279.599 -1.76575C281.594 -3.00978 283.582 -4.25195 285.57 -5.46387C287.75 -6.97315 289.915 -8.50674 292.077 -10.0193C302.37 -17.8153 312.05 -26.7562 323.17 -30.7621C323.17 -30.7621 323.17 -30.762 323.17 -30.7618ZM271.25 -2.21149C246.999 -0.16404 225.183 -22.8047 202.966 -27.5461C179.935 -32.4617 145.958 -21.9799 127.359 -32.8771C108.759 -43.7742 114.271 -70.9321 102.387 -86.4719C90.9231 -101.463 56.2936 -111.89 53.1674 -129.977C50.0412 -148.065 80.1204 -163.957 86.1462 -180.424C92.3935 -197.495 77.7855 -222.955 92.1374 -236.633C106.489 -250.312 143.06 -245.788 163.753 -254.396C183.715 -262.698 197.188 -288.319 221.439 -290.367C245.691 -292.414 267.507 -269.774 289.723 -265.032C312.755 -260.117 346.732 -270.598 365.331 -259.701C383.93 -248.804 378.419 -221.646 390.303 -206.106C401.767 -191.116 436.396 -180.689 439.522 -162.601C442.649 -144.513 412.569 -128.621 406.544 -112.154C400.296 -95.083 414.904 -69.6236 400.552 -55.9449C386.2 -42.2661 349.63 -46.7901 328.936 -38.1827C308.975 -29.8799 295.502 -4.25894 271.25 -2.21149Z" fill="#222222"/>
<path d="M401.251 -65.7893C401.251 -65.7891 401.251 -65.7891 401.252 -65.7893C414.006 -79.5497 398.061 -103.438 402.777 -120.123C407.326 -136.219 435.02 -152.764 430.656 -170.037C426.293 -187.311 392.249 -195.901 380.11 -209.847C367.527 -224.305 370.778 -250.666 352.094 -260.375C333.41 -270.085 301.564 -258.583 279.074 -262.352C257.379 -265.989 234.723 -286.864 211.585 -283.882C188.445 -280.901 177.433 -255.688 158.884 -246.866C139.656 -237.722 104.191 -240.55 91.4353 -226.79C78.68 -213.03 94.6258 -189.141 89.91 -172.456C85.3604 -156.359 57.6662 -139.815 62.0301 -122.541C66.3937 -105.267 100.438 -96.6778 112.577 -82.7321C125.16 -68.2747 121.909 -41.9138 140.593 -32.2041C159.277 -22.4944 191.123 -33.9964 213.613 -30.227C235.308 -26.5906 257.964 -5.71541 281.102 -8.69695C304.242 -11.6783 315.254 -36.8917 333.802 -45.7136C353.03 -54.8578 388.494 -52.0296 401.25 -65.7893C401.25 -65.7895 401.251 -65.7895 401.251 -65.7893ZM290.014 -15.5402C268.046 -11.7126 244.751 -30.8268 223.671 -33.4166C201.819 -36.1023 172.142 -23.7256 153.493 -32.2768C134.845 -40.8281 135.984 -66.2905 122.83 -79.6569C110.142 -92.5508 76.8465 -99.3864 71.3641 -115.801C65.8816 -132.215 91.1991 -149.264 94.3531 -164.918C97.6228 -181.145 80.5356 -203.432 91.7351 -217.184C102.935 -230.936 137.16 -229.694 154.914 -239.28C172.04 -248.527 180.708 -273.21 202.675 -277.038C224.642 -280.866 247.938 -261.752 269.017 -259.162C290.869 -256.476 320.547 -268.853 339.195 -260.301C357.843 -251.75 356.704 -226.288 369.858 -212.921C382.547 -200.027 415.842 -193.192 421.324 -176.777C426.807 -160.363 401.488 -143.315 398.335 -127.661C395.066 -111.433 412.153 -89.1457 400.953 -75.394C389.754 -61.6424 355.528 -62.8846 337.775 -53.2982C320.649 -44.051 311.981 -19.3678 290.014 -15.5402Z" fill="#222222"/>
<path d="M399.701 -84.7095C409.394 -98.3662 391.362 -119.035 393.275 -134.737C395.121 -149.884 418.085 -167.289 411.605 -182.807C405.124 -198.325 372.731 -203.498 359.615 -215.339C346.018 -227.614 345.199 -252.086 326.701 -259.513C308.204 -266.941 280.715 -253.836 259.591 -255.504C239.212 -257.113 215.474 -274.479 194.726 -269.895C173.979 -265.31 167.531 -241.273 151.825 -231.691C135.545 -221.758 102.68 -221.527 92.9885 -207.87C83.2958 -194.213 101.328 -173.545 99.4147 -157.843C97.5688 -142.695 74.6049 -125.29 81.0851 -109.772C87.5654 -94.2545 119.958 -89.0815 133.075 -77.2403C146.672 -64.9654 147.491 -40.4931 165.989 -33.066C184.486 -25.6381 211.975 -38.7434 233.099 -37.0757C253.477 -35.4669 277.216 -18.1002 297.964 -22.6846C318.711 -27.269 325.159 -51.3063 340.864 -60.8882C357.145 -70.8218 390.01 -71.0526 399.701 -84.7095ZM304.938 -30.0708C285.449 -24.8202 261.459 -40.4645 241.859 -41.16C221.542 -41.8805 196.248 -28.1914 178.012 -34.5359C159.776 -40.8807 157.161 -64.2808 143.245 -75.4704C129.822 -86.2648 98.472 -89.8748 91.1159 -104.465C83.7598 -119.055 104.406 -136.675 105.037 -151.256C105.691 -166.372 86.908 -185.416 95.1493 -198.895C103.391 -212.374 134.788 -213.959 149.605 -224.146C163.899 -233.973 168.263 -257.257 187.751 -262.508C207.239 -267.759 231.229 -252.114 250.829 -251.419C271.146 -250.698 296.44 -264.387 314.676 -258.043C332.913 -251.698 335.528 -228.298 349.443 -217.109C362.867 -206.314 394.216 -202.704 401.572 -188.114C408.928 -173.523 388.282 -155.904 387.651 -141.322C386.998 -126.207 405.78 -107.163 397.539 -93.6844C389.298 -80.205 357.901 -78.6204 343.084 -68.4333C328.79 -58.6063 324.425 -35.3217 304.938 -30.0708Z" fill="#222222"/>
<path d="M394.52 -102.273C401.376 -115.497 382.034 -132.92 381.528 -147.394C381.04 -161.356 399.422 -179.051 391.314 -192.692C383.205 -206.333 353.027 -208.484 339.414 -218.245C325.302 -228.364 321.058 -250.621 303.186 -255.929C285.313 -261.238 262.206 -247.107 242.768 -246.955C224.019 -246.808 199.961 -260.768 181.761 -254.942C163.56 -249.117 161.137 -226.681 148.234 -216.697C134.859 -206.347 105.024 -203.532 98.168 -190.308C91.3125 -177.084 110.655 -159.661 111.16 -145.187C111.648 -131.225 93.2673 -113.53 101.375 -99.8893C109.483 -86.2485 139.661 -84.097 153.274 -74.3359C167.386 -64.2173 171.63 -41.9605 189.502 -36.6517C207.375 -31.3428 230.483 -45.4737 249.92 -45.6259C268.67 -45.7732 292.727 -31.8141 310.927 -37.6389C329.128 -43.4644 331.551 -65.8996 344.454 -75.8837C357.829 -86.2338 387.665 -89.0488 394.52 -102.273ZM345.001 -83.1914C333.461 -73.135 332.826 -51.6367 315.933 -45.3281C299.04 -39.0195 275.095 -51.3396 257.254 -50.4252C238.759 -49.4767 217.813 -35.0435 200.401 -39.3687C182.989 -43.6939 177.289 -64.7466 163.099 -73.8142C149.41 -82.5615 120.518 -83.3672 111.781 -96.0423C103.044 -108.717 119.224 -126.354 117.72 -139.651C116.159 -153.436 96.4443 -169.254 101.985 -182.151C107.527 -195.048 135.722 -198.965 147.684 -209.39C159.224 -219.446 159.859 -240.944 176.752 -247.253C193.645 -253.562 217.59 -241.241 235.431 -242.156C253.926 -243.104 274.872 -257.538 292.284 -253.212C309.696 -248.887 315.395 -227.834 329.586 -218.767C343.275 -210.02 372.167 -209.214 380.904 -196.539C389.641 -183.864 373.46 -166.227 374.965 -152.93C376.526 -139.145 396.241 -123.327 390.7 -110.43C385.158 -97.5334 356.963 -93.6163 345.001 -83.1914Z" fill="#222222"/>
</svg>
