<svg width="23" height="8" viewBox="0 0 23 8" fill="none" xmlns="http://www.w3.org/2000/svg">
<path d="M1.51 7V5.96H5.04V7H1.51ZM1.51 1.04V-4.76837e-07H5.04V1.04H1.51ZM1.51 3.76V2.74H4.84V3.76H1.51ZM0.78 -4.76837e-07H1.94V7H0.78V-4.76837e-07ZM7.47289 2.4V7H6.40289V2.4H7.47289ZM8.84289 3.55C8.74289 3.47 8.64956 3.41 8.56289 3.37C8.47622 3.33 8.36622 3.31 8.23289 3.31C8.05289 3.31 7.90622 3.35667 7.79289 3.45C7.67956 3.54333 7.59622 3.67333 7.54289 3.84C7.49622 4 7.47289 4.19 7.47289 4.41L7.11289 4.2C7.11289 3.83333 7.17956 3.51 7.31289 3.23C7.45289 2.94333 7.62956 2.71667 7.84289 2.55C8.06289 2.38333 8.28956 2.3 8.52289 2.3C8.68956 2.3 8.84622 2.32667 8.99289 2.38C9.13956 2.42667 9.26289 2.51333 9.36289 2.64L8.84289 3.55ZM11.1741 2.4V7H10.1041V2.4H11.1741ZM12.5441 3.55C12.4441 3.47 12.3507 3.41 12.2641 3.37C12.1774 3.33 12.0674 3.31 11.9341 3.31C11.7541 3.31 11.6074 3.35667 11.4941 3.45C11.3807 3.54333 11.2974 3.67333 11.2441 3.84C11.1974 4 11.1741 4.19 11.1741 4.41L10.8141 4.2C10.8141 3.83333 10.8807 3.51 11.0141 3.23C11.1541 2.94333 11.3307 2.71667 11.5441 2.55C11.7641 2.38333 11.9907 2.3 12.2241 2.3C12.3907 2.3 12.5474 2.32667 12.6941 2.38C12.8407 2.42667 12.9641 2.51333 13.0641 2.64L12.5441 3.55ZM13.3088 4.7C13.3088 4.22667 13.4154 3.81 13.6287 3.45C13.8488 3.09 14.1454 2.81 14.5188 2.61C14.8921 2.40333 15.3154 2.3 15.7888 2.3C16.2621 2.3 16.6821 2.40333 17.0488 2.61C17.4221 2.81 17.7188 3.09 17.9388 3.45C18.1588 3.81 18.2688 4.22667 18.2688 4.7C18.2688 5.16667 18.1588 5.58333 17.9388 5.95C17.7188 6.31 17.4221 6.59333 17.0488 6.8C16.6821 7 16.2621 7.1 15.7888 7.1C15.3154 7.1 14.8921 7 14.5188 6.8C14.1454 6.59333 13.8488 6.31 13.6287 5.95C13.4154 5.58333 13.3088 5.16667 13.3088 4.7ZM14.4188 4.7C14.4188 4.98667 14.4788 5.24 14.5988 5.46C14.7188 5.67333 14.8821 5.84333 15.0888 5.97C15.2954 6.09 15.5288 6.15 15.7888 6.15C16.0421 6.15 16.2721 6.09 16.4788 5.97C16.6921 5.84333 16.8588 5.67333 16.9788 5.46C17.0988 5.24 17.1588 4.98667 17.1588 4.7C17.1588 4.41333 17.0988 4.16 16.9788 3.94C16.8588 3.72 16.6921 3.55 16.4788 3.43C16.2721 3.31 16.0421 3.25 15.7888 3.25C15.5288 3.25 15.2954 3.31 15.0888 3.43C14.8821 3.55 14.7188 3.72 14.5988 3.94C14.4788 4.16 14.4188 4.41333 14.4188 4.7ZM20.3635 2.4V7H19.2935V2.4H20.3635ZM21.7335 3.55C21.6335 3.47 21.5402 3.41 21.4535 3.37C21.3668 3.33 21.2568 3.31 21.1235 3.31C20.9435 3.31 20.7968 3.35667 20.6835 3.45C20.5702 3.54333 20.4868 3.67333 20.4335 3.84C20.3868 4 20.3635 4.19 20.3635 4.41L20.0035 4.2C20.0035 3.83333 20.0702 3.51 20.2035 3.23C20.3435 2.94333 20.5202 2.71667 20.7335 2.55C20.9535 2.38333 21.1802 2.3 21.4135 2.3C21.5802 2.3 21.7368 2.32667 21.8835 2.38C22.0302 2.42667 22.1535 2.51333 22.2535 2.64L21.7335 3.55Z" fill="#932D3F"/>
</svg>
