<svg width="11" height="10" viewBox="0 0 11 10" fill="none" xmlns="http://www.w3.org/2000/svg">
<path d="M9.18594 9.06424V9.17487C9.18594 9.37541 9.02341 9.53818 8.82263 9.53818H2.17728C1.97649 9.53818 1.81396 9.37541 1.81396 9.17487V9.06424C1.81396 8.8637 1.97649 8.70117 2.17728 8.70117H8.82263C9.02341 8.70117 9.18594 8.8637 9.18594 9.06424Z" fill="#C98B0E"/>
<path opacity="0.2" d="M9.18594 9.06424V9.17487C9.18594 9.21653 9.17887 9.25674 9.16571 9.29402C9.11649 9.1522 8.9815 9.05035 8.82263 9.05035H2.17728C2.0184 9.05035 1.88341 9.1522 1.83419 9.29402C1.82103 9.25674 1.81396 9.21653 1.81396 9.17487V9.06424C1.81396 8.8637 1.97649 8.70117 2.17728 8.70117H8.82263C9.02341 8.70117 9.18594 8.8637 9.18594 9.06424Z" fill="black"/>
<path d="M1.47249 3.8161C1.36869 4.00153 1.19179 4.14067 0.980769 4.19427C0.918634 4.21011 0.85333 4.21864 0.786077 4.21864C0.351859 4.21864 0 3.86678 0 3.43256C0 2.99834 0.351859 2.64648 0.786077 2.64648C1.2203 2.64648 1.57215 2.99834 1.57215 3.43256C1.57215 3.57194 1.53585 3.70279 1.47249 3.8161Z" fill="#2FC1F1"/>
<path d="M5.50012 0C6.09321 0 6.57397 0.48076 6.57397 1.07385C6.57397 1.59993 6.19531 2.03805 5.6953 2.12967C5.63195 2.14137 5.56689 2.14746 5.50012 2.14746C5.43336 2.14746 5.3683 2.14137 5.30494 2.12967C4.80493 2.03805 4.42627 1.59993 4.42627 1.07385C4.42627 0.48076 4.90703 0 5.50012 0Z" fill="#DD6475"/>
<path d="M4.77078 1.18296C4.7417 1.18296 4.71381 1.1714 4.69325 1.15084C4.67269 1.13028 4.66113 1.10239 4.66113 1.0733C4.66113 0.610722 5.03748 0.234375 5.50006 0.234375C5.52914 0.234375 5.55703 0.245928 5.5776 0.266491C5.59816 0.287055 5.60971 0.314945 5.60971 0.344026C5.60971 0.373108 5.59816 0.400998 5.5776 0.421561C5.55703 0.442125 5.52914 0.453677 5.50006 0.453677C5.15841 0.453677 4.88044 0.731655 4.88044 1.0733C4.88044 1.10239 4.86888 1.13028 4.84832 1.15084C4.82776 1.1714 4.79987 1.18296 4.77078 1.18296Z" fill="white"/>
<path d="M9.5274 3.8161C9.46187 3.6989 9.42755 3.56683 9.42774 3.43256C9.42774 2.99834 9.77959 2.64648 10.2138 2.64648C10.648 2.64648 11.0001 2.99834 11.0001 3.43256C11.0001 3.86678 10.648 4.21864 10.2138 4.21864C10.1466 4.21864 10.0813 4.21011 10.0191 4.19427C9.8081 4.14067 9.6312 4.00153 9.5274 3.8161Z" fill="#77D379"/>
<path d="M10.0191 4.19376V4.194L8.86756 8.70043H2.13254L0.980957 4.194V4.19376C1.19197 4.14015 1.36888 4.00102 1.47268 3.81559C1.807 3.9479 2.17153 4.02002 2.55287 4.02002C3.8085 4.02002 4.8804 3.23492 5.30487 2.12939V2.12891C5.36822 2.1406 5.43328 2.14669 5.50005 2.14669C5.56681 2.14669 5.63187 2.1406 5.69523 2.12891V2.12939C6.1197 3.23517 7.1916 4.02002 8.44723 4.02002C8.82857 4.02002 9.1931 3.9479 9.52742 3.81559C9.63122 4.00102 9.80812 4.14015 10.0191 4.19376Z" fill="#FFC035"/>
<path d="M9.66336 3.5426C9.63428 3.5426 9.60639 3.53105 9.58583 3.51049C9.56526 3.48992 9.55371 3.46203 9.55371 3.43295C9.55371 3.06876 9.84999 2.77246 10.2142 2.77246C10.2433 2.77246 10.2711 2.78401 10.2917 2.80458C10.3123 2.82514 10.3238 2.85303 10.3238 2.88211C10.3238 2.91119 10.3123 2.93908 10.2917 2.95965C10.2711 2.98021 10.2433 2.99176 10.2142 2.99176C9.97092 2.99176 9.77301 3.18967 9.77301 3.43295C9.77301 3.46203 9.76146 3.48992 9.7409 3.51049C9.72033 3.53105 9.69244 3.5426 9.66336 3.5426Z" fill="white"/>
<path d="M0.235628 3.5426C0.206546 3.5426 0.178656 3.53105 0.158093 3.51049C0.137529 3.48992 0.125977 3.46203 0.125977 3.43295C0.125977 3.06876 0.422278 2.77246 0.786442 2.77246C0.815524 2.77246 0.843414 2.78401 0.863977 2.80458C0.884541 2.82514 0.896094 2.85303 0.896094 2.88211C0.896094 2.91119 0.884541 2.93908 0.863977 2.95965C0.843414 2.98021 0.815524 2.99176 0.786442 2.99176C0.543187 2.99176 0.345279 3.18967 0.345279 3.43295C0.345279 3.46203 0.333726 3.48992 0.313163 3.51049C0.292599 3.53105 0.264709 3.5426 0.235628 3.5426Z" fill="white"/>
<path opacity="0.1" d="M10.0191 4.19474V4.19498L8.86751 8.7014H5.5V2.14767C5.56677 2.14767 5.63183 2.14158 5.69518 2.12988V2.13037C6.11965 3.23614 7.19155 4.021 8.44718 4.021C8.82852 4.021 9.19305 3.94887 9.52737 3.81656C9.63117 4.00199 9.80807 4.14113 10.0191 4.19474Z" fill="url(#paint0_linear_1434_6662)"/>
<defs>
<linearGradient id="paint0_linear_1434_6662" x1="5.5" y1="5.41564" x2="10.0191" y2="5.41564" gradientUnits="userSpaceOnUse">
<stop/>
<stop offset="1" stop-color="white" stop-opacity="0"/>
</linearGradient>
</defs>
</svg>
