<svg width="872" height="297" viewBox="0 0 872 297" fill="none" xmlns="http://www.w3.org/2000/svg">
<path d="M44.67 293.04C44.47 293.04 44.32 293.03 44.16 293V292C44.28 292.03 44.4 292.04 44.52 292.04C44.96 292.04 45.17 291.83 45.17 291.37V286H46.27V291.34C46.27 292.49 45.75 293.04 44.67 293.04ZM46.5612 293L47.7012 286H49.1912L50.3312 293H49.2312L49.0312 291.61V291.63H47.7812L47.5812 293H46.5612ZM47.9112 290.68H48.9012L48.4112 287.22H48.3912L47.9112 290.68ZM50.6792 293V286H52.0592L53.1292 290.19H53.1492V286H54.1292V293H52.9992L51.6792 287.89H51.6592V293H50.6792Z" fill="#222222"/>
<path d="M113.601 286H116.511V287H114.701V288.95H116.121V289.95H114.701V293H113.601V286ZM116.853 286H119.853V287H117.953V288.85H119.463V289.85H117.953V292H119.853V293H116.853V286ZM120.3 286H121.96C122.527 286 122.94 286.133 123.2 286.4C123.46 286.66 123.59 287.063 123.59 287.61V287.89C123.59 288.25 123.53 288.543 123.41 288.77C123.297 288.997 123.12 289.16 122.88 289.26V289.28C123.427 289.467 123.7 289.953 123.7 290.74V291.34C123.7 291.88 123.557 292.293 123.27 292.58C122.99 292.86 122.577 293 122.03 293H120.3V286ZM121.83 288.85C122.05 288.85 122.214 288.793 122.32 288.68C122.434 288.567 122.49 288.377 122.49 288.11V287.72C122.49 287.467 122.444 287.283 122.35 287.17C122.264 287.057 122.124 287 121.93 287H121.4V288.85H121.83ZM122.03 292C122.224 292 122.367 291.95 122.46 291.85C122.554 291.743 122.6 291.563 122.6 291.31V290.7C122.6 290.38 122.544 290.16 122.43 290.04C122.324 289.913 122.144 289.85 121.89 289.85H121.4V292H122.03Z" fill="#222222"/>
<path d="M186.254 286H187.824L188.524 291.01H188.544L189.244 286H190.814V293H189.774V287.7H189.754L188.954 293H188.034L187.234 287.7H187.214V293H186.254V286ZM192.299 286H193.789L194.929 293H193.829L193.629 291.61V291.63H192.379L192.179 293H191.159L192.299 286ZM193.499 290.68L193.009 287.22H192.989L192.509 290.68H193.499ZM195.277 286H196.907C197.474 286 197.887 286.133 198.147 286.4C198.407 286.66 198.537 287.063 198.537 287.61V288.04C198.537 288.767 198.297 289.227 197.817 289.42V289.44C198.084 289.52 198.27 289.683 198.377 289.93C198.49 290.177 198.547 290.507 198.547 290.92V292.15C198.547 292.35 198.554 292.513 198.567 292.64C198.58 292.76 198.614 292.88 198.667 293H197.547C197.507 292.887 197.48 292.78 197.467 292.68C197.454 292.58 197.447 292.4 197.447 292.14V290.86C197.447 290.54 197.394 290.317 197.287 290.19C197.187 290.063 197.01 290 196.757 290H196.377V293H195.277V286ZM196.777 289C196.997 289 197.16 288.943 197.267 288.83C197.38 288.717 197.437 288.527 197.437 288.26V287.72C197.437 287.467 197.39 287.283 197.297 287.17C197.21 287.057 197.07 287 196.877 287H196.377V289H196.777Z" fill="#222222"/>
<path d="M260.908 286H262.398L263.538 293H262.438L262.238 291.61V291.63H260.988L260.788 293H259.768L260.908 286ZM262.108 290.68L261.618 287.22H261.598L261.118 290.68H262.108ZM263.886 286H265.506C266.053 286 266.463 286.147 266.736 286.44C267.01 286.733 267.146 287.163 267.146 287.73V288.42C267.146 288.987 267.01 289.417 266.736 289.71C266.463 290.003 266.053 290.15 265.506 290.15H264.986V293H263.886V286ZM265.506 289.15C265.686 289.15 265.82 289.1 265.906 289C266 288.9 266.046 288.73 266.046 288.49V287.66C266.046 287.42 266 287.25 265.906 287.15C265.82 287.05 265.686 287 265.506 287H264.986V289.15H265.506ZM267.558 286H269.188C269.755 286 270.168 286.133 270.428 286.4C270.688 286.66 270.818 287.063 270.818 287.61V288.04C270.818 288.767 270.578 289.227 270.098 289.42V289.44C270.365 289.52 270.551 289.683 270.658 289.93C270.771 290.177 270.828 290.507 270.828 290.92V292.15C270.828 292.35 270.835 292.513 270.848 292.64C270.861 292.76 270.895 292.88 270.948 293H269.828C269.788 292.887 269.761 292.78 269.748 292.68C269.735 292.58 269.728 292.4 269.728 292.14V290.86C269.728 290.54 269.675 290.317 269.568 290.19C269.468 290.063 269.291 290 269.038 290H268.658V293H267.558V286ZM269.058 289C269.278 289 269.441 288.943 269.548 288.83C269.661 288.717 269.718 288.527 269.718 288.26V287.72C269.718 287.467 269.671 287.283 269.578 287.17C269.491 287.057 269.351 287 269.158 287H268.658V289H269.058Z" fill="#222222"/>
<path d="M333.863 286H335.433L336.133 291.01H336.153L336.853 286H338.423V293H337.383V287.7H337.363L336.563 293H335.643L334.843 287.7H334.823V293H333.863V286ZM339.908 286H341.398L342.538 293H341.438L341.238 291.61V291.63H339.988L339.788 293H338.768L339.908 286ZM341.108 290.68L340.618 287.22H340.598L340.118 290.68H341.108ZM343.437 290.02L342.107 286H343.277L344.027 288.57H344.047L344.797 286H345.867L344.537 290.02V293H343.437V290.02Z" fill="#222222"/>
<path d="M409.082 293.04C408.882 293.04 408.712 293.027 408.572 293V292C408.679 292.027 408.799 292.04 408.932 292.04C409.152 292.04 409.315 291.987 409.422 291.88C409.529 291.767 409.582 291.597 409.582 291.37V286H410.682V291.34C410.682 291.913 410.549 292.34 410.282 292.62C410.022 292.9 409.622 293.04 409.082 293.04ZM412.883 293.1C412.35 293.1 411.943 292.95 411.663 292.65C411.383 292.343 411.243 291.907 411.243 291.34V286H412.343V291.42C412.343 291.66 412.39 291.833 412.483 291.94C412.583 292.047 412.723 292.1 412.903 292.1C413.083 292.1 413.22 292.047 413.313 291.94C413.413 291.833 413.463 291.66 413.463 291.42V286H414.523V291.34C414.523 291.907 414.383 292.343 414.103 292.65C413.823 292.95 413.416 293.1 412.883 293.1ZM415.121 286H416.501L417.571 290.19H417.591V286H418.571V293H417.441L416.121 287.89H416.101V293H415.121V286ZM419.202 286H422.202V287H420.302V288.85H421.812V289.85H420.302V292H422.202V293H419.202V286Z" fill="#222222"/>
<path d="M485.193 293.04C484.993 293.04 484.823 293.027 484.683 293V292C484.79 292.027 484.91 292.04 485.043 292.04C485.263 292.04 485.427 291.987 485.533 291.88C485.64 291.767 485.693 291.597 485.693 291.37V286H486.793V291.34C486.793 291.913 486.66 292.34 486.393 292.62C486.133 292.9 485.733 293.04 485.193 293.04ZM488.994 293.1C488.461 293.1 488.054 292.95 487.774 292.65C487.494 292.343 487.354 291.907 487.354 291.34V286H488.454V291.42C488.454 291.66 488.501 291.833 488.594 291.94C488.694 292.047 488.834 292.1 489.014 292.1C489.194 292.1 489.331 292.047 489.424 291.94C489.524 291.833 489.574 291.66 489.574 291.42V286H490.634V291.34C490.634 291.907 490.494 292.343 490.214 292.65C489.934 292.95 489.528 293.1 488.994 293.1ZM491.232 286H492.332V292H494.142V293H491.232V286ZM494.615 290.02L493.285 286H494.455L495.205 288.57H495.225L495.975 286H497.045L495.715 290.02V293H494.615V290.02Z" fill="#222222"/>
<path d="M557.281 286H558.771L559.911 293H558.811L558.611 291.61V291.63H557.361L557.161 293H556.141L557.281 286ZM558.481 290.68L557.991 287.22H557.971L557.491 290.68H558.481ZM561.84 293.1C561.307 293.1 560.9 292.95 560.62 292.65C560.34 292.343 560.2 291.907 560.2 291.34V286H561.3V291.42C561.3 291.66 561.347 291.833 561.44 291.94C561.54 292.047 561.68 292.1 561.86 292.1C562.04 292.1 562.177 292.047 562.27 291.94C562.37 291.833 562.42 291.66 562.42 291.42V286H563.48V291.34C563.48 291.907 563.34 292.343 563.06 292.65C562.78 292.95 562.373 293.1 561.84 293.1ZM565.638 293.1C565.104 293.1 564.698 292.95 564.418 292.65C564.138 292.343 563.998 291.907 563.998 291.34V287.66C563.998 287.093 564.138 286.66 564.418 286.36C564.698 286.053 565.104 285.9 565.638 285.9C566.171 285.9 566.578 286.053 566.858 286.36C567.138 286.66 567.278 287.093 567.278 287.66V288.26H566.238V287.59C566.238 287.13 566.048 286.9 565.668 286.9C565.288 286.9 565.098 287.13 565.098 287.59V291.42C565.098 291.873 565.288 292.1 565.668 292.1C566.048 292.1 566.238 291.873 566.238 291.42V290.05H565.688V289.05H567.278V291.34C567.278 291.907 567.138 292.343 566.858 292.65C566.578 292.95 566.171 293.1 565.638 293.1Z" fill="#222222"/>
<path d="M632.82 293.1C632.287 293.1 631.884 292.95 631.61 292.65C631.337 292.343 631.2 291.907 631.2 291.34V290.94H632.24V291.42C632.24 291.873 632.43 292.1 632.81 292.1C632.997 292.1 633.137 292.047 633.23 291.94C633.33 291.827 633.38 291.647 633.38 291.4C633.38 291.107 633.314 290.85 633.18 290.63C633.047 290.403 632.8 290.133 632.44 289.82C631.987 289.42 631.67 289.06 631.49 288.74C631.31 288.413 631.22 288.047 631.22 287.64C631.22 287.087 631.36 286.66 631.64 286.36C631.92 286.053 632.327 285.9 632.86 285.9C633.387 285.9 633.784 286.053 634.05 286.36C634.324 286.66 634.46 287.093 634.46 287.66V287.95H633.42V287.59C633.42 287.35 633.374 287.177 633.28 287.07C633.187 286.957 633.05 286.9 632.87 286.9C632.504 286.9 632.32 287.123 632.32 287.57C632.32 287.823 632.387 288.06 632.52 288.28C632.66 288.5 632.91 288.767 633.27 289.08C633.73 289.48 634.047 289.843 634.22 290.17C634.394 290.497 634.48 290.88 634.48 291.32C634.48 291.893 634.337 292.333 634.05 292.64C633.77 292.947 633.36 293.1 632.82 293.1ZM634.925 286H637.925V287H636.025V288.85H637.535V289.85H636.025V292H637.925V293H634.925V286ZM638.373 286H639.993C640.539 286 640.949 286.147 641.223 286.44C641.496 286.733 641.633 287.163 641.633 287.73V288.42C641.633 288.987 641.496 289.417 641.223 289.71C640.949 290.003 640.539 290.15 639.993 290.15H639.473V293H638.373V286ZM639.993 289.15C640.173 289.15 640.306 289.1 640.393 289C640.486 288.9 640.533 288.73 640.533 288.49V287.66C640.533 287.42 640.486 287.25 640.393 287.15C640.306 287.05 640.173 287 639.993 287H639.473V289.15H639.993Z" fill="#222222"/>
<path d="M706.785 293.1C706.245 293.1 705.832 292.947 705.545 292.64C705.258 292.333 705.115 291.9 705.115 291.34V287.66C705.115 287.1 705.258 286.667 705.545 286.36C705.832 286.053 706.245 285.9 706.785 285.9C707.325 285.9 707.738 286.053 708.025 286.36C708.312 286.667 708.455 287.1 708.455 287.66V291.34C708.455 291.9 708.312 292.333 708.025 292.64C707.738 292.947 707.325 293.1 706.785 293.1ZM706.785 292.1C707.165 292.1 707.355 291.87 707.355 291.41V287.59C707.355 287.13 707.165 286.9 706.785 286.9C706.405 286.9 706.215 287.13 706.215 287.59V291.41C706.215 291.87 706.405 292.1 706.785 292.1ZM710.563 293.1C710.037 293.1 709.633 292.95 709.353 292.65C709.08 292.35 708.943 291.927 708.943 291.38V287.62C708.943 287.073 709.08 286.65 709.353 286.35C709.633 286.05 710.037 285.9 710.563 285.9C711.09 285.9 711.49 286.05 711.763 286.35C712.043 286.65 712.183 287.073 712.183 287.62V288.36H711.143V287.55C711.143 287.117 710.96 286.9 710.593 286.9C710.227 286.9 710.043 287.117 710.043 287.55V291.46C710.043 291.887 710.227 292.1 710.593 292.1C710.96 292.1 711.143 291.887 711.143 291.46V290.39H712.183V291.38C712.183 291.927 712.043 292.35 711.763 292.65C711.49 292.95 711.09 293.1 710.563 293.1ZM713.516 287H712.366V286H715.766V287H714.616V293H713.516V287Z" fill="#222222"/>
<path d="M777.848 287H779.228L780.298 291.19H780.318V287H781.298V294H780.168L778.848 288.89H778.828V294H777.848V287ZM783.519 294.1C782.979 294.1 782.566 293.947 782.279 293.64C781.993 293.333 781.849 292.9 781.849 292.34V288.66C781.849 288.1 781.993 287.667 782.279 287.36C782.566 287.053 782.979 286.9 783.519 286.9C784.059 286.9 784.473 287.053 784.759 287.36C785.046 287.667 785.189 288.1 785.189 288.66V292.34C785.189 292.9 785.046 293.333 784.759 293.64C784.473 293.947 784.059 294.1 783.519 294.1ZM783.519 293.1C783.899 293.1 784.089 292.87 784.089 292.41V288.59C784.089 288.13 783.899 287.9 783.519 287.9C783.139 287.9 782.949 288.13 782.949 288.59V292.41C782.949 292.87 783.139 293.1 783.519 293.1ZM785.438 287H786.548L787.268 292.43H787.288L788.008 287H789.018L787.958 294H786.498L785.438 287Z" fill="#222222"/>
<path d="M852.805 287H854.485C855.031 287 855.441 287.147 855.715 287.44C855.988 287.733 856.125 288.163 856.125 288.73V292.27C856.125 292.837 855.988 293.267 855.715 293.56C855.441 293.853 855.031 294 854.485 294H852.805V287ZM854.465 293C854.645 293 854.781 292.947 854.875 292.84C854.975 292.733 855.025 292.56 855.025 292.32V288.68C855.025 288.44 854.975 288.267 854.875 288.16C854.781 288.053 854.645 288 854.465 288H853.905V293H854.465ZM856.681 287H859.681V288H857.781V289.85H859.291V290.85H857.781V293H859.681V294H856.681V287ZM861.678 294.1C861.152 294.1 860.748 293.95 860.468 293.65C860.195 293.35 860.058 292.927 860.058 292.38V288.62C860.058 288.073 860.195 287.65 860.468 287.35C860.748 287.05 861.152 286.9 861.678 286.9C862.205 286.9 862.605 287.05 862.878 287.35C863.158 287.65 863.298 288.073 863.298 288.62V289.36H862.258V288.55C862.258 288.117 862.075 287.9 861.708 287.9C861.342 287.9 861.158 288.117 861.158 288.55V292.46C861.158 292.887 861.342 293.1 861.708 293.1C862.075 293.1 862.258 292.887 862.258 292.46V291.39H863.298V292.38C863.298 292.927 863.158 293.35 862.878 293.65C862.605 293.95 862.205 294.1 861.678 294.1Z" fill="#222222"/>
<path d="M12.194 254.243L12.194 255.278L11.492 255.278C11.492 254.996 11.468 254.771 11.42 254.603C11.372 254.429 11.294 254.291 11.186 254.189C11.072 254.087 10.91 253.997 10.7 253.919L10.7 253.253L17 253.253L17 254.243L12.194 254.243ZM17.09 250.78C17.09 251.266 16.952 251.638 16.676 251.896C16.4 252.154 16.01 252.283 15.506 252.283L12.194 252.283C11.69 252.283 11.3 252.154 11.024 251.896C10.748 251.638 10.61 251.266 10.61 250.78C10.61 250.294 10.748 249.922 11.024 249.664C11.3 249.406 11.69 249.277 12.194 249.277L15.506 249.277C16.01 249.277 16.4 249.406 16.676 249.664C16.952 249.922 17.09 250.294 17.09 250.78ZM16.19 250.78C16.19 250.438 15.983 250.267 15.569 250.267L12.131 250.267C11.717 250.267 11.51 250.438 11.51 250.78C11.51 251.122 11.717 251.293 12.131 251.293L15.569 251.293C15.983 251.293 16.19 251.122 16.19 250.78Z" fill="#222222"/>
<path d="M17.09 201.487C17.09 201.973 16.955 202.342 16.685 202.594C16.415 202.84 16.028 202.963 15.524 202.963L15.011 202.963L15.011 202.027L15.569 202.027C15.983 202.027 16.19 201.856 16.19 201.514C16.19 201.346 16.139 201.22 16.037 201.136C15.929 201.046 15.743 201.001 15.479 201.001L14.966 201.001C14.678 201.001 14.474 201.052 14.354 201.154C14.228 201.256 14.165 201.421 14.165 201.649L14.165 201.982L13.265 201.982L13.265 201.622C13.265 201.424 13.214 201.277 13.112 201.181C13.01 201.079 12.839 201.028 12.599 201.028L12.14 201.028C11.924 201.028 11.765 201.073 11.663 201.163C11.561 201.253 11.51 201.373 11.51 201.523C11.51 201.841 11.705 202 12.095 202L12.509 202L12.509 202.936L12.176 202.936C11.672 202.936 11.285 202.813 11.015 202.567C10.745 202.315 10.61 201.955 10.61 201.487C10.61 201.013 10.745 200.653 11.015 200.407C11.279 200.161 11.663 200.038 12.167 200.038L12.392 200.038C12.734 200.038 13.01 200.095 13.22 200.209C13.424 200.323 13.571 200.5 13.661 200.74L13.679 200.74C13.775 200.482 13.931 200.296 14.147 200.182C14.363 200.068 14.639 200.011 14.975 200.011L15.533 200.011C16.037 200.011 16.424 200.137 16.694 200.389C16.958 200.635 17.09 201.001 17.09 201.487ZM17.09 198.042C17.09 198.528 16.952 198.9 16.676 199.158C16.4 199.416 16.01 199.545 15.506 199.545L12.194 199.545C11.69 199.545 11.3 199.416 11.024 199.158C10.748 198.9 10.61 198.528 10.61 198.042C10.61 197.556 10.748 197.184 11.024 196.926C11.3 196.668 11.69 196.539 12.194 196.539L15.506 196.539C16.01 196.539 16.4 196.668 16.676 196.926C16.952 197.184 17.09 197.556 17.09 198.042ZM16.19 198.042C16.19 197.7 15.983 197.529 15.569 197.529L12.131 197.529C11.717 197.529 11.51 197.7 11.51 198.042C11.51 198.384 11.717 198.555 12.131 198.555L15.569 198.555C15.983 198.555 16.19 198.384 16.19 198.042Z" fill="#222222"/>
<path d="M15.857 173.768L15.857 175.658L14.957 175.658L10.7 173.858L10.7 172.778L14.957 172.778L14.957 172.31L15.857 172.31L15.857 172.778L17 172.778L17 173.768L15.857 173.768ZM14.957 173.768L12.5 173.768L12.5 173.786L14.957 174.758L14.957 173.768ZM17.09 170.575C17.09 171.061 16.952 171.433 16.676 171.691C16.4 171.949 16.01 172.078 15.506 172.078L12.194 172.078C11.69 172.078 11.3 171.949 11.024 171.691C10.748 171.433 10.61 171.061 10.61 170.575C10.61 170.089 10.748 169.717 11.024 169.459C11.3 169.201 11.69 169.072 12.194 169.072L15.506 169.072C16.01 169.072 16.4 169.201 16.676 169.459C16.952 169.717 17.09 170.089 17.09 170.575ZM16.19 170.575C16.19 170.233 15.983 170.062 15.569 170.062L12.131 170.062C11.717 170.062 11.51 170.233 11.51 170.575C11.51 170.917 11.717 171.088 12.131 171.088L15.569 171.088C15.983 171.088 16.19 170.917 16.19 170.575Z" fill="#222222"/>
<path d="M17.09 146.506C17.09 146.986 16.955 147.352 16.685 147.604C16.409 147.856 16.016 147.982 15.506 147.982L15.011 147.982L15.011 147.046L15.578 147.046C15.986 147.046 16.19 146.875 16.19 146.533C16.19 146.191 15.986 146.02 15.578 146.02L14.165 146.02C13.751 146.02 13.544 146.191 13.544 146.533C13.544 146.875 13.751 147.046 14.165 147.046L14.219 147.046L14.219 147.982L10.7 147.802L10.7 145.192L11.6 145.192L11.6 146.92L13.103 147.001L13.103 146.983C12.797 146.797 12.644 146.512 12.644 146.128C12.644 145.768 12.767 145.495 13.013 145.309C13.259 145.123 13.616 145.03 14.084 145.03L15.506 145.03C16.016 145.03 16.409 145.156 16.685 145.408C16.955 145.66 17.09 146.026 17.09 146.506ZM17.09 143.106C17.09 143.592 16.952 143.964 16.676 144.222C16.4 144.48 16.01 144.609 15.506 144.609L12.194 144.609C11.69 144.609 11.3 144.48 11.024 144.222C10.748 143.964 10.61 143.592 10.61 143.106C10.61 142.62 10.748 142.248 11.024 141.99C11.3 141.732 11.69 141.603 12.194 141.603L15.506 141.603C16.01 141.603 16.4 141.732 16.676 141.99C16.952 142.248 17.09 142.62 17.09 143.106ZM16.19 143.106C16.19 142.764 15.983 142.593 15.569 142.593L12.131 142.593C11.717 142.593 11.51 142.764 11.51 143.106C11.51 143.448 11.717 143.619 12.131 143.619L15.569 143.619C15.983 143.619 16.19 143.448 16.19 143.106Z" fill="#222222"/>
<path d="M17.09 120.13C17.09 120.616 16.952 120.988 16.676 121.246C16.4 121.504 16.01 121.633 15.506 121.633L12.248 121.633C11.156 121.633 10.61 121.129 10.61 120.121C10.61 119.641 10.748 119.275 11.024 119.023C11.294 118.771 11.684 118.645 12.194 118.645L12.311 118.645L12.311 119.581L12.131 119.581C11.717 119.581 11.51 119.752 11.51 120.094C11.51 120.28 11.567 120.418 11.681 120.508C11.795 120.598 11.996 120.643 12.284 120.643L13.49 120.643L13.49 120.625C13.124 120.451 12.941 120.151 12.941 119.725C12.941 119.365 13.064 119.092 13.31 118.906C13.556 118.72 13.913 118.627 14.381 118.627L15.506 118.627C16.01 118.627 16.4 118.756 16.676 119.014C16.952 119.272 17.09 119.644 17.09 120.13ZM16.19 120.13C16.19 119.788 15.986 119.617 15.578 119.617L14.462 119.617C14.048 119.617 13.841 119.788 13.841 120.13C13.841 120.472 14.048 120.643 14.462 120.643L15.578 120.643C15.986 120.643 16.19 120.472 16.19 120.13ZM17.09 116.739C17.09 117.225 16.952 117.597 16.676 117.855C16.4 118.113 16.01 118.242 15.506 118.242L12.194 118.242C11.69 118.242 11.3 118.113 11.024 117.855C10.748 117.597 10.61 117.225 10.61 116.739C10.61 116.253 10.748 115.881 11.024 115.623C11.3 115.365 11.69 115.236 12.194 115.236L15.506 115.236C16.01 115.236 16.4 115.365 16.676 115.623C16.952 115.881 17.09 116.253 17.09 116.739ZM16.19 116.739C16.19 116.397 15.983 116.226 15.569 116.226L12.131 116.226C11.717 116.226 11.51 116.397 11.51 116.739C11.51 117.081 11.717 117.252 12.131 117.252L15.569 117.252C15.983 117.252 16.19 117.081 16.19 116.739Z" fill="#222222"/>
<path d="M11.6 92.1853L11.6 94.1833L10.7 94.1833L10.7 91.2133L11.564 91.2133L17 92.7613L17 93.7693L11.6 92.1853ZM17.09 89.2715C17.09 89.7575 16.952 90.1295 16.676 90.3875C16.4 90.6455 16.01 90.7745 15.506 90.7745L12.194 90.7745C11.69 90.7745 11.3 90.6455 11.024 90.3875C10.748 90.1295 10.61 89.7575 10.61 89.2715C10.61 88.7855 10.748 88.4135 11.024 88.1555C11.3 87.8975 11.69 87.7685 12.194 87.7685L15.506 87.7685C16.01 87.7685 16.4 87.8975 16.676 88.1555C16.952 88.4135 17.09 88.7855 17.09 89.2715ZM16.19 89.2715C16.19 88.9295 15.983 88.7585 15.569 88.7585L12.131 88.7585C11.717 88.7585 11.51 88.9295 11.51 89.2715C11.51 89.6135 11.717 89.7845 12.131 89.7845L15.569 89.7845C15.983 89.7845 16.19 89.6135 16.19 89.2715Z" fill="#222222"/>
<path d="M17.09 65.2225C17.09 66.2215 16.541 66.7705 15.533 66.7705L14.975 66.7705C14.372 66.7705 13.931 66.5905 13.688 66.1225L13.67 66.1225C13.445 66.5365 13.049 66.7345 12.428 66.7345L12.167 66.7345C11.159 66.7345 10.61 66.1855 10.61 65.2225C10.61 64.2595 11.159 63.7105 12.167 63.7105L12.428 63.7105C13.049 63.7105 13.445 63.9175 13.67 64.3225L13.688 64.3225C13.931 63.8545 14.372 63.6745 14.975 63.6745L15.533 63.6745C16.541 63.6745 17.09 64.2235 17.09 65.2225ZM13.265 65.2225C13.265 64.8805 13.049 64.7005 12.635 64.7005L12.14 64.7005C11.726 64.7005 11.51 64.8805 11.51 65.2225C11.51 65.5645 11.726 65.7445 12.14 65.7445L12.635 65.7445C13.049 65.7445 13.265 65.5645 13.265 65.2225ZM16.19 65.2225C16.19 64.8535 15.956 64.6645 15.479 64.6645L14.876 64.6645C14.399 64.6645 14.165 64.8535 14.165 65.2225C14.165 65.5915 14.399 65.7805 14.876 65.7805L15.479 65.7805C15.956 65.7805 16.19 65.5915 16.19 65.2225ZM17.09 61.8047C17.09 62.7767 16.514 63.3077 15.506 63.3077L12.194 63.3077C11.186 63.3077 10.61 62.7767 10.61 61.8047C10.61 60.8327 11.186 60.3017 12.194 60.3017L15.506 60.3017C16.514 60.3017 17.09 60.8327 17.09 61.8047ZM16.19 61.8047C16.19 61.4897 16.019 61.2917 15.569 61.2917L12.131 61.2917C11.681 61.2917 11.51 61.4897 11.51 61.8047C11.51 62.1197 11.681 62.3177 12.131 62.3177L15.569 62.3177C16.019 62.3177 16.19 62.1197 16.19 61.8047Z" fill="#222222"/>
<path d="M17.09 37.7868C17.09 38.7588 16.514 39.2628 15.506 39.2628L15.389 39.2628L15.389 38.3268L15.569 38.3268C16.019 38.3268 16.19 38.1288 16.19 37.8138C16.19 37.4628 16.019 37.2648 15.416 37.2648L14.21 37.2648L14.21 37.2828C14.57 37.4538 14.759 37.7418 14.759 38.1828C14.759 38.9118 14.246 39.2808 13.319 39.2808L12.194 39.2808C11.186 39.2808 10.61 38.7498 10.61 37.7778C10.61 36.8058 11.186 36.2748 12.194 36.2748L15.452 36.2748C16.514 36.2748 17.09 36.7608 17.09 37.7868ZM13.859 37.7778C13.859 37.4358 13.661 37.2648 13.238 37.2648L12.122 37.2648C11.708 37.2648 11.51 37.4358 11.51 37.7778C11.51 38.1198 11.708 38.2908 12.122 38.2908L13.238 38.2908C13.661 38.2908 13.859 38.1198 13.859 37.7778ZM17.09 34.333C17.09 35.305 16.514 35.836 15.506 35.836L12.194 35.836C11.186 35.836 10.61 35.305 10.61 34.333C10.61 33.361 11.186 32.83 12.194 32.83L15.506 32.83C16.514 32.83 17.09 33.361 17.09 34.333ZM16.19 34.333C16.19 34.018 16.019 33.82 15.569 33.82L12.131 33.82C11.681 33.82 11.51 34.018 11.51 34.333C11.51 34.648 11.681 34.846 12.131 34.846L15.569 34.846C16.019 34.846 16.19 34.648 16.19 34.333Z" fill="#222222"/>
<path d="M17 10.3309L12.194 10.3309L12.194 11.3659L11.492 11.3659C11.492 10.5289 11.312 10.2319 10.7 10.0069L10.7 9.34094L17 9.34094L17 10.3309ZM17.09 6.86814C17.09 7.84014 16.514 8.37114 15.506 8.37114L12.194 8.37114C11.186 8.37114 10.61 7.84014 10.61 6.86814C10.61 5.89614 11.186 5.36514 12.194 5.36514L15.506 5.36514C16.514 5.36514 17.09 5.89614 17.09 6.86814ZM16.19 6.86814C16.19 6.55314 16.019 6.35514 15.569 6.35514L12.131 6.35514C11.681 6.35514 11.51 6.55314 11.51 6.86814C11.51 7.18314 11.681 7.38114 12.131 7.38114L15.569 7.38114C16.019 7.38114 16.19 7.18314 16.19 6.86814ZM17.09 3.45033C17.09 4.42233 16.514 4.95333 15.506 4.95333L12.194 4.95333C11.186 4.95333 10.61 4.42233 10.61 3.45033C10.61 2.47833 11.186 1.94733 12.194 1.94733L15.506 1.94733C16.514 1.94733 17.09 2.47833 17.09 3.45033ZM16.19 3.45033C16.19 3.13533 16.019 2.93733 15.569 2.93733L12.131 2.93733C11.681 2.93733 11.51 3.13533 11.51 3.45033C11.51 3.76533 11.681 3.96333 12.131 3.96333L15.569 3.96333C16.019 3.96333 16.19 3.76533 16.19 3.45033Z" fill="#222222"/>
<path d="M17 229.278L16.316 229.278C15.416 229.278 14.867 229.026 14.093 228.288C13.292 227.532 12.815 227.316 12.23 227.316C11.663 227.316 11.51 227.514 11.51 227.829C11.51 228.144 11.681 228.342 12.131 228.342L12.806 228.342L12.806 229.278L12.194 229.278C11.186 229.278 10.61 228.774 10.61 227.802C10.61 226.83 11.186 226.326 12.194 226.326C12.941 226.326 13.607 226.632 14.579 227.55C15.209 228.144 15.524 228.297 15.965 228.297L16.1 228.297L16.1 226.416L17 226.416L17 229.278ZM17.09 224.411C17.09 225.383 16.514 225.914 15.506 225.914L12.194 225.914C11.186 225.914 10.61 225.383 10.61 224.411C10.61 223.439 11.186 222.908 12.194 222.908L15.506 222.908C16.514 222.908 17.09 223.439 17.09 224.411ZM16.19 224.411C16.19 224.096 16.019 223.898 15.569 223.898L12.131 223.898C11.681 223.898 11.51 224.096 11.51 224.411C11.51 224.726 11.681 224.924 12.131 224.924L15.569 224.924C16.019 224.924 16.19 224.726 16.19 224.411Z" fill="#222222"/>
<g opacity="0.3">
<path d="M27 0V266C27 271.523 31.4772 276 37 276H872" stroke="#787878"/>
</g>
<rect x="7" y="261" width="15" height="15" rx="2" fill="#222222"/>
<path d="M12.764 268.354C12.434 268.354 12.161 268.279 11.945 268.129C11.729 267.979 11.57 267.775 11.468 267.517C11.366 267.259 11.315 266.968 11.315 266.644C11.315 266.32 11.366 266.032 11.468 265.78C11.57 265.522 11.729 265.318 11.945 265.168C12.161 265.018 12.434 264.943 12.764 264.943C13.094 264.943 13.364 265.018 13.574 265.168C13.79 265.318 13.949 265.522 14.051 265.78C14.159 266.032 14.213 266.32 14.213 266.644C14.213 266.968 14.159 267.259 14.051 267.517C13.949 267.775 13.79 267.979 13.574 268.129C13.364 268.279 13.094 268.354 12.764 268.354ZM12.413 266.644C12.413 266.89 12.437 267.091 12.485 267.247C12.533 267.397 12.626 267.472 12.764 267.472C12.902 267.472 12.992 267.397 13.034 267.247C13.082 267.091 13.106 266.89 13.106 266.644C13.106 266.362 13.082 266.158 13.034 266.032C12.992 265.9 12.902 265.834 12.764 265.834C12.626 265.834 12.533 265.9 12.485 266.032C12.437 266.158 12.413 266.362 12.413 266.644ZM16.526 271.252C16.196 271.252 15.923 271.177 15.707 271.027C15.491 270.877 15.332 270.673 15.23 270.415C15.128 270.157 15.077 269.866 15.077 269.542C15.077 269.218 15.128 268.93 15.23 268.678C15.332 268.42 15.491 268.216 15.707 268.066C15.923 267.916 16.196 267.841 16.526 267.841C16.856 267.841 17.126 267.916 17.336 268.066C17.552 268.216 17.711 268.42 17.813 268.678C17.921 268.93 17.975 269.218 17.975 269.542C17.975 269.866 17.921 270.157 17.813 270.415C17.711 270.673 17.552 270.877 17.336 271.027C17.126 271.177 16.856 271.252 16.526 271.252ZM16.175 269.542C16.175 269.788 16.199 269.989 16.247 270.145C16.295 270.295 16.388 270.37 16.526 270.37C16.664 270.37 16.754 270.295 16.796 270.145C16.844 269.989 16.868 269.788 16.868 269.542C16.868 269.26 16.844 269.056 16.796 268.93C16.754 268.798 16.664 268.732 16.526 268.732C16.388 268.732 16.295 268.798 16.247 268.93C16.199 269.056 16.175 269.26 16.175 269.542ZM17.552 264.943L13.178 271.018L11.945 271L16.301 264.943H17.552Z" fill="url(#paint0_radial_428_31032)"/>
<rect y="281" width="33" height="15" rx="2" fill="#222222"/>
<path d="M3.855 291L3.855 284.106H3.864L7.545 289.326L6.987 289.2L10.659 284.106H10.677L10.677 291H9.372L9.372 287.049L9.453 287.724L7.212 290.91H7.194L4.89 287.724L5.115 287.103L5.115 291H3.855ZM11.8762 288.984C11.8762 288.582 11.9692 288.222 12.1552 287.904C12.3472 287.586 12.6142 287.337 12.9562 287.157C13.2982 286.971 13.6912 286.878 14.1352 286.878C14.5852 286.878 14.9752 286.971 15.3052 287.157C15.6352 287.337 15.8872 287.586 16.0612 287.904C16.2412 288.222 16.3312 288.582 16.3312 288.984C16.3312 289.386 16.2412 289.749 16.0612 290.073C15.8872 290.391 15.6352 290.643 15.3052 290.829C14.9752 291.015 14.5792 291.108 14.1172 291.108C13.6852 291.108 13.2982 291.024 12.9562 290.856C12.6202 290.688 12.3562 290.445 12.1642 290.127C11.9722 289.809 11.8762 289.428 11.8762 288.984ZM13.1452 288.993C13.1452 289.197 13.1872 289.383 13.2712 289.551C13.3552 289.713 13.4692 289.842 13.6132 289.938C13.7572 290.034 13.9192 290.082 14.0992 290.082C14.2972 290.082 14.4682 290.034 14.6122 289.938C14.7562 289.842 14.8672 289.713 14.9452 289.551C15.0232 289.383 15.0622 289.197 15.0622 288.993C15.0622 288.783 15.0232 288.597 14.9452 288.435C14.8672 288.273 14.7562 288.144 14.6122 288.048C14.4682 287.952 14.2972 287.904 14.0992 287.904C13.9192 287.904 13.7572 287.952 13.6132 288.048C13.4692 288.144 13.3552 288.273 13.2712 288.435C13.1872 288.597 13.1452 288.783 13.1452 288.993ZM18.4668 287.067L18.5658 287.769L18.5478 287.706C18.6858 287.46 18.8808 287.262 19.1328 287.112C19.3848 286.956 19.6938 286.878 20.0598 286.878C20.4318 286.878 20.7408 286.989 20.9868 287.211C21.2388 287.427 21.3678 287.709 21.3738 288.057L21.3738 291H20.1138L20.1138 288.525C20.1078 288.351 20.0598 288.213 19.9698 288.111C19.8858 288.003 19.7418 287.949 19.5378 287.949C19.3458 287.949 19.1778 288.012 19.0338 288.138C18.8898 288.264 18.7788 288.435 18.7008 288.651C18.6228 288.867 18.5838 289.116 18.5838 289.398L18.5838 291H17.3238L17.3238 287.067H18.4668ZM23.0365 285.339H24.2965L24.2965 287.049H25.2505L25.2505 288.03H24.2965L24.2965 291H23.0365L23.0365 288.03H22.4245L22.4245 287.049H23.0365L23.0365 285.339ZM26.2095 291L26.2095 283.899H27.4425L27.4425 287.859L27.4335 287.706C27.5715 287.46 27.7665 287.262 28.0185 287.112C28.2705 286.956 28.5795 286.878 28.9455 286.878C29.3175 286.878 29.6265 286.989 29.8725 287.211C30.1245 287.427 30.2535 287.709 30.2595 288.057L30.2595 291H28.9995L28.9995 288.525C28.9935 288.351 28.9455 288.213 28.8555 288.111C28.7715 288.003 28.6275 287.949 28.4235 287.949C28.2315 287.949 28.0635 288.012 27.9195 288.138C27.7755 288.264 27.6645 288.435 27.5865 288.651C27.5085 288.867 27.4695 289.116 27.4695 289.398L27.4695 291H26.2095Z" fill="url(#paint1_radial_428_31032)"/>
<path d="M460.852 263.808C462.095 263.808 463.103 263.224 463.103 262.503C463.103 261.782 462.095 261.197 460.852 261.197C459.609 261.197 458.602 261.782 458.602 262.503C458.602 263.224 459.609 263.808 460.852 263.808Z" fill="#222222"/>
<path d="M470.756 256.785C471.611 257.281 471.611 258.091 470.756 258.631C469.9 259.126 468.46 259.126 467.559 258.631C466.704 258.136 466.704 257.326 467.559 256.785C468.415 256.29 469.855 256.29 470.756 256.785Z" fill="#222222"/>
<path d="M445.815 261.554C446.671 262.05 446.671 262.86 445.815 263.4C444.96 263.895 443.52 263.895 442.619 263.4C441.719 262.905 441.764 262.095 442.619 261.554C443.475 261.014 444.915 261.059 445.815 261.554Z" fill="#222222"/>
<path d="M454.146 256.785C455.001 257.281 455.001 258.091 454.146 258.631C453.291 259.126 451.85 259.126 450.95 258.631C450.095 258.136 450.095 257.326 450.95 256.785C451.805 256.29 453.246 256.29 454.146 256.785Z" fill="#222222"/>
<path d="M462.425 251.965C463.281 252.46 463.281 253.271 462.425 253.811C461.57 254.306 460.13 254.306 459.229 253.811C458.374 253.316 458.374 252.505 459.229 251.965C460.085 251.47 461.525 251.47 462.425 251.965Z" fill="#222222"/>
<path d="M437.533 256.785C438.388 257.281 438.388 258.091 437.533 258.631C436.678 259.126 435.237 259.126 434.337 258.631C433.481 258.136 433.481 257.326 434.337 256.785C435.192 256.29 436.633 256.29 437.533 256.785Z" fill="#222222"/>
<path d="M445.815 251.965C446.671 252.46 446.671 253.27 445.815 253.81C444.96 254.305 443.52 254.305 442.619 253.81C441.719 253.315 441.764 252.505 442.619 251.965C443.475 251.424 444.915 251.469 445.815 251.965Z" fill="#222222"/>
<path d="M454.146 247.194C455.001 247.689 455.001 248.499 454.146 249.039C453.291 249.534 451.85 249.534 450.95 249.039C450.095 248.544 450.095 247.734 450.95 247.194C451.805 246.698 453.246 246.698 454.146 247.194Z" fill="#222222"/>
<path d="M429.162 251.922C430.017 252.417 430.017 253.228 429.162 253.768C428.306 254.263 426.866 254.263 425.966 253.768C425.11 253.273 425.11 252.462 425.966 251.922C426.821 251.427 428.261 251.427 429.162 251.922Z" fill="#222222"/>
<path d="M437.447 247.148C438.302 247.643 438.302 248.454 437.447 248.994C436.592 249.489 435.151 249.489 434.251 248.994C433.396 248.499 433.396 247.688 434.251 247.148C435.106 246.608 436.547 246.653 437.447 247.148Z" fill="#222222"/>
<path d="M445.771 242.33C446.626 242.826 446.626 243.636 445.771 244.176C444.916 244.671 443.475 244.671 442.575 244.176C441.72 243.681 441.72 242.871 442.575 242.33C443.43 241.835 444.871 241.835 445.771 242.33Z" fill="#222222"/>
<path d="M420.834 247.147C421.689 247.642 421.689 248.452 420.834 248.992C419.978 249.488 418.538 249.488 417.638 248.992C416.782 248.497 416.782 247.687 417.638 247.147C418.493 246.652 419.933 246.652 420.834 247.147Z" fill="#222222"/>
<path d="M429.16 242.33C430.015 242.826 430.015 243.636 429.16 244.176C428.305 244.671 426.864 244.671 425.964 244.176C425.108 243.681 425.108 242.871 425.964 242.33C426.819 241.835 428.26 241.835 429.16 242.33Z" fill="#222222"/>
<path d="M437.447 237.561C438.302 238.056 438.302 238.866 437.447 239.406C436.592 239.902 435.151 239.902 434.251 239.406C433.396 238.911 433.396 238.101 434.251 237.561C435.106 237.066 436.547 237.066 437.447 237.561Z" fill="#222222"/>
<path d="M412.55 242.33C413.406 242.826 413.406 243.636 412.55 244.176C411.695 244.671 410.255 244.671 409.354 244.176C408.499 243.681 408.499 242.871 409.354 242.33C410.21 241.835 411.65 241.835 412.55 242.33Z" fill="#222222"/>
<path d="M420.834 237.561C421.689 238.056 421.689 238.866 420.834 239.406C419.978 239.947 418.538 239.902 417.638 239.406C416.782 238.911 416.782 238.101 417.638 237.561C418.493 237.066 419.933 237.066 420.834 237.561Z" fill="#222222"/>
<path d="M429.162 232.744C430.017 233.24 430.017 234.05 429.162 234.59C428.306 235.085 426.866 235.085 425.966 234.59C425.11 234.095 425.11 233.285 425.966 232.744C426.821 232.249 428.261 232.249 429.162 232.744Z" fill="#222222"/>
<path d="M404.267 237.561C405.123 238.056 405.123 238.866 404.267 239.406C403.412 239.902 401.971 239.902 401.071 239.406C400.216 238.911 400.216 238.101 401.071 237.561C401.926 237.066 403.367 237.066 404.267 237.561Z" fill="#222222"/>
<path d="M412.552 232.744C413.408 233.24 413.408 234.05 412.552 234.59C411.697 235.085 410.257 235.085 409.356 234.59C408.501 234.095 408.501 233.285 409.356 232.744C410.212 232.249 411.652 232.249 412.552 232.744Z" fill="#222222"/>
<path d="M420.834 227.969C421.689 228.464 421.689 229.274 420.834 229.815C419.978 230.31 418.538 230.31 417.638 229.815C416.782 229.32 416.782 228.509 417.638 227.969C418.493 227.474 419.933 227.474 420.834 227.969Z" fill="#222222"/>
<path d="M404.267 227.969C405.123 228.464 405.123 229.274 404.267 229.815C403.412 230.31 401.971 230.31 401.071 229.815C400.216 229.32 400.216 228.509 401.071 227.969C401.926 227.474 403.367 227.474 404.267 227.969Z" fill="#222222"/>
<path d="M412.55 223.157C413.406 223.652 413.406 224.462 412.55 225.002C411.695 225.497 410.255 225.497 409.354 225.002C408.499 224.507 408.499 223.697 409.354 223.157C410.21 222.661 411.65 222.661 412.55 223.157Z" fill="#222222"/>
<path d="M475.886 252.057C476.741 251.562 478.182 251.562 479.082 252.057C479.983 252.552 479.983 253.362 479.082 253.903C478.227 254.398 476.786 254.398 475.886 253.903C474.986 253.407 474.986 252.597 475.886 252.057Z" fill="#222222"/>
<path d="M487.366 247.24C488.222 247.735 488.222 248.545 487.366 249.086C486.511 249.626 485.07 249.581 484.17 249.086C483.27 248.59 483.315 247.78 484.17 247.24C485.025 246.7 486.466 246.745 487.366 247.24Z" fill="#222222"/>
<path d="M495.693 242.469C496.548 242.964 496.548 243.774 495.693 244.314C494.838 244.809 493.397 244.809 492.497 244.314C491.642 243.819 491.642 243.009 492.497 242.469C493.352 241.928 494.793 241.973 495.693 242.469Z" fill="#222222"/>
<path d="M503.976 237.651C504.832 238.146 504.832 238.956 503.976 239.496C503.121 239.991 501.68 239.991 500.78 239.496C499.925 239.001 499.925 238.191 500.78 237.651C501.635 237.156 503.076 237.156 503.976 237.651Z" fill="#222222"/>
<path d="M467.605 247.241C468.46 246.745 469.901 246.745 470.801 247.241C471.701 247.736 471.701 248.546 470.801 249.086C469.946 249.581 468.505 249.581 467.605 249.086C466.705 248.591 466.705 247.781 467.605 247.241Z" fill="#222222"/>
<path d="M479.084 242.469C479.939 242.964 479.939 243.774 479.084 244.314C478.228 244.809 476.788 244.809 475.888 244.314C475.032 243.819 475.032 243.009 475.888 242.469C476.743 241.928 478.183 241.973 479.084 242.469Z" fill="#222222"/>
<path d="M487.365 237.651C488.22 238.146 488.22 238.956 487.365 239.496C486.51 239.991 485.069 239.991 484.169 239.496C483.314 239.001 483.314 238.191 484.169 237.651C485.024 237.156 486.465 237.156 487.365 237.651Z" fill="#222222"/>
<path d="M495.693 232.881C496.548 233.376 496.548 234.187 495.693 234.727C494.838 235.222 493.397 235.222 492.497 234.727C491.642 234.232 491.642 233.421 492.497 232.881C493.352 232.386 494.793 232.386 495.693 232.881Z" fill="#222222"/>
<path d="M503.976 228.064C504.832 228.559 504.832 229.37 503.976 229.91C503.121 230.405 501.68 230.405 500.78 229.91C499.925 229.415 499.925 228.604 500.78 228.064C501.635 227.524 503.076 227.569 503.976 228.064Z" fill="#222222"/>
<path d="M459.277 242.467C460.132 241.972 461.573 241.972 462.473 242.467C463.373 242.962 463.373 243.773 462.473 244.313C461.618 244.808 460.177 244.808 459.277 244.313C458.376 243.818 458.376 243.007 459.277 242.467Z" fill="#222222"/>
<path d="M470.756 237.651C471.611 238.146 471.611 238.956 470.756 239.496C469.9 239.991 468.46 239.991 467.559 239.496C466.704 239.001 466.704 238.191 467.559 237.651C468.415 237.156 469.855 237.156 470.756 237.651Z" fill="#222222"/>
<path d="M479.084 232.879C479.939 233.374 479.939 234.184 479.084 234.724C478.228 235.219 476.788 235.219 475.888 234.724C475.032 234.229 475.032 233.419 475.888 232.879C476.743 232.338 478.183 232.384 479.084 232.879Z" fill="#222222"/>
<path d="M487.365 228.064C488.22 228.559 488.22 229.37 487.365 229.91C486.51 230.405 485.069 230.405 484.169 229.91C483.314 229.415 483.314 228.604 484.169 228.064C485.024 227.524 486.465 227.569 487.365 228.064Z" fill="#222222"/>
<path d="M495.695 223.291C496.55 223.786 496.55 224.597 495.695 225.137C494.84 225.632 493.399 225.632 492.499 225.137C491.644 224.642 491.644 223.831 492.499 223.291C493.354 222.796 494.795 222.796 495.695 223.291Z" fill="#222222"/>
<path d="M450.902 237.604C451.757 237.109 453.198 237.109 454.098 237.604C454.998 238.099 454.998 238.909 454.098 239.449C453.243 239.945 451.802 239.945 450.902 239.449C450.001 238.954 450.001 238.144 450.902 237.604Z" fill="#222222"/>
<path d="M462.382 232.834C463.237 233.329 463.237 234.14 462.382 234.68C461.527 235.22 460.086 235.175 459.186 234.68C458.285 234.185 458.331 233.374 459.186 232.834C460.041 232.339 461.482 232.339 462.382 232.834Z" fill="#222222"/>
<path d="M470.711 228.018C471.566 228.513 471.566 229.323 470.711 229.863C469.855 230.359 468.415 230.359 467.515 229.863C466.659 229.368 466.659 228.558 467.515 228.018C468.37 227.523 469.81 227.523 470.711 228.018Z" fill="#222222"/>
<path d="M478.994 223.248C479.849 223.743 479.849 224.554 478.994 225.094C478.138 225.589 476.698 225.589 475.798 225.094C474.942 224.599 474.942 223.789 475.798 223.248C476.653 222.753 478.093 222.753 478.994 223.248Z" fill="#222222"/>
<g clip-path="url(#clip0_428_31032)">
<path d="M326.362 228.911L326.348 225.89L466.608 225.498V70.8652H469.643V228.504L326.362 228.911Z" fill="#222222"/>
<path d="M323.97 226.573L323.955 223.567L464.216 223.161V68.5273H467.251V226.166L323.97 226.573Z" fill="white"/>
<path d="M480.397 68.8477L479.434 64.8399H477.114C474.59 63.2136 470.927 62.1826 466.827 62.1826C462.727 62.1826 459.065 63.2136 456.541 64.8399H454.309L453.243 68.8042H453.258C453.141 69.2107 453.068 69.6318 453.068 70.0675C453.068 74.4237 459.226 77.9523 466.813 77.9523C474.4 77.9523 480.557 74.4237 480.557 70.0675C480.557 69.6609 480.484 69.2543 480.382 68.8622L480.397 68.8477Z" fill="white"/>
<path d="M480.455 68.9639L479.492 64.9562H477.172C474.648 63.3298 470.986 62.2988 466.886 62.2988C465.981 62.2988 465.091 62.3569 464.23 62.4586C461.896 62.8942 459.824 63.6928 458.233 64.7238H457.008C456.876 64.8109 456.731 64.8836 456.599 64.9707H455.943L454.95 68.688H454.965C454.848 69.0946 454.775 69.5157 454.775 69.9513C454.775 74.3076 460.933 77.8362 468.52 77.8362C469.41 77.8362 470.285 77.7781 471.132 77.691C476.647 76.66 480.645 73.6977 480.645 70.1982C480.645 69.7916 480.572 69.385 480.47 68.993L480.455 68.9639Z" fill="#222222"/>
<path d="M466.827 78.4456C458.963 78.4456 452.572 74.6847 452.572 70.067C452.572 69.8202 452.601 69.5733 452.645 69.2974H452.616L452.762 68.673L453.915 64.3458H456.38C459.065 62.6469 462.859 61.6885 466.813 61.6885C470.767 61.6885 474.56 62.6614 477.245 64.3458H479.813L480.878 68.7311C481.01 69.2248 481.068 69.6459 481.068 70.0525C481.068 74.6702 474.677 78.4311 466.813 78.4311L466.827 78.4456ZM453.9 68.31L453.74 68.9489C453.623 69.37 453.564 69.7331 453.564 70.0816C453.564 74.1619 459.503 77.4727 466.813 77.4727C474.123 77.4727 480.061 74.1619 480.061 70.0816C480.061 69.7476 480.003 69.4136 479.901 69.007L479.025 65.3623H476.953L476.837 65.2751C474.298 63.6343 470.65 62.6904 466.827 62.6904C463.005 62.6904 459.357 63.6343 456.818 65.2751L456.687 65.3623H454.688L453.9 68.3245V68.31Z" fill="#222222"/>
<path d="M479.523 65.7546C479.523 69.7624 473.862 73.0151 466.858 73.0151C459.855 73.0151 454.193 69.7624 454.193 65.7546C454.193 61.7468 459.855 58.4941 466.858 58.4941C473.862 58.4941 479.523 61.7468 479.523 65.7546Z" fill="url(#paint2_linear_428_31032)"/>
<path d="M479.653 65.7544C479.653 64.3749 478.982 63.0971 477.815 62.008C475.495 60.5269 472.139 59.583 468.389 59.583C461.4 59.583 455.725 62.8357 455.725 66.8435C455.725 68.2229 456.396 69.5008 457.563 70.5899C459.883 72.071 463.239 73.0149 466.989 73.0149C473.978 73.0149 479.653 69.7622 479.653 65.7544Z" fill="white"/>
<path d="M466.872 73.5083C459.62 73.5083 453.711 70.0233 453.711 65.7542C453.711 61.485 459.62 58 466.872 58C474.123 58 480.033 61.485 480.033 65.7542C480.033 70.0233 474.123 73.5083 466.872 73.5083ZM466.872 58.9874C460.16 58.9874 454.703 62.0223 454.703 65.7542C454.703 69.486 460.16 72.5209 466.872 72.5209C473.583 72.5209 479.026 69.486 479.026 65.7542C479.026 62.0223 473.569 58.9874 466.872 58.9874Z" fill="#222222"/>
<path d="M473.262 65.3325C473.262 67.2057 470.373 68.7304 466.827 68.7304C463.282 68.7304 460.393 67.2057 460.393 65.3325C460.393 63.4593 463.282 61.9346 466.827 61.9346C470.373 61.9346 473.262 63.4593 473.262 65.3325Z" fill="url(#paint3_linear_428_31032)"/>
<path d="M466.887 61.9346C466.041 61.9346 465.238 62.0217 464.509 62.1814C463.021 62.8058 462.072 63.7642 462.072 64.8388C462.072 66.712 464.961 68.2366 468.507 68.2366C469.353 68.2366 470.156 68.1495 470.885 67.9898C472.373 67.3654 473.322 66.407 473.322 65.3325C473.322 63.4593 470.433 61.9346 466.887 61.9346Z" fill="url(#paint4_linear_428_31032)"/>
<path d="M466.828 69.239C462.932 69.239 459.883 67.5255 459.883 65.3329C459.883 63.1402 462.932 61.4268 466.828 61.4268C470.724 61.4268 473.773 63.1402 473.773 65.3329C473.773 67.5255 470.724 69.239 466.828 69.239ZM466.828 62.4287C463.603 62.4287 460.89 63.7646 460.89 65.3329C460.89 66.9011 463.603 68.2371 466.828 68.2371C470.053 68.2371 472.766 66.9011 472.766 65.3329C472.766 63.7646 470.053 62.4287 466.828 62.4287Z" fill="#222222"/>
<path d="M466.871 64.1278C469.658 64.1278 472.036 65.0717 472.926 66.3786C473.145 66.0301 473.262 65.667 473.262 65.2895C473.262 63.4163 470.373 61.8916 466.827 61.8916C463.282 61.8916 460.393 63.4163 460.393 65.2895C460.393 65.6961 460.538 66.0736 460.772 66.4366C461.633 65.0862 464.04 64.1278 466.871 64.1278Z" fill="#222222"/>
<path d="M461.195 66.713H460.363C460.057 66.2628 459.896 65.7836 459.896 65.2899C459.896 63.0973 462.946 61.3838 466.842 61.3838C470.737 61.3838 473.787 63.0973 473.787 65.2899C473.787 65.7546 473.641 66.2047 473.364 66.6404L472.036 67.2793L472.532 66.6549C471.7 65.4351 469.439 64.622 466.885 64.622C464.332 64.622 461.998 65.4787 461.21 66.713H461.195ZM466.827 62.3857C463.603 62.3857 460.889 63.7217 460.889 65.2899C460.889 65.3625 460.889 65.4351 460.903 65.5077C462.129 64.3606 464.39 63.62 466.871 63.62C469.351 63.62 471.525 64.317 472.766 65.4351C472.766 65.3916 472.766 65.3335 472.766 65.2899C472.766 63.7217 470.052 62.3857 466.827 62.3857Z" fill="#222222"/>
<path d="M464.085 73.0146L463.822 77.7049H469.571L474.692 76.398L477.45 75.2073L480.033 73.0146L480.631 70.1685L479.814 66.4512L478.413 68.731L476.443 70.3573L472.227 72.3321L466.872 73.0146H464.085Z" fill="#222222"/>
<path d="M454.703 67.7723L453.71 72.4335L453.068 69.5438L453.915 66.3057L454.703 67.7723Z" fill="#222222"/>
<path d="M336.825 224.106L335.862 220.098H333.542C331.017 218.471 327.355 217.44 323.255 217.44C319.155 217.44 315.493 218.471 312.969 220.098H310.736L309.671 224.062H309.686C309.569 224.469 309.496 224.89 309.496 225.325C309.496 229.682 315.653 233.21 323.241 233.21C330.828 233.21 336.985 229.682 336.985 225.325C336.985 224.919 336.912 224.512 336.81 224.12L336.825 224.106Z" fill="white"/>
<path d="M336.883 224.222L335.92 220.214H333.6C331.076 218.588 327.413 217.557 323.313 217.557C322.409 217.557 321.519 217.615 320.658 217.716C318.323 218.152 316.252 218.951 314.661 219.982H313.436C313.304 220.069 313.158 220.141 313.027 220.228H312.37L311.378 223.946H311.393C311.276 224.352 311.203 224.774 311.203 225.209C311.203 229.565 317.36 233.094 324.948 233.094C325.838 233.094 326.713 233.036 327.559 232.949C333.075 231.918 337.072 228.956 337.072 225.456C337.072 225.049 337 224.643 336.897 224.251L336.883 224.222Z" fill="#222222"/>
<path d="M323.255 233.703C315.391 233.703 309 229.943 309 225.325C309 225.078 309.029 224.831 309.073 224.555H309.044L309.19 223.931L310.342 219.604H312.808C315.493 217.905 319.286 216.946 323.241 216.946C327.195 216.946 330.988 217.919 333.673 219.604H336.241L337.306 223.989C337.437 224.483 337.496 224.904 337.496 225.31C337.496 229.928 331.105 233.689 323.241 233.689L323.255 233.703ZM310.328 223.568L310.167 224.207C310.051 224.628 309.992 224.991 309.992 225.339C309.992 229.42 315.931 232.731 323.241 232.731C330.55 232.731 336.489 229.42 336.489 225.339C336.489 225.005 336.431 224.671 336.328 224.265L335.453 220.62H333.381L333.264 220.533C330.726 218.892 327.078 217.948 323.255 217.948C319.432 217.948 315.785 218.892 313.246 220.533L313.129 220.62H311.13L310.342 223.582L310.328 223.568Z" fill="#222222"/>
<path d="M335.951 221.012C335.951 225.02 330.289 228.273 323.286 228.273C316.282 228.273 310.621 225.02 310.621 221.012C310.621 217.005 316.282 213.752 323.286 213.752C330.289 213.752 335.951 217.005 335.951 221.012Z" fill="url(#paint5_linear_428_31032)"/>
<path d="M336.081 221.012C336.081 219.633 335.41 218.355 334.243 217.266C331.923 215.785 328.567 214.841 324.817 214.841C317.828 214.841 312.152 218.094 312.152 222.101C312.152 223.481 312.824 224.759 313.991 225.848C316.311 227.329 319.667 228.273 323.416 228.273C330.405 228.273 336.081 225.02 336.081 221.012Z" fill="white"/>
<path d="M323.3 228.766C316.048 228.766 310.139 225.281 310.139 221.012C310.139 216.743 316.048 213.258 323.3 213.258C330.551 213.258 336.46 216.743 336.46 221.012C336.46 225.281 330.551 228.766 323.3 228.766ZM323.3 214.245C316.588 214.245 311.145 217.28 311.145 221.012C311.145 224.744 316.602 227.779 323.3 227.779C329.997 227.779 335.454 224.744 335.454 221.012C335.454 217.28 329.997 214.245 323.3 214.245Z" fill="#222222"/>
<path d="M329.689 220.59C329.689 222.463 326.8 223.988 323.255 223.988C319.709 223.988 316.82 222.463 316.82 220.59C316.82 218.717 319.709 217.192 323.255 217.192C326.8 217.192 329.689 218.717 329.689 220.59Z" fill="url(#paint6_linear_428_31032)"/>
<path d="M323.315 217.192C322.469 217.192 321.666 217.28 320.937 217.439C319.448 218.064 318.5 219.022 318.5 220.097C318.5 221.97 321.389 223.494 324.935 223.494C325.781 223.494 326.583 223.407 327.313 223.248C328.801 222.623 329.749 221.665 329.749 220.59C329.749 218.717 326.86 217.192 323.315 217.192Z" fill="url(#paint7_linear_428_31032)"/>
<path d="M323.256 224.497C319.36 224.497 316.311 222.783 316.311 220.591C316.311 218.398 319.36 216.685 323.256 216.685C327.151 216.685 330.201 218.398 330.201 220.591C330.201 222.783 327.151 224.497 323.256 224.497ZM323.256 217.687C320.031 217.687 317.317 219.022 317.317 220.591C317.317 222.159 320.031 223.495 323.256 223.495C326.48 223.495 329.194 222.159 329.194 220.591C329.194 219.022 326.48 217.687 323.256 217.687Z" fill="#222222"/>
<path d="M323.299 219.386C326.085 219.386 328.464 220.329 329.354 221.636C329.573 221.288 329.689 220.925 329.689 220.547C329.689 218.674 326.8 217.149 323.255 217.149C319.709 217.149 316.82 218.674 316.82 220.547C316.82 220.954 316.966 221.331 317.2 221.694C318.061 220.344 320.468 219.386 323.299 219.386Z" fill="#222222"/>
<path d="M317.623 221.971H316.791C316.485 221.521 316.324 221.041 316.324 220.548C316.324 218.355 319.374 216.642 323.269 216.642C327.165 216.642 330.215 218.355 330.215 220.548C330.215 221.012 330.069 221.463 329.791 221.898L328.464 222.537L328.96 221.913C328.128 220.693 325.867 219.88 323.313 219.88C320.76 219.88 318.425 220.736 317.637 221.971H317.623ZM323.255 217.644C320.03 217.644 317.316 218.979 317.316 220.548C317.316 220.62 317.316 220.693 317.331 220.766C318.557 219.618 320.818 218.878 323.299 218.878C325.779 218.878 327.953 219.575 329.193 220.693C329.193 220.649 329.193 220.591 329.193 220.548C329.193 218.979 326.479 217.644 323.255 217.644Z" fill="#222222"/>
<path d="M320.513 228.272L320.25 232.963H325.999L331.12 231.656L333.892 230.465L336.46 228.272L337.059 225.441L336.241 221.709L334.841 223.989L332.871 225.615L328.654 227.59L323.299 228.272H320.513Z" fill="#222222"/>
<path d="M311.13 223.03L310.138 227.691L309.496 224.802L310.342 221.563L311.13 223.03Z" fill="#222222"/>
<path d="M440.594 249.575L404.744 228.97C401.374 227.024 401.359 222.174 404.744 220.228L446.007 196.399L496.637 225.499L454.98 249.56C450.53 252.131 445.058 252.131 440.608 249.575H440.594Z" fill="#222222"/>
<path d="M410.406 179.178L393.32 153.272L436.305 128.572L453.405 154.478L410.406 179.178Z" fill="#222222"/>
<path d="M409.515 184.114L392.43 158.209L435.399 133.494L452.514 159.414L409.515 184.114Z" fill="white"/>
<path d="M410.319 179.569L392.912 153.185L436.392 128.194L453.814 154.579L410.319 179.569ZM393.729 153.374L410.494 178.8L452.982 154.376L436.188 128.949L393.715 153.374H393.729Z" fill="#222222"/>
<path d="M496.608 179.323L513.709 153.418L470.724 128.718L453.609 154.623L496.608 179.323Z" fill="#222222"/>
<path d="M497.454 184.115L514.54 158.21L471.57 133.495L454.455 159.415L497.454 184.115Z" fill="white"/>
<path d="M496.71 179.715L453.215 154.724L470.636 128.34L514.117 153.33L513.941 153.592L496.71 179.729V179.715ZM454.032 154.521L496.52 178.945L513.285 153.519L470.811 129.095L454.017 154.521H454.032Z" fill="#222222"/>
<path d="M410.623 179.323V225.05L453.622 249.764V204.023L410.623 179.323Z" fill="#222222"/>
<path d="M453.623 203.703L410.332 178.829V225.223L453.623 250.098L496.767 225.311L496.913 225.223V178.829L453.623 203.703ZM410.916 224.889V179.831L453.331 204.197V249.256L410.916 224.889Z" fill="url(#paint8_linear_428_31032)"/>
<path d="M496.623 179.322L453.624 204.022L410.625 179.322L453.624 154.622L496.623 179.322Z" fill="#222222"/>
<path d="M453.624 204.371L410.041 179.322L453.624 154.273L453.769 154.361L497.206 179.322L453.624 204.371ZM411.223 179.322L453.624 203.688L496.024 179.322L453.624 154.956L411.223 179.322Z" fill="url(#paint9_linear_428_31032)"/>
<path d="M462.8 238.307V230.204L458.744 232.542L465.937 216.859L473.131 224.28L469.293 226.487V234.589L462.8 238.321V238.307ZM463.559 228.912V237.014L468.549 234.154V226.051L471.92 224.105L466.171 218.166L460.422 230.712L463.574 228.897L463.559 228.912Z" fill="white"/>
<path d="M453.609 154.622L410.041 179.322L453.478 204.284L453.93 204.037L453.609 204.327V154.622Z" fill="url(#paint10_linear_428_31032)"/>
<path d="M453.607 204.022L425.126 204.966L381.281 180.223L410.623 179.322L453.607 204.022Z" fill="#222222"/>
<path d="M453.33 207.914L424.834 208.858L381.004 184.114L410.331 183.214L453.33 207.914Z" fill="white"/>
<path d="M425.054 205.257L424.981 205.213L380.246 179.961L410.697 179.018L410.77 179.061L454.644 204.269L425.054 205.242V205.257ZM382.333 180.484L425.2 204.676L452.601 203.776L410.551 179.613L382.333 180.484Z" fill="#222222"/>
<path d="M489.779 229.318L489.035 229.754V204.792L489.779 204.371V229.318Z" fill="#222222"/>
<path d="M453.623 204.022L482.119 204.966L525.949 180.223L496.622 179.322L453.623 204.022Z" fill="#222222"/>
<path d="M453.332 207.914L481.828 208.858L525.658 184.114L496.331 183.214L453.332 207.914Z" fill="white"/>
<path d="M482.192 205.257H482.104L452.602 204.284L496.549 179.032H496.636L527 179.976L482.192 205.272V205.257ZM454.644 203.761L482.046 204.662L524.913 180.47L496.695 179.599L454.644 203.761Z" fill="#222222"/>
<path d="M430.672 191.027L453.375 178.263L475.422 191.157L453.375 204.066L430.672 191.027Z" fill="#222222"/>
<path d="M433.779 192.769L454.484 181.138L473.422 192.115L453.375 203.906L433.779 192.769Z" fill="white"/>
<path d="M453.375 204.458L453.214 204.356L430.336 190.837L453.389 177.885L453.55 177.986L476.078 191.157L453.389 204.458H453.375ZM431.328 191.026L453.375 203.688L474.765 191.142L453.375 178.625L431.343 191.012L431.328 191.026Z" fill="url(#paint11_linear_428_31032)"/>
<path d="M454.148 193.466C454.673 193.771 454.673 194.25 454.148 194.555C453.623 194.86 452.777 194.86 452.251 194.555C451.726 194.25 451.726 193.771 452.251 193.466C452.777 193.161 453.623 193.161 454.148 193.466Z" fill="#222222"/>
<path d="M459.109 190.619C459.634 190.924 459.634 191.403 459.109 191.708C458.584 192.013 457.738 192.013 457.212 191.708C456.687 191.403 456.687 190.924 457.212 190.619C457.738 190.314 458.584 190.314 459.109 190.619Z" fill="#222222"/>
<path d="M464.07 187.774C464.595 188.079 464.595 188.558 464.07 188.863C463.545 189.168 462.699 189.168 462.173 188.863C461.648 188.558 461.648 188.079 462.173 187.774C462.699 187.469 463.545 187.469 464.07 187.774Z" fill="#222222"/>
<path d="M449.203 190.619C449.728 190.924 449.728 191.403 449.203 191.708C448.678 192.013 447.831 192.013 447.306 191.708C446.781 191.403 446.781 190.924 447.306 190.619C447.831 190.314 448.678 190.314 449.203 190.619Z" fill="#222222"/>
<path d="M454.148 187.774C454.673 188.079 454.673 188.558 454.148 188.863C453.623 189.168 452.777 189.168 452.251 188.863C451.726 188.558 451.726 188.079 452.251 187.774C452.777 187.469 453.623 187.469 454.148 187.774Z" fill="#222222"/>
<path d="M459.109 184.927C459.634 185.232 459.634 185.711 459.109 186.016C458.584 186.321 457.738 186.321 457.212 186.016C456.687 185.711 456.687 185.232 457.212 184.927C457.738 184.622 458.584 184.622 459.109 184.927Z" fill="#222222"/>
<path d="M444.242 187.774C444.767 188.079 444.767 188.558 444.242 188.863C443.717 189.168 442.87 189.168 442.345 188.863C441.82 188.558 441.82 188.079 442.345 187.774C442.87 187.469 443.717 187.469 444.242 187.774Z" fill="#222222"/>
<path d="M449.203 184.927C449.728 185.232 449.728 185.711 449.203 186.016C448.678 186.321 447.831 186.321 447.306 186.016C446.781 185.711 446.781 185.232 447.306 184.927C447.831 184.622 448.678 184.622 449.203 184.927Z" fill="#222222"/>
<path d="M454.148 182.081C454.673 182.386 454.673 182.865 454.148 183.17C453.623 183.475 452.777 183.475 452.251 183.17C451.726 182.865 451.726 182.386 452.251 182.081C452.777 181.776 453.623 181.776 454.148 182.081Z" fill="#222222"/>
</g>
<defs>
<radialGradient id="paint0_radial_428_31032" cx="0" cy="0" r="1" gradientUnits="userSpaceOnUse" gradientTransform="translate(17.7778 266.112) rotate(-35.247) scale(17.823 9.94927)">
<stop stop-color="#FFB6D5"/>
<stop offset="0.1" stop-color="#FFE3C0"/>
<stop offset="0.29" stop-color="#C7FBDB"/>
<stop offset="0.43" stop-color="#C7CDF4"/>
<stop offset="0.54" stop-color="#FFBCD4"/>
<stop offset="0.66" stop-color="#FFE0C3"/>
<stop offset="0.76" stop-color="#B0F1D4"/>
<stop offset="0.84" stop-color="#C9CEEC"/>
<stop offset="0.91" stop-color="#FFC1DA"/>
<stop offset="1" stop-color="#BDFFE3"/>
</radialGradient>
<radialGradient id="paint1_radial_428_31032" cx="0" cy="0" r="1" gradientUnits="userSpaceOnUse" gradientTransform="translate(26.7222 286.112) rotate(-11.4146) scale(51.9724 11.9417)">
<stop stop-color="#FFB6D5"/>
<stop offset="0.1" stop-color="#FFE3C0"/>
<stop offset="0.29" stop-color="#C7FBDB"/>
<stop offset="0.43" stop-color="#C7CDF4"/>
<stop offset="0.54" stop-color="#FFBCD4"/>
<stop offset="0.66" stop-color="#FFE0C3"/>
<stop offset="0.76" stop-color="#B0F1D4"/>
<stop offset="0.84" stop-color="#C9CEEC"/>
<stop offset="0.91" stop-color="#FFC1DA"/>
<stop offset="1" stop-color="#BDFFE3"/>
</radialGradient>
<linearGradient id="paint2_linear_428_31032" x1="455.868" y1="74.5762" x2="478.391" y2="59.7538" gradientUnits="userSpaceOnUse">
<stop stop-color="#FFB6D5"/>
<stop offset="0.1" stop-color="#FFE3C0"/>
<stop offset="0.29" stop-color="#C7FBDB"/>
<stop offset="0.43" stop-color="#C7CDF4"/>
<stop offset="0.54" stop-color="#FFBCD4"/>
<stop offset="0.66" stop-color="#FFE0C3"/>
<stop offset="0.76" stop-color="#B0F1D4"/>
<stop offset="0.84" stop-color="#C9CEEC"/>
<stop offset="0.91" stop-color="#FFC1DA"/>
<stop offset="1" stop-color="#BDFFE3"/>
</linearGradient>
<linearGradient id="paint3_linear_428_31032" x1="461.243" y1="69.461" x2="472.101" y2="61.7041" gradientUnits="userSpaceOnUse">
<stop stop-color="#FFB6D5"/>
<stop offset="0.1" stop-color="#FFE3C0"/>
<stop offset="0.29" stop-color="#C7FBDB"/>
<stop offset="0.43" stop-color="#C7CDF4"/>
<stop offset="0.54" stop-color="#FFBCD4"/>
<stop offset="0.66" stop-color="#FFE0C3"/>
<stop offset="0.76" stop-color="#B0F1D4"/>
<stop offset="0.84" stop-color="#C9CEEC"/>
<stop offset="0.91" stop-color="#FFC1DA"/>
<stop offset="1" stop-color="#BDFFE3"/>
</linearGradient>
<linearGradient id="paint4_linear_428_31032" x1="462.816" y1="68.9142" x2="472.678" y2="62.2724" gradientUnits="userSpaceOnUse">
<stop stop-color="#FFB6D5"/>
<stop offset="0.1" stop-color="#FFE3C0"/>
<stop offset="0.29" stop-color="#C7FBDB"/>
<stop offset="0.43" stop-color="#C7CDF4"/>
<stop offset="0.54" stop-color="#FFBCD4"/>
<stop offset="0.66" stop-color="#FFE0C3"/>
<stop offset="0.76" stop-color="#B0F1D4"/>
<stop offset="0.84" stop-color="#C9CEEC"/>
<stop offset="0.91" stop-color="#FFC1DA"/>
<stop offset="1" stop-color="#BDFFE3"/>
</linearGradient>
<linearGradient id="paint5_linear_428_31032" x1="312.296" y1="229.834" x2="334.819" y2="215.012" gradientUnits="userSpaceOnUse">
<stop stop-color="#FFB6D5"/>
<stop offset="0.1" stop-color="#FFE3C0"/>
<stop offset="0.29" stop-color="#C7FBDB"/>
<stop offset="0.43" stop-color="#C7CDF4"/>
<stop offset="0.54" stop-color="#FFBCD4"/>
<stop offset="0.66" stop-color="#FFE0C3"/>
<stop offset="0.76" stop-color="#B0F1D4"/>
<stop offset="0.84" stop-color="#C9CEEC"/>
<stop offset="0.91" stop-color="#FFC1DA"/>
<stop offset="1" stop-color="#BDFFE3"/>
</linearGradient>
<linearGradient id="paint6_linear_428_31032" x1="317.671" y1="224.719" x2="328.528" y2="216.962" gradientUnits="userSpaceOnUse">
<stop stop-color="#FFB6D5"/>
<stop offset="0.1" stop-color="#FFE3C0"/>
<stop offset="0.29" stop-color="#C7FBDB"/>
<stop offset="0.43" stop-color="#C7CDF4"/>
<stop offset="0.54" stop-color="#FFBCD4"/>
<stop offset="0.66" stop-color="#FFE0C3"/>
<stop offset="0.76" stop-color="#B0F1D4"/>
<stop offset="0.84" stop-color="#C9CEEC"/>
<stop offset="0.91" stop-color="#FFC1DA"/>
<stop offset="1" stop-color="#BDFFE3"/>
</linearGradient>
<linearGradient id="paint7_linear_428_31032" x1="319.244" y1="224.172" x2="329.106" y2="217.53" gradientUnits="userSpaceOnUse">
<stop stop-color="#FFB6D5"/>
<stop offset="0.1" stop-color="#FFE3C0"/>
<stop offset="0.29" stop-color="#C7FBDB"/>
<stop offset="0.43" stop-color="#C7CDF4"/>
<stop offset="0.54" stop-color="#FFBCD4"/>
<stop offset="0.66" stop-color="#FFE0C3"/>
<stop offset="0.76" stop-color="#B0F1D4"/>
<stop offset="0.84" stop-color="#C9CEEC"/>
<stop offset="0.91" stop-color="#FFC1DA"/>
<stop offset="1" stop-color="#BDFFE3"/>
</linearGradient>
<linearGradient id="paint8_linear_428_31032" x1="416.057" y1="257.76" x2="507.234" y2="215.97" gradientUnits="userSpaceOnUse">
<stop stop-color="#FFB6D5"/>
<stop offset="0.1" stop-color="#FFE3C0"/>
<stop offset="0.29" stop-color="#C7FBDB"/>
<stop offset="0.43" stop-color="#C7CDF4"/>
<stop offset="0.54" stop-color="#FFBCD4"/>
<stop offset="0.66" stop-color="#FFE0C3"/>
<stop offset="0.76" stop-color="#B0F1D4"/>
<stop offset="0.84" stop-color="#C9CEEC"/>
<stop offset="0.91" stop-color="#FFC1DA"/>
<stop offset="1" stop-color="#BDFFE3"/>
</linearGradient>
<linearGradient id="paint9_linear_428_31032" x1="415.804" y1="209.757" x2="493.43" y2="158.801" gradientUnits="userSpaceOnUse">
<stop stop-color="#FFB6D5"/>
<stop offset="0.1" stop-color="#FFE3C0"/>
<stop offset="0.29" stop-color="#C7FBDB"/>
<stop offset="0.43" stop-color="#C7CDF4"/>
<stop offset="0.54" stop-color="#FFBCD4"/>
<stop offset="0.66" stop-color="#FFE0C3"/>
<stop offset="0.76" stop-color="#B0F1D4"/>
<stop offset="0.84" stop-color="#C9CEEC"/>
<stop offset="0.91" stop-color="#FFC1DA"/>
<stop offset="1" stop-color="#BDFFE3"/>
</linearGradient>
<linearGradient id="paint10_linear_428_31032" x1="412.943" y1="209.671" x2="463.284" y2="192.901" gradientUnits="userSpaceOnUse">
<stop stop-color="#FFB6D5"/>
<stop offset="0.1" stop-color="#FFE3C0"/>
<stop offset="0.29" stop-color="#C7FBDB"/>
<stop offset="0.43" stop-color="#C7CDF4"/>
<stop offset="0.54" stop-color="#FFBCD4"/>
<stop offset="0.66" stop-color="#FFE0C3"/>
<stop offset="0.76" stop-color="#B0F1D4"/>
<stop offset="0.84" stop-color="#C9CEEC"/>
<stop offset="0.91" stop-color="#FFC1DA"/>
<stop offset="1" stop-color="#BDFFE3"/>
</linearGradient>
<linearGradient id="paint11_linear_428_31032" x1="433.36" y1="207.315" x2="474.359" y2="180.69" gradientUnits="userSpaceOnUse">
<stop stop-color="#FFB6D5"/>
<stop offset="0.1" stop-color="#FFE3C0"/>
<stop offset="0.29" stop-color="#C7FBDB"/>
<stop offset="0.43" stop-color="#C7CDF4"/>
<stop offset="0.54" stop-color="#FFBCD4"/>
<stop offset="0.66" stop-color="#FFE0C3"/>
<stop offset="0.76" stop-color="#B0F1D4"/>
<stop offset="0.84" stop-color="#C9CEEC"/>
<stop offset="0.91" stop-color="#FFC1DA"/>
<stop offset="1" stop-color="#BDFFE3"/>
</linearGradient>
<clipPath id="clip0_428_31032">
<rect width="218" height="193.491" fill="white" transform="translate(309 58)"/>
</clipPath>
</defs>
</svg>
