<svg width="306" height="306" viewBox="0 0 306 306" fill="none" xmlns="http://www.w3.org/2000/svg">
<path d="M152.435 296.775C229.749 296.775 292.425 233.054 292.425 154.449C292.425 75.8446 229.749 12.123 152.435 12.123C75.1208 12.123 12.4453 75.8446 12.4453 154.449C12.4453 233.054 75.1208 296.775 152.435 296.775Z" stroke="#494E56" stroke-width="0.5" stroke-miterlimit="10"/>
<path d="M152.436 275.308C218.089 275.308 271.311 221.198 271.311 154.449C271.311 87.7003 218.089 33.5898 152.436 33.5898C86.7827 33.5898 33.5605 87.7003 33.5605 154.449C33.5605 221.198 86.7827 275.308 152.436 275.308Z" stroke="#494E56" stroke-width="0.5" stroke-miterlimit="10"/>
<path d="M152.435 253.841C206.427 253.841 250.196 209.342 250.196 154.449C250.196 99.556 206.427 55.0566 152.435 55.0566C98.4437 55.0566 54.6748 99.556 54.6748 154.449C54.6748 209.342 98.4437 253.841 152.435 253.841Z" stroke="#494E56" stroke-width="0.5" stroke-miterlimit="10"/>
<path d="M152.436 232.386C194.772 232.386 229.093 197.493 229.093 154.45C229.093 111.407 194.772 76.5137 152.436 76.5137C110.1 76.5137 75.7793 111.407 75.7793 154.45C75.7793 197.493 110.1 232.386 152.436 232.386Z" stroke="#494E56" stroke-width="0.5" stroke-miterlimit="10"/>
<path d="M152.435 210.919C183.11 210.919 207.977 185.637 207.977 154.45C207.977 123.263 183.11 97.9805 152.435 97.9805C121.76 97.9805 96.8926 123.263 96.8926 154.45C96.8926 185.637 121.76 210.919 152.435 210.919Z" stroke="#494E56" stroke-width="0.5" stroke-miterlimit="10"/>
<path d="M152.435 189.452C171.449 189.452 186.863 173.781 186.863 154.449C186.863 135.118 171.449 119.447 152.435 119.447C133.422 119.447 118.008 135.118 118.008 154.449C118.008 173.781 133.422 189.452 152.435 189.452Z" stroke="#494E56" stroke-width="0.5" stroke-miterlimit="10"/>
<path d="M152.436 11.4375V297.461" stroke="#494E56" stroke-width="0.5" stroke-miterlimit="10"/>
<path d="M293.099 154.449H11.7715" stroke="#494E56" stroke-width="0.5" stroke-miterlimit="10"/>
<rect x="144.474" width="17" height="17" rx="2" fill="#222222"/>
<path d="M155.793 12.5288L150.771 7.99279L151.158 8.20879L151.185 12.2588H149.862L149.862 5.37379H149.916L154.83 9.89179L154.542 9.76579L154.515 5.63479H155.829L155.829 12.5288H155.793Z" fill="url(#paint0_radial_177_173189)"/>
<rect x="144.474" y="288.597" width="17" height="17" rx="2" fill="#222222"/>
<path d="M154.216 295.218C153.964 295.08 153.706 294.966 153.442 294.876C153.184 294.786 152.941 294.741 152.713 294.741C152.431 294.741 152.209 294.798 152.047 294.912C151.885 295.026 151.804 295.197 151.804 295.425C151.804 295.581 151.864 295.722 151.984 295.848C152.11 295.968 152.269 296.076 152.461 296.172C152.659 296.268 152.863 296.355 153.073 296.433C153.265 296.505 153.454 296.592 153.64 296.694C153.832 296.79 154.003 296.913 154.153 297.063C154.303 297.207 154.423 297.39 154.513 297.612C154.603 297.828 154.648 298.095 154.648 298.413C154.648 298.749 154.561 299.061 154.387 299.349C154.213 299.637 153.958 299.871 153.622 300.051C153.286 300.225 152.872 300.312 152.38 300.312C152.128 300.312 151.87 300.288 151.606 300.24C151.348 300.186 151.093 300.108 150.841 300.006C150.589 299.898 150.346 299.763 150.112 299.601L150.688 298.584C150.844 298.698 151.012 298.8 151.192 298.89C151.378 298.974 151.564 299.04 151.75 299.088C151.936 299.136 152.107 299.16 152.263 299.16C152.419 299.16 152.575 299.139 152.731 299.097C152.893 299.049 153.025 298.971 153.127 298.863C153.235 298.755 153.289 298.605 153.289 298.413C153.289 298.281 153.244 298.161 153.154 298.053C153.07 297.945 152.953 297.846 152.803 297.756C152.659 297.666 152.5 297.588 152.326 297.522C152.122 297.444 151.912 297.354 151.696 297.252C151.48 297.15 151.276 297.027 151.084 296.883C150.898 296.733 150.745 296.55 150.625 296.334C150.511 296.112 150.454 295.842 150.454 295.524C150.454 295.14 150.538 294.807 150.706 294.525C150.88 294.243 151.123 294.021 151.435 293.859C151.747 293.691 152.107 293.598 152.515 293.58C153.049 293.58 153.481 293.643 153.811 293.769C154.147 293.895 154.447 294.045 154.711 294.219L154.216 295.218Z" fill="url(#paint1_radial_177_173189)"/>
<rect y="144.333" width="17" height="17" rx="2" fill="#222222"/>
<path d="M3.49894 150.039H5.02894L6.44194 154.197L6.23494 154.107L7.46794 151.038L8.07094 152.829L6.16294 156.924L3.49894 150.039ZM6.81994 150.039H8.11594L9.74494 154.062L9.51094 154.026L10.7259 150.039H12.1299L9.57394 156.906L6.81994 150.039Z" fill="url(#paint2_radial_177_173189)"/>
<rect x="288.947" y="144.333" width="17" height="17" rx="2" fill="#222222"/>
<path d="M295.153 149.995H299.671L299.671 151.255H296.458L296.458 152.668H299.302L299.302 153.928H296.458L296.458 155.359H299.797L299.797 156.619H295.153L295.153 149.995Z" fill="url(#paint3_radial_177_173189)"/>
<defs>
<radialGradient id="paint0_radial_177_173189" cx="0" cy="0" r="1" gradientUnits="userSpaceOnUse" gradientTransform="translate(156.688 7.69262) rotate(-35.6952) scale(20.3123 11.4003)">
<stop stop-color="#FFB6D5"/>
<stop offset="0.1" stop-color="#FFE3C0"/>
<stop offset="0.29" stop-color="#C7FBDB"/>
<stop offset="0.43" stop-color="#C7CDF4"/>
<stop offset="0.54" stop-color="#FFBCD4"/>
<stop offset="0.66" stop-color="#FFE0C3"/>
<stop offset="0.76" stop-color="#B0F1D4"/>
<stop offset="0.84" stop-color="#C9CEEC"/>
<stop offset="0.91" stop-color="#FFC1DA"/>
<stop offset="1" stop-color="#BDFFE3"/>
</radialGradient>
<radialGradient id="paint1_radial_177_173189" cx="0" cy="0" r="1" gradientUnits="userSpaceOnUse" gradientTransform="translate(155.264 295.538) rotate(-43.769) scale(16.1781 9.57206)">
<stop stop-color="#FFB6D5"/>
<stop offset="0.1" stop-color="#FFE3C0"/>
<stop offset="0.29" stop-color="#C7FBDB"/>
<stop offset="0.43" stop-color="#C7CDF4"/>
<stop offset="0.54" stop-color="#FFBCD4"/>
<stop offset="0.66" stop-color="#FFE0C3"/>
<stop offset="0.76" stop-color="#B0F1D4"/>
<stop offset="0.84" stop-color="#C9CEEC"/>
<stop offset="0.91" stop-color="#FFC1DA"/>
<stop offset="1" stop-color="#BDFFE3"/>
</radialGradient>
<radialGradient id="paint2_radial_177_173189" cx="0" cy="0" r="1" gradientUnits="userSpaceOnUse" gradientTransform="translate(12.2777 151.916) rotate(-29.8884) scale(22.4583 11.4923)">
<stop stop-color="#FFB6D5"/>
<stop offset="0.1" stop-color="#FFE3C0"/>
<stop offset="0.29" stop-color="#C7FBDB"/>
<stop offset="0.43" stop-color="#C7CDF4"/>
<stop offset="0.54" stop-color="#FFBCD4"/>
<stop offset="0.66" stop-color="#FFE0C3"/>
<stop offset="0.76" stop-color="#B0F1D4"/>
<stop offset="0.84" stop-color="#C9CEEC"/>
<stop offset="0.91" stop-color="#FFC1DA"/>
<stop offset="1" stop-color="#BDFFE3"/>
</radialGradient>
<radialGradient id="paint3_radial_177_173189" cx="0" cy="0" r="1" gradientUnits="userSpaceOnUse" gradientTransform="translate(299.738 151.917) rotate(-43.769) scale(16.1781 9.57206)">
<stop stop-color="#FFB6D5"/>
<stop offset="0.1" stop-color="#FFE3C0"/>
<stop offset="0.29" stop-color="#C7FBDB"/>
<stop offset="0.43" stop-color="#C7CDF4"/>
<stop offset="0.54" stop-color="#FFBCD4"/>
<stop offset="0.66" stop-color="#FFE0C3"/>
<stop offset="0.76" stop-color="#B0F1D4"/>
<stop offset="0.84" stop-color="#C9CEEC"/>
<stop offset="0.91" stop-color="#FFC1DA"/>
<stop offset="1" stop-color="#BDFFE3"/>
</radialGradient>
</defs>
</svg>
