<svg width="818" height="273" viewBox="0 0 818 273" fill="none" xmlns="http://www.w3.org/2000/svg">
<rect y="258" width="33" height="15" rx="2" fill="#222222"/>
<path d="M44.67 269.04C44.47 269.04 44.3 269.027 44.16 269V268C44.2667 268.027 44.3867 268.04 44.52 268.04C44.74 268.04 44.9033 267.987 45.01 267.88C45.1167 267.767 45.17 267.597 45.17 267.37V262H46.27V267.34C46.27 267.913 46.1367 268.34 45.87 268.62C45.61 268.9 45.21 269.04 44.67 269.04ZM47.7012 262H49.1912L50.3312 269H49.2312L49.0312 267.61V267.63H47.7812L47.5812 269H46.5612L47.7012 262ZM48.9012 266.68L48.4112 263.22H48.3912L47.9112 266.68H48.9012ZM50.6792 262H52.0592L53.1292 266.19H53.1492V262H54.1292V269H52.9992L51.6792 263.89H51.6592V269H50.6792V262Z" fill="#222222"/>
<path d="M106.416 262H109.326V263H107.516V264.95H108.936V265.95H107.516V269H106.416V262ZM109.668 262H112.668V263H110.768V264.85H112.278V265.85H110.768V268H112.668V269H109.668V262ZM113.115 262H114.775C115.341 262 115.755 262.133 116.015 262.4C116.275 262.66 116.405 263.063 116.405 263.61V263.89C116.405 264.25 116.345 264.543 116.225 264.77C116.111 264.997 115.935 265.16 115.695 265.26V265.28C116.241 265.467 116.515 265.953 116.515 266.74V267.34C116.515 267.88 116.371 268.293 116.085 268.58C115.805 268.86 115.391 269 114.845 269H113.115V262ZM114.645 264.85C114.865 264.85 115.028 264.793 115.135 264.68C115.248 264.567 115.305 264.377 115.305 264.11V263.72C115.305 263.467 115.258 263.283 115.165 263.17C115.078 263.057 114.938 263 114.745 263H114.215V264.85H114.645ZM114.845 268C115.038 268 115.181 267.95 115.275 267.85C115.368 267.743 115.415 267.563 115.415 267.31V266.7C115.415 266.38 115.358 266.16 115.245 266.04C115.138 265.913 114.958 265.85 114.705 265.85H114.215V268H114.845Z" fill="#222222"/>
<path d="M171.521 262H173.091L173.791 267.01H173.811L174.511 262H176.081V269H175.041V263.7H175.021L174.221 269H173.301L172.501 263.7H172.481V269H171.521V262ZM177.566 262H179.056L180.196 269H179.096L178.896 267.61V267.63H177.646L177.446 269H176.426L177.566 262ZM178.766 266.68L178.276 263.22H178.256L177.776 266.68H178.766ZM180.544 262H182.174C182.741 262 183.154 262.133 183.414 262.4C183.674 262.66 183.804 263.063 183.804 263.61V264.04C183.804 264.767 183.564 265.227 183.084 265.42V265.44C183.351 265.52 183.538 265.683 183.644 265.93C183.758 266.177 183.814 266.507 183.814 266.92V268.15C183.814 268.35 183.821 268.513 183.834 268.64C183.848 268.76 183.881 268.88 183.934 269H182.814C182.774 268.887 182.748 268.78 182.734 268.68C182.721 268.58 182.714 268.4 182.714 268.14V266.86C182.714 266.54 182.661 266.317 182.554 266.19C182.454 266.063 182.278 266 182.024 266H181.644V269H180.544V262ZM182.044 265C182.264 265 182.428 264.943 182.534 264.83C182.648 264.717 182.704 264.527 182.704 264.26V263.72C182.704 263.467 182.658 263.283 182.564 263.17C182.478 263.057 182.338 263 182.144 263H181.644V265H182.044Z" fill="#222222"/>
<path d="M238.511 262H240.001L241.141 269H240.041L239.841 267.61V267.63H238.591L238.391 269H237.371L238.511 262ZM239.711 266.68L239.221 263.22H239.201L238.721 266.68H239.711ZM241.489 262H243.109C243.656 262 244.066 262.147 244.339 262.44C244.612 262.733 244.749 263.163 244.749 263.73V264.42C244.749 264.987 244.612 265.417 244.339 265.71C244.066 266.003 243.656 266.15 243.109 266.15H242.589V269H241.489V262ZM243.109 265.15C243.289 265.15 243.422 265.1 243.509 265C243.602 264.9 243.649 264.73 243.649 264.49V263.66C243.649 263.42 243.602 263.25 243.509 263.15C243.422 263.05 243.289 263 243.109 263H242.589V265.15H243.109ZM245.161 262H246.791C247.357 262 247.771 262.133 248.031 262.4C248.291 262.66 248.421 263.063 248.421 263.61V264.04C248.421 264.767 248.181 265.227 247.701 265.42V265.44C247.967 265.52 248.154 265.683 248.261 265.93C248.374 266.177 248.431 266.507 248.431 266.92V268.15C248.431 268.35 248.437 268.513 248.451 268.64C248.464 268.76 248.497 268.88 248.551 269H247.431C247.391 268.887 247.364 268.78 247.351 268.68C247.337 268.58 247.331 268.4 247.331 268.14V266.86C247.331 266.54 247.277 266.317 247.171 266.19C247.071 266.063 246.894 266 246.641 266H246.261V269H245.161V262ZM246.661 265C246.881 265 247.044 264.943 247.151 264.83C247.264 264.717 247.321 264.527 247.321 264.26V263.72C247.321 263.467 247.274 263.283 247.181 263.17C247.094 263.057 246.954 263 246.761 263H246.261V265H246.661Z" fill="#222222"/>
<path d="M303.8 262H305.37L306.07 267.01H306.09L306.79 262H308.36V269H307.32V263.7H307.3L306.5 269H305.58L304.78 263.7H304.76V269H303.8V262ZM309.845 262H311.335L312.475 269H311.375L311.175 267.61V267.63H309.925L309.725 269H308.705L309.845 262ZM311.045 266.68L310.555 263.22H310.535L310.055 266.68H311.045ZM313.374 266.02L312.044 262H313.214L313.964 264.57H313.984L314.734 262H315.804L314.474 266.02V269H313.374V266.02Z" fill="#222222"/>
<path d="M371.233 269.04C371.033 269.04 370.863 269.027 370.723 269V268C370.829 268.027 370.949 268.04 371.083 268.04C371.303 268.04 371.466 267.987 371.573 267.88C371.679 267.767 371.733 267.597 371.733 267.37V262H372.833V267.34C372.833 267.913 372.699 268.34 372.433 268.62C372.173 268.9 371.773 269.04 371.233 269.04ZM375.033 269.1C374.5 269.1 374.093 268.95 373.813 268.65C373.533 268.343 373.393 267.907 373.393 267.34V262H374.493V267.42C374.493 267.66 374.54 267.833 374.633 267.94C374.733 268.047 374.873 268.1 375.053 268.1C375.233 268.1 375.37 268.047 375.463 267.94C375.563 267.833 375.613 267.66 375.613 267.42V262H376.673V267.34C376.673 267.907 376.533 268.343 376.253 268.65C375.973 268.95 375.567 269.1 375.033 269.1ZM377.271 262H378.651L379.721 266.19H379.741V262H380.721V269H379.591L378.271 263.89H378.251V269H377.271V262ZM381.353 262H384.353V263H382.453V264.85H383.963V265.85H382.453V268H384.353V269H381.353V262Z" fill="#222222"/>
<path d="M439.439 269.04C439.239 269.04 439.089 269.03 438.929 269V268C439.049 268.03 439.169 268.04 439.289 268.04C439.729 268.04 439.939 267.83 439.939 267.37V262H441.039V267.34C441.039 268.49 440.519 269.04 439.439 269.04ZM443.239 269.1C442.159 269.1 441.599 268.46 441.599 267.34V262H442.699V267.42C442.699 267.92 442.909 268.1 443.259 268.1C443.609 268.1 443.819 267.92 443.819 267.42V262H444.879V267.34C444.879 268.46 444.319 269.1 443.239 269.1ZM445.477 269V262H446.577V268H448.387V269H445.477ZM448.86 269V266.02L447.53 262H448.7L449.45 264.57H449.47L450.22 262H451.29L449.96 266.02V269H448.86Z" fill="#222222"/>
<path d="M502.961 269L504.101 262H505.591L506.731 269H505.631L505.431 267.61V267.63H504.181L503.981 269H502.961ZM504.311 266.68H505.301L504.811 263.22H504.791L504.311 266.68ZM508.659 269.1C507.579 269.1 507.019 268.46 507.019 267.34V262H508.119V267.42C508.119 267.92 508.329 268.1 508.679 268.1C509.029 268.1 509.239 267.92 509.239 267.42V262H510.299V267.34C510.299 268.46 509.739 269.1 508.659 269.1ZM512.457 269.1C511.377 269.1 510.817 268.46 510.817 267.34V263.66C510.817 262.54 511.377 261.9 512.457 261.9C513.537 261.9 514.097 262.54 514.097 263.66V264.26H513.057V263.59C513.057 263.09 512.837 262.9 512.487 262.9C512.137 262.9 511.917 263.09 511.917 263.59V267.42C511.917 267.92 512.137 268.1 512.487 268.1C512.837 268.1 513.057 267.92 513.057 267.42V266.05H512.507V265.05H514.097V267.34C514.097 268.46 513.537 269.1 512.457 269.1Z" fill="#222222"/>
<path d="M571.854 269.1C570.774 269.1 570.234 268.46 570.234 267.34V266.94H571.274V267.42C571.274 267.92 571.494 268.1 571.844 268.1C572.194 268.1 572.414 267.92 572.414 267.4C572.414 266.82 572.194 266.45 571.474 265.82C570.554 265.01 570.254 264.44 570.254 263.64C570.254 262.54 570.824 261.9 571.894 261.9C572.964 261.9 573.494 262.54 573.494 263.66V263.95H572.454V263.59C572.454 263.09 572.254 262.9 571.904 262.9C571.554 262.9 571.354 263.09 571.354 263.57C571.354 264.08 571.584 264.45 572.304 265.08C573.224 265.89 573.514 266.45 573.514 267.32C573.514 268.46 572.934 269.1 571.854 269.1ZM573.959 269V262H576.959V263H575.059V264.85H576.569V265.85H575.059V268H576.959V269H573.959ZM577.406 269V262H579.026C580.126 262 580.666 262.61 580.666 263.73V264.42C580.666 265.54 580.126 266.15 579.026 266.15H578.506V269H577.406ZM578.506 265.15H579.026C579.376 265.15 579.566 264.99 579.566 264.49V263.66C579.566 263.16 579.376 263 579.026 263H578.506V265.15Z" fill="#222222"/>
<path d="M638.153 269.1C637.073 269.1 636.483 268.46 636.483 267.34V263.66C636.483 262.54 637.073 261.9 638.153 261.9C639.233 261.9 639.823 262.54 639.823 263.66V267.34C639.823 268.46 639.233 269.1 638.153 269.1ZM638.153 268.1C638.503 268.1 638.723 267.91 638.723 267.41V263.59C638.723 263.09 638.503 262.9 638.153 262.9C637.803 262.9 637.583 263.09 637.583 263.59V267.41C637.583 267.91 637.803 268.1 638.153 268.1ZM641.932 269.1C640.872 269.1 640.312 268.46 640.312 267.38V263.62C640.312 262.54 640.872 261.9 641.932 261.9C642.992 261.9 643.552 262.54 643.552 263.62V264.36H642.512V263.55C642.512 263.09 642.292 262.9 641.962 262.9C641.632 262.9 641.412 263.09 641.412 263.55V267.46C641.412 267.92 641.632 268.1 641.962 268.1C642.292 268.1 642.512 267.92 642.512 267.46V266.39H643.552V267.38C643.552 268.46 642.992 269.1 641.932 269.1ZM644.884 269V263H643.734V262H647.134V263H645.984V269H644.884Z" fill="#222222"/>
<path d="M701.669 263H703.049L704.119 267.19H704.139V263H705.119V270H703.989L702.669 264.89H702.649V270H701.669V263ZM707.341 270.1C706.801 270.1 706.387 269.947 706.101 269.64C705.814 269.333 705.671 268.9 705.671 268.34V264.66C705.671 264.1 705.814 263.667 706.101 263.36C706.387 263.053 706.801 262.9 707.341 262.9C707.881 262.9 708.294 263.053 708.581 263.36C708.867 263.667 709.011 264.1 709.011 264.66V268.34C709.011 268.9 708.867 269.333 708.581 269.64C708.294 269.947 707.881 270.1 707.341 270.1ZM707.341 269.1C707.721 269.1 707.911 268.87 707.911 268.41V264.59C707.911 264.13 707.721 263.9 707.341 263.9C706.961 263.9 706.771 264.13 706.771 264.59V268.41C706.771 268.87 706.961 269.1 707.341 269.1ZM709.259 263H710.369L711.089 268.43H711.109L711.829 263H712.839L711.779 270H710.319L709.259 263Z" fill="#222222"/>
<path d="M768.842 263H770.522C771.068 263 771.478 263.147 771.752 263.44C772.025 263.733 772.162 264.163 772.162 264.73V268.27C772.162 268.837 772.025 269.267 771.752 269.56C771.478 269.853 771.068 270 770.522 270H768.842V263ZM770.502 269C770.682 269 770.818 268.947 770.912 268.84C771.012 268.733 771.062 268.56 771.062 268.32V264.68C771.062 264.44 771.012 264.267 770.912 264.16C770.818 264.053 770.682 264 770.502 264H769.942V269H770.502ZM772.718 263H775.718V264H773.818V265.85H775.328V266.85H773.818V269H775.718V270H772.718V263ZM777.716 270.1C777.189 270.1 776.786 269.95 776.506 269.65C776.232 269.35 776.096 268.927 776.096 268.38V264.62C776.096 264.073 776.232 263.65 776.506 263.35C776.786 263.05 777.189 262.9 777.716 262.9C778.242 262.9 778.642 263.05 778.916 263.35C779.196 263.65 779.336 264.073 779.336 264.62V265.36H778.296V264.55C778.296 264.117 778.112 263.9 777.746 263.9C777.379 263.9 777.196 264.117 777.196 264.55V268.46C777.196 268.887 777.379 269.1 777.746 269.1C778.112 269.1 778.296 268.887 778.296 268.46V267.39H779.336V268.38C779.336 268.927 779.196 269.35 778.916 269.65C778.642 269.95 778.242 270.1 777.716 270.1Z" fill="#222222"/>
<path d="M3.194 224.245L3.194 225.28L2.492 225.28C2.492 224.998 2.468 224.773 2.42 224.605C2.372 224.431 2.294 224.293 2.186 224.191C2.072 224.089 1.91 223.999 1.7 223.921L1.7 223.255L8 223.255L8 224.245L3.194 224.245ZM8.09 220.782C8.09 221.268 7.952 221.64 7.676 221.898C7.4 222.156 7.01 222.285 6.506 222.285L3.194 222.285C2.69 222.285 2.3 222.156 2.024 221.898C1.748 221.64 1.61 221.268 1.61 220.782C1.61 220.296 1.748 219.924 2.024 219.666C2.3 219.408 2.69 219.279 3.194 219.279L6.506 219.279C7.01 219.279 7.4 219.408 7.676 219.666C7.952 219.924 8.09 220.296 8.09 220.782ZM7.19 220.782C7.19 220.44 6.983 220.269 6.569 220.269L3.131 220.269C2.717 220.269 2.51 220.44 2.51 220.782C2.51 221.124 2.717 221.295 3.131 221.295L6.569 221.295C6.983 221.295 7.19 221.124 7.19 220.782Z" fill="#222222"/>
<path d="M8.09 177.669C8.09 178.155 7.955 178.524 7.685 178.776C7.415 179.022 7.028 179.145 6.524 179.145L6.011 179.145L6.011 178.209L6.569 178.209C6.983 178.209 7.19 178.038 7.19 177.696C7.19 177.528 7.139 177.402 7.037 177.318C6.929 177.228 6.743 177.183 6.479 177.183L5.966 177.183C5.678 177.183 5.474 177.234 5.354 177.336C5.228 177.438 5.165 177.603 5.165 177.831L5.165 178.164L4.265 178.164L4.265 177.804C4.265 177.606 4.214 177.459 4.112 177.363C4.01 177.261 3.839 177.21 3.599 177.21L3.14 177.21C2.924 177.21 2.765 177.255 2.663 177.345C2.561 177.435 2.51 177.555 2.51 177.705C2.51 178.023 2.705 178.182 3.095 178.182L3.509 178.182L3.509 179.118L3.176 179.118C2.672 179.118 2.285 178.995 2.015 178.749C1.745 178.497 1.61 178.137 1.61 177.669C1.61 177.195 1.745 176.835 2.015 176.589C2.279 176.343 2.663 176.22 3.167 176.22L3.392 176.22C3.734 176.22 4.01 176.277 4.22 176.391C4.424 176.505 4.571 176.682 4.661 176.922L4.679 176.922C4.775 176.664 4.931 176.478 5.147 176.364C5.363 176.25 5.639 176.193 5.975 176.193L6.533 176.193C7.037 176.193 7.424 176.319 7.694 176.571C7.958 176.817 8.09 177.183 8.09 177.669ZM8.09 174.224C8.09 174.71 7.952 175.082 7.676 175.34C7.4 175.598 7.01 175.727 6.506 175.727L3.194 175.727C2.69 175.727 2.3 175.598 2.024 175.34C1.748 175.082 1.61 174.71 1.61 174.224C1.61 173.738 1.748 173.366 2.024 173.108C2.3 172.85 2.69 172.721 3.194 172.721L6.506 172.721C7.01 172.721 7.4 172.85 7.676 173.108C7.952 173.366 8.09 173.738 8.09 174.224ZM7.19 174.224C7.19 173.882 6.983 173.711 6.569 173.711L3.131 173.711C2.717 173.711 2.51 173.882 2.51 174.224C2.51 174.566 2.717 174.737 3.131 174.737L6.569 174.737C6.983 174.737 7.19 174.566 7.19 174.224Z" fill="#222222"/>
<path d="M8 153.168L6.857 153.168L6.857 155.058L5.957 155.058L1.7 153.258L1.7 152.178L5.957 152.178L5.957 151.71L6.857 151.71L6.857 152.178L8 152.178L8 153.168ZM5.957 154.158L5.957 153.168L3.5 153.168L3.5 153.186L5.957 154.158ZM8.09 149.975C8.09 150.947 7.514 151.478 6.506 151.478L3.194 151.478C2.186 151.478 1.61 150.947 1.61 149.975C1.61 149.003 2.186 148.472 3.194 148.472L6.506 148.472C7.514 148.472 8.09 149.003 8.09 149.975ZM7.19 149.975C7.19 149.66 7.019 149.462 6.569 149.462L3.131 149.462C2.681 149.462 2.51 149.66 2.51 149.975C2.51 150.29 2.681 150.488 3.131 150.488L6.569 150.488C7.019 150.488 7.19 150.29 7.19 149.975Z" fill="#222222"/>
<path d="M8.09 129.126C8.09 130.098 7.514 130.602 6.506 130.602L6.011 130.602L6.011 129.666L6.578 129.666C7.028 129.666 7.19 129.468 7.19 129.153C7.19 128.838 7.028 128.64 6.578 128.64L5.165 128.64C4.715 128.64 4.544 128.838 4.544 129.153C4.544 129.468 4.715 129.666 5.165 129.666L5.219 129.666L5.219 130.602L1.7 130.422L1.7 127.812L2.6 127.812L2.6 129.54L4.103 129.621L4.103 129.603C3.806 129.423 3.644 129.144 3.644 128.748C3.644 128.019 4.157 127.65 5.084 127.65L6.506 127.65C7.514 127.65 8.09 128.154 8.09 129.126ZM8.09 125.726C8.09 126.698 7.514 127.229 6.506 127.229L3.194 127.229C2.186 127.229 1.61 126.698 1.61 125.726C1.61 124.754 2.186 124.223 3.194 124.223L6.506 124.223C7.514 124.223 8.09 124.754 8.09 125.726ZM7.19 125.726C7.19 125.411 7.019 125.213 6.569 125.213L3.131 125.213C2.681 125.213 2.51 125.411 2.51 125.726C2.51 126.041 2.681 126.239 3.131 126.239L6.569 126.239C7.019 126.239 7.19 126.041 7.19 125.726Z" fill="#222222"/>
<path d="M8.09 105.838C8.09 106.81 7.514 107.341 6.506 107.341L3.248 107.341C2.186 107.341 1.61 106.855 1.61 105.829C1.61 104.857 2.186 104.353 3.194 104.353L3.311 104.353L3.311 105.289L3.131 105.289C2.681 105.289 2.51 105.487 2.51 105.802C2.51 106.153 2.681 106.351 3.284 106.351L4.49 106.351L4.49 106.333C4.13 106.162 3.941 105.874 3.941 105.433C3.941 104.704 4.454 104.335 5.381 104.335L6.506 104.335C7.514 104.335 8.09 104.866 8.09 105.838ZM7.19 105.838C7.19 105.496 6.992 105.325 6.578 105.325L5.462 105.325C5.039 105.325 4.841 105.496 4.841 105.838C4.841 106.18 5.039 106.351 5.462 106.351L6.578 106.351C6.992 106.351 7.19 106.18 7.19 105.838ZM8.09 102.447C8.09 103.419 7.514 103.95 6.506 103.95L3.194 103.95C2.186 103.95 1.61 103.419 1.61 102.447C1.61 101.475 2.186 100.944 3.194 100.944L6.506 100.944C7.514 100.944 8.09 101.475 8.09 102.447ZM7.19 102.447C7.19 102.132 7.019 101.934 6.569 101.934L3.131 101.934C2.681 101.934 2.51 102.132 2.51 102.447C2.51 102.762 2.681 102.96 3.131 102.96L6.569 102.96C7.019 102.96 7.19 102.762 7.19 102.447Z" fill="#222222"/>
<path d="M2.6 81.1123L2.6 83.1103L1.7 83.1103L1.7 80.1403L2.564 80.1403L8 81.6883L8 82.6963L2.6 81.1123ZM8.09 78.1985C8.09 78.6845 7.952 79.0565 7.676 79.3145C7.4 79.5725 7.01 79.7015 6.506 79.7015L3.194 79.7015C2.69 79.7015 2.3 79.5725 2.024 79.3145C1.748 79.0565 1.61 78.6845 1.61 78.1985C1.61 77.7125 1.748 77.3405 2.024 77.0825C2.3 76.8245 2.69 76.6955 3.194 76.6955L6.506 76.6955C7.01 76.6955 7.4 76.8245 7.676 77.0825C7.952 77.3405 8.09 77.7125 8.09 78.1985ZM7.19 78.1985C7.19 77.8565 6.983 77.6855 6.569 77.6855L3.131 77.6855C2.717 77.6855 2.51 77.8565 2.51 78.1985C2.51 78.5405 2.717 78.7115 3.131 78.7115L6.569 78.7115C6.983 78.7115 7.19 78.5405 7.19 78.1985Z" fill="#222222"/>
<path d="M8.09 57.3675C8.09 58.3665 7.541 58.9155 6.533 58.9155L5.975 58.9155C5.372 58.9155 4.931 58.7355 4.688 58.2675L4.67 58.2675C4.445 58.6815 4.049 58.8795 3.428 58.8795L3.167 58.8795C2.159 58.8795 1.61 58.3305 1.61 57.3675C1.61 56.4045 2.159 55.8555 3.167 55.8555L3.428 55.8555C4.049 55.8555 4.445 56.0625 4.67 56.4675L4.688 56.4675C4.931 55.9995 5.372 55.8195 5.975 55.8195L6.533 55.8195C7.541 55.8195 8.09 56.3685 8.09 57.3675ZM4.265 57.3675C4.265 57.0255 4.049 56.8455 3.635 56.8455L3.14 56.8455C2.726 56.8455 2.51 57.0255 2.51 57.3675C2.51 57.7095 2.726 57.8895 3.14 57.8895L3.635 57.8895C4.049 57.8895 4.265 57.7095 4.265 57.3675ZM7.19 57.3675C7.19 56.9985 6.956 56.8095 6.479 56.8095L5.876 56.8095C5.399 56.8095 5.165 56.9985 5.165 57.3675C5.165 57.7365 5.399 57.9255 5.876 57.9255L6.479 57.9255C6.956 57.9255 7.19 57.7365 7.19 57.3675ZM8.09 53.9497C8.09 54.9217 7.514 55.4527 6.506 55.4527L3.194 55.4527C2.186 55.4527 1.61 54.9217 1.61 53.9497C1.61 52.9777 2.186 52.4467 3.194 52.4467L6.506 52.4467C7.514 52.4467 8.09 52.9777 8.09 53.9497ZM7.19 53.9497C7.19 53.6347 7.019 53.4367 6.569 53.4367L3.131 53.4367C2.681 53.4367 2.51 53.6347 2.51 53.9497C2.51 54.2647 2.681 54.4627 3.131 54.4627L6.569 54.4627C7.019 54.4627 7.19 54.2647 7.19 53.9497Z" fill="#222222"/>
<path d="M8.09 33.1545C8.09 34.1265 7.514 34.6305 6.506 34.6305L6.389 34.6305L6.389 33.6945L6.569 33.6945C7.019 33.6945 7.19 33.4965 7.19 33.1815C7.19 32.8305 7.019 32.6325 6.416 32.6325L5.21 32.6325L5.21 32.6505C5.57 32.8215 5.759 33.1095 5.759 33.5505C5.759 34.2795 5.246 34.6485 4.319 34.6485L3.194 34.6485C2.186 34.6485 1.61 34.1175 1.61 33.1455C1.61 32.1735 2.186 31.6425 3.194 31.6425L6.452 31.6425C7.514 31.6425 8.09 32.1285 8.09 33.1545ZM4.859 33.1455C4.859 32.8035 4.661 32.6325 4.238 32.6325L3.122 32.6325C2.708 32.6325 2.51 32.8035 2.51 33.1455C2.51 33.4875 2.708 33.6585 3.122 33.6585L4.238 33.6585C4.661 33.6585 4.859 33.4875 4.859 33.1455ZM8.09 29.7007C8.09 30.6727 7.514 31.2037 6.506 31.2037L3.194 31.2037C2.186 31.2037 1.61 30.6727 1.61 29.7007C1.61 28.7287 2.186 28.1977 3.194 28.1977L6.506 28.1977C7.514 28.1977 8.09 28.7287 8.09 29.7007ZM7.19 29.7007C7.19 29.3857 7.019 29.1877 6.569 29.1877L3.131 29.1877C2.681 29.1877 2.51 29.3857 2.51 29.7007C2.51 30.0157 2.681 30.2137 3.131 30.2137L6.569 30.2137C7.019 30.2137 7.19 30.0157 7.19 29.7007Z" fill="#222222"/>
<path d="M8 8.91443L3.194 8.91443L3.194 9.94943L2.492 9.94943C2.492 9.11243 2.312 8.81543 1.7 8.59043L1.7 7.92443L8 7.92443L8 8.91443ZM8.09 5.45163C8.09 6.42363 7.514 6.95463 6.506 6.95463L3.194 6.95463C2.186 6.95463 1.61 6.42363 1.61 5.45163C1.61 4.47963 2.186 3.94863 3.194 3.94863L6.506 3.94863C7.514 3.94863 8.09 4.47963 8.09 5.45163ZM7.19 5.45163C7.19 5.13663 7.019 4.93863 6.569 4.93863L3.131 4.93863C2.681 4.93863 2.51 5.13663 2.51 5.45163C2.51 5.76663 2.681 5.96463 3.131 5.96463L6.569 5.96463C7.019 5.96463 7.19 5.76663 7.19 5.45163ZM8.09 2.03383C8.09 3.00583 7.514 3.53683 6.506 3.53683L3.194 3.53683C2.186 3.53683 1.61 3.00583 1.61 2.03383C1.61 1.06183 2.186 0.530831 3.194 0.530831L6.506 0.530831C7.514 0.53083 8.09 1.06183 8.09 2.03383ZM7.19 2.03383C7.19 1.71883 7.019 1.52083 6.569 1.52083L3.131 1.52083C2.681 1.52083 2.51 1.71883 2.51 2.03383C2.51 2.34883 2.681 2.54683 3.131 2.54683L6.569 2.54683C7.019 2.54683 7.19 2.34883 7.19 2.03383Z" fill="#222222"/>
<path d="M8 202.37L7.316 202.37C6.416 202.37 5.867 202.118 5.093 201.38C4.292 200.624 3.815 200.408 3.23 200.408C2.663 200.408 2.51 200.606 2.51 200.921C2.51 201.236 2.681 201.434 3.131 201.434L3.806 201.434L3.806 202.37L3.194 202.37C2.186 202.37 1.61 201.866 1.61 200.894C1.61 199.922 2.186 199.418 3.194 199.418C3.941 199.418 4.607 199.724 5.579 200.642C6.209 201.236 6.524 201.389 6.965 201.389L7.1 201.389L7.1 199.508L8 199.508L8 202.37ZM8.09 197.503C8.09 198.475 7.514 199.006 6.506 199.006L3.194 199.006C2.186 199.006 1.61 198.475 1.61 197.503C1.61 196.531 2.186 196 3.194 196L6.506 196C7.514 196 8.09 196.531 8.09 197.503ZM7.19 197.503C7.19 197.188 7.019 196.99 6.569 196.99L3.131 196.99C2.681 196.99 2.51 197.188 2.51 197.503C2.51 197.818 2.681 198.016 3.131 198.016L6.569 198.016C7.019 198.016 7.19 197.818 7.19 197.503Z" fill="#222222"/>
<g opacity="0.3">
<path d="M27 0V238C27 243.523 31.4772 248 37 248H817.5" stroke="#787878"/>
</g>
<rect y="233" width="15" height="15" rx="2" fill="#222222"/>
<path d="M5.764 240.354C5.434 240.354 5.161 240.279 4.945 240.129C4.729 239.979 4.57 239.775 4.468 239.517C4.366 239.259 4.315 238.968 4.315 238.644C4.315 238.32 4.366 238.032 4.468 237.78C4.57 237.522 4.729 237.318 4.945 237.168C5.161 237.018 5.434 236.943 5.764 236.943C6.094 236.943 6.364 237.018 6.574 237.168C6.79 237.318 6.949 237.522 7.051 237.78C7.159 238.032 7.213 238.32 7.213 238.644C7.213 238.968 7.159 239.259 7.051 239.517C6.949 239.775 6.79 239.979 6.574 240.129C6.364 240.279 6.094 240.354 5.764 240.354ZM5.413 238.644C5.413 238.89 5.437 239.091 5.485 239.247C5.533 239.397 5.626 239.472 5.764 239.472C5.902 239.472 5.992 239.397 6.034 239.247C6.082 239.091 6.106 238.89 6.106 238.644C6.106 238.362 6.082 238.158 6.034 238.032C5.992 237.9 5.902 237.834 5.764 237.834C5.626 237.834 5.533 237.9 5.485 238.032C5.437 238.158 5.413 238.362 5.413 238.644ZM9.526 243.252C9.196 243.252 8.923 243.177 8.707 243.027C8.491 242.877 8.332 242.673 8.23 242.415C8.128 242.157 8.077 241.866 8.077 241.542C8.077 241.218 8.128 240.93 8.23 240.678C8.332 240.42 8.491 240.216 8.707 240.066C8.923 239.916 9.196 239.841 9.526 239.841C9.856 239.841 10.126 239.916 10.336 240.066C10.552 240.216 10.711 240.42 10.813 240.678C10.921 240.93 10.975 241.218 10.975 241.542C10.975 241.866 10.921 242.157 10.813 242.415C10.711 242.673 10.552 242.877 10.336 243.027C10.126 243.177 9.856 243.252 9.526 243.252ZM9.175 241.542C9.175 241.788 9.199 241.989 9.247 242.145C9.295 242.295 9.388 242.37 9.526 242.37C9.664 242.37 9.754 242.295 9.796 242.145C9.844 241.989 9.868 241.788 9.868 241.542C9.868 241.26 9.844 241.056 9.796 240.93C9.754 240.798 9.664 240.732 9.526 240.732C9.388 240.732 9.295 240.798 9.247 240.93C9.199 241.056 9.175 241.26 9.175 241.542ZM10.552 236.943L6.178 243.018L4.945 243L9.301 236.943H10.552Z" fill="url(#paint0_radial_428_31029)"/>
<path d="M3.855 268L3.855 261.106H3.864L7.545 266.326L6.987 266.2L10.659 261.106H10.677L10.677 268H9.372L9.372 264.049L9.453 264.724L7.212 267.91H7.194L4.89 264.724L5.115 264.103L5.115 268H3.855ZM11.8762 265.984C11.8762 265.582 11.9692 265.222 12.1552 264.904C12.3472 264.586 12.6142 264.337 12.9562 264.157C13.2982 263.971 13.6912 263.878 14.1352 263.878C14.5852 263.878 14.9752 263.971 15.3052 264.157C15.6352 264.337 15.8872 264.586 16.0612 264.904C16.2412 265.222 16.3312 265.582 16.3312 265.984C16.3312 266.386 16.2412 266.749 16.0612 267.073C15.8872 267.391 15.6352 267.643 15.3052 267.829C14.9752 268.015 14.5792 268.108 14.1172 268.108C13.6852 268.108 13.2982 268.024 12.9562 267.856C12.6202 267.688 12.3562 267.445 12.1642 267.127C11.9722 266.809 11.8762 266.428 11.8762 265.984ZM13.1452 265.993C13.1452 266.197 13.1872 266.383 13.2712 266.551C13.3552 266.713 13.4692 266.842 13.6132 266.938C13.7572 267.034 13.9192 267.082 14.0992 267.082C14.2972 267.082 14.4682 267.034 14.6122 266.938C14.7562 266.842 14.8672 266.713 14.9452 266.551C15.0232 266.383 15.0622 266.197 15.0622 265.993C15.0622 265.783 15.0232 265.597 14.9452 265.435C14.8672 265.273 14.7562 265.144 14.6122 265.048C14.4682 264.952 14.2972 264.904 14.0992 264.904C13.9192 264.904 13.7572 264.952 13.6132 265.048C13.4692 265.144 13.3552 265.273 13.2712 265.435C13.1872 265.597 13.1452 265.783 13.1452 265.993ZM18.4668 264.067L18.5658 264.769L18.5478 264.706C18.6858 264.46 18.8808 264.262 19.1328 264.112C19.3848 263.956 19.6938 263.878 20.0598 263.878C20.4318 263.878 20.7408 263.989 20.9868 264.211C21.2388 264.427 21.3678 264.709 21.3738 265.057L21.3738 268H20.1138L20.1138 265.525C20.1078 265.351 20.0598 265.213 19.9698 265.111C19.8858 265.003 19.7418 264.949 19.5378 264.949C19.3458 264.949 19.1778 265.012 19.0338 265.138C18.8898 265.264 18.7788 265.435 18.7008 265.651C18.6228 265.867 18.5838 266.116 18.5838 266.398L18.5838 268H17.3238L17.3238 264.067H18.4668ZM23.0365 262.339H24.2965L24.2965 264.049H25.2505L25.2505 265.03H24.2965L24.2965 268H23.0365L23.0365 265.03H22.4245L22.4245 264.049H23.0365L23.0365 262.339ZM26.2095 268L26.2095 260.899H27.4425L27.4425 264.859L27.4335 264.706C27.5715 264.46 27.7665 264.262 28.0185 264.112C28.2705 263.956 28.5795 263.878 28.9455 263.878C29.3175 263.878 29.6265 263.989 29.8725 264.211C30.1245 264.427 30.2535 264.709 30.2595 265.057L30.2595 268H28.9995L28.9995 265.525C28.9935 265.351 28.9455 265.213 28.8555 265.111C28.7715 265.003 28.6275 264.949 28.4235 264.949C28.2315 264.949 28.0635 265.012 27.9195 265.138C27.7755 265.264 27.6645 265.435 27.5865 265.651C27.5085 265.867 27.4695 266.116 27.4695 266.398L27.4695 268H26.2095Z" fill="url(#paint1_radial_428_31029)"/>
<path d="M436.357 182.251C435.625 181.841 434.458 181.85 433.749 182.271C433.041 182.693 433.062 183.367 433.794 183.777C434.525 184.188 435.692 184.179 436.4 183.757C437.108 183.335 437.088 182.661 436.357 182.251" fill="#222222"/>
<path d="M440.982 184.845C440.25 184.435 439.083 184.444 438.374 184.865C437.666 185.286 437.687 185.961 438.419 186.371C439.15 186.782 440.317 186.773 441.025 186.351C441.733 185.929 441.713 185.255 440.982 184.845" fill="#222222"/>
<path d="M432.374 184.624C431.642 184.213 430.474 184.222 429.766 184.644C429.058 185.065 429.078 185.74 429.81 186.15C430.541 186.561 431.709 186.552 432.417 186.13C433.125 185.709 433.105 185.034 432.374 184.624Z" fill="#222222"/>
<path d="M437 187.218C436.268 186.807 435.1 186.816 434.392 187.237C433.684 187.659 433.704 188.334 434.436 188.744C435.167 189.155 436.335 189.146 437.043 188.724C437.751 188.303 437.731 187.628 437 187.218Z" fill="#222222"/>
<path d="M419.142 181.809C418.41 181.398 417.243 181.407 416.535 181.829C415.827 182.25 415.847 182.925 416.579 183.335C417.311 183.745 418.477 183.736 419.185 183.315C419.893 182.893 419.874 182.219 419.142 181.809Z" fill="#222222"/>
<path d="M428.391 186.996C427.659 186.586 426.492 186.594 425.784 187.016C425.076 187.437 425.096 188.112 425.828 188.522C426.559 188.932 427.726 188.923 428.434 188.502C429.142 188.08 429.122 187.405 428.391 186.995" fill="#222222"/>
<path d="M433.016 189.59C432.284 189.18 431.117 189.188 430.409 189.61C429.701 190.031 429.721 190.706 430.453 191.116C431.184 191.526 432.351 191.517 433.059 191.096C433.767 190.674 433.747 189.999 433.016 189.589" fill="#222222"/>
<path d="M437.64 192.184C436.908 191.773 435.741 191.782 435.033 192.204C434.325 192.625 434.345 193.3 435.077 193.71C435.809 194.12 436.975 194.111 437.683 193.69C438.391 193.268 438.372 192.594 437.64 192.184Z" fill="#222222"/>
<path d="M415.16 184.18C414.428 183.77 413.261 183.779 412.553 184.2C411.845 184.622 411.864 185.296 412.596 185.707C413.328 186.117 414.495 186.108 415.203 185.687C415.911 185.265 415.892 184.591 415.16 184.18Z" fill="#222222"/>
<path d="M419.784 186.774C419.052 186.364 417.884 186.373 417.176 186.794C416.469 187.215 416.488 187.891 417.22 188.301C417.952 188.712 419.119 188.702 419.827 188.281C420.535 187.86 420.516 187.185 419.784 186.774Z" fill="#222222"/>
<path d="M424.409 189.368C423.677 188.958 422.509 188.967 421.801 189.388C421.094 189.809 421.114 190.485 421.845 190.895C422.577 191.305 423.744 191.296 424.452 190.875C425.16 190.454 425.14 189.778 424.409 189.368Z" fill="#222222"/>
<path d="M429.033 191.961C428.301 191.551 427.133 191.56 426.426 191.981C425.718 192.402 425.738 193.078 426.469 193.488C427.201 193.898 428.368 193.889 429.076 193.468C429.784 193.047 429.764 192.371 429.033 191.961Z" fill="#222222"/>
<path d="M433.657 194.555C432.925 194.144 431.758 194.154 431.05 194.575C430.342 194.996 430.361 195.671 431.093 196.082C431.825 196.492 432.992 196.483 433.7 196.061C434.408 195.64 434.389 194.965 433.657 194.555Z" fill="#222222"/>
<path d="M447.531 202.336C446.799 201.926 445.631 201.935 444.924 202.356C444.216 202.777 444.236 203.453 444.967 203.863C445.699 204.273 446.866 204.264 447.574 203.843C448.282 203.422 448.262 202.746 447.531 202.336Z" fill="#222222"/>
<path d="M452.155 204.93C451.423 204.52 450.255 204.529 449.548 204.95C448.84 205.371 448.86 206.047 449.591 206.457C450.323 206.867 451.49 206.858 452.198 206.437C452.906 206.016 452.886 205.34 452.155 204.93Z" fill="#222222"/>
<path d="M411.177 186.552C410.445 186.141 409.278 186.151 408.57 186.572C407.862 186.994 407.882 187.668 408.614 188.079C409.345 188.489 410.512 188.481 411.22 188.059C411.928 187.637 411.908 186.963 411.177 186.552Z" fill="#222222"/>
<path d="M415.801 189.146C415.069 188.736 413.902 188.745 413.194 189.166C412.486 189.588 412.506 190.263 413.238 190.673C413.97 191.084 415.136 191.075 415.845 190.653C416.553 190.232 416.533 189.557 415.801 189.147" fill="#222222"/>
<path d="M420.426 191.74C419.694 191.33 418.527 191.339 417.819 191.76C417.111 192.182 417.131 192.857 417.863 193.267C418.594 193.677 419.761 193.669 420.47 193.247C421.178 192.826 421.157 192.151 420.426 191.741" fill="#222222"/>
<path d="M425.05 194.334C424.318 193.924 423.151 193.933 422.443 194.354C421.735 194.776 421.755 195.451 422.487 195.861C423.218 196.271 424.385 196.263 425.094 195.841C425.802 195.42 425.781 194.745 425.05 194.335" fill="#222222"/>
<path d="M429.674 196.927C428.942 196.516 427.775 196.526 427.067 196.947C426.359 197.369 426.379 198.043 427.111 198.454C427.842 198.864 429.009 198.856 429.717 198.434C430.425 198.012 430.405 197.338 429.674 196.927Z" fill="#222222"/>
<path d="M434.298 199.521C433.566 199.11 432.399 199.12 431.691 199.541C430.983 199.963 431.003 200.637 431.735 201.048C432.467 201.458 433.633 201.45 434.341 201.028C435.049 200.606 435.029 199.932 434.298 199.521Z" fill="#222222"/>
<path d="M438.923 202.115C438.192 201.705 437.025 201.714 436.317 202.135C435.61 202.557 435.629 203.231 436.36 203.641C437.093 204.052 438.259 204.043 438.968 203.622C439.675 203.2 439.656 202.526 438.923 202.115Z" fill="#222222"/>
<path d="M443.547 204.709C442.815 204.298 441.648 204.307 440.94 204.728C440.232 205.15 440.252 205.825 440.984 206.235C441.715 206.645 442.882 206.637 443.591 206.215C444.299 205.794 444.278 205.119 443.547 204.709" fill="#222222"/>
<path d="M448.173 207.302C447.441 206.892 446.274 206.901 445.566 207.322C444.858 207.744 444.878 208.419 445.61 208.829C446.341 209.239 447.508 209.231 448.217 208.809C448.925 208.388 448.904 207.713 448.173 207.303" fill="#222222"/>
<path d="M452.797 209.896C452.065 209.485 450.898 209.495 450.19 209.916C449.483 210.338 449.502 211.012 450.234 211.423C450.966 211.833 452.133 211.825 452.841 211.403C453.549 210.982 453.528 210.307 452.797 209.897" fill="#222222"/>
<path d="M407.194 188.925C406.462 188.514 405.295 188.523 404.587 188.945C403.879 189.366 403.898 190.04 404.63 190.451C405.362 190.862 406.529 190.852 407.237 190.431C407.945 190.01 407.926 189.335 407.194 188.925Z" fill="#222222"/>
<path d="M411.818 191.518C411.086 191.108 409.919 191.117 409.211 191.538C408.503 191.959 408.523 192.635 409.254 193.045C409.986 193.456 411.154 193.446 411.861 193.025C412.569 192.604 412.55 191.929 411.818 191.518Z" fill="#222222"/>
<path d="M416.443 194.112C415.711 193.702 414.544 193.71 413.836 194.132C413.128 194.553 413.148 195.228 413.879 195.639C414.611 196.049 415.779 196.04 416.486 195.619C417.194 195.197 417.174 194.522 416.443 194.112Z" fill="#222222"/>
<path d="M421.068 196.706C420.336 196.296 419.169 196.304 418.461 196.726C417.753 197.147 417.773 197.822 418.504 198.233C419.236 198.643 420.404 198.634 421.111 198.213C421.819 197.791 421.799 197.116 421.067 196.706" fill="#222222"/>
<path d="M425.691 199.3C424.959 198.889 423.792 198.898 423.084 199.32C422.376 199.741 422.395 200.416 423.128 200.826C423.859 201.237 425.026 201.227 425.734 200.806C426.442 200.385 426.423 199.71 425.691 199.3Z" fill="#222222"/>
<path d="M430.316 201.894C429.584 201.483 428.417 201.492 427.709 201.914C427.001 202.335 427.02 203.009 427.753 203.42C428.484 203.831 429.651 203.821 430.359 203.4C431.067 202.979 431.048 202.304 430.316 201.894Z" fill="#222222"/>
<path d="M434.941 204.487C434.209 204.077 433.042 204.086 432.334 204.507C431.626 204.929 431.645 205.603 432.377 206.013C433.109 206.424 434.276 206.415 434.984 205.994C435.692 205.572 435.673 204.898 434.941 204.487Z" fill="#222222"/>
<path d="M439.565 207.081C438.833 206.671 437.666 206.679 436.958 207.101C436.25 207.522 436.27 208.197 437.001 208.608C437.733 209.018 438.901 209.009 439.609 208.588C440.316 208.166 440.297 207.491 439.565 207.081Z" fill="#222222"/>
<path d="M444.19 209.675C443.458 209.265 442.291 209.273 441.583 209.695C440.875 210.116 440.895 210.791 441.626 211.202C442.358 211.612 443.526 211.603 444.234 211.182C444.941 210.76 444.922 210.085 444.19 209.675Z" fill="#222222"/>
<path d="M448.814 212.269C448.082 211.858 446.915 211.867 446.207 212.289C445.499 212.71 445.518 213.384 446.251 213.795C446.982 214.206 448.15 214.197 448.858 213.776C449.566 213.354 449.546 212.679 448.814 212.269Z" fill="#222222"/>
<path d="M453.439 214.862C452.707 214.451 451.54 214.46 450.832 214.882C450.124 215.303 450.143 215.978 450.876 216.389C451.607 216.799 452.774 216.789 453.482 216.368C454.19 215.947 454.171 215.272 453.439 214.862Z" fill="#222222"/>
<path d="M403.211 191.297C402.479 190.886 401.312 190.896 400.604 191.317C399.897 191.739 399.916 192.413 400.648 192.824C401.38 193.234 402.546 193.225 403.255 192.803C403.962 192.382 403.943 191.707 403.211 191.297Z" fill="#222222"/>
<path d="M407.835 193.89C407.103 193.48 405.936 193.489 405.228 193.91C404.52 194.332 404.54 195.007 405.272 195.417C406.004 195.828 407.17 195.818 407.879 195.397C408.587 194.976 408.567 194.301 407.835 193.891" fill="#222222"/>
<path d="M412.46 196.484C411.728 196.074 410.561 196.083 409.853 196.504C409.145 196.926 409.165 197.601 409.897 198.011C410.628 198.421 411.795 198.412 412.504 197.991C413.212 197.57 413.191 196.895 412.46 196.485" fill="#222222"/>
<path d="M417.084 199.078C416.352 198.668 415.185 198.677 414.477 199.098C413.769 199.52 413.789 200.195 414.521 200.605C415.252 201.015 416.419 201.006 417.128 200.585C417.836 200.164 417.815 199.489 417.084 199.079" fill="#222222"/>
<path d="M421.708 201.672C420.976 201.261 419.809 201.271 419.102 201.692C418.394 202.114 418.413 202.788 419.145 203.199C419.877 203.609 421.043 203.6 421.752 203.178C422.46 202.757 422.44 202.082 421.708 201.672Z" fill="#222222"/>
<path d="M426.333 204.266C425.601 203.855 424.434 203.865 423.727 204.286C423.019 204.708 423.038 205.382 423.77 205.793C424.502 206.203 425.668 206.194 426.377 205.772C427.085 205.351 427.065 204.676 426.333 204.266Z" fill="#222222"/>
<path d="M430.956 206.859C430.225 206.449 429.059 206.458 428.351 206.879C427.643 207.301 427.662 207.975 428.393 208.385C429.126 208.796 430.292 208.786 431.001 208.365C431.709 207.944 431.689 207.269 430.956 206.859Z" fill="#222222"/>
<path d="M435.582 209.453C434.85 209.043 433.683 209.052 432.975 209.473C432.267 209.895 432.287 210.57 433.019 210.98C433.75 211.39 434.917 211.381 435.626 210.96C436.334 210.539 436.313 209.864 435.582 209.454" fill="#222222"/>
<path d="M440.206 212.047C439.474 211.637 438.307 211.646 437.599 212.067C436.891 212.489 436.911 213.164 437.643 213.574C438.374 213.984 439.542 213.975 440.25 213.554C440.958 213.133 440.937 212.458 440.206 212.048" fill="#222222"/>
<path d="M444.831 214.641C444.099 214.23 442.933 214.239 442.225 214.661C441.517 215.083 441.536 215.756 442.268 216.167C443 216.578 444.167 216.569 444.875 216.148C445.583 215.726 445.563 215.052 444.831 214.641" fill="#222222"/>
<path d="M449.455 217.234C448.723 216.823 447.557 216.833 446.849 217.254C446.141 217.676 446.16 218.35 446.892 218.761C447.624 219.171 448.79 219.162 449.499 218.74C450.207 218.319 450.187 217.644 449.455 217.234Z" fill="#222222"/>
<path d="M399.228 193.669C398.496 193.258 397.33 193.268 396.621 193.689C395.913 194.11 395.932 194.785 396.665 195.196C397.396 195.606 398.563 195.597 399.271 195.175C399.979 194.753 399.96 194.079 399.228 193.669Z" fill="#222222"/>
<path d="M403.852 196.262C403.121 195.852 401.954 195.861 401.245 196.282C400.537 196.704 400.557 197.379 401.288 197.789C402.021 198.2 403.188 198.19 403.896 197.769C404.604 197.347 404.584 196.673 403.852 196.262Z" fill="#222222"/>
<path d="M408.477 198.856C407.746 198.446 406.579 198.455 405.87 198.876C405.162 199.297 405.182 199.973 405.913 200.383C406.645 200.793 407.813 200.784 408.521 200.363C409.229 199.941 409.209 199.267 408.477 198.856Z" fill="#222222"/>
<path d="M413.102 201.45C412.371 201.04 411.204 201.049 410.495 201.47C409.787 201.891 409.807 202.567 410.538 202.977C411.27 203.387 412.438 203.378 413.145 202.957C413.853 202.535 413.833 201.861 413.101 201.45" fill="#222222"/>
<path d="M422.35 206.637C421.618 206.226 420.452 206.236 419.743 206.657C419.035 207.078 419.054 207.753 419.787 208.164C420.518 208.574 421.685 208.565 422.393 208.143C423.101 207.721 423.082 207.048 422.35 206.637Z" fill="#222222"/>
<path d="M426.974 209.231C426.242 208.821 425.076 208.83 424.367 209.252C423.659 209.673 423.679 210.348 424.41 210.758C425.142 211.169 426.309 211.159 427.017 210.738C427.725 210.316 427.705 209.642 426.973 209.231" fill="#222222"/>
<path d="M431.599 211.825C430.868 211.415 429.701 211.424 428.992 211.845C428.284 212.266 428.304 212.942 429.035 213.352C429.767 213.762 430.935 213.753 431.643 213.332C432.351 212.91 432.331 212.236 431.599 211.825Z" fill="#222222"/>
<path d="M436.223 214.418C435.492 214.008 434.325 214.017 433.616 214.438C432.908 214.86 432.928 215.535 433.659 215.945C434.391 216.355 435.559 216.347 436.267 215.925C436.975 215.503 436.955 214.829 436.223 214.418Z" fill="#222222"/>
<path d="M440.848 217.012C440.116 216.601 438.95 216.611 438.241 217.032C437.533 217.453 437.552 218.128 438.285 218.539C439.016 218.949 440.184 218.94 440.892 218.519C441.6 218.097 441.58 217.423 440.848 217.012Z" fill="#222222"/>
<path d="M445.473 219.606C444.741 219.195 443.575 219.205 442.866 219.626C442.158 220.047 442.177 220.722 442.91 221.133C443.641 221.543 444.808 221.534 445.516 221.112C446.224 220.69 446.205 220.017 445.473 219.606Z" fill="#222222"/>
<path d="M450.098 222.199C449.366 221.789 448.2 221.798 447.491 222.22C446.783 222.641 446.803 223.316 447.534 223.726C448.266 224.137 449.433 224.127 450.141 223.706C450.849 223.284 450.83 222.61 450.098 222.199Z" fill="#222222"/>
<path d="M395.246 196.041C394.514 195.63 393.347 195.639 392.639 196.06C391.931 196.482 391.95 197.156 392.682 197.567C393.414 197.978 394.58 197.969 395.289 197.547C395.997 197.125 395.977 196.451 395.246 196.041Z" fill="#222222"/>
<path d="M399.87 198.635C399.138 198.224 397.97 198.233 397.262 198.655C396.555 199.077 396.574 199.751 397.306 200.161C398.038 200.572 399.205 200.563 399.913 200.141C400.621 199.72 400.602 199.046 399.87 198.635Z" fill="#222222"/>
<path d="M404.495 201.228C403.763 200.818 402.595 200.827 401.887 201.248C401.18 201.67 401.199 202.345 401.931 202.755C402.663 203.165 403.83 203.156 404.538 202.735C405.246 202.314 405.226 201.638 404.495 201.228Z" fill="#222222"/>
<path d="M409.119 203.822C408.387 203.411 407.219 203.42 406.511 203.842C405.804 204.264 405.823 204.938 406.555 205.348C407.287 205.759 408.454 205.75 409.162 205.329C409.87 204.907 409.85 204.232 409.119 203.822Z" fill="#222222"/>
<path d="M427.617 214.197C426.885 213.786 425.717 213.795 425.009 214.217C424.302 214.639 424.322 215.313 425.053 215.723C425.785 216.134 426.952 216.125 427.66 215.704C428.368 215.282 428.348 214.607 427.617 214.197Z" fill="#222222"/>
<path d="M432.242 216.791C431.51 216.38 430.342 216.389 429.634 216.811C428.927 217.233 428.947 217.907 429.678 218.317C430.41 218.728 431.577 218.719 432.285 218.298C432.993 217.876 432.973 217.201 432.242 216.791Z" fill="#222222"/>
<path d="M436.866 219.385C436.134 218.974 434.967 218.983 434.259 219.404C433.551 219.827 433.57 220.5 434.302 220.911C435.034 221.322 436.201 221.313 436.91 220.891C437.618 220.47 437.598 219.795 436.866 219.385Z" fill="#222222"/>
<path d="M441.491 221.979C440.759 221.568 439.592 221.577 438.884 221.998C438.176 222.42 438.195 223.094 438.927 223.505C439.659 223.916 440.825 223.907 441.534 223.485C442.242 223.063 442.223 222.389 441.491 221.979Z" fill="#222222"/>
<path d="M395.886 201.007C395.154 200.597 393.987 200.606 393.279 201.027C392.571 201.448 392.591 202.123 393.323 202.533C394.055 202.944 395.222 202.934 395.929 202.513C396.637 202.091 396.618 201.417 395.886 201.006" fill="#222222"/>
<path d="M400.511 203.6C399.779 203.19 398.612 203.199 397.904 203.62C397.196 204.041 397.216 204.716 397.948 205.126C398.68 205.536 399.847 205.527 400.554 205.106C401.262 204.684 401.242 204.009 400.511 203.599" fill="#222222"/>
<path d="M405.136 206.194C404.404 205.784 403.237 205.793 402.529 206.214C401.821 206.635 401.841 207.31 402.573 207.72C403.304 208.13 404.472 208.121 405.179 207.7C405.887 207.278 405.867 206.603 405.136 206.193" fill="#222222"/>
<path d="M409.76 208.788C409.028 208.377 407.862 208.386 407.153 208.808C406.445 209.229 406.465 209.904 407.197 210.314C407.929 210.724 409.095 210.715 409.803 210.294C410.511 209.872 410.492 209.198 409.76 208.788Z" fill="#222222"/>
<path d="M428.258 219.163C427.526 218.753 426.359 218.762 425.651 219.183C424.943 219.604 424.963 220.279 425.695 220.689C426.427 221.099 427.594 221.09 428.302 220.669C429.009 220.247 428.99 219.572 428.258 219.162" fill="#222222"/>
<path d="M432.882 221.757C432.15 221.346 430.984 221.355 430.275 221.777C429.567 222.198 429.587 222.873 430.319 223.283C431.051 223.693 432.218 223.684 432.926 223.263C433.634 222.841 433.614 222.166 432.882 221.756" fill="#222222"/>
<path d="M396.529 205.972C395.797 205.562 394.63 205.571 393.922 205.992C393.214 206.413 393.234 207.089 393.965 207.499C394.697 207.909 395.865 207.9 396.572 207.479C397.28 207.058 397.26 206.382 396.529 205.972Z" fill="#222222"/>
<path d="M401.154 208.566C400.422 208.156 399.255 208.165 398.547 208.586C397.839 209.007 397.859 209.683 398.59 210.093C399.322 210.503 400.49 210.494 401.197 210.073C401.905 209.652 401.885 208.976 401.153 208.566" fill="#222222"/>
<path d="M405.778 211.16C405.046 210.749 403.879 210.759 403.171 211.18C402.463 211.601 402.482 212.276 403.214 212.687C403.946 213.097 405.113 213.088 405.821 212.666C406.529 212.245 406.51 211.57 405.778 211.16Z" fill="#222222"/>
<path d="M410.402 213.754C409.67 213.343 408.503 213.353 407.795 213.774C407.087 214.195 407.106 214.87 407.838 215.281C408.57 215.691 409.737 215.682 410.445 215.26C411.153 214.839 411.134 214.164 410.402 213.754Z" fill="#222222"/>
<path d="M397.17 210.938C396.439 210.528 395.272 210.537 394.563 210.958C393.855 211.38 393.876 212.054 394.607 212.464C395.339 212.875 396.506 212.866 397.214 212.445C397.922 212.023 397.902 211.348 397.17 210.938" fill="#222222"/>
<path d="M401.794 213.532C401.062 213.121 399.896 213.131 399.187 213.552C398.479 213.974 398.499 214.648 399.231 215.058C399.963 215.469 401.129 215.46 401.837 215.039C402.545 214.617 402.526 213.943 401.794 213.532Z" fill="#222222"/>
<path d="M406.419 216.126C405.687 215.715 404.521 215.725 403.812 216.146C403.104 216.568 403.124 217.242 403.856 217.652C404.588 218.063 405.754 218.054 406.462 217.633C407.17 217.211 407.151 216.537 406.419 216.126Z" fill="#222222"/>
<path d="M411.043 218.719C410.311 218.309 409.145 218.318 408.436 218.74C407.728 219.161 407.748 219.836 408.48 220.246C409.212 220.657 410.378 220.648 411.086 220.226C411.794 219.804 411.775 219.13 411.043 218.719Z" fill="#222222"/>
<path d="M415.667 221.313C414.936 220.903 413.769 220.912 413.06 221.333C412.352 221.755 412.373 222.429 413.104 222.839C413.836 223.25 415.003 223.241 415.711 222.82C416.419 222.398 416.399 221.723 415.667 221.313" fill="#222222"/>
<path d="M420.292 223.907C419.561 223.497 418.394 223.506 417.685 223.927C416.977 224.348 416.998 225.023 417.729 225.433C418.461 225.843 419.628 225.835 420.336 225.413C421.044 224.991 421.024 224.317 420.292 223.906" fill="#222222"/>
<path d="M397.811 215.904C397.079 215.493 395.912 215.502 395.204 215.924C394.496 216.345 394.515 217.02 395.248 217.431C395.979 217.841 397.146 217.831 397.854 217.41C398.562 216.989 398.543 216.314 397.811 215.904Z" fill="#222222"/>
<path d="M402.436 218.498C401.704 218.087 400.537 218.096 399.829 218.518C399.121 218.939 399.14 219.614 399.873 220.025C400.604 220.435 401.771 220.425 402.479 220.004C403.187 219.583 403.168 218.908 402.436 218.498Z" fill="#222222"/>
<path d="M407.061 221.091C406.329 220.681 405.162 220.69 404.454 221.112C403.746 221.533 403.765 222.208 404.497 222.618C405.229 223.029 406.396 223.019 407.104 222.598C407.812 222.177 407.793 221.502 407.061 221.091Z" fill="#222222"/>
<path d="M411.685 223.685C410.954 223.275 409.786 223.283 409.078 223.705C408.37 224.126 408.39 224.801 409.121 225.212C409.853 225.622 411.021 225.613 411.729 225.192C412.437 224.77 412.417 224.095 411.685 223.685Z" fill="#222222"/>
<path d="M393.829 218.276C393.097 217.865 391.931 217.875 391.223 218.296C390.515 218.718 390.534 219.392 391.266 219.803C391.998 220.213 393.164 220.204 393.873 219.782C394.581 219.361 394.561 218.686 393.829 218.276Z" fill="#222222"/>
<path d="M398.453 220.87C397.721 220.459 396.555 220.469 395.847 220.89C395.139 221.312 395.158 221.986 395.89 222.397C396.622 222.807 397.788 222.798 398.497 222.376C399.205 221.955 399.185 221.28 398.453 220.87Z" fill="#222222"/>
<path d="M403.078 223.464C402.346 223.054 401.18 223.063 400.472 223.484C399.764 223.906 399.783 224.58 400.515 224.99C401.247 225.401 402.413 225.391 403.122 224.97C403.83 224.549 403.81 223.874 403.078 223.464Z" fill="#222222"/>
<path d="M389.846 220.648C389.113 220.237 387.946 220.247 387.238 220.668C386.53 221.089 386.55 221.764 387.282 222.175C388.013 222.585 389.18 222.576 389.888 222.154C390.596 221.733 390.577 221.059 389.846 220.648Z" fill="#222222"/>
<path d="M394.471 223.242C393.738 222.831 392.571 222.841 391.863 223.262C391.155 223.683 391.175 224.358 391.907 224.769C392.638 225.179 393.805 225.17 394.513 224.748C395.221 224.327 395.202 223.653 394.471 223.242Z" fill="#222222"/>
<path d="M385.863 223.021C385.131 222.61 383.965 222.619 383.257 223.04C382.549 223.462 382.568 224.136 383.3 224.547C384.032 224.958 385.198 224.949 385.907 224.527C386.615 224.105 386.595 223.431 385.863 223.021Z" fill="#222222"/>
<path d="M407.791 200.356L415.774 195.728L429.915 203.873L421.932 208.502L407.791 200.356Z" fill="url(#paint2_linear_428_31029)"/>
<path d="M421.932 208.502L429.916 203.873L429.869 220.084L421.886 224.713L421.932 208.502Z" fill="#222222"/>
<path d="M407.746 216.567L407.792 200.357L421.933 208.502L421.886 224.713L407.746 216.567Z" fill="url(#paint3_radial_428_31029)"/>
<path d="M421.956 208.739C421.914 208.739 421.874 208.729 421.837 208.708L407.696 200.563C407.622 200.52 407.577 200.442 407.577 200.357C407.577 200.272 407.622 200.194 407.696 200.151L415.679 195.522C415.753 195.479 415.844 195.479 415.919 195.522L430.059 203.667C430.132 203.71 430.177 203.788 430.177 203.872C430.177 203.957 430.132 204.036 430.059 204.079L422.075 208.708C422.038 208.729 421.997 208.74 421.956 208.74V208.739ZM408.29 200.356L421.955 208.227L429.464 203.873L415.799 196.002L408.29 200.356Z" fill="#222222"/>
<path d="M421.91 224.951C421.868 224.951 421.828 224.941 421.791 224.919C421.717 224.876 421.671 224.798 421.672 224.713L421.718 208.502C421.718 208.417 421.763 208.34 421.837 208.297L429.82 203.669C429.894 203.626 429.985 203.626 430.059 203.669C430.133 203.711 430.179 203.79 430.178 203.875L430.132 220.086C430.132 220.17 430.087 220.248 430.013 220.29L422.03 224.919C421.993 224.941 421.952 224.952 421.91 224.952L421.91 224.951ZM422.194 208.639L422.149 224.299L429.655 219.947L429.7 204.287L422.194 208.639Z" fill="#222222"/>
<path d="M421.909 224.951C421.868 224.951 421.827 224.94 421.79 224.919L407.65 216.774C407.576 216.732 407.531 216.653 407.531 216.568L407.577 200.357C407.577 200.272 407.623 200.194 407.697 200.152C407.77 200.11 407.861 200.11 407.934 200.152L422.075 208.297C422.149 208.339 422.195 208.418 422.194 208.503L422.148 224.714C422.148 224.798 422.102 224.876 422.028 224.919C421.992 224.94 421.951 224.951 421.91 224.951H421.909ZM408.007 216.431L421.672 224.302L421.716 208.639L408.052 200.768L408.007 216.431Z" fill="#222222"/>
<path d="M406.374 145.417L414.357 140.788L431.55 150.691L423.566 155.32L406.374 145.417Z" fill="url(#paint4_linear_428_31029)"/>
<path d="M423.567 155.319L431.55 150.691L426.966 197.38L418.982 202.009L423.567 155.319Z" fill="#222222"/>
<path d="M418.982 202.009L410.723 197.252L406.374 145.417L423.566 155.32L418.982 202.009Z" fill="url(#paint5_radial_428_31029)"/>
<path d="M423.586 155.557C423.545 155.557 423.504 155.547 423.467 155.526L406.275 145.623C406.201 145.58 406.156 145.502 406.156 145.417C406.156 145.333 406.201 145.254 406.275 145.211L414.259 140.582C414.332 140.54 414.423 140.54 414.498 140.582L431.69 150.485C431.764 150.528 431.809 150.606 431.809 150.691C431.809 150.775 431.764 150.854 431.69 150.896L423.707 155.525C423.67 155.546 423.628 155.557 423.587 155.557H423.586ZM406.869 145.416L423.586 155.045L431.094 150.691L414.378 141.063L406.869 145.416Z" fill="#222222"/>
<path d="M419.003 202.247C418.958 202.247 418.913 202.235 418.874 202.21C418.799 202.162 418.757 202.076 418.766 201.986L423.35 155.297C423.357 155.221 423.401 155.153 423.467 155.114L431.451 150.485C431.528 150.44 431.624 150.443 431.7 150.49C431.775 150.538 431.817 150.625 431.808 150.714L427.224 197.403C427.217 197.479 427.173 197.547 427.107 197.586L419.123 202.215C419.086 202.236 419.045 202.247 419.004 202.247H419.003ZM423.812 155.464L419.285 201.57L426.76 197.236L431.288 151.13L423.812 155.464Z" fill="#222222"/>
<path d="M419.002 202.247C418.961 202.247 418.92 202.237 418.884 202.216L410.625 197.458C410.557 197.419 410.513 197.35 410.507 197.272L406.158 145.436C406.151 145.348 406.193 145.263 406.268 145.216C406.343 145.169 406.438 145.166 406.515 145.211L423.707 155.113C423.788 155.16 423.834 155.25 423.825 155.342L419.241 202.032C419.233 202.112 419.185 202.183 419.112 202.221C419.079 202.238 419.041 202.247 419.003 202.247H419.002ZM410.97 197.109L418.802 201.62L423.335 155.45L406.67 145.851L410.971 197.109H410.97Z" fill="#222222"/>
<path d="M356.611 187.073L372.252 178.051L394.025 190.658L378.385 199.68L356.611 187.073Z" fill="url(#paint6_linear_428_31029)"/>
<path d="M378.385 199.68L394.025 190.658L394.094 214.807L378.453 223.828L378.385 199.68Z" fill="#222222"/>
<path d="M356.68 211.222L356.611 187.073L378.385 199.68L378.453 223.828L356.68 211.222Z" fill="url(#paint7_radial_428_31029)"/>
<path d="M378.351 199.918C378.309 199.918 378.268 199.907 378.231 199.885L356.458 187.278C356.384 187.235 356.339 187.157 356.339 187.072C356.339 186.988 356.385 186.909 356.458 186.867L372.098 177.845C372.172 177.802 372.264 177.802 372.338 177.845L394.111 190.452C394.185 190.495 394.23 190.573 394.23 190.658C394.23 190.742 394.184 190.821 394.111 190.863L378.47 199.885C378.433 199.907 378.392 199.917 378.351 199.917V199.918ZM357.053 187.073L378.351 199.405L393.516 190.658L372.218 178.326L357.053 187.073Z" fill="#222222"/>
<path d="M378.418 224.066C378.377 224.066 378.336 224.056 378.3 224.035C378.226 223.993 378.18 223.914 378.18 223.829L378.111 199.681C378.111 199.595 378.156 199.516 378.23 199.474L393.871 190.452C393.945 190.41 394.035 190.41 394.109 190.452C394.182 190.494 394.228 190.573 394.228 190.658L394.297 214.807C394.297 214.892 394.252 214.971 394.178 215.013L378.537 224.035C378.5 224.056 378.459 224.066 378.418 224.066H378.418ZM378.588 199.817L378.655 223.417L393.821 214.67L393.753 191.07L378.588 199.817Z" fill="#222222"/>
<path d="M378.419 224.066C378.378 224.066 378.337 224.056 378.3 224.034L356.526 211.427C356.453 211.384 356.408 211.306 356.408 211.222L356.339 187.073C356.339 186.988 356.384 186.909 356.458 186.867C356.532 186.824 356.622 186.824 356.696 186.867L378.47 199.474C378.543 199.517 378.588 199.595 378.588 199.679L378.657 223.828C378.657 223.913 378.612 223.992 378.538 224.034C378.501 224.055 378.46 224.066 378.419 224.066V224.066ZM356.884 211.084L378.18 223.415L378.112 199.817L356.816 187.486L356.884 211.084Z" fill="#222222"/>
<path d="M377.729 179.517L393.37 170.495C392.71 170.876 392.23 171.284 391.93 171.721C390.987 173.092 390.524 176.363 390.538 181.533L374.898 190.555C374.883 185.385 375.346 182.114 376.289 180.743C376.59 180.306 377.07 179.898 377.729 179.517Z" fill="#222222"/>
<path d="M374.897 190.793C374.856 190.793 374.815 190.783 374.778 190.762C374.704 190.72 374.659 190.641 374.659 190.556C374.644 185.286 375.113 182.032 376.091 180.608C376.41 180.144 376.921 179.708 377.609 179.311L393.25 170.289C393.363 170.223 393.51 170.261 393.575 170.376C393.641 170.489 393.602 170.635 393.488 170.7C392.862 171.061 392.404 171.45 392.125 171.855C391.215 173.178 390.761 176.433 390.775 181.533C390.775 181.618 390.73 181.697 390.656 181.739L375.016 190.761C374.979 190.782 374.938 190.793 374.896 190.793L374.897 190.793ZM377.729 179.517L377.848 179.722C377.222 180.083 376.764 180.472 376.485 180.877C375.6 182.164 375.146 185.281 375.135 190.143L390.299 181.396C390.293 176.439 390.721 173.289 391.605 171.787L377.847 179.722L377.728 179.516L377.729 179.517Z" fill="#222222"/>
<path d="M361.279 158.027L376.92 149.005C378.751 147.949 381.433 146.939 384.968 145.977C386.513 145.562 387.812 145.051 388.864 144.444L373.223 153.466C372.171 154.073 370.873 154.584 369.327 154.999C365.793 155.961 363.11 156.971 361.279 158.027Z" fill="url(#paint8_radial_428_31029)"/>
<path d="M361.281 158.265C361.199 158.265 361.118 158.222 361.074 158.146C361.008 158.033 361.047 157.887 361.161 157.821C361.163 157.82 361.165 157.819 361.168 157.818L376.802 148.8C378.643 147.738 381.37 146.711 384.906 145.749C386.425 145.341 387.717 144.833 388.745 144.24C388.859 144.174 389.005 144.212 389.071 144.327C389.137 144.44 389.098 144.586 388.984 144.651C388.984 144.651 388.979 144.654 388.977 144.656L373.343 153.673C372.279 154.288 370.949 154.811 369.39 155.23C365.894 156.182 363.205 157.192 361.399 158.234C361.362 158.255 361.321 158.265 361.281 158.265V158.265ZM385.624 146.04C385.43 146.097 385.232 146.153 385.031 146.208C381.535 147.159 378.846 148.17 377.04 149.211L365.247 156.013C366.44 155.589 367.781 155.174 369.266 154.77C370.785 154.361 372.077 153.854 373.105 153.261L385.624 146.04Z" fill="#222222"/>
<path d="M357.322 124.163L372.963 115.141C370.131 116.774 368.439 121.176 367.889 128.344L352.248 137.366C352.799 130.198 354.49 125.796 357.322 124.163Z" fill="#222222"/>
<path d="M352.248 137.605C352.204 137.605 352.16 137.592 352.121 137.568C352.047 137.521 352.004 137.437 352.01 137.349C352.287 133.758 352.857 130.816 353.707 128.604C354.569 126.362 355.745 124.799 357.203 123.958L372.84 114.938C372.84 114.938 372.842 114.936 372.843 114.936C372.957 114.87 373.103 114.908 373.169 115.023C373.235 115.136 373.196 115.282 373.082 115.347C370.335 116.932 368.668 121.311 368.126 128.363C368.12 128.441 368.076 128.512 368.008 128.551L352.367 137.573C352.33 137.594 352.289 137.605 352.247 137.605H352.248ZM357.442 124.369C354.754 125.92 353.099 130.146 352.522 136.935L367.661 128.202C367.94 124.668 368.507 121.769 369.347 119.583C369.816 118.363 370.379 117.343 371.029 116.532L357.442 124.369Z" fill="#222222"/>
<path d="M406.077 119.883L390.437 128.905C388.102 125.274 385.562 121.95 382.813 118.935C381.809 117.834 380.777 116.775 379.72 115.758C379.586 115.629 379.451 115.5 379.316 115.372C378.575 114.671 377.82 113.991 377.052 113.329C374.038 110.733 370.817 108.443 367.39 106.459C366.549 105.972 365.721 105.52 364.904 105.101C364.579 104.934 364.256 104.773 363.936 104.617C363.512 104.412 363.091 104.217 362.674 104.029C362.461 103.934 362.249 103.84 362.037 103.751C355.363 100.894 349.563 100.492 344.637 102.545C344.097 102.769 343.577 103.027 343.073 103.317L358.715 94.2955C359.217 94.0045 359.738 93.7475 360.278 93.5229C365.207 91.4696 371.011 91.8724 377.69 94.7344C377.792 94.7779 377.895 94.8221 377.998 94.867C378.523 95.0968 379.052 95.3413 379.588 95.602C379.806 95.7073 380.025 95.8163 380.246 95.9275C381.159 96.3878 382.088 96.8901 383.03 97.4373C386.461 99.4244 389.684 101.716 392.701 104.315C393.608 105.097 394.497 105.906 395.368 106.744C395.377 106.752 395.385 106.761 395.395 106.769C396.582 107.912 397.734 109.107 398.851 110.353C401.448 113.25 403.857 116.427 406.077 119.882V119.883Z" fill="url(#paint9_linear_428_31029)"/>
<path d="M407.084 166.009L391.444 175.031C397.035 171.806 399.819 165.927 399.795 157.393C399.768 148.065 396.649 138.567 390.438 128.904L406.078 119.882C412.289 129.546 415.409 139.043 415.435 148.371C415.46 156.905 412.676 162.784 407.084 166.009Z" fill="#222222"/>
<path d="M390.437 128.904C396.649 138.567 399.768 148.064 399.795 157.392C399.828 168.961 394.7 175.651 384.414 177.465C379.939 178.28 377.231 179.373 376.289 180.743C375.347 182.113 374.883 185.385 374.898 190.555L357.007 180.196L356.998 177.158C356.971 167.456 357.613 161.721 358.923 159.952C360.233 158.183 363.7 156.531 369.328 155C372.279 154.206 374.33 153.066 375.479 151.576C376.628 150.087 377.199 147.742 377.189 144.544C377.178 140.599 376.083 136.865 373.904 133.342C371.723 129.818 369.085 127.16 365.99 125.367C357.807 120.629 353.226 124.629 352.248 137.367L333.239 123.247C334.637 112.029 338.437 105.129 344.638 102.544C350.837 99.961 358.422 101.265 367.39 106.458C376.543 111.758 384.226 119.239 390.437 128.904V128.904Z" fill="url(#paint10_radial_428_31029)"/>
<path d="M374.897 190.793C374.856 190.793 374.815 190.782 374.778 190.761L356.887 180.402C356.814 180.359 356.769 180.281 356.768 180.197L356.759 177.159C356.731 167.314 357.376 161.639 358.73 159.811C360.087 157.978 363.533 156.33 369.264 154.77C372.151 153.994 374.178 152.871 375.289 151.43C376.4 149.99 376.96 147.674 376.951 144.545C376.94 140.662 375.847 136.934 373.701 133.466C371.552 129.992 368.917 127.337 365.869 125.572C362.484 123.612 359.709 123.174 357.62 124.27C354.766 125.768 353.038 130.18 352.485 137.384C352.478 137.471 352.425 137.546 352.346 137.583C352.267 137.619 352.175 137.608 352.105 137.557L333.096 123.438C333.028 123.387 332.991 123.303 333.002 123.217C333.701 117.605 335.021 113.005 336.927 109.544C338.845 106.061 341.407 103.633 344.545 102.325C347.672 101.021 351.195 100.693 355.015 101.351C358.818 102.005 363.021 103.654 367.509 106.253C372.081 108.901 376.346 112.138 380.183 115.875C384.019 119.611 387.537 123.951 390.638 128.776C393.74 133.603 396.103 138.455 397.662 143.201C399.222 147.951 400.019 152.726 400.033 157.393C400.049 163.204 398.747 167.86 396.163 171.231C393.574 174.61 389.635 176.786 384.455 177.699C380.067 178.498 377.385 179.568 376.485 180.878C375.575 182.201 375.121 185.457 375.136 190.555C375.136 190.641 375.091 190.72 375.017 190.762C374.98 190.783 374.939 190.793 374.898 190.793H374.897ZM357.245 180.06L374.659 190.142C374.669 185.115 375.139 181.994 376.093 180.608C377.081 179.17 379.789 178.065 384.371 177.231C394.481 175.448 399.589 168.774 399.557 157.393C399.531 148.154 396.396 138.611 390.238 129.032C384.076 119.445 376.349 111.92 367.271 106.663C358.412 101.534 350.829 100.222 344.73 102.763C338.666 105.29 334.886 112.146 333.492 123.139L352.044 136.92C352.338 133.446 352.916 130.601 353.763 128.459C354.658 126.197 355.881 124.646 357.399 123.85C359.642 122.672 362.573 123.113 366.109 125.162C369.225 126.966 371.916 129.676 374.107 133.217C376.299 136.762 377.416 140.573 377.428 144.545C377.437 147.781 376.845 150.196 375.668 151.722C374.492 153.246 372.38 154.427 369.391 155.23C363.845 156.739 360.388 158.376 359.115 160.095C357.842 161.815 357.21 167.555 357.237 177.159L357.245 180.061V180.06Z" fill="#222222"/>
<path d="M390.437 129.142C390.358 129.142 390.281 129.103 390.236 129.032C384.075 119.445 376.347 111.92 367.27 106.663C358.411 101.534 350.828 100.222 344.729 102.763C344.205 102.982 343.691 103.235 343.201 103.517L343.193 103.522C343.08 103.588 342.934 103.549 342.868 103.435C342.802 103.322 342.841 103.176 342.955 103.111L358.595 94.0885C359.104 93.7947 359.639 93.5303 360.186 93.3027C363.313 91.9998 366.836 91.6721 370.656 92.329C374.458 92.983 378.662 94.632 383.15 97.2311C387.722 99.8788 391.987 103.116 395.824 106.853C399.66 110.589 403.177 114.929 406.279 119.754C406.314 119.809 406.325 119.876 406.31 119.939C406.294 120.002 406.253 120.056 406.197 120.088L390.557 129.11C390.519 129.131 390.478 129.142 390.438 129.142H390.437ZM351.289 101.022C352.495 101.022 353.738 101.132 355.015 101.351C358.817 102.005 363.021 103.654 367.508 106.253C372.081 108.901 376.345 112.138 380.182 115.875C383.968 119.561 387.443 123.837 390.514 128.585L405.742 119.802C399.602 110.314 391.922 102.86 382.91 97.6421C374.052 92.5132 366.468 91.2007 360.369 93.7416C359.842 93.9611 359.326 94.2167 358.834 94.5002L346.377 101.685C347.933 101.244 349.574 101.022 351.289 101.022Z" fill="#222222"/>
<path d="M391.443 175.269C391.361 175.269 391.281 175.226 391.236 175.15C391.171 175.037 391.21 174.891 391.323 174.825C396.81 171.661 399.579 165.796 399.556 157.394C399.529 148.155 396.394 138.613 390.236 129.033C390.201 128.978 390.19 128.911 390.205 128.848C390.221 128.785 390.261 128.731 390.317 128.699L405.958 119.677C406.068 119.614 406.209 119.647 406.278 119.754C409.379 124.581 411.743 129.433 413.301 134.178C414.861 138.929 415.659 143.703 415.672 148.371C415.684 152.653 414.981 156.325 413.58 159.282C412.174 162.253 410.028 164.585 407.203 166.215L391.562 175.237C391.524 175.258 391.484 175.269 391.443 175.269ZM390.771 128.985C393.807 133.742 396.125 138.524 397.661 143.2C399.221 147.951 400.019 152.725 400.032 157.393C400.044 161.675 399.34 165.347 397.939 168.304C397.109 170.058 396.021 171.589 394.688 172.885L406.964 165.804C412.45 162.639 415.22 156.775 415.196 148.373C415.17 139.195 412.076 129.718 405.999 120.203L390.771 128.986V128.985Z" fill="#222222"/>
<path d="M379.587 95.6013L363.935 104.617C363.511 104.411 363.09 104.216 362.673 104.028C362.46 103.933 362.248 103.84 362.036 103.75L377.689 94.733C377.791 94.7764 377.894 94.8206 377.997 94.8655C378.522 95.0953 379.051 95.3398 379.586 95.6006L379.587 95.6013Z" fill="#222222"/>
<path d="M395.368 106.744L379.72 115.758C379.586 115.629 379.451 115.5 379.316 115.372C378.575 114.671 377.819 113.991 377.052 113.329L392.701 104.315C393.608 105.097 394.497 105.906 395.368 106.744H395.368Z" fill="#222222"/>
<defs>
<radialGradient id="paint0_radial_428_31029" cx="0" cy="0" r="1" gradientUnits="userSpaceOnUse" gradientTransform="translate(10.7778 238.112) rotate(-35.247) scale(17.823 9.94927)">
<stop stop-color="#FFB6D5"/>
<stop offset="0.1" stop-color="#FFE3C0"/>
<stop offset="0.29" stop-color="#C7FBDB"/>
<stop offset="0.43" stop-color="#C7CDF4"/>
<stop offset="0.54" stop-color="#FFBCD4"/>
<stop offset="0.66" stop-color="#FFE0C3"/>
<stop offset="0.76" stop-color="#B0F1D4"/>
<stop offset="0.84" stop-color="#C9CEEC"/>
<stop offset="0.91" stop-color="#FFC1DA"/>
<stop offset="1" stop-color="#BDFFE3"/>
</radialGradient>
<radialGradient id="paint1_radial_428_31029" cx="0" cy="0" r="1" gradientUnits="userSpaceOnUse" gradientTransform="translate(26.7222 263.112) rotate(-11.4146) scale(51.9724 11.9417)">
<stop stop-color="#FFB6D5"/>
<stop offset="0.1" stop-color="#FFE3C0"/>
<stop offset="0.29" stop-color="#C7FBDB"/>
<stop offset="0.43" stop-color="#C7CDF4"/>
<stop offset="0.54" stop-color="#FFBCD4"/>
<stop offset="0.66" stop-color="#FFE0C3"/>
<stop offset="0.76" stop-color="#B0F1D4"/>
<stop offset="0.84" stop-color="#C9CEEC"/>
<stop offset="0.91" stop-color="#FFC1DA"/>
<stop offset="1" stop-color="#BDFFE3"/>
</radialGradient>
<linearGradient id="paint2_linear_428_31029" x1="409.254" y1="209.875" x2="429.011" y2="196.966" gradientUnits="userSpaceOnUse">
<stop stop-color="#FFB6D5"/>
<stop offset="0.1" stop-color="#FFE3C0"/>
<stop offset="0.29" stop-color="#C7FBDB"/>
<stop offset="0.43" stop-color="#C7CDF4"/>
<stop offset="0.54" stop-color="#FFBCD4"/>
<stop offset="0.66" stop-color="#FFE0C3"/>
<stop offset="0.76" stop-color="#B0F1D4"/>
<stop offset="0.84" stop-color="#C9CEEC"/>
<stop offset="0.91" stop-color="#FFC1DA"/>
<stop offset="1" stop-color="#BDFFE3"/>
</linearGradient>
<radialGradient id="paint3_radial_428_31029" cx="0" cy="0" r="1" gradientUnits="userSpaceOnUse" gradientTransform="translate(419.765 206.073) rotate(-47.1612) scale(37.9614 22.4174)">
<stop stop-color="#FFB6D5"/>
<stop offset="0.1" stop-color="#FFE3C0"/>
<stop offset="0.29" stop-color="#C7FBDB"/>
<stop offset="0.43" stop-color="#C7CDF4"/>
<stop offset="0.54" stop-color="#FFBCD4"/>
<stop offset="0.66" stop-color="#FFE0C3"/>
<stop offset="0.76" stop-color="#B0F1D4"/>
<stop offset="0.84" stop-color="#C9CEEC"/>
<stop offset="0.91" stop-color="#FFC1DA"/>
<stop offset="1" stop-color="#BDFFE3"/>
</radialGradient>
<linearGradient id="paint4_linear_428_31029" x1="408.039" y1="156.882" x2="430.517" y2="142.189" gradientUnits="userSpaceOnUse">
<stop stop-color="#FFB6D5"/>
<stop offset="0.1" stop-color="#FFE3C0"/>
<stop offset="0.29" stop-color="#C7FBDB"/>
<stop offset="0.43" stop-color="#C7CDF4"/>
<stop offset="0.54" stop-color="#FFBCD4"/>
<stop offset="0.66" stop-color="#FFE0C3"/>
<stop offset="0.76" stop-color="#B0F1D4"/>
<stop offset="0.84" stop-color="#C9CEEC"/>
<stop offset="0.91" stop-color="#FFC1DA"/>
<stop offset="1" stop-color="#BDFFE3"/>
</linearGradient>
<radialGradient id="paint5_radial_428_31029" cx="0" cy="0" r="1" gradientUnits="userSpaceOnUse" gradientTransform="translate(420.94 158.699) rotate(-64.1898) scale(71.8444 33.3535)">
<stop stop-color="#FFB6D5"/>
<stop offset="0.1" stop-color="#FFE3C0"/>
<stop offset="0.29" stop-color="#C7FBDB"/>
<stop offset="0.43" stop-color="#C7CDF4"/>
<stop offset="0.54" stop-color="#FFBCD4"/>
<stop offset="0.66" stop-color="#FFE0C3"/>
<stop offset="0.76" stop-color="#B0F1D4"/>
<stop offset="0.84" stop-color="#C9CEEC"/>
<stop offset="0.91" stop-color="#FFC1DA"/>
<stop offset="1" stop-color="#BDFFE3"/>
</radialGradient>
<linearGradient id="paint6_linear_428_31029" x1="359.085" y1="202.006" x2="392.522" y2="180.185" gradientUnits="userSpaceOnUse">
<stop stop-color="#FFB6D5"/>
<stop offset="0.1" stop-color="#FFE3C0"/>
<stop offset="0.29" stop-color="#C7FBDB"/>
<stop offset="0.43" stop-color="#C7CDF4"/>
<stop offset="0.54" stop-color="#FFBCD4"/>
<stop offset="0.66" stop-color="#FFE0C3"/>
<stop offset="0.76" stop-color="#B0F1D4"/>
<stop offset="0.84" stop-color="#C9CEEC"/>
<stop offset="0.91" stop-color="#FFC1DA"/>
<stop offset="1" stop-color="#BDFFE3"/>
</linearGradient>
<radialGradient id="paint7_radial_428_31029" cx="0" cy="0" r="1" gradientUnits="userSpaceOnUse" gradientTransform="translate(375.116 195.699) rotate(-46.5874) scale(57.8257 34.1927)">
<stop stop-color="#FFB6D5"/>
<stop offset="0.1" stop-color="#FFE3C0"/>
<stop offset="0.29" stop-color="#C7FBDB"/>
<stop offset="0.43" stop-color="#C7CDF4"/>
<stop offset="0.54" stop-color="#FFBCD4"/>
<stop offset="0.66" stop-color="#FFE0C3"/>
<stop offset="0.76" stop-color="#B0F1D4"/>
<stop offset="0.84" stop-color="#C9CEEC"/>
<stop offset="0.91" stop-color="#FFC1DA"/>
<stop offset="1" stop-color="#BDFFE3"/>
</radialGradient>
<radialGradient id="paint8_radial_428_31029" cx="0" cy="0" r="1" gradientUnits="userSpaceOnUse" gradientTransform="translate(384.649 147.632) rotate(-17.1862) scale(52.5341 17.5646)">
<stop stop-color="#FFB6D5"/>
<stop offset="0.1" stop-color="#FFE3C0"/>
<stop offset="0.29" stop-color="#C7FBDB"/>
<stop offset="0.43" stop-color="#C7CDF4"/>
<stop offset="0.54" stop-color="#FFBCD4"/>
<stop offset="0.66" stop-color="#FFE0C3"/>
<stop offset="0.76" stop-color="#B0F1D4"/>
<stop offset="0.84" stop-color="#C9CEEC"/>
<stop offset="0.91" stop-color="#FFC1DA"/>
<stop offset="1" stop-color="#BDFFE3"/>
</radialGradient>
<linearGradient id="paint9_linear_428_31029" x1="347.239" y1="132.847" x2="403.771" y2="96.2013" gradientUnits="userSpaceOnUse">
<stop stop-color="#FFB6D5"/>
<stop offset="0.1" stop-color="#FFE3C0"/>
<stop offset="0.29" stop-color="#C7FBDB"/>
<stop offset="0.43" stop-color="#C7CDF4"/>
<stop offset="0.54" stop-color="#FFBCD4"/>
<stop offset="0.66" stop-color="#FFE0C3"/>
<stop offset="0.76" stop-color="#B0F1D4"/>
<stop offset="0.84" stop-color="#C9CEEC"/>
<stop offset="0.91" stop-color="#FFC1DA"/>
<stop offset="1" stop-color="#BDFFE3"/>
</linearGradient>
<radialGradient id="paint10_radial_428_31029" cx="0" cy="0" r="1" gradientUnits="userSpaceOnUse" gradientTransform="translate(389.627 122.215) rotate(-40.1234) scale(158.364 92.4299)">
<stop stop-color="#FFB6D5"/>
<stop offset="0.1" stop-color="#FFE3C0"/>
<stop offset="0.29" stop-color="#C7FBDB"/>
<stop offset="0.43" stop-color="#C7CDF4"/>
<stop offset="0.54" stop-color="#FFBCD4"/>
<stop offset="0.66" stop-color="#FFE0C3"/>
<stop offset="0.76" stop-color="#B0F1D4"/>
<stop offset="0.84" stop-color="#C9CEEC"/>
<stop offset="0.91" stop-color="#FFC1DA"/>
<stop offset="1" stop-color="#BDFFE3"/>
</radialGradient>
</defs>
</svg>
