<svg width="241" height="96" viewBox="0 0 241 96" fill="none" xmlns="http://www.w3.org/2000/svg">
<path d="M51.6946 7.36161C51.6945 7.36192 51.6942 7.36214 51.6939 7.36216C48.596 7.63571 45.421 8.5381 42.2024 9.80799C41.53 10.0733 40.8869 10.4359 40.2705 10.8519C38.6342 11.9564 36.9956 12.9484 35.3539 13.7743C35.303 13.8073 35.3295 13.8908 35.3855 13.8739C38.494 12.9343 41.5445 12.3324 44.5011 12.2773C62.3349 11.9471 85.0266 33.1479 102.415 24.1417C105.571 22.5067 108.241 20.0377 110.57 16.9998C111.257 16.1042 109.296 14.388 108.369 14.9472C91.9461 24.8471 68.9597 5.83777 51.6952 7.36106C51.6949 7.36109 51.6947 7.36131 51.6946 7.36161Z" fill="url(#paint0_radial_1667_213740)"/>
<path d="M7.00781 25.7451C7.0082 25.7449 7.00861 25.7448 7.00902 25.7447C9.08786 25.3947 11.1989 24.7893 13.3328 24.0055C13.6545 23.8873 13.545 23.2572 13.2137 23.2952C13.1884 23.2981 13.1636 23.3048 13.1394 23.3153C11.081 24.2074 9.03347 25.0361 7.00781 25.7451Z" fill="url(#paint1_radial_1667_213740)"/>
<path d="M116.881 6.01346C116.881 6.01344 116.881 6.01341 116.881 6.01337C118.82 2.86881 120.449 -0.732184 121.907 -4.5687C121.295 -3.38193 120.642 -2.24856 119.941 -1.17985C119.817 -0.990331 119.711 -0.787829 119.628 -0.575216C118.752 1.67881 117.844 3.88902 116.881 6.01316C116.881 6.01336 116.881 6.01356 116.881 6.01346Z" fill="url(#paint2_radial_1667_213740)"/>
<path d="M22.7608 19.6901C22.2224 19.9713 22.3782 20.5435 22.9252 20.2877C24.0332 19.7697 25.1449 19.2031 26.2596 18.6002C25.1289 19.0323 24.0007 19.3861 22.8746 19.6476C22.8359 19.6566 22.7971 19.6711 22.7608 19.6901Z" fill="url(#paint3_radial_1667_213740)"/>
<path d="M-23.2685 -25.391C-23.2687 -25.3909 -23.2689 -25.3909 -23.269 -25.391C-26.8516 -28.2894 -31.3314 -30.2314 -36.1567 -31.8449C-38.0266 -32.1953 -39.8648 -32.602 -41.6426 -33.1064C-37.6855 -31.3313 -34.0561 -29.2685 -31.1019 -26.5661C-17.2777 -13.9193 -10.6808 17.3695 5.87353 22.6488C8.21152 23.3945 10.5932 23.5704 13.0076 23.3178C13.1201 23.306 13.2318 23.2757 13.3394 23.2289C13.8932 22.988 14.4478 22.7427 15.0029 22.494C15.9791 22.0568 15.7856 19.9529 14.8077 19.7131C-1.45073 15.7233 -9.30333 -14.0917 -23.268 -25.3909C-23.2681 -25.391 -23.2683 -25.391 -23.2685 -25.391Z" fill="url(#paint4_radial_1667_213740)"/>
<path d="M64.6501 -3.81561C64.6502 -3.81555 64.6502 -3.81534 64.65 -3.81531C60.1437 -2.77845 55.6026 -0.266862 51.0517 2.75886C50.6474 3.10881 51.1446 4.17583 51.619 3.98055C53.9049 3.03973 56.1738 2.33736 58.4175 1.98104C75.0587 -0.659126 98.2076 16.1936 113.639 5.50164C115.99 3.87215 117.968 1.7383 119.666 -0.765515C119.724 -0.851686 119.773 -0.945064 119.811 -1.04291C120.012 -1.56337 120.211 -2.08601 120.409 -2.61032C120.818 -3.69486 119.098 -4.82443 118.221 -4.13233C103.8 7.24787 80.6199 -7.48999 64.6501 -3.8159C64.65 -3.81587 64.6499 -3.81566 64.6501 -3.81561Z" fill="url(#paint5_radial_1667_213740)"/>
<path d="M33.1105 14.7946C32.4661 15.0548 31.8316 15.3544 31.2253 15.7241C29.5657 16.7361 27.9097 17.7083 26.2601 18.6007C29.0873 17.5211 31.9283 15.9564 34.7774 14.1439C34.8171 14.1187 34.7971 14.0554 34.7537 14.0693C34.2062 14.331 33.6586 14.5734 33.1105 14.7946Z" fill="url(#paint6_radial_1667_213740)"/>
<path d="M20.2578 20.0811C20.2582 20.0809 20.2586 20.0807 20.259 20.0807C21.0692 20.0025 21.8817 19.8698 22.695 19.6882C22.7766 19.67 22.8566 19.6402 22.9331 19.6001C25.2208 18.4017 27.5181 17.1323 29.8138 15.8823C29.8277 15.8747 29.8222 15.8525 29.8073 15.8561C29.8067 15.8562 29.8061 15.8564 29.8055 15.8566C26.6468 17.1215 23.4523 18.5984 20.2578 20.0811Z" fill="url(#paint7_radial_1667_213740)"/>
<path d="M41.1878 9.75482C41.1874 9.75502 41.187 9.75525 41.1866 9.75551C41.1346 9.79279 41.0826 9.83006 41.0307 9.8673C40.8512 9.99585 40.9775 10.3069 41.1753 10.2245C41.1873 10.2195 41.1988 10.2132 41.2097 10.2055C42.1769 9.52824 43.143 8.81552 44.1093 8.07714C43.1396 8.699 42.1661 9.26223 41.1878 9.75482Z" fill="url(#paint8_radial_1667_213740)"/>
<path d="M36.8927 12.176C36.1311 12.6576 35.3695 13.1404 34.6081 13.6203C34.3858 13.7604 34.5107 14.1457 34.7531 14.0691C34.9532 13.9738 35.1529 13.8753 35.3524 13.7744C35.9281 13.4019 36.5041 13.0198 37.0802 12.6302C37.3727 12.4324 37.2036 12.0238 36.8921 12.1763L36.8927 12.176Z" fill="url(#paint9_radial_1667_213740)"/>
<path d="M30.0156 15.7719C30.0155 15.7722 30.0153 15.7724 30.015 15.7726C30.0131 15.7736 30.0113 15.7746 30.0094 15.7756C29.9935 15.7842 29.9997 15.8095 30.0167 15.8053C30.7204 15.6319 31.4236 15.4181 32.126 15.1677C32.1323 15.1654 32.1385 15.1624 32.1443 15.1588C32.2442 15.0971 32.1925 14.9412 32.0851 14.9805C31.3974 15.2323 30.7077 15.4967 30.0163 15.7711C30.0159 15.7713 30.0157 15.7715 30.0156 15.7719Z" fill="url(#paint10_radial_1667_213740)"/>
<path d="M31.4059 11.8794C31.4059 11.8796 31.4058 11.8798 31.4056 11.8798C15.9368 10.2845 5.93428 -16.3977 -8.06708 -25.0814C-13.1217 -28.2167 -19.6554 -29.3599 -26.3984 -30.3391C-27.888 -30.4844 -29.3639 -30.6593 -30.8145 -30.8848C-25.1463 -29.5532 -19.7966 -27.9064 -15.577 -24.9051C-1.55431 -14.9291 7.43499 13.3464 23.3299 16.1068C25.4254 16.4711 27.5112 16.3679 29.5899 15.9048C29.7343 15.8726 29.877 15.8271 30.0171 15.7711C32.3152 14.521 34.6111 13.2919 36.894 12.1743C37.16 12.0061 36.9627 11.3998 36.6695 11.4727C34.9357 11.9041 33.1829 12.062 31.4061 11.8791C31.4059 11.8791 31.4058 11.8793 31.4059 11.8794Z" fill="url(#paint11_radial_1667_213740)"/>
<path d="M125.329 -23.7123C125.329 -23.7125 125.328 -23.7125 125.328 -23.7124C112.962 -11.2653 90.0863 -21.9471 75.5814 -16.4575C69.8852 -14.302 64.3859 -9.48433 58.9101 -4.41728C57.7785 -3.27798 56.6435 -2.17099 55.5018 -1.12283C60.4343 -5.02814 65.3814 -8.46344 70.3767 -9.97767C85.6325 -14.6029 108.72 -1.9252 122.117 -13.8906C124.075 -15.639 125.669 -17.7754 126.991 -20.1984C127.037 -20.3121 127.084 -20.4253 127.131 -20.5383C128.007 -23.3864 128.889 -26.2057 129.827 -28.9196C130.118 -30.0728 130.409 -31.2238 130.704 -32.3664C129.401 -29.0254 127.676 -26.0747 125.329 -23.7122C125.329 -23.7121 125.329 -23.7121 125.329 -23.7123Z" fill="url(#paint12_radial_1667_213740)"/>
<path d="M44.1076 8.07729C44.1076 8.07751 44.1079 8.07758 44.1081 8.07746C44.6281 7.7438 45.1469 7.39358 45.6646 7.02872C45.7414 6.97464 45.6915 6.86659 45.6104 6.91128C45.6067 6.91332 45.6031 6.91569 45.5997 6.91836C45.1023 7.31003 44.6052 7.69663 44.1077 8.07677C44.1076 8.07689 44.1075 8.07711 44.1076 8.07729Z" fill="url(#paint13_radial_1667_213740)"/>
<path d="M49.1845 4.02583C49.1844 4.02566 49.1845 4.02545 49.1847 4.02535C49.807 3.59503 50.4291 3.17153 51.0515 2.75862C51.6141 2.27206 52.1763 1.77489 52.7379 1.27222C51.9227 1.93363 51.1034 2.55483 50.2778 3.12782C49.9137 3.42766 49.5496 3.72751 49.185 4.02596C49.1848 4.02611 49.1846 4.02604 49.1845 4.02583Z" fill="url(#paint14_radial_1667_213740)"/>
<path d="M44.8634 7.32838C45.3556 7.0505 45.8324 6.7357 46.2834 6.37626C47.2501 5.60589 48.2163 4.81882 49.1827 4.02616C47.2216 5.38246 45.2589 6.80933 43.2976 8.23049C43.8201 7.92381 44.342 7.62275 44.8634 7.32838Z" fill="url(#paint15_radial_1667_213740)"/>
<path d="M41.1751 9.76021C41.1823 9.75663 41.1892 9.7524 41.1958 9.74766C41.8963 9.24509 42.597 8.73745 43.2978 8.22984C42.5644 8.66018 41.8305 9.10155 41.0962 9.55043C40.9374 9.64747 41.0108 9.84303 41.1751 9.76021Z" fill="url(#paint16_radial_1667_213740)"/>
<path d="M52.737 1.27159C52.737 1.27143 52.737 1.27124 52.7372 1.27113C53.664 0.519502 54.584 -0.283398 55.5004 -1.12343C55.1557 -0.850197 54.8108 -0.575277 54.4668 -0.298242C53.8904 0.230306 53.3146 0.754459 52.7376 1.27171C52.7374 1.27187 52.7371 1.27181 52.737 1.27159Z" fill="url(#paint17_radial_1667_213740)"/>
<path d="M139.133 -89.8358C139.133 -89.8357 139.133 -89.8357 139.133 -89.8359C145.344 -106.47 166.278 -119.503 166.695 -137.431C166.804 -142.132 165.488 -146.591 163.39 -150.918C162.43 -152.588 161.467 -154.259 160.528 -155.931C159.391 -157.704 158.23 -159.474 157.085 -161.247C151.186 -169.631 144.236 -177.847 141.385 -186.785C136.149 -203.204 143.47 -230.185 132.747 -243.747C129.791 -247.486 125.906 -249.643 121.549 -250.956C119.961 -251.296 118.377 -251.633 116.812 -251.988C114.98 -252.265 113.139 -252.519 111.312 -252.784C102.236 -253.672 92.6738 -253.496 85.6908 -257.228C71.7876 -264.658 60.8941 -289.704 45.9093 -290.203C41.98 -290.334 38.2531 -288.76 34.6366 -286.249C33.2406 -285.1 31.8444 -283.948 30.4467 -282.824C28.965 -281.465 27.4858 -280.076 26.0039 -278.705C18.9963 -271.648 12.1288 -263.332 4.65845 -259.922C-9.06476 -253.657 -31.6162 -262.416 -42.9513 -249.587C-46.0767 -246.05 -47.8799 -241.403 -48.9773 -236.19C-49.261 -234.29 -49.5427 -232.394 -49.8398 -230.521C-50.0715 -228.33 -50.2832 -226.127 -50.5046 -223.942C-51.2468 -213.083 -51.0999 -201.642 -54.2191 -193.287C-60.4291 -176.653 -81.3637 -163.62 -81.7804 -145.692C-81.8898 -140.991 -80.5742 -136.532 -78.4761 -132.205C-77.5156 -130.535 -76.5523 -128.864 -75.6133 -127.192C-74.4769 -125.419 -73.3158 -123.649 -72.1703 -121.876C-66.2717 -113.492 -59.3216 -105.276 -56.4707 -96.3381C-51.2344 -79.9192 -58.5556 -52.938 -47.8332 -39.3764C-44.8766 -35.6371 -40.9922 -33.4797 -36.6352 -32.1667C-35.0469 -31.8274 -33.4623 -31.4903 -31.8974 -31.1348C-30.0657 -30.8576 -28.2247 -30.6043 -26.3982 -30.3394C-17.3224 -29.4514 -7.75959 -29.6272 -0.776539 -25.8953C13.1266 -18.4654 24.0202 6.58134 39.005 7.0798C42.9343 7.21071 46.6611 5.6367 50.2776 3.12647C51.6736 1.97732 53.0698 0.824769 54.4675 -0.298673C55.9492 -1.65828 57.4285 -3.04741 58.9103 -4.41793C65.9179 -11.4752 72.7854 -19.7905 80.2558 -23.2014C93.979 -29.4663 116.53 -20.7069 127.865 -33.5355C130.991 -37.0729 132.794 -41.7203 133.892 -46.9332C134.175 -48.8334 134.457 -50.7293 134.754 -52.6016C134.986 -54.7931 135.197 -56.9957 135.419 -59.1809C136.161 -70.0394 136.014 -81.4804 139.133 -89.8358C139.133 -89.836 139.133 -89.836 139.133 -89.8358ZM129.738 -43.2994C119.427 -30.1899 97.3079 -37.1091 84.3907 -30.157C70.9999 -22.9504 60.5484 1.23525 46.0999 1.76046C31.6514 2.2857 19.9906 -21.0945 6.25875 -27.3142C-6.98757 -33.3144 -28.7149 -24.799 -39.6721 -37.1352C-50.6293 -49.4713 -44.8461 -75.9358 -50.6568 -91.3902C-56.6802 -107.411 -76.8951 -119.916 -77.3341 -137.202C-77.7731 -154.489 -58.2314 -168.44 -53.0329 -184.87C-48.0178 -200.718 -55.1351 -226.713 -44.8243 -239.823C-34.5135 -252.932 -12.394 -246.013 0.523159 -252.965C13.914 -260.172 24.3655 -284.357 38.814 -284.882C53.2625 -285.408 64.9233 -262.027 78.6551 -255.808C91.9015 -249.808 113.629 -258.323 124.586 -245.987C135.543 -233.651 129.76 -207.186 135.571 -191.732C141.594 -175.711 161.809 -163.206 162.248 -145.919C162.687 -128.633 143.145 -114.682 137.947 -98.2524C132.932 -82.4041 140.049 -56.4089 129.738 -43.2994Z" fill="url(#paint18_radial_1667_213740)"/>
<path d="M157.412 -153.776C157.412 -153.776 157.412 -153.776 157.412 -153.777C156.181 -170.365 136.162 -181.032 129.622 -196.029C123.313 -210.497 127.634 -236.326 116.523 -247.45C105.412 -258.575 84.9236 -248.934 71.9082 -253.815C58.4162 -258.875 46.1122 -280.57 32.2469 -279.096C18.3816 -277.623 9.46599 -253.673 -3.06936 -245.848C-15.162 -238.299 -36.7498 -243.469 -46.0479 -230.176C-55.3465 -216.882 -47.2883 -192.369 -51.3676 -176.797C-55.5968 -160.655 -73.7298 -145.934 -72.4985 -129.345C-71.2673 -112.756 -51.2487 -102.089 -44.7085 -87.0917C-38.3995 -72.6237 -42.7204 -46.7954 -31.6095 -35.6709C-20.4983 -24.5458 -0.0099505 -34.1868 13.0053 -29.3069C26.4972 -24.2471 38.8013 -2.55217 52.6666 -4.02532C66.5319 -5.49845 75.4474 -29.4492 87.9828 -37.2741C100.075 -44.8224 121.663 -39.6527 130.961 -52.9462C140.26 -66.2399 132.202 -90.7527 136.281 -106.324C140.51 -122.467 158.642 -137.187 157.411 -153.776C157.411 -153.776 157.412 -153.776 157.412 -153.776ZM131.555 -62.4186C123.25 -49.0361 102.286 -52.5553 91.0314 -44.5001C79.3641 -36.1505 71.9254 -12.5636 58.6846 -10.2221C45.4438 -7.88054 32.6198 -27.8834 19.4321 -31.8376C6.71076 -35.6521 -12.5058 -25.0269 -23.6913 -34.9624C-34.8767 -44.898 -31.9358 -69.98 -38.6679 -83.4455C-45.6467 -97.4046 -65.3612 -106.305 -67.3182 -122.146C-69.2753 -137.988 -52.5565 -153.331 -49.2516 -169.109C-46.0633 -184.329 -54.9441 -207.32 -46.6397 -220.703C-38.3354 -234.086 -17.3714 -230.567 -6.11655 -238.622C5.55075 -246.971 12.9895 -270.558 26.2303 -272.9C39.4711 -275.241 52.2951 -255.238 65.4828 -251.284C78.2041 -247.47 97.4207 -258.095 108.606 -248.159C119.792 -238.224 116.85 -213.141 123.583 -199.676C130.562 -185.717 150.276 -176.817 152.233 -160.975C154.19 -145.134 137.471 -129.791 134.166 -114.013C130.978 -98.7925 139.859 -75.8012 131.555 -62.4186Z" fill="url(#paint19_radial_1667_213740)"/>
<path d="M146.757 -167.499C144.142 -182.551 124.833 -189.764 117.493 -202.675C110.413 -215.131 112.062 -239.365 100.878 -248.14C89.6949 -256.916 71.7741 -245.449 59.4043 -248.256C46.581 -251.164 33.3573 -269.478 20.777 -266.35C8.19646 -263.221 2.16765 -240.12 -8.62418 -231.338C-19.0348 -222.867 -39.2902 -224.84 -46.6249 -211.459C-53.9596 -198.079 -44.3756 -176.638 -46.7213 -161.839C-49.1524 -146.496 -64.4598 -130.675 -61.8445 -115.624C-59.2298 -100.572 -39.9209 -93.3591 -32.5812 -80.4474C-25.5009 -67.9919 -27.1498 -43.7577 -15.9663 -34.9823C-4.78271 -26.2069 13.1381 -37.6734 25.5079 -34.8669C38.3312 -31.9582 51.5549 -13.6441 64.1352 -16.7731C76.7157 -19.9014 82.7445 -43.0031 93.5364 -51.7846C103.947 -60.2556 124.202 -58.2828 131.537 -71.6631C138.872 -85.0434 129.288 -106.484 131.633 -121.284C134.065 -136.626 149.372 -152.447 146.757 -167.499ZM130.936 -80.6283C124.542 -67.3381 105.072 -67.8748 95.506 -59.0763C85.5902 -49.9553 80.8978 -27.452 69.0085 -23.6203C57.1185 -19.7882 43.6142 -36.428 31.2111 -38.3558C19.2462 -40.2158 2.63515 -28.0515 -8.47277 -35.7008C-19.5807 -43.3501 -19.1324 -66.6452 -26.4864 -78.0902C-34.1098 -89.9537 -52.9186 -95.5678 -56.1212 -109.793C-59.3241 -124.018 -45.4163 -140.175 -43.805 -155.014C-42.2503 -169.33 -52.4176 -189.204 -46.0241 -202.493C-39.63 -215.783 -20.1601 -215.247 -10.5941 -224.045C-0.678343 -233.166 4.01405 -255.67 15.9034 -259.501C27.7933 -263.333 41.2977 -246.694 53.7008 -244.766C65.6656 -242.906 82.2767 -255.07 93.3846 -247.421C104.493 -239.771 104.044 -216.476 111.398 -205.031C119.022 -193.168 137.83 -187.554 141.033 -173.329C144.236 -159.104 130.328 -142.947 128.717 -128.107C127.162 -113.792 137.329 -93.9181 130.936 -80.6283Z" fill="url(#paint20_radial_1667_213740)"/>
<path d="M135.111 -178.456C131.391 -191.827 113.17 -195.936 105.339 -206.757C97.7852 -217.196 97.131 -239.47 86.168 -246.036C75.205 -252.602 59.9091 -239.88 48.3973 -240.861C36.4637 -241.876 22.7946 -256.867 11.6192 -252.416C0.443806 -247.966 -2.99039 -226.166 -12.0354 -216.797C-20.7601 -207.759 -39.3778 -206.976 -44.8656 -193.86C-50.3534 -180.743 -39.7204 -162.443 -40.5396 -148.67C-41.3886 -134.392 -53.9179 -118.038 -50.1982 -104.667C-46.4786 -91.2967 -28.2576 -87.1879 -20.4266 -76.3662C-12.8724 -65.9278 -12.2176 -43.6533 -1.25522 -37.0873C9.70775 -30.5215 25.0037 -43.2431 36.5155 -42.263C48.449 -41.2472 62.1181 -26.2568 73.2936 -30.7071C84.469 -35.1574 87.9032 -56.9576 96.9482 -66.3268C105.673 -75.3648 124.29 -76.1482 129.778 -89.2639C135.266 -102.38 124.633 -120.681 125.452 -134.454C126.301 -148.732 138.831 -165.086 135.111 -178.456ZM121.875 -140.3C121.734 -127.12 132.715 -110.387 128.094 -97.5235C123.473 -84.6602 105.769 -82.6777 97.8731 -73.486C89.6884 -63.9569 87.4275 -42.9547 76.9842 -37.9716C66.541 -32.9886 52.8204 -46.366 41.4013 -46.5411C30.3857 -46.7101 16.3997 -33.5723 5.64825 -39.1007C-5.10317 -44.629 -6.76017 -65.8113 -14.4428 -75.258C-22.4074 -85.0503 -39.9615 -87.7553 -44.1265 -100.25C-48.2914 -112.745 -37.1103 -129.16 -36.9639 -142.822C-36.8227 -156.002 -47.8035 -172.735 -43.1828 -185.598C-38.5621 -198.462 -20.8575 -200.444 -12.9618 -209.636C-4.77714 -219.165 -2.51622 -240.167 7.92704 -245.15C18.3703 -250.133 32.0909 -236.756 43.51 -236.581C54.5255 -236.412 68.5116 -249.55 79.263 -244.021C90.0145 -238.493 91.6715 -217.311 99.3541 -207.864C107.319 -198.072 124.873 -195.367 129.038 -182.872C133.203 -170.377 122.022 -153.962 121.875 -140.3Z" fill="url(#paint21_radial_1667_213740)"/>
<defs>
<radialGradient id="paint0_radial_1667_213740" cx="0" cy="0" r="1" gradientUnits="userSpaceOnUse" gradientTransform="translate(98.5781 -8.79527) rotate(-44.294) scale(159.194 50.381)">
<stop stop-color="#FFB6D5"/>
<stop offset="0.1" stop-color="#FFE3C0"/>
<stop offset="0.29" stop-color="#C7FBDB"/>
<stop offset="0.43" stop-color="#C7CDF4"/>
<stop offset="0.54" stop-color="#FFBCD4"/>
<stop offset="0.66" stop-color="#FFE0C3"/>
<stop offset="0.76" stop-color="#B0F1D4"/>
<stop offset="0.84" stop-color="#C9CEEC"/>
<stop offset="0.91" stop-color="#FFC1DA"/>
<stop offset="1" stop-color="#BDFFE3"/>
</radialGradient>
<radialGradient id="paint1_radial_1667_213740" cx="0" cy="0" r="1" gradientUnits="userSpaceOnUse" gradientTransform="translate(14.9539 22.0807) rotate(-33.2024) scale(19.2408 2.26834)">
<stop stop-color="#FFB6D5"/>
<stop offset="0.1" stop-color="#FFE3C0"/>
<stop offset="0.29" stop-color="#C7FBDB"/>
<stop offset="0.43" stop-color="#C7CDF4"/>
<stop offset="0.54" stop-color="#FFBCD4"/>
<stop offset="0.66" stop-color="#FFE0C3"/>
<stop offset="0.76" stop-color="#B0F1D4"/>
<stop offset="0.84" stop-color="#C9CEEC"/>
<stop offset="0.91" stop-color="#FFC1DA"/>
<stop offset="1" stop-color="#BDFFE3"/>
</radialGradient>
<radialGradient id="paint2_radial_1667_213740" cx="0" cy="0" r="1" gradientUnits="userSpaceOnUse" gradientTransform="translate(121.338 -2.40148) rotate(-53.7358) scale(18.2409 8.03426)">
<stop stop-color="#FFB6D5"/>
<stop offset="0.1" stop-color="#FFE3C0"/>
<stop offset="0.29" stop-color="#C7FBDB"/>
<stop offset="0.43" stop-color="#C7CDF4"/>
<stop offset="0.54" stop-color="#FFBCD4"/>
<stop offset="0.66" stop-color="#FFE0C3"/>
<stop offset="0.76" stop-color="#B0F1D4"/>
<stop offset="0.84" stop-color="#C9CEEC"/>
<stop offset="0.91" stop-color="#FFC1DA"/>
<stop offset="1" stop-color="#BDFFE3"/>
</radialGradient>
<radialGradient id="paint3_radial_1667_213740" cx="0" cy="0" r="1" gradientUnits="userSpaceOnUse" gradientTransform="translate(24.6481 18.7458) rotate(-30.2013) scale(18.9419 1.09501)">
<stop stop-color="#FFB6D5"/>
<stop offset="0.1" stop-color="#FFE3C0"/>
<stop offset="0.29" stop-color="#C7FBDB"/>
<stop offset="0.43" stop-color="#C7CDF4"/>
<stop offset="0.54" stop-color="#FFBCD4"/>
<stop offset="0.66" stop-color="#FFE0C3"/>
<stop offset="0.76" stop-color="#B0F1D4"/>
<stop offset="0.84" stop-color="#C9CEEC"/>
<stop offset="0.91" stop-color="#FFC1DA"/>
<stop offset="1" stop-color="#BDFFE3"/>
</radialGradient>
<radialGradient id="paint4_radial_1667_213740" cx="0" cy="0" r="1" gradientUnits="userSpaceOnUse" gradientTransform="translate(-5.11142 -32.0204) rotate(-72.8939) scale(121.268 62.1945)">
<stop stop-color="#FFB6D5"/>
<stop offset="0.1" stop-color="#FFE3C0"/>
<stop offset="0.29" stop-color="#C7FBDB"/>
<stop offset="0.43" stop-color="#C7CDF4"/>
<stop offset="0.54" stop-color="#FFBCD4"/>
<stop offset="0.66" stop-color="#FFE0C3"/>
<stop offset="0.76" stop-color="#B0F1D4"/>
<stop offset="0.84" stop-color="#C9CEEC"/>
<stop offset="0.91" stop-color="#FFC1DA"/>
<stop offset="1" stop-color="#BDFFE3"/>
</radialGradient>
<radialGradient id="paint5_radial_1667_213740" cx="0" cy="0" r="1" gradientUnits="userSpaceOnUse" gradientTransform="translate(106.959 -18.2933) rotate(-41.359) scale(150.605 40.4409)">
<stop stop-color="#FFB6D5"/>
<stop offset="0.1" stop-color="#FFE3C0"/>
<stop offset="0.29" stop-color="#C7FBDB"/>
<stop offset="0.43" stop-color="#C7CDF4"/>
<stop offset="0.54" stop-color="#FFBCD4"/>
<stop offset="0.66" stop-color="#FFE0C3"/>
<stop offset="0.76" stop-color="#B0F1D4"/>
<stop offset="0.84" stop-color="#C9CEEC"/>
<stop offset="0.91" stop-color="#FFC1DA"/>
<stop offset="1" stop-color="#BDFFE3"/>
</radialGradient>
<radialGradient id="paint6_radial_1667_213740" cx="0" cy="0" r="1" gradientUnits="userSpaceOnUse" gradientTransform="translate(33.6355 14.5393) rotate(-29.445) scale(18.1129 0.768138)">
<stop stop-color="#FFB6D5"/>
<stop offset="0.1" stop-color="#FFE3C0"/>
<stop offset="0.29" stop-color="#C7FBDB"/>
<stop offset="0.43" stop-color="#C7CDF4"/>
<stop offset="0.54" stop-color="#FFBCD4"/>
<stop offset="0.66" stop-color="#FFE0C3"/>
<stop offset="0.76" stop-color="#B0F1D4"/>
<stop offset="0.84" stop-color="#C9CEEC"/>
<stop offset="0.91" stop-color="#FFC1DA"/>
<stop offset="1" stop-color="#BDFFE3"/>
</radialGradient>
<radialGradient id="paint7_radial_1667_213740" cx="0" cy="0" r="1" gradientUnits="userSpaceOnUse" gradientTransform="translate(28.3025 16.1268) rotate(-30.0906) scale(19.4421 1.08022)">
<stop stop-color="#FFB6D5"/>
<stop offset="0.1" stop-color="#FFE3C0"/>
<stop offset="0.29" stop-color="#C7FBDB"/>
<stop offset="0.43" stop-color="#C7CDF4"/>
<stop offset="0.54" stop-color="#FFBCD4"/>
<stop offset="0.66" stop-color="#FFE0C3"/>
<stop offset="0.76" stop-color="#B0F1D4"/>
<stop offset="0.84" stop-color="#C9CEEC"/>
<stop offset="0.91" stop-color="#FFC1DA"/>
<stop offset="1" stop-color="#BDFFE3"/>
</radialGradient>
<radialGradient id="paint8_radial_1667_213740" cx="0" cy="0" r="1" gradientUnits="userSpaceOnUse" gradientTransform="translate(43.431 8.57621) rotate(-31.1176) scale(9.80552 0.748586)">
<stop stop-color="#FFB6D5"/>
<stop offset="0.1" stop-color="#FFE3C0"/>
<stop offset="0.29" stop-color="#C7FBDB"/>
<stop offset="0.43" stop-color="#C7CDF4"/>
<stop offset="0.54" stop-color="#FFBCD4"/>
<stop offset="0.66" stop-color="#FFE0C3"/>
<stop offset="0.76" stop-color="#B0F1D4"/>
<stop offset="0.84" stop-color="#C9CEEC"/>
<stop offset="0.91" stop-color="#FFC1DA"/>
<stop offset="1" stop-color="#BDFFE3"/>
</radialGradient>
<radialGradient id="paint9_radial_1667_213740" cx="0" cy="0" r="1" gradientUnits="userSpaceOnUse" gradientTransform="translate(38.5159 11.5232) rotate(-30.7379) scale(13.8803 0.953324)">
<stop stop-color="#FFB6D5"/>
<stop offset="0.1" stop-color="#FFE3C0"/>
<stop offset="0.29" stop-color="#C7FBDB"/>
<stop offset="0.43" stop-color="#C7CDF4"/>
<stop offset="0.54" stop-color="#FFBCD4"/>
<stop offset="0.66" stop-color="#FFE0C3"/>
<stop offset="0.76" stop-color="#B0F1D4"/>
<stop offset="0.84" stop-color="#C9CEEC"/>
<stop offset="0.91" stop-color="#FFC1DA"/>
<stop offset="1" stop-color="#BDFFE3"/>
</radialGradient>
<radialGradient id="paint10_radial_1667_213740" cx="0" cy="0" r="1" gradientUnits="userSpaceOnUse" gradientTransform="translate(32.3788 14.6626) rotate(-32.1518) scale(5.99074 0.581521)">
<stop stop-color="#FFB6D5"/>
<stop offset="0.1" stop-color="#FFE3C0"/>
<stop offset="0.29" stop-color="#C7FBDB"/>
<stop offset="0.43" stop-color="#C7CDF4"/>
<stop offset="0.54" stop-color="#FFBCD4"/>
<stop offset="0.66" stop-color="#FFE0C3"/>
<stop offset="0.76" stop-color="#B0F1D4"/>
<stop offset="0.84" stop-color="#C9CEEC"/>
<stop offset="0.91" stop-color="#FFC1DA"/>
<stop offset="1" stop-color="#BDFFE3"/>
</radialGradient>
<radialGradient id="paint11_radial_1667_213740" cx="0" cy="0" r="1" gradientUnits="userSpaceOnUse" gradientTransform="translate(14.2771 -35.8955) rotate(-64.1996) scale(132.364 67.8098)">
<stop stop-color="#FFB6D5"/>
<stop offset="0.1" stop-color="#FFE3C0"/>
<stop offset="0.29" stop-color="#C7FBDB"/>
<stop offset="0.43" stop-color="#C7CDF4"/>
<stop offset="0.54" stop-color="#FFBCD4"/>
<stop offset="0.66" stop-color="#FFE0C3"/>
<stop offset="0.76" stop-color="#B0F1D4"/>
<stop offset="0.84" stop-color="#C9CEEC"/>
<stop offset="0.91" stop-color="#FFC1DA"/>
<stop offset="1" stop-color="#BDFFE3"/>
</radialGradient>
<radialGradient id="paint12_radial_1667_213740" cx="0" cy="0" r="1" gradientUnits="userSpaceOnUse" gradientTransform="translate(117.635 -31.9592) rotate(-37.7311) scale(155.48 31.763)">
<stop stop-color="#FFB6D5"/>
<stop offset="0.1" stop-color="#FFE3C0"/>
<stop offset="0.29" stop-color="#C7FBDB"/>
<stop offset="0.43" stop-color="#C7CDF4"/>
<stop offset="0.54" stop-color="#FFBCD4"/>
<stop offset="0.66" stop-color="#FFE0C3"/>
<stop offset="0.76" stop-color="#B0F1D4"/>
<stop offset="0.84" stop-color="#C9CEEC"/>
<stop offset="0.91" stop-color="#FFC1DA"/>
<stop offset="1" stop-color="#BDFFE3"/>
</radialGradient>
<radialGradient id="paint13_radial_1667_213740" cx="0" cy="0" r="1" gradientUnits="userSpaceOnUse" gradientTransform="translate(46.1431 6.70879) rotate(-31.9611) scale(5.22616 0.487417)">
<stop stop-color="#FFB6D5"/>
<stop offset="0.1" stop-color="#FFE3C0"/>
<stop offset="0.29" stop-color="#C7FBDB"/>
<stop offset="0.43" stop-color="#C7CDF4"/>
<stop offset="0.54" stop-color="#FFBCD4"/>
<stop offset="0.66" stop-color="#FFE0C3"/>
<stop offset="0.76" stop-color="#B0F1D4"/>
<stop offset="0.84" stop-color="#C9CEEC"/>
<stop offset="0.91" stop-color="#FFC1DA"/>
<stop offset="1" stop-color="#BDFFE3"/>
</radialGradient>
<radialGradient id="paint14_radial_1667_213740" cx="0" cy="0" r="1" gradientUnits="userSpaceOnUse" gradientTransform="translate(52.2179 1.756) rotate(-34.0149) scale(8.02674 1.07411)">
<stop stop-color="#FFB6D5"/>
<stop offset="0.1" stop-color="#FFE3C0"/>
<stop offset="0.29" stop-color="#C7FBDB"/>
<stop offset="0.43" stop-color="#C7CDF4"/>
<stop offset="0.54" stop-color="#FFBCD4"/>
<stop offset="0.66" stop-color="#FFE0C3"/>
<stop offset="0.76" stop-color="#B0F1D4"/>
<stop offset="0.84" stop-color="#C9CEEC"/>
<stop offset="0.91" stop-color="#FFC1DA"/>
<stop offset="1" stop-color="#BDFFE3"/>
</radialGradient>
<radialGradient id="paint15_radial_1667_213740" cx="0" cy="0" r="1" gradientUnits="userSpaceOnUse" gradientTransform="translate(48.3125 4.74824) rotate(-32.5649) scale(12.9879 1.36745)">
<stop stop-color="#FFB6D5"/>
<stop offset="0.1" stop-color="#FFE3C0"/>
<stop offset="0.29" stop-color="#C7FBDB"/>
<stop offset="0.43" stop-color="#C7CDF4"/>
<stop offset="0.54" stop-color="#FFBCD4"/>
<stop offset="0.66" stop-color="#FFE0C3"/>
<stop offset="0.76" stop-color="#B0F1D4"/>
<stop offset="0.84" stop-color="#C9CEEC"/>
<stop offset="0.91" stop-color="#FFC1DA"/>
<stop offset="1" stop-color="#BDFFE3"/>
</radialGradient>
<radialGradient id="paint16_radial_1667_213740" cx="0" cy="0" r="1" gradientUnits="userSpaceOnUse" gradientTransform="translate(42.737 8.62145) rotate(-30.5155) scale(8.00325 0.513666)">
<stop stop-color="#FFB6D5"/>
<stop offset="0.1" stop-color="#FFE3C0"/>
<stop offset="0.29" stop-color="#C7FBDB"/>
<stop offset="0.43" stop-color="#C7CDF4"/>
<stop offset="0.54" stop-color="#FFBCD4"/>
<stop offset="0.66" stop-color="#FFE0C3"/>
<stop offset="0.76" stop-color="#B0F1D4"/>
<stop offset="0.84" stop-color="#C9CEEC"/>
<stop offset="0.91" stop-color="#FFC1DA"/>
<stop offset="1" stop-color="#BDFFE3"/>
</radialGradient>
<radialGradient id="paint17_radial_1667_213740" cx="0" cy="0" r="1" gradientUnits="userSpaceOnUse" gradientTransform="translate(55.1023 -0.690937) rotate(-36.0851) scale(6.467 1.12262)">
<stop stop-color="#FFB6D5"/>
<stop offset="0.1" stop-color="#FFE3C0"/>
<stop offset="0.29" stop-color="#C7FBDB"/>
<stop offset="0.43" stop-color="#C7CDF4"/>
<stop offset="0.54" stop-color="#FFBCD4"/>
<stop offset="0.66" stop-color="#FFE0C3"/>
<stop offset="0.76" stop-color="#B0F1D4"/>
<stop offset="0.84" stop-color="#C9CEEC"/>
<stop offset="0.91" stop-color="#FFC1DA"/>
<stop offset="1" stop-color="#BDFFE3"/>
</radialGradient>
<radialGradient id="paint18_radial_1667_213740" cx="0" cy="0" r="1" gradientUnits="userSpaceOnUse" gradientTransform="translate(92.738 -249.162) rotate(-60.1648) scale(576.158 284.345)">
<stop stop-color="#FFB6D5"/>
<stop offset="0.1" stop-color="#FFE3C0"/>
<stop offset="0.29" stop-color="#C7FBDB"/>
<stop offset="0.43" stop-color="#C7CDF4"/>
<stop offset="0.54" stop-color="#FFBCD4"/>
<stop offset="0.66" stop-color="#FFE0C3"/>
<stop offset="0.76" stop-color="#B0F1D4"/>
<stop offset="0.84" stop-color="#C9CEEC"/>
<stop offset="0.91" stop-color="#FFC1DA"/>
<stop offset="1" stop-color="#BDFFE3"/>
</radialGradient>
<radialGradient id="paint19_radial_1667_213740" cx="0" cy="0" r="1" gradientUnits="userSpaceOnUse" gradientTransform="translate(89.5222 -242.281) rotate(-60.1647) scale(539.312 266.161)">
<stop stop-color="#FFB6D5"/>
<stop offset="0.1" stop-color="#FFE3C0"/>
<stop offset="0.29" stop-color="#C7FBDB"/>
<stop offset="0.43" stop-color="#C7CDF4"/>
<stop offset="0.54" stop-color="#FFBCD4"/>
<stop offset="0.66" stop-color="#FFE0C3"/>
<stop offset="0.76" stop-color="#B0F1D4"/>
<stop offset="0.84" stop-color="#C9CEEC"/>
<stop offset="0.91" stop-color="#FFC1DA"/>
<stop offset="1" stop-color="#BDFFE3"/>
</radialGradient>
<radialGradient id="paint20_radial_1667_213740" cx="0" cy="0" r="1" gradientUnits="userSpaceOnUse" gradientTransform="translate(87.0768 -237.049) rotate(-60.1648) scale(511.298 252.336)">
<stop stop-color="#FFB6D5"/>
<stop offset="0.1" stop-color="#FFE3C0"/>
<stop offset="0.29" stop-color="#C7FBDB"/>
<stop offset="0.43" stop-color="#C7CDF4"/>
<stop offset="0.54" stop-color="#FFBCD4"/>
<stop offset="0.66" stop-color="#FFE0C3"/>
<stop offset="0.76" stop-color="#B0F1D4"/>
<stop offset="0.84" stop-color="#C9CEEC"/>
<stop offset="0.91" stop-color="#FFC1DA"/>
<stop offset="1" stop-color="#BDFFE3"/>
</radialGradient>
<radialGradient id="paint21_radial_1667_213740" cx="0" cy="0" r="1" gradientUnits="userSpaceOnUse" gradientTransform="translate(83.9657 -230.391) rotate(-60.1648) scale(475.645 234.741)">
<stop stop-color="#FFB6D5"/>
<stop offset="0.1" stop-color="#FFE3C0"/>
<stop offset="0.29" stop-color="#C7FBDB"/>
<stop offset="0.43" stop-color="#C7CDF4"/>
<stop offset="0.54" stop-color="#FFBCD4"/>
<stop offset="0.66" stop-color="#FFE0C3"/>
<stop offset="0.76" stop-color="#B0F1D4"/>
<stop offset="0.84" stop-color="#C9CEEC"/>
<stop offset="0.91" stop-color="#FFC1DA"/>
<stop offset="1" stop-color="#BDFFE3"/>
</radialGradient>
</defs>
</svg>
