<svg width="208" height="164" viewBox="0 0 208 164" fill="none" xmlns="http://www.w3.org/2000/svg">
<path d="M21.2907 103.641C21.291 103.641 21.2913 103.641 21.2916 103.641C25.6511 105.941 30.7268 107.772 36.2017 109.339C36.6762 109.474 37.1675 109.572 37.6684 109.638C41.0098 110.08 44.2419 110.623 47.3036 111.324C47.3691 111.334 47.4072 111.244 47.3467 111.223C42.6413 109.548 38.3 107.662 34.548 105.432C11.9123 91.9749 1.771 58.4114 -27.7918 51.8962C-38.723 49.4871 -50.1058 51.2621 -61.5686 54.563C-55.4246 53.4867 -49.288 53.2457 -43.1893 54.3118C-14.0634 59.4058 -1.66153 91.5295 21.2897 103.64C21.29 103.641 21.2903 103.641 21.2907 103.641Z" fill="#222222"/>
<path d="M104.09 200.61C104.09 200.61 104.089 200.61 104.089 200.611C104.957 204.31 106.792 208.073 109.175 211.883C109.249 212.002 109.337 212.113 109.437 212.215C111.441 214.267 113.278 216.342 114.851 218.448C114.926 218.53 115.087 218.427 115.04 218.328C113.475 215.073 112.334 211.869 111.852 208.738C108.482 186.826 133.136 158.104 118.841 139C113.649 132.061 104.204 127.575 93.1562 124.007C98.1849 126.31 102.433 129.119 105.491 132.701C120.802 150.633 99.141 179.504 104.09 200.61C104.09 200.61 104.09 200.611 104.09 200.61Z" fill="#222222"/>
<path d="M93.1558 124.005C88.6773 121.954 83.58 120.305 78.1484 118.87C79.6457 119.436 81.0851 120.044 82.457 120.702C83.0314 120.977 83.6339 121.21 84.2657 121.382C87.3061 122.212 90.2852 123.078 93.1558 124.005Z" fill="#222222"/>
<path d="M78.1495 118.87C73.5204 117.121 68.3349 115.778 62.8645 114.642C64.4028 115.106 65.8889 115.613 67.3154 116.17C67.8366 116.373 68.3772 116.542 68.9372 116.666C72.0767 117.357 75.1629 118.081 78.1495 118.87Z" fill="#222222"/>
<path d="M-4.5922 102.184C-4.59212 102.184 -4.59189 102.184 -4.59171 102.184C1.95064 104.859 9.80947 106.439 18.1242 107.636C21.1484 107.803 24.1182 108.025 26.9958 108.344C20.0986 106.892 13.6587 105.1 8.22181 102.566C-14.9121 91.7836 -29.3788 61.1753 -57.9453 57.4459C-62.3232 56.8745 -66.6667 56.9819 -70.9798 57.5896C-71.0794 57.6037 -71.1784 57.6277 -71.2752 57.661C-71.6032 57.7739 -71.9312 57.8874 -72.2591 58.0015C-73.6973 58.5019 -73.4483 61.1244 -72.003 61.2504C-44.1091 63.6796 -27.7776 92.7041 -4.59269 102.184C-4.59251 102.184 -4.59227 102.184 -4.5922 102.184Z" fill="#222222"/>
<path d="M86.9693 186.165C86.9697 186.165 86.9699 186.165 86.97 186.165C88.9585 191.123 92.8966 196.043 97.5513 200.979C99.5924 202.682 101.545 204.404 103.338 206.154C99.9105 201.763 97.1423 197.405 95.7722 193.079C89.3616 172.836 108.097 143.971 91.9068 127.233C89.5938 124.842 86.7215 122.859 83.4306 121.183C83.3538 121.144 83.2718 121.113 83.1859 121.09C82.0438 120.782 80.8939 120.479 79.7386 120.179C78.6505 119.897 77.3999 121.887 78.1766 122.599C95.1089 138.129 79.2192 166.838 86.9687 186.164C86.9688 186.164 86.969 186.165 86.9693 186.165Z" fill="#222222"/>
<path d="M51.8585 112.528C52.3107 112.666 52.7747 112.779 53.2505 112.859C56.5146 113.411 59.7363 113.993 62.8645 114.643C58.3888 113.29 53.4771 112.296 48.3415 111.485C48.2909 111.477 48.2623 111.544 48.3094 111.56C49.5225 111.855 50.7065 112.177 51.8585 112.528Z" fill="#222222"/>
<path d="M71.6651 118.131C71.6645 118.131 71.6639 118.13 71.6633 118.13C70.552 117.552 69.3882 117.016 68.1792 116.518C68.1224 116.495 68.0628 116.476 68.0011 116.463C64.0662 115.608 60.0559 114.8 56.0647 113.979C56.0477 113.975 56.0367 113.998 56.0524 114.005C61.1031 115.471 66.3816 116.803 71.6651 118.131Z" fill="#222222"/>
<path d="M36.524 109.897C37.5633 110.02 38.5996 110.145 39.6314 110.274C38.9591 110.099 38.2919 109.921 37.6299 109.739C37.1534 109.608 36.6635 109.508 36.1615 109.446C34.5987 109.255 33.0146 109.084 31.4137 108.927C33.1657 109.199 34.8718 109.519 36.523 109.896L36.524 109.897Z" fill="#222222"/>
<path d="M43.9926 111.356C45.3673 111.576 46.743 111.795 48.116 112.016C48.3958 112.061 48.5684 111.651 48.3079 111.561C47.9748 111.479 47.6396 111.401 47.3025 111.324C44.7864 110.94 42.2206 110.597 39.6307 110.274C41.065 110.648 42.5211 111.008 43.9936 111.356L43.9926 111.356Z" fill="#222222"/>
<path d="M55.7138 113.907C55.7142 113.907 55.7146 113.907 55.715 113.907C55.7166 113.907 55.7182 113.907 55.7199 113.908C55.7399 113.912 55.7527 113.885 55.7343 113.878C54.7024 113.469 53.6363 113.091 52.5395 112.742C52.5349 112.74 52.5302 112.739 52.5253 112.738C52.399 112.717 52.3296 112.884 52.4491 112.922C53.5245 113.257 54.6131 113.585 55.7125 113.907C55.7129 113.907 55.7134 113.907 55.7138 113.907Z" fill="#222222"/>
<path d="M50.6174 115.799C50.6171 115.799 50.617 115.799 50.6172 115.799C68.626 128.901 58.1344 156.88 68.1872 174.245C71.816 180.515 79.0177 186.406 86.6242 192.333C88.3655 193.589 90.0643 194.856 91.6876 196.143C85.7332 190.773 80.45 185.409 77.7523 179.883C68.7881 161.519 81.9247 133.107 64.387 118.791C61.9948 116.837 59.1837 115.273 56.0539 114.004C55.9414 113.971 55.83 113.939 55.7175 113.906C51.7586 113.091 47.8205 112.261 43.9951 111.356C42.4147 111.103 40.8349 110.849 39.2624 110.59C43.555 111.794 47.4046 113.461 50.6176 115.798C50.6178 115.798 50.6176 115.799 50.6174 115.799Z" fill="#222222"/>
<path d="M-97.8091 70.6762C-97.8092 70.6766 -97.809 70.6769 -97.8085 70.6769C-71.5685 70.7162 -52.1187 96.4214 -29.203 103.395C-20.2041 106.134 -9.15435 106.697 2.08103 107.052C4.48249 107.056 6.86029 107.086 9.19571 107.167C-0.356325 106.345 -9.521 105.155 -17.0881 102.468C-40.1989 94.2594 -58.192 66.8733 -85.3075 65.6752C-89.2704 65.4999 -93.112 65.8992 -96.8596 66.7259C-97.0158 66.7768 -97.1727 66.8267 -97.3286 66.8768C-100.884 68.3696 -104.423 69.8352 -107.94 71.1786C-109.3 71.832 -110.659 72.4832 -112.014 73.1257C-107.497 71.5866 -102.789 70.6685 -97.8096 70.6755C-97.8092 70.6755 -97.8089 70.6758 -97.8091 70.6762Z" fill="#222222"/>
<path d="M31.4138 108.927C31.4139 108.927 31.4138 108.927 31.4135 108.927C29.9691 108.703 28.4947 108.51 26.9949 108.344C27.5056 108.452 28.0184 108.557 28.5337 108.661C29.4985 108.746 30.4585 108.834 31.4133 108.928C31.4135 108.928 31.4137 108.928 31.4138 108.927Z" fill="#222222"/>
<path d="M21.5556 108.106C21.5555 108.106 21.5553 108.106 21.5551 108.106C20.4037 107.955 19.2586 107.799 18.1221 107.635C16.9972 107.572 15.8635 107.518 14.7259 107.469C16.3183 107.593 17.8812 107.75 19.4104 107.949C20.1256 108.001 20.8407 108.052 21.5553 108.106C21.5555 108.106 21.5557 108.106 21.5556 108.106Z" fill="#222222"/>
<path d="M28.5334 108.661C26.2265 108.459 23.8953 108.28 21.5563 108.107C25.1846 108.583 28.8757 109.006 32.5602 109.433C31.2049 109.185 29.8616 108.928 28.5334 108.661Z" fill="#222222"/>
<path d="M36.523 109.897C35.2052 109.74 33.8828 109.587 32.5603 109.434C34.769 109.838 37.0074 110.22 39.2597 110.59C38.3657 110.34 37.4528 110.109 36.523 109.897Z" fill="#222222"/>
<path d="M14.7267 107.47C14.7267 107.47 14.7266 107.47 14.7266 107.47C12.9163 107.33 11.0702 107.233 9.19671 107.168C9.86454 107.225 10.5339 107.281 11.2052 107.335C12.3835 107.376 13.5574 107.42 14.7267 107.47C14.727 107.47 14.727 107.47 14.7267 107.47Z" fill="#222222"/>
<path d="M-19.138 337.636C-19.138 337.636 -19.1379 337.636 -19.1377 337.636C3.00066 329.759 40.4844 335.938 56.4789 322.624C60.6732 319.133 62.8725 314.731 63.9773 309.828C64.2151 307.819 64.4495 305.809 64.7159 303.815C64.8216 301.594 64.8939 299.355 64.9884 297.127C64.8316 286.217 63.2125 274.627 67.3532 265.639C74.9606 249.128 107.421 234.236 105.688 215.682C105.209 210.566 102.203 205.94 97.8759 201.592C96.1783 200.113 94.4832 198.639 92.8288 197.166C90.7726 195.547 88.6839 193.94 86.6235 192.335C76.016 184.683 63.8795 177.467 58.3488 169.262C47.337 152.926 55.3007 125.506 36.9513 113.609C32.1399 110.49 26.1109 108.822 19.4122 107.952C16.6709 107.752 13.9265 107.556 11.2052 107.336C8.17503 107.231 5.12229 107.151 2.08239 107.054C-12.7904 107.035 -28.5733 108.08 -40.8791 104.932C-63.4843 99.1489 -84.1871 75.1545 -109.464 76.1983C-116.434 76.4862 -122.704 78.6345 -128.579 81.7553C-130.574 82.9824 -132.563 84.2076 -134.551 85.4031C-136.733 86.8915 -138.899 88.4039 -141.063 89.8956C-151.364 97.5828 -161.054 106.397 -172.173 110.353C-194.312 118.23 -231.796 112.051 -247.79 125.365C-251.985 128.856 -254.184 133.258 -255.289 138.161C-255.527 140.169 -255.761 142.18 -256.027 144.173C-256.133 146.395 -256.205 148.633 -256.3 150.862C-256.143 161.772 -254.524 173.362 -258.665 182.35C-266.272 198.861 -298.733 213.752 -296.999 232.307C-296.521 237.423 -293.515 242.049 -289.187 246.396C-287.49 247.875 -285.795 249.349 -284.14 250.823C-282.084 252.441 -279.995 254.049 -277.935 255.654C-267.327 263.305 -255.191 270.521 -249.66 278.727C-238.648 295.063 -246.612 322.483 -228.263 334.379C-223.451 337.499 -217.422 339.166 -210.724 340.037C-207.982 340.236 -205.238 340.433 -202.517 340.653C-199.487 340.758 -196.434 340.838 -193.394 340.935C-178.521 340.954 -162.738 339.909 -150.432 343.057C-127.827 348.84 -107.124 372.834 -81.8475 371.79C-74.8778 371.502 -68.6071 369.354 -62.7329 366.233C-60.7376 365.006 -58.7483 363.781 -56.76 362.586C-54.5784 361.097 -52.4122 359.585 -50.2488 358.093C-39.9476 350.406 -30.2577 341.592 -19.1382 337.635C-19.138 337.635 -19.1379 337.635 -19.138 337.636ZM-71.0741 365.805C-95.3098 367.849 -117.059 345.586 -139.248 340.945C-162.249 336.133 -196.22 346.493 -214.781 335.787C-233.341 325.082 -227.777 298.339 -239.619 283.055C-251.041 268.311 -285.62 258.087 -288.705 240.284C-291.791 222.481 -261.704 206.8 -255.649 190.581C-249.371 173.768 -263.913 148.721 -249.545 135.238C-235.176 121.754 -198.645 126.164 -177.952 117.666C-157.989 109.468 -144.474 84.2293 -120.239 82.1846C-96.003 80.14 -74.2534 102.403 -52.0653 107.044C-29.064 111.856 4.90705 101.496 23.4677 112.202C42.0284 122.908 36.4645 149.65 48.3061 164.934C59.7286 179.678 94.307 189.902 97.3927 207.705C100.478 225.508 70.3912 241.189 64.3359 257.408C58.058 274.221 72.6004 299.268 58.2318 312.751C43.8633 326.235 7.33258 321.825 -13.3611 330.323C-33.3236 338.521 -46.8384 363.76 -71.0741 365.805Z" fill="#222222"/>
<path d="M58.95 303.058C58.9502 303.058 58.9506 303.058 58.9509 303.058C71.7234 289.496 55.8417 265.998 60.5884 249.566C65.1679 233.715 92.8735 217.394 88.5495 200.394C84.2258 183.394 50.2286 174.978 38.1292 161.263C25.5873 147.045 28.8906 121.09 10.2427 111.553C-8.40517 102.017 -40.2485 113.378 -62.7114 109.694C-84.3807 106.14 -106.974 85.6164 -130.099 88.5793C-153.225 91.542 -164.282 116.377 -182.833 125.084C-202.064 134.109 -237.494 131.367 -250.267 144.929C-263.041 158.491 -247.158 181.989 -251.905 198.421C-256.485 214.273 -284.19 230.593 -279.866 247.593C-275.542 264.594 -241.545 273.009 -229.446 286.724C-216.904 300.941 -220.207 326.897 -201.559 336.433C-182.911 345.97 -151.068 334.608 -128.605 338.292C-106.936 341.846 -84.3425 362.37 -61.2173 359.407C-38.0911 356.445 -27.0348 331.61 -8.48443 322.903C10.7465 313.877 46.1754 316.619 58.9492 303.058C58.9495 303.058 58.9499 303.058 58.95 303.058ZM-52.2988 352.66C-74.2556 356.454 -97.4917 337.665 -118.548 335.14C-140.376 332.522 -170.055 344.742 -188.669 336.346C-207.284 327.95 -206.092 302.882 -219.207 289.739C-231.858 277.06 -265.111 270.371 -270.554 254.218C-275.998 238.065 -250.666 221.251 -247.482 205.836C-244.181 189.857 -261.207 167.936 -249.988 154.385C-238.769 140.833 -204.575 142.015 -186.816 132.557C-169.685 123.433 -160.973 99.1225 -139.016 95.3281C-117.059 91.5337 -93.8227 110.322 -72.7666 112.848C-50.9388 115.465 -21.2602 103.245 -2.64555 111.642C15.9691 120.038 14.7778 145.106 27.8925 158.249C40.5434 170.927 73.7961 177.617 79.2395 193.77C84.6829 209.923 59.35 226.737 56.1669 242.151C52.8659 258.131 69.892 280.051 58.673 293.603C47.454 307.154 13.26 305.972 -4.49883 315.431C-21.6298 324.555 -30.3421 348.865 -52.2988 352.66Z" fill="#222222"/>
<path d="M57.4424 284.434C67.1555 270.978 49.182 250.652 51.1265 235.191C53.0027 220.277 75.9838 203.115 69.5415 187.846C63.0992 172.577 30.7443 167.523 17.664 155.881C4.10368 143.813 3.33667 119.722 -15.1298 112.433C-33.596 105.142 -61.0888 118.077 -82.1921 116.46C-102.55 114.901 -126.232 97.8322 -146.972 102.37C-167.711 106.908 -174.204 130.58 -189.916 140.032C-206.204 149.83 -239.042 150.097 -248.754 163.553C-258.467 177.009 -240.493 197.336 -242.438 212.796C-244.314 227.71 -267.295 244.872 -260.853 260.141C-254.411 275.41 -222.056 280.464 -208.975 292.106C-195.415 304.174 -194.648 328.265 -176.182 335.555C-157.715 342.845 -130.223 329.911 -109.119 331.527C-88.7616 333.087 -65.0793 350.155 -44.3397 345.617C-23.6001 341.079 -17.107 317.407 -1.39497 307.956C14.8924 298.157 47.7303 297.89 57.4424 284.434ZM-37.356 338.337C-56.8389 343.53 -80.7762 328.157 -100.358 327.496C-120.656 326.811 -145.958 340.317 -164.165 334.093C-182.373 327.869 -184.937 304.835 -198.817 293.836C-212.207 283.226 -243.522 279.709 -250.842 265.354C-258.161 251 -237.495 233.629 -236.834 219.273C-236.15 204.392 -254.876 185.666 -246.614 172.387C-238.351 159.107 -206.977 157.509 -192.151 147.463C-177.848 137.771 -173.439 114.843 -153.957 109.65C-134.474 104.458 -110.536 119.831 -90.9547 120.492C-70.6563 121.177 -45.3547 107.67 -27.1477 113.895C-8.93966 120.119 -6.37594 143.152 7.50436 154.152C20.8939 164.762 52.2097 168.279 59.529 182.633C66.848 196.989 46.1823 214.359 45.5213 228.715C44.8368 243.596 63.5636 262.322 55.301 275.601C47.0381 288.881 15.6645 290.478 0.838294 300.525C-13.4643 310.216 -17.874 333.145 -37.356 338.337Z" fill="#222222"/>
<path d="M52.3023 267.151C59.1798 254.124 39.8905 236.994 39.4157 222.746C38.9572 209.002 57.3609 191.559 49.2881 178.14C41.2153 164.721 11.0668 162.639 -2.51438 153.046C-16.5933 143.101 -20.7869 121.195 -38.6331 115.99C-56.4792 110.785 -79.5971 124.724 -99.0185 124.897C-117.753 125.064 -141.761 111.35 -159.958 117.107C-178.155 122.864 -180.623 144.953 -193.536 154.798C-206.922 165.003 -236.738 167.81 -243.616 180.837C-250.493 193.864 -231.204 210.993 -230.729 225.242C-230.271 238.986 -248.673 256.429 -240.602 269.848C-232.529 283.267 -202.38 285.349 -188.799 294.942C-174.72 304.887 -170.527 326.793 -152.68 331.998C-134.834 337.203 -111.716 323.264 -92.2951 323.091C-73.5609 322.923 -49.5527 336.637 -31.3558 330.881C-13.1585 325.124 -10.6903 303.034 2.22273 293.19C15.6086 282.984 45.4248 280.178 52.3023 267.151ZM2.78461 285.995C-8.76649 295.909 -9.44614 317.074 -26.3383 323.305C-43.2305 329.536 -67.1294 317.436 -84.9574 318.357C-103.438 319.313 -124.397 333.547 -141.786 329.31C-159.174 325.073 -164.824 304.354 -178.984 295.444C-192.643 286.849 -221.509 286.09 -230.212 273.622C-238.915 261.155 -222.711 243.773 -224.187 230.684C-225.717 217.115 -245.382 201.566 -239.819 188.863C-234.255 176.16 -206.076 172.27 -194.101 161.993C-182.55 152.079 -181.871 130.914 -164.979 124.683C-148.086 118.452 -124.187 130.552 -106.359 129.631C-87.8784 128.675 -66.9195 114.441 -49.5311 118.678C-32.1427 122.915 -26.4925 143.634 -12.3329 152.544C1.32645 161.139 30.1925 161.898 38.8955 174.365C47.5985 186.833 31.3944 204.215 32.8699 217.304C34.4004 230.872 54.0654 246.422 48.5019 259.125C42.9384 271.828 14.7587 275.718 2.78461 285.995Z" fill="#222222"/>
<path d="M25.952 212.409C23.5614 200.016 37.6439 182.819 28.4342 171.31C19.2244 159.802 -8.25822 160.253 -21.8846 152.629C-36.0103 144.726 -42.943 125.243 -59.7825 121.918C-76.6219 118.593 -95.4614 132.987 -112.947 134.647C-129.814 136.249 -153.434 125.707 -169.013 132.321C-184.591 138.936 -183.638 159.101 -193.865 169.003C-204.467 179.267 -230.946 184.113 -235.272 196.425C-239.599 208.736 -219.742 222.733 -217.263 235.579C-214.873 247.972 -228.955 265.169 -219.746 276.678C-210.536 288.186 -183.053 287.735 -169.427 295.359C-155.301 303.262 -148.368 322.745 -131.529 326.07C-114.689 329.395 -95.8499 315.001 -78.3648 313.341C-61.4972 311.739 -37.8771 322.281 -22.2988 315.667C-6.72037 309.052 -7.67314 288.887 2.55395 278.985C13.1553 268.721 39.6344 263.875 43.961 251.563C48.2876 239.252 28.4306 225.255 25.952 212.409ZM1.56054 272.206C-7.38526 282.017 -4.96341 301.117 -19.2294 308.026C-33.4954 314.934 -56.674 305.886 -72.5398 308.09C-88.9863 310.374 -105.756 324.798 -121.965 322.325C-138.175 319.852 -146.213 301.642 -160.195 294.715C-173.682 288.032 -199.694 289.574 -209.289 279.024C-218.883 268.474 -206.832 251.583 -210.032 239.918C-213.348 227.826 -233.221 215.347 -230.048 203.487C-226.875 191.627 -202.146 185.955 -192.872 175.784C-183.927 165.972 -186.348 146.872 -172.082 139.964C-157.816 133.056 -134.638 142.103 -118.772 139.9C-102.326 137.616 -85.556 123.191 -69.3465 125.664C-53.137 128.138 -45.0993 146.347 -31.1174 153.275C-17.6299 159.958 8.38249 158.416 17.9769 168.965C27.5713 179.515 15.5204 196.406 18.7198 208.072C22.036 220.164 41.9092 232.642 38.7363 244.502C35.5635 256.362 10.834 262.035 1.56054 272.206Z" fill="#222222"/>
<path d="M11.2422 204.302C7.34236 193.391 17.4631 176.918 7.60307 167.321C-2.25691 157.724 -26.7247 160.234 -39.974 154.454C-53.7081 148.463 -62.6722 131.553 -78.1777 129.867C-93.683 128.181 -108.448 142.51 -123.821 145.337C-138.649 148.064 -161.234 140.437 -174.198 147.552C-187.161 154.667 -183.438 172.646 -191.156 182.294C-199.156 192.295 -222.102 198.662 -224.21 210.016C-226.318 221.369 -206.599 232.376 -202.556 243.687C-198.656 254.598 -208.777 271.071 -198.917 280.668C-189.057 290.265 -164.589 287.755 -151.34 293.534C-137.606 299.526 -128.642 316.436 -113.136 318.122C-97.6309 319.808 -82.8662 305.479 -67.4934 302.652C-52.6648 299.925 -30.0798 307.551 -17.1164 300.437C-4.15288 293.322 -7.87573 275.343 -0.158046 265.695C7.84253 255.694 30.7881 249.326 32.8958 237.973C35.0035 226.62 15.2855 215.613 11.2422 204.302ZM-2.55989 259.492C-9.10907 268.906 -4.2546 285.719 -15.9357 292.955C-27.6168 300.19 -49.4673 293.904 -63.2336 297.074C-77.505 300.36 -90.3429 314.474 -105.079 313.508C-119.814 312.542 -129.526 296.948 -142.914 291.849C-155.829 286.929 -178.694 290.283 -188.703 281.626C-198.711 272.968 -190.409 257.017 -194.9 246.88C-199.556 236.371 -218.958 226.78 -217.821 215.983C-216.685 205.186 -195.543 198.253 -188.755 188.495C-182.206 179.082 -187.06 162.269 -175.379 155.033C-163.698 147.797 -141.847 154.084 -128.081 150.914C-113.81 147.628 -100.972 133.514 -86.2359 134.48C-71.5012 135.446 -61.7889 151.04 -48.4011 156.139C-35.4857 161.059 -12.621 157.705 -2.61211 166.362C7.39674 175.02 -0.906038 190.971 3.58518 201.108C8.24093 211.617 27.6432 221.208 26.5066 232.005C25.3704 242.802 4.22882 249.735 -2.55989 259.492Z" fill="#222222"/>
<path d="M-4.18583 198.492C-9.15879 189.141 -2.55463 173.809 -12.5973 166.071C-22.64 158.332 -43.858 162.404 -56.3515 158.296C-69.3033 154.039 -79.5851 139.766 -93.4912 139.449C-107.398 139.132 -118.399 152.919 -131.554 156.581C-144.242 160.114 -165.227 155.081 -175.655 162.353C-186.083 169.624 -180.27 185.239 -185.717 194.353C-191.363 203.801 -210.696 211.167 -210.958 221.365C-211.219 231.562 -192.286 239.801 -187.131 249.496C-182.158 258.847 -188.762 274.178 -178.72 281.917C-168.677 289.656 -147.459 285.584 -134.965 289.691C-122.014 293.949 -111.732 308.221 -97.8258 308.538C-83.9187 308.855 -72.9181 295.069 -59.7635 291.406C-47.0748 287.873 -26.0902 292.906 -15.6622 285.634C-5.23411 278.363 -11.0465 262.748 -5.59968 253.634C0.0460062 244.186 19.3794 236.819 19.6406 226.623C19.9021 216.425 0.969379 208.186 -4.18583 198.492ZM-9.22812 248.153C-13.6448 256.907 -7.04884 271.299 -16.2601 278.526C-25.4717 285.754 -45.4713 281.878 -57.076 285.695C-69.1061 289.651 -78.3699 303.003 -91.4 303.263C-104.43 303.522 -115.107 290.566 -127.535 287.096C-139.525 283.748 -159.066 288.41 -169.033 281.564C-179.001 274.718 -173.963 260.095 -179.31 251.536C-184.852 242.663 -203.171 235.703 -203.684 226.142C-204.197 216.581 -186.664 208.908 -182.086 199.834C-177.669 191.08 -184.265 176.688 -175.054 169.461C-165.842 162.233 -145.842 166.109 -134.238 162.292C-122.208 158.336 -112.944 144.984 -99.9137 144.725C-86.8835 144.466 -76.2067 157.421 -63.7785 160.891C-51.7891 164.239 -32.2475 159.577 -22.2805 166.423C-12.3124 173.269 -17.3506 187.892 -12.0039 196.451C-6.46214 205.325 11.8568 212.284 12.3702 221.845C12.8836 231.407 -4.6495 239.079 -9.22812 248.153Z" fill="#222222"/>
<path d="M-19.8062 194.983C-25.4174 187.215 -21.8082 173.38 -31.5962 167.392C-41.3835 161.406 -59.2331 166.53 -70.644 163.886C-82.4731 161.146 -93.3731 149.49 -105.485 150.251C-117.598 151.011 -125.235 163.83 -136.144 167.997C-146.666 172.018 -165.574 169.201 -173.617 176.307C-181.659 183.413 -174.453 196.569 -177.918 204.907C-181.509 213.55 -197.266 221.403 -196.08 230.297C-194.895 239.191 -177.323 244.951 -171.507 253.004C-165.896 260.772 -169.505 274.607 -159.717 280.595C-149.93 286.581 -132.08 281.457 -120.669 284.101C-108.84 286.842 -97.94 298.497 -85.8281 297.736C-73.7152 296.976 -66.0782 284.157 -55.1693 279.99C-44.6469 275.969 -25.7393 278.787 -17.6961 271.68C-9.65408 264.574 -16.8603 251.418 -13.3952 243.08C-9.80422 234.437 5.95337 226.584 4.76732 217.69C3.58158 208.796 -13.9898 203.036 -19.8062 194.983ZM-18.0504 238.441C-20.6457 246.313 -13.0023 258.232 -19.9289 265.142C-26.8555 272.052 -44.5777 270.188 -54.0295 274.335C-63.8273 278.633 -69.9583 290.827 -81.1226 292.012C-92.287 293.197 -103.241 282.817 -114.401 280.743C-125.166 278.742 -141.323 284.202 -150.83 279.037C-160.337 273.871 -158.012 260.894 -163.782 253.909C-169.763 246.669 -186.464 242.022 -188.218 233.818C-189.971 225.614 -175.952 217.706 -173.261 209.546C-170.666 201.674 -178.309 189.755 -171.383 182.844C-164.456 175.934 -146.734 177.799 -137.282 173.652C-127.484 169.354 -121.353 157.16 -110.189 155.975C-99.0248 154.79 -88.0704 165.17 -76.911 167.244C-66.1462 169.244 -49.9889 163.784 -40.482 168.95C-30.9751 174.116 -33.2996 187.093 -27.5294 194.077C-21.5489 201.317 -4.84729 205.964 -3.09426 214.169C-1.34122 222.373 -15.3597 230.281 -18.0504 238.441Z" fill="#222222"/>
<path d="M-11.1392 211.289C-11.1395 211.289 -11.1398 211.289 -11.1399 211.289C-13.355 203.793 -29.0738 200.164 -35.1111 193.723C-40.9348 187.511 -39.7448 175.451 -48.8773 171.062C-58.0098 166.673 -72.4882 172.344 -82.5481 170.923C-92.9764 169.45 -103.823 160.309 -114.017 161.841C-124.211 163.373 -128.965 174.86 -137.672 179.209C-146.072 183.405 -162.529 182.384 -168.401 189.029C-174.273 195.674 -166.362 206.364 -168.177 213.726C-170.057 221.357 -182.386 229.202 -180.172 236.698C-177.957 244.195 -162.238 247.822 -156.2 254.264C-150.377 260.477 -151.567 272.536 -142.434 276.925C-133.302 281.315 -118.823 275.643 -108.763 277.064C-98.3351 278.537 -87.4882 287.678 -77.2946 286.146C-67.1008 284.614 -62.3476 273.128 -53.6392 268.778C-45.2398 264.583 -28.783 265.604 -22.9106 258.959C-17.0382 252.314 -24.949 241.623 -23.135 234.261C-21.2547 226.63 -8.92557 218.786 -11.1386 211.29C-11.1387 211.29 -11.1389 211.289 -11.1392 211.289ZM-26.5933 253.169C-31.4809 259.484 -46.6036 259.192 -53.9798 263.362C-61.6268 267.686 -65.1391 278.39 -74.3492 280.192C-83.5593 281.994 -94.1432 274.047 -103.786 273.105C-113.088 272.197 -125.916 277.958 -134.586 274.295C-143.256 270.632 -143.044 259.542 -148.821 254.08C-154.81 248.418 -169.448 245.71 -172.018 238.932C-174.589 232.154 -163.883 224.488 -162.718 217.426C-161.594 210.614 -169.605 201.133 -164.718 194.818C-159.83 188.503 -144.708 188.795 -137.331 184.624C-129.684 180.301 -126.172 169.597 -116.962 167.794C-107.752 165.992 -97.168 173.94 -87.5251 174.881C-78.2234 175.789 -65.3953 170.029 -56.7251 173.692C-48.0548 177.355 -48.2672 188.444 -42.4899 193.906C-36.5011 199.569 -21.8632 202.277 -19.2929 209.055C-16.7226 215.833 -27.4283 223.499 -28.5935 230.561C-29.7175 237.373 -21.7057 246.854 -26.5933 253.169Z" fill="#222222"/>
</svg>
