<svg width="211" height="256" viewBox="0 0 211 256" fill="none" xmlns="http://www.w3.org/2000/svg">
<path d="M153.598 314.829L110.344 289.393V238.527L153.598 263.957V314.829Z" fill="#222222" stroke="url(#paint0_linear_1927_37845)" stroke-width="2" stroke-linecap="round" stroke-linejoin="round"/>
<path d="M134.138 303.384L129.811 300.838V249.973L134.138 252.512V303.384Z" fill="url(#paint1_linear_1927_37845)"/>
<path d="M153.598 263.958L110.344 238.528L153.598 213.092L196.852 238.528L153.598 263.958Z" fill="#222222" stroke="url(#paint2_linear_1927_37845)" stroke-width="2" stroke-linecap="round" stroke-linejoin="round"/>
<path d="M153.294 261.04L138.949 252.499L153.294 243.948L167.639 252.499L153.294 261.04Z" fill="white"/>
<path d="M134.138 252.512L129.811 249.973L173.064 224.537L177.386 227.083L134.138 252.512Z" fill="url(#paint3_linear_1927_37845)"/>
<path d="M129.811 227.083L134.138 224.537L177.386 249.973L173.064 252.512L129.811 227.083Z" fill="url(#paint4_linear_1927_37845)"/>
<path d="M159.182 254.562L155.441 252.408L159.182 250.253L162.922 252.408L159.182 254.562ZM156.122 252.408L159.182 254.176L162.241 252.408L159.182 250.639L156.122 252.408Z" fill="#222222"/>
<path d="M153.234 249.948L151.537 248.973L153.234 247.997L154.932 248.973L153.234 249.948Z" fill="#222222"/>
<path d="M156.965 250.152L156.121 249.654L156.965 249.166L157.818 249.654L156.965 250.152Z" fill="#222222"/>
<path d="M156.965 251.127L156.121 250.639L156.965 250.151L157.818 250.639L156.965 251.127Z" fill="#222222"/>
<path d="M155.269 251.127L154.426 250.639L155.269 250.151L156.123 250.639L155.269 251.127Z" fill="#222222"/>
<path d="M155.269 252.103L154.426 251.615L155.269 251.127L156.123 251.615L155.269 252.103Z" fill="#222222"/>
<path d="M153.57 252.103L152.727 251.615L153.57 251.127L154.424 251.615L153.57 252.103Z" fill="#222222"/>
<path d="M152.727 252.6L151.873 252.102L152.727 251.614L153.57 252.102L152.727 252.6Z" fill="#222222"/>
<path d="M152.727 253.576L151.873 253.088L152.727 252.601L153.57 253.088L152.727 253.576Z" fill="#222222"/>
<path d="M151.029 253.576L150.176 253.088L151.029 252.601L151.873 253.088L151.029 253.576Z" fill="#222222"/>
<path d="M151.873 254.065L151.029 253.577L151.873 253.089L152.727 253.577L151.873 254.065Z" fill="#222222"/>
<path d="M150.41 254.207L149.566 253.719L150.41 253.221L151.264 253.719L150.41 254.207Z" fill="#222222"/>
<path d="M150.176 255.05L149.332 254.562L150.176 254.064L151.029 254.562L150.176 255.05Z" fill="#222222"/>
<path d="M148.783 255.223L147.93 254.735L148.783 254.247L149.627 254.735L148.783 255.223Z" fill="#222222"/>
<path d="M154.424 253.576L153.57 253.088L154.424 252.601L155.268 253.088L154.424 253.576Z" fill="#222222"/>
<path d="M155.694 253.819L154.84 253.332L155.694 252.844L156.547 253.332L155.694 253.819Z" fill="#222222"/>
<path d="M155.694 254.806L154.84 254.308L155.694 253.82L156.547 254.308L155.694 254.806Z" fill="#222222"/>
<path d="M157.392 254.806L156.549 254.308L157.392 253.82L158.246 254.308L157.392 254.806Z" fill="#222222"/>
<path d="M152.178 251.93L151.324 251.442L152.178 250.954L153.021 251.442L152.178 251.93Z" fill="#222222"/>
<path d="M150.908 251.687L150.055 251.199L150.908 250.711L151.752 251.199L150.908 251.687Z" fill="#222222"/>
<path d="M150.604 250.883L149.75 250.395L150.604 249.897L151.447 250.395L150.604 250.883Z" fill="#222222"/>
<path d="M149.262 250.67L148.418 250.182L149.262 249.694L150.115 250.182L149.262 250.67Z" fill="#222222"/>
<path d="M149.75 251.371L148.906 250.883L149.75 250.396L150.604 250.883L149.75 251.371Z" fill="#222222"/>
<path d="M154.424 252.6L153.57 252.102L154.424 251.614L155.268 252.102L154.424 252.6Z" fill="#222222"/>
<path d="M153.234 251.128L149.494 248.973L153.234 246.818L156.974 248.973L153.234 251.128ZM150.175 248.973L153.234 250.741L156.293 248.973L153.234 247.205L150.175 248.973Z" fill="#222222"/>
<path d="M151.618 247.062L151.455 246.96L153.234 245.934L155.022 246.96L154.85 247.062L153.234 246.127L151.618 247.062Z" fill="#222222"/>
<path d="M162.657 253.434L162.494 253.333L164.1 252.408L162.494 251.473L162.657 251.371L164.446 252.408L162.657 253.434Z" fill="#222222"/>
<path d="M143.814 253.434L142.035 252.408L143.814 251.371L143.987 251.473L142.371 252.408L143.987 253.333L143.814 253.434Z" fill="#222222"/>
<path d="M159.182 253.383L157.484 252.408L159.182 251.422L160.879 252.408L159.182 253.383Z" fill="#222222"/>
<path d="M147.289 253.383L145.592 252.408L147.289 251.422L148.986 252.408L147.289 253.383Z" fill="#222222"/>
<path d="M147.291 254.562L143.551 252.408L147.291 250.253L151.031 252.408L147.291 254.562ZM144.232 252.408L147.291 254.176L150.35 252.408L147.291 250.639L144.232 252.408Z" fill="#222222"/>
<path d="M153.234 256.819L151.537 255.833L153.234 254.857L154.932 255.833L153.234 256.819Z" fill="#222222"/>
<path d="M153.234 257.987L149.494 255.832L153.234 253.678L156.974 255.832L153.234 257.987ZM150.175 255.832L153.234 257.601L156.293 255.832L153.234 254.064L150.175 255.832Z" fill="#222222"/>
<path d="M196.852 289.393L153.598 314.829V263.957L196.852 238.527V289.393Z" fill="#222222" stroke="url(#paint5_linear_1927_37845)" stroke-width="2" stroke-linecap="round" stroke-linejoin="round"/>
<path d="M177.386 300.838L173.064 303.384V252.512L177.386 249.973V300.838Z" fill="url(#paint6_linear_1927_37845)"/>
<path d="M154.876 151.507H152.33V237.978H154.876V151.507Z" fill="#222222"/>
<path d="M164.922 44.9103C164.922 38.6668 159.862 33.6055 153.62 33.6055C147.378 33.6055 142.318 38.6668 142.318 44.9103V100.33C142.318 106.573 147.378 111.635 153.62 111.635C159.862 111.635 164.922 106.573 164.922 100.33V44.9103Z" fill="#DAE1E5"/>
<path d="M191.517 121.963L191.475 137.425C191.475 138.261 190.919 139.097 189.82 139.738L189.863 124.276C190.962 123.635 191.511 122.799 191.517 121.963Z" fill="#222222"/>
<path d="M115.723 137.388L115.765 121.926C115.765 122.774 116.321 123.623 117.444 124.27L117.401 139.732C116.278 139.085 115.717 138.236 115.723 137.388Z" fill="#222222"/>
<path d="M189.864 124.276L189.822 139.732L157.738 158.38L157.781 142.918L189.864 124.276Z" fill="#222222"/>
<path d="M149.736 142.918L149.693 158.38L117.402 139.732L117.445 124.276L149.736 142.918Z" fill="#222222"/>
<path d="M157.779 142.918L157.737 158.38C155.521 159.668 151.919 159.668 149.691 158.38L149.734 142.918C151.962 144.206 155.564 144.206 157.779 142.918Z" fill="#222222"/>
<path d="M189.864 124.276L184.089 127.627L157.78 142.918C155.565 144.206 151.963 144.206 149.735 142.918L123.255 127.627L117.444 124.276C115.216 122.988 115.204 120.901 117.42 119.619L123.194 116.261L149.503 100.977C151.719 99.6887 155.32 99.6887 157.548 100.977L184.028 116.261L189.839 119.613C192.067 120.901 192.08 122.988 189.864 124.276Z" fill="#AEBECC"/>
<path d="M210.131 95.5625L210.064 118.618C210.064 119.869 209.24 121.114 207.598 122.067L207.665 99.0113C209.307 98.0591 210.125 96.8077 210.131 95.5625Z" fill="#DAE1E5" stroke="#222222" stroke-width="2" stroke-linecap="round" stroke-linejoin="round"/>
<path d="M97.1055 118.569L97.1726 95.5137C97.1726 96.7772 98.0028 98.0469 99.6753 99.0113L99.6082 122.067C97.9357 121.102 97.0994 119.833 97.1055 118.569Z" fill="#DAE1E5" stroke="#222222" stroke-width="2" stroke-linecap="round" stroke-linejoin="round"/>
<path d="M207.663 99.0166L207.602 122.072L159.758 149.87L159.825 126.815L207.663 99.0166Z" fill="#222222" stroke="url(#paint7_linear_1927_37845)" stroke-width="2" stroke-linecap="round" stroke-linejoin="round"/>
<path d="M190.364 117.379L190.345 123.782L177.057 131.51L177.075 125.101L190.364 117.379Z" fill="url(#paint8_radial_1927_37845)"/>
<path d="M147.83 126.815L147.763 149.87L99.6074 122.072L99.6746 99.0166L147.83 126.815Z" fill="#222222" stroke="url(#paint9_linear_1927_37845)" stroke-width="2" stroke-linecap="round" stroke-linejoin="round"/>
<path d="M130.416 125.101L130.398 131.51L117.023 123.782L117.042 117.379L130.416 125.101Z" fill="url(#paint10_radial_1927_37845)"/>
<path d="M159.825 126.815L159.758 149.871C156.456 151.787 151.084 151.787 147.764 149.871L147.831 126.815C151.158 128.732 156.523 128.732 159.825 126.815Z" fill="#DAE1E5" stroke="#222222" stroke-width="2" stroke-linecap="round" stroke-linejoin="round"/>
<path d="M207.664 99.0172L199.058 104.016L159.826 126.815C156.524 128.732 151.152 128.732 147.832 126.815L108.344 104.016L99.6823 99.0172C96.3556 97.1005 96.3373 93.9874 99.6457 92.0707L108.253 87.0653L147.478 64.2663C150.78 62.3435 156.152 62.3435 159.472 64.2663L198.96 87.0653L207.622 92.0645C210.942 93.9874 210.961 97.0944 207.658 99.0172H207.664Z" fill="url(#paint11_radial_1927_37845)" stroke="#222222" stroke-width="2" stroke-linecap="round" stroke-linejoin="round"/>
<path d="M121.345 123.073C121.345 123.659 120.93 123.897 120.424 123.604C119.917 123.311 119.502 122.597 119.502 122.005C119.502 121.413 119.917 121.181 120.424 121.474C120.93 121.767 121.345 122.481 121.345 123.073Z" fill="#222222"/>
<path d="M124.617 124.959C124.617 125.545 124.202 125.783 123.695 125.49C123.189 125.197 122.773 124.483 122.773 123.891C122.773 123.299 123.189 123.067 123.695 123.36C124.202 123.653 124.617 124.367 124.617 124.959Z" fill="#222222"/>
<path d="M127.937 126.876C127.937 127.462 127.522 127.7 127.015 127.407C126.509 127.114 126.094 126.4 126.094 125.808C126.094 125.216 126.509 124.984 127.015 125.277C127.522 125.57 127.937 126.284 127.937 126.876Z" fill="#222222"/>
<path d="M186.086 123.073C186.086 123.659 186.501 123.897 187.008 123.604C187.514 123.311 187.929 122.597 187.929 122.005C187.929 121.413 187.514 121.181 187.008 121.474C186.501 121.767 186.086 122.481 186.086 123.073Z" fill="#222222"/>
<path d="M182.812 124.959C182.812 125.545 183.228 125.783 183.734 125.49C184.241 125.197 184.656 124.483 184.656 123.891C184.656 123.299 184.241 123.067 183.734 123.36C183.228 123.653 182.812 124.367 182.812 124.959Z" fill="#222222"/>
<path d="M179.492 126.876C179.492 127.462 179.907 127.7 180.414 127.407C180.921 127.114 181.336 126.4 181.336 125.808C181.336 125.216 180.921 124.984 180.414 125.277C179.907 125.57 179.492 126.284 179.492 126.876Z" fill="#222222"/>
<path d="M164.922 135.947V191.836C164.922 198.081 159.862 200.028 153.617 200.028C147.373 200.028 142.312 198.075 142.312 191.836V135.764L147.794 138.926C151.121 140.848 156.492 140.848 159.789 138.926L164.916 135.947H164.922Z" fill="#AEBECC" stroke="#222222" stroke-width="2" stroke-linecap="round" stroke-linejoin="round"/>
<path d="M164.922 131.705V187.594C164.922 193.839 159.862 195.786 153.617 195.786C147.373 195.786 142.312 193.832 142.312 187.594V131.521L147.794 134.683C151.121 136.606 156.492 136.606 159.789 134.683L164.916 131.705H164.922Z" fill="#DAE1E5" stroke="#222222" stroke-width="2" stroke-linecap="round" stroke-linejoin="round"/>
<path d="M275.12 106.721V110.555C275.12 112.453 274.168 114.174 272.636 115.426C271.104 116.671 268.98 117.446 266.642 117.446H199.057V112.856H266.642C268.98 112.856 271.098 112.087 272.636 110.835C274.046 109.688 274.962 108.137 275.102 106.416C275.114 106.52 275.12 106.624 275.12 106.727V106.721Z" fill="#AEBECC" stroke="#222222" stroke-width="2" stroke-linecap="round" stroke-linejoin="round"/>
<path d="M275.083 105.958C275.083 106.104 275.083 106.257 275.065 106.403C274.931 108.131 274.015 109.681 272.599 110.829C271.067 112.074 268.942 112.849 266.605 112.849H199.02H199.026L207.626 108.784C209.256 108.015 210.074 107.014 210.092 106.007C210.092 105.988 210.092 105.976 210.092 105.964C210.092 105.811 210.092 105.549 210.092 105.213V103.663C210.092 101.63 210.092 99.0723 210.092 99.0723H266.605C271.286 99.0723 275.083 102.155 275.083 105.958Z" fill="#DAE1E5" stroke="#222222" stroke-width="2" stroke-linecap="round" stroke-linejoin="round"/>
<path d="M32.1992 106.721V110.555C32.1992 112.453 33.1515 114.174 34.6836 115.426C36.2157 116.671 38.34 117.446 40.6779 117.446H108.263V112.856H40.6779C38.34 112.856 36.2218 112.087 34.6836 110.835C33.2735 109.688 32.3579 108.137 32.2175 106.416C32.2053 106.52 32.1992 106.624 32.1992 106.727V106.721Z" fill="#AEBECC" stroke="#222222" stroke-width="2" stroke-linecap="round" stroke-linejoin="round"/>
<path d="M32.1992 105.958C32.1992 106.104 32.1992 106.257 32.2175 106.403C32.3518 108.131 33.2674 109.681 34.6836 110.829C36.2157 112.074 38.34 112.849 40.6779 112.849H108.263H108.257L99.656 108.784C98.0262 108.015 97.2083 107.014 97.1899 106.007C97.1899 105.988 97.1899 105.976 97.1899 105.964C97.1899 105.811 97.1899 105.549 97.1899 105.213V103.663C97.1899 101.63 97.1899 99.0723 97.1899 99.0723H40.6779C35.996 99.0723 32.1992 102.155 32.1992 105.958Z" fill="#DAE1E5" stroke="#222222" stroke-width="2" stroke-linecap="round" stroke-linejoin="round"/>
<path d="M191.762 91.1612L191.744 94.3292C191.726 99.945 188.033 105.555 180.659 109.84C165.814 118.465 141.672 118.465 126.729 109.84C119.208 105.5 115.454 99.7985 115.473 94.1095L115.491 90.9414C115.473 96.6305 119.227 102.332 126.747 106.672C141.69 115.297 165.838 115.297 180.677 106.672C188.051 102.387 191.744 96.777 191.762 91.1612Z" fill="black" stroke="url(#paint12_radial_1927_37845)" stroke-width="2" stroke-linecap="round" stroke-linejoin="round"/>
<path d="M180.506 75.4308C195.449 84.0559 195.529 98.0466 180.677 106.672C165.832 115.297 141.69 115.297 126.747 106.672C111.804 98.0466 111.731 84.0559 126.57 75.4308C141.415 66.8056 165.563 66.8056 180.506 75.4308Z" fill="#222222" stroke="url(#paint13_linear_1927_37845)" stroke-width="2" stroke-linecap="round" stroke-linejoin="round"/>
<path d="M171.552 80.6375C181.52 86.3937 181.568 95.7208 171.668 101.471C161.767 107.221 145.664 107.227 135.702 101.471C125.74 95.7208 125.685 86.3876 135.586 80.6375C145.487 74.8813 161.59 74.8813 171.558 80.6375H171.552Z" fill="url(#paint14_linear_1927_37845)"/>
<path d="M168.866 82.2003C177.339 87.0897 177.382 95.0189 168.964 99.9084C160.552 104.798 146.861 104.798 138.388 99.9084C129.922 95.0189 129.873 87.0897 138.291 82.2003C146.708 77.3109 160.394 77.3109 168.866 82.2003Z" fill="#222222"/>
<path d="M51.8555 98.6514V105.891C51.8494 107.136 51.0253 108.387 49.3894 109.34C46.0932 111.256 40.7276 111.256 37.407 109.34C35.7345 108.375 34.9043 107.112 34.9043 105.842V98.6025C34.9043 99.8661 35.7406 101.136 37.407 102.1C40.7276 104.017 46.0932 104.017 49.3894 102.1C51.0314 101.148 51.8494 99.9027 51.8555 98.6514Z" fill="#AEBECC" stroke="#222222" stroke-width="2" stroke-linecap="round" stroke-linejoin="round"/>
<path d="M49.3521 95.1533C52.6727 97.07 52.691 100.177 49.3887 102.094C46.0925 104.01 40.7269 104.01 37.4063 102.094C34.0856 100.177 34.0673 97.07 37.3696 95.1533C40.6659 93.2366 46.0375 93.2366 49.3521 95.1533Z" fill="#DAE1E5" stroke="#222222" stroke-width="2" stroke-linecap="round" stroke-linejoin="round"/>
<path d="M49.0293 93.0659V97.8943C49.0293 98.7245 48.4799 99.5546 47.3873 100.189C45.1898 101.465 41.6127 101.465 39.3969 100.189C38.286 99.5485 37.7244 98.7 37.7305 97.8577V93.0293C37.7305 93.8717 38.286 94.714 39.403 95.3611C41.6189 96.6368 45.1959 96.6368 47.3934 95.3611C48.486 94.7263 49.0354 93.8961 49.0354 93.0659H49.0293Z" fill="#AEBECC" stroke="#222222" stroke-width="2" stroke-linecap="round" stroke-linejoin="round"/>
<path d="M47.362 90.7342C49.5778 92.0099 49.59 94.0853 47.3864 95.3611C45.1889 96.6369 41.6119 96.6369 39.3961 95.3611C37.1803 94.0853 37.1681 92.0099 39.3717 90.7342C41.5691 89.4584 45.1462 89.4584 47.362 90.7342Z" fill="#DAE1E5" stroke="#222222" stroke-width="2" stroke-linecap="round" stroke-linejoin="round"/>
<path d="M46.9101 89.7695V92.785C46.9101 93.3038 46.5622 93.8227 45.8846 94.2194C44.5112 95.0191 42.2771 95.0191 40.8915 94.2194C40.1956 93.8166 39.8477 93.2916 39.8477 92.7606V89.7451C39.8477 90.2701 40.1956 90.8011 40.8915 91.204C42.2771 92.0036 44.5112 92.0036 45.8846 91.204C46.5683 90.8072 46.9101 90.2884 46.9101 89.7695Z" fill="#AEBECC" stroke="#222222" stroke-width="2" stroke-linecap="round" stroke-linejoin="round"/>
<path d="M45.8664 88.3107C47.252 89.1103 47.2581 90.4044 45.8847 91.204C44.5112 92.0037 42.2771 92.0037 40.8915 91.204C39.5058 90.4044 39.4997 89.1103 40.8732 88.3107C42.2466 87.511 44.4868 87.511 45.8664 88.3107Z" fill="#DAE1E5" stroke="#222222" stroke-width="2" stroke-linecap="round" stroke-linejoin="round"/>
<g opacity="0.4">
<path d="M73.4456 107.117C69.0568 109.669 63.9354 111.537 58.4783 112.733C48.5896 114.894 37.5716 114.833 27.7196 112.544C22.5493 111.347 17.7027 109.535 13.5091 107.117C-3.09413 97.5277 -3.17958 81.9866 13.3138 72.397C17.6111 69.9004 22.6104 68.0509 27.9515 66.8545C31.4492 66.067 35.0872 65.5604 38.7741 65.3406C41.6431 65.1636 44.5364 65.1575 47.4115 65.3223C51.074 65.5299 54.6998 66.0121 58.1914 66.769C63.679 67.9654 68.8248 69.8394 73.2503 72.3909C89.8596 81.9805 89.9451 97.5216 73.4456 107.111V107.117Z" fill="url(#paint15_radial_1927_37845)"/>
<path d="M52.3977 94.9636C51.0792 95.7266 49.5471 96.2882 47.9051 96.6484C44.9385 97.2954 41.63 97.2771 38.6756 96.5934C37.1252 96.2333 35.6724 95.69 34.4088 94.9636C29.4279 92.0886 29.4034 87.425 34.3478 84.5439C35.6358 83.7931 37.1374 83.2376 38.7367 82.8835C39.7866 82.6455 40.8792 82.499 41.9841 82.4318C42.8448 82.3769 43.7115 82.3769 44.5783 82.4318C45.6771 82.4929 46.7636 82.6394 47.8135 82.8652C49.4616 83.2254 51.006 83.7869 52.3306 84.55C57.3116 87.425 57.3421 92.0886 52.3916 94.9697L52.3977 94.9636Z" fill="#DAE1E5"/>
<path d="M47.4049 65.3282L43.1748 89.5372L38.7676 65.3465C41.6365 65.1695 44.5299 65.1634 47.4049 65.3282Z" fill="#AEBECC"/>
<path d="M47.4049 113.746L43.1748 89.5371L38.7676 113.728C41.6365 113.905 44.5299 113.911 47.4049 113.746Z" fill="#AEBECC"/>
</g>
<path d="M73.4456 107.117C69.0568 109.669 63.9354 111.537 58.4783 112.733C48.5896 114.894 37.5716 114.833 27.7196 112.544C22.5493 111.347 17.7027 109.535 13.5091 107.117C-3.09413 97.5277 -3.17958 81.9866 13.3138 72.397C17.6111 69.9004 22.6104 68.0509 27.9515 66.8545C31.4492 66.067 35.0872 65.5604 38.7741 65.3406C41.6431 65.1636 44.5364 65.1575 47.4115 65.3223C51.074 65.5299 54.6998 66.0121 58.1914 66.769C63.679 67.9654 68.8248 69.8394 73.2503 72.3909C89.8597 81.9805 89.9451 97.5216 73.4456 107.111V107.117Z" stroke="#222222" stroke-width="2" stroke-linecap="round" stroke-linejoin="round"/>
<path d="M52.3977 94.9636C51.0792 95.7266 49.5471 96.2882 47.9051 96.6484C44.9385 97.2954 41.63 97.2771 38.6756 96.5934C37.1252 96.2333 35.6724 95.69 34.4088 94.9636C29.4279 92.0886 29.4034 87.425 34.3478 84.5439C35.6358 83.7931 37.1374 83.2376 38.7367 82.8835C39.7866 82.6455 40.8792 82.499 41.9841 82.4318C42.8448 82.3769 43.7115 82.3769 44.5783 82.4318C45.6771 82.4929 46.7636 82.6394 47.8135 82.8652C49.4616 83.2254 51.006 83.7869 52.3306 84.55C57.3116 87.425 57.3421 92.0886 52.3916 94.9697L52.3977 94.9636Z" fill="#222222" stroke="#222222" stroke-width="2" stroke-linecap="round" stroke-linejoin="round"/>
<path d="M47.4049 65.3282L43.1748 89.5372L38.7676 65.3465C41.6365 65.1695 44.5299 65.1634 47.4049 65.3282Z" stroke="#222222" stroke-width="2" stroke-linecap="round" stroke-linejoin="round"/>
<path d="M47.4049 113.746L43.1748 89.5371L38.7676 113.728C41.6365 113.905 44.5299 113.911 47.4049 113.746Z" stroke="#222222" stroke-width="2" stroke-linecap="round" stroke-linejoin="round"/>
<path d="M44.7928 87.9202V89.1288C44.7928 89.3363 44.6524 89.5439 44.3838 89.7026C43.8344 90.02 42.9371 90.02 42.3877 89.7026C42.1069 89.5439 41.9727 89.3302 41.9727 89.1227V87.9141C41.9727 88.1277 42.1131 88.3352 42.3877 88.494C42.9432 88.8114 43.8344 88.8114 44.3838 88.494C44.6585 88.3352 44.7928 88.1277 44.7928 87.9202Z" fill="#AEBECC" stroke="url(#paint16_linear_1927_37845)" stroke-width="2" stroke-linecap="round" stroke-linejoin="round"/>
<path d="M44.378 87.3396C44.9335 87.657 44.9335 88.1759 44.3841 88.4994C43.8348 88.8168 42.9374 88.8168 42.3881 88.4994C41.8326 88.182 41.8326 87.6631 42.382 87.3396C42.9313 87.0222 43.8287 87.0222 44.378 87.3396Z" fill="#222222"/>
<path d="M162.096 34.4473V41.6868C162.09 42.9381 161.266 44.1834 159.63 45.1356C156.333 47.0523 150.968 47.0523 147.647 45.1356C145.975 44.1712 145.145 42.9076 145.145 41.6379V34.3984C145.145 35.662 145.981 36.9317 147.647 37.8961C150.968 39.8128 156.333 39.8128 159.63 37.8961C161.272 36.9439 162.09 35.6986 162.096 34.4473Z" fill="#AEBECC" stroke="#222222" stroke-width="2" stroke-linecap="round" stroke-linejoin="round"/>
<path d="M159.592 30.9502C162.913 32.8669 162.931 35.9739 159.629 37.8906C156.333 39.8073 150.967 39.8073 147.647 37.8906C144.326 35.9739 144.308 32.8669 147.61 30.9502C150.906 29.0335 156.278 29.0335 159.598 30.9502H159.592Z" fill="#DAE1E5" stroke="#222222" stroke-width="2" stroke-linecap="round" stroke-linejoin="round"/>
<path d="M159.271 28.8567V33.6851C159.271 34.5152 158.722 35.3454 157.629 35.9863C155.432 37.2621 151.855 37.2621 149.639 35.9863C148.528 35.3454 147.967 34.4969 147.973 33.6545V28.8262C147.973 29.6685 148.528 30.5109 149.645 31.158C151.861 32.4337 155.438 32.4337 157.636 31.158C158.728 30.5231 159.278 29.693 159.278 28.8628L159.271 28.8567Z" fill="#AEBECC" stroke="#222222" stroke-width="2" stroke-linecap="round" stroke-linejoin="round"/>
<path d="M157.604 26.531C159.82 27.8068 159.832 29.8822 157.629 31.158C155.431 32.4337 151.854 32.4337 149.638 31.158C147.422 29.8822 147.41 27.8068 149.614 26.531C151.811 25.2553 155.388 25.2553 157.604 26.531Z" fill="#DAE1E5" stroke="#222222" stroke-width="2" stroke-linecap="round" stroke-linejoin="round"/>
<path d="M157.152 25.5664V28.5819C157.152 29.1007 156.804 29.6196 156.127 30.0163C154.753 30.816 152.519 30.816 151.134 30.0163C150.438 29.6134 150.09 29.0885 150.09 28.5574V25.542C150.09 26.0669 150.438 26.598 151.134 27.0009C152.519 27.8005 154.753 27.8005 156.127 27.0009C156.81 26.6041 157.152 26.0853 157.152 25.5664Z" fill="#AEBECC" stroke="#222222" stroke-width="2" stroke-linecap="round" stroke-linejoin="round"/>
<path d="M156.109 24.1075C157.494 24.9072 157.5 26.2013 156.127 27.0009C154.753 27.8005 152.519 27.8005 151.134 27.0009C149.748 26.2013 149.742 24.9072 151.115 24.1075C152.489 23.3079 154.723 23.3079 156.109 24.1075Z" fill="#DAE1E5" stroke="#222222" stroke-width="2" stroke-linecap="round" stroke-linejoin="round"/>
<g opacity="0.4">
<path d="M183.686 42.9142C179.297 45.4657 174.176 47.3336 168.719 48.53C158.83 50.6909 147.812 50.6298 137.96 48.3408C132.79 47.1444 127.943 45.3314 123.749 42.9142C107.146 33.3246 107.061 17.7835 123.554 8.19389C127.851 5.6973 132.851 3.84774 138.192 2.65133C141.689 1.8639 145.327 1.35726 149.014 1.13751C151.883 0.960487 154.777 0.954382 157.652 1.11919C161.314 1.32673 164.94 1.80896 168.432 2.56587C173.919 3.76228 179.065 5.63625 183.491 8.18778C200.1 17.7774 200.185 33.3185 183.686 42.9081V42.9142Z" fill="url(#paint17_linear_1927_37845)"/>
<path d="M162.64 30.7605C161.321 31.5235 159.789 32.0851 158.147 32.4452C155.181 33.0923 151.872 33.074 148.918 32.3903C147.367 32.0302 145.915 31.4869 144.651 30.7605C139.67 27.8854 139.646 23.2219 144.59 20.3407C145.878 19.5899 147.38 19.0344 148.979 18.6804C150.029 18.4423 151.121 18.2958 152.226 18.2287C153.087 18.1738 153.954 18.1738 154.821 18.2287C155.919 18.2897 157.006 18.4362 158.056 18.6621C159.704 19.0222 161.248 19.5838 162.573 20.3468C167.554 23.2219 167.584 27.8854 162.634 30.7666L162.64 30.7605Z" fill="#DAE1E5"/>
<path d="M157.645 1.11919L153.415 25.3282L149.008 1.13751C151.877 0.960487 154.77 0.954382 157.645 1.11919Z" fill="#AEBECC"/>
<path d="M157.645 49.543L153.415 25.334L149.008 49.5247C151.877 49.7017 154.77 49.7078 157.645 49.543Z" fill="#AEBECC"/>
</g>
<path d="M183.686 42.9142C179.297 45.4657 174.176 47.3336 168.719 48.53C158.83 50.6909 147.812 50.6298 137.96 48.3408C132.79 47.1444 127.943 45.3314 123.749 42.9142C107.146 33.3246 107.061 17.7835 123.554 8.19389C127.851 5.6973 132.851 3.84774 138.192 2.65133C141.689 1.8639 145.327 1.35726 149.014 1.13751C151.883 0.960487 154.777 0.954382 157.652 1.11919C161.314 1.32673 164.94 1.80896 168.432 2.56587C173.919 3.76228 179.065 5.63625 183.491 8.18778C200.1 17.7774 200.185 33.3185 183.686 42.9081V42.9142Z" stroke="#222222" stroke-width="2" stroke-linecap="round" stroke-linejoin="round"/>
<path d="M162.64 30.7605C161.321 31.5235 159.789 32.0851 158.147 32.4452C155.181 33.0923 151.872 33.074 148.918 32.3903C147.367 32.0302 145.915 31.4869 144.651 30.7605C139.67 27.8854 139.646 23.2219 144.59 20.3407C145.878 19.5899 147.38 19.0344 148.979 18.6804C150.029 18.4423 151.121 18.2958 152.226 18.2287C153.087 18.1738 153.954 18.1738 154.821 18.2287C155.919 18.2897 157.006 18.4362 158.056 18.6621C159.704 19.0222 161.248 19.5838 162.573 20.3468C167.554 23.2219 167.584 27.8854 162.634 30.7666L162.64 30.7605Z" fill="#222222" stroke="#222222" stroke-width="2" stroke-linecap="round" stroke-linejoin="round"/>
<path d="M157.645 1.11919L153.415 25.3282L149.008 1.13751C151.877 0.960487 154.77 0.954382 157.645 1.11919Z" stroke="#222222" stroke-width="2" stroke-linecap="round" stroke-linejoin="round"/>
<path d="M157.645 49.543L153.415 25.334L149.008 49.5247C151.877 49.7017 154.77 49.7078 157.645 49.543Z" stroke="#222222" stroke-width="2" stroke-linecap="round" stroke-linejoin="round"/>
<path d="M155.033 23.717V24.9257C155.033 25.1332 154.893 25.3407 154.624 25.4994C154.075 25.8169 153.177 25.8169 152.628 25.4994C152.347 25.3407 152.213 25.1271 152.213 24.9196V23.7109C152.213 23.9246 152.353 24.1321 152.628 24.2908C153.183 24.6082 154.075 24.6082 154.624 24.2908C154.899 24.1321 155.033 23.9246 155.033 23.717Z" fill="#AEBECC" stroke="url(#paint18_linear_1927_37845)" stroke-width="2" stroke-linecap="round" stroke-linejoin="round"/>
<path d="M154.618 23.1365C155.174 23.4539 155.174 23.9728 154.624 24.2963C154.075 24.6137 153.178 24.6137 152.628 24.2963C152.073 23.9789 152.073 23.46 152.622 23.1365C153.172 22.8191 154.069 22.8191 154.618 23.1365Z" fill="#222222"/>
<path d="M168.31 77.5918L168.291 90.6485C168.291 90.9721 168.078 91.2956 167.65 91.5459L167.669 78.4891C168.096 78.2388 168.31 77.9153 168.31 77.5918Z" fill="#D2F2DB"/>
<path d="M138.924 90.6368L138.942 77.5801C138.942 77.9097 139.156 78.2393 139.595 78.4896L139.577 91.5463C139.144 91.2961 138.924 90.9664 138.924 90.6368Z" fill="#D2F2DB"/>
<path d="M167.667 78.4893L167.649 91.546L155.215 98.7794L155.233 85.7166L167.667 78.4893Z" fill="#EFCFE4"/>
<path d="M152.116 85.7166L152.098 98.7794L139.578 91.546L139.596 78.4893L152.116 85.7166Z" fill="#EFCFE4"/>
<path d="M155.235 85.7168L155.217 98.7735C154.356 99.2741 152.964 99.2741 152.098 98.7735L152.116 85.7168C152.983 86.2173 154.374 86.2173 155.235 85.7168Z" fill="#D2F2DB"/>
<path d="M167.668 78.4896L165.428 79.7898L155.228 85.7169C154.367 86.2174 152.975 86.2174 152.109 85.7169L141.842 79.7898L139.589 78.4896C138.722 77.9891 138.722 77.1833 139.577 76.6828L141.817 75.3826L152.017 69.4555C152.878 68.9549 154.27 68.9549 155.136 69.4555L165.404 75.3826L167.656 76.6828C168.523 77.1833 168.523 77.9891 167.668 78.4896Z" fill="white"/>
<path d="M163.506 76.9268L163.494 77.9462C163.494 78.1659 163.347 78.3856 163.061 78.5505L163.073 77.5311C163.36 77.3663 163.506 77.1465 163.506 76.9268Z" fill="#EFCFE4"/>
<path d="M143.729 77.9393L143.741 76.9199C143.741 77.1397 143.887 77.3655 144.18 77.5303L144.168 78.5497C143.875 78.3788 143.729 78.1591 143.729 77.9393Z" fill="#EFCFE4"/>
<path d="M163.078 77.5312L163.066 78.5506L154.691 83.4156L154.704 82.3962L163.078 77.5312Z" fill="#EFCFE4"/>
<path d="M152.604 82.3962L152.592 83.4156L144.168 78.5506L144.18 77.5312L152.604 82.3962Z" fill="#EFCFE4"/>
<path d="M154.704 82.3965L154.692 83.4159C154.112 83.7516 153.172 83.7516 152.592 83.4159L152.604 82.3965C153.184 82.7322 154.124 82.7322 154.704 82.3965Z" fill="#EFCFE4"/>
<path d="M163.079 77.5307L161.571 78.4036L154.704 82.3957C154.124 82.7315 153.184 82.7315 152.604 82.3957L145.694 78.4036L144.18 77.5307C143.6 77.195 143.594 76.6517 144.174 76.316L145.682 75.4431L152.549 71.451C153.129 71.1153 154.069 71.1153 154.649 71.451L161.559 75.4431L163.072 76.316C163.652 76.6517 163.658 77.195 163.079 77.5307Z" fill="#222222"/>
<path d="M149.674 90.8438C149.674 93.2855 147.959 94.2743 145.847 93.0535C143.735 91.8327 142.02 88.86 142.02 86.4183C142.02 83.9767 143.735 82.9878 145.847 84.2086C147.959 85.4295 149.674 88.4022 149.674 90.8438Z" fill="#222222"/>
<path d="M148.398 90.1055C148.398 91.7353 147.257 92.3946 145.846 91.5766C144.436 90.7648 143.295 88.7809 143.295 87.1572C143.295 85.5335 144.436 84.8682 145.846 85.6861C147.257 86.5041 148.398 88.4818 148.398 90.1055Z" fill="#D2F2DB"/>
<path d="M146.61 89.0742C146.61 89.5626 146.268 89.7579 145.847 89.5137C145.426 89.2696 145.084 88.6775 145.084 88.1891C145.084 87.7008 145.426 87.5055 145.847 87.7496C146.268 87.9938 146.61 88.5859 146.61 89.0742Z" fill="#222222"/>
<path d="M157.615 90.8438C157.615 93.2855 159.331 94.2743 161.443 93.0535C163.555 91.8327 165.27 88.86 165.27 86.4183C165.27 83.9767 163.555 82.9878 161.443 84.2086C159.331 85.4295 157.615 88.4022 157.615 90.8438Z" fill="#222222"/>
<path d="M158.891 90.1055C158.891 91.7353 160.032 92.3946 161.442 91.5766C162.852 90.7648 163.994 88.7809 163.994 87.1572C163.994 85.5335 162.852 84.8682 161.442 85.6861C160.032 86.498 158.891 88.4818 158.891 90.1055Z" fill="#D2F2DB"/>
<path d="M160.68 89.0742C160.68 89.5626 161.022 89.7579 161.443 89.5137C161.864 89.2696 162.206 88.6775 162.206 88.1891C162.206 87.7008 161.864 87.5055 161.443 87.7496C161.022 87.9938 160.68 88.5859 160.68 89.0742Z" fill="#222222"/>
<path d="M156.717 76.8052V77.2813C156.717 77.7391 156.412 78.1969 155.814 78.5449C154.605 79.2468 152.646 79.2468 151.431 78.5449C150.821 78.1908 150.516 77.7269 150.516 77.2691V76.793C150.516 77.2569 150.821 77.7208 151.431 78.0687C152.646 78.7707 154.612 78.7707 155.814 78.0687C156.412 77.7208 156.711 77.263 156.717 76.8052Z" fill="#D0E1EE"/>
<path d="M155.803 75.5294C157.018 76.2314 157.024 77.3668 155.815 78.0687C154.607 78.7707 152.647 78.7707 151.432 78.0687C150.218 77.3668 150.212 76.2314 151.42 75.5294C152.629 74.8274 154.588 74.8274 155.803 75.5294Z" fill="white"/>
<path d="M162.096 181.044V188.283C162.09 189.529 161.266 190.78 159.63 191.732C156.333 193.649 150.968 193.649 147.647 191.732C145.975 190.768 145.145 189.504 145.145 188.235V180.995C145.145 182.259 145.981 183.528 147.647 184.493C150.968 186.409 156.333 186.409 159.63 184.493C161.272 183.541 162.09 182.295 162.096 181.044Z" fill="#AEBECC" stroke="#222222" stroke-width="2" stroke-linecap="round" stroke-linejoin="round"/>
<path d="M159.592 177.553C162.913 179.469 162.931 182.576 159.629 184.493C156.333 186.41 150.967 186.41 147.647 184.493C144.326 182.576 144.308 179.469 147.61 177.553C150.906 175.636 156.278 175.636 159.598 177.553H159.592Z" fill="#DAE1E5" stroke="#222222" stroke-width="2" stroke-linecap="round" stroke-linejoin="round"/>
<path d="M159.271 175.458V180.287C159.271 181.117 158.722 181.947 157.629 182.582C155.432 183.858 151.855 183.858 149.639 182.582C148.528 181.941 147.967 181.093 147.973 180.25V175.422C147.973 176.264 148.528 177.107 149.645 177.754C151.861 179.029 155.438 179.029 157.636 177.754C158.728 177.119 159.278 176.289 159.278 175.458H159.271Z" fill="#AEBECC" stroke="#222222" stroke-width="2" stroke-linecap="round" stroke-linejoin="round"/>
<path d="M157.604 173.127C159.82 174.403 159.832 176.478 157.629 177.754C155.431 179.029 151.854 179.029 149.638 177.754C147.422 176.478 147.41 174.403 149.614 173.127C151.811 171.851 155.388 171.851 157.604 173.127Z" fill="#DAE1E5" stroke="#222222" stroke-width="2" stroke-linecap="round" stroke-linejoin="round"/>
<path d="M157.152 172.163V175.179C157.152 175.697 156.804 176.216 156.127 176.613C154.753 177.413 152.519 177.413 151.134 176.613C150.438 176.21 150.09 175.685 150.09 175.154V172.139C150.09 172.664 150.438 173.195 151.134 173.598C152.519 174.397 154.753 174.397 156.127 173.598C156.81 173.201 157.152 172.682 157.152 172.163Z" fill="#AEBECC" stroke="#222222" stroke-width="2" stroke-linecap="round" stroke-linejoin="round"/>
<path d="M156.109 170.704C157.494 171.504 157.5 172.798 156.127 173.598C154.753 174.397 152.519 174.397 151.134 173.598C149.748 172.798 149.742 171.504 151.115 170.704C152.489 169.905 154.723 169.905 156.109 170.704Z" fill="#DAE1E5" stroke="#222222" stroke-width="2" stroke-linecap="round" stroke-linejoin="round"/>
<g opacity="0.4">
<path d="M183.686 189.511C179.297 192.062 174.176 193.93 168.719 195.127C158.83 197.288 147.812 197.227 137.96 194.937C132.79 193.741 127.943 191.928 123.749 189.511C107.146 179.921 107.061 164.374 123.554 154.791C127.851 152.294 132.851 150.444 138.192 149.248C141.689 148.461 145.327 147.954 149.014 147.734C151.883 147.557 154.777 147.551 157.652 147.716C161.314 147.923 164.94 148.406 168.432 149.163C173.919 150.359 179.065 152.233 183.491 154.784C200.1 164.374 200.185 179.915 183.686 189.505V189.511Z" fill="url(#paint19_radial_1927_37845)"/>
<path d="M162.64 177.364C161.321 178.127 159.789 178.689 158.147 179.049C155.181 179.696 151.872 179.677 148.918 178.994C147.367 178.634 145.915 178.09 144.651 177.364C139.67 174.489 139.646 169.825 144.59 166.944C145.878 166.193 147.38 165.638 148.979 165.284C150.029 165.046 151.121 164.899 152.226 164.832C153.087 164.777 153.954 164.777 154.821 164.832C155.919 164.893 157.006 165.04 158.056 165.266C159.704 165.626 161.248 166.187 162.573 166.95C167.554 169.825 167.584 174.489 162.634 177.37L162.64 177.364Z" fill="#DAE1E5"/>
<path d="M157.645 147.722L153.415 171.931L149.008 147.74C151.877 147.563 154.77 147.557 157.645 147.722Z" fill="#AEBECC"/>
<path d="M157.645 196.14L153.415 171.931L149.008 196.121C151.877 196.298 154.77 196.304 157.645 196.14Z" fill="#AEBECC"/>
</g>
<path d="M183.686 189.511C179.297 192.062 174.176 193.93 168.719 195.127C158.83 197.288 147.812 197.227 137.96 194.937C132.79 193.741 127.943 191.928 123.749 189.511C107.146 179.921 107.061 164.374 123.554 154.791C127.851 152.294 132.851 150.444 138.192 149.248C141.689 148.461 145.327 147.954 149.014 147.734C151.883 147.557 154.777 147.551 157.652 147.716C161.314 147.923 164.94 148.406 168.432 149.163C173.919 150.359 179.065 152.233 183.491 154.784C200.1 164.374 200.185 179.915 183.686 189.505V189.511Z" stroke="#222222" stroke-width="2" stroke-linecap="round" stroke-linejoin="round"/>
<path d="M162.64 177.364C161.321 178.127 159.789 178.689 158.147 179.049C155.181 179.696 151.872 179.677 148.918 178.994C147.367 178.634 145.915 178.09 144.651 177.364C139.67 174.489 139.646 169.825 144.59 166.944C145.878 166.193 147.38 165.638 148.979 165.284C150.029 165.046 151.121 164.899 152.226 164.832C153.087 164.777 153.954 164.777 154.821 164.832C155.919 164.893 157.006 165.04 158.056 165.266C159.704 165.626 161.248 166.187 162.573 166.95C167.554 169.825 167.584 174.489 162.634 177.37L162.64 177.364Z" fill="#222222" stroke="#222222" stroke-width="2" stroke-linecap="round" stroke-linejoin="round"/>
<path d="M157.645 147.722L153.415 171.931L149.008 147.74C151.877 147.563 154.77 147.557 157.645 147.722Z" stroke="#222222" stroke-width="2" stroke-linecap="round" stroke-linejoin="round"/>
<path d="M157.645 196.14L153.415 171.931L149.008 196.121C151.877 196.298 154.77 196.304 157.645 196.14Z" stroke="#222222" stroke-width="2" stroke-linecap="round" stroke-linejoin="round"/>
<path d="M155.033 170.313V171.521C155.033 171.729 154.893 171.936 154.624 172.095C154.075 172.413 153.177 172.413 152.628 172.095C152.347 171.936 152.213 171.723 152.213 171.515V170.307C152.213 170.52 152.353 170.728 152.628 170.887C153.183 171.204 154.075 171.204 154.624 170.887C154.899 170.728 155.033 170.52 155.033 170.313Z" fill="#AEBECC" stroke="url(#paint20_linear_1927_37845)" stroke-width="2" stroke-linecap="round" stroke-linejoin="round"/>
<path d="M154.618 169.733C155.174 170.051 155.174 170.569 154.624 170.893C154.075 171.21 153.178 171.21 152.628 170.893C152.073 170.576 152.073 170.057 152.622 169.733C153.172 169.416 154.069 169.416 154.618 169.733Z" fill="#222222"/>
<defs>
<linearGradient id="paint0_linear_1927_37845" x1="113.204" y1="323.032" x2="165.912" y2="311.76" gradientUnits="userSpaceOnUse">
<stop stop-color="#FFB6D5"/>
<stop offset="0.1" stop-color="#FFE3C0"/>
<stop offset="0.29" stop-color="#C7FBDB"/>
<stop offset="0.43" stop-color="#C7CDF4"/>
<stop offset="0.54" stop-color="#FFBCD4"/>
<stop offset="0.66" stop-color="#FFE0C3"/>
<stop offset="0.76" stop-color="#B0F1D4"/>
<stop offset="0.84" stop-color="#C9CEEC"/>
<stop offset="0.91" stop-color="#FFC1DA"/>
<stop offset="1" stop-color="#BDFFE3"/>
</linearGradient>
<linearGradient id="paint1_linear_1927_37845" x1="130.097" y1="309.126" x2="135.607" y2="308.958" gradientUnits="userSpaceOnUse">
<stop stop-color="#FFB6D5"/>
<stop offset="0.1" stop-color="#FFE3C0"/>
<stop offset="0.29" stop-color="#C7FBDB"/>
<stop offset="0.43" stop-color="#C7CDF4"/>
<stop offset="0.54" stop-color="#FFBCD4"/>
<stop offset="0.66" stop-color="#FFE0C3"/>
<stop offset="0.76" stop-color="#B0F1D4"/>
<stop offset="0.84" stop-color="#C9CEEC"/>
<stop offset="0.91" stop-color="#FFC1DA"/>
<stop offset="1" stop-color="#BDFFE3"/>
</linearGradient>
<linearGradient id="paint2_linear_1927_37845" x1="116.064" y1="269.426" x2="194.152" y2="219.322" gradientUnits="userSpaceOnUse">
<stop stop-color="#FFB6D5"/>
<stop offset="0.1" stop-color="#FFE3C0"/>
<stop offset="0.29" stop-color="#C7FBDB"/>
<stop offset="0.43" stop-color="#C7CDF4"/>
<stop offset="0.54" stop-color="#FFBCD4"/>
<stop offset="0.66" stop-color="#FFE0C3"/>
<stop offset="0.76" stop-color="#B0F1D4"/>
<stop offset="0.84" stop-color="#C9CEEC"/>
<stop offset="0.91" stop-color="#FFC1DA"/>
<stop offset="1" stop-color="#BDFFE3"/>
</linearGradient>
<linearGradient id="paint3_linear_1927_37845" x1="132.956" y1="255.52" x2="175.903" y2="227.965" gradientUnits="userSpaceOnUse">
<stop stop-color="#FFB6D5"/>
<stop offset="0.1" stop-color="#FFE3C0"/>
<stop offset="0.29" stop-color="#C7FBDB"/>
<stop offset="0.43" stop-color="#C7CDF4"/>
<stop offset="0.54" stop-color="#FFBCD4"/>
<stop offset="0.66" stop-color="#FFE0C3"/>
<stop offset="0.76" stop-color="#B0F1D4"/>
<stop offset="0.84" stop-color="#C9CEEC"/>
<stop offset="0.91" stop-color="#FFC1DA"/>
<stop offset="1" stop-color="#BDFFE3"/>
</linearGradient>
<linearGradient id="paint4_linear_1927_37845" x1="132.956" y1="255.52" x2="175.903" y2="227.965" gradientUnits="userSpaceOnUse">
<stop stop-color="#FFB6D5"/>
<stop offset="0.1" stop-color="#FFE3C0"/>
<stop offset="0.29" stop-color="#C7FBDB"/>
<stop offset="0.43" stop-color="#C7CDF4"/>
<stop offset="0.54" stop-color="#FFBCD4"/>
<stop offset="0.66" stop-color="#FFE0C3"/>
<stop offset="0.76" stop-color="#B0F1D4"/>
<stop offset="0.84" stop-color="#C9CEEC"/>
<stop offset="0.91" stop-color="#FFC1DA"/>
<stop offset="1" stop-color="#BDFFE3"/>
</linearGradient>
<linearGradient id="paint5_linear_1927_37845" x1="156.458" y1="323.032" x2="209.166" y2="311.76" gradientUnits="userSpaceOnUse">
<stop stop-color="#FFB6D5"/>
<stop offset="0.1" stop-color="#FFE3C0"/>
<stop offset="0.29" stop-color="#C7FBDB"/>
<stop offset="0.43" stop-color="#C7CDF4"/>
<stop offset="0.54" stop-color="#FFBCD4"/>
<stop offset="0.66" stop-color="#FFE0C3"/>
<stop offset="0.76" stop-color="#B0F1D4"/>
<stop offset="0.84" stop-color="#C9CEEC"/>
<stop offset="0.91" stop-color="#FFC1DA"/>
<stop offset="1" stop-color="#BDFFE3"/>
</linearGradient>
<linearGradient id="paint6_linear_1927_37845" x1="173.35" y1="309.126" x2="178.852" y2="308.958" gradientUnits="userSpaceOnUse">
<stop stop-color="#FFB6D5"/>
<stop offset="0.1" stop-color="#FFE3C0"/>
<stop offset="0.29" stop-color="#C7FBDB"/>
<stop offset="0.43" stop-color="#C7CDF4"/>
<stop offset="0.54" stop-color="#FFBCD4"/>
<stop offset="0.66" stop-color="#FFE0C3"/>
<stop offset="0.76" stop-color="#B0F1D4"/>
<stop offset="0.84" stop-color="#C9CEEC"/>
<stop offset="0.91" stop-color="#FFC1DA"/>
<stop offset="1" stop-color="#BDFFE3"/>
</linearGradient>
<linearGradient id="paint7_linear_1927_37845" x1="162.925" y1="155.338" x2="217.125" y2="136.075" gradientUnits="userSpaceOnUse">
<stop stop-color="#FFB6D5"/>
<stop offset="0.1" stop-color="#FFE3C0"/>
<stop offset="0.29" stop-color="#C7FBDB"/>
<stop offset="0.43" stop-color="#C7CDF4"/>
<stop offset="0.54" stop-color="#FFBCD4"/>
<stop offset="0.66" stop-color="#FFE0C3"/>
<stop offset="0.76" stop-color="#B0F1D4"/>
<stop offset="0.84" stop-color="#C9CEEC"/>
<stop offset="0.91" stop-color="#FFC1DA"/>
<stop offset="1" stop-color="#BDFFE3"/>
</linearGradient>
<radialGradient id="paint8_radial_1927_37845" cx="0" cy="0" r="1" gradientUnits="userSpaceOnUse" gradientTransform="translate(188.331 120.695) rotate(-33.7046) scale(29.1034 15.913)">
<stop stop-color="#FFB6D5"/>
<stop offset="0.1" stop-color="#FFE3C0"/>
<stop offset="0.29" stop-color="#C7FBDB"/>
<stop offset="0.43" stop-color="#C7CDF4"/>
<stop offset="0.54" stop-color="#FFBCD4"/>
<stop offset="0.66" stop-color="#FFE0C3"/>
<stop offset="0.76" stop-color="#B0F1D4"/>
<stop offset="0.84" stop-color="#C9CEEC"/>
<stop offset="0.91" stop-color="#FFC1DA"/>
<stop offset="1" stop-color="#BDFFE3"/>
</radialGradient>
<linearGradient id="paint9_linear_1927_37845" x1="102.796" y1="155.338" x2="157.274" y2="135.848" gradientUnits="userSpaceOnUse">
<stop stop-color="#FFB6D5"/>
<stop offset="0.1" stop-color="#FFE3C0"/>
<stop offset="0.29" stop-color="#C7FBDB"/>
<stop offset="0.43" stop-color="#C7CDF4"/>
<stop offset="0.54" stop-color="#FFBCD4"/>
<stop offset="0.66" stop-color="#FFE0C3"/>
<stop offset="0.76" stop-color="#B0F1D4"/>
<stop offset="0.84" stop-color="#C9CEEC"/>
<stop offset="0.91" stop-color="#FFC1DA"/>
<stop offset="1" stop-color="#BDFFE3"/>
</linearGradient>
<radialGradient id="paint10_radial_1927_37845" cx="0" cy="0" r="1" gradientUnits="userSpaceOnUse" gradientTransform="translate(128.37 120.695) rotate(-33.5355) scale(29.2329 15.9443)">
<stop stop-color="#FFB6D5"/>
<stop offset="0.1" stop-color="#FFE3C0"/>
<stop offset="0.29" stop-color="#C7FBDB"/>
<stop offset="0.43" stop-color="#C7CDF4"/>
<stop offset="0.54" stop-color="#FFBCD4"/>
<stop offset="0.66" stop-color="#FFE0C3"/>
<stop offset="0.76" stop-color="#B0F1D4"/>
<stop offset="0.84" stop-color="#C9CEEC"/>
<stop offset="0.91" stop-color="#FFC1DA"/>
<stop offset="1" stop-color="#BDFFE3"/>
</radialGradient>
<radialGradient id="paint11_radial_1927_37845" cx="0" cy="0" r="1" gradientUnits="userSpaceOnUse" gradientTransform="translate(192.868 78.1799) rotate(-19.9948) scale(218.684 83.2281)">
<stop stop-color="#FFB6D5"/>
<stop offset="0.1" stop-color="#FFE3C0"/>
<stop offset="0.29" stop-color="#C7FBDB"/>
<stop offset="0.43" stop-color="#C7CDF4"/>
<stop offset="0.54" stop-color="#FFBCD4"/>
<stop offset="0.66" stop-color="#FFE0C3"/>
<stop offset="0.76" stop-color="#B0F1D4"/>
<stop offset="0.84" stop-color="#C9CEEC"/>
<stop offset="0.91" stop-color="#FFC1DA"/>
<stop offset="1" stop-color="#BDFFE3"/>
</radialGradient>
<radialGradient id="paint12_radial_1927_37845" cx="0" cy="0" r="1" gradientUnits="userSpaceOnUse" gradientTransform="translate(180.107 96.8949) rotate(-11.7974) scale(141.8 33.6127)">
<stop stop-color="#FFB6D5"/>
<stop offset="0.1" stop-color="#FFE3C0"/>
<stop offset="0.29" stop-color="#C7FBDB"/>
<stop offset="0.43" stop-color="#C7CDF4"/>
<stop offset="0.54" stop-color="#FFBCD4"/>
<stop offset="0.66" stop-color="#FFE0C3"/>
<stop offset="0.76" stop-color="#B0F1D4"/>
<stop offset="0.84" stop-color="#C9CEEC"/>
<stop offset="0.91" stop-color="#FFC1DA"/>
<stop offset="1" stop-color="#BDFFE3"/>
</radialGradient>
<linearGradient id="paint13_linear_1927_37845" x1="120.534" y1="117.89" x2="188.776" y2="73.4389" gradientUnits="userSpaceOnUse">
<stop stop-color="#FFB6D5"/>
<stop offset="0.1" stop-color="#FFE3C0"/>
<stop offset="0.29" stop-color="#C7FBDB"/>
<stop offset="0.43" stop-color="#C7CDF4"/>
<stop offset="0.54" stop-color="#FFBCD4"/>
<stop offset="0.66" stop-color="#FFE0C3"/>
<stop offset="0.76" stop-color="#B0F1D4"/>
<stop offset="0.84" stop-color="#C9CEEC"/>
<stop offset="0.91" stop-color="#FFC1DA"/>
<stop offset="1" stop-color="#BDFFE3"/>
</linearGradient>
<linearGradient id="paint14_linear_1927_37845" x1="131.559" y1="108.954" x2="177.071" y2="79.3119" gradientUnits="userSpaceOnUse">
<stop stop-color="#FFB6D5"/>
<stop offset="0.1" stop-color="#FFE3C0"/>
<stop offset="0.29" stop-color="#C7FBDB"/>
<stop offset="0.43" stop-color="#C7CDF4"/>
<stop offset="0.54" stop-color="#FFBCD4"/>
<stop offset="0.66" stop-color="#FFE0C3"/>
<stop offset="0.76" stop-color="#B0F1D4"/>
<stop offset="0.84" stop-color="#C9CEEC"/>
<stop offset="0.91" stop-color="#FFC1DA"/>
<stop offset="1" stop-color="#BDFFE3"/>
</linearGradient>
<radialGradient id="paint15_radial_1927_37845" cx="0" cy="0" r="1" gradientUnits="userSpaceOnUse" gradientTransform="translate(72.8139 76.7279) rotate(-19.996) scale(164.117 62.4637)">
<stop stop-color="#FFB6D5"/>
<stop offset="0.1" stop-color="#FFE3C0"/>
<stop offset="0.29" stop-color="#C7FBDB"/>
<stop offset="0.43" stop-color="#C7CDF4"/>
<stop offset="0.54" stop-color="#FFBCD4"/>
<stop offset="0.66" stop-color="#FFE0C3"/>
<stop offset="0.76" stop-color="#B0F1D4"/>
<stop offset="0.84" stop-color="#C9CEEC"/>
<stop offset="0.91" stop-color="#FFC1DA"/>
<stop offset="1" stop-color="#BDFFE3"/>
</radialGradient>
<linearGradient id="paint16_linear_1927_37845" x1="42.1591" y1="90.1585" x2="44.9763" y2="88.6795" gradientUnits="userSpaceOnUse">
<stop stop-color="#FFB6D5"/>
<stop offset="0.1" stop-color="#FFE3C0"/>
<stop offset="0.29" stop-color="#C7FBDB"/>
<stop offset="0.43" stop-color="#C7CDF4"/>
<stop offset="0.54" stop-color="#FFBCD4"/>
<stop offset="0.66" stop-color="#FFE0C3"/>
<stop offset="0.76" stop-color="#B0F1D4"/>
<stop offset="0.84" stop-color="#C9CEEC"/>
<stop offset="0.91" stop-color="#FFC1DA"/>
<stop offset="1" stop-color="#BDFFE3"/>
</linearGradient>
<linearGradient id="paint17_linear_1927_37845" x1="116.845" y1="55.3849" x2="192.692" y2="5.98986" gradientUnits="userSpaceOnUse">
<stop stop-color="#FFB6D5"/>
<stop offset="0.1" stop-color="#FFE3C0"/>
<stop offset="0.29" stop-color="#C7FBDB"/>
<stop offset="0.43" stop-color="#C7CDF4"/>
<stop offset="0.54" stop-color="#FFBCD4"/>
<stop offset="0.66" stop-color="#FFE0C3"/>
<stop offset="0.76" stop-color="#B0F1D4"/>
<stop offset="0.84" stop-color="#C9CEEC"/>
<stop offset="0.91" stop-color="#FFC1DA"/>
<stop offset="1" stop-color="#BDFFE3"/>
</linearGradient>
<linearGradient id="paint18_linear_1927_37845" x1="152.399" y1="25.9554" x2="155.217" y2="24.4763" gradientUnits="userSpaceOnUse">
<stop stop-color="#FFB6D5"/>
<stop offset="0.1" stop-color="#FFE3C0"/>
<stop offset="0.29" stop-color="#C7FBDB"/>
<stop offset="0.43" stop-color="#C7CDF4"/>
<stop offset="0.54" stop-color="#FFBCD4"/>
<stop offset="0.66" stop-color="#FFE0C3"/>
<stop offset="0.76" stop-color="#B0F1D4"/>
<stop offset="0.84" stop-color="#C9CEEC"/>
<stop offset="0.91" stop-color="#FFC1DA"/>
<stop offset="1" stop-color="#BDFFE3"/>
</linearGradient>
<radialGradient id="paint19_radial_1927_37845" cx="0" cy="0" r="1" gradientUnits="userSpaceOnUse" gradientTransform="translate(183.054 159.121) rotate(-19.996) scale(164.117 62.4637)">
<stop stop-color="#FFB6D5"/>
<stop offset="0.1" stop-color="#FFE3C0"/>
<stop offset="0.29" stop-color="#C7FBDB"/>
<stop offset="0.43" stop-color="#C7CDF4"/>
<stop offset="0.54" stop-color="#FFBCD4"/>
<stop offset="0.66" stop-color="#FFE0C3"/>
<stop offset="0.76" stop-color="#B0F1D4"/>
<stop offset="0.84" stop-color="#C9CEEC"/>
<stop offset="0.91" stop-color="#FFC1DA"/>
<stop offset="1" stop-color="#BDFFE3"/>
</radialGradient>
<linearGradient id="paint20_linear_1927_37845" x1="152.399" y1="172.551" x2="155.217" y2="171.072" gradientUnits="userSpaceOnUse">
<stop stop-color="#FFB6D5"/>
<stop offset="0.1" stop-color="#FFE3C0"/>
<stop offset="0.29" stop-color="#C7FBDB"/>
<stop offset="0.43" stop-color="#C7CDF4"/>
<stop offset="0.54" stop-color="#FFBCD4"/>
<stop offset="0.66" stop-color="#FFE0C3"/>
<stop offset="0.76" stop-color="#B0F1D4"/>
<stop offset="0.84" stop-color="#C9CEEC"/>
<stop offset="0.91" stop-color="#FFC1DA"/>
<stop offset="1" stop-color="#BDFFE3"/>
</linearGradient>
</defs>
</svg>
