<svg width="71" height="71" viewBox="0 0 71 71" fill="none" xmlns="http://www.w3.org/2000/svg">
<path d="M28.7598 80.4647V64.0732L42.8153 72.2083V88.5997L28.7598 80.4647Z" fill="#222222"/>
<path d="M28.7598 64.0724L43.6715 55.4297L57.9271 63.4874L42.8153 72.2075L28.7598 64.0724Z" fill="#222222"/>
<path d="M28.7598 65.0985L43.6715 56.4668L57.9271 64.5135L42.8153 73.2335L28.7598 65.0985Z" fill="#222222"/>
<path d="M58.1618 63.6199V63.3549L57.9282 63.2225L43.6726 55.1758L28.7609 63.8075L28.5273 63.94V64.2049V80.5963L42.5828 88.7313L42.8164 88.8638L43.0499 88.7313L58.1618 80.0113V63.6199ZM29.2279 64.0724L43.6837 55.6946L57.4723 63.4874L42.8052 71.9315L34.8323 67.3176L29.2168 64.0724H29.2279ZM29.0055 80.3314V64.4698L34.9769 67.9247L42.6051 72.3399V88.2126L29.0055 80.3424V80.3314Z" fill="url(#paint0_linear_1927_16894)"/>
<path d="M52.9223 73.1242L48.3965 75.7182C47.7738 76.0714 47.2734 75.6961 47.2734 74.8793C47.2734 74.0625 47.7738 73.1132 48.3965 72.76L52.9223 70.1661C53.545 69.8128 54.0454 70.1881 54.0454 71.0049C54.0454 71.8218 53.545 72.771 52.9223 73.1242Z" fill="#222222"/>
<path d="M48.3965 72.7714C47.7738 73.1246 47.2734 74.0739 47.2734 74.8907C47.2734 75.0011 47.3624 75.0783 47.3735 75.1667C47.4514 75.1446 47.4514 75.1335 47.5292 75.0894L52.055 72.4954C52.6777 72.1422 53.1781 71.193 53.1781 70.3762C53.1781 70.2658 53.1781 70.1664 53.1558 70.0781C53.078 70.1002 53.0002 70.1333 52.9223 70.1775L48.3965 72.7714Z" fill="#222222"/>
<path d="M53.7796 69.9012C53.6462 69.824 53.5016 69.7908 53.346 69.8019H53.3015C53.1458 69.8129 52.979 69.8681 52.8011 69.9674L48.2753 72.5614C47.5859 72.9587 47.041 73.9853 47.041 74.8904C47.041 74.8904 47.041 74.8904 47.041 74.9014C47.041 74.9014 47.041 74.9125 47.041 74.9235C47.041 75.4202 47.23 75.8066 47.5414 75.9832C47.6637 76.0494 47.7972 76.0935 47.9417 76.0935C48.1196 76.0935 48.3087 76.0383 48.5088 75.928L53.0346 73.334C53.724 72.9367 54.2689 71.9101 54.2689 71.005C54.2689 70.4862 54.0799 70.0889 53.7685 69.9012H53.7796ZM47.5303 74.78C47.5748 74.0736 48.0084 73.2788 48.52 72.9808L52.9568 70.4421C52.9345 71.1596 52.4897 71.9984 51.956 72.3075L47.5303 74.8462C47.5303 74.8462 47.5303 74.8021 47.5303 74.78ZM52.8122 72.9256L48.2864 75.5196C48.153 75.5968 47.9528 75.6741 47.786 75.5748C47.7082 75.5306 47.6415 75.4423 47.597 75.3319C47.6192 75.3319 47.6304 75.3098 47.6637 75.2988L52.1895 72.7049C52.8789 72.3075 53.4238 71.281 53.4238 70.3759C53.4238 70.3317 53.4238 70.2986 53.4238 70.2655C53.4683 70.2655 53.5128 70.2655 53.5572 70.2986C53.724 70.3979 53.8241 70.6518 53.8241 70.994C53.8241 71.7225 53.3682 72.6055 52.8233 72.9146L52.8122 72.9256Z" fill="url(#paint1_linear_1927_16894)"/>
<path d="M49.4663 58.9844L34.4434 67.6161V71.8989L37.846 73.8746V69.5698L52.9023 60.916L49.4663 58.9844Z" fill="#222222"/>
<path d="M52.7128 60.2757L48.8209 58.0791L33.798 66.7219L33.5645 66.8543V67.1192V71.402L37.423 73.6427V69.073L52.7128 60.2867V60.2757ZM48.8209 58.5979L51.7899 60.2757L37.1895 68.6646L34.2428 66.9757L48.8098 58.5979H48.8209ZM34.0204 71.126V67.3731L36.9671 69.0619V72.8369L34.0204 71.1371V71.126Z" fill="url(#paint2_linear_1927_16894)"/>
<path d="M43.3484 58.5977C39.5788 58.5977 36.6543 61.4455 36.6543 63.8959C36.6543 66.3463 39.6567 68.4546 43.3484 68.4546C47.0402 68.4546 50.0426 66.4126 50.0426 63.8959C50.0426 61.3792 47.1181 58.5977 43.3484 58.5977Z" fill="url(#paint3_linear_1927_16894)"/>
<path d="M48.8762 62.5271C48.8762 64.5692 46.3964 66.2359 43.3385 66.2359C40.2805 66.2359 37.8008 64.5802 37.8008 62.5271C37.8008 60.4741 40.2805 58.8184 43.3385 58.8184C46.3964 58.8184 48.8762 60.4741 48.8762 62.5271Z" fill="#222222"/>
<path d="M48.8768 63.5203C48.8768 63.5203 46.397 66.2246 43.3502 66.2246C40.3034 66.2246 37.8125 63.5203 37.8125 63.5203C37.8125 61.4783 40.2922 59.8115 43.3502 59.8115C46.4082 59.8115 48.8879 61.4672 48.8879 63.5203H48.8768Z" fill="#222222"/>
<path d="M43.3499 66.4567C40.1697 66.4567 37.5898 64.6906 37.5898 62.5272C37.5898 60.3637 40.1697 58.5977 43.3499 58.5977C46.5302 58.5977 49.11 60.3637 49.11 62.5272C49.11 64.6906 46.5302 66.4567 43.3499 66.4567ZM43.3499 59.0502C40.4254 59.0502 38.0458 60.6066 38.0458 62.5272C38.0458 64.4478 40.4254 66.0042 43.3499 66.0042C46.2744 66.0042 48.6541 64.4478 48.6541 62.5272C48.6541 60.6066 46.2744 59.0502 43.3499 59.0502Z" fill="url(#paint4_linear_1927_16894)"/>
<path d="M43.3472 39.3252C42.8579 39.3252 42.4688 39.7226 42.4688 40.2193V61.8538C42.4688 62.3505 42.8691 62.7479 43.3472 62.7479C43.8254 62.7479 44.2257 62.3505 44.2257 61.8538V40.2193C44.2257 39.7226 43.8254 39.3252 43.3472 39.3252Z" fill="url(#paint5_linear_1927_16894)"/>
<path d="M20.8544 18.7172L21.4104 12.1055H13.8711L14.4271 18.7172C14.4271 18.7172 14.4271 18.7504 14.4271 18.7724C14.4271 18.8387 14.4493 18.8938 14.4493 18.949V19.0815H14.4716C14.7051 20.1191 16.0283 20.9248 17.6518 20.9248C19.2753 20.9248 20.5986 20.1191 20.8321 19.0815V18.949C20.8544 18.8938 20.8655 18.8276 20.8655 18.7724C20.8655 18.7504 20.8655 18.7393 20.8655 18.7172H20.8544Z" fill="#222222"/>
<path d="M21.6563 11.8838H13.8724C13.7278 11.8838 13.6166 12.0052 13.6277 12.1487L14.1837 18.7053V18.7825C14.1837 18.7825 14.1837 18.8819 14.206 18.9812L14.2838 19.3234C14.6396 20.4051 16.0185 21.1668 17.642 21.1668C19.2655 21.1668 20.6332 20.4051 21.0002 19.3234L21.078 18.9371C21.078 18.9371 21.1003 18.8377 21.1003 18.7825V18.7163L21.6674 11.8838H21.6563ZM20.6221 18.7053V18.7715C20.6221 18.7715 20.6221 18.8157 20.6221 18.8377C20.6221 18.8708 20.611 18.8929 20.611 18.9371V19.0475C20.5109 19.4448 20.2218 19.798 19.8215 20.085L20.2552 13.8817L18.9541 14.6433H17.6531V20.7142C16.1742 20.7142 14.9065 19.9967 14.6952 19.0475V19.0143L14.6841 18.9371C14.6841 18.904 14.6841 18.8819 14.673 18.8488C14.673 18.8267 14.673 18.8046 14.6619 18.8046V18.7494L14.1392 12.3474H21.1892L20.6555 18.7163L20.6221 18.7053Z" fill="url(#paint6_linear_1927_16894)"/>
<path d="M21.3986 12.1047C21.3986 13.4955 19.7084 14.6324 17.629 14.6324C15.5496 14.6324 13.8594 13.5065 13.8594 12.1047C13.8594 10.7028 15.5496 9.14648 17.629 9.14648C19.7084 9.14648 21.3986 10.7139 21.3986 12.1047Z" fill="#222222"/>
<path d="M17.6301 14.8642C15.4284 14.8642 13.627 13.628 13.627 12.1158C13.627 10.6036 15.3728 8.92578 17.6301 8.92578C19.8874 8.92578 21.6332 10.6367 21.6332 12.1158C21.6332 13.5949 19.8429 14.8642 17.6301 14.8642ZM17.6301 9.37834C15.673 9.37834 14.0829 10.8685 14.0829 12.1047C14.0829 13.341 15.673 14.4006 17.6301 14.4006C19.5872 14.4006 21.1773 13.3741 21.1773 12.1047C21.1773 10.8354 19.5983 9.37834 17.6301 9.37834Z" fill="url(#paint7_linear_1927_16894)"/>
<path d="M20.8538 11.3099C20.8538 12.502 19.4082 13.4734 17.6291 13.4734C15.8499 13.4734 14.4043 12.502 14.4043 11.3099C14.4043 10.1178 15.8499 9.14648 17.6291 9.14648C19.4082 9.14648 20.8538 10.1178 20.8538 11.3099Z" fill="#222222"/>
<path d="M17.6301 13.6942C15.7287 13.6942 14.1719 12.6235 14.1719 11.31C14.1719 9.99647 15.7175 8.92578 17.6301 8.92578C19.5428 8.92578 21.0884 9.99647 21.0884 11.31C21.0884 12.6235 19.5428 13.6942 17.6301 13.6942ZM17.6301 9.37834C15.9733 9.37834 14.6278 10.2503 14.6278 11.31C14.6278 12.3696 15.9733 13.2416 17.6301 13.2416C19.287 13.2416 20.6325 12.3696 20.6325 11.31C20.6325 10.2503 19.287 9.37834 17.6301 9.37834Z" fill="url(#paint8_linear_1927_16894)"/>
<path d="M18.4199 9.1802C18.1419 9.10294 17.9639 9.35681 17.8194 9.56653C17.7638 9.6438 17.6637 9.79833 17.6415 9.82041C17.597 9.79833 17.4858 9.65484 17.4302 9.57757C17.2856 9.36785 17.1077 9.12501 16.8297 9.19124C16.0291 9.40096 15.5176 10.6372 15.5176 11.1119C15.5176 11.8293 16.4405 12.3923 17.6303 12.3923C18.8202 12.3923 19.7431 11.8293 19.7431 11.1119C19.7431 10.6483 19.1871 9.40096 18.4199 9.19124V9.1802Z" fill="url(#paint9_linear_1927_16894)"/>
<path d="M0.707367 10.8475C0.240333 10.8696 -0.0487834 11.1014 0.00681587 11.4325C0.106895 12.0837 0.562809 13.2869 2.43094 14.9536C4.199 16.5321 6.07826 17.3268 7.14576 17.68C7.67952 17.8566 8.19103 17.8235 8.44678 17.6138L16.9535 10.4612C17.1648 10.2845 16.7533 9.92029 16.3641 9.94237L0.696247 10.8475H0.707367Z" fill="#222222"/>
<path d="M9.18033 19.8101C9.08026 19.8101 8.96906 19.8101 8.85786 19.788C7.80147 19.6555 5.72206 19.2582 3.59817 18.0109C1.4298 16.7415 0.673647 15.6267 0.417891 14.9202C0.351172 14.7436 0.362292 14.556 0.45125 14.3904C0.562449 14.1696 0.818205 14.0041 1.1518 13.9158L16.3304 9.95313C16.664 9.86482 17.0977 9.99728 17.2645 10.2512C17.3645 10.3946 17.3534 10.5713 17.2533 10.7037L10.3368 19.3906C10.1144 19.6666 9.69185 19.8211 9.19145 19.8211L9.18033 19.8101ZM16.5528 10.3726C16.5528 10.3726 16.475 10.3726 16.4416 10.3836L1.263 14.3573C1.06284 14.4125 0.907164 14.5008 0.851565 14.6001C0.829325 14.6553 0.818206 14.6995 0.851565 14.7657C1.0406 15.2955 1.67443 16.3552 3.83169 17.6135C5.88886 18.8166 7.90155 19.214 8.91346 19.3354C9.44721 19.4017 9.83641 19.2582 9.96984 19.0926L16.8419 10.4498C16.8419 10.4498 16.6751 10.3615 16.5528 10.3615V10.3726Z" fill="url(#paint10_linear_1927_16894)"/>
<path d="M34.2998 9.1908C34.7668 9.16872 35.0559 8.94796 35.0115 8.61682C34.9225 7.97662 34.4777 6.76243 32.6318 5.0957C30.8749 3.50622 29.0179 2.71149 27.9392 2.34723C27.4055 2.17062 26.894 2.1927 26.6271 2.41346L17.9647 9.47779C17.7534 9.65439 18.1538 10.0186 18.5429 9.99657L34.2887 9.20183L34.2998 9.1908Z" fill="#222222"/>
<path d="M18.3662 10.0295C18.0771 10.0295 17.7769 9.89709 17.6545 9.6984C17.5545 9.55491 17.5656 9.3783 17.6768 9.24584L24.7601 0.614121C25.027 0.282981 25.5941 0.139486 26.2391 0.216752C27.2955 0.349209 29.3637 0.768653 31.4765 2.02699C33.6226 3.3074 34.3677 4.42223 34.6123 5.12867C34.679 5.30528 34.6568 5.49292 34.5678 5.65849C34.4455 5.87925 34.2009 6.04482 33.8673 6.13313L18.5886 10.0075C18.5219 10.0295 18.444 10.0295 18.3662 10.0295ZM18.0771 9.48868C18.1549 9.54387 18.3217 9.59906 18.4774 9.56595L33.7561 5.69161C33.9674 5.63642 34.1119 5.54811 34.1675 5.44877C34.1898 5.39358 34.2009 5.34943 34.1675 5.2832C33.9896 4.76441 33.3669 3.69373 31.2319 2.42435C29.1969 1.21017 27.1843 0.812805 26.1723 0.680349C25.6275 0.614121 25.2383 0.757615 25.1048 0.912147L18.066 9.48868H18.0771Z" fill="url(#paint11_linear_1927_16894)"/>
<path d="M18.9438 10.0078C18.9438 10.4162 18.3545 10.7363 17.6428 10.7363C16.9311 10.7363 16.3418 10.4052 16.3418 10.0078C16.3418 9.61044 16.9311 9.2793 17.6428 9.2793C18.3545 9.2793 18.9438 9.61044 18.9438 10.0078Z" fill="#222222"/>
<path d="M17.6322 10.9685C16.776 10.9685 16.0977 10.549 16.0977 10.0082C16.0977 9.4673 16.776 9.04785 17.6322 9.04785C18.4884 9.04785 19.1667 9.4673 19.1667 10.0082C19.1667 10.549 18.4884 10.9685 17.6322 10.9685ZM17.6322 9.50041C17.0206 9.50041 16.5536 9.76532 16.5536 10.0082C16.5536 10.251 17.0095 10.5159 17.6322 10.5159C18.2549 10.5159 18.7108 10.251 18.7108 10.0082C18.7108 9.76532 18.2549 9.50041 17.6322 9.50041Z" fill="url(#paint12_linear_1927_16894)"/>
<path d="M71.5926 18.6069L72.1486 11.9951H64.6094L65.1654 18.6069C65.1654 18.6069 65.1654 18.64 65.1654 18.6621C65.1654 18.7283 65.1876 18.7835 65.1876 18.8387V18.9711H65.2098C65.4434 20.0087 66.7666 20.8145 68.3901 20.8145C70.0136 20.8145 71.3369 20.0087 71.5704 18.9711V18.8387C71.5926 18.7835 71.6038 18.7173 71.6038 18.6621C71.6038 18.64 71.6038 18.629 71.6038 18.6069H71.5926Z" fill="#222222"/>
<path d="M72.3926 11.7637H64.6087C64.4641 11.7637 64.3529 11.8851 64.364 12.0286L64.92 18.5852V18.6624C64.92 18.6624 64.92 18.7618 64.9423 18.8611L65.0201 19.2033C65.376 20.285 66.7548 21.0466 68.3783 21.0466C70.0018 21.0466 71.3696 20.285 71.7365 19.2033L71.8143 18.817C71.8143 18.817 71.8366 18.7176 71.8366 18.6624V18.5962L72.4037 11.7637H72.3926ZM71.3584 18.5852V18.6514C71.3584 18.6514 71.3584 18.6955 71.3584 18.7176C71.3584 18.7507 71.3473 18.7728 71.3473 18.817V18.9273C71.2472 19.3247 70.9581 19.6779 70.5578 19.9649L70.9915 13.7616L69.6905 14.5232H68.3894V20.5941C66.9105 20.5941 65.6428 19.8766 65.4316 18.9273V18.8942L65.4204 18.817C65.4204 18.7838 65.4204 18.7618 65.4093 18.7287C65.4093 18.7066 65.4093 18.6845 65.3982 18.6845V18.6293L64.8756 12.2273H71.9256L71.3918 18.5962L71.3584 18.5852Z" fill="url(#paint13_linear_1927_16894)"/>
<path d="M72.1467 11.9953C72.1467 13.3861 70.4565 14.523 68.3771 14.523C66.2976 14.523 64.6074 13.3971 64.6074 11.9953C64.6074 10.5935 66.2976 9.03711 68.3771 9.03711C70.4565 9.03711 72.1467 10.6045 72.1467 11.9953Z" fill="#222222"/>
<path d="M68.3781 14.7549C66.1764 14.7549 64.375 13.5186 64.375 12.0064C64.375 10.4942 66.1208 8.81641 68.3781 8.81641C70.6355 8.81641 72.3813 10.5273 72.3813 12.0064C72.3813 13.4855 70.591 14.7549 68.3781 14.7549ZM68.3781 9.26896C66.4211 9.26896 64.8309 10.7591 64.8309 11.9954C64.8309 13.2316 66.4211 14.2913 68.3781 14.2913C70.3352 14.2913 71.9254 13.2647 71.9254 11.9954C71.9254 10.726 70.3464 9.26896 68.3781 9.26896Z" fill="url(#paint14_linear_1927_16894)"/>
<path d="M71.6019 11.2006C71.6019 12.3927 70.1563 13.364 68.3771 13.364C66.5979 13.364 65.1523 12.3927 65.1523 11.2006C65.1523 10.0085 66.5979 9.03711 68.3771 9.03711C70.1563 9.03711 71.6019 10.0085 71.6019 11.2006Z" fill="#222222"/>
<path d="M68.3782 13.5848C66.4767 13.5848 64.9199 12.5141 64.9199 11.2006C64.9199 9.88709 66.4656 8.81641 68.3782 8.81641C70.2908 8.81641 71.8365 9.88709 71.8365 11.2006C71.8365 12.5141 70.2908 13.5848 68.3782 13.5848ZM68.3782 9.26896C66.7213 9.26896 65.3758 10.141 65.3758 11.2006C65.3758 12.2603 66.7213 13.1323 68.3782 13.1323C70.0351 13.1323 71.3806 12.2603 71.3806 11.2006C71.3806 10.141 70.0351 9.26896 68.3782 9.26896Z" fill="url(#paint15_linear_1927_16894)"/>
<path d="M69.1562 9.05911C68.8782 8.98184 68.7003 9.23572 68.5557 9.44544C68.5001 9.5227 68.4 9.67724 68.3778 9.69931C68.3333 9.67724 68.2221 9.53374 68.1665 9.45648C68.022 9.24675 67.844 9.00392 67.566 9.07015C66.7654 9.27987 66.2539 10.5161 66.2539 10.9908C66.2539 11.7082 67.1769 12.2712 68.3667 12.2712C69.5565 12.2712 70.4794 11.7082 70.4794 10.9908C70.4794 10.5272 69.9235 9.27987 69.1562 9.07015V9.05911Z" fill="url(#paint16_linear_1927_16894)"/>
<path d="M59.5272 2.06076C59.2715 1.84 58.7711 1.80689 58.2485 1.97246C57.2143 2.3036 55.424 3.04315 53.4892 4.67677C51.6544 6.22209 51.1651 7.48043 51.0539 8.16478C50.9983 8.49592 51.2763 8.73876 51.7545 8.77187L67.389 9.82048C67.7782 9.84256 68.1896 9.48934 67.9783 9.31274L59.5272 2.0718V2.06076Z" fill="#222222"/>
<path d="M67.5774 9.88679C67.4996 9.88679 67.4218 9.88679 67.355 9.86472L52.1987 5.90207C51.8651 5.81377 51.6204 5.6482 51.4981 5.42744C51.4092 5.26187 51.398 5.07422 51.4759 4.88657C51.765 4.12495 52.5434 2.977 54.6339 1.80697C56.8134 0.581749 58.7038 0.151267 59.9047 0.0188104C60.5386 -0.0584556 61.0834 0.107115 61.3503 0.427217L68.278 9.12517C68.3892 9.25762 68.3892 9.43423 68.3002 9.57773C68.1668 9.77641 67.8777 9.89783 67.5886 9.89783L67.5774 9.88679ZM60.205 0.427217C60.1271 0.427217 60.0493 0.427217 59.9603 0.438255C59.0151 0.548635 57.0914 0.923927 54.8563 2.17122C52.7769 3.33021 52.1208 4.45609 51.8984 5.01903C51.8762 5.08526 51.8762 5.14045 51.8984 5.19564C51.954 5.30602 52.0986 5.39432 52.3099 5.44951L67.4662 9.41216C67.6219 9.45631 67.7998 9.39008 67.8665 9.33489L60.9834 0.681091C60.8722 0.548635 60.5942 0.427217 60.1938 0.427217H60.205Z" fill="url(#paint17_linear_1927_16894)"/>
<path d="M77.1636 17.7239C77.4082 17.9446 77.9086 17.9888 78.4312 17.8232C79.4654 17.5031 81.2668 16.7636 83.2127 15.141C85.0698 13.5957 85.5702 12.3484 85.6925 11.664C85.7592 11.3329 85.4812 11.09 85.0142 11.0569L69.4575 9.88688C69.0683 9.85377 68.6569 10.218 68.857 10.3946L77.1524 17.7239H77.1636Z" fill="#222222"/>
<path d="M76.4855 19.8098C75.974 19.8098 75.5514 19.6553 75.3402 19.3683L68.5793 10.6151C68.4792 10.4827 68.4681 10.3061 68.5793 10.1626C68.7461 9.91974 69.1798 9.77624 69.5134 9.87559L84.5696 13.9376C84.9032 14.0259 85.1479 14.2025 85.2591 14.4232C85.348 14.5999 85.348 14.7875 85.2813 14.9751C84.9811 15.7368 84.1804 16.8847 82.0788 18.0437C79.8771 19.2579 77.9867 19.6773 76.7857 19.8098C76.6857 19.8098 76.5967 19.8208 76.4966 19.8208L76.4855 19.8098ZM75.696 19.0923C75.8183 19.2469 76.1853 19.4014 76.719 19.3352C77.8755 19.2027 79.7103 18.8053 81.8453 17.6243C83.9358 16.4653 84.6252 15.3504 84.8476 14.7875C84.8699 14.7213 84.8699 14.6661 84.8476 14.6109C84.792 14.5115 84.6475 14.4122 84.4473 14.3681L69.391 10.3061C69.2354 10.2619 69.0574 10.3281 68.9907 10.3833L75.7071 19.0923H75.696Z" fill="url(#paint18_linear_1927_16894)"/>
<path d="M69.6802 9.89745C69.6802 10.3059 69.0908 10.626 68.3791 10.626C67.6675 10.626 67.0781 10.2948 67.0781 9.89745C67.0781 9.50009 67.6675 9.16895 68.3791 9.16895C69.0908 9.16895 69.6802 9.50009 69.6802 9.89745Z" fill="#222222"/>
<path d="M68.3802 10.8581C67.524 10.8581 66.8457 10.4387 66.8457 9.89781C66.8457 9.35694 67.524 8.9375 68.3802 8.9375C69.2365 8.9375 69.9148 9.35694 69.9148 9.89781C69.9148 10.4387 69.2365 10.8581 68.3802 10.8581ZM68.3802 9.39006C67.7687 9.39006 67.3016 9.65497 67.3016 9.89781C67.3016 10.1406 67.7575 10.4056 68.3802 10.4056C69.003 10.4056 69.4589 10.1406 69.4589 9.89781C69.4589 9.65497 69.003 9.39006 68.3802 9.39006Z" fill="url(#paint19_linear_1927_16894)"/>
<path d="M33.7533 29.3131L18.9194 17.4252C18.5191 17.1161 18.4079 16.5642 18.6748 16.1117C18.9416 15.6591 19.4865 15.4825 19.9647 15.6922L36.9558 23.5954L36.2664 25.0635L24.1235 19.412C24.1235 19.412 24.0568 19.4451 24.0901 19.4672L34.2426 27.6022L33.7533 29.2911V29.3131Z" fill="url(#paint20_linear_1927_16894)"/>
<path d="M33.8415 29.6003L18.8074 17.5579C18.3404 17.2046 18.2181 16.5534 18.5294 16.0346C18.8408 15.5158 19.4635 15.3061 20.0306 15.5489L37.1774 23.5294L36.3434 25.2955L25.0346 20.0304L34.4197 27.5583L33.8304 29.6003H33.8415ZM19.5525 15.7807C19.2633 15.7807 18.9853 15.9353 18.8186 16.2002C18.5962 16.5755 18.674 17.0391 19.0187 17.2929L33.6636 29.0263L34.0527 27.6797L23.9893 19.6109C23.9114 19.5447 23.8892 19.4343 23.9448 19.346C24.0004 19.2577 24.1116 19.2246 24.2006 19.2687L36.1878 24.8429L36.7438 23.6729L19.9083 15.8359C19.7971 15.7918 19.6748 15.7587 19.5636 15.7587L19.5525 15.7807Z" fill="#222222"/>
<path d="M53.1763 28.8826L52.1533 27.6243L62.4836 19.3458L50.1406 25.0966L49.4512 23.6285L66.4089 15.7364C66.9093 15.5156 67.4542 15.6922 67.7211 16.1448C67.988 16.5973 67.8768 17.1492 67.4653 17.4693L53.1986 28.9047L53.1763 28.8826Z" fill="url(#paint21_linear_1927_16894)"/>
<path d="M53.1552 29.1152L51.9209 27.592L52.0543 27.4926L61.3505 20.042L50.0527 25.3071L49.2188 23.541L66.3211 15.5716C66.8993 15.3177 67.5331 15.5164 67.8445 16.0462C68.1559 16.565 68.0335 17.2162 67.5443 17.5805L53.1552 29.1152ZM52.3879 27.6472L53.1997 28.6516L67.333 17.3156C67.6888 17.0507 67.7778 16.576 67.5554 16.2007C67.3219 15.8144 66.8771 15.682 66.4545 15.8586L49.6524 23.6845L50.2084 24.8545L62.5292 19.1148L62.696 19.3466L62.5848 19.4569L52.3768 27.6472H52.3879Z" fill="#222222"/>
<path d="M52.9225 32.0616C51.3212 29.5008 47.6628 27.8672 43.5484 27.8672C39.2006 27.8672 35.3865 29.6995 33.952 32.448L32.6621 31.8409L33.4627 35.6711C34.1633 39.2695 38.5668 42.0952 43.4928 42.0952C48.4189 42.0952 52.7446 39.3798 53.6008 35.9029C53.623 35.8146 53.6453 35.7152 53.6564 35.6269L54.4014 32.0396L52.9225 32.0727V32.0616Z" fill="url(#paint22_linear_1927_16894)"/>
<path d="M54.0562 30.2075L54.034 30.1302C54.0117 30.0309 53.9784 29.9316 53.9561 29.8433L53.3223 27.6136H52.6218C50.7425 25.5715 47.3843 24.2139 43.5479 24.2139C39.7116 24.2139 36.3423 25.5715 34.4741 27.6136H33.6513L33.0397 30.1854C33.0397 30.1854 33.0174 30.2737 33.0063 30.3179V30.3731C32.9396 30.6932 32.9062 31.0243 32.9062 31.3555C32.9062 35.296 37.6767 38.4971 43.5702 38.4971C49.4637 38.4971 54.2341 35.3071 54.2341 31.3555C54.2341 30.9691 54.1896 30.5828 54.1007 30.2075H54.0562Z" fill="#222222"/>
<path d="M43.5367 38.7074C37.532 38.7074 32.6504 35.4071 32.6504 31.3451C32.6504 31.1022 32.6726 30.8484 32.706 30.5945H32.6949L32.7949 30.164L33.4621 27.3714H34.374C36.3867 25.2411 39.8116 23.9717 43.5478 23.9717C47.2841 23.9717 50.709 25.2411 52.7217 27.3714H53.5001L54.1895 29.7666C54.2229 29.8549 54.2451 29.9653 54.2785 30.0647L54.3786 30.4289H54.3563C54.4119 30.738 54.4453 31.036 54.4453 31.3451C54.4453 35.4071 49.5637 38.7074 43.559 38.7074H43.5367ZM33.2175 30.3296V30.4068C33.1397 30.7269 33.1063 31.036 33.1063 31.3451C33.1063 35.1532 37.7878 38.2549 43.5367 38.2549C49.2857 38.2549 53.9671 35.1532 53.9671 31.3451C53.9671 30.9808 53.9227 30.6166 53.8337 30.2523L53.8115 30.1861C53.7892 30.0867 53.7559 29.9984 53.7336 29.8991L53.1443 27.8239H52.5104L52.4437 27.7467C50.5311 25.6715 47.1952 24.4242 43.5367 24.4242C39.8783 24.4242 36.5423 25.6605 34.6297 27.7467L34.563 27.8239H33.818L33.2175 30.3296Z" fill="url(#paint23_linear_1927_16894)"/>
<path d="M43.4816 35.2851C48.9781 35.2851 53.4338 32.3002 53.4338 28.6181C53.4338 24.9361 48.9781 21.9512 43.4816 21.9512C37.9851 21.9512 33.5293 24.9361 33.5293 28.6181C33.5293 32.3002 37.9851 35.2851 43.4816 35.2851Z" fill="#222222"/>
<path d="M43.4827 35.5176C37.8671 35.5176 33.2969 32.427 33.2969 28.6299C33.2969 24.8328 37.8671 21.7422 43.4827 21.7422C49.0982 21.7422 53.6684 24.8328 53.6684 28.6299C53.6684 32.427 49.0982 35.5176 43.4827 35.5176ZM43.4827 22.1837C38.1229 22.1837 33.7528 25.0757 33.7528 28.6189C33.7528 32.1621 38.1118 35.054 43.4827 35.054C48.8535 35.054 53.2125 32.1621 53.2125 28.6189C53.2125 25.0757 48.8535 22.1837 43.4827 22.1837Z" fill="url(#paint24_linear_1927_16894)"/>
<path d="M43.5375 20.4502C38.7226 20.4502 34.9863 24.0817 34.9863 27.2055C34.9863 30.3292 38.8227 33.0004 43.5375 33.0004C48.2523 33.0004 52.0887 30.3954 52.0887 27.2055C52.0887 24.0155 48.3524 20.4502 43.5375 20.4502Z" fill="url(#paint25_linear_1927_16894)"/>
<path d="M50.6514 25.4393C50.6514 28.0664 47.4711 30.2077 43.5347 30.2077C39.5982 30.2077 36.418 28.0774 36.418 25.4393C36.418 22.8012 39.5982 20.6709 43.5347 20.6709C47.4711 20.6709 50.6514 22.8012 50.6514 25.4393Z" fill="#222222"/>
<path d="M50.5847 26.8301C50.5847 26.8301 47.9715 30.1967 43.5347 30.1967C38.8532 30.1967 36.418 26.6645 36.418 26.6645C36.418 24.479 39.5426 22.2383 43.468 22.2383C47.3933 22.2383 50.5847 24.181 50.5847 26.8191V26.8301Z" fill="#222222"/>
<path d="M43.5358 30.4286C39.4881 30.4286 36.1855 28.1878 36.1855 25.4394C36.1855 22.6909 39.477 20.4502 43.5358 20.4502C47.5945 20.4502 50.886 22.6909 50.886 25.4394C50.886 28.1878 47.5945 30.4286 43.5358 30.4286ZM43.5358 20.9028C39.7439 20.9028 36.6526 22.9337 36.6526 25.4394C36.6526 27.945 39.7439 29.976 43.5358 29.976C47.3276 29.976 50.419 27.945 50.419 25.4394C50.419 22.9337 47.3276 20.9028 43.5358 20.9028Z" fill="url(#paint26_linear_1927_16894)"/>
<path d="M67.4766 51.9406C67.243 51.9406 67.0206 51.8633 66.8205 51.7198L50.8079 39.6221C50.4521 39.3462 50.3742 38.8384 50.6522 38.4852C50.9302 38.132 51.4417 38.0547 51.7976 38.3307L62.0278 46.0573L50.8857 34.6992C50.5744 34.3791 50.5855 33.8603 50.908 33.5512C51.2305 33.2422 51.7531 33.2532 52.0645 33.5733L68.2105 50.0531C68.6108 50.4615 68.6886 51.1127 68.3217 51.5432C68.1104 51.7971 67.799 51.9295 67.4877 51.9295L67.4766 51.9406Z" fill="url(#paint27_linear_1927_16894)"/>
<path d="M67.4775 52.1067C67.1995 52.1067 66.9437 52.0184 66.7213 51.8528L50.7087 39.7551C50.4975 39.6006 50.364 39.3688 50.3307 39.1149C50.2973 38.8611 50.364 38.5962 50.5197 38.3975C50.6754 38.1877 50.9089 38.0553 51.1758 38.0222C51.4426 37.9891 51.6984 38.0553 51.8986 38.2098L60.3385 44.5898L50.7643 34.8322C50.5753 34.6445 50.4863 34.4017 50.4863 34.1368C50.4863 33.8719 50.5975 33.629 50.7866 33.4524C51.1758 33.0771 51.7985 33.0882 52.1766 33.4745L68.3226 49.9543C68.7896 50.4399 68.8452 51.1905 68.4338 51.6652C68.1891 51.9521 67.8444 52.1177 67.4775 52.1177V52.1067ZM51.2981 38.3312C51.2981 38.3312 51.2425 38.3312 51.2091 38.3312C51.0423 38.3533 50.8866 38.4416 50.7754 38.5851C50.6754 38.7176 50.6309 38.8942 50.6531 39.0597C50.6754 39.2253 50.7643 39.3798 50.9089 39.4902L66.9215 51.5879C67.2996 51.8749 67.8667 51.8087 68.178 51.4444C68.4783 51.0912 68.4338 50.5393 68.0779 50.175L51.9319 33.6953C51.6873 33.4414 51.2758 33.4304 51.009 33.6842C50.8867 33.8057 50.8088 33.9602 50.8088 34.1368C50.8088 34.3134 50.8755 34.4679 50.9867 34.6004L62.1288 45.9585L61.9064 46.2013L51.6762 38.4747C51.565 38.3864 51.4204 38.3423 51.287 38.3423L51.2981 38.3312Z" fill="#222222"/>
<path d="M18.9162 51.9406C18.6048 51.9406 18.2934 51.8082 18.0822 51.5433C17.7152 51.1128 17.7931 50.4505 18.1934 50.0531L34.6396 33.5623C34.9621 33.2422 35.4736 33.2422 35.7961 33.5623C36.1186 33.8824 36.1186 34.3902 35.7961 34.7103L24.3982 46.1346L34.9621 38.3308C35.3291 38.0659 35.8295 38.1431 36.1074 38.4963C36.3743 38.8606 36.2965 39.3683 35.9407 39.6332L19.5611 51.7309C19.361 51.8744 19.1386 51.9517 18.905 51.9517L18.9162 51.9406Z" fill="url(#paint28_linear_1927_16894)"/>
<path d="M18.917 52.1066C18.5501 52.1066 18.1942 51.941 17.9496 51.654C17.5382 51.1683 17.5938 50.4177 18.0719 49.9321L34.5182 33.4413C34.7072 33.2536 34.9519 33.1543 35.2076 33.1543C35.4634 33.1543 35.7191 33.2536 35.897 33.4413C36.0861 33.6289 36.1862 33.8718 36.1862 34.1256C36.1862 34.3906 36.0861 34.6334 35.897 34.821L26.0671 44.678L34.8518 38.1876C35.2854 37.8675 35.9082 37.9558 36.2306 38.3863C36.3863 38.596 36.453 38.8499 36.4197 39.1148C36.3863 39.3687 36.2418 39.6005 36.0305 39.755L19.6509 51.8527C19.4285 52.0183 19.1728 52.1066 18.8948 52.1066H18.917ZM35.2187 33.4854C35.0519 33.4854 34.8851 33.5517 34.7628 33.6731L18.3165 50.1639C17.9607 50.5171 17.9162 51.08 18.2054 51.4332C18.5167 51.7975 19.0838 51.8637 19.473 51.5767L35.8526 39.4791C35.9971 39.3797 36.0861 39.2252 36.1083 39.0596C36.1306 38.8941 36.0861 38.7175 35.986 38.585C35.7747 38.298 35.3633 38.2428 35.0742 38.4525L24.5103 46.2564L24.2879 46.0025L35.6858 34.5782C35.9415 34.3243 35.9415 33.9159 35.6858 33.662C35.5634 33.5406 35.3966 33.4744 35.2298 33.4744L35.2187 33.4854Z" fill="#222222"/>
<path d="M41.3245 37.4488L39.0449 36.8858C38.6335 36.7865 38.3778 36.367 38.489 35.9586C38.589 35.5502 39.0116 35.2963 39.423 35.4067L41.7026 35.9697C42.114 36.069 42.3698 36.4885 42.2586 36.8969C42.1585 37.3053 41.7359 37.5591 41.3245 37.4488Z" fill="#222222"/>
<path d="M41.5565 34.6121L40.1776 34.3472C39.8218 34.281 39.5994 33.9498 39.6661 33.5966C39.7328 33.2434 40.0664 33.0226 40.4222 33.0889L41.8011 33.3538C42.1569 33.42 42.3793 33.7511 42.3126 34.1044C42.2459 34.4465 41.9123 34.6783 41.5565 34.6121Z" fill="#222222"/>
<path d="M41.7571 40.6056L40.078 40.44C39.6554 40.3959 39.3441 40.0206 39.3774 39.6011C39.4219 39.1817 39.8 38.8726 40.2226 38.9058L41.9017 39.0713C42.3242 39.1155 42.6356 39.4908 42.6022 39.9102C42.5577 40.3297 42.1797 40.6387 41.7571 40.6056Z" fill="#222222"/>
<path d="M42.4794 31.2564C42.4794 31.6868 42.1236 32.0401 41.6899 32.0401C41.2562 32.0401 40.9004 31.6868 40.9004 31.2564C40.9004 30.8259 41.2562 30.4727 41.6899 30.4727C42.1236 30.4727 42.4794 30.8259 42.4794 31.2564Z" fill="#222222"/>
<path d="M43.7365 28.4857C43.8811 28.563 43.8811 28.7064 43.7365 28.7837C43.592 28.861 43.3584 28.861 43.2139 28.7837C43.0693 28.7064 43.0693 28.563 43.2139 28.4857C43.3584 28.4084 43.592 28.4084 43.7365 28.4857Z" fill="url(#paint29_linear_1927_16894)"/>
<path d="M45.0939 27.7025C45.2385 27.7797 45.2385 27.9232 45.0939 28.0005C44.9494 28.0778 44.7159 28.0778 44.5713 28.0005C44.4268 27.9232 44.4268 27.7797 44.5713 27.7025C44.7159 27.6252 44.9494 27.6252 45.0939 27.7025Z" fill="url(#paint30_linear_1927_16894)"/>
<path d="M46.4611 26.93C46.6057 27.0073 46.6057 27.1508 46.4611 27.228C46.3166 27.3053 46.0831 27.3053 45.9385 27.228C45.7939 27.1508 45.7939 27.0073 45.9385 26.93C46.0831 26.8528 46.3166 26.8528 46.4611 26.93Z" fill="url(#paint31_linear_1927_16894)"/>
<path d="M47.8283 26.1458C47.9729 26.2231 47.9729 26.3666 47.8283 26.4439C47.6838 26.5211 47.4502 26.5211 47.3057 26.4439C47.1611 26.3666 47.1611 26.2231 47.3057 26.1458C47.4502 26.0686 47.6838 26.0686 47.8283 26.1458Z" fill="url(#paint32_linear_1927_16894)"/>
<path d="M42.3693 27.7025C42.5139 27.7797 42.5139 27.9232 42.3693 28.0005C42.2248 28.0778 41.9913 28.0778 41.8467 28.0005C41.7021 27.9232 41.7021 27.7797 41.8467 27.7025C41.9913 27.6252 42.2248 27.6252 42.3693 27.7025Z" fill="url(#paint33_linear_1927_16894)"/>
<path d="M43.7365 26.93C43.8811 27.0073 43.8811 27.1508 43.7365 27.228C43.592 27.3053 43.3584 27.3053 43.2139 27.228C43.0693 27.1508 43.0693 27.0073 43.2139 26.93C43.3584 26.8528 43.592 26.8528 43.7365 26.93Z" fill="url(#paint34_linear_1927_16894)"/>
<path d="M45.0939 26.1458C45.2385 26.2231 45.2385 26.3666 45.0939 26.4439C44.9494 26.5211 44.7159 26.5211 44.5713 26.4439C44.4268 26.3666 44.4268 26.2231 44.5713 26.1458C44.7159 26.0686 44.9494 26.0686 45.0939 26.1458Z" fill="url(#paint35_linear_1927_16894)"/>
<path d="M46.4611 25.3626C46.6057 25.4399 46.6057 25.5834 46.4611 25.6607C46.3166 25.7379 46.0831 25.7379 45.9385 25.6607C45.7939 25.5834 45.7939 25.4399 45.9385 25.3626C46.0831 25.2854 46.3166 25.2854 46.4611 25.3626Z" fill="url(#paint36_linear_1927_16894)"/>
<path d="M41.0119 26.93C41.1565 27.0073 41.1565 27.1508 41.0119 27.228C40.8674 27.3053 40.6338 27.3053 40.4893 27.228C40.3447 27.1508 40.3447 27.0073 40.4893 26.93C40.6338 26.8528 40.8674 26.8528 41.0119 26.93Z" fill="url(#paint37_linear_1927_16894)"/>
<path d="M42.3693 26.1458C42.5139 26.2231 42.5139 26.3666 42.3693 26.4439C42.2248 26.5211 41.9913 26.5211 41.8467 26.4439C41.7021 26.3666 41.7021 26.2231 41.8467 26.1458C41.9913 26.0686 42.2248 26.0686 42.3693 26.1458Z" fill="url(#paint38_linear_1927_16894)"/>
<path d="M43.7365 25.3626C43.8811 25.4399 43.8811 25.5834 43.7365 25.6607C43.592 25.7379 43.3584 25.7379 43.2139 25.6607C43.0693 25.5834 43.0693 25.4399 43.2139 25.3626C43.3584 25.2854 43.592 25.2854 43.7365 25.3626Z" fill="url(#paint39_linear_1927_16894)"/>
<path d="M45.0939 24.5892C45.2385 24.6665 45.2385 24.81 45.0939 24.8872C44.9494 24.9645 44.7159 24.9645 44.5713 24.8872C44.4268 24.81 44.4268 24.6665 44.5713 24.5892C44.7159 24.5119 44.9494 24.5119 45.0939 24.5892Z" fill="url(#paint40_linear_1927_16894)"/>
<path d="M39.6447 26.1458C39.7893 26.2231 39.7893 26.3666 39.6447 26.4439C39.5002 26.5211 39.2666 26.5211 39.1221 26.4439C38.9775 26.3666 38.9775 26.2231 39.1221 26.1458C39.2666 26.0686 39.5002 26.0686 39.6447 26.1458Z" fill="url(#paint41_linear_1927_16894)"/>
<path d="M41.0119 25.3626C41.1565 25.4399 41.1565 25.5834 41.0119 25.6607C40.8674 25.7379 40.6338 25.7379 40.4893 25.6607C40.3447 25.5834 40.3447 25.4399 40.4893 25.3626C40.6338 25.2854 40.8674 25.2854 41.0119 25.3626Z" fill="url(#paint42_linear_1927_16894)"/>
<path d="M42.3693 24.5892C42.5139 24.6665 42.5139 24.81 42.3693 24.8872C42.2248 24.9645 41.9913 24.9645 41.8467 24.8872C41.7021 24.81 41.7021 24.6665 41.8467 24.5892C41.9913 24.5119 42.2248 24.5119 42.3693 24.5892Z" fill="url(#paint43_linear_1927_16894)"/>
<path d="M43.7365 23.806C43.8811 23.8833 43.8811 24.0268 43.7365 24.104C43.592 24.1813 43.3584 24.1813 43.2139 24.104C43.0693 24.0268 43.0693 23.8833 43.2139 23.806C43.3584 23.7287 43.592 23.7287 43.7365 23.806Z" fill="url(#paint44_linear_1927_16894)"/>
<path d="M21.0653 55.6167L21.6213 49.0049H14.082L14.638 55.6167C14.638 55.6167 14.638 55.6498 14.638 55.6718C14.638 55.7381 14.6603 55.7933 14.6603 55.8484V55.9809H14.6825C14.916 57.0185 16.2393 57.8243 17.8628 57.8243C19.4863 57.8243 20.8095 57.0185 21.0431 55.9809V55.8484C21.0653 55.7933 21.0764 55.727 21.0764 55.6718C21.0764 55.6498 21.0764 55.6387 21.0764 55.6167H21.0653Z" fill="#222222"/>
<path d="M21.8672 48.7734H14.0833C13.9387 48.7734 13.8275 48.8949 13.8387 49.0384L14.3946 55.5949V55.6722C14.3946 55.6722 14.3947 55.7715 14.4169 55.8709L14.4947 56.2131C14.8506 57.2948 16.2294 58.0564 17.8529 58.0564C19.4764 58.0564 20.8442 57.2948 21.2111 56.2131L21.289 55.8267C21.289 55.8267 21.3112 55.7274 21.3112 55.6722V55.606L21.8783 48.7734H21.8672ZM20.833 55.5949V55.6612C20.833 55.6612 20.833 55.7053 20.833 55.7274C20.833 55.7495 20.8219 55.7826 20.8219 55.8267V55.9371C20.7218 56.3345 20.4327 56.6877 20.0324 56.9747L20.4661 50.7713L19.1651 51.5329H17.864V57.6038C16.3851 57.6038 15.1174 56.8864 14.9062 55.9371V55.904L14.895 55.8267C14.895 55.7936 14.895 55.7715 14.8839 55.7384C14.8839 55.7163 14.8839 55.6943 14.8728 55.6943V55.6391L14.3502 49.237H21.4002L20.8664 55.606L20.833 55.5949Z" fill="url(#paint45_linear_1927_16894)"/>
<path d="M21.6213 49.0051C21.6213 50.3958 19.9311 51.5328 17.8517 51.5328C15.7722 51.5328 14.082 50.4069 14.082 49.0051C14.082 47.6032 15.7722 46.0469 17.8517 46.0469C19.9311 46.0469 21.6213 47.6143 21.6213 49.0051Z" fill="#222222"/>
<path d="M17.841 51.7529C15.6393 51.7529 13.8379 50.5166 13.8379 49.0044C13.8379 47.4922 15.5837 45.8145 17.841 45.8145C20.0984 45.8145 21.8442 47.5253 21.8442 49.0044C21.8442 50.4835 20.0539 51.7529 17.841 51.7529ZM17.841 46.267C15.8839 46.267 14.2938 47.7571 14.2938 48.9934C14.2938 50.2297 15.8839 51.2893 17.841 51.2893C19.7981 51.2893 21.3883 50.2628 21.3883 48.9934C21.3883 47.724 19.8093 46.267 17.841 46.267Z" fill="url(#paint46_linear_1927_16894)"/>
<path d="M21.0765 48.2103C21.0765 49.4024 19.6309 50.3738 17.8517 50.3738C16.0725 50.3738 14.627 49.4024 14.627 48.2103C14.627 47.0182 16.0725 46.0469 17.8517 46.0469C19.6309 46.0469 21.0765 47.0182 21.0765 48.2103Z" fill="#222222"/>
<path d="M17.8411 50.5946C15.9396 50.5946 14.3828 49.5239 14.3828 48.2104C14.3828 46.8969 15.9285 45.8262 17.8411 45.8262C19.7537 45.8262 21.2994 46.8969 21.2994 48.2104C21.2994 49.5239 19.7537 50.5946 17.8411 50.5946ZM17.8411 46.2787C16.1842 46.2787 14.8387 47.1507 14.8387 48.2104C14.8387 49.27 16.1842 50.142 17.8411 50.142C19.4979 50.142 20.8434 49.27 20.8434 48.2104C20.8434 47.1507 19.4979 46.2787 17.8411 46.2787Z" fill="url(#paint47_linear_1927_16894)"/>
<path d="M18.6308 46.0689C18.3528 45.9916 18.1749 46.2455 18.0303 46.4552C17.9747 46.5325 17.8746 46.687 17.8524 46.7091C17.8079 46.687 17.6967 46.5435 17.6411 46.4662C17.4966 46.2565 17.3187 46.0137 17.0407 46.0799C16.24 46.2896 15.7285 47.5259 15.7285 48.0005C15.7285 48.718 16.6515 49.2809 17.8413 49.2809C19.0311 49.2809 19.9541 48.718 19.9541 48.0005C19.9541 47.5369 19.3981 46.2896 18.6308 46.0799V46.0689Z" fill="url(#paint48_linear_1927_16894)"/>
<path d="M9.00184 39.0695C8.74609 38.8488 8.24569 38.8157 7.72306 38.9812C6.68891 39.3124 4.89862 40.0519 2.96376 41.6856C1.12899 43.2309 0.639712 44.4892 0.528514 45.1736C0.472914 45.5047 0.750911 45.7475 1.22906 45.7807L16.8636 46.8293C17.2528 46.8514 17.6642 46.4981 17.4529 46.3215L9.00184 39.0806V39.0695Z" fill="#222222"/>
<path d="M17.052 46.8956C16.9742 46.8956 16.8964 46.8956 16.8296 46.8735L1.67328 42.9109C1.33969 42.8226 1.09505 42.657 0.972731 42.4362C0.883772 42.2707 0.872652 42.083 0.950491 41.8954C1.23961 41.1337 2.018 39.9858 4.10853 38.8158C6.28802 37.5905 8.17839 37.1601 9.37934 37.0276C10.0132 36.9503 10.558 37.1159 10.8249 37.436L17.7526 46.134C17.8638 46.2664 17.8638 46.443 17.7748 46.5865C17.6414 46.7852 17.3523 46.9066 17.0632 46.9066L17.052 46.8956ZM9.67957 37.447C9.60174 37.447 9.5239 37.447 9.43494 37.4581C8.48975 37.5685 6.56602 37.9438 4.33093 39.191C2.25151 40.35 1.59544 41.4759 1.37305 42.0389C1.35081 42.1051 1.35081 42.1603 1.37305 42.2155C1.42864 42.3148 1.5732 42.4141 1.78448 42.4693L16.9408 46.432C17.0965 46.4761 17.2744 46.4099 17.3412 46.3547L10.458 37.7009C10.3468 37.5685 10.0688 37.447 9.66846 37.447H9.67957Z" fill="url(#paint49_linear_1927_16894)"/>
<path d="M26.6382 54.7336C26.8828 54.9544 27.3832 54.9985 27.9058 54.833C28.94 54.5129 30.7414 53.7733 32.6874 52.1507C34.5444 50.6054 35.0448 49.3581 35.1671 48.6738C35.2338 48.3426 34.9558 48.0998 34.4888 48.0667L18.9321 46.8966C18.5429 46.8635 18.1315 47.2278 18.3316 47.4044L26.627 54.7336H26.6382Z" fill="#222222"/>
<path d="M25.9601 56.8196C25.4486 56.8196 25.026 56.665 24.8148 56.378L18.0539 47.6249C17.9538 47.4924 17.9427 47.3158 18.0539 47.1723C18.2207 46.9295 18.6544 46.786 18.988 46.8854L34.0442 50.9473C34.3778 51.0356 34.6225 51.2122 34.7337 51.433C34.8226 51.6096 34.8226 51.7973 34.7559 51.9849C34.4557 52.7465 33.655 53.8945 31.5534 55.0535C29.3517 56.2677 27.4613 56.6871 26.2603 56.8196C26.1603 56.8306 26.0713 56.8306 25.9712 56.8306L25.9601 56.8196ZM25.1706 56.1021C25.2929 56.2566 25.6599 56.4112 26.1936 56.3449C27.3501 56.2125 29.1849 55.8151 31.3199 54.634C33.4104 53.475 34.0998 52.3602 34.3222 51.7973C34.3445 51.731 34.3445 51.6758 34.3222 51.6207C34.2666 51.5213 34.1221 51.422 33.9219 51.3778L18.8656 47.3158C18.71 47.2717 18.532 47.3379 18.4653 47.3931L25.1817 56.1021H25.1706Z" fill="url(#paint50_linear_1927_16894)"/>
<path d="M19.1548 46.8965C19.1548 47.3049 18.5654 47.625 17.8538 47.625C17.1421 47.625 16.5527 47.2938 16.5527 46.8965C16.5527 46.4991 17.1421 46.168 17.8538 46.168C18.5654 46.168 19.1548 46.4991 19.1548 46.8965Z" fill="#222222"/>
<path d="M17.8431 47.8571C16.9869 47.8571 16.3086 47.4377 16.3086 46.8968C16.3086 46.356 16.9869 45.9365 17.8431 45.9365C18.6994 45.9365 19.3777 46.356 19.3777 46.8968C19.3777 47.4377 18.6994 47.8571 17.8431 47.8571ZM17.8431 46.3891C17.2315 46.3891 16.7645 46.654 16.7645 46.8968C16.7645 47.1397 17.2204 47.4046 17.8431 47.4046C18.4658 47.4046 18.9218 47.1397 18.9218 46.8968C18.9218 46.654 18.4658 46.3891 17.8431 46.3891Z" fill="url(#paint51_linear_1927_16894)"/>
<path d="M72.0731 55.8491L72.6291 49.2373H65.0898L65.6458 55.8491C65.6458 55.8491 65.6458 55.8822 65.6458 55.9043C65.6458 55.9705 65.6681 56.0257 65.6681 56.0809V56.2133H65.6903C65.9238 57.2509 67.2471 58.0567 68.8706 58.0567C70.4941 58.0567 71.8174 57.2509 72.0509 56.2133V56.0809C72.0731 56.0257 72.0842 55.9594 72.0842 55.9043C72.0842 55.8822 72.0842 55.8711 72.0842 55.8491H72.0731Z" fill="#222222"/>
<path d="M72.875 49.0049H65.0911C64.9465 49.0049 64.8354 49.1263 64.8465 49.2698L65.4025 55.8264V55.9036C65.4025 55.9036 65.4025 56.014 65.4247 56.1023L65.5025 56.4445C65.8584 57.5262 67.2372 58.2879 68.8607 58.2879C70.4842 58.2879 71.852 57.5262 72.2189 56.4445L72.2968 56.0582C72.2968 56.0582 72.319 55.9588 72.319 55.9036V55.8374L72.8861 49.0049H72.875ZM71.8409 55.8264V55.8926C71.8409 55.8926 71.8409 55.9368 71.8409 55.9588C71.8409 55.9809 71.8297 56.014 71.8297 56.0582V56.1686C71.7297 56.5659 71.4405 56.9191 71.0402 57.2061L71.4739 51.0028L70.1729 51.7644H68.8719V57.8353C67.3929 57.8353 66.1253 57.1178 65.914 56.1686V56.1354L65.9029 56.0582C65.9029 56.0251 65.9029 56.003 65.8917 55.9699C65.8917 55.9478 65.8917 55.9257 65.8806 55.9257V55.8705L65.358 49.4685H72.408L71.8742 55.8374L71.8409 55.8264Z" fill="url(#paint52_linear_1927_16894)"/>
<path d="M72.6291 49.2365C72.6291 50.6273 70.9389 51.7642 68.8595 51.7642C66.7801 51.7642 65.0898 50.6383 65.0898 49.2365C65.0898 47.8347 66.7801 46.2783 68.8595 46.2783C70.9389 46.2783 72.6291 47.8457 72.6291 49.2365Z" fill="#222222"/>
<path d="M68.8606 51.9853C66.6477 51.9853 64.8574 50.7491 64.8574 49.2369C64.8574 47.7247 66.6032 46.0469 68.8606 46.0469C71.1179 46.0469 72.8637 47.7578 72.8637 49.2369C72.8637 50.716 71.0734 51.9853 68.8606 51.9853ZM68.8606 46.4994C66.8924 46.4994 65.3133 47.9896 65.3133 49.2258C65.3133 50.4621 66.9035 51.5217 68.8606 51.5217C70.8177 51.5217 72.4078 50.4952 72.4078 49.2258C72.4078 47.9564 70.8288 46.4994 68.8606 46.4994Z" fill="url(#paint53_linear_1927_16894)"/>
<path d="M72.0843 48.4301C72.0843 49.6222 70.6387 50.5935 68.8595 50.5935C67.0803 50.5935 65.6348 49.6222 65.6348 48.4301C65.6348 47.2379 67.0803 46.2666 68.8595 46.2666C70.6387 46.2666 72.0843 47.2379 72.0843 48.4301Z" fill="#222222"/>
<path d="M68.8606 50.826C66.9591 50.826 65.4023 49.7554 65.4023 48.4418C65.4023 47.1283 66.948 46.0576 68.8606 46.0576C70.7732 46.0576 72.3189 47.1283 72.3189 48.4418C72.3189 49.7554 70.7732 50.826 68.8606 50.826ZM68.8606 46.5102C67.2038 46.5102 65.8583 47.3822 65.8583 48.4418C65.8583 49.5015 67.2038 50.3735 68.8606 50.3735C70.5175 50.3735 71.863 49.5015 71.863 48.4418C71.863 47.3822 70.5175 46.5102 68.8606 46.5102Z" fill="url(#paint54_linear_1927_16894)"/>
<path d="M69.6386 46.3003C69.3606 46.2231 69.1827 46.4769 69.0381 46.6866C68.9825 46.7639 68.8825 46.9184 68.8602 46.9405C68.8157 46.9184 68.7045 46.775 68.6489 46.6977C68.5044 46.488 68.3265 46.2451 68.0485 46.3114C67.2478 46.5211 66.7363 47.7573 66.7363 48.232C66.7363 48.9494 67.6593 49.5124 68.8491 49.5124C70.0389 49.5124 70.9619 48.9494 70.9619 48.232C70.9619 47.7684 70.4059 46.5211 69.6386 46.3114V46.3003Z" fill="url(#paint55_linear_1927_16894)"/>
<path d="M51.9261 47.9783C51.4591 48.0004 51.17 48.2322 51.2256 48.5634C51.3256 49.2146 51.7816 50.4177 53.6497 52.0845C55.4178 53.6629 57.297 54.4577 58.3645 54.8109C58.8983 54.9875 59.4098 54.9544 59.6655 54.7446L68.1722 47.592C68.3835 47.4154 67.9721 47.0511 67.5829 47.0732L51.915 47.9783H51.9261Z" fill="#222222"/>
<path d="M60.3991 56.9412C60.299 56.9412 60.1878 56.9412 60.0766 56.9192C59.0202 56.7867 56.9408 56.3893 54.8169 55.142C52.6485 53.8727 51.8924 52.7578 51.6366 52.0514C51.5699 51.8748 51.581 51.6871 51.67 51.5216C51.7812 51.3008 52.037 51.1352 52.3705 51.0469L67.5492 47.0732C67.8827 46.9849 68.3164 47.1174 68.4832 47.3713C68.5833 47.5148 68.5722 47.6914 68.4721 47.8238L61.5556 56.5107C61.3332 56.7867 60.9106 56.9412 60.4102 56.9412H60.3991ZM67.7715 47.5037C67.7715 47.5037 67.6937 47.5037 67.6603 47.5148L52.4818 51.4774C52.2816 51.5326 52.1259 51.6209 52.0703 51.7202C52.0481 51.7754 52.037 51.8196 52.0703 51.8858C52.2594 52.4156 52.8932 53.4753 55.0504 54.7336C57.1076 55.9368 59.1203 56.3341 60.1322 56.4556C60.666 56.5218 61.0552 56.3783 61.1886 56.2127L68.0607 47.57C68.0607 47.57 67.8939 47.4817 67.7715 47.4817V47.5037Z" fill="url(#paint56_linear_1927_16894)"/>
<path d="M85.5185 46.3226C85.9856 46.3006 86.2747 46.0798 86.2302 45.7487C86.1412 45.1085 85.6964 43.8943 83.8506 42.2275C82.0936 40.6381 80.2366 39.8433 79.158 39.4791C78.6242 39.3025 78.1127 39.3245 77.8458 39.5453L69.1835 46.6096C68.9722 46.7862 69.3725 47.1505 69.7617 47.1284L85.5074 46.3337L85.5185 46.3226Z" fill="#222222"/>
<path d="M69.585 47.1614C69.2958 47.1614 69.0067 47.0289 68.8733 46.8302C68.7732 46.6867 68.7843 46.5101 68.8955 46.3777L75.9789 37.746C76.2458 37.4148 76.8129 37.2713 77.4578 37.3486C78.5142 37.481 80.5825 37.9005 82.6953 39.1588C84.8414 40.4392 85.5864 41.5541 85.8311 42.2605C85.8978 42.4371 85.8755 42.6248 85.7866 42.7903C85.6643 43.0111 85.4196 43.1767 85.086 43.265L69.8074 47.1393C69.7406 47.1614 69.6628 47.1614 69.585 47.1614ZM69.2958 46.6205C69.3737 46.6757 69.5405 46.7309 69.6962 46.6978L84.9748 42.8234C85.1861 42.7683 85.3307 42.6799 85.3863 42.5806C85.4085 42.5254 85.4196 42.4813 85.3863 42.415C85.2084 41.8962 84.5856 40.8256 82.4506 39.5562C80.4157 38.342 78.403 37.9446 77.3911 37.8122C76.8462 37.746 76.457 37.8895 76.3236 38.044L69.2847 46.6205H69.2958Z" fill="url(#paint57_linear_1927_16894)"/>
<path d="M70.1587 47.1289C70.1587 47.5373 69.5693 47.8574 68.8577 47.8574C68.146 47.8574 67.5566 47.5263 67.5566 47.1289C67.5566 46.7315 68.146 46.4004 68.8577 46.4004C69.5693 46.4004 70.1587 46.7315 70.1587 47.1289Z" fill="#222222"/>
<path d="M68.8588 48.0886C68.0025 48.0886 67.3242 47.6691 67.3242 47.1283C67.3242 46.5874 68.0025 46.168 68.8588 46.168C69.715 46.168 70.3933 46.5874 70.3933 47.1283C70.3933 47.6691 69.715 48.0886 68.8588 48.0886ZM68.8588 46.6205C68.2472 46.6205 67.7801 46.8854 67.7801 47.1283C67.7801 47.3711 68.236 47.636 68.8588 47.636C69.4815 47.636 69.9374 47.3711 69.9374 47.1283C69.9374 46.8854 69.4815 46.6205 68.8588 46.6205Z" fill="url(#paint58_linear_1927_16894)"/>
<defs>
<linearGradient id="paint0_linear_1927_16894" x1="30.4868" y1="92.4857" x2="64.5034" y2="81.1962" gradientUnits="userSpaceOnUse">
<stop stop-color="#FFB6D5"/>
<stop offset="0.1" stop-color="#FFE3C0"/>
<stop offset="0.29" stop-color="#C7FBDB"/>
<stop offset="0.43" stop-color="#C7CDF4"/>
<stop offset="0.54" stop-color="#FFBCD4"/>
<stop offset="0.66" stop-color="#FFE0C3"/>
<stop offset="0.76" stop-color="#B0F1D4"/>
<stop offset="0.84" stop-color="#C9CEEC"/>
<stop offset="0.91" stop-color="#FFC1DA"/>
<stop offset="1" stop-color="#BDFFE3"/>
</linearGradient>
<linearGradient id="paint1_linear_1927_16894" x1="47.5189" y1="76.7702" x2="55.2737" y2="73.4102" gradientUnits="userSpaceOnUse">
<stop stop-color="#FFB6D5"/>
<stop offset="0.1" stop-color="#FFE3C0"/>
<stop offset="0.29" stop-color="#C7FBDB"/>
<stop offset="0.43" stop-color="#C7CDF4"/>
<stop offset="0.54" stop-color="#FFBCD4"/>
<stop offset="0.66" stop-color="#FFE0C3"/>
<stop offset="0.76" stop-color="#B0F1D4"/>
<stop offset="0.84" stop-color="#C9CEEC"/>
<stop offset="0.91" stop-color="#FFC1DA"/>
<stop offset="1" stop-color="#BDFFE3"/>
</linearGradient>
<linearGradient id="paint2_linear_1927_16894" x1="34.8306" y1="75.316" x2="54.906" y2="65.9974" gradientUnits="userSpaceOnUse">
<stop stop-color="#FFB6D5"/>
<stop offset="0.1" stop-color="#FFE3C0"/>
<stop offset="0.29" stop-color="#C7FBDB"/>
<stop offset="0.43" stop-color="#C7CDF4"/>
<stop offset="0.54" stop-color="#FFBCD4"/>
<stop offset="0.66" stop-color="#FFE0C3"/>
<stop offset="0.76" stop-color="#B0F1D4"/>
<stop offset="0.84" stop-color="#C9CEEC"/>
<stop offset="0.91" stop-color="#FFC1DA"/>
<stop offset="1" stop-color="#BDFFE3"/>
</linearGradient>
<linearGradient id="paint3_linear_1927_16894" x1="37.5395" y1="69.5143" x2="51.052" y2="62.59" gradientUnits="userSpaceOnUse">
<stop stop-color="#FFB6D5"/>
<stop offset="0.1" stop-color="#FFE3C0"/>
<stop offset="0.29" stop-color="#C7FBDB"/>
<stop offset="0.43" stop-color="#C7CDF4"/>
<stop offset="0.54" stop-color="#FFBCD4"/>
<stop offset="0.66" stop-color="#FFE0C3"/>
<stop offset="0.76" stop-color="#B0F1D4"/>
<stop offset="0.84" stop-color="#C9CEEC"/>
<stop offset="0.91" stop-color="#FFC1DA"/>
<stop offset="1" stop-color="#BDFFE3"/>
</linearGradient>
<linearGradient id="paint4_linear_1927_16894" x1="38.3516" y1="67.3017" x2="49.5935" y2="61.0845" gradientUnits="userSpaceOnUse">
<stop stop-color="#FFB6D5"/>
<stop offset="0.1" stop-color="#FFE3C0"/>
<stop offset="0.29" stop-color="#C7FBDB"/>
<stop offset="0.43" stop-color="#C7CDF4"/>
<stop offset="0.54" stop-color="#FFBCD4"/>
<stop offset="0.66" stop-color="#FFE0C3"/>
<stop offset="0.76" stop-color="#B0F1D4"/>
<stop offset="0.84" stop-color="#C9CEEC"/>
<stop offset="0.91" stop-color="#FFC1DA"/>
<stop offset="1" stop-color="#BDFFE3"/>
</linearGradient>
<linearGradient id="paint5_linear_1927_16894" x1="42.5849" y1="65.2661" x2="44.822" y2="65.2028" gradientUnits="userSpaceOnUse">
<stop stop-color="#FFB6D5"/>
<stop offset="0.1" stop-color="#FFE3C0"/>
<stop offset="0.29" stop-color="#C7FBDB"/>
<stop offset="0.43" stop-color="#C7CDF4"/>
<stop offset="0.54" stop-color="#FFBCD4"/>
<stop offset="0.66" stop-color="#FFE0C3"/>
<stop offset="0.76" stop-color="#B0F1D4"/>
<stop offset="0.84" stop-color="#C9CEEC"/>
<stop offset="0.91" stop-color="#FFC1DA"/>
<stop offset="1" stop-color="#BDFFE3"/>
</linearGradient>
<linearGradient id="paint6_linear_1927_16894" x1="14.1586" y1="22.1648" x2="23.416" y2="19.1397" gradientUnits="userSpaceOnUse">
<stop stop-color="#FFB6D5"/>
<stop offset="0.1" stop-color="#FFE3C0"/>
<stop offset="0.29" stop-color="#C7FBDB"/>
<stop offset="0.43" stop-color="#C7CDF4"/>
<stop offset="0.54" stop-color="#FFBCD4"/>
<stop offset="0.66" stop-color="#FFE0C3"/>
<stop offset="0.76" stop-color="#B0F1D4"/>
<stop offset="0.84" stop-color="#C9CEEC"/>
<stop offset="0.91" stop-color="#FFC1DA"/>
<stop offset="1" stop-color="#BDFFE3"/>
</linearGradient>
<linearGradient id="paint7_linear_1927_16894" x1="14.1563" y1="15.5027" x2="22.2617" y2="11.3799" gradientUnits="userSpaceOnUse">
<stop stop-color="#FFB6D5"/>
<stop offset="0.1" stop-color="#FFE3C0"/>
<stop offset="0.29" stop-color="#C7FBDB"/>
<stop offset="0.43" stop-color="#C7CDF4"/>
<stop offset="0.54" stop-color="#FFBCD4"/>
<stop offset="0.66" stop-color="#FFE0C3"/>
<stop offset="0.76" stop-color="#B0F1D4"/>
<stop offset="0.84" stop-color="#C9CEEC"/>
<stop offset="0.91" stop-color="#FFC1DA"/>
<stop offset="1" stop-color="#BDFFE3"/>
</linearGradient>
<linearGradient id="paint8_linear_1927_16894" x1="14.6292" y1="14.2069" x2="21.4118" y2="10.4952" gradientUnits="userSpaceOnUse">
<stop stop-color="#FFB6D5"/>
<stop offset="0.1" stop-color="#FFE3C0"/>
<stop offset="0.29" stop-color="#C7FBDB"/>
<stop offset="0.43" stop-color="#C7CDF4"/>
<stop offset="0.54" stop-color="#FFBCD4"/>
<stop offset="0.66" stop-color="#FFE0C3"/>
<stop offset="0.76" stop-color="#B0F1D4"/>
<stop offset="0.84" stop-color="#C9CEEC"/>
<stop offset="0.91" stop-color="#FFC1DA"/>
<stop offset="1" stop-color="#BDFFE3"/>
</linearGradient>
<linearGradient id="paint9_linear_1927_16894" x1="15.797" y1="12.7391" x2="20.1249" y2="10.6006" gradientUnits="userSpaceOnUse">
<stop stop-color="#FFB6D5"/>
<stop offset="0.1" stop-color="#FFE3C0"/>
<stop offset="0.29" stop-color="#C7FBDB"/>
<stop offset="0.43" stop-color="#C7CDF4"/>
<stop offset="0.54" stop-color="#FFBCD4"/>
<stop offset="0.66" stop-color="#FFE0C3"/>
<stop offset="0.76" stop-color="#B0F1D4"/>
<stop offset="0.84" stop-color="#C9CEEC"/>
<stop offset="0.91" stop-color="#FFC1DA"/>
<stop offset="1" stop-color="#BDFFE3"/>
</linearGradient>
<linearGradient id="paint10_linear_1927_16894" x1="1.49636" y1="20.885" x2="16.736" y2="11.031" gradientUnits="userSpaceOnUse">
<stop stop-color="#FFB6D5"/>
<stop offset="0.1" stop-color="#FFE3C0"/>
<stop offset="0.29" stop-color="#C7FBDB"/>
<stop offset="0.43" stop-color="#C7CDF4"/>
<stop offset="0.54" stop-color="#FFBCD4"/>
<stop offset="0.66" stop-color="#FFE0C3"/>
<stop offset="0.76" stop-color="#B0F1D4"/>
<stop offset="0.84" stop-color="#C9CEEC"/>
<stop offset="0.91" stop-color="#FFC1DA"/>
<stop offset="1" stop-color="#BDFFE3"/>
</linearGradient>
<linearGradient id="paint11_linear_1927_16894" x1="18.7143" y1="11.0867" x2="33.9354" y2="1.12076" gradientUnits="userSpaceOnUse">
<stop stop-color="#FFB6D5"/>
<stop offset="0.1" stop-color="#FFE3C0"/>
<stop offset="0.29" stop-color="#C7FBDB"/>
<stop offset="0.43" stop-color="#C7CDF4"/>
<stop offset="0.54" stop-color="#FFBCD4"/>
<stop offset="0.66" stop-color="#FFE0C3"/>
<stop offset="0.76" stop-color="#B0F1D4"/>
<stop offset="0.84" stop-color="#C9CEEC"/>
<stop offset="0.91" stop-color="#FFC1DA"/>
<stop offset="1" stop-color="#BDFFE3"/>
</linearGradient>
<linearGradient id="paint12_linear_1927_16894" x1="16.3006" y1="11.175" x2="19.169" y2="9.44566" gradientUnits="userSpaceOnUse">
<stop stop-color="#FFB6D5"/>
<stop offset="0.1" stop-color="#FFE3C0"/>
<stop offset="0.29" stop-color="#C7FBDB"/>
<stop offset="0.43" stop-color="#C7CDF4"/>
<stop offset="0.54" stop-color="#FFBCD4"/>
<stop offset="0.66" stop-color="#FFE0C3"/>
<stop offset="0.76" stop-color="#B0F1D4"/>
<stop offset="0.84" stop-color="#C9CEEC"/>
<stop offset="0.91" stop-color="#FFC1DA"/>
<stop offset="1" stop-color="#BDFFE3"/>
</linearGradient>
<linearGradient id="paint13_linear_1927_16894" x1="64.8949" y1="22.0447" x2="74.1524" y2="19.0195" gradientUnits="userSpaceOnUse">
<stop stop-color="#FFB6D5"/>
<stop offset="0.1" stop-color="#FFE3C0"/>
<stop offset="0.29" stop-color="#C7FBDB"/>
<stop offset="0.43" stop-color="#C7CDF4"/>
<stop offset="0.54" stop-color="#FFBCD4"/>
<stop offset="0.66" stop-color="#FFE0C3"/>
<stop offset="0.76" stop-color="#B0F1D4"/>
<stop offset="0.84" stop-color="#C9CEEC"/>
<stop offset="0.91" stop-color="#FFC1DA"/>
<stop offset="1" stop-color="#BDFFE3"/>
</linearGradient>
<linearGradient id="paint14_linear_1927_16894" x1="64.9044" y1="15.3933" x2="73.0098" y2="11.2705" gradientUnits="userSpaceOnUse">
<stop stop-color="#FFB6D5"/>
<stop offset="0.1" stop-color="#FFE3C0"/>
<stop offset="0.29" stop-color="#C7FBDB"/>
<stop offset="0.43" stop-color="#C7CDF4"/>
<stop offset="0.54" stop-color="#FFBCD4"/>
<stop offset="0.66" stop-color="#FFE0C3"/>
<stop offset="0.76" stop-color="#B0F1D4"/>
<stop offset="0.84" stop-color="#C9CEEC"/>
<stop offset="0.91" stop-color="#FFC1DA"/>
<stop offset="1" stop-color="#BDFFE3"/>
</linearGradient>
<linearGradient id="paint15_linear_1927_16894" x1="65.3773" y1="14.0975" x2="72.1599" y2="10.3858" gradientUnits="userSpaceOnUse">
<stop stop-color="#FFB6D5"/>
<stop offset="0.1" stop-color="#FFE3C0"/>
<stop offset="0.29" stop-color="#C7FBDB"/>
<stop offset="0.43" stop-color="#C7CDF4"/>
<stop offset="0.54" stop-color="#FFBCD4"/>
<stop offset="0.66" stop-color="#FFE0C3"/>
<stop offset="0.76" stop-color="#B0F1D4"/>
<stop offset="0.84" stop-color="#C9CEEC"/>
<stop offset="0.91" stop-color="#FFC1DA"/>
<stop offset="1" stop-color="#BDFFE3"/>
</linearGradient>
<linearGradient id="paint16_linear_1927_16894" x1="66.5333" y1="12.618" x2="70.8612" y2="10.4795" gradientUnits="userSpaceOnUse">
<stop stop-color="#FFB6D5"/>
<stop offset="0.1" stop-color="#FFE3C0"/>
<stop offset="0.29" stop-color="#C7FBDB"/>
<stop offset="0.43" stop-color="#C7CDF4"/>
<stop offset="0.54" stop-color="#FFBCD4"/>
<stop offset="0.66" stop-color="#FFE0C3"/>
<stop offset="0.76" stop-color="#B0F1D4"/>
<stop offset="0.84" stop-color="#C9CEEC"/>
<stop offset="0.91" stop-color="#FFC1DA"/>
<stop offset="1" stop-color="#BDFFE3"/>
</linearGradient>
<linearGradient id="paint17_linear_1927_16894" x1="52.544" y1="10.962" x2="67.779" y2="1.12429" gradientUnits="userSpaceOnUse">
<stop stop-color="#FFB6D5"/>
<stop offset="0.1" stop-color="#FFE3C0"/>
<stop offset="0.29" stop-color="#C7FBDB"/>
<stop offset="0.43" stop-color="#C7CDF4"/>
<stop offset="0.54" stop-color="#FFBCD4"/>
<stop offset="0.66" stop-color="#FFE0C3"/>
<stop offset="0.76" stop-color="#B0F1D4"/>
<stop offset="0.84" stop-color="#C9CEEC"/>
<stop offset="0.91" stop-color="#FFC1DA"/>
<stop offset="1" stop-color="#BDFFE3"/>
</linearGradient>
<linearGradient id="paint18_linear_1927_16894" x1="69.6127" y1="20.8935" x2="84.8765" y2="11.18" gradientUnits="userSpaceOnUse">
<stop stop-color="#FFB6D5"/>
<stop offset="0.1" stop-color="#FFE3C0"/>
<stop offset="0.29" stop-color="#C7FBDB"/>
<stop offset="0.43" stop-color="#C7CDF4"/>
<stop offset="0.54" stop-color="#FFBCD4"/>
<stop offset="0.66" stop-color="#FFE0C3"/>
<stop offset="0.76" stop-color="#B0F1D4"/>
<stop offset="0.84" stop-color="#C9CEEC"/>
<stop offset="0.91" stop-color="#FFC1DA"/>
<stop offset="1" stop-color="#BDFFE3"/>
</linearGradient>
<linearGradient id="paint19_linear_1927_16894" x1="67.0486" y1="11.0646" x2="69.917" y2="9.33531" gradientUnits="userSpaceOnUse">
<stop stop-color="#FFB6D5"/>
<stop offset="0.1" stop-color="#FFE3C0"/>
<stop offset="0.29" stop-color="#C7FBDB"/>
<stop offset="0.43" stop-color="#C7CDF4"/>
<stop offset="0.54" stop-color="#FFBCD4"/>
<stop offset="0.66" stop-color="#FFE0C3"/>
<stop offset="0.76" stop-color="#B0F1D4"/>
<stop offset="0.84" stop-color="#C9CEEC"/>
<stop offset="0.91" stop-color="#FFC1DA"/>
<stop offset="1" stop-color="#BDFFE3"/>
</linearGradient>
<linearGradient id="paint20_linear_1927_16894" x1="19.7477" y1="30.787" x2="38.4254" y2="21.3152" gradientUnits="userSpaceOnUse">
<stop stop-color="#FFB6D5"/>
<stop offset="0.1" stop-color="#FFE3C0"/>
<stop offset="0.29" stop-color="#C7FBDB"/>
<stop offset="0.43" stop-color="#C7CDF4"/>
<stop offset="0.54" stop-color="#FFBCD4"/>
<stop offset="0.66" stop-color="#FFE0C3"/>
<stop offset="0.76" stop-color="#B0F1D4"/>
<stop offset="0.84" stop-color="#C9CEEC"/>
<stop offset="0.91" stop-color="#FFC1DA"/>
<stop offset="1" stop-color="#BDFFE3"/>
</linearGradient>
<linearGradient id="paint21_linear_1927_16894" x1="50.6688" y1="30.3307" x2="69.0824" y2="20.6852" gradientUnits="userSpaceOnUse">
<stop stop-color="#FFB6D5"/>
<stop offset="0.1" stop-color="#FFE3C0"/>
<stop offset="0.29" stop-color="#C7FBDB"/>
<stop offset="0.43" stop-color="#C7CDF4"/>
<stop offset="0.54" stop-color="#FFBCD4"/>
<stop offset="0.66" stop-color="#FFE0C3"/>
<stop offset="0.76" stop-color="#B0F1D4"/>
<stop offset="0.84" stop-color="#C9CEEC"/>
<stop offset="0.91" stop-color="#FFC1DA"/>
<stop offset="1" stop-color="#BDFFE3"/>
</linearGradient>
<linearGradient id="paint22_linear_1927_16894" x1="34.0995" y1="43.6249" x2="54.8926" y2="31.6386" gradientUnits="userSpaceOnUse">
<stop stop-color="#FFB6D5"/>
<stop offset="0.1" stop-color="#FFE3C0"/>
<stop offset="0.29" stop-color="#C7FBDB"/>
<stop offset="0.43" stop-color="#C7CDF4"/>
<stop offset="0.54" stop-color="#FFBCD4"/>
<stop offset="0.66" stop-color="#FFE0C3"/>
<stop offset="0.76" stop-color="#B0F1D4"/>
<stop offset="0.84" stop-color="#C9CEEC"/>
<stop offset="0.91" stop-color="#FFC1DA"/>
<stop offset="1" stop-color="#BDFFE3"/>
</linearGradient>
<linearGradient id="paint23_linear_1927_16894" x1="34.0915" y1="40.2917" x2="55.2703" y2="28.4736" gradientUnits="userSpaceOnUse">
<stop stop-color="#FFB6D5"/>
<stop offset="0.1" stop-color="#FFE3C0"/>
<stop offset="0.29" stop-color="#C7FBDB"/>
<stop offset="0.43" stop-color="#C7CDF4"/>
<stop offset="0.54" stop-color="#FFBCD4"/>
<stop offset="0.66" stop-color="#FFE0C3"/>
<stop offset="0.76" stop-color="#B0F1D4"/>
<stop offset="0.84" stop-color="#C9CEEC"/>
<stop offset="0.91" stop-color="#FFC1DA"/>
<stop offset="1" stop-color="#BDFFE3"/>
</linearGradient>
<linearGradient id="paint24_linear_1927_16894" x1="34.6439" y1="36.9987" x2="54.4409" y2="25.9533" gradientUnits="userSpaceOnUse">
<stop stop-color="#FFB6D5"/>
<stop offset="0.1" stop-color="#FFE3C0"/>
<stop offset="0.29" stop-color="#C7FBDB"/>
<stop offset="0.43" stop-color="#C7CDF4"/>
<stop offset="0.54" stop-color="#FFBCD4"/>
<stop offset="0.66" stop-color="#FFE0C3"/>
<stop offset="0.76" stop-color="#B0F1D4"/>
<stop offset="0.84" stop-color="#C9CEEC"/>
<stop offset="0.91" stop-color="#FFC1DA"/>
<stop offset="1" stop-color="#BDFFE3"/>
</linearGradient>
<linearGradient id="paint25_linear_1927_16894" x1="36.1172" y1="34.3497" x2="53.3546" y2="25.4876" gradientUnits="userSpaceOnUse">
<stop stop-color="#FFB6D5"/>
<stop offset="0.1" stop-color="#FFE3C0"/>
<stop offset="0.29" stop-color="#C7FBDB"/>
<stop offset="0.43" stop-color="#C7CDF4"/>
<stop offset="0.54" stop-color="#FFBCD4"/>
<stop offset="0.66" stop-color="#FFE0C3"/>
<stop offset="0.76" stop-color="#B0F1D4"/>
<stop offset="0.84" stop-color="#C9CEEC"/>
<stop offset="0.91" stop-color="#FFC1DA"/>
<stop offset="1" stop-color="#BDFFE3"/>
</linearGradient>
<linearGradient id="paint26_linear_1927_16894" x1="37.1576" y1="31.5014" x2="51.4691" y2="23.5467" gradientUnits="userSpaceOnUse">
<stop stop-color="#FFB6D5"/>
<stop offset="0.1" stop-color="#FFE3C0"/>
<stop offset="0.29" stop-color="#C7FBDB"/>
<stop offset="0.43" stop-color="#C7CDF4"/>
<stop offset="0.54" stop-color="#FFBCD4"/>
<stop offset="0.66" stop-color="#FFE0C3"/>
<stop offset="0.76" stop-color="#B0F1D4"/>
<stop offset="0.84" stop-color="#C9CEEC"/>
<stop offset="0.91" stop-color="#FFC1DA"/>
<stop offset="1" stop-color="#BDFFE3"/>
</linearGradient>
<linearGradient id="paint27_linear_1927_16894" x1="51.6794" y1="53.9418" x2="71.986" y2="46.5031" gradientUnits="userSpaceOnUse">
<stop stop-color="#FFB6D5"/>
<stop offset="0.1" stop-color="#FFE3C0"/>
<stop offset="0.29" stop-color="#C7FBDB"/>
<stop offset="0.43" stop-color="#C7CDF4"/>
<stop offset="0.54" stop-color="#FFBCD4"/>
<stop offset="0.66" stop-color="#FFE0C3"/>
<stop offset="0.76" stop-color="#B0F1D4"/>
<stop offset="0.84" stop-color="#C9CEEC"/>
<stop offset="0.91" stop-color="#FFC1DA"/>
<stop offset="1" stop-color="#BDFFE3"/>
</linearGradient>
<linearGradient id="paint28_linear_1927_16894" x1="19.0637" y1="53.9546" x2="39.6698" y2="46.2674" gradientUnits="userSpaceOnUse">
<stop stop-color="#FFB6D5"/>
<stop offset="0.1" stop-color="#FFE3C0"/>
<stop offset="0.29" stop-color="#C7FBDB"/>
<stop offset="0.43" stop-color="#C7CDF4"/>
<stop offset="0.54" stop-color="#FFBCD4"/>
<stop offset="0.66" stop-color="#FFE0C3"/>
<stop offset="0.76" stop-color="#B0F1D4"/>
<stop offset="0.84" stop-color="#C9CEEC"/>
<stop offset="0.91" stop-color="#FFC1DA"/>
<stop offset="1" stop-color="#BDFFE3"/>
</linearGradient>
<linearGradient id="paint29_linear_1927_16894" x1="43.1544" y1="28.8862" x2="43.8023" y2="28.4494" gradientUnits="userSpaceOnUse">
<stop stop-color="#FFB6D5"/>
<stop offset="0.1" stop-color="#FFE3C0"/>
<stop offset="0.29" stop-color="#C7FBDB"/>
<stop offset="0.43" stop-color="#C7CDF4"/>
<stop offset="0.54" stop-color="#FFBCD4"/>
<stop offset="0.66" stop-color="#FFE0C3"/>
<stop offset="0.76" stop-color="#B0F1D4"/>
<stop offset="0.84" stop-color="#C9CEEC"/>
<stop offset="0.91" stop-color="#FFC1DA"/>
<stop offset="1" stop-color="#BDFFE3"/>
</linearGradient>
<linearGradient id="paint30_linear_1927_16894" x1="44.5118" y1="28.103" x2="45.1597" y2="27.6662" gradientUnits="userSpaceOnUse">
<stop stop-color="#FFB6D5"/>
<stop offset="0.1" stop-color="#FFE3C0"/>
<stop offset="0.29" stop-color="#C7FBDB"/>
<stop offset="0.43" stop-color="#C7CDF4"/>
<stop offset="0.54" stop-color="#FFBCD4"/>
<stop offset="0.66" stop-color="#FFE0C3"/>
<stop offset="0.76" stop-color="#B0F1D4"/>
<stop offset="0.84" stop-color="#C9CEEC"/>
<stop offset="0.91" stop-color="#FFC1DA"/>
<stop offset="1" stop-color="#BDFFE3"/>
</linearGradient>
<linearGradient id="paint31_linear_1927_16894" x1="45.879" y1="27.3305" x2="46.5269" y2="26.8938" gradientUnits="userSpaceOnUse">
<stop stop-color="#FFB6D5"/>
<stop offset="0.1" stop-color="#FFE3C0"/>
<stop offset="0.29" stop-color="#C7FBDB"/>
<stop offset="0.43" stop-color="#C7CDF4"/>
<stop offset="0.54" stop-color="#FFBCD4"/>
<stop offset="0.66" stop-color="#FFE0C3"/>
<stop offset="0.76" stop-color="#B0F1D4"/>
<stop offset="0.84" stop-color="#C9CEEC"/>
<stop offset="0.91" stop-color="#FFC1DA"/>
<stop offset="1" stop-color="#BDFFE3"/>
</linearGradient>
<linearGradient id="paint32_linear_1927_16894" x1="47.2462" y1="26.5463" x2="47.8941" y2="26.1096" gradientUnits="userSpaceOnUse">
<stop stop-color="#FFB6D5"/>
<stop offset="0.1" stop-color="#FFE3C0"/>
<stop offset="0.29" stop-color="#C7FBDB"/>
<stop offset="0.43" stop-color="#C7CDF4"/>
<stop offset="0.54" stop-color="#FFBCD4"/>
<stop offset="0.66" stop-color="#FFE0C3"/>
<stop offset="0.76" stop-color="#B0F1D4"/>
<stop offset="0.84" stop-color="#C9CEEC"/>
<stop offset="0.91" stop-color="#FFC1DA"/>
<stop offset="1" stop-color="#BDFFE3"/>
</linearGradient>
<linearGradient id="paint33_linear_1927_16894" x1="41.7872" y1="28.103" x2="42.4351" y2="27.6662" gradientUnits="userSpaceOnUse">
<stop stop-color="#FFB6D5"/>
<stop offset="0.1" stop-color="#FFE3C0"/>
<stop offset="0.29" stop-color="#C7FBDB"/>
<stop offset="0.43" stop-color="#C7CDF4"/>
<stop offset="0.54" stop-color="#FFBCD4"/>
<stop offset="0.66" stop-color="#FFE0C3"/>
<stop offset="0.76" stop-color="#B0F1D4"/>
<stop offset="0.84" stop-color="#C9CEEC"/>
<stop offset="0.91" stop-color="#FFC1DA"/>
<stop offset="1" stop-color="#BDFFE3"/>
</linearGradient>
<linearGradient id="paint34_linear_1927_16894" x1="43.1544" y1="27.3305" x2="43.8023" y2="26.8938" gradientUnits="userSpaceOnUse">
<stop stop-color="#FFB6D5"/>
<stop offset="0.1" stop-color="#FFE3C0"/>
<stop offset="0.29" stop-color="#C7FBDB"/>
<stop offset="0.43" stop-color="#C7CDF4"/>
<stop offset="0.54" stop-color="#FFBCD4"/>
<stop offset="0.66" stop-color="#FFE0C3"/>
<stop offset="0.76" stop-color="#B0F1D4"/>
<stop offset="0.84" stop-color="#C9CEEC"/>
<stop offset="0.91" stop-color="#FFC1DA"/>
<stop offset="1" stop-color="#BDFFE3"/>
</linearGradient>
<linearGradient id="paint35_linear_1927_16894" x1="44.5118" y1="26.5463" x2="45.1597" y2="26.1096" gradientUnits="userSpaceOnUse">
<stop stop-color="#FFB6D5"/>
<stop offset="0.1" stop-color="#FFE3C0"/>
<stop offset="0.29" stop-color="#C7FBDB"/>
<stop offset="0.43" stop-color="#C7CDF4"/>
<stop offset="0.54" stop-color="#FFBCD4"/>
<stop offset="0.66" stop-color="#FFE0C3"/>
<stop offset="0.76" stop-color="#B0F1D4"/>
<stop offset="0.84" stop-color="#C9CEEC"/>
<stop offset="0.91" stop-color="#FFC1DA"/>
<stop offset="1" stop-color="#BDFFE3"/>
</linearGradient>
<linearGradient id="paint36_linear_1927_16894" x1="45.879" y1="25.7631" x2="46.5269" y2="25.3264" gradientUnits="userSpaceOnUse">
<stop stop-color="#FFB6D5"/>
<stop offset="0.1" stop-color="#FFE3C0"/>
<stop offset="0.29" stop-color="#C7FBDB"/>
<stop offset="0.43" stop-color="#C7CDF4"/>
<stop offset="0.54" stop-color="#FFBCD4"/>
<stop offset="0.66" stop-color="#FFE0C3"/>
<stop offset="0.76" stop-color="#B0F1D4"/>
<stop offset="0.84" stop-color="#C9CEEC"/>
<stop offset="0.91" stop-color="#FFC1DA"/>
<stop offset="1" stop-color="#BDFFE3"/>
</linearGradient>
<linearGradient id="paint37_linear_1927_16894" x1="40.4298" y1="27.3305" x2="41.0777" y2="26.8938" gradientUnits="userSpaceOnUse">
<stop stop-color="#FFB6D5"/>
<stop offset="0.1" stop-color="#FFE3C0"/>
<stop offset="0.29" stop-color="#C7FBDB"/>
<stop offset="0.43" stop-color="#C7CDF4"/>
<stop offset="0.54" stop-color="#FFBCD4"/>
<stop offset="0.66" stop-color="#FFE0C3"/>
<stop offset="0.76" stop-color="#B0F1D4"/>
<stop offset="0.84" stop-color="#C9CEEC"/>
<stop offset="0.91" stop-color="#FFC1DA"/>
<stop offset="1" stop-color="#BDFFE3"/>
</linearGradient>
<linearGradient id="paint38_linear_1927_16894" x1="41.7872" y1="26.5463" x2="42.4351" y2="26.1096" gradientUnits="userSpaceOnUse">
<stop stop-color="#FFB6D5"/>
<stop offset="0.1" stop-color="#FFE3C0"/>
<stop offset="0.29" stop-color="#C7FBDB"/>
<stop offset="0.43" stop-color="#C7CDF4"/>
<stop offset="0.54" stop-color="#FFBCD4"/>
<stop offset="0.66" stop-color="#FFE0C3"/>
<stop offset="0.76" stop-color="#B0F1D4"/>
<stop offset="0.84" stop-color="#C9CEEC"/>
<stop offset="0.91" stop-color="#FFC1DA"/>
<stop offset="1" stop-color="#BDFFE3"/>
</linearGradient>
<linearGradient id="paint39_linear_1927_16894" x1="43.1544" y1="25.7631" x2="43.8023" y2="25.3264" gradientUnits="userSpaceOnUse">
<stop stop-color="#FFB6D5"/>
<stop offset="0.1" stop-color="#FFE3C0"/>
<stop offset="0.29" stop-color="#C7FBDB"/>
<stop offset="0.43" stop-color="#C7CDF4"/>
<stop offset="0.54" stop-color="#FFBCD4"/>
<stop offset="0.66" stop-color="#FFE0C3"/>
<stop offset="0.76" stop-color="#B0F1D4"/>
<stop offset="0.84" stop-color="#C9CEEC"/>
<stop offset="0.91" stop-color="#FFC1DA"/>
<stop offset="1" stop-color="#BDFFE3"/>
</linearGradient>
<linearGradient id="paint40_linear_1927_16894" x1="44.5118" y1="24.9897" x2="45.1597" y2="24.553" gradientUnits="userSpaceOnUse">
<stop stop-color="#FFB6D5"/>
<stop offset="0.1" stop-color="#FFE3C0"/>
<stop offset="0.29" stop-color="#C7FBDB"/>
<stop offset="0.43" stop-color="#C7CDF4"/>
<stop offset="0.54" stop-color="#FFBCD4"/>
<stop offset="0.66" stop-color="#FFE0C3"/>
<stop offset="0.76" stop-color="#B0F1D4"/>
<stop offset="0.84" stop-color="#C9CEEC"/>
<stop offset="0.91" stop-color="#FFC1DA"/>
<stop offset="1" stop-color="#BDFFE3"/>
</linearGradient>
<linearGradient id="paint41_linear_1927_16894" x1="39.0626" y1="26.5463" x2="39.7105" y2="26.1096" gradientUnits="userSpaceOnUse">
<stop stop-color="#FFB6D5"/>
<stop offset="0.1" stop-color="#FFE3C0"/>
<stop offset="0.29" stop-color="#C7FBDB"/>
<stop offset="0.43" stop-color="#C7CDF4"/>
<stop offset="0.54" stop-color="#FFBCD4"/>
<stop offset="0.66" stop-color="#FFE0C3"/>
<stop offset="0.76" stop-color="#B0F1D4"/>
<stop offset="0.84" stop-color="#C9CEEC"/>
<stop offset="0.91" stop-color="#FFC1DA"/>
<stop offset="1" stop-color="#BDFFE3"/>
</linearGradient>
<linearGradient id="paint42_linear_1927_16894" x1="40.4298" y1="25.7631" x2="41.0777" y2="25.3264" gradientUnits="userSpaceOnUse">
<stop stop-color="#FFB6D5"/>
<stop offset="0.1" stop-color="#FFE3C0"/>
<stop offset="0.29" stop-color="#C7FBDB"/>
<stop offset="0.43" stop-color="#C7CDF4"/>
<stop offset="0.54" stop-color="#FFBCD4"/>
<stop offset="0.66" stop-color="#FFE0C3"/>
<stop offset="0.76" stop-color="#B0F1D4"/>
<stop offset="0.84" stop-color="#C9CEEC"/>
<stop offset="0.91" stop-color="#FFC1DA"/>
<stop offset="1" stop-color="#BDFFE3"/>
</linearGradient>
<linearGradient id="paint43_linear_1927_16894" x1="41.7872" y1="24.9897" x2="42.4351" y2="24.553" gradientUnits="userSpaceOnUse">
<stop stop-color="#FFB6D5"/>
<stop offset="0.1" stop-color="#FFE3C0"/>
<stop offset="0.29" stop-color="#C7FBDB"/>
<stop offset="0.43" stop-color="#C7CDF4"/>
<stop offset="0.54" stop-color="#FFBCD4"/>
<stop offset="0.66" stop-color="#FFE0C3"/>
<stop offset="0.76" stop-color="#B0F1D4"/>
<stop offset="0.84" stop-color="#C9CEEC"/>
<stop offset="0.91" stop-color="#FFC1DA"/>
<stop offset="1" stop-color="#BDFFE3"/>
</linearGradient>
<linearGradient id="paint44_linear_1927_16894" x1="43.1544" y1="24.2065" x2="43.8023" y2="23.7697" gradientUnits="userSpaceOnUse">
<stop stop-color="#FFB6D5"/>
<stop offset="0.1" stop-color="#FFE3C0"/>
<stop offset="0.29" stop-color="#C7FBDB"/>
<stop offset="0.43" stop-color="#C7CDF4"/>
<stop offset="0.54" stop-color="#FFBCD4"/>
<stop offset="0.66" stop-color="#FFE0C3"/>
<stop offset="0.76" stop-color="#B0F1D4"/>
<stop offset="0.84" stop-color="#C9CEEC"/>
<stop offset="0.91" stop-color="#FFC1DA"/>
<stop offset="1" stop-color="#BDFFE3"/>
</linearGradient>
<linearGradient id="paint45_linear_1927_16894" x1="14.3695" y1="59.0544" x2="23.627" y2="56.0293" gradientUnits="userSpaceOnUse">
<stop stop-color="#FFB6D5"/>
<stop offset="0.1" stop-color="#FFE3C0"/>
<stop offset="0.29" stop-color="#C7FBDB"/>
<stop offset="0.43" stop-color="#C7CDF4"/>
<stop offset="0.54" stop-color="#FFBCD4"/>
<stop offset="0.66" stop-color="#FFE0C3"/>
<stop offset="0.76" stop-color="#B0F1D4"/>
<stop offset="0.84" stop-color="#C9CEEC"/>
<stop offset="0.91" stop-color="#FFC1DA"/>
<stop offset="1" stop-color="#BDFFE3"/>
</linearGradient>
<linearGradient id="paint46_linear_1927_16894" x1="14.3673" y1="52.3914" x2="22.4727" y2="48.2685" gradientUnits="userSpaceOnUse">
<stop stop-color="#FFB6D5"/>
<stop offset="0.1" stop-color="#FFE3C0"/>
<stop offset="0.29" stop-color="#C7FBDB"/>
<stop offset="0.43" stop-color="#C7CDF4"/>
<stop offset="0.54" stop-color="#FFBCD4"/>
<stop offset="0.66" stop-color="#FFE0C3"/>
<stop offset="0.76" stop-color="#B0F1D4"/>
<stop offset="0.84" stop-color="#C9CEEC"/>
<stop offset="0.91" stop-color="#FFC1DA"/>
<stop offset="1" stop-color="#BDFFE3"/>
</linearGradient>
<linearGradient id="paint47_linear_1927_16894" x1="14.8401" y1="51.1073" x2="21.6228" y2="47.3955" gradientUnits="userSpaceOnUse">
<stop stop-color="#FFB6D5"/>
<stop offset="0.1" stop-color="#FFE3C0"/>
<stop offset="0.29" stop-color="#C7FBDB"/>
<stop offset="0.43" stop-color="#C7CDF4"/>
<stop offset="0.54" stop-color="#FFBCD4"/>
<stop offset="0.66" stop-color="#FFE0C3"/>
<stop offset="0.76" stop-color="#B0F1D4"/>
<stop offset="0.84" stop-color="#C9CEEC"/>
<stop offset="0.91" stop-color="#FFC1DA"/>
<stop offset="1" stop-color="#BDFFE3"/>
</linearGradient>
<linearGradient id="paint48_linear_1927_16894" x1="16.0079" y1="49.6278" x2="20.3358" y2="47.4892" gradientUnits="userSpaceOnUse">
<stop stop-color="#FFB6D5"/>
<stop offset="0.1" stop-color="#FFE3C0"/>
<stop offset="0.29" stop-color="#C7FBDB"/>
<stop offset="0.43" stop-color="#C7CDF4"/>
<stop offset="0.54" stop-color="#FFBCD4"/>
<stop offset="0.66" stop-color="#FFE0C3"/>
<stop offset="0.76" stop-color="#B0F1D4"/>
<stop offset="0.84" stop-color="#C9CEEC"/>
<stop offset="0.91" stop-color="#FFC1DA"/>
<stop offset="1" stop-color="#BDFFE3"/>
</linearGradient>
<linearGradient id="paint49_linear_1927_16894" x1="2.01856" y1="47.9708" x2="17.2536" y2="38.1331" gradientUnits="userSpaceOnUse">
<stop stop-color="#FFB6D5"/>
<stop offset="0.1" stop-color="#FFE3C0"/>
<stop offset="0.29" stop-color="#C7FBDB"/>
<stop offset="0.43" stop-color="#C7CDF4"/>
<stop offset="0.54" stop-color="#FFBCD4"/>
<stop offset="0.66" stop-color="#FFE0C3"/>
<stop offset="0.76" stop-color="#B0F1D4"/>
<stop offset="0.84" stop-color="#C9CEEC"/>
<stop offset="0.91" stop-color="#FFC1DA"/>
<stop offset="1" stop-color="#BDFFE3"/>
</linearGradient>
<linearGradient id="paint50_linear_1927_16894" x1="19.0873" y1="57.9033" x2="34.3511" y2="48.1898" gradientUnits="userSpaceOnUse">
<stop stop-color="#FFB6D5"/>
<stop offset="0.1" stop-color="#FFE3C0"/>
<stop offset="0.29" stop-color="#C7FBDB"/>
<stop offset="0.43" stop-color="#C7CDF4"/>
<stop offset="0.54" stop-color="#FFBCD4"/>
<stop offset="0.66" stop-color="#FFE0C3"/>
<stop offset="0.76" stop-color="#B0F1D4"/>
<stop offset="0.84" stop-color="#C9CEEC"/>
<stop offset="0.91" stop-color="#FFC1DA"/>
<stop offset="1" stop-color="#BDFFE3"/>
</linearGradient>
<linearGradient id="paint51_linear_1927_16894" x1="16.5115" y1="48.0636" x2="19.3799" y2="46.3343" gradientUnits="userSpaceOnUse">
<stop stop-color="#FFB6D5"/>
<stop offset="0.1" stop-color="#FFE3C0"/>
<stop offset="0.29" stop-color="#C7FBDB"/>
<stop offset="0.43" stop-color="#C7CDF4"/>
<stop offset="0.54" stop-color="#FFBCD4"/>
<stop offset="0.66" stop-color="#FFE0C3"/>
<stop offset="0.76" stop-color="#B0F1D4"/>
<stop offset="0.84" stop-color="#C9CEEC"/>
<stop offset="0.91" stop-color="#FFC1DA"/>
<stop offset="1" stop-color="#BDFFE3"/>
</linearGradient>
<linearGradient id="paint52_linear_1927_16894" x1="65.3773" y1="59.2859" x2="74.6348" y2="56.2608" gradientUnits="userSpaceOnUse">
<stop stop-color="#FFB6D5"/>
<stop offset="0.1" stop-color="#FFE3C0"/>
<stop offset="0.29" stop-color="#C7FBDB"/>
<stop offset="0.43" stop-color="#C7CDF4"/>
<stop offset="0.54" stop-color="#FFBCD4"/>
<stop offset="0.66" stop-color="#FFE0C3"/>
<stop offset="0.76" stop-color="#B0F1D4"/>
<stop offset="0.84" stop-color="#C9CEEC"/>
<stop offset="0.91" stop-color="#FFC1DA"/>
<stop offset="1" stop-color="#BDFFE3"/>
</linearGradient>
<linearGradient id="paint53_linear_1927_16894" x1="65.3868" y1="52.6238" x2="73.4922" y2="48.501" gradientUnits="userSpaceOnUse">
<stop stop-color="#FFB6D5"/>
<stop offset="0.1" stop-color="#FFE3C0"/>
<stop offset="0.29" stop-color="#C7FBDB"/>
<stop offset="0.43" stop-color="#C7CDF4"/>
<stop offset="0.54" stop-color="#FFBCD4"/>
<stop offset="0.66" stop-color="#FFE0C3"/>
<stop offset="0.76" stop-color="#B0F1D4"/>
<stop offset="0.84" stop-color="#C9CEEC"/>
<stop offset="0.91" stop-color="#FFC1DA"/>
<stop offset="1" stop-color="#BDFFE3"/>
</linearGradient>
<linearGradient id="paint54_linear_1927_16894" x1="65.8597" y1="51.3387" x2="72.6423" y2="47.627" gradientUnits="userSpaceOnUse">
<stop stop-color="#FFB6D5"/>
<stop offset="0.1" stop-color="#FFE3C0"/>
<stop offset="0.29" stop-color="#C7FBDB"/>
<stop offset="0.43" stop-color="#C7CDF4"/>
<stop offset="0.54" stop-color="#FFBCD4"/>
<stop offset="0.66" stop-color="#FFE0C3"/>
<stop offset="0.76" stop-color="#B0F1D4"/>
<stop offset="0.84" stop-color="#C9CEEC"/>
<stop offset="0.91" stop-color="#FFC1DA"/>
<stop offset="1" stop-color="#BDFFE3"/>
</linearGradient>
<linearGradient id="paint55_linear_1927_16894" x1="67.0157" y1="49.8592" x2="71.3436" y2="47.7207" gradientUnits="userSpaceOnUse">
<stop stop-color="#FFB6D5"/>
<stop offset="0.1" stop-color="#FFE3C0"/>
<stop offset="0.29" stop-color="#C7FBDB"/>
<stop offset="0.43" stop-color="#C7CDF4"/>
<stop offset="0.54" stop-color="#FFBCD4"/>
<stop offset="0.66" stop-color="#FFE0C3"/>
<stop offset="0.76" stop-color="#B0F1D4"/>
<stop offset="0.84" stop-color="#C9CEEC"/>
<stop offset="0.91" stop-color="#FFC1DA"/>
<stop offset="1" stop-color="#BDFFE3"/>
</linearGradient>
<linearGradient id="paint56_linear_1927_16894" x1="52.7151" y1="58.0051" x2="67.9548" y2="48.1511" gradientUnits="userSpaceOnUse">
<stop stop-color="#FFB6D5"/>
<stop offset="0.1" stop-color="#FFE3C0"/>
<stop offset="0.29" stop-color="#C7FBDB"/>
<stop offset="0.43" stop-color="#C7CDF4"/>
<stop offset="0.54" stop-color="#FFBCD4"/>
<stop offset="0.66" stop-color="#FFE0C3"/>
<stop offset="0.76" stop-color="#B0F1D4"/>
<stop offset="0.84" stop-color="#C9CEEC"/>
<stop offset="0.91" stop-color="#FFC1DA"/>
<stop offset="1" stop-color="#BDFFE3"/>
</linearGradient>
<linearGradient id="paint57_linear_1927_16894" x1="69.9331" y1="48.2186" x2="85.1541" y2="38.2526" gradientUnits="userSpaceOnUse">
<stop stop-color="#FFB6D5"/>
<stop offset="0.1" stop-color="#FFE3C0"/>
<stop offset="0.29" stop-color="#C7FBDB"/>
<stop offset="0.43" stop-color="#C7CDF4"/>
<stop offset="0.54" stop-color="#FFBCD4"/>
<stop offset="0.66" stop-color="#FFE0C3"/>
<stop offset="0.76" stop-color="#B0F1D4"/>
<stop offset="0.84" stop-color="#C9CEEC"/>
<stop offset="0.91" stop-color="#FFC1DA"/>
<stop offset="1" stop-color="#BDFFE3"/>
</linearGradient>
<linearGradient id="paint58_linear_1927_16894" x1="67.5271" y1="48.2951" x2="70.3955" y2="46.5658" gradientUnits="userSpaceOnUse">
<stop stop-color="#FFB6D5"/>
<stop offset="0.1" stop-color="#FFE3C0"/>
<stop offset="0.29" stop-color="#C7FBDB"/>
<stop offset="0.43" stop-color="#C7CDF4"/>
<stop offset="0.54" stop-color="#FFBCD4"/>
<stop offset="0.66" stop-color="#FFE0C3"/>
<stop offset="0.76" stop-color="#B0F1D4"/>
<stop offset="0.84" stop-color="#C9CEEC"/>
<stop offset="0.91" stop-color="#FFC1DA"/>
<stop offset="1" stop-color="#BDFFE3"/>
</linearGradient>
</defs>
</svg>
