<svg width="254" height="238" viewBox="0 0 254 238" fill="none" xmlns="http://www.w3.org/2000/svg">
<path d="M122.393 235.822C123.193 236.272 123.193 237.021 122.393 237.496C121.593 237.946 120.294 237.946 119.494 237.496C118.695 237.046 118.695 236.297 119.494 235.822C120.294 235.347 121.593 235.347 122.393 235.822Z" fill="#222222"/>
<path d="M107.25 235.822C108.05 236.272 108.05 237.021 107.25 237.496C106.451 237.971 105.151 237.946 104.352 237.496C103.552 237.046 103.552 236.297 104.352 235.822C105.151 235.347 106.451 235.347 107.25 235.822Z" fill="#222222"/>
<path d="M114.825 231.45C115.624 231.899 115.624 232.649 114.825 233.124C114.025 233.574 112.726 233.574 111.926 233.124C111.126 232.674 111.126 231.924 111.926 231.45C112.726 231 114.025 231 114.825 231.45Z" fill="#222222"/>
<path d="M92.0823 235.822C92.882 236.272 92.882 237.021 92.0823 237.496C91.2827 237.971 89.9833 237.971 89.1837 237.496C88.3841 237.046 88.3841 236.297 89.1837 235.822C89.9833 235.347 91.2827 235.347 92.0823 235.822Z" fill="#222222"/>
<path d="M99.6527 231.45C100.452 231.899 100.452 232.649 99.6527 233.124C98.853 233.574 97.5536 233.574 96.754 233.124C95.9544 232.674 95.9544 231.924 96.754 231.45C97.5536 231 98.853 231 99.6527 231.45Z" fill="#222222"/>
<path d="M107.25 227.077C108.05 227.526 108.05 228.276 107.25 228.751C106.451 229.201 105.151 229.201 104.352 228.751C103.552 228.276 103.552 227.551 104.352 227.077C105.151 226.627 106.451 226.627 107.25 227.077Z" fill="#222222"/>
<path d="M76.9398 235.823C77.7394 236.273 77.7394 237.023 76.9398 237.498C76.1401 237.972 74.8408 237.972 74.0411 237.498C73.2415 237.048 73.2415 236.298 74.0411 235.823C74.8408 235.374 76.1401 235.349 76.9398 235.823Z" fill="#222222"/>
<path d="M84.5081 231.45C85.3078 231.899 85.3078 232.649 84.5081 233.124C83.7085 233.574 82.4091 233.574 81.6095 233.124C80.8099 232.674 80.8099 231.924 81.6095 231.45C82.4091 231 83.7085 231 84.5081 231.45Z" fill="#222222"/>
<path d="M92.0823 227.075C92.882 227.525 92.882 228.274 92.0823 228.749C91.2827 229.199 89.9833 229.199 89.1837 228.749C88.3841 228.274 88.3841 227.55 89.1837 227.075C89.9833 226.6 91.2827 226.6 92.0823 227.075Z" fill="#222222"/>
<path d="M99.6527 222.705C100.452 223.154 100.452 223.904 99.6527 224.379C98.853 224.829 97.5536 224.829 96.754 224.379C95.9544 223.929 95.9544 223.179 96.754 222.705C97.5536 222.255 98.853 222.255 99.6527 222.705Z" fill="#222222"/>
<path d="M61.7718 235.823C62.5714 236.272 62.5714 237.022 61.7718 237.497C60.9722 237.972 59.6728 237.972 58.8732 237.497C58.0735 237.047 58.0735 236.297 58.8732 235.823C59.6728 235.373 60.9722 235.373 61.7718 235.823Z" fill="#222222"/>
<path d="M69.3655 231.45C70.1652 231.899 70.1652 232.649 69.3655 233.124C68.5659 233.599 67.2665 233.574 66.4669 233.124C65.6673 232.674 65.6673 231.924 66.4669 231.45C67.2665 231 68.5659 231 69.3655 231.45Z" fill="#222222"/>
<path d="M76.9398 227.075C77.7394 227.525 77.7394 228.274 76.9398 228.749C76.1401 229.199 74.8408 229.199 74.0411 228.749C73.2415 228.274 73.2415 227.55 74.0411 227.075C74.8408 226.6 76.1401 226.6 76.9398 227.075Z" fill="#222222"/>
<path d="M84.5081 222.705C85.3078 223.154 85.3078 223.904 84.5081 224.379C83.7085 224.829 82.4091 224.829 81.6095 224.379C80.8099 223.929 80.8099 223.179 81.6095 222.705C82.4091 222.255 83.7085 222.255 84.5081 222.705Z" fill="#222222"/>
<path d="M92.0823 218.331C92.882 218.781 92.882 219.531 92.0823 220.006C91.2827 220.455 89.9833 220.455 89.1837 220.006C88.3841 219.556 88.3841 218.806 89.1837 218.331C89.9833 217.882 91.2827 217.882 92.0823 218.331Z" fill="#222222"/>
<path d="M46.6273 235.824C47.4269 236.273 47.4269 237.023 46.6273 237.498C45.8276 237.973 44.5283 237.973 43.7286 237.498C42.929 237.048 42.929 236.298 43.7286 235.824C44.5283 235.374 45.8276 235.374 46.6273 235.824Z" fill="#222222"/>
<path d="M54.2015 231.45C55.0011 231.899 55.0011 232.649 54.2015 233.124C53.4019 233.599 52.1025 233.574 51.3028 233.124C50.5032 232.674 50.5032 231.924 51.3028 231.45C52.1025 231 53.4019 231 54.2015 231.45Z" fill="#222222"/>
<path d="M61.7718 227.075C62.5714 227.525 62.5714 228.274 61.7718 228.749C60.9722 229.199 59.6728 229.199 58.8732 228.749C58.0735 228.299 58.0735 227.55 58.8732 227.075C59.6728 226.6 60.9722 226.6 61.7718 227.075Z" fill="#222222"/>
<path d="M69.3655 222.705C70.1652 223.154 70.1652 223.904 69.3655 224.379C68.5659 224.829 67.2665 224.829 66.4669 224.379C65.6673 223.929 65.6673 223.179 66.4669 222.705C67.2665 222.255 68.5659 222.255 69.3655 222.705Z" fill="#222222"/>
<path d="M76.9398 218.331C77.7394 218.781 77.7394 219.531 76.9398 220.006C76.1401 220.455 74.8408 220.455 74.0411 220.006C73.2415 219.556 73.2415 218.806 74.0411 218.331C74.8408 217.882 76.1401 217.882 76.9398 218.331Z" fill="#222222"/>
<path d="M84.5081 213.957C85.3078 214.407 85.3078 215.157 84.5081 215.631C83.7085 216.081 82.4091 216.081 81.6095 215.631C80.8099 215.182 80.8099 214.432 81.6095 213.957C82.4091 213.482 83.7085 213.507 84.5081 213.957Z" fill="#222222"/>
<path d="M31.4847 235.823C32.2843 236.272 32.2843 237.022 31.4847 237.497C30.6851 237.947 29.3857 237.947 28.586 237.497C27.7864 237.047 27.7864 236.297 28.586 235.823C29.3857 235.373 30.6851 235.373 31.4847 235.823Z" fill="#222222"/>
<path d="M39.057 231.45C39.8566 231.899 39.8566 232.649 39.057 233.124C38.2573 233.574 36.9579 233.574 36.1583 233.124C35.3587 232.674 35.3587 231.924 36.1583 231.45C36.9579 231 38.2573 231 39.057 231.45Z" fill="#222222"/>
<path d="M46.6273 227.075C47.4269 227.525 47.4269 228.274 46.6273 228.749C45.8276 229.199 44.5283 229.199 43.7286 228.749C42.929 228.299 42.929 227.55 43.7286 227.075C44.5283 226.6 45.8276 226.6 46.6273 227.075Z" fill="#222222"/>
<path d="M54.2015 222.705C55.0011 223.154 55.0011 223.904 54.2015 224.379C53.4019 224.854 52.1025 224.829 51.3028 224.379C50.5032 223.929 50.5032 223.179 51.3028 222.705C52.1025 222.255 53.4019 222.255 54.2015 222.705Z" fill="#222222"/>
<path d="M61.7718 218.331C62.5714 218.781 62.5714 219.531 61.7718 220.006C60.9722 220.455 59.6728 220.455 58.8732 220.006C58.0735 219.556 58.0735 218.806 58.8732 218.331C59.6728 217.882 60.9722 217.882 61.7718 218.331Z" fill="#222222"/>
<path d="M69.3655 213.957C70.1652 214.407 70.1652 215.157 69.3655 215.632C68.5659 216.081 67.2665 216.081 66.4669 215.632C65.6673 215.182 65.6673 214.432 66.4669 213.957C67.2665 213.508 68.5659 213.508 69.3655 213.957Z" fill="#222222"/>
<path d="M76.9398 209.584C77.7394 210.034 77.7394 210.784 76.9398 211.259C76.1401 211.708 74.8408 211.708 74.0411 211.259C73.2415 210.809 73.2415 210.059 74.0411 209.584C74.8408 209.135 76.1401 209.135 76.9398 209.584Z" fill="#222222"/>
<path d="M38.984 222.653C39.7837 223.103 39.7837 223.853 38.984 224.327C38.1844 224.777 36.885 224.777 36.0854 224.327C35.2858 223.878 38.1844 222.203 38.984 222.653Z" fill="#222222"/>
<path d="M46.5524 218.281C47.352 218.731 47.352 219.481 46.5524 219.955C45.7528 220.43 44.4534 220.43 43.6537 219.955C42.8541 219.506 45.7528 217.831 46.5524 218.281Z" fill="#222222"/>
<path d="M54.1481 213.908C54.9477 214.358 54.9477 215.107 54.1481 215.582C53.3485 216.032 52.0491 216.032 51.2495 215.582C50.4498 215.132 53.3485 213.458 54.1481 213.908Z" fill="#222222"/>
<path d="M61.7223 209.534C62.5219 209.984 62.5219 210.733 61.7223 211.208C60.9227 211.658 59.6233 211.658 58.8237 211.208C58.024 210.758 60.9227 209.084 61.7223 209.534Z" fill="#222222"/>
<path d="M66.3927 205.163C67.1923 204.713 68.4917 204.713 69.2913 205.163C70.091 205.612 70.091 206.362 69.2913 206.837C68.4917 207.287 67.1923 207.287 66.3927 206.837C65.5931 206.387 65.5931 205.637 66.3927 205.163Z" fill="#222222"/>
<path d="M213.401 235.923C214.2 236.373 214.2 237.123 213.401 237.597C212.601 238.047 211.302 238.047 210.502 237.597C209.702 237.148 209.702 236.398 210.502 235.923C211.302 235.473 212.601 235.473 213.401 235.923Z" fill="#222222"/>
<path d="M220.973 231.549C221.773 231.999 221.773 232.749 220.973 233.223C220.173 233.673 218.874 233.673 218.074 233.223C217.275 232.774 217.275 232.024 218.074 231.549C218.874 231.099 220.173 231.099 220.973 231.549Z" fill="#222222"/>
<path d="M228.543 227.177C229.343 227.652 229.343 228.377 228.543 228.851C227.744 229.301 226.444 229.301 225.645 228.851C224.845 228.402 224.845 227.652 225.645 227.177C226.444 226.727 227.744 226.727 228.543 227.177Z" fill="#222222"/>
<path d="M236.117 222.802C236.917 223.252 236.917 224.002 236.117 224.477C235.318 224.926 234.018 224.926 233.219 224.477C232.419 224.027 232.419 223.277 233.219 222.802C234.018 222.328 235.318 222.328 236.117 222.802Z" fill="#222222"/>
<path d="M243.686 218.431C244.485 218.881 244.485 219.63 243.686 220.105C242.886 220.555 241.587 220.555 240.787 220.105C239.988 219.655 239.988 218.906 240.787 218.431C241.587 217.956 242.886 217.981 243.686 218.431Z" fill="#222222"/>
<path d="M251.282 214.058C252.081 214.508 252.081 215.257 251.282 215.732C250.482 216.182 249.183 216.182 248.383 215.732C247.583 215.257 247.583 214.533 248.383 214.058C249.183 213.608 250.482 213.608 251.282 214.058Z" fill="#222222"/>
<path d="M198.233 235.923C199.032 236.373 199.032 237.123 198.233 237.597C197.433 238.047 196.134 238.047 195.334 237.597C194.534 237.148 194.534 236.398 195.334 235.923C196.134 235.473 197.433 235.473 198.233 235.923Z" fill="#222222"/>
<path d="M205.83 231.549C206.63 231.999 206.63 232.749 205.83 233.223C205.031 233.673 203.731 233.673 202.932 233.223C202.132 232.774 202.132 232.024 202.932 231.549C203.731 231.099 205.031 231.099 205.83 231.549Z" fill="#222222"/>
<path d="M213.401 227.177C214.2 227.627 214.2 228.377 213.401 228.851C212.601 229.301 211.302 229.301 210.502 228.851C209.702 228.402 209.702 227.652 210.502 227.177C211.302 226.727 212.601 226.727 213.401 227.177Z" fill="#222222"/>
<path d="M220.973 222.803C221.773 223.253 221.773 224.003 220.973 224.478C220.173 224.952 218.874 224.952 218.074 224.478C217.275 224.028 217.275 223.278 218.074 222.803C218.874 222.329 220.173 222.329 220.973 222.803Z" fill="#222222"/>
<path d="M228.543 218.431C229.343 218.881 229.343 219.631 228.543 220.105C227.744 220.555 226.444 220.555 225.645 220.105C224.845 219.656 224.845 218.906 225.645 218.431C226.444 217.981 227.744 217.981 228.543 218.431Z" fill="#222222"/>
<path d="M236.117 214.058C236.917 214.508 236.917 215.257 236.117 215.732C235.318 216.182 234.018 216.182 233.219 215.732C232.419 215.257 232.419 214.533 233.219 214.058C234.018 213.608 235.318 213.608 236.117 214.058Z" fill="#222222"/>
<path d="M243.686 209.686C244.485 210.136 244.485 210.885 243.686 211.36C242.886 211.81 241.587 211.81 240.787 211.36C239.988 210.91 239.988 210.161 240.787 209.686C241.587 209.236 242.886 209.236 243.686 209.686Z" fill="#222222"/>
<path d="M251.282 205.313C252.081 205.762 252.081 206.512 251.282 206.987C250.482 207.437 249.183 207.437 248.383 206.987C247.583 206.537 247.583 205.787 248.383 205.313C249.183 204.838 250.482 204.863 251.282 205.313Z" fill="#222222"/>
<path d="M183.088 235.923C183.888 236.373 183.888 237.123 183.088 237.597C182.289 238.047 180.989 238.047 180.19 237.597C179.39 237.148 179.39 236.398 180.19 235.923C180.989 235.473 182.289 235.473 183.088 235.923Z" fill="#222222"/>
<path d="M190.66 231.549C191.46 231.999 191.46 232.749 190.66 233.223C189.861 233.673 188.561 233.673 187.762 233.223C186.962 232.774 186.962 232.024 187.762 231.549C188.561 231.099 189.861 231.099 190.66 231.549Z" fill="#222222"/>
<path d="M198.233 227.177C199.032 227.627 199.032 228.377 198.233 228.851C197.433 229.301 196.134 229.301 195.334 228.851C194.534 228.402 194.534 227.652 195.334 227.177C196.134 226.727 197.433 226.727 198.233 227.177Z" fill="#222222"/>
<path d="M205.83 222.803C206.63 223.253 206.63 224.003 205.83 224.478C205.031 224.952 203.731 224.952 202.932 224.478C202.132 224.028 202.132 223.278 202.932 222.803C203.731 222.329 205.031 222.329 205.83 222.803Z" fill="#222222"/>
<path d="M213.401 218.431C214.2 218.881 214.2 219.631 213.401 220.105C212.601 220.555 211.302 220.555 210.502 220.105C209.702 219.656 209.702 218.906 210.502 218.431C211.302 217.981 212.601 217.981 213.401 218.431Z" fill="#222222"/>
<path d="M220.973 214.058C221.773 214.508 221.773 215.257 220.973 215.732C220.173 216.182 218.874 216.182 218.074 215.732C217.275 215.257 217.275 214.533 218.074 214.058C218.874 213.608 220.173 213.608 220.973 214.058Z" fill="#222222"/>
<path d="M228.543 209.686C229.343 210.136 229.343 210.885 228.543 211.36C227.744 211.835 226.444 211.81 225.645 211.36C224.845 210.91 224.845 210.161 225.645 209.686C226.444 209.236 227.744 209.236 228.543 209.686Z" fill="#222222"/>
<path d="M236.117 205.312C236.917 205.762 236.917 206.511 236.117 206.986C235.318 207.436 234.018 207.436 233.219 206.986C232.419 206.536 232.419 205.787 233.219 205.312C234.018 204.862 235.318 204.862 236.117 205.312Z" fill="#222222"/>
<path d="M243.686 200.939C244.485 201.414 244.485 202.138 243.686 202.613C242.886 203.063 241.587 203.063 240.787 202.613C239.988 202.163 239.988 201.414 240.787 200.939C241.587 200.489 242.886 200.489 243.686 200.939Z" fill="#222222"/>
<path d="M251.282 196.566C252.081 197.016 252.081 197.765 251.282 198.24C250.482 198.715 249.183 198.69 248.383 198.24C247.583 197.79 247.583 197.041 248.383 196.566C249.183 196.116 250.482 196.116 251.282 196.566Z" fill="#222222"/>
<path d="M167.948 235.923C168.747 236.373 168.747 237.123 167.948 237.597C167.148 238.047 165.849 238.047 165.049 237.597C164.249 237.148 164.249 236.398 165.049 235.923C165.849 235.473 167.148 235.473 167.948 235.923Z" fill="#222222"/>
<path d="M175.52 231.549C176.319 231.999 176.319 232.749 175.52 233.223C174.72 233.673 173.421 233.673 172.621 233.223C171.822 232.774 171.822 232.024 172.621 231.549C173.421 231.099 174.72 231.099 175.52 231.549Z" fill="#222222"/>
<path d="M183.088 227.177C183.888 227.627 183.888 228.377 183.088 228.851C182.289 229.301 180.989 229.301 180.19 228.851C179.39 228.402 179.39 227.652 180.19 227.177C180.989 226.727 182.289 226.727 183.088 227.177Z" fill="#222222"/>
<path d="M190.66 222.804C191.46 223.254 191.46 224.004 190.66 224.478C189.861 224.953 188.561 224.953 187.762 224.478C186.962 224.029 186.962 223.279 187.762 222.804C188.561 222.354 189.861 222.354 190.66 222.804Z" fill="#222222"/>
<path d="M198.233 218.431C199.032 218.881 199.032 219.631 198.233 220.105C197.433 220.555 196.134 220.555 195.334 220.105C194.534 219.656 194.534 218.906 195.334 218.431C196.134 217.981 197.433 217.981 198.233 218.431Z" fill="#222222"/>
<path d="M205.83 214.058C206.63 214.508 206.63 215.257 205.83 215.732C205.031 216.182 203.731 216.182 202.932 215.732C202.132 215.257 202.132 214.533 202.932 214.058C203.731 213.608 205.031 213.608 205.83 214.058Z" fill="#222222"/>
<path d="M213.401 209.686C214.2 210.136 214.2 210.885 213.401 211.36C212.601 211.81 211.302 211.81 210.502 211.36C209.702 210.91 209.702 210.161 210.502 209.686C211.302 209.236 212.601 209.236 213.401 209.686Z" fill="#222222"/>
<path d="M220.973 205.312C221.773 205.762 221.773 206.511 220.973 206.986C220.173 207.436 218.874 207.436 218.074 206.986C217.275 206.536 217.275 205.787 218.074 205.312C218.874 204.862 220.173 204.862 220.973 205.312Z" fill="#222222"/>
<path d="M228.543 200.939C229.343 201.414 229.343 202.138 228.543 202.613C227.744 203.063 226.444 203.063 225.645 202.613C224.845 202.163 224.845 201.414 225.645 200.939C226.444 200.489 227.744 200.489 228.543 200.939Z" fill="#222222"/>
<path d="M236.117 196.565C236.917 197.015 236.917 197.764 236.117 198.239C235.318 198.689 234.018 198.689 233.219 198.239C232.419 197.789 232.419 197.04 233.219 196.565C234.018 196.115 235.318 196.115 236.117 196.565Z" fill="#222222"/>
<path d="M243.711 192.194C244.511 192.644 244.511 193.393 243.711 193.868C242.912 194.343 241.612 194.343 240.813 193.868C240.013 193.418 240.013 192.669 240.813 192.194C241.612 191.744 242.912 191.744 243.711 192.194Z" fill="#222222"/>
<path d="M251.282 187.821C252.081 188.271 252.081 189.02 251.282 189.495C250.482 189.945 249.183 189.945 248.383 189.495C247.583 189.02 247.583 188.296 248.383 187.821C249.183 187.371 250.482 187.371 251.282 187.821Z" fill="#222222"/>
<path d="M152.78 235.923C153.579 236.373 153.579 237.123 152.78 237.597C151.98 238.047 150.681 238.047 149.881 237.597C149.081 237.148 149.081 236.398 149.881 235.923C150.681 235.473 151.98 235.473 152.78 235.923Z" fill="#222222"/>
<path d="M160.35 231.549C161.15 231.999 161.15 232.749 160.35 233.223C159.55 233.673 158.251 233.673 157.451 233.223C156.652 232.774 156.652 232.024 157.451 231.549C158.251 231.099 159.55 231.099 160.35 231.549Z" fill="#222222"/>
<path d="M167.948 227.177C168.747 227.627 168.747 228.377 167.948 228.851C167.148 229.301 165.849 229.301 165.049 228.851C164.249 228.402 164.249 227.652 165.049 227.177C165.849 226.727 167.148 226.727 167.948 227.177Z" fill="#222222"/>
<path d="M175.52 222.804C176.319 223.254 176.319 224.004 175.52 224.478C174.72 224.953 173.421 224.953 172.621 224.478C171.822 224.029 171.822 223.279 172.621 222.804C173.421 222.354 174.72 222.354 175.52 222.804Z" fill="#222222"/>
<path d="M183.088 218.431C183.888 218.881 183.888 219.631 183.088 220.105C182.289 220.555 180.989 220.555 180.19 220.105C179.39 219.656 179.39 218.906 180.19 218.431C180.989 217.981 182.289 217.981 183.088 218.431Z" fill="#222222"/>
<path d="M190.66 214.058C191.46 214.508 191.46 215.257 190.66 215.732C189.861 216.182 188.561 216.182 187.762 215.732C186.962 215.282 186.962 214.533 187.762 214.058C188.561 213.608 189.861 213.608 190.66 214.058Z" fill="#222222"/>
<path d="M198.233 209.686C199.032 210.136 199.032 210.885 198.233 211.36C197.433 211.81 196.134 211.81 195.334 211.36C194.534 210.91 194.534 210.161 195.334 209.686C196.134 209.236 197.433 209.236 198.233 209.686Z" fill="#222222"/>
<path d="M205.83 205.312C206.63 205.762 206.63 206.511 205.83 206.986C205.031 207.436 203.731 207.436 202.932 206.986C202.132 206.536 202.132 205.787 202.932 205.312C203.731 204.862 205.031 204.862 205.83 205.312Z" fill="#222222"/>
<path d="M240.813 183.448C241.612 182.998 242.912 182.998 243.711 183.448C244.511 183.897 244.511 184.647 243.711 185.122C242.912 185.572 241.612 185.572 240.813 185.122C240.013 184.672 240.013 183.922 240.813 183.448C241.612 182.998 240.013 183.897 240.813 183.448Z" fill="#222222"/>
<path d="M251.282 179.048C252.081 179.498 252.081 180.248 251.282 180.722C250.482 181.172 249.183 181.172 248.383 180.722C247.583 180.273 247.583 179.523 248.383 179.048C249.183 178.598 250.482 178.598 251.282 179.048Z" fill="#222222"/>
<path d="M134.662 235.872C135.462 235.397 136.761 235.397 137.561 235.872C138.36 236.321 138.36 237.071 137.561 237.546C136.761 238.021 135.462 238.021 134.662 237.546C133.863 237.096 133.863 236.346 134.662 235.872Z" fill="#222222"/>
<path d="M145.133 231.499C145.933 231.949 145.933 232.699 145.133 233.174C144.334 233.623 143.034 233.623 142.234 233.174C141.435 232.724 141.435 231.974 142.234 231.499C143.034 231.05 144.334 231.05 145.133 231.499Z" fill="#222222"/>
<path d="M152.731 227.127C153.53 227.577 153.53 228.327 152.731 228.802C151.931 229.251 150.632 229.251 149.832 228.802C149.033 228.327 149.033 227.602 149.832 227.127C150.632 226.678 151.931 226.678 152.731 227.127Z" fill="#222222"/>
<path d="M160.299 222.754C161.099 223.204 161.099 223.954 160.299 224.429C159.5 224.878 158.2 224.878 157.401 224.429C156.601 223.979 156.601 223.229 157.401 222.754C158.2 222.305 159.5 222.305 160.299 222.754Z" fill="#222222"/>
<path d="M167.873 218.381C168.673 218.831 168.673 219.581 167.873 220.055C167.074 220.505 165.774 220.505 164.975 220.055C164.175 219.606 164.175 218.856 164.975 218.381C165.774 217.931 167.074 217.931 167.873 218.381Z" fill="#222222"/>
<path d="M175.444 214.008C176.243 214.458 176.243 215.208 175.444 215.682C174.644 216.157 173.345 216.157 172.545 215.682C171.745 215.233 171.745 214.483 172.545 214.008C173.345 213.558 174.644 213.558 175.444 214.008Z" fill="#222222"/>
<path d="M183.014 209.636C183.814 210.086 183.814 210.836 183.014 211.31C182.214 211.76 180.915 211.76 180.115 211.31C179.316 210.861 179.316 210.111 180.115 209.636C180.915 209.186 182.214 209.186 183.014 209.636Z" fill="#222222"/>
<path d="M190.61 205.262C191.409 205.712 191.409 206.462 190.61 206.936C189.81 207.386 188.511 207.386 187.711 206.936C186.911 206.487 186.911 205.737 187.711 205.262C188.511 204.812 189.81 204.812 190.61 205.262Z" fill="#222222"/>
<path d="M198.182 200.889C198.982 201.339 198.982 202.089 198.182 202.563C197.382 203.013 196.083 203.013 195.283 202.563C194.484 202.114 194.484 201.364 195.283 200.889C196.083 200.439 197.382 200.439 198.182 200.889Z" fill="#222222"/>
<path d="M127.09 231.5C127.89 231.025 129.189 231.025 129.989 231.5C130.788 231.949 130.788 232.699 129.989 233.174C129.189 233.649 127.89 233.649 127.09 233.174C126.29 232.724 126.29 231.974 127.09 231.5Z" fill="#222222"/>
<path d="M137.561 227.127C138.36 227.577 138.36 228.327 137.561 228.802C136.761 229.251 135.462 229.251 134.662 228.802C133.863 228.327 133.863 227.602 134.662 227.127C135.462 226.678 136.761 226.678 137.561 227.127Z" fill="#222222"/>
<path d="M145.133 222.754C145.933 223.204 145.933 223.954 145.133 224.429C144.334 224.878 143.034 224.878 142.234 224.429C141.435 223.979 141.435 223.229 142.234 222.754C143.034 222.305 144.334 222.305 145.133 222.754Z" fill="#222222"/>
<path d="M152.731 218.381C153.53 218.831 153.53 219.581 152.731 220.055C151.931 220.505 150.632 220.505 149.832 220.055C149.033 219.606 149.033 218.856 149.832 218.381C150.632 217.931 151.931 217.931 152.731 218.381Z" fill="#222222"/>
<path d="M158.85 216.006C159.981 216.006 160.899 215.48 160.899 214.832C160.899 214.183 159.981 213.657 158.85 213.657C157.718 213.657 156.801 214.183 156.801 214.832C156.801 215.48 157.718 216.006 158.85 216.006Z" fill="#222222"/>
<path d="M167.873 209.636C168.673 210.086 168.673 210.836 167.873 211.31C167.074 211.76 165.774 211.76 164.975 211.31C164.175 210.861 164.175 210.111 164.975 209.636C165.774 209.186 167.074 209.186 167.873 209.636Z" fill="#222222"/>
<path d="M175.444 205.262C176.243 205.712 176.243 206.462 175.444 206.936C174.644 207.386 173.345 207.386 172.545 206.936C171.745 206.487 171.745 205.737 172.545 205.262C173.345 204.812 174.644 204.812 175.444 205.262Z" fill="#222222"/>
<path d="M183.014 200.889C183.814 201.339 183.814 202.089 183.014 202.563C182.214 203.013 180.915 203.013 180.115 202.563C179.316 202.114 179.316 201.364 180.115 200.889C180.915 200.439 182.214 200.439 183.014 200.889Z" fill="#222222"/>
<path d="M119.52 227.127C120.319 226.652 121.619 226.652 122.418 227.127C123.218 227.576 123.218 228.326 122.418 228.801C121.619 229.276 120.319 229.276 119.52 228.801C118.72 228.351 118.72 227.601 119.52 227.127Z" fill="#222222"/>
<path d="M129.989 222.754C130.788 223.204 130.788 223.954 129.989 224.429C129.189 224.878 127.89 224.878 127.09 224.429C126.29 223.979 126.29 223.229 127.09 222.754C127.89 222.305 129.189 222.305 129.989 222.754Z" fill="#222222"/>
<path d="M137.561 218.381C138.36 218.831 138.36 219.581 137.561 220.055C136.761 220.505 135.462 220.505 134.662 220.055C133.863 219.606 133.863 218.856 134.662 218.381C135.462 217.931 136.761 217.931 137.561 218.381Z" fill="#222222"/>
<path d="M145.133 214.008C145.933 214.458 145.933 215.208 145.133 215.682C144.334 216.132 143.034 216.132 142.234 215.682C141.435 215.233 141.435 214.483 142.234 214.008C143.034 213.558 144.334 213.558 145.133 214.008Z" fill="#222222"/>
<path d="M152.731 209.636C153.53 210.086 153.53 210.836 152.731 211.31C151.931 211.76 150.632 211.76 149.832 211.31C149.033 210.861 149.033 210.111 149.832 209.636C150.632 209.186 151.931 209.186 152.731 209.636Z" fill="#222222"/>
<path d="M160.299 205.262C161.099 205.712 161.099 206.462 160.299 206.936C159.5 207.386 158.2 207.386 157.401 206.936C156.601 206.487 156.601 205.737 157.401 205.262C158.2 204.812 159.5 204.812 160.299 205.262Z" fill="#222222"/>
<path d="M167.873 200.889C168.673 201.364 168.673 202.089 167.873 202.563C167.074 203.013 165.774 203.013 164.975 202.563C164.175 202.114 164.175 201.364 164.975 200.889C165.774 200.439 167.074 200.439 167.873 200.889Z" fill="#222222"/>
<path d="M111.926 222.753C112.726 222.278 114.025 222.278 114.825 222.753C115.624 223.202 115.624 223.952 114.825 224.427C114.025 224.902 112.726 224.902 111.926 224.427C111.126 223.977 111.126 223.227 111.926 222.753Z" fill="#222222"/>
<path d="M122.418 218.381C123.218 218.831 123.218 219.581 122.418 220.055C121.619 220.505 120.319 220.505 119.52 220.055C118.72 219.606 118.72 218.856 119.52 218.381C120.319 217.931 121.619 217.931 122.418 218.381Z" fill="#222222"/>
<path d="M129.989 214.008C130.788 214.458 130.788 215.208 129.989 215.682C129.189 216.132 127.89 216.132 127.09 215.682C126.29 215.233 126.29 214.483 127.09 214.008C127.89 213.558 129.189 213.558 129.989 214.008Z" fill="#222222"/>
<path d="M137.561 209.636C138.36 210.086 138.36 210.836 137.561 211.31C136.761 211.76 135.462 211.76 134.662 211.31C133.863 210.861 133.863 210.111 134.662 209.636C135.462 209.186 136.761 209.186 137.561 209.636Z" fill="#222222"/>
<path d="M145.133 205.261C145.933 205.711 145.933 206.46 145.133 206.935C144.334 207.41 143.034 207.385 142.234 206.935C141.435 206.485 141.435 205.736 142.234 205.261C143.034 204.786 144.334 204.811 145.133 205.261Z" fill="#222222"/>
<path d="M152.731 200.889C153.53 201.364 153.53 202.089 152.731 202.563C151.931 203.013 150.632 203.013 149.832 202.563C149.033 202.114 149.033 201.364 149.832 200.889C150.632 200.439 151.931 200.439 152.731 200.889Z" fill="#222222"/>
<path d="M104.352 218.38C105.151 217.905 106.451 217.905 107.25 218.38C108.05 218.829 108.05 219.579 107.25 220.054C106.451 220.529 105.151 220.529 104.352 220.054C103.552 219.604 103.552 218.854 104.352 218.38Z" fill="#222222"/>
<path d="M114.846 214.008C115.646 214.458 115.646 215.208 114.846 215.682C114.046 216.132 112.747 216.132 111.947 215.682C111.148 215.233 111.148 214.483 111.947 214.008C112.747 213.558 114.046 213.558 114.846 214.008Z" fill="#222222"/>
<path d="M122.418 209.636C123.218 210.086 123.218 210.836 122.418 211.31C121.619 211.76 120.319 211.76 119.52 211.31C118.72 210.861 118.72 210.111 119.52 209.636C120.319 209.186 121.619 209.186 122.418 209.636Z" fill="#222222"/>
<path d="M129.989 205.262C130.788 205.712 130.788 206.462 129.989 206.936C129.189 207.386 127.89 207.386 127.09 206.936C126.29 206.487 126.29 205.737 127.09 205.262C127.89 204.812 129.189 204.812 129.989 205.262Z" fill="#222222"/>
<path d="M137.561 200.889C138.36 201.364 138.36 202.089 137.561 202.563C136.761 203.013 135.462 203.013 134.662 202.563C133.863 202.114 133.863 201.364 134.662 200.889C135.462 200.439 136.761 200.439 137.561 200.889Z" fill="#222222"/>
<path d="M145.133 196.516C145.933 196.966 145.933 197.715 145.133 198.19C144.334 198.665 143.034 198.64 142.234 198.19C141.435 197.74 141.435 196.991 142.234 196.516C143.034 196.066 144.334 196.066 145.133 196.516Z" fill="#222222"/>
<path d="M96.7794 214.006C97.579 213.532 98.8784 213.532 99.678 214.006C100.478 214.456 100.478 215.206 99.678 215.681C98.8784 216.155 97.579 216.155 96.7794 215.681C95.9798 215.231 95.9798 214.481 96.7794 214.006Z" fill="#222222"/>
<path d="M107.276 209.636C108.075 210.086 108.075 210.836 107.276 211.31C106.476 211.785 105.177 211.76 104.377 211.31C103.577 210.861 103.577 210.111 104.377 209.636C105.177 209.186 106.476 209.186 107.276 209.636Z" fill="#222222"/>
<path d="M114.846 205.262C115.646 205.712 115.646 206.462 114.846 206.936C114.046 207.386 112.747 207.386 111.947 206.936C111.148 206.487 111.148 205.737 111.947 205.262C112.747 204.812 114.046 204.812 114.846 205.262Z" fill="#222222"/>
<path d="M122.418 200.889C123.218 201.364 123.218 202.089 122.418 202.563C121.619 203.013 120.319 203.013 119.52 202.563C118.72 202.114 118.72 201.364 119.52 200.889C120.319 200.439 121.619 200.439 122.418 200.889Z" fill="#222222"/>
<path d="M129.989 196.516C130.788 196.966 130.788 197.715 129.989 198.19C129.189 198.64 127.89 198.64 127.09 198.19C126.29 197.74 126.29 196.991 127.09 196.516C127.89 196.066 129.189 196.066 129.989 196.516Z" fill="#222222"/>
<path d="M137.561 193.818C136.761 194.267 135.462 194.267 134.662 193.818C133.863 193.368 133.863 192.618 134.662 192.143C135.462 191.694 138.36 193.343 137.561 193.818Z" fill="#222222"/>
<path d="M89.2091 209.634C90.0087 209.16 91.3081 209.16 92.1077 209.634C92.9074 210.084 92.9074 210.834 92.1077 211.309C91.3081 211.783 90.0087 211.783 89.2091 211.309C88.4095 210.859 88.4095 210.109 89.2091 209.634Z" fill="#222222"/>
<path d="M99.678 205.262C100.478 205.712 100.478 206.462 99.678 206.936C98.8784 207.386 97.579 207.386 96.7794 206.936C95.9798 206.487 95.9798 205.737 96.7794 205.262C97.579 204.812 98.8784 204.812 99.678 205.262Z" fill="#222222"/>
<path d="M107.276 200.889C108.075 201.339 108.075 202.089 107.276 202.563C106.476 203.013 105.177 203.013 104.377 202.563C103.577 202.114 103.577 201.364 104.377 200.889C105.177 200.439 106.476 200.439 107.276 200.889Z" fill="#222222"/>
<path d="M114.846 196.516C115.646 196.966 115.646 197.715 114.846 198.19C114.046 198.64 112.747 198.64 111.947 198.19C111.148 197.74 111.148 196.991 111.947 196.516C112.747 196.066 114.046 196.066 114.846 196.516Z" fill="#222222"/>
<path d="M122.418 192.144C123.218 192.594 123.218 193.343 122.418 193.818C121.619 194.268 120.319 194.268 119.52 193.818C118.72 193.368 118.72 192.619 119.52 192.144C120.319 191.694 121.619 191.694 122.418 192.144Z" fill="#222222"/>
<path d="M81.6388 205.261C82.4384 204.787 83.7378 204.787 84.5374 205.261C85.3371 205.711 85.3371 206.461 84.5374 206.936C83.7378 207.41 82.4384 207.41 81.6388 206.936C80.8392 206.486 80.8392 205.736 81.6388 205.261Z" fill="#222222"/>
<path d="M92.1077 200.889C92.9074 201.339 92.9074 202.089 92.1077 202.563C91.3081 203.013 90.0087 203.013 89.2091 202.563C88.4095 202.114 88.4095 201.364 89.2091 200.889C90.0087 200.439 91.3081 200.439 92.1077 200.889Z" fill="#222222"/>
<path d="M99.678 196.516C100.478 196.966 100.478 197.715 99.678 198.19C98.8784 198.64 97.579 198.64 96.7794 198.19C95.9798 197.74 95.9798 196.991 96.7794 196.516C97.579 196.066 98.8784 196.066 99.678 196.516Z" fill="#222222"/>
<path d="M107.276 192.144C108.075 192.594 108.075 193.343 107.276 193.818C106.476 194.268 105.177 194.268 104.377 193.818C103.577 193.368 103.577 192.619 104.377 192.144C105.177 191.694 106.476 191.694 107.276 192.144Z" fill="#222222"/>
<path d="M114.846 187.77C115.646 188.22 115.646 188.97 114.846 189.444C114.046 189.894 112.747 189.894 111.947 189.444C111.148 188.995 111.148 188.245 111.947 187.77C112.747 187.295 114.046 187.295 114.846 187.77Z" fill="#222222"/>
<path d="M73.9923 200.839C74.7919 200.364 76.0913 200.364 76.8909 200.839C77.6906 201.288 77.6906 202.038 76.8909 202.513C76.0913 202.987 74.7919 202.987 73.9923 202.513C73.1927 202.063 73.1927 201.313 73.9923 200.839C74.7919 200.364 73.1927 201.313 73.9923 200.839Z" fill="#222222"/>
<path d="M84.4632 196.466C85.2628 196.916 85.2628 197.666 84.4632 198.14C83.6636 198.59 82.3642 198.59 81.5646 198.14C80.7649 197.691 80.7649 196.941 81.5646 196.466C82.3642 196.016 83.6636 196.016 84.4632 196.466Z" fill="#222222"/>
<path d="M92.057 192.093C92.8566 192.543 92.8566 193.293 92.057 193.767C91.2573 194.217 89.9579 194.217 89.1583 193.767C88.3587 193.318 88.3587 192.568 89.1583 192.093C89.9579 191.643 91.2573 191.643 92.057 192.093Z" fill="#222222"/>
<path d="M99.6273 187.721C100.427 188.171 100.427 188.921 99.6273 189.395C98.8276 189.845 97.5283 189.845 96.7286 189.395C95.929 188.946 95.929 188.196 96.7286 187.721C97.5283 187.271 98.8276 187.271 99.6273 187.721Z" fill="#222222"/>
<path d="M243.985 235.222C244.784 235.697 244.784 236.422 243.985 236.896C243.185 237.346 241.886 237.346 241.086 236.896C240.286 236.447 240.286 235.697 241.086 235.222C241.886 234.772 243.185 234.772 243.985 235.222Z" fill="#222222"/>
<path d="M251.582 230.85C252.382 231.3 252.382 232.049 251.582 232.524C250.783 232.974 249.483 232.974 248.684 232.524C247.884 232.074 247.884 231.325 248.684 230.85C249.483 230.4 250.783 230.4 251.582 230.85Z" fill="#222222"/>
<path d="M228.842 235.222C229.642 235.697 229.642 236.422 228.842 236.896C228.042 237.346 226.743 237.346 225.943 236.896C225.144 236.447 225.144 235.697 225.943 235.222C226.743 234.772 228.042 234.772 228.842 235.222Z" fill="#222222"/>
<path d="M236.414 230.85C237.214 231.3 237.214 232.049 236.414 232.524C235.615 232.974 234.315 232.974 233.516 232.524C232.716 232.074 232.716 231.325 233.516 230.85C234.315 230.4 235.615 230.4 236.414 230.85Z" fill="#222222"/>
<path d="M243.985 226.476C244.784 226.926 244.784 227.676 243.985 228.15C243.185 228.625 241.886 228.625 241.086 228.15C240.286 227.701 240.286 226.951 241.086 226.476C241.886 226.001 243.185 226.001 243.985 226.476Z" fill="#222222"/>
<path d="M251.582 222.104C252.382 222.554 252.382 223.303 251.582 223.778C250.783 224.228 249.483 224.228 248.684 223.778C247.884 223.328 247.884 222.579 248.684 222.104C249.483 221.654 250.783 221.654 251.582 222.104Z" fill="#222222"/>
<path d="M62.1737 169.829L61.7988 97.013L300.112 93.5146L300.512 195.542C300.762 196.991 300.037 198.44 298.263 199.465L184.841 264.584C181.393 266.584 175.396 266.359 171.397 264.085L65.4721 202.938C63.1482 201.614 62.0487 171.478 62.1737 169.854V169.829Z" fill="url(#paint0_linear_1927_14949)"/>
<path d="M178.919 266.632C176.17 266.632 173.272 265.983 171.023 264.683L65.0973 203.537C62.1987 201.888 61.449 171.477 61.449 169.828L61.0742 96.287L300.837 92.7637L301.237 195.516C301.537 197.215 300.587 198.914 298.638 200.063L185.216 265.183C183.542 266.157 181.293 266.632 178.944 266.632H178.919ZM62.5235 97.7114L62.8734 169.853C62.6485 172.451 63.9978 200.513 65.847 202.287L171.747 263.434C175.521 265.583 181.243 265.808 184.466 263.933L297.888 198.814C299.313 197.964 300.012 196.84 299.787 195.64L299.388 94.238L62.5235 97.7114Z" fill="#222222"/>
<path d="M178.37 164.231L178.295 265.908L184.842 264.559L300.563 197.74L299.838 96.3877L183.018 163.181L178.37 164.231Z" fill="#222222"/>
<path d="M184.442 162.533L297.863 97.4133C301.312 95.4142 300.862 91.9409 296.864 89.6419L190.939 28.4956C186.94 26.2217 180.918 25.9968 177.495 27.9958L64.073 93.1153C60.6246 95.1144 61.0744 98.5878 65.0725 100.887L170.998 162.033C174.996 164.307 181.018 164.532 184.442 162.533Z" fill="url(#paint1_linear_1927_14949)"/>
<path d="M178.546 164.606C175.797 164.606 172.898 163.957 170.649 162.657L64.7241 101.486C62.4001 100.162 61.0508 98.3375 61.0508 96.4883C61.0508 94.9141 62.0003 93.4897 63.7245 92.4652L177.146 27.3457C180.77 25.2217 187.117 25.4466 191.315 27.8455L297.24 88.9919C299.564 90.3162 300.913 92.1404 300.913 93.9895C300.913 95.5638 299.964 96.9881 298.24 98.0126L184.818 163.132C183.144 164.107 180.895 164.581 178.546 164.581V164.606ZM183.418 27.3457C181.344 27.3457 179.345 27.7705 177.871 28.6201L64.4492 93.7396C63.1748 94.4893 62.5001 95.4388 62.5001 96.4883C62.5001 97.8127 63.5746 99.1621 65.4487 100.237L171.374 161.408C175.147 163.582 180.87 163.782 184.093 161.908L297.515 96.7882C298.789 96.0386 299.464 95.089 299.464 94.0395C299.464 92.7151 298.39 91.3657 296.515 90.2913L190.59 29.1449C188.541 27.9704 185.892 27.3707 183.418 27.3707V27.3457Z" fill="#222222"/>
<path d="M61.8021 70.8481C62.027 72.2225 63.1265 73.6218 65.0756 74.7213L171.001 135.868C174.999 138.142 181.021 138.366 184.445 136.367L297.866 71.2479C299.191 70.4733 299.916 69.4987 300.115 68.4492V84.1419C300.365 85.5912 299.641 87.0405 297.866 88.065L184.445 153.185C180.996 155.184 174.999 154.959 171.001 152.685L65.0756 91.5384C62.7517 90.214 61.6522 88.4898 61.7771 86.8656V70.8231H61.8021V70.8481Z" fill="url(#paint2_linear_1927_14949)"/>
<path d="M178.546 155.309C175.797 155.309 172.899 154.659 170.65 153.36L64.7242 92.2133C62.2254 90.7889 60.901 88.8398 61.0759 86.8658V70.8982L62.5252 70.7983C62.7251 71.9977 63.7497 73.1972 65.4239 74.1717L171.349 135.318C175.122 137.492 180.845 137.692 184.068 135.818L297.49 70.6983C298.565 70.0736 299.214 69.274 299.389 68.3994L300.814 68.5244V84.217C301.113 85.9162 300.164 87.6154 298.215 88.7649L184.793 153.884C183.119 154.859 180.87 155.334 178.521 155.334L178.546 155.309ZM62.5252 73.6969V86.9157C62.3753 88.3401 63.4748 89.8394 65.4239 90.9638L171.349 152.11C175.122 154.284 180.845 154.484 184.068 152.61L297.49 87.4905C298.914 86.6409 299.614 85.5164 299.389 84.317V71.0732C299.039 71.373 298.665 71.6729 298.215 71.9228L184.793 137.042C181.17 139.166 174.823 138.941 170.625 136.542L64.6992 75.3711C63.8246 74.8714 63.1 74.2966 62.5252 73.6969Z" fill="#222222"/>
<path d="M64.073 67.2013L177.495 2.08177C180.943 0.0827096 186.94 0.307604 190.939 2.58154L296.864 63.7279C300.862 66.0018 301.312 69.4752 297.863 71.4992L184.442 136.619C180.993 138.618 174.996 138.393 170.998 136.119L65.0725 74.9726C61.0744 72.6987 60.6246 69.2253 64.073 67.2013ZM78.3913 73.8481L172.872 128.373C176.12 130.222 181.043 130.422 183.842 128.772L285.169 70.7246C287.968 69.1004 287.593 66.2517 284.345 64.4026L189.864 9.87812C186.616 8.02899 181.693 7.82908 178.894 9.47831L77.5667 67.5261C74.768 69.1503 75.1428 71.999 78.3913 73.8481Z" fill="url(#paint3_linear_1927_14949)"/>
<path d="M178.896 36.9884L103.031 80.668L179.62 124.872C182.869 126.721 187.792 126.921 190.59 125.272L267.679 80.9928L192.339 37.5132C188.341 35.2392 182.319 35.0144 178.896 37.0134V36.9884Z" fill="#FDECCC"/>
<path d="M190.967 5.73095C186.969 3.45702 180.947 3.23212 177.524 5.23119L64.1018 70.3507C63.1773 70.9004 62.5526 71.5251 62.1777 72.2248C62.7025 73.1993 63.652 74.1489 65.0514 74.9485L170.977 136.095C174.975 138.369 180.997 138.594 184.42 136.595L297.842 71.4751C298.767 70.9254 299.392 70.3007 299.766 69.601C299.242 68.6265 298.292 67.6769 296.893 66.8773L190.967 5.73095ZM285.173 73.874L183.846 131.922C181.047 133.546 176.149 133.371 172.876 131.522L78.4201 77.0225C75.8963 75.5732 75.1217 73.5492 76.2212 71.9499C75.1966 70.3757 75.5965 68.6765 77.5455 67.552L178.873 9.4792C181.672 7.85496 186.569 8.02988 189.843 9.87901L284.324 64.4035C286.847 65.8528 287.622 67.8768 286.523 69.4761C287.547 71.0503 287.147 72.7495 285.198 73.874H285.173Z" fill="#D0E1EE"/>
<path d="M178.545 138.693C175.797 138.693 172.898 138.043 170.649 136.744L64.6987 75.5973C62.3748 74.273 61.0254 72.4488 61.0254 70.5997C61.0254 69.0254 61.9749 67.6011 63.6991 66.5766L177.146 1.45707C180.769 -0.666934 187.116 -0.442039 191.314 1.95684L297.24 63.1282C299.564 64.4526 300.913 66.2767 300.913 68.1258C300.913 69.7001 299.963 71.1244 298.239 72.149L184.817 137.268C183.143 138.243 180.894 138.718 178.545 138.718V138.693ZM64.4238 67.826C63.1494 68.5756 62.4747 69.5252 62.4747 70.5747C62.4747 71.8991 63.5492 73.2734 65.4233 74.3229L171.349 135.469C175.122 137.643 180.844 137.843 184.068 135.969L297.49 70.8496C298.764 70.0999 299.439 69.1504 299.439 68.1009C299.439 66.7765 298.364 65.4021 296.49 64.3526L190.59 3.20625C186.816 1.05726 181.094 0.832364 177.871 2.70649L64.4238 67.826ZM178.995 130.622C176.746 130.622 174.397 130.072 172.498 128.997L78.0174 74.4729C76.0683 73.3734 74.9689 71.8491 74.9439 70.2748C74.9439 68.9505 75.7435 67.726 77.1928 66.8764L178.545 8.85361C181.594 7.07944 186.716 7.25436 190.215 9.25342L284.696 63.7779C286.645 64.8774 287.744 66.4266 287.769 67.9759C287.769 69.3003 286.97 70.5247 285.52 71.3493L184.168 129.422C182.768 130.247 180.919 130.647 178.995 130.647V130.622ZM183.718 9.05351C182.044 9.05351 180.444 9.40335 179.27 10.078L77.9175 68.1508C77.2178 68.5506 76.3932 69.2503 76.3932 70.2748C76.3932 71.2994 77.2428 72.3738 78.7171 73.2234L173.198 127.748C176.246 129.497 180.844 129.672 183.443 128.148L284.796 70.0749C285.495 69.6751 286.32 68.9754 286.32 67.9509C286.32 66.9264 285.47 65.8519 283.996 65.0023L189.515 10.5028C187.866 9.55328 185.742 9.0785 183.718 9.0785V9.05351Z" fill="#222222"/>
<path d="M77.5651 67.5245L178.893 9.47675C181.691 7.85251 186.589 8.02743 189.863 9.87656L284.343 64.401C287.592 66.2501 287.967 69.0988 285.168 70.723L273.124 77.7448L190.712 30.192C187.464 28.3429 182.541 28.143 179.742 29.7922L90.4591 80.8183L78.3898 73.8466C75.1413 71.9974 74.7665 69.1488 77.5651 67.5245Z" fill="url(#paint4_linear_1927_14949)"/>
<path d="M90.4357 81.6436L77.9915 74.472C76.0424 73.3725 74.943 71.8482 74.918 70.274C74.918 68.9496 75.7176 67.7252 77.1669 66.8755L178.544 8.82775C181.593 7.05358 186.716 7.2285 190.214 9.22756L284.695 63.752C286.644 64.8515 287.743 66.4008 287.768 67.95C287.768 69.2744 286.969 70.4989 285.519 71.3235L273.1 78.5701L190.339 30.7925C187.29 29.0433 182.692 28.8684 180.094 30.3926L90.4357 81.6186V81.6436ZM77.9166 68.15C77.2169 68.5498 76.3923 69.2494 76.3923 70.274C76.3923 71.2985 77.2419 72.373 78.7162 73.2226L90.4357 79.9944L179.369 29.1682C182.418 27.394 187.54 27.569 191.039 29.568L273.075 76.9208L284.745 70.099C285.444 69.6992 286.269 68.9996 286.269 67.975C286.269 66.9505 285.419 65.876 283.945 65.0264L189.514 10.502C186.466 8.75278 181.868 8.57787 179.269 10.1022L77.9166 68.15Z" fill="#222222"/>
<path d="M247.314 76.5227V59.5557L210.156 80.2959L210.731 97.1381L247.314 76.5227Z" fill="#222222"/>
<path d="M210.156 80.2959L175.072 59.5557V76.3728L210.731 97.1381L210.156 80.2959Z" fill="url(#paint5_linear_1927_14949)"/>
<path d="M257.382 80.1705L248.361 73.8984L247.311 76.5222L210.729 97.9622L218.225 102.035L257.382 80.1705Z" fill="url(#paint6_linear_1927_14949)"/>
<path d="M247.313 59.5556L210.905 38.1406L175.072 59.5556L210.156 80.2959L247.313 59.5556Z" fill="url(#paint7_linear_1927_14949)"/>
<path d="M243.864 61.88L210.955 42.5391L175.146 63.954L210.23 84.6943L210.155 80.2964L243.864 61.88Z" fill="#EFCFE4"/>
<path d="M248.038 59.1548L210.881 37.29L174.348 59.1548V76.7715L210.731 97.9616L248.038 76.9465V59.1548ZM210.881 38.9643L245.864 59.5296L210.181 79.4453L176.497 59.5296L210.906 38.9393L210.881 38.9643ZM175.797 75.9469V60.829L209.456 80.7197L209.706 87.8913L209.981 95.8626L175.822 75.9469H175.797ZM211.405 95.9126L211.13 87.6165L210.906 80.7197L246.614 60.804V76.1218L211.43 95.9375L211.405 95.9126Z" fill="#222222"/>
<path d="M208.583 57.3309C205.684 57.6558 204.535 58.9552 204.535 60.6794C204.535 60.9043 204.46 60.6794 204.535 60.9043L195.814 65.1523C194.939 63.9029 194.439 62.5035 194.439 61.0542C194.439 55.6317 201.136 51.2088 209.632 50.834L208.583 57.3309Z" fill="url(#paint8_linear_1927_14949)"/>
<path d="M207.057 63.5791C208.206 64.2788 209.006 64.3038 210.83 64.3038C212.554 64.3038 213.454 64.2038 214.578 63.5791L223.674 67.4773C220.65 69.8512 216.028 71.3505 210.805 71.3505C205.233 71.3505 200.335 69.6263 197.361 66.9775L207.032 63.5791H207.057Z" fill="url(#paint9_linear_1927_14949)"/>
<path d="M217.178 60.7057C217.178 60.9806 217.278 60.4309 217.178 60.7057C217.178 58.9566 216.003 56.9075 213.08 56.5827L212.08 50.8604C220.576 51.2602 227.273 55.6831 227.273 61.0806C227.273 62.7548 226.623 64.329 225.474 65.7284L217.178 60.7057Z" fill="url(#paint10_linear_1927_14949)"/>
<path d="M205.41 58.7561L205.285 58.3563V58.2314C205.285 57.6816 205.285 55.9824 208.708 55.5826L209.258 55.5326L210.532 47.6113L209.633 47.6613C200.562 48.0861 193.74 52.7839 193.74 58.6062C193.74 60.1804 194.24 61.6797 195.24 63.1291L195.589 63.6288L204.885 59.1059L205.41 58.7561ZM203.861 57.9815L196.114 61.7547C195.514 60.7302 195.215 59.6807 195.215 58.5812C195.215 53.8084 201.137 49.7603 208.833 49.1356L208.009 54.2082C204.635 54.758 203.935 56.6821 203.861 57.9815Z" fill="#222222"/>
<path d="M214.308 60.4562C213.333 61.0059 212.559 61.0809 210.909 61.0809C209.085 61.0809 208.461 61.0559 207.511 60.4562L207.211 60.2812L196.066 64.2044L196.991 65.029C200.189 67.8777 205.412 69.6019 210.934 69.6019C216.132 69.6019 220.98 68.1276 224.228 65.5538L225.178 64.8041L214.633 60.2812L214.333 60.4562H214.308ZM222.279 65.154C219.306 67.0781 215.232 68.1526 210.884 68.1526C206.262 68.1526 201.889 66.9031 198.89 64.7542L207.011 61.9055C208.236 62.5552 209.21 62.5552 210.859 62.5552C212.509 62.5552 213.508 62.4552 214.658 61.9055L222.254 65.154H222.279Z" fill="#222222"/>
<path d="M212.157 47.6369L211.258 47.5869L212.507 54.7336L213.057 54.7835C215.531 55.0584 216.455 56.6826 216.505 58.057L216.33 58.4818L216.53 58.6068V58.9316L217.18 59.0066L225.726 64.1791L226.126 63.7044C227.425 62.1051 228.075 60.3809 228.075 58.5818C228.075 52.7595 221.253 48.0367 212.182 47.6369H212.157ZM225.351 62.28L218.08 57.8821L217.93 57.5822C217.68 55.7581 216.38 53.9339 213.782 53.4592L213.032 49.1612C220.728 49.7859 226.651 53.834 226.651 58.6068C226.651 59.8812 226.226 61.1306 225.401 62.305L225.351 62.28Z" fill="#222222"/>
<path d="M204.51 58.229C204.51 60.2031 207.358 61.8273 210.857 61.8273C214.355 61.8273 217.204 60.2281 217.204 58.229C217.204 56.7797 215.53 53.0314 213.356 52.4567C212.556 52.2568 211.806 54.6307 210.882 54.6307C209.957 54.6307 209.258 52.2068 208.433 52.4317C206.309 53.0065 204.535 56.7797 204.535 58.204L204.51 58.229Z" fill="url(#paint11_linear_1927_14949)"/>
<path d="M210.857 62.5281C206.909 62.5281 203.785 60.629 203.785 58.2051C203.785 56.6308 205.659 52.4328 208.208 51.7331C209.133 51.4832 209.707 52.3578 210.157 53.0325C210.357 53.3074 210.707 53.8321 210.857 53.9071C210.957 53.8571 211.332 53.3324 211.532 53.0575C212.006 52.3828 212.606 51.5332 213.506 51.7581C216.004 52.4078 217.904 56.4559 217.904 58.2301C217.904 60.6539 214.805 62.5531 210.832 62.5531L210.857 62.5281ZM208.483 53.1824C206.784 53.7822 205.259 57.0806 205.259 58.2301C205.259 59.5794 207.558 61.1037 210.882 61.1037C214.205 61.1037 216.504 59.6044 216.504 58.2301C216.504 57.1056 215.08 53.7822 213.306 53.2074C213.156 53.3324 212.906 53.6822 212.756 53.9071C212.281 54.6068 211.731 55.3814 210.882 55.3814C210.032 55.3814 209.457 54.5818 209.008 53.8821C208.858 53.6822 208.658 53.3324 208.508 53.2074L208.483 53.1824Z" fill="#222222"/>
<path d="M206.457 54.5076C206.457 55.882 208.431 57.0064 210.855 57.0064C213.279 57.0064 215.253 55.882 215.253 54.5076C215.253 53.1333 213.279 52.0088 210.855 52.0088C208.431 52.0088 206.457 53.1333 206.457 54.5076Z" fill="url(#paint12_linear_1927_14949)"/>
<path d="M206.506 56.282C206.506 57.6564 208.48 58.7809 210.904 58.7809C213.328 58.7809 215.302 57.6564 215.302 56.282C215.302 54.9077 213.328 53.7832 210.904 53.7832C208.48 53.7832 206.506 54.9077 206.506 56.282Z" fill="#EFCFE4"/>
<path d="M210.855 57.7302C207.981 57.7302 205.732 56.3058 205.732 54.5067C205.732 52.7075 207.981 51.2832 210.855 51.2832C213.729 51.2832 215.978 52.7075 215.978 54.5067C215.978 56.3058 213.729 57.7302 210.855 57.7302ZM210.855 52.7325C208.756 52.7325 207.182 53.6571 207.182 54.5067C207.182 55.3563 208.756 56.2809 210.855 56.2809C212.954 56.2809 214.528 55.3563 214.528 54.5067C214.528 53.6571 212.954 52.7325 210.855 52.7325Z" fill="#222222"/>
<path d="M210.855 57.0066V61.8044L213.554 61.3546L216.028 60.2801L217.178 58.2311L215.978 54.5078L213.254 56.7318L210.855 57.0066Z" fill="#120D0C"/>
<path d="M136.164 240.693L119.996 231.222V193.465L136.164 202.486V240.693ZM121.096 230.597L135.089 238.794V203.11L121.096 195.289V230.597Z" fill="#222222"/>
<path d="M122.571 195.016V229.449L135.615 236.996V239.745L120.547 230.924V193.916L122.571 195.016Z" fill="url(#paint13_linear_1927_14949)"/>
<path d="M136.164 240.694L119.996 231.223V192.991L123.095 194.69V229.124L136.139 236.671V240.694H136.164ZM121.096 230.599L135.089 238.795V237.295L122.045 229.749V195.34L121.121 194.815V230.599H121.096Z" fill="#222222"/>
<path d="M135.588 224.376V227.325L123.369 220.503V217.579L135.588 224.376Z" fill="url(#paint14_linear_1927_14949)"/>
<path d="M151.228 249.59L135.086 240.12V201.888L151.228 210.809V249.59ZM136.16 239.495L150.154 247.691V211.433L136.16 203.712V239.495Z" fill="#222222"/>
<path d="M137.635 203.912V238.346L150.704 245.892V248.641L135.611 239.82V202.812L137.635 203.912Z" fill="url(#paint15_linear_1927_14949)"/>
<path d="M151.228 249.59L135.086 240.12V201.888L138.184 203.587V238.021L151.228 245.567V249.59ZM136.16 239.495L150.154 247.691V246.192L137.11 238.645V204.237L136.185 203.712V239.495H136.16Z" fill="#222222"/>
<path d="M160.152 196.914L139.387 184.919V166.978L160.152 178.972V196.914Z" fill="url(#paint16_linear_1927_14949)"/>
<path d="M139.387 166.978L145.909 163.404L166.674 175.399L160.152 178.972L139.387 166.978Z" fill="url(#paint17_linear_1927_14949)"/>
<path d="M142.287 168.352L145.91 166.453L166.676 178.448L163.077 180.347L142.287 168.352Z" fill="#D0E1EE"/>
<path d="M160.152 196.912L166.674 193.339V175.397L160.152 178.971V196.912Z" fill="#222222"/>
<path d="M167.399 174.974L145.909 162.58L138.662 166.553V185.344L160.152 197.739L167.399 193.765V174.974ZM145.909 164.229L165.225 175.374L161.451 177.448L160.202 178.148L140.886 167.003L145.934 164.254L145.909 164.229ZM140.111 184.495V168.227L159.427 179.397V195.665L140.111 184.495ZM165.949 192.916L160.877 195.69V179.397L162.151 178.698L165.949 176.624V192.916Z" fill="#222222"/>
<path d="M156.928 187.091C156.928 190.265 154.704 191.564 151.955 189.965C149.206 188.366 146.982 184.517 146.982 181.344C146.982 178.17 149.206 176.871 151.955 178.47C154.704 180.069 156.928 183.918 156.928 187.091Z" fill="#D0E1EE"/>
<path d="M151.853 189.091C151.053 189.091 150.154 188.841 149.279 188.317C146.281 186.592 143.932 182.519 143.932 179.071C143.932 177.272 144.581 175.897 145.756 175.223C146.93 174.548 148.43 174.673 150.004 175.573C153.002 177.297 155.351 181.37 155.351 184.818C155.351 186.617 154.702 187.992 153.527 188.666C153.027 188.941 152.478 189.091 151.878 189.091H151.853ZM147.405 176.222C147.055 176.222 146.73 176.297 146.455 176.447C145.756 176.847 145.356 177.772 145.356 179.046C145.356 181.995 147.43 185.568 149.979 187.042C151.078 187.667 152.053 187.792 152.777 187.392C153.477 186.992 153.877 186.068 153.877 184.793C153.877 181.845 151.803 178.271 149.254 176.797C148.579 176.397 147.955 176.222 147.405 176.222Z" fill="#222222"/>
<path d="M183.717 8.35352V28.719L181.368 29.1188L90.4603 80.8196L77.4414 73.2231L75.7422 70.8742L76.7167 67.9756L178.894 9.47799L183.717 8.35352Z" fill="#222222"/>
<path d="M178.369 138.045V154.637L183.792 153.762L299.237 87.2434L300.912 84.6196V69.002L184.516 136.795L181.418 137.895L178.369 138.045Z" fill="#222222"/>
<path d="M256.385 216.181V172.626L191.516 210.158V253.913L256.385 216.181Z" fill="url(#paint18_linear_1927_14949)"/>
<path d="M190.965 254.862V209.858L191.24 209.708L256.909 171.701V216.505L256.634 216.655L190.965 254.887V254.862ZM192.039 210.483V252.988L255.834 215.855V173.55L192.039 210.458V210.483Z" fill="#222222"/>
<path d="M254.711 214.981V173.576L256.385 172.626V216.181L191.516 253.913V251.739L254.711 214.981Z" fill="url(#paint19_linear_1927_14949)"/>
<path d="M190.965 254.862V251.439L191.24 251.289L254.16 214.681V173.275L256.909 171.701V216.48L256.634 216.63L190.965 254.862ZM192.039 252.064V252.988L255.834 215.855V173.55L255.235 173.875V215.281L254.96 215.431L192.039 252.039V252.064Z" fill="#222222"/>
<path d="M226.326 203.708L214.57 230.477L215.897 231.059L227.653 204.291L226.326 203.708Z" fill="#222222"/>
<path d="M237.528 195.652L229.83 212.575L231.149 213.175L238.847 196.253L237.528 195.652Z" fill="#222222"/>
<path d="M246.631 199.554L237.027 219.862L238.338 220.482L247.941 200.174L246.631 199.554Z" fill="#222222"/>
<path d="M125.569 215.781L124.744 215.056L133.59 205.061L134.415 205.76L125.569 215.781Z" fill="#222222"/>
<path d="M130.574 215.054L124.764 221.691L125.572 222.399L131.382 215.762L130.574 215.054Z" fill="#222222"/>
<path d="M145.655 225.344L139.846 231.982L140.654 232.69L146.463 226.052L145.655 225.344Z" fill="#222222"/>
<path d="M14.1436 241.82V204.737L53.2253 204.812V242.095C53.3003 242.47 53.1004 242.844 52.6256 243.119L35.5086 253.115C34.6091 253.639 33.0348 253.589 31.9853 252.99L14.9683 243.044C14.3685 242.695 14.0687 242.245 14.1187 241.82H14.1436Z" fill="url(#paint20_linear_1927_14949)"/>
<path d="M34.0086 254.188C33.209 254.188 32.3594 253.988 31.6847 253.613L14.6676 243.668C13.843 243.193 13.3932 242.519 13.4432 241.794V204.012L53.9742 204.087V242.094C54.0992 242.669 53.7493 243.343 53.0247 243.743L35.9077 253.738C35.3829 254.038 34.7083 254.188 33.9836 254.188H34.0086ZM14.8925 205.461V241.869C14.8925 241.869 14.9925 242.169 15.3923 242.394L32.4093 252.339C33.209 252.789 34.5333 252.864 35.183 252.464L52.3 242.469C52.3 242.469 52.5499 242.294 52.5499 242.194V205.511L14.8925 205.436V205.461Z" fill="#222222"/>
<path d="M0.726562 207.685C0.726562 207.685 0.726562 207.66 0.726562 207.635V193.641C0.726562 193.641 5.57429 193.167 11.6215 192.592L76.3661 155.434C76.7659 155.209 77.2657 155.209 77.6905 155.434L124.469 182.147L133.264 181.997V196.115C133.239 196.515 133.015 196.915 132.615 197.165L82.7631 225.826C66.3208 235.272 46.0803 235.172 29.738 225.551L1.40125 208.859C0.976445 208.609 0.751551 208.16 0.751551 207.735L0.726562 207.685Z" fill="url(#paint21_linear_1927_14949)"/>
<path d="M56.4735 233.498C47.0779 233.498 37.7073 231.024 29.3363 226.126L0.999532 209.434C0.374824 209.059 0 208.409 0 207.685V193.291C0 193.091 0.14993 192.942 0.324848 192.917L11.3947 191.842L76.0144 154.759C76.6391 154.41 77.4137 154.41 78.0384 154.759L124.642 181.372L133.637 181.197C133.812 181.197 133.962 181.322 133.962 181.497V195.615L133.787 196.765C133.612 197.165 133.338 197.489 132.938 197.714L83.0861 226.376C74.8649 231.099 65.6442 233.473 56.4486 233.473L56.4735 233.498ZM1.44932 207.685C1.44932 207.685 1.47431 208.034 1.74918 208.209L30.0859 224.902C46.1534 234.372 66.194 234.472 82.3864 225.176L132.238 196.515C132.463 196.39 132.513 196.165 132.538 196.04V195.915V182.721L124.292 182.871L124.117 182.771L77.3388 156.059C77.1638 155.959 76.914 155.959 76.739 156.059L11.8444 193.291L1.44932 194.316V207.66L0.72466 207.71H1.44932V207.685Z" fill="#222222"/>
<path d="M132.612 183.121L82.76 211.782C66.3177 221.228 46.0772 221.128 29.7349 211.508L1.39813 194.815C0.52354 194.291 0.52354 193.016 1.39813 192.516L76.388 149.462C76.7878 149.237 77.2876 149.237 77.7124 149.462L132.612 180.822C133.511 181.322 133.511 182.621 132.612 183.121Z" fill="url(#paint22_linear_1927_14949)"/>
<path d="M56.4746 219.504C47.079 219.504 37.7084 217.03 29.3374 212.133L1.00064 195.44C0.375932 195.066 -0.0238807 194.391 0.00110756 193.666C0.00110756 192.917 0.40092 192.267 1.02563 191.892L76.0155 148.837C76.6402 148.487 77.4148 148.462 78.0395 148.837L132.939 180.198C133.589 180.572 133.963 181.222 133.963 181.972C133.963 182.721 133.589 183.371 132.939 183.746L83.0872 212.407C74.866 217.13 65.6453 219.504 56.4497 219.504H56.4746ZM77.04 150.012C77.04 150.012 76.8401 150.037 76.7401 150.087L1.75029 193.141C1.47542 193.291 1.45043 193.566 1.45043 193.666C1.45043 193.766 1.47542 194.041 1.75029 194.191L30.087 210.883C46.1545 220.354 66.2201 220.454 82.3875 211.158L132.239 182.496C132.514 182.347 132.539 182.072 132.539 181.972C132.539 181.872 132.514 181.597 132.239 181.447L77.3399 150.087C77.3399 150.087 77.14 150.012 77.04 150.012Z" fill="#222222"/>
<path d="M0.730469 187.194C0.730469 187.194 0.730469 187.169 0.730469 187.144V181.971C0.730469 181.971 5.5782 181.497 11.6254 180.922L76.37 143.764C76.7698 143.539 77.2696 143.539 77.6944 143.764L124.472 170.477L133.268 170.327V175.624C133.243 176.024 133.018 176.424 132.619 176.674L82.767 205.336C66.3247 214.781 46.0842 214.681 29.7419 205.061L1.40515 188.368C0.980352 188.119 0.755457 187.669 0.755457 187.244L0.730469 187.194Z" fill="url(#paint23_linear_1927_14949)"/>
<path d="M56.4774 213.008C47.0818 213.008 37.7112 210.534 29.3402 205.636L1.00344 188.944C0.378731 188.569 0.00390625 187.92 0.00390625 187.195V181.648C0.00390625 181.448 0.153836 181.298 0.328754 181.273L11.3986 180.198L76.0183 143.116C76.643 142.766 77.4176 142.741 78.0423 143.116L124.646 169.728L133.641 169.553C133.816 169.553 133.966 169.678 133.966 169.853V175.375L133.816 176.25C133.641 176.675 133.341 177.025 132.942 177.25L83.09 205.911C74.8688 210.634 65.6481 213.008 56.4525 213.008H56.4774ZM1.45323 187.195C1.45323 187.195 1.47822 187.545 1.75309 187.72L30.0898 204.412C46.1573 213.882 66.2229 213.982 82.3903 204.687L132.242 176.025C132.467 175.9 132.517 175.7 132.542 175.55V175.425V171.052L124.296 171.202L124.121 171.102L77.3427 144.39C77.1678 144.29 76.9179 144.29 76.7429 144.39L11.8484 181.623L1.45323 182.647V187.17L0.728567 187.22H1.45323V187.195Z" fill="#222222"/>
<path d="M132.612 171.477L82.76 200.139C66.3177 209.584 46.0772 209.484 29.7349 199.864L1.39813 183.172C0.52354 182.647 0.52354 181.373 1.39813 180.873L76.388 137.818C76.7878 137.593 77.2876 137.593 77.7124 137.818L132.612 169.178C133.511 169.678 133.511 170.978 132.612 171.477Z" fill="url(#paint24_linear_1927_14949)"/>
<path d="M82.7613 200.689L128.89 174.177L77.7136 144.966C77.3138 144.741 76.814 144.741 76.3893 144.966L5.09766 185.896L29.7361 200.415C46.0785 210.035 66.319 210.16 82.7613 200.689Z" fill="#D0E1EE"/>
<path d="M56.4746 207.836C47.079 207.836 37.7084 205.362 29.3374 200.464L1.00064 183.772C0.375932 183.397 -0.0238807 182.722 0.00110756 181.998C0.00110756 181.248 0.40092 180.598 1.02563 180.223L76.0155 137.169C76.6402 136.819 77.4148 136.819 78.0395 137.169L132.939 168.529C133.589 168.904 133.963 169.553 133.963 170.303C133.963 171.053 133.589 171.702 132.939 172.077L83.0872 200.739C74.866 205.462 65.6453 207.836 56.4497 207.836H56.4746ZM77.04 138.343C77.04 138.343 76.8401 138.368 76.7401 138.418L1.75029 181.473C1.47542 181.623 1.45043 181.898 1.45043 181.998C1.45043 182.098 1.47542 182.372 1.75029 182.522L30.087 199.215C46.1545 208.685 66.2201 208.785 82.3875 199.489L132.239 170.828C132.514 170.678 132.539 170.403 132.539 170.303C132.539 170.203 132.514 169.928 132.239 169.778L77.3399 138.418C77.3399 138.418 77.14 138.343 77.04 138.343Z" fill="#222222"/>
<path d="M18.3683 245.32L21.6667 232.426C21.8416 231.226 22.8662 230.302 24.1156 230.302C25.365 230.302 26.3895 231.226 26.5894 232.426H26.6144L29.8879 245.295C30.0128 245.77 30.0878 246.244 30.0878 246.769C30.0878 250.067 27.414 252.716 24.1406 252.716C20.8671 252.716 18.1934 250.042 18.1934 246.769C18.1934 246.269 18.2683 245.77 18.3933 245.295L18.3683 245.32Z" fill="url(#paint25_linear_1927_14949)"/>
<path d="M29.8886 245.544L26.84 233.549C26.84 233.549 26.6151 233.524 26.4902 233.524C25.2408 233.524 24.2162 234.449 24.0413 235.648L20.7429 248.542C20.6179 249.017 20.543 249.492 20.543 250.017C20.543 250.741 20.6929 251.416 20.9178 252.041C21.8424 252.64 22.9418 252.99 24.1163 252.99C27.4147 252.99 30.0635 250.317 30.0635 247.043C30.0635 246.543 29.9885 246.044 29.8636 245.569L29.8886 245.544Z" fill="#EFCFE4"/>
<path d="M24.1148 253.465C20.4416 253.465 17.443 250.466 17.443 246.793C17.443 246.543 17.443 246.293 17.4929 246.043H17.418L20.9663 232.15C20.9663 232.15 21.0163 231.95 21.0413 231.85L21.0912 231.7C21.541 230.451 22.7405 229.576 24.1148 229.576C25.5642 229.576 26.8136 230.526 27.1884 231.9L27.3133 232.25L30.8117 246.018H30.7367C30.7617 246.268 30.7867 246.518 30.7867 246.768C30.7867 250.441 27.7881 253.44 24.1148 253.44V253.465ZM19.2671 244.619L19.0672 245.494C18.9423 245.968 18.8923 246.393 18.8923 246.793C18.8923 249.667 21.2412 252.016 24.1148 252.016C26.9885 252.016 29.3374 249.667 29.3374 246.793C29.3374 246.393 29.2874 245.993 29.1625 245.494L28.9376 244.594L25.839 232.55C25.7141 231.675 24.9644 231.025 24.0898 231.025C23.2153 231.025 22.4906 231.65 22.3407 232.525L22.1907 233.149L19.2671 244.619Z" fill="#222222"/>
<path d="M26.9868 182.898C27.3866 182.898 27.7114 182.399 27.7114 181.799V140.693C27.7114 140.094 27.3866 139.594 26.9868 139.594C26.587 139.594 26.2871 140.094 26.2871 140.693V181.799C26.2871 182.399 26.612 182.898 26.9868 182.898Z" fill="url(#paint26_linear_1927_14949)"/>
<path d="M26.9868 183.622C26.1872 183.622 25.5625 182.823 25.5625 181.798V140.692C25.5625 139.668 26.1872 138.868 26.9868 138.868C27.7865 138.868 28.4112 139.668 28.4112 140.692V181.798C28.4112 182.823 27.7865 183.622 26.9868 183.622Z" fill="#222222"/>
<path d="M26.264 169.054V142.066C26.264 142.066 20.3418 143.841 20.3418 150.562V172.577L26.264 169.054Z" fill="url(#paint27_linear_1927_14949)"/>
<path d="M19.6172 173.852V150.563C19.6172 143.392 25.9892 141.393 26.0642 141.368L26.9887 141.093V169.454L19.6172 173.827V173.852ZM25.5394 143.167C23.9901 143.941 21.0665 146.015 21.0665 150.588V171.329L25.5394 168.68V143.192V143.167Z" fill="#222222"/>
<path d="M58.8481 201.014C59.2479 201.014 59.5478 200.514 59.5478 199.914V158.808C59.5478 158.209 59.2229 157.709 58.8481 157.709C58.4483 157.709 58.1484 158.209 58.1484 158.808V199.914C58.1484 200.514 58.4733 201.014 58.8481 201.014Z" fill="url(#paint28_linear_1927_14949)"/>
<path d="M58.8482 201.739C58.0485 201.739 57.4238 200.94 57.4238 199.915V158.809C57.4238 157.785 58.0485 156.985 58.8482 156.985C59.6478 156.985 60.2725 157.785 60.2725 158.809V199.915C60.2725 200.94 59.6478 201.739 58.8482 201.739Z" fill="#222222"/>
<path d="M58.1488 187.171V160.184C58.1488 160.184 52.2266 161.958 52.2266 168.68V190.694L58.1488 187.171Z" fill="url(#paint29_linear_1927_14949)"/>
<path d="M51.502 191.969V168.705C51.502 161.533 57.874 159.534 57.9489 159.509L58.8735 159.234V187.596L51.502 191.969ZM57.4242 161.283C55.8749 162.058 52.9513 164.132 52.9513 168.705V189.445L57.4242 186.796V161.308V161.283Z" fill="#222222"/>
<path d="M58.8746 218.806L58.8496 232.749L68.4201 231.6L81.0892 226.902L133.265 196.916V182.897L78.2655 214.508L67.7954 217.581L58.8746 218.806Z" fill="#222222"/>
<path d="M58.875 212.259V207.087L66.2465 206.012L76.6417 203.214L133.265 171.054V176.226L77.7162 207.836L66.9962 211.26L58.875 212.259Z" fill="#222222"/>
<path d="M33.9121 227.728V253.49L38.8098 251.217L53.253 242.621V232.7L44.1323 231.351L33.9121 227.728Z" fill="#222222"/>
<path d="M309.056 122.577L296.212 115.206C295.663 114.906 294.988 114.931 294.238 115.38L191.686 174.578C189.962 175.577 188.588 178.226 188.588 180.525V202.315C188.588 203.439 188.938 204.264 189.487 204.689C189.487 204.689 189.637 204.764 189.687 204.814L202.182 211.985L210.328 194.169L214.626 191.42L294.238 145.441C295.963 144.442 297.337 141.793 297.337 139.494V138.42L303.109 134.721L309.081 122.552L309.056 122.577Z" fill="url(#paint30_linear_1927_14949)"/>
<path d="M296.113 120.454C295.563 120.154 294.888 120.179 294.139 120.628L191.587 179.826C189.863 180.825 188.488 183.474 188.488 185.773L206.93 196.168L210.228 199.442L214.526 196.693L294.139 150.714C295.863 149.715 297.237 147.066 297.237 144.767V143.693L303.01 139.994L308.982 127.825L296.138 120.454H296.113Z" fill="#D0E1EE"/>
<path d="M202.481 213.035L189.287 205.464C189.287 205.464 189.087 205.364 188.987 205.289C188.237 204.689 187.812 203.639 187.812 202.34V180.55C187.812 178.001 189.337 175.103 191.286 173.978L293.838 114.756C294.737 114.231 295.662 114.156 296.437 114.531L296.562 114.581L309.006 121.728C309.555 122.053 309.755 122.727 309.48 123.302L303.633 135.246L298.036 138.845V139.544C298.036 142.093 296.512 144.992 294.562 146.116L214.95 192.095L210.852 194.719L202.481 213.06V213.035ZM295.412 115.756C295.112 115.756 294.812 115.881 294.562 116.03L192.011 175.228C190.511 176.077 189.262 178.526 189.262 180.55V202.34C189.262 203.19 189.487 203.839 189.887 204.164L201.831 211.011L209.727 193.719L214.2 190.845L293.838 144.867C295.337 144.017 296.587 141.568 296.587 139.544V138.07L302.509 134.272L308.081 122.877L296.312 116.13L296.262 116.18L295.837 115.881C295.687 115.806 295.537 115.781 295.387 115.781L295.412 115.756Z" fill="#222222"/>
<path d="M306.908 152.736L204.356 211.933C202.632 212.932 201.258 211.883 201.258 209.584V187.794C201.258 185.495 202.657 182.846 204.356 181.847L306.908 122.65C308.632 121.65 310.007 122.7 310.007 124.999V146.788C310.007 149.087 308.608 151.736 306.908 152.736Z" fill="#130E0C"/>
<path d="M203.105 213.033C202.705 213.033 202.305 212.933 201.956 212.733C201.031 212.208 200.531 211.059 200.531 209.585V187.795C200.531 185.246 202.056 182.347 204.005 181.223L306.557 122.001C307.531 121.426 308.506 121.376 309.305 121.826C310.23 122.351 310.73 123.5 310.73 124.974V146.764C310.73 149.313 309.205 152.212 307.256 153.336L204.704 212.533C204.155 212.858 203.63 213.008 203.105 213.008V213.033ZM308.131 123C307.831 123 307.506 123.125 307.256 123.275L204.704 182.472C203.205 183.322 201.956 185.771 201.956 187.795V209.585C201.956 210.509 202.23 211.209 202.68 211.484C203.105 211.734 203.63 211.534 203.98 211.309L306.532 152.087C308.031 151.237 309.28 148.788 309.28 146.764V124.974C309.28 124.05 309.005 123.35 308.556 123.075C308.406 123 308.256 122.95 308.106 122.95L308.131 123Z" fill="#222222"/>
<path d="M194.887 254.089L199.135 237.497C199.385 235.948 200.684 234.773 202.309 234.773C203.933 234.773 205.257 235.973 205.482 237.522H205.532L209.73 254.089C209.88 254.689 210.005 255.314 210.005 255.989C210.005 260.212 206.582 263.66 202.334 263.66C198.086 263.66 194.662 260.237 194.662 255.989C194.662 255.339 194.762 254.714 194.937 254.089H194.887Z" fill="url(#paint31_linear_1927_14949)"/>
<path d="M202.283 264.386C197.66 264.386 193.887 260.612 193.887 255.99C193.887 255.615 193.912 255.215 193.987 254.815H193.937L198.435 237.198C198.46 237.073 198.485 236.948 198.535 236.823V236.774C199.059 235.174 200.559 234.05 202.283 234.05C204.007 234.05 205.631 235.274 206.081 236.998L206.206 237.348L210.629 254.815H210.579C210.654 255.215 210.679 255.615 210.679 255.99C210.679 260.612 206.906 264.386 202.283 264.386ZM195.786 253.391L195.586 254.29C195.411 254.94 195.336 255.465 195.336 256.014C195.336 259.838 198.46 262.961 202.283 262.961C206.106 262.961 209.23 259.838 209.23 256.014C209.23 255.49 209.155 254.94 208.98 254.29L208.755 253.391L204.732 237.648C204.557 236.424 203.507 235.524 202.283 235.524C201.058 235.524 200.009 236.424 199.834 237.648L199.659 238.273L195.786 253.416V253.391Z" fill="#222222"/>
<defs>
<linearGradient id="paint0_linear_1927_14949" x1="77.5859" y1="284.487" x2="316.611" y2="159.621" gradientUnits="userSpaceOnUse">
<stop stop-color="#FFB6D5"/>
<stop offset="0.1" stop-color="#FFE3C0"/>
<stop offset="0.29" stop-color="#C7FBDB"/>
<stop offset="0.43" stop-color="#C7CDF4"/>
<stop offset="0.54" stop-color="#FFBCD4"/>
<stop offset="0.66" stop-color="#FFE0C3"/>
<stop offset="0.76" stop-color="#B0F1D4"/>
<stop offset="0.84" stop-color="#C9CEEC"/>
<stop offset="0.91" stop-color="#FFC1DA"/>
<stop offset="1" stop-color="#BDFFE3"/>
</linearGradient>
<linearGradient id="paint1_linear_1927_14949" x1="77.519" y1="178.655" x2="290.069" y2="39.364" gradientUnits="userSpaceOnUse">
<stop stop-color="#FFB6D5"/>
<stop offset="0.1" stop-color="#FFE3C0"/>
<stop offset="0.29" stop-color="#C7FBDB"/>
<stop offset="0.43" stop-color="#C7CDF4"/>
<stop offset="0.54" stop-color="#FFBCD4"/>
<stop offset="0.66" stop-color="#FFE0C3"/>
<stop offset="0.76" stop-color="#B0F1D4"/>
<stop offset="0.84" stop-color="#C9CEEC"/>
<stop offset="0.91" stop-color="#FFC1DA"/>
<stop offset="1" stop-color="#BDFFE3"/>
</linearGradient>
<linearGradient id="paint2_linear_1927_14949" x1="77.5305" y1="163.805" x2="222.798" y2="12.0551" gradientUnits="userSpaceOnUse">
<stop stop-color="#FFB6D5"/>
<stop offset="0.1" stop-color="#FFE3C0"/>
<stop offset="0.29" stop-color="#C7FBDB"/>
<stop offset="0.43" stop-color="#C7CDF4"/>
<stop offset="0.54" stop-color="#FFBCD4"/>
<stop offset="0.66" stop-color="#FFE0C3"/>
<stop offset="0.76" stop-color="#B0F1D4"/>
<stop offset="0.84" stop-color="#C9CEEC"/>
<stop offset="0.91" stop-color="#FFC1DA"/>
<stop offset="1" stop-color="#BDFFE3"/>
</linearGradient>
<linearGradient id="paint3_linear_1927_14949" x1="77.519" y1="152.74" x2="290.069" y2="13.4499" gradientUnits="userSpaceOnUse">
<stop stop-color="#FFB6D5"/>
<stop offset="0.1" stop-color="#FFE3C0"/>
<stop offset="0.29" stop-color="#C7FBDB"/>
<stop offset="0.43" stop-color="#C7CDF4"/>
<stop offset="0.54" stop-color="#FFBCD4"/>
<stop offset="0.66" stop-color="#FFE0C3"/>
<stop offset="0.76" stop-color="#B0F1D4"/>
<stop offset="0.84" stop-color="#C9CEEC"/>
<stop offset="0.91" stop-color="#FFC1DA"/>
<stop offset="1" stop-color="#BDFFE3"/>
</linearGradient>
<linearGradient id="paint4_linear_1927_14949" x1="89.6627" y1="88.6079" x2="211.463" y2="-45.4435" gradientUnits="userSpaceOnUse">
<stop stop-color="#FFB6D5"/>
<stop offset="0.1" stop-color="#FFE3C0"/>
<stop offset="0.29" stop-color="#C7FBDB"/>
<stop offset="0.43" stop-color="#C7CDF4"/>
<stop offset="0.54" stop-color="#FFBCD4"/>
<stop offset="0.66" stop-color="#FFE0C3"/>
<stop offset="0.76" stop-color="#B0F1D4"/>
<stop offset="0.84" stop-color="#C9CEEC"/>
<stop offset="0.91" stop-color="#FFC1DA"/>
<stop offset="1" stop-color="#BDFFE3"/>
</linearGradient>
<linearGradient id="paint5_linear_1927_14949" x1="177.43" y1="101.179" x2="217.709" y2="86.7604" gradientUnits="userSpaceOnUse">
<stop stop-color="#FFB6D5"/>
<stop offset="0.1" stop-color="#FFE3C0"/>
<stop offset="0.29" stop-color="#C7FBDB"/>
<stop offset="0.43" stop-color="#C7CDF4"/>
<stop offset="0.54" stop-color="#FFBCD4"/>
<stop offset="0.66" stop-color="#FFE0C3"/>
<stop offset="0.76" stop-color="#B0F1D4"/>
<stop offset="0.84" stop-color="#C9CEEC"/>
<stop offset="0.91" stop-color="#FFC1DA"/>
<stop offset="1" stop-color="#BDFFE3"/>
</linearGradient>
<linearGradient id="paint6_linear_1927_14949" x1="213.813" y1="105.06" x2="256.543" y2="78.3306" gradientUnits="userSpaceOnUse">
<stop stop-color="#FFB6D5"/>
<stop offset="0.1" stop-color="#FFE3C0"/>
<stop offset="0.29" stop-color="#C7FBDB"/>
<stop offset="0.43" stop-color="#C7CDF4"/>
<stop offset="0.54" stop-color="#FFBCD4"/>
<stop offset="0.66" stop-color="#FFE0C3"/>
<stop offset="0.76" stop-color="#B0F1D4"/>
<stop offset="0.84" stop-color="#C9CEEC"/>
<stop offset="0.91" stop-color="#FFC1DA"/>
<stop offset="1" stop-color="#BDFFE3"/>
</linearGradient>
<linearGradient id="paint7_linear_1927_14949" x1="179.849" y1="84.8281" x2="244.769" y2="42.8547" gradientUnits="userSpaceOnUse">
<stop stop-color="#FFB6D5"/>
<stop offset="0.1" stop-color="#FFE3C0"/>
<stop offset="0.29" stop-color="#C7FBDB"/>
<stop offset="0.43" stop-color="#C7CDF4"/>
<stop offset="0.54" stop-color="#FFBCD4"/>
<stop offset="0.66" stop-color="#FFE0C3"/>
<stop offset="0.76" stop-color="#B0F1D4"/>
<stop offset="0.84" stop-color="#C9CEEC"/>
<stop offset="0.91" stop-color="#FFC1DA"/>
<stop offset="1" stop-color="#BDFFE3"/>
</linearGradient>
<linearGradient id="paint8_linear_1927_14949" x1="195.444" y1="66.6917" x2="212.13" y2="60.0118" gradientUnits="userSpaceOnUse">
<stop stop-color="#FFB6D5"/>
<stop offset="0.1" stop-color="#FFE3C0"/>
<stop offset="0.29" stop-color="#C7FBDB"/>
<stop offset="0.43" stop-color="#C7CDF4"/>
<stop offset="0.54" stop-color="#FFBCD4"/>
<stop offset="0.66" stop-color="#FFE0C3"/>
<stop offset="0.76" stop-color="#B0F1D4"/>
<stop offset="0.84" stop-color="#C9CEEC"/>
<stop offset="0.91" stop-color="#FFC1DA"/>
<stop offset="1" stop-color="#BDFFE3"/>
</linearGradient>
<linearGradient id="paint9_linear_1927_14949" x1="199.101" y1="72.186" x2="211.842" y2="55.911" gradientUnits="userSpaceOnUse">
<stop stop-color="#FFB6D5"/>
<stop offset="0.1" stop-color="#FFE3C0"/>
<stop offset="0.29" stop-color="#C7FBDB"/>
<stop offset="0.43" stop-color="#C7CDF4"/>
<stop offset="0.54" stop-color="#FFBCD4"/>
<stop offset="0.66" stop-color="#FFE0C3"/>
<stop offset="0.76" stop-color="#B0F1D4"/>
<stop offset="0.84" stop-color="#C9CEEC"/>
<stop offset="0.91" stop-color="#FFC1DA"/>
<stop offset="1" stop-color="#BDFFE3"/>
</linearGradient>
<linearGradient id="paint10_linear_1927_14949" x1="213.085" y1="67.3269" x2="229.94" y2="60.8288" gradientUnits="userSpaceOnUse">
<stop stop-color="#FFB6D5"/>
<stop offset="0.1" stop-color="#FFE3C0"/>
<stop offset="0.29" stop-color="#C7FBDB"/>
<stop offset="0.43" stop-color="#C7CDF4"/>
<stop offset="0.54" stop-color="#FFBCD4"/>
<stop offset="0.66" stop-color="#FFE0C3"/>
<stop offset="0.76" stop-color="#B0F1D4"/>
<stop offset="0.84" stop-color="#C9CEEC"/>
<stop offset="0.91" stop-color="#FFC1DA"/>
<stop offset="1" stop-color="#BDFFE3"/>
</linearGradient>
<linearGradient id="paint11_linear_1927_14949" x1="205.349" y1="62.8391" x2="218.197" y2="56.3002" gradientUnits="userSpaceOnUse">
<stop stop-color="#FFB6D5"/>
<stop offset="0.1" stop-color="#FFE3C0"/>
<stop offset="0.29" stop-color="#C7FBDB"/>
<stop offset="0.43" stop-color="#C7CDF4"/>
<stop offset="0.54" stop-color="#FFBCD4"/>
<stop offset="0.66" stop-color="#FFE0C3"/>
<stop offset="0.76" stop-color="#B0F1D4"/>
<stop offset="0.84" stop-color="#C9CEEC"/>
<stop offset="0.91" stop-color="#FFC1DA"/>
<stop offset="1" stop-color="#BDFFE3"/>
</linearGradient>
<linearGradient id="paint12_linear_1927_14949" x1="207.039" y1="57.5438" x2="214.818" y2="52.3785" gradientUnits="userSpaceOnUse">
<stop stop-color="#FFB6D5"/>
<stop offset="0.1" stop-color="#FFE3C0"/>
<stop offset="0.29" stop-color="#C7FBDB"/>
<stop offset="0.43" stop-color="#C7CDF4"/>
<stop offset="0.54" stop-color="#FFBCD4"/>
<stop offset="0.66" stop-color="#FFE0C3"/>
<stop offset="0.76" stop-color="#B0F1D4"/>
<stop offset="0.84" stop-color="#C9CEEC"/>
<stop offset="0.91" stop-color="#FFC1DA"/>
<stop offset="1" stop-color="#BDFFE3"/>
</linearGradient>
<linearGradient id="paint13_linear_1927_14949" x1="121.543" y1="244.672" x2="140.453" y2="242.326" gradientUnits="userSpaceOnUse">
<stop stop-color="#FFB6D5"/>
<stop offset="0.1" stop-color="#FFE3C0"/>
<stop offset="0.29" stop-color="#C7FBDB"/>
<stop offset="0.43" stop-color="#C7CDF4"/>
<stop offset="0.54" stop-color="#FFBCD4"/>
<stop offset="0.66" stop-color="#FFE0C3"/>
<stop offset="0.76" stop-color="#B0F1D4"/>
<stop offset="0.84" stop-color="#C9CEEC"/>
<stop offset="0.91" stop-color="#FFC1DA"/>
<stop offset="1" stop-color="#BDFFE3"/>
</linearGradient>
<linearGradient id="paint14_linear_1927_14949" x1="124.177" y1="228.372" x2="136.901" y2="222.353" gradientUnits="userSpaceOnUse">
<stop stop-color="#FFB6D5"/>
<stop offset="0.1" stop-color="#FFE3C0"/>
<stop offset="0.29" stop-color="#C7FBDB"/>
<stop offset="0.43" stop-color="#C7CDF4"/>
<stop offset="0.54" stop-color="#FFBCD4"/>
<stop offset="0.66" stop-color="#FFE0C3"/>
<stop offset="0.76" stop-color="#B0F1D4"/>
<stop offset="0.84" stop-color="#C9CEEC"/>
<stop offset="0.91" stop-color="#FFC1DA"/>
<stop offset="1" stop-color="#BDFFE3"/>
</linearGradient>
<linearGradient id="paint15_linear_1927_14949" x1="136.609" y1="253.568" x2="155.55" y2="251.215" gradientUnits="userSpaceOnUse">
<stop stop-color="#FFB6D5"/>
<stop offset="0.1" stop-color="#FFE3C0"/>
<stop offset="0.29" stop-color="#C7FBDB"/>
<stop offset="0.43" stop-color="#C7CDF4"/>
<stop offset="0.54" stop-color="#FFBCD4"/>
<stop offset="0.66" stop-color="#FFE0C3"/>
<stop offset="0.76" stop-color="#B0F1D4"/>
<stop offset="0.84" stop-color="#C9CEEC"/>
<stop offset="0.91" stop-color="#FFC1DA"/>
<stop offset="1" stop-color="#BDFFE3"/>
</linearGradient>
<linearGradient id="paint16_linear_1927_14949" x1="140.76" y1="200.132" x2="165.525" y2="193.651" gradientUnits="userSpaceOnUse">
<stop stop-color="#FFB6D5"/>
<stop offset="0.1" stop-color="#FFE3C0"/>
<stop offset="0.29" stop-color="#C7FBDB"/>
<stop offset="0.43" stop-color="#C7CDF4"/>
<stop offset="0.54" stop-color="#FFBCD4"/>
<stop offset="0.66" stop-color="#FFE0C3"/>
<stop offset="0.76" stop-color="#B0F1D4"/>
<stop offset="0.84" stop-color="#C9CEEC"/>
<stop offset="0.91" stop-color="#FFC1DA"/>
<stop offset="1" stop-color="#BDFFE3"/>
</linearGradient>
<linearGradient id="paint17_linear_1927_14949" x1="141.191" y1="180.646" x2="165.384" y2="164.647" gradientUnits="userSpaceOnUse">
<stop stop-color="#FFB6D5"/>
<stop offset="0.1" stop-color="#FFE3C0"/>
<stop offset="0.29" stop-color="#C7FBDB"/>
<stop offset="0.43" stop-color="#C7CDF4"/>
<stop offset="0.54" stop-color="#FFBCD4"/>
<stop offset="0.66" stop-color="#FFE0C3"/>
<stop offset="0.76" stop-color="#B0F1D4"/>
<stop offset="0.84" stop-color="#C9CEEC"/>
<stop offset="0.91" stop-color="#FFC1DA"/>
<stop offset="1" stop-color="#BDFFE3"/>
</linearGradient>
<linearGradient id="paint18_linear_1927_14949" x1="195.805" y1="262.652" x2="271.598" y2="239.832" gradientUnits="userSpaceOnUse">
<stop stop-color="#FFB6D5"/>
<stop offset="0.1" stop-color="#FFE3C0"/>
<stop offset="0.29" stop-color="#C7FBDB"/>
<stop offset="0.43" stop-color="#C7CDF4"/>
<stop offset="0.54" stop-color="#FFBCD4"/>
<stop offset="0.66" stop-color="#FFE0C3"/>
<stop offset="0.76" stop-color="#B0F1D4"/>
<stop offset="0.84" stop-color="#C9CEEC"/>
<stop offset="0.91" stop-color="#FFC1DA"/>
<stop offset="1" stop-color="#BDFFE3"/>
</linearGradient>
<linearGradient id="paint19_linear_1927_14949" x1="195.805" y1="262.652" x2="271.598" y2="239.832" gradientUnits="userSpaceOnUse">
<stop stop-color="#FFB6D5"/>
<stop offset="0.1" stop-color="#FFE3C0"/>
<stop offset="0.29" stop-color="#C7FBDB"/>
<stop offset="0.43" stop-color="#C7CDF4"/>
<stop offset="0.54" stop-color="#FFBCD4"/>
<stop offset="0.66" stop-color="#FFE0C3"/>
<stop offset="0.76" stop-color="#B0F1D4"/>
<stop offset="0.84" stop-color="#C9CEEC"/>
<stop offset="0.91" stop-color="#FFC1DA"/>
<stop offset="1" stop-color="#BDFFE3"/>
</linearGradient>
<linearGradient id="paint20_linear_1927_14949" x1="16.7004" y1="258.716" x2="62.3712" y2="244.884" gradientUnits="userSpaceOnUse">
<stop stop-color="#FFB6D5"/>
<stop offset="0.1" stop-color="#FFE3C0"/>
<stop offset="0.29" stop-color="#C7FBDB"/>
<stop offset="0.43" stop-color="#C7CDF4"/>
<stop offset="0.54" stop-color="#FFBCD4"/>
<stop offset="0.66" stop-color="#FFE0C3"/>
<stop offset="0.76" stop-color="#B0F1D4"/>
<stop offset="0.84" stop-color="#C9CEEC"/>
<stop offset="0.91" stop-color="#FFC1DA"/>
<stop offset="1" stop-color="#BDFFE3"/>
</linearGradient>
<linearGradient id="paint21_linear_1927_14949" x1="9.49009" y1="241.179" x2="128.807" y2="164.268" gradientUnits="userSpaceOnUse">
<stop stop-color="#FFB6D5"/>
<stop offset="0.1" stop-color="#FFE3C0"/>
<stop offset="0.29" stop-color="#C7FBDB"/>
<stop offset="0.43" stop-color="#C7CDF4"/>
<stop offset="0.54" stop-color="#FFBCD4"/>
<stop offset="0.66" stop-color="#FFE0C3"/>
<stop offset="0.76" stop-color="#B0F1D4"/>
<stop offset="0.84" stop-color="#C9CEEC"/>
<stop offset="0.91" stop-color="#FFC1DA"/>
<stop offset="1" stop-color="#BDFFE3"/>
</linearGradient>
<linearGradient id="paint22_linear_1927_14949" x1="9.50613" y1="226.268" x2="120.797" y2="146.195" gradientUnits="userSpaceOnUse">
<stop stop-color="#FFB6D5"/>
<stop offset="0.1" stop-color="#FFE3C0"/>
<stop offset="0.29" stop-color="#C7FBDB"/>
<stop offset="0.43" stop-color="#C7CDF4"/>
<stop offset="0.54" stop-color="#FFBCD4"/>
<stop offset="0.66" stop-color="#FFE0C3"/>
<stop offset="0.76" stop-color="#B0F1D4"/>
<stop offset="0.84" stop-color="#C9CEEC"/>
<stop offset="0.91" stop-color="#FFC1DA"/>
<stop offset="1" stop-color="#BDFFE3"/>
</linearGradient>
<linearGradient id="paint23_linear_1927_14949" x1="9.494" y1="219.74" x2="119.957" y2="139.401" gradientUnits="userSpaceOnUse">
<stop stop-color="#FFB6D5"/>
<stop offset="0.1" stop-color="#FFE3C0"/>
<stop offset="0.29" stop-color="#C7FBDB"/>
<stop offset="0.43" stop-color="#C7CDF4"/>
<stop offset="0.54" stop-color="#FFBCD4"/>
<stop offset="0.66" stop-color="#FFE0C3"/>
<stop offset="0.76" stop-color="#B0F1D4"/>
<stop offset="0.84" stop-color="#C9CEEC"/>
<stop offset="0.91" stop-color="#FFC1DA"/>
<stop offset="1" stop-color="#BDFFE3"/>
</linearGradient>
<linearGradient id="paint24_linear_1927_14949" x1="9.50613" y1="214.624" x2="120.797" y2="134.552" gradientUnits="userSpaceOnUse">
<stop stop-color="#FFB6D5"/>
<stop offset="0.1" stop-color="#FFE3C0"/>
<stop offset="0.29" stop-color="#C7FBDB"/>
<stop offset="0.43" stop-color="#C7CDF4"/>
<stop offset="0.54" stop-color="#FFBCD4"/>
<stop offset="0.66" stop-color="#FFE0C3"/>
<stop offset="0.76" stop-color="#B0F1D4"/>
<stop offset="0.84" stop-color="#C9CEEC"/>
<stop offset="0.91" stop-color="#FFC1DA"/>
<stop offset="1" stop-color="#BDFFE3"/>
</linearGradient>
<linearGradient id="paint25_linear_1927_14949" x1="18.9798" y1="255.126" x2="33.5529" y2="252.208" gradientUnits="userSpaceOnUse">
<stop stop-color="#FFB6D5"/>
<stop offset="0.1" stop-color="#FFE3C0"/>
<stop offset="0.29" stop-color="#C7FBDB"/>
<stop offset="0.43" stop-color="#C7CDF4"/>
<stop offset="0.54" stop-color="#FFBCD4"/>
<stop offset="0.66" stop-color="#FFE0C3"/>
<stop offset="0.76" stop-color="#B0F1D4"/>
<stop offset="0.84" stop-color="#C9CEEC"/>
<stop offset="0.91" stop-color="#FFC1DA"/>
<stop offset="1" stop-color="#BDFFE3"/>
</linearGradient>
<linearGradient id="paint26_linear_1927_14949" x1="26.3813" y1="187.554" x2="28.196" y2="187.532" gradientUnits="userSpaceOnUse">
<stop stop-color="#FFB6D5"/>
<stop offset="0.1" stop-color="#FFE3C0"/>
<stop offset="0.29" stop-color="#C7FBDB"/>
<stop offset="0.43" stop-color="#C7CDF4"/>
<stop offset="0.54" stop-color="#FFBCD4"/>
<stop offset="0.66" stop-color="#FFE0C3"/>
<stop offset="0.76" stop-color="#B0F1D4"/>
<stop offset="0.84" stop-color="#C9CEEC"/>
<stop offset="0.91" stop-color="#FFC1DA"/>
<stop offset="1" stop-color="#BDFFE3"/>
</linearGradient>
<linearGradient id="paint27_linear_1927_14949" x1="20.7334" y1="175.857" x2="28.2399" y2="175.308" gradientUnits="userSpaceOnUse">
<stop stop-color="#FFB6D5"/>
<stop offset="0.1" stop-color="#FFE3C0"/>
<stop offset="0.29" stop-color="#C7FBDB"/>
<stop offset="0.43" stop-color="#C7CDF4"/>
<stop offset="0.54" stop-color="#FFBCD4"/>
<stop offset="0.66" stop-color="#FFE0C3"/>
<stop offset="0.76" stop-color="#B0F1D4"/>
<stop offset="0.84" stop-color="#C9CEEC"/>
<stop offset="0.91" stop-color="#FFC1DA"/>
<stop offset="1" stop-color="#BDFFE3"/>
</linearGradient>
<linearGradient id="paint28_linear_1927_14949" x1="58.241" y1="205.67" x2="60.0239" y2="205.648" gradientUnits="userSpaceOnUse">
<stop stop-color="#FFB6D5"/>
<stop offset="0.1" stop-color="#FFE3C0"/>
<stop offset="0.29" stop-color="#C7FBDB"/>
<stop offset="0.43" stop-color="#C7CDF4"/>
<stop offset="0.54" stop-color="#FFBCD4"/>
<stop offset="0.66" stop-color="#FFE0C3"/>
<stop offset="0.76" stop-color="#B0F1D4"/>
<stop offset="0.84" stop-color="#C9CEEC"/>
<stop offset="0.91" stop-color="#FFC1DA"/>
<stop offset="1" stop-color="#BDFFE3"/>
</linearGradient>
<linearGradient id="paint29_linear_1927_14949" x1="52.6181" y1="193.975" x2="60.1246" y2="193.425" gradientUnits="userSpaceOnUse">
<stop stop-color="#FFB6D5"/>
<stop offset="0.1" stop-color="#FFE3C0"/>
<stop offset="0.29" stop-color="#C7FBDB"/>
<stop offset="0.43" stop-color="#C7CDF4"/>
<stop offset="0.54" stop-color="#FFBCD4"/>
<stop offset="0.66" stop-color="#FFE0C3"/>
<stop offset="0.76" stop-color="#B0F1D4"/>
<stop offset="0.84" stop-color="#C9CEEC"/>
<stop offset="0.91" stop-color="#FFC1DA"/>
<stop offset="1" stop-color="#BDFFE3"/>
</linearGradient>
<linearGradient id="paint30_linear_1927_14949" x1="196.555" y1="222.412" x2="322.44" y2="163.402" gradientUnits="userSpaceOnUse">
<stop stop-color="#FFB6D5"/>
<stop offset="0.1" stop-color="#FFE3C0"/>
<stop offset="0.29" stop-color="#C7FBDB"/>
<stop offset="0.43" stop-color="#C7CDF4"/>
<stop offset="0.54" stop-color="#FFBCD4"/>
<stop offset="0.66" stop-color="#FFE0C3"/>
<stop offset="0.76" stop-color="#B0F1D4"/>
<stop offset="0.84" stop-color="#C9CEEC"/>
<stop offset="0.91" stop-color="#FFC1DA"/>
<stop offset="1" stop-color="#BDFFE3"/>
</linearGradient>
<linearGradient id="paint31_linear_1927_14949" x1="195.677" y1="266.766" x2="214.473" y2="262.999" gradientUnits="userSpaceOnUse">
<stop stop-color="#FFB6D5"/>
<stop offset="0.1" stop-color="#FFE3C0"/>
<stop offset="0.29" stop-color="#C7FBDB"/>
<stop offset="0.43" stop-color="#C7CDF4"/>
<stop offset="0.54" stop-color="#FFBCD4"/>
<stop offset="0.66" stop-color="#FFE0C3"/>
<stop offset="0.76" stop-color="#B0F1D4"/>
<stop offset="0.84" stop-color="#C9CEEC"/>
<stop offset="0.91" stop-color="#FFC1DA"/>
<stop offset="1" stop-color="#BDFFE3"/>
</linearGradient>
</defs>
</svg>
