<svg width="246" height="227" viewBox="0 0 246 227" fill="none" xmlns="http://www.w3.org/2000/svg">
<rect x="2" y="1" width="236" height="217" rx="9" fill="white" fill-opacity="0.3" stroke="white" stroke-width="2"/>
<g opacity="0.13" filter="url(#filter0_d_639_34949)">
<rect x="1" width="238" height="219" rx="10" fill="url(#paint0_linear_639_34949)"/>
</g>
<mask id="mask0_639_34949" style="mask-type:alpha" maskUnits="userSpaceOnUse" x="2" y="0" width="238" height="219">
<rect x="2" width="238" height="219" rx="10" fill="url(#paint1_linear_639_34949)"/>
</mask>
<g mask="url(#mask0_639_34949)">
<path d="M23.2887 158.642C23.2891 158.642 23.2894 158.642 23.2897 158.642C27.6492 160.942 32.7249 162.773 38.1998 164.339C38.6742 164.475 39.1656 164.573 39.6665 164.639C43.0079 165.081 46.24 165.624 49.3016 166.325C49.3671 166.335 49.4052 166.245 49.3447 166.224C44.6394 164.549 40.2981 162.663 36.546 160.433C13.9103 146.976 3.76905 113.412 -25.7938 106.897C-36.7249 104.488 -48.1078 106.263 -59.5705 109.564C-53.4265 108.488 -47.2899 108.247 -41.1912 109.313C-12.0654 114.407 0.336519 146.53 23.2878 158.641C23.2881 158.642 23.2884 158.642 23.2887 158.642Z" fill="#222222"/>
<path d="M106.09 255.611C106.09 255.611 106.089 255.611 106.089 255.612C106.957 259.311 108.792 263.074 111.175 266.884C111.249 267.003 111.337 267.114 111.437 267.216C113.441 269.268 115.278 271.343 116.851 273.449C116.926 273.531 117.087 273.428 117.04 273.329C115.475 270.074 114.334 266.87 113.852 263.739C110.482 241.827 135.136 213.105 120.841 194.001C115.649 187.062 106.204 182.576 95.1562 179.008C100.185 181.311 104.433 184.12 107.491 187.702C122.802 205.634 101.141 234.505 106.09 255.611C106.09 255.611 106.09 255.612 106.09 255.611Z" fill="#222222"/>
<path d="M95.1558 179.006C90.6773 176.955 85.58 175.306 80.1484 173.871C81.6457 174.437 83.0851 175.045 84.457 175.703C85.0314 175.978 85.6339 176.211 86.2657 176.383C89.3061 177.213 92.2852 178.079 95.1558 179.006Z" fill="#222222"/>
<path d="M80.1475 173.871C75.5184 172.122 70.3329 170.779 64.8625 169.643C66.4009 170.107 67.8869 170.614 69.3134 171.171C69.8347 171.374 70.3752 171.543 70.9352 171.667C74.0748 172.358 77.1609 173.082 80.1475 173.871Z" fill="#222222"/>
<path d="M-2.5922 157.185C-2.59212 157.185 -2.59189 157.185 -2.59171 157.185C3.95064 159.86 11.8095 161.44 20.1242 162.637C23.1484 162.804 26.1182 163.026 28.9958 163.345C22.0986 161.893 15.6587 160.101 10.2218 157.567C-12.9121 146.785 -27.3788 116.176 -55.9453 112.447C-60.3232 111.875 -64.6667 111.983 -68.9798 112.591C-69.0794 112.605 -69.1784 112.629 -69.2752 112.662C-69.6032 112.775 -69.9312 112.888 -70.2591 113.003C-71.6973 113.503 -71.4483 116.125 -70.003 116.251C-42.1091 118.681 -25.7776 147.705 -2.59269 157.185C-2.59251 157.185 -2.59227 157.185 -2.5922 157.185Z" fill="#222222"/>
<path d="M88.9693 241.166C88.9697 241.166 88.9699 241.166 88.97 241.166C90.9585 246.124 94.8966 251.044 99.5513 255.98C101.592 257.683 103.545 259.405 105.338 261.155C101.911 256.764 99.1423 252.406 97.7722 248.08C91.3616 227.837 110.097 198.972 93.9068 182.234C91.5938 179.843 88.7215 177.86 85.4306 176.184C85.3538 176.145 85.2718 176.114 85.1859 176.091C84.0438 175.783 82.8939 175.48 81.7386 175.18C80.6505 174.898 79.3999 176.888 80.1766 177.6C97.1089 193.13 81.2192 221.839 88.9687 241.165C88.9688 241.165 88.969 241.166 88.9693 241.166Z" fill="#222222"/>
<path d="M53.8566 167.528C54.3088 167.666 54.7727 167.779 55.2485 167.859C58.5127 168.411 61.7343 168.993 64.8625 169.643C60.3869 168.29 55.4752 167.296 50.3395 166.485C50.289 166.477 50.2603 166.544 50.3074 166.56C51.5205 166.855 52.7046 167.177 53.8566 167.528Z" fill="#222222"/>
<path d="M73.6632 173.132C73.6625 173.132 73.6619 173.131 73.6613 173.131C72.5501 172.553 71.3863 172.017 70.1773 171.519C70.1205 171.496 70.0608 171.477 69.9991 171.464C66.0642 170.608 62.054 169.801 58.0627 168.98C58.0458 168.976 58.0348 168.999 58.0504 169.006C63.1012 170.472 68.3797 171.804 73.6632 173.132Z" fill="#222222"/>
<path d="M38.522 164.897C39.5614 165.021 40.5976 165.146 41.6294 165.275C40.9571 165.1 40.29 164.922 39.628 164.74C39.1515 164.609 38.6615 164.509 38.1596 164.447C36.5967 164.256 35.0127 164.085 33.4118 163.928C35.1637 164.2 36.8699 164.52 38.521 164.897L38.522 164.897Z" fill="#222222"/>
<path d="M45.9926 166.357C47.3673 166.577 48.743 166.796 50.116 167.017C50.3958 167.062 50.5684 166.652 50.3079 166.562C49.9748 166.48 49.6396 166.402 49.3025 166.325C46.7864 165.941 44.2206 165.598 41.6307 165.275C43.065 165.649 44.5211 166.009 45.9936 166.357L45.9926 166.357Z" fill="#222222"/>
<path d="M57.7138 168.908C57.7142 168.908 57.7146 168.908 57.715 168.908C57.7166 168.908 57.7182 168.908 57.7199 168.909C57.7399 168.913 57.7527 168.886 57.7343 168.879C56.7024 168.47 55.6363 168.092 54.5395 167.743C54.5349 167.741 54.5302 167.74 54.5253 167.739C54.399 167.718 54.3296 167.885 54.4491 167.923C55.5245 168.258 56.6131 168.586 57.7125 168.908C57.7129 168.908 57.7134 168.908 57.7138 168.908Z" fill="#222222"/>
<path d="M52.6174 170.799C52.6171 170.799 52.617 170.799 52.6172 170.799C70.626 183.901 60.1344 211.88 70.1872 229.245C73.816 235.515 81.0177 241.406 88.6242 247.333C90.3655 248.589 92.0643 249.856 93.6876 251.143C87.7332 245.773 82.45 240.409 79.7523 234.883C70.7881 216.519 83.9247 188.107 66.387 173.791C63.9948 171.837 61.1837 170.273 58.0539 169.004C57.9414 168.971 57.83 168.939 57.7175 168.906C53.7586 168.091 49.8205 167.261 45.9951 166.356C44.4147 166.103 42.8349 165.849 41.2624 165.59C45.555 166.794 49.4046 168.461 52.6176 170.798C52.6178 170.798 52.6176 170.799 52.6174 170.799Z" fill="#222222"/>
<path d="M-95.811 125.677C-95.8112 125.678 -95.8109 125.678 -95.8105 125.678C-69.5704 125.717 -50.1206 151.422 -27.205 158.396C-18.206 161.135 -7.1563 161.698 4.07907 162.053C6.48054 162.057 8.85833 162.087 11.1938 162.168C1.64172 161.346 -7.52295 160.156 -15.09 157.469C-38.2008 149.26 -56.194 121.874 -83.3094 120.676C-87.2723 120.501 -91.1139 120.9 -94.8615 121.727C-95.0177 121.778 -95.1746 121.828 -95.3305 121.878C-98.8859 123.371 -102.425 124.836 -105.942 126.18C-107.302 126.833 -108.661 127.484 -110.016 128.127C-105.499 126.588 -100.791 125.669 -95.8115 125.676C-95.8111 125.676 -95.8109 125.677 -95.811 125.677Z" fill="#222222"/>
<path d="M33.4138 163.927C33.4139 163.927 33.4138 163.927 33.4135 163.927C31.9691 163.703 30.4947 163.51 28.9949 163.344C29.5056 163.452 30.0184 163.557 30.5337 163.661C31.4985 163.746 32.4585 163.834 33.4133 163.928C33.4135 163.928 33.4137 163.928 33.4138 163.927Z" fill="#222222"/>
<path d="M23.5536 163.106C23.5536 163.106 23.5534 163.106 23.5532 163.106C22.4018 162.955 21.2566 162.799 20.1202 162.635C18.9952 162.572 17.8616 162.518 16.7239 162.469C18.3164 162.593 19.8792 162.75 21.4085 162.949C22.1236 163.001 22.8388 163.052 23.5534 163.106C23.5536 163.106 23.5537 163.106 23.5536 163.106Z" fill="#222222"/>
<path d="M30.5314 163.661C28.2245 163.459 25.8933 163.28 23.5544 163.107C27.1827 163.583 30.8738 164.006 34.5582 164.433C33.2029 164.185 31.8596 163.928 30.5314 163.661Z" fill="#222222"/>
<path d="M38.5211 164.897C37.2033 164.74 35.8808 164.587 34.5584 164.434C36.767 164.838 39.0055 165.22 41.2577 165.59C40.3637 165.34 39.4509 165.109 38.5211 164.897Z" fill="#222222"/>
<path d="M16.7248 162.47C16.7247 162.47 16.7247 162.47 16.7246 162.47C14.9143 162.33 13.0682 162.233 11.1948 162.168C11.8626 162.225 12.532 162.281 13.2032 162.335C14.3815 162.376 15.5554 162.42 16.7248 162.47C16.7251 162.47 16.7251 162.47 16.7248 162.47Z" fill="#222222"/>
<path d="M-17.1399 392.636C-17.14 392.636 -17.1398 392.636 -17.1397 392.636C4.9987 384.759 42.4824 390.938 58.477 377.624C62.6713 374.133 64.8706 369.731 65.9754 364.828C66.2131 362.819 66.4475 360.809 66.7139 358.815C66.8196 356.594 66.8919 354.355 66.9864 352.127C66.8297 341.217 65.2106 329.627 69.3513 320.639C76.9587 304.128 109.419 289.236 107.686 270.682C107.207 265.566 104.201 260.94 99.8739 256.592C98.1763 255.113 96.4813 253.639 94.8269 252.166C92.7706 250.547 90.682 248.94 88.6216 247.335C78.014 239.683 65.8776 232.467 60.3468 224.262C49.335 207.926 57.2987 180.506 38.9494 168.609C34.138 165.49 28.109 163.822 21.4103 162.952C18.669 162.752 15.9245 162.556 13.2033 162.336C10.1731 162.231 7.12034 162.151 4.08043 162.054C-10.7923 162.035 -26.5753 163.08 -38.881 159.932C-61.4863 154.149 -82.1891 130.155 -107.466 131.198C-114.436 131.486 -120.706 133.634 -126.581 136.755C-128.576 137.982 -130.565 139.208 -132.553 140.403C-134.735 141.892 -136.901 143.404 -139.065 144.896C-149.366 152.583 -159.056 161.397 -170.175 165.353C-192.314 173.23 -229.798 167.051 -245.792 180.365C-249.987 183.856 -252.186 188.258 -253.291 193.161C-253.529 195.169 -253.763 197.18 -254.029 199.173C-254.135 201.395 -254.207 203.633 -254.302 205.862C-254.145 216.772 -252.526 228.362 -256.667 237.35C-264.274 253.861 -296.735 268.752 -295.001 287.307C-294.523 292.423 -291.517 297.049 -287.189 301.396C-285.492 302.875 -283.797 304.349 -282.142 305.823C-280.086 307.441 -277.997 309.049 -275.937 310.654C-265.329 318.305 -253.193 325.521 -247.662 333.727C-236.65 350.063 -244.614 377.483 -226.265 389.379C-221.453 392.499 -215.424 394.166 -208.726 395.037C-205.984 395.236 -203.24 395.433 -200.519 395.653C-197.489 395.758 -194.436 395.838 -191.396 395.935C-176.523 395.954 -160.74 394.909 -148.434 398.057C-125.829 403.84 -105.126 427.834 -79.8495 426.79C-72.8798 426.502 -66.609 424.354 -60.7349 421.233C-58.7395 420.006 -56.7503 418.781 -54.762 417.586C-52.5804 416.097 -50.4142 414.585 -48.2508 413.093C-37.9496 405.406 -28.2597 396.592 -17.1402 392.635C-17.14 392.635 -17.1399 392.635 -17.1399 392.636ZM-69.076 420.805C-93.3117 422.849 -115.061 400.586 -137.249 395.945C-160.251 391.133 -194.222 401.493 -212.782 390.787C-231.343 380.082 -225.779 353.339 -237.621 338.055C-249.043 323.311 -283.622 313.087 -286.707 295.284C-289.793 277.481 -259.706 261.8 -253.651 245.581C-247.373 228.768 -261.915 203.721 -247.547 190.238C-233.178 176.754 -196.647 181.164 -175.954 172.666C-155.991 164.468 -142.476 139.229 -118.241 137.185C-94.005 135.14 -72.2553 157.403 -50.0673 162.044C-27.0659 166.856 6.90509 156.496 25.4657 167.202C44.0264 177.908 38.4626 204.65 50.3041 219.934C61.7266 234.678 96.3051 244.902 99.3907 262.705C102.476 280.508 72.3892 296.189 66.3339 312.408C60.056 329.221 74.5984 354.268 60.2299 367.751C45.8613 381.235 9.33062 376.825 -11.3631 385.323C-31.3256 393.521 -44.8403 418.76 -69.076 420.805Z" fill="#222222"/>
<path d="M60.9481 358.058C60.9483 358.058 60.9487 358.058 60.9489 358.058C73.7215 344.496 57.8397 320.998 62.5865 304.566C67.166 288.715 94.8716 272.394 90.5475 255.394C86.2238 238.394 52.2266 229.978 40.1272 216.263C27.5853 202.045 30.8886 176.09 12.2407 166.553C-6.40713 157.017 -38.2505 168.378 -60.7134 164.694C-82.3826 161.14 -104.976 140.616 -128.101 143.579C-151.227 146.542 -162.284 171.377 -180.835 180.084C-200.066 189.109 -235.496 186.367 -248.269 199.929C-261.042 213.491 -245.16 236.989 -249.907 253.421C-254.487 269.273 -282.192 285.593 -277.868 302.593C-273.544 319.594 -239.547 328.009 -227.448 341.724C-214.906 355.941 -218.209 381.897 -199.561 391.433C-180.913 400.97 -149.07 389.608 -126.607 393.292C-104.938 396.846 -82.3445 417.37 -59.2193 414.407C-36.093 411.445 -25.0368 386.61 -6.48638 377.903C12.7445 368.877 48.1735 371.619 60.9473 358.058C60.9475 358.058 60.9479 358.058 60.9481 358.058ZM-50.3008 407.66C-72.2576 411.454 -95.4936 392.665 -116.55 390.14C-138.378 387.522 -168.056 399.742 -186.671 391.346C-205.286 382.95 -204.094 357.882 -217.209 344.739C-229.86 332.06 -263.113 325.371 -268.556 309.218C-274 293.065 -248.668 276.251 -245.484 260.836C-242.183 244.857 -259.209 222.936 -247.99 209.385C-236.771 195.833 -202.577 197.015 -184.818 187.557C-167.687 178.433 -158.975 154.123 -137.018 150.328C-115.061 146.534 -91.8247 165.322 -70.7685 167.848C-48.9407 170.465 -19.2621 158.245 -0.647501 166.642C17.9671 175.038 16.7758 200.106 29.8906 213.249C42.5414 225.927 75.7942 232.617 81.2376 248.77C86.681 264.923 61.348 281.737 58.1649 297.151C54.8639 313.131 71.89 335.051 60.671 348.603C49.4521 362.154 15.258 360.972 -2.50079 370.431C-19.6317 379.555 -28.344 403.865 -50.3008 407.66Z" fill="#222222"/>
<path d="M59.4424 339.434C69.1555 325.978 51.182 305.652 53.1265 290.191C55.0027 275.277 77.9838 258.115 71.5415 242.846C65.0992 227.577 32.7443 222.523 19.664 210.881C6.10368 198.813 5.33667 174.722 -13.1298 167.433C-31.596 160.142 -59.0888 173.077 -80.1921 171.46C-100.55 169.901 -124.232 152.832 -144.972 157.37C-165.711 161.908 -172.204 185.58 -187.916 195.032C-204.204 204.83 -237.042 205.097 -246.754 218.553C-256.467 232.009 -238.493 252.336 -240.438 267.796C-242.314 282.71 -265.295 299.872 -258.853 315.141C-252.411 330.41 -220.056 335.464 -206.975 347.106C-193.415 359.174 -192.648 383.265 -174.182 390.555C-155.715 397.845 -128.223 384.911 -107.119 386.527C-86.7616 388.087 -63.0793 405.155 -42.3397 400.617C-21.6001 396.079 -15.107 372.407 0.605029 362.956C16.8924 353.157 49.7303 352.89 59.4424 339.434ZM-35.356 393.337C-54.8389 398.53 -78.7762 383.157 -98.358 382.496C-118.656 381.811 -143.958 395.317 -162.165 389.093C-180.373 382.869 -182.937 359.835 -196.817 348.836C-210.207 338.226 -241.522 334.709 -248.842 320.354C-256.161 306 -235.495 288.629 -234.834 274.273C-234.15 259.392 -252.876 240.666 -244.614 227.387C-236.351 214.107 -204.977 212.509 -190.151 202.463C-175.848 192.771 -171.439 169.843 -151.957 164.65C-132.474 159.458 -108.536 174.831 -88.9547 175.492C-68.6563 176.177 -43.3547 162.67 -25.1477 168.895C-6.93966 175.119 -4.37594 198.152 9.50436 209.152C22.8939 219.762 54.2097 223.279 61.529 237.633C68.848 251.989 48.1823 269.359 47.5213 283.715C46.8368 298.596 65.5636 317.322 57.301 330.601C49.0381 343.881 17.6645 345.478 2.83829 355.525C-11.4643 365.216 -15.874 388.145 -35.356 393.337Z" fill="#222222"/>
<path d="M54.3023 322.151C61.1798 309.124 41.8905 291.994 41.4157 277.746C40.9572 264.002 59.3609 246.559 51.2881 233.14C43.2153 219.721 13.0668 217.639 -0.514378 208.046C-14.5933 198.101 -18.7869 176.195 -36.6331 170.99C-54.4792 165.785 -77.5971 179.724 -97.0185 179.897C-115.753 180.064 -139.761 166.35 -157.958 172.107C-176.155 177.864 -178.623 199.953 -191.536 209.798C-204.922 220.003 -234.738 222.81 -241.616 235.837C-248.493 248.864 -229.204 265.993 -228.729 280.242C-228.271 293.986 -246.673 311.429 -238.602 324.848C-230.529 338.267 -200.38 340.349 -186.799 349.942C-172.72 359.887 -168.527 381.793 -150.68 386.998C-132.834 392.203 -109.716 378.264 -90.2951 378.091C-71.5609 377.923 -47.5527 391.637 -29.3558 385.881C-11.1585 380.124 -8.6903 358.034 4.22273 348.19C17.6086 337.984 47.4248 335.178 54.3023 322.151ZM4.78461 340.995C-6.76649 350.909 -7.44614 372.074 -24.3383 378.305C-41.2305 384.536 -65.1294 372.436 -82.9574 373.357C-101.438 374.313 -122.397 388.547 -139.786 384.31C-157.174 380.073 -162.824 359.354 -176.984 350.444C-190.643 341.849 -219.509 341.09 -228.212 328.622C-236.915 316.155 -220.711 298.773 -222.187 285.684C-223.717 272.115 -243.382 256.566 -237.819 243.863C-232.255 231.16 -204.076 227.27 -192.101 216.993C-180.55 207.079 -179.871 185.914 -162.979 179.683C-146.086 173.452 -122.187 185.552 -104.359 184.631C-85.8784 183.675 -64.9195 169.441 -47.5311 173.678C-30.1427 177.915 -24.4925 198.634 -10.3329 207.544C3.32645 216.139 32.1925 216.898 40.8955 229.365C49.5985 241.833 33.3944 259.215 34.8699 272.304C36.4004 285.872 56.0654 301.422 50.5019 314.125C44.9384 326.828 16.7587 330.718 4.78461 340.995Z" fill="#222222"/>
<path d="M27.952 267.409C25.5614 255.016 39.6439 237.819 30.4342 226.31C21.2244 214.802 -6.25822 215.253 -19.8846 207.629C-34.0103 199.726 -40.943 180.243 -57.7825 176.918C-74.6219 173.593 -93.4614 187.987 -110.947 189.647C-127.814 191.249 -151.434 180.707 -167.013 187.321C-182.591 193.936 -181.638 214.101 -191.865 224.003C-202.467 234.267 -228.946 239.113 -233.272 251.425C-237.599 263.736 -217.742 277.733 -215.263 290.579C-212.873 302.972 -226.955 320.169 -217.746 331.678C-208.536 343.186 -181.053 342.735 -167.427 350.359C-153.301 358.262 -146.368 377.745 -129.529 381.07C-112.689 384.395 -93.8499 370.001 -76.3648 368.341C-59.4972 366.739 -35.8771 377.281 -20.2988 370.667C-4.72037 364.052 -5.67314 343.887 4.55395 333.985C15.1553 323.721 41.6344 318.875 45.961 306.563C50.2876 294.252 30.4306 280.255 27.952 267.409ZM3.56054 327.206C-5.38526 337.017 -2.96341 356.117 -17.2294 363.026C-31.4954 369.934 -54.674 360.886 -70.5398 363.09C-86.9863 365.374 -103.756 379.798 -119.965 377.325C-136.175 374.852 -144.213 356.642 -158.195 349.715C-171.682 343.032 -197.694 344.574 -207.289 334.024C-216.883 323.474 -204.832 306.583 -208.032 294.918C-211.348 282.826 -231.221 270.347 -228.048 258.487C-224.875 246.627 -200.146 240.955 -190.872 230.784C-181.927 220.972 -184.348 201.872 -170.082 194.964C-155.816 188.056 -132.638 197.103 -116.772 194.9C-100.326 192.616 -83.556 178.191 -67.3465 180.664C-51.137 183.138 -43.0993 201.347 -29.1174 208.275C-15.6299 214.958 10.3825 213.416 19.9769 223.965C29.5713 234.515 17.5204 251.406 20.7198 263.072C24.036 275.164 43.9092 287.642 40.7363 299.502C37.5635 311.362 12.834 317.035 3.56054 327.206Z" fill="#222222"/>
<path d="M13.2402 259.303C9.34041 248.392 19.4611 231.919 9.60112 222.322C-0.258868 212.725 -24.7266 215.235 -37.976 209.455C-51.71 203.464 -60.6741 186.554 -76.1797 184.868C-91.685 183.182 -106.45 197.511 -121.822 200.338C-136.651 203.065 -159.236 195.438 -172.2 202.553C-185.163 209.668 -181.44 227.647 -189.158 237.295C-197.158 247.296 -220.104 253.663 -222.212 265.017C-224.32 276.37 -204.601 287.377 -200.558 298.688C-196.658 309.599 -206.779 326.072 -196.919 335.669C-187.059 345.265 -162.591 342.756 -149.342 348.535C-135.608 354.527 -126.644 371.437 -111.138 373.123C-95.6329 374.809 -80.8681 360.479 -65.4954 357.653C-50.6668 354.926 -28.0818 362.552 -15.1183 355.438C-2.15483 348.323 -5.87768 330.344 1.84 320.696C9.84058 310.695 32.7862 304.327 34.8939 292.974C37.0015 281.621 17.2836 270.614 13.2402 259.303ZM-0.561846 314.493C-7.11102 323.907 -2.25656 340.72 -13.9377 347.956C-25.6188 355.191 -47.4692 348.905 -61.2356 352.075C-75.5069 355.361 -88.3449 369.475 -103.081 368.509C-117.815 367.543 -127.528 351.949 -140.916 346.85C-153.831 341.93 -176.696 345.284 -186.704 336.627C-196.713 327.969 -188.411 312.018 -192.902 301.881C-197.558 291.372 -216.96 281.781 -215.823 270.984C-214.687 260.187 -193.545 253.254 -186.757 243.496C-180.208 234.083 -185.062 217.269 -173.381 210.034C-161.7 202.798 -139.849 209.085 -126.083 205.915C-111.812 202.629 -98.9737 188.515 -84.2379 189.481C-69.5031 190.447 -59.7909 206.041 -46.403 211.14C-33.4877 216.06 -10.6229 212.706 -0.614068 221.363C9.39478 230.021 1.09201 245.972 5.58323 256.109C10.239 266.618 29.6412 276.209 28.5047 287.006C27.3684 297.803 6.22687 304.736 -0.561846 314.493Z" fill="#222222"/>
<path d="M-2.18583 253.492C-7.15879 244.141 -0.554631 228.809 -10.5973 221.071C-20.64 213.332 -41.858 217.404 -54.3515 213.296C-67.3033 209.039 -77.5851 194.766 -91.4912 194.449C-105.398 194.132 -116.399 207.919 -129.554 211.581C-142.242 215.114 -163.227 210.081 -173.655 217.353C-184.083 224.624 -178.27 240.239 -183.717 249.353C-189.363 258.801 -208.696 266.167 -208.958 276.365C-209.219 286.562 -190.286 294.801 -185.131 304.496C-180.158 313.847 -186.762 329.178 -176.72 336.917C-166.677 344.656 -145.459 340.584 -132.965 344.691C-120.014 348.949 -109.732 363.221 -95.8258 363.538C-81.9187 363.855 -70.9181 350.069 -57.7635 346.406C-45.0748 342.873 -24.0902 347.906 -13.6622 340.634C-3.23411 333.363 -9.04652 317.748 -3.59968 308.634C2.04601 299.186 21.3794 291.819 21.6406 281.623C21.9021 271.425 2.96938 263.186 -2.18583 253.492ZM-7.22812 303.153C-11.6448 311.907 -5.04884 326.299 -14.2601 333.526C-23.4717 340.754 -43.4713 336.878 -55.076 340.695C-67.1061 344.651 -76.3699 358.003 -89.4 358.263C-102.43 358.522 -113.107 345.566 -125.535 342.096C-137.525 338.748 -157.066 343.41 -167.033 336.564C-177.001 329.718 -171.963 315.095 -177.31 306.536C-182.852 297.663 -201.171 290.703 -201.684 281.142C-202.197 271.581 -184.664 263.908 -180.086 254.834C-175.669 246.08 -182.265 231.688 -173.054 224.461C-163.842 217.233 -143.842 221.109 -132.238 217.292C-120.208 213.336 -110.944 199.984 -97.9137 199.725C-84.8835 199.466 -74.2067 212.421 -61.7785 215.891C-49.7891 219.239 -30.2475 214.577 -20.2805 221.423C-10.3124 228.269 -15.3506 242.892 -10.0039 251.451C-4.46214 260.325 13.8568 267.284 14.3702 276.845C14.8836 286.407 -2.6495 294.079 -7.22812 303.153Z" fill="#222222"/>
<path d="M-17.8081 249.983C-23.4194 242.215 -19.8102 228.38 -29.5982 222.392C-39.3854 216.406 -57.235 221.53 -68.646 218.886C-80.475 216.146 -91.375 204.49 -103.487 205.251C-115.6 206.011 -123.237 218.83 -134.146 222.997C-144.668 227.018 -163.576 224.201 -171.619 231.307C-179.661 238.413 -172.455 251.569 -175.92 259.907C-179.511 268.55 -195.268 276.403 -194.082 285.297C-192.897 294.191 -175.325 299.951 -169.509 308.004C-163.898 315.772 -167.507 329.607 -157.719 335.595C-147.932 341.581 -130.082 336.457 -118.671 339.101C-106.842 341.842 -95.942 353.497 -83.83 352.736C-71.7171 351.976 -64.0802 339.157 -53.1713 334.99C-42.6488 330.969 -23.7413 333.787 -15.698 326.68C-7.65603 319.574 -14.8623 306.418 -11.3971 298.08C-7.80617 289.437 7.95141 281.584 6.76537 272.69C5.57963 263.796 -11.9917 258.036 -17.8081 249.983ZM-16.0523 293.441C-18.6476 301.313 -11.0042 313.232 -17.9308 320.142C-24.8574 327.052 -42.5796 325.188 -52.0315 329.335C-61.8293 333.633 -67.9603 345.827 -79.1246 347.012C-90.2889 348.197 -101.243 337.817 -112.403 335.743C-123.168 333.742 -139.325 339.202 -148.832 334.037C-158.339 328.871 -156.014 315.894 -161.784 308.909C-167.765 301.669 -184.466 297.022 -186.219 288.818C-187.973 280.614 -173.954 272.706 -171.263 264.546C-168.668 256.674 -176.311 244.755 -169.385 237.844C-162.458 230.934 -144.736 232.799 -135.284 228.652C-125.486 224.354 -119.355 212.16 -108.191 210.975C-97.0268 209.79 -86.0724 220.17 -74.913 222.244C-64.1481 224.244 -47.9909 218.784 -38.4839 223.95C-28.977 229.116 -31.3015 242.093 -25.5314 249.077C-19.5509 256.317 -2.84924 260.964 -1.09622 269.169C0.656827 277.373 -13.3616 285.281 -16.0523 293.441Z" fill="#222222"/>
<path d="M-9.13922 266.29C-9.13953 266.29 -9.13977 266.29 -9.13986 266.29C-11.355 258.794 -27.0738 255.165 -33.1111 248.724C-38.9348 242.512 -37.7448 230.452 -46.8773 226.063C-56.0098 221.674 -70.4882 227.345 -80.5481 225.924C-90.9764 224.451 -101.823 215.31 -112.017 216.842C-122.211 218.374 -126.965 229.861 -135.672 234.21C-144.072 238.406 -160.529 237.384 -166.401 244.03C-172.273 250.675 -164.362 261.365 -166.177 268.727C-168.057 276.358 -180.386 284.203 -178.172 291.699C-175.957 299.196 -160.238 302.823 -154.2 309.265C-148.377 315.478 -149.567 327.537 -140.434 331.926C-131.302 336.316 -116.823 330.644 -106.763 332.065C-96.3351 333.538 -85.4882 342.679 -75.2946 341.147C-65.1008 339.615 -60.3476 328.129 -51.6392 323.779C-43.2398 319.584 -26.783 320.605 -20.9106 313.96C-15.0382 307.315 -22.949 296.624 -21.135 289.262C-19.2547 281.631 -6.92557 273.787 -9.13858 266.291C-9.13867 266.291 -9.13891 266.29 -9.13922 266.29ZM-24.5933 308.17C-29.4809 314.485 -44.6036 314.193 -51.9798 318.363C-59.6268 322.687 -63.1391 333.391 -72.3492 335.193C-81.5593 336.995 -92.1432 329.048 -101.786 328.106C-111.088 327.198 -123.916 332.959 -132.586 329.296C-141.256 325.633 -141.044 314.543 -146.821 309.081C-152.81 303.419 -167.448 300.711 -170.018 293.933C-172.589 287.155 -161.883 279.488 -160.718 272.427C-159.594 265.615 -167.605 256.134 -162.718 249.819C-157.83 243.504 -142.708 243.796 -135.331 239.625C-127.684 235.302 -124.172 224.598 -114.962 222.795C-105.752 220.993 -95.168 228.941 -85.5251 229.882C-76.2234 230.79 -63.3953 225.03 -54.7251 228.693C-46.0548 232.356 -46.2672 243.445 -40.4899 248.907C-34.5011 254.57 -19.8632 257.278 -17.2929 264.056C-14.7226 270.834 -25.4283 278.5 -26.5935 285.562C-27.7175 292.374 -19.7057 301.855 -24.5933 308.17Z" fill="#222222"/>
</g>
<path d="M97.268 89.48L97.576 88.08H102.126L102.448 89.48H97.268ZM99.83 84.972L98.29 88.57L98.262 88.934L96.904 92H95.042L99.83 81.654L104.618 92H102.756L101.426 89.018L101.384 88.612L99.83 84.972ZM110.056 81.08H111.582V92H110.056V81.08ZM104.722 88.78C104.722 88.0707 104.867 87.4687 105.156 86.974C105.445 86.47 105.828 86.0873 106.304 85.826C106.789 85.5553 107.307 85.42 107.858 85.42C108.399 85.42 108.871 85.5553 109.272 85.826C109.683 86.0967 110.005 86.484 110.238 86.988C110.481 87.4827 110.602 88.08 110.602 88.78C110.602 89.4707 110.481 90.068 110.238 90.572C110.005 91.076 109.683 91.4633 109.272 91.734C108.871 92.0047 108.399 92.14 107.858 92.14C107.307 92.14 106.789 92.0093 106.304 91.748C105.828 91.4773 105.445 91.09 105.156 90.586C104.867 90.082 104.722 89.48 104.722 88.78ZM106.29 88.78C106.29 89.2093 106.379 89.578 106.556 89.886C106.733 90.194 106.967 90.4273 107.256 90.586C107.555 90.7447 107.877 90.824 108.222 90.824C108.511 90.824 108.796 90.7447 109.076 90.586C109.365 90.4273 109.599 90.1987 109.776 89.9C109.963 89.592 110.056 89.2187 110.056 88.78C110.056 88.3413 109.963 87.9727 109.776 87.674C109.599 87.366 109.365 87.1327 109.076 86.974C108.796 86.8153 108.511 86.736 108.222 86.736C107.877 86.736 107.555 86.8153 107.256 86.974C106.967 87.1327 106.733 87.366 106.556 87.674C106.379 87.982 106.29 88.3507 106.29 88.78ZM117.88 81.08H119.406V92H117.88V81.08ZM112.546 88.78C112.546 88.0707 112.691 87.4687 112.98 86.974C113.269 86.47 113.652 86.0873 114.128 85.826C114.613 85.5553 115.131 85.42 115.682 85.42C116.223 85.42 116.695 85.5553 117.096 85.826C117.507 86.0967 117.829 86.484 118.062 86.988C118.305 87.4827 118.426 88.08 118.426 88.78C118.426 89.4707 118.305 90.068 118.062 90.572C117.829 91.076 117.507 91.4633 117.096 91.734C116.695 92.0047 116.223 92.14 115.682 92.14C115.131 92.14 114.613 92.0093 114.128 91.748C113.652 91.4773 113.269 91.09 112.98 90.586C112.691 90.082 112.546 89.48 112.546 88.78ZM114.114 88.78C114.114 89.2093 114.203 89.578 114.38 89.886C114.557 90.194 114.791 90.4273 115.08 90.586C115.379 90.7447 115.701 90.824 116.046 90.824C116.335 90.824 116.62 90.7447 116.9 90.586C117.189 90.4273 117.423 90.1987 117.6 89.9C117.787 89.592 117.88 89.2187 117.88 88.78C117.88 88.3413 117.787 87.9727 117.6 87.674C117.423 87.366 117.189 87.1327 116.9 86.974C116.62 86.8153 116.335 86.736 116.046 86.736C115.701 86.736 115.379 86.8153 115.08 86.974C114.791 87.1327 114.557 87.366 114.38 87.674C114.203 87.982 114.114 88.3507 114.114 88.78ZM124.764 82.2H126.416V90.516H130.308V92H124.764V82.2ZM131.91 89.998C131.91 90.2127 131.961 90.3993 132.064 90.558C132.166 90.7073 132.306 90.8193 132.484 90.894C132.67 90.9687 132.88 91.006 133.114 91.006C133.412 91.006 133.683 90.9453 133.926 90.824C134.178 90.7027 134.378 90.5253 134.528 90.292C134.686 90.0493 134.766 89.7693 134.766 89.452L134.99 90.292C134.99 90.7027 134.868 91.048 134.626 91.328C134.392 91.5987 134.094 91.804 133.73 91.944C133.375 92.0747 133.011 92.14 132.638 92.14C132.236 92.14 131.863 92.0607 131.518 91.902C131.172 91.7433 130.897 91.51 130.692 91.202C130.486 90.894 130.384 90.5207 130.384 90.082C130.384 89.4567 130.603 88.962 131.042 88.598C131.48 88.2247 132.101 88.038 132.904 88.038C133.333 88.038 133.702 88.0847 134.01 88.178C134.327 88.2713 134.588 88.3833 134.794 88.514C134.999 88.6353 135.144 88.7473 135.228 88.85V89.62C134.938 89.4147 134.63 89.2653 134.304 89.172C133.977 89.0787 133.632 89.032 133.268 89.032C132.95 89.032 132.694 89.074 132.498 89.158C132.302 89.2327 132.152 89.34 132.05 89.48C131.956 89.62 131.91 89.7927 131.91 89.998ZM131.434 87.24L130.818 86.176C131.107 85.9987 131.48 85.826 131.938 85.658C132.404 85.49 132.936 85.406 133.534 85.406C134.066 85.406 134.532 85.4853 134.934 85.644C135.344 85.8027 135.666 86.0313 135.9 86.33C136.133 86.6193 136.25 86.9787 136.25 87.408V92H134.766V87.702C134.766 87.4967 134.728 87.3287 134.654 87.198C134.588 87.0673 134.495 86.96 134.374 86.876C134.252 86.792 134.108 86.7313 133.94 86.694C133.772 86.6567 133.59 86.638 133.394 86.638C133.095 86.638 132.81 86.6753 132.54 86.75C132.278 86.8153 132.05 86.8993 131.854 87.002C131.667 87.0953 131.527 87.1747 131.434 87.24ZM143.222 85.56L139.022 95.08H137.412L139.092 91.244L136.502 85.56H138.238L140.296 90.656L139.582 90.614L141.598 85.56H143.222ZM146.303 92.14C145.649 92.14 145.071 92 144.567 91.72C144.072 91.44 143.689 91.048 143.419 90.544C143.148 90.04 143.013 89.452 143.013 88.78C143.013 88.0987 143.148 87.506 143.419 87.002C143.699 86.498 144.091 86.1107 144.595 85.84C145.099 85.56 145.691 85.42 146.373 85.42C147.054 85.42 147.633 85.5507 148.109 85.812C148.585 86.0733 148.949 86.4513 149.201 86.946C149.462 87.4313 149.593 88.0193 149.593 88.71C149.593 88.7847 149.588 88.864 149.579 88.948C149.579 89.032 149.574 89.0927 149.565 89.13H143.909V88.094H148.277L147.815 88.738C147.843 88.682 147.871 88.6073 147.899 88.514C147.936 88.4113 147.955 88.3273 147.955 88.262C147.955 87.9167 147.885 87.618 147.745 87.366C147.614 87.114 147.427 86.918 147.185 86.778C146.951 86.638 146.676 86.568 146.359 86.568C145.976 86.568 145.649 86.652 145.379 86.82C145.108 86.988 144.903 87.2307 144.763 87.548C144.623 87.8653 144.548 88.2573 144.539 88.724C144.539 89.1907 144.609 89.5873 144.749 89.914C144.889 90.2313 145.094 90.474 145.365 90.642C145.645 90.81 145.981 90.894 146.373 90.894C146.783 90.894 147.143 90.81 147.451 90.642C147.759 90.474 148.015 90.2173 148.221 89.872L149.523 90.404C149.187 90.9827 148.753 91.4167 148.221 91.706C147.689 91.9953 147.049 92.14 146.303 92.14ZM152.114 85.56V92H150.616V85.56H152.114ZM154.032 87.17C153.892 87.058 153.761 86.974 153.64 86.918C153.518 86.862 153.364 86.834 153.178 86.834C152.926 86.834 152.72 86.8993 152.562 87.03C152.403 87.1607 152.286 87.3427 152.212 87.576C152.146 87.8 152.114 88.066 152.114 88.374L151.61 88.08C151.61 87.5667 151.703 87.114 151.89 86.722C152.086 86.3207 152.333 86.0033 152.632 85.77C152.94 85.5367 153.257 85.42 153.584 85.42C153.817 85.42 154.036 85.4573 154.242 85.532C154.447 85.5973 154.62 85.7187 154.76 85.896L154.032 87.17ZM158.469 92L163.005 87.226C163.238 86.974 163.439 86.7313 163.607 86.498C163.775 86.2647 163.901 86.0313 163.985 85.798C164.069 85.5647 164.111 85.3173 164.111 85.056C164.111 84.8693 164.073 84.6873 163.999 84.51C163.933 84.3233 163.826 84.1553 163.677 84.006C163.537 83.8567 163.364 83.74 163.159 83.656C162.953 83.5627 162.715 83.516 162.445 83.516C162.071 83.516 161.749 83.6047 161.479 83.782C161.208 83.95 160.998 84.1973 160.849 84.524C160.709 84.8507 160.639 85.2287 160.639 85.658H159.001C159.001 84.958 159.131 84.3373 159.393 83.796C159.663 83.2453 160.055 82.816 160.569 82.508C161.091 82.1907 161.726 82.032 162.473 82.032C163.042 82.032 163.537 82.1253 163.957 82.312C164.377 82.4893 164.722 82.7227 164.993 83.012C165.273 83.3013 165.478 83.6187 165.609 83.964C165.749 84.3093 165.819 84.6453 165.819 84.972C165.819 85.4853 165.693 85.98 165.441 86.456C165.198 86.932 164.876 87.3567 164.475 87.73L161.689 90.46H165.945V92H158.469Z" fill="#222222"/>
<path d="M95 103.5C94.7239 103.5 94.5 103.724 94.5 104C94.5 104.276 94.7239 104.5 95 104.5V103.5ZM129.354 104.354C129.549 104.158 129.549 103.842 129.354 103.646L126.172 100.464C125.976 100.269 125.66 100.269 125.464 100.464C125.269 100.66 125.269 100.976 125.464 101.172L128.293 104L125.464 106.828C125.269 107.024 125.269 107.34 125.464 107.536C125.66 107.731 125.976 107.731 126.172 107.536L129.354 104.354ZM95 104.5H129V103.5H95V104.5Z" fill="#222222"/>
<g filter="url(#filter1_d_639_34949)">
<rect x="36" y="66" width="50" height="52" rx="10" fill="white"/>
</g>
<path d="M38.96 127.6H39.98V135.04H43.28V136H38.96V127.6ZM44.7343 134.296C44.7343 134.504 44.7823 134.684 44.8783 134.836C44.9823 134.988 45.1223 135.104 45.2983 135.184C45.4823 135.256 45.6903 135.292 45.9223 135.292C46.2183 135.292 46.4823 135.232 46.7143 135.112C46.9543 134.992 47.1423 134.824 47.2783 134.608C47.4223 134.384 47.4943 134.128 47.4943 133.84L47.6863 134.56C47.6863 134.912 47.5783 135.204 47.3623 135.436C47.1543 135.668 46.8943 135.84 46.5823 135.952C46.2783 136.064 45.9743 136.12 45.6703 136.12C45.3343 136.12 45.0183 136.052 44.7223 135.916C44.4343 135.772 44.2023 135.568 44.0263 135.304C43.8503 135.04 43.7623 134.72 43.7623 134.344C43.7623 133.808 43.9503 133.38 44.3263 133.06C44.7103 132.732 45.2423 132.568 45.9223 132.568C46.3223 132.568 46.6543 132.616 46.9183 132.712C47.1903 132.8 47.4063 132.904 47.5663 133.024C47.7263 133.136 47.8343 133.228 47.8903 133.3V133.864C47.6103 133.672 47.3223 133.536 47.0263 133.456C46.7303 133.368 46.4143 133.324 46.0783 133.324C45.7663 133.324 45.5103 133.364 45.3103 133.444C45.1183 133.524 44.9743 133.636 44.8783 133.78C44.7823 133.924 44.7343 134.096 44.7343 134.296ZM44.5903 131.752L44.1223 131.044C44.3303 130.892 44.6143 130.74 44.9743 130.588C45.3423 130.436 45.7823 130.36 46.2943 130.36C46.7263 130.36 47.1023 130.428 47.4223 130.564C47.7503 130.692 48.0023 130.88 48.1783 131.128C48.3623 131.376 48.4543 131.68 48.4543 132.04V136H47.4943V132.172C47.4943 131.98 47.4623 131.824 47.3983 131.704C47.3343 131.576 47.2423 131.476 47.1223 131.404C47.0103 131.332 46.8783 131.28 46.7263 131.248C46.5743 131.216 46.4143 131.2 46.2463 131.2C45.9743 131.2 45.7263 131.232 45.5023 131.296C45.2863 131.36 45.1023 131.436 44.9503 131.524C44.7983 131.612 44.6783 131.688 44.5903 131.752ZM54.4011 130.48L50.8011 138.64H49.7211L51.2331 135.22L49.1211 130.48H50.2611L52.0131 134.8L51.6171 134.752L53.3211 130.48H54.4011ZM57.2665 136.12C56.7545 136.12 56.2985 136 55.8985 135.76C55.5065 135.512 55.1985 135.172 54.9745 134.74C54.7585 134.308 54.6505 133.808 54.6505 133.24C54.6505 132.664 54.7625 132.16 54.9865 131.728C55.2185 131.296 55.5385 130.96 55.9465 130.72C56.3625 130.48 56.8425 130.36 57.3865 130.36C57.9305 130.36 58.3945 130.476 58.7785 130.708C59.1705 130.932 59.4705 131.256 59.6785 131.68C59.8865 132.104 59.9905 132.608 59.9905 133.192C59.9905 133.248 59.9865 133.308 59.9785 133.372C59.9785 133.428 59.9785 133.464 59.9785 133.48H55.2625V132.664H59.2225L58.8385 133.216C58.8625 133.176 58.8865 133.116 58.9105 133.036C58.9345 132.948 58.9465 132.876 58.9465 132.82C58.9465 132.492 58.8785 132.208 58.7425 131.968C58.6145 131.728 58.4345 131.54 58.2025 131.404C57.9705 131.268 57.6985 131.2 57.3865 131.2C57.0185 131.2 56.7025 131.28 56.4385 131.44C56.1825 131.592 55.9825 131.816 55.8385 132.112C55.7025 132.4 55.6305 132.756 55.6225 133.18C55.6225 133.612 55.6905 133.98 55.8265 134.284C55.9625 134.588 56.1625 134.82 56.4265 134.98C56.6905 135.14 57.0105 135.22 57.3865 135.22C57.7625 135.22 58.0945 135.14 58.3825 134.98C58.6705 134.812 58.9145 134.56 59.1145 134.224L59.8945 134.716C59.6065 135.18 59.2425 135.532 58.8025 135.772C58.3705 136.004 57.8585 136.12 57.2665 136.12ZM62.2663 130.48V136H61.3063V130.48H62.2663ZM63.9342 131.536C63.8063 131.44 63.6903 131.372 63.5863 131.332C63.4823 131.284 63.3503 131.26 63.1903 131.26C62.9503 131.26 62.7623 131.32 62.6263 131.44C62.4903 131.56 62.3943 131.724 62.3383 131.932C62.2903 132.14 62.2663 132.376 62.2663 132.64H61.8343C61.8343 132.2 61.9103 131.812 62.0623 131.476C62.2223 131.132 62.4263 130.86 62.6743 130.66C62.9223 130.46 63.1743 130.36 63.4303 130.36C63.6303 130.36 63.8143 130.388 63.9823 130.444C64.1583 130.492 64.3183 130.592 64.4623 130.744L63.9342 131.536ZM68.3572 136L72.3292 131.764C72.5132 131.564 72.6692 131.368 72.7972 131.176C72.9332 130.976 73.0332 130.776 73.0972 130.576C73.1692 130.368 73.2052 130.152 73.2052 129.928C73.2052 129.744 73.1692 129.564 73.0972 129.388C73.0252 129.212 72.9172 129.052 72.7732 128.908C72.6372 128.764 72.4692 128.648 72.2692 128.56C72.0692 128.472 71.8412 128.428 71.5852 128.428C71.2252 128.428 70.9132 128.512 70.6492 128.68C70.3932 128.84 70.1972 129.076 70.0612 129.388C69.9252 129.692 69.8572 130.056 69.8572 130.48H68.8372C68.8372 129.88 68.9452 129.356 69.1612 128.908C69.3772 128.452 69.6892 128.1 70.0972 127.852C70.5132 127.596 71.0092 127.468 71.5852 127.468C72.0492 127.468 72.4492 127.548 72.7852 127.708C73.1212 127.86 73.3972 128.06 73.6132 128.308C73.8292 128.548 73.9892 128.808 74.0932 129.088C74.1972 129.368 74.2492 129.636 74.2492 129.892C74.2492 130.324 74.1452 130.752 73.9372 131.176C73.7292 131.6 73.4612 131.98 73.1332 132.316L70.4572 135.04H74.2852V136H68.3572ZM79.8789 133.24C79.8789 133.624 79.9589 133.964 80.1189 134.26C80.2869 134.556 80.5109 134.792 80.7909 134.968C81.0789 135.136 81.4029 135.22 81.7629 135.22C82.0589 135.22 82.3349 135.176 82.5909 135.088C82.8549 134.992 83.0829 134.868 83.2749 134.716C83.4669 134.556 83.6029 134.388 83.6829 134.212V135.412C83.4909 135.636 83.2149 135.812 82.8549 135.94C82.5029 136.06 82.1389 136.12 81.7629 136.12C81.2269 136.12 80.7429 135.996 80.3109 135.748C79.8789 135.5 79.5349 135.16 79.2789 134.728C79.0309 134.288 78.9069 133.792 78.9069 133.24C78.9069 132.68 79.0309 132.184 79.2789 131.752C79.5349 131.32 79.8789 130.98 80.3109 130.732C80.7429 130.484 81.2269 130.36 81.7629 130.36C82.1389 130.36 82.5029 130.424 82.8549 130.552C83.2149 130.672 83.4909 130.844 83.6829 131.068V132.268C83.6029 132.084 83.4669 131.916 83.2749 131.764C83.0829 131.612 82.8549 131.492 82.5909 131.404C82.3349 131.308 82.0589 131.26 81.7629 131.26C81.4029 131.26 81.0789 131.344 80.7909 131.512C80.5109 131.68 80.2869 131.916 80.1189 132.22C79.9589 132.516 79.8789 132.856 79.8789 133.24ZM84.6973 133.24C84.6973 132.68 84.8213 132.184 85.0693 131.752C85.3253 131.32 85.6693 130.98 86.1013 130.732C86.5333 130.484 87.0173 130.36 87.5533 130.36C88.0973 130.36 88.5813 130.484 89.0053 130.732C89.4373 130.98 89.7773 131.32 90.0253 131.752C90.2813 132.184 90.4093 132.68 90.4093 133.24C90.4093 133.792 90.2813 134.288 90.0253 134.728C89.7773 135.16 89.4373 135.5 89.0053 135.748C88.5813 135.996 88.0973 136.12 87.5533 136.12C87.0173 136.12 86.5333 135.996 86.1013 135.748C85.6693 135.5 85.3253 135.16 85.0693 134.728C84.8213 134.288 84.6973 133.792 84.6973 133.24ZM85.6693 133.24C85.6693 133.624 85.7493 133.964 85.9093 134.26C86.0773 134.556 86.3013 134.792 86.5813 134.968C86.8693 135.136 87.1933 135.22 87.5533 135.22C87.9133 135.22 88.2333 135.136 88.5133 134.968C88.8013 134.792 89.0253 134.556 89.1853 134.26C89.3533 133.964 89.4373 133.624 89.4373 133.24C89.4373 132.856 89.3533 132.516 89.1853 132.22C89.0253 131.916 88.8013 131.68 88.5133 131.512C88.2333 131.344 87.9133 131.26 87.5533 131.26C87.1933 131.26 86.8693 131.344 86.5813 131.512C86.3013 131.68 86.0773 131.916 85.9093 132.22C85.7493 132.516 85.6693 132.856 85.6693 133.24ZM95.2681 132.64C95.2681 132.184 95.1681 131.84 94.9681 131.608C94.7681 131.376 94.4761 131.26 94.0921 131.26C93.8121 131.26 93.5641 131.32 93.3481 131.44C93.1401 131.552 92.9761 131.712 92.8561 131.92C92.7441 132.128 92.6881 132.368 92.6881 132.64V136H91.7281V130.48H92.6881V131.344C92.8721 131.008 93.1001 130.76 93.3721 130.6C93.6521 130.44 93.9721 130.36 94.3321 130.36C94.9161 130.36 95.3761 130.556 95.7121 130.948C96.0561 131.332 96.2281 131.856 96.2281 132.52V136H95.2681V132.64ZM97.1928 130.48H99.9528V131.38H97.1928V130.48ZM98.0928 128.56H99.0528V136H98.0928V128.56ZM101.348 134.296C101.348 134.504 101.396 134.684 101.492 134.836C101.596 134.988 101.736 135.104 101.912 135.184C102.096 135.256 102.304 135.292 102.536 135.292C102.832 135.292 103.096 135.232 103.328 135.112C103.568 134.992 103.756 134.824 103.892 134.608C104.036 134.384 104.108 134.128 104.108 133.84L104.3 134.56C104.3 134.912 104.192 135.204 103.976 135.436C103.768 135.668 103.508 135.84 103.196 135.952C102.892 136.064 102.588 136.12 102.284 136.12C101.948 136.12 101.632 136.052 101.336 135.916C101.048 135.772 100.816 135.568 100.64 135.304C100.464 135.04 100.376 134.72 100.376 134.344C100.376 133.808 100.564 133.38 100.94 133.06C101.324 132.732 101.856 132.568 102.536 132.568C102.936 132.568 103.268 132.616 103.532 132.712C103.804 132.8 104.02 132.904 104.18 133.024C104.34 133.136 104.448 133.228 104.504 133.3V133.864C104.224 133.672 103.936 133.536 103.64 133.456C103.344 133.368 103.028 133.324 102.692 133.324C102.38 133.324 102.124 133.364 101.924 133.444C101.732 133.524 101.588 133.636 101.492 133.78C101.396 133.924 101.348 134.096 101.348 134.296ZM101.204 131.752L100.736 131.044C100.944 130.892 101.228 130.74 101.588 130.588C101.956 130.436 102.396 130.36 102.908 130.36C103.34 130.36 103.716 130.428 104.036 130.564C104.364 130.692 104.616 130.88 104.792 131.128C104.976 131.376 105.068 131.68 105.068 132.04V136H104.108V132.172C104.108 131.98 104.076 131.824 104.012 131.704C103.948 131.576 103.856 131.476 103.736 131.404C103.624 131.332 103.492 131.28 103.34 131.248C103.188 131.216 103.028 131.2 102.86 131.2C102.588 131.2 102.34 131.232 102.116 131.296C101.9 131.36 101.716 131.436 101.564 131.524C101.412 131.612 101.292 131.688 101.204 131.752ZM106.693 128.2C106.693 128.016 106.757 127.86 106.885 127.732C107.021 127.604 107.177 127.54 107.353 127.54C107.537 127.54 107.693 127.604 107.821 127.732C107.949 127.86 108.013 128.016 108.013 128.2C108.013 128.376 107.949 128.532 107.821 128.668C107.693 128.796 107.537 128.86 107.353 128.86C107.177 128.86 107.021 128.796 106.885 128.668C106.757 128.532 106.693 128.376 106.693 128.2ZM106.873 130.48H107.833V136H106.873V130.48ZM113.35 132.64C113.35 132.184 113.25 131.84 113.05 131.608C112.85 131.376 112.558 131.26 112.174 131.26C111.894 131.26 111.646 131.32 111.43 131.44C111.222 131.552 111.058 131.712 110.938 131.92C110.826 132.128 110.77 132.368 110.77 132.64V136H109.81V130.48H110.77V131.344C110.954 131.008 111.182 130.76 111.454 130.6C111.734 130.44 112.054 130.36 112.414 130.36C112.998 130.36 113.458 130.556 113.794 130.948C114.138 131.332 114.31 131.856 114.31 132.52V136H113.35V132.64ZM116.343 134.308C116.455 134.476 116.583 134.632 116.727 134.776C116.871 134.92 117.035 135.036 117.219 135.124C117.411 135.204 117.619 135.244 117.843 135.244C118.115 135.244 118.327 135.184 118.479 135.064C118.639 134.936 118.719 134.764 118.719 134.548C118.719 134.356 118.655 134.196 118.527 134.068C118.407 133.932 118.251 133.82 118.059 133.732C117.867 133.636 117.663 133.548 117.447 133.468C117.207 133.372 116.963 133.26 116.715 133.132C116.475 132.996 116.271 132.824 116.103 132.616C115.943 132.4 115.863 132.132 115.863 131.812C115.863 131.484 115.947 131.212 116.115 130.996C116.291 130.78 116.515 130.62 116.787 130.516C117.067 130.412 117.355 130.36 117.651 130.36C117.947 130.36 118.223 130.408 118.479 130.504C118.743 130.6 118.975 130.728 119.175 130.888C119.375 131.048 119.531 131.232 119.643 131.44L118.875 131.932C118.723 131.724 118.531 131.552 118.299 131.416C118.075 131.28 117.819 131.212 117.531 131.212C117.331 131.212 117.159 131.256 117.015 131.344C116.871 131.432 116.799 131.568 116.799 131.752C116.799 131.896 116.855 132.024 116.967 132.136C117.079 132.248 117.223 132.348 117.399 132.436C117.575 132.524 117.759 132.608 117.951 132.688C118.271 132.816 118.563 132.956 118.827 133.108C119.091 133.252 119.299 133.428 119.451 133.636C119.611 133.844 119.691 134.112 119.691 134.44C119.691 134.92 119.515 135.32 119.163 135.64C118.819 135.96 118.363 136.12 117.795 136.12C117.427 136.12 117.095 136.056 116.799 135.928C116.503 135.792 116.251 135.62 116.043 135.412C115.843 135.204 115.691 134.992 115.587 134.776L116.343 134.308ZM124.552 126.64H125.512V136H124.552V126.64ZM127.75 134.296C127.75 134.504 127.798 134.684 127.894 134.836C127.998 134.988 128.138 135.104 128.314 135.184C128.498 135.256 128.706 135.292 128.938 135.292C129.234 135.292 129.498 135.232 129.73 135.112C129.97 134.992 130.158 134.824 130.294 134.608C130.438 134.384 130.51 134.128 130.51 133.84L130.702 134.56C130.702 134.912 130.594 135.204 130.378 135.436C130.17 135.668 129.91 135.84 129.598 135.952C129.294 136.064 128.99 136.12 128.686 136.12C128.35 136.12 128.034 136.052 127.738 135.916C127.45 135.772 127.218 135.568 127.042 135.304C126.866 135.04 126.778 134.72 126.778 134.344C126.778 133.808 126.966 133.38 127.342 133.06C127.726 132.732 128.258 132.568 128.938 132.568C129.338 132.568 129.67 132.616 129.934 132.712C130.206 132.8 130.422 132.904 130.582 133.024C130.742 133.136 130.85 133.228 130.906 133.3V133.864C130.626 133.672 130.338 133.536 130.042 133.456C129.746 133.368 129.43 133.324 129.094 133.324C128.782 133.324 128.526 133.364 128.326 133.444C128.134 133.524 127.99 133.636 127.894 133.78C127.798 133.924 127.75 134.096 127.75 134.296ZM127.606 131.752L127.138 131.044C127.346 130.892 127.63 130.74 127.99 130.588C128.358 130.436 128.798 130.36 129.31 130.36C129.742 130.36 130.118 130.428 130.438 130.564C130.766 130.692 131.018 130.88 131.194 131.128C131.378 131.376 131.47 131.68 131.47 132.04V136H130.51V132.172C130.51 131.98 130.478 131.824 130.414 131.704C130.35 131.576 130.258 131.476 130.138 131.404C130.026 131.332 129.894 131.28 129.742 131.248C129.59 131.216 129.43 131.2 129.262 131.2C128.99 131.2 128.742 131.232 128.518 131.296C128.302 131.36 128.118 131.436 127.966 131.524C127.814 131.612 127.694 131.688 127.606 131.752ZM137.417 130.48L133.817 138.64H132.737L134.249 135.22L132.137 130.48H133.277L135.029 134.8L134.633 134.752L136.337 130.48H137.417ZM140.282 136.12C139.77 136.12 139.314 136 138.914 135.76C138.522 135.512 138.214 135.172 137.99 134.74C137.774 134.308 137.666 133.808 137.666 133.24C137.666 132.664 137.778 132.16 138.002 131.728C138.234 131.296 138.554 130.96 138.962 130.72C139.378 130.48 139.858 130.36 140.402 130.36C140.946 130.36 141.41 130.476 141.794 130.708C142.186 130.932 142.486 131.256 142.694 131.68C142.902 132.104 143.006 132.608 143.006 133.192C143.006 133.248 143.002 133.308 142.994 133.372C142.994 133.428 142.994 133.464 142.994 133.48H138.278V132.664H142.238L141.854 133.216C141.878 133.176 141.902 133.116 141.926 133.036C141.95 132.948 141.962 132.876 141.962 132.82C141.962 132.492 141.894 132.208 141.758 131.968C141.63 131.728 141.45 131.54 141.218 131.404C140.986 131.268 140.714 131.2 140.402 131.2C140.034 131.2 139.718 131.28 139.454 131.44C139.198 131.592 138.998 131.816 138.854 132.112C138.718 132.4 138.646 132.756 138.638 133.18C138.638 133.612 138.706 133.98 138.842 134.284C138.978 134.588 139.178 134.82 139.442 134.98C139.706 135.14 140.026 135.22 140.402 135.22C140.778 135.22 141.11 135.14 141.398 134.98C141.686 134.812 141.93 134.56 142.13 134.224L142.91 134.716C142.622 135.18 142.258 135.532 141.818 135.772C141.386 136.004 140.874 136.12 140.282 136.12ZM145.282 130.48V136H144.322V130.48H145.282ZM146.95 131.536C146.822 131.44 146.706 131.372 146.602 131.332C146.498 131.284 146.366 131.26 146.206 131.26C145.966 131.26 145.778 131.32 145.642 131.44C145.506 131.56 145.41 131.724 145.354 131.932C145.306 132.14 145.282 132.376 145.282 132.64H144.85C144.85 132.2 144.926 131.812 145.078 131.476C145.238 131.132 145.442 130.86 145.69 130.66C145.938 130.46 146.19 130.36 146.446 130.36C146.646 130.36 146.83 130.388 146.998 130.444C147.174 130.492 147.334 130.592 147.478 130.744L146.95 131.536ZM152.093 129.256V128.2L154.973 127.48V136H153.953V128.704L152.093 129.256ZM158.311 134.68L159.271 135.04L157.951 138.04L157.255 137.788L158.311 134.68ZM165.156 133.24C165.156 133.624 165.236 133.964 165.396 134.26C165.564 134.556 165.788 134.792 166.068 134.968C166.356 135.136 166.68 135.22 167.04 135.22C167.336 135.22 167.612 135.176 167.868 135.088C168.132 134.992 168.36 134.868 168.552 134.716C168.744 134.556 168.88 134.388 168.96 134.212V135.412C168.768 135.636 168.492 135.812 168.132 135.94C167.78 136.06 167.416 136.12 167.04 136.12C166.504 136.12 166.02 135.996 165.588 135.748C165.156 135.5 164.812 135.16 164.556 134.728C164.308 134.288 164.184 133.792 164.184 133.24C164.184 132.68 164.308 132.184 164.556 131.752C164.812 131.32 165.156 130.98 165.588 130.732C166.02 130.484 166.504 130.36 167.04 130.36C167.416 130.36 167.78 130.424 168.132 130.552C168.492 130.672 168.768 130.844 168.96 131.068V132.268C168.88 132.084 168.744 131.916 168.552 131.764C168.36 131.612 168.132 131.492 167.868 131.404C167.612 131.308 167.336 131.26 167.04 131.26C166.68 131.26 166.356 131.344 166.068 131.512C165.788 131.68 165.564 131.916 165.396 132.22C165.236 132.516 165.156 132.856 165.156 133.24ZM171.415 130.48V136H170.455V130.48H171.415ZM173.083 131.536C172.955 131.44 172.839 131.372 172.735 131.332C172.631 131.284 172.499 131.26 172.339 131.26C172.099 131.26 171.911 131.32 171.775 131.44C171.639 131.56 171.543 131.724 171.487 131.932C171.439 132.14 171.415 132.376 171.415 132.64H170.983C170.983 132.2 171.059 131.812 171.211 131.476C171.371 131.132 171.575 130.86 171.823 130.66C172.071 130.46 172.323 130.36 172.579 130.36C172.779 130.36 172.963 130.388 173.131 130.444C173.307 130.492 173.467 130.592 173.611 130.744L173.083 131.536ZM176.528 136.12C176.016 136.12 175.56 136 175.16 135.76C174.768 135.512 174.46 135.172 174.236 134.74C174.02 134.308 173.912 133.808 173.912 133.24C173.912 132.664 174.024 132.16 174.248 131.728C174.48 131.296 174.8 130.96 175.208 130.72C175.624 130.48 176.104 130.36 176.648 130.36C177.192 130.36 177.656 130.476 178.04 130.708C178.432 130.932 178.732 131.256 178.94 131.68C179.148 132.104 179.252 132.608 179.252 133.192C179.252 133.248 179.248 133.308 179.24 133.372C179.24 133.428 179.24 133.464 179.24 133.48H174.524V132.664H178.484L178.1 133.216C178.124 133.176 178.148 133.116 178.172 133.036C178.196 132.948 178.208 132.876 178.208 132.82C178.208 132.492 178.14 132.208 178.004 131.968C177.876 131.728 177.696 131.54 177.464 131.404C177.232 131.268 176.96 131.2 176.648 131.2C176.28 131.2 175.964 131.28 175.7 131.44C175.444 131.592 175.244 131.816 175.1 132.112C174.964 132.4 174.892 132.756 174.884 133.18C174.884 133.612 174.952 133.98 175.088 134.284C175.224 134.588 175.424 134.82 175.688 134.98C175.952 135.14 176.272 135.22 176.648 135.22C177.024 135.22 177.356 135.14 177.644 134.98C177.932 134.812 178.176 134.56 178.376 134.224L179.156 134.716C178.868 135.18 178.504 135.532 178.064 135.772C177.632 136.004 177.12 136.12 176.528 136.12ZM181 134.296C181 134.504 181.048 134.684 181.144 134.836C181.248 134.988 181.388 135.104 181.564 135.184C181.748 135.256 181.956 135.292 182.188 135.292C182.484 135.292 182.748 135.232 182.98 135.112C183.22 134.992 183.408 134.824 183.544 134.608C183.688 134.384 183.76 134.128 183.76 133.84L183.952 134.56C183.952 134.912 183.844 135.204 183.628 135.436C183.42 135.668 183.16 135.84 182.848 135.952C182.544 136.064 182.24 136.12 181.936 136.12C181.6 136.12 181.284 136.052 180.988 135.916C180.7 135.772 180.468 135.568 180.292 135.304C180.116 135.04 180.028 134.72 180.028 134.344C180.028 133.808 180.216 133.38 180.592 133.06C180.976 132.732 181.508 132.568 182.188 132.568C182.588 132.568 182.92 132.616 183.184 132.712C183.456 132.8 183.672 132.904 183.832 133.024C183.992 133.136 184.1 133.228 184.156 133.3V133.864C183.876 133.672 183.588 133.536 183.292 133.456C182.996 133.368 182.68 133.324 182.344 133.324C182.032 133.324 181.776 133.364 181.576 133.444C181.384 133.524 181.24 133.636 181.144 133.78C181.048 133.924 181 134.096 181 134.296ZM180.856 131.752L180.388 131.044C180.596 130.892 180.88 130.74 181.24 130.588C181.608 130.436 182.048 130.36 182.56 130.36C182.992 130.36 183.368 130.428 183.688 130.564C184.016 130.692 184.268 130.88 184.444 131.128C184.628 131.376 184.72 131.68 184.72 132.04V136H183.76V132.172C183.76 131.98 183.728 131.824 183.664 131.704C183.6 131.576 183.508 131.476 183.388 131.404C183.276 131.332 183.144 131.28 182.992 131.248C182.84 131.216 182.68 131.2 182.512 131.2C182.24 131.2 181.992 131.232 181.768 131.296C181.552 131.36 181.368 131.436 181.216 131.524C181.064 131.612 180.944 131.688 180.856 131.752ZM185.505 130.48H188.265V131.38H185.505V130.48ZM186.405 128.56H187.365V136H186.405V128.56ZM191.364 136.12C190.852 136.12 190.396 136 189.996 135.76C189.604 135.512 189.296 135.172 189.072 134.74C188.856 134.308 188.748 133.808 188.748 133.24C188.748 132.664 188.86 132.16 189.084 131.728C189.316 131.296 189.636 130.96 190.044 130.72C190.46 130.48 190.94 130.36 191.484 130.36C192.028 130.36 192.492 130.476 192.876 130.708C193.268 130.932 193.568 131.256 193.776 131.68C193.984 132.104 194.088 132.608 194.088 133.192C194.088 133.248 194.084 133.308 194.076 133.372C194.076 133.428 194.076 133.464 194.076 133.48H189.36V132.664H193.32L192.936 133.216C192.96 133.176 192.984 133.116 193.008 133.036C193.032 132.948 193.044 132.876 193.044 132.82C193.044 132.492 192.976 132.208 192.84 131.968C192.712 131.728 192.532 131.54 192.3 131.404C192.068 131.268 191.796 131.2 191.484 131.2C191.116 131.2 190.8 131.28 190.536 131.44C190.28 131.592 190.08 131.816 189.936 132.112C189.8 132.4 189.728 132.756 189.72 133.18C189.72 133.612 189.788 133.98 189.924 134.284C190.06 134.588 190.26 134.82 190.524 134.98C190.788 135.14 191.108 135.22 191.484 135.22C191.86 135.22 192.192 135.14 192.48 134.98C192.768 134.812 193.012 134.56 193.212 134.224L193.992 134.716C193.704 135.18 193.34 135.532 192.9 135.772C192.468 136.004 191.956 136.12 191.364 136.12ZM199.002 126.64H199.962V136H199.002V126.64ZM202.199 134.296C202.199 134.504 202.247 134.684 202.343 134.836C202.447 134.988 202.587 135.104 202.763 135.184C202.947 135.256 203.155 135.292 203.387 135.292C203.683 135.292 203.947 135.232 204.179 135.112C204.419 134.992 204.607 134.824 204.743 134.608C204.887 134.384 204.959 134.128 204.959 133.84L205.151 134.56C205.151 134.912 205.043 135.204 204.827 135.436C204.619 135.668 204.359 135.84 204.047 135.952C203.743 136.064 203.439 136.12 203.135 136.12C202.799 136.12 202.483 136.052 202.187 135.916C201.899 135.772 201.667 135.568 201.491 135.304C201.315 135.04 201.227 134.72 201.227 134.344C201.227 133.808 201.415 133.38 201.791 133.06C202.175 132.732 202.707 132.568 203.387 132.568C203.787 132.568 204.119 132.616 204.383 132.712C204.655 132.8 204.871 132.904 205.031 133.024C205.191 133.136 205.299 133.228 205.355 133.3V133.864C205.075 133.672 204.787 133.536 204.491 133.456C204.195 133.368 203.879 133.324 203.543 133.324C203.231 133.324 202.975 133.364 202.775 133.444C202.583 133.524 202.439 133.636 202.343 133.78C202.247 133.924 202.199 134.096 202.199 134.296ZM202.055 131.752L201.587 131.044C201.795 130.892 202.079 130.74 202.439 130.588C202.807 130.436 203.247 130.36 203.759 130.36C204.191 130.36 204.567 130.428 204.887 130.564C205.215 130.692 205.467 130.88 205.643 131.128C205.827 131.376 205.919 131.68 205.919 132.04V136H204.959V132.172C204.959 131.98 204.927 131.824 204.863 131.704C204.799 131.576 204.707 131.476 204.587 131.404C204.475 131.332 204.343 131.28 204.191 131.248C204.039 131.216 203.879 131.2 203.711 131.2C203.439 131.2 203.191 131.232 202.967 131.296C202.751 131.36 202.567 131.436 202.415 131.524C202.263 131.612 202.143 131.688 202.055 131.752ZM211.866 130.48L208.266 138.64H207.186L208.698 135.22L206.586 130.48H207.726L209.478 134.8L209.082 134.752L210.786 130.48H211.866ZM214.731 136.12C214.219 136.12 213.763 136 213.363 135.76C212.971 135.512 212.663 135.172 212.439 134.74C212.223 134.308 212.115 133.808 212.115 133.24C212.115 132.664 212.227 132.16 212.451 131.728C212.683 131.296 213.003 130.96 213.411 130.72C213.827 130.48 214.307 130.36 214.851 130.36C215.395 130.36 215.859 130.476 216.243 130.708C216.635 130.932 216.935 131.256 217.143 131.68C217.351 132.104 217.455 132.608 217.455 133.192C217.455 133.248 217.451 133.308 217.443 133.372C217.443 133.428 217.443 133.464 217.443 133.48H212.727V132.664H216.687L216.303 133.216C216.327 133.176 216.351 133.116 216.375 133.036C216.399 132.948 216.411 132.876 216.411 132.82C216.411 132.492 216.343 132.208 216.207 131.968C216.079 131.728 215.899 131.54 215.667 131.404C215.435 131.268 215.163 131.2 214.851 131.2C214.483 131.2 214.167 131.28 213.903 131.44C213.647 131.592 213.447 131.816 213.303 132.112C213.167 132.4 213.095 132.756 213.087 133.18C213.087 133.612 213.155 133.98 213.291 134.284C213.427 134.588 213.627 134.82 213.891 134.98C214.155 135.14 214.475 135.22 214.851 135.22C215.227 135.22 215.559 135.14 215.847 134.98C216.135 134.812 216.379 134.56 216.579 134.224L217.359 134.716C217.071 135.18 216.707 135.532 216.267 135.772C215.835 136.004 215.323 136.12 214.731 136.12ZM219.731 130.48V136H218.771V130.48H219.731ZM221.399 131.536C221.271 131.44 221.155 131.372 221.051 131.332C220.947 131.284 220.815 131.26 220.655 131.26C220.415 131.26 220.227 131.32 220.091 131.44C219.955 131.56 219.859 131.724 219.803 131.932C219.755 132.14 219.731 132.376 219.731 132.64H219.299C219.299 132.2 219.375 131.812 219.527 131.476C219.687 131.132 219.891 130.86 220.139 130.66C220.387 130.46 220.639 130.36 220.895 130.36C221.095 130.36 221.279 130.388 221.447 130.444C221.623 130.492 221.783 130.592 221.927 130.744L221.399 131.536ZM38.96 146.256V145.2L41.84 144.48V153H40.82V145.704L38.96 146.256ZM47.06 147.48H49.82V148.38H47.06V147.48ZM47.96 145.56H48.92V153H47.96V145.56ZM50.3028 150.24C50.3028 149.68 50.4268 149.184 50.6748 148.752C50.9308 148.32 51.2748 147.98 51.7068 147.732C52.1388 147.484 52.6228 147.36 53.1588 147.36C53.7028 147.36 54.1868 147.484 54.6108 147.732C55.0428 147.98 55.3828 148.32 55.6308 148.752C55.8868 149.184 56.0148 149.68 56.0148 150.24C56.0148 150.792 55.8868 151.288 55.6308 151.728C55.3828 152.16 55.0428 152.5 54.6108 152.748C54.1868 152.996 53.7028 153.12 53.1588 153.12C52.6228 153.12 52.1388 152.996 51.7068 152.748C51.2748 152.5 50.9308 152.16 50.6748 151.728C50.4268 151.288 50.3028 150.792 50.3028 150.24ZM51.2748 150.24C51.2748 150.624 51.3548 150.964 51.5148 151.26C51.6828 151.556 51.9068 151.792 52.1868 151.968C52.4748 152.136 52.7988 152.22 53.1588 152.22C53.5188 152.22 53.8388 152.136 54.1188 151.968C54.4068 151.792 54.6308 151.556 54.7908 151.26C54.9588 150.964 55.0428 150.624 55.0428 150.24C55.0428 149.856 54.9588 149.516 54.7908 149.22C54.6308 148.916 54.4068 148.68 54.1188 148.512C53.8388 148.344 53.5188 148.26 53.1588 148.26C52.7988 148.26 52.4748 148.344 52.1868 148.512C51.9068 148.68 51.6828 148.916 51.5148 149.22C51.3548 149.516 51.2748 149.856 51.2748 150.24ZM61.3633 151.296C61.3633 151.504 61.4113 151.684 61.5073 151.836C61.6113 151.988 61.7513 152.104 61.9273 152.184C62.1113 152.256 62.3193 152.292 62.5513 152.292C62.8473 152.292 63.1113 152.232 63.3433 152.112C63.5833 151.992 63.7713 151.824 63.9073 151.608C64.0513 151.384 64.1233 151.128 64.1233 150.84L64.3153 151.56C64.3153 151.912 64.2073 152.204 63.9913 152.436C63.7833 152.668 63.5233 152.84 63.2113 152.952C62.9073 153.064 62.6033 153.12 62.2993 153.12C61.9633 153.12 61.6473 153.052 61.3513 152.916C61.0633 152.772 60.8313 152.568 60.6553 152.304C60.4793 152.04 60.3913 151.72 60.3913 151.344C60.3913 150.808 60.5793 150.38 60.9553 150.06C61.3393 149.732 61.8713 149.568 62.5513 149.568C62.9513 149.568 63.2833 149.616 63.5473 149.712C63.8193 149.8 64.0353 149.904 64.1953 150.024C64.3553 150.136 64.4633 150.228 64.5193 150.3V150.864C64.2393 150.672 63.9513 150.536 63.6553 150.456C63.3593 150.368 63.0433 150.324 62.7073 150.324C62.3953 150.324 62.1393 150.364 61.9393 150.444C61.7473 150.524 61.6033 150.636 61.5073 150.78C61.4113 150.924 61.3633 151.096 61.3633 151.296ZM61.2193 148.752L60.7513 148.044C60.9593 147.892 61.2433 147.74 61.6033 147.588C61.9713 147.436 62.4113 147.36 62.9233 147.36C63.3553 147.36 63.7313 147.428 64.0513 147.564C64.3793 147.692 64.6313 147.88 64.8073 148.128C64.9913 148.376 65.0833 148.68 65.0833 149.04V153H64.1233V149.172C64.1233 148.98 64.0913 148.824 64.0273 148.704C63.9633 148.576 63.8713 148.476 63.7513 148.404C63.6393 148.332 63.5073 148.28 63.3553 148.248C63.2033 148.216 63.0433 148.2 62.8753 148.2C62.6033 148.2 62.3553 148.232 62.1313 148.296C61.9153 148.36 61.7313 148.436 61.5793 148.524C61.4273 148.612 61.3073 148.688 61.2193 148.752ZM70.8486 143.64H71.8086V153H70.8486V143.64ZM66.2286 150.24C66.2286 149.64 66.3526 149.128 66.6006 148.704C66.8486 148.272 67.1806 147.94 67.5966 147.708C68.0126 147.476 68.4686 147.36 68.9646 147.36C69.4286 147.36 69.8326 147.476 70.1766 147.708C70.5206 147.94 70.7886 148.272 70.9806 148.704C71.1806 149.128 71.2806 149.64 71.2806 150.24C71.2806 150.832 71.1806 151.344 70.9806 151.776C70.7886 152.208 70.5206 152.54 70.1766 152.772C69.8326 153.004 69.4286 153.12 68.9646 153.12C68.4686 153.12 68.0126 153.004 67.5966 152.772C67.1806 152.54 66.8486 152.208 66.6006 151.776C66.3526 151.344 66.2286 150.832 66.2286 150.24ZM67.2006 150.24C67.2006 150.664 67.2846 151.024 67.4526 151.32C67.6286 151.616 67.8606 151.84 68.1486 151.992C68.4366 152.144 68.7486 152.22 69.0846 152.22C69.3646 152.22 69.6406 152.144 69.9126 151.992C70.1846 151.84 70.4086 151.616 70.5846 151.32C70.7606 151.024 70.8486 150.664 70.8486 150.24C70.8486 149.816 70.7606 149.456 70.5846 149.16C70.4086 148.864 70.1846 148.64 69.9126 148.488C69.6406 148.336 69.3646 148.26 69.0846 148.26C68.7486 148.26 68.4366 148.336 68.1486 148.488C67.8606 148.64 67.6286 148.864 67.4526 149.16C67.2846 149.456 67.2006 149.816 67.2006 150.24ZM77.6923 143.64H78.6523V153H77.6923V143.64ZM73.0723 150.24C73.0723 149.64 73.1963 149.128 73.4443 148.704C73.6923 148.272 74.0243 147.94 74.4403 147.708C74.8563 147.476 75.3123 147.36 75.8083 147.36C76.2723 147.36 76.6763 147.476 77.0203 147.708C77.3643 147.94 77.6323 148.272 77.8243 148.704C78.0243 149.128 78.1243 149.64 78.1243 150.24C78.1243 150.832 78.0243 151.344 77.8243 151.776C77.6323 152.208 77.3643 152.54 77.0203 152.772C76.6763 153.004 76.2723 153.12 75.8083 153.12C75.3123 153.12 74.8563 153.004 74.4403 152.772C74.0243 152.54 73.6923 152.208 73.4443 151.776C73.1963 151.344 73.0723 150.832 73.0723 150.24ZM74.0443 150.24C74.0443 150.664 74.1283 151.024 74.2963 151.32C74.4723 151.616 74.7043 151.84 74.9923 151.992C75.2803 152.144 75.5923 152.22 75.9283 152.22C76.2083 152.22 76.4843 152.144 76.7563 151.992C77.0283 151.84 77.2523 151.616 77.4283 151.32C77.6043 151.024 77.6923 150.664 77.6923 150.24C77.6923 149.816 77.6043 149.456 77.4283 149.16C77.2523 148.864 77.0283 148.64 76.7563 148.488C76.4843 148.336 76.2083 148.26 75.9283 148.26C75.5923 148.26 75.2803 148.336 74.9923 148.488C74.7043 148.64 74.4723 148.864 74.2963 149.16C74.1283 149.456 74.0443 149.816 74.0443 150.24ZM83.9938 143.64H84.9538V153H83.9938V143.64ZM87.1914 151.296C87.1914 151.504 87.2394 151.684 87.3354 151.836C87.4394 151.988 87.5794 152.104 87.7554 152.184C87.9394 152.256 88.1474 152.292 88.3794 152.292C88.6754 152.292 88.9394 152.232 89.1714 152.112C89.4114 151.992 89.5994 151.824 89.7354 151.608C89.8794 151.384 89.9514 151.128 89.9514 150.84L90.1434 151.56C90.1434 151.912 90.0354 152.204 89.8194 152.436C89.6114 152.668 89.3514 152.84 89.0394 152.952C88.7354 153.064 88.4314 153.12 88.1274 153.12C87.7914 153.12 87.4754 153.052 87.1794 152.916C86.8914 152.772 86.6594 152.568 86.4834 152.304C86.3074 152.04 86.2194 151.72 86.2194 151.344C86.2194 150.808 86.4074 150.38 86.7834 150.06C87.1674 149.732 87.6994 149.568 88.3794 149.568C88.7794 149.568 89.1114 149.616 89.3754 149.712C89.6474 149.8 89.8634 149.904 90.0234 150.024C90.1834 150.136 90.2914 150.228 90.3474 150.3V150.864C90.0674 150.672 89.7794 150.536 89.4834 150.456C89.1874 150.368 88.8714 150.324 88.5354 150.324C88.2234 150.324 87.9674 150.364 87.7674 150.444C87.5754 150.524 87.4314 150.636 87.3354 150.78C87.2394 150.924 87.1914 151.096 87.1914 151.296ZM87.0474 148.752L86.5794 148.044C86.7874 147.892 87.0714 147.74 87.4314 147.588C87.7994 147.436 88.2394 147.36 88.7514 147.36C89.1834 147.36 89.5594 147.428 89.8794 147.564C90.2074 147.692 90.4594 147.88 90.6354 148.128C90.8194 148.376 90.9114 148.68 90.9114 149.04V153H89.9514V149.172C89.9514 148.98 89.9194 148.824 89.8554 148.704C89.7914 148.576 89.6994 148.476 89.5794 148.404C89.4674 148.332 89.3354 148.28 89.1834 148.248C89.0314 148.216 88.8714 148.2 88.7034 148.2C88.4314 148.2 88.1834 148.232 87.9594 148.296C87.7434 148.36 87.5594 148.436 87.4074 148.524C87.2554 148.612 87.1354 148.688 87.0474 148.752ZM96.8581 147.48L93.2581 155.64H92.1781L93.6901 152.22L91.5781 147.48H92.7181L94.4701 151.8L94.0741 151.752L95.7781 147.48H96.8581ZM99.7235 153.12C99.2115 153.12 98.7555 153 98.3555 152.76C97.9635 152.512 97.6555 152.172 97.4315 151.74C97.2155 151.308 97.1075 150.808 97.1075 150.24C97.1075 149.664 97.2195 149.16 97.4435 148.728C97.6755 148.296 97.9955 147.96 98.4035 147.72C98.8195 147.48 99.2995 147.36 99.8435 147.36C100.388 147.36 100.852 147.476 101.236 147.708C101.628 147.932 101.928 148.256 102.136 148.68C102.344 149.104 102.448 149.608 102.448 150.192C102.448 150.248 102.444 150.308 102.436 150.372C102.436 150.428 102.436 150.464 102.436 150.48H97.7195V149.664H101.68L101.296 150.216C101.32 150.176 101.344 150.116 101.368 150.036C101.392 149.948 101.404 149.876 101.404 149.82C101.404 149.492 101.336 149.208 101.2 148.968C101.072 148.728 100.892 148.54 100.66 148.404C100.428 148.268 100.156 148.2 99.8435 148.2C99.4755 148.2 99.1595 148.28 98.8955 148.44C98.6395 148.592 98.4395 148.816 98.2955 149.112C98.1595 149.4 98.0875 149.756 98.0795 150.18C98.0795 150.612 98.1475 150.98 98.2835 151.284C98.4195 151.588 98.6195 151.82 98.8835 151.98C99.1475 152.14 99.4675 152.22 99.8435 152.22C100.22 152.22 100.552 152.14 100.84 151.98C101.128 151.812 101.372 151.56 101.572 151.224L102.352 151.716C102.064 152.18 101.7 152.532 101.26 152.772C100.828 153.004 100.316 153.12 99.7235 153.12ZM104.723 147.48V153H103.763V147.48H104.723ZM106.391 148.536C106.263 148.44 106.147 148.372 106.043 148.332C105.939 148.284 105.807 148.26 105.647 148.26C105.407 148.26 105.219 148.32 105.083 148.44C104.947 148.56 104.851 148.724 104.795 148.932C104.747 149.14 104.723 149.376 104.723 149.64H104.291C104.291 149.2 104.367 148.812 104.519 148.476C104.679 148.132 104.883 147.86 105.131 147.66C105.379 147.46 105.631 147.36 105.887 147.36C106.087 147.36 106.271 147.388 106.439 147.444C106.615 147.492 106.775 147.592 106.919 147.744L106.391 148.536ZM110.814 153L114.786 148.764C114.97 148.564 115.126 148.368 115.254 148.176C115.39 147.976 115.49 147.776 115.554 147.576C115.626 147.368 115.662 147.152 115.662 146.928C115.662 146.744 115.626 146.564 115.554 146.388C115.482 146.212 115.374 146.052 115.23 145.908C115.094 145.764 114.926 145.648 114.726 145.56C114.526 145.472 114.298 145.428 114.042 145.428C113.682 145.428 113.37 145.512 113.106 145.68C112.85 145.84 112.654 146.076 112.518 146.388C112.382 146.692 112.314 147.056 112.314 147.48H111.294C111.294 146.88 111.402 146.356 111.618 145.908C111.834 145.452 112.146 145.1 112.554 144.852C112.97 144.596 113.466 144.468 114.042 144.468C114.506 144.468 114.906 144.548 115.242 144.708C115.578 144.86 115.854 145.06 116.07 145.308C116.286 145.548 116.446 145.808 116.55 146.088C116.654 146.368 116.706 146.636 116.706 146.892C116.706 147.324 116.602 147.752 116.394 148.176C116.186 148.6 115.918 148.98 115.59 149.316L112.914 152.04H116.742V153H110.814Z" fill="#656565"/>
<path d="M71.214 91.2655L69.9993 88.6746C69.6857 88.0053 69.1098 87.4864 68.4198 87.2517L62.7623 85.3273C61.4793 84.8909 60.0669 84.8909 58.7839 85.3273L53.1273 87.2517C52.4363 87.4864 51.8604 88.0063 51.5469 88.6764L50.3915 91.1583C49.9629 91.8844 49.882 92.7554 50.1695 93.5503C50.4472 94.3204 51.0357 94.9163 51.7886 95.1969L51.7841 100.986C51.7823 102.964 53.0167 104.713 54.855 105.339L58.7767 106.673C59.4182 106.891 60.0921 107 60.7659 107C61.4397 107 62.1136 106.891 62.7551 106.673L66.6804 105.337C68.5159 104.713 69.7504 102.967 69.7522 100.992L69.7567 95.1978C70.5168 94.9255 71.1116 94.3305 71.391 93.5567C71.6758 92.77 71.5967 91.9073 71.214 91.2655ZM59.3526 87.0674C60.2691 86.7557 61.278 86.7557 62.1935 87.0674L66.0102 88.3656L60.7794 90.1534L55.5378 88.3656L59.3526 87.0674ZM51.9718 92.0265L53.1641 89.4759C53.2072 89.4988 59.5045 91.6515 59.5045 91.6515L58.0481 94.6385C57.8333 95.0034 57.3877 95.1721 56.9942 95.0364L52.4292 93.4842C52.1623 93.3935 51.953 93.1863 51.855 92.9167C51.7571 92.6472 51.785 92.352 51.9709 92.0274L51.9718 92.0265ZM55.4228 103.6C54.3195 103.225 53.5792 102.175 53.5801 100.988L53.5846 95.8102L56.4255 96.7765C57.633 97.1873 58.934 96.6968 59.6231 95.5196L59.8728 95.0089L59.8683 105.077C59.6913 105.04 59.517 104.993 59.3463 104.934L55.4237 103.6L55.4228 103.6ZM66.1117 103.599L62.1854 104.934C62.0147 104.992 61.8404 105.04 61.6634 105.077L61.6679 94.9961L61.9545 95.5828C62.4541 96.4337 63.331 96.9205 64.2555 96.9205C64.5421 96.9205 64.8332 96.8737 65.118 96.7765L67.958 95.8111L67.9535 100.992C67.9535 102.177 67.2114 103.225 66.1099 103.6L66.1117 103.599ZM69.7055 92.9232C69.6112 93.1844 69.4081 93.3852 69.1494 93.4732L64.5511 95.0373C64.1576 95.1721 63.7119 95.0053 63.5304 94.7027L62.0435 91.6561C62.0435 91.6561 68.3381 89.5007 68.3812 89.4768L69.6327 92.1365C69.7738 92.3758 69.7998 92.6628 69.7055 92.9241V92.9232Z" fill="#222222"/>
<circle cx="76" cy="76" r="8" fill="#EFCFE4"/>
<path d="M74.16 79L76.656 76.416C76.8053 76.2507 76.9333 76.1013 77.04 75.968C77.152 75.8347 77.2347 75.704 77.288 75.576C77.3467 75.4427 77.376 75.3013 77.376 75.152C77.376 75.0667 77.36 74.9813 77.328 74.896C77.296 74.8107 77.248 74.736 77.184 74.672C77.12 74.6027 77.04 74.5493 76.944 74.512C76.848 74.4693 76.736 74.448 76.608 74.448C76.4373 74.448 76.2853 74.4907 76.152 74.576C76.024 74.6613 75.9253 74.7813 75.856 74.936C75.792 75.0907 75.76 75.2693 75.76 75.472H74.432C74.432 75.072 74.5147 74.7067 74.68 74.376C74.8453 74.0453 75.0933 73.7813 75.424 73.584C75.76 73.3867 76.168 73.288 76.648 73.288C76.9947 73.288 77.3013 73.3413 77.568 73.448C77.8347 73.5493 78.056 73.688 78.232 73.864C78.4133 74.0347 78.5493 74.224 78.64 74.432C78.7307 74.64 78.776 74.8507 78.776 75.064C78.776 75.368 78.7013 75.648 78.552 75.904C78.4027 76.1547 78.208 76.384 77.968 76.592L76.664 77.76H78.904V79H74.16Z" fill="#222222"/>
<g filter="url(#filter2_b_639_34949)">
<rect x="1" width="238" height="219" rx="10" fill="#222222" fill-opacity="0.9"/>
</g>
<defs>
<filter id="filter0_d_639_34949" x="0" y="0" width="246" height="227" filterUnits="userSpaceOnUse" color-interpolation-filters="sRGB">
<feFlood flood-opacity="0" result="BackgroundImageFix"/>
<feColorMatrix in="SourceAlpha" type="matrix" values="0 0 0 0 0 0 0 0 0 0 0 0 0 0 0 0 0 0 127 0" result="hardAlpha"/>
<feOffset dx="3" dy="4"/>
<feGaussianBlur stdDeviation="2"/>
<feComposite in2="hardAlpha" operator="out"/>
<feColorMatrix type="matrix" values="0 0 0 0 0.593372 0 0 0 0 0.523611 0 0 0 0 0.604167 0 0 0 0.13 0"/>
<feBlend mode="normal" in2="BackgroundImageFix" result="effect1_dropShadow_639_34949"/>
<feBlend mode="normal" in="SourceGraphic" in2="effect1_dropShadow_639_34949" result="shape"/>
</filter>
<filter id="filter1_d_639_34949" x="35" y="66" width="58" height="60" filterUnits="userSpaceOnUse" color-interpolation-filters="sRGB">
<feFlood flood-opacity="0" result="BackgroundImageFix"/>
<feColorMatrix in="SourceAlpha" type="matrix" values="0 0 0 0 0 0 0 0 0 0 0 0 0 0 0 0 0 0 127 0" result="hardAlpha"/>
<feOffset dx="3" dy="4"/>
<feGaussianBlur stdDeviation="2"/>
<feComposite in2="hardAlpha" operator="out"/>
<feColorMatrix type="matrix" values="0 0 0 0 0.593372 0 0 0 0 0.523611 0 0 0 0 0.604167 0 0 0 0.13 0"/>
<feBlend mode="normal" in2="BackgroundImageFix" result="effect1_dropShadow_639_34949"/>
<feBlend mode="normal" in="SourceGraphic" in2="effect1_dropShadow_639_34949" result="shape"/>
</filter>
<filter id="filter2_b_639_34949" x="-4" y="-5" width="248" height="229" filterUnits="userSpaceOnUse" color-interpolation-filters="sRGB">
<feFlood flood-opacity="0" result="BackgroundImageFix"/>
<feGaussianBlur in="BackgroundImageFix" stdDeviation="2.5"/>
<feComposite in2="SourceAlpha" operator="in" result="effect1_backgroundBlur_639_34949"/>
<feBlend mode="normal" in="SourceGraphic" in2="effect1_backgroundBlur_639_34949" result="shape"/>
</filter>
<linearGradient id="paint0_linear_639_34949" x1="16.7368" y1="242.545" x2="276.375" y2="136.091" gradientUnits="userSpaceOnUse">
<stop stop-color="#FFB6D5"/>
<stop offset="0.1" stop-color="#FFE3C0"/>
<stop offset="0.29" stop-color="#C7FBDB"/>
<stop offset="0.43" stop-color="#C7CDF4"/>
<stop offset="0.54" stop-color="#FFBCD4"/>
<stop offset="0.66" stop-color="#FFE0C3"/>
<stop offset="0.76" stop-color="#B0F1D4"/>
<stop offset="0.84" stop-color="#C9CEEC"/>
<stop offset="0.91" stop-color="#FFC1DA"/>
<stop offset="1" stop-color="#BDFFE3"/>
</linearGradient>
<linearGradient id="paint1_linear_639_34949" x1="17.7368" y1="242.545" x2="277.375" y2="136.091" gradientUnits="userSpaceOnUse">
<stop stop-color="#FFB6D5"/>
<stop offset="0.1" stop-color="#FFE3C0"/>
<stop offset="0.29" stop-color="#C7FBDB"/>
<stop offset="0.43" stop-color="#C7CDF4"/>
<stop offset="0.54" stop-color="#FFBCD4"/>
<stop offset="0.66" stop-color="#FFE0C3"/>
<stop offset="0.76" stop-color="#B0F1D4"/>
<stop offset="0.84" stop-color="#C9CEEC"/>
<stop offset="0.91" stop-color="#FFC1DA"/>
<stop offset="1" stop-color="#BDFFE3"/>
</linearGradient>
</defs>
</svg>
