<svg width="113" height="43" viewBox="0 0 113 43" fill="none" xmlns="http://www.w3.org/2000/svg">
<path d="M103 0.5H11C5.75329 0.5 1.5 4.75329 1.5 10V33C1.5 38.2467 5.75329 42.5 11 42.5H103C108.247 42.5 112.5 38.2467 112.5 33V10C112.5 4.75329 108.247 0.5 103 0.5Z" stroke="white"/>
<path d="M111 0H3C1.89543 0 1 0.89543 1 2V41C1 42.1046 1.89543 43 3 43H111C112.105 43 113 42.1046 113 41V2C113 0.89543 112.105 0 111 0Z" fill="url(#paint0_linear_3309_158)" fill-opacity="0.8"/>
<path d="M56 10C52.4553 10 49.5714 12.9439 49.5714 16.5625V18.5312H48.6071C48.1811 18.5318 47.7726 18.7048 47.4713 19.0124C47.17 19.3199 47.0005 19.7369 47 20.1719V29.3594C47 30.2637 47.7213 31 48.6071 31H63.3929C64.2787 31 65 30.2637 65 29.3594V20.1719C65 19.2676 64.2787 18.5312 63.3929 18.5312H62.4286V16.5625C62.4286 12.9439 59.5447 10 56 10ZM50.2143 16.5625C50.2143 13.3062 52.8101 10.6562 56 10.6562C59.1899 10.6562 61.7857 13.3062 61.7857 16.5625V18.5312H59.8571V16.5625C59.8571 14.391 58.1272 12.625 56 12.625C53.8728 12.625 52.1429 14.391 52.1429 16.5625V18.5312H50.2143V16.5625ZM59.2143 18.5312H52.7857V16.5625C52.7857 14.7532 54.2276 13.2812 56 13.2812C57.7724 13.2812 59.2143 14.7532 59.2143 16.5625V18.5312ZM54.9026 23.7812L51.6884 27.0625H48.7402L51.9545 23.7812H54.9026ZM58.7598 23.7812L55.5455 27.0625H52.5974L55.8116 23.7812H58.7598ZM62.6169 23.7812L59.4026 27.0625H56.4545L59.6688 23.7812H62.6169ZM64.3571 23.7812V27.0625H60.3116L63.5259 23.7812H64.3571ZM47.8312 27.0625H47.6429V23.7812H51.0455L47.8312 27.0625ZM63.3929 30.3438H48.6071C48.0755 30.3438 47.6429 29.9021 47.6429 29.3594V27.7188H64.3571V29.3594C64.3571 29.9021 63.9245 30.3438 63.3929 30.3438ZM64.3571 20.1719V23.125H47.6429V20.1719C47.6429 19.6292 48.0755 19.1875 48.6071 19.1875H63.3929C63.9245 19.1875 64.3571 19.6292 64.3571 20.1719Z" fill="#222222" stroke="#222222" stroke-width="0.5"/>
<defs>
<linearGradient id="paint0_linear_3309_158" x1="8.40554" y1="47.623" x2="81.0136" y2="-23.7273" gradientUnits="userSpaceOnUse">
<stop stop-color="#FFB6D5"/>
<stop offset="0.1" stop-color="#FFE3C0"/>
<stop offset="0.29" stop-color="#C7FBDB"/>
<stop offset="0.43" stop-color="#C7CDF4"/>
<stop offset="0.54" stop-color="#FFBCD4"/>
<stop offset="0.66" stop-color="#FFE0C3"/>
<stop offset="0.76" stop-color="#B0F1D4"/>
<stop offset="0.84" stop-color="#C9CEEC"/>
<stop offset="0.91" stop-color="#FFC1DA"/>
<stop offset="1" stop-color="#BDFFE3"/>
</linearGradient>
</defs>
</svg>
