<svg width="185" height="247" viewBox="0 0 185 247" fill="none" xmlns="http://www.w3.org/2000/svg">
<path d="M51.5698 222.774C52.5406 223.336 52.5406 224.256 51.5698 224.869C50.599 225.431 48.9639 225.431 47.942 224.869C46.9712 224.307 46.9712 223.387 47.942 222.774C48.9128 222.212 50.5479 222.212 51.5698 222.774Z" fill="#A5A5A5"/>
<path d="M61.0217 217.306C61.9925 217.868 61.9925 218.788 61.0217 219.401C60.0509 219.963 58.4158 219.963 57.3939 219.401C56.372 218.839 56.4231 217.919 57.3939 217.306C58.3647 216.744 59.9998 216.744 61.0217 217.306Z" fill="#A5A5A5"/>
<path d="M70.4233 211.892C71.3941 212.454 71.3941 213.374 70.4233 213.987C69.4525 214.549 67.8174 214.549 66.7955 213.987C65.8247 213.425 65.8247 212.505 66.7955 211.892C67.7663 211.33 69.4014 211.33 70.4233 211.892Z" fill="#A5A5A5"/>
<path d="M79.8764 206.422C80.8472 206.984 80.8472 207.903 79.8764 208.516C78.9056 209.079 77.2705 209.079 76.2486 208.516C75.2778 207.954 75.2778 207.035 76.2486 206.422C77.2194 205.859 78.8545 205.859 79.8764 206.422Z" fill="#A5A5A5"/>
<path d="M89.2783 201.007C90.2491 201.57 90.2491 202.489 89.2783 203.102C88.3075 203.664 86.6724 203.664 85.6505 203.102C84.6797 202.54 84.6797 201.621 85.6505 201.007C86.6213 200.445 88.2564 200.445 89.2783 201.007Z" fill="#A5A5A5"/>
<path d="M98.6796 195.54C99.6505 196.102 99.6505 197.021 98.6796 197.635C97.7088 198.197 96.0738 198.197 95.0518 197.635C94.081 197.073 94.081 196.153 95.0518 195.54C96.0227 194.978 97.6577 194.978 98.6796 195.54Z" fill="#A5A5A5"/>
<path d="M42.1682 217.306C43.139 217.868 43.139 218.788 42.1682 219.401C41.1973 219.963 39.5623 219.963 38.5404 219.401C37.5185 218.839 37.5695 217.919 38.5404 217.306C39.5112 216.744 41.1463 216.744 42.1682 217.306Z" fill="#A5A5A5"/>
<path d="M51.5698 211.892C52.5406 212.454 52.5406 213.374 51.5698 213.987C50.599 214.549 48.9639 214.549 47.942 213.987C46.9712 213.425 46.9712 212.505 47.942 211.892C48.9128 211.33 50.5479 211.33 51.5698 211.892Z" fill="#A5A5A5"/>
<path d="M61.0229 206.422C61.9937 206.984 61.9937 207.903 61.0229 208.516C60.0521 209.079 58.417 209.079 57.3951 208.516C56.4243 207.954 56.4243 207.035 57.3951 206.422C58.3659 205.859 60.001 205.859 61.0229 206.422Z" fill="#A5A5A5"/>
<path d="M70.425 201.007C71.3958 201.57 71.3958 202.489 70.425 203.102C69.4542 203.664 67.8191 203.664 66.7972 203.102C65.7753 202.54 65.8264 201.621 66.7972 201.007C67.768 200.445 69.4031 200.445 70.425 201.007Z" fill="#A5A5A5"/>
<path d="M79.8764 195.54C80.8472 196.102 80.8472 197.021 79.8764 197.635C78.9056 198.197 77.2705 198.197 76.2486 197.635C75.2778 197.073 75.2778 196.153 76.2486 195.54C77.2194 194.978 78.8545 194.978 79.8764 195.54Z" fill="#A5A5A5"/>
<path d="M89.2783 190.125C90.2491 190.687 90.2491 191.606 89.2783 192.22C88.3075 192.782 86.6724 192.782 85.6505 192.22C84.6797 191.658 84.6797 190.738 85.6505 190.125C86.6213 189.563 88.2564 189.563 89.2783 190.125Z" fill="#A5A5A5"/>
<path d="M32.7153 211.892C33.6861 212.454 33.6861 213.374 32.7153 213.987C31.7445 214.549 30.1094 214.549 29.0875 213.987C28.1167 213.425 28.1167 212.505 29.0875 211.892C30.0583 211.33 31.6934 211.33 32.7153 211.892Z" fill="#A5A5A5"/>
<path d="M42.167 206.422C43.1378 206.984 43.1378 207.903 42.167 208.516C41.1961 209.079 39.5611 209.079 38.5392 208.516C37.5683 207.954 37.5683 207.035 38.5392 206.422C39.51 205.859 41.145 205.859 42.167 206.422Z" fill="#A5A5A5"/>
<path d="M51.57 201.007C52.5409 201.57 52.5409 202.489 51.57 203.102C50.5992 203.716 48.9641 203.664 47.9422 203.102C46.9203 202.54 46.9714 201.621 47.9422 201.007C48.913 200.445 50.5481 200.445 51.57 201.007Z" fill="#A5A5A5"/>
<path d="M61.0229 195.54C61.9937 196.102 61.9937 197.021 61.0229 197.635C60.0521 198.197 58.417 198.197 57.3951 197.635C56.4243 197.073 56.4243 196.153 57.3951 195.54C58.3659 194.978 60.001 194.978 61.0229 195.54Z" fill="#A5A5A5"/>
<path d="M70.4233 190.125C71.3941 190.687 71.3941 191.606 70.4233 192.22C69.4525 192.782 67.8174 192.782 66.7955 192.22C65.8247 191.658 65.8247 190.738 66.7955 190.125C67.7663 189.563 69.4014 189.563 70.4233 190.125Z" fill="#A5A5A5"/>
<path d="M79.8764 184.659C80.8472 185.221 80.8472 186.141 79.8764 186.754C78.9056 187.316 77.2705 187.316 76.2486 186.754C75.2778 186.192 75.2778 185.272 76.2486 184.659C77.2194 184.097 78.8545 184.097 79.8764 184.659Z" fill="#A5A5A5"/>
<path d="M23.3129 206.422C24.2838 206.984 24.2838 207.903 23.3129 208.516C22.3421 209.079 20.7071 209.079 19.6851 208.516C18.7143 207.954 18.7143 207.035 19.6851 206.422C20.656 205.859 22.291 205.859 23.3129 206.422Z" fill="#A5A5A5"/>
<path d="M32.7153 201.007C33.6861 201.57 33.6861 202.489 32.7153 203.102C31.7445 203.664 30.1094 203.664 29.0875 203.102C28.1167 202.54 28.1167 201.621 29.0875 201.007C30.0583 200.445 31.6934 200.445 32.7153 201.007Z" fill="#A5A5A5"/>
<path d="M42.167 195.54C43.1378 196.102 43.1378 197.021 42.167 197.635C41.1961 198.197 39.5611 198.197 38.5392 197.635C37.5683 197.073 37.5683 196.153 38.5392 195.54C39.51 194.978 41.145 194.978 42.167 195.54Z" fill="#A5A5A5"/>
<path d="M51.5698 190.125C52.5406 190.687 52.5406 191.606 51.5698 192.22C50.599 192.782 48.9639 192.782 47.942 192.22C46.9712 191.658 46.9712 190.738 47.942 190.125C48.9128 189.563 50.5479 189.563 51.5698 190.125Z" fill="#A5A5A5"/>
<path d="M61.0217 184.659C61.9925 185.221 61.9925 186.141 61.0217 186.754C60.0509 187.316 58.4158 187.316 57.3939 186.754C56.372 186.192 56.4231 185.272 57.3939 184.659C58.3647 184.097 59.9998 184.097 61.0217 184.659Z" fill="#A5A5A5"/>
<path d="M70.425 179.242C71.3958 179.804 71.3958 180.724 70.425 181.337C69.4542 181.95 67.8191 181.899 66.7972 181.337C65.7753 180.775 65.8264 179.855 66.7972 179.242C67.768 178.68 69.4031 178.68 70.425 179.242Z" fill="#A5A5A5"/>
<path d="M12.0729 203.51C13.4838 203.51 14.6277 202.847 14.6277 202.029C14.6277 201.21 13.4838 200.547 12.0729 200.547C10.6619 200.547 9.51807 201.21 9.51807 202.029C9.51807 202.847 10.6619 203.51 12.0729 203.51Z" fill="#A5A5A5"/>
<path d="M23.3129 195.54C24.2838 196.102 24.2838 197.021 23.3129 197.635C22.3421 198.197 20.7071 198.197 19.6851 197.635C18.7143 197.073 18.7143 196.153 19.6851 195.54C20.656 194.978 22.291 194.978 23.3129 195.54Z" fill="#A5A5A5"/>
<path d="M32.7153 190.125C33.6861 190.687 33.6861 191.606 32.7153 192.22C31.7445 192.782 30.1094 192.782 29.0875 192.22C28.1167 191.658 28.1167 190.738 29.0875 190.125C30.0583 189.563 31.6934 189.563 32.7153 190.125Z" fill="#A5A5A5"/>
<path d="M42.167 184.659C43.1378 185.221 43.1378 186.141 42.167 186.754C41.1961 187.316 39.5611 187.316 38.5392 186.754C37.5683 186.192 37.5683 185.272 38.5392 184.659C39.51 184.097 41.145 184.097 42.167 184.659Z" fill="#A5A5A5"/>
<path d="M51.5698 179.242C52.5406 179.804 52.5406 180.724 51.5698 181.337C50.599 181.899 48.9639 181.899 47.942 181.337C46.9712 180.775 46.9712 179.855 47.942 179.242C48.9128 178.68 50.5479 178.68 51.5698 179.242Z" fill="#A5A5A5"/>
<path d="M4.35592 195.491C5.32674 196.053 5.32674 196.973 4.35592 197.586C3.38509 198.148 1.75003 198.148 0.728116 197.586C-0.242705 197.024 -0.242705 196.104 0.728116 195.491C1.69894 194.929 3.334 194.929 4.35592 195.491Z" fill="#A5A5A5"/>
<path d="M11.9703 192.578C13.3813 192.578 14.5251 191.914 14.5251 191.096C14.5251 190.278 13.3813 189.614 11.9703 189.614C10.5593 189.614 9.41553 190.278 9.41553 191.096C9.41553 191.914 10.5593 192.578 11.9703 192.578Z" fill="#A5A5A5"/>
<path d="M21.4234 187.11C22.8344 187.11 23.9782 186.447 23.9782 185.628C23.9782 184.81 22.8344 184.146 21.4234 184.146C20.0125 184.146 18.8687 184.81 18.8687 185.628C18.8687 186.447 20.0125 187.11 21.4234 187.11Z" fill="#A5A5A5"/>
<path d="M127.446 243.724C128.417 244.286 128.417 245.206 127.446 245.819C126.475 246.381 124.84 246.381 123.818 245.819C122.796 245.257 122.847 244.337 123.818 243.724C124.789 243.162 126.424 243.162 127.446 243.724Z" fill="#A5A5A5"/>
<path d="M136.849 238.259C137.82 238.821 137.82 239.741 136.849 240.354C135.878 240.916 134.243 240.916 133.221 240.354C132.25 239.792 132.25 238.872 133.221 238.259C134.192 237.646 135.827 237.697 136.849 238.259Z" fill="#A5A5A5"/>
<path d="M146.301 232.84C147.272 233.402 147.272 234.321 146.301 234.934C145.33 235.497 143.695 235.497 142.673 234.934C141.703 234.372 141.703 233.453 142.673 232.84C143.644 232.277 145.279 232.277 146.301 232.84Z" fill="#A5A5A5"/>
<path d="M155.704 227.372C156.675 227.934 156.675 228.854 155.704 229.467C154.733 230.029 153.098 230.029 152.076 229.467C151.105 228.905 151.105 227.985 152.076 227.372C153.047 226.81 154.682 226.81 155.704 227.372Z" fill="#A5A5A5"/>
<path d="M108.592 243.724C109.563 244.286 109.563 245.206 108.592 245.819C107.621 246.381 105.986 246.381 104.964 245.819C103.994 245.257 103.994 244.337 104.964 243.724C105.935 243.162 107.57 243.162 108.592 243.724Z" fill="#A5A5A5"/>
<path d="M117.994 238.259C118.964 238.821 118.964 239.741 117.994 240.354C117.023 240.916 115.388 240.916 114.366 240.354C113.395 239.792 113.395 238.872 114.366 238.259C115.337 237.646 116.972 237.697 117.994 238.259Z" fill="#A5A5A5"/>
<path d="M127.448 232.84C128.419 233.402 128.419 234.321 127.448 234.934C126.477 235.497 124.842 235.497 123.82 234.934C122.849 234.372 122.849 233.453 123.82 232.84C124.791 232.277 126.426 232.277 127.448 232.84Z" fill="#A5A5A5"/>
<path d="M136.849 227.372C137.82 227.934 137.82 228.854 136.849 229.467C135.878 230.029 134.243 230.029 133.222 229.467C132.2 228.905 132.251 227.985 133.222 227.372C134.192 226.81 135.827 226.81 136.849 227.372Z" fill="#A5A5A5"/>
<path d="M144.462 224.461C145.873 224.461 147.016 223.797 147.016 222.979C147.016 222.16 145.873 221.497 144.462 221.497C143.051 221.497 141.907 222.16 141.907 222.979C141.907 223.797 143.051 224.461 144.462 224.461Z" fill="#A5A5A5"/>
<path d="M89.636 243.671C90.6068 244.233 90.6068 245.153 89.636 245.766C88.6651 246.328 87.0301 246.328 86.0081 245.766C84.9862 245.204 85.0373 244.285 86.0081 243.671C86.979 243.058 88.614 243.109 89.636 243.671Z" fill="#A5A5A5"/>
<path d="M99.0888 238.206C100.06 238.768 100.06 239.688 99.0888 240.301C98.118 240.863 96.4829 240.863 95.461 240.301C94.4902 239.739 94.4902 238.819 95.461 238.206C96.4318 237.644 98.0669 237.644 99.0888 238.206Z" fill="#A5A5A5"/>
<path d="M108.49 232.789C109.461 233.351 109.461 234.27 108.49 234.884C107.519 235.446 105.884 235.446 104.862 234.884C103.892 234.322 103.892 233.402 104.862 232.789C105.833 232.227 107.468 232.227 108.49 232.789Z" fill="#A5A5A5"/>
<path d="M117.943 227.324C118.914 227.886 118.914 228.806 117.943 229.419C116.972 229.981 115.337 229.981 114.315 229.419C113.344 228.857 113.344 227.937 114.315 227.324C115.286 226.762 116.921 226.762 117.943 227.324Z" fill="#A5A5A5"/>
<path d="M127.346 221.906C128.316 222.468 128.316 223.388 127.346 224.001C126.375 224.563 124.74 224.563 123.718 224.001C122.747 223.439 122.747 222.519 123.718 221.906C124.689 221.344 126.324 221.344 127.346 221.906Z" fill="#A5A5A5"/>
<path d="M136.797 216.439C137.768 217.001 137.768 217.921 136.797 218.534C135.827 219.096 134.191 219.096 133.17 218.534C132.199 217.972 132.199 217.052 133.17 216.439C134.14 215.877 135.775 215.877 136.797 216.439Z" fill="#A5A5A5"/>
<path d="M80.2339 238.206C81.2047 238.768 81.2047 239.688 80.2339 240.301C79.263 240.863 77.628 240.863 76.606 240.301C75.6352 239.739 75.6352 238.819 76.606 238.206C77.5769 237.644 79.2119 237.644 80.2339 238.206Z" fill="#A5A5A5"/>
<path d="M89.636 232.789C90.6068 233.351 90.6068 234.27 89.636 234.884C88.6651 235.446 87.0301 235.446 86.0081 234.884C84.9862 234.322 85.0373 233.402 86.0081 232.789C86.979 232.227 88.614 232.227 89.636 232.789Z" fill="#A5A5A5"/>
<path d="M99.0888 227.324C100.06 227.886 100.06 228.806 99.0888 229.419C98.118 230.032 96.4829 229.981 95.461 229.419C94.4902 228.857 94.4902 227.937 95.461 227.324C96.4318 226.762 98.0669 226.762 99.0888 227.324Z" fill="#A5A5A5"/>
<path d="M108.49 221.906C109.461 222.468 109.461 223.388 108.49 224.001C107.519 224.563 105.884 224.563 104.862 224.001C103.892 223.439 103.892 222.519 104.862 221.906C105.833 221.293 107.468 221.344 108.49 221.906Z" fill="#A5A5A5"/>
<path d="M117.943 216.439C118.914 217.001 118.914 217.921 117.943 218.534C116.972 219.096 115.337 219.096 114.315 218.534C113.344 217.972 113.344 217.052 114.315 216.439C115.286 215.877 116.921 215.877 117.943 216.439Z" fill="#A5A5A5"/>
<path d="M127.346 211.021C128.316 211.583 128.316 212.503 127.346 213.116C126.375 213.678 124.74 213.678 123.718 213.116C122.747 212.554 122.747 211.634 123.718 211.021C124.689 210.459 126.324 210.459 127.346 211.021Z" fill="#A5A5A5"/>
<path d="M70.7807 232.789C71.7515 233.351 71.7515 234.27 70.7807 234.884C69.8099 235.446 68.1748 235.446 67.1529 234.884C66.1821 234.322 66.1821 233.402 67.1529 232.789C68.1237 232.227 69.7588 232.227 70.7807 232.789Z" fill="#A5A5A5"/>
<path d="M80.2339 227.324C81.2047 227.886 81.2047 228.806 80.2339 229.419C79.263 229.981 77.628 229.981 76.606 229.419C75.6352 228.857 75.6352 227.937 76.606 227.324C77.5769 226.762 79.2119 226.762 80.2339 227.324Z" fill="#A5A5A5"/>
<path d="M89.6357 221.906C90.6065 222.468 90.6065 223.388 89.6357 224.001C88.6649 224.563 87.0298 224.563 86.0079 224.001C85.0371 223.439 85.0371 222.519 86.0079 221.906C86.9787 221.293 88.6138 221.344 89.6357 221.906Z" fill="#A5A5A5"/>
<path d="M99.0888 216.439C100.06 217.001 100.06 217.921 99.0888 218.534C98.118 219.096 96.4829 219.096 95.461 218.534C94.4902 217.972 94.4902 217.052 95.461 216.439C96.4318 215.877 98.0669 215.877 99.0888 216.439Z" fill="#A5A5A5"/>
<path d="M108.49 211.021C109.461 211.583 109.461 212.503 108.49 213.116C107.52 213.729 105.885 213.678 104.863 213.116C103.841 212.554 103.892 211.634 104.863 211.021C105.833 210.459 107.469 210.459 108.49 211.021Z" fill="#A5A5A5"/>
<path d="M117.943 205.556C118.914 206.118 118.914 207.038 117.943 207.651C116.972 208.213 115.337 208.213 114.315 207.651C113.344 207.089 113.344 206.169 114.315 205.556C115.286 204.994 116.921 204.994 117.943 205.556Z" fill="#A5A5A5"/>
<path d="M61.3794 227.321C62.3502 227.883 62.3502 228.803 61.3794 229.416C60.4085 229.978 58.7735 229.978 57.7516 229.416C56.7807 228.854 56.7807 227.934 57.7516 227.321C58.7224 226.708 60.3574 226.759 61.3794 227.321Z" fill="#A5A5A5"/>
<path d="M70.7807 221.906C71.7515 222.468 71.7515 223.388 70.7807 224.001C69.8099 224.563 68.1748 224.563 67.1529 224.001C66.1821 223.439 66.1821 222.519 67.1529 221.906C68.1237 221.344 69.7588 221.344 70.7807 221.906Z" fill="#A5A5A5"/>
<path d="M80.2339 216.439C81.2047 217.001 81.2047 217.921 80.2339 218.534C79.263 219.096 77.628 219.096 76.606 218.534C75.6352 217.972 75.6352 217.052 76.606 216.439C77.5769 215.877 79.2119 215.877 80.2339 216.439Z" fill="#A5A5A5"/>
<path d="M89.636 211.021C90.6068 211.583 90.6068 212.503 89.636 213.116C88.6651 213.729 87.0301 213.678 86.0081 213.116C84.9862 212.554 85.0373 211.634 86.0081 211.021C86.979 210.459 88.614 210.459 89.636 211.021Z" fill="#A5A5A5"/>
<path d="M99.0888 205.556C100.06 206.118 100.06 207.038 99.0888 207.651C98.118 208.213 96.4829 208.213 95.461 207.651C94.4902 207.089 94.4902 206.169 95.461 205.556C96.4318 204.994 98.0669 204.994 99.0888 205.556Z" fill="#A5A5A5"/>
<path d="M108.49 200.138C109.461 200.7 109.461 201.62 108.49 202.233C107.519 202.795 105.884 202.795 104.862 202.233C103.892 201.671 103.892 200.751 104.862 200.138C105.833 199.576 107.468 199.576 108.49 200.138Z" fill="#A5A5A5"/>
<path d="M108.133 190.177C109.104 190.739 109.104 191.659 108.133 192.272C107.162 192.834 105.527 192.834 104.505 192.272C103.535 191.71 103.535 190.791 104.505 190.177C105.476 189.615 107.111 189.615 108.133 190.177Z" fill="#A5A5A5"/>
<path d="M117.584 184.759C118.555 185.321 118.555 186.241 117.584 186.854C116.613 187.416 114.978 187.416 113.956 186.854C112.985 186.292 112.985 185.373 113.956 184.759C114.927 184.197 116.562 184.197 117.584 184.759Z" fill="#A5A5A5"/>
<path d="M126.987 179.29C127.958 179.852 127.958 180.771 126.987 181.385C126.016 181.998 124.381 181.947 123.359 181.385C122.389 180.823 122.389 179.903 123.359 179.29C124.33 178.728 125.965 178.728 126.987 179.29Z" fill="#A5A5A5"/>
<path d="M95.1024 184.759C96.0732 184.197 97.7083 184.197 98.7302 184.759C99.7521 185.321 99.7521 186.241 98.7302 186.854C97.7594 187.416 96.1243 187.416 95.1024 186.854C94.0805 186.292 94.0805 185.373 95.1024 184.759Z" fill="#A5A5A5"/>
<path d="M108.132 179.292C109.103 179.855 109.103 180.774 108.132 181.387C107.161 181.949 105.526 181.949 104.504 181.387C103.482 180.825 103.533 179.906 104.504 179.292C105.475 178.679 107.11 178.73 108.132 179.292Z" fill="#A5A5A5"/>
<path d="M85.7025 179.29C86.6733 178.728 88.3083 178.728 89.3303 179.29C90.3522 179.852 90.3522 180.771 89.3303 181.385C88.3594 181.947 86.7244 181.947 85.7025 181.385C84.6806 180.823 84.6806 179.903 85.7025 179.29Z" fill="#A5A5A5"/>
<path d="M161.527 222.009C162.498 221.447 164.133 221.447 165.154 222.009C166.176 222.571 166.176 223.491 165.154 224.104C164.184 224.666 162.549 224.666 161.527 224.104C160.505 223.542 160.505 222.623 161.527 222.009Z" fill="#A5A5A5"/>
<path d="M174.608 216.591C175.578 217.154 175.578 218.073 174.608 218.686C173.637 219.248 172.002 219.248 170.98 218.686C169.958 218.124 170.009 217.205 170.98 216.591C171.951 216.029 173.586 216.029 174.608 216.591Z" fill="#A5A5A5"/>
<path d="M184.01 211.125C184.981 211.687 184.981 212.606 184.01 213.219C183.039 213.782 181.404 213.782 180.382 213.219C179.411 212.657 179.411 211.738 180.382 211.125C181.353 210.511 182.988 210.562 184.01 211.125Z" fill="#A5A5A5"/>
<path d="M152.127 216.591C153.098 216.029 154.733 216.029 155.755 216.591C156.777 217.154 156.777 218.073 155.755 218.686C154.784 219.248 153.149 219.248 152.127 218.686C151.105 218.124 151.105 217.205 152.127 216.591Z" fill="#A5A5A5"/>
<path d="M165.156 211.125C166.127 211.687 166.127 212.606 165.156 213.22C164.185 213.782 162.55 213.782 161.528 213.22C160.558 212.658 160.558 211.738 161.528 211.125C162.499 210.563 164.134 210.563 165.156 211.125Z" fill="#A5A5A5"/>
<path d="M174.609 205.71C175.58 206.272 175.58 207.191 174.609 207.805C173.639 208.367 172.003 208.367 170.982 207.805C170.011 207.243 170.011 206.323 170.982 205.71C171.952 205.148 173.587 205.148 174.609 205.71Z" fill="#A5A5A5"/>
<path d="M182.222 202.746C183.633 202.746 184.777 202.082 184.777 201.264C184.777 200.446 183.633 199.782 182.222 199.782C180.811 199.782 179.667 200.446 179.667 201.264C179.667 202.082 180.811 202.746 182.222 202.746Z" fill="#A5A5A5"/>
<path d="M142.623 211.074C143.594 210.512 145.229 210.512 146.251 211.074C147.273 211.636 147.273 212.556 146.251 213.169C145.28 213.731 143.645 213.731 142.623 213.169C141.601 212.607 141.601 211.687 142.623 211.074Z" fill="#A5A5A5"/>
<path d="M155.652 205.609C156.623 206.171 156.623 207.091 155.652 207.704C154.681 208.266 153.046 208.266 152.025 207.704C151.054 207.142 151.054 206.222 152.025 205.609C152.995 205.047 154.63 205.047 155.652 205.609Z" fill="#A5A5A5"/>
<path d="M165.053 200.191C166.024 200.753 166.024 201.673 165.053 202.286C164.082 202.848 162.447 202.848 161.425 202.286C160.454 201.724 160.454 200.804 161.425 200.191C162.396 199.629 164.031 199.629 165.053 200.191Z" fill="#A5A5A5"/>
<path d="M174.506 194.722C175.477 195.284 175.477 196.204 174.506 196.817C173.535 197.379 171.9 197.379 170.878 196.817C169.907 196.255 169.907 195.335 170.878 194.722C171.849 194.16 173.484 194.16 174.506 194.722Z" fill="#A5A5A5"/>
<path d="M183.907 189.307C184.878 189.869 184.878 190.789 183.907 191.402C182.936 191.964 181.301 191.964 180.279 191.402C179.308 190.84 179.308 189.92 180.279 189.307C181.25 188.745 182.885 188.745 183.907 189.307Z" fill="#A5A5A5"/>
<path d="M133.17 205.657C134.141 205.095 135.776 205.095 136.798 205.657C137.819 206.219 137.819 207.139 136.798 207.752C135.827 208.314 134.192 208.314 133.17 207.752C132.148 207.19 132.148 206.27 133.17 205.657Z" fill="#A5A5A5"/>
<path d="M146.251 200.191C147.222 200.753 147.222 201.673 146.251 202.286C145.28 202.848 143.645 202.848 142.623 202.286C141.652 201.724 141.652 200.804 142.623 200.191C143.594 199.629 145.229 199.629 146.251 200.191Z" fill="#A5A5A5"/>
<path d="M155.652 194.722C156.623 195.284 156.623 196.204 155.652 196.817C154.681 197.379 153.046 197.379 152.025 196.817C151.054 196.255 151.054 195.335 152.025 194.722C152.995 194.16 154.63 194.16 155.652 194.722Z" fill="#A5A5A5"/>
<path d="M165.053 189.307C166.024 189.869 166.024 190.789 165.053 191.402C164.082 191.964 162.447 191.964 161.425 191.402C160.454 190.84 160.454 189.92 161.425 189.307C162.396 188.745 164.031 188.745 165.053 189.307Z" fill="#A5A5A5"/>
<path d="M174.506 183.84C175.477 184.402 175.477 185.321 174.506 185.934C173.535 186.496 171.9 186.496 170.878 185.934C169.907 185.372 169.907 184.453 170.878 183.84C171.849 183.277 173.484 183.277 174.506 183.84Z" fill="#A5A5A5"/>
<path d="M123.768 200.191C124.739 199.629 126.374 199.629 127.396 200.191C128.418 200.753 128.418 201.673 127.396 202.286C126.425 202.848 124.79 202.848 123.768 202.286C122.746 201.724 122.746 200.804 123.768 200.191Z" fill="#A5A5A5"/>
<path d="M136.797 194.722C137.768 195.284 137.768 196.204 136.797 196.817C135.827 197.379 134.191 197.379 133.17 196.817C132.199 196.255 132.199 195.335 133.17 194.722C134.14 194.16 135.775 194.16 136.797 194.722Z" fill="#A5A5A5"/>
<path d="M146.251 189.307C147.222 189.869 147.222 190.789 146.251 191.402C145.28 191.964 143.645 191.964 142.623 191.402C141.652 190.84 141.652 189.92 142.623 189.307C143.594 188.745 145.229 188.745 146.251 189.307Z" fill="#A5A5A5"/>
<path d="M155.652 183.84C156.623 184.402 156.623 185.321 155.652 185.934C154.681 186.496 153.046 186.496 152.025 185.934C151.054 185.372 151.054 184.453 152.025 183.84C152.995 183.277 154.63 183.277 155.652 183.84Z" fill="#A5A5A5"/>
<path d="M165.053 178.422C166.024 178.984 166.024 179.903 165.053 180.516C164.082 181.079 162.447 181.079 161.425 180.516C160.454 179.954 160.454 179.035 161.425 178.422C162.396 177.859 164.031 177.859 165.053 178.422Z" fill="#A5A5A5"/>
<path d="M114.315 194.774C115.286 194.212 116.921 194.212 117.943 194.774C118.964 195.336 118.964 196.256 117.943 196.869C116.972 197.431 115.337 197.431 114.315 196.869C113.293 196.307 113.293 195.387 114.315 194.774Z" fill="#A5A5A5"/>
<path d="M127.397 189.307C128.368 189.869 128.368 190.789 127.397 191.402C126.427 191.964 124.792 191.964 123.77 191.402C122.799 190.84 122.799 189.92 123.77 189.307C124.74 188.745 126.376 188.745 127.397 189.307Z" fill="#A5A5A5"/>
<path d="M136.797 183.84C137.768 184.402 137.768 185.321 136.797 185.934C135.827 186.496 134.191 186.496 133.17 185.934C132.199 185.372 132.199 184.453 133.17 183.84C134.14 183.277 135.775 183.277 136.797 183.84Z" fill="#A5A5A5"/>
<path d="M146.251 178.422C147.222 178.984 147.222 179.903 146.251 180.516C145.28 181.079 143.645 181.079 142.623 180.516C141.652 179.954 141.652 179.035 142.623 178.422C143.594 177.859 145.229 177.859 146.251 178.422Z" fill="#A5A5A5"/>
<path d="M104.144 132.05L102.037 130.821C100.745 130.074 98.9641 130.176 96.9961 131.311L99.104 132.54C101.072 131.404 102.853 131.303 104.144 132.05Z" fill="#222222"/>
<path d="M91.9945 148.081L94.1024 149.31C92.8345 148.571 92.0411 147 92.0411 144.767C92.0255 140.279 95.1914 134.795 99.104 132.54L96.9961 131.311C93.0835 133.574 89.9176 139.05 89.9332 143.538C89.9332 145.771 90.7266 147.342 91.9945 148.081Z" fill="#222222"/>
<path d="M99.1045 132.541C95.1919 134.804 92.026 140.28 92.0416 144.769C92.0571 149.265 95.2385 151.077 99.1511 148.813C103.056 146.558 106.222 141.082 106.214 136.586C106.198 132.097 103.017 130.277 99.1123 132.533L99.1045 132.541Z" fill="#222222"/>
<path d="M99.112 136.219C96.9651 137.456 95.2305 140.458 95.2383 142.924C95.2383 145.39 96.9885 146.378 99.1353 145.141C101.274 143.904 103.009 140.902 103.001 138.444C103.001 135.986 101.251 134.99 99.1042 136.227L99.112 136.219Z" fill="#E7EEF2" stroke="#222222" stroke-width="2" stroke-linecap="round" stroke-linejoin="round"/>
<path d="M99.1205 139.338C98.4749 139.712 97.9537 140.614 97.9615 141.353C97.9615 142.092 98.4904 142.387 99.1283 142.014C99.7739 141.641 100.287 140.746 100.287 140.007C100.287 139.268 99.7583 138.973 99.1205 139.338Z" fill="white"/>
<path d="M179.665 39.4163L163.222 48.9761C163.471 48.8283 163.821 48.8516 164.202 49.0772L180.646 39.5175C180.264 39.2919 179.914 39.2763 179.665 39.4163Z" fill="#E7EEF2" stroke="#222222" stroke-width="2" stroke-linecap="round" stroke-linejoin="round"/>
<path d="M165.174 52.3287L181.618 42.769C181.867 42.6289 182.015 42.3178 182.023 41.89C182.023 41.011 181.408 39.9454 180.654 39.5098L164.21 49.0695C164.972 49.5051 165.587 50.5708 165.579 51.4497C165.579 51.8853 165.423 52.1887 165.174 52.3287Z" fill="#E7EEF2" stroke="#222222" stroke-width="2" stroke-linecap="round" stroke-linejoin="round"/>
<path d="M164.202 49.0695C163.44 48.6262 162.818 48.984 162.818 49.8552C162.818 50.7264 163.432 51.792 164.195 52.2354C164.957 52.671 165.571 52.3209 165.571 51.4497C165.571 50.5708 164.957 49.5051 164.202 49.0695Z" fill="#E7EEF2" stroke="#222222" stroke-width="2" stroke-linecap="round" stroke-linejoin="round"/>
<path d="M118.099 5.19845L101.656 14.7582C101.904 14.6104 102.254 14.6337 102.636 14.8593L119.079 5.29958C118.698 5.074 118.348 5.05844 118.099 5.19845Z" fill="#E7EEF2" stroke="#222222" stroke-width="2" stroke-linecap="round" stroke-linejoin="round"/>
<path d="M103.6 18.1187L120.043 8.55899C120.292 8.41898 120.44 8.10784 120.448 7.68002C120.448 6.80105 119.833 5.7354 119.079 5.2998L102.635 14.8595C103.398 15.2951 104.012 16.3608 104.004 17.2398C104.004 17.6754 103.849 17.9787 103.6 18.1187Z" fill="#E7EEF2" stroke="#222222" stroke-width="2" stroke-linecap="round" stroke-linejoin="round"/>
<path d="M102.636 14.8518C101.873 14.4084 101.251 14.7662 101.251 15.6374C101.251 16.5086 101.865 17.5742 102.628 18.0176C103.39 18.4532 104.004 18.1032 104.004 17.232C104.004 16.353 103.39 15.2874 102.636 14.8518Z" fill="#E7EEF2" stroke="#222222" stroke-width="2" stroke-linecap="round" stroke-linejoin="round"/>
<path d="M22.9449 190.941L83.5004 225.905C86.0207 227.36 90.1044 227.36 92.6246 225.905L168.465 182.112C170.977 180.666 170.347 179.094 170.347 177.228C170.324 178.153 169.694 179.071 168.473 179.779L92.6324 223.572C90.1121 225.026 86.0285 225.026 83.5082 223.572L22.9527 188.607C21.7004 187.884 21.0703 186.927 21.0703 185.971C21.0625 187.34 20.4558 189.494 22.9527 190.941H22.9449Z" fill="#E7EEF2" stroke="#222222" stroke-width="2" stroke-linecap="round" stroke-linejoin="round"/>
<path d="M21.0625 185.939V185.97C21.0625 186.927 21.6926 187.883 22.9449 188.607L83.5004 223.571C86.0206 225.026 90.1043 225.026 92.6246 223.571L168.465 179.778C169.686 179.07 170.316 178.153 170.339 177.227C170.386 176.247 169.756 175.259 168.465 174.512L107.909 139.556C105.389 138.101 101.305 138.101 98.7852 139.556L22.9449 183.341C21.7081 184.064 21.0781 184.998 21.0625 185.939Z" fill="#E7EEF2" stroke="#222222" stroke-width="2" stroke-linecap="round" stroke-linejoin="round"/>
<path d="M101.111 2.13376V142.955C101.111 143.243 101.297 143.531 101.678 143.749C102.433 144.192 103.67 144.192 104.424 143.749C104.805 143.531 105 143.235 105 142.948V2.12598C105 2.41378 104.805 2.70934 104.424 2.92714C103.662 3.37051 102.433 3.37051 101.678 2.92714C101.305 2.70934 101.111 2.42157 101.111 2.13376Z" fill="#E7EEF2" stroke="#222222" stroke-width="2" stroke-linecap="round" stroke-linejoin="round"/>
<path d="M101.687 1.33253C100.924 1.7759 100.924 2.48374 101.679 2.92711C102.433 3.37048 103.67 3.37048 104.425 2.92711C105.187 2.48374 105.187 1.7759 104.433 1.33253C103.678 0.889157 102.441 0.889157 101.687 1.33253Z" fill="#E7EEF2" stroke="#222222" stroke-width="2" stroke-linecap="round" stroke-linejoin="round"/>
<path d="M165.338 158.87L105.031 123.828C104.782 123.68 104.432 123.704 104.051 123.922L164.358 158.964C164.739 158.746 165.089 158.722 165.338 158.87Z" fill="#E7EEF2" stroke="#222222" stroke-width="2" stroke-linecap="round" stroke-linejoin="round"/>
<path d="M103.071 127.189L163.378 162.231C163.129 162.091 162.973 161.78 162.973 161.344C162.973 160.473 163.588 159.407 164.35 158.964L104.043 123.922C103.281 124.357 102.667 125.423 102.667 126.302C102.667 126.738 102.822 127.041 103.071 127.189Z" fill="#E7EEF2" stroke="#222222" stroke-width="2" stroke-linecap="round" stroke-linejoin="round"/>
<path d="M164.35 158.971C163.588 159.407 162.973 160.473 162.973 161.352C162.973 162.231 163.595 162.581 164.358 162.137C165.12 161.702 165.735 160.636 165.735 159.757C165.735 158.886 165.112 158.536 164.35 158.971Z" fill="#E7EEF2" stroke="#222222" stroke-width="2" stroke-linecap="round" stroke-linejoin="round"/>
<path d="M165.338 143.314L105.031 108.272C104.782 108.124 104.432 108.147 104.051 108.365L164.358 143.407C164.739 143.189 165.089 143.166 165.338 143.314Z" fill="#E7EEF2" stroke="#222222" stroke-width="2" stroke-linecap="round" stroke-linejoin="round"/>
<path d="M103.071 111.632L163.378 146.674C163.129 146.534 162.973 146.223 162.973 145.788C162.973 144.916 163.588 143.851 164.35 143.407L104.043 108.365C103.281 108.801 102.667 109.866 102.667 110.745C102.667 111.181 102.822 111.484 103.071 111.632Z" fill="#E7EEF2" stroke="#222222" stroke-width="2" stroke-linecap="round" stroke-linejoin="round"/>
<path d="M164.35 143.415C163.588 143.85 162.973 144.916 162.973 145.795C162.973 146.674 163.595 147.024 164.358 146.581C165.12 146.145 165.735 145.079 165.735 144.2C165.735 143.329 165.112 142.979 164.35 143.415Z" fill="#E7EEF2" stroke="#222222" stroke-width="2" stroke-linecap="round" stroke-linejoin="round"/>
<path d="M165.338 127.756L105.031 92.714C104.782 92.5663 104.432 92.5896 104.051 92.8074L164.358 127.849C164.739 127.632 165.089 127.608 165.338 127.756Z" fill="#E7EEF2" stroke="#222222" stroke-width="2" stroke-linecap="round" stroke-linejoin="round"/>
<path d="M103.071 96.0668L163.378 131.109C163.129 130.969 162.973 130.658 162.973 130.222C162.973 129.351 163.588 128.285 164.35 127.842L104.043 92.7998C103.281 93.2354 102.667 94.3011 102.667 95.18C102.667 95.6156 102.822 95.919 103.071 96.0668Z" fill="#E7EEF2" stroke="#222222" stroke-width="2" stroke-linecap="round" stroke-linejoin="round"/>
<path d="M164.35 127.849C163.588 128.285 162.973 129.351 162.973 130.23C162.973 131.109 163.595 131.459 164.358 131.015C165.12 130.58 165.735 129.514 165.735 128.635C165.735 127.764 165.112 127.414 164.35 127.849Z" fill="#E7EEF2" stroke="#222222" stroke-width="2" stroke-linecap="round" stroke-linejoin="round"/>
<path d="M165.338 49.964L105.031 14.9219C104.782 14.7741 104.432 14.7975 104.051 15.0153L164.358 50.0573C164.739 49.8395 165.089 49.8162 165.338 49.964Z" fill="#E7EEF2" stroke="#222222" stroke-width="2" stroke-linecap="round" stroke-linejoin="round"/>
<path d="M103.071 18.2826L163.378 53.3247C163.129 53.1847 162.973 52.8735 162.973 52.4379C162.973 51.5667 163.588 50.5011 164.35 50.0577L104.043 15.0156C103.281 15.4512 102.667 16.5169 102.667 17.3958C102.667 17.8314 102.822 18.1348 103.071 18.2826Z" fill="#E7EEF2" stroke="#222222" stroke-width="2" stroke-linecap="round" stroke-linejoin="round"/>
<path d="M164.35 50.0651C163.588 50.5007 162.973 51.5664 162.973 52.4454C162.973 53.3243 163.595 53.6744 164.358 53.231C165.12 52.7954 165.735 51.7297 165.735 50.8508C165.735 49.9796 165.112 49.6295 164.35 50.0651Z" fill="#E7EEF2" stroke="#222222" stroke-width="2" stroke-linecap="round" stroke-linejoin="round"/>
<path d="M162.141 36.5537V177.375C162.141 177.663 162.328 177.951 162.709 178.169C163.463 178.612 164.7 178.612 165.455 178.169C165.836 177.951 166.03 177.655 166.03 177.368V36.5459C166.03 36.8337 165.836 37.1293 165.455 37.3471C164.692 37.7904 163.463 37.7904 162.709 37.3471C162.336 37.1293 162.141 36.8415 162.141 36.5537Z" fill="#E7EEF2" stroke="#222222" stroke-width="2" stroke-linecap="round" stroke-linejoin="round"/>
<path d="M162.716 35.7448C161.954 36.1881 161.954 36.896 162.709 37.3394C163.463 37.7828 164.7 37.7828 165.454 37.3394C166.217 36.896 166.217 36.1881 165.462 35.7448C164.708 35.3014 163.471 35.3014 162.716 35.7448Z" fill="#E7EEF2" stroke="#222222" stroke-width="2" stroke-linecap="round" stroke-linejoin="round"/>
<path d="M101.11 202.889L140.796 179.554V132.883L101.11 156.218V202.889Z" fill="#222222" stroke="url(#paint0_linear_1406_80136)" stroke-width="2" stroke-linecap="round" stroke-linejoin="round"/>
<path d="M122.437 189.769L119.47 191.514V146.003L122.437 144.258V189.769Z" fill="#222222" stroke="url(#paint1_linear_1406_80136)"/>
<path d="M101.61 181.013V177.506L140.296 154.759V158.266L101.61 181.013Z" fill="#222222" stroke="url(#paint2_linear_1406_80136)"/>
<path d="M101.111 156.218L140.796 132.882L101.111 109.547L61.4248 132.882L101.111 156.218Z" fill="#222222" stroke="url(#paint3_linear_1406_80136)" stroke-width="2" stroke-linecap="round" stroke-linejoin="round"/>
<path d="M83.2517 120.628L121.951 143.383L118.97 145.137L80.271 122.381L83.2517 120.628Z" fill="#222222" stroke="url(#paint4_linear_1406_80136)"/>
<path d="M80.271 143.383L118.97 120.628L121.951 122.381L83.2517 145.137L80.271 143.383Z" fill="#222222" stroke="url(#paint5_linear_1406_80136)"/>
<path d="M61.4248 179.554L101.111 202.889V156.218L61.4248 132.883V179.554Z" fill="#222222" stroke="url(#paint6_linear_1406_80136)" stroke-width="2" stroke-linecap="round" stroke-linejoin="round"/>
<path d="M79.7847 144.258L82.7517 146.003V191.514L79.7847 189.769V144.258Z" fill="#222222" stroke="url(#paint7_linear_1406_80136)"/>
<path d="M61.9248 154.759L100.611 177.506V181.013L61.9248 158.266V154.759Z" fill="#222222" stroke="url(#paint8_linear_1406_80136)"/>
<path d="M77.283 145.177V161.077L63.5039 153.127V137.212L77.283 145.177Z" fill="white" stroke="white"/>
<mask id="path-137-inside-1_1406_80136" fill="white">
<path d="M75.3 150.696L71.5166 148.508V144.134L75.3 146.321V150.696ZM71.8565 148.316L74.9601 150.105V146.528L71.8565 144.74V148.316Z"/>
</mask>
<path d="M75.3 150.696L71.5166 148.508V144.134L75.3 146.321V150.696ZM71.8565 148.316L74.9601 150.105V146.528L71.8565 144.74V148.316Z" fill="#222222"/>
<path d="M75.3 150.696L74.7995 151.561L76.3 152.429V150.696H75.3ZM71.5166 148.508H70.5166V149.085L71.0161 149.374L71.5166 148.508ZM71.5166 144.134L72.0171 143.268L70.5166 142.401V144.134H71.5166ZM75.3 146.321H76.3V145.744L75.8005 145.455L75.3 146.321ZM71.8565 148.316H70.8565V148.894L71.3573 149.183L71.8565 148.316ZM74.9601 150.105L74.4608 150.971L75.9601 151.835V150.105H74.9601ZM74.9601 146.528H75.9601V145.95L75.4593 145.662L74.9601 146.528ZM71.8565 144.74L72.3557 143.873L70.8565 143.009V144.74H71.8565ZM75.8005 149.83L72.0171 147.643L71.0161 149.374L74.7995 151.561L75.8005 149.83ZM72.5166 148.508V144.134H70.5166V148.508H72.5166ZM71.0161 145L74.7995 147.187L75.8005 145.455L72.0171 143.268L71.0161 145ZM74.3 146.321V150.696H76.3V146.321H74.3ZM71.3573 149.183L74.4608 150.971L75.4593 149.238L72.3557 147.45L71.3573 149.183ZM75.9601 150.105V146.528H73.9601V150.105H75.9601ZM75.4593 145.662L72.3557 143.873L71.3572 145.606L74.4608 147.394L75.4593 145.662ZM70.8565 144.74V148.316H72.8565V144.74H70.8565Z" fill="#222222" mask="url(#path-137-inside-1_1406_80136)"/>
<path d="M67.7349 143.713V144.554L67.0205 144.141V143.301L67.7349 143.713Z" fill="#222222" stroke="#222222"/>
<mask id="path-140-inside-2_1406_80136" fill="white">
<path d="M70.3044 144.621L69.4473 144.118V143.128L70.3044 143.63V144.621Z"/>
</mask>
<path d="M70.3044 144.621L69.4473 144.118V143.128L70.3044 143.63V144.621Z" fill="#222222"/>
<path d="M70.3044 144.621L69.7986 145.483L71.3044 146.366V144.621H70.3044ZM69.4473 144.118H68.4473V144.691L68.9415 144.981L69.4473 144.118ZM69.4473 143.128L69.953 142.265L68.4473 141.383V143.128H69.4473ZM70.3044 143.63H71.3044V143.057L70.8101 142.768L70.3044 143.63ZM70.8102 143.758L69.953 143.255L68.9415 144.981L69.7986 145.483L70.8102 143.758ZM70.4473 144.118V143.128H68.4473V144.118H70.4473ZM68.9416 143.991L69.7987 144.493L70.8101 142.768L69.953 142.265L68.9416 143.991ZM69.3044 143.63V144.621H71.3044V143.63H69.3044Z" fill="#222222" mask="url(#path-140-inside-2_1406_80136)"/>
<mask id="path-142-inside-3_1406_80136" fill="white">
<path d="M71.1625 146.114L70.3052 145.611V144.621L71.1625 145.124V146.114Z"/>
</mask>
<path d="M71.1625 146.114L70.3052 145.611V144.621L71.1625 145.124V146.114Z" fill="#222222"/>
<path d="M71.1625 146.114L70.6568 146.977L72.1625 147.859V146.114H71.1625ZM70.3052 145.611H69.3052V146.184L69.7995 146.474L70.3052 145.611ZM70.3052 144.621L70.8108 143.758L69.3052 142.876V144.621H70.3052ZM71.1625 145.124H72.1625V144.551L71.6681 144.261L71.1625 145.124ZM71.6682 145.251L70.8109 144.749L69.7995 146.474L70.6568 146.977L71.6682 145.251ZM71.3052 145.611V144.621H69.3052V145.611H71.3052ZM69.7995 145.484L70.6568 145.986L71.6681 144.261L70.8108 143.758L69.7995 145.484ZM70.1625 145.124V146.114H72.1625V145.124H70.1625Z" fill="#222222" mask="url(#path-142-inside-3_1406_80136)"/>
<mask id="path-144-inside-4_1406_80136" fill="white">
<path d="M70.3044 146.617L69.4473 146.114V145.124L70.3044 145.612V146.617Z"/>
</mask>
<path d="M70.3044 146.617L69.4473 146.114V145.124L70.3044 145.612V146.617Z" fill="#222222"/>
<path d="M70.3044 146.617L69.7987 147.479L71.3044 148.362V146.617H70.3044ZM69.4473 146.114H68.4473V146.687L68.9416 146.977L69.4473 146.114ZM69.4473 145.124L69.9418 144.255L68.4473 143.404V145.124H69.4473ZM70.3044 145.612H71.3044V145.03L70.799 144.743L70.3044 145.612ZM70.8101 145.754L69.953 145.252L68.9416 146.977L69.7987 147.479L70.8101 145.754ZM70.4473 146.114V145.124H68.4473V146.114H70.4473ZM68.9527 145.993L69.8098 146.481L70.799 144.743L69.9418 144.255L68.9527 145.993ZM69.3044 145.612V146.617H71.3044V145.612H69.3044Z" fill="#222222" mask="url(#path-144-inside-4_1406_80136)"/>
<mask id="path-146-inside-5_1406_80136" fill="white">
<path d="M71.1625 148.11L70.3052 147.607V146.617L71.1625 147.105V148.11Z"/>
</mask>
<path d="M71.1625 148.11L70.3052 147.607V146.617L71.1625 147.105V148.11Z" fill="#222222"/>
<path d="M71.1625 148.11L70.6568 148.973L72.1625 149.855V148.11H71.1625ZM70.3052 147.607H69.3052V148.18L69.7995 148.47L70.3052 147.607ZM70.3052 146.617L70.7997 145.748L69.3052 144.898V146.617H70.3052ZM71.1625 147.105H72.1625V146.523L71.657 146.236L71.1625 147.105ZM71.6682 147.247L70.8109 146.745L69.7995 148.47L70.6568 148.973L71.6682 147.247ZM71.3052 147.607V146.617H69.3052V147.607H71.3052ZM69.8107 147.486L70.668 147.974L71.657 146.236L70.7997 145.748L69.8107 147.486ZM70.1625 147.105V148.11H72.1625V147.105H70.1625Z" fill="#222222" mask="url(#path-146-inside-5_1406_80136)"/>
<mask id="path-148-inside-6_1406_80136" fill="white">
<path d="M70.3044 148.596L69.4473 148.108V147.104L70.3044 147.606V148.596Z"/>
</mask>
<path d="M70.3044 148.596L69.4473 148.108V147.104L70.3044 147.606V148.596Z" fill="#222222"/>
<path d="M70.3044 148.596L69.8098 149.465L71.3044 150.316V148.596H70.3044ZM69.4473 148.108H68.4473V148.69L68.9527 148.978L69.4473 148.108ZM69.4473 147.104L69.953 146.241L68.4473 145.358V147.104H69.4473ZM70.3044 147.606H71.3044V147.033L70.8101 146.743L70.3044 147.606ZM70.799 147.727L69.9418 147.239L68.9527 148.978L69.8098 149.465L70.799 147.727ZM70.4473 148.108V147.104H68.4473V148.108H70.4473ZM68.9416 147.966L69.7987 148.469L70.8101 146.743L69.953 146.241L68.9416 147.966ZM69.3044 147.606V148.596H71.3044V147.606H69.3044Z" fill="#222222" mask="url(#path-148-inside-6_1406_80136)"/>
<mask id="path-150-inside-7_1406_80136" fill="white">
<path d="M70.3044 149.602L69.4473 149.1V148.109L70.3044 148.597V149.602Z"/>
</mask>
<path d="M70.3044 149.602L69.4473 149.1V148.109L70.3044 148.597V149.602Z" fill="#222222"/>
<path d="M70.3044 149.602L69.7986 150.465L71.3044 151.348V149.602H70.3044ZM69.4473 149.1H68.4473V149.672L68.9415 149.962L69.4473 149.1ZM69.4473 148.109L69.9418 147.24L68.4473 146.39V148.109H69.4473ZM70.3044 148.597H71.3044V148.016L70.799 147.728L70.3044 148.597ZM70.8102 148.739L69.953 148.237L68.9415 149.962L69.7986 150.465L70.8102 148.739ZM70.4473 149.1V148.109H68.4473V149.1H70.4473ZM68.9527 148.979L69.8098 149.466L70.799 147.728L69.9418 147.24L68.9527 148.979ZM69.3044 148.597V149.602H71.3044V148.597H69.3044Z" fill="#222222" mask="url(#path-150-inside-7_1406_80136)"/>
<mask id="path-152-inside-8_1406_80136" fill="white">
<path d="M71.1625 151.08L70.3052 150.593V149.603L71.1625 150.09V151.08Z"/>
</mask>
<path d="M71.1625 151.08L70.3052 150.593V149.603L71.1625 150.09V151.08Z" fill="#222222"/>
<path d="M71.1625 151.08L70.668 151.95L72.1625 152.8V151.08H71.1625ZM70.3052 150.593H69.3052V151.174L69.8107 151.462L70.3052 150.593ZM70.3052 149.603L70.7997 148.733L69.3052 147.883V149.603H70.3052ZM71.1625 150.09H72.1625V149.509L71.657 149.221L71.1625 150.09ZM71.657 150.211L70.7997 149.724L69.8107 151.462L70.668 151.95L71.657 150.211ZM71.3052 150.593V149.603H69.3052V150.593H71.3052ZM69.8107 150.472L70.668 150.959L71.657 149.221L70.7997 148.733L69.8107 150.472ZM70.1625 150.09V151.08H72.1625V150.09H70.1625Z" fill="#222222" mask="url(#path-152-inside-8_1406_80136)"/>
<mask id="path-154-inside-9_1406_80136" fill="white">
<path d="M70.3044 151.583L69.4473 151.081V150.091L70.3044 150.593V151.583Z"/>
</mask>
<path d="M70.3044 151.583L69.4473 151.081V150.091L70.3044 150.593V151.583Z" fill="#222222"/>
<path d="M70.3044 151.583L69.7987 152.446L71.3044 153.329V151.583H70.3044ZM69.4473 151.081H68.4473V151.654L68.9416 151.944L69.4473 151.081ZM69.4473 150.091L69.953 149.228L68.4473 148.345V150.091H69.4473ZM70.3044 150.593H71.3044V150.02L70.8101 149.731L70.3044 150.593ZM70.8101 150.721L69.953 150.218L68.9416 151.944L69.7987 152.446L70.8101 150.721ZM70.4473 151.081V150.091H68.4473V151.081H70.4473ZM68.9416 150.954L69.7987 151.456L70.8101 149.731L69.953 149.228L68.9416 150.954ZM69.3044 150.593V151.583H71.3044V150.593H69.3044Z" fill="#222222" mask="url(#path-154-inside-9_1406_80136)"/>
<mask id="path-156-inside-10_1406_80136" fill="white">
<path d="M71.1625 152.085L70.3052 151.582V150.592L71.1625 151.08V152.085Z"/>
</mask>
<path d="M71.1625 152.085L70.3052 151.582V150.592L71.1625 151.08V152.085Z" fill="#222222"/>
<path d="M71.1625 152.085L70.6568 152.947L72.1625 153.83V152.085H71.1625ZM70.3052 151.582H69.3052V152.155L69.7995 152.445L70.3052 151.582ZM70.3052 150.592L70.7997 149.723L69.3052 148.872V150.592H70.3052ZM71.1625 151.08H72.1625V150.498L71.657 150.21L71.1625 151.08ZM71.6682 151.222L70.8109 150.719L69.7995 152.445L70.6568 152.947L71.6682 151.222ZM71.3052 151.582V150.592H69.3052V151.582H71.3052ZM69.8107 151.461L70.668 151.949L71.657 150.21L70.7997 149.723L69.8107 151.461ZM70.1625 151.08V152.085H72.1625V151.08H70.1625Z" fill="#222222" mask="url(#path-156-inside-10_1406_80136)"/>
<mask id="path-158-inside-11_1406_80136" fill="white">
<path d="M70.5412 152.719L69.6841 152.217V151.227L70.5412 151.714V152.719Z"/>
</mask>
<path d="M70.5412 152.719L69.6841 152.217V151.227L70.5412 151.714V152.719Z" fill="#222222"/>
<path d="M70.5412 152.719L70.0355 153.582L71.5412 154.465V152.719H70.5412ZM69.6841 152.217H68.6841V152.79L69.1784 153.08L69.6841 152.217ZM69.6841 151.227L70.1787 150.357L68.6841 149.507V151.227H69.6841ZM70.5412 151.714H71.5412V151.133L71.0358 150.845L70.5412 151.714ZM71.0469 151.857L70.1898 151.354L69.1784 153.08L70.0355 153.582L71.0469 151.857ZM70.6841 152.217V151.227H68.6841V152.217H70.6841ZM69.1895 152.096L70.0466 152.583L71.0358 150.845L70.1787 150.357L69.1895 152.096ZM69.5412 151.714V152.719H71.5412V151.714H69.5412Z" fill="#222222" mask="url(#path-158-inside-11_1406_80136)"/>
<mask id="path-160-inside-12_1406_80136" fill="white">
<path d="M71.1625 154.065L70.3052 153.577V152.572L71.1625 153.075V154.065Z"/>
</mask>
<path d="M71.1625 154.065L70.3052 153.577V152.572L71.1625 153.075V154.065Z" fill="#222222"/>
<path d="M71.1625 154.065L70.668 154.934L72.1625 155.784V154.065H71.1625ZM70.3052 153.577H69.3052V154.159L69.8107 154.446L70.3052 153.577ZM70.3052 152.572L70.8108 151.71L69.3052 150.827V152.572H70.3052ZM71.1625 153.075H72.1625V152.502L71.6681 152.212L71.1625 153.075ZM71.657 153.196L70.7997 152.708L69.8107 154.446L70.668 154.934L71.657 153.196ZM71.3052 153.577V152.572H69.3052V153.577H71.3052ZM69.7995 153.435L70.6568 153.937L71.6681 152.212L70.8108 151.71L69.7995 153.435ZM70.1625 153.075V154.065H72.1625V153.075H70.1625Z" fill="#222222" mask="url(#path-160-inside-12_1406_80136)"/>
<mask id="path-162-inside-13_1406_80136" fill="white">
<path d="M70.6143 154.745L69.7422 154.242V153.252L70.6143 153.754V154.745Z"/>
</mask>
<path d="M70.6143 154.745L69.7422 154.242V153.252L70.6143 153.754V154.745Z" fill="#222222"/>
<path d="M70.6143 154.745L70.1151 155.611L71.6143 156.475V154.745H70.6143ZM69.7422 154.242H68.7422V154.82L69.243 155.109L69.7422 154.242ZM69.7422 153.252L70.2415 152.386L68.7422 151.522V153.252H69.7422ZM70.6143 153.754H71.6143V153.177L71.1136 152.888L70.6143 153.754ZM71.1135 153.878L70.2414 153.376L69.243 155.109L70.1151 155.611L71.1135 153.878ZM70.7422 154.242V153.252H68.7422V154.242H70.7422ZM69.2429 154.118L70.115 154.621L71.1136 152.888L70.2415 152.386L69.2429 154.118ZM69.6143 153.754V154.745H71.6143V153.754H69.6143Z" fill="#222222" mask="url(#path-162-inside-13_1406_80136)"/>
<mask id="path-164-inside-14_1406_80136" fill="white">
<path d="M72.0192 150.592L71.1621 150.09V149.1L72.0192 149.602V150.592Z"/>
</mask>
<path d="M72.0192 150.592L71.1621 150.09V149.1L72.0192 149.602V150.592Z" fill="#222222"/>
<path d="M72.0192 150.592L71.5135 151.455L73.0192 152.338V150.592H72.0192ZM71.1621 150.09H70.1621V150.663L70.6564 150.953L71.1621 150.09ZM71.1621 149.1L71.6679 148.237L70.1621 147.354V149.1H71.1621ZM72.0192 149.602H73.0192V149.029L72.525 148.739L72.0192 149.602ZM72.5249 149.73L71.6678 149.227L70.6564 150.953L71.5135 151.455L72.5249 149.73ZM72.1621 150.09V149.1H70.1621V150.09H72.1621ZM70.6563 149.962L71.5135 150.465L72.525 148.739L71.6679 148.237L70.6563 149.962ZM71.0192 149.602V150.592H73.0192V149.602H71.0192Z" fill="#222222" mask="url(#path-164-inside-14_1406_80136)"/>
<mask id="path-166-inside-15_1406_80136" fill="white">
<path d="M72.89 150.592L72.0181 150.09V149.1L72.89 149.602V150.592Z"/>
</mask>
<path d="M72.89 150.592L72.0181 150.09V149.1L72.89 149.602V150.592Z" fill="#222222"/>
<path d="M72.89 150.592L72.3907 151.459L73.89 152.323V150.592H72.89ZM72.0181 150.09H71.0181V150.668L71.5188 150.956L72.0181 150.09ZM72.0181 149.1L72.5174 148.233L71.0181 147.369V149.1H72.0181ZM72.89 149.602H73.89V149.024L73.3893 148.736L72.89 149.602ZM73.3893 149.726L72.5173 149.223L71.5188 150.956L72.3907 151.459L73.3893 149.726ZM73.0181 150.09V149.1H71.0181V150.09H73.0181ZM71.5187 149.966L72.3906 150.469L73.3893 148.736L72.5174 148.233L71.5187 149.966ZM71.89 149.602V150.592H73.89V149.602H71.89Z" fill="#222222" mask="url(#path-166-inside-15_1406_80136)"/>
<mask id="path-168-inside-16_1406_80136" fill="white">
<path d="M73.7484 152.085L72.8911 151.582V150.592L73.7484 151.08V152.085Z"/>
</mask>
<path d="M73.7484 152.085L72.8911 151.582V150.592L73.7484 151.08V152.085Z" fill="#222222"/>
<path d="M73.7484 152.085L73.2427 152.947L74.7484 153.83V152.085H73.7484ZM72.8911 151.582H71.8911V152.155L72.3854 152.445L72.8911 151.582ZM72.8911 150.592L73.3856 149.723L71.8911 148.872V150.592H72.8911ZM73.7484 151.08H74.7484V150.498L74.2429 150.21L73.7484 151.08ZM74.2541 151.222L73.3968 150.719L72.3854 152.445L73.2427 152.947L74.2541 151.222ZM73.8911 151.582V150.592H71.8911V151.582H73.8911ZM72.3966 151.461L73.2539 151.949L74.2429 150.21L73.3856 149.723L72.3966 151.461ZM72.7484 151.08V152.085H74.7484V151.08H72.7484Z" fill="#222222" mask="url(#path-168-inside-16_1406_80136)"/>
<mask id="path-170-inside-17_1406_80136" fill="white">
<path d="M74.6052 151.583L73.748 151.081V150.091L74.6052 150.593V151.583Z"/>
</mask>
<path d="M74.6052 151.583L73.748 151.081V150.091L74.6052 150.593V151.583Z" fill="#222222"/>
<path d="M74.6052 151.583L74.0995 152.446L75.6052 153.329V151.583H74.6052ZM73.748 151.081H72.748V151.654L73.2423 151.944L73.748 151.081ZM73.748 150.091L74.2538 149.228L72.748 148.345V150.091H73.748ZM74.6052 150.593H75.6052V150.02L75.1109 149.731L74.6052 150.593ZM75.1109 150.721L74.2538 150.218L73.2423 151.944L74.0995 152.446L75.1109 150.721ZM74.748 151.081V150.091H72.748V151.081H74.748ZM73.2423 150.954L74.0995 151.456L75.1109 149.731L74.2538 149.228L73.2423 150.954ZM73.6052 150.593V151.583H75.6052V150.593H73.6052Z" fill="#222222" mask="url(#path-170-inside-17_1406_80136)"/>
<mask id="path-172-inside-18_1406_80136" fill="white">
<path d="M69.4476 148.745L68.5757 148.242V147.252L69.4476 147.754V148.745Z"/>
</mask>
<path d="M69.4476 148.745L68.5757 148.242V147.252L69.4476 147.754V148.745Z" fill="#222222"/>
<path d="M69.4476 148.745L68.9483 149.611L70.4476 150.475V148.745H69.4476ZM68.5757 148.242H67.5757V148.82L68.0764 149.109L68.5757 148.242ZM68.5757 147.252L69.075 146.386L67.5757 145.521V147.252H68.5757ZM69.4476 147.754H70.4476V147.177L69.947 146.888L69.4476 147.754ZM69.9469 147.878L69.075 147.376L68.0764 149.109L68.9483 149.611L69.9469 147.878ZM69.5757 148.242V147.252H67.5757V148.242H69.5757ZM68.0763 148.118L68.9483 148.621L69.947 146.888L69.075 146.386L68.0763 148.118ZM68.4476 147.754V148.745H70.4476V147.754H68.4476Z" fill="#222222" mask="url(#path-172-inside-18_1406_80136)"/>
<mask id="path-174-inside-19_1406_80136" fill="white">
<path d="M68.5756 148.745L67.7183 148.242V147.252L68.5756 147.754V148.745Z"/>
</mask>
<path d="M68.5756 148.745L67.7183 148.242V147.252L68.5756 147.754V148.745Z" fill="#222222"/>
<path d="M68.5756 148.745L68.0699 149.607L69.5756 150.49V148.745H68.5756ZM67.7183 148.242H66.7183V148.815L67.2126 149.105L67.7183 148.242ZM67.7183 147.252L68.224 146.389L66.7183 145.507V147.252H67.7183ZM68.5756 147.754H69.5756V147.182L69.0813 146.892L68.5756 147.754ZM69.0812 147.882L68.2239 147.379L67.2126 149.105L68.0699 149.607L69.0812 147.882ZM68.7183 148.242V147.252H66.7183V148.242H68.7183ZM67.2126 148.115L68.0699 148.617L69.0813 146.892L68.224 146.389L67.2126 148.115ZM67.5756 147.754V148.745H69.5756V147.754H67.5756Z" fill="#222222" mask="url(#path-174-inside-19_1406_80136)"/>
<mask id="path-176-inside-20_1406_80136" fill="white">
<path d="M67.7185 147.607L66.8613 147.104V146.114L67.7185 146.617V147.607Z"/>
</mask>
<path d="M67.7185 147.607L66.8613 147.104V146.114L67.7185 146.617V147.607Z" fill="#222222"/>
<path d="M67.7185 147.607L67.2127 148.47L68.7185 149.352V147.607H67.7185ZM66.8613 147.104H65.8613V147.677L66.3556 147.967L66.8613 147.104ZM66.8613 146.114L67.367 145.252L65.8613 144.369V146.114H66.8613ZM67.7185 146.617H68.7185V146.044L68.2242 145.754L67.7185 146.617ZM68.2242 146.744L67.367 146.242L66.3556 147.967L67.2127 148.47L68.2242 146.744ZM67.8613 147.104V146.114H65.8613V147.104H67.8613ZM66.3556 146.977L67.2127 147.479L68.2242 145.754L67.367 145.252L66.3556 146.977ZM66.7185 146.617V147.607H68.7185V146.617H66.7185Z" fill="#222222" mask="url(#path-176-inside-20_1406_80136)"/>
<mask id="path-178-inside-21_1406_80136" fill="white">
<path d="M66.8607 147.681L65.9888 147.179V146.188L66.8607 146.691V147.681Z"/>
</mask>
<path d="M66.8607 147.681L65.9888 147.179V146.188L66.8607 146.691V147.681Z" fill="#222222"/>
<path d="M66.8607 147.681L66.3613 148.548L67.8607 149.412V147.681H66.8607ZM65.9888 147.179H64.9888V147.757L65.4894 148.045L65.9888 147.179ZM65.9888 146.188L66.4881 145.322L64.9888 144.458V146.188H65.9888ZM66.8607 146.691H67.8607V146.113L67.36 145.824L66.8607 146.691ZM67.36 146.815L66.4881 146.312L65.4894 148.045L66.3613 148.548L67.36 146.815ZM66.9888 147.179V146.188H64.9888V147.179H66.9888ZM65.4895 147.055L66.3614 147.557L67.36 145.824L66.4881 145.322L65.4895 147.055ZM65.8607 146.691V147.681H67.8607V146.691H65.8607Z" fill="#222222" mask="url(#path-178-inside-21_1406_80136)"/>
<mask id="path-180-inside-22_1406_80136" fill="white">
<path d="M67.7185 148.596L66.8613 148.108V147.104L67.7185 147.606V148.596Z"/>
</mask>
<path d="M67.7185 148.596L66.8613 148.108V147.104L67.7185 147.606V148.596Z" fill="#222222"/>
<path d="M67.7185 148.596L67.2239 149.465L68.7185 150.316V148.596H67.7185ZM66.8613 148.108H65.8613V148.69L66.3668 148.978L66.8613 148.108ZM66.8613 147.104L67.367 146.241L65.8613 145.358V147.104H66.8613ZM67.7185 147.606H68.7185V147.033L68.2242 146.743L67.7185 147.606ZM68.213 147.727L67.3559 147.239L66.3668 148.978L67.2239 149.465L68.213 147.727ZM67.8613 148.108V147.104H65.8613V148.108H67.8613ZM66.3556 147.966L67.2127 148.469L68.2242 146.743L67.367 146.241L66.3556 147.966ZM66.7185 147.606V148.596H68.7185V147.606H66.7185Z" fill="#222222" mask="url(#path-180-inside-22_1406_80136)"/>
<mask id="path-182-inside-23_1406_80136" fill="white">
<path d="M71.1625 149.1L70.3052 148.598V147.607L71.1625 148.11V149.1Z"/>
</mask>
<path d="M71.1625 149.1L70.3052 148.598V147.607L71.1625 148.11V149.1Z" fill="#222222"/>
<path d="M71.1625 149.1L70.6568 149.963L72.1625 150.845V149.1H71.1625ZM70.3052 148.598H69.3052V149.171L69.7995 149.46L70.3052 148.598ZM70.3052 147.607L70.8109 146.745L69.3052 145.862V147.607H70.3052ZM71.1625 148.11H72.1625V147.537L71.6682 147.247L71.1625 148.11ZM71.6681 148.237L70.8108 147.735L69.7995 149.46L70.6568 149.963L71.6681 148.237ZM71.3052 148.598V147.607H69.3052V148.598H71.3052ZM69.7995 148.47L70.6568 148.973L71.6682 147.247L70.8109 146.745L69.7995 148.47ZM70.1625 148.11V149.1H72.1625V148.11H70.1625Z" fill="#222222" mask="url(#path-182-inside-23_1406_80136)"/>
<mask id="path-184-inside-24_1406_80136" fill="white">
<path d="M69.2699 147.208L65.4863 145.021V140.646L69.2699 142.834V147.208ZM65.8264 144.814L68.93 146.602V143.026L65.8264 141.238V144.814Z"/>
</mask>
<path d="M69.2699 147.208L65.4863 145.021V140.646L69.2699 142.834V147.208ZM65.8264 144.814L68.93 146.602V143.026L65.8264 141.238V144.814Z" fill="#222222"/>
<path d="M69.2699 147.208L68.7694 148.074L70.2699 148.942V147.208H69.2699ZM65.4863 145.021H64.4863V145.598L64.9858 145.887L65.4863 145.021ZM65.4863 140.646L65.9868 139.781L64.4863 138.913V140.646H65.4863ZM69.2699 142.834H70.2699V142.257L69.7704 141.968L69.2699 142.834ZM65.8264 144.814H64.8264V145.392L65.3272 145.681L65.8264 144.814ZM68.93 146.602L68.4307 147.469L69.93 148.333V146.602H68.93ZM68.93 143.026H69.93V142.448L69.4292 142.159L68.93 143.026ZM65.8264 141.238L66.3257 140.371L64.8264 139.507V141.238H65.8264ZM69.7704 146.343L65.9868 144.155L64.9858 145.887L68.7694 148.074L69.7704 146.343ZM66.4863 145.021V140.646H64.4863V145.021H66.4863ZM64.9858 141.512L68.7694 143.7L69.7704 141.968L65.9868 139.781L64.9858 141.512ZM68.2699 142.834V147.208H70.2699V142.834H68.2699ZM65.3272 145.681L68.4307 147.469L69.4292 145.736L66.3256 143.948L65.3272 145.681ZM69.93 146.602V143.026H67.93V146.602H69.93ZM69.4292 142.159L66.3257 140.371L65.3271 142.104L68.4307 143.892L69.4292 142.159ZM64.8264 141.238V144.814H66.8264V141.238H64.8264Z" fill="#222222" mask="url(#path-184-inside-24_1406_80136)"/>
<mask id="path-186-inside-25_1406_80136" fill="white">
<path d="M64.8805 141.488L64.7031 141.399V139.301L66.5209 140.35V140.542L64.8805 139.596V141.488Z"/>
</mask>
<path d="M64.8805 141.488L64.7031 141.399V139.301L66.5209 140.35V140.542L64.8805 139.596V141.488Z" fill="#222222"/>
<path d="M64.8805 141.488L64.4333 142.383L65.8805 143.106V141.488H64.8805ZM64.7031 141.399H63.7031V142.018L64.2559 142.294L64.7031 141.399ZM64.7031 139.301L65.2031 138.435L63.7031 137.569V139.301H64.7031ZM66.5209 140.35H67.5209V139.773L67.0209 139.484L66.5209 140.35ZM66.5209 140.542L66.0214 141.409L67.5209 142.273V140.542H66.5209ZM64.8805 139.596L65.38 138.73L63.8805 137.865V139.596H64.8805ZM65.3277 140.594L65.1503 140.505L64.2559 142.294L64.4333 142.383L65.3277 140.594ZM65.7031 141.399V139.301H63.7031V141.399H65.7031ZM64.2032 140.167L66.021 141.216L67.0209 139.484L65.2031 138.435L64.2032 140.167ZM65.5209 140.35V140.542H67.5209V140.35H65.5209ZM67.0204 139.676L65.38 138.73L64.381 140.463L66.0214 141.409L67.0204 139.676ZM63.8805 139.596V141.488H65.8805V139.596H63.8805Z" fill="#222222" mask="url(#path-186-inside-25_1406_80136)"/>
<mask id="path-188-inside-26_1406_80136" fill="white">
<path d="M76.0839 147.962L75.9066 147.859V145.967L74.2661 145.021V144.829L76.0839 145.864V147.962Z"/>
</mask>
<path d="M76.0839 147.962L75.9066 147.859V145.967L74.2661 145.021V144.829L76.0839 145.864V147.962Z" fill="#222222"/>
<path d="M76.0839 147.962L75.58 148.826L77.0839 149.703V147.962H76.0839ZM75.9066 147.859H74.9066V148.433L75.4026 148.723L75.9066 147.859ZM75.9066 145.967H76.9066V145.389L76.4061 145.101L75.9066 145.967ZM74.2661 145.021H73.2661V145.599L73.7666 145.887L74.2661 145.021ZM74.2661 144.829L74.7607 143.96L73.2661 143.109V144.829H74.2661ZM76.0839 145.864H77.0839V145.282L76.5785 144.994L76.0839 145.864ZM76.5878 147.099L76.4105 146.995L75.4026 148.723L75.58 148.826L76.5878 147.099ZM76.9066 147.859V145.967H74.9066V147.859H76.9066ZM76.4061 145.101L74.7656 144.155L73.7666 145.887L75.4071 146.833L76.4061 145.101ZM75.2661 145.021V144.829H73.2661V145.021H75.2661ZM73.7715 145.698L75.5893 146.733L76.5785 144.994L74.7607 143.96L73.7715 145.698ZM75.0839 145.864V147.962H77.0839V145.864H75.0839Z" fill="#222222" mask="url(#path-188-inside-26_1406_80136)"/>
<mask id="path-190-inside-27_1406_80136" fill="white">
<path d="M66.5209 153.474L64.7031 152.425V150.341L64.8805 150.444V152.336L66.5209 153.282V153.474Z"/>
</mask>
<path d="M66.5209 153.474L64.7031 152.425V150.341L64.8805 150.444V152.336L66.5209 153.282V153.474Z" fill="#222222"/>
<path d="M66.5209 153.474L66.021 154.34L67.5209 155.206V153.474H66.5209ZM64.7031 152.425H63.7031V153.002L64.2032 153.291L64.7031 152.425ZM64.7031 150.341L65.2071 149.477L63.7031 148.6V150.341H64.7031ZM64.8805 150.444H65.8805V149.87L65.3844 149.581L64.8805 150.444ZM64.8805 152.336H63.8805V152.914L64.381 153.202L64.8805 152.336ZM66.5209 153.282H67.5209V152.704L67.0204 152.416L66.5209 153.282ZM67.0209 152.608L65.2031 151.559L64.2032 153.291L66.021 154.34L67.0209 152.608ZM65.7031 152.425V150.341H63.7031V152.425H65.7031ZM64.1992 151.205L64.3765 151.308L65.3844 149.581L65.2071 149.477L64.1992 151.205ZM63.8805 150.444V152.336H65.8805V150.444H63.8805ZM64.381 153.202L66.0214 154.148L67.0204 152.416L65.38 151.47L64.381 153.202ZM65.5209 153.282V153.474H67.5209V153.282H65.5209Z" fill="#222222" mask="url(#path-190-inside-27_1406_80136)"/>
<mask id="path-192-inside-28_1406_80136" fill="white">
<path d="M76.0839 159.002L74.2661 157.952V157.746L75.9066 158.691V156.814L76.0839 156.903V159.002Z"/>
</mask>
<path d="M76.0839 159.002L74.2661 157.952V157.746L75.9066 158.691V156.814L76.0839 156.903V159.002Z" fill="#222222"/>
<path d="M76.0839 159.002L75.584 159.868L77.0839 160.734V159.002H76.0839ZM74.2661 157.952H73.2661V158.53L73.7662 158.818L74.2661 157.952ZM74.2661 157.746L74.7656 156.879L73.2661 156.015V157.746H74.2661ZM75.9066 158.691L75.4071 159.558L76.9066 160.422V158.691H75.9066ZM75.9066 156.814L76.3538 155.92L74.9066 155.196V156.814H75.9066ZM76.0839 156.903H77.0839V156.285L76.5311 156.009L76.0839 156.903ZM76.5839 158.136L74.7661 157.086L73.7662 158.818L75.584 159.868L76.5839 158.136ZM75.2661 157.952V157.746H73.2661V157.952H75.2661ZM73.7666 158.612L75.4071 159.558L76.406 157.825L74.7656 156.879L73.7666 158.612ZM76.9066 158.691V156.814H74.9066V158.691H76.9066ZM75.4594 157.709L75.6367 157.798L76.5311 156.009L76.3538 155.92L75.4594 157.709ZM75.0839 156.903V159.002H77.0839V156.903H75.0839Z" fill="#222222" mask="url(#path-192-inside-28_1406_80136)"/>
<path d="M73.7657 147.201V148.035L73.0513 147.616V146.788L73.7657 147.201Z" fill="#222222" stroke="#222222"/>
<path d="M67.7349 150.674V151.515L67.0205 151.102V150.262L67.7349 150.674Z" fill="#222222" stroke="#222222"/>
<mask id="path-196-inside-29_1406_80136" fill="white">
<path d="M69.2699 154.169L65.4863 151.982V147.607L69.2699 149.795V154.169ZM65.8264 151.79L68.93 153.578V150.002L65.8264 148.213V151.79Z"/>
</mask>
<path d="M69.2699 154.169L65.4863 151.982V147.607L69.2699 149.795V154.169ZM65.8264 151.79L68.93 153.578V150.002L65.8264 148.213V151.79Z" fill="#222222"/>
<path d="M69.2699 154.169L68.7694 155.035L70.2699 155.903V154.169H69.2699ZM65.4863 151.982H64.4863V152.559L64.9858 152.848L65.4863 151.982ZM65.4863 147.607L65.9868 146.742L64.4863 145.874V147.607H65.4863ZM69.2699 149.795H70.2699V149.218L69.7704 148.929L69.2699 149.795ZM65.8264 151.79H64.8264V152.368L65.3271 152.656L65.8264 151.79ZM68.93 153.578L68.4307 154.445L69.93 155.309V153.578H68.93ZM68.93 150.002H69.93V149.424L69.4292 149.135L68.93 150.002ZM65.8264 148.213L66.3257 147.347L64.8264 146.483V148.213H65.8264ZM69.7704 153.304L65.9868 151.116L64.9858 152.848L68.7694 155.035L69.7704 153.304ZM66.4863 151.982V147.607H64.4863V151.982H66.4863ZM64.9858 148.473L68.7694 150.661L69.7704 148.929L65.9868 146.742L64.9858 148.473ZM68.2699 149.795V154.169H70.2699V149.795H68.2699ZM65.3271 152.656L68.4307 154.445L69.4292 152.712L66.3257 150.923L65.3271 152.656ZM69.93 153.578V150.002H67.93V153.578H69.93ZM69.4292 149.135L66.3257 147.347L65.3271 149.08L68.4307 150.868L69.4292 149.135ZM64.8264 148.213V151.79H66.8264V148.213H64.8264Z" fill="#222222" mask="url(#path-196-inside-29_1406_80136)"/>
<path d="M73.7657 154.162V154.996L73.0513 154.577V153.749L73.7657 154.162Z" fill="#222222" stroke="#222222"/>
<mask id="path-199-inside-30_1406_80136" fill="white">
<path d="M75.3 157.657L71.5166 155.469V151.095L75.3 153.282V157.657ZM71.8565 155.277L74.9601 157.065V153.489L71.8565 151.701V155.277Z"/>
</mask>
<path d="M75.3 157.657L71.5166 155.469V151.095L75.3 153.282V157.657ZM71.8565 155.277L74.9601 157.065V153.489L71.8565 151.701V155.277Z" fill="#222222"/>
<path d="M75.3 157.657L74.7994 158.522L76.3 159.39V157.657H75.3ZM71.5166 155.469H70.5166V156.046L71.0161 156.335L71.5166 155.469ZM71.5166 151.095L72.0171 150.229L70.5166 149.362V151.095H71.5166ZM75.3 153.282H76.3V152.705L75.8005 152.416L75.3 153.282ZM71.8565 155.277H70.8565V155.855L71.3572 156.144L71.8565 155.277ZM74.9601 157.065L74.4608 157.932L75.9601 158.796V157.065H74.9601ZM74.9601 153.489H75.9601V152.911L75.4593 152.622L74.9601 153.489ZM71.8565 151.701L72.3557 150.834L70.8565 149.97V151.701H71.8565ZM75.8005 156.791L72.0171 154.604L71.0161 156.335L74.7994 158.522L75.8005 156.791ZM72.5166 155.469V151.095H70.5166V155.469H72.5166ZM71.0161 151.96L74.7995 154.148L75.8005 152.416L72.0171 150.229L71.0161 151.96ZM74.3 153.282V157.657H76.3V153.282H74.3ZM71.3572 156.144L74.4608 157.932L75.4593 156.199L72.3557 154.411L71.3572 156.144ZM75.9601 157.065V153.489H73.9601V157.065H75.9601ZM75.4593 152.622L72.3557 150.834L71.3572 152.567L74.4608 154.355L75.4593 152.622ZM70.8565 151.701V155.277H72.8565V151.701H70.8565Z" fill="#222222" mask="url(#path-199-inside-30_1406_80136)"/>
<path d="M101.11 152.382L140.796 129.047V82.376L101.11 105.711V152.382Z" fill="#EFCFE4" stroke="#222222" stroke-width="2" stroke-linecap="round" stroke-linejoin="round"/>
<path d="M122.437 139.262L119.47 141.007V95.4965L122.437 93.7512V139.262Z" fill="#EFCFE4" stroke="#222222"/>
<path d="M101.61 130.506V126.999L140.296 104.252V107.759L101.61 130.506Z" fill="#EFCFE4" stroke="#222222"/>
<path d="M101.111 105.712L140.796 82.3765L101.111 59.041L61.4248 82.3765L101.111 105.712Z" fill="#EFCFE4" stroke="#222222" stroke-width="2" stroke-linecap="round" stroke-linejoin="round"/>
<path d="M83.2517 70.1211L121.951 92.8766L118.97 94.63L80.271 71.8745L83.2517 70.1211Z" fill="#EFCFE4" stroke="#222222"/>
<path d="M80.271 92.8766L118.97 70.1211L121.951 71.8745L83.2517 94.63L80.271 92.8766Z" fill="#EFCFE4" stroke="#222222"/>
<path d="M61.4248 129.047L101.111 152.382V105.711L61.4248 82.376V129.047Z" fill="#EFCFE4" stroke="#222222" stroke-width="2" stroke-linecap="round" stroke-linejoin="round"/>
<path d="M79.7847 93.7512L82.7517 95.4965V141.007L79.7847 139.262V93.7512Z" fill="#EFCFE4" stroke="#222222"/>
<path d="M61.9248 104.252L100.611 126.999V130.506L61.9248 107.759V104.252Z" fill="#EFCFE4" stroke="#222222"/>
<path d="M77.283 94.6015V110.516L63.5039 102.552V86.6509L77.283 94.6015Z" fill="white" stroke="white"/>
<mask id="path-211-inside-31_1406_80136" fill="white">
<path d="M75.3 100.122L71.5166 97.9342V93.5596L75.3 95.7469V100.122ZM71.8565 97.7421L74.9601 99.5303V95.9538L71.8565 94.1655V97.7421Z"/>
</mask>
<path d="M75.3 100.122L71.5166 97.9342V93.5596L75.3 95.7469V100.122ZM71.8565 97.7421L74.9601 99.5303V95.9538L71.8565 94.1655V97.7421Z" fill="#222222"/>
<path d="M75.3 100.122L74.7995 100.987L76.3 101.855V100.122H75.3ZM71.5166 97.9342H70.5166V98.5112L71.0161 98.8L71.5166 97.9342ZM71.5166 93.5596L72.0171 92.6938L70.5166 91.8263V93.5596H71.5166ZM75.3 95.7469H76.3V95.1699L75.8005 94.8811L75.3 95.7469ZM71.8565 97.7421H70.8565V98.32L71.3573 98.6086L71.8565 97.7421ZM74.9601 99.5303L74.4608 100.397L75.9601 101.261V99.5303H74.9601ZM74.9601 95.9538H75.9601V95.3759L75.4593 95.0873L74.9601 95.9538ZM71.8565 94.1655L72.3557 93.299L70.8565 92.4351V94.1655H71.8565ZM75.8005 99.2558L72.0171 97.0685L71.0161 98.8L74.7995 100.987L75.8005 99.2558ZM72.5166 97.9342V93.5596H70.5166V97.9342H72.5166ZM71.0161 94.4253L74.7995 96.6126L75.8005 94.8811L72.0171 92.6938L71.0161 94.4253ZM74.3 95.7469V100.122H76.3V95.7469H74.3ZM71.3573 98.6086L74.4608 100.397L75.4593 98.6638L72.3557 96.8756L71.3573 98.6086ZM75.9601 99.5303V95.9538H73.9601V99.5303H75.9601ZM75.4593 95.0873L72.3557 93.299L71.3572 95.0319L74.4608 96.8202L75.4593 95.0873ZM70.8565 94.1655V97.7421H72.8565V94.1655H70.8565Z" fill="#222222" mask="url(#path-211-inside-31_1406_80136)"/>
<path d="M67.7349 93.1538V93.9794L67.0205 93.5668V92.7412L67.7349 93.1538Z" fill="#222222" stroke="#222222"/>
<mask id="path-214-inside-32_1406_80136" fill="white">
<path d="M70.3044 94.061L69.4473 93.5585V92.5684L70.3044 93.056V94.061Z"/>
</mask>
<path d="M70.3044 94.061L69.4473 93.5585V92.5684L70.3044 93.056V94.061Z" fill="#222222"/>
<path d="M70.3044 94.061L69.7987 94.9237L71.3044 95.8063V94.061H70.3044ZM69.4473 93.5585H68.4473V94.1315L68.9416 94.4212L69.4473 93.5585ZM69.4473 92.5684L69.9418 91.6992L68.4473 90.8489V92.5684H69.4473ZM70.3044 93.056H71.3044V92.4744L70.7989 92.1868L70.3044 93.056ZM70.8101 93.1983L69.953 92.6958L68.9416 94.4212L69.7987 94.9237L70.8101 93.1983ZM70.4473 93.5585V92.5684H68.4473V93.5585H70.4473ZM68.9528 93.4375L69.8099 93.9252L70.7989 92.1868L69.9418 91.6992L68.9528 93.4375ZM69.3044 93.056V94.061H71.3044V93.056H69.3044Z" fill="#222222" mask="url(#path-214-inside-32_1406_80136)"/>
<mask id="path-216-inside-33_1406_80136" fill="white">
<path d="M71.1625 95.5404L70.3052 95.0528V94.0625L71.1625 94.5502V95.5404Z"/>
</mask>
<path d="M71.1625 95.5404L70.3052 95.0528V94.0625L71.1625 94.5502V95.5404Z" fill="#222222"/>
<path d="M71.1625 95.5404L70.6681 96.4096L72.1625 97.2597V95.5404H71.1625ZM70.3052 95.0528H69.3052V95.6344L69.8108 95.922L70.3052 95.0528ZM70.3052 94.0625L70.7997 93.1933L69.3052 92.3431V94.0625H70.3052ZM71.1625 94.5502H72.1625V93.9686L71.657 93.6811L71.1625 94.5502ZM71.6569 94.6712L70.7996 94.1835L69.8108 95.922L70.6681 96.4096L71.6569 94.6712ZM71.3052 95.0528V94.0625H69.3052V95.0528H71.3052ZM69.8107 94.9317L70.668 95.4194L71.657 93.6811L70.7997 93.1933L69.8107 94.9317ZM70.1625 94.5502V95.5404H72.1625V94.5502H70.1625Z" fill="#222222" mask="url(#path-216-inside-33_1406_80136)"/>
<mask id="path-218-inside-34_1406_80136" fill="white">
<path d="M70.3044 96.0425L69.4473 95.54V94.5498L70.3044 95.0523V96.0425Z"/>
</mask>
<path d="M70.3044 96.0425L69.4473 95.54V94.5498L70.3044 95.0523V96.0425Z" fill="#222222"/>
<path d="M70.3044 96.0425L69.7986 96.9052L71.3044 97.788V96.0425H70.3044ZM69.4473 95.54H68.4473V96.1129L68.9415 96.4026L69.4473 95.54ZM69.4473 94.5498L69.953 93.6871L68.4473 92.8043V94.5498H69.4473ZM70.3044 95.0523H71.3044V94.4794L70.8102 94.1897L70.3044 95.0523ZM70.8102 95.1798L69.953 94.6773L68.9415 96.4026L69.7986 96.9052L70.8102 95.1798ZM70.4473 95.54V94.5498H68.4473V95.54H70.4473ZM68.9415 95.4125L69.7986 95.915L70.8102 94.1897L69.953 93.6871L68.9415 95.4125ZM69.3044 95.0523V96.0425H71.3044V95.0523H69.3044Z" fill="#222222" mask="url(#path-218-inside-34_1406_80136)"/>
<mask id="path-220-inside-35_1406_80136" fill="white">
<path d="M71.1625 97.5347L70.3052 97.0322V96.042L71.1625 96.5445V97.5347Z"/>
</mask>
<path d="M71.1625 97.5347L70.3052 97.0322V96.042L71.1625 96.5445V97.5347Z" fill="#222222"/>
<path d="M71.1625 97.5347L70.6568 98.3974L72.1625 99.28V97.5347H71.1625ZM70.3052 97.0322H69.3052V97.6051L69.7995 97.8949L70.3052 97.0322ZM70.3052 96.042L70.8109 95.1793L69.3052 94.2967V96.042H70.3052ZM71.1625 96.5445H72.1625V95.9716L71.6682 95.6818L71.1625 96.5445ZM71.6682 96.672L70.8109 96.1695L69.7995 97.8949L70.6568 98.3974L71.6682 96.672ZM71.3052 97.0322V96.042H69.3052V97.0322H71.3052ZM69.7995 96.9047L70.6568 97.4072L71.6682 95.6818L70.8109 95.1793L69.7995 96.9047ZM70.1625 96.5445V97.5347H72.1625V96.5445H70.1625Z" fill="#222222" mask="url(#path-220-inside-35_1406_80136)"/>
<mask id="path-222-inside-36_1406_80136" fill="white">
<path d="M70.3044 98.0366L69.4473 97.5341V96.5439L70.3044 97.0316V98.0366Z"/>
</mask>
<path d="M70.3044 98.0366L69.4473 97.5341V96.5439L70.3044 97.0316V98.0366Z" fill="#222222"/>
<path d="M70.3044 98.0366L69.7987 98.8993L71.3044 99.7819V98.0366H70.3044ZM69.4473 97.5341H68.4473V98.1071L68.9416 98.3968L69.4473 97.5341ZM69.4473 96.5439L69.9418 95.6748L68.4473 94.8245V96.5439H69.4473ZM70.3044 97.0316H71.3044V96.45L70.7989 96.1624L70.3044 97.0316ZM70.8101 97.1739L69.953 96.6714L68.9416 98.3968L69.7987 98.8993L70.8101 97.1739ZM70.4473 97.5341V96.5439H68.4473V97.5341H70.4473ZM68.9528 97.4131L69.8099 97.9008L70.7989 96.1624L69.9418 95.6748L68.9528 97.4131ZM69.3044 97.0316V98.0366H71.3044V97.0316H69.3044Z" fill="#222222" mask="url(#path-222-inside-36_1406_80136)"/>
<mask id="path-224-inside-37_1406_80136" fill="white">
<path d="M70.3044 99.0279L69.4473 98.5253V97.5352L70.3044 98.0376V99.0279Z"/>
</mask>
<path d="M70.3044 99.0279L69.4473 98.5253V97.5352L70.3044 98.0376V99.0279Z" fill="#222222"/>
<path d="M70.3044 99.0279L69.7986 99.8905L71.3044 100.773V99.0279H70.3044ZM69.4473 98.5253H68.4473V99.0982L68.9415 99.388L69.4473 98.5253ZM69.4473 97.5352L69.953 96.6725L68.4473 95.7898V97.5352H69.4473ZM70.3044 98.0376H71.3044V97.4646L70.8101 97.1749L70.3044 98.0376ZM70.8102 98.1652L69.953 97.6627L68.9415 99.388L69.7986 99.8905L70.8102 98.1652ZM70.4473 98.5253V97.5352H68.4473V98.5253H70.4473ZM68.9416 98.3979L69.7987 98.9003L70.8101 97.1749L69.953 96.6725L68.9416 98.3979ZM69.3044 98.0376V99.0279H71.3044V98.0376H69.3044Z" fill="#222222" mask="url(#path-224-inside-37_1406_80136)"/>
<mask id="path-226-inside-38_1406_80136" fill="white">
<path d="M71.1625 100.52L70.3052 100.018V99.0273L71.1625 99.5298V100.52Z"/>
</mask>
<path d="M71.1625 100.52L70.3052 100.018V99.0273L71.1625 99.5298V100.52Z" fill="#222222"/>
<path d="M71.1625 100.52L70.6568 101.383L72.1625 102.265V100.52H71.1625ZM70.3052 100.018H69.3052V100.59L69.7995 100.88L70.3052 100.018ZM70.3052 99.0273L70.8108 98.1646L69.3052 97.2822V99.0273H70.3052ZM71.1625 99.5298H72.1625V98.9568L71.6681 98.667L71.1625 99.5298ZM71.6682 99.6573L70.8109 99.1548L69.7995 100.88L70.6568 101.383L71.6682 99.6573ZM71.3052 100.018V99.0273H69.3052V100.018H71.3052ZM69.7995 99.8901L70.6568 100.393L71.6681 98.667L70.8108 98.1646L69.7995 99.8901ZM70.1625 99.5298V100.52H72.1625V99.5298H70.1625Z" fill="#222222" mask="url(#path-226-inside-38_1406_80136)"/>
<mask id="path-228-inside-39_1406_80136" fill="white">
<path d="M70.3044 101.022L69.4473 100.52V99.5293L70.3044 100.017V101.022Z"/>
</mask>
<path d="M70.3044 101.022L69.4473 100.52V99.5293L70.3044 100.017V101.022Z" fill="#222222"/>
<path d="M70.3044 101.022L69.7987 101.885L71.3044 102.767V101.022H70.3044ZM69.4473 100.52H68.4473V101.093L68.9416 101.382L69.4473 100.52ZM69.4473 99.5293L69.9418 98.6602L68.4473 97.8097V99.5293H69.4473ZM70.3044 100.017H71.3044V99.4355L70.799 99.1479L70.3044 100.017ZM70.8101 100.159L69.953 99.6569L68.9416 101.382L69.7987 101.885L70.8101 100.159ZM70.4473 100.52V99.5293H68.4473V100.52H70.4473ZM68.9527 100.398L69.8098 100.886L70.799 99.1479L69.9418 98.6602L68.9527 100.398ZM69.3044 100.017V101.022H71.3044V100.017H69.3044Z" fill="#222222" mask="url(#path-228-inside-39_1406_80136)"/>
<mask id="path-230-inside-40_1406_80136" fill="white">
<path d="M71.1625 101.51L70.3052 101.023V100.018L71.1625 100.52V101.51Z"/>
</mask>
<path d="M71.1625 101.51L70.3052 101.023V100.018L71.1625 100.52V101.51Z" fill="#222222"/>
<path d="M71.1625 101.51L70.668 102.379L72.1625 103.23V101.51H71.1625ZM70.3052 101.023H69.3052V101.604L69.8107 101.892L70.3052 101.023ZM70.3052 100.018L70.8109 99.1549L69.3052 98.2723V100.018H70.3052ZM71.1625 100.52H72.1625V99.9471L71.6682 99.6574L71.1625 100.52ZM71.657 100.641L70.7997 100.153L69.8107 101.892L70.668 102.379L71.657 100.641ZM71.3052 101.023V100.018H69.3052V101.023H71.3052ZM69.7995 100.88L70.6568 101.383L71.6682 99.6574L70.8109 99.1549L69.7995 100.88ZM70.1625 100.52V101.51H72.1625V100.52H70.1625Z" fill="#222222" mask="url(#path-230-inside-40_1406_80136)"/>
<mask id="path-232-inside-41_1406_80136" fill="white">
<path d="M70.5412 102.146L69.6841 101.658V100.653L70.5412 101.156V102.146Z"/>
</mask>
<path d="M70.5412 102.146L69.6841 101.658V100.653L70.5412 101.156V102.146Z" fill="#222222"/>
<path d="M70.5412 102.146L70.0466 103.015L71.5412 103.866V102.146H70.5412ZM69.6841 101.658H68.6841V102.24L69.1895 102.527L69.6841 101.658ZM69.6841 100.653L70.1899 99.7907L68.6841 98.9078V100.653H69.6841ZM70.5412 101.156H71.5412V100.583L71.047 100.293L70.5412 101.156ZM71.0358 101.277L70.1787 100.789L69.1895 102.527L70.0466 103.015L71.0358 101.277ZM70.6841 101.658V100.653H68.6841V101.658H70.6841ZM69.1783 101.516L70.0354 102.019L71.047 100.293L70.1899 99.7907L69.1783 101.516ZM69.5412 101.156V102.146H71.5412V101.156H69.5412Z" fill="#222222" mask="url(#path-232-inside-41_1406_80136)"/>
<mask id="path-234-inside-42_1406_80136" fill="white">
<path d="M71.1625 103.505L70.3052 103.003V102.013L71.1625 102.5V103.505Z"/>
</mask>
<path d="M71.1625 103.505L70.3052 103.003V102.013L71.1625 102.5V103.505Z" fill="#222222"/>
<path d="M71.1625 103.505L70.6568 104.368L72.1625 105.251V103.505H71.1625ZM70.3052 103.003H69.3052V103.576L69.7995 103.866L70.3052 103.003ZM70.3052 102.013L70.7997 101.144L69.3052 100.293V102.013H70.3052ZM71.1625 102.5H72.1625V101.919L71.657 101.631L71.1625 102.5ZM71.6681 102.643L70.8108 102.14L69.7995 103.866L70.6568 104.368L71.6681 102.643ZM71.3052 103.003V102.013H69.3052V103.003H71.3052ZM69.8107 102.882L70.668 103.37L71.657 101.631L70.7997 101.144L69.8107 102.882ZM70.1625 102.5V103.505H72.1625V102.5H70.1625Z" fill="#222222" mask="url(#path-234-inside-42_1406_80136)"/>
<mask id="path-236-inside-43_1406_80136" fill="white">
<path d="M70.6143 104.17L69.7422 103.683V102.678L70.6143 103.18V104.17Z"/>
</mask>
<path d="M70.6143 104.17L69.7422 103.683V102.678L70.6143 103.18V104.17Z" fill="#222222"/>
<path d="M70.6143 104.17L70.1262 105.043L71.6143 105.875V104.17H70.6143ZM69.7422 103.683H68.7422V104.269L69.2541 104.555L69.7422 103.683ZM69.7422 102.678L70.2415 101.811L68.7422 100.947V102.678H69.7422ZM70.6143 103.18H71.6143V102.602L71.1136 102.314L70.6143 103.18ZM71.1024 103.298L70.2303 102.81L69.2541 104.555L70.1262 105.043L71.1024 103.298ZM70.7422 103.683V102.678H68.7422V103.683H70.7422ZM69.2429 103.544L70.115 104.047L71.1136 102.314L70.2415 101.811L69.2429 103.544ZM69.6143 103.18V104.17H71.6143V103.18H69.6143Z" fill="#222222" mask="url(#path-236-inside-43_1406_80136)"/>
<mask id="path-238-inside-44_1406_80136" fill="white">
<path d="M72.0192 100.018L71.1621 99.5304V98.5254L72.0192 99.0279V100.018Z"/>
</mask>
<path d="M72.0192 100.018L71.1621 99.5304V98.5254L72.0192 99.0279V100.018Z" fill="#222222"/>
<path d="M72.0192 100.018L71.5247 100.887L73.0192 101.738V100.018H72.0192ZM71.1621 99.5304H70.1621V100.112L70.6675 100.399L71.1621 99.5304ZM71.1621 98.5254L71.6679 97.6627L70.1621 96.7799V98.5254H71.1621ZM72.0192 99.0279H73.0192V98.455L72.525 98.1653L72.0192 99.0279ZM72.5138 99.149L71.6567 98.6612L70.6675 100.399L71.5247 100.887L72.5138 99.149ZM72.1621 99.5304V98.5254H70.1621V99.5304H72.1621ZM70.6563 99.3881L71.5135 99.8906L72.525 98.1653L71.6679 97.6627L70.6563 99.3881ZM71.0192 99.0279V100.018H73.0192V99.0279H71.0192Z" fill="#222222" mask="url(#path-238-inside-44_1406_80136)"/>
<mask id="path-240-inside-45_1406_80136" fill="white">
<path d="M72.89 100.018L72.0181 99.5304V98.5254L72.89 99.0279V100.018Z"/>
</mask>
<path d="M72.89 100.018L72.0181 99.5304V98.5254L72.89 99.0279V100.018Z" fill="#222222"/>
<path d="M72.89 100.018L72.4018 100.891L73.89 101.723V100.018H72.89ZM72.0181 99.5304H71.0181V100.117L71.5299 100.403L72.0181 99.5304ZM72.0181 98.5254L72.5174 97.659L71.0181 96.7948V98.5254H72.0181ZM72.89 99.0279H73.89V98.4501L73.3893 98.1615L72.89 99.0279ZM73.3782 99.1454L72.5063 98.6576L71.5299 100.403L72.4018 100.891L73.3782 99.1454ZM73.0181 99.5304V98.5254H71.0181V99.5304H73.0181ZM71.5187 99.3918L72.3906 99.8943L73.3893 98.1615L72.5174 97.659L71.5187 99.3918ZM71.89 99.0279V100.018H73.89V99.0279H71.89Z" fill="#222222" mask="url(#path-240-inside-45_1406_80136)"/>
<mask id="path-242-inside-46_1406_80136" fill="white">
<path d="M73.7484 101.51L72.8911 101.023V100.018L73.7484 100.52V101.51Z"/>
</mask>
<path d="M73.7484 101.51L72.8911 101.023V100.018L73.7484 100.52V101.51Z" fill="#222222"/>
<path d="M73.7484 101.51L73.2539 102.379L74.7484 103.23V101.51H73.7484ZM72.8911 101.023H71.8911V101.604L72.3966 101.892L72.8911 101.023ZM72.8911 100.018L73.3968 99.1549L71.8911 98.2723V100.018H72.8911ZM73.7484 100.52H74.7484V99.9471L74.2541 99.6574L73.7484 100.52ZM74.2429 100.641L73.3856 100.153L72.3966 101.892L73.2539 102.379L74.2429 100.641ZM73.8911 101.023V100.018H71.8911V101.023H73.8911ZM72.3854 100.88L73.2427 101.383L74.2541 99.6574L73.3968 99.1549L72.3854 100.88ZM72.7484 100.52V101.51H74.7484V100.52H72.7484Z" fill="#222222" mask="url(#path-242-inside-46_1406_80136)"/>
<mask id="path-244-inside-47_1406_80136" fill="white">
<path d="M74.6052 101.022L73.748 100.52V99.5293L74.6052 100.017V101.022Z"/>
</mask>
<path d="M74.6052 101.022L73.748 100.52V99.5293L74.6052 100.017V101.022Z" fill="#222222"/>
<path d="M74.6052 101.022L74.0995 101.885L75.6052 102.767V101.022H74.6052ZM73.748 100.52H72.748V101.093L73.2423 101.382L73.748 100.52ZM73.748 99.5293L74.2426 98.6602L72.748 97.8097V99.5293H73.748ZM74.6052 100.017H75.6052V99.4355L75.0997 99.1479L74.6052 100.017ZM75.1109 100.159L74.2538 99.6569L73.2423 101.382L74.0995 101.885L75.1109 100.159ZM74.748 100.52V99.5293H72.748V100.52H74.748ZM73.2535 100.398L74.1106 100.886L75.0997 99.1479L74.2426 98.6602L73.2535 100.398ZM73.6052 100.017V101.022H75.6052V100.017H73.6052Z" fill="#222222" mask="url(#path-244-inside-47_1406_80136)"/>
<mask id="path-246-inside-48_1406_80136" fill="white">
<path d="M69.4476 98.1704L68.5757 97.6827V96.6777L69.4476 97.1803V98.1704Z"/>
</mask>
<path d="M69.4476 98.1704L68.5757 97.6827V96.6777L69.4476 97.1803V98.1704Z" fill="#222222"/>
<path d="M69.4476 98.1704L68.9594 99.0432L70.4476 99.8756V98.1704H69.4476ZM68.5757 97.6827H67.5757V98.2691L68.0875 98.5554L68.5757 97.6827ZM68.5757 96.6777L69.075 95.8113L67.5757 94.9472V96.6777H68.5757ZM69.4476 97.1803H70.4476V96.6024L69.947 96.3139L69.4476 97.1803ZM69.9358 97.2977L69.0639 96.81L68.0875 98.5554L68.9594 99.0432L69.9358 97.2977ZM69.5757 97.6827V96.6777H67.5757V97.6827H69.5757ZM68.0763 97.5441L68.9483 98.0467L69.947 96.3139L69.075 95.8113L68.0763 97.5441ZM68.4476 97.1803V98.1704H70.4476V97.1803H68.4476Z" fill="#222222" mask="url(#path-246-inside-48_1406_80136)"/>
<mask id="path-248-inside-49_1406_80136" fill="white">
<path d="M68.5756 98.1704L67.7183 97.6827V96.6777L68.5756 97.1803V98.1704Z"/>
</mask>
<path d="M68.5756 98.1704L67.7183 97.6827V96.6777L68.5756 97.1803V98.1704Z" fill="#222222"/>
<path d="M68.5756 98.1704L68.0811 99.0396L69.5756 99.8899V98.1704H68.5756ZM67.7183 97.6827H66.7183V98.2643L67.2238 98.5519L67.7183 97.6827ZM67.7183 96.6777L68.224 95.815L66.7183 94.9324V96.6777H67.7183ZM68.5756 97.1803H69.5756V96.6073L69.0813 96.3176L68.5756 97.1803ZM69.0701 97.3013L68.2128 96.8135L67.2238 98.5519L68.0811 99.0396L69.0701 97.3013ZM68.7183 97.6827V96.6777H66.7183V97.6827H68.7183ZM67.2126 97.5404L68.0699 98.043L69.0813 96.3176L68.224 95.815L67.2126 97.5404ZM67.5756 97.1803V98.1704H69.5756V97.1803H67.5756Z" fill="#222222" mask="url(#path-248-inside-49_1406_80136)"/>
<mask id="path-250-inside-50_1406_80136" fill="white">
<path d="M67.7185 97.0327L66.8613 96.5451V95.54L67.7185 96.0426V97.0327Z"/>
</mask>
<path d="M67.7185 97.0327L66.8613 96.5451V95.54L67.7185 96.0426V97.0327Z" fill="#222222"/>
<path d="M67.7185 97.0327L67.2239 97.9019L68.7185 98.7522V97.0327H67.7185ZM66.8613 96.5451H65.8613V97.1267L66.3668 97.4143L66.8613 96.5451ZM66.8613 95.54L67.3671 94.6774L65.8613 93.7945V95.54H66.8613ZM67.7185 96.0426H68.7185V95.4697L68.2242 95.1799L67.7185 96.0426ZM68.213 96.1636L67.3558 95.6759L66.3668 97.4143L67.2239 97.9019L68.213 96.1636ZM67.8613 96.5451V95.54H65.8613V96.5451H67.8613ZM66.3556 96.4027L67.2127 96.9052L68.2242 95.1799L67.3671 94.6774L66.3556 96.4027ZM66.7185 96.0426V97.0327H68.7185V96.0426H66.7185Z" fill="#222222" mask="url(#path-250-inside-50_1406_80136)"/>
<mask id="path-252-inside-51_1406_80136" fill="white">
<path d="M66.8607 97.106L65.9888 96.6183V95.6133L66.8607 96.1157V97.106Z"/>
</mask>
<path d="M66.8607 97.106L65.9888 96.6183V95.6133L66.8607 96.1157V97.106Z" fill="#222222"/>
<path d="M66.8607 97.106L66.3725 97.9787L67.8607 98.8112V97.106H66.8607ZM65.9888 96.6183H64.9888V97.2047L65.5006 97.491L65.9888 96.6183ZM65.9888 95.6133L66.4881 94.7468L64.9888 93.8829V95.6133H65.9888ZM66.8607 96.1157H67.8607V95.5378L67.36 95.2493L66.8607 96.1157ZM67.3489 96.2333L66.477 95.7455L65.5006 97.491L66.3725 97.9787L67.3489 96.2333ZM66.9888 96.6183V95.6133H64.9888V96.6183H66.9888ZM65.4895 96.4797L66.3614 96.9822L67.36 95.2493L66.4881 94.7468L65.4895 96.4797ZM65.8607 96.1157V97.106H67.8607V96.1157H65.8607Z" fill="#222222" mask="url(#path-252-inside-51_1406_80136)"/>
<mask id="path-254-inside-52_1406_80136" fill="white">
<path d="M67.7185 98.0366L66.8613 97.5341V96.5439L67.7185 97.0316V98.0366Z"/>
</mask>
<path d="M67.7185 98.0366L66.8613 97.5341V96.5439L67.7185 97.0316V98.0366Z" fill="#222222"/>
<path d="M67.7185 98.0366L67.2127 98.8993L68.7185 99.7819V98.0366H67.7185ZM66.8613 97.5341H65.8613V98.1071L66.3556 98.3968L66.8613 97.5341ZM66.8613 96.5439L67.3558 95.6748L65.8613 94.8245V96.5439H66.8613ZM67.7185 97.0316H68.7185V96.45L68.213 96.1624L67.7185 97.0316ZM68.2242 97.1739L67.367 96.6714L66.3556 98.3968L67.2127 98.8993L68.2242 97.1739ZM67.8613 97.5341V96.5439H65.8613V97.5341H67.8613ZM66.3668 97.4131L67.2239 97.9008L68.213 96.1624L67.3558 95.6748L66.3668 97.4131ZM66.7185 97.0316V98.0366H68.7185V97.0316H66.7185Z" fill="#222222" mask="url(#path-254-inside-52_1406_80136)"/>
<mask id="path-256-inside-53_1406_80136" fill="white">
<path d="M71.1625 98.5249L70.3052 98.0372V97.0322L71.1625 97.5348V98.5249Z"/>
</mask>
<path d="M71.1625 98.5249L70.3052 98.0372V97.0322L71.1625 97.5348V98.5249Z" fill="#222222"/>
<path d="M71.1625 98.5249L70.668 99.3941L72.1625 100.244V98.5249H71.1625ZM70.3052 98.0372H69.3052V98.6188L69.8107 98.9064L70.3052 98.0372ZM70.3052 97.0322L70.8109 96.1695L69.3052 95.2869V97.0322H70.3052ZM71.1625 97.5348H72.1625V96.9618L71.6682 96.672L71.1625 97.5348ZM71.657 97.6558L70.7997 97.168L69.8107 98.9064L70.668 99.3941L71.657 97.6558ZM71.3052 98.0372V97.0322H69.3052V98.0372H71.3052ZM69.7995 97.8949L70.6568 98.3975L71.6682 96.672L70.8109 96.1695L69.7995 97.8949ZM70.1625 97.5348V98.5249H72.1625V97.5348H70.1625Z" fill="#222222" mask="url(#path-256-inside-53_1406_80136)"/>
<mask id="path-258-inside-54_1406_80136" fill="white">
<path d="M69.2699 96.6488L65.4863 94.4615V90.0869L69.2699 92.2742V96.6488ZM65.8264 94.2693L68.93 96.0576V92.4811L65.8264 90.6928V94.2693Z"/>
</mask>
<path d="M69.2699 96.6488L65.4863 94.4615V90.0869L69.2699 92.2742V96.6488ZM65.8264 94.2693L68.93 96.0576V92.4811L65.8264 90.6928V94.2693Z" fill="#222222"/>
<path d="M69.2699 96.6488L68.7694 97.5145L70.2699 98.3819V96.6488H69.2699ZM65.4863 94.4615H64.4863V95.0384L64.9858 95.3272L65.4863 94.4615ZM65.4863 90.0869L65.9868 89.2212L64.4863 88.3537V90.0869H65.4863ZM69.2699 92.2742H70.2699V91.6972L69.7704 91.4085L69.2699 92.2742ZM65.8264 94.2693H64.8264V94.8473L65.3271 95.1358L65.8264 94.2693ZM68.93 96.0576L68.4307 96.9241L69.93 97.788V96.0576H68.93ZM68.93 92.4811H69.93V91.9032L69.4292 91.6147L68.93 92.4811ZM65.8264 90.6928L66.3257 89.8264L64.8264 88.9625V90.6928H65.8264ZM69.7704 95.783L65.9868 93.5957L64.9858 95.3272L68.7694 97.5145L69.7704 95.783ZM66.4863 94.4615V90.0869H64.4863V94.4615H66.4863ZM64.9858 90.9527L68.7694 93.1399L69.7704 91.4085L65.9868 89.2212L64.9858 90.9527ZM68.2699 92.2742V96.6488H70.2699V92.2742H68.2699ZM65.3271 95.1358L68.4307 96.9241L69.4292 95.1912L66.3257 93.4029L65.3271 95.1358ZM69.93 96.0576V92.4811H67.93V96.0576H69.93ZM69.4292 91.6147L66.3257 89.8264L65.3271 91.5593L68.4307 93.3476L69.4292 91.6147ZM64.8264 90.6928V94.2693H66.8264V90.6928H64.8264Z" fill="#222222" mask="url(#path-258-inside-54_1406_80136)"/>
<mask id="path-260-inside-55_1406_80136" fill="white">
<path d="M64.8805 90.9285L64.7031 90.8251V88.7412L66.5209 89.7758V89.9827L64.8805 89.0368V90.9285Z"/>
</mask>
<path d="M64.8805 90.9285L64.7031 90.8251V88.7412L66.5209 89.7758V89.9827L64.8805 89.0368V90.9285Z" fill="#222222"/>
<path d="M64.8805 90.9285L64.3769 91.7924L65.8805 92.6689V90.9285H64.8805ZM64.7031 90.8251H63.7031V91.3997L64.1995 91.6891L64.7031 90.8251ZM64.7031 88.7412L65.1978 87.8721L63.7031 87.0215V88.7412H64.7031ZM66.5209 89.7758H67.5209V89.1943L67.0156 88.9067L66.5209 89.7758ZM66.5209 89.9827L66.0214 90.849L67.5209 91.7136V89.9827H66.5209ZM64.8805 89.0368L65.38 88.1705L63.8805 87.3059V89.0368H64.8805ZM65.3841 90.0646L65.2067 89.9612L64.1995 91.6891L64.3769 91.7924L65.3841 90.0646ZM65.7031 90.8251V88.7412H63.7031V90.8251H65.7031ZM64.2085 89.6103L66.0263 90.6449L67.0156 88.9067L65.1978 87.8721L64.2085 89.6103ZM65.5209 89.7758V89.9827H67.5209V89.7758H65.5209ZM67.0204 89.1164L65.38 88.1705L64.381 89.9031L66.0214 90.849L67.0204 89.1164ZM63.8805 89.0368V90.9285H65.8805V89.0368H63.8805Z" fill="#222222" mask="url(#path-260-inside-55_1406_80136)"/>
<mask id="path-262-inside-56_1406_80136" fill="white">
<path d="M76.0839 97.3871L75.9066 97.2837V95.3919L74.2661 94.4608V94.2539L76.0839 95.3033V97.3871Z"/>
</mask>
<path d="M76.0839 97.3871L75.9066 97.2837V95.3919L74.2661 94.4608V94.2539L76.0839 95.3033V97.3871Z" fill="#222222"/>
<path d="M76.0839 97.3871L75.5803 98.251L77.0839 99.1275V97.3871H76.0839ZM75.9066 97.2837H74.9066V97.8583L75.403 98.1476L75.9066 97.2837ZM75.9066 95.3919H76.9066V94.8097L76.4002 94.5222L75.9066 95.3919ZM74.2661 94.4608H73.2661V95.0431L73.7725 95.3305L74.2661 94.4608ZM74.2661 94.2539L74.7661 93.3878L73.2661 92.522V94.2539H74.2661ZM76.0839 95.3033H77.0839V94.7259L76.5839 94.4372L76.0839 95.3033ZM76.5875 96.5231L76.4102 96.4198L75.403 98.1476L75.5803 98.251L76.5875 96.5231ZM76.9066 97.2837V95.3919H74.9066V97.2837H76.9066ZM76.4002 94.5222L74.7597 93.5912L73.7725 95.3305L75.413 96.2616L76.4002 94.5222ZM75.2661 94.4608V94.2539H73.2661V94.4608H75.2661ZM73.7662 95.12L75.584 96.1693L76.5839 94.4372L74.7661 93.3878L73.7662 95.12ZM75.0839 95.3033V97.3871H77.0839V95.3033H75.0839Z" fill="#222222" mask="url(#path-262-inside-56_1406_80136)"/>
<mask id="path-264-inside-57_1406_80136" fill="white">
<path d="M66.5209 102.914L64.7031 101.865V99.7812L64.8805 99.8699V101.762L66.5209 102.707V102.914Z"/>
</mask>
<path d="M66.5209 102.914L64.7031 101.865V99.7812L64.8805 99.8699V101.762L66.5209 102.707V102.914Z" fill="#222222"/>
<path d="M66.5209 102.914L66.021 103.78L67.5209 104.646V102.914H66.5209ZM64.7031 101.865H63.7031V102.442L64.2032 102.731L64.7031 101.865ZM64.7031 99.7812L65.1503 98.8868L63.7031 98.1632V99.7812H64.7031ZM64.8805 99.8699H65.8805V99.2519L65.3277 98.9755L64.8805 99.8699ZM64.8805 101.762H63.8805V102.339L64.381 102.628L64.8805 101.762ZM66.5209 102.707H67.5209V102.13L67.0204 101.841L66.5209 102.707ZM67.0209 102.048L65.2031 100.999L64.2032 102.731L66.021 103.78L67.0209 102.048ZM65.7031 101.865V99.7812H63.7031V101.865H65.7031ZM64.2559 100.676L64.4333 100.764L65.3277 98.9755L65.1503 98.8868L64.2559 100.676ZM63.8805 99.8699V101.762H65.8805V99.8699H63.8805ZM64.381 102.628L66.0214 103.574L67.0204 101.841L65.38 100.895L64.381 102.628ZM65.5209 102.707V102.914H67.5209V102.707H65.5209Z" fill="#222222" mask="url(#path-264-inside-57_1406_80136)"/>
<mask id="path-266-inside-58_1406_80136" fill="white">
<path d="M76.0839 108.427L74.2661 107.377V107.185L75.9066 108.131V106.239L76.0839 106.343V108.427Z"/>
</mask>
<path d="M76.0839 108.427L74.2661 107.377V107.185L75.9066 108.131V106.239L76.0839 106.343V108.427Z" fill="#222222"/>
<path d="M76.0839 108.427L75.584 109.293L77.0839 110.158V108.427H76.0839ZM74.2661 107.377H73.2661V107.955L73.7662 108.243L74.2661 107.377ZM74.2661 107.185L74.7656 106.319L73.2661 105.454V107.185H74.2661ZM75.9066 108.131L75.4071 108.997L76.9066 109.862V108.131H75.9066ZM75.9066 106.239L76.4105 105.376L74.9066 104.498V106.239H75.9066ZM76.0839 106.343H77.0839V105.768L76.5878 105.479L76.0839 106.343ZM76.5839 107.56L74.7661 106.511L73.7662 108.243L75.584 109.293L76.5839 107.56ZM75.2661 107.377V107.185H73.2661V107.377H75.2661ZM73.7666 108.051L75.4071 108.997L76.4061 107.265L74.7656 106.319L73.7666 108.051ZM76.9066 108.131V106.239H74.9066V108.131H76.9066ZM75.4026 107.103L75.58 107.206L76.5878 105.479L76.4105 105.376L75.4026 107.103ZM75.0839 106.343V108.427H77.0839V106.343H75.0839Z" fill="#222222" mask="url(#path-266-inside-58_1406_80136)"/>
<path d="M73.7657 96.6265V97.4668L73.0513 97.0542V96.2138L73.7657 96.6265Z" fill="#222222" stroke="#222222"/>
<path d="M67.7349 100.115V100.949L67.0205 100.53V99.7021L67.7349 100.115Z" fill="#222222" stroke="#222222"/>
<mask id="path-270-inside-59_1406_80136" fill="white">
<path d="M69.2699 103.609L65.4863 101.422V97.0469L69.2699 99.2342V103.609ZM65.8264 101.215L68.93 103.003V99.4263L65.8264 97.6381V101.215Z"/>
</mask>
<path d="M69.2699 103.609L65.4863 101.422V97.0469L69.2699 99.2342V103.609ZM65.8264 101.215L68.93 103.003V99.4263L65.8264 97.6381V101.215Z" fill="#222222"/>
<path d="M69.2699 103.609L68.7694 104.475L70.2699 105.342V103.609H69.2699ZM65.4863 101.422H64.4863V101.999L64.9858 102.287L65.4863 101.422ZM65.4863 97.0469L65.9868 96.1811L64.4863 95.3137V97.0469H65.4863ZM69.2699 99.2342H70.2699V98.6572L69.7704 98.3684L69.2699 99.2342ZM65.8264 101.215H64.8264V101.793L65.3271 102.081L65.8264 101.215ZM68.93 103.003L68.4307 103.869L69.93 104.733V103.003H68.93ZM68.93 99.4263H69.93V98.8484L69.4292 98.5598L68.93 99.4263ZM65.8264 97.6381L66.3256 96.7716L64.8264 95.9078V97.6381H65.8264ZM69.7704 102.743L65.9868 100.556L64.9858 102.287L68.7694 104.475L69.7704 102.743ZM66.4863 101.422V97.0469H64.4863V101.422H66.4863ZM64.9858 97.9126L68.7694 100.1L69.7704 98.3684L65.9868 96.1811L64.9858 97.9126ZM68.2699 99.2342V103.609H70.2699V99.2342H68.2699ZM65.3271 102.081L68.4307 103.869L69.4292 102.136L66.3257 100.348L65.3271 102.081ZM69.93 103.003V99.4263H67.93V103.003H69.93ZM69.4292 98.5598L66.3256 96.7716L65.3272 98.5045L68.4307 100.293L69.4292 98.5598ZM64.8264 97.6381V101.215H66.8264V97.6381H64.8264Z" fill="#222222" mask="url(#path-270-inside-59_1406_80136)"/>
<path d="M73.7657 103.587V104.428L73.0513 104.015V103.175L73.7657 103.587Z" fill="#222222" stroke="#222222"/>
<mask id="path-273-inside-60_1406_80136" fill="white">
<path d="M75.3 107.082L71.5166 104.895V100.521L75.3 102.708V107.082ZM71.8565 104.688L74.9601 106.476V102.9L71.8565 101.112V104.688Z"/>
</mask>
<path d="M75.3 107.082L71.5166 104.895V100.521L75.3 102.708V107.082ZM71.8565 104.688L74.9601 106.476V102.9L71.8565 101.112V104.688Z" fill="#222222"/>
<path d="M75.3 107.082L74.7994 107.948L76.3 108.816V107.082H75.3ZM71.5166 104.895H70.5166V105.472L71.0161 105.761L71.5166 104.895ZM71.5166 100.521L72.0171 99.6548L70.5166 98.7873V100.521H71.5166ZM75.3 102.708H76.3V102.131L75.8005 101.842L75.3 102.708ZM71.8565 104.688H70.8565V105.266L71.3572 105.555L71.8565 104.688ZM74.9601 106.476L74.4608 107.343L75.9601 108.207V106.476H74.9601ZM74.9601 102.9H75.9601V102.322L75.4593 102.033L74.9601 102.9ZM71.8565 101.112L72.3557 100.245L70.8565 99.3813V101.112H71.8565ZM75.8005 106.217L72.0171 104.029L71.0161 105.761L74.7994 107.948L75.8005 106.217ZM72.5166 104.895V100.521H70.5166V104.895H72.5166ZM71.0161 101.386L74.7995 103.574L75.8005 101.842L72.0171 99.6548L71.0161 101.386ZM74.3 102.708V107.082H76.3V102.708H74.3ZM71.3572 105.555L74.4608 107.343L75.4593 105.61L72.3557 103.822L71.3572 105.555ZM75.9601 106.476V102.9H73.9601V106.476H75.9601ZM75.4593 102.033L72.3557 100.245L71.3572 101.978L74.4608 103.766L75.4593 102.033ZM70.8565 101.112V104.688H72.8565V101.112H70.8565Z" fill="#222222" mask="url(#path-273-inside-60_1406_80136)"/>
<path d="M171.468 175.641L169.36 174.412C168.068 173.665 166.287 173.766 164.319 174.902L166.427 176.131C168.395 174.995 170.176 174.894 171.468 175.641Z" fill="#222222"/>
<path d="M159.317 191.673L161.425 192.902C160.157 192.163 159.364 190.592 159.364 188.359C159.348 183.871 162.514 178.387 166.427 176.131L164.319 174.902C160.406 177.166 157.24 182.642 157.256 187.13C157.256 189.363 158.049 190.934 159.317 191.673Z" fill="#222222"/>
<path d="M166.427 176.131C162.515 178.394 159.349 183.87 159.364 188.358C159.38 192.854 162.561 194.667 166.474 192.403C170.379 190.147 173.544 184.671 173.537 180.175C173.521 175.687 170.34 173.867 166.435 176.123L166.427 176.131Z" fill="#222222"/>
<path d="M166.435 179.811C164.288 181.048 162.553 184.05 162.561 186.516C162.561 188.982 164.311 189.97 166.458 188.733C168.597 187.496 170.332 184.494 170.324 182.036C170.324 179.578 168.574 178.582 166.427 179.819L166.435 179.811Z" fill="#E7EEF2" stroke="#222222" stroke-width="2" stroke-linecap="round" stroke-linejoin="round"/>
<path d="M166.443 182.929C165.797 183.302 165.276 184.205 165.284 184.944C165.284 185.683 165.813 185.978 166.451 185.613C167.096 185.239 167.61 184.345 167.61 183.606C167.61 182.867 167.081 182.571 166.443 182.937V182.929Z" fill="white"/>
<defs>
<linearGradient id="paint0_linear_1406_80136" x1="103.734" y1="210.416" x2="152.094" y2="200.073" gradientUnits="userSpaceOnUse">
<stop stop-color="#FFB6D5"/>
<stop offset="0.1" stop-color="#FFE3C0"/>
<stop offset="0.29" stop-color="#C7FBDB"/>
<stop offset="0.43" stop-color="#C7CDF4"/>
<stop offset="0.54" stop-color="#FFBCD4"/>
<stop offset="0.66" stop-color="#FFE0C3"/>
<stop offset="0.76" stop-color="#B0F1D4"/>
<stop offset="0.84" stop-color="#C9CEEC"/>
<stop offset="0.91" stop-color="#FFC1DA"/>
<stop offset="1" stop-color="#BDFFE3"/>
</linearGradient>
<linearGradient id="paint1_linear_1406_80136" x1="119.233" y1="197.657" x2="124.283" y2="197.503" gradientUnits="userSpaceOnUse">
<stop stop-color="#FFB6D5"/>
<stop offset="0.1" stop-color="#FFE3C0"/>
<stop offset="0.29" stop-color="#C7FBDB"/>
<stop offset="0.43" stop-color="#C7CDF4"/>
<stop offset="0.54" stop-color="#FFBCD4"/>
<stop offset="0.66" stop-color="#FFE0C3"/>
<stop offset="0.76" stop-color="#B0F1D4"/>
<stop offset="0.84" stop-color="#C9CEEC"/>
<stop offset="0.91" stop-color="#FFC1DA"/>
<stop offset="1" stop-color="#BDFFE3"/>
</linearGradient>
<linearGradient id="paint2_linear_1406_80136" x1="103.734" y1="184.898" x2="143.063" y2="163.87" gradientUnits="userSpaceOnUse">
<stop stop-color="#FFB6D5"/>
<stop offset="0.1" stop-color="#FFE3C0"/>
<stop offset="0.29" stop-color="#C7FBDB"/>
<stop offset="0.43" stop-color="#C7CDF4"/>
<stop offset="0.54" stop-color="#FFBCD4"/>
<stop offset="0.66" stop-color="#FFE0C3"/>
<stop offset="0.76" stop-color="#B0F1D4"/>
<stop offset="0.84" stop-color="#C9CEEC"/>
<stop offset="0.91" stop-color="#FFC1DA"/>
<stop offset="1" stop-color="#BDFFE3"/>
</linearGradient>
<linearGradient id="paint3_linear_1406_80136" x1="66.6729" y1="161.236" x2="138.321" y2="115.264" gradientUnits="userSpaceOnUse">
<stop stop-color="#FFB6D5"/>
<stop offset="0.1" stop-color="#FFE3C0"/>
<stop offset="0.29" stop-color="#C7FBDB"/>
<stop offset="0.43" stop-color="#C7CDF4"/>
<stop offset="0.54" stop-color="#FFBCD4"/>
<stop offset="0.66" stop-color="#FFE0C3"/>
<stop offset="0.76" stop-color="#B0F1D4"/>
<stop offset="0.84" stop-color="#C9CEEC"/>
<stop offset="0.91" stop-color="#FFC1DA"/>
<stop offset="1" stop-color="#BDFFE3"/>
</linearGradient>
<linearGradient id="paint4_linear_1406_80136" x1="82.171" y1="148.477" x2="121.577" y2="123.194" gradientUnits="userSpaceOnUse">
<stop stop-color="#FFB6D5"/>
<stop offset="0.1" stop-color="#FFE3C0"/>
<stop offset="0.29" stop-color="#C7FBDB"/>
<stop offset="0.43" stop-color="#C7CDF4"/>
<stop offset="0.54" stop-color="#FFBCD4"/>
<stop offset="0.66" stop-color="#FFE0C3"/>
<stop offset="0.76" stop-color="#B0F1D4"/>
<stop offset="0.84" stop-color="#C9CEEC"/>
<stop offset="0.91" stop-color="#FFC1DA"/>
<stop offset="1" stop-color="#BDFFE3"/>
</linearGradient>
<linearGradient id="paint5_linear_1406_80136" x1="82.171" y1="148.477" x2="121.577" y2="123.194" gradientUnits="userSpaceOnUse">
<stop stop-color="#FFB6D5"/>
<stop offset="0.1" stop-color="#FFE3C0"/>
<stop offset="0.29" stop-color="#C7FBDB"/>
<stop offset="0.43" stop-color="#C7CDF4"/>
<stop offset="0.54" stop-color="#FFBCD4"/>
<stop offset="0.66" stop-color="#FFE0C3"/>
<stop offset="0.76" stop-color="#B0F1D4"/>
<stop offset="0.84" stop-color="#C9CEEC"/>
<stop offset="0.91" stop-color="#FFC1DA"/>
<stop offset="1" stop-color="#BDFFE3"/>
</linearGradient>
<linearGradient id="paint6_linear_1406_80136" x1="64.0489" y1="210.416" x2="112.409" y2="200.073" gradientUnits="userSpaceOnUse">
<stop stop-color="#FFB6D5"/>
<stop offset="0.1" stop-color="#FFE3C0"/>
<stop offset="0.29" stop-color="#C7FBDB"/>
<stop offset="0.43" stop-color="#C7CDF4"/>
<stop offset="0.54" stop-color="#FFBCD4"/>
<stop offset="0.66" stop-color="#FFE0C3"/>
<stop offset="0.76" stop-color="#B0F1D4"/>
<stop offset="0.84" stop-color="#C9CEEC"/>
<stop offset="0.91" stop-color="#FFC1DA"/>
<stop offset="1" stop-color="#BDFFE3"/>
</linearGradient>
<linearGradient id="paint7_linear_1406_80136" x1="79.547" y1="197.657" x2="84.5974" y2="197.503" gradientUnits="userSpaceOnUse">
<stop stop-color="#FFB6D5"/>
<stop offset="0.1" stop-color="#FFE3C0"/>
<stop offset="0.29" stop-color="#C7FBDB"/>
<stop offset="0.43" stop-color="#C7CDF4"/>
<stop offset="0.54" stop-color="#FFBCD4"/>
<stop offset="0.66" stop-color="#FFE0C3"/>
<stop offset="0.76" stop-color="#B0F1D4"/>
<stop offset="0.84" stop-color="#C9CEEC"/>
<stop offset="0.91" stop-color="#FFC1DA"/>
<stop offset="1" stop-color="#BDFFE3"/>
</linearGradient>
<linearGradient id="paint8_linear_1406_80136" x1="64.0489" y1="184.898" x2="103.377" y2="163.87" gradientUnits="userSpaceOnUse">
<stop stop-color="#FFB6D5"/>
<stop offset="0.1" stop-color="#FFE3C0"/>
<stop offset="0.29" stop-color="#C7FBDB"/>
<stop offset="0.43" stop-color="#C7CDF4"/>
<stop offset="0.54" stop-color="#FFBCD4"/>
<stop offset="0.66" stop-color="#FFE0C3"/>
<stop offset="0.76" stop-color="#B0F1D4"/>
<stop offset="0.84" stop-color="#C9CEEC"/>
<stop offset="0.91" stop-color="#FFC1DA"/>
<stop offset="1" stop-color="#BDFFE3"/>
</linearGradient>
</defs>
</svg>
