<svg width="207" height="97" viewBox="0 0 207 97" fill="none" xmlns="http://www.w3.org/2000/svg">
<path d="M76.1686 48.3846C76.1687 48.3848 76.1689 48.3846 76.1689 48.3845C73.4598 42.7944 69.5945 37.4422 65.0701 32.2089C64.9302 32.0471 64.7743 31.8995 64.6059 31.7677C61.3337 29.2047 58.2448 26.5461 55.4488 23.7452C55.3226 23.6404 55.1444 23.8068 55.24 23.9401C58.576 28.5972 61.3913 33.3217 63.3989 38.1622C77.3831 71.8869 61.8655 126.302 87.2804 151.718C91.9145 156.352 97.5131 159.625 103.775 161.964C105.532 162.621 107.118 158.313 105.716 157.066C79.6564 133.873 91.6213 80.2731 76.1684 48.3848C76.1683 48.3847 76.1685 48.3845 76.1686 48.3846Z" fill="url(#paint0_radial_1406_80676)"/>
<path d="M28.1922 -4.85254C28.1918 -4.85254 28.1915 -4.85206 28.1917 -4.8517C31.8371 0.365826 36.3541 5.2815 41.3037 10.0286C39.989 8.45247 38.7603 6.841 37.6314 5.18886C37.2297 4.60096 36.7791 4.04743 36.2731 3.5465C33.4803 0.781764 30.7619 -2.01204 28.1926 -4.85236C28.1925 -4.85248 28.1923 -4.85254 28.1922 -4.85254Z" fill="url(#paint1_radial_1406_80676)"/>
<path d="M102.735 65.3872C102.734 65.3872 102.734 65.387 102.734 65.3867C98.1425 58.1866 91.2983 51.7311 83.6126 45.5021C80.454 43.5045 77.3897 41.4465 74.499 39.288C80.5056 45.0807 85.7297 51.052 89.311 57.4623C106.069 87.4612 97.5076 140.024 124.043 161.007C127.807 163.983 132.028 166.123 136.592 167.636C136.764 167.693 136.943 167.727 137.124 167.738C138.407 167.815 139.695 167.885 140.986 167.949C142.804 168.039 143.648 164.613 142.157 163.569C115.312 144.772 120.632 93.4558 102.736 65.3878C102.736 65.3874 102.735 65.3872 102.735 65.3872Z" fill="url(#paint2_radial_1406_80676)"/>
<path d="M51.4129 19.338C51.0298 18.8785 50.6145 18.4465 50.1625 18.0546C47.1224 15.4182 44.1428 12.7507 41.3037 10.0287C44.9459 14.3926 49.2428 18.4857 53.8764 22.4234C53.9735 22.5059 54.1052 22.3828 54.0288 22.2808C53.1201 21.318 52.2464 20.3377 51.4129 19.338Z" fill="url(#paint3_radial_1406_80676)"/>
<path d="M37.9276 3.54065C37.3508 2.92131 36.5295 3.52441 36.9924 4.23295C37.0208 4.27648 37.0543 4.31734 37.0913 4.3538C40.6137 7.8169 44.2417 11.2371 47.8273 14.6495C47.8551 14.6759 47.8997 14.6385 47.8788 14.6063C44.7264 10.9062 41.3601 7.22629 37.9276 3.54065Z" fill="url(#paint4_radial_1406_80676)"/>
<path d="M62.6317 29.4636C62.6318 29.4636 62.6319 29.4637 62.632 29.4637C63.2529 30.1444 63.8637 30.8267 64.4637 31.5108C64.7286 31.8127 65.0202 32.0902 65.338 32.3357C67.0906 33.6894 68.8934 35.0182 70.7278 36.3268C69.0246 34.9142 67.4006 33.4562 65.8786 31.9417C64.792 31.1193 63.7092 30.2943 62.6315 29.4643C62.6312 29.4641 62.6314 29.4636 62.6317 29.4636Z" fill="url(#paint5_radial_1406_80676)"/>
<path d="M58.8621 25.4633C58.8623 25.4633 58.8624 25.463 58.8622 25.4629C57.4207 24.2448 55.9751 23.0246 54.5337 21.8006C54.2342 21.5462 53.794 21.9643 54.0286 22.2795C54.4927 22.7714 54.967 23.2595 55.4487 23.7438C56.6297 24.7236 57.8294 25.6947 59.0429 26.6587C59.4244 26.9618 59.8536 26.4925 59.516 26.1412C59.2988 25.9153 59.0808 25.6895 58.8619 25.4637C58.8617 25.4636 58.8618 25.4633 58.8621 25.4633Z" fill="url(#paint6_radial_1406_80676)"/>
<path d="M48.2833 15.0832C48.2829 15.0832 48.2826 15.083 48.2823 15.0828C48.2792 15.0798 48.2761 15.0768 48.2729 15.0738C48.2436 15.0459 48.1977 15.0846 48.2205 15.1182C49.0346 16.3166 49.9088 17.4871 50.8341 18.6325C50.8397 18.6395 50.846 18.646 50.8529 18.652C50.992 18.7724 51.1782 18.5935 51.0629 18.45C50.1596 17.3252 49.2319 16.2034 48.2844 15.0837C48.2842 15.0834 48.2838 15.0832 48.2833 15.0832Z" fill="url(#paint7_radial_1406_80676)"/>
<path d="M177.369 164.726C177.369 164.726 177.369 164.726 177.368 164.726C150.384 150.175 149.754 101.917 130.076 77.7815C122.973 69.0679 111.883 62.211 100.306 55.4384C97.7026 54.0496 95.1427 52.6269 92.6621 51.1476C102.06 57.6108 110.674 64.3016 116.352 72.1573C135.221 98.2666 132.971 148.143 159.963 164.793C163.645 167.065 167.636 168.57 171.864 169.492C172.01 169.505 172.155 169.518 172.301 169.53C177.285 169.44 182.251 169.379 187.12 169.477C187.65 169.436 187.682 168.344 187.162 168.236C183.742 167.529 180.466 166.394 177.37 164.725C177.369 164.725 177.369 164.725 177.369 164.726Z" fill="url(#paint8_radial_1406_80676)"/>
<path d="M54.5018 13.8994C54.5024 13.8994 54.5029 13.8988 54.5027 13.8982C45.3526 -16.6714 79.4753 -51.1189 82.5395 -81.0016C83.7433 -92.7367 80.7608 -105.861 77.382 -119.105C76.5443 -121.903 75.7581 -124.685 75.0662 -127.441C77.1116 -115.943 78.4337 -104.726 76.8084 -94.6815C71.846 -64.0046 34.5336 -30.4811 42.1453 1.63977C43.2573 6.3343 45.2423 10.6238 47.8751 14.6076C48.0109 14.7661 48.1455 14.9259 48.2801 15.0844C51.9067 18.5386 55.4842 21.9866 58.8592 25.4647C60.3775 26.7478 61.8921 28.0309 63.3915 29.3139C59.3539 24.7619 56.2382 19.7016 54.5009 13.9006C54.5007 13.9 54.5012 13.8994 54.5018 13.8994Z" fill="url(#paint9_radial_1406_80676)"/>
<path d="M70.7278 36.3269C71.9454 37.337 73.2046 38.322 74.499 39.288C74.2702 39.067 74.0401 38.8463 73.8089 38.6261C73.4502 38.2845 73.0643 37.9728 72.6584 37.6891C72.0112 37.2369 71.3673 36.7826 70.7278 36.3269Z" fill="url(#paint10_radial_1406_80676)"/>
<path d="M80.3872 42.936C81.4753 43.7876 82.5521 44.643 83.6125 45.5022C84.9547 46.3513 86.3145 47.1878 87.6844 48.018C86.0504 46.9299 84.4704 45.8053 82.9546 44.6405C82.0997 44.0735 81.2436 43.5065 80.3899 42.9383C80.389 42.9376 80.388 42.9369 80.3872 42.936Z" fill="url(#paint11_radial_1406_80676)"/>
<path d="M72.723 37.6013C73.087 37.942 73.4741 38.2573 73.8844 38.5407C76.0291 40.0221 78.2051 41.4837 80.3873 42.9358C76.8852 40.1948 73.2574 37.4853 69.6245 34.7606C70.6737 35.7043 71.7076 36.6506 72.723 37.6013Z" fill="url(#paint12_radial_1406_80676)"/>
<path d="M65.8784 31.9405C67.1238 32.884 68.3741 33.8224 69.6245 34.7608C67.5955 32.9368 65.5099 31.1229 63.394 29.3127C64.1878 30.2071 65.0168 31.0839 65.8784 31.9405Z" fill="url(#paint13_radial_1406_80676)"/>
<path d="M87.6846 48.0176C87.6846 48.0178 87.6847 48.0179 87.6848 48.018C89.2974 49.0922 90.9603 50.1337 92.6621 51.1475C92.0659 50.7375 91.4659 50.3274 90.8633 49.9186C89.7994 49.2885 88.7393 48.656 87.6854 48.0171C87.685 48.0169 87.6846 48.0171 87.6846 48.0176Z" fill="url(#paint14_radial_1406_80676)"/>
<path d="M439.269 95.1805C439.269 95.1807 439.269 95.1808 439.269 95.1806C461.429 74.8594 507.908 71.5421 520.418 44.716C523.699 37.6817 524.238 29.8964 523.273 21.6973C522.628 18.4142 521.978 15.1285 521.373 11.8592C520.476 8.2829 519.532 4.69156 518.619 1.10776C513.428 -16.2175 506.221 -34.114 506.916 -49.887C508.192 -78.8618 539.15 -113.983 528.612 -142.934C525.706 -150.917 520.082 -157.231 513.048 -162.638C510.392 -164.398 507.742 -166.151 505.139 -167.917C502.002 -169.774 498.832 -171.602 495.696 -173.436C479.833 -181.902 462.389 -189.136 452.182 -200.266C431.861 -222.425 428.544 -268.905 401.717 -281.415C394.683 -284.696 386.898 -285.236 378.699 -284.271C375.415 -283.626 372.13 -282.975 368.86 -282.37C365.284 -281.473 361.693 -280.53 358.109 -279.617C340.784 -274.425 322.887 -267.219 307.114 -267.913C278.139 -269.19 243.018 -300.147 214.067 -289.609C206.085 -286.704 199.77 -281.08 194.363 -274.045C192.604 -271.39 190.85 -268.739 189.084 -266.137C187.227 -263 185.4 -259.83 183.565 -256.694C175.101 -240.83 167.865 -223.386 156.735 -213.18C134.576 -192.858 88.0958 -189.541 75.5859 -162.715C72.3052 -155.68 71.7656 -147.895 72.7304 -139.696C73.3757 -136.413 74.026 -133.127 74.6311 -129.858C75.528 -126.282 76.4714 -122.69 77.3847 -119.106C82.5761 -101.781 89.7827 -83.8847 89.0883 -68.1116C87.8116 -39.1368 56.8542 -4.01575 67.3918 24.9352C70.2976 32.9179 75.9217 39.2327 82.956 44.6392C85.6115 46.399 88.2619 48.1526 90.8645 49.9187C94.0018 51.7754 97.1717 53.6031 100.308 55.4372C116.171 63.9017 133.615 71.1372 143.822 82.2673C164.143 104.427 167.46 150.907 194.287 163.417C201.321 166.697 209.106 167.237 217.305 166.272C220.588 165.627 223.874 164.977 227.143 164.372C230.72 163.475 234.311 162.531 237.895 161.618C255.22 156.427 273.117 149.22 288.89 149.914C317.864 151.191 352.986 182.148 381.936 171.611C389.919 168.705 396.234 163.081 401.64 156.047C403.4 153.391 405.154 150.741 406.92 148.138C408.777 145.001 410.604 141.831 412.438 138.695C420.903 122.832 428.138 105.388 439.268 95.1802C439.268 95.1801 439.269 95.1802 439.269 95.1805ZM391.732 158.292C364.453 170.059 328.908 142.227 300.943 142.623C271.953 143.034 237.156 171.465 210.631 160.926C184.105 150.387 178.305 105.829 157.5 85.6373C137.431 66.1584 92.4772 62.011 80.7106 34.7318C68.9441 7.45267 96.7755 -28.0923 96.3792 -56.0571C95.9691 -85.047 67.5377 -119.844 78.0765 -146.369C88.6154 -172.895 133.173 -178.695 153.365 -199.5C172.844 -219.569 176.992 -264.523 204.271 -276.289C231.55 -288.056 267.095 -260.225 295.06 -260.621C324.05 -261.031 358.846 -289.462 385.372 -278.923C411.898 -268.385 417.698 -223.827 438.502 -203.635C458.571 -184.156 503.525 -180.008 515.292 -152.729C527.059 -125.45 499.227 -89.9051 499.623 -61.9403C500.033 -32.9503 528.465 1.84616 517.926 28.3719C507.387 54.8976 462.829 60.6978 442.637 81.5025C423.158 101.571 419.011 146.526 391.732 158.292Z" fill="url(#paint15_radial_1406_80676)"/>
<path d="M514.312 12.6785C514.313 12.6788 514.313 12.6787 514.313 12.6783C522.958 -13.412 493.678 -45.2709 491.661 -73.1158C489.715 -99.9774 514.479 -135.706 501.64 -161.271C488.8 -186.837 445.353 -188.307 424.968 -205.909C403.838 -224.156 395.767 -266.667 369.677 -275.312C343.586 -283.958 311.727 -254.677 283.882 -252.66C257.02 -250.714 221.291 -275.478 195.727 -262.639C170.161 -249.799 168.69 -206.352 151.088 -185.967C132.841 -164.837 90.3309 -156.766 81.6853 -130.676C73.0396 -104.585 102.32 -72.7259 104.338 -44.8806C106.284 -18.0191 81.5192 17.7095 94.3588 43.2742C107.198 68.8401 150.646 70.3106 171.03 87.9113C192.161 106.159 200.231 148.669 226.322 157.314C252.412 165.96 284.272 136.68 312.117 134.662C338.978 132.716 374.707 157.48 400.272 144.641C425.838 131.801 427.308 88.3542 444.909 67.9696C463.156 46.8394 505.665 38.7685 514.312 12.6787C514.312 12.6783 514.312 12.6782 514.312 12.6785ZM407.557 130.76C383.735 144.514 348.054 122.738 322.379 126.109C295.763 129.603 266.818 159.491 241.29 152.65C215.762 145.81 205.639 105.454 184.335 89.1202C163.784 73.3636 121.996 74.3812 108.242 50.5588C94.4884 26.7363 116.263 -8.94446 112.893 -34.6198C109.4 -61.2361 79.5116 -90.1807 86.3521 -115.709C93.1927 -141.237 133.548 -151.36 149.882 -172.664C165.639 -193.214 164.621 -235.002 188.443 -248.756C212.266 -262.51 247.947 -240.736 273.622 -244.106C300.238 -247.599 329.183 -277.487 354.711 -270.647C380.239 -263.806 390.362 -223.451 411.666 -207.117C432.216 -191.36 474.004 -192.378 487.758 -168.555C501.513 -144.733 479.737 -109.052 483.108 -83.3767C486.601 -56.7604 516.489 -27.8157 509.649 -2.28757C502.808 23.2406 462.453 33.3631 446.119 54.6671C430.362 75.2177 431.38 117.006 407.557 130.76Z" fill="url(#paint16_radial_1406_80676)"/>
<path d="M504.004 -16.4631C509.136 -41.3107 478.876 -67.3823 474.042 -92.6954C469.379 -117.114 488.257 -152.524 473.745 -174.588C459.234 -196.652 419.242 -193.344 398.668 -207.298C377.339 -221.763 365.385 -259.874 340.537 -265.004C315.689 -270.135 289.618 -239.875 264.305 -235.041C239.886 -230.378 204.476 -249.256 182.412 -234.744C160.348 -220.233 163.656 -180.241 149.702 -159.667C135.237 -138.338 97.1262 -126.384 91.9964 -101.536C86.8654 -76.6884 117.125 -50.6168 121.959 -25.3037C126.622 -0.88501 107.744 34.5253 122.256 56.5892C136.767 78.653 176.759 75.3447 197.333 89.2988C218.662 103.764 230.616 141.875 255.464 147.004C280.312 152.136 306.383 121.876 331.696 117.042C356.115 112.379 391.525 131.257 413.589 116.745C435.653 102.234 432.345 62.2423 446.299 41.6678C460.764 20.3386 498.875 8.38455 504.004 -16.4631ZM418.378 102.696C398.078 117.808 363.149 101.722 340.046 107.544C316.098 113.579 292.84 143.98 268.784 140.457C244.726 136.934 231.166 101.138 209.955 88.4887C189.494 76.2856 151.418 81.6783 136.305 61.3793C121.193 41.0803 137.279 6.15051 131.457 -16.9524C125.422 -40.9006 95.0205 -64.1582 98.5439 -88.2147C102.067 -112.272 137.863 -125.833 150.512 -147.044C162.715 -167.505 157.323 -205.581 177.622 -220.693C197.922 -235.806 232.85 -219.72 255.953 -225.541C279.902 -231.577 303.159 -261.978 327.216 -258.455C351.273 -254.931 364.834 -219.136 386.045 -206.487C406.506 -194.283 444.582 -199.676 459.694 -179.377C474.807 -159.077 458.721 -124.148 464.542 -101.045C470.578 -77.0972 500.979 -53.8396 497.456 -29.7832C493.932 -5.72549 458.137 7.83484 445.487 29.0458C433.284 49.5071 438.677 87.583 418.378 102.696Z" fill="url(#paint17_radial_1406_80676)"/>
<path d="M490.086 -42.1937C492.112 -65.362 461.789 -85.8786 454.694 -108.412C447.85 -130.147 461.269 -164.397 445.709 -182.941C430.149 -201.485 394.09 -194.217 373.873 -204.732C352.915 -215.632 337.975 -249.058 314.806 -251.085C291.638 -253.111 271.121 -222.788 248.588 -215.693C226.853 -208.849 192.603 -222.268 174.059 -206.708C155.515 -191.147 162.783 -155.089 152.268 -134.872C141.368 -113.914 107.942 -98.9736 105.915 -75.8052C103.889 -52.6369 134.212 -32.1203 141.307 -9.5872C148.151 12.1483 134.733 46.3976 150.292 64.9419C165.853 83.4861 201.911 76.2178 222.128 86.7328C243.086 97.6326 258.026 131.059 281.195 133.086C304.363 135.112 324.88 104.789 347.413 97.6942C369.148 90.8499 403.398 104.268 421.942 88.709C440.486 73.1485 433.218 37.0903 443.733 16.8731C454.633 -4.08508 488.059 -19.0253 490.086 -42.1937ZM441.084 5.21344C432.186 25.0634 441.113 59.0208 424.306 74.8782C407.498 90.7355 374.117 79.8494 353.783 87.5768C332.704 95.5885 314.837 125.624 292.646 124.978C270.455 124.333 254.363 93.3091 233.786 84.0861C213.936 75.1888 179.979 84.1151 164.122 67.308C148.264 50.501 159.15 17.1196 151.423 -3.2146C143.411 -24.2935 113.376 -42.161 114.021 -64.3519C114.667 -86.5428 145.691 -102.634 154.914 -123.211C163.811 -143.061 154.885 -177.018 171.692 -192.876C188.499 -208.733 221.88 -197.847 242.214 -205.574C263.293 -213.586 281.161 -243.621 303.352 -242.976C325.543 -242.331 341.634 -211.307 362.211 -202.084C382.061 -193.186 416.018 -202.113 431.876 -185.306C447.733 -168.499 436.847 -135.117 444.574 -114.783C452.586 -93.7041 482.621 -75.8367 481.976 -53.6458C481.331 -31.4548 450.307 -15.3636 441.084 5.21344Z" fill="url(#paint18_radial_1406_80676)"/>
<path d="M434.271 -120.153C425.798 -139.057 434.299 -171.398 418.292 -186.499C402.285 -201.601 370.493 -191.233 351.128 -198.594C331.052 -206.225 314.035 -234.83 292.902 -234.215C271.769 -233.6 256.443 -204.054 236.847 -195.27C217.943 -186.796 185.602 -195.297 170.501 -179.29C155.399 -163.283 165.767 -131.492 158.406 -112.126C150.775 -92.0512 122.17 -75.0341 122.785 -53.9011C123.401 -32.7681 152.946 -17.4417 161.731 2.15419C170.204 21.0582 161.703 53.3993 177.71 68.5005C193.717 83.6018 225.508 73.2341 244.874 80.5954C264.949 88.2259 281.966 116.831 303.099 116.216C324.232 115.601 339.558 86.0548 359.154 77.2708C378.058 68.7974 410.399 77.2984 425.501 61.2914C440.602 45.2844 430.234 13.4931 437.596 -5.87256C445.226 -25.9477 473.831 -42.9648 473.216 -64.0978C472.601 -85.2308 443.055 -100.557 434.271 -120.153ZM433.326 -16.3246C427.415 2.4473 439.004 32.026 425.566 48.0405C412.128 64.0551 380.987 57.7793 363.526 66.8602C345.425 76.2732 332.523 105.141 312.515 106.892C292.506 108.643 274.787 82.4546 255.327 76.3273C236.555 70.4164 206.977 82.0056 190.962 68.5672C174.947 55.1289 181.223 23.9879 172.142 6.5267C162.729 -11.5735 133.861 -24.4759 132.11 -44.4843C130.359 -64.4928 156.548 -82.2118 162.675 -101.672C168.586 -120.444 156.997 -150.022 170.435 -166.037C183.874 -182.051 215.015 -175.776 232.476 -184.857C250.576 -194.27 263.478 -223.137 283.487 -224.889C303.495 -226.64 321.214 -200.451 340.674 -194.324C359.446 -188.413 389.025 -200.002 405.039 -186.564C421.054 -173.125 414.778 -141.984 423.859 -124.523C433.272 -106.423 462.14 -93.5205 463.891 -73.512C465.642 -53.5036 439.453 -35.7846 433.326 -16.3246Z" fill="url(#paint19_radial_1406_80676)"/>
<path d="M413.423 -127.903C403.873 -143.916 408.093 -173.714 392.207 -185.541C376.321 -197.368 348.985 -184.779 330.905 -189.335C312.163 -194.058 293.963 -217.851 275.135 -215.092C256.308 -212.335 245.696 -184.322 229.096 -174.421C213.082 -164.871 183.285 -169.091 171.458 -153.205C159.631 -137.319 172.22 -109.983 167.664 -91.9028C162.941 -73.1611 139.148 -54.9603 141.907 -36.1331C144.664 -17.3058 172.677 -6.69402 182.578 9.90671C192.128 25.92 187.908 55.7176 203.794 67.5445C219.68 79.3714 247.016 66.7822 265.096 71.3383C283.838 76.0618 302.038 99.8541 320.866 97.0955C339.693 94.3381 350.305 66.3256 366.905 56.4245C382.919 46.8744 412.716 51.0947 424.543 35.2085C436.37 19.3222 423.781 -8.01357 428.337 -26.0936C433.061 -44.8353 456.853 -63.0361 454.094 -81.8634C451.336 -100.691 423.324 -111.302 413.423 -127.903ZM422.693 -35.1318C419.39 -17.8354 432.761 7.24623 422.483 22.8746C412.204 38.503 383.877 36.1595 369.304 46.0429C354.197 56.2887 345.73 83.2823 328.129 86.9164C310.529 90.5505 292.062 69.1181 274.133 65.6941C256.836 62.3908 231.755 75.7625 216.127 65.484C200.498 55.2056 202.842 26.8785 192.958 12.3056C182.712 -2.80202 155.719 -11.2691 152.085 -28.8698C148.451 -46.4694 169.883 -64.9368 173.307 -82.8659C176.61 -100.162 163.239 -125.244 173.517 -140.872C183.796 -156.501 212.123 -154.157 226.696 -164.041C241.803 -174.286 250.27 -201.28 267.871 -204.914C285.47 -208.548 303.938 -187.116 321.867 -183.692C339.163 -180.388 364.245 -193.76 379.873 -183.482C395.502 -173.203 393.158 -144.876 403.042 -130.303C413.287 -115.196 440.281 -106.729 443.915 -89.1278C447.549 -71.5283 426.117 -53.0609 422.693 -35.1318Z" fill="url(#paint20_radial_1406_80676)"/>
<path d="M392.793 -131.744C382.71 -144.895 383.36 -171.638 368.114 -180.441C352.868 -189.244 330.033 -175.308 313.601 -177.465C296.566 -179.7 278.042 -198.828 261.706 -194.451C245.368 -190.073 238.89 -164.247 225.255 -153.794C212.104 -143.71 185.36 -144.36 176.557 -129.115C167.754 -113.869 181.691 -91.0336 179.534 -74.6014C177.298 -57.5667 158.17 -39.0439 162.548 -22.7061C166.925 -6.36824 192.752 0.110031 203.205 13.7446C213.289 26.8961 212.638 53.6394 227.884 62.4423C243.13 71.2452 265.965 57.3088 282.397 59.4661C299.432 61.7014 317.956 80.8293 334.293 76.4518C350.63 72.0742 357.109 46.2479 370.743 35.7946C383.895 25.7112 410.638 26.3615 419.441 11.1155C428.244 -4.13042 414.307 -26.9654 416.465 -43.3975C418.7 -60.4323 437.828 -78.9563 433.45 -95.2929C429.073 -111.631 403.247 -118.109 392.793 -131.744ZM409.724 -50.8557C408.6 -35.3595 422.888 -14.7472 415.481 0.000595093C408.074 14.7497 383.009 15.5975 371.25 25.7527C359.06 36.2789 354.404 60.8033 339.352 65.7909C324.3 70.7785 305.92 53.8872 289.857 52.7224C274.36 51.5991 253.748 65.8865 239 58.4799C224.251 51.0733 223.403 26.008 213.248 14.249C202.722 2.05855 178.198 -2.59702 173.21 -17.6492C168.222 -32.7015 185.114 -51.0809 186.279 -67.1445C187.402 -82.6408 173.114 -103.253 180.521 -118.001C187.928 -132.75 212.993 -133.598 224.752 -143.753C236.942 -154.279 241.598 -178.804 256.65 -183.791C271.702 -188.779 290.082 -171.887 306.145 -170.723C321.642 -169.599 342.254 -183.887 357.002 -176.48C371.751 -169.074 372.599 -144.008 382.754 -132.249C393.28 -120.059 417.804 -115.403 422.792 -100.351C427.78 -85.2988 410.888 -66.9193 409.724 -50.8557Z" fill="url(#paint21_radial_1406_80676)"/>
<path d="M372.994 -131.848C362.894 -142.253 360.744 -165.561 346.599 -171.664C332.455 -177.764 314.025 -163.334 299.525 -163.54C284.494 -163.753 266.452 -178.494 252.699 -173.03C238.945 -167.565 235.939 -144.462 225.151 -133.993C214.745 -123.893 191.437 -121.743 185.335 -107.598C179.234 -93.4538 193.665 -75.0241 193.459 -60.5241C193.246 -45.4932 178.505 -27.4509 183.969 -13.6981C189.434 0.0559692 212.536 3.06239 223.006 13.8503C233.106 24.2558 235.256 47.5637 249.401 53.6659C263.545 59.7668 281.975 45.336 296.475 45.5423C311.506 45.7549 329.548 60.4964 343.301 55.032C357.055 49.5676 360.061 26.4647 370.849 15.995C381.255 5.89523 404.563 3.74547 410.665 -10.3998C416.766 -24.5438 402.335 -42.9736 402.541 -57.4736C402.754 -72.5045 417.495 -90.5468 412.031 -104.3C406.566 -118.054 383.463 -121.06 372.994 -131.848ZM394.991 -63.2298C395.584 -49.7776 409.955 -33.4725 405.063 -20.0317C400.171 -6.59084 378.681 -3.33914 369.58 6.58582C360.145 16.8731 358.606 38.4526 346.151 44.2604C333.697 50.0682 316.176 37.3771 302.231 37.991C288.779 38.5835 272.474 52.9552 259.033 48.0632C245.592 43.1711 242.34 21.6808 232.415 12.5798C222.128 3.14543 200.548 1.60574 194.741 -10.8489C188.933 -23.3035 201.624 -40.8238 201.01 -54.7691C200.418 -68.2213 186.046 -84.5264 190.938 -97.9672C195.83 -111.408 217.32 -114.66 226.421 -124.585C235.856 -134.872 237.395 -156.452 249.85 -162.259C262.305 -168.067 279.825 -155.376 293.77 -155.99C307.222 -156.582 323.528 -170.954 336.968 -166.062C350.409 -161.17 353.661 -139.68 363.586 -130.579C373.873 -121.144 395.453 -119.605 401.26 -107.15C407.068 -94.6954 394.377 -77.1751 394.991 -63.2298Z" fill="url(#paint22_radial_1406_80676)"/>
<path d="M390.571 -108.912C390.571 -108.912 390.571 -108.913 390.57 -108.913C384.55 -120.078 364.582 -120.339 354.595 -128.481C344.962 -136.334 340.811 -155.964 328.163 -159.75C315.515 -163.536 301.261 -149.417 288.896 -148.149C276.078 -146.835 259.252 -157.589 248.086 -151.57C236.921 -145.549 236.659 -125.581 228.518 -115.594C220.665 -105.961 201.035 -101.81 197.249 -89.1618C193.463 -76.5135 207.581 -62.26 208.849 -49.8947C210.164 -37.0765 199.41 -20.2506 205.43 -9.08536C211.451 2.07991 231.419 2.34032 241.406 10.4828C251.039 18.336 255.19 37.9658 267.838 41.7521C280.487 45.5384 294.74 31.4196 307.105 30.1516C319.924 28.8371 336.749 39.591 347.915 33.5719C359.08 27.5515 359.34 7.58328 367.483 -2.40332C375.336 -12.0364 394.966 -16.1876 398.752 -28.8359C402.538 -41.4843 388.42 -55.7377 387.152 -68.1031C385.837 -80.921 396.591 -97.7466 390.572 -108.912C390.572 -108.912 390.572 -108.912 390.571 -108.912ZM391.806 -36.7671C389.015 -24.9905 371.273 -20.1462 364.6 -10.9118C357.681 -1.33911 358.506 16.9472 348.61 23.0519C338.714 29.1566 322.743 20.2115 311.083 22.0971C299.836 23.9161 287.545 37.5972 275.768 34.8059C263.991 32.0146 259.147 14.2729 249.913 7.59964C240.34 0.681091 222.054 1.5063 215.949 -8.38972C209.844 -18.2858 218.789 -34.2575 216.904 -45.9172C215.085 -57.1642 201.404 -69.4553 204.195 -81.2319C206.986 -93.0086 224.728 -97.8528 231.401 -107.087C238.32 -116.66 237.495 -134.946 247.391 -141.051C257.287 -147.156 273.259 -138.211 284.918 -140.096C296.165 -141.915 308.456 -155.596 320.233 -152.805C332.01 -150.014 336.854 -132.272 346.088 -125.599C355.661 -118.68 373.947 -119.505 380.052 -109.609C386.157 -99.7132 377.212 -83.7415 379.097 -72.0818C380.916 -60.8348 394.597 -48.5437 391.806 -36.7671Z" fill="url(#paint23_radial_1406_80676)"/>
<defs>
<radialGradient id="paint0_radial_1406_80676" cx="0" cy="0" r="1" gradientUnits="userSpaceOnUse" gradientTransform="translate(113.45 56.7019) rotate(-52.3788) scale(207.171 118.642)">
<stop stop-color="#FFB6D5"/>
<stop offset="0.1" stop-color="#FFE3C0"/>
<stop offset="0.29" stop-color="#C7FBDB"/>
<stop offset="0.43" stop-color="#C7CDF4"/>
<stop offset="0.54" stop-color="#FFBCD4"/>
<stop offset="0.66" stop-color="#FFE0C3"/>
<stop offset="0.76" stop-color="#B0F1D4"/>
<stop offset="0.84" stop-color="#C9CEEC"/>
<stop offset="0.91" stop-color="#FFC1DA"/>
<stop offset="1" stop-color="#BDFFE3"/>
</radialGradient>
<radialGradient id="paint1_radial_1406_80676" cx="0" cy="0" r="1" gradientUnits="userSpaceOnUse" gradientTransform="translate(39.3004 -1.36002) rotate(-35.4835) scale(29.2988 16.4026)">
<stop stop-color="#FFB6D5"/>
<stop offset="0.1" stop-color="#FFE3C0"/>
<stop offset="0.29" stop-color="#C7FBDB"/>
<stop offset="0.43" stop-color="#C7CDF4"/>
<stop offset="0.54" stop-color="#FFBCD4"/>
<stop offset="0.66" stop-color="#FFE0C3"/>
<stop offset="0.76" stop-color="#B0F1D4"/>
<stop offset="0.84" stop-color="#C9CEEC"/>
<stop offset="0.91" stop-color="#FFC1DA"/>
<stop offset="1" stop-color="#BDFFE3"/>
</radialGradient>
<radialGradient id="paint2_radial_1406_80676" cx="0" cy="0" r="1" gradientUnits="userSpaceOnUse" gradientTransform="translate(139.983 69.5902) rotate(-46.3773) scale(203.839 120.577)">
<stop stop-color="#FFB6D5"/>
<stop offset="0.1" stop-color="#FFE3C0"/>
<stop offset="0.29" stop-color="#C7FBDB"/>
<stop offset="0.43" stop-color="#C7CDF4"/>
<stop offset="0.54" stop-color="#FFBCD4"/>
<stop offset="0.66" stop-color="#FFE0C3"/>
<stop offset="0.76" stop-color="#B0F1D4"/>
<stop offset="0.84" stop-color="#C9CEEC"/>
<stop offset="0.91" stop-color="#FFC1DA"/>
<stop offset="1" stop-color="#BDFFE3"/>
</radialGradient>
<radialGradient id="paint3_radial_1406_80676" cx="0" cy="0" r="1" gradientUnits="userSpaceOnUse" gradientTransform="translate(52.5376 13.0739) rotate(-31.5777) scale(28.3184 14.9633)">
<stop stop-color="#FFB6D5"/>
<stop offset="0.1" stop-color="#FFE3C0"/>
<stop offset="0.29" stop-color="#C7FBDB"/>
<stop offset="0.43" stop-color="#C7CDF4"/>
<stop offset="0.54" stop-color="#FFBCD4"/>
<stop offset="0.66" stop-color="#FFE0C3"/>
<stop offset="0.76" stop-color="#B0F1D4"/>
<stop offset="0.84" stop-color="#C9CEEC"/>
<stop offset="0.91" stop-color="#FFC1DA"/>
<stop offset="1" stop-color="#BDFFE3"/>
</radialGradient>
<radialGradient id="paint4_radial_1406_80676" cx="0" cy="0" r="1" gradientUnits="userSpaceOnUse" gradientTransform="translate(45.9539 3.28645) rotate(-34.7819) scale(30.2819 16.8047)">
<stop stop-color="#FFB6D5"/>
<stop offset="0.1" stop-color="#FFE3C0"/>
<stop offset="0.29" stop-color="#C7FBDB"/>
<stop offset="0.43" stop-color="#C7CDF4"/>
<stop offset="0.54" stop-color="#FFBCD4"/>
<stop offset="0.66" stop-color="#FFE0C3"/>
<stop offset="0.76" stop-color="#B0F1D4"/>
<stop offset="0.84" stop-color="#C9CEEC"/>
<stop offset="0.91" stop-color="#FFC1DA"/>
<stop offset="1" stop-color="#BDFFE3"/>
</radialGradient>
<radialGradient id="paint5_radial_1406_80676" cx="0" cy="0" r="1" gradientUnits="userSpaceOnUse" gradientTransform="translate(69.4908 31.0744) rotate(-28.0312) scale(16.6903 8.20045)">
<stop stop-color="#FFB6D5"/>
<stop offset="0.1" stop-color="#FFE3C0"/>
<stop offset="0.29" stop-color="#C7FBDB"/>
<stop offset="0.43" stop-color="#C7CDF4"/>
<stop offset="0.54" stop-color="#FFBCD4"/>
<stop offset="0.66" stop-color="#FFE0C3"/>
<stop offset="0.76" stop-color="#B0F1D4"/>
<stop offset="0.84" stop-color="#C9CEEC"/>
<stop offset="0.91" stop-color="#FFC1DA"/>
<stop offset="1" stop-color="#BDFFE3"/>
</radialGradient>
<radialGradient id="paint6_radial_1406_80676" cx="0" cy="0" r="1" gradientUnits="userSpaceOnUse" gradientTransform="translate(61.0097 21.96) rotate(-30.1366) scale(22.3147 11.476)">
<stop stop-color="#FFB6D5"/>
<stop offset="0.1" stop-color="#FFE3C0"/>
<stop offset="0.29" stop-color="#C7FBDB"/>
<stop offset="0.43" stop-color="#C7CDF4"/>
<stop offset="0.54" stop-color="#FFBCD4"/>
<stop offset="0.66" stop-color="#FFE0C3"/>
<stop offset="0.76" stop-color="#B0F1D4"/>
<stop offset="0.84" stop-color="#C9CEEC"/>
<stop offset="0.91" stop-color="#FFC1DA"/>
<stop offset="1" stop-color="#BDFFE3"/>
</radialGradient>
<radialGradient id="paint7_radial_1406_80676" cx="0" cy="0" r="1" gradientUnits="userSpaceOnUse" gradientTransform="translate(51.4155 15.982) rotate(-37.1668) scale(9.09015 5.18334)">
<stop stop-color="#FFB6D5"/>
<stop offset="0.1" stop-color="#FFE3C0"/>
<stop offset="0.29" stop-color="#C7FBDB"/>
<stop offset="0.43" stop-color="#C7CDF4"/>
<stop offset="0.54" stop-color="#FFBCD4"/>
<stop offset="0.66" stop-color="#FFE0C3"/>
<stop offset="0.76" stop-color="#B0F1D4"/>
<stop offset="0.84" stop-color="#C9CEEC"/>
<stop offset="0.91" stop-color="#FFC1DA"/>
<stop offset="1" stop-color="#BDFFE3"/>
</radialGradient>
<radialGradient id="paint8_radial_1406_80676" cx="0" cy="0" r="1" gradientUnits="userSpaceOnUse" gradientTransform="translate(177.656 78.9313) rotate(-36.5469) scale(227.202 128.737)">
<stop stop-color="#FFB6D5"/>
<stop offset="0.1" stop-color="#FFE3C0"/>
<stop offset="0.29" stop-color="#C7FBDB"/>
<stop offset="0.43" stop-color="#C7CDF4"/>
<stop offset="0.54" stop-color="#FFBCD4"/>
<stop offset="0.66" stop-color="#FFE0C3"/>
<stop offset="0.76" stop-color="#B0F1D4"/>
<stop offset="0.84" stop-color="#C9CEEC"/>
<stop offset="0.91" stop-color="#FFC1DA"/>
<stop offset="1" stop-color="#BDFFE3"/>
</radialGradient>
<radialGradient id="paint9_radial_1406_80676" cx="0" cy="0" r="1" gradientUnits="userSpaceOnUse" gradientTransform="translate(76.4429 -90.6519) rotate(-67.0536) scale(194.543 82.7263)">
<stop stop-color="#FFB6D5"/>
<stop offset="0.1" stop-color="#FFE3C0"/>
<stop offset="0.29" stop-color="#C7FBDB"/>
<stop offset="0.43" stop-color="#C7CDF4"/>
<stop offset="0.54" stop-color="#FFBCD4"/>
<stop offset="0.66" stop-color="#FFE0C3"/>
<stop offset="0.76" stop-color="#B0F1D4"/>
<stop offset="0.84" stop-color="#C9CEEC"/>
<stop offset="0.91" stop-color="#FFC1DA"/>
<stop offset="1" stop-color="#BDFFE3"/>
</radialGradient>
<radialGradient id="paint10_radial_1406_80676" cx="0" cy="0" r="1" gradientUnits="userSpaceOnUse" gradientTransform="translate(73.9229 37.0219) rotate(-26.2528) scale(7.65071 3.59485)">
<stop stop-color="#FFB6D5"/>
<stop offset="0.1" stop-color="#FFE3C0"/>
<stop offset="0.29" stop-color="#C7FBDB"/>
<stop offset="0.43" stop-color="#C7CDF4"/>
<stop offset="0.54" stop-color="#FFBCD4"/>
<stop offset="0.66" stop-color="#FFE0C3"/>
<stop offset="0.76" stop-color="#B0F1D4"/>
<stop offset="0.84" stop-color="#C9CEEC"/>
<stop offset="0.91" stop-color="#FFC1DA"/>
<stop offset="1" stop-color="#BDFFE3"/>
</radialGradient>
<radialGradient id="paint11_radial_1406_80676" cx="0" cy="0" r="1" gradientUnits="userSpaceOnUse" gradientTransform="translate(86.5695 44.1287) rotate(-23.6271) scale(14.4916 6.30248)">
<stop stop-color="#FFB6D5"/>
<stop offset="0.1" stop-color="#FFE3C0"/>
<stop offset="0.29" stop-color="#C7FBDB"/>
<stop offset="0.43" stop-color="#C7CDF4"/>
<stop offset="0.54" stop-color="#FFBCD4"/>
<stop offset="0.66" stop-color="#FFE0C3"/>
<stop offset="0.76" stop-color="#B0F1D4"/>
<stop offset="0.84" stop-color="#C9CEEC"/>
<stop offset="0.91" stop-color="#FFC1DA"/>
<stop offset="1" stop-color="#BDFFE3"/>
</radialGradient>
<radialGradient id="paint12_radial_1406_80676" cx="0" cy="0" r="1" gradientUnits="userSpaceOnUse" gradientTransform="translate(78.7429 36.6793) rotate(-25.5068) scale(21.6969 9.98766)">
<stop stop-color="#FFB6D5"/>
<stop offset="0.1" stop-color="#FFE3C0"/>
<stop offset="0.29" stop-color="#C7FBDB"/>
<stop offset="0.43" stop-color="#C7CDF4"/>
<stop offset="0.54" stop-color="#FFBCD4"/>
<stop offset="0.66" stop-color="#FFE0C3"/>
<stop offset="0.76" stop-color="#B0F1D4"/>
<stop offset="0.84" stop-color="#C9CEEC"/>
<stop offset="0.91" stop-color="#FFC1DA"/>
<stop offset="1" stop-color="#BDFFE3"/>
</radialGradient>
<radialGradient id="paint13_radial_1406_80676" cx="0" cy="0" r="1" gradientUnits="userSpaceOnUse" gradientTransform="translate(68.6726 30.5914) rotate(-28.778) scale(12.9334 6.46383)">
<stop stop-color="#FFB6D5"/>
<stop offset="0.1" stop-color="#FFE3C0"/>
<stop offset="0.29" stop-color="#C7FBDB"/>
<stop offset="0.43" stop-color="#C7CDF4"/>
<stop offset="0.54" stop-color="#FFBCD4"/>
<stop offset="0.66" stop-color="#FFE0C3"/>
<stop offset="0.76" stop-color="#B0F1D4"/>
<stop offset="0.84" stop-color="#C9CEEC"/>
<stop offset="0.91" stop-color="#FFC1DA"/>
<stop offset="1" stop-color="#BDFFE3"/>
</radialGradient>
<radialGradient id="paint14_radial_1406_80676" cx="0" cy="0" r="1" gradientUnits="userSpaceOnUse" gradientTransform="translate(91.9017 48.7514) rotate(-21.5591) scale(9.73769 3.94165)">
<stop stop-color="#FFB6D5"/>
<stop offset="0.1" stop-color="#FFE3C0"/>
<stop offset="0.29" stop-color="#C7FBDB"/>
<stop offset="0.43" stop-color="#C7CDF4"/>
<stop offset="0.54" stop-color="#FFBCD4"/>
<stop offset="0.66" stop-color="#FFE0C3"/>
<stop offset="0.76" stop-color="#B0F1D4"/>
<stop offset="0.84" stop-color="#C9CEEC"/>
<stop offset="0.91" stop-color="#FFC1DA"/>
<stop offset="1" stop-color="#BDFFE3"/>
</radialGradient>
<radialGradient id="paint15_radial_1406_80676" cx="0" cy="0" r="1" gradientUnits="userSpaceOnUse" gradientTransform="translate(459.664 -182.523) rotate(-32.1344) scale(1000.36 533.685)">
<stop stop-color="#FFB6D5"/>
<stop offset="0.1" stop-color="#FFE3C0"/>
<stop offset="0.29" stop-color="#C7FBDB"/>
<stop offset="0.43" stop-color="#C7CDF4"/>
<stop offset="0.54" stop-color="#FFBCD4"/>
<stop offset="0.66" stop-color="#FFE0C3"/>
<stop offset="0.76" stop-color="#B0F1D4"/>
<stop offset="0.84" stop-color="#C9CEEC"/>
<stop offset="0.91" stop-color="#FFC1DA"/>
<stop offset="1" stop-color="#BDFFE3"/>
</radialGradient>
<radialGradient id="paint16_radial_1406_80676" cx="0" cy="0" r="1" gradientUnits="userSpaceOnUse" gradientTransform="translate(449.323 -174.622) rotate(-32.1343) scale(936.389 499.555)">
<stop stop-color="#FFB6D5"/>
<stop offset="0.1" stop-color="#FFE3C0"/>
<stop offset="0.29" stop-color="#C7FBDB"/>
<stop offset="0.43" stop-color="#C7CDF4"/>
<stop offset="0.54" stop-color="#FFBCD4"/>
<stop offset="0.66" stop-color="#FFE0C3"/>
<stop offset="0.76" stop-color="#B0F1D4"/>
<stop offset="0.84" stop-color="#C9CEEC"/>
<stop offset="0.91" stop-color="#FFC1DA"/>
<stop offset="1" stop-color="#BDFFE3"/>
</radialGradient>
<radialGradient id="paint17_radial_1406_80676" cx="0" cy="0" r="1" gradientUnits="userSpaceOnUse" gradientTransform="translate(441.464 -168.617) rotate(-32.1344) scale(887.75 473.607)">
<stop stop-color="#FFB6D5"/>
<stop offset="0.1" stop-color="#FFE3C0"/>
<stop offset="0.29" stop-color="#C7FBDB"/>
<stop offset="0.43" stop-color="#C7CDF4"/>
<stop offset="0.54" stop-color="#FFBCD4"/>
<stop offset="0.66" stop-color="#FFE0C3"/>
<stop offset="0.76" stop-color="#B0F1D4"/>
<stop offset="0.84" stop-color="#C9CEEC"/>
<stop offset="0.91" stop-color="#FFC1DA"/>
<stop offset="1" stop-color="#BDFFE3"/>
</radialGradient>
<radialGradient id="paint18_radial_1406_80676" cx="0" cy="0" r="1" gradientUnits="userSpaceOnUse" gradientTransform="translate(431.46 -160.974) rotate(-32.1344) scale(825.847 440.582)">
<stop stop-color="#FFB6D5"/>
<stop offset="0.1" stop-color="#FFE3C0"/>
<stop offset="0.29" stop-color="#C7FBDB"/>
<stop offset="0.43" stop-color="#C7CDF4"/>
<stop offset="0.54" stop-color="#FFBCD4"/>
<stop offset="0.66" stop-color="#FFE0C3"/>
<stop offset="0.76" stop-color="#B0F1D4"/>
<stop offset="0.84" stop-color="#C9CEEC"/>
<stop offset="0.91" stop-color="#FFC1DA"/>
<stop offset="1" stop-color="#BDFFE3"/>
</radialGradient>
<radialGradient id="paint19_radial_1406_80676" cx="0" cy="0" r="1" gradientUnits="userSpaceOnUse" gradientTransform="translate(419.685 -151.976) rotate(-32.1344) scale(752.978 401.708)">
<stop stop-color="#FFB6D5"/>
<stop offset="0.1" stop-color="#FFE3C0"/>
<stop offset="0.29" stop-color="#C7FBDB"/>
<stop offset="0.43" stop-color="#C7CDF4"/>
<stop offset="0.54" stop-color="#FFBCD4"/>
<stop offset="0.66" stop-color="#FFE0C3"/>
<stop offset="0.76" stop-color="#B0F1D4"/>
<stop offset="0.84" stop-color="#C9CEEC"/>
<stop offset="0.91" stop-color="#FFC1DA"/>
<stop offset="1" stop-color="#BDFFE3"/>
</radialGradient>
<radialGradient id="paint20_radial_1406_80676" cx="0" cy="0" r="1" gradientUnits="userSpaceOnUse" gradientTransform="translate(406.553 -141.941) rotate(-32.1344) scale(671.72 358.357)">
<stop stop-color="#FFB6D5"/>
<stop offset="0.1" stop-color="#FFE3C0"/>
<stop offset="0.29" stop-color="#C7FBDB"/>
<stop offset="0.43" stop-color="#C7CDF4"/>
<stop offset="0.54" stop-color="#FFBCD4"/>
<stop offset="0.66" stop-color="#FFE0C3"/>
<stop offset="0.76" stop-color="#B0F1D4"/>
<stop offset="0.84" stop-color="#C9CEEC"/>
<stop offset="0.91" stop-color="#FFC1DA"/>
<stop offset="1" stop-color="#BDFFE3"/>
</radialGradient>
<radialGradient id="paint21_radial_1406_80676" cx="0" cy="0" r="1" gradientUnits="userSpaceOnUse" gradientTransform="translate(392.513 -131.216) rotate(-32.1344) scale(584.85 312.012)">
<stop stop-color="#FFB6D5"/>
<stop offset="0.1" stop-color="#FFE3C0"/>
<stop offset="0.29" stop-color="#C7FBDB"/>
<stop offset="0.43" stop-color="#C7CDF4"/>
<stop offset="0.54" stop-color="#FFBCD4"/>
<stop offset="0.66" stop-color="#FFE0C3"/>
<stop offset="0.76" stop-color="#B0F1D4"/>
<stop offset="0.84" stop-color="#C9CEEC"/>
<stop offset="0.91" stop-color="#FFC1DA"/>
<stop offset="1" stop-color="#BDFFE3"/>
</radialGradient>
<radialGradient id="paint22_radial_1406_80676" cx="0" cy="0" r="1" gradientUnits="userSpaceOnUse" gradientTransform="translate(378.031 -120.149) rotate(-32.1344) scale(495.231 264.201)">
<stop stop-color="#FFB6D5"/>
<stop offset="0.1" stop-color="#FFE3C0"/>
<stop offset="0.29" stop-color="#C7FBDB"/>
<stop offset="0.43" stop-color="#C7CDF4"/>
<stop offset="0.54" stop-color="#FFBCD4"/>
<stop offset="0.66" stop-color="#FFE0C3"/>
<stop offset="0.76" stop-color="#B0F1D4"/>
<stop offset="0.84" stop-color="#C9CEEC"/>
<stop offset="0.91" stop-color="#FFC1DA"/>
<stop offset="1" stop-color="#BDFFE3"/>
</radialGradient>
<radialGradient id="paint23_radial_1406_80676" cx="0" cy="0" r="1" gradientUnits="userSpaceOnUse" gradientTransform="translate(368.413 -112.8) rotate(-32.1342) scale(435.713 232.448)">
<stop stop-color="#FFB6D5"/>
<stop offset="0.1" stop-color="#FFE3C0"/>
<stop offset="0.29" stop-color="#C7FBDB"/>
<stop offset="0.43" stop-color="#C7CDF4"/>
<stop offset="0.54" stop-color="#FFBCD4"/>
<stop offset="0.66" stop-color="#FFE0C3"/>
<stop offset="0.76" stop-color="#B0F1D4"/>
<stop offset="0.84" stop-color="#C9CEEC"/>
<stop offset="0.91" stop-color="#FFC1DA"/>
<stop offset="1" stop-color="#BDFFE3"/>
</radialGradient>
</defs>
</svg>
