<svg width="152" height="323" viewBox="0 0 152 323" fill="none" xmlns="http://www.w3.org/2000/svg">
<path d="M123.241 309.592C122.475 309.544 121.709 309.381 120.976 309.137L121.236 308.356C121.904 308.584 122.589 308.714 123.289 308.763L123.224 309.592H123.241ZM125.554 309.446L125.392 308.632C126.076 308.502 126.744 308.274 127.38 307.965L127.738 308.714C127.037 309.055 126.304 309.299 125.538 309.446H125.554ZM118.906 308.128L116.999 307.005L117.423 306.289L119.33 307.412L118.906 308.128ZM129.726 307.64L129.319 306.924L131.258 305.85L131.665 306.566L129.726 307.64ZM115.093 305.899L113.186 304.776L113.61 304.06L115.517 305.183L115.093 305.899ZM133.604 305.476L133.197 304.76L135.136 303.686L135.543 304.402L133.604 305.476ZM111.28 303.67L109.373 302.547L109.797 301.831L111.704 302.954L111.28 303.67ZM93.1107 303.458L93.0293 302.628H93.1107C93.7951 302.628 94.4632 302.547 95.115 302.384L95.3106 303.182C94.5936 303.361 93.844 303.458 93.0944 303.458H93.1107ZM137.483 303.328L137.075 302.612L139.014 301.538L139.422 302.254L137.483 303.328ZM90.7316 303.149C89.982 302.938 89.2651 302.645 88.597 302.254L89.0043 301.538C89.6073 301.896 90.2591 302.157 90.9435 302.352L90.7153 303.149H90.7316ZM97.4778 302.336L97.0705 301.603L98.9933 300.497L99.3844 301.229L97.4615 302.336H97.4778ZM107.451 301.441L107.336 301.376C106.766 301.05 106.163 300.774 105.528 300.595L105.756 299.797C106.457 300.009 107.125 300.285 107.76 300.66L107.874 300.725L107.451 301.441ZM141.345 301.164L140.937 300.448L142.876 299.374L143.284 300.09L141.345 301.164ZM86.6741 301.132L84.7676 300.009L85.1913 299.293L87.0978 300.416L86.6741 301.132ZM47.256 300.969C46.4902 300.904 45.7243 300.725 44.991 300.464L45.2843 299.683C45.9361 299.927 46.6368 300.074 47.3375 300.155L47.256 300.985V300.969ZM49.57 300.887L49.4396 300.074C50.124 299.96 50.8084 299.765 51.4602 299.472L51.8024 300.237C51.0854 300.546 50.3521 300.774 49.5863 300.904L49.57 300.887ZM101.356 300.481L101.161 299.667C101.845 299.504 102.546 299.423 103.23 299.423H103.458L103.442 300.253H103.23C102.595 300.253 101.959 300.318 101.34 300.464L101.356 300.481ZM42.9541 299.423L41.0313 298.317L41.4549 297.601L43.3778 298.707L42.9704 299.423H42.9541ZM53.7741 299.13L53.3504 298.414L55.257 297.292L55.6806 298.008L53.7741 299.13ZM145.223 299L144.815 298.284L146.755 297.21L147.162 297.942L145.223 299.016V299ZM82.8773 298.886L80.9708 297.763L81.3945 297.048L83.301 298.17L82.8773 298.886ZM39.141 297.227L37.2182 296.12L37.6256 295.404L39.5484 296.511L39.1247 297.227H39.141ZM57.6198 296.901L57.1961 296.185L59.1026 295.062L59.5263 295.778L57.6198 296.901ZM149.101 296.836L148.694 296.12L150.633 295.046L151.04 295.762L149.101 296.836ZM79.0643 296.641L77.1577 295.518L77.5814 294.802L79.4879 295.925L79.0643 296.641ZM35.3116 294.997L33.3888 293.891L33.7962 293.175L35.719 294.282L35.3116 294.997ZM61.4492 294.656L61.0255 293.94L62.932 292.817L63.3557 293.533L61.4492 294.656ZM75.2512 294.395L73.3447 293.273L73.7683 292.557L75.6749 293.679L75.2512 294.395ZM31.4823 292.785L29.5594 291.678L29.9668 290.962L31.8897 292.069L31.4823 292.785ZM65.2785 292.492L64.9363 291.727C65.6533 291.418 66.4029 291.19 67.1525 291.076L67.2828 291.89C66.5821 292.004 65.914 292.199 65.2622 292.492H65.2785ZM71.4544 292.296C70.7863 292.052 70.1019 291.89 69.4012 291.825L69.4827 290.995C70.2486 291.076 71.0144 291.239 71.7477 291.515L71.4544 292.296ZM27.6529 290.572L25.7301 289.465L26.1375 288.749L28.0603 289.856L27.6529 290.572ZM23.8072 288.359L21.8844 287.253L22.2918 286.537L24.2146 287.643L23.8072 288.359ZM19.9616 286.146L18.6091 285.365C18.3972 285.235 18.2017 285.088 18.0224 284.926L18.5928 284.324C18.7231 284.454 18.8698 284.552 19.0327 284.649L20.3852 285.43L19.9779 286.146H19.9616ZM16.9633 282.68V282.534C16.9633 281.72 17.2566 280.956 17.7943 280.354L18.4135 280.907C18.0224 281.346 17.7943 281.932 17.7943 282.534V282.648L16.9633 282.697V282.68ZM20.1408 279.768L19.7334 279.052L21.6563 277.946L22.0637 278.662L20.1408 279.768ZM23.9865 277.571L23.5791 276.855L25.5019 275.749L25.9093 276.465L23.9865 277.571ZM27.8322 275.375L27.4248 274.659L29.3476 273.552L29.755 274.268L27.8322 275.375ZM31.6778 273.178L31.2704 272.462L33.1933 271.356L33.6007 272.072L31.6778 273.178ZM35.5235 270.982L35.1161 270.266L37.0389 269.159L37.4463 269.875L35.5235 270.982ZM39.3692 268.785L38.9618 268.069L40.8846 266.963L41.292 267.679L39.3692 268.785ZM43.2148 266.589L42.8074 265.873L44.7303 264.766L45.1377 265.482L43.2148 266.589ZM47.0605 264.392L46.6531 263.676L48.5759 262.57L48.9833 263.286L47.0605 264.392ZM50.9062 262.195L50.4988 261.48L52.4216 260.373L52.829 261.089L50.9062 262.195ZM54.7518 259.999L54.3444 259.283L56.2673 258.177L56.6747 258.892L54.7518 259.999ZM58.5975 257.802L58.1901 257.086L60.1129 255.98L60.5203 256.696L58.5975 257.802ZM62.4432 255.606L62.0358 254.89L63.9586 253.783L64.366 254.499L62.4432 255.606ZM66.2888 253.409L65.8815 252.693L67.8043 251.587L68.2117 252.303L66.2888 253.409ZM69.9878 250.692L69.2546 250.318C69.4338 249.976 69.5316 249.586 69.5316 249.195C69.5316 248.951 69.499 248.707 69.4175 248.479L70.216 248.235C70.3137 248.544 70.3626 248.87 70.3626 249.195C70.3626 249.716 70.2323 250.236 70.0041 250.692H69.9878ZM68.228 247.047L66.3051 245.941L66.7125 245.225L68.6353 246.331L68.228 247.047ZM64.3823 244.834L62.4595 243.728L62.8831 243.012L64.806 244.119L64.3986 244.834H64.3823ZM60.5366 242.622L58.6138 241.515L59.0212 240.799L60.944 241.906L60.5203 242.622H60.5366Z" fill="#222222"/>
<mask id="mask0_1406_80380" style="mask-type:luminance" maskUnits="userSpaceOnUse" x="0" y="202" width="101" height="59">
<path d="M97.869 216.539L24.6221 258.827C21.7867 260.454 17.5174 260.975 14.682 259.332L2.80279 252.27C-0.0325716 250.643 -0.0325716 247.991 2.80279 246.348L76.0497 204.06C78.8851 202.433 83.4803 202.433 86.3157 204.06L98.1949 211.121C101.03 212.748 100.704 214.896 97.869 216.523V216.539Z" fill="white"/>
</mask>
<g mask="url(#mask0_1406_80380)">
<path d="M166.378 155.654L-10.5035 257.459L-10.0885 258.178L166.793 156.373L166.378 155.654Z" fill="#222222"/>
<path d="M168.645 156.834L-8.21875 258.67L-7.8036 259.389L169.06 157.553L168.645 156.834Z" fill="#222222"/>
<path d="M170.696 158.147L-6.1853 259.952L-5.77027 260.671L171.111 158.866L170.696 158.147Z" fill="#222222"/>
<path d="M173.013 159.304L-3.8501 261.14L-3.43495 261.858L173.428 160.022L173.013 159.304Z" fill="#222222"/>
<path d="M174.921 160.654L-1.96008 262.459L-1.54506 263.178L175.336 161.373L174.921 160.654Z" fill="#222222"/>
<path d="M177.176 161.853L0.294922 263.658L0.709942 264.377L177.591 162.572L177.176 161.853Z" fill="#222222"/>
<path d="M179.239 163.147L2.35815 264.952L2.77317 265.671L179.654 163.866L179.239 163.147Z" fill="#222222"/>
<path d="M181.561 164.324L4.67993 266.129L5.09496 266.848L181.976 165.043L181.561 164.324Z" fill="#222222"/>
<path d="M183.608 165.601L6.72681 267.406L7.14183 268.125L184.023 166.32L183.608 165.601Z" fill="#222222"/>
<path d="M185.899 166.802L9.01819 268.608L9.43321 269.327L186.314 167.521L185.899 166.802Z" fill="#222222"/>
<path d="M187.946 168.08L11.0651 269.885L11.4801 270.604L188.361 168.799L187.946 168.08Z" fill="#222222"/>
<path d="M190.264 169.233L13.4004 271.069L13.8155 271.788L190.679 169.952L190.264 169.233Z" fill="#222222"/>
<path d="M192.176 170.611L15.2769 272.385L15.6918 273.104L192.591 171.33L192.176 170.611Z" fill="#222222"/>
<path d="M194.439 171.762L17.5752 273.598L17.9903 274.317L194.854 172.48L194.439 171.762Z" fill="#222222"/>
<path d="M196.485 173.039L19.6221 274.875L20.0372 275.594L196.901 173.758L196.485 173.039Z" fill="#222222"/>
<path d="M198.797 174.265L21.9163 276.07L22.3313 276.789L199.212 174.984L198.797 174.265Z" fill="#222222"/>
<path d="M200.844 175.559L23.9631 277.364L24.3782 278.083L201.259 176.278L200.844 175.559Z" fill="#222222"/>
<path d="M136.122 138.32L-40.759 240.126L-40.344 240.845L136.537 139.039L136.122 138.32Z" fill="#222222"/>
<path d="M138.432 139.47L-38.4319 241.306L-38.0167 242.025L138.847 140.189L138.432 139.47Z" fill="#222222"/>
<path d="M140.347 140.827L-36.5337 242.633L-36.1187 243.351L140.763 141.546L140.347 140.827Z" fill="#222222"/>
<path d="M142.614 141.996L-34.249 243.832L-33.8339 244.551L143.03 142.715L142.614 141.996Z" fill="#222222"/>
<path d="M144.666 143.32L-32.2156 245.125L-31.8005 245.844L145.081 144.039L144.666 143.32Z" fill="#222222"/>
<path d="M146.961 144.46L-29.9026 246.296L-29.4874 247.015L147.376 145.179L146.961 144.46Z" fill="#222222"/>
<path d="M149.012 145.785L-27.8691 247.59L-27.4541 248.309L149.427 146.504L149.012 145.785Z" fill="#222222"/>
<path d="M151.321 146.944L-25.542 248.78L-25.1268 249.499L151.737 147.663L151.321 146.944Z" fill="#222222"/>
<path d="M153.373 148.27L-23.5085 250.075L-23.0935 250.794L153.788 148.989L153.373 148.27Z" fill="#222222"/>
<path d="M155.68 149.455L-21.2009 251.26L-20.7859 251.979L156.095 150.174L155.68 149.455Z" fill="#222222"/>
<path d="M157.584 150.769L-19.2974 252.574L-18.8823 253.293L157.999 151.488L157.584 150.769Z" fill="#222222"/>
<path d="M159.851 151.95L-17.0127 253.786L-16.5975 254.505L160.266 152.669L159.851 151.95Z" fill="#222222"/>
<path d="M161.902 153.262L-14.9792 255.067L-14.5642 255.786L162.317 153.981L161.902 153.262Z" fill="#222222"/>
<path d="M164.219 154.42L-12.6439 256.256L-12.2288 256.975L164.635 155.139L164.219 154.42Z" fill="#222222"/>
<path d="M166.271 155.732L-10.6106 257.538L-10.1956 258.257L166.686 156.451L166.271 155.732Z" fill="#222222"/>
</g>
<path d="M6.20852 244.232C5.32858 242.459 4.83972 240.197 4.83972 237.464V67.6289C4.83972 58.4359 10.429 47.7623 17.3381 43.7922L81.8345 6.59708C84.7514 4.92119 87.4238 4.70967 89.5585 5.71846C93.2738 7.02012 96.5654 10.1929 96.5654 10.1929L94.2189 13.7888C94.3004 14.5047 94.3493 15.2369 94.3493 16.0342V185.869C94.3493 195.062 88.76 205.736 81.8508 209.706L17.3381 246.901L15.1057 251.278C15.1057 251.278 9.56533 250.253 6.45295 244.737C6.43665 244.704 6.42036 244.672 6.40406 244.655C6.33888 244.542 6.2737 244.411 6.22481 244.298C6.22481 244.298 6.22481 244.265 6.20852 244.265V244.232Z" fill="#222222"/>
<path d="M15.4968 252.075L14.9753 251.977C14.7309 251.929 9.07648 250.822 5.83374 245.079L5.78485 244.981C5.73596 244.9 5.68708 244.802 5.63819 244.688L5.57301 244.574L6.20852 244.232L5.55672 244.558C4.5953 242.605 4.10645 240.23 4.10645 237.48V67.6289C4.10645 58.2244 9.87495 47.2578 16.9634 43.1576L81.4761 5.97875C84.4581 4.25404 87.326 3.92862 89.754 5.01877H89.8029C93.616 6.36925 96.9239 9.54206 97.0706 9.67222L97.4942 10.079L94.9359 13.9677C95.0174 14.7162 95.05 15.367 95.05 16.0178V185.853C95.05 195.257 89.2815 206.224 82.193 210.308L17.8596 247.389L15.4805 252.042L15.4968 252.075ZM6.87663 243.956L6.92551 244.053C6.92551 244.053 7.00699 244.216 7.03958 244.281C9.45127 248.544 13.3295 250.025 14.7146 250.415L16.7841 246.364L16.9634 246.25L81.4761 209.055C88.1734 205.199 93.616 194.785 93.616 185.836V16.0341C93.616 15.3507 93.5671 14.6674 93.4856 13.8701L93.3716 12.845L93.893 12.9752L95.6366 10.3231C94.6752 9.47697 92.2798 7.52448 89.6562 6.51568H89.6237L89.2652 6.38552C87.2608 5.44181 84.8166 5.73468 82.2093 7.2316L17.6966 44.4267C10.9993 48.2829 5.55672 58.6962 5.55672 67.6452V237.48C5.55672 240.018 5.99669 242.182 6.86033 243.923V243.956H6.87663Z" fill="#222222"/>
<path d="M22.7971 250.367L87.3098 213.172C94.219 209.185 99.8082 198.512 99.8082 189.335V19.4999C99.8082 10.3069 94.219 6.09274 87.3098 10.0628L22.7971 47.2579C15.888 51.2443 10.2987 61.9179 10.2987 71.0947V240.93C10.2987 250.123 15.888 254.337 22.7971 250.367Z" fill="white"/>
<path d="M17.827 252.579C16.5397 252.579 15.3339 252.27 14.2584 251.652C11.2764 249.944 9.58167 246.039 9.58167 240.946V71.0946C9.58167 61.6901 15.3502 50.7235 22.4386 46.6233L86.9513 9.44447C90.194 7.57332 93.3553 7.34553 95.8485 8.79364C98.8142 10.5021 100.525 14.4071 100.525 19.4998V189.335C100.525 198.739 94.7567 209.706 87.6683 213.79L23.1556 250.985C21.3142 252.042 19.5054 252.579 17.827 252.579ZM92.2798 9.29803C90.8458 9.29803 89.2815 9.76988 87.6683 10.6973L23.1556 47.8924C16.4582 51.7486 11.0156 62.1619 11.0156 71.1109V240.946C11.0156 245.518 12.4659 248.967 14.9754 250.415C17.0123 251.587 19.6521 251.359 22.4386 249.765L86.9513 212.569C93.6486 208.713 99.0912 198.3 99.0912 189.351V19.4998C99.0912 14.9277 97.6409 11.4783 95.1315 10.0302C94.2841 9.54209 93.3227 9.29803 92.2798 9.29803Z" fill="#222222"/>
<path d="M26.708 50.3818L49.4886 37.3977C49.7983 37.2187 50.173 37.4465 50.173 37.7882V39.2363C50.173 41.6118 52.764 43.0762 54.8009 41.8559L56.1534 41.0424C58.4184 39.6756 59.8198 37.235 59.8198 34.5828V32.1585C59.8198 31.5727 60.1294 31.0358 60.6509 30.7429L88.7112 14.6348C92.1821 12.6335 95.0337 14.2768 95.0337 18.2795V189.985C95.0337 197.34 89.8193 206.37 83.4315 210.047L21.4446 245.778C17.9737 247.779 15.1221 246.136 15.1221 242.133V70.4437C15.1221 63.0893 20.3365 54.059 26.7243 50.3818H26.708Z" fill="url(#paint0_linear_1406_80380)"/>
<path d="M18.6092 247.356C17.8759 247.356 17.2078 247.177 16.5886 246.836C15.1546 246.006 14.3724 244.346 14.3724 242.133V70.4437C14.3724 62.8453 19.7336 53.5546 26.3331 49.7473L49.1138 36.7469C49.4886 36.5353 49.9286 36.5353 50.2871 36.7469C50.6618 36.9584 50.8737 37.3326 50.8737 37.7719V39.22C50.8737 40.0661 51.3137 40.8308 52.0632 41.2539C52.8128 41.6769 53.6928 41.6607 54.426 41.2213L55.7785 40.4078C57.8154 39.1875 59.0865 36.9421 59.0865 34.5666V32.1422C59.0865 31.2961 59.5427 30.5151 60.276 30.0921L88.3363 13.984C90.2429 12.8776 92.0842 12.7311 93.5182 13.5447C94.9522 14.3745 95.7344 16.0341 95.7344 18.2469V189.953C95.7344 197.551 90.3733 206.842 83.7737 210.633L21.7868 246.364C20.6787 246.998 19.6032 247.324 18.6255 247.324L18.6092 247.356ZM27.0664 51.0001C20.8742 54.5797 15.8227 63.3008 15.8227 70.4437V242.15C15.8227 243.826 16.3605 245.046 17.3219 245.599C18.2833 246.152 19.6195 246.006 21.0698 245.16L83.0567 209.429C89.2489 205.85 94.3004 197.128 94.3004 189.985V18.2795C94.3004 16.6036 93.7626 15.3833 92.8012 14.8301C91.8398 14.2769 90.5036 14.4233 89.0696 15.2694L61.0093 31.3775C60.716 31.5402 60.553 31.8493 60.553 32.1748V34.5991C60.553 37.4791 59.0213 40.18 56.5444 41.6607L55.1919 42.4742C54.0024 43.1738 52.5847 43.2064 51.3788 42.523C50.173 41.8396 49.456 40.6193 49.456 39.2363V38.2438L27.0827 51.0164L27.0664 51.0001Z" fill="#222222"/>
<path d="M53.4646 38.2275C53.4646 39.2363 54.1816 39.643 55.0615 39.1386C55.9415 38.6342 56.6585 37.3977 56.6585 36.3889C56.6585 35.3801 55.9415 34.9733 55.0615 35.4777C54.1816 35.9821 53.4646 37.2187 53.4646 38.2275Z" fill="#222222"/>
<path d="M8.45716 54.5214L8.04919 55.2444L12.9186 57.9841L13.3266 57.2611L8.45716 54.5214Z" fill="url(#paint1_linear_1406_80380)"/>
<path d="M87.6357 9.83497C87.6357 9.83497 85.6314 7.68722 82.6656 7.00385L82.8449 6.19031C86.055 6.92249 88.1571 9.16787 88.2386 9.26549L87.6194 9.83497H87.6357Z" fill="url(#paint2_linear_1406_80380)"/>
<path d="M85.0447 11.3156C85.0447 11.3156 83.0404 9.16781 80.0747 8.48444L80.254 7.6709C83.4641 8.40309 85.5499 10.6485 85.6477 10.7461L85.0284 11.3156H85.0447Z" fill="url(#paint3_linear_1406_80380)"/>
<path d="M5.93176 61.2432L5.56238 61.9866L10.5692 64.4672L10.9386 63.7238L5.93176 61.2432Z" fill="url(#paint4_linear_1406_80380)"/>
<path d="M9.66308 232.761C9.53272 232.696 6.37145 231.037 4.54639 229.345L5.11672 228.743C6.8603 230.37 10.0216 232.013 10.0542 232.029L9.66308 232.761Z" fill="url(#paint5_linear_1406_80380)"/>
<path d="M9.66308 240.75C9.53272 240.685 6.37145 239.026 4.54639 237.334L5.11672 236.732C6.8603 238.359 10.0216 240.002 10.0542 240.035L9.66308 240.767V240.75Z" fill="url(#paint6_linear_1406_80380)"/>
<path d="M9.66308 244.021C9.53272 243.956 6.37145 242.296 4.54639 240.604L5.11672 240.002C6.8603 241.629 10.0216 243.272 10.0542 243.289L9.66308 244.021Z" fill="url(#paint7_linear_1406_80380)"/>
<path d="M8.21283 142.93C7.9684 142.93 7.70767 142.849 7.44695 142.703L7.23512 142.589C6.33888 142.068 5.63818 140.75 5.63818 139.579V128.059C5.63818 127.375 5.88261 126.822 6.32258 126.578C6.71367 126.35 7.18623 126.383 7.6425 126.659L7.85433 126.773C8.75057 127.294 9.45126 128.612 9.45126 129.783V141.303C9.45126 141.987 9.20683 142.54 8.76686 142.784C8.58761 142.881 8.40837 142.93 8.19653 142.93H8.21283ZM7.65879 141.873L7.87063 141.987C7.98469 142.052 8.21283 142.149 8.35948 142.068C8.52243 141.97 8.6365 141.677 8.6365 141.303V129.783C8.6365 128.905 8.09876 127.864 7.44695 127.489L7.23512 127.375C7.12105 127.31 6.89291 127.213 6.74626 127.294C6.58331 127.392 6.46924 127.685 6.46924 128.059V139.579C6.46924 140.457 7.00698 141.498 7.65879 141.873Z" fill="url(#paint8_linear_1406_80380)"/>
<path d="M8.21283 124.463C7.9684 124.463 7.70767 124.382 7.44695 124.235L7.23512 124.121C6.33888 123.601 5.63818 122.283 5.63818 121.111V109.591C5.63818 108.908 5.88261 108.355 6.32258 108.111C6.71367 107.883 7.18623 107.915 7.6425 108.176L7.85433 108.29C8.75057 108.81 9.45126 110.128 9.45126 111.3V122.82C9.45126 123.503 9.20683 124.056 8.76686 124.3C8.58761 124.398 8.40837 124.447 8.19653 124.447L8.21283 124.463ZM7.65879 123.405L7.87063 123.519C7.98469 123.584 8.19653 123.682 8.35948 123.601C8.52243 123.503 8.6365 123.21 8.6365 122.836V111.316C8.6365 110.437 8.09876 109.396 7.44695 109.022L7.23512 108.908C7.12105 108.843 6.89291 108.745 6.74626 108.843C6.58331 108.941 6.46924 109.233 6.46924 109.608V121.127C6.46924 122.006 7.00698 123.047 7.65879 123.422V123.405Z" fill="url(#paint9_linear_1406_80380)"/>
<path d="M8.21283 103.376C7.9684 103.376 7.70767 103.294 7.44695 103.148L7.23512 103.034C6.33888 102.513 5.63818 101.196 5.63818 100.024V93.5483C5.63818 92.8649 5.88261 92.3117 6.32258 92.0676C6.71367 91.8398 7.18623 91.8724 7.6425 92.149L7.85433 92.2629C8.75057 92.7835 9.45126 94.1015 9.45126 95.273V101.749C9.45126 102.432 9.20683 102.985 8.76686 103.229C8.58761 103.327 8.40837 103.376 8.19653 103.376H8.21283ZM7.65879 102.318L7.87063 102.432C7.98469 102.497 8.19653 102.595 8.35948 102.513C8.52243 102.416 8.6365 102.123 8.6365 101.749V95.273C8.6365 94.3944 8.09876 93.353 7.44695 92.9788L7.23512 92.8649C7.12105 92.7998 6.89291 92.7022 6.74626 92.7835C6.58331 92.8812 6.46924 93.174 6.46924 93.5483V100.024C6.46924 100.903 7.00698 101.944 7.65879 102.318Z" fill="url(#paint10_linear_1406_80380)"/>
<path d="M7.44698 97.6486L7.65882 97.7625C8.4247 98.2019 9.04391 97.73 9.04391 96.7049V95.2731C9.04391 94.248 8.4247 93.0603 7.65882 92.621L7.44698 92.5071C6.68111 92.0678 6.06189 92.5396 6.06189 93.5484V94.9802C6.06189 96.0053 6.68111 97.1931 7.44698 97.6324V97.6486Z" fill="url(#paint11_linear_1406_80380)"/>
<path d="M8.21283 98.3482C7.9684 98.3482 7.70767 98.2669 7.44695 98.1205L7.23512 98.0066C6.33888 97.4859 5.63818 96.168 5.63818 94.9965V93.5646C5.63818 92.8813 5.88261 92.328 6.32258 92.084C6.71367 91.8562 7.18623 91.8887 7.6425 92.1653L7.85433 92.2792C8.75057 92.7999 9.45126 94.1178 9.45126 95.2893V96.7212C9.45126 97.4045 9.20683 97.9577 8.76686 98.2018C8.58761 98.2994 8.40837 98.3482 8.19653 98.3482H8.21283ZM7.65879 97.2906L7.87063 97.4045C7.98469 97.4696 8.21283 97.5673 8.35948 97.4859C8.52243 97.3883 8.6365 97.0954 8.6365 96.7212V95.2893C8.6365 94.4107 8.09876 93.3694 7.44695 92.9952L7.23512 92.8813C7.12105 92.8162 6.89291 92.7185 6.74626 92.7999C6.58331 92.8975 6.46924 93.1904 6.46924 93.5646V94.9965C6.46924 95.8751 7.00698 96.9164 7.65879 97.2906Z" fill="url(#paint12_linear_1406_80380)"/>
<path d="M9.90526 51.7186L9.48059 52.4319L14.4531 55.3835L14.8778 54.6702L9.90526 51.7186Z" fill="url(#paint13_linear_1406_80380)"/>
<path d="M75.8704 5.23025L75.2186 3.94485L79.325 1.84591C82.0463 0.462894 85.0446 -0.171668 87.9778 0.0398529L87.88 1.47169C85.2076 1.29271 82.4537 1.86219 79.9768 3.13131L75.8704 5.23025Z" fill="#222222"/>
<path d="M104.86 35.7217H103.426V16.2618C103.426 13.5771 102.692 11.0389 101.275 8.92367C99.1074 5.65324 95.9136 3.39159 91.7909 2.20382L92.182 0.820801C96.5817 2.08993 100.134 4.6119 102.464 8.1264C104.029 10.4857 104.843 13.2843 104.843 16.2618V35.7217H104.86Z" fill="#222222"/>
<path d="M104.86 39.5616H103.426V50.8536H104.86V39.5616Z" fill="#222222"/>
<path d="M1.43398 200.496H0V238.131H1.43398V200.496Z" fill="#222222"/>
<path d="M1.43398 184.209H0V196.429H1.43398V184.209Z" fill="#222222"/>
<path d="M21.2163 80.4015C21.0045 81.9635 19.5379 83.5093 19.2772 83.7696V83.8022C19.5379 83.7696 21.0045 83.6069 21.2163 84.9411C21.2163 84.9574 21.2489 84.9411 21.2489 84.9248C21.4608 83.3628 22.9436 81.8171 23.2044 81.5405V81.508C22.9436 81.5405 21.4608 81.7032 21.2489 80.3853C21.2489 80.369 21.2163 80.3853 21.2163 80.4015Z" fill="#222222"/>
<path d="M26.8545 77.1473C26.6427 78.7093 25.1761 80.255 24.9154 80.5153V80.5479C25.1761 80.5153 26.6427 80.3526 26.8545 81.6868C26.8545 81.7031 26.8871 81.6868 26.8871 81.6706C27.099 80.1086 28.5818 78.5628 28.8425 78.2862V78.2537C28.5818 78.2862 27.099 78.4489 26.8871 77.131C26.8871 77.1147 26.8545 77.131 26.8545 77.1473Z" fill="#222222"/>
<path d="M32.4926 73.9095C32.2808 75.4715 30.8142 77.0172 30.5535 77.2775V77.3101C30.8142 77.2775 32.2808 77.1148 32.4926 78.449C32.4926 78.4653 32.5252 78.449 32.5252 78.4328C32.737 76.8708 34.2199 75.325 34.4806 75.0484V75.0159C34.2199 75.0484 32.737 75.2112 32.5252 73.8932C32.5252 73.8769 32.4926 73.8932 32.4926 73.9095Z" fill="#222222"/>
<path d="M38.1308 70.6553C37.9189 72.2173 36.4524 73.7631 36.1917 74.0234V74.0559C36.4524 74.0234 37.9189 73.8607 38.1308 75.1949C38.1308 75.2112 38.1634 75.1949 38.1634 75.1786C38.3752 73.6166 39.8581 72.0709 40.1188 71.7943V71.7617C39.8581 71.7943 38.3752 71.957 38.1634 70.6391C38.1634 70.6228 38.1308 70.6391 38.1308 70.6553Z" fill="#222222"/>
<path d="M43.7526 67.4011C43.5408 68.9631 42.0742 70.5088 41.8135 70.7691V70.8017C42.0742 70.7691 43.5408 70.6064 43.7526 71.9406C43.7526 71.9569 43.7852 71.9406 43.7852 71.9244C43.997 70.3624 45.4799 68.8166 45.7406 68.54V68.5075C45.4799 68.54 43.997 68.7027 43.7852 67.3848C43.7852 67.3685 43.7526 67.3848 43.7526 67.4011Z" fill="#222222"/>
<path d="M49.3908 64.1632C49.179 65.7252 47.7124 67.2709 47.4517 67.5312V67.5638C47.7124 67.5312 49.179 67.3685 49.3908 68.6865C49.3908 68.7027 49.4234 68.6865 49.4234 68.6702C49.6352 67.1082 51.1181 65.5625 51.3788 65.2859V65.2533C51.1181 65.2859 49.6352 65.4486 49.4234 64.1306C49.4234 64.1144 49.3908 64.1306 49.3908 64.1469V64.1632Z" fill="#222222"/>
<path d="M55.0288 60.909C54.817 62.471 53.3504 64.0167 53.0897 64.2771V64.3096C53.3504 64.2771 54.817 64.1144 55.0288 65.4486C55.0288 65.4648 55.0614 65.4486 55.0614 65.4323C55.2733 63.8703 56.7561 62.3246 57.0169 62.048V62.0154C56.7561 62.048 55.2733 62.2107 55.0614 60.8927C55.0614 60.8765 55.0288 60.8927 55.0288 60.909Z" fill="#222222"/>
<path d="M60.667 57.6548C60.4552 59.2168 58.9886 60.7626 58.7279 61.0229V61.0555C58.9886 61.0229 60.4552 60.8602 60.667 62.1944C60.667 62.2107 60.6996 62.1944 60.6996 62.1781C60.9115 60.6161 62.3943 59.0704 62.655 58.7938V58.7613C62.3943 58.7938 60.9115 58.9565 60.6996 57.6386C60.6996 57.6223 60.667 57.6386 60.667 57.6548Z" fill="#222222"/>
<path d="M66.3052 54.4171C66.0934 55.9791 64.6268 57.5248 64.3661 57.7851V57.8177C64.6268 57.7851 66.0934 57.6224 66.3052 58.9566C66.3052 58.9729 66.3378 58.9566 66.3378 58.9403C66.5496 57.3783 68.0325 55.8326 68.2932 55.556V55.5235C68.0325 55.556 66.5496 55.7187 66.3378 54.4008C66.3378 54.3845 66.3052 54.4008 66.3052 54.4171Z" fill="#222222"/>
<path d="M21.2163 73.8769C21.0045 75.4389 19.5379 76.9846 19.2772 77.245V77.2775C19.5379 77.245 21.0045 77.0822 21.2163 78.4165C21.2163 78.4327 21.2489 78.4165 21.2489 78.4002C21.4608 76.8382 22.9436 75.2925 23.2044 75.0158V74.9833C22.9436 75.0159 21.4608 75.1786 21.2489 73.8606C21.2489 73.8443 21.2163 73.8606 21.2163 73.8769Z" fill="#222222"/>
<path d="M26.8545 70.6227C26.6427 72.1847 25.1761 73.7305 24.9154 73.9908V74.0233C25.1761 73.9908 26.6427 73.8281 26.8545 75.1623C26.8545 75.1786 26.8871 75.1623 26.8871 75.146C27.099 73.584 28.5818 72.0383 28.8425 71.7617V71.7292C28.5818 71.7617 27.099 71.9244 26.8871 70.6065C26.8871 70.5902 26.8545 70.6065 26.8545 70.6227Z" fill="#222222"/>
<path d="M32.4926 67.3848C32.2808 68.9468 30.8142 70.4926 30.5535 70.7529V70.7854C30.8142 70.7529 32.2808 70.5902 32.4926 71.9244C32.4926 71.9407 32.5252 71.9244 32.5252 71.9081C32.737 70.3461 34.2199 68.8004 34.4806 68.5238V68.4912C34.2199 68.5238 32.737 68.6865 32.5252 67.3686C32.5252 67.3523 32.4926 67.3686 32.4926 67.3848Z" fill="#222222"/>
<path d="M38.1308 64.1307C37.9189 65.6927 36.4524 67.2384 36.1917 67.4988V67.5313C36.4524 67.4988 37.9189 67.3361 38.1308 68.654C38.1308 68.6703 38.1634 68.654 38.1634 68.6377C38.3752 67.0757 39.8581 65.53 40.1188 65.2534V65.2209C39.8581 65.2534 38.3752 65.4161 38.1634 64.0982C38.1634 64.0819 38.1308 64.0982 38.1308 64.1144V64.1307Z" fill="#222222"/>
<path d="M43.7526 60.8765C43.5408 62.4385 42.0742 63.9843 41.8135 64.2446V64.2771C42.0742 64.2446 43.5408 64.0819 43.7526 65.4161C43.7526 65.4324 43.7852 65.4161 43.7852 65.3998C43.997 63.8378 45.4799 62.2921 45.7406 62.0155V61.9829C45.4799 62.0155 43.997 62.1782 43.7852 60.8603C43.7852 60.844 43.7526 60.8603 43.7526 60.8765Z" fill="#222222"/>
<path d="M49.3908 57.6386C49.179 59.2006 47.7124 60.7463 47.4517 61.0067V61.0392C47.7124 61.0067 49.179 60.844 49.3908 62.1782C49.3908 62.1944 49.4234 62.1782 49.4234 62.1619C49.6352 60.5999 51.1181 59.0542 51.3788 58.7776V58.745C51.1181 58.7776 49.6352 58.9403 49.4234 57.6223C49.4234 57.6061 49.3908 57.6223 49.3908 57.6386Z" fill="#222222"/>
<path d="M55.0288 54.3845C54.817 55.9465 53.3504 57.4922 53.0897 57.7525V57.7851C53.3504 57.7525 54.817 57.5898 55.0288 58.924C55.0288 58.9403 55.0614 58.924 55.0614 58.9078C55.2733 57.3458 56.7561 55.8 57.0169 55.5234V55.4909C56.7561 55.5234 55.2733 55.6861 55.0614 54.3682C55.0614 54.3519 55.0288 54.3682 55.0288 54.3845Z" fill="#222222"/>
<path d="M60.667 51.1303C60.4552 52.6923 58.9886 54.238 58.7279 54.4984V54.5309C58.9886 54.4984 60.4552 54.3357 60.667 55.6699C60.667 55.6861 60.6996 55.6699 60.6996 55.6536C60.9115 54.0916 62.3943 52.5459 62.655 52.2693V52.2367C62.3943 52.2693 60.9115 52.432 60.6996 51.114C60.6996 51.0978 60.667 51.114 60.667 51.1303Z" fill="#222222"/>
<path d="M66.3052 47.8924C66.0934 49.4544 64.6268 51.0001 64.3661 51.2605V51.293C64.6268 51.2605 66.0934 51.0977 66.3052 52.432C66.3052 52.4482 66.3378 52.432 66.3378 52.4157C66.5496 50.8537 68.0325 49.308 68.2932 49.0314V48.9988C68.0325 49.0314 66.5496 49.1941 66.3378 47.8761C66.3378 47.8599 66.3052 47.8761 66.3052 47.8924Z" fill="#222222"/>
<path d="M21.2163 67.3524C21.0045 68.9144 19.5379 70.4601 19.2772 70.7204V70.753C19.5379 70.7204 21.0045 70.5577 21.2163 71.8919C21.2163 71.9082 21.2489 71.8919 21.2489 71.8756C21.4608 70.3136 22.9436 68.7679 23.2044 68.4913V68.4588C22.9436 68.4913 21.4608 68.654 21.2489 67.3361C21.2489 67.3198 21.2163 67.3361 21.2163 67.3524Z" fill="#222222"/>
<path d="M26.8545 64.0981C26.6427 65.6601 25.1761 67.2058 24.9154 67.4662V67.4987C25.1761 67.4662 26.6427 67.3035 26.8545 68.6214C26.8545 68.6377 26.8871 68.6214 26.8871 68.6051C27.099 67.0431 28.5818 65.4974 28.8425 65.2208V65.1883C28.5818 65.2208 27.099 65.3835 26.8871 64.0656C26.8871 64.0493 26.8545 64.0656 26.8545 64.0819V64.0981Z" fill="#222222"/>
<path d="M32.4926 60.8603C32.2808 62.4223 30.8142 63.968 30.5535 64.2284V64.2609C30.8142 64.2284 32.2808 64.0656 32.4926 65.3998C32.4926 65.4161 32.5252 65.3999 32.5252 65.3836C32.737 63.8216 34.2199 62.2759 34.4806 61.9992V61.9667C34.2199 61.9993 32.737 62.162 32.5252 60.844C32.5252 60.8277 32.4926 60.844 32.4926 60.8603Z" fill="#222222"/>
<path d="M38.1308 57.606C37.9189 59.168 36.4524 60.7137 36.1917 60.9741V61.0066C36.4524 60.9741 37.9189 60.8114 38.1308 62.1456C38.1308 62.1618 38.1634 62.1456 38.1634 62.1293C38.3752 60.5673 39.8581 59.0216 40.1188 58.745V58.7124C39.8581 58.745 38.3752 58.9077 38.1634 57.5897C38.1634 57.5735 38.1308 57.5898 38.1308 57.606Z" fill="#222222"/>
<path d="M43.7526 54.3519C43.5408 55.9139 42.0742 57.4596 41.8135 57.7199V57.7525C42.0742 57.7199 43.5408 57.5572 43.7526 58.8914C43.7526 58.9077 43.7852 58.8914 43.7852 58.8752C43.997 57.3132 45.4799 55.7674 45.7406 55.4908V55.4583C45.4799 55.4908 43.997 55.6535 43.7852 54.3356C43.7852 54.3193 43.7526 54.3356 43.7526 54.3519Z" fill="#222222"/>
<path d="M49.3908 51.1141C49.179 52.6761 47.7124 54.2218 47.4517 54.4821V54.5147C47.7124 54.4821 49.179 54.3194 49.3908 55.6536C49.3908 55.6699 49.4234 55.6536 49.4234 55.6374C49.6352 54.0754 51.1181 52.5296 51.3788 52.253V52.2205C51.1181 52.253 49.6352 52.4157 49.4234 51.0978C49.4234 51.0815 49.3908 51.0978 49.3908 51.1141Z" fill="#222222"/>
<path d="M55.0288 47.8598C54.817 49.4218 53.3504 50.9675 53.0897 51.2279V51.2604C53.3504 51.2279 54.817 51.0652 55.0288 52.3994C55.0288 52.4156 55.0614 52.3994 55.0614 52.3831C55.2733 50.8211 56.7561 49.2754 57.0169 48.9988V48.9662C56.7561 48.9988 55.2733 49.1615 55.0614 47.8435C55.0614 47.8273 55.0288 47.8435 55.0288 47.8598Z" fill="#222222"/>
<path d="M60.667 44.6057C60.4552 46.1677 58.9886 47.7134 58.7279 47.9737V48.0063C58.9886 47.9737 60.4552 47.811 60.667 49.1452C60.667 49.1615 60.6996 49.1452 60.6996 49.1289C60.9115 47.5669 62.3943 46.0212 62.655 45.7446V45.7121C62.3943 45.7446 60.9115 45.9073 60.6996 44.5894C60.6996 44.5731 60.667 44.5894 60.667 44.6057Z" fill="#222222"/>
<path d="M66.3052 41.3677C66.0934 42.9297 64.6268 44.4755 64.3661 44.7358V44.7683C64.6268 44.7358 66.0934 44.5731 66.3052 45.9073C66.3052 45.9236 66.3378 45.9073 66.3378 45.891C66.5496 44.329 68.0325 42.7833 68.2932 42.5067V42.4742C68.0325 42.5067 66.5496 42.6694 66.3378 41.3515C66.3378 41.3352 66.3052 41.3515 66.3052 41.3677Z" fill="#222222"/>
<path d="M71.9433 51.1628C71.7314 52.7248 70.2649 54.2705 70.0042 54.5309V54.5634C70.2649 54.5309 71.7314 54.3682 71.9433 55.6861C71.9433 55.7024 71.9759 55.6861 71.9759 55.6698C72.1877 54.1078 73.6706 52.5621 73.9313 52.2855V52.253C73.6706 52.2855 72.1877 52.4482 71.9759 51.1303C71.9759 51.114 71.9433 51.1303 71.9433 51.1465V51.1628Z" fill="#222222"/>
<path d="M77.5651 47.9087C77.3533 49.4707 75.8867 51.0164 75.626 51.2767V51.3093C75.8867 51.2767 77.3533 51.114 77.5651 52.432C77.5651 52.4482 77.5977 52.432 77.5977 52.4157C77.8095 50.8537 79.2924 49.308 79.5531 49.0314V48.9988C79.2924 49.0314 77.8095 49.1941 77.5977 47.8761C77.5977 47.8599 77.5651 47.8761 77.5651 47.8924V47.9087Z" fill="#222222"/>
<path d="M83.2033 44.6707C82.9914 46.2327 81.5249 47.7784 81.2642 48.0388V48.0713C81.5249 48.0388 82.9914 47.8761 83.2033 49.2103C83.2033 49.2265 83.2359 49.2103 83.2359 49.194C83.4477 47.632 84.9306 46.0863 85.1913 45.8097V45.7771C84.9306 45.8097 83.4477 45.9724 83.2359 44.6544C83.2359 44.6382 83.2033 44.6544 83.2033 44.6707Z" fill="#222222"/>
<path d="M88.8415 41.4166C88.6296 42.9786 87.1631 44.5243 86.9023 44.7846V44.8172C87.1631 44.7846 88.6296 44.6219 88.8415 45.9561C88.8415 45.9724 88.8741 45.9561 88.8741 45.9399C89.0859 44.3779 90.5688 42.8321 90.8295 42.5555V42.523C90.5688 42.5555 89.0859 42.7182 88.8741 41.4003C88.8741 41.384 88.8415 41.4003 88.8415 41.4166Z" fill="#222222"/>
<path d="M71.9433 44.6383C71.7314 46.2003 70.2649 47.746 70.0042 48.0063V48.0389C70.2649 48.0063 71.7314 47.8436 71.9433 49.1616C71.9433 49.1778 71.9759 49.1616 71.9759 49.1453C72.1877 47.5833 73.6706 46.0376 73.9313 45.761V45.7284C73.6706 45.761 72.1877 45.9237 71.9759 44.6057C71.9759 44.5895 71.9433 44.6057 71.9433 44.622V44.6383Z" fill="#222222"/>
<path d="M77.5651 41.3841C77.3533 42.9461 75.8867 44.4918 75.626 44.7522V44.7847C75.8867 44.7522 77.3533 44.5894 77.5651 45.9237C77.5651 45.9399 77.5977 45.9237 77.5977 45.9074C77.8095 44.3454 79.2924 42.7997 79.5531 42.5231V42.4905C79.2924 42.5231 77.8095 42.6858 77.5977 41.3678C77.5977 41.3516 77.5651 41.3678 77.5651 41.3841Z" fill="#222222"/>
<path d="M83.2033 38.1462C82.9914 39.7082 81.5249 41.2539 81.2642 41.5142V41.5468C81.5249 41.5142 82.9914 41.3515 83.2033 42.6857C83.2033 42.702 83.2359 42.6857 83.2359 42.6695C83.4477 41.1075 84.9306 39.5617 85.1913 39.2851V39.2526C84.9306 39.2851 83.4477 39.4478 83.2359 38.1299C83.2359 38.1136 83.2033 38.1299 83.2033 38.1462Z" fill="#222222"/>
<path d="M88.8415 34.892C88.6296 36.454 87.1631 37.9998 86.9023 38.2601V38.2926C87.1631 38.2601 88.6296 38.0974 88.8415 39.4316C88.8415 39.4479 88.8741 39.4316 88.8741 39.4153C89.0859 37.8533 90.5688 36.3076 90.8295 36.031V35.9984C90.5688 36.031 89.0859 36.1937 88.8741 34.8758C88.8741 34.8595 88.8415 34.8758 88.8415 34.892Z" fill="#222222"/>
<path d="M71.9433 38.1136C71.7314 39.6756 70.2649 41.2213 70.0042 41.4816V41.5142C70.2649 41.4816 71.7314 41.3189 71.9433 42.6531C71.9433 42.6694 71.9759 42.6531 71.9759 42.6369C72.1877 41.0749 73.6706 39.5291 73.9313 39.2525V39.22C73.6706 39.2525 72.1877 39.4153 71.9759 38.0973C71.9759 38.081 71.9433 38.0973 71.9433 38.1136Z" fill="#222222"/>
<path d="M77.5651 34.8594C77.3533 36.4214 75.8867 37.9672 75.626 38.2275V38.26C75.8867 38.2275 77.3533 38.0648 77.5651 39.399C77.5651 39.4153 77.5977 39.399 77.5977 39.3827C77.8095 37.8207 79.2924 36.275 79.5531 35.9984V35.9659C79.2924 35.9984 77.8095 36.1611 77.5977 34.8432C77.5977 34.8269 77.5651 34.8432 77.5651 34.8594Z" fill="#222222"/>
<path d="M83.2033 31.6215C82.9914 33.1835 81.5249 34.7292 81.2642 34.9896V35.0221C81.5249 34.9896 82.9914 34.8269 83.2033 36.1611C83.2033 36.1774 83.2359 36.1611 83.2359 36.1448C83.4477 34.5828 84.9306 33.0371 85.1913 32.7605V32.7279C84.9306 32.7605 83.4477 32.9232 83.2359 31.6053C83.2359 31.589 83.2033 31.6053 83.2033 31.6215Z" fill="#222222"/>
<path d="M88.8415 28.3674C88.6296 29.9294 87.1631 31.4751 86.9023 31.7355V31.768C87.1631 31.7355 88.6296 31.5728 88.8415 32.8907C88.8415 32.907 88.8741 32.8907 88.8741 32.8744C89.0859 31.3124 90.5688 29.7667 90.8295 29.4901V29.4576C90.5688 29.4901 89.0859 29.6528 88.8741 28.3349C88.8741 28.3186 88.8415 28.3349 88.8415 28.3511V28.3674Z" fill="#222222"/>
<path d="M26.8545 230.126C26.6427 231.688 25.1761 233.233 24.9154 233.494V233.526C25.1761 233.494 26.6427 233.331 26.8545 234.665C26.8545 234.681 26.8871 234.665 26.8871 234.649C27.099 233.087 28.5818 231.541 28.8425 231.265V231.232C28.5818 231.265 27.099 231.427 26.8871 230.109C26.8871 230.093 26.8545 230.109 26.8545 230.126Z" fill="#222222"/>
<path d="M32.4926 226.888C32.2808 228.45 30.8142 229.995 30.5535 230.256V230.288C30.8142 230.256 32.2808 230.093 32.4926 231.427C32.4926 231.443 32.5252 231.427 32.5252 231.411C32.737 229.849 34.2199 228.303 34.4806 228.027V227.994C34.2199 228.027 32.737 228.189 32.5252 226.871C32.5252 226.855 32.4926 226.871 32.4926 226.888Z" fill="#222222"/>
<path d="M38.1308 223.633C37.9189 225.195 36.4524 226.741 36.1917 227.002V227.034C36.4524 227.002 37.9189 226.839 38.1308 228.173C38.1308 228.189 38.1634 228.173 38.1634 228.157C38.3752 226.595 39.8581 225.049 40.1188 224.772V224.74C39.8581 224.772 38.3752 224.935 38.1634 223.617C38.1634 223.601 38.1308 223.617 38.1308 223.633Z" fill="#222222"/>
<path d="M43.7526 220.379C43.5408 221.941 42.0742 223.487 41.8135 223.747V223.78C42.0742 223.747 43.5408 223.585 43.7526 224.919C43.7526 224.935 43.7852 224.919 43.7852 224.903C43.997 223.341 45.4799 221.795 45.7406 221.518V221.486C45.4799 221.518 43.997 221.681 43.7852 220.363C43.7852 220.347 43.7526 220.363 43.7526 220.379Z" fill="#222222"/>
<path d="M49.3908 217.141C49.179 218.703 47.7124 220.249 47.4517 220.51V220.542C47.7124 220.51 49.179 220.347 49.3908 221.665C49.3908 221.681 49.4234 221.665 49.4234 221.648C49.6352 220.086 51.1181 218.541 51.3788 218.264V218.232C51.1181 218.264 49.6352 218.427 49.4234 217.109C49.4234 217.093 49.3908 217.109 49.3908 217.125V217.141Z" fill="#222222"/>
<path d="M60.667 210.633C60.4552 212.195 58.9886 213.741 58.7279 214.001V214.034C58.9886 214.001 60.4552 213.838 60.667 215.173C60.667 215.189 60.6996 215.173 60.6996 215.156C60.9115 213.594 62.3943 212.049 62.655 211.772V211.74C62.3943 211.772 60.9115 211.935 60.6996 210.617C60.6996 210.601 60.667 210.617 60.667 210.633Z" fill="#222222"/>
<path d="M66.3052 207.395C66.0934 208.957 64.6268 210.503 64.3661 210.763V210.796C64.6268 210.763 66.0934 210.601 66.3052 211.935C66.3052 211.951 66.3378 211.935 66.3378 211.919C66.5496 210.357 68.0325 208.811 68.2932 208.534V208.502C68.0325 208.534 66.5496 208.697 66.3378 207.379C66.3378 207.363 66.3052 207.379 66.3052 207.395Z" fill="#222222"/>
<path d="M21.2163 226.855C21.0045 228.417 19.5379 229.963 19.2772 230.223V230.256C19.5379 230.223 21.0045 230.06 21.2163 231.395C21.2163 231.411 21.2489 231.395 21.2489 231.378C21.4608 229.816 22.9436 228.271 23.2044 227.994V227.961C22.9436 227.994 21.4608 228.157 21.2489 226.839C21.2489 226.823 21.2163 226.839 21.2163 226.855Z" fill="#222222"/>
<path d="M26.8545 223.601C26.6427 225.163 25.1761 226.709 24.9154 226.969V227.001C25.1761 226.969 26.6427 226.806 26.8545 228.14C26.8545 228.157 26.8871 228.14 26.8871 228.124C27.099 226.562 28.5818 225.016 28.8425 224.74V224.707C28.5818 224.74 27.099 224.903 26.8871 223.585C26.8871 223.568 26.8545 223.585 26.8545 223.601Z" fill="#222222"/>
<path d="M32.4926 220.363C32.2808 221.925 30.8142 223.471 30.5535 223.731V223.764C30.8142 223.731 32.2808 223.568 32.4926 224.886C32.4926 224.903 32.5252 224.886 32.5252 224.87C32.737 223.308 34.2199 221.762 34.4806 221.486V221.453C34.2199 221.486 32.737 221.648 32.5252 220.33C32.5252 220.314 32.4926 220.33 32.4926 220.347V220.363Z" fill="#222222"/>
<path d="M38.1308 217.109C37.9189 218.671 36.4524 220.217 36.1917 220.477V220.509C36.4524 220.477 37.9189 220.314 38.1308 221.632C38.1308 221.648 38.1634 221.632 38.1634 221.616C38.3752 220.054 39.8581 218.508 40.1188 218.232V218.199C39.8581 218.232 38.3752 218.394 38.1634 217.076C38.1634 217.06 38.1308 217.076 38.1308 217.093V217.109Z" fill="#222222"/>
<path d="M43.7526 213.855C43.5408 215.417 42.0742 216.962 41.8135 217.223V217.255C42.0742 217.223 43.5408 217.06 43.7526 218.378C43.7526 218.394 43.7852 218.378 43.7852 218.362C43.997 216.8 45.4799 215.254 45.7406 214.977V214.945C45.4799 214.977 43.997 215.14 43.7852 213.822C43.7852 213.806 43.7526 213.822 43.7526 213.838V213.855Z" fill="#222222"/>
<path d="M49.3908 210.617C49.179 212.179 47.7124 213.724 47.4517 213.985V214.017C47.7124 213.985 49.179 213.822 49.3908 215.156C49.3908 215.173 49.4234 215.156 49.4234 215.14C49.6352 213.578 51.1181 212.032 51.3788 211.756V211.723C51.1181 211.756 49.6352 211.918 49.4234 210.6C49.4234 210.584 49.3908 210.601 49.3908 210.617Z" fill="#222222"/>
<path d="M55.0288 213.855C54.817 215.417 53.3504 216.962 53.0897 217.223V217.255C53.3504 217.223 54.817 217.06 55.0288 218.378C55.0288 218.394 55.0614 218.378 55.0614 218.362C55.2733 216.8 56.7561 215.254 57.0169 214.977V214.945C56.7561 214.977 55.2733 215.14 55.0614 213.822C55.0614 213.806 55.0288 213.822 55.0288 213.838V213.855Z" fill="#222222"/>
<path d="M55.0288 207.33C54.817 208.892 53.3504 210.438 53.0897 210.698V210.731C53.3504 210.698 54.817 210.535 55.0288 211.87C55.0288 211.886 55.0614 211.87 55.0614 211.853C55.2733 210.291 56.7561 208.746 57.0169 208.469V208.437C56.7561 208.469 55.2733 208.632 55.0614 207.314C55.0614 207.298 55.0288 207.314 55.0288 207.33Z" fill="#222222"/>
<path d="M60.667 204.108C60.4552 205.67 58.9886 207.216 58.7279 207.477V207.509C58.9886 207.477 60.4552 207.314 60.667 208.648C60.667 208.664 60.6996 208.648 60.6996 208.632C60.9115 207.07 62.3943 205.524 62.655 205.247V205.215C62.3943 205.247 60.9115 205.41 60.6996 204.092C60.6996 204.076 60.667 204.092 60.667 204.108Z" fill="#222222"/>
<path d="M66.3052 200.871C66.0934 202.433 64.6268 203.978 64.3661 204.239V204.271C64.6268 204.239 66.0934 204.076 66.3052 205.41C66.3052 205.426 66.3378 205.41 66.3378 205.394C66.5496 203.832 68.0325 202.286 68.2932 202.01V201.977C68.0325 202.009 66.5496 202.172 66.3378 200.854C66.3378 200.838 66.3052 200.854 66.3052 200.871Z" fill="#222222"/>
<path d="M71.9433 204.141C71.7314 205.703 70.2649 207.249 70.0042 207.509V207.542C70.2649 207.509 71.7314 207.346 71.9433 208.664C71.9433 208.681 71.9759 208.664 71.9759 208.648C72.1877 207.086 73.6706 205.54 73.9313 205.264V205.231C73.6706 205.264 72.1877 205.426 71.9759 204.108C71.9759 204.092 71.9433 204.108 71.9433 204.125V204.141Z" fill="#222222"/>
<path d="M77.5651 200.887C77.3533 202.449 75.8867 203.995 75.626 204.255V204.287C75.8867 204.255 77.3533 204.092 77.5651 205.426C77.5651 205.443 77.5977 205.426 77.5977 205.41C77.8095 203.848 79.2924 202.302 79.5531 202.026V201.993C79.2924 202.026 77.8095 202.188 77.5977 200.871C77.5977 200.854 77.5651 200.871 77.5651 200.887Z" fill="#222222"/>
<path d="M83.2033 197.649C82.9914 199.211 81.5249 200.757 81.2642 201.017V201.05C81.5249 201.017 82.9914 200.854 83.2033 202.189C83.2033 202.205 83.2359 202.189 83.2359 202.172C83.4477 200.61 84.9306 199.065 85.1913 198.788V198.755C84.9306 198.788 83.4477 198.951 83.2359 197.633C83.2359 197.616 83.2033 197.633 83.2033 197.649Z" fill="#222222"/>
<path d="M71.9433 197.616C71.7314 199.178 70.2649 200.724 70.0042 200.984V201.017C70.2649 200.984 71.7314 200.822 71.9433 202.14C71.9433 202.156 71.9759 202.14 71.9759 202.123C72.1877 200.561 73.6706 199.016 73.9313 198.739V198.707C73.6706 198.739 72.1877 198.902 71.9759 197.584C71.9759 197.568 71.9433 197.584 71.9433 197.6V197.616Z" fill="#222222"/>
<path d="M77.5651 194.362C77.3533 195.924 75.8867 197.47 75.626 197.73V197.763C75.8867 197.73 77.3533 197.568 77.5651 198.902C77.5651 198.918 77.5977 198.902 77.5977 198.886C77.8095 197.324 79.2924 195.778 79.5531 195.501V195.469C79.2924 195.501 77.8095 195.664 77.5977 194.346C77.5977 194.33 77.5651 194.346 77.5651 194.362Z" fill="#222222"/>
<path d="M83.2033 191.124C82.9914 192.686 81.5249 194.232 81.2642 194.492V194.525C81.5249 194.492 82.9914 194.33 83.2033 195.664C83.2033 195.68 83.2359 195.664 83.2359 195.648C83.4477 194.086 84.9306 192.54 85.1913 192.263V192.231C84.9306 192.263 83.4477 192.426 83.2359 191.108C83.2359 191.092 83.2033 191.108 83.2033 191.124Z" fill="#222222"/>
<path d="M88.8415 187.87C88.6296 189.432 87.1631 190.978 86.9023 191.238V191.271C87.1631 191.238 88.6296 191.076 88.8415 192.41C88.8415 192.426 88.8741 192.41 88.8741 192.393C89.0859 190.831 90.5688 189.286 90.8295 189.009V188.977C90.5688 189.009 89.0859 189.172 88.8741 187.854C88.8741 187.838 88.8415 187.854 88.8415 187.87Z" fill="#222222"/>
<mask id="mask1_1406_80380" style="mask-type:luminance" maskUnits="userSpaceOnUse" x="22" y="67" width="66" height="140">
<path d="M84.6862 172.267L25.4205 206.435C23.6444 207.46 22.1941 206.631 22.1941 204.58V107.85C22.1941 105.8 23.6444 103.295 25.4205 102.27L84.6862 68.1008C86.4624 67.0757 87.9126 67.9056 87.9126 69.9557V166.686C87.9126 168.736 86.4624 171.242 84.6862 172.267Z" fill="white"/>
</mask>
<g mask="url(#mask1_1406_80380)">
<path d="M32.1341 205.589L29.9506 205.199L30.3416 203.018L32.5252 203.409L32.1341 205.589ZM32.9163 201.229L30.7327 200.838L31.1238 198.658L33.3074 199.048L32.9163 201.229ZM33.6985 196.868L31.5149 196.478L31.906 194.297L34.0895 194.688L33.6985 196.868ZM34.4806 192.508L32.2971 192.117L32.6882 189.937L34.8717 190.327L34.4806 192.508ZM35.2628 188.147L33.0792 187.756L33.4703 185.576L35.6539 185.967L35.2628 188.147ZM36.045 183.786L33.8614 183.396L34.2525 181.216L36.4361 181.606L36.045 183.786ZM37.0716 179.735L35.0184 178.905L35.8494 176.855L37.9026 177.685L37.0716 179.735ZM38.75 175.635L36.6968 174.789L37.5278 172.738L39.581 173.585L38.75 175.635ZM40.4284 171.534L38.3752 170.705L39.2062 168.654L41.2594 169.484L40.4284 171.534ZM42.1068 167.434L40.0536 166.588L40.8846 164.538L42.9378 165.384L42.1068 167.434ZM43.7852 163.334L41.732 162.488L42.563 160.438L44.6162 161.268L43.7852 163.318V163.334ZM45.3169 159.852L43.9644 158.095L45.7243 156.744L47.0768 158.502L45.3169 159.852ZM48.8367 157.167L47.4842 155.41L49.2441 154.06L50.5966 155.817L48.8367 157.167ZM52.3565 154.483L51.004 152.725L52.7638 151.375L54.1163 153.132L52.3565 154.483ZM55.8762 151.798L54.5237 150.041L56.2836 148.69L57.6361 150.447L55.8762 151.798ZM59.3145 149.26L58.2227 147.34L60.1456 146.25L61.2373 148.17L59.3145 149.26ZM63.1765 147.079L62.0847 145.159L64.0075 144.069L65.0993 145.989L63.1765 147.079ZM67.0384 144.899L65.9467 142.979L66.5496 142.637L67.6414 144.557L67.0384 144.899Z" fill="white"/>
<path d="M65.1971 70.4763L36.7946 86.0638L38.1145 112.227L39.6299 142.166L44.3392 153.262L53.7579 145.973L52.552 136.894L59.3471 101.179L65.1971 70.4763Z" fill="white"/>
<path d="M44.1111 154.141L39.0759 142.198L36.2242 85.7546L65.963 69.4187L53.1061 136.91L54.3445 146.217L44.0948 154.141H44.1111ZM40.184 142.035L44.5837 152.384L53.1875 145.729L52.0143 136.878L64.4638 71.5176L37.3975 86.3892L40.2003 142.052L40.184 142.035Z" fill="#222222"/>
<path d="M31.515 120.867L29.9344 90.7985L8.39211 100.74L4.49756 153.262L16.1323 160.991L31.515 120.867Z" fill="white"/>
<path d="M16.4093 161.837L3.91089 153.555V153.23L7.85433 100.366L30.4232 89.9524L32.069 120.948L16.393 161.821L16.4093 161.837ZM5.06785 152.986L15.8716 160.145L30.9609 120.769L29.4292 91.6446L8.92981 101.098L5.06785 152.986Z" fill="#222222"/>
<path d="M31.7104 131.036L18.1528 166.328L33.2911 172.364L38.4078 160.259L32.9 146.835L31.7104 131.036Z" fill="white"/>
<path d="M33.6007 173.08L17.4521 166.637L32.1015 128.547L33.454 146.705L39.027 160.259L33.617 173.08H33.6007ZM18.8698 166.019L32.9978 171.648L37.8049 160.259L32.3297 146.884L31.3357 133.558L18.8535 166.019H18.8698Z" fill="#222222"/>
<path d="M111.231 43.9386L70.9819 67.1408C70.8516 67.2221 69.4828 74.1047 67.7066 83.4116L85.615 90.4569L89.2814 100.236V109.461L82.5841 94.5246L66.7778 88.2603C66.6311 89.0413 66.4844 89.8386 66.3215 90.6359C66.3215 90.6359 66.3215 90.6521 66.3215 90.6684C65.7023 93.8738 65.0831 97.2256 64.4475 100.577C61.6285 115.53 58.1902 133.802 58.1902 133.802L66.3215 136.341L82.2256 125.586L122.133 98.5923L111.231 43.9386Z" fill="white"/>
<path d="M66.4192 136.943L57.5709 134.177L63.812 100.968L63.8935 100.463C64.529 97.1116 65.1645 93.7761 65.7674 90.5545L66.354 87.4956L82.9914 94.0852L88.7111 106.858V100.333L85.175 90.8799L67.071 83.7533L67.1525 83.2977C70.3138 66.8641 70.3789 66.8316 70.7049 66.6526L111.622 43.0599L122.752 98.82L122.442 99.0316L66.4029 136.926L66.4192 136.943ZM58.8419 133.412L66.24 135.722L121.53 98.3319L110.856 44.8009L71.4544 67.515C71.2752 68.1984 70.6071 71.2898 68.3421 83.0699L86.0549 90.0338L89.8354 100.236V112.048L82.1767 94.9476L67.2014 89.025L66.8755 90.7497C66.2889 93.8412 65.6859 97.014 65.083 100.203L65.0015 100.691L58.8419 133.428V133.412Z" fill="#222222"/>
<path d="M57.6525 196.022L58.1902 178.482L60.6182 173.829L98.9771 153.116L95.0825 176.009L59.9501 196.25L57.6525 196.022Z" fill="white"/>
<path d="M60.0642 196.819L57.0822 196.51L57.7014 178.222L60.1945 173.422L60.3412 173.34L99.7104 152.074L95.5714 176.334L60.0642 196.803V196.819ZM58.2228 195.518L59.8197 195.68L94.5774 175.651L98.2438 154.141L61.0256 174.235L58.7443 178.628L58.2228 195.518Z" fill="#222222"/>
<path d="M72.7418 161.284L94.4144 149.227V133.867L72.7418 146.363V161.284Z" fill="white"/>
<path d="M73.0026 161.772L72.4648 160.796L93.8604 148.902V134.827L73.0189 146.835L72.4648 145.875L94.9685 132.907V149.553L73.0026 161.772Z" fill="#222222"/>
<path d="M39.3041 190.653L37.8701 207.428L51.004 199.862L51.444 186.422L39.3041 190.653Z" fill="white"/>
<path d="M37.2346 208.437L38.7501 190.604L39.8581 190.701L38.5219 206.419L50.45 199.536L50.89 186.406L51.9981 186.438L51.5418 200.187L37.2346 208.437Z" fill="#222222"/>
<path d="M68.4236 148.853L59.8198 153.815L47.8265 163.041L40.1678 180.5L39.6626 186.422L51.607 181.671L51.7373 177.555L56.1859 170.493L68.4236 163.692V148.853Z" fill="white"/>
<path d="M39.027 187.268L39.6463 180.272L47.3702 162.683L59.4612 153.36L68.9613 147.877V164.001L56.5607 170.9L52.275 177.717L52.1284 182.045L39.0107 187.252L39.027 187.268ZM40.7054 180.646L40.2818 185.592L51.0529 181.313L51.1833 177.408L55.7785 170.103L67.8532 163.383V149.829L60.0804 154.32L48.2664 163.432L40.6892 180.679L40.7054 180.646Z" fill="#222222"/>
<path d="M68.4236 148.853L72.7418 146.363V161.284L68.4236 163.692V148.853Z" fill="url(#paint14_linear_1406_80380)"/>
<path d="M67.8696 164.636V163.074H68.391L70.5094 161.886L71.0471 162.846L67.8533 164.619L67.8696 164.636ZM72.0248 162.325L71.4871 161.365L72.1878 160.975V159.103H73.2959V161.625L72.0248 162.325ZM68.9776 161.967H67.8696V158.648H68.9776V161.967ZM73.2959 157.981H72.1878V154.662H73.2959V157.981ZM68.9776 157.541H67.8696V154.222H68.9776V157.541ZM73.2959 153.555H72.1878V150.236H73.2959V153.555ZM68.9776 153.116H67.8696V149.797H68.9776V153.116ZM68.7006 149.341L68.1466 148.381L71.0308 146.721L71.5849 147.681L68.7006 149.341ZM73.2959 149.146H72.1878V146.51L71.9923 146.168L73.2959 145.42V149.146Z" fill="#222222"/>
<path d="M39.6626 186.422L51.607 181.671L51.444 186.422L39.3041 190.653L39.6626 186.422Z" fill="url(#paint15_linear_1406_80380)"/>
<path d="M40.0048 190.994L39.6952 190.132L38.799 190.051L39.076 186.748L39.8093 186.813L39.4508 185.918L42.5468 184.681L42.9542 185.706L40.1352 186.829H40.1677L39.907 189.839L42.7587 188.847L43.1172 189.888L39.9722 190.978L40.0048 190.994ZM44.1927 189.53L43.8342 188.489L46.9791 187.398L47.3376 188.44L44.1927 189.53ZM48.3805 188.066L48.022 187.024L51.167 185.934L51.5255 186.975L48.3805 188.066ZM52.0469 185.446L50.9389 185.413L51.0366 182.501L48.1198 183.656L47.7124 182.631L50.8085 181.395L51.0855 182.094L52.1773 182.127L52.0632 185.446H52.0469ZM43.9971 185.3L43.5897 184.274L46.6858 183.054L47.0932 184.079L43.9971 185.3Z" fill="#222222"/>
</g>
<path d="M23.9539 207.639C23.5302 207.639 23.1229 207.542 22.7481 207.33C21.9007 206.842 21.4445 205.882 21.4445 204.613V107.818C21.4445 105.491 23.0251 102.758 25.0294 101.602L84.3276 67.4174C85.4194 66.7828 86.4949 66.7015 87.3259 67.1896C88.1733 67.6777 88.6296 68.6377 88.6296 69.9068V166.702C88.6296 169.029 87.0489 171.762 85.0283 172.917L25.7301 207.102C25.1109 207.46 24.4917 207.639 23.9213 207.639H23.9539ZM86.1527 68.3123C85.8431 68.3123 85.4683 68.4262 85.0772 68.654L25.779 102.839C24.2146 103.734 22.911 106.012 22.911 107.802V204.597C22.911 205.313 23.1229 205.85 23.4977 206.061C23.8724 206.273 24.4428 206.191 25.062 205.833L84.3602 171.648C85.9246 170.753 87.2282 168.475 87.2282 166.686V69.8906C87.2282 69.1746 87.0163 68.6377 86.6415 68.4262C86.5112 68.3448 86.3482 68.3123 86.1527 68.3123Z" fill="#222222"/>
<path d="M67.5598 98.7712C67.5598 98.7712 67.4294 98.7712 67.3643 98.7712C67.3317 98.7712 67.2991 98.7712 67.2502 98.7712C65.3763 98.8037 63.2742 99.4545 61.0254 100.854C54.2629 105.052 48.7063 114.765 48.5596 122.657C48.4781 126.903 49.8958 129.881 52.226 131.313L52.3727 131.41L57.1798 134.193C58.5486 135.576 59.5426 137.447 60.0314 139.839L60.2759 141.075C60.2922 141.189 60.3573 141.287 60.4062 141.368C60.4062 141.368 61.7587 144.818 67.2176 145.517C67.3969 145.534 67.5761 145.42 67.6087 145.241L73.589 114.212C74.0453 112.666 74.3386 111.137 74.469 109.624L74.9904 106.923L78.7383 104.531C78.7383 104.531 74.3712 98.7549 67.5761 98.7712H67.5598Z" fill="url(#paint16_linear_1406_80380)"/>
<path d="M67.2503 146.217C67.2503 146.217 67.1525 146.217 67.1199 146.217C61.3188 145.485 59.8034 141.791 59.7382 141.645C59.6893 141.531 59.6241 141.384 59.5752 141.205L59.3308 139.969C58.9071 137.837 58.0272 136.096 56.7399 134.762C56.1043 134.388 52.0957 132.061 52.0142 132.029L51.8187 131.899C49.1789 130.288 47.7612 127.001 47.8427 122.64C48.0056 114.44 53.6438 104.612 60.6507 100.252C62.7365 98.9502 64.7571 98.2342 66.6799 98.1041L67.2503 98.0715H67.511L67.5436 98.8037V98.0878H67.5925C74.6483 98.0878 79.0969 103.88 79.2924 104.124L79.765 104.743L75.626 107.378L75.1697 109.77C75.0557 111.202 74.7461 112.797 74.2735 114.424L68.3094 145.371C68.2117 145.875 67.7554 146.233 67.2503 146.233V146.217ZM61.107 141.173C61.3188 141.612 62.6713 144.085 66.9569 144.736L72.8721 114.066C73.3284 112.471 73.6217 110.974 73.7521 109.559L74.3387 106.484L77.6466 104.368C76.343 102.953 72.6603 99.4871 67.6088 99.4871H67.2666C65.4741 99.5034 63.4535 100.187 61.4166 101.456C54.8822 105.507 49.4396 115.026 49.2767 122.657C49.1952 126.48 50.3847 129.328 52.6009 130.678L52.7801 130.808L57.5383 133.558L57.685 133.672C59.2167 135.218 60.2433 137.235 60.7322 139.676L60.9766 140.913L61.0907 141.173H61.107Z" fill="#222222"/>
<path d="M67.0873 122.998L72.204 107.525C72.204 107.525 70.2649 102.107 61.4655 100.561C61.3026 100.659 61.1396 100.724 60.9766 100.821C55.8925 103.978 51.4928 110.258 49.5537 116.539C49.5537 116.539 53.3831 121.55 67.0873 122.998Z" fill="white"/>
<path d="M67.5925 123.779L67.0222 123.714C52.9594 122.234 48.9834 116.962 48.9508 116.913L48.7878 116.637L48.8856 116.327C50.9388 109.689 55.5341 103.36 60.6182 100.219C60.7322 100.154 60.83 100.089 60.9441 100.04L61.3514 99.8125L61.6122 99.8613C70.7212 101.456 72.8233 107.053 72.9047 107.281L72.9862 107.509L67.6088 123.763L67.5925 123.779ZM50.3685 116.376C51.2647 117.271 55.5341 120.948 66.5985 122.217L71.4382 107.557C70.9982 106.581 68.7658 102.66 61.5959 101.326C61.5144 101.358 61.4492 101.407 61.3677 101.456C56.6584 104.385 52.3728 110.21 50.3685 116.392V116.376Z" fill="#222222"/>
<path d="M81.1826 111.869C81.1826 103.392 75.0882 100.089 67.6739 104.694C60.9114 108.892 55.3548 118.605 55.2081 126.497C55.1103 131.476 57.0657 134.73 60.1618 135.755C63.4209 136.829 65.8326 139.464 66.6799 143.662L66.9243 144.899C67.0547 145.517 67.5761 145.712 68.1954 145.355C68.8146 144.997 69.336 144.199 69.4664 143.435L69.6456 142.328C70.493 137.187 72.644 131.638 75.9519 126.887C79.1294 122.331 81.1826 116.799 81.1826 111.869Z" fill="#222222"/>
<path d="M67.6088 146.249C67.4132 146.249 67.2177 146.201 67.0221 146.119C66.5985 145.924 66.3051 145.533 66.2074 145.029L65.9629 143.793C65.2134 140.018 63.1113 137.479 59.9337 136.422C56.414 135.267 54.3771 131.541 54.4911 126.464C54.6541 118.264 60.2922 108.436 67.2992 104.075C71.1448 101.684 74.8275 101.228 77.6466 102.79C80.4005 104.319 81.9159 107.541 81.9159 111.869C81.9159 116.783 79.9605 122.396 76.5548 127.294C73.4262 131.768 71.2426 137.154 70.3626 142.442L70.1834 143.548C70.0204 144.541 69.3686 145.517 68.5702 145.973C68.2606 146.152 67.9347 146.249 67.6251 146.249H67.6088ZM73.9802 103.311C72.1877 103.311 70.1671 103.978 68.0487 105.296C61.5144 109.347 56.0718 118.866 55.9088 126.497C55.811 130.971 57.4406 134.095 60.3737 135.071C64.0401 136.275 66.517 139.285 67.3643 143.532L67.6088 144.769C67.6088 144.769 67.6739 144.834 67.8206 144.752C68.2443 144.508 68.6517 143.89 68.7331 143.337L68.9124 142.231C69.8086 136.731 72.1062 131.15 75.3327 126.497C78.5265 121.908 80.4331 116.458 80.4331 111.902C80.4331 108.127 79.1783 105.345 76.9133 104.075C76.0334 103.587 75.0394 103.343 73.9639 103.343L73.9802 103.311Z" fill="#222222"/>
<path d="M73.3609 122.331C70.5093 127.261 65.8815 129.946 63.0135 128.286C60.1618 126.643 60.1618 121.306 63.0135 116.36C65.8652 111.43 70.493 108.761 73.3609 110.405C76.2126 112.048 76.2126 117.385 73.3609 122.331Z" fill="#222222"/>
<path d="M64.92 129.507C64.1053 129.507 63.3394 129.312 62.655 128.921C59.4123 127.05 59.2982 121.388 62.3943 116.018C63.8446 113.529 65.7674 111.495 67.8206 110.307C70.0041 109.038 72.0899 108.859 73.7032 109.803C75.3164 110.73 76.2126 112.634 76.2126 115.156C76.2126 117.531 75.4142 120.216 73.9802 122.706C72.5299 125.195 70.6071 127.229 68.5539 128.417C67.2828 129.149 66.0607 129.507 64.92 129.507ZM71.4544 110.649C70.5745 110.649 69.5968 110.958 68.5539 111.544C66.7125 112.601 64.9689 114.456 63.649 116.734C61.0418 121.241 60.9277 126.253 63.3883 127.668C64.5453 128.335 66.1096 128.156 67.8369 127.164C69.6782 126.106 71.4218 124.251 72.7417 121.973C74.0616 119.695 74.7949 117.271 74.7949 115.14C74.7949 113.155 74.1594 111.707 73.0188 111.039C72.5625 110.779 72.041 110.649 71.4707 110.649H71.4544Z" fill="url(#paint17_linear_1406_80380)"/>
<path d="M65.9303 117.027L68.2768 115.677C69.1893 115.156 69.8574 114.912 70.3137 114.977C70.7537 115.042 70.9818 115.4 70.9818 116.051C70.9818 116.49 70.884 116.913 70.6885 117.336C70.493 117.759 70.2485 118.101 69.9226 118.361V118.41C70.3463 118.296 70.6396 118.329 70.8352 118.524C71.0144 118.719 71.1122 119.045 71.1122 119.516C71.1122 120.216 70.884 120.899 70.4278 121.567C69.9715 122.234 69.3523 122.803 68.5538 123.259L65.9466 124.772V117.027H65.9303ZM67.7391 118.947L68.2768 118.638C68.5375 118.491 68.7331 118.312 68.8797 118.101C69.0264 117.889 69.0916 117.678 69.0916 117.434C69.0916 116.994 68.8145 116.946 68.2442 117.271L67.7391 117.564V118.947ZM67.7391 120.476V122.103L68.3746 121.729C68.9449 121.404 69.2219 120.965 69.2219 120.411C69.2219 120.151 69.1404 120.005 68.9938 119.956C68.8471 119.907 68.619 119.956 68.342 120.135L67.7391 120.476Z" fill="url(#paint18_linear_1406_80380)"/>
<mask id="mask2_1406_80380" style="mask-type:luminance" maskUnits="userSpaceOnUse" x="34" y="304" width="31" height="19">
<path d="M35.6865 315.124L47.0605 321.714C49.1626 322.934 51.7535 322.918 53.8556 321.698L63.6979 315.287C64.8712 314.587 64.9038 312.895 63.7305 312.179L53.383 305.801C51.3461 304.548 48.7715 304.499 46.6857 305.671L35.7028 311.984C34.4806 312.667 34.4643 314.425 35.7028 315.141L35.6865 315.124Z" fill="white"/>
</mask>
<g mask="url(#mask2_1406_80380)">
<mask id="mask3_1406_80380" style="mask-type:luminance" maskUnits="userSpaceOnUse" x="22" y="282" width="80" height="47">
<path d="M55.4688 328.108L23.6443 309.543C22.4384 308.844 22.4384 307.119 23.6443 306.419L64.0563 283.413C65.4577 282.599 67.185 282.599 68.5864 283.413L100.411 301.978C101.617 302.677 102.725 305.183 100.444 306.891L63.7956 327.751C59.8685 329.784 56.8702 328.906 55.4688 328.092V328.108Z" fill="white"/>
</mask>
<g mask="url(#mask3_1406_80380)">
<path d="M77.4089 285.895L27.9021 314.366L28.3169 315.085L77.8236 286.614L77.4089 285.895Z" fill="#222222"/>
<path d="M79.6572 287.132L30.1355 315.577L30.5499 316.297L80.0716 287.851L79.6572 287.132Z" fill="#222222"/>
<path d="M81.7271 288.389L32.2203 316.86L32.6351 317.58L82.1419 289.109L81.7271 288.389Z" fill="#222222"/>
<path d="M84.0044 289.605L34.5076 318.094L34.9226 318.813L84.4194 290.324L84.0044 289.605Z" fill="#222222"/>
<path d="M85.9079 290.919L36.4111 319.408L36.8262 320.127L86.323 291.638L85.9079 290.919Z" fill="#222222"/>
<path d="M88.2146 292.106L38.688 320.543L39.1023 321.262L88.6289 292.825L88.2146 292.106Z" fill="#222222"/>
<path d="M90.2705 293.377L40.7638 321.848L41.1786 322.567L90.6853 294.096L90.2705 293.377Z" fill="#222222"/>
<path d="M92.5471 294.594L43.0254 323.039L43.4398 323.758L92.9615 295.313L92.5471 294.594Z" fill="#222222"/>
<path d="M94.6243 295.856L45.0977 324.293L45.5119 325.012L95.0386 296.576L94.6243 295.856Z" fill="#222222"/>
<path d="M96.9121 297.067L47.4004 325.53L47.815 326.249L97.3268 297.786L96.9121 297.067Z" fill="#222222"/>
<path d="M98.9775 298.313L49.4707 326.784L49.8855 327.503L99.3922 299.032L98.9775 298.313Z" fill="#222222"/>
<path d="M101.262 299.55L51.7405 327.995L52.1549 328.714L101.677 300.269L101.262 299.55Z" fill="#222222"/>
<path d="M103.144 300.861L53.6475 329.349L54.0625 330.068L103.559 301.58L103.144 300.861Z" fill="#222222"/>
<path d="M105.416 302.076L55.9187 330.564L56.3337 331.283L105.831 302.795L105.416 302.076Z" fill="#222222"/>
<path d="M107.462 303.354L57.9656 331.842L58.3806 332.561L107.877 304.073L107.462 303.354Z" fill="#222222"/>
<path d="M109.784 304.531L60.2874 333.019L60.7024 333.738L110.199 305.249L109.784 304.531Z" fill="#222222"/>
<path d="M111.831 305.824L62.3342 334.313L62.7492 335.032L112.246 306.543L111.831 305.824Z" fill="#222222"/>
<path d="M68.5705 281.034L19.0737 309.523L19.4888 310.242L68.9856 281.753L68.5705 281.034Z" fill="#222222"/>
<path d="M70.8513 282.249L21.3396 310.712L21.7542 311.431L71.266 282.968L70.8513 282.249Z" fill="#222222"/>
<path d="M72.9263 283.518L23.4047 311.963L23.8191 312.682L73.3407 284.237L72.9263 283.518Z" fill="#222222"/>
<path d="M75.2119 284.692L25.7002 313.155L26.1149 313.874L75.6266 285.411L75.2119 284.692Z" fill="#222222"/>
<path d="M77.3009 285.975L27.7743 314.411L28.1886 315.13L77.7152 286.694L77.3009 285.975Z" fill="#222222"/>
</g>
</g>
<path d="M59.7055 294.167L36.3545 294.2C36.0938 294.2 35.882 294.412 35.882 294.688V306.11V307.412C35.9308 308.128 36.4686 308.86 37.4789 309.446L44.5021 313.497C46.4412 314.62 49.3907 314.734 51.0691 313.774L59.0374 309.185C59.8522 308.714 60.2107 308.079 60.1618 307.428V294.656C60.1618 294.395 59.95 294.167 59.6729 294.184L59.7055 294.167Z" fill="url(#paint19_linear_1406_80380)"/>
<path d="M48.2174 315.141C46.7998 315.141 45.3169 314.799 44.1436 314.116L37.1204 310.064C35.9308 309.381 35.2465 308.453 35.165 307.461V306.11L35.1487 294.672C35.1487 294.005 35.6864 293.468 36.3545 293.468L59.7055 293.435C60.3736 293.435 60.9114 293.972 60.9114 294.639V308.128H60.8299C60.6507 308.779 60.1618 309.364 59.4285 309.787L51.4602 314.376C50.5802 314.88 49.4396 315.124 48.2337 315.124L48.2174 315.141ZM36.5827 294.916V307.396C36.6315 307.851 37.0878 308.388 37.8374 308.811L44.8606 312.863C46.5716 313.855 49.2603 313.969 50.7106 313.139L58.6789 308.551C59.0537 308.339 59.4774 307.981 59.4448 307.461L59.3796 306.696H59.4448V294.883L36.5664 294.916H36.5827Z" fill="#222222"/>
<path d="M59.7055 294.184H48.9507V314.392C49.7491 314.311 50.4987 314.116 51.0854 313.774L59.0537 309.185C59.8685 308.714 60.227 308.079 60.1781 307.428V294.656C60.1781 294.395 59.9662 294.167 59.6892 294.167L59.7055 294.184Z" fill="#222222"/>
<path d="M59.0538 295.957L51.0854 300.546C49.407 301.522 46.4576 301.392 44.5185 300.269L37.4952 296.218C35.5561 295.095 35.3443 293.403 37.0227 292.427L44.991 287.838C46.6694 286.862 49.6189 286.992 51.558 288.115L58.5812 292.166C60.5204 293.289 60.7322 294.981 59.0538 295.957Z" fill="white"/>
<path d="M48.2174 301.929C46.7998 301.929 45.3169 301.587 44.1436 300.904L37.1204 296.852C35.8657 296.136 35.1487 295.128 35.1487 294.086C35.1487 293.175 35.6864 292.378 36.6478 291.825L44.6162 287.236C46.5227 286.13 49.7329 286.26 51.9164 287.513L58.9397 291.564C60.1944 292.28 60.9114 293.289 60.9114 294.33C60.9114 295.241 60.3736 296.039 59.4122 296.592L51.4439 301.18C50.5639 301.685 49.4233 301.929 48.2174 301.929ZM47.8263 287.903C46.8812 287.903 45.985 288.082 45.3332 288.456L37.3648 293.045C37.0063 293.256 36.5827 293.598 36.5827 294.07C36.5827 294.574 37.0552 295.144 37.8374 295.599L44.8606 299.651C46.5716 300.643 49.2603 300.757 50.7106 299.927L58.6789 295.339C59.0374 295.127 59.4611 294.786 59.4611 294.314C59.4611 293.81 58.9886 293.24 58.2064 292.801L51.1832 288.749C50.238 288.196 48.9833 287.92 47.8101 287.92L47.8263 287.903Z" fill="#222222"/>
<path d="M58.1575 298.707H56.7235V307.998H58.1575V298.707Z" fill="url(#paint20_linear_1406_80380)"/>
<path d="M49.3417 293.224L46.2294 291.418L44.8606 292.199L43.5081 292.98L46.6204 294.786L45.0724 295.681L51.7045 296.136L50.9061 292.313L49.3417 293.224Z" fill="white"/>
<path d="M52.389 296.738L43.2148 296.104L45.5124 294.786L42.4 292.996L46.2294 290.783L49.3418 292.573L51.2809 291.45L52.389 296.738ZM46.9138 295.241L51.0039 295.518L50.515 293.159L49.3418 293.842L46.2294 292.036L44.6162 292.963L47.7286 294.753L46.9138 295.225V295.241Z" fill="#222222"/>
<path d="M46.3435 304.288H44.9095V313.985H46.3435V304.288Z" fill="#222222"/>
<defs>
<linearGradient id="paint0_linear_1406_80380" x1="20.4059" y1="271.665" x2="120.559" y2="258.698" gradientUnits="userSpaceOnUse">
<stop stop-color="#FFB6D5"/>
<stop offset="0.1" stop-color="#FFE3C0"/>
<stop offset="0.29" stop-color="#C7FBDB"/>
<stop offset="0.43" stop-color="#C7CDF4"/>
<stop offset="0.54" stop-color="#FFBCD4"/>
<stop offset="0.66" stop-color="#FFE0C3"/>
<stop offset="0.76" stop-color="#B0F1D4"/>
<stop offset="0.84" stop-color="#C9CEEC"/>
<stop offset="0.91" stop-color="#FFC1DA"/>
<stop offset="1" stop-color="#BDFFE3"/>
</linearGradient>
<linearGradient id="paint1_linear_1406_80380" x1="13.4691" y1="58.2308" x2="13.9347" y2="57.2829" gradientUnits="userSpaceOnUse">
<stop stop-color="#FFB6D5"/>
<stop offset="0.1" stop-color="#FFE3C0"/>
<stop offset="0.29" stop-color="#C7FBDB"/>
<stop offset="0.43" stop-color="#C7CDF4"/>
<stop offset="0.54" stop-color="#FFBCD4"/>
<stop offset="0.66" stop-color="#FFE0C3"/>
<stop offset="0.76" stop-color="#B0F1D4"/>
<stop offset="0.84" stop-color="#C9CEEC"/>
<stop offset="0.91" stop-color="#FFC1DA"/>
<stop offset="1" stop-color="#BDFFE3"/>
</linearGradient>
<linearGradient id="paint2_linear_1406_80380" x1="83.0341" y1="10.2268" x2="88.3625" y2="7.15295" gradientUnits="userSpaceOnUse">
<stop stop-color="#FFB6D5"/>
<stop offset="0.1" stop-color="#FFE3C0"/>
<stop offset="0.29" stop-color="#C7FBDB"/>
<stop offset="0.43" stop-color="#C7CDF4"/>
<stop offset="0.54" stop-color="#FFBCD4"/>
<stop offset="0.66" stop-color="#FFE0C3"/>
<stop offset="0.76" stop-color="#B0F1D4"/>
<stop offset="0.84" stop-color="#C9CEEC"/>
<stop offset="0.91" stop-color="#FFC1DA"/>
<stop offset="1" stop-color="#BDFFE3"/>
</linearGradient>
<linearGradient id="paint3_linear_1406_80380" x1="80.4432" y1="11.7074" x2="85.7716" y2="8.63354" gradientUnits="userSpaceOnUse">
<stop stop-color="#FFB6D5"/>
<stop offset="0.1" stop-color="#FFE3C0"/>
<stop offset="0.29" stop-color="#C7FBDB"/>
<stop offset="0.43" stop-color="#C7CDF4"/>
<stop offset="0.54" stop-color="#FFBCD4"/>
<stop offset="0.66" stop-color="#FFE0C3"/>
<stop offset="0.76" stop-color="#B0F1D4"/>
<stop offset="0.84" stop-color="#C9CEEC"/>
<stop offset="0.91" stop-color="#FFC1DA"/>
<stop offset="1" stop-color="#BDFFE3"/>
</linearGradient>
<linearGradient id="paint4_linear_1406_80380" x1="11.1319" y1="64.6847" x2="11.547" y2="63.7137" gradientUnits="userSpaceOnUse">
<stop stop-color="#FFB6D5"/>
<stop offset="0.1" stop-color="#FFE3C0"/>
<stop offset="0.29" stop-color="#C7FBDB"/>
<stop offset="0.43" stop-color="#C7CDF4"/>
<stop offset="0.54" stop-color="#FFBCD4"/>
<stop offset="0.66" stop-color="#FFE0C3"/>
<stop offset="0.76" stop-color="#B0F1D4"/>
<stop offset="0.84" stop-color="#C9CEEC"/>
<stop offset="0.91" stop-color="#FFC1DA"/>
<stop offset="1" stop-color="#BDFFE3"/>
</linearGradient>
<linearGradient id="paint5_linear_1406_80380" x1="4.91057" y1="233.194" x2="10.4486" y2="230.33" gradientUnits="userSpaceOnUse">
<stop stop-color="#FFB6D5"/>
<stop offset="0.1" stop-color="#FFE3C0"/>
<stop offset="0.29" stop-color="#C7FBDB"/>
<stop offset="0.43" stop-color="#C7CDF4"/>
<stop offset="0.54" stop-color="#FFBCD4"/>
<stop offset="0.66" stop-color="#FFE0C3"/>
<stop offset="0.76" stop-color="#B0F1D4"/>
<stop offset="0.84" stop-color="#C9CEEC"/>
<stop offset="0.91" stop-color="#FFC1DA"/>
<stop offset="1" stop-color="#BDFFE3"/>
</linearGradient>
<linearGradient id="paint6_linear_1406_80380" x1="4.91057" y1="241.201" x2="10.458" y2="238.344" gradientUnits="userSpaceOnUse">
<stop stop-color="#FFB6D5"/>
<stop offset="0.1" stop-color="#FFE3C0"/>
<stop offset="0.29" stop-color="#C7FBDB"/>
<stop offset="0.43" stop-color="#C7CDF4"/>
<stop offset="0.54" stop-color="#FFBCD4"/>
<stop offset="0.66" stop-color="#FFE0C3"/>
<stop offset="0.76" stop-color="#B0F1D4"/>
<stop offset="0.84" stop-color="#C9CEEC"/>
<stop offset="0.91" stop-color="#FFC1DA"/>
<stop offset="1" stop-color="#BDFFE3"/>
</linearGradient>
<linearGradient id="paint7_linear_1406_80380" x1="4.91057" y1="244.453" x2="10.4486" y2="241.589" gradientUnits="userSpaceOnUse">
<stop stop-color="#FFB6D5"/>
<stop offset="0.1" stop-color="#FFE3C0"/>
<stop offset="0.29" stop-color="#C7FBDB"/>
<stop offset="0.43" stop-color="#C7CDF4"/>
<stop offset="0.54" stop-color="#FFBCD4"/>
<stop offset="0.66" stop-color="#FFE0C3"/>
<stop offset="0.76" stop-color="#B0F1D4"/>
<stop offset="0.84" stop-color="#C9CEEC"/>
<stop offset="0.91" stop-color="#FFC1DA"/>
<stop offset="1" stop-color="#BDFFE3"/>
</linearGradient>
<linearGradient id="paint8_linear_1406_80380" x1="5.89031" y1="144.705" x2="10.7127" y2="144.284" gradientUnits="userSpaceOnUse">
<stop stop-color="#FFB6D5"/>
<stop offset="0.1" stop-color="#FFE3C0"/>
<stop offset="0.29" stop-color="#C7FBDB"/>
<stop offset="0.43" stop-color="#C7CDF4"/>
<stop offset="0.54" stop-color="#FFBCD4"/>
<stop offset="0.66" stop-color="#FFE0C3"/>
<stop offset="0.76" stop-color="#B0F1D4"/>
<stop offset="0.84" stop-color="#C9CEEC"/>
<stop offset="0.91" stop-color="#FFC1DA"/>
<stop offset="1" stop-color="#BDFFE3"/>
</linearGradient>
<linearGradient id="paint9_linear_1406_80380" x1="5.89031" y1="126.237" x2="10.7127" y2="125.817" gradientUnits="userSpaceOnUse">
<stop stop-color="#FFB6D5"/>
<stop offset="0.1" stop-color="#FFE3C0"/>
<stop offset="0.29" stop-color="#C7FBDB"/>
<stop offset="0.43" stop-color="#C7CDF4"/>
<stop offset="0.54" stop-color="#FFBCD4"/>
<stop offset="0.66" stop-color="#FFE0C3"/>
<stop offset="0.76" stop-color="#B0F1D4"/>
<stop offset="0.84" stop-color="#C9CEEC"/>
<stop offset="0.91" stop-color="#FFC1DA"/>
<stop offset="1" stop-color="#BDFFE3"/>
</linearGradient>
<linearGradient id="paint10_linear_1406_80380" x1="5.89031" y1="104.608" x2="10.6739" y2="104.007" gradientUnits="userSpaceOnUse">
<stop stop-color="#FFB6D5"/>
<stop offset="0.1" stop-color="#FFE3C0"/>
<stop offset="0.29" stop-color="#C7FBDB"/>
<stop offset="0.43" stop-color="#C7CDF4"/>
<stop offset="0.54" stop-color="#FFBCD4"/>
<stop offset="0.66" stop-color="#FFE0C3"/>
<stop offset="0.76" stop-color="#B0F1D4"/>
<stop offset="0.84" stop-color="#C9CEEC"/>
<stop offset="0.91" stop-color="#FFC1DA"/>
<stop offset="1" stop-color="#BDFFE3"/>
</linearGradient>
<linearGradient id="paint11_linear_1406_80380" x1="6.25906" y1="98.5272" x2="9.91085" y2="97.7915" gradientUnits="userSpaceOnUse">
<stop stop-color="#FFB6D5"/>
<stop offset="0.1" stop-color="#FFE3C0"/>
<stop offset="0.29" stop-color="#C7FBDB"/>
<stop offset="0.43" stop-color="#C7CDF4"/>
<stop offset="0.54" stop-color="#FFBCD4"/>
<stop offset="0.66" stop-color="#FFE0C3"/>
<stop offset="0.76" stop-color="#B0F1D4"/>
<stop offset="0.84" stop-color="#C9CEEC"/>
<stop offset="0.91" stop-color="#FFC1DA"/>
<stop offset="1" stop-color="#BDFFE3"/>
</linearGradient>
<linearGradient id="paint12_linear_1406_80380" x1="5.89031" y1="99.038" x2="10.5167" y2="98.0005" gradientUnits="userSpaceOnUse">
<stop stop-color="#FFB6D5"/>
<stop offset="0.1" stop-color="#FFE3C0"/>
<stop offset="0.29" stop-color="#C7FBDB"/>
<stop offset="0.43" stop-color="#C7CDF4"/>
<stop offset="0.54" stop-color="#FFBCD4"/>
<stop offset="0.66" stop-color="#FFE0C3"/>
<stop offset="0.76" stop-color="#B0F1D4"/>
<stop offset="0.84" stop-color="#C9CEEC"/>
<stop offset="0.91" stop-color="#FFC1DA"/>
<stop offset="1" stop-color="#BDFFE3"/>
</linearGradient>
<linearGradient id="paint13_linear_1406_80380" x1="15.0158" y1="55.6536" x2="15.505" y2="54.7175" gradientUnits="userSpaceOnUse">
<stop stop-color="#FFB6D5"/>
<stop offset="0.1" stop-color="#FFE3C0"/>
<stop offset="0.29" stop-color="#C7FBDB"/>
<stop offset="0.43" stop-color="#C7CDF4"/>
<stop offset="0.54" stop-color="#FFBCD4"/>
<stop offset="0.66" stop-color="#FFE0C3"/>
<stop offset="0.76" stop-color="#B0F1D4"/>
<stop offset="0.84" stop-color="#C9CEEC"/>
<stop offset="0.91" stop-color="#FFC1DA"/>
<stop offset="1" stop-color="#BDFFE3"/>
</linearGradient>
<linearGradient id="paint14_linear_1406_80380" x1="68.7091" y1="165.555" x2="74.1637" y2="165.042" gradientUnits="userSpaceOnUse">
<stop stop-color="#FFB6D5"/>
<stop offset="0.1" stop-color="#FFE3C0"/>
<stop offset="0.29" stop-color="#C7FBDB"/>
<stop offset="0.43" stop-color="#C7CDF4"/>
<stop offset="0.54" stop-color="#FFBCD4"/>
<stop offset="0.66" stop-color="#FFE0C3"/>
<stop offset="0.76" stop-color="#B0F1D4"/>
<stop offset="0.84" stop-color="#C9CEEC"/>
<stop offset="0.91" stop-color="#FFC1DA"/>
<stop offset="1" stop-color="#BDFFE3"/>
</linearGradient>
<linearGradient id="paint15_linear_1406_80380" x1="40.1176" y1="191.618" x2="52.4906" y2="185.224" gradientUnits="userSpaceOnUse">
<stop stop-color="#FFB6D5"/>
<stop offset="0.1" stop-color="#FFE3C0"/>
<stop offset="0.29" stop-color="#C7FBDB"/>
<stop offset="0.43" stop-color="#C7CDF4"/>
<stop offset="0.54" stop-color="#FFBCD4"/>
<stop offset="0.66" stop-color="#FFE0C3"/>
<stop offset="0.76" stop-color="#B0F1D4"/>
<stop offset="0.84" stop-color="#C9CEEC"/>
<stop offset="0.91" stop-color="#FFC1DA"/>
<stop offset="1" stop-color="#BDFFE3"/>
</linearGradient>
<linearGradient id="paint16_linear_1406_80380" x1="50.5519" y1="150.545" x2="86.8589" y2="141.701" gradientUnits="userSpaceOnUse">
<stop stop-color="#FFB6D5"/>
<stop offset="0.1" stop-color="#FFE3C0"/>
<stop offset="0.29" stop-color="#C7FBDB"/>
<stop offset="0.43" stop-color="#C7CDF4"/>
<stop offset="0.54" stop-color="#FFBCD4"/>
<stop offset="0.66" stop-color="#FFE0C3"/>
<stop offset="0.76" stop-color="#B0F1D4"/>
<stop offset="0.84" stop-color="#C9CEEC"/>
<stop offset="0.91" stop-color="#FFC1DA"/>
<stop offset="1" stop-color="#BDFFE3"/>
</linearGradient>
<linearGradient id="paint17_linear_1406_80380" x1="61.2079" y1="131.689" x2="80.0063" y2="126.076" gradientUnits="userSpaceOnUse">
<stop stop-color="#FFB6D5"/>
<stop offset="0.1" stop-color="#FFE3C0"/>
<stop offset="0.29" stop-color="#C7FBDB"/>
<stop offset="0.43" stop-color="#C7CDF4"/>
<stop offset="0.54" stop-color="#FFBCD4"/>
<stop offset="0.66" stop-color="#FFE0C3"/>
<stop offset="0.76" stop-color="#B0F1D4"/>
<stop offset="0.84" stop-color="#C9CEEC"/>
<stop offset="0.91" stop-color="#FFC1DA"/>
<stop offset="1" stop-color="#BDFFE3"/>
</linearGradient>
<linearGradient id="paint18_linear_1406_80380" x1="66.2729" y1="125.826" x2="72.6238" y2="124.56" gradientUnits="userSpaceOnUse">
<stop stop-color="#FFB6D5"/>
<stop offset="0.1" stop-color="#FFE3C0"/>
<stop offset="0.29" stop-color="#C7FBDB"/>
<stop offset="0.43" stop-color="#C7CDF4"/>
<stop offset="0.54" stop-color="#FFBCD4"/>
<stop offset="0.66" stop-color="#FFE0C3"/>
<stop offset="0.76" stop-color="#B0F1D4"/>
<stop offset="0.84" stop-color="#C9CEEC"/>
<stop offset="0.91" stop-color="#FFC1DA"/>
<stop offset="1" stop-color="#BDFFE3"/>
</linearGradient>
<linearGradient id="paint19_linear_1406_80380" x1="37.4877" y1="316.601" x2="63.1775" y2="304.981" gradientUnits="userSpaceOnUse">
<stop stop-color="#FFB6D5"/>
<stop offset="0.1" stop-color="#FFE3C0"/>
<stop offset="0.29" stop-color="#C7FBDB"/>
<stop offset="0.43" stop-color="#C7CDF4"/>
<stop offset="0.54" stop-color="#FFBCD4"/>
<stop offset="0.66" stop-color="#FFE0C3"/>
<stop offset="0.76" stop-color="#B0F1D4"/>
<stop offset="0.84" stop-color="#C9CEEC"/>
<stop offset="0.91" stop-color="#FFC1DA"/>
<stop offset="1" stop-color="#BDFFE3"/>
</linearGradient>
<linearGradient id="paint20_linear_1406_80380" x1="56.8183" y1="308.997" x2="58.6395" y2="308.89" gradientUnits="userSpaceOnUse">
<stop stop-color="#FFB6D5"/>
<stop offset="0.1" stop-color="#FFE3C0"/>
<stop offset="0.29" stop-color="#C7FBDB"/>
<stop offset="0.43" stop-color="#C7CDF4"/>
<stop offset="0.54" stop-color="#FFBCD4"/>
<stop offset="0.66" stop-color="#FFE0C3"/>
<stop offset="0.76" stop-color="#B0F1D4"/>
<stop offset="0.84" stop-color="#C9CEEC"/>
<stop offset="0.91" stop-color="#FFC1DA"/>
<stop offset="1" stop-color="#BDFFE3"/>
</linearGradient>
</defs>
</svg>
