<svg width="139" height="126" viewBox="0 0 139 126" fill="none" xmlns="http://www.w3.org/2000/svg">
<path d="M138.952 79.7228L60.7656 124.872L0.386108 89.9954L78.5729 44.8457L138.952 79.7228Z" fill="#787878"/>
<path d="M61.428 73.095V107.309L94.1991 88.2554V54.041L81.803 61.2484V68.152C81.803 68.3729 81.6925 68.5938 81.4717 68.7043L75.2598 72.2942C75.2598 72.2942 75.0389 72.377 74.9285 72.377C74.818 72.377 74.7076 72.3494 74.5972 72.2942C74.4039 72.1837 74.2659 71.9628 74.2659 71.7419V65.6115L61.4004 73.095H61.428ZM76.585 81.2689C76.7782 81.1584 77.0267 81.1584 77.22 81.2689C77.4132 81.3793 77.5513 81.6003 77.5513 81.8212V92.2318C77.5513 92.4527 77.4408 92.6737 77.22 92.7841L64.9895 99.8534C64.9895 99.8534 64.7686 99.9363 64.6582 99.9363C64.5477 99.9363 64.4373 99.9087 64.3269 99.8534C64.1336 99.743 63.9956 99.5221 63.9956 99.3012V88.8905C63.9956 88.6696 64.106 88.4487 64.3269 88.3382L76.5574 81.2689H76.585Z" fill="#D0E1EE"/>
<path d="M95.2216 52.3843C95.2216 52.3843 95.3321 52.4671 95.3873 52.5499C95.3873 52.5499 95.4149 52.6052 95.4425 52.6052C95.4977 52.688 95.5253 52.7985 95.5253 52.8813V84.6932L98.0101 86.1291V51.9148L45.3334 21.4836V23.4995L95.2216 52.3014C95.2216 52.3014 95.2217 52.329 95.2493 52.329L95.2216 52.3843Z" fill="#222222"/>
<path d="M11.4307 75.3873L17.0352 78.6182V66.1364L11.4307 62.9055V75.3873Z" fill="#787878"/>
<path d="M73.7415 64.4515L21.0648 34.0204L8.11646 41.5591L60.7932 71.9627L73.7415 64.4515Z" fill="url(#paint0_linear_1406_80619)"/>
<path d="M93.592 52.9093L44.5319 24.5769C44.5319 24.5769 44.2835 24.494 44.2006 24.3836L40.9152 22.4781L28.7676 29.5475L81.4443 59.9786L93.592 52.9093Z" fill="url(#paint1_linear_1406_80619)"/>
<path d="M80.1468 60.7241L27.4701 30.293L22.3625 33.2753L75.0393 63.7065L80.1468 60.7241Z" fill="#222222"/>
<path d="M75.592 64.8665V70.6103L80.5339 67.7661V61.9946L75.592 64.8665Z" fill="#222222"/>
<path d="M99.2521 51.9422V86.1565L132.023 67.1025V32.8882L119.627 40.0956V46.9992C119.627 47.2201 119.517 47.441 119.296 47.5515L113.084 51.1414C113.084 51.1414 112.863 51.2242 112.753 51.2242C112.642 51.2242 112.532 51.1966 112.421 51.1414C112.228 51.0309 112.09 50.81 112.09 50.5891V44.4586L99.2245 51.9422H99.2521ZM114.409 60.1161C114.602 60.0056 114.851 60.0056 115.044 60.1161C115.237 60.2265 115.375 60.4474 115.375 60.6684V71.079C115.375 71.2999 115.265 71.5208 115.044 71.6313L102.814 78.7006C102.814 78.7006 102.593 78.7834 102.482 78.7834C102.372 78.7834 102.261 78.7558 102.151 78.7006C101.958 78.5901 101.82 78.3692 101.82 78.1483V67.7377C101.82 67.5167 101.93 67.2958 102.151 67.1854L114.381 60.1161H114.409Z" fill="#D0E1EE"/>
<path d="M113.415 43.7142V49.4856L118.357 46.6413V40.8699L113.415 43.7142Z" fill="#222222"/>
<path d="M111.565 43.2992L58.888 12.8956L45.9397 20.4068L98.6164 50.8379L111.565 43.2992Z" fill="url(#paint2_linear_1406_80619)"/>
<path d="M117.97 39.5994L65.2932 9.16821L60.1857 12.1506L112.862 42.5541L117.97 39.5994Z" fill="#222222"/>
<path d="M131.417 31.7845L78.7122 1.35339L66.5646 8.4227L119.241 38.8539L131.417 31.7845Z" fill="url(#paint3_linear_1406_80619)"/>
<path d="M1.32532 89.2222L60.1035 123.16V112.998L1.32532 79.0601V89.2222ZM31.7221 98.9977C31.7221 98.7768 31.8325 98.5559 32.0534 98.4454C32.2467 98.335 32.4951 98.335 32.6884 98.4454L54.0573 110.789C54.2505 110.9 54.3886 111.12 54.3886 111.341V117.361C54.3886 117.582 54.2781 117.803 54.0573 117.914C53.9468 117.969 53.8364 117.996 53.726 117.996C53.6155 117.996 53.5051 117.969 53.3947 117.914L32.0258 105.57C31.8325 105.459 31.6945 105.239 31.6945 105.018V98.9977H31.7221ZM7.04024 84.7486C7.04024 84.5277 7.15068 84.3068 7.37154 84.1964C7.5648 84.0859 7.81328 84.0859 8.00654 84.1964L29.3754 96.54C29.5687 96.6505 29.7067 96.8714 29.7067 97.0923V103.112C29.7067 103.333 29.5963 103.554 29.3754 103.665C29.265 103.72 29.1545 103.747 29.0441 103.747C28.9337 103.747 28.8232 103.72 28.7128 103.665L7.34394 91.3209C7.15068 91.2104 7.01264 90.9895 7.01264 90.7686V84.7486H7.04024Z" fill="#DFD9E4"/>
<path d="M133.32 65.9432V67.462C133.32 67.462 133.32 67.5173 133.32 67.5449C133.32 67.6001 133.32 67.6277 133.32 67.6829C133.32 67.7106 133.293 67.7658 133.265 67.7934C133.265 67.821 133.237 67.8762 133.21 67.9039C133.182 67.9315 133.155 67.9591 133.099 67.9867C133.099 67.9867 133.072 68.0143 133.044 68.0419L98.9755 87.8415C98.9755 87.8415 98.9755 87.8415 98.9479 87.8415C98.8651 87.8967 98.7546 87.9244 98.6442 87.9244C98.5338 87.9244 98.4509 87.8967 98.3405 87.8415C98.3405 87.8415 98.3405 87.8415 98.3129 87.8415L95.5245 86.2399V88.6423C95.5245 88.6423 95.5245 88.6976 95.5245 88.7252C95.5245 88.7804 95.5245 88.808 95.5245 88.8633C95.5245 88.8909 95.4968 88.9461 95.4692 88.9737C95.4692 89.0013 95.4416 89.0565 95.414 89.0842C95.3864 89.1118 95.3588 89.1394 95.3036 89.167C95.3036 89.167 95.276 89.1946 95.2484 89.2222L61.1797 109.022C61.1797 109.022 61.1797 109.022 61.1521 109.022C61.0693 109.077 60.9588 109.105 60.8484 109.105C60.738 109.105 60.6551 109.077 60.5447 109.022C60.5447 109.022 60.5447 109.022 60.5171 109.022L6.51517 77.7899C6.51517 77.7899 6.48757 77.7622 6.45996 77.7346C6.43235 77.7346 6.37713 77.6794 6.34952 77.6518C6.34952 77.6242 6.29431 77.5965 6.29431 77.5413C6.29431 77.5137 6.2667 77.4585 6.23909 77.4309C6.23909 77.3756 6.23909 77.348 6.23909 77.2928C6.23909 77.2928 6.23909 77.2376 6.23909 77.2099V75.4702L2.01501 77.9279L61.014 112.004L137.075 68.0696L133.375 65.9432H133.32Z" fill="url(#paint4_radial_1406_80619)"/>
<path d="M61.3732 123.409L65.7077 120.896V114.047C65.7077 113.827 65.8181 113.606 66.039 113.495L127.081 78.121C127.081 78.121 127.136 78.0934 127.164 78.0658L133.182 74.5864C133.376 74.4759 133.624 74.4759 133.817 74.5864C134.011 74.6968 134.149 74.9178 134.149 75.1387V81.2415L137.683 79.3085V69.174L61.4008 113.219V123.381L61.3732 123.409Z" fill="#C2BACC"/>
<path d="M28.4094 97.4519L8.31055 85.8815V90.4103L28.4094 102.008V97.4519Z" fill="#787878"/>
<path d="M132.851 81.2137V76.2708L128.737 78.6732L132.851 81.2137Z" fill="#787878"/>
<path d="M60.1586 73.0949L7.48193 42.6637V76.878L60.1586 107.309V73.0949ZM18.3044 79.7499C18.3044 79.9709 18.194 80.1918 17.9731 80.3022C17.8627 80.3575 17.7522 80.3851 17.6418 80.3851C17.5314 80.3851 17.4209 80.3575 17.3105 80.3022L10.436 76.3257C10.2428 76.2153 10.1047 75.9944 10.1047 75.7734V61.8005C10.1047 61.5796 10.2152 61.3587 10.436 61.2482C10.6293 61.1378 10.8778 61.1378 11.071 61.2482L17.9455 65.2247C18.1388 65.3352 18.2768 65.5561 18.2768 65.777V79.7499H18.3044ZM29.4582 86.1013C29.4582 86.3222 29.3477 86.5431 29.1269 86.6536C29.0164 86.7088 28.906 86.7364 28.7956 86.7364C28.6851 86.7364 28.5747 86.7088 28.4643 86.6536L21.5898 82.6771C21.3965 82.5666 21.2585 82.3457 21.2585 82.1248V68.1519C21.2585 67.9309 21.3689 67.71 21.5898 67.5996C21.7831 67.4891 22.0315 67.4891 22.2248 67.5996L29.0993 71.5761C29.2925 71.6865 29.4306 71.9074 29.4306 72.1283V86.1013H29.4582Z" fill="#222222"/>
<path d="M53.0915 111.7L32.9927 100.102V104.631L53.0915 116.229V111.7Z" fill="#787878"/>
<path d="M22.5837 81.7391L28.1606 84.97V72.4882L22.5837 69.2573V81.7391Z" fill="#787878"/>
<path d="M138.842 67.7383C138.842 67.7383 138.76 67.6279 138.677 67.5726C138.677 67.5726 138.677 67.545 138.649 67.545L133.348 64.4798V31.7843C133.348 31.6738 133.321 31.591 133.265 31.5081C133.265 31.5081 133.238 31.4529 133.21 31.4253C133.155 31.37 133.127 31.3148 133.045 31.2596C133.045 31.2596 133.045 31.232 133.017 31.232L79.0427 0.0828434C78.8494 -0.0276145 78.601 -0.0276145 78.4077 0.0828434L44.339 19.8824C44.339 19.8824 44.339 19.91 44.3114 19.91C44.2562 19.9653 44.201 19.9929 44.1457 20.0757C44.1457 20.0757 44.1181 20.131 44.0905 20.131C44.0353 20.2138 44.0077 20.3243 44.0077 20.4347V22.8372L41.2193 21.2355C41.026 21.1251 40.7775 21.1251 40.5843 21.2355L6.51557 41.0351C6.51557 41.0351 6.51557 41.0627 6.48796 41.0627C6.43274 41.1179 6.37753 41.1456 6.32231 41.2284C6.32231 41.2284 6.2947 41.2836 6.26709 41.2836C6.21188 41.3665 6.18427 41.4769 6.18427 41.5874V74.062L0.3313 77.431C0.3313 77.431 0.3313 77.4586 0.303692 77.4586C0.248475 77.5138 0.193258 77.5415 0.138042 77.6243C0.138042 77.6243 0.110433 77.6795 0.082825 77.7071C0.0276083 77.79 0 77.9004 0 78.0109V89.6642C0 89.6642 0 89.7194 0 89.747C0 89.8023 0 89.8299 0 89.8851C0 89.9127 0.0276083 89.968 0.0552167 89.9956C0.0552167 90.0232 0.082825 90.0508 0.110433 90.106C0.138042 90.1337 0.16565 90.1613 0.220867 90.1889C0.220867 90.1889 0.248475 90.2165 0.276083 90.2441L60.1034 124.79C60.2138 125.011 60.4347 125.149 60.6831 125.149C60.7384 125.149 60.766 125.149 60.8212 125.149C60.8488 125.149 60.8764 125.149 60.904 125.149C61.0144 125.149 61.1249 125.121 61.2353 125.066L66.6465 121.946C66.6465 121.946 66.6741 121.918 66.7018 121.89C66.7294 121.89 66.7846 121.835 66.8122 121.807C66.8122 121.78 66.8674 121.752 66.8674 121.697C66.8674 121.669 66.895 121.614 66.9226 121.587C66.9226 121.531 66.9226 121.504 66.9226 121.448C66.9226 121.448 66.9226 121.393 66.9226 121.366V114.517L127.385 79.4745L133.072 82.9815C133.072 82.9815 133.072 82.9815 133.1 82.9815C133.183 83.0367 133.293 83.0643 133.404 83.0643C133.514 83.0643 133.597 83.0367 133.68 82.9815C133.68 82.9815 133.68 82.9815 133.707 82.9815L138.539 80.3581C138.732 80.2477 138.87 80.0268 138.87 79.8058V68.1525C138.87 68.1525 138.842 67.9592 138.787 67.8488C138.787 67.8488 138.76 67.7935 138.732 67.7935L138.842 67.7383ZM112.449 51.1696C112.449 51.1696 112.67 51.2525 112.78 51.2525C112.891 51.2525 113.001 51.2248 113.111 51.1696L119.323 47.5797C119.517 47.4693 119.655 47.2484 119.655 47.0274V40.1238L132.051 32.9165V67.1308L99.2796 86.1848V51.9704L112.145 44.4869V50.6173C112.145 50.8383 112.256 51.0592 112.476 51.1696H112.449ZM113.415 49.5128V43.7413L118.357 40.8694V46.6409L113.415 49.4851V49.5128ZM78.739 1.38072L131.416 31.8119L119.268 38.8812L66.5913 8.45003L78.739 1.38072ZM65.3213 9.19562L117.998 39.6268L112.891 42.6091L60.2138 12.178L65.3213 9.19562ZM58.9162 12.9236L111.593 43.3547L98.6446 50.8935L45.9679 20.4623L58.9162 12.9236ZM45.3329 21.5669L98.0096 51.9981V86.2124L95.5249 84.7764V52.9646C95.5249 52.8541 95.4973 52.7713 95.442 52.6884C95.442 52.6884 95.4144 52.6332 95.3868 52.6332C95.3316 52.578 95.304 52.5227 95.2212 52.4675C95.2212 52.4675 95.2212 52.4399 95.1936 52.4399L45.3053 23.638V21.6221L45.3329 21.5669ZM74.653 72.3223C74.653 72.3223 74.8738 72.4052 74.9843 72.4052C75.0947 72.4052 75.2051 72.3775 75.3156 72.3223L81.5274 68.7324C81.7207 68.622 81.8587 68.401 81.8587 68.1801V61.2765L94.2549 54.0691V88.2835L61.4838 107.337V73.1231L74.3493 65.6396V71.77C74.3493 71.9909 74.4597 72.2118 74.6806 72.3223H74.653ZM75.6193 70.6654V64.894L80.5611 62.0221V67.7935L75.6193 70.6378V70.6654ZM40.9432 22.5334L44.2286 24.4388C44.2286 24.4388 44.4218 24.6045 44.5599 24.6321L93.6199 52.9646L81.4722 60.0339L28.7955 29.6027L40.9432 22.5334ZM27.5255 30.3483L80.2022 60.7795L75.0947 63.7618L22.418 33.3307L27.5255 30.3483ZM21.1204 34.0763L73.7971 64.5074L60.8488 72.0462L8.11685 41.5598L21.0652 34.021L21.1204 34.0763ZM7.53708 42.7196L60.2138 73.1507V107.365L7.48186 76.8787V42.6644L7.53708 42.7196ZM60.1586 123.216L1.3252 89.2224V79.0602L60.1034 112.998V123.161L60.1586 123.216ZM61.0144 112.087L1.96019 77.9557L6.18427 75.498V77.2377C6.18427 77.2377 6.18427 77.2929 6.18427 77.3205C6.18427 77.3758 6.18427 77.4034 6.18427 77.4586C6.18427 77.4862 6.21188 77.5414 6.23949 77.5691C6.23949 77.5967 6.26709 77.6243 6.2947 77.6795C6.32231 77.7071 6.34992 77.7347 6.40514 77.7624C6.40514 77.7624 6.43274 77.79 6.46035 77.8176L60.4347 108.967C60.4347 108.967 60.4347 108.967 60.4623 108.967C60.5451 109.022 60.6555 109.05 60.766 109.05C60.8764 109.05 60.9592 109.022 61.0697 108.967C61.0697 108.967 61.0697 108.967 61.0973 108.967L95.166 89.1671C95.166 89.1671 95.1936 89.1395 95.2212 89.1119C95.2488 89.1119 95.2764 89.0567 95.3316 89.0291C95.3592 89.0015 95.3868 88.9738 95.3868 88.9186C95.3868 88.891 95.4144 88.8634 95.442 88.8082C95.442 88.7529 95.442 88.7253 95.442 88.6701C95.442 88.6701 95.442 88.6149 95.442 88.5872V86.1848L98.2305 87.7864C98.2305 87.7864 98.2305 87.7864 98.2581 87.7864C98.3409 87.8417 98.4513 87.8693 98.5618 87.8693C98.6722 87.8693 98.755 87.8417 98.8655 87.7864C98.8655 87.7864 98.8655 87.7864 98.8931 87.7864L132.962 67.9868C132.962 67.9868 132.989 67.9592 133.017 67.9316C133.045 67.9316 133.072 67.8764 133.127 67.8488C133.127 67.8212 133.183 67.7935 133.183 67.7383C133.183 67.7107 133.21 67.6555 133.238 67.6279C133.238 67.5726 133.238 67.545 133.238 67.4898C133.238 67.4898 133.238 67.4345 133.238 67.4069V65.8881L136.937 68.0145L60.8764 111.949L61.0144 112.087ZM132.907 81.2694L128.793 78.7289L132.907 76.354V81.297V81.2694ZM137.738 79.4192L134.204 81.3522V75.2494C134.204 75.0285 134.094 74.8076 133.873 74.6972C133.68 74.5867 133.431 74.5867 133.238 74.6972L127.219 78.1766C127.219 78.1766 127.164 78.1766 127.136 78.2318L66.0944 113.606C65.9011 113.716 65.7631 113.937 65.7631 114.158V121.007L61.4286 123.52V113.357L137.71 69.3123V79.4468L137.738 79.4192Z" fill="#222222"/>
<path d="M18.0004 65.1982L11.126 61.2218C10.9327 61.1113 10.6842 61.1113 10.491 61.2218C10.2977 61.3322 10.1597 61.5531 10.1597 61.774V75.747C10.1597 75.9679 10.2701 76.1888 10.491 76.2993L17.3654 80.2757C17.3654 80.2757 17.5863 80.3586 17.6967 80.3586C17.8072 80.3586 17.9176 80.331 18.028 80.2757C18.2213 80.1653 18.3593 79.9444 18.3593 79.7235V65.7505C18.3593 65.5296 18.2489 65.3087 18.028 65.1982H18.0004ZM17.0341 78.6189L11.4297 75.388V62.9062L17.0341 66.1371V78.6189Z" fill="url(#paint5_linear_1406_80619)"/>
<path d="M29.1264 71.5491L22.2519 67.5726C22.0587 67.4621 21.8102 67.4621 21.6169 67.5726C21.4237 67.683 21.2856 67.904 21.2856 68.1249V82.0978C21.2856 82.3187 21.3961 82.5396 21.6169 82.6501L28.4914 86.6266C28.4914 86.6266 28.7123 86.7094 28.8227 86.7094C28.9332 86.7094 29.0436 86.6818 29.154 86.6266C29.3473 86.5161 29.4853 86.2952 29.4853 86.0743V72.1014C29.4853 71.8804 29.3749 71.6595 29.154 71.5491H29.1264ZM28.1601 84.9697L22.5556 81.7388V69.2571L28.1601 72.488V84.9697Z" fill="url(#paint6_linear_1406_80619)"/>
<path d="M7.37144 91.3211L28.7403 103.665C28.7403 103.665 28.9612 103.748 29.0716 103.748C29.182 103.748 29.2925 103.72 29.4029 103.665C29.5962 103.554 29.7342 103.333 29.7342 103.113V97.0926C29.7342 96.8717 29.6238 96.6507 29.4029 96.5403L8.03404 84.1966C7.84078 84.0862 7.59231 84.0862 7.39905 84.1966C7.20579 84.3071 7.06775 84.528 7.06775 84.7489V90.7689C7.06775 90.9898 7.17818 91.2107 7.39905 91.3211H7.37144ZM8.33773 85.8535L28.409 97.4515V101.98L8.33773 90.3822V85.8535Z" fill="#222222"/>
<path d="M32.0255 105.57L53.3944 117.914C53.3944 117.914 53.6152 117.997 53.7257 117.997C53.8361 117.997 53.9465 117.969 54.057 117.914C54.2502 117.803 54.3883 117.582 54.3883 117.362V111.342C54.3883 111.121 54.2778 110.9 54.057 110.789L32.6881 98.4456C32.4948 98.3352 32.2464 98.3352 32.0531 98.4456C31.8598 98.5561 31.7218 98.777 31.7218 98.9979V105.018C31.7218 105.239 31.8322 105.46 32.0531 105.57H32.0255ZM32.9918 100.103L53.063 111.701V116.229L32.9918 104.631V100.103Z" fill="#222222"/>
<defs>
<linearGradient id="paint0_linear_1406_80619" x1="12.4556" y1="76.042" x2="71.1076" y2="37.7692" gradientUnits="userSpaceOnUse">
<stop stop-color="#FFB6D5"/>
<stop offset="0.1" stop-color="#FFE3C0"/>
<stop offset="0.29" stop-color="#C7FBDB"/>
<stop offset="0.43" stop-color="#C7CDF4"/>
<stop offset="0.54" stop-color="#FFBCD4"/>
<stop offset="0.66" stop-color="#FFE0C3"/>
<stop offset="0.76" stop-color="#B0F1D4"/>
<stop offset="0.84" stop-color="#C9CEEC"/>
<stop offset="0.91" stop-color="#FFC1DA"/>
<stop offset="1" stop-color="#BDFFE3"/>
</linearGradient>
<linearGradient id="paint1_linear_1406_80619" x1="33.0538" y1="64.0104" x2="91.0097" y2="26.2131" gradientUnits="userSpaceOnUse">
<stop stop-color="#FFB6D5"/>
<stop offset="0.1" stop-color="#FFE3C0"/>
<stop offset="0.29" stop-color="#C7FBDB"/>
<stop offset="0.43" stop-color="#C7CDF4"/>
<stop offset="0.54" stop-color="#FFBCD4"/>
<stop offset="0.66" stop-color="#FFE0C3"/>
<stop offset="0.76" stop-color="#B0F1D4"/>
<stop offset="0.84" stop-color="#C9CEEC"/>
<stop offset="0.91" stop-color="#FFC1DA"/>
<stop offset="1" stop-color="#BDFFE3"/>
</linearGradient>
<linearGradient id="paint2_linear_1406_80619" x1="50.2789" y1="54.9172" x2="108.931" y2="16.6444" gradientUnits="userSpaceOnUse">
<stop stop-color="#FFB6D5"/>
<stop offset="0.1" stop-color="#FFE3C0"/>
<stop offset="0.29" stop-color="#C7FBDB"/>
<stop offset="0.43" stop-color="#C7CDF4"/>
<stop offset="0.54" stop-color="#FFBCD4"/>
<stop offset="0.66" stop-color="#FFE0C3"/>
<stop offset="0.76" stop-color="#B0F1D4"/>
<stop offset="0.84" stop-color="#C9CEEC"/>
<stop offset="0.91" stop-color="#FFC1DA"/>
<stop offset="1" stop-color="#BDFFE3"/>
</linearGradient>
<linearGradient id="paint3_linear_1406_80619" x1="70.8526" y1="42.8856" x2="128.818" y2="5.06576" gradientUnits="userSpaceOnUse">
<stop stop-color="#FFB6D5"/>
<stop offset="0.1" stop-color="#FFE3C0"/>
<stop offset="0.29" stop-color="#C7FBDB"/>
<stop offset="0.43" stop-color="#C7CDF4"/>
<stop offset="0.54" stop-color="#FFBCD4"/>
<stop offset="0.66" stop-color="#FFE0C3"/>
<stop offset="0.76" stop-color="#B0F1D4"/>
<stop offset="0.84" stop-color="#C9CEEC"/>
<stop offset="0.91" stop-color="#FFC1DA"/>
<stop offset="1" stop-color="#BDFFE3"/>
</linearGradient>
<radialGradient id="paint4_radial_1406_80619" cx="0" cy="0" r="1" gradientUnits="userSpaceOnUse" gradientTransform="translate(116.441 76.7535) rotate(-12.0911) scale(251.309 60.9665)">
<stop stop-color="#FFB6D5"/>
<stop offset="0.1" stop-color="#FFE3C0"/>
<stop offset="0.29" stop-color="#C7FBDB"/>
<stop offset="0.43" stop-color="#C7CDF4"/>
<stop offset="0.54" stop-color="#FFBCD4"/>
<stop offset="0.66" stop-color="#FFE0C3"/>
<stop offset="0.76" stop-color="#B0F1D4"/>
<stop offset="0.84" stop-color="#C9CEEC"/>
<stop offset="0.91" stop-color="#FFC1DA"/>
<stop offset="1" stop-color="#BDFFE3"/>
</radialGradient>
<linearGradient id="paint5_linear_1406_80619" x1="10.7018" y1="82.4249" x2="20.8869" y2="80.7856" gradientUnits="userSpaceOnUse">
<stop stop-color="#FFB6D5"/>
<stop offset="0.1" stop-color="#FFE3C0"/>
<stop offset="0.29" stop-color="#C7FBDB"/>
<stop offset="0.43" stop-color="#C7CDF4"/>
<stop offset="0.54" stop-color="#FFBCD4"/>
<stop offset="0.66" stop-color="#FFE0C3"/>
<stop offset="0.76" stop-color="#B0F1D4"/>
<stop offset="0.84" stop-color="#C9CEEC"/>
<stop offset="0.91" stop-color="#FFC1DA"/>
<stop offset="1" stop-color="#BDFFE3"/>
</linearGradient>
<linearGradient id="paint6_linear_1406_80619" x1="21.8278" y1="88.7758" x2="32.0129" y2="87.1364" gradientUnits="userSpaceOnUse">
<stop stop-color="#FFB6D5"/>
<stop offset="0.1" stop-color="#FFE3C0"/>
<stop offset="0.29" stop-color="#C7FBDB"/>
<stop offset="0.43" stop-color="#C7CDF4"/>
<stop offset="0.54" stop-color="#FFBCD4"/>
<stop offset="0.66" stop-color="#FFE0C3"/>
<stop offset="0.76" stop-color="#B0F1D4"/>
<stop offset="0.84" stop-color="#C9CEEC"/>
<stop offset="0.91" stop-color="#FFC1DA"/>
<stop offset="1" stop-color="#BDFFE3"/>
</linearGradient>
</defs>
</svg>
