<svg width="128" height="28" viewBox="0 0 128 28" fill="none" xmlns="http://www.w3.org/2000/svg">
<path d="M17.6551 2.53503V21.9517H13.0135V13.5917H4.64157V21.9517H0V2.53503H4.64157V9.87021H13.0135V2.53503H17.6551Z" fill="#222222"/>
<path d="M37.6731 14.7244C37.6731 19.201 34.1136 22.3022 29.1588 22.3022C24.1755 22.3022 20.6445 19.201 20.6445 14.7244C20.6445 10.2747 24.1755 7.14648 29.1588 7.14648C34.1136 7.14648 37.6731 10.2747 37.6731 14.7244ZM33.0885 14.7244C33.0885 11.6501 31.6932 10.5444 29.1588 10.5444C26.596 10.5444 25.2292 11.6501 25.2292 14.7244C25.2292 17.8256 26.596 18.9043 29.1588 18.9043C31.6932 18.9043 33.0885 17.8256 33.0885 14.7244Z" fill="#222222"/>
<path d="M47.3271 18.5535V21.9514H46.6152C42.6286 21.9514 40.322 19.9828 40.322 16.6118V0.215576H44.7358V16.477C44.7358 18.0951 45.3338 18.5535 46.843 18.5535H47.3271Z" fill="#222222"/>
<path d="M84.0323 7.49706V20.1718C84.0323 25.0529 81.5549 27.7766 75.461 27.7766C70.9049 27.7766 68.8546 25.7541 67.7726 22.8686H72.0155C72.4711 24.0551 73.6101 24.4596 75.518 24.4596C78.451 24.4596 79.6185 23.7855 79.6185 20.6572V19.4706C78.8212 20.6842 77.6537 21.4662 75.0339 21.4662C71.1327 21.4662 67.4878 18.4998 67.4878 14.4007C67.4878 10.1938 70.8764 7.14648 75.0339 7.14648C77.5398 7.14648 78.9066 8.25215 79.6185 9.38479V7.49706H84.0323ZM79.6185 13.2681C78.9636 11.3804 78.2232 10.5174 75.575 10.5174C73.4108 10.5174 72.0724 11.677 72.0724 14.4007C72.0724 17.4481 73.3823 18.365 75.6034 18.365C78.451 18.365 79.1629 17.4481 79.6185 15.5334V13.2681Z" fill="#222222"/>
<path d="M66.17 13.4661C66.17 17.9427 62.6105 21.0439 57.6571 21.0439C52.6738 21.0439 49.1428 17.9427 49.1428 13.4661C49.1428 9.01642 52.6738 5.88818 57.6571 5.88818C62.6119 5.88953 66.17 9.01642 66.17 13.4661Z" fill="url(#paint0_radial_1406_81605)"/>
<path d="M66.1752 12.6333C66.0893 11.9576 65.9052 11.318 65.6475 10.7268C65.6353 10.7027 65.623 10.6785 65.623 10.6544C65.5493 10.4855 65.4634 10.3286 65.3775 10.1717C65.2548 9.94248 65.1075 9.72528 64.9603 9.52015C63.4385 7.26375 60.6282 5.88818 57.1428 5.88818C54.5534 5.88818 52.2217 6.68456 50.5649 8.12046C50.0863 8.53071 49.6813 9.0013 49.3377 9.50809C49.2272 9.66495 49.1168 9.80975 49.0309 9.97867C48.9327 10.1476 48.8468 10.3045 48.7732 10.4734C48.4663 11.0767 48.2577 11.7283 48.1473 12.404C48.0491 12.8867 48 13.3814 48 13.8882C48 13.9968 48 14.1054 48.0123 14.214C48.0245 14.7931 48.1105 15.3361 48.2454 15.8671C48.3682 16.3859 48.5523 16.8806 48.7977 17.3512C49.2027 18.22 49.804 18.9922 50.5649 19.6559C52.2217 21.0918 54.5534 21.8882 57.1428 21.8882C59.7323 21.8882 62.064 21.0918 63.7085 19.6559C64.0153 19.3904 64.2976 19.1008 64.5185 18.7992C64.6289 18.6785 64.7394 18.5578 64.8376 18.4251C64.8744 18.3648 64.9235 18.3165 64.9603 18.2562C65.0707 18.1114 65.1689 17.9545 65.2548 17.7977C65.4266 17.5201 65.5739 17.2185 65.6843 16.9048C65.9911 16.217 66.1752 15.4689 66.2489 14.6845C66.2734 14.4191 66.2857 14.1536 66.2857 13.8882C66.2857 13.4538 66.2489 13.0435 66.1752 12.6333ZM50.6631 9.77355C52.2462 9.27883 53.9152 9.0375 55.5965 9.02543H58.7014C59.1064 9.02543 59.4991 8.88064 59.7937 8.61518C60.0882 8.34972 60.2477 7.99979 60.2477 7.62574V7.56541C60.7754 7.73433 61.2786 7.95153 61.7327 8.21699C61.6099 8.73584 61.3154 9.23056 60.8859 9.61668C60.3091 10.1355 59.5237 10.4372 58.7014 10.4372H55.5965C53.498 10.4372 51.4485 10.8716 49.5831 11.6921C49.8163 10.9922 50.1845 10.3407 50.6631 9.77355ZM49.2272 13.8882C49.2272 13.7434 49.2272 13.5865 49.2518 13.4417C51.154 12.404 53.3507 11.849 55.5965 11.849H58.7014C59.8796 11.8369 61.0086 11.4387 61.8799 10.7027C62.3954 10.2683 62.7758 9.73735 63.0335 9.15816C63.4385 9.53222 63.7944 9.95454 64.0767 10.4131C63.6717 11.0646 63.1072 11.6438 62.4445 12.1024C61.3645 12.8505 60.0514 13.2487 58.7014 13.2487H55.5965C53.3384 13.2487 51.1417 13.9002 49.3254 15.0827C49.264 14.6966 49.2272 14.2984 49.2272 13.8882ZM63.6962 17.9063C62.1254 18.5458 60.4318 18.8836 58.7014 18.8836H55.5965C54.8847 18.8836 54.1852 19.0284 53.5593 19.306C53.3016 19.4266 53.0684 19.5594 52.8353 19.7162C52.3567 19.4749 51.9149 19.1974 51.5344 18.8595C51.9271 18.5337 52.3812 18.2683 52.8598 18.0511C53.7066 17.677 54.6393 17.4719 55.5965 17.4719H58.7014C60.8982 17.4719 63.0335 16.8686 64.813 15.7464C64.5921 16.5428 64.2117 17.2667 63.6962 17.9063ZM62.9354 15.1431C61.6222 15.7464 60.1741 16.0601 58.7014 16.0601H55.5965C54.4552 16.0601 53.3262 16.2894 52.283 16.7358C51.6326 17.0134 51.0435 17.3753 50.5035 17.8097C50.1967 17.4236 49.9513 17.0013 49.7672 16.5428C50.4054 16.0601 51.1172 15.674 51.8658 15.3723C53.0439 14.9017 54.3079 14.6604 55.5965 14.6604H58.7014C60.1495 14.6604 61.5731 14.2864 62.8004 13.5865C63.5612 13.1521 64.2362 12.6091 64.7885 11.9817C64.9603 12.5367 65.0462 13.1401 65.0585 13.7796C64.4326 14.3226 63.7085 14.7811 62.9354 15.1431Z" fill="#222222"/>
<path d="M97.9287 7.44313V11.3265C97.4731 11.1377 96.7897 11.0298 95.9354 11.0298C93.4295 11.0298 91.7495 12.1624 91.7495 15.2098V21.9517H87.3357V7.49706H91.7495V9.60053C92.5183 8.09035 94.1414 7.14648 96.1917 7.14648C96.8466 7.14648 97.5016 7.25436 97.9287 7.44313Z" fill="#222222"/>
<path d="M115.299 18.5537V21.9517H114.644C112.138 21.9517 111.227 21.3314 110.572 20.1988C109.889 21.4393 107.782 22.3022 105.304 22.3022C102.172 22.3022 99.125 20.819 99.125 17.5829C99.125 14.4008 102.628 13.0254 105.902 13.0254C107.086 13.0054 108.258 13.2551 109.319 13.7535V12.6748C109.319 11.0028 108.75 10.3286 106.614 10.3286C105.133 10.3286 104.365 10.5444 103.994 11.5961H99.6945C100.777 8.38699 103.311 7.14648 106.586 7.14648C111.199 7.14648 113.733 9.22299 113.733 12.8366V17.3402C113.733 18.2841 114.189 18.5537 114.929 18.5537H115.299ZM109.319 16.4503C108.551 15.9379 107.839 15.6413 106.045 15.6413C104.222 15.6413 103.653 16.1536 103.653 17.4211C103.653 18.6077 104.222 19.1201 105.874 19.1201C107.582 19.1201 108.494 18.9043 109.319 17.8526V16.4503Z" fill="#222222"/>
<path d="M128 0.350721V3.72166C127.214 3.50539 126.399 3.39643 125.58 3.39805C124.241 3.39805 123.444 3.99134 123.444 5.52849V7.49712H127.715V10.895H123.444V21.9517H119.03V10.895H116.012V7.49712H119.03V5.50152C119.03 2.31935 121.65 0.000142005 124.868 0.000142005C125.923 -0.00467478 126.975 0.113064 128 0.350721Z" fill="#222222"/>
<defs>
<radialGradient id="paint0_radial_1406_81605" cx="0" cy="0" r="1" gradientUnits="userSpaceOnUse" gradientTransform="translate(63.5686 9.44515) rotate(-29.2095) scale(35.4933 17.9066)">
<stop stop-color="#FFB6D5"/>
<stop offset="0.1" stop-color="#FFE3C0"/>
<stop offset="0.29" stop-color="#C7FBDB"/>
<stop offset="0.43" stop-color="#C7CDF4"/>
<stop offset="0.54" stop-color="#FFBCD4"/>
<stop offset="0.66" stop-color="#FFE0C3"/>
<stop offset="0.76" stop-color="#B0F1D4"/>
<stop offset="0.84" stop-color="#C9CEEC"/>
<stop offset="0.91" stop-color="#FFC1DA"/>
<stop offset="1" stop-color="#BDFFE3"/>
</radialGradient>
</defs>
</svg>
