<svg width="238" height="79" viewBox="0 0 238 79" fill="none" xmlns="http://www.w3.org/2000/svg">
<path d="M129.398 -25.25C129.398 -25.2499 129.397 -25.2499 129.397 -25.25C125.037 -27.5503 119.962 -29.3809 114.487 -30.9474C114.012 -31.0832 113.521 -31.181 113.02 -31.2472C109.679 -31.6891 106.447 -32.2323 103.385 -32.9328C103.32 -32.9427 103.281 -32.8531 103.342 -32.8316C108.047 -31.1572 112.389 -29.2706 116.141 -27.0407C138.776 -13.5847 148.917 19.9788 178.481 26.4942C189.412 28.9032 200.795 27.1283 212.257 23.8274C206.113 24.9037 199.977 25.1446 193.878 24.0785C164.752 18.9846 152.35 -13.139 129.399 -25.25C129.399 -25.2502 129.398 -25.2502 129.398 -25.25Z" fill="#222222"/>
<path d="M212.257 23.8289C212.257 23.8289 212.257 23.8289 212.257 23.8289C217.4 22.9277 222.549 21.441 227.687 19.644C225.832 20.0923 223.97 20.4626 222.103 20.7398C221.913 20.768 221.724 20.8136 221.54 20.8768C218.444 21.9367 215.347 22.9381 212.257 23.8284C212.256 23.8285 212.256 23.8288 212.257 23.8289Z" fill="#222222"/>
<path d="M227.688 19.6433C227.688 19.6436 227.688 19.6438 227.688 19.6437C232.641 18.4471 237.555 16.6946 242.433 14.6628C240.948 15.1288 239.455 15.5432 237.954 15.8981C237.276 16.0584 236.605 16.2633 235.952 16.5247C233.202 17.6252 230.446 18.6789 227.688 19.6431C227.688 19.6431 227.688 19.6432 227.688 19.6433Z" fill="#222222"/>
<path d="M155.281 -23.7919C155.281 -23.7918 155.28 -23.7916 155.28 -23.7917C148.738 -26.4667 140.879 -28.047 132.565 -29.2438C129.54 -29.4105 126.571 -29.6331 123.693 -29.9522C130.59 -28.5001 137.03 -26.7074 142.467 -24.174C165.601 -13.3914 180.068 17.2169 208.634 20.9464C213.012 21.5178 217.356 21.4103 221.669 20.8026C221.768 20.7885 221.867 20.7645 221.964 20.7312C222.292 20.6184 222.62 20.505 222.947 20.391C224.386 19.8903 224.137 17.2677 222.691 17.1416C194.797 14.7124 178.466 -14.3119 155.281 -23.7921C155.281 -23.7922 155.28 -23.792 155.281 -23.7919Z" fill="#222222"/>
<path d="M236.748 15.4072C236.156 15.6216 236.273 16.2739 236.882 16.1421C236.916 16.1348 236.949 16.1244 236.982 16.1113C240.519 14.681 244.046 13.1821 247.557 11.7063C247.584 11.695 247.575 11.658 247.547 11.664C243.975 12.8178 240.371 14.0938 236.748 15.4072Z" fill="#222222"/>
<path d="M248.498 7.71501C248.498 7.71483 248.498 7.71466 248.498 7.71466C222.257 7.67567 202.807 -18.0298 179.892 -25.0035C170.893 -27.7423 159.843 -28.3054 148.608 -28.6607C146.206 -28.6641 143.828 -28.6946 141.493 -28.775C151.045 -27.9538 160.21 -26.7639 167.777 -24.0761C190.888 -15.8679 208.881 11.5183 235.996 12.7156C239.959 12.891 243.801 12.4916 247.549 11.6649C247.705 11.6141 247.862 11.5642 248.018 11.5141C251.573 10.0212 255.112 8.55565 258.629 7.21228C259.989 6.55889 261.348 5.90767 262.703 5.26518C258.186 6.80427 253.478 7.72241 248.498 7.71537C248.498 7.71537 248.498 7.7152 248.498 7.71501Z" fill="#222222"/>
<path d="M322.863 -31.9601C322.863 -31.96 322.863 -31.9599 322.863 -31.9599C345.002 -39.8366 382.485 -33.658 398.48 -46.9717C402.674 -50.4627 404.874 -54.8648 405.978 -59.7678C406.216 -61.7763 406.45 -63.787 406.717 -65.7804C406.823 -68.002 406.895 -70.2403 406.989 -72.469C406.833 -83.3785 405.213 -94.9689 409.354 -103.957C416.962 -120.468 449.422 -135.359 447.689 -153.914C447.21 -159.03 444.204 -163.656 439.877 -168.003C438.179 -169.482 436.484 -170.956 434.83 -172.43C432.774 -174.048 430.685 -175.656 428.625 -177.261C418.017 -184.913 405.88 -192.128 400.35 -200.334C389.338 -216.67 397.302 -244.09 378.952 -255.986C374.141 -259.106 368.112 -260.773 361.413 -261.644C358.672 -261.843 355.927 -262.04 353.206 -262.26C350.176 -262.365 347.123 -262.445 344.083 -262.542C329.211 -262.561 313.428 -261.516 301.122 -264.664C278.517 -270.447 257.814 -294.441 232.537 -293.397C225.567 -293.11 219.297 -290.961 213.422 -287.84C211.427 -286.613 209.438 -285.388 207.449 -284.193C205.268 -282.704 203.102 -281.192 200.938 -279.7C190.637 -272.013 180.947 -263.199 169.828 -259.243C147.689 -251.366 110.205 -257.545 94.2105 -244.231C90.0162 -240.74 87.8169 -236.338 86.7121 -231.435C86.4743 -229.426 86.24 -227.416 85.9736 -225.422C85.8679 -223.201 85.7955 -220.962 85.701 -218.734C85.8578 -207.824 87.4769 -196.234 83.3362 -187.246C75.7288 -170.735 43.2681 -155.843 45.0019 -137.289C45.4802 -132.173 48.4863 -127.547 52.8136 -123.199C54.5112 -121.721 56.2062 -120.246 57.8606 -118.773C59.9169 -117.154 62.0055 -115.547 64.0659 -113.942C74.6737 -106.291 86.8099 -99.0743 92.3407 -90.8692C103.352 -74.5329 95.3888 -47.1127 113.738 -35.2164C118.549 -32.0967 124.579 -30.4293 131.277 -29.5586C134.019 -29.3596 136.763 -29.1629 139.484 -28.943C142.514 -28.8382 145.567 -28.7576 148.607 -28.6609C163.48 -28.6418 179.263 -29.687 191.569 -26.5392C214.174 -20.7559 234.877 3.23845 260.153 2.19467C267.123 1.90675 273.394 -0.241533 279.268 -3.36235C281.263 -4.58942 283.253 -5.81468 285.241 -7.01014C287.423 -8.4986 289.589 -10.011 291.752 -11.5026C302.053 -19.1898 311.743 -28.0034 322.863 -31.9604C322.863 -31.9604 322.863 -31.9603 322.863 -31.9601ZM270.927 -3.79118C246.691 -1.74652 224.942 -24.0095 202.753 -28.6507C179.752 -33.4624 145.781 -23.1028 127.22 -33.8084C108.66 -44.5141 114.224 -71.2567 102.382 -86.5409C90.9596 -101.285 56.3811 -111.509 53.2955 -129.312C50.2098 -147.115 80.297 -162.796 86.3523 -179.014C92.6302 -195.828 78.0878 -220.874 92.4563 -234.358C106.825 -247.841 143.356 -243.431 164.049 -251.93C184.012 -260.127 197.527 -285.366 221.762 -287.411C245.998 -289.456 267.748 -267.193 289.936 -262.552C312.937 -257.74 346.908 -268.099 365.469 -257.394C384.029 -246.688 378.466 -219.946 390.307 -204.661C401.73 -189.917 436.308 -179.693 439.394 -161.89C442.479 -144.087 412.392 -128.407 406.337 -112.188C400.059 -95.3745 414.601 -70.328 400.233 -56.8445C385.864 -43.361 349.334 -47.771 328.64 -39.2726C308.677 -31.0749 295.163 -5.83581 270.927 -3.79118Z" fill="#222222"/>
<path d="M400.952 -66.5376C400.952 -66.5374 400.953 -66.5374 400.953 -66.5376C413.725 -80.0995 397.844 -103.597 402.59 -120.029C407.17 -135.881 434.875 -152.202 430.551 -169.201C426.228 -186.202 392.231 -194.617 380.131 -208.333C367.589 -222.55 370.893 -248.506 352.245 -258.042C333.597 -267.579 301.753 -256.217 279.291 -259.901C257.621 -263.455 235.028 -283.979 211.903 -281.016C188.777 -278.054 177.72 -253.219 159.169 -244.512C139.938 -235.487 104.508 -238.229 91.7349 -224.667C78.9614 -211.105 94.8437 -187.607 90.0968 -171.175C85.5174 -155.323 57.8118 -139.002 62.1358 -122.003C66.4595 -105.002 100.457 -96.5867 112.556 -82.8722C125.098 -68.6544 121.795 -42.699 140.443 -33.1624C159.091 -23.6259 190.934 -34.9874 213.397 -31.3034C235.066 -27.7493 257.659 -7.22551 280.785 -10.1884C303.911 -13.1511 314.967 -37.9861 333.518 -46.6931C352.748 -55.7183 388.177 -52.9763 400.951 -66.5376C400.951 -66.5378 400.952 -66.5378 400.952 -66.5376ZM289.703 -16.936C267.746 -13.1416 244.51 -31.931 223.454 -34.4554C201.626 -37.0733 171.947 -24.8533 153.333 -33.2495C134.718 -41.6457 135.91 -66.7139 122.795 -79.857C110.144 -92.5354 76.8911 -99.225 71.4477 -115.378C66.0043 -131.531 91.3363 -148.345 94.5204 -163.759C97.8214 -179.739 80.7953 -201.659 92.0143 -215.211C103.233 -228.762 137.427 -227.58 155.186 -237.039C172.317 -246.163 181.029 -270.473 202.986 -274.268C224.943 -278.062 248.179 -259.273 269.235 -256.748C291.063 -254.13 320.742 -266.35 339.356 -257.954C357.971 -249.558 356.78 -224.49 369.894 -211.347C382.545 -198.668 415.798 -191.979 421.241 -175.826C426.685 -159.673 401.352 -142.859 398.169 -127.444C394.868 -111.465 411.894 -89.5442 400.675 -75.9928C389.456 -62.4414 355.262 -63.6234 337.503 -54.1647C320.372 -45.0406 311.66 -20.7305 289.703 -16.936Z" fill="#222222"/>
<path d="M399.442 -85.1617C409.156 -98.6178 391.182 -118.944 393.127 -134.404C395.003 -149.318 417.984 -166.481 411.542 -181.75C405.099 -197.019 372.744 -202.073 359.664 -213.714C346.104 -225.782 345.337 -249.874 326.87 -257.163C308.404 -264.454 280.911 -251.519 259.808 -253.135C239.45 -254.695 215.768 -271.764 195.028 -267.226C174.289 -262.688 167.796 -239.016 152.084 -229.564C135.796 -219.765 102.958 -219.499 93.2462 -206.042C83.533 -192.586 101.507 -172.26 99.562 -156.8C97.6859 -141.886 74.7048 -124.724 81.1471 -109.454C87.5894 -94.1853 119.944 -89.1314 133.025 -77.4898C146.585 -65.4218 147.352 -41.3306 165.818 -34.0409C184.285 -26.7505 211.777 -39.6851 232.881 -38.0687C253.238 -36.5092 276.921 -19.4406 297.66 -23.9786C318.4 -28.5166 324.893 -52.1882 340.605 -61.6401C356.892 -71.4388 389.73 -71.7054 399.442 -85.1617ZM304.644 -31.2584C285.161 -26.066 261.224 -41.4387 241.642 -42.1C221.344 -42.785 196.042 -29.2783 177.835 -35.5025C159.627 -41.7269 157.063 -64.7604 143.183 -75.7595C129.793 -86.3702 98.4776 -89.8867 91.1583 -104.241C83.839 -118.596 104.505 -135.967 105.166 -150.323C105.85 -165.204 87.1237 -183.93 95.3863 -197.209C103.649 -210.489 135.023 -212.086 149.849 -222.133C164.152 -231.824 168.561 -254.753 188.043 -259.945C207.526 -265.138 231.464 -249.765 251.045 -249.104C271.344 -248.419 296.645 -261.925 314.852 -255.701C333.06 -249.477 335.624 -226.443 349.504 -215.444C362.894 -204.833 394.21 -201.317 401.529 -186.962C408.848 -172.607 388.182 -155.237 387.521 -140.881C386.837 -126 405.564 -107.274 397.301 -93.9946C389.038 -80.7147 357.664 -79.1172 342.838 -69.0706C328.536 -59.3792 324.126 -36.451 304.644 -31.2584Z" fill="#222222"/>
<path d="M394.303 -102.445C401.181 -115.472 381.891 -132.601 381.417 -146.85C380.958 -160.594 399.362 -178.036 391.289 -191.456C383.216 -204.875 353.068 -206.957 339.487 -216.55C325.408 -226.495 321.214 -248.401 303.368 -253.606C285.522 -258.811 262.404 -244.872 242.982 -244.699C224.248 -244.531 200.24 -258.245 182.043 -252.489C163.846 -246.732 161.378 -224.642 148.465 -214.798C135.079 -204.593 105.263 -201.786 98.3851 -188.759C91.5076 -175.732 110.797 -158.602 111.272 -144.354C111.73 -130.61 93.3275 -113.167 101.399 -99.7481C109.472 -86.3288 139.621 -84.2468 153.202 -74.6536C167.281 -64.709 171.474 -42.8031 189.32 -37.598C207.167 -32.393 230.285 -46.332 249.706 -46.5051C268.44 -46.6725 292.448 -32.959 310.645 -38.7151C328.843 -44.4719 331.311 -66.5615 344.224 -76.4059C357.61 -86.6112 387.426 -89.4181 394.303 -102.445ZM344.786 -83.6008C333.234 -73.6868 332.555 -52.5216 315.663 -46.2908C298.771 -40.06 274.872 -52.1601 257.044 -51.2386C238.562 -50.2827 217.604 -36.0487 200.215 -40.2859C182.827 -44.5231 177.177 -65.2419 163.017 -74.1517C149.358 -82.7468 120.492 -83.5055 111.789 -95.9732C103.086 -108.441 119.29 -125.823 117.814 -138.912C116.284 -152.48 96.6187 -168.03 102.182 -180.733C107.746 -193.436 135.925 -197.326 147.9 -207.603C159.451 -217.517 160.13 -238.682 177.022 -244.913C193.915 -251.144 217.814 -239.044 235.641 -239.965C254.123 -240.921 275.081 -255.155 292.47 -250.918C309.858 -246.681 315.508 -225.962 329.668 -217.052C343.327 -208.457 372.193 -207.698 380.896 -195.23C389.599 -182.763 373.395 -165.381 374.871 -152.292C376.401 -138.723 396.066 -123.174 390.503 -110.471C384.939 -97.768 356.76 -93.878 344.786 -83.6008Z" fill="#222222"/>
</svg>
