<svg width="224" height="110" viewBox="0 0 224 110" fill="none" xmlns="http://www.w3.org/2000/svg">
<path d="M187.85 43.0803C187.85 43.0805 187.85 43.0807 187.85 43.0807C185.051 43.2872 182.184 43.9679 179.277 44.9259C178.66 45.129 178.072 45.4065 177.507 45.7252C176.03 46.5576 174.552 47.3053 173.071 47.928C173.03 47.9505 173.055 48.0147 173.1 48.0031C175.911 47.2929 178.67 46.8381 181.344 46.7964C197.474 46.5467 217.998 62.5738 233.724 55.7655C239.539 53.2481 243.526 48.116 246.81 42.0608C244.715 44.9002 242.22 47.2473 239.11 48.8147C224.256 56.2987 203.466 41.9283 187.851 43.0799C187.851 43.0799 187.85 43.0801 187.85 43.0803Z" fill="#222222"/>
<path d="M66.9149 -61.1442C66.9148 -61.1443 66.9147 -61.1445 66.9147 -61.1447C66.7082 -63.9431 66.0275 -66.8108 65.0695 -69.7181C64.8664 -70.3344 64.589 -70.9228 64.2703 -71.488C63.4378 -72.9643 62.6901 -74.4426 62.0674 -75.9237C62.045 -75.9651 61.9808 -75.94 61.9923 -75.8944C62.7025 -73.0831 63.1574 -70.3243 63.1991 -67.6505C63.4484 -51.5198 47.4214 -30.9962 54.2295 -15.27C56.7468 -9.45515 61.8789 -5.46853 67.9341 -2.18482C65.0947 -4.27954 62.7476 -6.77447 61.1802 -9.8845C53.6961 -24.7384 68.0666 -45.5286 66.915 -61.1436C66.915 -61.1438 66.9149 -61.144 66.9149 -61.1442Z" fill="#222222"/>
<path d="M105.789 16.0083C105.789 16.0083 105.789 16.0082 105.789 16.0082C103.633 14.1514 101.034 12.6049 98.1798 11.2284C98.0916 11.1859 97.9992 11.1522 97.9044 11.1274C96.0625 10.6456 94.2803 10.0901 92.5953 9.42155C92.5231 9.40046 92.4785 9.50283 92.5429 9.5415C94.7927 10.8921 96.8359 12.3657 98.5607 14.0351C110.576 25.6666 113.956 51.364 129.264 57.4228C132.055 58.5275 135.004 58.8845 138.062 58.7283C138.92 58.6845 138.803 56.5849 137.987 56.3157C122.812 51.3092 118.087 26.6007 105.789 16.0084C105.789 16.0084 105.789 16.0083 105.789 16.0083Z" fill="#222222"/>
<path d="M67.934 -2.18506C67.9341 -2.18503 67.9341 -2.18501 67.9341 -2.18499C70.3113 -0.4314 73.0335 1.0416 75.9337 2.36028C75.0256 1.80049 74.1587 1.20218 73.3421 0.558997C73.2187 0.461786 73.0849 0.37843 72.9424 0.312184C71.2289 -0.484612 69.5487 -1.31002 67.9343 -2.1853C67.9341 -2.18538 67.934 -2.18522 67.934 -2.18506Z" fill="#222222"/>
<path d="M147.434 56.9785C147.435 56.9784 147.435 56.9783 147.435 56.9782C150.332 56.5707 153.297 55.705 156.3 54.5938C155.624 54.7471 154.95 54.8754 154.279 54.9753C153.441 55.1 152.611 55.2779 151.812 55.5585C150.344 56.0744 148.883 56.5547 147.434 56.9785Z" fill="#222222"/>
<path d="M75.9338 2.36114C75.9336 2.36122 75.9336 2.36147 75.9337 2.36157C78.4156 3.89141 81.2088 5.13575 84.1533 6.23049C83.4906 5.89634 82.8464 5.54318 82.2232 5.16868C81.6129 4.80195 80.981 4.47062 80.3187 4.20917C78.8273 3.62043 77.3591 3.00937 75.934 2.36114C75.9339 2.36112 75.9338 2.36111 75.9338 2.36114Z" fill="#222222"/>
<path d="M156.301 54.5938C159.115 53.9549 161.971 52.8782 164.847 51.5777C164.172 51.7933 163.498 51.9831 162.825 52.144C162.103 52.3168 161.39 52.5312 160.707 52.8236C159.232 53.4552 157.762 54.0534 156.301 54.5938Z" fill="#222222"/>
<path d="M120.05 18.3209C120.05 18.321 120.05 18.321 120.05 18.3209C116.809 16.1298 112.758 14.6617 108.393 13.4419C106.702 13.177 105.04 12.8696 103.432 12.4883C107.011 13.8302 110.293 15.3896 112.965 17.4325C125.469 26.993 131.435 50.6462 146.408 54.6372C148.532 55.2034 150.696 55.335 152.889 55.1404C152.972 55.133 153.053 55.1147 153.131 55.0863C153.685 54.8853 154.239 54.6802 154.793 54.4721C155.574 54.1793 155.305 52.5853 154.488 52.4179C139.783 49.4018 132.681 26.8628 120.051 18.321C120.051 18.3209 120.05 18.3208 120.05 18.3209Z" fill="#222222"/>
<path d="M199.568 34.6327C199.568 34.6328 199.568 34.6329 199.568 34.633C195.492 35.4168 191.385 37.3154 187.269 39.6028C185.901 40.5922 184.53 41.5292 183.151 42.3766C186.788 40.7484 190.394 39.4843 193.931 39.0148C208.982 37.0189 229.919 49.759 243.876 41.6762C246.006 40.4424 247.797 38.8259 249.335 36.9291C249.383 36.8702 249.423 36.8054 249.454 36.7365C249.603 36.4152 249.75 36.0929 249.897 35.7697C250.274 34.9387 248.782 33.8909 248.02 34.3933C234.977 42.9963 214.012 31.855 199.568 34.6325C199.568 34.6325 199.568 34.6327 199.568 34.6327Z" fill="#222222"/>
<path d="M75.3646 -49.4266C75.3645 -49.4265 75.3644 -49.4265 75.3643 -49.4266C74.5805 -53.5024 72.6818 -57.6096 70.3945 -61.7257C69.4051 -63.0931 68.468 -64.4643 67.6207 -65.843C69.2489 -62.2067 70.513 -58.6006 70.9825 -55.0637C72.9784 -40.0124 60.2383 -19.0753 68.3211 -5.11842C69.5549 -2.98802 71.1713 -1.19733 73.0682 0.340424C73.1271 0.388213 73.1919 0.428314 73.2608 0.460138C73.582 0.60851 73.9044 0.755914 74.2276 0.902494C75.0586 1.27938 76.1064 -0.212428 75.604 -0.974209C67.001 -14.0169 78.1423 -34.9826 75.3648 -49.4266C75.3648 -49.4267 75.3646 -49.4267 75.3646 -49.4266Z" fill="#222222"/>
<path d="M171.054 48.6966C170.464 48.8962 169.883 49.1252 169.328 49.4082C167.83 50.1714 166.336 50.9046 164.847 51.5777C167.404 50.7616 169.974 49.5786 172.551 48.2083C172.583 48.1912 172.564 48.1428 172.529 48.1522C172.038 48.3485 171.546 48.5304 171.054 48.6966Z" fill="#222222"/>
<path d="M90.5338 8.51961C89.995 8.25966 89.4432 8.02647 88.8732 7.8447C87.2739 7.33461 85.6932 6.80269 84.1533 6.23047C86.4785 7.40205 89.0295 8.34066 91.6939 9.15269C91.7497 9.1697 91.7826 9.09398 91.732 9.065C91.3262 8.89069 90.9266 8.70913 90.5338 8.51961Z" fill="#222222"/>
<path d="M159.417 52.6973C159.417 52.6971 159.418 52.697 159.418 52.697C160.158 52.6373 160.901 52.5355 161.644 52.3961C161.703 52.385 161.76 52.3672 161.815 52.3432C163.891 51.4345 165.976 50.4715 168.06 49.5233C168.071 49.5181 168.066 49.501 168.053 49.5035C165.196 50.4598 162.307 51.5763 159.417 52.6973Z" fill="#222222"/>
<path d="M81.5534 4.11711C81.1982 3.96173 80.9627 4.36471 81.2862 4.57831C81.3061 4.59143 81.3276 4.60252 81.3498 4.6111C83.4607 5.42584 85.6081 6.20332 87.7363 6.98522C87.7528 6.99127 87.7648 6.96741 87.7501 6.95771C85.7516 5.97602 83.6669 5.04175 81.5534 4.11711Z" fill="#222222"/>
<path d="M178.347 44.8913C178.302 44.9185 178.256 44.9457 178.211 44.9728C178.065 45.0602 178.179 45.3009 178.34 45.2449C178.348 45.242 178.356 45.2382 178.364 45.2337C179.24 44.7211 180.115 44.1817 180.99 43.6228C180.113 44.0929 179.232 44.5187 178.348 44.8911L178.347 44.8913Z" fill="#222222"/>
<path d="M96.6552 10.5193C96.6553 10.5193 96.6553 10.5193 96.6554 10.5193C97.0403 10.6925 97.4212 10.8681 97.7979 11.0465C97.9642 11.1252 98.1372 11.1888 98.3155 11.2341C99.2986 11.4842 100.298 11.7147 101.307 11.931C100.334 11.6471 99.3865 11.3298 98.471 10.9702C97.8646 10.8222 97.2593 10.6724 96.6553 10.5197C96.6551 10.5196 96.6551 10.5194 96.6552 10.5193Z" fill="#222222"/>
<path d="M94.3427 9.52339C94.3428 9.52335 94.3428 9.52321 94.3427 9.52318C93.5151 9.27346 92.6854 9.02364 91.8567 8.77139C91.6846 8.71898 91.5756 8.97485 91.7315 9.06466C92.0162 9.18694 92.3043 9.30581 92.595 9.42171C93.2697 9.61866 93.9507 9.80856 94.6363 9.99297C94.8518 10.0509 94.9468 9.77558 94.7409 9.68936C94.6085 9.6339 94.4758 9.57865 94.3427 9.5236C94.3426 9.52356 94.3426 9.52343 94.3427 9.52339Z" fill="#222222"/>
<path d="M174.464 46.7211C173.774 47.0856 173.084 47.4511 172.394 47.8144C172.215 47.9092 172.332 48.2041 172.528 48.1522C172.709 48.0801 172.89 48.0057 173.07 47.9294C173.59 47.6485 174.11 47.3603 174.629 47.0665C174.867 46.9324 174.715 46.6181 174.463 46.7213L174.464 46.7211Z" fill="#222222"/>
<path d="M168.244 49.4384C168.244 49.4387 168.244 49.4388 168.244 49.4389C168.242 49.4396 168.241 49.4402 168.24 49.4408C168.227 49.4467 168.233 49.4663 168.247 49.4634C168.883 49.3322 169.52 49.1705 170.155 48.9811C170.159 48.9798 170.164 48.978 170.168 48.9759C170.249 48.9339 170.201 48.8143 170.113 48.841C169.492 49.0311 168.869 49.2307 168.245 49.4379C168.245 49.438 168.244 49.4382 168.244 49.4384Z" fill="#222222"/>
<path d="M88.0069 7.0856C88.0068 7.08567 88.0066 7.08568 88.0064 7.08562C88.0046 7.08493 88.0027 7.08425 88.0009 7.08357C87.9834 7.07717 87.9712 7.1018 87.9869 7.11175C88.5472 7.46738 89.1276 7.80029 89.725 8.11341C89.7287 8.11533 89.7325 8.11692 89.7365 8.11816C89.8169 8.14345 89.8626 8.03438 89.788 7.99503C89.2036 7.68661 88.6095 7.38388 88.0075 7.08562C88.0073 7.08553 88.0071 7.08552 88.0069 7.0856Z" fill="#222222"/>
<path d="M169.5 46.4961C169.5 46.4963 169.5 46.4964 169.5 46.4964C155.509 45.2905 146.462 25.1197 133.799 18.5551C129.227 16.185 123.318 15.3207 117.219 14.5805C115.871 14.4706 114.537 14.3384 113.225 14.168C118.351 15.1746 123.19 16.4195 127.006 18.6884C139.689 26.2298 147.82 47.6051 162.196 49.6919C164.157 49.9768 166.109 49.8834 168.054 49.5016C168.117 49.4804 168.18 49.4593 168.244 49.4381C170.323 48.493 172.399 47.5639 174.464 46.719C174.679 46.6054 174.494 46.1403 174.256 46.1898C172.689 46.515 171.106 46.634 169.5 46.4959C169.5 46.4959 169.5 46.496 169.5 46.4961Z" fill="#222222"/>
<path d="M254.45 19.5911C254.45 19.591 254.45 19.591 254.449 19.591C243.265 29.0006 222.575 20.9256 209.456 25.0755C204.304 26.705 199.33 30.347 194.377 34.1775C193.354 35.0387 192.327 35.8756 191.295 36.6679C195.756 33.7157 200.23 31.1187 204.748 29.974C218.546 26.4775 239.428 36.0614 251.545 27.016C253.316 25.6942 254.758 24.0792 255.953 22.2475C255.995 22.1616 256.038 22.0759 256.08 21.9905C256.872 19.8375 257.67 17.7062 258.518 15.6546C258.781 14.7829 259.045 13.9127 259.312 13.0489C258.133 15.5746 256.573 17.8053 254.45 19.5912C254.45 19.5913 254.45 19.5913 254.45 19.5911Z" fill="#222222"/>
<path d="M90.4054 5.45544C90.4057 5.45533 90.4057 5.45499 90.4056 5.45477C80.9963 -5.73017 89.0712 -26.4199 84.9213 -39.5388C83.2918 -44.6908 79.6498 -49.6647 75.8193 -54.6173C74.9581 -55.6408 74.1212 -56.6674 73.3288 -57.7C76.2811 -53.2387 78.8781 -48.7642 80.0228 -44.2463C83.5193 -30.4481 73.9354 -9.56634 82.9803 2.55066C84.302 4.32167 85.917 5.76354 87.7487 6.95904C87.8347 7.00095 87.9203 7.04361 88.0057 7.08574C90.1588 7.87779 92.29 8.67612 94.3417 9.52399C95.2134 9.78705 96.0835 10.0508 96.9473 10.3173C94.4217 9.13854 92.1912 7.57844 90.4052 5.45611C90.4051 5.45589 90.4051 5.45556 90.4054 5.45544Z" fill="#222222"/>
<path d="M101.307 11.9297C102.003 12.1327 102.712 12.3176 103.431 12.4881C103.421 12.484 103.41 12.48 103.399 12.4759C102.935 12.3019 102.457 12.1704 101.972 12.0697C101.75 12.0236 101.528 11.9769 101.307 11.9297Z" fill="#222222"/>
<path d="M180.989 43.6228C180.989 43.6229 180.99 43.623 180.99 43.6229C181.713 43.2352 182.433 42.8179 183.152 42.3763C182.922 42.479 182.692 42.5833 182.463 42.6888C182.383 42.7253 182.307 42.7677 182.234 42.8157C181.819 43.0882 181.404 43.3574 180.99 43.6224C180.989 43.6225 180.989 43.6226 180.989 43.6228Z" fill="#222222"/>
<path d="M106.571 12.9512C107.183 13.1111 107.791 13.2747 108.393 13.4429C109.112 13.5556 109.836 13.6598 110.563 13.7595C109.678 13.5994 108.809 13.4142 107.96 13.2004C107.497 13.1177 107.034 13.0351 106.572 12.9516C106.572 12.9515 106.571 12.9514 106.571 12.9512Z" fill="#222222"/>
<path d="M185.581 40.5599C185.58 40.5597 185.581 40.5596 185.581 40.5595C186.144 40.2342 186.706 39.914 187.269 39.6019C187.778 39.2341 188.286 38.8582 188.794 38.4782C188.057 38.9782 187.316 39.4478 186.569 39.881C186.24 40.1077 185.911 40.3343 185.581 40.56C185.581 40.5601 185.581 40.56 185.581 40.5599Z" fill="#222222"/>
<path d="M181.664 43.0605C182.115 42.8473 182.553 42.6057 182.969 42.3287C183.839 41.7488 184.71 41.1563 185.58 40.5597C183.806 41.585 182.031 42.6637 180.257 43.738C180.726 43.5077 181.195 43.2816 181.664 43.0605Z" fill="#222222"/>
<path d="M101.996 11.9669C102.466 12.1328 102.946 12.2692 103.435 12.3649C104.476 12.5683 105.523 12.7614 106.57 12.9506C104.6 12.4357 102.582 11.9569 100.559 11.4727C101.041 11.6348 101.521 11.7993 101.996 11.9669Z" fill="#222222"/>
<path d="M178.347 44.8906C178.984 44.5089 179.62 44.1234 180.257 43.7378C179.597 44.0615 178.937 44.3935 178.276 44.7311C178.147 44.7971 178.213 44.947 178.347 44.8906Z" fill="#222222"/>
<path d="M98.4708 10.9689C99.1659 11.1389 99.8623 11.3058 100.559 11.4727C99.3738 11.0752 98.167 10.6923 96.9482 10.3164C97.4447 10.5479 97.9527 10.7656 98.4708 10.9689Z" fill="#222222"/>
<path d="M110.563 13.7582C110.563 13.7583 110.563 13.7584 110.563 13.7584C111.436 13.9165 112.325 14.0516 113.225 14.1681C112.899 14.1042 112.573 14.0411 112.245 13.9789C111.683 13.9076 111.122 13.8346 110.563 13.7579C110.563 13.7578 110.563 13.758 110.563 13.7582Z" fill="#222222"/>
<path d="M188.794 38.4768C188.794 38.4767 188.794 38.4766 188.795 38.4765C189.633 37.9083 190.465 37.3013 191.294 36.6663C190.982 36.8728 190.67 37.0807 190.359 37.2901C189.838 37.6897 189.317 38.0859 188.795 38.477C188.795 38.4771 188.795 38.477 188.794 38.4768Z" fill="#222222"/>
<path d="M266.935 -30.397C266.935 -30.3969 266.935 -30.3969 266.935 -30.397C272.552 -42.9717 291.486 -52.8244 291.863 -66.3774C291.962 -69.9313 290.772 -73.302 288.875 -76.573C288.006 -77.8356 287.135 -79.0985 286.285 -80.3626C285.258 -81.7027 284.207 -83.0406 283.171 -84.3809C277.836 -90.719 271.55 -96.9303 268.972 -103.687C264.236 -116.099 270.857 -136.496 261.159 -146.748C258.485 -149.575 254.972 -151.206 251.031 -152.198C249.595 -152.455 248.162 -152.709 246.746 -152.978C245.09 -153.188 243.424 -153.379 241.773 -153.58C233.564 -154.251 224.915 -154.118 218.599 -156.939C206.024 -162.556 196.171 -181.49 182.618 -181.867C179.064 -181.966 175.694 -180.776 172.423 -178.878C171.16 -178.01 169.897 -177.138 168.633 -176.289C167.293 -175.261 165.955 -174.211 164.615 -173.175C158.277 -167.84 152.065 -161.554 145.309 -158.976C132.897 -154.24 112.5 -160.861 102.248 -151.163C99.421 -148.489 97.79 -144.976 96.7974 -141.035C96.5409 -139.599 96.2861 -138.166 96.0174 -136.75C95.8078 -135.093 95.6164 -133.428 95.4161 -131.776C94.7448 -123.568 94.8777 -114.919 92.0565 -108.603C86.4398 -96.0279 67.5054 -86.1752 67.1285 -72.6221C67.0296 -69.0682 68.2195 -65.6974 70.1171 -62.4265C70.9858 -61.1638 71.8571 -59.901 72.7064 -58.6368C73.7342 -57.2968 74.7843 -55.9588 75.8204 -54.6185C81.1555 -48.2805 87.4415 -42.0691 90.02 -35.3125C94.7561 -22.9005 88.1343 -2.50365 97.8322 7.74839C100.506 10.5752 104.02 12.2061 107.96 13.1987C109.397 13.4552 110.83 13.71 112.246 13.9788C113.902 14.1883 115.567 14.3798 117.219 14.58C125.428 15.2513 134.077 15.1185 140.393 17.9396C152.968 23.5564 162.82 42.4908 176.374 42.8676C179.927 42.9666 183.298 41.7767 186.569 39.879C187.832 39.0103 189.095 38.139 190.359 37.2897C191.699 36.2619 193.037 35.2118 194.377 34.1757C200.715 28.8407 206.926 22.5546 213.683 19.9762C226.095 15.2401 246.492 21.8619 256.744 12.1639C259.571 9.4898 261.202 5.97652 262.194 2.03577C262.451 0.599286 262.706 -0.833951 262.974 -2.24936C263.184 -3.90599 263.375 -5.57109 263.576 -7.22308C264.247 -15.4316 264.114 -24.0807 266.935 -30.3971C266.935 -30.3972 266.935 -30.3972 266.935 -30.397ZM258.438 4.78278C249.112 14.6931 229.106 9.46245 217.423 14.718C205.312 20.1659 195.859 38.4493 182.791 38.8464C169.723 39.2434 159.176 21.5688 146.756 16.867C134.775 12.3311 115.124 18.7684 105.214 9.44272C95.3033 0.117054 100.534 -19.8891 95.2784 -31.5721C89.8305 -43.6835 71.547 -53.1365 71.15 -66.2045C70.7529 -79.2725 88.4275 -89.8192 93.1294 -102.239C97.6653 -114.22 91.228 -133.871 100.554 -143.781C109.879 -153.692 129.885 -148.461 141.568 -153.717C153.68 -159.165 163.133 -177.448 176.201 -177.845C189.269 -178.242 199.816 -160.568 212.235 -155.866C224.216 -151.33 243.867 -157.767 253.778 -148.441C263.688 -139.116 258.457 -119.11 263.713 -107.427C269.161 -95.3152 287.444 -85.8622 287.841 -72.7942C288.238 -59.7262 270.564 -49.1795 265.862 -36.7597C261.326 -24.7789 267.763 -5.12754 258.438 4.78278Z" fill="#222222"/>
<path d="M283.467 -78.7323C283.467 -78.7323 283.467 -78.7324 283.467 -78.7326C282.353 -91.2729 264.247 -99.3366 258.332 -110.674C252.626 -121.611 256.534 -141.137 246.485 -149.546C236.435 -157.957 217.904 -150.668 206.132 -154.358C193.929 -158.183 182.801 -174.583 170.26 -173.47C157.72 -172.356 149.656 -154.25 138.318 -148.335C127.381 -142.629 107.856 -146.537 99.4462 -136.487C91.036 -126.438 98.3243 -107.907 94.6347 -96.1352C90.8097 -83.9323 74.4091 -72.8038 75.5228 -60.2633C76.6364 -47.7227 94.7423 -39.659 100.658 -28.3213C106.364 -17.384 102.456 2.14122 112.505 10.5509C122.555 18.9611 141.086 11.6728 152.857 15.3618C165.06 19.1869 176.189 35.5875 188.729 34.4738C201.27 33.3602 209.333 15.2543 220.671 9.33894C231.608 3.63273 251.134 7.54083 259.543 -2.50853C267.953 -12.5581 260.665 -31.0889 264.354 -42.8606C268.179 -55.0633 284.579 -66.1917 283.466 -78.7321C283.466 -78.7323 283.466 -78.7324 283.467 -78.7323ZM260.08 -9.66938C252.569 0.447351 233.608 -2.21308 223.428 3.87636C212.876 10.1883 206.148 28.0192 194.172 29.7893C182.196 31.5594 170.598 16.438 158.67 13.4488C147.164 10.5652 129.784 18.5974 119.667 11.0865C109.55 3.57558 112.21 -15.3855 106.121 -25.5649C99.8091 -36.1175 81.9782 -42.8455 80.2081 -54.8212C78.438 -66.7969 93.5594 -78.3957 96.5486 -90.3234C99.4323 -101.829 91.4 -119.21 98.9109 -129.327C106.422 -139.443 125.383 -136.783 135.562 -142.872C146.115 -149.184 152.843 -167.015 164.819 -168.785C176.794 -170.555 188.393 -155.434 200.321 -152.445C211.827 -149.561 229.207 -157.593 239.324 -150.082C249.441 -142.572 246.78 -123.61 252.87 -113.431C259.182 -102.878 277.013 -96.1504 278.783 -84.1747C280.553 -72.199 265.431 -60.6002 262.442 -48.6725C259.558 -37.1667 267.591 -19.7861 260.08 -9.66938Z" fill="#222222"/>
<path d="M273.83 -89.1064C271.465 -100.485 254.001 -105.938 247.363 -115.698C240.959 -125.114 242.451 -143.435 232.336 -150.068C222.22 -156.702 206.012 -148.034 194.824 -150.156C183.226 -152.354 171.266 -166.199 159.887 -163.834C148.509 -161.469 143.056 -144.005 133.295 -137.367C123.879 -130.963 105.559 -132.454 98.9252 -122.339C92.2913 -112.224 100.96 -96.0154 98.8381 -84.8275C96.6392 -73.2294 82.7944 -61.2691 85.1598 -49.8908C87.5246 -38.5123 104.989 -33.0595 111.627 -23.2987C118.031 -13.8828 116.54 4.43734 126.655 11.0712C136.77 17.7051 152.978 9.03687 164.166 11.1584C175.764 13.3573 187.725 27.2021 199.103 24.8367C210.481 22.4718 215.934 5.00781 225.695 -1.63066C235.111 -8.03448 253.431 -6.5431 260.065 -16.6581C266.699 -26.7732 258.031 -42.9818 260.152 -54.1697C262.351 -65.7678 276.196 -77.7281 273.83 -89.1064ZM259.521 -23.4354C253.738 -13.3886 236.128 -13.7943 227.476 -7.14294C218.508 -0.247842 214.264 16.7639 203.511 19.6605C192.757 22.5574 180.542 9.97836 169.324 8.52097C158.503 7.11488 143.479 16.3107 133.432 10.5281C123.386 4.74548 123.791 -12.8648 117.14 -21.5167C110.245 -30.4852 93.2329 -34.7292 90.3362 -45.4826C87.4393 -56.2365 100.018 -68.4506 101.476 -79.6687C102.882 -90.4904 93.686 -105.514 99.4686 -115.561C105.252 -125.608 122.861 -125.202 131.513 -131.853C140.482 -138.749 144.726 -155.76 155.479 -158.657C166.233 -161.554 178.447 -148.975 189.665 -147.517C200.487 -146.111 215.511 -155.307 225.558 -149.524C235.605 -143.741 235.199 -126.132 241.85 -117.48C248.745 -108.511 265.757 -104.267 268.654 -93.5138C271.55 -82.7599 258.971 -70.5458 257.514 -59.3277C256.108 -48.5061 265.304 -33.4821 259.521 -23.4354Z" fill="#222222"/>
<path d="M263.297 -97.3898C259.933 -107.497 243.453 -110.604 236.37 -118.784C229.538 -126.675 228.946 -143.514 219.03 -148.478C209.115 -153.441 195.28 -143.824 184.868 -144.565C174.075 -145.333 161.712 -156.665 151.604 -153.301C141.497 -149.937 138.391 -133.457 130.21 -126.374C122.319 -119.541 105.48 -118.95 100.516 -109.034C95.5529 -99.1186 105.17 -85.2841 104.429 -74.8722C103.661 -64.0788 92.3289 -51.7157 95.6932 -41.6081C99.0574 -31.5004 115.538 -28.3943 122.62 -20.2135C129.453 -12.3224 130.045 4.51624 139.96 9.47995C149.876 14.4434 163.71 4.8264 174.122 5.5673C184.915 6.33518 197.278 17.6674 207.386 14.3031C217.494 10.9389 220.6 -5.54126 228.781 -12.624C236.672 -19.4565 253.51 -20.0487 258.474 -29.9637C263.438 -39.8792 253.821 -53.7138 254.561 -64.1256C255.329 -74.919 266.662 -87.2821 263.297 -97.3898ZM251.326 -68.5447C251.198 -58.5816 261.13 -45.9318 256.951 -36.2076C252.771 -26.4834 236.759 -24.9848 229.617 -18.0361C222.214 -10.8325 220.17 5.04441 210.724 8.81141C201.279 12.5784 188.869 2.46559 178.541 2.33321C168.578 2.20545 155.928 12.1371 146.204 7.9579C136.48 3.77868 134.981 -12.2343 128.032 -19.3757C120.829 -26.7783 104.952 -28.8232 101.185 -38.2687C97.4178 -47.7142 107.531 -60.1239 107.663 -70.4519C107.791 -80.415 97.8591 -93.0648 102.038 -102.789C106.218 -112.513 122.231 -114.012 129.372 -120.96C136.775 -128.164 138.819 -144.041 148.265 -147.808C157.71 -151.575 170.12 -141.462 180.448 -141.33C190.411 -141.202 203.061 -151.134 212.785 -146.954C222.509 -142.775 224.008 -126.762 230.957 -119.621C238.16 -112.218 254.037 -110.173 257.804 -100.728C261.571 -91.2824 251.458 -78.8727 251.326 -68.5447Z" fill="#222222"/>
<path d="M225.648 -120.004C218.646 -126.409 216.335 -141.55 206.858 -144.985C197.381 -148.42 185.904 -138.277 176.424 -137.847C166.597 -137.402 154.238 -146.329 145.467 -142.225C136.695 -138.12 135.63 -122.912 128.991 -115.653C122.587 -108.651 107.445 -106.339 104.01 -96.8626C100.575 -87.3859 110.718 -75.909 111.148 -66.429C111.594 -56.6018 102.666 -44.2431 106.771 -35.4717C110.875 -26.7003 126.084 -25.6345 133.342 -18.9958C140.344 -12.5914 142.656 2.55032 152.133 5.98529C161.609 9.42026 173.086 -0.723186 182.566 -1.15294C192.394 -1.59864 204.752 7.32886 213.524 3.22455C222.295 -0.879748 223.361 -16.0886 230 -23.347C236.404 -30.3489 251.546 -32.6608 254.981 -42.1375C258.416 -51.6142 248.272 -63.0911 247.842 -72.5711C247.397 -82.3984 256.324 -94.7571 252.22 -103.528C248.116 -112.3 232.907 -113.366 225.648 -120.004ZM244.146 -76.1878C245.077 -67.2213 255.331 -56.8967 252.597 -47.7195C249.862 -38.5422 235.63 -35.5133 229.943 -28.5186C224.047 -21.2679 223.877 -6.78523 215.785 -2.40809C207.693 1.96905 195.479 -5.81495 186.184 -4.84931C177.217 -3.91794 166.893 6.33628 157.715 3.60173C148.538 0.867154 145.509 -13.3651 138.514 -19.0525C131.264 -24.948 116.781 -25.1183 112.404 -33.2102C108.027 -41.3022 115.811 -53.5162 114.845 -62.8113C113.914 -71.7778 103.66 -82.1024 106.394 -91.2796C109.129 -100.457 123.361 -103.486 129.048 -110.481C134.944 -117.731 135.114 -132.214 143.206 -136.591C151.298 -140.968 163.512 -133.184 172.807 -134.15C181.774 -135.081 192.098 -145.335 201.276 -142.601C210.453 -139.866 213.482 -125.634 220.476 -119.947C227.727 -114.051 242.21 -113.881 246.587 -105.789C250.964 -97.6969 243.18 -85.4829 244.146 -76.1878Z" fill="#222222"/>
<path d="M215.475 -119.467C208.546 -124.46 204.898 -137.754 196.067 -139.834C187.237 -141.915 178.038 -131.648 169.609 -130.273C160.871 -128.848 148.89 -135.537 141.478 -130.952C134.066 -126.366 134.703 -112.66 129.527 -105.477C124.533 -98.5486 111.24 -94.9002 109.159 -86.0701C107.079 -77.24 117.345 -68.0402 118.72 -59.6111C120.145 -50.8734 113.456 -38.893 118.042 -31.4809C122.627 -24.0685 136.333 -24.7055 143.516 -19.5291C150.445 -14.5357 154.093 -1.24222 162.923 0.838343C171.753 2.9189 180.953 -7.34755 189.382 -8.72251C198.12 -10.1476 210.1 -3.45853 217.512 -8.04426C224.925 -12.6295 224.288 -26.3358 229.464 -33.5187C234.457 -40.4472 247.751 -44.0956 249.832 -52.9257C251.912 -61.7558 241.646 -70.9555 240.271 -79.3847C238.846 -88.1224 245.535 -100.103 240.949 -107.515C236.363 -114.927 222.657 -114.29 215.475 -119.467ZM236.253 -82.1568C238.012 -74.285 248.197 -66.1752 246.721 -57.7353C245.244 -49.2955 232.911 -45.1257 228.583 -38.3191C224.097 -31.2631 225.45 -18.3754 218.713 -13.6448C211.976 -8.91448 200.313 -14.563 192.154 -12.7396C184.282 -10.9806 176.172 -0.795484 167.732 -2.27204C159.292 -3.74862 155.123 -16.0825 148.316 -20.4097C141.26 -24.8957 128.372 -23.5426 123.642 -30.2799C118.911 -37.0166 124.56 -48.6797 122.737 -56.8393C120.978 -64.711 110.792 -72.8208 112.269 -81.2607C113.746 -89.7006 126.079 -93.8704 130.407 -100.677C134.893 -107.733 133.54 -120.621 140.277 -125.351C147.013 -130.082 158.677 -124.433 166.836 -126.256C174.708 -128.015 182.818 -138.201 191.258 -136.724C199.698 -135.247 203.867 -122.914 210.674 -118.586C217.73 -114.1 230.618 -115.453 235.348 -108.716C240.079 -101.98 234.43 -90.3164 236.253 -82.1568Z" fill="#222222"/>
<path d="M206.104 -117.327C199.472 -121.02 194.879 -132.38 186.868 -133.306C178.857 -134.232 171.795 -124.219 164.495 -122.135C156.928 -119.975 145.66 -124.644 139.589 -119.831C133.518 -115.018 135.495 -102.983 131.666 -96.1077C127.973 -89.4758 116.613 -84.8825 115.687 -76.8718C114.761 -68.8612 124.775 -61.7986 126.858 -54.4987C129.018 -46.9313 124.349 -35.6643 129.162 -29.5932C133.975 -23.5222 146.01 -25.4988 152.885 -21.6697C159.517 -17.9764 164.111 -6.61641 172.121 -5.6905C180.132 -4.76459 187.195 -14.7783 194.494 -16.8617C202.062 -19.0221 213.329 -14.3526 219.4 -19.1656C225.471 -23.9788 223.494 -36.0139 227.323 -42.8891C231.017 -49.5211 242.377 -54.1144 243.303 -62.125C244.228 -70.1356 234.215 -77.1983 232.131 -84.4982C229.971 -92.0656 234.641 -103.333 229.828 -109.404C225.014 -115.475 212.979 -113.498 206.104 -117.327ZM227.94 -86.4065C230.288 -79.6882 240.045 -73.6237 239.615 -66.0766C239.186 -58.5289 228.804 -53.6112 225.709 -47.2026C222.5 -40.5594 225.006 -29.4033 219.587 -24.5676C214.167 -19.7318 203.367 -23.4875 196.403 -21.0539C189.685 -18.7061 183.62 -8.94941 176.073 -9.37903C168.525 -9.80843 163.608 -20.1904 157.199 -23.2853C150.556 -26.4941 139.4 -23.9882 134.564 -29.4078C129.728 -34.8275 133.484 -45.6272 131.05 -52.5915C128.702 -59.3099 118.946 -65.3743 119.375 -72.9215C119.805 -80.4691 130.187 -85.3868 133.282 -91.7955C136.49 -98.4386 133.985 -109.595 139.404 -114.43C144.824 -119.266 155.623 -115.511 162.588 -117.944C169.306 -120.292 175.371 -130.049 182.918 -129.619C190.465 -129.19 195.383 -118.808 201.792 -115.713C208.435 -112.504 219.591 -115.01 224.427 -109.59C229.263 -104.171 225.507 -93.3709 227.94 -86.4065Z" fill="#222222"/>
<path d="M197.762 -113.769C191.623 -116.305 186.478 -125.711 179.421 -125.702C172.366 -125.693 167.245 -116.273 161.112 -113.721C154.755 -111.075 144.488 -113.988 139.702 -109.189C134.914 -104.389 137.855 -94.1303 135.225 -87.7661C132.689 -81.6271 123.283 -76.4819 123.292 -69.4254C123.301 -62.3697 132.721 -57.2488 135.273 -51.1161C137.919 -44.7591 135.006 -34.4923 139.805 -29.7057C144.605 -24.9185 154.864 -27.859 161.228 -25.2295C167.367 -22.6934 172.512 -13.2871 179.569 -13.2961C186.624 -13.3055 191.745 -22.7253 197.878 -25.2773C204.235 -27.9232 214.502 -25.0098 219.288 -29.8095C224.076 -34.6094 221.135 -44.8679 223.765 -51.2321C226.301 -57.3711 235.707 -62.5163 235.698 -69.5728C235.689 -76.6285 226.269 -81.7494 223.717 -87.8821C221.071 -94.2391 223.984 -104.506 219.185 -109.293C214.385 -114.08 204.126 -111.139 197.762 -113.769ZM219.496 -88.9278C222.193 -83.381 231.201 -79.1424 231.591 -72.6022C231.98 -66.0621 223.538 -60.7845 221.519 -54.9563C219.425 -48.9151 222.705 -39.5639 218.526 -34.8561C214.348 -30.1483 204.674 -32.2948 198.923 -29.499C193.377 -26.8019 189.138 -17.7936 182.598 -17.404C176.058 -17.0145 170.78 -25.4563 164.952 -27.4758C158.911 -29.5695 149.56 -26.2897 144.852 -30.4682C140.144 -34.6467 142.29 -44.3209 139.495 -50.0711C136.798 -55.618 127.789 -59.8566 127.4 -66.3967C127.01 -72.9369 135.452 -78.2145 137.471 -84.0427C139.565 -90.0838 136.285 -99.435 140.464 -104.143C144.642 -108.851 154.317 -106.704 160.067 -109.5C165.614 -112.197 169.852 -121.205 176.392 -121.595C182.932 -121.984 188.21 -113.543 194.038 -111.523C200.079 -109.429 209.431 -112.709 214.138 -108.531C218.846 -104.352 216.7 -94.6781 219.496 -88.9278Z" fill="#222222"/>
</svg>
