<svg width="166" height="249" viewBox="0 0 166 249" fill="none" xmlns="http://www.w3.org/2000/svg">
<path d="M97.2465 182.178C98.1698 182.695 98.1698 183.556 97.2465 184.108C96.3233 184.625 94.853 184.625 93.9297 184.108C93.0065 183.591 93.0065 182.729 93.9297 182.178C94.853 181.661 96.3233 181.661 97.2465 182.178Z" fill="#222222"/>
<path d="M105.898 177.146C106.821 177.663 106.821 178.524 105.898 179.076C104.975 179.593 103.504 179.593 102.581 179.076C101.658 178.559 101.658 177.697 102.581 177.146C103.504 176.629 104.975 176.629 105.898 177.146Z" fill="#222222"/>
<path d="M114.549 172.114C115.472 172.631 115.472 173.493 114.549 174.044C113.626 174.561 112.156 174.561 111.232 174.044C110.309 173.527 110.309 172.666 111.232 172.114C112.156 171.597 113.626 171.597 114.549 172.114Z" fill="#222222"/>
<path d="M79.9448 182.178C80.868 182.695 80.868 183.557 79.9448 184.108C79.0215 184.625 77.5512 184.625 76.628 184.108C75.7047 183.591 75.7047 182.73 76.628 182.178C77.5512 181.627 79.0215 181.661 79.9448 182.178Z" fill="#222222"/>
<path d="M88.5952 177.146C89.5184 177.663 89.5184 178.524 88.5952 179.076C87.6719 179.593 86.2016 179.593 85.2784 179.076C84.3551 178.559 84.3551 177.697 85.2784 177.146C86.2016 176.629 87.6719 176.629 88.5952 177.146Z" fill="#222222"/>
<path d="M97.2465 172.114C98.1698 172.631 98.1698 173.493 97.2465 174.044C96.3233 174.561 94.853 174.561 93.9297 174.044C93.0065 173.527 93.0065 172.666 93.9297 172.114C94.853 171.597 96.3233 171.597 97.2465 172.114Z" fill="#222222"/>
<path d="M105.898 167.048C106.821 167.565 106.821 168.427 105.898 168.978C104.975 169.495 103.504 169.495 102.581 168.978C101.658 168.461 101.658 167.6 102.581 167.048C103.504 166.531 104.975 166.531 105.898 167.048Z" fill="#222222"/>
<path d="M114.549 162.016C115.472 162.533 115.472 163.395 114.549 163.946C113.626 164.463 112.156 164.463 111.232 163.946C110.309 163.429 110.309 162.568 111.232 162.016C112.156 161.499 113.626 161.499 114.549 162.016Z" fill="#222222"/>
<path d="M71.2592 177.146C72.1825 177.663 72.1825 178.524 71.2592 179.076C70.336 179.593 68.8657 179.593 67.9424 179.076C67.0192 178.559 67.0192 177.697 67.9424 177.146C68.8657 176.629 70.336 176.629 71.2592 177.146Z" fill="#222222"/>
<path d="M79.9448 172.114C80.868 172.631 80.868 173.493 79.9448 174.044C79.0215 174.561 77.5512 174.561 76.628 174.044C75.7047 173.527 75.7047 172.666 76.628 172.114C77.5512 171.597 79.0215 171.597 79.9448 172.114Z" fill="#222222"/>
<path d="M88.5952 167.048C89.5184 167.565 89.5184 168.427 88.5952 168.978C87.6719 169.495 86.2016 169.495 85.2784 168.978C84.3551 168.461 84.3551 167.6 85.2784 167.048C86.2016 166.531 87.6719 166.531 88.5952 167.048Z" fill="#222222"/>
<path d="M97.2465 162.016C98.1698 162.533 98.1698 163.395 97.2465 163.946C96.3233 164.463 94.853 164.463 93.9297 163.946C93.0065 163.429 93.0065 162.568 93.9297 162.016C94.853 161.499 96.3233 161.499 97.2465 162.016Z" fill="#222222"/>
<path d="M105.897 156.984C106.821 157.501 106.821 158.363 105.897 158.915C104.974 159.431 103.504 159.431 102.581 158.915C101.657 158.398 104.974 156.468 105.897 156.984Z" fill="#222222"/>
<path d="M62.6088 172.114C63.5321 172.631 63.5321 173.493 62.6088 174.044C61.6856 174.561 60.2153 174.561 59.292 174.044C58.3688 173.527 58.3688 172.666 59.292 172.114C60.2153 171.597 61.6856 171.597 62.6088 172.114Z" fill="#222222"/>
<path d="M71.2592 167.048C72.1825 167.565 72.1825 168.427 71.2592 168.978C70.336 169.495 68.8657 169.495 67.9424 168.978C67.0192 168.461 67.0192 167.6 67.9424 167.048C68.8657 166.531 70.336 166.531 71.2592 167.048Z" fill="#222222"/>
<path d="M79.9448 162.016C80.868 162.533 80.868 163.395 79.9448 163.946C79.0215 164.463 77.5512 164.463 76.628 163.946C75.7047 163.429 75.7047 162.568 76.628 162.016C77.5512 161.499 79.0215 161.499 79.9448 162.016Z" fill="#222222"/>
<path d="M88.5952 156.984C89.5184 157.501 89.5184 158.363 88.5952 158.914C87.6719 159.431 86.2016 159.431 85.2784 158.914C84.3551 158.397 84.3551 157.536 85.2784 156.984C86.2016 156.467 87.6719 156.467 88.5952 156.984Z" fill="#222222"/>
<path d="M62.6088 162.016C63.5321 162.533 63.5321 163.395 62.6088 163.946C61.6856 164.463 60.2153 164.463 59.292 163.946C58.3688 163.429 58.3688 162.568 59.292 162.016C60.2153 161.499 61.6856 161.499 62.6088 162.016Z" fill="#222222"/>
<path d="M71.2592 156.984C72.1825 157.501 72.1825 158.363 71.2592 158.914C70.336 159.431 68.8657 159.431 67.9424 158.914C67.0192 158.397 67.0192 157.536 67.9424 156.984C68.8657 156.467 70.336 156.467 71.2592 156.984Z" fill="#222222"/>
<path d="M162.796 246.041C163.72 246.558 163.72 247.42 162.796 247.971C161.873 248.488 160.403 248.488 159.48 247.971C158.556 247.454 158.556 246.593 159.48 246.041C160.403 245.524 161.873 245.524 162.796 246.041Z" fill="#222222"/>
<path d="M145.495 246.041C146.418 246.558 146.418 247.42 145.495 247.971C144.571 248.488 143.101 248.488 142.178 247.971C141.255 247.454 141.255 246.593 142.178 246.041C143.101 245.524 144.571 245.524 145.495 246.041Z" fill="#222222"/>
<path d="M154.146 241.009C155.069 241.526 155.069 242.388 154.146 242.939C153.223 243.456 151.752 243.456 150.829 242.939C149.906 242.422 149.906 241.561 150.829 241.009C151.752 240.492 153.223 240.492 154.146 241.009Z" fill="#222222"/>
<path d="M162.796 235.944C163.72 236.461 163.72 237.322 162.796 237.874C161.873 238.391 160.403 238.391 159.48 237.874C158.556 237.357 158.556 236.495 159.48 235.944C160.403 235.392 161.873 235.427 162.796 235.944Z" fill="#222222"/>
<path d="M136.843 241.009C137.766 241.526 137.766 242.388 136.843 242.939C135.92 243.456 134.45 243.456 133.526 242.939C132.603 242.422 132.603 241.561 133.526 241.009C134.45 240.492 135.92 240.492 136.843 241.009Z" fill="#222222"/>
<path d="M145.495 235.943C146.418 236.46 146.418 237.322 145.495 237.873C144.571 238.39 143.101 238.39 142.178 237.873C141.255 237.356 141.255 236.495 142.178 235.943C143.101 235.426 144.571 235.426 145.495 235.943Z" fill="#222222"/>
<path d="M136.843 230.912C137.766 231.429 137.766 232.291 136.843 232.842C135.92 233.359 134.45 233.359 133.526 232.842C132.603 232.325 132.603 231.463 133.526 230.912C134.45 230.395 135.92 230.395 136.843 230.912Z" fill="#222222"/>
<path d="M134.792 214.023C129.115 210.714 120.225 210.714 114.549 214.023L92.7675 226.706C88.2882 229.325 80.6972 229.325 76.1836 226.706C74.3371 225.638 73.2771 224.259 73.2771 222.949C73.2771 221.64 74.3371 220.261 76.1836 219.193L101.316 204.58C104.359 202.788 106.035 200.341 106.035 197.618C106.035 194.895 104.359 192.448 101.316 190.656L100.769 190.346C95.0927 187.037 86.2023 187.037 80.5262 190.346L31.9711 218.607C27.4917 221.226 19.9007 221.226 15.3872 218.607L6.56519 213.472C4.71873 212.403 3.65873 211.025 3.65873 209.715C3.65873 208.405 4.71873 207.027 6.56519 205.958L82.7146 161.912C85.5869 163.153 89.6559 163.015 92.2546 161.499C95.1269 159.845 95.1269 157.122 92.2546 155.468C89.3824 153.813 84.732 153.813 81.8597 155.468C80.0817 156.501 79.3978 157.949 79.8423 159.293L4.71873 202.719C1.67549 204.511 0 206.958 0 209.681C0 212.403 1.67549 214.85 4.71873 216.642L13.5407 221.778C19.2169 225.086 28.1072 225.086 33.7834 221.778L82.3385 193.517C86.8178 190.897 94.4088 190.897 98.9224 193.517L99.4695 193.827C101.316 194.895 102.376 196.274 102.376 197.583C102.376 198.893 101.316 200.272 99.4695 201.34L74.3371 215.953C71.2939 217.745 69.6184 220.192 69.6184 222.915C69.6184 225.638 71.2939 228.085 74.3371 229.877C80.0133 233.185 88.9036 233.185 94.5798 229.877L116.361 217.194C120.841 214.575 128.466 214.575 132.911 217.194L139.955 221.536L141.699 216.608L134.757 214.023H134.792Z" fill="#222222"/>
<path d="M143.938 216.576L135.071 211.134L134.706 210.91C131.976 209.434 128.551 208.69 125.115 208.69C121.507 208.69 117.911 209.51 115.119 211.137L115.119 211.137L93.3381 223.82C91.0499 225.158 87.9854 225.819 84.9327 225.819C81.8801 225.819 78.8076 225.158 76.5027 223.821C74.6289 222.736 73.4715 221.292 73.4715 219.848C73.4715 218.403 74.6287 216.959 76.5023 215.875L143.938 216.576ZM143.938 216.576L140.417 218.186L133.487 213.914L133.482 213.911C131.211 212.573 128.146 211.912 125.093 211.912C122.041 211.912 118.968 212.573 116.679 213.911L94.8984 226.593L94.8983 226.594C92.1063 228.221 88.5104 229.041 84.9028 229.041C81.2954 229.041 77.6995 228.221 74.9076 226.594C71.9137 224.83 70.3127 222.454 70.3127 219.848C70.3127 217.241 71.9137 214.865 74.9076 213.102C74.9079 213.101 74.9081 213.101 74.9083 213.101L100.039 198.489C101.913 197.405 103.07 195.961 103.07 194.516C103.07 193.072 101.913 191.627 100.039 190.543L100.037 190.542L99.4922 190.233C99.492 190.233 99.4917 190.233 99.4915 190.233C97.1867 188.895 94.1144 188.235 91.062 188.235C88.0093 188.235 84.9448 188.895 82.6566 190.233L34.102 218.494L34.1018 218.494C31.3099 220.122 27.7139 220.942 24.1064 220.942C20.4988 220.942 16.9029 220.122 14.1109 218.494L14.1108 218.494L5.28993 213.36C5.2897 213.359 5.28947 213.359 5.28924 213.359C2.29535 211.596 0.694336 209.219 0.694336 206.613C0.694336 204.007 2.29527 201.631 5.28901 199.867C5.28932 199.867 5.28962 199.867 5.28993 199.867L80.4119 156.373L80.6521 156.234L80.4888 156.01C79.9663 155.292 79.8335 154.52 80.0675 153.786C80.304 153.043 80.9269 152.302 81.9854 151.686C83.3745 150.886 85.209 150.479 87.057 150.479C88.9054 150.479 90.7404 150.886 92.1297 151.686C93.5191 152.486 94.1587 153.511 94.1587 154.485C94.1587 155.46 93.5191 156.484 92.1297 157.284L92.1275 157.286C89.9743 158.554 86.6957 158.831 84.0122 158.087L83.911 158.059L83.8202 158.112L6.88432 202.64C5.01053 203.724 3.85306 205.169 3.85306 206.613C3.85306 208.058 5.01053 209.502 6.88432 210.586L15.7057 215.721L15.706 215.721C18.0109 217.059 21.0835 217.72 24.1363 217.72C27.189 217.72 30.2535 217.059 32.5417 215.721L81.0963 187.46L81.0964 187.46C83.8884 185.833 87.4843 185.013 91.0919 185.013C94.6994 185.013 98.2954 185.833 101.087 187.46L101.09 187.461L101.633 187.77C101.634 187.77 101.635 187.77 101.635 187.771C104.628 189.534 106.229 191.91 106.229 194.516C106.229 197.122 104.628 199.499 101.634 201.262C101.634 201.262 101.634 201.262 101.633 201.263L76.5027 215.875L143.938 216.576Z" fill="url(#paint0_linear_685_128950)" stroke="#222222" stroke-width="0.5"/>
<path d="M156.333 221.812C154.384 220.675 151.272 220.675 149.323 221.812C147.374 222.95 147.374 224.776 149.323 225.879C151.272 227.017 154.384 227.017 156.333 225.879C158.248 224.742 158.248 222.915 156.333 221.812Z" fill="#222222"/>
<path d="M163.958 216.608C157.735 212.989 147.956 212.989 141.733 216.608C138.518 218.469 136.74 221.054 136.74 223.846C136.74 226.637 138.518 229.222 141.733 231.083C144.844 232.91 148.845 233.806 152.845 233.806C156.846 233.806 160.847 232.91 163.958 231.083C167.173 229.222 168.951 226.637 168.951 223.846C168.951 221.054 167.173 218.469 163.958 216.608ZM162.625 228.774C157.222 231.91 148.434 231.91 143.032 228.774C140.673 227.396 139.373 225.638 139.373 223.846C139.373 222.054 140.673 220.296 143.032 218.917C145.733 217.332 149.289 216.574 152.811 216.574C156.333 216.574 159.889 217.366 162.591 218.917C164.95 220.296 166.249 222.054 166.249 223.846C166.249 225.638 164.95 227.396 162.591 228.774H162.625Z" fill="#222222"/>
<path d="M156.333 219.124C154.384 217.987 151.272 217.987 149.323 219.124C147.374 220.261 147.374 222.088 149.323 223.191C151.272 224.328 154.384 224.328 156.333 223.191C158.282 222.054 158.282 220.227 156.333 219.124Z" fill="url(#paint1_linear_685_128950)"/>
<path d="M163.958 213.92C157.735 210.301 147.956 210.301 141.733 213.92C138.518 215.781 136.74 218.366 136.74 221.157C136.74 223.949 138.518 226.534 141.733 228.395C144.844 230.222 148.845 231.118 152.845 231.118C156.846 231.118 160.847 230.222 163.958 228.395C167.173 226.534 168.951 223.949 168.951 221.157C168.951 218.366 167.173 215.781 163.958 213.92ZM162.625 226.086C157.222 229.222 148.434 229.222 143.032 226.086C140.673 224.707 139.373 222.95 139.373 221.157C139.373 219.365 140.673 217.608 143.032 216.229C145.733 214.644 149.289 213.885 152.811 213.885C156.333 213.885 159.889 214.678 162.591 216.229C164.95 217.608 166.249 219.365 166.249 221.157C166.249 222.95 164.95 224.707 162.591 226.086H162.625Z" fill="url(#paint2_linear_685_128950)"/>
<path d="M150.759 139.856C140.33 144.715 130.961 159.397 130.072 172.976C129.73 178.422 130.79 182.799 132.91 185.797L147.955 214.541L155.17 218.091C155.82 216.609 166.352 166.118 166.83 164.601C167.959 161.051 175.652 158.811 175.721 155.365C175.926 142.716 160.983 135.134 150.793 139.89L150.759 139.856ZM149.426 172.252C145.322 174.32 142.177 171.77 142.416 166.635C142.655 161.534 146.143 155.882 150.178 153.952C154.144 152.056 157.222 154.469 157.051 159.432C156.88 164.463 153.495 170.219 149.426 172.252Z" fill="url(#paint3_linear_685_128950)"/>
<path d="M152.059 142.441C141.63 147.3 132.261 161.982 131.372 175.561C131.201 178.146 131.372 180.455 131.816 182.523C143.716 189.761 152.64 189.313 161.975 195.723C164.882 182.144 167.857 167.979 168.13 167.152C169.259 163.602 175.037 160.948 175.071 157.502C175.277 144.853 162.249 137.719 152.093 142.441H152.059ZM150.726 174.837C146.622 176.905 143.476 174.355 143.716 169.22C143.955 164.119 147.443 158.467 151.478 156.537C155.444 154.641 158.522 157.054 158.351 162.017C158.18 167.048 154.795 172.804 150.726 174.837Z" fill="url(#paint4_linear_685_128950)"/>
<path d="M155.547 219.159L147.375 215.127L147.238 214.885L132.193 186.142C129.936 182.971 128.91 178.353 129.286 172.907C130.175 159.294 139.681 144.129 150.452 139.132C155.855 136.616 162.967 137.34 168.506 140.993C173.67 144.405 176.576 149.609 176.473 155.365C176.439 157.605 174.046 159.225 171.755 160.81C169.908 162.085 167.993 163.395 167.549 164.808C167.344 165.394 165.395 174.63 163.309 184.384C159.206 203.719 156.231 217.505 155.855 218.366L155.513 219.124L155.547 219.159ZM148.537 213.92L154.658 216.953C155.615 213.024 159.137 196.481 161.804 184.074C164.335 172.252 165.873 164.98 166.079 164.36C166.694 162.43 168.848 160.948 170.9 159.5C172.849 158.156 174.901 156.743 174.935 155.33C175.003 150.16 172.37 145.439 167.686 142.337C162.591 138.994 156.094 138.305 151.17 140.579C140.878 145.37 131.782 159.914 130.927 173.011C130.585 178.111 131.509 182.351 133.594 185.315L148.571 213.92H148.537ZM146.725 173.769C145.802 173.769 144.913 173.528 144.16 173.011C142.416 171.873 141.493 169.53 141.664 166.566C141.938 161.155 145.528 155.296 149.871 153.193C151.922 152.228 153.871 152.228 155.376 153.193C157.051 154.296 157.975 156.571 157.906 159.397C157.735 164.705 154.111 170.77 149.836 172.907C148.776 173.459 147.716 173.7 146.759 173.7L146.725 173.769ZM152.777 154.089C152.093 154.089 151.341 154.296 150.555 154.675C146.759 156.502 143.511 161.878 143.271 166.669C143.169 169.047 143.818 170.874 145.049 171.701C146.109 172.39 147.546 172.356 149.118 171.563C152.948 169.633 156.162 164.188 156.299 159.432C156.368 157.191 155.718 155.434 154.487 154.606C154.008 154.296 153.427 154.124 152.777 154.124V154.089Z" fill="#222222"/>
<path d="M175.858 157.536C176.063 144.887 168.165 138.684 157.975 143.44C147.546 148.299 138.177 162.981 137.288 176.56C136.946 182.006 138.006 186.383 140.126 189.381L155.171 218.125L172.336 172.7C172.986 171.218 173.567 169.702 174.046 168.185C175.174 164.635 175.824 161.017 175.892 157.57L175.858 157.536Z" fill="url(#paint5_linear_685_128950)"/>
<path d="M155.547 219.158L154.589 218.676L139.407 189.691C137.151 186.52 136.125 181.902 136.501 176.457C137.39 162.843 146.896 147.679 157.667 142.681C162.488 140.441 167.07 140.475 170.592 142.785C174.627 145.438 176.781 150.677 176.679 157.535C176.61 161.016 175.995 164.635 174.798 168.392C174.319 169.943 173.738 171.459 173.054 172.976L155.547 219.158ZM164.506 142.612C162.591 142.612 160.471 143.129 158.317 144.129C148.024 148.919 138.929 163.463 138.074 176.56C137.732 181.661 138.655 185.9 140.741 188.864L155 216.126L171.55 172.355C172.199 170.873 172.78 169.357 173.225 167.875C174.353 164.291 174.969 160.81 175.037 157.501C175.14 151.297 173.191 146.438 169.669 144.129C168.164 143.129 166.386 142.647 164.471 142.647L164.506 142.612Z" fill="#222222"/>
<path d="M155.753 185.694L148.093 180.455C147.033 179.731 147.102 177.56 148.264 175.63C149.427 173.7 151.239 172.735 152.333 173.459L156.197 176.112L163.309 161.534C164.301 159.535 166.113 158.26 167.344 158.708C168.575 159.156 168.746 161.155 167.755 163.188L157.086 184.901C156.744 185.59 156.094 185.969 155.753 185.728V185.694Z" fill="#222222"/>
<path d="M60.2832 155.709V124.002L87.0569 139.752V171.46L60.2832 155.709Z" fill="url(#paint6_linear_685_128950)"/>
<path d="M60.2832 124.001L88.6982 107.32L115.848 122.898L87.0569 139.752L60.2832 124.001Z" fill="url(#paint7_linear_685_128950)"/>
<path d="M60.2832 126.001L88.6982 109.285L115.848 124.863L87.0569 141.751L60.2832 126.001Z" fill="url(#paint8_linear_685_128950)"/>
<path d="M116.293 123.14V122.623L115.848 122.382L88.6984 106.803L60.2834 123.519L59.8389 123.76V124.277V155.985L86.6126 171.735L87.0571 171.976L87.5016 171.735L116.293 154.882V123.174V123.14ZM61.1724 124.001L88.6984 107.803L114.959 122.864L87.0229 139.2L71.8409 130.274L61.1382 124.001H61.1724ZM60.7279 155.468V124.794L72.1144 131.48L86.6468 140.027V170.736L60.7621 155.502L60.7279 155.468Z" fill="#222222"/>
<path d="M106.307 141.509L97.6903 146.541C96.5277 147.23 95.5703 146.506 95.5703 144.921C95.5703 143.335 96.5277 141.509 97.6903 140.82L106.307 135.788C107.47 135.098 108.427 135.822 108.427 137.408C108.427 138.993 107.47 140.82 106.307 141.509Z" fill="url(#paint9_linear_685_128950)"/>
<path d="M97.6903 140.855C96.5277 141.544 95.5703 143.371 95.5703 144.956C95.5703 145.163 95.7413 145.301 95.7755 145.507C95.9122 145.473 95.9122 145.438 96.0832 145.37L104.7 140.338C105.863 139.648 106.82 137.822 106.82 136.236C106.82 136.03 106.82 135.823 106.786 135.651C106.649 135.685 106.478 135.754 106.341 135.857L97.7245 140.889L97.6903 140.855Z" fill="url(#paint10_linear_685_128950)"/>
<path d="M107.949 135.305C107.709 135.168 107.436 135.099 107.128 135.099H107.06C106.752 135.099 106.444 135.236 106.102 135.409L97.4853 140.441C96.1518 141.199 95.126 143.198 95.126 144.956C95.126 144.956 95.126 144.956 95.126 144.99C95.126 145.955 95.5021 146.679 96.0834 147.058C96.3228 147.196 96.5963 147.265 96.8699 147.265C97.2118 147.265 97.5879 147.161 97.9299 146.954L106.547 141.923C107.88 141.164 108.906 139.165 108.906 137.408C108.906 136.408 108.564 135.65 107.949 135.271V135.305ZM96.0492 144.749C96.1518 143.405 96.9724 141.854 97.9299 141.268L106.376 136.339C106.342 137.718 105.487 139.372 104.461 139.958L96.015 144.887C96.015 144.887 96.015 144.818 96.015 144.749H96.0492ZM106.102 141.164L97.4853 146.196C97.2118 146.334 96.8357 146.506 96.5279 146.3C96.3911 146.196 96.2544 146.058 96.186 145.852C96.2202 145.852 96.2544 145.817 96.2886 145.783L104.905 140.751C106.239 139.993 107.265 137.994 107.265 136.236C107.265 136.167 107.265 136.098 107.265 136.029C107.333 136.029 107.436 136.029 107.504 136.098C107.812 136.27 108.017 136.787 108.017 137.442C108.017 138.855 107.128 140.544 106.102 141.164Z" fill="#222222"/>
<path d="M99.7422 114.18L71.1221 130.895V139.166L77.5847 142.992V134.652L106.273 117.936L99.7422 114.18Z" fill="url(#paint11_linear_685_128950)"/>
<path d="M105.931 116.696L98.5109 112.422L69.8908 129.138L69.4463 129.379V129.896V138.167L76.7979 142.51V133.687L105.931 116.696ZM98.5109 113.456L104.187 116.696L76.3876 132.929L70.7798 129.654L98.5451 113.456H98.5109ZM70.3353 137.685V130.413L75.9431 133.687V140.993L70.3353 137.685Z" fill="#222222"/>
<path d="M82.3387 164.98L76.8677 161.809C76.218 161.43 75.7051 160.465 75.7051 159.603V154.089C75.7051 153.227 76.218 152.848 76.8677 153.227L82.3387 156.398C82.9883 156.777 83.5012 157.742 83.5012 158.604V164.118C83.5012 164.98 82.9883 165.359 82.3387 164.98Z" fill="url(#paint12_linear_685_128950)"/>
<path d="M81.8254 163.601C81.6202 163.601 81.3808 163.533 81.1415 163.395L75.6705 160.224C74.9182 159.776 74.3027 158.639 74.3027 157.639V152.125C74.3027 151.504 74.5421 151.022 74.9182 150.815C75.2602 150.608 75.7047 150.643 76.115 150.884L81.586 154.055C82.3383 154.503 82.9538 155.64 82.9538 156.64V162.154C82.9538 162.774 82.7144 163.257 82.3383 163.464C82.1673 163.567 81.9963 163.601 81.8254 163.601ZM75.4653 151.539H75.3969C75.2944 151.573 75.226 151.78 75.226 152.09V157.605C75.226 158.294 75.6705 159.156 76.1492 159.431L81.6202 162.602C81.6202 162.602 81.8596 162.705 81.9279 162.671C82.0305 162.636 82.0989 162.43 82.0989 162.12V156.605C82.0989 155.916 81.6544 155.054 81.1757 154.779L75.7047 151.608C75.7047 151.608 75.5679 151.539 75.4653 151.539Z" fill="#222222"/>
<path d="M88.0824 113.421C80.9017 113.421 75.3281 118.935 75.3281 123.657C75.3281 128.379 81.0385 132.48 88.0824 132.48C95.1263 132.48 100.837 128.516 100.837 123.657C100.837 118.797 95.2631 113.421 88.0824 113.421Z" fill="#222222"/>
<path d="M98.6141 121.038C98.6141 125.002 93.8954 128.207 88.0824 128.207C82.2695 128.207 77.5508 125.002 77.5508 121.038C77.5508 117.075 82.2695 113.869 88.0824 113.869C93.8954 113.869 98.6141 117.075 98.6141 121.038Z" fill="url(#paint13_linear_685_128950)"/>
<path d="M98.6141 122.968C98.6141 122.968 93.8954 128.206 88.0824 128.206C82.2695 128.206 77.5508 122.968 77.5508 122.968C77.5508 119.004 82.2695 115.799 88.0824 115.799C93.8954 115.799 98.6141 119.004 98.6141 122.968Z" fill="url(#paint14_linear_685_128950)"/>
<path d="M88.0826 128.62C82.0303 128.62 77.1064 125.208 77.1064 121.004C77.1064 116.799 82.0303 113.387 88.0826 113.387C94.1349 113.387 99.0588 116.799 99.0588 121.004C99.0588 125.208 94.1349 128.62 88.0826 128.62ZM88.0826 114.283C82.509 114.283 77.9955 117.316 77.9955 121.004C77.9955 124.691 82.5432 127.724 88.0826 127.724C93.622 127.724 98.1697 124.691 98.1697 121.004C98.1697 117.316 93.622 114.283 88.0826 114.283Z" fill="#222222"/>
<path d="M86.6572 77.8886C86.6572 77.0877 87.3059 76.4154 88.0827 76.4154C88.8627 76.4154 89.5082 77.0565 89.5082 77.8886V119.729C89.5082 120.53 88.8595 121.202 88.0827 121.202C87.3027 121.202 86.6572 120.561 86.6572 119.729V77.8886Z" fill="url(#paint15_linear_685_128950)" stroke="#222222" stroke-width="0.5"/>
<path d="M45.2037 36.2891L46.2637 23.5027H31.9023L32.9623 36.2891C32.9623 36.2891 32.9623 36.358 32.9623 36.3925C32.9623 36.4959 32.9965 36.6337 33.0307 36.7371V37.0129H33.0649C33.5094 39.0118 36.0398 40.5627 39.1172 40.5627C42.1946 40.5627 44.725 39.0118 45.1695 37.0129V36.7371C45.1695 36.7371 45.2379 36.4959 45.2379 36.3925C45.2379 36.3925 45.2379 36.3236 45.2379 36.2891H45.2037Z" fill="url(#paint16_linear_685_128950)"/>
<path d="M46.7424 23.0543H31.9365C31.663 23.0543 31.4578 23.2956 31.492 23.5713L32.552 36.2543V36.3922C32.552 36.3922 32.552 36.599 32.5862 36.7713L32.723 37.4261C33.4069 39.5285 36.0056 40.976 39.1172 40.976C42.2288 40.976 44.8276 39.494 45.5114 37.4261L45.6824 36.6679C45.6824 36.6679 45.7166 36.4956 45.7166 36.3577V36.2543L46.7766 23.0543H46.7424ZM44.7934 36.2543V36.3922C44.7934 36.3922 44.7934 36.4611 44.7934 36.53C44.7934 36.599 44.7934 36.6334 44.7934 36.7023V36.9091C44.5882 37.6674 44.0411 38.3567 43.2888 38.9081L44.1095 26.9144L41.6133 28.3964H39.1172V40.1488C36.3133 40.1488 33.8856 38.7702 33.4752 36.9436V36.8747V36.7368C33.4752 36.6679 33.4752 36.6334 33.4752 36.5645C33.4752 36.53 33.4752 36.4956 33.4752 36.4956V36.3922L32.4836 24.0193H45.9218L44.8959 36.3232L44.7934 36.2543Z" fill="#222222"/>
<path d="M46.2637 23.5032C46.2637 26.1915 43.0495 28.3972 39.083 28.3972C35.1166 28.3972 31.9023 26.226 31.9023 23.5032C31.9023 20.7805 35.1166 17.7821 39.083 17.7821C43.0495 17.7821 46.2637 20.815 46.2637 23.5032Z" fill="url(#paint17_linear_685_128950)"/>
<path d="M39.0832 28.8452C34.8774 28.8452 31.458 26.4671 31.458 23.5032C31.458 20.5392 34.7748 17.334 39.0832 17.334C43.3916 17.334 46.7084 20.6426 46.7084 23.5032C46.7084 26.3637 43.2891 28.8452 39.0832 28.8452ZM39.0832 18.2301C35.3561 18.2301 32.347 21.1251 32.347 23.5032C32.347 25.8812 35.3903 27.9491 39.0832 27.9491C42.7761 27.9491 45.8194 25.9502 45.8194 23.5032C45.8194 21.0562 42.8103 18.2301 39.0832 18.2301Z" fill="#222222"/>
<path d="M39.0836 26.1226C42.4828 26.1226 45.2384 24.2555 45.2384 21.9523C45.2384 19.6492 42.4828 17.7821 39.0836 17.7821C35.6843 17.7821 32.9287 19.6492 32.9287 21.9523C32.9287 24.2555 35.6843 26.1226 39.0836 26.1226Z" fill="url(#paint18_linear_685_128950)"/>
<path d="M39.0838 26.5705C35.4592 26.5705 32.4844 24.5026 32.4844 21.9523C32.4844 19.4019 35.425 17.334 39.0838 17.334C42.7425 17.334 45.6832 19.4019 45.6832 21.9523C45.6832 24.5026 42.7425 26.5705 39.0838 26.5705ZM39.0838 18.1956C35.9379 18.1956 33.3734 19.8844 33.3734 21.9178C33.3734 23.9512 35.9379 25.64 39.0838 25.64C42.2296 25.64 44.7941 23.9512 44.7941 21.9178C44.7941 19.8844 42.2296 18.1956 39.0838 18.1956Z" fill="#222222"/>
<path d="M40.5872 17.8502C40.0401 17.7123 39.7324 18.1948 39.4588 18.6084C39.3563 18.7463 39.1511 19.0565 39.1169 19.0909C39.0143 19.0565 38.8092 18.7807 38.7066 18.6084C38.433 18.2293 38.0911 17.7123 37.5782 17.8502C36.0395 18.2638 35.082 20.6418 35.082 21.5724C35.082 22.951 36.8601 24.0538 39.0827 24.0538C41.3053 24.0538 43.0834 22.951 43.0834 21.5724C43.0834 20.6763 42.0234 18.2638 40.553 17.8502H40.5872Z" fill="#222222"/>
<path opacity="0.4" d="M6.83805 21.0551C5.94901 21.1241 5.40191 21.5376 5.50449 22.1925C5.67546 23.4332 6.5645 25.7768 10.1206 28.982C13.5058 32.0494 17.062 33.5658 19.1136 34.2551C20.1394 34.5998 21.0968 34.5308 21.6097 34.1173L37.8176 20.2624C38.2279 19.9178 37.4415 19.2285 36.6892 19.263L6.83805 21.0207V21.0551Z" fill="#222222"/>
<path d="M22.978 38.4256C22.7728 38.4256 22.5676 38.4256 22.3625 38.3911C20.3451 38.1499 16.4128 37.3572 12.3437 34.9446C8.20628 32.4977 6.77014 30.3264 6.29143 28.9478C6.15465 28.6031 6.18885 28.224 6.35981 27.9138C6.56498 27.5003 7.04369 27.1556 7.69337 26.9833L36.6213 19.2977C37.271 19.1253 38.0916 19.4011 38.3993 19.8836C38.5703 20.1593 38.5703 20.5039 38.3993 20.7796L25.2348 37.5984C24.8244 38.1154 24.0038 38.4256 23.0464 38.4256H22.978ZM37.0316 20.1593C37.0316 20.1593 36.8948 20.1593 36.8264 20.1593L7.89853 27.8449C7.5224 27.9483 7.21466 28.1206 7.11208 28.3274C7.07788 28.4308 7.04369 28.5342 7.11208 28.6376C7.48821 29.6371 8.68499 31.705 12.7882 34.152C16.7205 36.4956 20.5502 37.2538 22.4651 37.495C23.4909 37.6329 24.2431 37.3572 24.4825 37.0125L37.5787 20.2971C37.5787 20.2971 37.2368 20.1248 37.0316 20.1248V20.1593Z" fill="#222222"/>
<path opacity="0.4" d="M70.8142 17.8503C71.7033 17.8159 72.2504 17.3678 72.182 16.7475C72.011 15.5067 71.1562 13.1631 67.6342 9.92345C64.2832 6.85609 60.7271 5.30518 58.6754 4.58142C57.6496 4.23678 56.6922 4.27124 56.1793 4.68482L39.6637 18.3673C39.2534 18.712 40.0399 19.4013 40.7579 19.3668L70.7458 17.8159L70.8142 17.8503Z" fill="#222222"/>
<path d="M40.4852 19.4702C39.9381 19.4702 39.3568 19.2289 39.1174 18.8498C38.9464 18.5741 38.9464 18.2295 39.1516 17.9537L52.6581 1.27282C53.171 0.652456 54.2652 0.342273 55.462 0.514597C57.4794 0.790314 61.4117 1.583 65.4466 3.99553C69.5498 6.47699 70.9518 8.6138 71.4305 9.99239C71.5331 10.337 71.5331 10.6817 71.3621 11.0263C71.1227 11.4399 70.644 11.7846 70.0285 11.9569L40.9297 19.4357C40.9297 19.4357 40.6561 19.4702 40.5194 19.4702H40.4852ZM39.9381 18.4362C39.9381 18.4362 40.4168 18.643 40.6903 18.5741L69.7892 11.0953C70.1995 10.9919 70.473 10.8195 70.5756 10.6128C70.644 10.5094 70.644 10.406 70.5756 10.3026C70.2337 9.3031 69.0369 7.23522 64.9679 4.75376C61.0698 2.41016 57.2743 1.61747 55.3252 1.37621C54.2994 1.23836 53.5472 1.51407 53.3078 1.82426L39.9039 18.4362H39.9381Z" fill="#222222"/>
<path d="M41.5792 19.4358C41.5792 20.2284 40.4508 20.8488 39.0831 20.8488C37.7153 20.8488 36.5869 20.2284 36.5869 19.4358C36.5869 18.6431 37.7153 18.0227 39.0831 18.0227C40.4508 18.0227 41.5792 18.6431 41.5792 19.4358Z" fill="url(#paint19_linear_685_128950)"/>
<path d="M39.0833 21.2965C37.4419 21.2965 36.1426 20.4694 36.1426 19.4354C36.1426 18.4015 37.4419 17.5743 39.0833 17.5743C40.7246 17.5743 41.9897 18.4015 41.9897 19.4354C41.9897 20.4694 40.6904 21.2965 39.0833 21.2965ZM39.0833 18.4704C37.9207 18.4704 37.0316 18.9874 37.0316 19.4354C37.0316 19.8835 37.9207 20.4004 39.0833 20.4004C40.2459 20.4004 41.1349 19.8835 41.1349 19.4354C41.1349 18.9874 40.2459 18.4704 39.0833 18.4704Z" fill="#222222"/>
<path d="M141.904 36.0827L142.964 23.2963H128.603L129.663 36.0827C129.663 36.0827 129.663 36.1516 129.663 36.1861C129.663 36.2895 129.697 36.4273 129.731 36.5307V36.8064H129.765C130.21 38.8054 132.74 40.3563 135.817 40.3563C138.895 40.3563 141.425 38.8054 141.87 36.8064V36.5307C141.87 36.5307 141.938 36.2895 141.938 36.1861C141.938 36.1861 141.938 36.1171 141.938 36.0827H141.904Z" fill="url(#paint20_linear_685_128950)"/>
<path d="M143.407 22.8479H128.602C128.328 22.8479 128.123 23.0892 128.157 23.3649L129.217 36.0479V36.1857C129.217 36.1857 129.217 36.3925 129.251 36.5649L129.388 37.2197C130.072 39.322 132.671 40.7696 135.782 40.7696C138.894 40.7696 141.493 39.2876 142.176 37.2197L142.347 36.4615C142.347 36.4615 142.382 36.2547 142.382 36.1513V36.0479L143.442 22.8479H143.407ZM141.458 36.0479V36.1857C141.458 36.1857 141.458 36.2547 141.458 36.3236C141.458 36.3925 141.458 36.427 141.458 36.4959V36.7027C141.253 37.4609 140.706 38.1502 139.954 38.7017L140.774 26.7079L138.278 28.1899H135.782V39.9424C132.978 39.9424 130.551 38.5638 130.14 36.7372V36.6683V36.5304C130.14 36.4615 130.14 36.427 130.14 36.3581C130.14 36.3236 130.14 36.2891 130.14 36.2891V36.1857L129.149 23.8129H142.587L141.561 36.1168L141.458 36.0479Z" fill="#222222"/>
<path d="M142.929 23.2954C142.929 25.9836 139.715 28.1893 135.748 28.1893C131.782 28.1893 128.567 26.0181 128.567 23.2954C128.567 20.5726 131.782 17.5742 135.748 17.5742C139.715 17.5742 142.929 20.6071 142.929 23.2954Z" fill="url(#paint21_linear_685_128950)"/>
<path d="M135.748 28.6036C131.542 28.6036 128.123 26.2256 128.123 23.2616C128.123 20.2976 131.44 17.0924 135.748 17.0924C140.057 17.0924 143.373 20.401 143.373 23.2616C143.373 26.1222 139.954 28.6036 135.748 28.6036ZM135.748 17.9885C132.021 17.9885 129.012 20.8835 129.012 23.2616C129.012 25.6397 132.055 27.7075 135.748 27.7075C139.441 27.7075 142.484 25.7086 142.484 23.2616C142.484 20.8146 139.475 17.9885 135.748 17.9885Z" fill="#222222"/>
<path d="M141.903 21.7449C141.903 24.0541 139.168 25.9152 135.749 25.9152C132.329 25.9152 129.594 24.0541 129.594 21.7449C129.594 19.4358 132.329 17.5747 135.749 17.5747C139.168 17.5747 141.903 19.4358 141.903 21.7449Z" fill="url(#paint22_linear_685_128950)"/>
<path d="M135.749 26.363C132.124 26.363 129.149 24.2951 129.149 21.7447C129.149 19.1943 132.09 17.1265 135.749 17.1265C139.408 17.1265 142.348 19.1943 142.348 21.7447C142.348 24.2951 139.408 26.363 135.749 26.363ZM135.749 17.9881C132.603 17.9881 130.038 19.6769 130.038 21.7103C130.038 23.7437 132.603 25.4325 135.749 25.4325C138.895 25.4325 141.459 23.7437 141.459 21.7103C141.459 19.6769 138.895 17.9881 135.749 17.9881Z" fill="#222222"/>
<path d="M137.252 17.6092C136.705 17.4714 136.397 17.9539 136.124 18.3675C136.021 18.5053 135.816 18.8155 135.782 18.85C135.679 18.8155 135.474 18.5398 135.372 18.3675C135.098 17.9883 134.756 17.4714 134.243 17.6092C132.704 18.0228 131.747 20.4009 131.747 21.3314C131.747 22.71 133.525 23.8129 135.748 23.8129C137.97 23.8129 139.748 22.71 139.748 21.3314C139.748 20.4353 138.688 18.0228 137.218 17.6092H137.252Z" fill="#222222"/>
<path opacity="0.4" d="M118.89 4.06443C118.411 3.65085 117.454 3.58193 116.462 3.89211C114.513 4.51247 111.094 5.95999 107.401 9.13075C103.913 12.1292 102.99 14.5417 102.75 15.8514C102.648 16.5062 103.161 16.9542 104.084 17.0232L133.867 19.0566C134.619 19.091 135.405 18.4018 134.995 18.0571L118.89 4.02997V4.06443Z" fill="#222222"/>
<path d="M134.243 19.1944C134.243 19.1944 133.969 19.1944 133.832 19.1254L104.939 11.4743C104.289 11.3019 103.845 10.9917 103.605 10.5437C103.434 10.2335 103.434 9.85441 103.537 9.4753C104.084 7.99332 105.554 5.78758 109.555 3.5129C113.727 1.13484 117.317 0.307686 119.608 0.0319681C120.805 -0.105891 121.865 0.204292 122.378 0.824657L135.576 17.6434C135.781 17.9192 135.781 18.2293 135.576 18.5395C135.337 18.9186 134.756 19.1599 134.209 19.1599L134.243 19.1944ZM120.189 0.928051C120.189 0.928051 119.881 0.928051 119.71 0.928051C117.898 1.13484 114.239 1.8586 109.999 4.30559C106.033 6.5458 104.768 8.71708 104.392 9.81995C104.357 9.95781 104.357 10.0612 104.392 10.1646C104.494 10.3714 104.768 10.5437 105.178 10.6471L134.072 18.2983C134.38 18.3672 134.687 18.2638 134.824 18.1604L121.694 1.41056C121.488 1.13484 120.941 0.928051 120.189 0.928051Z" fill="#222222"/>
<path opacity="0.4" d="M152.503 34.3593C152.982 34.7729 153.939 34.8763 154.931 34.5661C156.88 33.9457 160.333 32.5327 164.026 29.3619C167.548 26.398 168.506 23.951 168.745 22.6413C168.848 21.9865 168.335 21.5384 167.446 21.4695L137.8 19.2293C137.082 19.1604 136.261 19.8497 136.671 20.1943L152.469 34.3938L152.503 34.3593Z" fill="#222222"/>
<path d="M151.204 38.3912C150.247 38.3912 149.426 38.081 149.016 37.5296L136.159 20.6074C135.954 20.3317 135.954 20.0215 136.159 19.7113C136.466 19.2288 137.287 18.9876 137.937 19.1599L166.625 27.0178C167.241 27.1902 167.72 27.5348 167.925 27.9484C168.096 28.293 168.096 28.6377 167.959 29.0168C167.378 30.4988 165.873 32.7045 161.872 34.9447C157.667 37.2883 154.076 38.081 151.785 38.3567C151.614 38.3567 151.409 38.3567 151.238 38.3567L151.204 38.3912ZM149.699 37.0126C149.939 37.3228 150.623 37.5985 151.649 37.4951C153.871 37.2539 157.325 36.4612 161.394 34.1865C165.394 31.9463 166.694 29.775 167.104 28.7066C167.138 28.5688 167.138 28.4654 167.104 28.362C167.001 28.1552 166.728 27.9829 166.352 27.8795L137.663 20.0215C137.356 19.9181 137.014 20.056 136.877 20.1594L149.665 37.0126H149.699Z" fill="#222222"/>
<path d="M138.244 19.229C138.244 20.0217 137.116 20.642 135.748 20.642C134.38 20.642 133.252 20.0217 133.252 19.229C133.252 18.4363 134.38 17.8159 135.748 17.8159C137.116 17.8159 138.244 18.4363 138.244 19.229Z" fill="url(#paint23_linear_685_128950)"/>
<path d="M135.747 21.0896C134.106 21.0896 132.807 20.2625 132.807 19.2285C132.807 18.1946 134.106 17.3674 135.747 17.3674C137.389 17.3674 138.654 18.1946 138.654 19.2285C138.654 20.2625 137.354 21.0896 135.747 21.0896ZM135.747 18.2635C134.585 18.2635 133.696 18.7805 133.696 19.2285C133.696 19.6766 134.585 20.1935 135.747 20.1935C136.91 20.1935 137.799 19.6766 137.799 19.2285C137.799 18.7805 136.91 18.2635 135.747 18.2635Z" fill="#222222"/>
<path d="M69.7888 56.7956L41.5448 33.8077C40.7926 33.2218 40.5874 32.1534 41.0661 31.2573C41.579 30.3957 42.6048 30.051 43.5281 30.4646L75.8753 45.7669L74.5418 48.593L51.4268 37.6677C51.4268 37.6677 51.29 37.7366 51.3584 37.7711L70.7121 53.487L69.7888 56.7612V56.7956Z" fill="url(#paint24_linear_685_128950)"/>
<path d="M69.9597 57.3472L41.3395 34.0491C40.4505 33.3598 40.2112 32.0846 40.7924 31.1196C41.3737 30.1201 42.5705 29.7065 43.6647 30.189L76.3197 45.6292L74.7468 49.0412L53.2048 38.8742L71.0881 53.4183L69.9597 57.3817V57.3472ZM42.7415 30.6026C42.1944 30.6026 41.6473 30.9128 41.3395 31.4298C40.9292 32.1535 41.066 33.0496 41.7157 33.5321L69.6178 56.2099L70.3358 53.5906L51.1531 37.9781C51.1531 37.9781 50.948 37.6334 51.0848 37.4611C51.1873 37.2888 51.3925 37.2199 51.5635 37.3232L74.4049 48.1107L75.4649 45.836L43.3912 30.6716C43.186 30.5682 42.9467 30.5337 42.7415 30.5337V30.6026Z" fill="#222222"/>
<path d="M106.821 55.9684L104.872 53.5214L124.568 37.4953L101.043 48.6274L99.709 45.8013L132.022 30.5334C132.98 30.1199 134.005 30.4645 134.518 31.3261C135.031 32.1877 134.826 33.2562 134.04 33.8765L106.855 56.0029L106.821 55.9684Z" fill="url(#paint25_linear_685_128950)"/>
<path d="M106.753 56.4172L104.394 53.4877L104.633 53.2809L122.345 38.8747L100.838 49.0418L99.2305 45.6298L131.817 30.224C132.911 29.7415 134.142 30.1206 134.724 31.1201C135.305 32.1196 135.065 33.3948 134.142 34.0841L106.719 56.4172H106.753ZM105.283 53.5911L106.821 55.5211L133.732 33.6016C134.416 33.0846 134.587 32.1885 134.142 31.4648C133.698 30.741 132.843 30.4653 132.056 30.8099L100.051 45.9399L101.111 48.2146L124.602 37.117L124.91 37.565L124.705 37.7718L105.249 53.5911H105.283Z" fill="#222222"/>
<path d="M106.308 62.1036C103.265 57.1752 96.2891 53.97 88.4245 53.97C80.1496 53.97 72.8664 57.5198 70.1309 62.8274L67.6689 61.6556L69.1735 69.0655C70.507 76.0274 78.8845 81.5073 88.2877 81.5073C97.691 81.5073 105.898 76.2686 107.539 69.5136C107.573 69.3412 107.607 69.1689 107.641 68.9966L109.078 62.0347L106.274 62.1036H106.308Z" fill="#222222"/>
<path d="M108.497 58.5186V58.3808C108.394 58.2084 108.36 58.0017 108.292 57.8293L107.061 53.5212H105.727C102.137 49.5923 95.7428 46.9385 88.4253 46.9385C81.1079 46.9385 74.7136 49.5578 71.1233 53.5212H69.5504L68.3878 58.4842C68.3878 58.4842 68.3536 58.6565 68.3194 58.7254V58.8288C68.1826 59.4492 68.1143 60.0695 68.1143 60.7244C68.1143 68.3411 77.2098 74.5447 88.4253 74.5447C99.6409 74.5447 108.736 68.3755 108.736 60.7244C108.736 59.9661 108.634 59.2424 108.463 58.5186H108.497Z" fill="url(#paint26_linear_685_128950)"/>
<path d="M88.4587 74.9583C77.0038 74.9583 67.7031 68.5824 67.7031 60.7244C67.7031 60.2419 67.7373 59.7594 67.8057 59.2769L67.9767 58.4497L69.2418 53.0732H70.9857C74.8154 48.9719 81.3464 46.4905 88.4587 46.4905C95.571 46.4905 102.102 48.9375 105.932 53.0732H107.402L108.701 57.6915C108.77 57.8638 108.804 58.0706 108.872 58.2774L109.078 58.9667H109.043C109.146 59.5526 109.214 60.1385 109.214 60.7244C109.214 68.5824 99.9136 74.9583 88.4587 74.9583ZM68.7973 58.7599V58.8978C68.6606 59.5181 68.5922 60.104 68.5922 60.7244C68.5922 68.0999 77.5167 74.0967 88.4587 74.0967C99.4007 74.0967 108.325 68.0999 108.325 60.7244C108.325 60.0351 108.257 59.3114 108.086 58.6221V58.4842C108.018 58.3119 107.949 58.1051 107.915 57.9328L106.787 53.9349H105.59L105.453 53.797C101.794 49.7646 95.4684 47.3866 88.4929 47.3866C81.5174 47.3866 75.1574 49.7991 71.5328 53.797L71.396 53.9349H69.9599L68.8315 58.7944L68.7973 58.7599Z" fill="#222222"/>
<path d="M107.3 55.4516C107.3 62.5858 98.8197 68.3414 88.3222 68.3414C77.8248 68.3414 69.3447 62.5858 69.3447 55.4516C69.3447 48.3174 77.8248 42.5618 88.3222 42.5618C98.8197 42.5618 107.3 48.3174 107.3 55.4516Z" fill="url(#paint27_linear_685_128950)"/>
<path d="M88.3224 68.7896C77.6198 68.7896 68.9004 62.7927 68.9004 55.4517C68.9004 48.1108 77.6198 42.1139 88.3224 42.1139C99.025 42.1139 107.71 48.1108 107.71 55.4517C107.71 62.7927 98.9908 68.7896 88.3224 68.7896ZM88.3224 43.01C78.0985 43.01 69.7894 48.5933 69.7894 55.4517C69.7894 62.3102 78.0985 67.8935 88.3224 67.8935C98.5463 67.8935 106.855 62.3102 106.855 55.4517C106.855 48.5933 98.5463 43.01 88.3224 43.01Z" fill="#222222"/>
<path d="M88.4588 39.6324C79.2949 39.6324 72.1826 46.6632 72.1826 52.6946C72.1826 58.7259 79.5001 63.8956 88.4588 63.8956C97.4176 63.8956 104.735 58.8638 104.735 52.6946C104.735 46.5254 97.6228 39.6324 88.4588 39.6324Z" fill="#222222"/>
<path d="M102 49.2831C102 54.3839 95.9481 58.4852 88.4597 58.4852C80.9712 58.4852 74.9189 54.3494 74.9189 49.2831C74.9189 44.2168 80.9712 40.0811 88.4597 40.0811C95.9481 40.0811 102 44.2168 102 49.2831Z" fill="url(#paint28_linear_685_128950)"/>
<path d="M101.864 51.9711C101.864 51.9711 96.8714 58.4849 88.4255 58.4849C79.5009 58.4849 74.8848 51.6609 74.8848 51.6609C74.8848 47.4217 80.8345 43.1136 88.3229 43.1136C95.8113 43.1136 101.864 46.8703 101.864 51.9711Z" fill="url(#paint29_linear_685_128950)"/>
<path d="M88.4599 58.9327C80.7321 58.9327 74.4746 54.5901 74.4746 49.2826C74.4746 43.975 80.7663 39.6324 88.4599 39.6324C96.1535 39.6324 102.445 43.975 102.445 49.2826C102.445 54.5901 96.1535 58.9327 88.4599 58.9327ZM88.4599 40.4941C81.2108 40.4941 75.3295 44.423 75.3295 49.2826C75.3295 54.1421 81.2108 58.0711 88.4599 58.0711C95.7089 58.0711 101.59 54.1421 101.59 49.2826C101.59 44.423 95.7089 40.4941 88.4599 40.4941Z" fill="#222222"/>
<path d="M134.073 100.532C133.629 100.532 133.184 100.394 132.808 100.118L102.308 76.7166C101.624 76.1996 101.487 75.2001 102 74.5108C102.513 73.8215 103.504 73.6837 104.188 74.2006L123.679 89.1583L102.444 67.2043C101.863 66.5839 101.863 65.5845 102.478 64.9986C103.094 64.4127 104.086 64.4127 104.667 65.033L135.441 96.9129C136.193 97.7056 136.33 98.9463 135.646 99.8079C135.236 100.29 134.655 100.566 134.073 100.566V100.532Z" fill="url(#paint30_linear_685_128950)"/>
<path d="M134.039 100.877C133.527 100.877 133.014 100.704 132.603 100.394L102.103 76.9928C101.692 76.6826 101.453 76.2345 101.384 75.752C101.316 75.2351 101.453 74.7526 101.761 74.339C102.068 73.9254 102.513 73.6841 102.992 73.6152C103.504 73.5463 103.983 73.6841 104.394 73.9943L120.465 86.3327L102.239 67.446C101.897 67.0669 101.692 66.6189 101.726 66.1019C101.726 65.5849 101.932 65.1369 102.308 64.7923C103.06 64.0685 104.223 64.103 104.941 64.8267L135.715 96.7066C136.604 97.6371 136.707 99.0846 135.92 100.015C135.476 100.567 134.792 100.877 134.108 100.877H134.039ZM103.231 74.2356C103.231 74.2356 103.128 74.2356 103.06 74.2356C102.718 74.2701 102.444 74.4424 102.239 74.7181C102.034 74.9938 101.966 75.304 102 75.6486C102.034 75.9933 102.205 76.269 102.479 76.4758L132.979 99.8773C133.698 100.429 134.792 100.325 135.373 99.6016C135.92 98.9123 135.852 97.8439 135.168 97.1546L104.394 65.2748C103.915 64.7923 103.128 64.7578 102.65 65.2748C102.41 65.516 102.273 65.8262 102.273 66.1364C102.273 66.481 102.376 66.7912 102.615 67.0325L123.85 88.9865L123.439 89.469L103.949 74.5113C103.744 74.339 103.47 74.2701 103.197 74.2701L103.231 74.2356Z" fill="#222222"/>
<path d="M41.5448 100.566C40.9635 100.566 40.348 100.291 39.9377 99.808C39.2538 98.9809 39.3906 97.7057 40.1429 96.913L71.4643 65.0331C72.0798 64.4128 73.0372 64.4128 73.6527 65.0331C74.2682 65.6535 74.2682 66.6185 73.6527 67.2389L51.9397 89.3308L72.0798 74.2352C72.7637 73.7183 73.7553 73.8561 74.2682 74.5454C74.7811 75.2347 74.6443 76.2342 73.9604 76.7511L42.7758 100.153C42.3996 100.428 41.9551 100.566 41.5106 100.566H41.5448Z" fill="url(#paint31_linear_685_128950)"/>
<path d="M41.5452 100.876C40.8271 100.876 40.1775 100.566 39.6988 100.015C38.9123 99.0843 39.0149 97.6023 39.9381 96.7062L71.2596 64.8263C71.6015 64.4817 72.0802 64.2749 72.5931 64.2749C73.0718 64.2749 73.5506 64.4817 73.9267 64.8263C74.2686 65.171 74.4738 65.6535 74.4738 66.1705C74.4738 66.6874 74.2686 67.1355 73.9267 67.5146L55.1885 86.5736L71.9093 74.0284C72.7299 73.4081 73.9267 73.5804 74.5422 74.4075C74.8499 74.8211 74.9525 75.3036 74.8841 75.8206C74.8157 76.3031 74.5422 76.7511 74.1319 77.0613L42.9472 100.463C42.5368 100.773 42.0239 100.945 41.511 100.945L41.5452 100.876ZM72.5931 64.8608C72.2854 64.8608 71.9435 64.9987 71.7041 65.2399L40.3826 97.1198C39.6988 97.8091 39.5962 98.8775 40.1775 99.5668C40.7588 100.291 41.853 100.394 42.6052 99.8425L73.7899 76.4409C74.0635 76.2342 74.2344 75.9584 74.2686 75.6138C74.3028 75.2691 74.2344 74.959 74.0293 74.6832C73.6189 74.1318 72.8325 74.0284 72.2854 74.442L52.1453 89.5375L51.735 89.055L73.448 66.9632C73.9267 66.4806 73.9267 65.688 73.448 65.2055C73.2086 64.9642 72.9009 64.8608 72.5931 64.8608Z" fill="#222222"/>
<path d="M84.2197 72.5117L79.8771 71.4088C79.0906 71.202 78.6119 70.4094 78.817 69.6167C79.0222 68.824 79.8087 68.3415 80.5951 68.5483L84.9377 69.6511C85.7242 69.8579 86.2029 70.6506 85.9977 71.4433C85.7926 72.236 85.0061 72.7185 84.2197 72.5117Z" fill="url(#paint32_linear_685_128950)"/>
<path d="M84.6636 67.0316L82.0307 66.5146C81.3468 66.3768 80.9365 65.7564 81.0391 65.0671C81.1758 64.3778 81.7913 63.9642 82.4752 64.0676L85.1081 64.5846C85.792 64.7225 86.2023 65.3428 86.0997 66.0321C85.963 66.7214 85.3475 67.135 84.6636 67.0316Z" fill="url(#paint33_linear_685_128950)"/>
<path d="M85.0396 78.6121L81.8253 78.2674C81.0047 78.1985 80.4234 77.4748 80.4918 76.6476C80.5602 75.8204 81.2782 75.2345 82.0989 75.3035L85.3131 75.6481C86.1338 75.7171 86.7151 76.4408 86.6467 77.268C86.5783 78.0951 85.8602 78.681 85.0396 78.6121Z" fill="url(#paint34_linear_685_128950)"/>
<path d="M86.4417 60.552C86.4417 61.3791 85.7578 62.0684 84.9371 62.0684C84.1165 62.0684 83.4326 61.3791 83.4326 60.552C83.4326 59.7248 84.1165 59.0355 84.9371 59.0355C85.7578 59.0355 86.4417 59.7248 86.4417 60.552Z" fill="url(#paint35_linear_685_128950)"/>
<path d="M88.8355 55.1759C89.109 55.3482 89.109 55.5895 88.8355 55.7618C88.5619 55.9341 88.1174 55.9341 87.8438 55.7618C87.5703 55.5895 87.5703 55.3482 87.8438 55.1759C88.1174 55.0035 88.5619 55.0035 88.8355 55.1759Z" fill="#222222"/>
<path d="M91.4009 53.6933C91.6744 53.8657 91.6744 54.1069 91.4009 54.2792C91.1273 54.4515 90.6828 54.4515 90.4093 54.2792C90.1357 54.1069 90.1357 53.8657 90.4093 53.6933C90.6828 53.521 91.1273 53.521 91.4009 53.6933Z" fill="#222222"/>
<path d="M93.9995 52.1773C94.2731 52.3497 94.2731 52.5909 93.9995 52.7632C93.726 52.9356 93.2815 52.9356 93.0079 52.7632C92.7343 52.5909 92.7343 52.3497 93.0079 52.1773C93.2815 52.005 93.726 52.005 93.9995 52.1773Z" fill="#222222"/>
<path d="M96.5972 50.6609C96.8707 50.8332 96.8707 51.0744 96.5972 51.2468C96.3236 51.4191 95.8791 51.4191 95.6056 51.2468C95.332 51.0744 95.332 50.8332 95.6056 50.6609C95.8791 50.4885 96.3236 50.4885 96.5972 50.6609Z" fill="#222222"/>
<path d="M86.2378 53.6933C86.5114 53.8657 86.5114 54.1069 86.2378 54.2792C85.9643 54.4515 85.5197 54.4515 85.2462 54.2792C84.9726 54.1069 84.9726 53.8657 85.2462 53.6933C85.5197 53.521 85.9643 53.521 86.2378 53.6933Z" fill="#222222"/>
<path d="M88.8355 52.1773C89.109 52.3497 89.109 52.5909 88.8355 52.7632C88.5619 52.9356 88.1174 52.9356 87.8438 52.7632C87.5703 52.5909 87.5703 52.3497 87.8438 52.1773C88.1174 52.005 88.5619 52.005 88.8355 52.1773Z" fill="#222222"/>
<path d="M91.4009 50.6609C91.6744 50.8332 91.6744 51.0744 91.4009 51.2468C91.1273 51.4191 90.6828 51.4191 90.4093 51.2468C90.1357 51.0744 90.1357 50.8332 90.4093 50.6609C90.6828 50.4885 91.1273 50.4885 91.4009 50.6609Z" fill="#222222"/>
<path d="M93.9995 49.1443C94.2731 49.3166 94.2731 49.5578 93.9995 49.7302C93.726 49.9025 93.2815 49.9025 93.0079 49.7302C92.7343 49.5578 92.7343 49.3166 93.0079 49.1443C93.2815 48.9719 93.726 48.9719 93.9995 49.1443Z" fill="#222222"/>
<path d="M83.6382 52.1773C83.9117 52.3497 83.9117 52.5909 83.6382 52.7632C83.3646 52.9356 82.9201 52.9356 82.6466 52.7632C82.373 52.5909 82.373 52.3497 82.6466 52.1773C82.9201 52.005 83.3646 52.005 83.6382 52.1773Z" fill="#222222"/>
<path d="M86.2378 50.6609C86.5114 50.8332 86.5114 51.0744 86.2378 51.2468C85.9643 51.4191 85.5197 51.4191 85.2462 51.2468C84.9726 51.0744 84.9726 50.8332 85.2462 50.6609C85.5197 50.4885 85.9643 50.4885 86.2378 50.6609Z" fill="#222222"/>
<path d="M88.8355 49.1443C89.109 49.3166 89.109 49.5578 88.8355 49.7302C88.5619 49.9025 88.1174 49.9025 87.8438 49.7302C87.5703 49.5578 87.5703 49.3166 87.8438 49.1443C88.1174 48.9719 88.5619 48.9719 88.8355 49.1443Z" fill="#222222"/>
<path d="M91.4009 47.6284C91.6744 47.8007 91.6744 48.042 91.4009 48.2143C91.1273 48.3866 90.6828 48.3866 90.4093 48.2143C90.1357 48.042 90.1357 47.8007 90.4093 47.6284C90.6828 47.4561 91.1273 47.4561 91.4009 47.6284Z" fill="#222222"/>
<path d="M81.0396 50.6609C81.3131 50.8332 81.3131 51.0744 81.0396 51.2468C80.766 51.4191 80.3215 51.4191 80.0479 51.2468C79.7744 51.0744 79.7744 50.8332 80.0479 50.6609C80.3215 50.4885 80.766 50.4885 81.0396 50.6609Z" fill="#222222"/>
<path d="M83.6382 49.1443C83.9117 49.3166 83.9117 49.5578 83.6382 49.7302C83.3646 49.9025 82.9201 49.9025 82.6466 49.7302C82.373 49.5578 82.373 49.3166 82.6466 49.1443C82.9201 48.9719 83.3646 48.9719 83.6382 49.1443Z" fill="#222222"/>
<path d="M86.2378 47.6284C86.5114 47.8007 86.5114 48.042 86.2378 48.2143C85.9643 48.3866 85.5197 48.3866 85.2462 48.2143C84.9726 48.042 84.9726 47.8007 85.2462 47.6284C85.5197 47.4561 85.9643 47.4561 86.2378 47.6284Z" fill="#222222"/>
<path d="M88.8355 46.1113C89.109 46.2836 89.109 46.5249 88.8355 46.6972C88.5619 46.8695 88.1174 46.8695 87.8438 46.6972C87.5703 46.5249 87.5703 46.2836 87.8438 46.1113C88.1174 45.939 88.5619 45.939 88.8355 46.1113Z" fill="#222222"/>
<path d="M45.6139 107.666L46.6739 94.8795H32.3125L33.3725 107.666C33.3725 107.666 33.3725 107.735 33.3725 107.769C33.3725 107.873 33.4067 108.011 33.4409 108.114V108.39H33.4751C33.9196 110.389 36.4499 111.94 39.5274 111.94C42.6048 111.94 45.1352 110.389 45.5797 108.39V108.114C45.5797 108.114 45.6481 107.873 45.6481 107.769C45.6481 107.769 45.6481 107.7 45.6481 107.666H45.6139Z" fill="url(#paint36_linear_685_128950)"/>
<path d="M47.1526 94.4316H32.3467C32.0731 94.4316 31.868 94.6729 31.9022 94.9486L32.9622 107.632V107.769C32.9622 107.769 32.9622 107.976 32.9964 108.149L33.1331 108.803C33.817 110.906 36.4157 112.353 39.5274 112.353C42.639 112.353 45.2377 110.871 45.9216 108.803L46.0926 108.045C46.0926 108.045 46.1268 107.873 46.1268 107.735V107.632L47.1868 94.4316H47.1526ZM45.2035 107.632V107.769C45.2035 107.769 45.2035 107.838 45.2035 107.907C45.2035 107.976 45.2035 108.011 45.2035 108.08V108.286C44.9984 109.045 44.4513 109.734 43.699 110.285L44.5196 98.2917L42.0235 99.7737H39.5274V111.526C36.7235 111.526 34.2957 110.148 33.8854 108.321V108.252V108.114C33.8854 108.045 33.8854 108.011 33.8854 107.942C33.8854 107.907 33.8854 107.873 33.8854 107.873V107.769L32.8938 95.3967H46.3319L45.3061 107.701L45.2035 107.632Z" fill="#222222"/>
<path d="M46.6739 94.8796C46.6739 97.5678 43.4597 99.7736 39.4932 99.7736C35.5267 99.7736 32.3125 97.6023 32.3125 94.8796C32.3125 92.1569 35.5267 89.1584 39.4932 89.1584C43.4597 89.1584 46.6739 92.1913 46.6739 94.8796Z" fill="url(#paint37_linear_685_128950)"/>
<path d="M39.4934 100.187C35.2875 100.187 31.8682 97.8088 31.8682 94.8448C31.8682 91.8809 35.185 88.6757 39.4934 88.6757C43.8018 88.6757 47.1185 91.9843 47.1185 94.8448C47.1185 97.7054 43.6992 100.187 39.4934 100.187ZM39.4934 89.5717C35.7662 89.5717 32.7572 92.4668 32.7572 94.8448C32.7572 97.2229 35.8004 99.2908 39.4934 99.2908C43.1863 99.2908 46.2295 97.2918 46.2295 94.8448C46.2295 92.3979 43.2205 89.5717 39.4934 89.5717Z" fill="#222222"/>
<path d="M39.4947 97.4994C42.894 97.4994 45.6496 95.6323 45.6496 93.3292C45.6496 91.026 42.894 89.1589 39.4947 89.1589C36.0955 89.1589 33.3398 91.026 33.3398 93.3292C33.3398 95.6323 36.0955 97.4994 39.4947 97.4994Z" fill="url(#paint38_linear_685_128950)"/>
<path d="M39.4939 97.9469C35.8694 97.9469 32.8945 95.879 32.8945 93.3286C32.8945 90.7782 35.8352 88.7103 39.4939 88.7103C43.1527 88.7103 46.0933 90.7782 46.0933 93.3286C46.0933 95.879 43.1527 97.9469 39.4939 97.9469ZM39.4939 89.5719C36.3481 89.5719 33.7836 91.2607 33.7836 93.2941C33.7836 95.3276 36.3481 97.0163 39.4939 97.0163C42.6398 97.0163 45.2043 95.3276 45.2043 93.2941C45.2043 91.2607 42.6398 89.5719 39.4939 89.5719Z" fill="#222222"/>
<path d="M40.9984 89.1925C40.4513 89.0546 40.1435 89.5371 39.87 89.9507C39.7674 90.0886 39.5622 90.3987 39.528 90.4332C39.4255 90.3987 39.2203 90.123 39.1177 89.9507C38.8442 89.5716 38.5022 89.0546 37.9893 89.1925C36.4506 89.6061 35.4932 91.9841 35.4932 92.9147C35.4932 94.2933 37.2712 95.3961 39.4938 95.3961C41.7164 95.3961 43.4945 94.2933 43.4945 92.9147C43.4945 92.0186 42.4345 89.6061 40.9642 89.1925H40.9984Z" fill="#222222"/>
<path opacity="0.4" d="M22.6358 75.6477C22.1571 75.2341 21.1996 75.1652 20.208 75.4754C18.259 76.0957 14.8396 77.5432 11.1467 80.714C7.65893 83.7124 6.7357 86.125 6.49634 87.4346C6.39376 88.0895 6.90667 88.5375 7.8299 88.6064L37.6126 90.6398C38.3649 90.6743 39.1513 89.985 38.741 89.6404L22.6358 75.6132V75.6477Z" fill="#222222"/>
<path d="M37.9889 90.7781C37.9889 90.7781 37.7153 90.7781 37.5786 90.7092L8.68484 83.058C8.03516 82.8857 7.59064 82.5755 7.35129 82.1274C7.18032 81.8173 7.18032 81.4382 7.2829 81.059C7.83 79.5771 9.30033 77.3713 13.301 75.0966C17.4726 72.7186 21.063 71.8914 23.354 71.6157C24.5507 71.4778 25.6107 71.788 26.1237 72.4084L39.3224 89.2272C39.5276 89.5029 39.5276 89.8131 39.3224 90.1233C39.0831 90.5024 38.5018 90.7436 37.9547 90.7436L37.9889 90.7781ZM23.9353 72.4773C23.9353 72.4773 23.6275 72.4773 23.4565 72.4773C21.6443 72.6841 17.9855 73.4079 13.7455 75.8549C9.77904 78.0951 8.51387 80.2664 8.13774 81.3692C8.10355 81.5071 8.10355 81.6105 8.13774 81.7139C8.24032 81.9207 8.51387 82.093 8.9242 82.1964L37.8179 89.8475C38.1257 89.9165 38.4334 89.8131 38.5702 89.7097L25.4398 72.9598C25.2346 72.6841 24.6875 72.4773 23.9353 72.4773Z" fill="#222222"/>
<path opacity="0.4" d="M56.2491 105.943C56.7278 106.357 57.6852 106.46 58.6769 106.15C60.6259 105.529 64.0795 104.116 67.7724 100.946C71.2943 97.9817 72.2518 95.5347 72.4911 94.225C72.5937 93.5702 72.0808 93.1222 71.1918 93.0532L41.5458 90.813C40.8277 90.7441 40.0071 91.4334 40.4174 91.7781L56.2149 105.978L56.2491 105.943Z" fill="#222222"/>
<path d="M54.9501 109.975C53.9927 109.975 53.172 109.665 52.7617 109.113L39.9048 92.1913C39.6997 91.9156 39.6997 91.6054 39.9048 91.2952C40.2126 90.8127 41.0332 90.5714 41.6829 90.7438L70.3715 98.6017C70.987 98.774 71.4657 99.1187 71.6708 99.5323C71.8418 99.8769 71.8418 100.222 71.705 100.601C71.1237 102.083 69.6192 104.288 65.6186 106.529C61.4127 108.872 57.8224 109.665 55.5314 109.941C55.3604 109.941 55.1553 109.941 54.9843 109.941L54.9501 109.975ZM53.4456 108.596C53.6849 108.907 54.3688 109.182 55.3946 109.079C57.6172 108.838 61.0708 108.045 65.1398 105.77C69.1405 103.53 70.4399 101.359 70.8502 100.29C70.8844 100.153 70.8844 100.049 70.8502 99.9458C70.7476 99.739 70.4741 99.5667 70.0979 99.4633L41.4094 91.6054C41.1016 91.502 40.7597 91.6398 40.6229 91.7432L53.4114 108.596H53.4456Z" fill="#222222"/>
<path d="M41.9893 90.8127C41.9893 91.6054 40.8609 92.2258 39.4932 92.2258C38.1255 92.2258 36.9971 91.6054 36.9971 90.8127C36.9971 90.02 38.1255 89.3997 39.4932 89.3997C40.8609 89.3997 41.9893 90.02 41.9893 90.8127Z" fill="url(#paint39_linear_685_128950)"/>
<path d="M39.4934 92.6735C37.8521 92.6735 36.5527 91.8463 36.5527 90.8124C36.5527 89.7784 37.8521 88.9513 39.4934 88.9513C41.1347 88.9513 42.3999 89.7784 42.3999 90.8124C42.3999 91.8463 41.1005 92.6735 39.4934 92.6735ZM39.4934 89.8474C38.3308 89.8474 37.4418 90.3644 37.4418 90.8124C37.4418 91.2604 38.3308 91.7774 39.4934 91.7774C40.656 91.7774 41.545 91.2604 41.545 90.8124C41.545 90.3644 40.656 89.8474 39.4934 89.8474Z" fill="#222222"/>
<path d="M142.793 108.114L143.853 95.3279H129.491L130.551 108.114C130.551 108.114 130.551 108.183 130.551 108.218C130.551 108.321 130.585 108.459 130.62 108.562V108.838H130.654C131.098 110.837 133.629 112.388 136.706 112.388C139.784 112.388 142.314 110.837 142.758 108.838V108.562C142.758 108.562 142.827 108.321 142.827 108.218C142.827 108.218 142.827 108.149 142.827 108.114H142.793Z" fill="url(#paint40_linear_685_128950)"/>
<path d="M144.331 94.8794H129.525C129.252 94.8794 129.047 95.1206 129.081 95.3964L130.141 108.079V108.217C130.141 108.217 130.141 108.424 130.175 108.596L130.312 109.251C130.996 111.354 133.594 112.801 136.706 112.801C139.818 112.801 142.416 111.319 143.1 109.251L143.271 108.493C143.271 108.493 143.305 108.286 143.305 108.183V108.079L144.366 94.8794H144.331ZM142.382 108.079V108.217C142.382 108.217 142.382 108.286 142.382 108.355C142.382 108.424 142.382 108.458 142.382 108.527V108.734C142.177 109.492 141.63 110.182 140.878 110.733L141.698 98.7394L139.202 100.221H136.706V111.974C133.902 111.974 131.474 110.595 131.064 108.769V108.7V108.562C131.064 108.493 131.064 108.458 131.064 108.39C131.064 108.355 131.064 108.321 131.064 108.321V108.217L130.073 95.8444H143.511L142.485 108.148L142.382 108.079Z" fill="#222222"/>
<path d="M143.854 95.3275C143.854 98.0157 140.639 100.221 136.673 100.221C132.706 100.221 129.492 98.0502 129.492 95.3275C129.492 92.6048 132.706 89.6063 136.673 89.6063C140.639 89.6063 143.854 92.6392 143.854 95.3275Z" fill="url(#paint41_linear_685_128950)"/>
<path d="M136.672 100.635C132.466 100.635 129.047 98.2566 129.047 95.2926C129.047 92.3286 132.364 89.1234 136.672 89.1234C140.98 89.1234 144.297 92.432 144.297 95.2926C144.297 98.1532 140.878 100.635 136.672 100.635ZM136.672 90.0195C132.945 90.0195 129.936 92.9145 129.936 95.2926C129.936 97.6707 132.979 99.7385 136.672 99.7385C140.365 99.7385 143.408 97.7396 143.408 95.2926C143.408 92.8456 140.399 90.0195 136.672 90.0195Z" fill="#222222"/>
<path d="M142.827 93.7772C142.827 96.0863 140.092 97.9474 136.672 97.9474C133.253 97.9474 130.518 96.0863 130.518 93.7772C130.518 91.468 133.287 89.6069 136.672 89.6069C140.058 89.6069 142.827 91.468 142.827 93.7772Z" fill="url(#paint42_linear_685_128950)"/>
<path d="M136.673 98.3951C133.048 98.3951 130.073 96.3272 130.073 93.7768C130.073 91.2265 133.014 89.1586 136.673 89.1586C140.331 89.1586 143.272 91.2265 143.272 93.7768C143.272 96.3272 140.331 98.3951 136.673 98.3951ZM136.673 90.0202C133.527 90.0202 130.962 91.709 130.962 93.7424C130.962 95.7758 133.527 97.4646 136.673 97.4646C139.818 97.4646 142.383 95.7758 142.383 93.7424C142.383 91.709 139.818 90.0202 136.673 90.0202Z" fill="#222222"/>
<path d="M138.177 89.6407C137.63 89.5029 137.322 89.9854 137.049 90.3989C136.946 90.5368 136.741 90.847 136.707 90.8815C136.604 90.847 136.399 90.5713 136.296 90.3989C136.023 90.0198 135.681 89.5029 135.168 89.6407C133.629 90.0543 132.672 92.4324 132.672 93.3629C132.672 94.7415 134.45 95.8444 136.673 95.8444C138.895 95.8444 140.673 94.7415 140.673 93.3629C140.673 92.4668 139.613 90.0543 138.143 89.6407H138.177Z" fill="#222222"/>
<path opacity="0.4" d="M104.427 92.8802C103.538 92.9491 102.991 93.3627 103.093 94.0175C103.264 95.2583 104.153 97.6019 107.71 100.807C111.095 103.874 114.651 105.391 116.702 106.08C117.728 106.425 118.686 106.356 119.199 105.942L135.406 92.0875C135.817 91.7429 135.03 91.0536 134.278 91.088L104.427 92.8457V92.8802Z" fill="#222222"/>
<path d="M120.567 110.217C120.362 110.217 120.157 110.217 119.951 110.182C117.934 109.941 114.002 109.148 109.933 106.736C105.795 104.289 104.359 102.117 103.88 100.739C103.744 100.394 103.778 100.015 103.949 99.7049C104.154 99.2913 104.633 98.9466 105.282 98.7743L134.21 91.0887C134.86 90.9164 135.68 91.1921 135.988 91.6746C136.159 91.9503 136.159 92.2949 135.988 92.5707L122.824 109.389C122.413 109.906 121.593 110.217 120.635 110.217H120.567ZM134.62 91.9503C134.62 91.9503 134.484 91.9503 134.415 91.9503L105.487 99.6359C105.111 99.7393 104.804 99.9116 104.701 100.118C104.667 100.222 104.633 100.325 104.701 100.429C105.077 101.428 106.274 103.496 110.377 105.943C114.309 108.287 118.139 109.045 120.054 109.286C121.08 109.424 121.832 109.148 122.071 108.804L135.168 92.0882C135.168 92.0882 134.826 91.9158 134.62 91.9158V91.9503Z" fill="#222222"/>
<path opacity="0.4" d="M168.403 89.6758C169.292 89.6413 169.839 89.1933 169.771 88.5729C169.6 87.3322 168.745 84.9886 165.223 81.7489C161.872 78.6815 158.316 77.1306 156.264 76.4069C155.239 76.0622 154.281 76.0967 153.768 76.5103L137.253 90.1927C136.842 90.5374 137.629 91.2267 138.347 91.1922L168.335 89.6413L168.403 89.6758Z" fill="#222222"/>
<path d="M138.039 91.2954C137.492 91.2954 136.91 91.0541 136.671 90.675C136.5 90.3993 136.5 90.0547 136.705 89.7789L150.212 73.098C150.725 72.4777 151.819 72.1675 153.016 72.3398C155.033 72.6155 158.965 73.4082 163 75.8207C167.104 78.3022 168.505 80.439 168.984 81.8176C169.121 82.1622 169.087 82.5069 168.916 82.8515C168.676 83.2651 168.198 83.6098 167.582 83.7821L138.483 91.2609C138.483 91.2609 138.21 91.2954 138.073 91.2954H138.039ZM137.492 90.2614C137.492 90.2614 137.97 90.4682 138.244 90.3993L167.343 82.9205C167.753 82.8171 168.027 82.6447 168.129 82.438C168.198 82.3346 168.198 82.2312 168.129 82.1278C167.787 81.1283 166.591 79.0604 162.556 76.5789C158.658 74.2353 154.862 73.4427 152.913 73.2014C151.887 73.0636 151.135 73.3393 150.896 73.6495L137.492 90.2614Z" fill="#222222"/>
<path d="M139.168 91.2606C139.168 92.0533 138.04 92.6736 136.672 92.6736C135.304 92.6736 134.176 92.0533 134.176 91.2606C134.176 90.4679 135.304 89.8475 136.672 89.8475C138.04 89.8475 139.168 90.4679 139.168 91.2606Z" fill="url(#paint43_linear_685_128950)"/>
<path d="M136.672 93.1217C135.031 93.1217 133.731 92.2946 133.731 91.2606C133.731 90.2267 135.031 89.3995 136.672 89.3995C138.313 89.3995 139.579 90.2267 139.579 91.2606C139.579 92.2946 138.279 93.1217 136.672 93.1217ZM136.672 90.2956C135.51 90.2956 134.62 90.8126 134.62 91.2606C134.62 91.7087 135.51 92.2256 136.672 92.2256C137.835 92.2256 138.724 91.7087 138.724 91.2606C138.724 90.8126 137.835 90.2956 136.672 90.2956Z" fill="#222222"/>
<defs>
<linearGradient id="paint0_linear_685_128950" x1="9.96733" y1="237.791" x2="134.62" y2="152.121" gradientUnits="userSpaceOnUse">
<stop stop-color="#FFB6D5"/>
<stop offset="0.1" stop-color="#FFE3C0"/>
<stop offset="0.29" stop-color="#C7FBDB"/>
<stop offset="0.43" stop-color="#C7CDF4"/>
<stop offset="0.54" stop-color="#FFBCD4"/>
<stop offset="0.66" stop-color="#FFE0C3"/>
<stop offset="0.76" stop-color="#B0F1D4"/>
<stop offset="0.84" stop-color="#C9CEEC"/>
<stop offset="0.91" stop-color="#FFC1DA"/>
<stop offset="1" stop-color="#BDFFE3"/>
</linearGradient>
<linearGradient id="paint1_linear_685_128950" x1="148.518" y1="224.665" x2="157.423" y2="218.884" gradientUnits="userSpaceOnUse">
<stop stop-color="#FFB6D5"/>
<stop offset="0.1" stop-color="#FFE3C0"/>
<stop offset="0.29" stop-color="#C7FBDB"/>
<stop offset="0.43" stop-color="#C7CDF4"/>
<stop offset="0.54" stop-color="#FFBCD4"/>
<stop offset="0.66" stop-color="#FFE0C3"/>
<stop offset="0.76" stop-color="#B0F1D4"/>
<stop offset="0.84" stop-color="#C9CEEC"/>
<stop offset="0.91" stop-color="#FFC1DA"/>
<stop offset="1" stop-color="#BDFFE3"/>
</linearGradient>
<linearGradient id="paint2_linear_685_128950" x1="138.87" y1="233.258" x2="168.777" y2="215.006" gradientUnits="userSpaceOnUse">
<stop stop-color="#FFB6D5"/>
<stop offset="0.1" stop-color="#FFE3C0"/>
<stop offset="0.29" stop-color="#C7FBDB"/>
<stop offset="0.43" stop-color="#C7CDF4"/>
<stop offset="0.54" stop-color="#FFBCD4"/>
<stop offset="0.66" stop-color="#FFE0C3"/>
<stop offset="0.76" stop-color="#B0F1D4"/>
<stop offset="0.84" stop-color="#C9CEEC"/>
<stop offset="0.91" stop-color="#FFC1DA"/>
<stop offset="1" stop-color="#BDFFE3"/>
</linearGradient>
<linearGradient id="paint3_linear_685_128950" x1="133.031" y1="226.652" x2="188.675" y2="214.601" gradientUnits="userSpaceOnUse">
<stop stop-color="#FFB6D5"/>
<stop offset="0.1" stop-color="#FFE3C0"/>
<stop offset="0.29" stop-color="#C7FBDB"/>
<stop offset="0.43" stop-color="#C7CDF4"/>
<stop offset="0.54" stop-color="#FFBCD4"/>
<stop offset="0.66" stop-color="#FFE0C3"/>
<stop offset="0.76" stop-color="#B0F1D4"/>
<stop offset="0.84" stop-color="#C9CEEC"/>
<stop offset="0.91" stop-color="#FFC1DA"/>
<stop offset="1" stop-color="#BDFFE3"/>
</linearGradient>
<linearGradient id="paint4_linear_685_128950" x1="134.201" y1="201.609" x2="185.323" y2="186.19" gradientUnits="userSpaceOnUse">
<stop stop-color="#FFB6D5"/>
<stop offset="0.1" stop-color="#FFE3C0"/>
<stop offset="0.29" stop-color="#C7FBDB"/>
<stop offset="0.43" stop-color="#C7CDF4"/>
<stop offset="0.54" stop-color="#FFBCD4"/>
<stop offset="0.66" stop-color="#FFE0C3"/>
<stop offset="0.76" stop-color="#B0F1D4"/>
<stop offset="0.84" stop-color="#C9CEEC"/>
<stop offset="0.91" stop-color="#FFC1DA"/>
<stop offset="1" stop-color="#BDFFE3"/>
</linearGradient>
<linearGradient id="paint5_linear_685_128950" x1="139.781" y1="226.326" x2="187.318" y2="217.235" gradientUnits="userSpaceOnUse">
<stop stop-color="#FFB6D5"/>
<stop offset="0.1" stop-color="#FFE3C0"/>
<stop offset="0.29" stop-color="#C7FBDB"/>
<stop offset="0.43" stop-color="#C7CDF4"/>
<stop offset="0.54" stop-color="#FFBCD4"/>
<stop offset="0.66" stop-color="#FFE0C3"/>
<stop offset="0.76" stop-color="#B0F1D4"/>
<stop offset="0.84" stop-color="#C9CEEC"/>
<stop offset="0.91" stop-color="#FFC1DA"/>
<stop offset="1" stop-color="#BDFFE3"/>
</linearGradient>
<linearGradient id="paint6_linear_685_128950" x1="62.0535" y1="176.562" x2="94.6928" y2="169.615" gradientUnits="userSpaceOnUse">
<stop stop-color="#FFB6D5"/>
<stop offset="0.1" stop-color="#FFE3C0"/>
<stop offset="0.29" stop-color="#C7FBDB"/>
<stop offset="0.43" stop-color="#C7CDF4"/>
<stop offset="0.54" stop-color="#FFBCD4"/>
<stop offset="0.66" stop-color="#FFE0C3"/>
<stop offset="0.76" stop-color="#B0F1D4"/>
<stop offset="0.84" stop-color="#C9CEEC"/>
<stop offset="0.91" stop-color="#FFC1DA"/>
<stop offset="1" stop-color="#BDFFE3"/>
</linearGradient>
<linearGradient id="paint7_linear_685_128950" x1="63.9572" y1="143.239" x2="113.898" y2="110.957" gradientUnits="userSpaceOnUse">
<stop stop-color="#FFB6D5"/>
<stop offset="0.1" stop-color="#FFE3C0"/>
<stop offset="0.29" stop-color="#C7FBDB"/>
<stop offset="0.43" stop-color="#C7CDF4"/>
<stop offset="0.54" stop-color="#FFBCD4"/>
<stop offset="0.66" stop-color="#FFE0C3"/>
<stop offset="0.76" stop-color="#B0F1D4"/>
<stop offset="0.84" stop-color="#C9CEEC"/>
<stop offset="0.91" stop-color="#FFC1DA"/>
<stop offset="1" stop-color="#BDFFE3"/>
</linearGradient>
<linearGradient id="paint8_linear_685_128950" x1="63.9572" y1="145.242" x2="113.929" y2="112.975" gradientUnits="userSpaceOnUse">
<stop stop-color="#FFB6D5"/>
<stop offset="0.1" stop-color="#FFE3C0"/>
<stop offset="0.29" stop-color="#C7FBDB"/>
<stop offset="0.43" stop-color="#C7CDF4"/>
<stop offset="0.54" stop-color="#FFBCD4"/>
<stop offset="0.66" stop-color="#FFE0C3"/>
<stop offset="0.76" stop-color="#B0F1D4"/>
<stop offset="0.84" stop-color="#C9CEEC"/>
<stop offset="0.91" stop-color="#FFC1DA"/>
<stop offset="1" stop-color="#BDFFE3"/>
</linearGradient>
<linearGradient id="paint9_linear_685_128950" x1="96.4204" y1="148.014" x2="110.245" y2="142.066" gradientUnits="userSpaceOnUse">
<stop stop-color="#FFB6D5"/>
<stop offset="0.1" stop-color="#FFE3C0"/>
<stop offset="0.29" stop-color="#C7FBDB"/>
<stop offset="0.43" stop-color="#C7CDF4"/>
<stop offset="0.54" stop-color="#FFBCD4"/>
<stop offset="0.66" stop-color="#FFE0C3"/>
<stop offset="0.76" stop-color="#B0F1D4"/>
<stop offset="0.84" stop-color="#C9CEEC"/>
<stop offset="0.91" stop-color="#FFC1DA"/>
<stop offset="1" stop-color="#BDFFE3"/>
</linearGradient>
<linearGradient id="paint10_linear_685_128950" x1="96.3142" y1="146.567" x2="108.408" y2="141.36" gradientUnits="userSpaceOnUse">
<stop stop-color="#FFB6D5"/>
<stop offset="0.1" stop-color="#FFE3C0"/>
<stop offset="0.29" stop-color="#C7FBDB"/>
<stop offset="0.43" stop-color="#C7CDF4"/>
<stop offset="0.54" stop-color="#FFBCD4"/>
<stop offset="0.66" stop-color="#FFE0C3"/>
<stop offset="0.76" stop-color="#B0F1D4"/>
<stop offset="0.84" stop-color="#C9CEEC"/>
<stop offset="0.91" stop-color="#FFC1DA"/>
<stop offset="1" stop-color="#BDFFE3"/>
</linearGradient>
<linearGradient id="paint11_linear_685_128950" x1="73.4463" y1="146.09" x2="110.409" y2="129.077" gradientUnits="userSpaceOnUse">
<stop stop-color="#FFB6D5"/>
<stop offset="0.1" stop-color="#FFE3C0"/>
<stop offset="0.29" stop-color="#C7FBDB"/>
<stop offset="0.43" stop-color="#C7CDF4"/>
<stop offset="0.54" stop-color="#FFBCD4"/>
<stop offset="0.66" stop-color="#FFE0C3"/>
<stop offset="0.76" stop-color="#B0F1D4"/>
<stop offset="0.84" stop-color="#C9CEEC"/>
<stop offset="0.91" stop-color="#FFC1DA"/>
<stop offset="1" stop-color="#BDFFE3"/>
</linearGradient>
<linearGradient id="paint12_linear_685_128950" x1="76.2206" y1="166.422" x2="85.5963" y2="164.133" gradientUnits="userSpaceOnUse">
<stop stop-color="#FFB6D5"/>
<stop offset="0.1" stop-color="#FFE3C0"/>
<stop offset="0.29" stop-color="#C7FBDB"/>
<stop offset="0.43" stop-color="#C7CDF4"/>
<stop offset="0.54" stop-color="#FFBCD4"/>
<stop offset="0.66" stop-color="#FFE0C3"/>
<stop offset="0.76" stop-color="#B0F1D4"/>
<stop offset="0.84" stop-color="#C9CEEC"/>
<stop offset="0.91" stop-color="#FFC1DA"/>
<stop offset="1" stop-color="#BDFFE3"/>
</linearGradient>
<linearGradient id="paint13_linear_685_128950" x1="78.9435" y1="129.748" x2="99.4766" y2="118.367" gradientUnits="userSpaceOnUse">
<stop stop-color="#FFB6D5"/>
<stop offset="0.1" stop-color="#FFE3C0"/>
<stop offset="0.29" stop-color="#C7FBDB"/>
<stop offset="0.43" stop-color="#C7CDF4"/>
<stop offset="0.54" stop-color="#FFBCD4"/>
<stop offset="0.66" stop-color="#FFE0C3"/>
<stop offset="0.76" stop-color="#B0F1D4"/>
<stop offset="0.84" stop-color="#C9CEEC"/>
<stop offset="0.91" stop-color="#FFC1DA"/>
<stop offset="1" stop-color="#BDFFE3"/>
</linearGradient>
<linearGradient id="paint14_linear_685_128950" x1="78.9435" y1="129.54" x2="97.9768" y2="117.35" gradientUnits="userSpaceOnUse">
<stop stop-color="#FFB6D5"/>
<stop offset="0.1" stop-color="#FFE3C0"/>
<stop offset="0.29" stop-color="#C7FBDB"/>
<stop offset="0.43" stop-color="#C7CDF4"/>
<stop offset="0.54" stop-color="#FFBCD4"/>
<stop offset="0.66" stop-color="#FFE0C3"/>
<stop offset="0.76" stop-color="#B0F1D4"/>
<stop offset="0.84" stop-color="#C9CEEC"/>
<stop offset="0.91" stop-color="#FFC1DA"/>
<stop offset="1" stop-color="#BDFFE3"/>
</linearGradient>
<linearGradient id="paint15_linear_685_128950" x1="86.6288" y1="126.321" x2="90.8956" y2="126.202" gradientUnits="userSpaceOnUse">
<stop stop-color="#FFB6D5"/>
<stop offset="0.1" stop-color="#FFE3C0"/>
<stop offset="0.29" stop-color="#C7FBDB"/>
<stop offset="0.43" stop-color="#C7CDF4"/>
<stop offset="0.54" stop-color="#FFBCD4"/>
<stop offset="0.66" stop-color="#FFE0C3"/>
<stop offset="0.76" stop-color="#B0F1D4"/>
<stop offset="0.84" stop-color="#C9CEEC"/>
<stop offset="0.91" stop-color="#FFC1DA"/>
<stop offset="1" stop-color="#BDFFE3"/>
</linearGradient>
<linearGradient id="paint16_linear_685_128950" x1="32.8519" y1="42.3969" x2="49.4759" y2="37.1172" gradientUnits="userSpaceOnUse">
<stop stop-color="#FFB6D5"/>
<stop offset="0.1" stop-color="#FFE3C0"/>
<stop offset="0.29" stop-color="#C7FBDB"/>
<stop offset="0.43" stop-color="#C7CDF4"/>
<stop offset="0.54" stop-color="#FFBCD4"/>
<stop offset="0.66" stop-color="#FFE0C3"/>
<stop offset="0.76" stop-color="#B0F1D4"/>
<stop offset="0.84" stop-color="#C9CEEC"/>
<stop offset="0.91" stop-color="#FFC1DA"/>
<stop offset="1" stop-color="#BDFFE3"/>
</linearGradient>
<linearGradient id="paint17_linear_685_128950" x1="32.8519" y1="29.5385" x2="47.3702" y2="22.128" gradientUnits="userSpaceOnUse">
<stop stop-color="#FFB6D5"/>
<stop offset="0.1" stop-color="#FFE3C0"/>
<stop offset="0.29" stop-color="#C7FBDB"/>
<stop offset="0.43" stop-color="#C7CDF4"/>
<stop offset="0.54" stop-color="#FFBCD4"/>
<stop offset="0.66" stop-color="#FFE0C3"/>
<stop offset="0.76" stop-color="#B0F1D4"/>
<stop offset="0.84" stop-color="#C9CEEC"/>
<stop offset="0.91" stop-color="#FFC1DA"/>
<stop offset="1" stop-color="#BDFFE3"/>
</linearGradient>
<linearGradient id="paint18_linear_685_128950" x1="33.7426" y1="27.0193" x2="45.7165" y2="20.3519" gradientUnits="userSpaceOnUse">
<stop stop-color="#FFB6D5"/>
<stop offset="0.1" stop-color="#FFE3C0"/>
<stop offset="0.29" stop-color="#C7FBDB"/>
<stop offset="0.43" stop-color="#C7CDF4"/>
<stop offset="0.54" stop-color="#FFBCD4"/>
<stop offset="0.66" stop-color="#FFE0C3"/>
<stop offset="0.76" stop-color="#B0F1D4"/>
<stop offset="0.84" stop-color="#C9CEEC"/>
<stop offset="0.91" stop-color="#FFC1DA"/>
<stop offset="1" stop-color="#BDFFE3"/>
</linearGradient>
<linearGradient id="paint19_linear_685_128950" x1="36.917" y1="21.1527" x2="41.3221" y2="18.2168" gradientUnits="userSpaceOnUse">
<stop stop-color="#FFB6D5"/>
<stop offset="0.1" stop-color="#FFE3C0"/>
<stop offset="0.29" stop-color="#C7FBDB"/>
<stop offset="0.43" stop-color="#C7CDF4"/>
<stop offset="0.54" stop-color="#FFBCD4"/>
<stop offset="0.66" stop-color="#FFE0C3"/>
<stop offset="0.76" stop-color="#B0F1D4"/>
<stop offset="0.84" stop-color="#C9CEEC"/>
<stop offset="0.91" stop-color="#FFC1DA"/>
<stop offset="1" stop-color="#BDFFE3"/>
</linearGradient>
<linearGradient id="paint20_linear_685_128950" x1="129.552" y1="42.1905" x2="146.176" y2="36.9108" gradientUnits="userSpaceOnUse">
<stop stop-color="#FFB6D5"/>
<stop offset="0.1" stop-color="#FFE3C0"/>
<stop offset="0.29" stop-color="#C7FBDB"/>
<stop offset="0.43" stop-color="#C7CDF4"/>
<stop offset="0.54" stop-color="#FFBCD4"/>
<stop offset="0.66" stop-color="#FFE0C3"/>
<stop offset="0.76" stop-color="#B0F1D4"/>
<stop offset="0.84" stop-color="#C9CEEC"/>
<stop offset="0.91" stop-color="#FFC1DA"/>
<stop offset="1" stop-color="#BDFFE3"/>
</linearGradient>
<linearGradient id="paint21_linear_685_128950" x1="129.517" y1="29.3306" x2="144.035" y2="21.9201" gradientUnits="userSpaceOnUse">
<stop stop-color="#FFB6D5"/>
<stop offset="0.1" stop-color="#FFE3C0"/>
<stop offset="0.29" stop-color="#C7FBDB"/>
<stop offset="0.43" stop-color="#C7CDF4"/>
<stop offset="0.54" stop-color="#FFBCD4"/>
<stop offset="0.66" stop-color="#FFE0C3"/>
<stop offset="0.76" stop-color="#B0F1D4"/>
<stop offset="0.84" stop-color="#C9CEEC"/>
<stop offset="0.91" stop-color="#FFC1DA"/>
<stop offset="1" stop-color="#BDFFE3"/>
</linearGradient>
<linearGradient id="paint22_linear_685_128950" x1="130.408" y1="26.8119" x2="142.382" y2="20.1445" gradientUnits="userSpaceOnUse">
<stop stop-color="#FFB6D5"/>
<stop offset="0.1" stop-color="#FFE3C0"/>
<stop offset="0.29" stop-color="#C7FBDB"/>
<stop offset="0.43" stop-color="#C7CDF4"/>
<stop offset="0.54" stop-color="#FFBCD4"/>
<stop offset="0.66" stop-color="#FFE0C3"/>
<stop offset="0.76" stop-color="#B0F1D4"/>
<stop offset="0.84" stop-color="#C9CEEC"/>
<stop offset="0.91" stop-color="#FFC1DA"/>
<stop offset="1" stop-color="#BDFFE3"/>
</linearGradient>
<linearGradient id="paint23_linear_685_128950" x1="133.582" y1="20.9459" x2="137.987" y2="18.0101" gradientUnits="userSpaceOnUse">
<stop stop-color="#FFB6D5"/>
<stop offset="0.1" stop-color="#FFE3C0"/>
<stop offset="0.29" stop-color="#C7FBDB"/>
<stop offset="0.43" stop-color="#C7CDF4"/>
<stop offset="0.54" stop-color="#FFBCD4"/>
<stop offset="0.66" stop-color="#FFE0C3"/>
<stop offset="0.76" stop-color="#B0F1D4"/>
<stop offset="0.84" stop-color="#C9CEEC"/>
<stop offset="0.91" stop-color="#FFC1DA"/>
<stop offset="1" stop-color="#BDFFE3"/>
</linearGradient>
<linearGradient id="paint24_linear_685_128950" x1="43.1272" y1="59.6453" x2="78.9005" y2="41.7895" gradientUnits="userSpaceOnUse">
<stop stop-color="#FFB6D5"/>
<stop offset="0.1" stop-color="#FFE3C0"/>
<stop offset="0.29" stop-color="#C7FBDB"/>
<stop offset="0.43" stop-color="#C7CDF4"/>
<stop offset="0.54" stop-color="#FFBCD4"/>
<stop offset="0.66" stop-color="#FFE0C3"/>
<stop offset="0.76" stop-color="#B0F1D4"/>
<stop offset="0.84" stop-color="#C9CEEC"/>
<stop offset="0.91" stop-color="#FFC1DA"/>
<stop offset="1" stop-color="#BDFFE3"/>
</linearGradient>
<linearGradient id="paint25_linear_685_128950" x1="102.029" y1="58.7599" x2="137.335" y2="40.5327" gradientUnits="userSpaceOnUse">
<stop stop-color="#FFB6D5"/>
<stop offset="0.1" stop-color="#FFE3C0"/>
<stop offset="0.29" stop-color="#C7FBDB"/>
<stop offset="0.43" stop-color="#C7CDF4"/>
<stop offset="0.54" stop-color="#FFBCD4"/>
<stop offset="0.66" stop-color="#FFE0C3"/>
<stop offset="0.76" stop-color="#B0F1D4"/>
<stop offset="0.84" stop-color="#C9CEEC"/>
<stop offset="0.91" stop-color="#FFC1DA"/>
<stop offset="1" stop-color="#BDFFE3"/>
</linearGradient>
<linearGradient id="paint26_linear_685_128950" x1="70.8002" y1="77.5127" x2="110.37" y2="55.5453" gradientUnits="userSpaceOnUse">
<stop stop-color="#FFB6D5"/>
<stop offset="0.1" stop-color="#FFE3C0"/>
<stop offset="0.29" stop-color="#C7FBDB"/>
<stop offset="0.43" stop-color="#C7CDF4"/>
<stop offset="0.54" stop-color="#FFBCD4"/>
<stop offset="0.66" stop-color="#FFE0C3"/>
<stop offset="0.76" stop-color="#B0F1D4"/>
<stop offset="0.84" stop-color="#C9CEEC"/>
<stop offset="0.91" stop-color="#FFC1DA"/>
<stop offset="1" stop-color="#BDFFE3"/>
</linearGradient>
<linearGradient id="paint27_linear_685_128950" x1="71.8543" y1="71.113" x2="108.816" y2="50.5819" gradientUnits="userSpaceOnUse">
<stop stop-color="#FFB6D5"/>
<stop offset="0.1" stop-color="#FFE3C0"/>
<stop offset="0.29" stop-color="#C7FBDB"/>
<stop offset="0.43" stop-color="#C7CDF4"/>
<stop offset="0.54" stop-color="#FFBCD4"/>
<stop offset="0.66" stop-color="#FFE0C3"/>
<stop offset="0.76" stop-color="#B0F1D4"/>
<stop offset="0.84" stop-color="#C9CEEC"/>
<stop offset="0.91" stop-color="#FFC1DA"/>
<stop offset="1" stop-color="#BDFFE3"/>
</linearGradient>
<linearGradient id="paint28_linear_685_128950" x1="76.7096" y1="60.4639" x2="103.089" y2="45.8189" gradientUnits="userSpaceOnUse">
<stop stop-color="#FFB6D5"/>
<stop offset="0.1" stop-color="#FFE3C0"/>
<stop offset="0.29" stop-color="#C7FBDB"/>
<stop offset="0.43" stop-color="#C7CDF4"/>
<stop offset="0.54" stop-color="#FFBCD4"/>
<stop offset="0.66" stop-color="#FFE0C3"/>
<stop offset="0.76" stop-color="#B0F1D4"/>
<stop offset="0.84" stop-color="#C9CEEC"/>
<stop offset="0.91" stop-color="#FFC1DA"/>
<stop offset="1" stop-color="#BDFFE3"/>
</linearGradient>
<linearGradient id="paint29_linear_685_128950" x1="76.6686" y1="60.1375" x2="100.568" y2="44.3116" gradientUnits="userSpaceOnUse">
<stop stop-color="#FFB6D5"/>
<stop offset="0.1" stop-color="#FFE3C0"/>
<stop offset="0.29" stop-color="#C7FBDB"/>
<stop offset="0.43" stop-color="#C7CDF4"/>
<stop offset="0.54" stop-color="#FFBCD4"/>
<stop offset="0.66" stop-color="#FFE0C3"/>
<stop offset="0.76" stop-color="#B0F1D4"/>
<stop offset="0.84" stop-color="#C9CEEC"/>
<stop offset="0.91" stop-color="#FFC1DA"/>
<stop offset="1" stop-color="#BDFFE3"/>
</linearGradient>
<linearGradient id="paint30_linear_685_128950" x1="103.964" y1="104.437" x2="142.759" y2="90.4517" gradientUnits="userSpaceOnUse">
<stop stop-color="#FFB6D5"/>
<stop offset="0.1" stop-color="#FFE3C0"/>
<stop offset="0.29" stop-color="#C7FBDB"/>
<stop offset="0.43" stop-color="#C7CDF4"/>
<stop offset="0.54" stop-color="#FFBCD4"/>
<stop offset="0.66" stop-color="#FFE0C3"/>
<stop offset="0.76" stop-color="#B0F1D4"/>
<stop offset="0.84" stop-color="#C9CEEC"/>
<stop offset="0.91" stop-color="#FFC1DA"/>
<stop offset="1" stop-color="#BDFFE3"/>
</linearGradient>
<linearGradient id="paint31_linear_685_128950" x1="41.814" y1="104.437" x2="81.1975" y2="89.9553" gradientUnits="userSpaceOnUse">
<stop stop-color="#FFB6D5"/>
<stop offset="0.1" stop-color="#FFE3C0"/>
<stop offset="0.29" stop-color="#C7FBDB"/>
<stop offset="0.43" stop-color="#C7CDF4"/>
<stop offset="0.54" stop-color="#FFBCD4"/>
<stop offset="0.66" stop-color="#FFE0C3"/>
<stop offset="0.76" stop-color="#B0F1D4"/>
<stop offset="0.84" stop-color="#C9CEEC"/>
<stop offset="0.91" stop-color="#FFC1DA"/>
<stop offset="1" stop-color="#BDFFE3"/>
</linearGradient>
<linearGradient id="paint32_linear_685_128950" x1="79.2506" y1="72.996" x2="85.6128" y2="68.6937" gradientUnits="userSpaceOnUse">
<stop stop-color="#FFB6D5"/>
<stop offset="0.1" stop-color="#FFE3C0"/>
<stop offset="0.29" stop-color="#C7FBDB"/>
<stop offset="0.43" stop-color="#C7CDF4"/>
<stop offset="0.54" stop-color="#FFBCD4"/>
<stop offset="0.66" stop-color="#FFE0C3"/>
<stop offset="0.76" stop-color="#B0F1D4"/>
<stop offset="0.84" stop-color="#C9CEEC"/>
<stop offset="0.91" stop-color="#FFC1DA"/>
<stop offset="1" stop-color="#BDFFE3"/>
</linearGradient>
<linearGradient id="paint33_linear_685_128950" x1="81.3601" y1="67.3694" x2="85.9578" y2="64.4208" gradientUnits="userSpaceOnUse">
<stop stop-color="#FFB6D5"/>
<stop offset="0.1" stop-color="#FFE3C0"/>
<stop offset="0.29" stop-color="#C7FBDB"/>
<stop offset="0.43" stop-color="#C7CDF4"/>
<stop offset="0.54" stop-color="#FFBCD4"/>
<stop offset="0.66" stop-color="#FFE0C3"/>
<stop offset="0.76" stop-color="#B0F1D4"/>
<stop offset="0.84" stop-color="#C9CEEC"/>
<stop offset="0.91" stop-color="#FFC1DA"/>
<stop offset="1" stop-color="#BDFFE3"/>
</linearGradient>
<linearGradient id="paint34_linear_685_128950" x1="80.894" y1="78.9745" x2="86.1635" y2="75.2819" gradientUnits="userSpaceOnUse">
<stop stop-color="#FFB6D5"/>
<stop offset="0.1" stop-color="#FFE3C0"/>
<stop offset="0.29" stop-color="#C7FBDB"/>
<stop offset="0.43" stop-color="#C7CDF4"/>
<stop offset="0.54" stop-color="#FFBCD4"/>
<stop offset="0.66" stop-color="#FFE0C3"/>
<stop offset="0.76" stop-color="#B0F1D4"/>
<stop offset="0.84" stop-color="#C9CEEC"/>
<stop offset="0.91" stop-color="#FFC1DA"/>
<stop offset="1" stop-color="#BDFFE3"/>
</linearGradient>
<linearGradient id="paint35_linear_685_128950" x1="83.6316" y1="62.3945" x2="86.9948" y2="61.1356" gradientUnits="userSpaceOnUse">
<stop stop-color="#FFB6D5"/>
<stop offset="0.1" stop-color="#FFE3C0"/>
<stop offset="0.29" stop-color="#C7FBDB"/>
<stop offset="0.43" stop-color="#C7CDF4"/>
<stop offset="0.54" stop-color="#FFBCD4"/>
<stop offset="0.66" stop-color="#FFE0C3"/>
<stop offset="0.76" stop-color="#B0F1D4"/>
<stop offset="0.84" stop-color="#C9CEEC"/>
<stop offset="0.91" stop-color="#FFC1DA"/>
<stop offset="1" stop-color="#BDFFE3"/>
</linearGradient>
<linearGradient id="paint36_linear_685_128950" x1="33.2621" y1="113.774" x2="49.8861" y2="108.494" gradientUnits="userSpaceOnUse">
<stop stop-color="#FFB6D5"/>
<stop offset="0.1" stop-color="#FFE3C0"/>
<stop offset="0.29" stop-color="#C7FBDB"/>
<stop offset="0.43" stop-color="#C7CDF4"/>
<stop offset="0.54" stop-color="#FFBCD4"/>
<stop offset="0.66" stop-color="#FFE0C3"/>
<stop offset="0.76" stop-color="#B0F1D4"/>
<stop offset="0.84" stop-color="#C9CEEC"/>
<stop offset="0.91" stop-color="#FFC1DA"/>
<stop offset="1" stop-color="#BDFFE3"/>
</linearGradient>
<linearGradient id="paint37_linear_685_128950" x1="33.2621" y1="100.915" x2="47.7804" y2="93.5043" gradientUnits="userSpaceOnUse">
<stop stop-color="#FFB6D5"/>
<stop offset="0.1" stop-color="#FFE3C0"/>
<stop offset="0.29" stop-color="#C7FBDB"/>
<stop offset="0.43" stop-color="#C7CDF4"/>
<stop offset="0.54" stop-color="#FFBCD4"/>
<stop offset="0.66" stop-color="#FFE0C3"/>
<stop offset="0.76" stop-color="#B0F1D4"/>
<stop offset="0.84" stop-color="#C9CEEC"/>
<stop offset="0.91" stop-color="#FFC1DA"/>
<stop offset="1" stop-color="#BDFFE3"/>
</linearGradient>
<linearGradient id="paint38_linear_685_128950" x1="34.1538" y1="98.3961" x2="46.1276" y2="91.7287" gradientUnits="userSpaceOnUse">
<stop stop-color="#FFB6D5"/>
<stop offset="0.1" stop-color="#FFE3C0"/>
<stop offset="0.29" stop-color="#C7FBDB"/>
<stop offset="0.43" stop-color="#C7CDF4"/>
<stop offset="0.54" stop-color="#FFBCD4"/>
<stop offset="0.66" stop-color="#FFE0C3"/>
<stop offset="0.76" stop-color="#B0F1D4"/>
<stop offset="0.84" stop-color="#C9CEEC"/>
<stop offset="0.91" stop-color="#FFC1DA"/>
<stop offset="1" stop-color="#BDFFE3"/>
</linearGradient>
<linearGradient id="paint39_linear_685_128950" x1="37.3272" y1="92.5296" x2="41.7323" y2="89.5938" gradientUnits="userSpaceOnUse">
<stop stop-color="#FFB6D5"/>
<stop offset="0.1" stop-color="#FFE3C0"/>
<stop offset="0.29" stop-color="#C7FBDB"/>
<stop offset="0.43" stop-color="#C7CDF4"/>
<stop offset="0.54" stop-color="#FFBCD4"/>
<stop offset="0.66" stop-color="#FFE0C3"/>
<stop offset="0.76" stop-color="#B0F1D4"/>
<stop offset="0.84" stop-color="#C9CEEC"/>
<stop offset="0.91" stop-color="#FFC1DA"/>
<stop offset="1" stop-color="#BDFFE3"/>
</linearGradient>
<linearGradient id="paint40_linear_685_128950" x1="130.441" y1="114.222" x2="147.065" y2="108.942" gradientUnits="userSpaceOnUse">
<stop stop-color="#FFB6D5"/>
<stop offset="0.1" stop-color="#FFE3C0"/>
<stop offset="0.29" stop-color="#C7FBDB"/>
<stop offset="0.43" stop-color="#C7CDF4"/>
<stop offset="0.54" stop-color="#FFBCD4"/>
<stop offset="0.66" stop-color="#FFE0C3"/>
<stop offset="0.76" stop-color="#B0F1D4"/>
<stop offset="0.84" stop-color="#C9CEEC"/>
<stop offset="0.91" stop-color="#FFC1DA"/>
<stop offset="1" stop-color="#BDFFE3"/>
</linearGradient>
<linearGradient id="paint41_linear_685_128950" x1="130.442" y1="101.363" x2="144.96" y2="93.9522" gradientUnits="userSpaceOnUse">
<stop stop-color="#FFB6D5"/>
<stop offset="0.1" stop-color="#FFE3C0"/>
<stop offset="0.29" stop-color="#C7FBDB"/>
<stop offset="0.43" stop-color="#C7CDF4"/>
<stop offset="0.54" stop-color="#FFBCD4"/>
<stop offset="0.66" stop-color="#FFE0C3"/>
<stop offset="0.76" stop-color="#B0F1D4"/>
<stop offset="0.84" stop-color="#C9CEEC"/>
<stop offset="0.91" stop-color="#FFC1DA"/>
<stop offset="1" stop-color="#BDFFE3"/>
</linearGradient>
<linearGradient id="paint42_linear_685_128950" x1="131.332" y1="98.8441" x2="143.305" y2="92.1767" gradientUnits="userSpaceOnUse">
<stop stop-color="#FFB6D5"/>
<stop offset="0.1" stop-color="#FFE3C0"/>
<stop offset="0.29" stop-color="#C7FBDB"/>
<stop offset="0.43" stop-color="#C7CDF4"/>
<stop offset="0.54" stop-color="#FFBCD4"/>
<stop offset="0.66" stop-color="#FFE0C3"/>
<stop offset="0.76" stop-color="#B0F1D4"/>
<stop offset="0.84" stop-color="#C9CEEC"/>
<stop offset="0.91" stop-color="#FFC1DA"/>
<stop offset="1" stop-color="#BDFFE3"/>
</linearGradient>
<linearGradient id="paint43_linear_685_128950" x1="134.506" y1="92.9775" x2="138.911" y2="90.0417" gradientUnits="userSpaceOnUse">
<stop stop-color="#FFB6D5"/>
<stop offset="0.1" stop-color="#FFE3C0"/>
<stop offset="0.29" stop-color="#C7FBDB"/>
<stop offset="0.43" stop-color="#C7CDF4"/>
<stop offset="0.54" stop-color="#FFBCD4"/>
<stop offset="0.66" stop-color="#FFE0C3"/>
<stop offset="0.76" stop-color="#B0F1D4"/>
<stop offset="0.84" stop-color="#C9CEEC"/>
<stop offset="0.91" stop-color="#FFC1DA"/>
<stop offset="1" stop-color="#BDFFE3"/>
</linearGradient>
</defs>
</svg>
