<svg width="140" height="56" viewBox="0 0 140 56" fill="none" xmlns="http://www.w3.org/2000/svg">
<path d="M112.382 45.2867C112.382 45.2868 112.382 45.2869 112.382 45.2868C115.649 43.7076 118.776 41.4542 121.835 38.8167C121.929 38.7352 122.015 38.6443 122.093 38.5461C123.59 36.6385 125.144 34.8378 126.781 33.2079V33.2079C126.842 33.1343 126.745 33.0303 126.667 33.0859C123.946 35.0308 121.184 36.672 118.356 37.8425C98.6473 45.9947 66.8478 36.9485 51.9949 51.7644C49.2879 54.4648 47.3757 57.7269 46.0088 61.3752C45.6242 62.4019 48.14 63.33 48.8699 62.5119V62.5119C62.4231 47.3199 93.7465 54.295 112.382 45.2866C112.382 45.2865 112.382 45.2866 112.382 45.2867V45.2867Z" fill="url(#paint0_radial_671_77118)"/>
<path d="M143.493 17.318C143.493 17.3177 143.492 17.3176 143.492 17.3177C140.443 19.4428 137.571 22.076 134.796 24.9615C135.601 24.2922 136.421 23.6612 137.259 23.0738C137.841 22.6652 138.396 22.217 138.899 21.7131C140.412 20.1958 141.94 18.719 143.493 17.3182C143.493 17.3181 143.493 17.3181 143.493 17.318V17.318Z" fill="url(#paint1_radial_671_77118)"/>
<path d="M102.445 60.7733C102.445 60.7731 102.446 60.7729 102.446 60.7728C106.653 58.0962 110.426 54.1063 114.066 49.6259C115.233 47.7845 116.436 45.9981 117.698 44.313C114.312 47.8146 110.823 50.86 107.077 52.9478C89.5457 62.717 58.8283 57.7261 46.5666 73.1953C44.8273 75.3895 43.5765 77.8499 42.6926 80.5101C42.6591 80.6108 42.6393 80.7155 42.6329 80.8215C42.5879 81.5679 42.5473 82.3175 42.5098 83.0693C42.4569 84.1306 44.4588 84.6249 45.0692 83.7551V83.7551C56.0539 68.1055 86.0425 71.2065 102.445 60.7739C102.445 60.7738 102.445 60.7736 102.445 60.7733V60.7733Z" fill="url(#paint2_radial_671_77118)"/>
<path d="M129.07 31.0959C129.525 30.7085 129.959 30.2947 130.352 29.8439C131.813 28.1696 133.29 26.529 134.796 24.9619C132.246 27.0851 129.854 29.5899 127.553 32.291C127.505 32.3477 127.577 32.4246 127.636 32.3801V32.3801C128.107 31.9372 128.584 31.5085 129.07 31.0959Z" fill="url(#paint3_radial_671_77118)"/>
<path d="M138.587 22.9945C138.949 22.6583 138.597 22.1785 138.183 22.4482V22.4482C138.158 22.4647 138.134 22.4842 138.113 22.5058C136.089 24.5592 134.09 26.6742 132.096 28.7644C132.081 28.7806 132.102 28.8067 132.121 28.7945V28.7945C134.283 26.9571 136.433 24.9951 138.587 22.9945Z" fill="url(#paint4_radial_671_77118)"/>
<path d="M122.259 38.9346C122.384 38.7696 122.146 38.5479 121.989 38.6838V38.6838C121.981 38.6909 121.973 38.6988 121.966 38.7074C121.104 39.8121 120.259 40.9525 119.428 42.1146C120.254 41.1217 121.106 40.175 121.991 39.2877C122.08 39.1699 122.169 39.0522 122.259 38.9346Z" fill="url(#paint5_radial_671_77118)"/>
<path d="M125.776 35.1976C125.776 35.1977 125.777 35.1978 125.777 35.1977C126.488 34.3576 127.201 33.5151 127.916 32.6751C128.065 32.5004 127.821 32.2431 127.637 32.3798V32.3798C127.35 32.6504 127.064 32.9269 126.781 33.2078C126.209 33.8959 125.642 34.5949 125.079 35.3019C124.901 35.5245 125.175 35.7756 125.381 35.5786C125.513 35.4521 125.644 35.325 125.776 35.1975C125.776 35.1974 125.776 35.1974 125.776 35.1976V35.1976Z" fill="url(#paint6_radial_671_77118)"/>
<path d="M131.843 29.0305C131.843 29.0303 131.843 29.0301 131.843 29.03C131.845 29.0281 131.846 29.0263 131.848 29.0245C131.864 29.0074 131.842 28.9806 131.822 28.9938C131.122 29.4684 130.438 29.9781 129.768 30.5175C129.764 30.5208 129.761 30.5245 129.757 30.5285V30.5285C129.687 30.6096 129.791 30.7183 129.875 30.6512C130.532 30.1245 131.188 29.5836 131.842 29.0312C131.843 29.031 131.843 29.0308 131.843 29.0305V29.0305Z" fill="url(#paint7_radial_671_77118)"/>
<path d="M44.3933 104.282C44.3932 104.282 44.3931 104.282 44.3931 104.282C52.8964 88.551 81.098 88.1835 95.2025 76.7124C100.295 72.5713 104.302 66.1064 108.26 59.3577C109.071 57.8398 109.903 56.3475 110.767 54.9014C106.99 60.38 103.08 65.4017 98.4891 68.7119C83.2312 79.7116 54.0839 78.3997 44.354 94.1352C43.0264 96.2816 42.1465 98.6084 41.6076 101.073C41.6003 101.158 41.5929 101.242 41.5856 101.328C41.6385 104.233 41.6738 107.128 41.6164 109.967V109.967C41.6406 110.276 42.2786 110.295 42.3416 109.991C42.7547 107.997 43.4181 106.087 44.3935 104.282C44.3936 104.282 44.3935 104.282 44.3933 104.282V104.282Z" fill="url(#paint8_radial_671_77118)"/>
<path d="M132.534 32.6556C132.534 32.6559 132.535 32.6562 132.535 32.6561C150.4 27.3219 170.53 47.2141 187.994 49.0004C194.851 49.7022 202.521 47.9635 210.261 45.9938C211.896 45.5054 213.522 45.0471 215.132 44.6438C208.413 45.8362 201.858 46.6069 195.988 45.6594C178.061 42.7665 158.47 21.0149 139.699 25.4522C136.955 26.1005 134.449 27.2576 132.121 28.7925C132.028 28.8717 131.935 28.9501 131.842 29.0286C129.823 31.1427 127.808 33.2283 125.776 35.1958C125.026 36.0809 124.276 36.9638 123.526 37.8379C126.187 35.4841 129.144 33.6678 132.534 32.655C132.534 32.6549 132.534 32.6552 132.534 32.6556V32.6556Z" fill="url(#paint9_radial_671_77118)"/>
<path d="M119.428 42.1147C118.838 42.8246 118.262 43.5586 117.698 44.3132C117.755 44.2539 117.813 44.1944 117.87 44.1348C118.214 43.7777 118.525 43.3915 118.81 42.9862C119.016 42.6944 119.222 42.4038 119.428 42.1147Z" fill="url(#paint10_radial_671_77118)"/>
<path d="M115.566 47.7468C115.566 47.7465 115.565 47.7464 115.565 47.7466C115.068 48.3808 114.568 49.0083 114.066 49.6263C113.57 50.4088 113.081 51.2015 112.596 52.0001C113.232 51.0475 113.889 50.1264 114.57 49.2428C114.901 48.7442 115.233 48.2448 115.566 47.7469C115.566 47.7468 115.566 47.7468 115.566 47.7468V47.7468Z" fill="url(#paint11_radial_671_77118)"/>
<path d="M118.897 43.05C118.556 43.4147 118.24 43.8014 117.957 44.212C117.152 45.379 116.356 46.5609 115.566 47.7459C117.168 45.7044 118.751 43.5895 120.343 41.4717C119.862 42.005 119.38 42.5315 118.897 43.05Z" fill="url(#paint12_radial_671_77118)"/>
<path d="M121.991 39.2877C121.44 40.0136 120.892 40.7425 120.343 41.4715C121.409 40.2886 122.469 39.0728 123.527 37.8394C123.004 38.3021 122.492 38.7853 121.991 39.2877Z" fill="url(#paint13_radial_671_77118)"/>
<path d="M112.596 52C112.596 52 112.596 52.0001 112.596 52.0001C111.968 52.9402 111.359 53.9096 110.767 54.9017C111.007 54.5541 111.246 54.2043 111.485 53.8531C111.853 53.2329 112.223 52.6148 112.596 52.0005C112.596 52.0003 112.596 52 112.596 52V52Z" fill="url(#paint14_radial_671_77118)"/>
<path d="M257.691 264.486C257.691 264.487 257.691 264.487 257.691 264.487C270.641 252.64 297.803 250.706 305.114 235.068C307.031 230.967 307.346 226.428 306.782 221.649C306.405 219.735 306.025 217.819 305.672 215.913C305.148 213.829 304.596 211.735 304.062 209.646C301.029 199.546 296.817 189.113 297.223 179.918C297.969 163.027 316.06 142.553 309.902 125.675C308.204 121.022 304.917 117.341 300.807 114.189C299.255 113.163 297.706 112.141 296.185 111.111C294.352 110.029 292.499 108.963 290.667 107.894C281.396 102.959 271.202 98.7415 265.238 92.2531C253.362 79.335 251.423 52.239 235.746 44.9462C231.636 43.0337 227.086 42.7191 222.294 43.2816C220.376 43.6578 218.456 44.0369 216.545 44.3896C214.455 44.9125 212.357 45.4625 210.262 45.9949C200.137 49.0212 189.679 53.2224 180.461 52.8176C163.529 52.0733 143.005 34.0264 126.086 40.1694C121.421 41.8634 117.731 45.142 114.571 49.2427C113.543 50.7907 112.518 52.3358 111.486 53.8531C110.401 55.6819 109.333 57.5299 108.261 59.3581C103.314 68.6059 99.086 78.7748 92.5817 84.7249C79.632 96.5716 52.4696 98.5053 45.1589 114.144C43.2417 118.245 42.9264 122.783 43.4902 127.563C43.8673 129.477 44.2474 131.392 44.601 133.298C45.1251 135.383 45.6764 137.477 46.2101 139.566C49.2439 149.666 53.4554 160.099 53.0496 169.294C52.3035 186.185 34.2124 206.659 40.3704 223.536C42.0685 228.19 45.3552 231.871 49.4659 235.023C51.0178 236.049 52.5666 237.071 54.0876 238.101C55.921 239.183 57.7734 240.249 59.6061 241.318C68.8766 246.252 79.0704 250.47 85.0351 256.959C96.9108 269.877 98.8493 296.973 114.526 304.265C118.637 306.178 123.187 306.493 127.978 305.93C129.897 305.554 131.817 305.175 133.727 304.822C135.817 304.299 137.916 303.749 140.01 303.217C150.135 300.19 160.594 295.989 169.811 296.394C186.744 297.138 207.268 315.185 224.187 309.042C228.852 307.348 232.542 304.07 235.701 299.969C236.73 298.421 237.755 296.876 238.787 295.359C239.872 293.53 240.94 291.682 242.012 289.854C246.958 280.606 251.186 270.437 257.691 264.486C257.691 264.486 257.691 264.486 257.691 264.486V264.486ZM229.911 301.278C213.969 308.137 193.197 291.913 176.855 292.144C159.914 292.383 139.579 308.957 124.078 302.813C108.576 296.67 105.187 270.694 93.0287 258.923C81.3007 247.568 55.03 245.15 48.1538 229.247C41.2775 213.345 57.5419 192.623 57.3103 176.321C57.0707 159.421 40.4557 139.136 46.6144 123.673C52.7732 108.209 78.8124 104.828 90.6124 92.6997C101.996 81.0004 104.419 54.7939 120.361 47.9345C136.303 41.075 157.075 57.2996 173.417 57.0686C190.358 56.8296 210.693 40.2552 226.194 46.3989C241.696 52.5426 245.085 78.5181 257.243 90.2893C268.971 101.645 295.242 104.062 302.118 119.965C308.994 135.868 292.73 156.589 292.962 172.891C293.201 189.791 309.816 210.076 303.657 225.54C297.499 241.003 271.46 244.384 259.66 256.513C248.276 268.212 245.853 294.418 229.911 301.278Z" fill="url(#paint15_radial_671_77118)"/>
<path d="M301.546 216.391C301.546 216.391 301.546 216.391 301.546 216.391C306.598 201.181 289.487 182.609 288.308 166.376C287.171 150.717 301.643 129.889 294.14 114.986C286.637 100.082 261.247 99.2245 249.334 88.9632C236.986 78.3258 232.269 53.5441 217.022 48.504C201.775 43.464 183.157 60.5333 166.885 61.7096C151.187 62.844 130.308 48.4072 115.368 55.8922C100.428 63.3771 99.5682 88.7051 89.2818 100.588C78.6183 112.907 53.7759 117.612 48.7235 132.821C43.6711 148.031 60.7823 166.604 61.9614 182.836C63.0986 198.496 48.6264 219.324 56.1297 234.227C63.633 249.131 89.0231 249.988 100.936 260.249C113.284 270.886 118 295.668 133.247 300.708C148.494 305.748 167.113 288.679 183.385 287.502C199.083 286.368 219.962 300.805 234.902 293.32C249.842 285.835 250.701 260.507 260.987 248.623C271.651 236.305 296.492 231.6 301.545 216.391C301.545 216.391 301.546 216.391 301.546 216.391V216.391ZM239.159 285.228C225.238 293.246 204.386 280.551 189.382 282.517C173.828 284.553 156.913 301.977 141.995 297.989C127.076 294.001 121.161 270.476 108.711 260.953C96.7013 251.768 72.2809 252.361 64.2432 238.474C56.2055 224.586 68.9302 203.786 66.9609 188.818C64.9195 173.302 47.4532 156.428 51.4507 141.546C55.4483 126.664 79.0314 120.763 88.5769 108.344C97.7849 96.3638 97.1902 72.0031 111.112 63.9851C125.033 55.967 145.885 68.6607 160.889 66.6961C176.443 64.6597 193.358 47.2361 208.277 51.2239C223.195 55.2117 229.11 78.7371 241.56 88.2592C253.57 97.4447 277.99 96.8515 286.028 110.739C294.066 124.627 281.34 145.427 283.31 160.395C285.352 175.911 302.818 192.784 298.82 207.666C294.823 222.548 271.24 228.449 261.694 240.869C252.486 252.849 253.081 277.21 239.159 285.228Z" fill="url(#paint16_radial_671_77118)"/>
<path d="M295.522 199.403C298.52 184.917 280.837 169.719 278.012 154.962C275.287 140.727 286.319 120.084 277.839 107.222C269.359 94.3597 245.988 96.2883 233.964 88.1536C221.5 79.7212 214.514 57.504 199.993 54.5136C185.473 51.5224 170.237 69.1622 155.444 71.9804C141.174 74.6988 120.481 63.6939 107.587 72.1534C94.693 80.613 96.6263 103.927 88.4717 115.921C80.0187 128.355 57.747 135.323 54.7492 149.809C51.7507 164.294 69.4338 179.492 72.2588 194.249C74.9839 208.484 63.9521 229.127 72.4323 241.989C80.9126 254.852 104.283 252.923 116.307 261.058C128.771 269.49 135.757 291.707 150.278 294.698C164.798 297.689 180.034 280.049 194.827 277.231C209.097 274.512 229.79 285.517 242.684 277.058C255.578 268.598 253.645 245.285 261.799 233.291C270.252 220.857 292.524 213.888 295.522 199.403ZM245.483 268.867C233.62 277.677 213.208 268.3 199.707 271.694C185.712 275.212 172.12 292.935 158.062 290.881C144.003 288.827 136.078 267.96 123.683 260.585C111.726 253.471 89.4744 256.615 80.6428 244.782C71.8111 232.948 81.2118 212.585 77.8097 199.117C74.2826 185.157 56.5164 171.598 58.5754 157.574C60.6345 143.55 81.5528 135.645 88.9451 123.279C96.0765 111.351 92.925 89.1546 104.788 80.3446C116.651 71.5345 137.063 80.9122 150.564 77.5184C164.559 73.9999 178.15 56.2772 192.209 58.3312C206.268 60.3852 214.192 81.2524 226.588 88.6266C238.545 95.7405 260.796 92.5968 269.628 104.43C278.459 116.265 269.059 136.626 272.461 150.095C275.988 164.055 293.754 177.614 291.695 191.638C289.636 205.662 268.718 213.567 261.325 225.933C254.194 237.861 257.345 260.057 245.483 268.867Z" fill="url(#paint17_radial_671_77118)"/>
<defs>
<radialGradient id="paint0_radial_671_77118" cx="0" cy="0" r="1" gradientUnits="userSpaceOnUse" gradientTransform="translate(114.395 42.2007) rotate(-16.8744) scale(159.533 52.4877)">
<stop stop-color="#FFB6D5"/>
<stop offset="0.1" stop-color="#FFE3C0"/>
<stop offset="0.29" stop-color="#C7FBDB"/>
<stop offset="0.43" stop-color="#C7CDF4"/>
<stop offset="0.54" stop-color="#FFBCD4"/>
<stop offset="0.66" stop-color="#FFE0C3"/>
<stop offset="0.76" stop-color="#B0F1D4"/>
<stop offset="0.84" stop-color="#C9CEEC"/>
<stop offset="0.91" stop-color="#FFC1DA"/>
<stop offset="1" stop-color="#BDFFE3"/>
</radialGradient>
<radialGradient id="paint1_radial_671_77118" cx="0" cy="0" r="1" gradientUnits="userSpaceOnUse" gradientTransform="translate(142.164 19.1114) rotate(-28.9043) scale(18.0741 9.0583)">
<stop stop-color="#FFB6D5"/>
<stop offset="0.1" stop-color="#FFE3C0"/>
<stop offset="0.29" stop-color="#C7FBDB"/>
<stop offset="0.43" stop-color="#C7CDF4"/>
<stop offset="0.54" stop-color="#FFBCD4"/>
<stop offset="0.66" stop-color="#FFE0C3"/>
<stop offset="0.76" stop-color="#B0F1D4"/>
<stop offset="0.84" stop-color="#C9CEEC"/>
<stop offset="0.91" stop-color="#FFC1DA"/>
<stop offset="1" stop-color="#BDFFE3"/>
</radialGradient>
<radialGradient id="paint2_radial_671_77118" cx="0" cy="0" r="1" gradientUnits="userSpaceOnUse" gradientTransform="translate(106.17 54.888) rotate(-20.5614) scale(146.622 57.1073)">
<stop stop-color="#FFB6D5"/>
<stop offset="0.1" stop-color="#FFE3C0"/>
<stop offset="0.29" stop-color="#C7FBDB"/>
<stop offset="0.43" stop-color="#C7CDF4"/>
<stop offset="0.54" stop-color="#FFBCD4"/>
<stop offset="0.66" stop-color="#FFE0C3"/>
<stop offset="0.76" stop-color="#B0F1D4"/>
<stop offset="0.84" stop-color="#C9CEEC"/>
<stop offset="0.91" stop-color="#FFC1DA"/>
<stop offset="1" stop-color="#BDFFE3"/>
</radialGradient>
<radialGradient id="paint3_radial_671_77118" cx="0" cy="0" r="1" gradientUnits="userSpaceOnUse" gradientTransform="translate(133.638 26.7761) rotate(-32.6326) scale(16.3823 8.81173)">
<stop stop-color="#FFB6D5"/>
<stop offset="0.1" stop-color="#FFE3C0"/>
<stop offset="0.29" stop-color="#C7FBDB"/>
<stop offset="0.43" stop-color="#C7CDF4"/>
<stop offset="0.54" stop-color="#FFBCD4"/>
<stop offset="0.66" stop-color="#FFE0C3"/>
<stop offset="0.76" stop-color="#B0F1D4"/>
<stop offset="0.84" stop-color="#C9CEEC"/>
<stop offset="0.91" stop-color="#FFC1DA"/>
<stop offset="1" stop-color="#BDFFE3"/>
</radialGradient>
<radialGradient id="paint4_radial_671_77118" cx="0" cy="0" r="1" gradientUnits="userSpaceOnUse" gradientTransform="translate(139.46 22.7912) rotate(-29.5395) scale(18.4725 9.38489)">
<stop stop-color="#FFB6D5"/>
<stop offset="0.1" stop-color="#FFE3C0"/>
<stop offset="0.29" stop-color="#C7FBDB"/>
<stop offset="0.43" stop-color="#C7CDF4"/>
<stop offset="0.54" stop-color="#FFBCD4"/>
<stop offset="0.66" stop-color="#FFE0C3"/>
<stop offset="0.76" stop-color="#B0F1D4"/>
<stop offset="0.84" stop-color="#C9CEEC"/>
<stop offset="0.91" stop-color="#FFC1DA"/>
<stop offset="1" stop-color="#BDFFE3"/>
</radialGradient>
<radialGradient id="paint5_radial_671_77118" cx="0" cy="0" r="1" gradientUnits="userSpaceOnUse" gradientTransform="translate(122.826 38.5027) rotate(-36.4699) scale(9.07444 5.13755)">
<stop stop-color="#FFB6D5"/>
<stop offset="0.1" stop-color="#FFE3C0"/>
<stop offset="0.29" stop-color="#C7FBDB"/>
<stop offset="0.43" stop-color="#C7CDF4"/>
<stop offset="0.54" stop-color="#FFBCD4"/>
<stop offset="0.66" stop-color="#FFE0C3"/>
<stop offset="0.76" stop-color="#B0F1D4"/>
<stop offset="0.84" stop-color="#C9CEEC"/>
<stop offset="0.91" stop-color="#FFC1DA"/>
<stop offset="1" stop-color="#BDFFE3"/>
</radialGradient>
<radialGradient id="paint6_radial_671_77118" cx="0" cy="0" r="1" gradientUnits="userSpaceOnUse" gradientTransform="translate(128.293 32.6621) rotate(-34.1365) scale(12.5928 6.92783)">
<stop stop-color="#FFB6D5"/>
<stop offset="0.1" stop-color="#FFE3C0"/>
<stop offset="0.29" stop-color="#C7FBDB"/>
<stop offset="0.43" stop-color="#C7CDF4"/>
<stop offset="0.54" stop-color="#FFBCD4"/>
<stop offset="0.66" stop-color="#FFE0C3"/>
<stop offset="0.76" stop-color="#B0F1D4"/>
<stop offset="0.84" stop-color="#C9CEEC"/>
<stop offset="0.91" stop-color="#FFC1DA"/>
<stop offset="1" stop-color="#BDFFE3"/>
</radialGradient>
<radialGradient id="paint7_radial_671_77118" cx="0" cy="0" r="1" gradientUnits="userSpaceOnUse" gradientTransform="translate(131.547 29.4348) rotate(-27.4364) scale(5.75675 2.78834)">
<stop stop-color="#FFB6D5"/>
<stop offset="0.1" stop-color="#FFE3C0"/>
<stop offset="0.29" stop-color="#C7FBDB"/>
<stop offset="0.43" stop-color="#C7CDF4"/>
<stop offset="0.54" stop-color="#FFBCD4"/>
<stop offset="0.66" stop-color="#FFE0C3"/>
<stop offset="0.76" stop-color="#B0F1D4"/>
<stop offset="0.84" stop-color="#C9CEEC"/>
<stop offset="0.91" stop-color="#FFC1DA"/>
<stop offset="1" stop-color="#BDFFE3"/>
</radialGradient>
<radialGradient id="paint8_radial_671_77118" cx="0" cy="0" r="1" gradientUnits="userSpaceOnUse" gradientTransform="translate(100.198 68.6269) rotate(-27.9681) scale(142.516 69.9184)">
<stop stop-color="#FFB6D5"/>
<stop offset="0.1" stop-color="#FFE3C0"/>
<stop offset="0.29" stop-color="#C7FBDB"/>
<stop offset="0.43" stop-color="#C7CDF4"/>
<stop offset="0.54" stop-color="#FFBCD4"/>
<stop offset="0.66" stop-color="#FFE0C3"/>
<stop offset="0.76" stop-color="#B0F1D4"/>
<stop offset="0.84" stop-color="#C9CEEC"/>
<stop offset="0.91" stop-color="#FFC1DA"/>
<stop offset="1" stop-color="#BDFFE3"/>
</radialGradient>
<radialGradient id="paint9_radial_671_77118" cx="0" cy="0" r="1" gradientUnits="userSpaceOnUse" gradientTransform="translate(201.137 30.5609) rotate(-9.46053) scale(168.97 32.4481)">
<stop stop-color="#FFB6D5"/>
<stop offset="0.1" stop-color="#FFE3C0"/>
<stop offset="0.29" stop-color="#C7FBDB"/>
<stop offset="0.43" stop-color="#C7CDF4"/>
<stop offset="0.54" stop-color="#FFBCD4"/>
<stop offset="0.66" stop-color="#FFE0C3"/>
<stop offset="0.76" stop-color="#B0F1D4"/>
<stop offset="0.84" stop-color="#C9CEEC"/>
<stop offset="0.91" stop-color="#FFC1DA"/>
<stop offset="1" stop-color="#BDFFE3"/>
</radialGradient>
<radialGradient id="paint10_radial_671_77118" cx="0" cy="0" r="1" gradientUnits="userSpaceOnUse" gradientTransform="translate(119.164 42.6307) rotate(-38.5907) scale(4.02811 2.32605)">
<stop stop-color="#FFB6D5"/>
<stop offset="0.1" stop-color="#FFE3C0"/>
<stop offset="0.29" stop-color="#C7FBDB"/>
<stop offset="0.43" stop-color="#C7CDF4"/>
<stop offset="0.54" stop-color="#FFBCD4"/>
<stop offset="0.66" stop-color="#FFE0C3"/>
<stop offset="0.76" stop-color="#B0F1D4"/>
<stop offset="0.84" stop-color="#C9CEEC"/>
<stop offset="0.91" stop-color="#FFC1DA"/>
<stop offset="1" stop-color="#BDFFE3"/>
</radialGradient>
<radialGradient id="paint11_radial_671_77118" cx="0" cy="0" r="1" gradientUnits="userSpaceOnUse" gradientTransform="translate(115.112 48.7445) rotate(-41.9786) scale(7.26866 4.2807)">
<stop stop-color="#FFB6D5"/>
<stop offset="0.1" stop-color="#FFE3C0"/>
<stop offset="0.29" stop-color="#C7FBDB"/>
<stop offset="0.43" stop-color="#C7CDF4"/>
<stop offset="0.54" stop-color="#FFBCD4"/>
<stop offset="0.66" stop-color="#FFE0C3"/>
<stop offset="0.76" stop-color="#B0F1D4"/>
<stop offset="0.84" stop-color="#C9CEEC"/>
<stop offset="0.91" stop-color="#FFC1DA"/>
<stop offset="1" stop-color="#BDFFE3"/>
</radialGradient>
<radialGradient id="paint12_radial_671_77118" cx="0" cy="0" r="1" gradientUnits="userSpaceOnUse" gradientTransform="translate(119.613 42.9442) rotate(-39.5201) scale(11.2683 6.55154)">
<stop stop-color="#FFB6D5"/>
<stop offset="0.1" stop-color="#FFE3C0"/>
<stop offset="0.29" stop-color="#C7FBDB"/>
<stop offset="0.43" stop-color="#C7CDF4"/>
<stop offset="0.54" stop-color="#FFBCD4"/>
<stop offset="0.66" stop-color="#FFE0C3"/>
<stop offset="0.76" stop-color="#B0F1D4"/>
<stop offset="0.84" stop-color="#C9CEEC"/>
<stop offset="0.91" stop-color="#FFC1DA"/>
<stop offset="1" stop-color="#BDFFE3"/>
</radialGradient>
<radialGradient id="paint13_radial_671_77118" cx="0" cy="0" r="1" gradientUnits="userSpaceOnUse" gradientTransform="translate(123.041 38.6918) rotate(-35.625) scale(7.12642 3.9964)">
<stop stop-color="#FFB6D5"/>
<stop offset="0.1" stop-color="#FFE3C0"/>
<stop offset="0.29" stop-color="#C7FBDB"/>
<stop offset="0.43" stop-color="#C7CDF4"/>
<stop offset="0.54" stop-color="#FFBCD4"/>
<stop offset="0.66" stop-color="#FFE0C3"/>
<stop offset="0.76" stop-color="#B0F1D4"/>
<stop offset="0.84" stop-color="#C9CEEC"/>
<stop offset="0.91" stop-color="#FFC1DA"/>
<stop offset="1" stop-color="#BDFFE3"/>
</radialGradient>
<radialGradient id="paint14_radial_671_77118" cx="0" cy="0" r="1" gradientUnits="userSpaceOnUse" gradientTransform="translate(112.317 52.681) rotate(-44.8899) scale(4.69894 2.78276)">
<stop stop-color="#FFB6D5"/>
<stop offset="0.1" stop-color="#FFE3C0"/>
<stop offset="0.29" stop-color="#C7FBDB"/>
<stop offset="0.43" stop-color="#C7CDF4"/>
<stop offset="0.54" stop-color="#FFBCD4"/>
<stop offset="0.66" stop-color="#FFE0C3"/>
<stop offset="0.76" stop-color="#B0F1D4"/>
<stop offset="0.84" stop-color="#C9CEEC"/>
<stop offset="0.91" stop-color="#FFC1DA"/>
<stop offset="1" stop-color="#BDFFE3"/>
</radialGradient>
<radialGradient id="paint15_radial_671_77118" cx="0" cy="0" r="1" gradientUnits="userSpaceOnUse" gradientTransform="translate(269.61 102.597) rotate(-32.0712) scale(584.197 311.332)">
<stop stop-color="#FFB6D5"/>
<stop offset="0.1" stop-color="#FFE3C0"/>
<stop offset="0.29" stop-color="#C7FBDB"/>
<stop offset="0.43" stop-color="#C7CDF4"/>
<stop offset="0.54" stop-color="#FFBCD4"/>
<stop offset="0.66" stop-color="#FFE0C3"/>
<stop offset="0.76" stop-color="#B0F1D4"/>
<stop offset="0.84" stop-color="#C9CEEC"/>
<stop offset="0.91" stop-color="#FFC1DA"/>
<stop offset="1" stop-color="#BDFFE3"/>
</radialGradient>
<radialGradient id="paint16_radial_671_77118" cx="0" cy="0" r="1" gradientUnits="userSpaceOnUse" gradientTransform="translate(263.567 107.202) rotate(-32.0712) scale(546.836 291.422)">
<stop stop-color="#FFB6D5"/>
<stop offset="0.1" stop-color="#FFE3C0"/>
<stop offset="0.29" stop-color="#C7FBDB"/>
<stop offset="0.43" stop-color="#C7CDF4"/>
<stop offset="0.54" stop-color="#FFBCD4"/>
<stop offset="0.66" stop-color="#FFE0C3"/>
<stop offset="0.76" stop-color="#B0F1D4"/>
<stop offset="0.84" stop-color="#C9CEEC"/>
<stop offset="0.91" stop-color="#FFC1DA"/>
<stop offset="1" stop-color="#BDFFE3"/>
</radialGradient>
<radialGradient id="paint17_radial_671_77118" cx="0" cy="0" r="1" gradientUnits="userSpaceOnUse" gradientTransform="translate(258.974 110.703) rotate(-32.0712) scale(518.432 276.285)">
<stop stop-color="#FFB6D5"/>
<stop offset="0.1" stop-color="#FFE3C0"/>
<stop offset="0.29" stop-color="#C7FBDB"/>
<stop offset="0.43" stop-color="#C7CDF4"/>
<stop offset="0.54" stop-color="#FFBCD4"/>
<stop offset="0.66" stop-color="#FFE0C3"/>
<stop offset="0.76" stop-color="#B0F1D4"/>
<stop offset="0.84" stop-color="#C9CEEC"/>
<stop offset="0.91" stop-color="#FFC1DA"/>
<stop offset="1" stop-color="#BDFFE3"/>
</radialGradient>
</defs>
</svg>
