<svg width="321" height="77" viewBox="0 0 321 77" fill="none" xmlns="http://www.w3.org/2000/svg">
<path d="M221.217 77.5378C221.217 77.5382 221.217 77.5386 221.216 77.5388C215.96 80.3243 211.006 83.8388 206.223 87.7598C205.831 88.0808 205.481 88.426 205.168 88.788C202.951 91.3488 200.648 93.7888 198.21 96.0402V96.0402C198.163 96.0922 198.267 96.1511 198.328 96.1072C202.88 92.8508 207.548 89.9548 212.405 87.6424C241.708 73.6934 292.592 76.1897 315.701 54.4579C324.245 46.4226 327.269 36.6947 328.239 26.4178C326.769 31.7061 324.157 36.7231 319.771 41.2944C298.821 63.125 248.828 62.9061 221.218 77.5369C221.217 77.5371 221.217 77.5375 221.217 77.5378V77.5378Z" fill="#222222"/>
<path d="M76.4988 104.112C76.4985 104.112 76.4981 104.112 76.4977 104.112C68.7424 104.138 60.1035 105.747 51.0992 107.928C47.7828 109.03 44.4835 110.056 41.2227 110.944C48.8913 109.579 56.1983 108.734 62.79 109.005C93.6364 110.275 124.248 134.54 154.978 126.818C159.363 125.716 163.456 124.035 167.33 121.921C167.43 121.866 167.521 121.804 167.601 121.736C168.551 120.931 169.498 120.118 170.443 119.301C171.403 118.471 169.329 116.815 167.923 117.231C138.494 125.935 106.731 104.011 76.4998 104.111C76.4994 104.111 76.499 104.111 76.4988 104.112Z" fill="#222222"/>
<path d="M190.452 97.2108C190.452 97.2109 190.452 97.2111 190.451 97.2112C163.841 107.553 130.494 90.2115 101.853 92.7899C91.513 93.7205 79.9779 97.6487 68.1996 101.891C65.6423 102.894 63.0889 103.86 60.5459 104.758C70.7667 101.669 80.6588 99.1183 89.5322 98.7012C119.022 97.3169 151.693 116.926 179.743 107.35C183.569 106.044 187.064 104.277 190.306 102.159C190.404 102.078 190.502 101.999 190.601 101.919C193.619 98.9895 196.646 96.0815 199.722 93.2879C200.827 92.0954 201.933 90.9038 203.042 89.7195C199.332 92.7943 195.198 95.3652 190.452 97.2104C190.451 97.2104 190.451 97.2107 190.452 97.2108Z" fill="#222222"/>
</svg>
