<svg width="296" height="61" viewBox="0 0 296 61" fill="none" xmlns="http://www.w3.org/2000/svg">
<path d="M168.067 -7.08062C168.067 -7.08026 168.067 -7.07997 168.067 -7.07983C162.124 -5.3961 156.24 -2.96826 150.391 -0.125043C149.913 0.107348 149.467 0.370085 149.051 0.655297C146.104 2.67657 143.111 4.56775 140.049 6.25608C139.988 6.29636 140.069 6.37094 140.141 6.34077C145.556 4.08444 150.968 2.1901 156.375 0.8816C188.999 -7.0102 237.14 4.55359 266.284 -11.8188C277.06 -17.8725 283.066 -26.5253 287.272 -36.0689C284.174 -31.3336 280.064 -27.0614 274.391 -23.5315C247.291 -6.67507 199.281 -15.9241 168.068 -7.08142C168.068 -7.08128 168.068 -7.08099 168.067 -7.08062Z" fill="#222222"/>
<path d="M-9.45069 -4.51015C-9.45052 -4.51015 -9.45049 -4.51031 -9.45065 -4.51036C-14.5821 -5.95514 -20.4865 -6.78151 -26.8405 -7.26327C-27.0353 -7.27804 -27.2306 -7.27942 -27.4232 -7.26831C-31.3632 -7.04105 -35.2118 -6.93931 -38.9086 -7.03328C-39.0623 -7.0274 -39.0621 -6.86385 -38.9085 -6.84183C-33.8149 -6.11166 -29.0888 -5.12313 -24.9254 -3.72941C4.18921 6.01904 21.4823 38.4238 55.0194 39.2565C67.1997 39.5587 79.4462 35.6438 91.7251 30.1439C85.3093 32.275 78.8374 33.6012 72.2779 33.7002C39.4392 34.1967 19.8167 3.73111 -9.45072 -4.50995C-9.45088 -4.51 -9.45085 -4.51016 -9.45069 -4.51015Z" fill="#222222"/>
<path d="M20.4267 -8.12501C20.4264 -8.12483 20.426 -8.12477 20.4256 -8.12485C12.9588 -9.5028 4.13828 -9.54395 -5.21582 -9.11008C-8.75641 -8.6671 -12.2561 -8.29384 -15.6748 -8.04395C-7.86503 -7.94793 -0.568608 -7.42527 5.68446 -5.97668C34.946 0.803051 56.6593 29.2879 88.6723 27.5431C93.2415 27.2941 97.714 26.4444 102.114 25.1446C102.225 25.1117 102.33 25.0701 102.428 25.0209C103.602 24.429 104.776 23.8295 105.95 23.2249C107.126 22.6195 105.648 20.6794 104.174 20.8175C73.1001 23.7261 49.5337 -2.7523 20.4279 -8.12517C20.4275 -8.12524 20.4271 -8.12518 20.4267 -8.12501Z" fill="#222222"/>
<path d="M132.214 5.95949C132.214 5.95964 132.214 5.95984 132.214 5.95988C103.329 10.927 76.7805 -11.5039 48.4142 -14.2457C38.1737 -15.2358 25.8292 -13.6071 13.1509 -11.7257C10.3719 -11.2392 7.60881 -10.7879 4.87695 -10.3979C15.6904 -11.4712 26.016 -12.0942 34.6827 -10.8838C63.4845 -6.85924 88.6617 17.5942 118.686 13.6113C122.782 13.0683 126.706 12.0294 130.498 10.6124C130.619 10.5544 130.738 10.497 130.859 10.439C134.694 8.21449 138.531 6.01188 142.379 3.92625C143.821 2.99828 145.265 2.07149 146.709 1.15218C142.161 3.38885 137.367 5.07257 132.214 5.9591C132.214 5.95914 132.214 5.95935 132.214 5.95949Z" fill="#222222"/>
</svg>
