<svg width="376" height="155" viewBox="0 0 376 155" fill="none" xmlns="http://www.w3.org/2000/svg">
<path d="M217.097 87.65C217.096 87.6504 217.096 87.6505 217.095 87.6504C210.983 85.4799 204.257 84.3228 197.188 83.7358C196.529 83.681 195.865 83.6995 195.207 83.7761C191.137 84.25 187.147 84.5216 183.282 84.4801C183.178 84.4895 183.172 84.6424 183.275 84.6595C189.524 85.6957 195.445 87.2076 200.839 89.4888C233.371 103.255 260.588 154.185 298.001 154.185C311.835 154.185 324.273 147.222 336.104 137.748C329.444 141.699 322.41 144.29 314.82 144.742C278.569 146.896 249.381 99.1156 217.098 87.6497C217.098 87.6495 217.097 87.6496 217.097 87.65Z" fill="#222222"/>
<path d="M76.1691 -40.3263C76.1692 -40.3262 76.1694 -40.3263 76.1694 -40.3265C73.4601 -46.0312 69.5945 -51.4931 65.0698 -56.8337C64.9305 -56.9982 64.7747 -57.1485 64.6063 -57.2831C61.3341 -59.8984 58.2453 -62.6114 55.4493 -65.4695C55.3233 -65.5763 55.1422 -65.4105 55.2371 -65.2753C58.5746 -60.5215 61.3911 -55.6988 63.3994 -50.7578C77.3836 -16.3435 61.866 39.1841 87.2809 65.1199C91.8983 69.8318 97.4733 73.1647 103.708 75.5499C105.498 76.235 107.136 71.8657 105.717 70.5767C79.6569 46.9105 91.6218 -7.78585 76.1689 -40.3261C76.1688 -40.3263 76.169 -40.3264 76.1691 -40.3263Z" fill="#222222"/>
<path d="M124.07 80.292C124.071 80.292 124.072 80.2921 124.073 80.2923C130.229 82.0224 136.92 82.8772 143.901 83.2636C141.914 82.8828 139.974 82.4142 138.089 81.8428C137.264 81.5926 136.415 81.4238 135.554 81.3664C131.657 81.1069 127.815 80.7681 124.07 80.292Z" fill="#222222"/>
<path d="M336.103 137.75C336.103 137.75 336.103 137.75 336.103 137.75C341.678 134.442 346.99 130.18 352.148 125.418C350.242 126.777 348.296 128.017 346.303 129.116C345.993 129.286 345.703 129.491 345.441 129.728C342.362 132.524 339.253 135.226 336.102 137.749C336.102 137.749 336.102 137.75 336.103 137.75Z" fill="#222222"/>
<path d="M352.148 125.419C352.148 125.419 352.149 125.419 352.149 125.419C357.367 121.699 362.282 117.09 367.03 112.039C365.453 113.381 363.84 114.636 362.188 115.788C361.601 116.197 361.05 116.654 360.552 117.167C357.786 120.019 354.991 122.795 352.149 125.418C352.149 125.418 352.148 125.418 352.148 125.419Z" fill="#222222"/>
<path d="M143.902 83.2637C150.095 84.4485 156.749 84.7745 163.64 84.6616C161.658 84.4599 159.716 84.1722 157.82 83.7851C157.078 83.6335 156.323 83.5468 155.565 83.5469C151.618 83.5476 147.718 83.4756 143.902 83.2637Z" fill="#222222"/>
<path d="M102.736 -22.9765C102.735 -22.9765 102.735 -22.9767 102.735 -22.977C98.1435 -30.3243 91.2993 -36.9118 83.6136 -43.2682C80.455 -45.3066 77.3907 -47.4067 74.5 -49.6094C80.5066 -43.6982 85.7307 -37.6048 89.312 -31.0634C106.07 -0.451229 97.5086 53.1868 124.044 74.5979C127.806 77.6332 132.024 79.8165 136.584 81.3598C136.762 81.4201 136.948 81.4559 137.135 81.4674C138.4 81.545 139.669 81.6151 140.942 81.6797C142.797 81.774 143.67 78.2922 142.158 77.2126C115.313 58.0313 120.633 5.66595 102.737 -22.976C102.737 -22.9763 102.736 -22.9765 102.736 -22.9765Z" fill="#222222"/>
<path d="M247.899 80.7468C247.899 80.747 247.899 80.7473 247.899 80.7473C239.053 78.7424 229.178 78.9889 218.948 80.0222C215.35 80.8348 211.79 81.5369 208.293 82.0491C216.99 81.9387 225.311 82.5458 232.805 84.7164C264.69 93.9573 295.587 138.534 330.56 134.362C335.897 133.726 340.885 132.007 345.61 129.491C345.759 129.411 345.898 129.313 346.023 129.198C346.62 128.654 347.216 128.106 347.811 127.556C349.284 126.192 347.156 122.785 345.18 123.141C311.587 129.185 279.246 87.8519 247.899 80.7464C247.899 80.7463 247.899 80.7466 247.899 80.7468Z" fill="#222222"/>
<path d="M376.333 101.727C375.877 102.115 375.449 102.535 375.062 102.991C372.423 106.096 369.754 109.139 367.029 112.039C371.394 108.321 375.488 103.935 379.427 99.2056C379.509 99.1069 379.383 98.9754 379.281 99.0534C378.317 99.9823 377.335 100.875 376.333 101.727Z" fill="#222222"/>
<path d="M177.491 84.163C176.858 84.0972 176.221 84.0782 175.587 84.1207C171.555 84.3908 167.56 84.5973 163.641 84.6616C169.472 85.2564 175.646 85.1122 181.998 84.5916C182.078 84.585 182.083 84.4696 182.002 84.4574C180.477 84.413 178.972 84.3173 177.491 84.163Z" fill="#222222"/>
<path d="M151.789 82.1445C151.79 82.1445 151.791 82.1447 151.791 82.1449C153.324 82.6773 154.897 83.1257 156.505 83.498C156.637 83.5287 156.772 83.5435 156.908 83.543C161.853 83.5226 166.863 83.3994 171.857 83.3049C171.885 83.3043 171.889 83.2647 171.862 83.2588C165.308 82.685 158.55 82.4102 151.789 82.1445Z" fill="#222222"/>
<path d="M360.523 115.5C359.903 116.089 360.52 116.913 361.232 116.438C361.275 116.409 361.317 116.375 361.353 116.337C364.817 112.742 368.237 109.04 371.65 105.381C371.676 105.352 371.638 105.308 371.606 105.329C367.9 108.551 364.214 111.992 360.523 115.5Z" fill="#222222"/>
<path d="M196.487 82.9387C196.372 82.9542 196.256 82.9697 196.141 82.9852C195.767 83.0356 195.787 83.6269 196.164 83.6552C196.185 83.6568 196.205 83.6562 196.225 83.6537C198.424 83.3811 200.644 83.0526 202.882 82.6846C200.717 82.8694 198.584 82.9605 196.488 82.9387H196.487Z" fill="#222222"/>
<path d="M187.119 83.2432C185.421 83.378 183.723 83.5146 182.026 83.647C181.576 83.6822 181.554 84.3871 182.001 84.4562C182.426 84.4691 182.852 84.4768 183.28 84.4806C184.565 84.3659 185.856 84.2367 187.153 84.0961C187.756 84.0308 187.724 83.2556 187.118 83.2432H187.119Z" fill="#222222"/>
<path d="M172.302 83.2966C172.302 83.297 172.301 83.2972 172.301 83.2972C172.297 83.2973 172.294 83.2973 172.29 83.2974C172.258 83.2979 172.254 83.3431 172.285 83.3498C173.674 83.645 175.089 83.8775 176.526 84.0526C176.536 84.0539 176.547 84.0542 176.558 84.0534C176.76 84.0393 176.767 83.7527 176.566 83.7296C175.156 83.5686 173.735 83.4251 172.304 83.296C172.303 83.2959 172.302 83.2962 172.302 83.2966Z" fill="#222222"/>
<path d="M177.369 78.3924C177.369 78.3927 177.369 78.3929 177.368 78.3927C150.384 63.5445 149.754 14.2996 130.076 -10.3293C122.973 -19.2211 111.883 -26.2182 100.306 -33.1293C97.7026 -34.5464 95.1427 -35.9983 92.6621 -37.5078C102.06 -30.9125 110.674 -24.0848 116.352 -16.0685C135.221 10.5746 132.971 61.4708 159.963 78.461C163.645 80.7793 167.636 82.3158 171.864 83.2568C172.01 83.2696 172.155 83.2824 172.301 83.2952C177.285 83.2028 182.251 83.1412 187.12 83.2413C187.66 83.1985 187.694 82.087 187.164 81.9754C183.743 81.254 180.466 80.0955 177.37 78.392C177.369 78.3919 177.369 78.3921 177.369 78.3924Z" fill="#222222"/>
<path d="M370.899 98.5707C370.899 98.5704 370.899 98.5701 370.899 98.5702C340.329 107.908 305.881 73.0873 275.998 69.9603C264.263 68.7319 251.139 71.7754 237.895 75.2232C235.097 76.0781 232.315 76.8804 229.559 77.5864C241.057 75.4992 252.274 74.1501 262.319 75.8086C292.995 80.8725 326.519 118.948 358.64 111.179C363.334 110.044 367.624 108.019 371.608 105.332C371.766 105.194 371.926 105.056 372.084 104.919C375.539 101.218 378.987 97.5675 382.465 94.1235C383.748 92.5742 385.031 91.0286 386.314 89.4985C381.762 93.6189 376.701 96.7984 370.9 98.5711C370.9 98.5712 370.899 98.571 370.899 98.5707Z" fill="#222222"/>
<path d="M202.881 82.6835C202.881 82.6839 202.881 82.6842 202.882 82.6842C204.666 82.5314 206.471 82.3158 208.294 82.0488C207.747 82.0554 207.199 82.0656 206.649 82.078C206.454 82.0824 206.26 82.102 206.069 82.1361C205.003 82.3257 203.941 82.5086 202.881 82.6828C202.881 82.6829 202.881 82.6832 202.881 82.6835Z" fill="#222222"/>
<path d="M214.734 80.4864C214.734 80.4861 214.735 80.4859 214.735 80.4858C216.145 80.319 217.55 80.1624 218.948 80.0225C220.287 79.7208 221.632 79.4025 222.979 79.0752C221.068 79.4449 219.176 79.7491 217.304 79.9737C216.448 80.1457 215.592 80.3177 214.735 80.487C214.735 80.4871 214.734 80.4868 214.734 80.4864Z" fill="#222222"/>
<path d="M205.591 82.1052C206.1 82.0905 206.607 82.0399 207.109 81.9488C209.639 81.4883 212.184 80.9922 214.733 80.4854C210.29 81.0116 205.798 81.6457 201.312 82.2722C202.746 82.2025 204.173 82.1458 205.591 82.1052Z" fill="#222222"/>
<path d="M196.468 82.9385C196.481 82.9387 196.493 82.9379 196.506 82.9362C198.106 82.7201 199.71 82.4962 201.314 82.2725C199.704 82.3504 198.087 82.4449 196.464 82.5507C196.143 82.5716 196.147 82.9353 196.468 82.9385Z" fill="#222222"/>
<path d="M222.98 79.0744C222.98 79.0741 222.981 79.0739 222.981 79.0738C225.153 78.6541 227.347 78.1497 229.558 77.585C228.754 77.7313 227.949 77.8802 227.144 78.0329C225.753 78.3884 224.366 78.7375 222.981 79.0751C222.981 79.0752 222.98 79.0749 222.98 79.0744Z" fill="#222222"/>
<path d="M439.267 7.42557C439.267 7.42581 439.268 7.42596 439.268 7.42578C461.427 -13.311 507.907 -16.6961 520.417 -44.0707C523.697 -51.2488 524.237 -59.1932 523.272 -67.56C522.627 -70.9102 521.977 -74.2631 521.372 -77.5993C520.475 -81.2487 519.531 -84.9135 518.618 -88.5705C513.427 -106.25 506.22 -124.512 506.914 -140.608C508.191 -170.175 539.148 -206.014 528.611 -235.557C525.705 -243.703 520.081 -250.147 513.047 -255.664C510.391 -257.46 507.741 -259.249 505.138 -261.051C502.001 -262.946 498.831 -264.811 495.695 -266.683C479.831 -275.322 462.388 -282.704 452.181 -294.061C431.859 -316.674 428.542 -364.104 401.716 -376.87C394.682 -380.218 386.896 -380.769 378.697 -379.784C375.414 -379.126 372.129 -378.462 368.859 -377.844C365.283 -376.929 361.692 -375.966 358.108 -375.035C340.783 -369.737 322.886 -362.383 307.113 -363.092C278.138 -364.395 243.017 -395.985 214.066 -385.232C206.083 -382.267 199.769 -376.527 194.362 -369.349C192.602 -366.64 190.849 -363.935 189.083 -361.279C187.226 -358.078 185.398 -354.843 183.564 -351.643C175.1 -335.455 167.864 -317.655 156.734 -307.239C134.575 -286.502 88.0946 -283.117 75.5846 -255.742C72.304 -248.564 71.7643 -240.62 72.7292 -232.253C73.3745 -228.903 74.0248 -225.55 74.6299 -222.214C75.5268 -218.564 76.4702 -214.9 77.3835 -211.243C82.5749 -193.563 89.7815 -175.301 89.0871 -159.205C87.8103 -129.638 56.853 -93.7988 67.3906 -64.2559C70.2964 -56.1099 75.9205 -49.6661 82.9548 -44.149C85.6102 -42.3532 88.2607 -40.5638 90.8633 -38.7616C94.0006 -36.8669 97.1705 -35.0018 100.306 -33.1303C116.17 -24.4927 133.614 -17.1092 143.82 -5.75159C164.142 16.861 167.459 64.2913 194.285 77.0571C201.32 80.4048 209.105 80.9555 217.304 79.9709C220.587 79.3124 223.873 78.6488 227.142 78.0314C230.719 77.1162 234.31 76.1534 237.894 75.2215C255.219 69.9239 273.115 62.57 288.888 63.2785C317.863 64.5814 352.984 96.1717 381.935 85.4187C389.918 82.4535 396.233 76.7144 401.639 69.5363C403.399 66.8265 405.153 64.1219 406.919 61.466C408.775 58.2646 410.603 55.0299 412.437 51.8298C420.902 35.6421 428.137 17.8421 439.267 7.42538C439.267 7.4252 439.267 7.42532 439.267 7.42557ZM391.731 71.8276C364.451 83.8347 328.906 55.4342 300.942 55.8386C271.952 56.257 237.155 85.2698 210.63 74.5155C184.104 63.7612 178.304 18.2922 157.499 -2.31271C137.43 -22.1898 92.476 -26.422 80.7094 -54.2589C68.9428 -82.0959 96.7743 -118.368 96.378 -146.904C95.9679 -176.487 67.5365 -211.995 78.0753 -239.063C88.6141 -266.131 133.172 -272.05 153.364 -293.28C172.843 -313.759 176.99 -359.632 204.27 -371.639C231.549 -383.646 267.094 -355.246 295.058 -355.65C324.048 -356.069 358.845 -385.082 385.371 -374.327C411.896 -363.573 417.697 -318.104 438.501 -297.499C458.57 -277.622 503.524 -273.39 515.291 -245.553C527.057 -217.716 499.226 -181.444 499.622 -152.908C500.032 -123.325 528.464 -87.817 517.925 -60.749C507.386 -33.6809 462.828 -27.7621 442.636 -6.53204C423.157 13.9471 419.01 59.8204 391.731 71.8276Z" fill="#222222"/>
<path d="M514.313 -76.7636C514.314 -76.7633 514.314 -76.7634 514.314 -76.7638C522.959 -103.388 493.679 -135.898 491.662 -164.312C489.716 -191.723 514.48 -228.182 501.641 -254.269C488.801 -280.358 445.354 -281.859 424.969 -299.82C403.839 -318.441 395.768 -361.82 369.678 -370.643C343.587 -379.465 311.728 -349.586 283.883 -347.527C257.021 -345.541 221.292 -370.812 195.728 -357.71C170.162 -344.608 168.691 -300.272 151.089 -279.471C132.842 -257.908 90.3319 -249.673 81.6862 -223.049C73.0406 -196.425 102.321 -163.914 104.339 -135.5C106.285 -108.089 81.5202 -71.6297 94.3598 -45.5424C107.199 -19.4537 150.647 -17.9532 171.031 0.00747681C192.162 18.6279 200.232 62.0071 226.323 70.8296C252.413 79.652 284.273 49.7728 312.118 47.7138C338.979 45.7281 374.708 70.999 400.273 57.8969C425.839 44.7949 427.309 0.459351 444.91 -20.342C463.157 -41.9043 505.666 -50.1402 514.313 -76.7634C514.313 -76.7638 514.313 -76.7639 514.313 -76.7636ZM407.558 43.732C383.736 57.7673 348.055 35.5462 322.38 38.9864C295.764 42.5511 266.819 73.0503 241.291 66.0698C215.763 59.0894 205.64 17.9091 184.336 1.24106C163.785 -14.8378 121.997 -13.7993 108.243 -38.1088C94.4893 -62.4183 116.264 -98.8286 112.894 -125.029C109.401 -152.189 79.5126 -181.726 86.3531 -207.776C93.1937 -233.826 133.549 -244.156 149.883 -265.895C165.64 -286.866 164.622 -329.508 188.444 -343.544C212.267 -357.579 247.948 -335.359 273.623 -338.798C300.239 -342.363 329.184 -372.862 354.712 -365.882C380.24 -358.901 390.363 -317.721 411.667 -301.053C432.217 -284.974 474.005 -286.012 487.759 -261.703C501.514 -237.393 479.738 -200.983 483.109 -174.783C486.602 -147.622 516.49 -118.086 509.65 -92.0356C502.809 -65.9855 462.454 -55.6561 446.12 -33.9164C430.363 -12.9457 431.381 29.6967 407.558 43.732Z" fill="#222222"/>
<path d="M504.006 -106.5C509.137 -131.856 478.878 -158.46 474.043 -184.291C469.38 -209.209 488.258 -245.343 473.747 -267.858C459.235 -290.373 419.243 -286.997 398.669 -301.237C377.34 -315.997 365.386 -354.888 340.538 -360.122C315.691 -365.358 289.619 -334.48 264.306 -329.547C239.887 -324.789 204.477 -344.052 182.413 -329.244C160.349 -314.436 163.657 -273.627 149.703 -252.632C135.239 -230.866 97.1274 -218.668 91.9977 -193.312C86.8666 -167.957 117.126 -141.352 121.96 -115.521C126.623 -90.6035 107.746 -54.4691 122.257 -31.9542C136.768 -9.43918 176.76 -12.8152 197.334 1.42422C218.664 16.1848 230.618 55.0751 255.465 60.3098C280.313 65.5457 306.384 34.6679 331.698 29.7348C356.116 24.9764 391.527 44.24 413.59 29.4319C435.654 14.6239 432.346 -26.1855 446.3 -47.1806C460.765 -68.946 498.876 -81.1444 504.006 -106.5ZM418.379 15.095C398.079 30.5166 363.15 14.1014 340.048 20.0421C316.099 26.201 292.842 57.2239 268.785 53.6285C244.728 50.033 231.167 13.5058 209.956 0.597595C189.495 -11.855 151.419 -6.35202 136.307 -27.0661C121.194 -47.7801 137.28 -83.4241 131.459 -106.999C125.423 -131.437 95.0217 -155.17 98.5451 -179.719C102.069 -204.268 137.864 -218.106 150.513 -239.751C162.716 -260.63 157.324 -299.485 177.623 -314.906C197.923 -330.328 232.852 -313.913 255.955 -319.853C279.903 -326.012 303.16 -357.035 327.217 -353.44C351.274 -349.844 364.835 -313.317 386.046 -300.409C406.507 -287.956 444.583 -293.459 459.696 -272.745C474.808 -252.03 458.722 -216.387 464.544 -192.812C470.579 -168.374 500.98 -144.641 497.457 -120.092C493.934 -95.5429 458.138 -81.7054 445.489 -60.0607C433.286 -39.181 438.678 -0.32663 418.379 15.095Z" fill="#222222"/>
<path d="M490.086 -132.757C492.112 -156.399 461.789 -177.335 454.694 -200.329C447.85 -222.508 461.269 -257.458 445.709 -276.381C430.149 -295.305 394.09 -287.888 373.873 -298.618C352.915 -309.741 337.975 -343.851 314.806 -345.919C291.638 -347.987 271.121 -317.043 248.588 -309.803C226.853 -302.819 192.603 -316.513 174.059 -300.634C155.515 -284.756 162.783 -247.96 152.268 -227.33C141.368 -205.943 107.942 -190.697 105.915 -167.055C103.889 -143.413 134.212 -122.477 141.307 -99.4835C148.151 -77.3035 134.733 -42.3539 150.292 -23.4306C165.853 -4.50717 201.911 -11.924 222.128 -1.19412C243.086 9.92859 258.026 44.0387 281.195 46.1066C304.363 48.1745 324.88 17.2312 347.413 9.99149C369.148 3.0072 403.398 16.6998 421.942 0.822479C440.486 -15.0561 433.218 -51.8516 443.733 -72.4822C454.633 -93.8689 488.059 -109.115 490.086 -132.757ZM441.084 -84.3802C432.186 -64.1244 441.113 -29.4726 424.306 -13.2911C407.498 2.89041 374.117 -8.2182 353.783 -0.332794C332.704 7.84268 314.837 38.4921 292.646 37.8336C270.455 37.1751 254.363 5.51672 233.786 -3.8949C213.936 -12.9741 179.979 -3.86536 164.122 -21.016C148.264 -38.1667 159.15 -72.2306 151.423 -92.9806C143.411 -114.49 113.376 -132.723 114.021 -155.368C114.667 -178.013 145.691 -194.433 154.914 -215.431C163.811 -235.686 154.885 -270.338 171.692 -286.52C188.499 -302.701 221.88 -291.593 242.214 -299.478C263.293 -307.653 281.161 -338.303 303.352 -337.644C325.543 -336.986 341.634 -305.327 362.211 -295.916C382.061 -286.837 416.018 -295.945 431.876 -278.795C447.733 -261.644 436.847 -227.58 444.574 -206.83C452.586 -185.32 482.621 -167.087 481.976 -144.443C481.331 -121.798 450.307 -105.378 441.084 -84.3802Z" fill="#222222"/>
<path d="M434.271 -212.31C425.797 -231.601 434.298 -264.603 418.291 -280.013C402.284 -295.423 370.493 -284.843 351.127 -292.355C331.052 -300.142 314.035 -329.332 292.902 -328.704C271.769 -328.076 256.443 -297.926 236.847 -288.963C217.943 -280.316 185.602 -288.991 170.5 -272.656C155.399 -256.322 165.767 -223.881 158.406 -204.119C150.775 -183.634 122.17 -166.269 122.785 -144.704C123.4 -123.138 152.946 -107.499 161.73 -87.5022C170.204 -68.2117 161.703 -35.2094 177.71 -19.7993C193.717 -4.38925 225.508 -14.969 244.874 -7.45715C264.949 0.329376 281.966 29.5193 303.099 28.8916C324.232 28.2639 339.558 -1.88617 359.154 -10.8498C378.058 -19.4964 410.399 -10.8216 425.5 -27.1558C440.602 -43.4901 430.234 -75.9315 437.595 -95.6931C445.226 -116.179 473.831 -133.544 473.216 -155.109C472.601 -176.674 443.055 -192.314 434.271 -212.31ZM433.326 -106.359C427.415 -87.2031 439.004 -57.0197 425.566 -40.6777C412.128 -24.3357 380.986 -30.7397 363.525 -21.4732C345.425 -11.8677 332.523 17.5905 312.514 19.3773C292.506 21.1641 274.787 -5.55994 255.327 -11.8125C236.555 -17.8443 206.976 -6.01819 190.962 -19.7313C174.947 -33.4444 181.223 -65.2221 172.142 -83.0403C162.729 -101.511 133.861 -114.677 132.11 -135.094C130.359 -155.512 156.548 -173.593 162.675 -193.451C168.586 -212.607 156.997 -242.79 170.435 -259.132C183.873 -275.474 215.014 -269.07 232.476 -278.337C250.576 -287.942 263.478 -317.4 283.487 -319.187C303.495 -320.974 321.214 -294.25 340.674 -287.997C359.446 -281.965 389.025 -293.792 405.039 -280.078C421.054 -266.365 414.778 -234.588 423.859 -216.77C433.272 -198.299 462.14 -185.133 463.891 -164.715C465.642 -144.298 439.453 -126.217 433.326 -106.359Z" fill="#222222"/>
<path d="M413.424 -220.219C403.874 -236.56 408.094 -266.967 392.208 -279.035C376.321 -291.104 348.986 -278.258 330.906 -282.907C312.164 -287.727 293.963 -312.006 275.136 -309.191C256.309 -306.377 245.697 -277.792 229.096 -267.688C213.083 -257.943 183.285 -262.249 171.458 -246.038C159.631 -229.827 172.221 -201.933 167.664 -183.483C162.941 -164.358 139.149 -145.785 141.907 -126.573C144.665 -107.361 172.677 -96.5318 182.578 -79.5917C192.128 -63.251 187.908 -32.8442 203.794 -20.7754C219.681 -8.70667 247.016 -21.5533 265.096 -16.904C283.838 -12.0839 302.039 12.1948 320.866 9.37976C339.693 6.56604 350.305 -22.0193 366.906 -32.1228C382.919 -41.8681 412.717 -37.5616 424.544 -53.7726C436.371 -69.9837 423.781 -97.8783 428.338 -116.328C433.061 -135.453 456.853 -154.026 454.095 -173.238C451.336 -192.45 423.325 -203.279 413.424 -220.219ZM422.693 -125.551C419.39 -107.901 432.762 -82.3065 422.483 -66.3586C412.205 -50.4107 383.878 -52.8022 369.305 -42.7166C354.197 -32.2614 345.73 -4.71585 328.129 -1.00742C310.53 2.70102 292.062 -19.1696 274.133 -22.6636C256.837 -26.0345 231.755 -12.3894 216.127 -22.878C200.499 -33.3666 202.842 -62.2728 192.959 -77.1438C182.713 -92.5602 155.719 -101.2 152.085 -119.161C148.451 -137.12 169.883 -155.965 173.308 -174.261C176.611 -191.911 163.239 -217.506 173.518 -233.453C183.796 -249.401 212.123 -247.01 226.696 -257.096C241.804 -267.551 250.271 -295.096 267.871 -298.805C285.471 -302.513 303.938 -280.643 321.868 -277.148C339.164 -273.778 364.245 -287.423 379.874 -276.934C395.502 -266.446 393.159 -237.539 403.042 -222.668C413.288 -207.252 440.282 -198.612 443.916 -180.651C447.55 -162.692 426.117 -143.847 422.693 -125.551Z" fill="#222222"/>
</svg>
