<svg width="520" height="97" viewBox="0 0 520 97" fill="none" xmlns="http://www.w3.org/2000/svg">
<path d="M217.096 32.7975C217.095 32.7979 217.095 32.7981 217.094 32.7979C210.977 30.6689 204.244 29.5348 197.168 28.9601C196.521 28.9076 195.871 28.9253 195.226 28.999C191.149 29.4648 187.152 29.7319 183.281 29.6911C183.179 29.7002 183.173 29.8506 183.275 29.867C189.523 30.8825 195.445 32.364 200.838 34.5995C233.37 48.0894 260.588 97.9998 298.001 97.9998C311.834 97.9998 324.272 91.1756 336.103 81.8922C329.444 85.764 322.409 88.3025 314.819 88.7453C278.569 90.856 249.38 44.0334 217.097 32.7972C217.097 32.797 217.096 32.7972 217.096 32.7975Z" fill="url(#paint0_radial_627_19046)"/>
<path d="M405.385 21.8325C405.385 21.8324 405.384 21.8322 405.384 21.8323C399.797 24.5398 394.448 28.4023 389.218 32.9234C389.05 33.0684 388.897 33.2299 388.76 33.4044C386.2 36.6732 383.543 39.7589 380.745 42.5523C380.64 42.6785 380.807 42.8567 380.94 42.7612C385.597 39.4251 390.322 36.6099 395.162 34.6022C428.887 20.618 483.302 36.1356 508.718 10.7207C513.352 6.08659 516.625 0.488049 518.964 -5.77348C519.621 -7.53064 515.312 -9.1165 514.065 -7.71533C490.873 18.3447 437.273 6.37985 405.385 21.8328C405.385 21.8328 405.384 21.8326 405.385 21.8325Z" fill="url(#paint1_radial_627_19046)"/>
<path d="M76.1686 -92.6157C76.1687 -92.6156 76.1689 -92.6157 76.1689 -92.6159C73.4598 -98.206 69.5945 -103.558 65.0701 -108.792C64.9302 -108.953 64.7743 -109.101 64.6059 -109.233C61.3337 -111.796 58.2448 -114.454 55.4488 -117.255C55.3226 -117.36 55.1444 -117.194 55.24 -117.06C58.576 -112.403 61.3913 -107.679 63.3989 -102.838C77.3831 -69.1134 61.8655 -14.6985 87.2804 10.7177C91.9145 15.3518 97.5131 18.6248 103.775 20.964C105.532 21.6204 107.118 17.3122 105.716 16.0652C79.6564 -7.12687 91.6213 -60.7273 76.1684 -92.6156C76.1683 -92.6157 76.1685 -92.6159 76.1686 -92.6157Z" fill="url(#paint2_radial_627_19046)"/>
<path d="M124.07 25.5859C124.07 25.5859 124.071 25.586 124.072 25.5863C130.228 27.2817 136.92 28.1194 143.901 28.498C141.906 28.1235 139.959 27.6622 138.067 27.0994C137.256 26.858 136.422 26.6955 135.577 26.6404C131.673 26.3859 127.822 26.0535 124.07 25.5859Z" fill="url(#paint3_radial_627_19046)"/>
<path d="M336.103 81.8934C336.103 81.8934 336.103 81.8934 336.103 81.8934C341.678 78.6517 346.99 74.4754 352.148 69.8086C350.238 71.1426 348.288 72.3604 346.291 73.4386C345.989 73.6016 345.706 73.7973 345.45 74.0253C342.367 76.7671 339.256 79.4174 336.102 81.8927C336.102 81.893 336.102 81.8934 336.103 81.8934Z" fill="url(#paint4_radial_627_19046)"/>
<path d="M352.147 69.8088C352.147 69.8092 352.148 69.8095 352.148 69.8092C357.366 66.1639 362.282 61.6469 367.029 56.6973C365.452 58.012 363.841 59.2407 362.189 60.3696C361.601 60.7713 361.047 61.2218 360.546 61.7279C357.782 64.5207 354.988 67.239 352.148 69.8084C352.148 69.8085 352.147 69.8086 352.147 69.8088Z" fill="url(#paint5_radial_627_19046)"/>
<path d="M143.902 28.5C150.095 29.6611 156.749 29.9806 163.64 29.8699C161.65 29.6716 159.701 29.3883 157.798 29.0068C157.07 28.8607 156.33 28.7774 155.587 28.7776C151.633 28.7785 147.725 28.7081 143.902 28.5Z" fill="url(#paint6_radial_627_19046)"/>
<path d="M102.735 -75.6136C102.734 -75.6136 102.734 -75.6138 102.734 -75.6142C98.1425 -82.8143 91.2983 -89.2697 83.6126 -95.4988C80.454 -97.4964 77.3897 -99.5543 74.499 -101.713C80.5056 -95.9202 85.7297 -89.9489 89.311 -83.5385C106.069 -53.5397 97.5076 -0.976357 124.043 20.0057C127.807 22.9822 132.028 25.1226 136.592 26.6352C136.764 26.6922 136.943 26.7261 137.124 26.737C138.407 26.8141 139.695 26.8837 140.986 26.9479C142.804 27.0382 143.648 23.6117 142.157 22.568C115.312 3.7711 120.632 -47.5451 102.736 -75.6131C102.736 -75.6134 102.735 -75.6136 102.735 -75.6136Z" fill="url(#paint7_radial_627_19046)"/>
<path d="M247.9 26.033C247.9 26.0332 247.9 26.0335 247.899 26.0334C239.054 24.0688 229.178 24.3103 218.948 25.3229C215.35 26.1192 211.79 26.8073 208.293 27.3092C216.991 27.201 225.312 27.796 232.805 29.9231C264.691 38.9788 295.588 82.6626 330.561 78.5743C335.899 77.9501 340.888 76.2648 345.614 73.7982C345.761 73.7216 345.898 73.6265 346.021 73.5161C346.597 73.0013 347.172 72.4833 347.746 71.9629C349.222 70.6248 347.142 67.2318 345.18 67.5776C311.588 73.5011 279.247 32.9957 247.9 26.0326C247.9 26.0325 247.899 26.0328 247.9 26.033Z" fill="url(#paint8_radial_627_19046)"/>
<path d="M422.387 -4.73413C422.387 -4.73375 422.387 -4.73338 422.386 -4.73317C415.186 -0.141773 408.731 6.70241 402.502 14.3881C400.504 17.5467 398.446 20.611 396.288 23.5017C402.08 17.4951 408.052 12.271 414.462 8.68972C444.461 -8.06825 497.024 0.493122 518.006 -26.0426C520.983 -29.8067 523.123 -34.0276 524.636 -38.591C524.693 -38.7632 524.727 -38.9423 524.737 -39.1234C524.815 -40.4061 524.884 -41.694 524.948 -42.9858C525.039 -44.8036 521.612 -45.6478 520.569 -44.1566C501.772 -17.3116 450.455 -22.6311 422.387 -4.7351C422.387 -4.73489 422.387 -4.73453 422.387 -4.73413Z" fill="url(#paint9_radial_627_19046)"/>
<path d="M376.338 46.588C375.879 46.9711 375.447 47.3864 375.055 47.8383C372.418 50.8784 369.751 53.8581 367.029 56.6972C371.393 53.055 375.486 48.7581 379.424 44.1245C379.506 44.0274 379.383 43.8958 379.281 43.9721C378.318 44.8808 377.338 45.7545 376.338 46.588Z" fill="url(#paint10_radial_627_19046)"/>
<path d="M177.471 29.3767C176.851 29.3133 176.227 29.295 175.605 29.3359C171.567 29.6012 167.565 29.8041 163.64 29.8672C169.471 30.4501 175.646 30.3088 181.997 29.7987C182.077 29.7923 182.081 29.6789 182.002 29.6672C180.47 29.6235 178.959 29.529 177.471 29.3767Z" fill="url(#paint11_radial_627_19046)"/>
<path d="M151.79 27.4023C151.791 27.4023 151.792 27.4025 151.793 27.4027C153.328 27.9253 154.904 28.3652 156.513 28.7304C156.641 28.7593 156.771 28.7733 156.901 28.7728C161.849 28.7529 166.862 28.6321 171.859 28.5394C171.886 28.5389 171.89 28.5 171.863 28.4942C165.309 27.9319 158.552 27.6627 151.79 27.4023Z" fill="url(#paint12_radial_627_19046)"/>
<path d="M360.541 60.0737C359.922 60.6505 360.525 61.4718 361.233 61.009C361.277 60.9805 361.318 60.9471 361.354 60.91C364.817 57.3877 368.237 53.7596 371.65 50.174C371.676 50.1463 371.639 50.1016 371.607 50.1225C367.906 53.2749 364.227 56.6413 360.541 60.0737Z" fill="url(#paint13_radial_627_19046)"/>
<path d="M196.487 28.1807C196.372 28.1958 196.258 28.2109 196.143 28.226C195.775 28.2745 195.795 28.8557 196.165 28.8829C196.185 28.8844 196.205 28.8839 196.224 28.8815C198.424 28.6143 200.644 28.2923 202.882 27.9316C200.717 28.1128 198.584 28.2021 196.488 28.1807H196.487Z" fill="url(#paint14_radial_627_19046)"/>
<path d="M386.464 35.3695C386.464 35.3694 386.464 35.3693 386.464 35.3693C387.144 34.7483 387.827 34.1375 388.511 33.5375C388.813 33.2726 389.09 32.9811 389.336 32.6632C390.689 30.9106 392.018 29.1079 393.327 27.2734C391.914 28.9767 390.456 30.6006 388.942 32.1227C388.119 33.2092 387.294 34.292 386.464 35.3698C386.464 35.37 386.464 35.3699 386.464 35.3695Z" fill="url(#paint15_radial_627_19046)"/>
<path d="M382.463 39.1392C382.463 39.139 382.463 39.1389 382.463 39.1391C381.245 40.5806 380.024 42.0262 378.8 43.4676C378.546 43.7671 378.964 44.2074 379.279 43.9728C379.771 43.5086 380.259 43.0344 380.744 42.5526C381.724 41.3715 382.695 40.1716 383.659 38.958C383.962 38.5766 383.492 38.1471 383.141 38.4847C382.915 38.7021 382.689 38.9203 382.464 39.1394C382.463 39.1396 382.463 39.1395 382.463 39.1392Z" fill="url(#paint16_radial_627_19046)"/>
<path d="M187.119 28.4785C185.421 28.6107 183.722 28.7445 182.025 28.8743C181.583 28.9082 181.562 29.6008 182 29.6673C182.426 29.6799 182.852 29.6874 183.28 29.6912C184.564 29.5788 185.855 29.4522 187.152 29.3145C187.743 29.2516 187.712 28.4905 187.118 28.4785H187.119Z" fill="url(#paint17_radial_627_19046)"/>
<path d="M172.301 28.5319C172.301 28.5323 172.301 28.5325 172.3 28.5326C172.297 28.5326 172.293 28.5327 172.29 28.5327C172.259 28.5332 172.254 28.5778 172.285 28.5842C173.674 28.8735 175.089 29.1013 176.526 29.2729C176.536 29.2741 176.546 29.2743 176.557 29.2737C176.756 29.2601 176.762 28.9784 176.564 28.9562C175.155 28.7984 173.734 28.6578 172.303 28.5313C172.302 28.5313 172.302 28.5315 172.301 28.5319Z" fill="url(#paint18_radial_627_19046)"/>
<path d="M372.083 49.717C372.083 49.7174 372.083 49.7177 372.083 49.718C372.08 49.7211 372.077 49.7242 372.074 49.7274C372.046 49.7567 372.085 49.8026 372.118 49.7799C373.317 48.9658 374.487 48.0915 375.633 47.1662C375.64 47.1606 375.646 47.1543 375.652 47.1474C375.772 47.0083 375.594 46.8221 375.45 46.9374C374.325 47.8408 373.203 48.7685 372.084 49.7159C372.083 49.7162 372.083 49.7166 372.083 49.717Z" fill="url(#paint19_radial_627_19046)"/>
<path d="M521.726 -79.3678C521.726 -79.368 521.726 -79.3681 521.726 -79.3679C507.175 -52.3836 458.917 -51.7533 434.782 -32.0758C426.068 -24.9724 419.211 -13.8826 412.438 -2.30468C411.05 0.299202 409.627 2.85907 408.149 5.33842C414.612 -4.05948 421.303 -12.6737 429.159 -18.3519C455.268 -37.2207 505.144 -34.9703 521.794 -61.9627C524.066 -65.6446 525.572 -69.636 526.494 -73.8626C526.506 -74.0085 526.519 -74.1531 526.532 -74.2991C526.441 -79.2829 526.381 -84.2492 526.479 -89.1186C526.437 -89.6479 525.345 -89.6806 525.238 -89.1606C524.531 -85.74 523.396 -82.4641 521.727 -79.3678C521.727 -79.3676 521.726 -79.3677 521.726 -79.3678Z" fill="url(#paint20_radial_627_19046)"/>
<path d="M177.369 23.7264C177.369 23.7267 177.369 23.7269 177.368 23.7267C150.384 9.17603 149.754 -39.0822 130.076 -63.2177C122.973 -71.9312 111.883 -78.7882 100.306 -85.5608C97.7026 -86.9495 95.1427 -88.3723 92.6621 -89.8516C102.06 -83.3884 110.674 -76.6975 116.352 -68.8418C135.221 -42.7325 132.971 7.14389 159.963 23.7937C163.645 26.0655 167.636 27.5713 171.864 28.4933C172.01 28.5059 172.155 28.5184 172.301 28.531C177.285 28.4404 182.251 28.3801 187.12 28.4782C187.65 28.437 187.682 27.3447 187.162 27.2373C183.742 26.5303 180.466 25.3951 177.37 23.7261C177.369 23.7259 177.369 23.7261 177.369 23.7264Z" fill="url(#paint21_radial_627_19046)"/>
<path d="M370.899 43.4987C370.899 43.4984 370.899 43.4982 370.899 43.4983C340.329 52.649 305.881 18.5259 275.998 15.4616C264.263 14.2578 251.139 17.2403 237.895 20.619C235.097 21.4568 232.315 22.243 229.559 22.9349C241.057 20.8895 252.274 19.5674 262.319 21.1927C292.995 26.1551 326.519 63.4675 358.64 55.8546C363.334 54.7426 367.624 52.7576 371.608 50.1248C371.766 49.9889 371.926 49.8543 372.084 49.7197C375.539 46.0932 378.987 42.5156 382.465 39.1406C383.748 37.6223 385.031 36.1078 386.314 34.6083C381.762 38.6461 376.701 41.7619 370.9 43.4991C370.9 43.4992 370.899 43.499 370.899 43.4987Z" fill="url(#paint22_radial_627_19046)"/>
<path d="M202.881 27.9306C202.881 27.931 202.881 27.9313 202.882 27.9312C204.666 27.7815 206.471 27.5702 208.294 27.3086C207.745 27.315 207.194 27.3251 206.643 27.3373C206.452 27.3415 206.262 27.3604 206.075 27.3931C205.007 27.5792 203.943 27.7588 202.881 27.9299C202.881 27.93 202.881 27.9302 202.881 27.9306Z" fill="url(#paint23_radial_627_19046)"/>
<path d="M393.327 27.2732C394.337 26.0556 395.322 24.7963 396.288 23.502C396.067 23.7308 395.846 23.9609 395.626 24.1921C395.284 24.5508 394.973 24.9367 394.689 25.3426C394.237 25.9898 393.783 26.6337 393.327 27.2732Z" fill="url(#paint24_radial_627_19046)"/>
<path d="M214.735 25.7775C214.735 25.7772 214.735 25.7769 214.736 25.7769C216.146 25.6134 217.551 25.46 218.949 25.3229C220.288 25.0272 221.632 24.7153 222.98 24.3945C221.069 24.7568 219.177 25.0549 217.305 25.2751C216.449 25.4436 215.592 25.6121 214.736 25.7781C214.735 25.7782 214.735 25.7779 214.735 25.7775Z" fill="url(#paint25_radial_627_19046)"/>
<path d="M399.936 17.6136C400.788 16.5255 401.643 15.4487 402.502 14.3883C403.351 13.0461 404.188 11.6863 405.018 10.3164C403.93 11.9504 402.805 13.5304 401.64 15.0462C401.073 15.9011 400.507 16.7572 399.938 17.6108C399.938 17.6118 399.937 17.6128 399.936 17.6136Z" fill="url(#paint26_radial_627_19046)"/>
<path d="M394.601 25.2775C394.942 24.9135 395.257 24.5264 395.541 24.1161C397.022 21.9714 398.484 19.7955 399.936 17.6133C397.195 21.1153 394.485 24.7431 391.761 28.376C392.704 27.3267 393.651 26.2929 394.601 25.2775Z" fill="url(#paint27_radial_627_19046)"/>
<path d="M205.606 27.3643C206.106 27.3503 206.603 27.3016 207.095 27.214C209.63 26.7621 212.18 26.2749 214.734 25.7773C210.291 26.2931 205.799 26.9145 201.313 27.5284C202.752 27.4599 204.184 27.4042 205.606 27.3643Z" fill="url(#paint28_radial_627_19046)"/>
<path d="M196.487 28.1803C198.093 27.9677 199.703 27.7475 201.313 27.5273C199.71 27.6034 198.099 27.6956 196.482 27.7988C196.166 27.819 196.17 28.1772 196.487 28.1803Z" fill="url(#paint29_radial_627_19046)"/>
<path d="M388.941 32.1231C389.884 30.8777 390.822 29.6273 391.761 28.377C389.937 30.406 388.123 32.4916 386.313 34.6075C387.207 33.8137 388.084 32.9847 388.941 32.1231Z" fill="url(#paint30_radial_627_19046)"/>
<path d="M405.018 10.3174C405.018 10.3174 405.018 10.3173 405.018 10.3172C406.092 8.70458 407.134 7.04172 408.148 5.33984C407.737 5.9361 407.327 6.5361 406.919 7.13864C406.289 8.20256 405.656 9.26271 405.017 10.3166C405.017 10.3169 405.017 10.3174 405.018 10.3174Z" fill="url(#paint31_radial_627_19046)"/>
<path d="M222.98 24.3932C222.98 24.3929 222.98 24.3927 222.98 24.3926C225.152 23.9813 227.346 23.487 229.557 22.9336C228.754 23.077 227.949 23.2229 227.143 23.3726C225.752 23.721 224.365 24.0631 222.98 24.3938C222.98 24.3939 222.98 24.3936 222.98 24.3932Z" fill="url(#paint32_radial_627_19046)"/>
<path d="M439.269 -45.8195C439.269 -45.8192 439.269 -45.8191 439.269 -45.8193C461.429 -66.1406 507.908 -69.4578 520.418 -96.284C523.699 -103.318 524.238 -111.104 523.273 -119.303C522.628 -122.586 521.978 -125.871 521.373 -129.141C520.476 -132.717 519.532 -136.308 518.619 -139.892C513.428 -157.217 506.221 -175.114 506.916 -190.887C508.192 -219.862 539.15 -254.983 528.612 -283.934C525.706 -291.917 520.082 -298.231 513.048 -303.638C510.392 -305.398 507.742 -307.151 505.139 -308.917C502.002 -310.774 498.832 -312.602 495.696 -314.436C479.833 -322.902 462.389 -330.136 452.182 -341.266C431.861 -363.425 428.544 -409.905 401.717 -422.415C394.683 -425.696 386.898 -426.236 378.699 -425.271C375.415 -424.626 372.13 -423.975 368.86 -423.37C365.284 -422.473 361.693 -421.53 358.109 -420.617C340.784 -415.425 322.887 -408.219 307.114 -408.913C278.139 -410.19 243.018 -441.147 214.067 -430.609C206.085 -427.704 199.77 -422.079 194.363 -415.045C192.604 -412.39 190.85 -409.739 189.084 -407.137C187.227 -403.999 185.4 -400.829 183.565 -397.694C175.101 -381.83 167.865 -364.386 156.735 -354.18C134.576 -333.858 88.0958 -330.541 75.5859 -303.715C72.3052 -296.68 71.7656 -288.895 72.7304 -280.696C73.3757 -277.413 74.026 -274.127 74.6311 -270.858C75.528 -267.281 76.4714 -263.69 77.3847 -260.106C82.5761 -242.781 89.7827 -224.885 89.0883 -209.112C87.8116 -180.137 56.8542 -145.016 67.3918 -116.065C70.2976 -108.082 75.9217 -101.767 82.956 -96.3607C85.6115 -94.6009 88.2619 -92.8474 90.8645 -91.0812C94.0018 -89.2245 97.1717 -87.3968 100.308 -85.5627C116.171 -77.0982 133.615 -69.8627 143.822 -58.7326C164.143 -36.5732 167.46 9.90686 194.287 22.4168C201.321 25.6975 209.106 26.2372 217.305 25.2723C220.588 24.627 223.874 23.9767 227.143 23.3716C230.72 22.4747 234.311 21.5313 237.895 20.618C255.22 15.4266 273.117 8.22 288.89 8.91437C317.864 10.1912 352.986 41.1485 381.936 30.6109C389.919 27.7051 396.234 22.081 401.64 15.0467C403.4 12.3913 405.154 9.74081 406.92 7.13818C408.777 4.00095 410.604 0.830994 412.438 -2.30499C420.903 -18.1684 428.138 -35.6117 439.268 -45.8197C439.268 -45.8199 439.269 -45.8197 439.269 -45.8195ZM391.732 17.2921C364.453 29.0587 328.908 1.22726 300.943 1.6235C271.953 2.03357 237.156 30.465 210.631 19.9262C184.105 9.38736 178.305 -35.1706 157.5 -55.3627C137.431 -74.8415 92.4772 -78.9889 80.7106 -106.268C68.9441 -133.547 96.7755 -169.092 96.3792 -197.057C95.9691 -226.047 67.5377 -260.843 78.0765 -287.369C88.6154 -313.895 133.173 -319.695 153.365 -340.5C172.844 -360.569 176.992 -405.523 204.271 -417.289C231.55 -429.056 267.095 -401.224 295.06 -401.621C324.05 -402.031 358.846 -430.462 385.372 -419.923C411.898 -409.385 417.698 -364.827 438.502 -344.635C458.571 -325.156 503.525 -321.008 515.292 -293.729C527.059 -266.45 499.227 -230.905 499.623 -202.94C500.033 -173.95 528.465 -139.154 517.926 -112.628C507.387 -86.1024 462.829 -80.3022 442.637 -59.4975C423.158 -39.4286 419.011 5.52557 391.732 17.2921Z" fill="url(#paint33_radial_627_19046)"/>
<path d="M514.312 -128.321C514.313 -128.321 514.313 -128.321 514.313 -128.321C522.958 -154.412 493.678 -186.271 491.661 -214.115C489.715 -240.977 514.479 -276.706 501.64 -302.27C488.8 -327.836 445.353 -329.307 424.968 -346.909C403.838 -365.156 395.767 -407.666 369.677 -416.312C343.586 -424.957 311.727 -395.677 283.882 -393.659C257.02 -391.713 221.291 -416.478 195.727 -403.638C170.161 -390.799 168.69 -347.352 151.088 -326.967C132.841 -305.836 90.3309 -297.766 81.6853 -271.675C73.0396 -245.585 102.32 -213.726 104.338 -185.88C106.284 -159.019 81.5192 -123.29 94.3588 -97.7255C107.198 -72.1595 150.646 -70.6891 171.03 -53.0883C192.161 -34.8409 200.231 7.66913 226.322 16.3148C252.412 24.9604 284.272 -4.32007 312.117 -6.33777C338.978 -8.28378 374.707 16.4808 400.272 3.6413C425.838 -9.19827 427.308 -52.6455 444.909 -73.03C463.156 -94.1603 505.665 -102.231 514.312 -128.321C514.312 -128.321 514.312 -128.321 514.312 -128.321ZM407.557 -10.2398C383.735 3.51422 348.054 -18.2616 322.379 -14.8904C295.763 -11.3971 266.818 18.491 241.29 11.6504C215.762 4.80988 205.639 -35.5453 184.335 -51.8794C163.784 -67.6361 121.996 -66.6184 108.242 -90.4409C94.4884 -114.263 116.263 -149.944 112.893 -175.619C109.4 -202.236 79.5116 -231.18 86.3521 -256.709C93.1927 -282.237 133.548 -292.359 149.882 -313.663C165.639 -334.214 164.621 -376.002 188.443 -389.756C212.266 -403.51 247.947 -381.735 273.622 -385.105C300.238 -388.599 329.183 -418.487 354.711 -411.646C380.239 -404.806 390.362 -364.45 411.666 -348.116C432.216 -332.36 474.004 -333.377 487.758 -309.555C501.513 -285.732 479.737 -250.052 483.108 -224.376C486.601 -197.76 516.489 -168.815 509.649 -143.287C502.808 -117.759 462.453 -107.637 446.119 -86.3325C430.362 -65.7819 431.38 -23.9939 407.557 -10.2398Z" fill="url(#paint34_radial_627_19046)"/>
<path d="M504.004 -157.464C509.136 -182.311 478.876 -208.383 474.042 -233.696C469.379 -258.115 488.257 -293.525 473.745 -315.589C459.234 -337.653 419.242 -334.345 398.668 -348.299C377.339 -362.763 365.385 -400.875 340.537 -406.004C315.689 -411.135 289.618 -380.876 264.305 -376.042C239.886 -371.379 204.476 -390.256 182.412 -375.745C160.348 -361.234 163.656 -321.242 149.702 -300.668C135.237 -279.338 97.1262 -267.384 91.9964 -242.537C86.8654 -217.689 117.125 -191.617 121.959 -166.304C126.622 -141.886 107.744 -106.475 122.256 -84.4116C136.767 -62.3477 176.759 -65.656 197.333 -51.7019C218.662 -37.2372 230.616 0.873962 255.464 6.00375C280.312 11.1348 306.383 -19.1244 331.696 -23.9586C356.115 -28.6217 391.525 -9.74408 413.589 -24.2554C435.653 -38.7668 432.345 -78.7585 446.299 -99.3329C460.764 -120.662 498.875 -132.616 504.004 -157.464ZM418.378 -38.3051C398.078 -23.1925 363.149 -39.2787 340.046 -33.4571C316.098 -27.4216 292.84 2.97974 268.784 -0.543671C244.726 -4.06711 231.166 -39.8624 209.955 -52.512C189.494 -64.7151 151.418 -59.3224 136.305 -79.6214C121.193 -99.9204 137.279 -134.85 131.457 -157.953C125.422 -181.901 95.0205 -205.159 98.5439 -229.215C102.067 -253.273 137.863 -266.833 150.512 -288.044C162.715 -308.506 157.323 -346.582 177.622 -361.694C197.922 -376.807 232.85 -360.721 255.953 -366.542C279.902 -372.578 303.159 -402.979 327.216 -399.456C351.273 -395.932 364.834 -360.137 386.045 -347.487C406.506 -335.284 444.582 -340.677 459.694 -320.378C474.807 -300.078 458.721 -265.149 464.542 -242.046C470.578 -218.098 500.979 -194.84 497.456 -170.784C493.932 -146.726 458.137 -133.166 445.487 -111.955C433.284 -91.4936 438.677 -53.4177 418.378 -38.3051Z" fill="url(#paint35_radial_627_19046)"/>
<defs>
<radialGradient id="paint0_radial_627_19046" cx="0" cy="0" r="1" gradientUnits="userSpaceOnUse" gradientTransform="translate(312.645 45.1056) rotate(-15.7878) scale(290.319 90.0272)">
<stop stop-color="#FFB6D5"/>
<stop offset="0.1" stop-color="#FFE3C0"/>
<stop offset="0.29" stop-color="#C7FBDB"/>
<stop offset="0.43" stop-color="#C7CDF4"/>
<stop offset="0.54" stop-color="#FFBCD4"/>
<stop offset="0.66" stop-color="#FFE0C3"/>
<stop offset="0.76" stop-color="#B0F1D4"/>
<stop offset="0.84" stop-color="#C9CEEC"/>
<stop offset="0.91" stop-color="#FFC1DA"/>
<stop offset="1" stop-color="#BDFFE3"/>
</radialGradient>
<radialGradient id="paint1_radial_627_19046" cx="0" cy="0" r="1" gradientUnits="userSpaceOnUse" gradientTransform="translate(501.649 -9.75538) rotate(-16.9134) scale(273.049 90.018)">
<stop stop-color="#FFB6D5"/>
<stop offset="0.1" stop-color="#FFE3C0"/>
<stop offset="0.29" stop-color="#C7FBDB"/>
<stop offset="0.43" stop-color="#C7CDF4"/>
<stop offset="0.54" stop-color="#FFBCD4"/>
<stop offset="0.66" stop-color="#FFE0C3"/>
<stop offset="0.76" stop-color="#B0F1D4"/>
<stop offset="0.84" stop-color="#C9CEEC"/>
<stop offset="0.91" stop-color="#FFC1DA"/>
<stop offset="1" stop-color="#BDFFE3"/>
</radialGradient>
<radialGradient id="paint2_radial_627_19046" cx="0" cy="0" r="1" gradientUnits="userSpaceOnUse" gradientTransform="translate(113.45 -84.2985) rotate(-52.3788) scale(207.171 118.642)">
<stop stop-color="#FFB6D5"/>
<stop offset="0.1" stop-color="#FFE3C0"/>
<stop offset="0.29" stop-color="#C7FBDB"/>
<stop offset="0.43" stop-color="#C7CDF4"/>
<stop offset="0.54" stop-color="#FFBCD4"/>
<stop offset="0.66" stop-color="#FFE0C3"/>
<stop offset="0.76" stop-color="#B0F1D4"/>
<stop offset="0.84" stop-color="#C9CEEC"/>
<stop offset="0.91" stop-color="#FFC1DA"/>
<stop offset="1" stop-color="#BDFFE3"/>
</radialGradient>
<radialGradient id="paint3_radial_627_19046" cx="0" cy="0" r="1" gradientUnits="userSpaceOnUse" gradientTransform="translate(140.871 26.2694) rotate(-5.26992) scale(36.2347 3.92521)">
<stop stop-color="#FFB6D5"/>
<stop offset="0.1" stop-color="#FFE3C0"/>
<stop offset="0.29" stop-color="#C7FBDB"/>
<stop offset="0.43" stop-color="#C7CDF4"/>
<stop offset="0.54" stop-color="#FFBCD4"/>
<stop offset="0.66" stop-color="#FFE0C3"/>
<stop offset="0.76" stop-color="#B0F1D4"/>
<stop offset="0.84" stop-color="#C9CEEC"/>
<stop offset="0.91" stop-color="#FFC1DA"/>
<stop offset="1" stop-color="#BDFFE3"/>
</radialGradient>
<radialGradient id="paint4_radial_627_19046" cx="0" cy="0" r="1" gradientUnits="userSpaceOnUse" gradientTransform="translate(349.696 72.6448) rotate(-25.3175) scale(32.2969 14.7873)">
<stop stop-color="#FFB6D5"/>
<stop offset="0.1" stop-color="#FFE3C0"/>
<stop offset="0.29" stop-color="#C7FBDB"/>
<stop offset="0.43" stop-color="#C7CDF4"/>
<stop offset="0.54" stop-color="#FFBCD4"/>
<stop offset="0.66" stop-color="#FFE0C3"/>
<stop offset="0.76" stop-color="#B0F1D4"/>
<stop offset="0.84" stop-color="#C9CEEC"/>
<stop offset="0.91" stop-color="#FFC1DA"/>
<stop offset="1" stop-color="#BDFFE3"/>
</radialGradient>
<radialGradient id="paint5_radial_627_19046" cx="0" cy="0" r="1" gradientUnits="userSpaceOnUse" gradientTransform="translate(364.755 59.7747) rotate(-28.9637) scale(30.946 15.5296)">
<stop stop-color="#FFB6D5"/>
<stop offset="0.1" stop-color="#FFE3C0"/>
<stop offset="0.29" stop-color="#C7FBDB"/>
<stop offset="0.43" stop-color="#C7CDF4"/>
<stop offset="0.54" stop-color="#FFBCD4"/>
<stop offset="0.66" stop-color="#FFE0C3"/>
<stop offset="0.76" stop-color="#B0F1D4"/>
<stop offset="0.84" stop-color="#C9CEEC"/>
<stop offset="0.91" stop-color="#FFC1DA"/>
<stop offset="1" stop-color="#BDFFE3"/>
</radialGradient>
<radialGradient id="paint6_radial_627_19046" cx="0" cy="0" r="1" gradientUnits="userSpaceOnUse" gradientTransform="translate(160.624 28.8263) rotate(-2.53364) scale(35.9473 1.88032)">
<stop stop-color="#FFB6D5"/>
<stop offset="0.1" stop-color="#FFE3C0"/>
<stop offset="0.29" stop-color="#C7FBDB"/>
<stop offset="0.43" stop-color="#C7CDF4"/>
<stop offset="0.54" stop-color="#FFBCD4"/>
<stop offset="0.66" stop-color="#FFE0C3"/>
<stop offset="0.76" stop-color="#B0F1D4"/>
<stop offset="0.84" stop-color="#C9CEEC"/>
<stop offset="0.91" stop-color="#FFC1DA"/>
<stop offset="1" stop-color="#BDFFE3"/>
</radialGradient>
<radialGradient id="paint7_radial_627_19046" cx="0" cy="0" r="1" gradientUnits="userSpaceOnUse" gradientTransform="translate(139.983 -71.4107) rotate(-46.3773) scale(203.839 120.577)">
<stop stop-color="#FFB6D5"/>
<stop offset="0.1" stop-color="#FFE3C0"/>
<stop offset="0.29" stop-color="#C7FBDB"/>
<stop offset="0.43" stop-color="#C7CDF4"/>
<stop offset="0.54" stop-color="#FFBCD4"/>
<stop offset="0.66" stop-color="#FFE0C3"/>
<stop offset="0.76" stop-color="#B0F1D4"/>
<stop offset="0.84" stop-color="#C9CEEC"/>
<stop offset="0.91" stop-color="#FFC1DA"/>
<stop offset="1" stop-color="#BDFFE3"/>
</radialGradient>
<radialGradient id="paint8_radial_627_19046" cx="0" cy="0" r="1" gradientUnits="userSpaceOnUse" gradientTransform="translate(334.059 37.296) rotate(-12.9376) scale(277.121 71.6218)">
<stop stop-color="#FFB6D5"/>
<stop offset="0.1" stop-color="#FFE3C0"/>
<stop offset="0.29" stop-color="#C7FBDB"/>
<stop offset="0.43" stop-color="#C7CDF4"/>
<stop offset="0.54" stop-color="#FFBCD4"/>
<stop offset="0.66" stop-color="#FFE0C3"/>
<stop offset="0.76" stop-color="#B0F1D4"/>
<stop offset="0.84" stop-color="#C9CEEC"/>
<stop offset="0.91" stop-color="#FFC1DA"/>
<stop offset="1" stop-color="#BDFFE3"/>
</radialGradient>
<radialGradient id="paint9_radial_627_19046" cx="0" cy="0" r="1" gradientUnits="userSpaceOnUse" gradientTransform="translate(505.676 -35.6509) rotate(-20.6076) scale(250.975 97.9313)">
<stop stop-color="#FFB6D5"/>
<stop offset="0.1" stop-color="#FFE3C0"/>
<stop offset="0.29" stop-color="#C7FBDB"/>
<stop offset="0.43" stop-color="#C7CDF4"/>
<stop offset="0.54" stop-color="#FFBCD4"/>
<stop offset="0.66" stop-color="#FFE0C3"/>
<stop offset="0.76" stop-color="#B0F1D4"/>
<stop offset="0.84" stop-color="#C9CEEC"/>
<stop offset="0.91" stop-color="#FFC1DA"/>
<stop offset="1" stop-color="#BDFFE3"/>
</radialGradient>
<radialGradient id="paint10_radial_627_19046" cx="0" cy="0" r="1" gradientUnits="userSpaceOnUse" gradientTransform="translate(378.022 46.5495) rotate(-32.6962) scale(28.0532 15.1047)">
<stop stop-color="#FFB6D5"/>
<stop offset="0.1" stop-color="#FFE3C0"/>
<stop offset="0.29" stop-color="#C7FBDB"/>
<stop offset="0.43" stop-color="#C7CDF4"/>
<stop offset="0.54" stop-color="#FFBCD4"/>
<stop offset="0.66" stop-color="#FFE0C3"/>
<stop offset="0.76" stop-color="#B0F1D4"/>
<stop offset="0.84" stop-color="#C9CEEC"/>
<stop offset="0.91" stop-color="#FFC1DA"/>
<stop offset="1" stop-color="#BDFFE3"/>
</radialGradient>
<radialGradient id="paint11_radial_627_19046" cx="0" cy="0" r="1" gradientUnits="userSpaceOnUse" gradientTransform="translate(179.668 29.5018) rotate(-1.85065) scale(34.4379 1.31657)">
<stop stop-color="#FFB6D5"/>
<stop offset="0.1" stop-color="#FFE3C0"/>
<stop offset="0.29" stop-color="#C7FBDB"/>
<stop offset="0.43" stop-color="#C7CDF4"/>
<stop offset="0.54" stop-color="#FFBCD4"/>
<stop offset="0.66" stop-color="#FFE0C3"/>
<stop offset="0.76" stop-color="#B0F1D4"/>
<stop offset="0.84" stop-color="#C9CEEC"/>
<stop offset="0.91" stop-color="#FFC1DA"/>
<stop offset="1" stop-color="#BDFFE3"/>
</radialGradient>
<radialGradient id="paint12_radial_627_19046" cx="0" cy="0" r="1" gradientUnits="userSpaceOnUse" gradientTransform="translate(168.96 27.7242) rotate(-2.43352) scale(36.9067 1.8544)">
<stop stop-color="#FFB6D5"/>
<stop offset="0.1" stop-color="#FFE3C0"/>
<stop offset="0.29" stop-color="#C7FBDB"/>
<stop offset="0.43" stop-color="#C7CDF4"/>
<stop offset="0.54" stop-color="#FFBCD4"/>
<stop offset="0.66" stop-color="#FFE0C3"/>
<stop offset="0.76" stop-color="#B0F1D4"/>
<stop offset="0.84" stop-color="#C9CEEC"/>
<stop offset="0.91" stop-color="#FFC1DA"/>
<stop offset="1" stop-color="#BDFFE3"/>
</radialGradient>
<radialGradient id="paint13_radial_627_19046" cx="0" cy="0" r="1" gradientUnits="userSpaceOnUse" gradientTransform="translate(369.545 53.1672) rotate(-29.5996) scale(31.6288 16.0891)">
<stop stop-color="#FFB6D5"/>
<stop offset="0.1" stop-color="#FFE3C0"/>
<stop offset="0.29" stop-color="#C7FBDB"/>
<stop offset="0.43" stop-color="#C7CDF4"/>
<stop offset="0.54" stop-color="#FFBCD4"/>
<stop offset="0.66" stop-color="#FFE0C3"/>
<stop offset="0.76" stop-color="#B0F1D4"/>
<stop offset="0.84" stop-color="#C9CEEC"/>
<stop offset="0.91" stop-color="#FFC1DA"/>
<stop offset="1" stop-color="#BDFFE3"/>
</radialGradient>
<radialGradient id="paint14_radial_627_19046" cx="0" cy="0" r="1" gradientUnits="userSpaceOnUse" gradientTransform="translate(201.326 28.1554) rotate(-3.36468) scale(18.566 1.2884)">
<stop stop-color="#FFB6D5"/>
<stop offset="0.1" stop-color="#FFE3C0"/>
<stop offset="0.29" stop-color="#C7FBDB"/>
<stop offset="0.43" stop-color="#C7CDF4"/>
<stop offset="0.54" stop-color="#FFBCD4"/>
<stop offset="0.66" stop-color="#FFE0C3"/>
<stop offset="0.76" stop-color="#B0F1D4"/>
<stop offset="0.84" stop-color="#C9CEEC"/>
<stop offset="0.91" stop-color="#FFC1DA"/>
<stop offset="1" stop-color="#BDFFE3"/>
</radialGradient>
<radialGradient id="paint15_radial_627_19046" cx="0" cy="0" r="1" gradientUnits="userSpaceOnUse" gradientTransform="translate(392.278 29.1738) rotate(-36.541) scale(15.5424 8.80608)">
<stop stop-color="#FFB6D5"/>
<stop offset="0.1" stop-color="#FFE3C0"/>
<stop offset="0.29" stop-color="#C7FBDB"/>
<stop offset="0.43" stop-color="#C7CDF4"/>
<stop offset="0.54" stop-color="#FFBCD4"/>
<stop offset="0.66" stop-color="#FFE0C3"/>
<stop offset="0.76" stop-color="#B0F1D4"/>
<stop offset="0.84" stop-color="#C9CEEC"/>
<stop offset="0.91" stop-color="#FFC1DA"/>
<stop offset="1" stop-color="#BDFFE3"/>
</radialGradient>
<radialGradient id="paint16_radial_627_19046" cx="0" cy="0" r="1" gradientUnits="userSpaceOnUse" gradientTransform="translate(384.964 37.8604) rotate(-34.2017) scale(21.5653 11.8748)">
<stop stop-color="#FFB6D5"/>
<stop offset="0.1" stop-color="#FFE3C0"/>
<stop offset="0.29" stop-color="#C7FBDB"/>
<stop offset="0.43" stop-color="#C7CDF4"/>
<stop offset="0.54" stop-color="#FFBCD4"/>
<stop offset="0.66" stop-color="#FFE0C3"/>
<stop offset="0.76" stop-color="#B0F1D4"/>
<stop offset="0.84" stop-color="#C9CEEC"/>
<stop offset="0.91" stop-color="#FFC1DA"/>
<stop offset="1" stop-color="#BDFFE3"/>
</radialGradient>
<radialGradient id="paint17_radial_627_19046" cx="0" cy="0" r="1" gradientUnits="userSpaceOnUse" gradientTransform="translate(190.488 28.7631) rotate(-3.01988) scale(26.3064 1.6392)">
<stop stop-color="#FFB6D5"/>
<stop offset="0.1" stop-color="#FFE3C0"/>
<stop offset="0.29" stop-color="#C7FBDB"/>
<stop offset="0.43" stop-color="#C7CDF4"/>
<stop offset="0.54" stop-color="#FFBCD4"/>
<stop offset="0.66" stop-color="#FFE0C3"/>
<stop offset="0.76" stop-color="#B0F1D4"/>
<stop offset="0.84" stop-color="#C9CEEC"/>
<stop offset="0.91" stop-color="#FFC1DA"/>
<stop offset="1" stop-color="#BDFFE3"/>
</radialGradient>
<radialGradient id="paint18_radial_627_19046" cx="0" cy="0" r="1" gradientUnits="userSpaceOnUse" gradientTransform="translate(177.311 28.7057) rotate(-4.30722) scale(11.313 1.00352)">
<stop stop-color="#FFB6D5"/>
<stop offset="0.1" stop-color="#FFE3C0"/>
<stop offset="0.29" stop-color="#C7FBDB"/>
<stop offset="0.43" stop-color="#C7CDF4"/>
<stop offset="0.54" stop-color="#FFBCD4"/>
<stop offset="0.66" stop-color="#FFE0C3"/>
<stop offset="0.76" stop-color="#B0F1D4"/>
<stop offset="0.84" stop-color="#C9CEEC"/>
<stop offset="0.91" stop-color="#FFC1DA"/>
<stop offset="1" stop-color="#BDFFE3"/>
</radialGradient>
<radialGradient id="paint19_radial_627_19046" cx="0" cy="0" r="1" gradientUnits="userSpaceOnUse" gradientTransform="translate(375.925 46.9109) rotate(-27.4938) scale(9.85599 4.78056)">
<stop stop-color="#FFB6D5"/>
<stop offset="0.1" stop-color="#FFE3C0"/>
<stop offset="0.29" stop-color="#C7FBDB"/>
<stop offset="0.43" stop-color="#C7CDF4"/>
<stop offset="0.54" stop-color="#FFBCD4"/>
<stop offset="0.66" stop-color="#FFE0C3"/>
<stop offset="0.76" stop-color="#B0F1D4"/>
<stop offset="0.84" stop-color="#C9CEEC"/>
<stop offset="0.91" stop-color="#FFC1DA"/>
<stop offset="1" stop-color="#BDFFE3"/>
</radialGradient>
<radialGradient id="paint20_radial_627_19046" cx="0" cy="0" r="1" gradientUnits="userSpaceOnUse" gradientTransform="translate(508.445 -71.4362) rotate(-28.0259) scale(244.004 119.871)">
<stop stop-color="#FFB6D5"/>
<stop offset="0.1" stop-color="#FFE3C0"/>
<stop offset="0.29" stop-color="#C7FBDB"/>
<stop offset="0.43" stop-color="#C7CDF4"/>
<stop offset="0.54" stop-color="#FFBCD4"/>
<stop offset="0.66" stop-color="#FFE0C3"/>
<stop offset="0.76" stop-color="#B0F1D4"/>
<stop offset="0.84" stop-color="#C9CEEC"/>
<stop offset="0.91" stop-color="#FFC1DA"/>
<stop offset="1" stop-color="#BDFFE3"/>
</radialGradient>
<radialGradient id="paint21_radial_627_19046" cx="0" cy="0" r="1" gradientUnits="userSpaceOnUse" gradientTransform="translate(177.656 -62.0679) rotate(-36.5469) scale(227.202 128.737)">
<stop stop-color="#FFB6D5"/>
<stop offset="0.1" stop-color="#FFE3C0"/>
<stop offset="0.29" stop-color="#C7FBDB"/>
<stop offset="0.43" stop-color="#C7CDF4"/>
<stop offset="0.54" stop-color="#FFBCD4"/>
<stop offset="0.66" stop-color="#FFE0C3"/>
<stop offset="0.76" stop-color="#B0F1D4"/>
<stop offset="0.84" stop-color="#C9CEEC"/>
<stop offset="0.91" stop-color="#FFC1DA"/>
<stop offset="1" stop-color="#BDFFE3"/>
</radialGradient>
<radialGradient id="paint22_radial_627_19046" cx="0" cy="0" r="1" gradientUnits="userSpaceOnUse" gradientTransform="translate(362.365 24.9728) rotate(-9.48309) scale(289.159 55.6562)">
<stop stop-color="#FFB6D5"/>
<stop offset="0.1" stop-color="#FFE3C0"/>
<stop offset="0.29" stop-color="#C7FBDB"/>
<stop offset="0.43" stop-color="#C7CDF4"/>
<stop offset="0.54" stop-color="#FFBCD4"/>
<stop offset="0.66" stop-color="#FFE0C3"/>
<stop offset="0.76" stop-color="#B0F1D4"/>
<stop offset="0.84" stop-color="#C9CEEC"/>
<stop offset="0.91" stop-color="#FFC1DA"/>
<stop offset="1" stop-color="#BDFFE3"/>
</radialGradient>
<radialGradient id="paint23_radial_627_19046" cx="0" cy="0" r="1" gradientUnits="userSpaceOnUse" gradientTransform="translate(207.467 27.4547) rotate(-4.13307) scale(9.87401 0.840707)">
<stop stop-color="#FFB6D5"/>
<stop offset="0.1" stop-color="#FFE3C0"/>
<stop offset="0.29" stop-color="#C7FBDB"/>
<stop offset="0.43" stop-color="#C7CDF4"/>
<stop offset="0.54" stop-color="#FFBCD4"/>
<stop offset="0.66" stop-color="#FFE0C3"/>
<stop offset="0.76" stop-color="#B0F1D4"/>
<stop offset="0.84" stop-color="#C9CEEC"/>
<stop offset="0.91" stop-color="#FFC1DA"/>
<stop offset="1" stop-color="#BDFFE3"/>
</radialGradient>
<radialGradient id="paint24_radial_627_19046" cx="0" cy="0" r="1" gradientUnits="userSpaceOnUse" gradientTransform="translate(395.836 24.3871) rotate(-38.6594) scale(6.8995 3.98632)">
<stop stop-color="#FFB6D5"/>
<stop offset="0.1" stop-color="#FFE3C0"/>
<stop offset="0.29" stop-color="#C7FBDB"/>
<stop offset="0.43" stop-color="#C7CDF4"/>
<stop offset="0.54" stop-color="#FFBCD4"/>
<stop offset="0.66" stop-color="#FFE0C3"/>
<stop offset="0.76" stop-color="#B0F1D4"/>
<stop offset="0.84" stop-color="#C9CEEC"/>
<stop offset="0.91" stop-color="#FFC1DA"/>
<stop offset="1" stop-color="#BDFFE3"/>
</radialGradient>
<radialGradient id="paint25_radial_627_19046" cx="0" cy="0" r="1" gradientUnits="userSpaceOnUse" gradientTransform="translate(221.72 24.7193) rotate(-6.01812) scale(15.0833 1.86271)">
<stop stop-color="#FFB6D5"/>
<stop offset="0.1" stop-color="#FFE3C0"/>
<stop offset="0.29" stop-color="#C7FBDB"/>
<stop offset="0.43" stop-color="#C7CDF4"/>
<stop offset="0.54" stop-color="#FFBCD4"/>
<stop offset="0.66" stop-color="#FFE0C3"/>
<stop offset="0.76" stop-color="#B0F1D4"/>
<stop offset="0.84" stop-color="#C9CEEC"/>
<stop offset="0.91" stop-color="#FFC1DA"/>
<stop offset="1" stop-color="#BDFFE3"/>
</radialGradient>
<radialGradient id="paint26_radial_627_19046" cx="0" cy="0" r="1" gradientUnits="userSpaceOnUse" gradientTransform="translate(404.242 12.029) rotate(-42.0486) scale(12.4517 7.335)">
<stop stop-color="#FFB6D5"/>
<stop offset="0.1" stop-color="#FFE3C0"/>
<stop offset="0.29" stop-color="#C7FBDB"/>
<stop offset="0.43" stop-color="#C7CDF4"/>
<stop offset="0.54" stop-color="#FFBCD4"/>
<stop offset="0.66" stop-color="#FFE0C3"/>
<stop offset="0.76" stop-color="#B0F1D4"/>
<stop offset="0.84" stop-color="#C9CEEC"/>
<stop offset="0.91" stop-color="#FFC1DA"/>
<stop offset="1" stop-color="#BDFFE3"/>
</radialGradient>
<radialGradient id="paint27_radial_627_19046" cx="0" cy="0" r="1" gradientUnits="userSpaceOnUse" gradientTransform="translate(398.687 20.1392) rotate(-39.5888) scale(19.3013 11.2272)">
<stop stop-color="#FFB6D5"/>
<stop offset="0.1" stop-color="#FFE3C0"/>
<stop offset="0.29" stop-color="#C7FBDB"/>
<stop offset="0.43" stop-color="#C7CDF4"/>
<stop offset="0.54" stop-color="#FFBCD4"/>
<stop offset="0.66" stop-color="#FFE0C3"/>
<stop offset="0.76" stop-color="#B0F1D4"/>
<stop offset="0.84" stop-color="#C9CEEC"/>
<stop offset="0.91" stop-color="#FFC1DA"/>
<stop offset="1" stop-color="#BDFFE3"/>
</radialGradient>
<radialGradient id="paint28_radial_627_19046" cx="0" cy="0" r="1" gradientUnits="userSpaceOnUse" gradientTransform="translate(212.684 26.1883) rotate(-4.6851) scale(24.5001 2.36231)">
<stop stop-color="#FFB6D5"/>
<stop offset="0.1" stop-color="#FFE3C0"/>
<stop offset="0.29" stop-color="#C7FBDB"/>
<stop offset="0.43" stop-color="#C7CDF4"/>
<stop offset="0.54" stop-color="#FFBCD4"/>
<stop offset="0.66" stop-color="#FFE0C3"/>
<stop offset="0.76" stop-color="#B0F1D4"/>
<stop offset="0.84" stop-color="#C9CEEC"/>
<stop offset="0.91" stop-color="#FFC1DA"/>
<stop offset="1" stop-color="#BDFFE3"/>
</radialGradient>
<radialGradient id="paint29_radial_627_19046" cx="0" cy="0" r="1" gradientUnits="userSpaceOnUse" gradientTransform="translate(200.041 27.6806) rotate(-2.81821) scale(15.1765 0.882737)">
<stop stop-color="#FFB6D5"/>
<stop offset="0.1" stop-color="#FFE3C0"/>
<stop offset="0.29" stop-color="#C7FBDB"/>
<stop offset="0.43" stop-color="#C7CDF4"/>
<stop offset="0.54" stop-color="#FFBCD4"/>
<stop offset="0.66" stop-color="#FFE0C3"/>
<stop offset="0.76" stop-color="#B0F1D4"/>
<stop offset="0.84" stop-color="#C9CEEC"/>
<stop offset="0.91" stop-color="#FFC1DA"/>
<stop offset="1" stop-color="#BDFFE3"/>
</radialGradient>
<radialGradient id="paint30_radial_627_19046" cx="0" cy="0" r="1" gradientUnits="userSpaceOnUse" gradientTransform="translate(390.928 29.8392) rotate(-35.6915) scale(12.2049 6.84969)">
<stop stop-color="#FFB6D5"/>
<stop offset="0.1" stop-color="#FFE3C0"/>
<stop offset="0.29" stop-color="#C7FBDB"/>
<stop offset="0.43" stop-color="#C7CDF4"/>
<stop offset="0.54" stop-color="#FFBCD4"/>
<stop offset="0.66" stop-color="#FFE0C3"/>
<stop offset="0.76" stop-color="#B0F1D4"/>
<stop offset="0.84" stop-color="#C9CEEC"/>
<stop offset="0.91" stop-color="#FFC1DA"/>
<stop offset="1" stop-color="#BDFFE3"/>
</radialGradient>
<radialGradient id="paint31_radial_627_19046" cx="0" cy="0" r="1" gradientUnits="userSpaceOnUse" gradientTransform="translate(407.669 6.50805) rotate(-44.96) scale(8.05056 4.76766)">
<stop stop-color="#FFB6D5"/>
<stop offset="0.1" stop-color="#FFE3C0"/>
<stop offset="0.29" stop-color="#C7FBDB"/>
<stop offset="0.43" stop-color="#C7CDF4"/>
<stop offset="0.54" stop-color="#FFBCD4"/>
<stop offset="0.66" stop-color="#FFE0C3"/>
<stop offset="0.76" stop-color="#B0F1D4"/>
<stop offset="0.84" stop-color="#C9CEEC"/>
<stop offset="0.91" stop-color="#FFC1DA"/>
<stop offset="1" stop-color="#BDFFE3"/>
</radialGradient>
<radialGradient id="paint32_radial_627_19046" cx="0" cy="0" r="1" gradientUnits="userSpaceOnUse" gradientTransform="translate(228.552 23.2763) rotate(-7.93947) scale(12.0835 1.95793)">
<stop stop-color="#FFB6D5"/>
<stop offset="0.1" stop-color="#FFE3C0"/>
<stop offset="0.29" stop-color="#C7FBDB"/>
<stop offset="0.43" stop-color="#C7CDF4"/>
<stop offset="0.54" stop-color="#FFBCD4"/>
<stop offset="0.66" stop-color="#FFE0C3"/>
<stop offset="0.76" stop-color="#B0F1D4"/>
<stop offset="0.84" stop-color="#C9CEEC"/>
<stop offset="0.91" stop-color="#FFC1DA"/>
<stop offset="1" stop-color="#BDFFE3"/>
</radialGradient>
<radialGradient id="paint33_radial_627_19046" cx="0" cy="0" r="1" gradientUnits="userSpaceOnUse" gradientTransform="translate(459.664 -323.522) rotate(-32.1344) scale(1000.36 533.685)">
<stop stop-color="#FFB6D5"/>
<stop offset="0.1" stop-color="#FFE3C0"/>
<stop offset="0.29" stop-color="#C7FBDB"/>
<stop offset="0.43" stop-color="#C7CDF4"/>
<stop offset="0.54" stop-color="#FFBCD4"/>
<stop offset="0.66" stop-color="#FFE0C3"/>
<stop offset="0.76" stop-color="#B0F1D4"/>
<stop offset="0.84" stop-color="#C9CEEC"/>
<stop offset="0.91" stop-color="#FFC1DA"/>
<stop offset="1" stop-color="#BDFFE3"/>
</radialGradient>
<radialGradient id="paint34_radial_627_19046" cx="0" cy="0" r="1" gradientUnits="userSpaceOnUse" gradientTransform="translate(449.323 -315.622) rotate(-32.1343) scale(936.389 499.555)">
<stop stop-color="#FFB6D5"/>
<stop offset="0.1" stop-color="#FFE3C0"/>
<stop offset="0.29" stop-color="#C7FBDB"/>
<stop offset="0.43" stop-color="#C7CDF4"/>
<stop offset="0.54" stop-color="#FFBCD4"/>
<stop offset="0.66" stop-color="#FFE0C3"/>
<stop offset="0.76" stop-color="#B0F1D4"/>
<stop offset="0.84" stop-color="#C9CEEC"/>
<stop offset="0.91" stop-color="#FFC1DA"/>
<stop offset="1" stop-color="#BDFFE3"/>
</radialGradient>
<radialGradient id="paint35_radial_627_19046" cx="0" cy="0" r="1" gradientUnits="userSpaceOnUse" gradientTransform="translate(441.464 -309.618) rotate(-32.1344) scale(887.75 473.607)">
<stop stop-color="#FFB6D5"/>
<stop offset="0.1" stop-color="#FFE3C0"/>
<stop offset="0.29" stop-color="#C7FBDB"/>
<stop offset="0.43" stop-color="#C7CDF4"/>
<stop offset="0.54" stop-color="#FFBCD4"/>
<stop offset="0.66" stop-color="#FFE0C3"/>
<stop offset="0.76" stop-color="#B0F1D4"/>
<stop offset="0.84" stop-color="#C9CEEC"/>
<stop offset="0.91" stop-color="#FFC1DA"/>
<stop offset="1" stop-color="#BDFFE3"/>
</radialGradient>
</defs>
</svg>
