<svg width="140" height="56" viewBox="0 0 140 56" fill="none" xmlns="http://www.w3.org/2000/svg">
<path d="M112.382 45.2862C112.382 45.2863 112.382 45.2864 112.382 45.2864C115.649 43.7071 118.776 41.4537 121.835 38.8162C121.929 38.7347 122.015 38.6438 122.092 38.5456C123.59 36.638 125.144 34.8374 126.781 33.2074C126.842 33.1339 126.745 33.0298 126.667 33.0854C123.945 35.0303 121.184 36.6716 118.356 37.842C98.6472 45.9942 66.8477 36.9481 51.9948 51.7639C49.2879 54.4643 47.3756 57.7264 46.0088 61.3747C45.6241 62.4014 48.1399 63.3295 48.8698 62.5114C62.423 47.3195 93.7465 54.2945 112.382 45.2861C112.382 45.286 112.382 45.2861 112.382 45.2862Z" fill="url(#paint0_radial_2137_143175)"/>
<path d="M143.493 17.318C143.493 17.3177 143.492 17.3176 143.492 17.3177C140.443 19.4428 137.571 22.076 134.796 24.9615C135.601 24.2922 136.421 23.6612 137.259 23.0738C137.841 22.6652 138.396 22.217 138.899 21.7131C140.412 20.1958 141.94 18.719 143.493 17.3182C143.493 17.3181 143.493 17.3181 143.493 17.318Z" fill="url(#paint1_radial_2137_143175)"/>
<path d="M102.445 60.7729C102.445 60.7726 102.446 60.7724 102.446 60.7723C106.653 58.0957 110.426 54.1058 114.066 49.6254C115.233 47.784 116.436 45.9977 117.698 44.3125C114.312 47.8141 110.823 50.8595 107.077 52.9473C89.5457 62.7165 58.8283 57.7256 46.5666 73.1948C44.8273 75.389 43.5765 77.8495 42.6926 80.5096C42.6591 80.6103 42.6393 80.715 42.6329 80.821C42.5879 81.5675 42.5473 82.317 42.5098 83.0688C42.4569 84.1301 44.4588 84.6244 45.0692 83.7546C56.0539 68.105 86.0425 71.2061 102.445 60.7734C102.445 60.7733 102.445 60.7731 102.445 60.7729Z" fill="url(#paint2_radial_2137_143175)"/>
<path d="M129.07 31.0949C129.525 30.7075 129.959 30.2937 130.352 29.843C131.813 28.1686 133.29 26.528 134.796 24.9609C132.246 27.0841 129.854 29.5889 127.553 32.2901C127.505 32.3467 127.577 32.4237 127.636 32.3792C128.107 31.9363 128.584 31.5076 129.07 31.0949Z" fill="url(#paint3_radial_2137_143175)"/>
<path d="M138.587 22.9945C138.949 22.6583 138.597 22.1785 138.183 22.4482C138.158 22.4647 138.134 22.4842 138.113 22.5058C136.089 24.5592 134.09 26.6742 132.096 28.7644C132.081 28.7806 132.102 28.8067 132.121 28.7945C134.283 26.9571 136.433 24.9951 138.587 22.9945Z" fill="url(#paint4_radial_2137_143175)"/>
<path d="M122.259 38.9341C122.384 38.7692 122.146 38.5475 121.989 38.6833C121.981 38.6904 121.973 38.6983 121.966 38.7069C121.104 39.8117 120.259 40.952 119.428 42.1141C120.254 41.1212 121.106 40.1745 121.991 39.2872C122.08 39.1694 122.169 39.0517 122.259 38.9341Z" fill="url(#paint5_radial_2137_143175)"/>
<path d="M125.776 35.1976C125.776 35.1977 125.777 35.1978 125.777 35.1977C126.488 34.3576 127.201 33.5151 127.916 32.6751C128.065 32.5004 127.821 32.2431 127.637 32.3798C127.35 32.6504 127.064 32.9269 126.781 33.2078C126.209 33.8959 125.642 34.5949 125.079 35.3019C124.901 35.5245 125.175 35.7756 125.381 35.5786C125.513 35.4521 125.644 35.325 125.776 35.1975C125.776 35.1974 125.776 35.1974 125.776 35.1976Z" fill="url(#paint6_radial_2137_143175)"/>
<path d="M131.843 29.03C131.843 29.0298 131.843 29.0296 131.843 29.0295C131.845 29.0276 131.846 29.0258 131.848 29.024C131.864 29.0069 131.842 28.9801 131.822 28.9934C131.122 29.468 130.438 29.9776 129.768 30.517C129.764 30.5203 129.761 30.524 129.757 30.528C129.687 30.6091 129.791 30.7179 129.875 30.6507C130.532 30.124 131.188 29.5831 131.842 29.0307C131.843 29.0305 131.843 29.0303 131.843 29.03Z" fill="url(#paint7_radial_2137_143175)"/>
<path d="M44.3933 104.281C44.3932 104.281 44.3931 104.281 44.3931 104.281C52.8964 88.55 81.098 88.1825 95.2025 76.7114C100.295 72.5704 104.302 66.1054 108.26 59.3567C109.071 57.8388 109.903 56.3465 110.767 54.9004C106.99 60.379 103.08 65.4007 98.4891 68.7109C83.2312 79.7106 54.084 78.3987 44.354 94.1342C43.0264 96.2806 42.1465 98.6074 41.6076 101.072C41.6003 101.157 41.5929 101.241 41.5856 101.327C41.6385 104.232 41.6738 107.127 41.6164 109.966C41.6406 110.275 42.2786 110.294 42.3416 109.99C42.7547 107.996 43.4181 106.086 44.3935 104.281C44.3936 104.281 44.3935 104.281 44.3933 104.281Z" fill="url(#paint8_radial_2137_143175)"/>
<path d="M132.534 32.6556C132.534 32.6559 132.535 32.6562 132.535 32.6561C150.4 27.3219 170.53 47.2141 187.994 49.0004C194.851 49.7022 202.521 47.9635 210.261 45.9938C211.896 45.5054 213.522 45.0471 215.132 44.6438C208.413 45.8362 201.858 46.6069 195.988 45.6594C178.061 42.7665 158.47 21.0149 139.699 25.4522C136.955 26.1005 134.449 27.2576 132.121 28.7925C132.028 28.8717 131.935 28.9501 131.842 29.0286C129.823 31.1427 127.808 33.2283 125.776 35.1958C125.026 36.0809 124.276 36.9638 123.526 37.8379C126.187 35.4841 129.144 33.6678 132.534 32.655C132.534 32.6549 132.534 32.6552 132.534 32.6556Z" fill="url(#paint9_radial_2137_143175)"/>
<path d="M119.428 42.1143C118.838 42.8241 118.262 43.5582 117.698 44.3127C117.755 44.2534 117.813 44.1939 117.87 44.1343C118.213 43.7772 118.525 43.391 118.81 42.9857C119.016 42.6939 119.222 42.4033 119.428 42.1143Z" fill="url(#paint10_radial_2137_143175)"/>
<path d="M115.566 47.7458C115.566 47.7456 115.565 47.7455 115.565 47.7456C115.068 48.3798 114.568 49.0073 114.066 49.6253C113.57 50.4078 113.081 51.2005 112.596 51.9991C113.232 51.0465 113.889 50.1255 114.57 49.2418C114.901 48.7432 115.233 48.2438 115.566 47.7459C115.566 47.7459 115.566 47.7458 115.566 47.7458Z" fill="url(#paint11_radial_2137_143175)"/>
<path d="M118.897 43.049C118.556 43.4138 118.24 43.8004 117.957 44.211C117.152 45.378 116.356 46.5599 115.566 47.7449C117.168 45.7034 118.751 43.5885 120.343 41.4707C119.862 42.004 119.38 42.5305 118.897 43.049Z" fill="url(#paint12_radial_2137_143175)"/>
<path d="M121.991 39.2872C121.44 40.0131 120.892 40.7421 120.343 41.471C121.409 40.2881 122.469 39.0723 123.527 37.8389C123.004 38.3016 122.492 38.7848 121.991 39.2872Z" fill="url(#paint13_radial_2137_143175)"/>
<path d="M112.596 51.999C112.596 51.999 112.596 51.9991 112.596 51.9992C111.968 52.9392 111.359 53.9086 110.767 54.9008C111.006 54.5532 111.246 54.2034 111.485 53.8521C111.853 53.2319 112.223 52.6139 112.596 51.9995C112.596 51.9993 112.596 51.999 112.596 51.999Z" fill="url(#paint14_radial_2137_143175)"/>
<path d="M257.691 264.485C257.691 264.486 257.691 264.486 257.691 264.486C270.641 252.639 297.803 250.705 305.114 235.067C307.031 230.966 307.346 226.427 306.782 221.648C306.405 219.734 306.025 217.818 305.672 215.912C305.148 213.828 304.596 211.734 304.062 209.645C301.029 199.545 296.817 189.112 297.223 179.917C297.969 163.026 316.06 142.552 309.902 125.674C308.204 121.021 304.917 117.34 300.807 114.188C299.255 113.162 297.706 112.14 296.185 111.11C294.352 110.028 292.499 108.962 290.667 107.893C281.396 102.958 271.202 98.7405 265.238 92.2521C253.362 79.334 251.423 52.2381 235.746 44.9452C231.636 43.0328 227.086 42.7182 222.294 43.2806C220.376 43.6568 218.456 44.0359 216.545 44.3887C214.455 44.9115 212.357 45.4615 210.262 45.9939C200.137 49.0203 189.679 53.2214 180.461 52.8166C163.529 52.0723 143.005 34.0254 126.086 40.1684C121.421 41.8624 117.731 45.141 114.571 49.2417C113.543 50.7898 112.518 52.3349 111.486 53.8521C110.401 55.681 109.333 57.5289 108.261 59.3571C103.314 68.6049 99.086 78.7738 92.5817 84.7239C79.632 96.5706 52.4696 98.5044 45.1589 114.143C43.2417 118.244 42.9264 122.782 43.4902 127.562C43.8673 129.476 44.2474 131.391 44.601 133.297C45.1251 135.382 45.6764 137.476 46.2101 139.565C49.2439 149.665 53.4554 160.098 53.0496 169.293C52.3035 186.184 34.2124 206.658 40.3704 223.535C42.0685 228.189 45.3552 231.87 49.4659 235.022C51.0178 236.048 52.5666 237.07 54.0876 238.1C55.921 239.182 57.7734 240.248 59.6061 241.317C68.8766 246.251 79.0704 250.469 85.0351 256.958C96.9108 269.876 98.8493 296.972 114.526 304.264C118.637 306.177 123.187 306.492 127.978 305.929C129.897 305.553 131.817 305.174 133.727 304.821C135.817 304.298 137.916 303.748 140.01 303.216C150.135 300.189 160.594 295.988 169.811 296.393C186.744 297.137 207.268 315.184 224.187 309.041C228.852 307.347 232.542 304.069 235.701 299.968C236.73 298.42 237.755 296.875 238.787 295.358C239.872 293.529 240.94 291.681 242.012 289.853C246.958 280.605 251.186 270.436 257.691 264.485C257.691 264.485 257.691 264.485 257.691 264.485ZM229.911 301.277C213.969 308.136 193.197 291.912 176.855 292.143C159.914 292.382 139.579 308.956 124.078 302.812C108.576 296.669 105.187 270.693 93.0287 258.922C81.3007 247.567 55.03 245.149 48.1538 229.246C41.2775 213.344 57.5419 192.622 57.3103 176.32C57.0707 159.42 40.4557 139.135 46.6144 123.672C52.7732 108.208 78.8124 104.827 90.6124 92.6987C101.996 80.9994 104.419 54.7929 120.361 47.9335C136.303 41.0741 157.075 57.2987 173.417 57.0677C190.358 56.8286 210.693 40.2542 226.194 46.3979C241.696 52.5416 245.085 78.5171 257.243 90.2883C268.971 101.644 295.242 104.061 302.118 119.964C308.994 135.867 292.73 156.588 292.962 172.89C293.201 189.79 309.816 210.075 303.657 225.539C297.499 241.002 271.46 244.383 259.66 256.512C248.276 268.211 245.853 294.418 229.911 301.277Z" fill="url(#paint15_radial_2137_143175)"/>
<path d="M301.546 216.39C301.546 216.391 301.546 216.391 301.546 216.39C306.598 201.181 289.487 182.608 288.308 166.376C287.171 150.717 301.643 129.888 294.14 114.985C286.637 100.081 261.247 99.224 249.334 88.9627C236.986 78.3253 232.269 53.5436 217.022 48.5036C201.775 43.4635 183.157 60.5329 166.885 61.7091C151.187 62.8435 130.308 48.4068 115.368 55.8917C100.428 63.3766 99.5682 88.7046 89.2818 100.588C78.6183 112.906 53.7759 117.611 48.7235 132.821C43.6711 148.031 60.7823 166.603 61.9614 182.836C63.0986 198.495 48.6264 219.323 56.1297 234.227C63.633 249.13 89.0231 249.988 100.936 260.248C113.284 270.886 118 295.667 133.247 300.707C148.494 305.747 167.113 288.678 183.385 287.502C199.083 286.367 219.962 300.804 234.902 293.319C249.842 285.834 250.701 260.506 260.987 248.623C271.651 236.305 296.492 231.6 301.545 216.391C301.545 216.39 301.546 216.39 301.546 216.39ZM239.159 285.227C225.238 293.245 204.386 280.551 189.382 282.516C173.828 284.552 156.913 301.976 141.995 297.988C127.076 294.001 121.161 270.475 108.711 260.953C96.7013 251.767 72.2809 252.361 64.2432 238.473C56.2055 224.586 68.9302 203.785 66.9609 188.817C64.9195 173.301 47.4532 156.428 51.4507 141.546C55.4483 126.664 79.0314 120.763 88.5769 108.344C97.7849 96.3633 97.1902 72.0026 111.112 63.9846C125.033 55.9665 145.885 68.6602 160.889 66.6956C176.443 64.6592 193.358 47.2357 208.277 51.2234C223.195 55.2112 229.11 78.7367 241.56 88.2588C253.57 97.4443 277.99 96.851 286.028 110.739C294.066 124.626 281.34 145.427 283.31 160.394C285.352 175.91 302.818 192.784 298.82 207.666C294.823 222.548 271.24 228.449 261.694 240.868C252.486 252.848 253.081 277.209 239.159 285.227Z" fill="url(#paint16_radial_2137_143175)"/>
<path d="M295.522 199.402C298.521 184.917 280.837 169.718 278.012 154.962C275.287 140.727 286.319 120.084 277.839 107.222C269.359 94.3592 245.988 96.2878 233.964 88.1531C221.5 79.7208 214.514 57.5035 199.993 54.5131C185.473 51.5219 170.237 69.1618 155.444 71.9799C141.174 74.6983 120.481 63.6934 107.587 72.153C94.693 80.6125 96.6264 103.926 88.4718 115.92C80.0187 128.354 57.747 135.323 54.7492 149.808C51.7507 164.293 69.4338 179.492 72.2589 194.248C74.9839 208.484 63.9521 229.126 72.4324 241.989C80.9126 254.851 104.283 252.922 116.307 261.057C128.771 269.489 135.757 291.707 150.278 294.697C164.798 297.688 180.034 280.048 194.827 277.23C209.097 274.512 229.79 285.517 242.684 277.057C255.578 268.598 253.645 245.284 261.799 233.29C270.253 220.856 292.524 213.887 295.522 199.402ZM245.483 268.867C233.62 277.677 213.208 268.299 199.707 271.693C185.712 275.212 172.12 292.934 158.062 290.88C144.003 288.826 136.078 267.959 123.683 260.585C111.726 253.471 89.4745 256.615 80.6428 244.781C71.8112 232.948 81.2118 212.585 77.8097 199.117C74.2826 185.156 56.5165 171.598 58.5755 157.574C60.6346 143.549 81.5529 135.644 88.9452 123.279C96.0765 111.351 92.9251 89.1541 104.788 80.3441C116.651 71.534 137.063 80.9117 150.564 77.5179C164.559 73.9994 178.15 56.2767 192.209 58.3307C206.268 60.3847 214.192 81.2519 226.588 88.6261C238.545 95.74 260.796 92.5963 269.628 104.43C278.459 116.264 269.059 136.626 272.461 150.094C275.988 164.055 293.754 177.613 291.695 191.637C289.636 205.662 268.718 213.567 261.325 225.932C254.194 237.86 257.345 260.057 245.483 268.867Z" fill="url(#paint17_radial_2137_143175)"/>
<defs>
<radialGradient id="paint0_radial_2137_143175" cx="0" cy="0" r="1" gradientUnits="userSpaceOnUse" gradientTransform="translate(114.395 42.2002) rotate(-16.8744) scale(159.533 52.4877)">
<stop stop-color="#FFB6D5"/>
<stop offset="0.1" stop-color="#FFE3C0"/>
<stop offset="0.29" stop-color="#C7FBDB"/>
<stop offset="0.43" stop-color="#C7CDF4"/>
<stop offset="0.54" stop-color="#FFBCD4"/>
<stop offset="0.66" stop-color="#FFE0C3"/>
<stop offset="0.76" stop-color="#B0F1D4"/>
<stop offset="0.84" stop-color="#C9CEEC"/>
<stop offset="0.91" stop-color="#FFC1DA"/>
<stop offset="1" stop-color="#BDFFE3"/>
</radialGradient>
<radialGradient id="paint1_radial_2137_143175" cx="0" cy="0" r="1" gradientUnits="userSpaceOnUse" gradientTransform="translate(142.164 19.1114) rotate(-28.9043) scale(18.0741 9.0583)">
<stop stop-color="#FFB6D5"/>
<stop offset="0.1" stop-color="#FFE3C0"/>
<stop offset="0.29" stop-color="#C7FBDB"/>
<stop offset="0.43" stop-color="#C7CDF4"/>
<stop offset="0.54" stop-color="#FFBCD4"/>
<stop offset="0.66" stop-color="#FFE0C3"/>
<stop offset="0.76" stop-color="#B0F1D4"/>
<stop offset="0.84" stop-color="#C9CEEC"/>
<stop offset="0.91" stop-color="#FFC1DA"/>
<stop offset="1" stop-color="#BDFFE3"/>
</radialGradient>
<radialGradient id="paint2_radial_2137_143175" cx="0" cy="0" r="1" gradientUnits="userSpaceOnUse" gradientTransform="translate(106.17 54.8875) rotate(-20.5614) scale(146.622 57.1073)">
<stop stop-color="#FFB6D5"/>
<stop offset="0.1" stop-color="#FFE3C0"/>
<stop offset="0.29" stop-color="#C7FBDB"/>
<stop offset="0.43" stop-color="#C7CDF4"/>
<stop offset="0.54" stop-color="#FFBCD4"/>
<stop offset="0.66" stop-color="#FFE0C3"/>
<stop offset="0.76" stop-color="#B0F1D4"/>
<stop offset="0.84" stop-color="#C9CEEC"/>
<stop offset="0.91" stop-color="#FFC1DA"/>
<stop offset="1" stop-color="#BDFFE3"/>
</radialGradient>
<radialGradient id="paint3_radial_2137_143175" cx="0" cy="0" r="1" gradientUnits="userSpaceOnUse" gradientTransform="translate(133.638 26.7751) rotate(-32.6326) scale(16.3823 8.81173)">
<stop stop-color="#FFB6D5"/>
<stop offset="0.1" stop-color="#FFE3C0"/>
<stop offset="0.29" stop-color="#C7FBDB"/>
<stop offset="0.43" stop-color="#C7CDF4"/>
<stop offset="0.54" stop-color="#FFBCD4"/>
<stop offset="0.66" stop-color="#FFE0C3"/>
<stop offset="0.76" stop-color="#B0F1D4"/>
<stop offset="0.84" stop-color="#C9CEEC"/>
<stop offset="0.91" stop-color="#FFC1DA"/>
<stop offset="1" stop-color="#BDFFE3"/>
</radialGradient>
<radialGradient id="paint4_radial_2137_143175" cx="0" cy="0" r="1" gradientUnits="userSpaceOnUse" gradientTransform="translate(139.46 22.7912) rotate(-29.5395) scale(18.4725 9.38489)">
<stop stop-color="#FFB6D5"/>
<stop offset="0.1" stop-color="#FFE3C0"/>
<stop offset="0.29" stop-color="#C7FBDB"/>
<stop offset="0.43" stop-color="#C7CDF4"/>
<stop offset="0.54" stop-color="#FFBCD4"/>
<stop offset="0.66" stop-color="#FFE0C3"/>
<stop offset="0.76" stop-color="#B0F1D4"/>
<stop offset="0.84" stop-color="#C9CEEC"/>
<stop offset="0.91" stop-color="#FFC1DA"/>
<stop offset="1" stop-color="#BDFFE3"/>
</radialGradient>
<radialGradient id="paint5_radial_2137_143175" cx="0" cy="0" r="1" gradientUnits="userSpaceOnUse" gradientTransform="translate(122.826 38.5022) rotate(-36.4699) scale(9.07444 5.13755)">
<stop stop-color="#FFB6D5"/>
<stop offset="0.1" stop-color="#FFE3C0"/>
<stop offset="0.29" stop-color="#C7FBDB"/>
<stop offset="0.43" stop-color="#C7CDF4"/>
<stop offset="0.54" stop-color="#FFBCD4"/>
<stop offset="0.66" stop-color="#FFE0C3"/>
<stop offset="0.76" stop-color="#B0F1D4"/>
<stop offset="0.84" stop-color="#C9CEEC"/>
<stop offset="0.91" stop-color="#FFC1DA"/>
<stop offset="1" stop-color="#BDFFE3"/>
</radialGradient>
<radialGradient id="paint6_radial_2137_143175" cx="0" cy="0" r="1" gradientUnits="userSpaceOnUse" gradientTransform="translate(128.293 32.6621) rotate(-34.1365) scale(12.5928 6.92783)">
<stop stop-color="#FFB6D5"/>
<stop offset="0.1" stop-color="#FFE3C0"/>
<stop offset="0.29" stop-color="#C7FBDB"/>
<stop offset="0.43" stop-color="#C7CDF4"/>
<stop offset="0.54" stop-color="#FFBCD4"/>
<stop offset="0.66" stop-color="#FFE0C3"/>
<stop offset="0.76" stop-color="#B0F1D4"/>
<stop offset="0.84" stop-color="#C9CEEC"/>
<stop offset="0.91" stop-color="#FFC1DA"/>
<stop offset="1" stop-color="#BDFFE3"/>
</radialGradient>
<radialGradient id="paint7_radial_2137_143175" cx="0" cy="0" r="1" gradientUnits="userSpaceOnUse" gradientTransform="translate(131.547 29.4344) rotate(-27.4364) scale(5.75675 2.78834)">
<stop stop-color="#FFB6D5"/>
<stop offset="0.1" stop-color="#FFE3C0"/>
<stop offset="0.29" stop-color="#C7FBDB"/>
<stop offset="0.43" stop-color="#C7CDF4"/>
<stop offset="0.54" stop-color="#FFBCD4"/>
<stop offset="0.66" stop-color="#FFE0C3"/>
<stop offset="0.76" stop-color="#B0F1D4"/>
<stop offset="0.84" stop-color="#C9CEEC"/>
<stop offset="0.91" stop-color="#FFC1DA"/>
<stop offset="1" stop-color="#BDFFE3"/>
</radialGradient>
<radialGradient id="paint8_radial_2137_143175" cx="0" cy="0" r="1" gradientUnits="userSpaceOnUse" gradientTransform="translate(100.198 68.6259) rotate(-27.9681) scale(142.516 69.9184)">
<stop stop-color="#FFB6D5"/>
<stop offset="0.1" stop-color="#FFE3C0"/>
<stop offset="0.29" stop-color="#C7FBDB"/>
<stop offset="0.43" stop-color="#C7CDF4"/>
<stop offset="0.54" stop-color="#FFBCD4"/>
<stop offset="0.66" stop-color="#FFE0C3"/>
<stop offset="0.76" stop-color="#B0F1D4"/>
<stop offset="0.84" stop-color="#C9CEEC"/>
<stop offset="0.91" stop-color="#FFC1DA"/>
<stop offset="1" stop-color="#BDFFE3"/>
</radialGradient>
<radialGradient id="paint9_radial_2137_143175" cx="0" cy="0" r="1" gradientUnits="userSpaceOnUse" gradientTransform="translate(201.137 30.5609) rotate(-9.46053) scale(168.97 32.4481)">
<stop stop-color="#FFB6D5"/>
<stop offset="0.1" stop-color="#FFE3C0"/>
<stop offset="0.29" stop-color="#C7FBDB"/>
<stop offset="0.43" stop-color="#C7CDF4"/>
<stop offset="0.54" stop-color="#FFBCD4"/>
<stop offset="0.66" stop-color="#FFE0C3"/>
<stop offset="0.76" stop-color="#B0F1D4"/>
<stop offset="0.84" stop-color="#C9CEEC"/>
<stop offset="0.91" stop-color="#FFC1DA"/>
<stop offset="1" stop-color="#BDFFE3"/>
</radialGradient>
<radialGradient id="paint10_radial_2137_143175" cx="0" cy="0" r="1" gradientUnits="userSpaceOnUse" gradientTransform="translate(119.164 42.6302) rotate(-38.5907) scale(4.02811 2.32605)">
<stop stop-color="#FFB6D5"/>
<stop offset="0.1" stop-color="#FFE3C0"/>
<stop offset="0.29" stop-color="#C7FBDB"/>
<stop offset="0.43" stop-color="#C7CDF4"/>
<stop offset="0.54" stop-color="#FFBCD4"/>
<stop offset="0.66" stop-color="#FFE0C3"/>
<stop offset="0.76" stop-color="#B0F1D4"/>
<stop offset="0.84" stop-color="#C9CEEC"/>
<stop offset="0.91" stop-color="#FFC1DA"/>
<stop offset="1" stop-color="#BDFFE3"/>
</radialGradient>
<radialGradient id="paint11_radial_2137_143175" cx="0" cy="0" r="1" gradientUnits="userSpaceOnUse" gradientTransform="translate(115.112 48.7435) rotate(-41.9786) scale(7.26866 4.2807)">
<stop stop-color="#FFB6D5"/>
<stop offset="0.1" stop-color="#FFE3C0"/>
<stop offset="0.29" stop-color="#C7FBDB"/>
<stop offset="0.43" stop-color="#C7CDF4"/>
<stop offset="0.54" stop-color="#FFBCD4"/>
<stop offset="0.66" stop-color="#FFE0C3"/>
<stop offset="0.76" stop-color="#B0F1D4"/>
<stop offset="0.84" stop-color="#C9CEEC"/>
<stop offset="0.91" stop-color="#FFC1DA"/>
<stop offset="1" stop-color="#BDFFE3"/>
</radialGradient>
<radialGradient id="paint12_radial_2137_143175" cx="0" cy="0" r="1" gradientUnits="userSpaceOnUse" gradientTransform="translate(119.613 42.9432) rotate(-39.5201) scale(11.2683 6.55154)">
<stop stop-color="#FFB6D5"/>
<stop offset="0.1" stop-color="#FFE3C0"/>
<stop offset="0.29" stop-color="#C7FBDB"/>
<stop offset="0.43" stop-color="#C7CDF4"/>
<stop offset="0.54" stop-color="#FFBCD4"/>
<stop offset="0.66" stop-color="#FFE0C3"/>
<stop offset="0.76" stop-color="#B0F1D4"/>
<stop offset="0.84" stop-color="#C9CEEC"/>
<stop offset="0.91" stop-color="#FFC1DA"/>
<stop offset="1" stop-color="#BDFFE3"/>
</radialGradient>
<radialGradient id="paint13_radial_2137_143175" cx="0" cy="0" r="1" gradientUnits="userSpaceOnUse" gradientTransform="translate(123.041 38.6913) rotate(-35.625) scale(7.12642 3.9964)">
<stop stop-color="#FFB6D5"/>
<stop offset="0.1" stop-color="#FFE3C0"/>
<stop offset="0.29" stop-color="#C7FBDB"/>
<stop offset="0.43" stop-color="#C7CDF4"/>
<stop offset="0.54" stop-color="#FFBCD4"/>
<stop offset="0.66" stop-color="#FFE0C3"/>
<stop offset="0.76" stop-color="#B0F1D4"/>
<stop offset="0.84" stop-color="#C9CEEC"/>
<stop offset="0.91" stop-color="#FFC1DA"/>
<stop offset="1" stop-color="#BDFFE3"/>
</radialGradient>
<radialGradient id="paint14_radial_2137_143175" cx="0" cy="0" r="1" gradientUnits="userSpaceOnUse" gradientTransform="translate(112.317 52.68) rotate(-44.8899) scale(4.69894 2.78276)">
<stop stop-color="#FFB6D5"/>
<stop offset="0.1" stop-color="#FFE3C0"/>
<stop offset="0.29" stop-color="#C7FBDB"/>
<stop offset="0.43" stop-color="#C7CDF4"/>
<stop offset="0.54" stop-color="#FFBCD4"/>
<stop offset="0.66" stop-color="#FFE0C3"/>
<stop offset="0.76" stop-color="#B0F1D4"/>
<stop offset="0.84" stop-color="#C9CEEC"/>
<stop offset="0.91" stop-color="#FFC1DA"/>
<stop offset="1" stop-color="#BDFFE3"/>
</radialGradient>
<radialGradient id="paint15_radial_2137_143175" cx="0" cy="0" r="1" gradientUnits="userSpaceOnUse" gradientTransform="translate(269.61 102.596) rotate(-32.0712) scale(584.197 311.332)">
<stop stop-color="#FFB6D5"/>
<stop offset="0.1" stop-color="#FFE3C0"/>
<stop offset="0.29" stop-color="#C7FBDB"/>
<stop offset="0.43" stop-color="#C7CDF4"/>
<stop offset="0.54" stop-color="#FFBCD4"/>
<stop offset="0.66" stop-color="#FFE0C3"/>
<stop offset="0.76" stop-color="#B0F1D4"/>
<stop offset="0.84" stop-color="#C9CEEC"/>
<stop offset="0.91" stop-color="#FFC1DA"/>
<stop offset="1" stop-color="#BDFFE3"/>
</radialGradient>
<radialGradient id="paint16_radial_2137_143175" cx="0" cy="0" r="1" gradientUnits="userSpaceOnUse" gradientTransform="translate(263.567 107.202) rotate(-32.0712) scale(546.836 291.422)">
<stop stop-color="#FFB6D5"/>
<stop offset="0.1" stop-color="#FFE3C0"/>
<stop offset="0.29" stop-color="#C7FBDB"/>
<stop offset="0.43" stop-color="#C7CDF4"/>
<stop offset="0.54" stop-color="#FFBCD4"/>
<stop offset="0.66" stop-color="#FFE0C3"/>
<stop offset="0.76" stop-color="#B0F1D4"/>
<stop offset="0.84" stop-color="#C9CEEC"/>
<stop offset="0.91" stop-color="#FFC1DA"/>
<stop offset="1" stop-color="#BDFFE3"/>
</radialGradient>
<radialGradient id="paint17_radial_2137_143175" cx="0" cy="0" r="1" gradientUnits="userSpaceOnUse" gradientTransform="translate(258.974 110.702) rotate(-32.0712) scale(518.432 276.285)">
<stop stop-color="#FFB6D5"/>
<stop offset="0.1" stop-color="#FFE3C0"/>
<stop offset="0.29" stop-color="#C7FBDB"/>
<stop offset="0.43" stop-color="#C7CDF4"/>
<stop offset="0.54" stop-color="#FFBCD4"/>
<stop offset="0.66" stop-color="#FFE0C3"/>
<stop offset="0.76" stop-color="#B0F1D4"/>
<stop offset="0.84" stop-color="#C9CEEC"/>
<stop offset="0.91" stop-color="#FFC1DA"/>
<stop offset="1" stop-color="#BDFFE3"/>
</radialGradient>
</defs>
</svg>
