<svg width="265" height="104" viewBox="0 0 265 104" fill="none" xmlns="http://www.w3.org/2000/svg">
<path d="M93.8503 37.0744C93.8502 37.0747 93.85 37.0748 93.8498 37.0749C91.0515 37.2814 88.1837 37.962 85.2765 38.92C84.6603 39.1231 84.0718 39.4006 83.5066 39.7193C82.0303 40.5517 80.552 41.2994 79.0709 41.9222C79.0295 41.9446 79.0546 42.0088 79.1003 41.9973C81.9115 41.2871 84.6703 40.8322 87.3442 40.7905C103.474 40.5409 123.998 56.5679 139.724 49.7596C145.539 47.2422 149.526 42.1102 152.81 36.0549C150.715 38.8943 148.22 41.2415 145.11 42.8089C130.256 50.2929 109.466 35.9225 93.8509 37.074C93.8506 37.0741 93.8504 37.0742 93.8503 37.0744Z" fill="url(#paint0_radial_1721_77990)"/>
<path d="M171.003 -1.7978C171.003 -1.79787 171.003 -1.79793 171.003 -1.79787C169.147 0.356957 167.601 2.95405 166.225 5.80634C166.181 5.89777 166.146 5.99351 166.121 6.09171C165.639 7.93178 165.084 9.71225 164.416 11.3957C164.395 11.4678 164.497 11.5124 164.536 11.448C165.887 9.19819 167.36 7.15504 169.03 5.43027C180.661 -6.58522 206.358 -9.96463 212.417 -25.2731C213.522 -28.0644 213.879 -31.0133 213.723 -34.0711C213.679 -34.9291 211.579 -34.8118 211.31 -33.9959C206.304 -18.821 181.595 -14.0964 171.003 -1.79772C171.003 -1.79766 171.003 -1.79772 171.003 -1.7978Z" fill="url(#paint1_radial_1721_77990)"/>
<path d="M11.7887 10.0024C11.7888 10.0025 11.7889 10.0024 11.7888 10.0023C9.63277 8.1455 7.03397 6.59907 4.1798 5.22257C4.09155 5.18001 3.99915 5.14638 3.90437 5.12158C2.06248 4.6397 0.280258 4.08425 -1.40474 3.41569C-1.47686 3.3946 -1.52149 3.49697 -1.45706 3.53564C0.792747 4.88619 2.83589 6.35983 4.56066 8.02919C16.5762 19.6607 19.9556 45.3581 35.264 51.417C38.0553 52.5216 41.0043 52.8786 44.062 52.7224C44.9201 52.6786 44.8027 50.5791 43.9868 50.3098C28.8119 45.3033 24.0873 20.5948 11.7887 10.0026C11.7886 10.0025 11.7887 10.0024 11.7887 10.0024Z" fill="url(#paint2_radial_1721_77990)"/>
<path d="M53.4343 50.9727C53.4347 50.9725 53.435 50.9724 53.4354 50.9723C56.3316 50.5648 59.2969 49.6992 62.3003 48.5879C61.624 48.7413 60.95 48.8695 60.2786 48.9694C59.4412 49.0941 58.6111 49.272 57.8123 49.5526C56.3439 50.0685 54.8829 50.5489 53.4343 50.9727Z" fill="url(#paint3_radial_1721_77990)"/>
<path d="M152.81 36.0563C152.81 36.0563 152.81 36.0562 152.81 36.0562C154.563 33.679 156.036 30.9568 157.355 28.0565C156.795 28.9647 156.197 29.8316 155.554 30.6482C155.457 30.7716 155.373 30.9054 155.307 31.0479C154.51 32.7614 153.685 34.4416 152.81 36.056C152.809 36.0562 152.81 36.0563 152.81 36.0563Z" fill="url(#paint4_radial_1721_77990)"/>
<path d="M157.355 28.0564C157.355 28.0566 157.356 28.0566 157.356 28.0564C158.886 25.5746 160.13 22.7813 161.225 19.8369C160.89 20.4996 160.537 21.1437 160.163 21.767C159.796 22.3773 159.465 23.0092 159.203 23.6715C158.615 25.1629 158.003 26.6311 157.355 28.0562C157.355 28.0563 157.355 28.0563 157.355 28.0564Z" fill="url(#paint5_radial_1721_77990)"/>
<path d="M62.3008 48.5879C65.1152 47.949 67.9705 46.8724 70.847 45.5719C70.1721 45.7874 69.4983 45.9772 68.8253 46.1382C68.1028 46.311 67.3898 46.5253 66.7069 46.8177C65.2317 47.4494 63.762 48.0476 62.3008 48.5879Z" fill="url(#paint6_radial_1721_77990)"/>
<path d="M26.0502 12.3151C26.05 12.3151 26.0498 12.3151 26.0497 12.315C22.8094 10.1239 18.7577 8.65585 14.3934 7.43607C12.7022 7.17118 11.0396 6.86375 9.43164 6.48242C13.0107 7.82435 16.2933 9.38375 18.9652 11.4266C31.4686 20.9872 37.4352 44.6404 52.4079 48.6313C54.5318 49.1975 56.6955 49.3292 58.8891 49.1345C58.9718 49.1272 59.0533 49.1088 59.1314 49.0804C59.6846 48.8794 60.2386 48.6743 60.7933 48.4662C61.5739 48.1734 61.3052 46.5795 60.4884 46.4121C45.7834 43.3959 38.6811 20.8569 26.0507 12.3151C26.0505 12.315 26.0503 12.315 26.0502 12.3151Z" fill="url(#paint7_radial_1721_77990)"/>
<path d="M105.568 28.6269C105.568 28.6269 105.568 28.6271 105.568 28.6271C101.492 29.4109 97.3847 31.3096 93.2686 33.5969C91.9013 34.5863 90.53 35.5234 89.1514 36.3707C92.7876 34.7426 96.3937 33.4784 99.9307 33.0089C114.982 31.0131 135.919 43.7531 149.876 35.6704C152.006 34.4365 153.797 32.8201 155.335 30.9232C155.383 30.8643 155.423 30.7995 155.454 30.7306C155.603 30.4094 155.75 30.0871 155.897 29.7639C156.274 28.9328 154.782 27.8851 154.02 28.3874C140.977 36.9905 120.012 25.8492 105.568 28.6267C105.568 28.6267 105.568 28.6268 105.568 28.6269Z" fill="url(#paint8_radial_1721_77990)"/>
<path d="M173.315 -16.0599C173.315 -16.0597 173.315 -16.0595 173.315 -16.0594C171.124 -12.8191 169.656 -8.76737 168.436 -4.40312C168.172 -2.71186 167.864 -1.04929 167.483 0.558636C168.825 -3.02039 170.384 -6.30301 172.427 -8.97495C181.988 -21.4784 205.641 -27.4449 209.632 -42.4176C210.198 -44.5415 210.33 -46.7052 210.135 -48.8988C210.128 -48.9815 210.109 -49.063 210.081 -49.1411C209.88 -49.6943 209.675 -50.2483 209.467 -50.803C209.174 -51.5836 207.58 -51.3149 207.412 -50.4982C204.396 -35.7931 181.857 -28.6908 173.315 -16.0604C173.315 -16.0602 173.315 -16.06 173.315 -16.0599Z" fill="url(#paint9_radial_1721_77990)"/>
<path d="M163.514 13.4569C163.254 13.9957 163.02 14.5476 162.839 15.1175C162.329 16.7168 161.797 18.2976 161.224 19.8374C162.396 17.5123 163.335 14.9612 164.147 12.2969C164.164 12.2411 164.088 12.2081 164.059 12.2588C163.885 12.6645 163.703 13.0641 163.514 13.4569Z" fill="url(#paint10_radial_1721_77990)"/>
<path d="M77.0544 42.6908C76.4639 42.8903 75.8832 43.1194 75.3279 43.4024C73.8302 44.1656 72.3358 44.8988 70.8471 45.5719C73.4044 44.7557 75.9741 43.5727 78.5511 42.2025C78.5833 42.1853 78.5644 42.1369 78.5291 42.1463C78.0377 42.3426 77.5463 42.5246 77.0544 42.6908Z" fill="url(#paint11_radial_1721_77990)"/>
<path d="M65.417 46.6914C65.4173 46.6913 65.4177 46.6912 65.4181 46.6911C66.1584 46.6314 66.9009 46.5296 67.644 46.3902C67.7028 46.3792 67.7601 46.3614 67.8148 46.3374C69.8911 45.4286 71.9761 44.4657 74.0597 43.5174C74.071 43.5122 74.0655 43.4952 74.0533 43.4976C71.1961 44.4539 68.3065 45.5705 65.417 46.6914Z" fill="url(#paint12_radial_1721_77990)"/>
<path d="M159.112 22.4369C158.956 22.7921 159.359 23.0276 159.573 22.7041C159.586 22.6842 159.597 22.6627 159.606 22.6405C160.42 20.5296 161.198 18.3821 161.98 16.254C161.986 16.2375 161.962 16.2255 161.952 16.2402C160.97 18.2386 160.036 20.3234 159.112 22.4369Z" fill="url(#paint13_radial_1721_77990)"/>
<path d="M84.347 38.8855C84.3017 38.9126 84.2563 38.9398 84.211 38.967C84.0651 39.0543 84.1792 39.295 84.3398 39.2391C84.3483 39.2361 84.3565 39.2324 84.3643 39.2278C85.2401 38.7152 86.1149 38.1758 86.99 37.617C86.1129 38.0871 85.2324 38.5128 84.3476 38.8852L84.347 38.8855Z" fill="url(#paint14_radial_1721_77990)"/>
<path d="M2.65524 4.51347C2.65529 4.51345 2.65534 4.51345 2.65538 4.51347C3.04026 4.6866 3.42119 4.86226 3.79788 5.04061C3.96415 5.11933 4.13722 5.18292 4.3155 5.22828C5.29856 5.47836 6.29816 5.70886 7.30743 5.92513C6.33441 5.64127 5.38645 5.32395 4.47103 4.96429C3.86462 4.8163 3.25935 4.66656 2.65527 4.51379C2.65511 4.51375 2.65509 4.51354 2.65524 4.51347Z" fill="url(#paint15_radial_1721_77990)"/>
<path d="M165.513 7.33487C165.513 7.33482 165.513 7.33477 165.513 7.33473C165.686 6.94985 165.862 6.56892 166.04 6.19222C166.119 6.02595 166.182 5.85288 166.228 5.6746C166.478 4.69154 166.708 3.69196 166.925 2.68269C166.641 3.65571 166.323 4.60366 165.964 5.51908C165.816 6.12549 165.666 6.73076 165.513 7.33484C165.513 7.335 165.513 7.33501 165.513 7.33487Z" fill="url(#paint16_radial_1721_77990)"/>
<path d="M164.517 9.64689C164.517 9.6468 164.517 9.64681 164.517 9.6469C164.267 10.4745 164.018 11.3042 163.765 12.1329C163.713 12.3051 163.969 12.414 164.059 12.2581C164.181 11.9734 164.3 11.6853 164.416 11.3946C164.613 10.7198 164.803 10.0387 164.987 9.35312C165.045 9.13763 164.769 9.04255 164.683 9.24838C164.628 9.38089 164.573 9.51373 164.518 9.64689C164.517 9.64698 164.517 9.64698 164.517 9.64689Z" fill="url(#paint17_radial_1721_77990)"/>
<path d="M0.342707 3.51753C0.342804 3.51749 0.342796 3.51735 0.342695 3.51732C-0.484942 3.2676 -1.31463 3.01778 -2.14326 2.76554C-2.31544 2.71312 -2.42443 2.96899 -2.26845 3.0588C-1.98383 3.18108 -1.69567 3.29995 -1.40501 3.41585C-0.730278 3.6128 -0.0492693 3.8027 0.636253 3.98711C0.851764 4.04508 0.946785 3.76972 0.740941 3.6835C0.608539 3.62804 0.47579 3.57279 0.342709 3.51774C0.342617 3.5177 0.342615 3.51757 0.342707 3.51753Z" fill="url(#paint18_radial_1721_77990)"/>
<path d="M80.4635 40.7152C79.7738 41.0798 79.084 41.4452 78.3944 41.8085C78.2145 41.9033 78.3317 42.1982 78.5283 42.1463C78.7093 42.0743 78.8899 41.9998 79.0704 41.9236C79.5898 41.6426 80.1095 41.3545 80.6294 41.0607C80.8666 40.9266 80.7152 40.6122 80.463 40.7154L80.4635 40.7152Z" fill="url(#paint19_radial_1721_77990)"/>
<path d="M74.2443 43.4326C74.2442 43.4328 74.244 43.433 74.2438 43.4331C74.2424 43.4337 74.241 43.4343 74.2396 43.435C74.2265 43.4409 74.2328 43.4604 74.2469 43.4575C74.8834 43.3263 75.5195 43.1647 76.1549 42.9753C76.1594 42.9739 76.1638 42.9722 76.1679 42.97C76.2491 42.9281 76.2007 42.8084 76.1133 42.8352C75.4922 43.0253 74.8693 43.2248 74.2448 43.432C74.2446 43.4321 74.2444 43.4323 74.2443 43.4326Z" fill="url(#paint20_radial_1721_77990)"/>
<path d="M162.079 15.9838C162.079 15.9839 162.079 15.9841 162.079 15.9843C162.078 15.9861 162.078 15.988 162.077 15.9898C162.071 16.0073 162.095 16.0195 162.105 16.0038C162.461 15.4435 162.794 14.863 163.107 14.2656C163.109 14.262 163.11 14.2582 163.112 14.2542C163.137 14.1738 163.028 14.1281 162.989 14.2027C162.68 14.7871 162.377 15.3812 162.079 15.9832C162.079 15.9834 162.079 15.9836 162.079 15.9838Z" fill="url(#paint21_radial_1721_77990)"/>
<path d="M75.5001 40.4903C75.5002 40.4904 75.5001 40.4905 75.5 40.4905C61.5091 39.2846 52.4622 19.1138 39.7986 12.5492C35.227 10.1791 29.3175 9.31486 23.2188 8.57465C21.8715 8.46473 20.5365 8.33253 19.2246 8.16211C24.3512 9.16872 29.1898 10.4137 33.0062 12.6825C45.6891 20.224 53.8195 41.5992 68.1958 43.686C70.1569 43.971 72.1087 43.8776 74.0537 43.4958C74.1173 43.4745 74.1804 43.4535 74.2441 43.4322C76.3226 42.4872 78.3992 41.5581 80.4639 40.7132C80.6789 40.5995 80.4939 40.1345 80.2557 40.1839C78.6892 40.5092 77.1056 40.6282 75.5003 40.49C75.5002 40.49 75.5001 40.4901 75.5001 40.4903Z" fill="url(#paint22_radial_1721_77990)"/>
<path d="M160.45 13.5853C160.45 13.5851 160.45 13.5851 160.449 13.5852C149.265 22.9947 128.575 14.9197 115.456 19.0696C110.304 20.6991 105.33 24.3411 100.377 28.1716C99.3537 29.0329 98.3271 29.8697 97.2945 30.6621C101.756 27.7098 106.23 25.1128 110.748 23.9681C124.546 20.4716 145.428 30.0555 157.545 21.0101C159.316 19.6884 160.758 18.0734 161.953 16.2417C161.995 16.1557 162.038 16.0701 162.08 15.9847C162.872 13.8316 163.67 11.7003 164.518 9.64872C164.781 8.777 165.045 7.90685 165.312 7.04307C164.133 9.56877 162.573 11.7994 160.45 13.5853C160.45 13.5854 160.45 13.5854 160.45 13.5853Z" fill="url(#paint23_radial_1721_77990)"/>
<path d="M-3.5946 -0.550417C-3.59434 -0.550531 -3.59426 -0.550871 -3.59445 -0.551091C-13.0037 -11.736 -4.9288 -32.4257 -9.07872 -45.5447C-10.7082 -50.6966 -14.3502 -55.6705 -18.1807 -60.6231C-19.0419 -61.6466 -19.8788 -62.6732 -20.6712 -63.7058C-17.7189 -59.2446 -15.1219 -54.7701 -13.9772 -50.2521C-10.4807 -36.4539 -20.0646 -15.5722 -11.0197 -3.4552C-9.69796 -1.68419 -8.08297 -0.242317 -6.25129 0.953185C-6.16534 0.995088 -6.07969 1.03775 -5.99426 1.07988C-3.84123 1.87193 -1.70995 2.67026 0.341682 3.51813C1.2134 3.78119 2.08353 4.04493 2.94732 4.31141C0.421705 3.13268 -1.80884 1.57258 -3.59476 -0.54975C-3.59494 -0.549969 -3.59486 -0.550303 -3.5946 -0.550417Z" fill="url(#paint24_radial_1721_77990)"/>
<path d="M7.30737 5.92383C8.00304 6.12684 8.71158 6.31173 9.43149 6.48227C9.42061 6.47819 9.40974 6.4741 9.39886 6.47002C8.93513 6.29602 8.45683 6.1645 7.97188 6.06381C7.74985 6.01771 7.5283 5.97105 7.30737 5.92383Z" fill="url(#paint25_radial_1721_77990)"/>
<path d="M86.9894 37.6169C86.9895 37.6171 86.9897 37.6171 86.9898 37.6171C87.7128 37.2294 88.433 36.8121 89.1515 36.3705C88.9218 36.4731 88.6924 36.5774 88.4627 36.683C88.3834 36.7194 88.307 36.7619 88.2341 36.8098C87.8192 37.0823 87.4045 37.3515 86.9895 37.6165C86.9894 37.6166 86.9893 37.6168 86.9894 37.6169Z" fill="url(#paint26_radial_1721_77990)"/>
<path d="M166.925 2.68293C167.128 1.98727 167.312 1.2787 167.483 0.558794C167.479 0.569673 167.475 0.580553 167.471 0.591437C167.297 1.05516 167.165 1.53347 167.065 2.01842C167.018 2.24045 166.972 2.462 166.925 2.68293Z" fill="url(#paint27_radial_1721_77990)"/>
<path d="M12.5706 6.94531C13.1829 7.10528 13.7912 7.26889 14.3933 7.43707C15.112 7.54974 15.8358 7.65391 16.5628 7.75361C15.6779 7.59359 14.8091 7.40837 13.96 7.19457C13.4974 7.11181 13.0344 7.02928 12.5721 6.94576C12.5716 6.94566 12.5711 6.94551 12.5706 6.94531Z" fill="url(#paint28_radial_1721_77990)"/>
<path d="M91.5805 34.554C91.5805 34.5539 91.5805 34.5537 91.5806 34.5536C92.1436 34.2283 92.7062 33.9082 93.2692 33.596C93.778 33.2282 94.2865 32.8524 94.7944 32.4724C94.0571 32.9724 93.3161 33.442 92.5694 33.8751C92.2401 34.1018 91.9107 34.3285 91.5809 34.5541C91.5808 34.5542 91.5806 34.5542 91.5805 34.554Z" fill="url(#paint29_radial_1721_77990)"/>
<path d="M166.961 1.99539C167.127 1.52521 167.263 1.04492 167.359 0.555595C167.562 -0.484742 167.756 -1.53176 167.945 -2.5795C167.43 -0.608604 166.951 1.40943 166.467 3.43234C166.629 2.94948 166.794 2.47034 166.961 1.99539Z" fill="url(#paint30_radial_1721_77990)"/>
<path d="M87.6638 37.0547C88.1155 36.8415 88.5533 36.5998 88.9689 36.3229C89.8395 35.7429 90.7096 35.1505 91.5799 34.5538C89.8062 35.5791 88.031 36.6578 86.2571 37.7321C86.7265 37.5019 87.1954 37.2758 87.6638 37.0547Z" fill="url(#paint31_radial_1721_77990)"/>
<path d="M7.99556 5.96107C8.46574 6.12697 8.94603 6.26332 9.43535 6.35899C10.4757 6.5624 11.5227 6.75556 12.5705 6.9447C10.5996 6.4298 8.58151 5.95101 6.55859 5.4668C7.04145 5.62892 7.5206 5.79347 7.99556 5.96107Z" fill="url(#paint32_radial_1721_77990)"/>
<path d="M84.3471 38.8848C84.9836 38.5031 85.6204 38.1175 86.2572 37.732C85.5971 38.0557 84.9366 38.3876 84.2758 38.7252C84.1466 38.7912 84.2134 38.9411 84.3471 38.8848Z" fill="url(#paint33_radial_1721_77990)"/>
<path d="M165.963 5.52032C166.133 4.82516 166.3 4.12877 166.467 3.4324C166.069 4.61724 165.686 5.82404 165.311 7.04284C165.542 6.54643 165.76 6.03842 165.963 5.52032Z" fill="url(#paint34_radial_1721_77990)"/>
<path d="M4.47076 4.96304C5.16593 5.13299 5.8623 5.29993 6.55866 5.46685C5.37383 5.06937 4.16704 4.68642 2.94824 4.31055C3.44465 4.54206 3.95266 4.75975 4.47076 4.96304Z" fill="url(#paint35_radial_1721_77990)"/>
<path d="M16.5627 7.75236C16.5627 7.75244 16.5628 7.75249 16.5629 7.75251C17.4362 7.9106 18.3247 8.04578 19.2246 8.16225C18.8993 8.09837 18.5725 8.0352 18.2448 7.973C17.6829 7.90176 17.1222 7.82878 16.5629 7.75201C16.5627 7.75199 16.5626 7.75218 16.5627 7.75236Z" fill="url(#paint36_radial_1721_77990)"/>
<path d="M94.7944 32.471C94.7944 32.4709 94.7944 32.4707 94.7945 32.4706C95.6328 31.9024 96.465 31.2955 97.2938 30.6604C96.982 30.867 96.6701 31.0748 96.3589 31.2842C95.8376 31.6838 95.3167 32.0801 94.7949 32.4711C94.7947 32.4712 94.7945 32.4712 94.7944 32.471Z" fill="url(#paint37_radial_1721_77990)"/>
<path d="M172.935 -36.4029C172.935 -36.4028 172.935 -36.4028 172.935 -36.4029C178.552 -48.9776 197.486 -58.8303 197.863 -72.3833C197.962 -75.9371 196.772 -79.3079 194.875 -82.5789C194.006 -83.8415 193.135 -85.1043 192.285 -86.3685C191.258 -87.7086 190.207 -89.0465 189.171 -90.3868C183.836 -96.7248 177.55 -102.936 174.972 -109.693C170.236 -122.105 176.857 -142.502 167.159 -152.754C164.485 -155.58 160.972 -157.211 157.031 -158.204C155.595 -158.461 154.162 -158.715 152.746 -158.984C151.09 -159.194 149.424 -159.385 147.773 -159.585C139.564 -160.257 130.915 -160.124 124.599 -162.945C112.024 -168.562 102.171 -187.496 88.6182 -187.873C85.0643 -187.972 81.6935 -186.782 78.4226 -184.884C77.1599 -184.016 75.8971 -183.144 74.633 -182.295C73.2929 -181.267 71.9549 -180.217 70.6146 -179.181C64.2766 -173.846 58.0652 -167.56 51.3086 -164.981C38.8966 -160.245 18.4998 -166.867 8.24774 -157.169C5.42095 -154.495 3.79 -150.982 2.79742 -147.041C2.54091 -145.605 2.28612 -144.171 2.01735 -142.756C1.8078 -141.099 1.61635 -139.434 1.41609 -137.782C0.744813 -129.574 0.877661 -120.924 -1.9435 -114.609C-7.56023 -102.034 -26.4946 -92.181 -26.8715 -78.6279C-26.9704 -75.074 -25.7805 -71.7033 -23.8829 -68.4323C-23.0142 -67.1697 -22.1429 -65.9069 -21.2936 -64.6427C-20.2658 -63.3026 -19.2157 -61.9647 -18.1796 -60.6244C-12.8445 -54.2864 -6.55848 -48.075 -3.98002 -41.3184C0.75606 -28.9063 -5.86573 -8.50951 3.83221 1.74253C6.50635 4.56932 10.0196 6.20027 13.9604 7.19285C15.3969 7.44936 16.8301 7.70415 18.2455 7.97293C19.9021 8.18248 21.5672 8.37392 23.2192 8.57419C31.4279 9.24547 40.0771 9.11262 46.3929 11.9338C58.9677 17.5505 68.8204 36.4849 82.3735 36.8617C85.9274 36.9607 89.2982 35.7708 92.5691 33.8732C93.8318 33.0045 95.0946 32.1332 96.3588 31.2839C97.6988 30.2561 99.0368 29.206 100.377 28.1699C106.715 22.8348 112.926 16.5488 119.683 13.9703C132.095 9.23422 152.492 15.856 162.744 6.15808C165.571 3.48394 167.202 -0.0293423 168.194 -3.97009C168.451 -5.40657 168.706 -6.83981 168.974 -8.25522C169.184 -9.91185 169.375 -11.577 169.576 -13.2289C170.247 -21.4375 170.114 -30.0865 172.935 -36.4029C172.935 -36.403 172.935 -36.403 172.935 -36.4029ZM164.438 -1.22308C155.112 8.68724 135.106 3.45659 123.423 8.71211C111.312 14.16 101.859 32.4435 88.7906 32.8405C75.7226 33.2376 65.1759 15.563 52.756 10.8612C40.7753 6.32522 21.1239 12.7625 11.2136 3.43686C1.30328 -5.88881 6.53393 -25.895 1.2784 -37.578C-4.1695 -49.6894 -22.453 -59.1423 -22.85 -72.2103C-23.2471 -85.2783 -5.57248 -95.8251 -0.87065 -108.245C3.66528 -120.226 -2.77202 -139.877 6.55364 -149.787C15.8793 -159.698 35.8855 -154.467 47.5684 -159.723C59.6799 -165.17 69.1328 -183.454 82.2008 -183.851C95.2688 -184.248 105.816 -166.573 118.235 -161.872C130.216 -157.336 149.867 -163.773 159.778 -154.447C169.688 -145.122 164.457 -125.115 169.713 -113.432C175.161 -101.321 193.444 -91.8681 193.841 -78.8001C194.238 -65.7321 176.564 -55.1854 171.862 -42.7655C167.326 -30.7848 173.763 -11.1334 164.438 -1.22308Z" fill="url(#paint38_radial_1721_77990)"/>
<path d="M189.467 -84.7382C189.467 -84.7381 189.467 -84.7383 189.467 -84.7385C188.353 -97.2788 170.247 -105.342 164.332 -116.68C158.626 -127.617 162.534 -147.143 152.485 -155.552C142.435 -163.962 123.904 -156.674 112.132 -160.364C99.9294 -164.189 88.8009 -180.589 76.2604 -179.476C63.7198 -178.362 55.6561 -160.256 44.3184 -154.341C33.3812 -148.635 13.8559 -152.543 5.44621 -142.493C-2.964 -132.444 4.32429 -113.913 0.63474 -102.141C-3.19032 -89.9381 -19.5909 -78.8097 -18.4772 -66.2691C-17.3636 -53.7286 0.742277 -45.6648 6.65764 -34.3271C12.3639 -23.3899 8.45577 -3.86464 18.5051 4.54505C28.5547 12.9553 47.0855 5.66697 58.8572 9.35597C71.0601 13.181 82.1885 29.5816 94.7291 28.468C107.27 27.3543 115.333 9.24846 126.671 3.33308C137.608 -2.37313 157.134 1.53497 165.543 -8.51439C173.953 -18.564 166.665 -37.0948 170.354 -48.8664C174.179 -61.0692 190.579 -72.1976 189.466 -84.7379C189.466 -84.7381 189.466 -84.7383 189.467 -84.7382ZM166.08 -15.6752C158.569 -5.55851 139.608 -8.21894 129.428 -2.1295C118.876 4.18247 112.148 22.0133 100.172 23.7834C88.1964 25.5535 76.5977 10.4321 64.67 7.44293C53.1641 4.5593 35.7835 12.5916 25.6668 5.08064C15.5501 -2.43028 18.21 -21.3913 12.1211 -31.5708C5.80909 -42.1234 -12.0218 -48.8514 -13.7919 -60.8271C-15.562 -72.8028 -0.440579 -84.4015 2.54863 -96.3292C5.43226 -107.835 -2.6 -125.216 4.91092 -135.332C12.4218 -145.449 31.3829 -142.789 41.5623 -148.878C52.1149 -155.19 58.8429 -173.021 70.8186 -174.791C82.7943 -176.561 94.3931 -161.44 106.321 -158.451C117.827 -155.567 135.207 -163.599 145.324 -156.088C155.441 -148.577 152.78 -129.616 158.87 -119.437C165.182 -108.884 183.013 -102.156 184.783 -90.1806C186.553 -78.2049 171.431 -66.6061 168.442 -54.6784C165.558 -43.1725 173.591 -25.792 166.08 -15.6752Z" fill="url(#paint39_radial_1721_77990)"/>
<path d="M179.83 -95.1122C177.465 -106.491 160.001 -111.944 153.363 -121.704C146.959 -131.12 148.451 -149.44 138.336 -156.074C128.22 -162.708 112.012 -154.04 100.824 -156.161C89.2259 -158.36 77.2656 -172.205 65.8873 -169.84C54.5087 -167.475 49.0559 -150.011 39.2952 -143.372C29.8793 -136.969 11.5591 -138.46 4.92523 -128.345C-1.70866 -118.23 6.9596 -102.021 4.83805 -90.8333C2.63917 -79.2352 -11.2056 -67.275 -8.84023 -55.8967C-6.47536 -44.5181 10.9887 -39.0653 17.6271 -29.3046C24.0309 -19.8887 22.5396 -1.56852 32.6546 5.06538C42.7696 11.6993 58.9783 3.03101 70.1662 5.15255C81.7643 7.35144 93.7245 21.1962 105.103 18.8308C116.481 16.466 121.934 -0.998046 131.695 -7.63652C141.111 -14.0403 159.431 -12.549 166.065 -22.664C172.699 -32.779 164.031 -48.9877 166.152 -60.1755C168.351 -71.7737 182.196 -83.7339 179.83 -95.1122ZM165.521 -29.4413C159.738 -19.3945 142.128 -19.8001 133.476 -13.1488C124.508 -6.2537 120.264 10.758 109.511 13.6546C98.7566 16.5515 86.5425 3.9725 75.3244 2.51512C64.5028 1.10902 49.4788 10.3048 39.4322 4.52222C29.3855 -1.26038 29.791 -18.8706 23.1396 -27.5226C16.2445 -36.491 -0.767145 -40.7351 -3.66379 -51.4885C-6.56067 -62.2424 6.01834 -74.4565 7.47572 -85.6746C8.88183 -96.4962 -0.313975 -111.52 5.46863 -121.567C11.2518 -131.614 28.8615 -131.208 37.5135 -137.859C46.4819 -144.754 50.7259 -161.766 61.4793 -164.663C72.2332 -167.56 84.4473 -154.981 95.6654 -153.523C106.487 -152.117 121.511 -161.313 131.558 -155.53C141.605 -149.747 141.199 -132.138 147.85 -123.486C154.745 -114.517 171.757 -110.273 174.654 -99.5197C177.55 -88.7657 164.971 -76.5517 163.514 -65.3336C162.108 -54.5119 171.304 -39.4879 165.521 -29.4413Z" fill="url(#paint40_radial_1721_77990)"/>
<path d="M169.297 -103.396C165.933 -113.503 149.453 -116.609 142.37 -124.79C135.538 -132.681 134.946 -149.52 125.03 -154.484C115.115 -159.447 101.28 -149.83 90.8685 -150.571C80.0751 -151.339 67.712 -162.671 57.6043 -159.307C47.4967 -155.943 44.3906 -139.462 36.2098 -132.38C28.3187 -125.547 11.4798 -124.956 6.51635 -115.04C1.55287 -105.124 11.1699 -91.2899 10.429 -80.8781C9.66112 -70.0847 -1.6711 -57.7216 1.69317 -47.6139C5.05744 -37.5062 21.5376 -34.4002 28.6203 -26.2194C35.4528 -18.3283 36.045 -1.48962 45.96 3.47409C55.8755 8.43757 69.71 -1.17946 80.1219 -0.438555C90.9153 0.329324 103.278 11.6615 113.386 8.29727C123.494 4.933 126.6 -11.5471 134.781 -18.6299C142.672 -25.4623 159.51 -26.0545 164.474 -35.9695C169.438 -45.8851 159.821 -59.7196 160.561 -70.1315C161.329 -80.9249 172.662 -93.288 169.297 -103.396ZM157.326 -74.5506C157.198 -64.5875 167.13 -51.9377 162.951 -42.2135C158.771 -32.4893 142.759 -30.9906 135.617 -24.042C128.214 -16.8384 126.17 -0.961449 116.724 2.80555C107.279 6.57254 94.8689 -3.54027 84.5409 -3.67265C74.5778 -3.80041 61.928 6.13127 52.2039 1.95204C42.4797 -2.22718 40.981 -18.2402 34.0324 -25.3815C26.8287 -32.7842 10.9518 -34.8291 7.18482 -44.2746C3.41782 -53.72 13.5306 -66.1297 13.663 -76.4578C13.7908 -86.4208 3.85911 -99.0706 8.03833 -108.795C12.2176 -118.519 28.2305 -120.018 35.3719 -126.966C42.7746 -134.17 44.8195 -150.047 54.2649 -153.814C63.7104 -157.581 76.1201 -147.468 86.4481 -147.336C96.4112 -147.208 109.061 -157.14 118.785 -152.96C128.509 -148.781 130.008 -132.768 136.957 -125.627C144.16 -118.224 160.037 -116.179 163.804 -106.734C167.571 -97.2883 157.458 -84.8786 157.326 -74.5506Z" fill="url(#paint41_radial_1721_77990)"/>
<path d="M131.648 -126.01C124.646 -132.415 122.335 -147.556 112.858 -150.991C103.381 -154.426 91.9042 -144.283 82.4242 -143.853C72.5969 -143.407 60.2383 -152.335 51.4669 -148.231C42.6954 -144.126 41.6296 -128.917 34.9909 -121.659C28.5865 -114.657 13.4449 -112.345 10.0099 -102.868C6.57492 -93.3918 16.7184 -81.9149 17.1481 -72.4349C17.5938 -62.6076 8.66631 -50.2489 12.7706 -41.4775C16.8749 -32.7061 32.0837 -31.6403 39.3422 -25.0016C46.3441 -18.5972 48.656 -3.45554 58.1327 -0.0205692C67.6094 3.4144 79.0863 -6.72905 88.5663 -7.1588C98.3936 -7.60449 110.752 1.323 119.524 -2.78131C128.295 -6.88561 129.361 -22.0944 136 -29.3528C142.404 -36.3547 157.546 -38.6667 160.981 -48.1434C164.416 -57.6201 154.272 -69.097 153.842 -78.577C153.397 -88.4042 162.324 -100.763 158.22 -109.534C154.116 -118.306 138.907 -119.372 131.648 -126.01ZM150.146 -82.1936C151.077 -73.2271 161.331 -62.9026 158.597 -53.7253C155.862 -44.5481 141.63 -41.5192 135.943 -34.5244C130.047 -27.2738 129.877 -12.7911 121.785 -8.41395C113.693 -4.03681 101.479 -11.8208 92.1837 -10.8552C83.2172 -9.9238 72.8927 0.330424 63.7154 -2.40413C54.5382 -5.13871 51.5092 -19.371 44.5145 -25.0583C37.2639 -30.9539 22.7812 -31.1241 18.404 -39.2161C14.0269 -47.3081 21.8109 -59.5221 20.8452 -68.8172C19.9139 -77.7837 9.65966 -88.1082 12.3942 -97.2855C15.1288 -106.463 29.3611 -109.492 35.0484 -116.486C40.9439 -123.737 41.1142 -138.22 49.2062 -142.597C57.2981 -146.974 69.5121 -139.19 78.8072 -140.156C87.7737 -141.087 98.0983 -151.341 107.276 -148.607C116.453 -145.872 119.482 -131.64 126.476 -125.952C133.727 -120.057 148.21 -119.887 152.587 -111.795C156.964 -103.703 149.18 -91.4887 150.146 -82.1936Z" fill="url(#paint42_radial_1721_77990)"/>
<path d="M121.475 -125.473C114.546 -130.466 110.898 -143.759 102.067 -145.84C93.2374 -147.921 84.0377 -137.654 75.6085 -136.279C66.8708 -134.854 54.8904 -141.543 47.4783 -136.957C40.066 -132.372 40.7029 -118.666 35.5265 -111.483C30.5332 -104.554 17.2397 -100.906 15.1591 -92.0759C13.0785 -83.2459 23.345 -74.0461 24.7199 -65.617C26.145 -56.8792 19.456 -44.8988 24.0417 -37.4867C28.6269 -30.0744 42.3332 -30.7113 49.5161 -25.5349C56.4446 -20.5416 60.0931 -7.24808 68.9231 -5.16752C77.7532 -3.08696 86.953 -13.3534 95.3821 -14.7284C104.12 -16.1534 116.1 -9.46438 123.512 -14.0501C130.925 -18.6353 130.288 -32.3416 135.464 -39.5245C140.457 -46.453 153.751 -50.1015 155.832 -58.9316C157.912 -67.7617 147.646 -76.9614 146.271 -85.3905C144.846 -94.1282 151.535 -106.109 146.949 -113.521C142.363 -120.933 128.657 -120.296 121.475 -125.473ZM142.253 -88.1626C144.012 -80.2909 154.197 -72.1811 152.721 -63.7412C151.244 -55.3013 138.911 -51.1315 134.583 -44.325C130.097 -37.2689 131.45 -24.3812 124.713 -19.6507C117.976 -14.9203 106.313 -20.5689 98.1537 -18.7455C90.2819 -16.9865 82.1721 -6.80134 73.7323 -8.2779C65.2924 -9.75448 61.1226 -22.0883 54.3161 -26.4156C47.26 -30.9016 34.3723 -29.5485 29.6417 -36.2857C24.9114 -43.0224 30.5599 -54.6855 28.7365 -62.8452C26.9775 -70.7169 16.7924 -78.8267 18.269 -87.2666C19.7455 -95.7065 32.0794 -99.8763 36.4066 -106.683C40.8926 -113.739 39.5396 -126.627 46.2768 -131.357C53.0135 -136.087 64.6766 -130.439 72.8362 -132.262C80.7079 -134.021 88.8178 -144.206 97.2576 -142.73C105.698 -141.253 109.867 -128.919 116.674 -124.592C123.73 -120.106 136.618 -121.459 141.348 -114.722C146.079 -107.985 140.43 -96.3223 142.253 -88.1626Z" fill="url(#paint43_radial_1721_77990)"/>
<path d="M112.104 -123.333C105.472 -127.026 100.879 -138.386 92.8681 -139.312C84.8574 -140.238 77.7948 -130.224 70.4949 -128.141C62.9275 -125.981 51.66 -130.65 45.5895 -125.837C39.5184 -121.024 41.4951 -108.989 37.666 -102.114C33.9727 -95.4816 22.6127 -90.8883 21.6867 -82.8777C20.7608 -74.8671 30.7745 -67.8044 32.858 -60.5045C35.0183 -52.9371 30.3486 -41.6701 35.1618 -35.5991C39.9751 -29.528 52.0101 -31.5047 58.8854 -27.6756C65.5173 -23.9823 70.1106 -12.6223 78.1213 -11.6964C86.1319 -10.7705 93.1945 -20.7841 100.494 -22.8676C108.062 -25.0279 119.329 -20.3584 125.4 -25.1714C131.471 -29.9847 129.494 -42.0197 133.323 -48.895C137.017 -55.5269 148.377 -60.1202 149.303 -68.1309C150.228 -76.1415 140.215 -83.2041 138.131 -90.504C135.971 -98.0714 140.641 -109.339 135.828 -115.409C131.014 -121.481 118.979 -119.504 112.104 -123.333ZM133.94 -92.4124C136.288 -85.694 146.045 -79.6296 145.615 -72.0825C145.186 -64.5348 134.804 -59.6171 131.709 -53.2084C128.5 -46.5653 131.006 -35.4092 125.587 -30.5734C120.167 -25.7377 109.367 -29.4934 102.403 -27.0598C95.6845 -24.712 89.6201 -14.9553 82.0729 -15.3849C74.5253 -15.8143 69.6075 -26.1963 63.1989 -29.2912C56.5558 -32.5 45.3996 -29.9941 40.5639 -35.4137C35.7281 -40.8333 39.4838 -51.633 37.0503 -58.5974C34.7025 -65.3157 24.9457 -71.3802 25.3754 -78.9273C25.8047 -86.475 36.1867 -91.3927 39.2817 -97.8013C42.4904 -104.444 39.9845 -115.601 45.4042 -120.436C50.8238 -125.272 61.6235 -121.516 68.5879 -123.95C75.3062 -126.298 81.3706 -136.055 88.9178 -135.625C96.4654 -135.195 101.383 -124.814 107.792 -121.719C114.435 -118.51 125.591 -121.016 130.427 -115.596C135.263 -110.176 131.507 -99.3767 133.94 -92.4124Z" fill="url(#paint44_radial_1721_77990)"/>
<defs>
<radialGradient id="paint0_radial_1721_77990" cx="0" cy="0" r="1" gradientUnits="userSpaceOnUse" gradientTransform="translate(136.254 24.8604) rotate(-39.1963) scale(132.982 41.2373)">
<stop stop-color="#FFB6D5"/>
<stop offset="0.1" stop-color="#FFE3C0"/>
<stop offset="0.29" stop-color="#C7FBDB"/>
<stop offset="0.43" stop-color="#C7CDF4"/>
<stop offset="0.54" stop-color="#FFBCD4"/>
<stop offset="0.66" stop-color="#FFE0C3"/>
<stop offset="0.76" stop-color="#B0F1D4"/>
<stop offset="0.84" stop-color="#C9CEEC"/>
<stop offset="0.91" stop-color="#FFC1DA"/>
<stop offset="1" stop-color="#BDFFE3"/>
</radialGradient>
<radialGradient id="paint1_radial_1721_77990" cx="0" cy="0" r="1" gradientUnits="userSpaceOnUse" gradientTransform="translate(205.72 -32.5939) rotate(-40.322) scale(125.071 41.2331)">
<stop stop-color="#FFB6D5"/>
<stop offset="0.1" stop-color="#FFE3C0"/>
<stop offset="0.29" stop-color="#C7FBDB"/>
<stop offset="0.43" stop-color="#C7CDF4"/>
<stop offset="0.54" stop-color="#FFBCD4"/>
<stop offset="0.66" stop-color="#FFE0C3"/>
<stop offset="0.76" stop-color="#B0F1D4"/>
<stop offset="0.84" stop-color="#C9CEEC"/>
<stop offset="0.91" stop-color="#FFC1DA"/>
<stop offset="1" stop-color="#BDFFE3"/>
</radialGradient>
<radialGradient id="paint2_radial_1721_77990" cx="0" cy="0" r="1" gradientUnits="userSpaceOnUse" gradientTransform="translate(28.9738 6.71419) rotate(-75.7874) scale(94.8954 54.3446)">
<stop stop-color="#FFB6D5"/>
<stop offset="0.1" stop-color="#FFE3C0"/>
<stop offset="0.29" stop-color="#C7FBDB"/>
<stop offset="0.43" stop-color="#C7CDF4"/>
<stop offset="0.54" stop-color="#FFBCD4"/>
<stop offset="0.66" stop-color="#FFE0C3"/>
<stop offset="0.76" stop-color="#B0F1D4"/>
<stop offset="0.84" stop-color="#C9CEEC"/>
<stop offset="0.91" stop-color="#FFC1DA"/>
<stop offset="1" stop-color="#BDFFE3"/>
</radialGradient>
<radialGradient id="paint3_radial_1721_77990" cx="0" cy="0" r="1" gradientUnits="userSpaceOnUse" gradientTransform="translate(60.6212 48.2025) rotate(-28.6785) scale(16.5974 1.79796)">
<stop stop-color="#FFB6D5"/>
<stop offset="0.1" stop-color="#FFE3C0"/>
<stop offset="0.29" stop-color="#C7FBDB"/>
<stop offset="0.43" stop-color="#C7CDF4"/>
<stop offset="0.54" stop-color="#FFBCD4"/>
<stop offset="0.66" stop-color="#FFE0C3"/>
<stop offset="0.76" stop-color="#B0F1D4"/>
<stop offset="0.84" stop-color="#C9CEEC"/>
<stop offset="0.91" stop-color="#FFC1DA"/>
<stop offset="1" stop-color="#BDFFE3"/>
</radialGradient>
<radialGradient id="paint4_radial_1721_77990" cx="0" cy="0" r="1" gradientUnits="userSpaceOnUse" gradientTransform="translate(156.841 29.6949) rotate(-48.7261) scale(14.7937 6.77336)">
<stop stop-color="#FFB6D5"/>
<stop offset="0.1" stop-color="#FFE3C0"/>
<stop offset="0.29" stop-color="#C7FBDB"/>
<stop offset="0.43" stop-color="#C7CDF4"/>
<stop offset="0.54" stop-color="#FFBCD4"/>
<stop offset="0.66" stop-color="#FFE0C3"/>
<stop offset="0.76" stop-color="#B0F1D4"/>
<stop offset="0.84" stop-color="#C9CEEC"/>
<stop offset="0.91" stop-color="#FFC1DA"/>
<stop offset="1" stop-color="#BDFFE3"/>
</radialGradient>
<radialGradient id="paint5_radial_1721_77990" cx="0" cy="0" r="1" gradientUnits="userSpaceOnUse" gradientTransform="translate(160.829 21.5442) rotate(-52.3723) scale(14.1749 7.11339)">
<stop stop-color="#FFB6D5"/>
<stop offset="0.1" stop-color="#FFE3C0"/>
<stop offset="0.29" stop-color="#C7FBDB"/>
<stop offset="0.43" stop-color="#C7CDF4"/>
<stop offset="0.54" stop-color="#FFBCD4"/>
<stop offset="0.66" stop-color="#FFE0C3"/>
<stop offset="0.76" stop-color="#B0F1D4"/>
<stop offset="0.84" stop-color="#C9CEEC"/>
<stop offset="0.91" stop-color="#FFC1DA"/>
<stop offset="1" stop-color="#BDFFE3"/>
</radialGradient>
<radialGradient id="paint6_radial_1721_77990" cx="0" cy="0" r="1" gradientUnits="userSpaceOnUse" gradientTransform="translate(69.3895 45.6819) rotate(-25.9422) scale(16.4658 0.861286)">
<stop stop-color="#FFB6D5"/>
<stop offset="0.1" stop-color="#FFE3C0"/>
<stop offset="0.29" stop-color="#C7FBDB"/>
<stop offset="0.43" stop-color="#C7CDF4"/>
<stop offset="0.54" stop-color="#FFBCD4"/>
<stop offset="0.66" stop-color="#FFE0C3"/>
<stop offset="0.76" stop-color="#B0F1D4"/>
<stop offset="0.84" stop-color="#C9CEEC"/>
<stop offset="0.91" stop-color="#FFC1DA"/>
<stop offset="1" stop-color="#BDFFE3"/>
</radialGradient>
<radialGradient id="paint7_radial_1721_77990" cx="0" cy="0" r="1" gradientUnits="userSpaceOnUse" gradientTransform="translate(42.4725 7.30343) rotate(-69.7858) scale(93.3692 55.2308)">
<stop stop-color="#FFB6D5"/>
<stop offset="0.1" stop-color="#FFE3C0"/>
<stop offset="0.29" stop-color="#C7FBDB"/>
<stop offset="0.43" stop-color="#C7CDF4"/>
<stop offset="0.54" stop-color="#FFBCD4"/>
<stop offset="0.66" stop-color="#FFE0C3"/>
<stop offset="0.76" stop-color="#B0F1D4"/>
<stop offset="0.84" stop-color="#C9CEEC"/>
<stop offset="0.91" stop-color="#FFC1DA"/>
<stop offset="1" stop-color="#BDFFE3"/>
</radialGradient>
<radialGradient id="paint8_radial_1721_77990" cx="0" cy="0" r="1" gradientUnits="userSpaceOnUse" gradientTransform="translate(143.835 17.6822) rotate(-36.3461) scale(126.936 32.8066)">
<stop stop-color="#FFB6D5"/>
<stop offset="0.1" stop-color="#FFE3C0"/>
<stop offset="0.29" stop-color="#C7FBDB"/>
<stop offset="0.43" stop-color="#C7CDF4"/>
<stop offset="0.54" stop-color="#FFBCD4"/>
<stop offset="0.66" stop-color="#FFE0C3"/>
<stop offset="0.76" stop-color="#B0F1D4"/>
<stop offset="0.84" stop-color="#C9CEEC"/>
<stop offset="0.91" stop-color="#FFC1DA"/>
<stop offset="1" stop-color="#BDFFE3"/>
</radialGradient>
<radialGradient id="paint9_radial_1721_77990" cx="0" cy="0" r="1" gradientUnits="userSpaceOnUse" gradientTransform="translate(202.7 -44.2126) rotate(-44.0161) scale(114.96 44.8578)">
<stop stop-color="#FFB6D5"/>
<stop offset="0.1" stop-color="#FFE3C0"/>
<stop offset="0.29" stop-color="#C7FBDB"/>
<stop offset="0.43" stop-color="#C7CDF4"/>
<stop offset="0.54" stop-color="#FFBCD4"/>
<stop offset="0.66" stop-color="#FFE0C3"/>
<stop offset="0.76" stop-color="#B0F1D4"/>
<stop offset="0.84" stop-color="#C9CEEC"/>
<stop offset="0.91" stop-color="#FFC1DA"/>
<stop offset="1" stop-color="#BDFFE3"/>
</radialGradient>
<radialGradient id="paint10_radial_1721_77990" cx="0" cy="0" r="1" gradientUnits="userSpaceOnUse" gradientTransform="translate(163.999 13.5713) rotate(-56.1048) scale(12.8499 6.91876)">
<stop stop-color="#FFB6D5"/>
<stop offset="0.1" stop-color="#FFE3C0"/>
<stop offset="0.29" stop-color="#C7FBDB"/>
<stop offset="0.43" stop-color="#C7CDF4"/>
<stop offset="0.54" stop-color="#FFBCD4"/>
<stop offset="0.66" stop-color="#FFE0C3"/>
<stop offset="0.76" stop-color="#B0F1D4"/>
<stop offset="0.84" stop-color="#C9CEEC"/>
<stop offset="0.91" stop-color="#FFC1DA"/>
<stop offset="1" stop-color="#BDFFE3"/>
</radialGradient>
<radialGradient id="paint11_radial_1721_77990" cx="0" cy="0" r="1" gradientUnits="userSpaceOnUse" gradientTransform="translate(77.5178 42.5016) rotate(-25.2592) scale(15.7744 0.603062)">
<stop stop-color="#FFB6D5"/>
<stop offset="0.1" stop-color="#FFE3C0"/>
<stop offset="0.29" stop-color="#C7FBDB"/>
<stop offset="0.43" stop-color="#C7CDF4"/>
<stop offset="0.54" stop-color="#FFBCD4"/>
<stop offset="0.66" stop-color="#FFE0C3"/>
<stop offset="0.76" stop-color="#B0F1D4"/>
<stop offset="0.84" stop-color="#C9CEEC"/>
<stop offset="0.91" stop-color="#FFC1DA"/>
<stop offset="1" stop-color="#BDFFE3"/>
</radialGradient>
<radialGradient id="paint12_radial_1721_77990" cx="0" cy="0" r="1" gradientUnits="userSpaceOnUse" gradientTransform="translate(72.6931 43.7021) rotate(-25.8421) scale(16.9053 0.849415)">
<stop stop-color="#FFB6D5"/>
<stop offset="0.1" stop-color="#FFE3C0"/>
<stop offset="0.29" stop-color="#C7FBDB"/>
<stop offset="0.43" stop-color="#C7CDF4"/>
<stop offset="0.54" stop-color="#FFBCD4"/>
<stop offset="0.66" stop-color="#FFE0C3"/>
<stop offset="0.76" stop-color="#B0F1D4"/>
<stop offset="0.84" stop-color="#C9CEEC"/>
<stop offset="0.91" stop-color="#FFC1DA"/>
<stop offset="1" stop-color="#BDFFE3"/>
</radialGradient>
<radialGradient id="paint13_radial_1721_77990" cx="0" cy="0" r="1" gradientUnits="userSpaceOnUse" gradientTransform="translate(161.64 17.8952) rotate(-53.0082) scale(14.4877 7.36967)">
<stop stop-color="#FFB6D5"/>
<stop offset="0.1" stop-color="#FFE3C0"/>
<stop offset="0.29" stop-color="#C7FBDB"/>
<stop offset="0.43" stop-color="#C7CDF4"/>
<stop offset="0.54" stop-color="#FFBCD4"/>
<stop offset="0.66" stop-color="#FFE0C3"/>
<stop offset="0.76" stop-color="#B0F1D4"/>
<stop offset="0.84" stop-color="#C9CEEC"/>
<stop offset="0.91" stop-color="#FFC1DA"/>
<stop offset="1" stop-color="#BDFFE3"/>
</radialGradient>
<radialGradient id="paint14_radial_1721_77990" cx="0" cy="0" r="1" gradientUnits="userSpaceOnUse" gradientTransform="translate(86.3765 37.9942) rotate(-26.7732) scale(8.50421 0.590155)">
<stop stop-color="#FFB6D5"/>
<stop offset="0.1" stop-color="#FFE3C0"/>
<stop offset="0.29" stop-color="#C7FBDB"/>
<stop offset="0.43" stop-color="#C7CDF4"/>
<stop offset="0.54" stop-color="#FFBCD4"/>
<stop offset="0.66" stop-color="#FFE0C3"/>
<stop offset="0.76" stop-color="#B0F1D4"/>
<stop offset="0.84" stop-color="#C9CEEC"/>
<stop offset="0.91" stop-color="#FFC1DA"/>
<stop offset="1" stop-color="#BDFFE3"/>
</radialGradient>
<radialGradient id="paint15_radial_1721_77990" cx="0" cy="0" r="1" gradientUnits="userSpaceOnUse" gradientTransform="translate(5.83159 3.94237) rotate(-51.4397) scale(7.64507 3.75624)">
<stop stop-color="#FFB6D5"/>
<stop offset="0.1" stop-color="#FFE3C0"/>
<stop offset="0.29" stop-color="#C7FBDB"/>
<stop offset="0.43" stop-color="#C7CDF4"/>
<stop offset="0.54" stop-color="#FFBCD4"/>
<stop offset="0.66" stop-color="#FFE0C3"/>
<stop offset="0.76" stop-color="#B0F1D4"/>
<stop offset="0.84" stop-color="#C9CEEC"/>
<stop offset="0.91" stop-color="#FFC1DA"/>
<stop offset="1" stop-color="#BDFFE3"/>
</radialGradient>
<radialGradient id="paint16_radial_1721_77990" cx="0" cy="0" r="1" gradientUnits="userSpaceOnUse" gradientTransform="translate(166.83 3.67232) rotate(-59.9496) scale(7.11924 4.03366)">
<stop stop-color="#FFB6D5"/>
<stop offset="0.1" stop-color="#FFE3C0"/>
<stop offset="0.29" stop-color="#C7FBDB"/>
<stop offset="0.43" stop-color="#C7CDF4"/>
<stop offset="0.54" stop-color="#FFBCD4"/>
<stop offset="0.66" stop-color="#FFE0C3"/>
<stop offset="0.76" stop-color="#B0F1D4"/>
<stop offset="0.84" stop-color="#C9CEEC"/>
<stop offset="0.91" stop-color="#FFC1DA"/>
<stop offset="1" stop-color="#BDFFE3"/>
</radialGradient>
<radialGradient id="paint17_radial_1721_77990" cx="0" cy="0" r="1" gradientUnits="userSpaceOnUse" gradientTransform="translate(165.336 8.65417) rotate(-57.6103) scale(9.87808 5.43928)">
<stop stop-color="#FFB6D5"/>
<stop offset="0.1" stop-color="#FFE3C0"/>
<stop offset="0.29" stop-color="#C7FBDB"/>
<stop offset="0.43" stop-color="#C7CDF4"/>
<stop offset="0.54" stop-color="#FFBCD4"/>
<stop offset="0.66" stop-color="#FFE0C3"/>
<stop offset="0.76" stop-color="#B0F1D4"/>
<stop offset="0.84" stop-color="#C9CEEC"/>
<stop offset="0.91" stop-color="#FFC1DA"/>
<stop offset="1" stop-color="#BDFFE3"/>
</radialGradient>
<radialGradient id="paint18_radial_1721_77990" cx="0" cy="0" r="1" gradientUnits="userSpaceOnUse" gradientTransform="translate(0.607957 1.65407) rotate(-53.5451) scale(10.2213 5.25661)">
<stop stop-color="#FFB6D5"/>
<stop offset="0.1" stop-color="#FFE3C0"/>
<stop offset="0.29" stop-color="#C7FBDB"/>
<stop offset="0.43" stop-color="#C7CDF4"/>
<stop offset="0.54" stop-color="#FFBCD4"/>
<stop offset="0.66" stop-color="#FFE0C3"/>
<stop offset="0.76" stop-color="#B0F1D4"/>
<stop offset="0.84" stop-color="#C9CEEC"/>
<stop offset="0.91" stop-color="#FFC1DA"/>
<stop offset="1" stop-color="#BDFFE3"/>
</radialGradient>
<radialGradient id="paint19_radial_1721_77990" cx="0" cy="0" r="1" gradientUnits="userSpaceOnUse" gradientTransform="translate(81.9316 40.2217) rotate(-26.4284) scale(12.0497 0.750844)">
<stop stop-color="#FFB6D5"/>
<stop offset="0.1" stop-color="#FFE3C0"/>
<stop offset="0.29" stop-color="#C7FBDB"/>
<stop offset="0.43" stop-color="#C7CDF4"/>
<stop offset="0.54" stop-color="#FFBCD4"/>
<stop offset="0.66" stop-color="#FFE0C3"/>
<stop offset="0.76" stop-color="#B0F1D4"/>
<stop offset="0.84" stop-color="#C9CEEC"/>
<stop offset="0.91" stop-color="#FFC1DA"/>
<stop offset="1" stop-color="#BDFFE3"/>
</radialGradient>
<radialGradient id="paint20_radial_1721_77990" cx="0" cy="0" r="1" gradientUnits="userSpaceOnUse" gradientTransform="translate(76.3817 42.594) rotate(-27.7158) scale(5.18196 0.459664)">
<stop stop-color="#FFB6D5"/>
<stop offset="0.1" stop-color="#FFE3C0"/>
<stop offset="0.29" stop-color="#C7FBDB"/>
<stop offset="0.43" stop-color="#C7CDF4"/>
<stop offset="0.54" stop-color="#FFBCD4"/>
<stop offset="0.66" stop-color="#FFE0C3"/>
<stop offset="0.76" stop-color="#B0F1D4"/>
<stop offset="0.84" stop-color="#C9CEEC"/>
<stop offset="0.91" stop-color="#FFC1DA"/>
<stop offset="1" stop-color="#BDFFE3"/>
</radialGradient>
<radialGradient id="paint21_radial_1721_77990" cx="0" cy="0" r="1" gradientUnits="userSpaceOnUse" gradientTransform="translate(163.184 14.105) rotate(-50.9024) scale(4.51458 2.18975)">
<stop stop-color="#FFB6D5"/>
<stop offset="0.1" stop-color="#FFE3C0"/>
<stop offset="0.29" stop-color="#C7FBDB"/>
<stop offset="0.43" stop-color="#C7CDF4"/>
<stop offset="0.54" stop-color="#FFBCD4"/>
<stop offset="0.66" stop-color="#FFE0C3"/>
<stop offset="0.76" stop-color="#B0F1D4"/>
<stop offset="0.84" stop-color="#C9CEEC"/>
<stop offset="0.91" stop-color="#FFC1DA"/>
<stop offset="1" stop-color="#BDFFE3"/>
</radialGradient>
<radialGradient id="paint22_radial_1721_77990" cx="0" cy="0" r="1" gradientUnits="userSpaceOnUse" gradientTransform="translate(60.0079 4.37416) rotate(-59.9555) scale(104.071 58.9686)">
<stop stop-color="#FFB6D5"/>
<stop offset="0.1" stop-color="#FFE3C0"/>
<stop offset="0.29" stop-color="#C7FBDB"/>
<stop offset="0.43" stop-color="#C7CDF4"/>
<stop offset="0.54" stop-color="#FFBCD4"/>
<stop offset="0.66" stop-color="#FFE0C3"/>
<stop offset="0.76" stop-color="#B0F1D4"/>
<stop offset="0.84" stop-color="#C9CEEC"/>
<stop offset="0.91" stop-color="#FFC1DA"/>
<stop offset="1" stop-color="#BDFFE3"/>
</radialGradient>
<radialGradient id="paint23_radial_1721_77990" cx="0" cy="0" r="1" gradientUnits="userSpaceOnUse" gradientTransform="translate(153.491 7.35089) rotate(-32.8916) scale(132.45 25.4935)">
<stop stop-color="#FFB6D5"/>
<stop offset="0.1" stop-color="#FFE3C0"/>
<stop offset="0.29" stop-color="#C7FBDB"/>
<stop offset="0.43" stop-color="#C7CDF4"/>
<stop offset="0.54" stop-color="#FFBCD4"/>
<stop offset="0.66" stop-color="#FFE0C3"/>
<stop offset="0.76" stop-color="#B0F1D4"/>
<stop offset="0.84" stop-color="#C9CEEC"/>
<stop offset="0.91" stop-color="#FFC1DA"/>
<stop offset="1" stop-color="#BDFFE3"/>
</radialGradient>
<radialGradient id="paint24_radial_1721_77990" cx="0" cy="0" r="1" gradientUnits="userSpaceOnUse" gradientTransform="translate(-13.3976 -48.4917) rotate(-90.4621) scale(89.1112 37.8931)">
<stop stop-color="#FFB6D5"/>
<stop offset="0.1" stop-color="#FFE3C0"/>
<stop offset="0.29" stop-color="#C7FBDB"/>
<stop offset="0.43" stop-color="#C7CDF4"/>
<stop offset="0.54" stop-color="#FFBCD4"/>
<stop offset="0.66" stop-color="#FFE0C3"/>
<stop offset="0.76" stop-color="#B0F1D4"/>
<stop offset="0.84" stop-color="#C9CEEC"/>
<stop offset="0.91" stop-color="#FFC1DA"/>
<stop offset="1" stop-color="#BDFFE3"/>
</radialGradient>
<radialGradient id="paint25_radial_1721_77990" cx="0" cy="0" r="1" gradientUnits="userSpaceOnUse" gradientTransform="translate(8.7769 5.63453) rotate(-49.6614) scale(3.50444 1.64664)">
<stop stop-color="#FFB6D5"/>
<stop offset="0.1" stop-color="#FFE3C0"/>
<stop offset="0.29" stop-color="#C7FBDB"/>
<stop offset="0.43" stop-color="#C7CDF4"/>
<stop offset="0.54" stop-color="#FFBCD4"/>
<stop offset="0.66" stop-color="#FFE0C3"/>
<stop offset="0.76" stop-color="#B0F1D4"/>
<stop offset="0.84" stop-color="#C9CEEC"/>
<stop offset="0.91" stop-color="#FFC1DA"/>
<stop offset="1" stop-color="#BDFFE3"/>
</radialGradient>
<radialGradient id="paint26_radial_1721_77990" cx="0" cy="0" r="1" gradientUnits="userSpaceOnUse" gradientTransform="translate(88.8305 36.5824) rotate(-27.5416) scale(4.52283 0.385089)">
<stop stop-color="#FFB6D5"/>
<stop offset="0.1" stop-color="#FFE3C0"/>
<stop offset="0.29" stop-color="#C7FBDB"/>
<stop offset="0.43" stop-color="#C7CDF4"/>
<stop offset="0.54" stop-color="#FFBCD4"/>
<stop offset="0.66" stop-color="#FFE0C3"/>
<stop offset="0.76" stop-color="#B0F1D4"/>
<stop offset="0.84" stop-color="#C9CEEC"/>
<stop offset="0.91" stop-color="#FFC1DA"/>
<stop offset="1" stop-color="#BDFFE3"/>
</radialGradient>
<radialGradient id="paint27_radial_1721_77990" cx="0" cy="0" r="1" gradientUnits="userSpaceOnUse" gradientTransform="translate(167.454 1.01318) rotate(-62.068) scale(3.16034 1.82595)">
<stop stop-color="#FFB6D5"/>
<stop offset="0.1" stop-color="#FFE3C0"/>
<stop offset="0.29" stop-color="#C7FBDB"/>
<stop offset="0.43" stop-color="#C7CDF4"/>
<stop offset="0.54" stop-color="#FFBCD4"/>
<stop offset="0.66" stop-color="#FFE0C3"/>
<stop offset="0.76" stop-color="#B0F1D4"/>
<stop offset="0.84" stop-color="#C9CEEC"/>
<stop offset="0.91" stop-color="#FFC1DA"/>
<stop offset="1" stop-color="#BDFFE3"/>
</radialGradient>
<radialGradient id="paint28_radial_1721_77990" cx="0" cy="0" r="1" gradientUnits="userSpaceOnUse" gradientTransform="translate(15.3864 6.32162) rotate(-47.0356) scale(6.63793 2.88687)">
<stop stop-color="#FFB6D5"/>
<stop offset="0.1" stop-color="#FFE3C0"/>
<stop offset="0.29" stop-color="#C7FBDB"/>
<stop offset="0.43" stop-color="#C7CDF4"/>
<stop offset="0.54" stop-color="#FFBCD4"/>
<stop offset="0.66" stop-color="#FFE0C3"/>
<stop offset="0.76" stop-color="#B0F1D4"/>
<stop offset="0.84" stop-color="#C9CEEC"/>
<stop offset="0.91" stop-color="#FFC1DA"/>
<stop offset="1" stop-color="#BDFFE3"/>
</radialGradient>
<radialGradient id="paint29_radial_1721_77990" cx="0" cy="0" r="1" gradientUnits="userSpaceOnUse" gradientTransform="translate(94.3241 32.8381) rotate(-29.4267) scale(6.90898 0.853223)">
<stop stop-color="#FFB6D5"/>
<stop offset="0.1" stop-color="#FFE3C0"/>
<stop offset="0.29" stop-color="#C7FBDB"/>
<stop offset="0.43" stop-color="#C7CDF4"/>
<stop offset="0.54" stop-color="#FFBCD4"/>
<stop offset="0.66" stop-color="#FFE0C3"/>
<stop offset="0.76" stop-color="#B0F1D4"/>
<stop offset="0.84" stop-color="#C9CEEC"/>
<stop offset="0.91" stop-color="#FFC1DA"/>
<stop offset="1" stop-color="#BDFFE3"/>
</radialGradient>
<radialGradient id="paint30_radial_1721_77990" cx="0" cy="0" r="1" gradientUnits="userSpaceOnUse" gradientTransform="translate(167.879 -1.29043) rotate(-62.9973) scale(8.84104 5.14267)">
<stop stop-color="#FFB6D5"/>
<stop offset="0.1" stop-color="#FFE3C0"/>
<stop offset="0.29" stop-color="#C7FBDB"/>
<stop offset="0.43" stop-color="#C7CDF4"/>
<stop offset="0.54" stop-color="#FFBCD4"/>
<stop offset="0.66" stop-color="#FFE0C3"/>
<stop offset="0.76" stop-color="#B0F1D4"/>
<stop offset="0.84" stop-color="#C9CEEC"/>
<stop offset="0.91" stop-color="#FFC1DA"/>
<stop offset="1" stop-color="#BDFFE3"/>
</radialGradient>
<radialGradient id="paint31_radial_1721_77990" cx="0" cy="0" r="1" gradientUnits="userSpaceOnUse" gradientTransform="translate(90.7928 35.0997) rotate(-28.0936) scale(11.2224 1.08206)">
<stop stop-color="#FFB6D5"/>
<stop offset="0.1" stop-color="#FFE3C0"/>
<stop offset="0.29" stop-color="#C7FBDB"/>
<stop offset="0.43" stop-color="#C7CDF4"/>
<stop offset="0.54" stop-color="#FFBCD4"/>
<stop offset="0.66" stop-color="#FFE0C3"/>
<stop offset="0.76" stop-color="#B0F1D4"/>
<stop offset="0.84" stop-color="#C9CEEC"/>
<stop offset="0.91" stop-color="#FFC1DA"/>
<stop offset="1" stop-color="#BDFFE3"/>
</radialGradient>
<radialGradient id="paint32_radial_1721_77990" cx="0" cy="0" r="1" gradientUnits="userSpaceOnUse" gradientTransform="translate(10.7407 4.61397) rotate(-48.9153) scale(9.93835 4.57488)">
<stop stop-color="#FFB6D5"/>
<stop offset="0.1" stop-color="#FFE3C0"/>
<stop offset="0.29" stop-color="#C7FBDB"/>
<stop offset="0.43" stop-color="#C7CDF4"/>
<stop offset="0.54" stop-color="#FFBCD4"/>
<stop offset="0.66" stop-color="#FFE0C3"/>
<stop offset="0.76" stop-color="#B0F1D4"/>
<stop offset="0.84" stop-color="#C9CEEC"/>
<stop offset="0.91" stop-color="#FFC1DA"/>
<stop offset="1" stop-color="#BDFFE3"/>
</radialGradient>
<radialGradient id="paint33_radial_1721_77990" cx="0" cy="0" r="1" gradientUnits="userSpaceOnUse" gradientTransform="translate(85.75 38.028) rotate(-26.2268) scale(6.95164 0.404341)">
<stop stop-color="#FFB6D5"/>
<stop offset="0.1" stop-color="#FFE3C0"/>
<stop offset="0.29" stop-color="#C7FBDB"/>
<stop offset="0.43" stop-color="#C7CDF4"/>
<stop offset="0.54" stop-color="#FFBCD4"/>
<stop offset="0.66" stop-color="#FFE0C3"/>
<stop offset="0.76" stop-color="#B0F1D4"/>
<stop offset="0.84" stop-color="#C9CEEC"/>
<stop offset="0.91" stop-color="#FFC1DA"/>
<stop offset="1" stop-color="#BDFFE3"/>
</radialGradient>
<radialGradient id="paint34_radial_1721_77990" cx="0" cy="0" r="1" gradientUnits="userSpaceOnUse" gradientTransform="translate(166.383 4.19854) rotate(-59.1001) scale(5.59048 3.13753)">
<stop stop-color="#FFB6D5"/>
<stop offset="0.1" stop-color="#FFE3C0"/>
<stop offset="0.29" stop-color="#C7FBDB"/>
<stop offset="0.43" stop-color="#C7CDF4"/>
<stop offset="0.54" stop-color="#FFBCD4"/>
<stop offset="0.66" stop-color="#FFE0C3"/>
<stop offset="0.76" stop-color="#B0F1D4"/>
<stop offset="0.84" stop-color="#C9CEEC"/>
<stop offset="0.91" stop-color="#FFC1DA"/>
<stop offset="1" stop-color="#BDFFE3"/>
</radialGradient>
<radialGradient id="paint35_radial_1721_77990" cx="0" cy="0" r="1" gradientUnits="userSpaceOnUse" gradientTransform="translate(5.3998 3.88744) rotate(-52.1865) scale(5.92417 2.96078)">
<stop stop-color="#FFB6D5"/>
<stop offset="0.1" stop-color="#FFE3C0"/>
<stop offset="0.29" stop-color="#C7FBDB"/>
<stop offset="0.43" stop-color="#C7CDF4"/>
<stop offset="0.54" stop-color="#FFBCD4"/>
<stop offset="0.66" stop-color="#FFE0C3"/>
<stop offset="0.76" stop-color="#B0F1D4"/>
<stop offset="0.84" stop-color="#C9CEEC"/>
<stop offset="0.91" stop-color="#FFC1DA"/>
<stop offset="1" stop-color="#BDFFE3"/>
</radialGradient>
<radialGradient id="paint36_radial_1721_77990" cx="0" cy="0" r="1" gradientUnits="userSpaceOnUse" gradientTransform="translate(18.4689 7.29341) rotate(-44.9677) scale(4.46038 1.80549)">
<stop stop-color="#FFB6D5"/>
<stop offset="0.1" stop-color="#FFE3C0"/>
<stop offset="0.29" stop-color="#C7FBDB"/>
<stop offset="0.43" stop-color="#C7CDF4"/>
<stop offset="0.54" stop-color="#FFBCD4"/>
<stop offset="0.66" stop-color="#FFE0C3"/>
<stop offset="0.76" stop-color="#B0F1D4"/>
<stop offset="0.84" stop-color="#C9CEEC"/>
<stop offset="0.91" stop-color="#FFC1DA"/>
<stop offset="1" stop-color="#BDFFE3"/>
</radialGradient>
<radialGradient id="paint37_radial_1721_77990" cx="0" cy="0" r="1" gradientUnits="userSpaceOnUse" gradientTransform="translate(96.9337 30.9874) rotate(-31.348) scale(5.53489 0.896838)">
<stop stop-color="#FFB6D5"/>
<stop offset="0.1" stop-color="#FFE3C0"/>
<stop offset="0.29" stop-color="#C7FBDB"/>
<stop offset="0.43" stop-color="#C7CDF4"/>
<stop offset="0.54" stop-color="#FFBCD4"/>
<stop offset="0.66" stop-color="#FFE0C3"/>
<stop offset="0.76" stop-color="#B0F1D4"/>
<stop offset="0.84" stop-color="#C9CEEC"/>
<stop offset="0.91" stop-color="#FFC1DA"/>
<stop offset="1" stop-color="#BDFFE3"/>
</radialGradient>
<radialGradient id="paint38_radial_1721_77990" cx="0" cy="0" r="1" gradientUnits="userSpaceOnUse" gradientTransform="translate(130.973 -156.848) rotate(-55.5429) scale(458.22 244.456)">
<stop stop-color="#FFB6D5"/>
<stop offset="0.1" stop-color="#FFE3C0"/>
<stop offset="0.29" stop-color="#C7FBDB"/>
<stop offset="0.43" stop-color="#C7CDF4"/>
<stop offset="0.54" stop-color="#FFBCD4"/>
<stop offset="0.66" stop-color="#FFE0C3"/>
<stop offset="0.76" stop-color="#B0F1D4"/>
<stop offset="0.84" stop-color="#C9CEEC"/>
<stop offset="0.91" stop-color="#FFC1DA"/>
<stop offset="1" stop-color="#BDFFE3"/>
</radialGradient>
<radialGradient id="paint39_radial_1721_77990" cx="0" cy="0" r="1" gradientUnits="userSpaceOnUse" gradientTransform="translate(128.063 -151.644) rotate(-55.5428) scale(428.916 228.823)">
<stop stop-color="#FFB6D5"/>
<stop offset="0.1" stop-color="#FFE3C0"/>
<stop offset="0.29" stop-color="#C7FBDB"/>
<stop offset="0.43" stop-color="#C7CDF4"/>
<stop offset="0.54" stop-color="#FFBCD4"/>
<stop offset="0.66" stop-color="#FFE0C3"/>
<stop offset="0.76" stop-color="#B0F1D4"/>
<stop offset="0.84" stop-color="#C9CEEC"/>
<stop offset="0.91" stop-color="#FFC1DA"/>
<stop offset="1" stop-color="#BDFFE3"/>
</radialGradient>
<radialGradient id="paint40_radial_1721_77990" cx="0" cy="0" r="1" gradientUnits="userSpaceOnUse" gradientTransform="translate(125.853 -147.69) rotate(-55.5429) scale(406.637 216.937)">
<stop stop-color="#FFB6D5"/>
<stop offset="0.1" stop-color="#FFE3C0"/>
<stop offset="0.29" stop-color="#C7FBDB"/>
<stop offset="0.43" stop-color="#C7CDF4"/>
<stop offset="0.54" stop-color="#FFBCD4"/>
<stop offset="0.66" stop-color="#FFE0C3"/>
<stop offset="0.76" stop-color="#B0F1D4"/>
<stop offset="0.84" stop-color="#C9CEEC"/>
<stop offset="0.91" stop-color="#FFC1DA"/>
<stop offset="1" stop-color="#BDFFE3"/>
</radialGradient>
<radialGradient id="paint41_radial_1721_77990" cx="0" cy="0" r="1" gradientUnits="userSpaceOnUse" gradientTransform="translate(123.039 -142.657) rotate(-55.5429) scale(378.282 201.81)">
<stop stop-color="#FFB6D5"/>
<stop offset="0.1" stop-color="#FFE3C0"/>
<stop offset="0.29" stop-color="#C7FBDB"/>
<stop offset="0.43" stop-color="#C7CDF4"/>
<stop offset="0.54" stop-color="#FFBCD4"/>
<stop offset="0.66" stop-color="#FFE0C3"/>
<stop offset="0.76" stop-color="#B0F1D4"/>
<stop offset="0.84" stop-color="#C9CEEC"/>
<stop offset="0.91" stop-color="#FFC1DA"/>
<stop offset="1" stop-color="#BDFFE3"/>
</radialGradient>
<radialGradient id="paint42_radial_1721_77990" cx="0" cy="0" r="1" gradientUnits="userSpaceOnUse" gradientTransform="translate(119.726 -136.733) rotate(-55.5429) scale(344.905 184.004)">
<stop stop-color="#FFB6D5"/>
<stop offset="0.1" stop-color="#FFE3C0"/>
<stop offset="0.29" stop-color="#C7FBDB"/>
<stop offset="0.43" stop-color="#C7CDF4"/>
<stop offset="0.54" stop-color="#FFBCD4"/>
<stop offset="0.66" stop-color="#FFE0C3"/>
<stop offset="0.76" stop-color="#B0F1D4"/>
<stop offset="0.84" stop-color="#C9CEEC"/>
<stop offset="0.91" stop-color="#FFC1DA"/>
<stop offset="1" stop-color="#BDFFE3"/>
</radialGradient>
<radialGradient id="paint43_radial_1721_77990" cx="0" cy="0" r="1" gradientUnits="userSpaceOnUse" gradientTransform="translate(116.032 -130.123) rotate(-55.5429) scale(307.684 164.147)">
<stop stop-color="#FFB6D5"/>
<stop offset="0.1" stop-color="#FFE3C0"/>
<stop offset="0.29" stop-color="#C7FBDB"/>
<stop offset="0.43" stop-color="#C7CDF4"/>
<stop offset="0.54" stop-color="#FFBCD4"/>
<stop offset="0.66" stop-color="#FFE0C3"/>
<stop offset="0.76" stop-color="#B0F1D4"/>
<stop offset="0.84" stop-color="#C9CEEC"/>
<stop offset="0.91" stop-color="#FFC1DA"/>
<stop offset="1" stop-color="#BDFFE3"/>
</radialGradient>
<radialGradient id="paint44_radial_1721_77990" cx="0" cy="0" r="1" gradientUnits="userSpaceOnUse" gradientTransform="translate(112.082 -123.06) rotate(-55.5429) scale(267.893 142.918)">
<stop stop-color="#FFB6D5"/>
<stop offset="0.1" stop-color="#FFE3C0"/>
<stop offset="0.29" stop-color="#C7FBDB"/>
<stop offset="0.43" stop-color="#C7CDF4"/>
<stop offset="0.54" stop-color="#FFBCD4"/>
<stop offset="0.66" stop-color="#FFE0C3"/>
<stop offset="0.76" stop-color="#B0F1D4"/>
<stop offset="0.84" stop-color="#C9CEEC"/>
<stop offset="0.91" stop-color="#FFC1DA"/>
<stop offset="1" stop-color="#BDFFE3"/>
</radialGradient>
</defs>
</svg>
