<?xml version="1.0" standalone="no"?>
<!DOCTYPE svg PUBLIC "-//W3C//DTD SVG 20010904//EN"
 "http://www.w3.org/TR/2001/REC-SVG-20010904/DTD/svg10.dtd">
<svg version="1.0" xmlns="http://www.w3.org/2000/svg"
 width="362.000000pt" height="119.000000pt" viewBox="0 0 362.000000 119.000000"
 preserveAspectRatio="xMidYMid meet">
<metadata>
Created by potrace 1.16, written by Peter Selinger 2001-2019
</metadata>
<g transform="translate(0.000000,119.000000) scale(0.100000,-0.100000)"
fill="#000000" stroke="none">
<path d="M122 1180 c9 -6 31 -8 50 -7 18 2 41 0 51 -5 11 -6 17 -5 17 2 0 7
10 6 28 -3 15 -7 35 -12 45 -10 9 3 17 0 17 -6 0 -6 5 -11 11 -11 5 0 7 5 4
10 -9 14 5 12 36 -4 14 -7 40 -12 57 -12 22 1 31 -3 27 -11 -5 -16 -3 -16 29
-3 19 7 24 6 20 -4 -3 -7 2 -16 11 -20 9 -3 13 -2 10 4 -10 16 0 12 29 -13 15
-13 37 -23 49 -22 12 1 27 -2 34 -7 7 -5 18 -6 25 -2 7 4 10 4 6 -1 -4 -4 4
-14 18 -22 30 -15 46 -17 24 -3 -10 7 -11 10 -2 10 7 0 15 -7 18 -15 4 -8 10
-12 15 -9 5 3 9 0 9 -6 0 -6 4 -9 9 -6 10 7 46 -22 139 -111 35 -35 69 -63 75
-63 18 0 -166 190 -292 303 l-65 57 -261 0 c-172 -1 -254 -4 -243 -10z"/>
<path d="M1770 1180 c0 -5 9 -10 19 -10 11 0 23 -5 26 -11 4 -6 13 -8 21 -5 7
3 16 1 19 -5 4 -5 11 -7 16 -4 5 4 9 2 9 -4 0 -5 9 -8 20 -6 13 3 18 0 14 -7
-5 -8 2 -9 23 -5 25 5 32 2 36 -13 3 -11 14 -20 24 -20 10 0 29 -8 42 -17 14
-9 21 -11 17 -5 -5 8 0 12 14 12 13 0 19 -4 14 -11 -5 -8 1 -10 20 -7 14 3 29
1 32 -4 3 -4 10 -6 15 -2 5 3 8 0 7 -6 -2 -7 5 -14 15 -15 9 -2 15 1 12 5 -3
5 0 12 6 16 7 4 9 3 6 -3 -6 -10 28 -45 36 -36 3 3 12 1 19 -3 12 -8 18 -10
52 -17 7 -1 21 -11 31 -21 14 -14 20 -15 27 -4 8 10 11 10 15 1 2 -7 11 -13
19 -13 9 0 12 -5 8 -11 -4 -7 2 -7 17 1 13 7 21 9 17 5 -9 -9 9 -35 24 -35 5
0 6 6 3 13 -4 6 1 3 10 -8 13 -14 19 -16 22 -7 4 10 8 10 21 0 12 -10 14 -10
8 0 -4 6 -2 12 3 12 6 0 11 -7 11 -16 0 -11 6 -15 20 -11 11 3 20 1 20 -3 0
-4 10 -6 22 -2 14 3 19 2 14 -6 -4 -7 -1 -12 9 -12 9 0 14 -4 11 -8 -3 -4 10
-16 29 -26 18 -10 36 -27 38 -38 3 -11 10 -17 16 -13 7 3 8 0 5 -9 -4 -9 -1
-16 6 -16 7 0 10 -6 7 -13 -3 -8 1 -14 9 -14 7 0 11 3 9 7 -2 4 2 7 10 7 8 0
12 -4 9 -8 -7 -11 16 -49 46 -77 65 -61 84 -77 92 -75 4 2 8 -2 8 -7 0 -6 9
-10 20 -10 11 0 20 4 20 9 0 5 9 7 21 4 19 -5 19 -4 -5 20 -14 14 -26 34 -26
44 0 15 -2 16 -10 3 -5 -8 -10 -10 -11 -5 -1 6 -2 15 -4 20 -1 6 -3 16 -3 24
-1 7 -8 11 -16 8 -9 -4 -16 3 -20 19 -4 13 -16 26 -29 29 -12 3 -27 17 -34 30
-12 27 -5 33 15 13 7 -7 12 -9 12 -5 0 21 -258 172 -465 271 -60 28 -121 58
-135 64 l-25 12 25 -6 c106 -27 521 -241 739 -381 152 -98 491 -364 576 -452
43 -45 55 -50 55 -23 0 10 -37 48 -85 87 -46 39 -84 73 -85 78 0 14 -64 68
-97 83 -18 8 -39 27 -47 43 -9 16 -36 41 -61 55 -25 15 -45 31 -45 35 0 5 -8
8 -17 7 -11 0 -18 6 -18 19 0 13 -8 21 -21 23 -24 3 -102 82 -82 82 7 0 -4 16
-25 35 -21 19 -43 32 -49 29 -7 -4 -8 -2 -4 4 4 7 2 12 -4 12 -6 0 -8 5 -5 10
3 6 2 10 -3 10 -4 0 -26 16 -48 36 -21 19 -52 42 -69 51 -16 9 -32 19 -35 22
-12 14 -82 41 -92 35 -7 -4 -8 -2 -4 4 4 7 -3 14 -19 18 -13 3 -22 10 -19 15
3 5 -4 9 -16 9 -12 0 -18 4 -15 10 4 6 3 10 -2 9 -24 -4 -43 2 -37 13 5 7 3 8
-7 2 -25 -15 -42 -14 -28 2 11 14 8 16 -58 39 -7 2 -17 -4 -23 -13 -9 -15 -10
-15 -8 3 3 18 -3 20 -44 20 -26 -1 -44 3 -42 7 3 5 10 5 16 2 6 -4 8 -2 4 4
-9 14 -656 17 -656 2z"/>
<path d="M2886 1115 c5 -12 9 -13 14 -5 10 17 24 -6 14 -22 -4 -7 -4 -10 1 -6
4 4 21 -2 36 -13 16 -11 34 -17 40 -14 6 4 13 -2 16 -13 3 -13 11 -18 19 -15
8 3 14 0 14 -5 0 -6 10 -9 21 -7 30 6 47 -7 23 -16 -17 -7 -17 -8 -1 -8 9 -1
17 -6 17 -12 0 -5 4 -8 9 -4 5 3 16 -2 25 -11 9 -8 24 -16 35 -17 10 0 17 -6
15 -12 -2 -5 20 -26 49 -45 28 -19 57 -39 64 -45 28 -23 41 -31 83 -53 25 -12
62 -37 84 -55 70 -58 101 -83 129 -100 l27 -17 0 38 c0 38 -28 80 -43 65 -4
-3 -7 2 -8 13 0 10 -3 14 -5 7 -5 -12 -51 26 -47 39 1 3 -13 13 -32 22 -19 10
-35 21 -35 26 0 5 -7 6 -17 3 -10 -4 -14 -2 -10 4 4 6 -2 18 -13 28 -11 10
-20 15 -20 11 0 -7 -61 36 -88 62 -13 11 -27 16 -44 13 -4 0 -12 8 -18 19 -6
11 -15 18 -21 15 -5 -4 -6 -11 -3 -17 4 -7 2 -8 -5 -4 -6 4 -9 12 -6 17 4 5 1
9 -4 9 -6 0 -11 -6 -12 -12 0 -7 -4 -4 -9 7 -5 11 -9 15 -9 8 -1 -9 -20 -11
-41 -3 -3 1 -8 2 -11 2 -3 -1 -6 6 -6 14 0 19 7 18 23 -3 7 -10 14 -13 14 -6
0 23 -40 42 -68 32 -20 -8 -23 -7 -14 3 8 11 4 17 -19 27 -16 7 -29 19 -29 26
0 9 -8 12 -26 9 -14 -3 -23 -1 -20 5 7 10 -13 19 -61 27 -27 4 -32 3 -27 -11z"/>
<path d="M31 1041 c-1 -7 -7 -11 -16 -7 -13 5 -15 -19 -15 -174 0 -153 2 -180
15 -180 8 0 15 6 15 13 0 7 3 8 8 2 8 -12 30 -12 92 0 53 10 82 7 92 -9 6 -8
8 -7 8 2 0 7 8 12 18 11 23 -3 74 11 92 26 8 6 23 15 34 19 13 4 17 12 12 30
-4 16 0 28 12 37 15 13 16 12 3 -4 -23 -29 -8 -25 24 6 17 16 24 26 18 23 -8
-5 -13 -1 -13 9 0 9 5 13 10 10 6 -3 10 1 10 9 0 9 4 16 10 16 5 0 6 -8 3 -17
-6 -16 -5 -16 9 -3 18 18 17 55 -2 73 -10 10 -11 9 -5 -3 5 -8 -4 -4 -19 10
-15 14 -30 23 -32 22 -2 -2 -23 0 -47 4 -23 4 -46 7 -51 5 -5 -1 -12 2 -15 8
-4 5 -32 12 -62 14 -31 3 -65 9 -75 15 -11 5 -29 8 -41 7 -13 -1 -23 2 -23 7
0 4 -13 8 -29 8 -16 0 -32 6 -34 13 -4 9 -6 9 -6 -2z"/>
</g>
</svg>
