<svg width="129" height="139" viewBox="0 0 129 139" fill="none" xmlns="http://www.w3.org/2000/svg">
<path d="M64.7552 130.96C49.0677 130.96 33.3759 130.904 17.6885 130.997C13.3193 131.025 8.79459 127.329 7.77037 123.283C7.37278 121.71 7.07891 120.043 7.07459 118.423C7.02705 97.1665 7.09619 75.9102 7.00112 54.6539C6.98383 50.52 8.54394 47.3683 10.9381 44.4122C14.0799 40.5389 17.131 36.5772 20.2512 32.6807C22.5071 29.8596 24.8278 27.0989 27.0793 24.2731C30.0569 20.5349 32.9438 16.7082 35.9646 13.0119C38.1773 10.3071 40.122 7.15078 43.817 6.50835C45.0702 6.28955 46.3408 6.02419 47.6027 6.02419C68.7354 5.99626 89.8724 5.99626 111.005 6.00557C116.29 6.00557 120.608 8.71498 122.272 14.0872C122.717 15.5211 122.963 17.0946 122.967 18.6029C123.006 51.8793 123.011 85.1604 122.985 118.437C122.98 124.903 119.735 128.986 114.069 130.848C113.278 131.109 112.358 130.955 111.502 130.955C95.9227 130.955 80.3389 130.955 64.7595 130.955L64.7552 130.96ZM64.82 125.015C80.1834 125.015 95.551 124.959 110.914 125.052C114.778 125.075 117.475 122.366 117.466 117.976C117.405 88.7637 117.436 59.5514 117.436 30.3391C117.436 26.3308 117.427 22.3226 117.436 18.319C117.449 14.6505 114.575 12.0901 111.921 12.0901C90.1404 12.0994 68.3594 12.0715 46.5785 12.1692C45.3468 12.1739 43.9293 12.9607 42.9397 13.8359C41.466 15.1394 40.256 16.806 39.007 18.3841C34.8669 23.6214 30.7873 28.9099 26.6342 34.1332C22.4423 39.403 18.1422 44.5751 14.0194 49.9055C13.2415 50.911 12.6668 52.4566 12.6624 53.7555C12.5803 75.589 12.5976 97.4272 12.6149 119.265C12.6149 119.931 12.7229 120.634 12.9477 121.249C13.9114 123.893 15.8302 125.015 18.3929 125.015C33.8643 125.015 49.34 125.015 64.8114 125.015H64.82Z" fill="url(#paint0_linear_489_47102)"/>
<path d="M76.095 74.4998C75.6715 78.4382 74.1071 81.3897 70.6195 82.8096C70.0405 83.047 69.3965 83.2006 68.7785 83.2146C66.406 83.2565 64.0075 82.9818 61.6695 83.2798C58.264 83.7127 54.2925 79.3506 53.977 75.766C53.6745 72.3257 53.3849 68.9413 54.3703 65.5987C55.321 62.3726 58.1819 59.5142 61.8596 59.8354C64.1069 60.0356 66.393 59.9844 68.6489 59.8447C71.7605 59.6492 75.3993 63.3363 75.7147 66.4926C75.7796 67.149 76.0172 67.7821 76.1988 68.5083C78.5627 68.5083 80.8747 68.5083 83.1868 68.5083C83.5023 68.5083 83.8134 68.4664 84.224 68.4432V47.7036C83.6319 47.7036 83.0615 47.7036 82.491 47.7036C75.3215 47.7036 68.1476 47.8293 60.9823 47.6291C58.7351 47.5686 58.1387 49.3981 57.0843 50.5946C54.5648 53.4576 52.2959 56.5767 49.919 59.5887C48.6441 61.2041 47.3433 62.7962 46.0944 64.4303C45.874 64.7189 45.7314 65.1705 45.7314 65.5475C45.7098 73.3778 45.7141 81.2128 45.7141 89.2525H47.3822C62.1017 89.2525 76.8168 89.192 91.5319 89.3084C94.3063 89.3317 95.404 87.5627 95.3997 85.1279C95.3651 70.0306 95.3867 54.9287 95.3781 39.8314C95.3781 36.9963 94.3193 35.8371 91.7479 35.8371C79.8894 35.8325 68.0266 35.8045 56.1681 35.8883C55.2303 35.893 54.0332 36.4051 53.4066 37.1313C50.8827 40.0642 48.5447 43.1833 46.1203 46.2185C43.9336 48.9559 41.7295 51.6746 39.5342 54.398C38.0691 56.2136 36.5739 58.0059 35.165 59.8727C34.8409 60.3056 34.6853 61.0086 34.681 61.5905C34.6507 73.6711 34.6421 85.7471 34.6594 97.8277C34.6594 100.374 35.5799 101.189 38.1685 101.189C59.5173 101.189 80.8618 101.189 102.211 101.189C105.581 101.189 106.42 100.281 106.42 96.6266C106.42 73.862 106.398 51.0973 106.441 28.3327C106.446 25.0041 104.916 23.9055 102.323 23.9241C85.3433 24.0219 68.3593 23.9986 51.3797 23.9381C49.7591 23.9334 48.6312 24.5339 47.6458 25.7955C43.6094 30.9723 39.5774 36.1537 35.5021 41.2885C31.9368 45.7809 28.3196 50.2268 24.7024 54.6726C23.8899 55.6735 23.5917 56.7629 23.5917 58.0897C23.6177 75.105 23.609 92.1202 23.609 109.136C23.609 112.231 24.4474 113.121 27.3731 113.121C53.1948 113.121 79.0208 113.121 104.842 113.121C106.135 113.121 107.431 113.102 108.723 113.125C110.594 113.158 111.913 114.401 111.926 116.105C111.939 117.781 110.534 119.103 108.671 119.103C94.168 119.112 79.669 119.103 65.1657 119.103C52.3348 119.103 39.5039 119.042 26.673 119.14C22.749 119.168 19.3393 116.626 18.328 112.562C18.207 112.078 18.1162 111.57 18.1162 111.072C18.1033 92.8977 18.0514 74.7186 18.1897 56.5441C18.2027 54.7937 19.1102 52.7966 20.1344 51.3534C22.9089 47.4522 25.9513 43.7698 28.9289 40.0409C31.254 37.1267 33.6568 34.2822 35.9991 31.3773C38.7908 27.9137 41.5869 24.4501 44.3139 20.9307C45.6276 19.2408 47.2828 18.3703 49.2448 18.0677C49.8283 17.9792 50.4246 17.9466 51.0167 17.9466C68.3766 17.942 85.7366 17.9327 103.092 17.9466C106.498 17.9466 109.315 19.3153 110.854 22.7323C111.472 24.1103 111.882 25.7536 111.882 27.2759C111.947 50.8553 111.939 74.4299 111.917 98.0093C111.913 103.558 107.889 107.236 103.252 107.236C81.4711 107.222 59.6945 107.166 37.9136 107.278C32.9307 107.301 28.9678 103.102 29.0456 97.7812C29.2141 86.1707 29.1839 74.551 29.0456 62.9405C29.0024 59.5421 30.0569 56.87 32.0448 54.4213C36.3232 49.1514 40.5843 43.8676 44.8282 38.5652C46.3883 36.6146 47.7841 34.501 49.422 32.6342C50.9346 30.9118 52.8534 29.8783 55.1568 29.8783C67.6117 29.8783 80.0623 29.8364 92.5172 29.9016C93.7229 29.9062 95.0021 30.3345 96.1214 30.8745C99.2719 32.3968 100.862 35.2366 100.879 38.8491C100.953 54.7006 100.97 70.5567 100.879 86.4081C100.849 91.7944 96.9944 95.2859 92.4783 95.3138C76.8989 95.4116 61.3194 95.2905 45.74 95.4023C42.7365 95.4255 40.0398 92.1342 40.0787 89.3689C40.1997 81.1243 40.1478 72.8751 40.1133 64.6304C40.1046 62.1771 41.7123 60.7339 42.9526 59.1045C45.9561 55.1568 49.059 51.3022 52.1533 47.4429C53.4109 45.874 54.6425 44.24 56.0989 42.9132C56.8595 42.2196 58.0869 41.8099 59.1068 41.796C67.3524 41.7075 75.6024 41.647 83.8523 41.7913C87.772 41.8611 89.7816 44.0817 89.8637 48.2669C89.9977 54.8263 89.9026 61.3903 89.8983 67.9544C89.8983 71.66 87.4306 74.6813 83.7097 74.5137C81.2378 74.402 78.7572 74.4905 76.0864 74.4905L76.095 74.4998ZM64.8286 65.7989C63.9124 65.7989 62.9962 65.7989 62.08 65.7989C60.615 65.8036 59.5778 66.8091 59.5346 68.4106C59.4784 70.4962 59.4698 72.5911 59.5389 74.6767C59.5951 76.3526 60.5502 77.2744 62.1103 77.293C63.9427 77.3163 65.7707 77.3209 67.6031 77.293C69.228 77.265 70.4683 75.9243 70.5072 74.146C70.5461 72.4049 70.5504 70.6638 70.5072 68.9273C70.4553 66.7253 69.5694 65.8129 67.5685 65.8036C66.6523 65.7989 65.7361 65.8036 64.8199 65.8036L64.8286 65.7989Z" fill="url(#paint1_linear_489_47102)"/>
<mask id="mask0_489_47102" style="mask-type:alpha" maskUnits="userSpaceOnUse" x="0" y="0" width="130" height="139">
<rect x="0.000976562" width="129" height="139" rx="10" fill="#222222"/>
</mask>
<g mask="url(#mask0_489_47102)">
<path fill-rule="evenodd" clip-rule="evenodd" d="M139.675 -5.30761C139.675 -5.30768 139.675 -5.30759 139.675 -5.30744L139.675 -5.2545C139.675 -5.22438 139.637 -5.21067 139.618 -5.23371C139.145 -5.7952 138.685 -6.3519 138.246 -6.9235C138.222 -6.9543 138.244 -6.9988 138.283 -6.9988C138.297 -6.9988 138.311 -6.99199 138.32 -6.98039C138.754 -6.41445 139.208 -5.86293 139.675 -5.30791C139.675 -5.30775 139.675 -5.30751 139.675 -5.30761ZM139.675 -2.51685C139.675 -2.51723 139.675 -2.51761 139.674 -2.51791C139.086 -3.25895 138.5 -3.9504 137.927 -4.62512C137.255 -5.41584 136.605 -6.1836 135.994 -6.9804C135.985 -6.992 135.972 -6.9988 135.957 -6.9988C135.918 -6.9988 135.896 -6.9543 135.92 -6.9235C136.523 -6.13869 137.165 -5.38148 137.827 -4.60181C138.402 -3.92413 138.991 -3.22916 139.582 -2.48461C139.612 -2.44609 139.675 -2.46766 139.675 -2.51685ZM139.675 0.783353C139.675 0.782962 139.675 0.782576 139.674 0.782242C138.349 -1.38676 136.937 -3.05136 135.602 -4.62512C134.931 -5.41584 134.28 -6.1836 133.67 -6.98039C133.661 -6.992 133.647 -6.9988 133.632 -6.9988C133.594 -6.9988 133.572 -6.9543 133.595 -6.92349C134.199 -6.13869 134.84 -5.38148 135.502 -4.60181C136.838 -3.02722 138.251 -1.36095 139.577 0.810433C139.605 0.855652 139.675 0.836333 139.675 0.783353ZM139.675 5.49903C139.675 5.49864 139.675 5.49824 139.674 5.49787C137.806 0.713198 135.44 -2.0758 133.277 -4.62512C132.606 -5.41584 131.955 -6.1836 131.345 -6.9804C131.336 -6.992 131.322 -6.9988 131.308 -6.9988C131.269 -6.9988 131.247 -6.9543 131.271 -6.9235C131.874 -6.13869 132.516 -5.38148 133.178 -4.60181C135.343 -2.0494 137.712 0.743304 139.578 5.53789C139.598 5.58815 139.675 5.57437 139.675 5.52044L139.675 5.49903ZM139.675 12.4748C139.675 12.7189 139.639 12.9618 139.562 13.1933C138.471 16.4594 136.357 19.8078 134.229 23.1752C128.96 31.5145 123.616 39.9745 133.598 47.5851C136.332 49.6693 138.305 51.8215 139.667 54.0171C139.672 54.0248 139.675 54.0337 139.675 54.0427C139.675 54.0919 139.61 54.1103 139.584 54.0684C138.224 51.8659 136.25 49.7073 133.509 47.6174C123.496 39.9834 128.849 31.5103 134.126 23.1573C136.405 19.5476 138.671 15.9607 139.674 12.4748C139.674 12.4747 139.675 12.4747 139.675 12.4748ZM139.675 17.8235C139.675 17.8234 139.674 17.8233 139.674 17.8234C138.704 19.5896 137.579 21.3708 136.45 23.1573C131.174 31.5097 125.821 39.9834 135.833 47.6174C137.301 48.736 138.545 49.8745 139.596 51.0286C139.624 51.0589 139.675 51.0393 139.675 50.9983C139.675 50.9871 139.67 50.9764 139.663 50.9681C138.615 49.8242 137.379 48.6952 135.924 47.5857C125.942 39.9751 131.286 31.5151 136.554 23.1758C137.605 21.513 138.653 19.8546 139.575 18.2087C139.64 18.0911 139.675 17.9584 139.675 17.8235ZM139.675 21.8982C139.675 21.8495 139.611 21.8311 139.585 21.8724C139.316 22.3005 139.046 22.7286 138.775 23.1573C133.498 31.5097 128.145 39.9834 138.158 47.6174C138.668 48.0059 139.148 48.3966 139.605 48.7899C139.632 48.8134 139.675 48.794 139.675 48.7581C139.675 48.7458 139.669 48.7342 139.66 48.7262C139.213 48.3437 138.744 47.9635 138.249 47.5851C128.267 39.9745 133.611 31.5145 138.879 23.1752C139.143 22.7577 139.406 22.3409 139.667 21.924C139.672 21.9163 139.675 21.9073 139.675 21.8982ZM139.675 25.4323C139.675 25.4322 139.674 25.4321 139.674 25.4322C135.138 32.7831 131.625 40.1601 139.606 46.912C139.632 46.9345 139.675 46.9169 139.675 46.882C139.675 46.8699 139.669 46.8582 139.66 46.8504C131.87 40.2278 135.155 32.995 139.577 25.7769C139.641 25.6733 139.675 25.5539 139.675 25.4323ZM139.675 29.6767C139.675 29.6234 139.603 29.6066 139.579 29.6539C136.977 34.7299 135.826 39.7585 139.59 44.5241C139.618 44.559 139.675 44.5406 139.675 44.4961C139.675 44.4855 139.671 44.4751 139.664 44.4667C135.955 39.7356 137.091 34.742 139.669 29.6999C139.673 29.6927 139.675 29.6847 139.675 29.6767ZM139.675 36.6827C139.675 36.599 139.573 36.5919 139.565 36.6752C139.485 37.455 139.481 38.2312 139.565 39.0029C139.574 39.0872 139.675 39.0795 139.675 38.9948C139.592 38.2284 139.597 37.4573 139.675 36.6827ZM139.675 60.2605C139.675 60.2597 139.675 60.2589 139.674 60.2581C139.006 55.8973 136.56 51.6154 131.274 47.5851C121.292 39.9745 126.636 31.5145 131.904 23.1752C135.738 17.1062 139.531 11.1012 137.36 5.52593C135.491 0.724175 133.119 -2.07092 130.953 -4.62512C130.281 -5.41584 129.631 -6.1836 129.02 -6.98039C129.011 -6.992 128.998 -6.9988 128.983 -6.9988C128.944 -6.9988 128.922 -6.9543 128.946 -6.92349C129.549 -6.13869 130.191 -5.38148 130.853 -4.60181C133.018 -2.0494 135.388 0.743304 137.254 5.53789C139.419 11.0982 135.629 17.0966 131.801 23.1585C126.525 31.5109 121.171 39.9846 131.184 47.6186C136.811 51.9092 139.213 56.488 139.675 61.1433L139.675 60.2605ZM139.675 64.6884C139.675 64.6882 139.675 64.6885 139.675 64.6889L139.675 65.6426C138.828 71.7582 135.38 77.887 132.186 83.5603C126.99 92.7944 122.474 100.82 130.978 105.598C134.107 107.357 136.538 112.946 137.09 118.686C137.57 123.683 136.626 128.797 133.478 131.595C127.846 136.603 125.322 141.255 124.929 145.751C124.926 145.779 124.903 145.8 124.874 145.8C124.843 145.8 124.818 145.773 124.821 145.742C125.217 141.239 127.746 136.581 133.385 131.567C136.52 128.779 137.46 123.677 136.982 118.689C136.432 112.961 134.013 107.386 130.9 105.637C122.353 100.835 126.878 92.795 132.083 83.5448C135.439 77.5811 139.076 71.1135 139.676 64.689C139.676 64.6888 139.676 64.6885 139.675 64.6884ZM139.674 73.2727C139.674 73.2728 139.674 73.2734 139.674 73.274C138.207 76.7896 136.264 80.2443 134.406 83.5442C129.201 92.795 124.677 100.835 133.223 105.637C136.337 107.386 138.755 112.96 139.306 118.688C139.785 123.676 138.845 128.778 135.709 131.566C130.069 136.58 127.54 141.238 127.144 145.741C127.141 145.773 127.166 145.8 127.198 145.8C127.226 145.8 127.25 145.778 127.252 145.75C127.646 141.254 130.17 136.602 135.801 131.595C138.949 128.796 139.892 123.683 139.413 118.685C138.862 112.946 136.432 107.356 133.301 105.598C124.797 100.819 129.312 92.7938 134.51 83.5597C136.316 80.3489 138.205 76.9914 139.658 73.5736C139.668 73.5515 139.672 73.5278 139.672 73.5038L139.672 73.2736C139.672 73.273 139.673 73.2725 139.674 73.2727ZM139.675 78.1787C139.675 78.1787 139.675 78.1789 139.674 78.1791C138.725 80.0015 137.717 81.7947 136.732 83.5442C131.527 92.795 127.003 100.835 135.549 105.637C137.119 106.519 138.513 108.375 139.58 110.732C139.602 110.781 139.676 110.765 139.676 110.712C139.676 110.705 139.674 110.698 139.671 110.692C138.601 108.337 137.203 106.482 135.629 105.598C127.125 100.82 131.64 92.7944 136.838 83.5603C137.78 81.8867 138.744 80.1731 139.656 78.4322C139.669 78.4075 139.676 78.3799 139.676 78.3519L139.676 78.1794C139.676 78.179 139.675 78.1787 139.675 78.1787ZM139.675 82.4443C139.675 82.4447 139.675 82.4451 139.674 82.4454C139.468 82.8135 139.262 83.1797 139.057 83.5442C133.852 92.795 129.326 100.835 137.874 105.637C138.478 105.976 139.055 106.459 139.598 107.06C139.625 107.089 139.675 107.071 139.675 107.031C139.675 107.02 139.671 107.009 139.663 107.001C139.124 106.411 138.552 105.934 137.953 105.598C129.449 100.819 133.964 92.7938 139.161 83.5597L139.576 82.8224C139.641 82.707 139.675 82.5768 139.675 82.4443ZM139.675 86.6053C139.675 86.6057 139.675 86.606 139.674 86.6064C135.442 94.3448 132.757 101.009 139.616 105.29C139.641 105.306 139.675 105.289 139.675 105.259C139.675 105.246 139.668 105.234 139.657 105.227C132.997 101.034 135.48 94.5433 139.575 86.9969C139.64 86.8769 139.675 86.7418 139.675 86.6053ZM139.675 91.426C139.675 91.3708 139.599 91.3555 139.577 91.406C137.505 96.0705 136.791 100.17 139.594 103.352C139.622 103.384 139.675 103.364 139.675 103.322C139.675 103.311 139.67 103.3 139.663 103.291C136.916 100.135 137.621 96.0707 139.67 91.4469C139.673 91.4404 139.675 91.4332 139.675 91.426ZM139.674 129.609C139.674 129.609 139.674 129.61 139.674 129.61C139.214 130.343 138.669 131.002 138.034 131.567C132.395 136.581 129.866 141.239 129.47 145.742C129.467 145.773 129.492 145.8 129.524 145.8C129.552 145.8 129.575 145.779 129.578 145.751C129.972 141.254 132.496 136.603 138.127 131.595C138.709 131.078 139.215 130.482 139.651 129.822C139.666 129.8 139.673 129.773 139.673 129.747L139.673 129.61C139.673 129.61 139.674 129.609 139.674 129.609ZM139.675 132.189C139.675 132.189 139.674 132.188 139.674 132.189C134.514 136.967 132.175 141.426 131.796 145.742C131.793 145.774 131.818 145.801 131.85 145.801C131.878 145.801 131.901 145.779 131.904 145.751C132.276 141.492 134.562 137.093 139.589 132.385C139.643 132.334 139.675 132.263 139.675 132.189ZM139.675 134.642C139.675 134.601 139.623 134.582 139.596 134.612C136.097 138.488 134.435 142.164 134.12 145.742C134.117 145.774 134.142 145.801 134.174 145.801C134.202 145.801 134.226 145.779 134.228 145.751C134.541 142.189 136.191 138.529 139.663 134.672C139.67 134.664 139.675 134.653 139.675 134.642ZM139.675 137.576C139.675 137.53 139.614 137.511 139.588 137.55C137.659 140.362 136.679 143.08 136.445 145.742C136.442 145.774 136.467 145.801 136.499 145.801C136.527 145.801 136.551 145.779 136.553 145.751C136.785 143.103 137.756 140.401 139.666 137.604C139.672 137.596 139.675 137.586 139.675 137.576ZM139.675 142.086C139.675 142.026 139.593 142.011 139.573 142.068C139.138 143.306 138.876 144.53 138.77 145.742C138.767 145.774 138.792 145.801 138.824 145.801C138.852 145.801 138.875 145.779 138.878 145.751C138.983 144.548 139.241 143.333 139.672 142.103C139.674 142.098 139.675 142.092 139.675 142.086ZM122.599 145.801C122.599 145.801 122.6 145.8 122.6 145.8C122.979 141.288 125.501 136.621 131.153 131.596C134.301 128.797 135.244 123.684 134.765 118.686C134.214 112.947 131.784 107.357 128.653 105.599C120.149 100.82 124.665 92.795 129.861 83.5609C136.289 72.1408 143.754 58.8737 128.949 47.5857C118.967 39.9751 124.311 31.5151 129.579 23.1758C133.413 17.1068 137.207 11.1018 135.036 5.52653C133.166 0.724773 130.794 -2.07032 128.628 -4.62453C127.957 -5.41524 127.306 -6.18301 126.696 -6.9798C126.687 -6.9914 126.673 -6.99821 126.658 -6.99821C126.62 -6.99821 126.598 -6.9537 126.621 -6.9229C127.225 -6.1381 127.866 -5.38088 128.528 -4.60121C130.694 -2.04881 133.063 0.7439 134.929 5.53848C137.094 11.0988 133.305 17.0972 129.476 23.1591C124.2 31.5115 118.847 39.9852 128.86 47.6192C143.635 58.885 136.177 72.1378 129.757 83.546C124.552 92.7968 120.026 100.837 128.574 105.638C131.687 107.387 134.106 112.962 134.656 118.69C135.135 123.678 134.195 128.78 131.059 131.568C125.432 136.571 122.902 141.22 122.497 145.713C122.493 145.761 122.531 145.801 122.579 145.801L122.598 145.801C122.598 145.801 122.599 145.801 122.599 145.801ZM120.274 145.801C120.275 145.801 120.275 145.8 120.275 145.8C120.655 141.288 123.177 136.621 128.829 131.596C131.976 128.797 132.92 123.684 132.44 118.686C131.889 112.947 129.459 107.357 126.329 105.599C117.824 100.82 122.34 92.795 127.537 83.5609C133.964 72.1408 141.43 58.8737 126.624 47.5857C116.643 39.9751 121.986 31.5151 127.255 23.1758C131.088 17.1068 134.882 11.1018 132.711 5.52653C130.841 0.724773 128.47 -2.07032 126.303 -4.62453C125.632 -5.41524 124.981 -6.183 124.371 -6.9798C124.362 -6.9914 124.348 -6.99821 124.334 -6.99821C124.295 -6.99821 124.273 -6.9537 124.297 -6.9229C124.9 -6.13809 125.542 -5.38088 126.204 -4.60121C128.369 -2.04881 130.738 0.7439 132.604 5.53848C134.77 11.0988 130.98 17.0972 127.152 23.1591C121.875 31.5115 116.522 39.9852 126.535 47.6192C141.31 58.885 133.853 72.1378 127.432 83.546C122.227 92.7968 117.702 100.837 126.249 105.638C129.363 107.387 131.783 112.962 132.332 118.69C132.811 123.678 131.871 128.78 128.735 131.568C123.108 136.571 120.577 141.22 120.173 145.713C120.168 145.761 120.206 145.801 120.254 145.801L120.274 145.801C120.274 145.801 120.274 145.801 120.274 145.801ZM117.95 145.801C117.95 145.801 117.95 145.8 117.95 145.8C118.33 141.288 120.852 136.621 126.504 131.596C129.652 128.797 130.595 123.684 130.116 118.686C129.564 112.947 127.134 107.357 124.004 105.599C115.5 100.82 120.015 92.795 125.212 83.5609C131.639 72.1408 139.105 58.8737 124.3 47.5857C114.318 39.9751 119.662 31.5151 124.93 23.1758C128.763 17.1068 132.557 11.1018 130.386 5.52653C128.517 0.724773 126.145 -2.07032 123.979 -4.62453C123.308 -5.41524 122.657 -6.18301 122.046 -6.9798C122.038 -6.9914 122.024 -6.99821 122.009 -6.99821C121.97 -6.99821 121.948 -6.9537 121.972 -6.9229C122.575 -6.1381 123.217 -5.38088 123.879 -4.60121C126.044 -2.04881 128.414 0.7439 130.28 5.53848C132.445 11.0988 128.655 17.0972 124.827 23.1591C119.551 31.5115 114.198 39.9852 124.21 47.6192C138.986 58.885 131.528 72.1378 125.108 83.546C119.903 92.7968 115.378 100.837 123.925 105.638C127.038 107.387 129.457 112.962 130.007 118.69C130.486 123.678 129.546 128.78 126.41 131.568C120.783 136.571 118.253 141.22 117.848 145.713C117.844 145.761 117.881 145.801 117.929 145.801L117.949 145.801C117.949 145.801 117.949 145.801 117.95 145.801ZM115.626 145.801C115.626 145.801 115.626 145.801 115.625 145.801L115.606 145.801C115.558 145.801 115.52 145.76 115.525 145.712C115.929 141.219 118.46 136.57 124.086 131.567C127.221 128.779 128.161 123.677 127.683 118.689C127.133 112.962 124.715 107.387 121.601 105.638C113.055 100.836 117.579 92.7956 122.784 83.5454C129.205 72.1372 136.662 58.8844 121.887 47.6186C111.874 39.9846 117.227 31.5115 122.503 23.1585C126.333 17.0966 130.122 11.0982 127.956 5.53789C126.089 0.743303 123.72 -2.0494 121.555 -4.60181C120.895 -5.38148 120.252 -6.13869 119.648 -6.9235C119.625 -6.9543 119.647 -6.99881 119.686 -6.99881C119.7 -6.99881 119.714 -6.992 119.723 -6.9804C120.333 -6.1836 120.984 -5.41584 121.655 -4.62513C123.823 -2.07033 126.193 0.724772 128.063 5.52593C130.234 11.1012 126.44 17.1068 122.607 23.1752C117.338 31.5145 111.994 39.9745 121.976 47.5851C136.781 58.8731 129.316 72.1396 122.889 83.5603C117.693 92.7944 113.176 100.82 121.68 105.598C124.81 107.357 127.241 112.946 127.792 118.686C128.273 123.683 127.328 128.797 124.18 131.595C118.529 136.621 116.007 141.288 115.627 145.799C115.627 145.8 115.627 145.8 115.626 145.801ZM113.301 145.801C113.301 145.801 113.301 145.801 113.301 145.801L113.281 145.801C113.233 145.801 113.196 145.76 113.2 145.713C113.605 141.219 116.135 136.57 121.762 131.567C124.897 128.779 125.837 123.677 125.359 118.689C124.809 112.962 122.39 107.387 119.277 105.638C110.73 100.836 115.254 92.7956 120.46 83.5454C126.88 72.1372 134.338 58.8844 119.562 47.6186C109.549 39.9846 114.902 31.5115 120.179 23.1585C124.008 17.0966 127.797 11.0982 125.632 5.53789C123.764 0.743303 121.395 -2.0494 119.231 -4.60181C118.57 -5.38148 117.927 -6.1387 117.324 -6.9235C117.3 -6.9543 117.322 -6.99881 117.361 -6.99881C117.376 -6.99881 117.389 -6.992 117.398 -6.9804C118.009 -6.1836 118.659 -5.41584 119.331 -4.62513C121.498 -2.07033 123.869 0.724772 125.738 5.52593C127.909 11.1012 124.116 17.1068 120.282 23.1752C115.014 31.5145 109.67 39.9745 119.651 47.5851C134.457 58.8731 126.991 72.1396 120.564 83.5603C115.368 92.7944 110.852 100.82 119.356 105.598C122.485 107.357 124.916 112.946 125.468 118.686C125.948 123.683 125.003 128.797 121.856 131.595C116.204 136.621 113.682 141.288 113.302 145.799C113.302 145.8 113.302 145.8 113.301 145.801ZM110.977 145.801C110.977 145.801 110.976 145.801 110.976 145.801L110.956 145.801C110.909 145.801 110.871 145.76 110.875 145.712C111.28 141.219 113.81 136.57 119.437 131.567C122.572 128.779 123.512 123.677 123.034 118.689C122.484 112.962 120.065 107.387 116.952 105.638C108.405 100.836 112.93 92.7956 118.135 83.5454C124.555 72.1372 132.013 58.8844 117.237 47.6186C107.225 39.9846 112.578 31.5115 117.854 23.1585C121.684 17.0966 125.472 11.0982 123.307 5.53789C121.44 0.743303 119.07 -2.0494 116.906 -4.60181C116.245 -5.38148 115.603 -6.13869 114.999 -6.9235C114.975 -6.9543 114.997 -6.99881 115.036 -6.99881C115.051 -6.99881 115.065 -6.992 115.074 -6.9804C115.684 -6.1836 116.335 -5.41584 117.006 -4.62513C119.174 -2.07033 121.544 0.724772 123.414 5.52593C125.585 11.1012 121.79 17.1068 117.957 23.1752C112.689 31.5145 107.345 39.9745 117.327 47.5851C132.132 58.8731 124.666 72.1396 118.239 83.5603C113.043 92.7944 108.527 100.82 117.031 105.598C120.16 107.357 122.592 112.946 123.143 118.686C123.623 123.683 122.679 128.797 119.531 131.595C113.879 136.621 111.356 141.288 110.978 145.799C110.978 145.8 110.977 145.8 110.977 145.801ZM108.651 145.801C108.652 145.801 108.652 145.8 108.652 145.8C109.032 141.288 111.553 136.621 117.205 131.596C120.352 128.797 121.296 123.684 120.817 118.686C120.266 112.947 117.836 107.357 114.705 105.599C106.201 100.82 110.717 92.795 115.913 83.5609C122.341 72.1408 129.806 58.8737 115.001 47.5857C105.019 39.9751 110.363 31.5151 115.632 23.1758C119.465 17.1068 123.259 11.1018 121.088 5.52653C119.218 0.724773 116.847 -2.07032 114.68 -4.62453C114.009 -5.41524 113.358 -6.18301 112.748 -6.9798C112.739 -6.9914 112.725 -6.99821 112.711 -6.99821C112.672 -6.99821 112.65 -6.9537 112.673 -6.9229C113.277 -6.13809 113.918 -5.38088 114.58 -4.60121C116.746 -2.04881 119.115 0.743899 120.981 5.53848C123.146 11.0988 119.357 17.0972 115.528 23.1591C110.252 31.5115 104.899 39.9852 114.912 47.6192C129.687 58.885 122.229 72.1378 115.809 83.546C110.604 92.7968 106.078 100.837 114.626 105.638C117.74 107.387 120.159 112.962 120.708 118.69C121.188 123.678 120.248 128.78 117.111 131.568C111.484 136.571 108.954 141.22 108.549 145.713C108.545 145.761 108.583 145.801 108.631 145.801L108.65 145.801C108.651 145.801 108.651 145.801 108.651 145.801ZM106.326 145.801C106.327 145.801 106.327 145.8 106.327 145.8C106.707 141.288 109.229 136.621 114.881 131.596C118.027 128.797 118.972 123.684 118.493 118.686C117.941 112.947 115.511 107.357 112.381 105.599C103.876 100.82 108.392 92.795 113.589 83.5609C120.016 72.1408 127.482 58.8737 112.676 47.5857C102.695 39.9751 108.039 31.5151 113.307 23.1758C117.14 17.1068 120.934 11.1018 118.763 5.52653C116.894 0.724772 114.522 -2.07033 112.355 -4.62453C111.684 -5.41525 111.034 -6.18301 110.423 -6.9798C110.414 -6.9914 110.401 -6.99821 110.386 -6.99821C110.347 -6.99821 110.325 -6.95371 110.349 -6.92291C110.952 -6.1381 111.594 -5.38088 112.256 -4.60121C114.421 -2.04881 116.79 0.743899 118.657 5.53848C120.822 11.0988 117.032 17.0972 113.204 23.1591C107.927 31.5115 102.574 39.9852 112.587 47.6192C127.362 58.885 119.905 72.1378 113.485 83.546C108.279 92.7968 103.755 100.837 112.302 105.638C115.415 107.387 117.834 112.962 118.384 118.69C118.863 123.678 117.923 128.78 114.787 131.568C109.16 136.571 106.63 141.22 106.225 145.713C106.221 145.761 106.258 145.801 106.306 145.801L106.326 145.801C106.326 145.801 106.326 145.801 106.326 145.801ZM104.002 145.801C104.002 145.801 104.003 145.8 104.003 145.8C104.382 141.288 106.904 136.621 112.556 131.596C115.704 128.797 116.647 123.684 116.168 118.686C115.617 112.947 113.187 107.357 110.056 105.599C101.552 100.82 106.067 92.795 111.264 83.5609C117.691 72.1408 125.157 58.8737 110.352 47.5857C100.37 39.9751 105.714 31.5151 110.982 23.1758C114.817 17.1068 118.61 11.1018 116.438 5.52653C114.569 0.724772 112.197 -2.07033 110.031 -4.62453C109.36 -5.41525 108.709 -6.18301 108.099 -6.9798C108.09 -6.9914 108.076 -6.99821 108.061 -6.99821C108.022 -6.99821 108 -6.9537 108.024 -6.9229C108.627 -6.13809 109.269 -5.38088 109.931 -4.60121C112.096 -2.04881 114.466 0.743899 116.332 5.53848C118.497 11.0988 114.708 17.0972 110.879 23.1591C105.603 31.5115 100.25 39.9852 110.262 47.6192C125.038 58.885 117.58 72.1378 111.16 83.546C105.955 92.7968 101.43 100.837 109.977 105.638C113.09 107.387 115.51 112.962 116.059 118.69C116.538 123.678 115.598 128.78 112.462 131.568C106.835 136.571 104.305 141.22 103.9 145.713C103.896 145.761 103.933 145.801 103.981 145.801L104.001 145.801C104.001 145.801 104.002 145.801 104.002 145.801ZM101.678 145.801C101.678 145.801 101.678 145.801 101.678 145.801L101.658 145.801C101.61 145.801 101.572 145.76 101.577 145.712C101.981 141.219 104.512 136.57 110.139 131.567C113.274 128.779 114.215 123.677 113.736 118.689C113.185 112.962 110.767 107.387 107.653 105.638C99.1068 100.836 103.631 92.7956 108.836 83.5454C115.257 72.1372 122.714 58.8844 107.939 47.6186C97.9261 39.9846 103.279 31.5115 108.556 23.1585C112.385 17.0966 116.174 11.0982 114.008 5.53789C112.141 0.743303 109.772 -2.0494 107.608 -4.60181C106.947 -5.38148 106.304 -6.13869 105.701 -6.9235C105.677 -6.9543 105.699 -6.99881 105.738 -6.99881C105.752 -6.99881 105.766 -6.992 105.775 -6.9804C106.385 -6.1836 107.036 -5.41584 107.707 -4.62513C109.875 -2.07033 112.245 0.724772 114.115 5.52593C116.286 11.1012 112.492 17.1068 108.659 23.1752C103.39 31.5145 98.0465 39.9745 108.028 47.5851C122.834 58.8731 115.368 72.1396 108.941 83.5603C103.745 92.7944 99.2283 100.82 107.733 105.598C110.862 107.357 113.293 112.946 113.844 118.686C114.325 123.683 113.38 128.797 110.233 131.595C104.581 136.621 102.059 141.288 101.679 145.799C101.679 145.8 101.679 145.8 101.678 145.801ZM99.3536 145.801C99.3534 145.801 99.3531 145.801 99.3529 145.801L99.3332 145.801C99.2854 145.801 99.2478 145.76 99.252 145.712C99.6568 141.219 102.187 136.57 107.814 131.567C110.949 128.779 111.889 123.677 111.411 118.689C110.861 112.962 108.442 107.387 105.329 105.638C96.7822 100.836 101.307 92.7956 106.512 83.5454C112.932 72.1372 120.39 58.8844 105.614 47.6186C95.6015 39.9846 100.955 31.5115 106.231 23.1585C110.061 17.0966 113.849 11.0982 111.684 5.53789C109.816 0.743302 107.447 -2.0494 105.283 -4.60181C104.622 -5.38148 103.979 -6.13869 103.376 -6.9235C103.352 -6.9543 103.374 -6.99881 103.413 -6.99881C103.428 -6.99881 103.441 -6.992 103.45 -6.9804C104.061 -6.1836 104.712 -5.41584 105.383 -4.62513C107.55 -2.07033 109.921 0.724772 111.79 5.52593C113.961 11.1012 110.167 17.1068 106.334 23.1752C101.066 31.5145 95.7219 39.9745 105.704 47.5851C120.509 58.8731 113.043 72.1396 106.616 83.5603C101.42 92.7944 96.9037 100.82 105.408 105.598C108.537 107.357 110.968 112.946 111.52 118.686C112 123.683 111.056 128.797 107.908 131.595C102.256 136.621 99.7341 141.288 99.3545 145.799C99.3544 145.8 99.3541 145.8 99.3536 145.801ZM97.0286 145.8C97.0286 145.801 97.0283 145.801 97.028 145.801L96.9764 145.801C96.9459 145.801 96.9219 145.775 96.9246 145.744C97.3202 141.241 99.8491 136.582 105.489 131.567C108.624 128.779 109.564 123.677 109.086 118.689C108.536 112.962 106.117 107.387 103.004 105.638C94.4575 100.836 98.9819 92.7956 104.187 83.5454C110.607 72.1372 118.065 58.8844 103.29 47.6186C93.2768 39.9846 98.63 31.5115 103.906 23.1585C107.736 17.0966 111.524 11.0982 109.359 5.53789C107.492 0.743302 105.122 -2.0494 102.957 -4.60181C102.296 -5.38148 101.654 -6.1387 101.05 -6.92351C101.026 -6.9543 101.048 -6.99881 101.087 -6.99881C101.102 -6.99881 101.116 -6.992 101.125 -6.9804C101.735 -6.1836 102.386 -5.41584 103.057 -4.62513C105.224 -2.07033 107.595 0.724772 109.465 5.52593C111.636 11.1012 107.841 17.1068 104.008 23.1752C98.74 31.5145 93.3961 39.9745 103.378 47.5851C118.183 58.8731 110.717 72.1396 104.29 83.5603C99.0942 92.7944 94.5779 100.82 103.082 105.598C106.211 107.357 108.643 112.946 109.194 118.686C109.674 123.683 108.73 128.797 105.582 131.595C99.9298 136.622 97.4069 141.289 97.0286 145.8ZM94.7043 145.801C94.7041 145.801 94.7038 145.801 94.7036 145.801L94.6839 145.801C94.6361 145.801 94.5985 145.76 94.6027 145.712C95.0075 141.219 97.5378 136.57 103.165 131.567C106.3 128.779 107.24 123.677 106.762 118.689C106.211 112.962 103.793 107.387 100.679 105.638C92.1329 100.836 96.6572 92.7956 101.862 83.5454C108.283 72.1372 115.74 58.8844 100.965 47.6186C90.9522 39.9846 96.3053 31.5115 101.582 23.1585C105.411 17.0966 109.2 11.0982 107.034 5.53789C105.167 0.743302 102.798 -2.0494 100.634 -4.60181C99.9727 -5.38148 99.3301 -6.1387 98.7267 -6.92351C98.703 -6.9543 98.725 -6.99881 98.7638 -6.99881C98.7784 -6.99881 98.7922 -6.992 98.8011 -6.9804C99.4114 -6.1836 100.062 -5.41584 100.733 -4.62513C102.901 -2.07033 105.271 0.724771 107.141 5.52593C109.312 11.1012 105.518 17.1068 101.685 23.1752C96.4165 31.5145 91.0726 39.9745 101.054 47.5851C115.86 58.8731 108.394 72.1396 101.967 83.5603C96.7707 92.7944 92.2544 100.82 100.759 105.598C103.888 107.357 106.319 112.946 106.871 118.686C107.351 123.683 106.406 128.797 103.259 131.595C97.6067 136.621 95.0837 141.288 94.7052 145.799C94.7051 145.8 94.7048 145.8 94.7043 145.801ZM92.3785 145.801C92.379 145.801 92.3793 145.8 92.3794 145.8C92.7591 141.288 95.2809 136.621 100.933 131.596C104.08 128.797 105.024 123.684 104.545 118.686C103.993 112.947 101.563 107.357 98.4328 105.599C89.9286 100.82 94.4438 92.795 99.641 83.5609C106.068 72.1408 113.534 58.8737 98.7285 47.5857C88.7468 39.9751 94.0907 31.5151 99.359 23.1758C103.193 17.1068 106.986 11.1018 104.815 5.52653C102.946 0.724772 100.574 -2.07033 98.4076 -4.62453C97.7364 -5.41525 97.0856 -6.18301 96.4753 -6.9798C96.4664 -6.9914 96.4526 -6.99821 96.438 -6.99821C96.3992 -6.99821 96.3772 -6.9537 96.4009 -6.9229C97.0043 -6.13809 97.6458 -5.38088 98.3079 -4.60122C100.473 -2.04881 102.843 0.743899 104.709 5.53848C106.874 11.0988 103.084 17.0972 99.2558 23.1591C93.9795 31.5115 88.6264 39.9852 98.6391 47.6192C113.415 58.885 105.957 72.1378 99.5367 83.546C94.3314 92.7968 89.8071 100.837 98.3537 105.638C101.467 107.387 103.887 112.962 104.436 118.69C104.915 123.678 103.975 128.78 100.839 131.568C95.212 136.571 92.6817 141.22 92.277 145.713C92.2727 145.761 92.3103 145.801 92.3581 145.801L92.3778 145.801C92.378 145.801 92.3783 145.801 92.3785 145.801ZM90.0539 145.801C90.0544 145.801 90.0547 145.8 90.0547 145.8C90.4344 141.288 92.9563 136.621 98.6082 131.596C101.756 128.797 102.699 123.684 102.22 118.686C101.669 112.947 99.2386 107.357 96.1081 105.599C87.6039 100.82 92.1191 92.795 97.3163 83.5609C103.743 72.1408 111.209 58.8737 96.4039 47.5857C86.4221 39.9751 91.7661 31.5151 97.0343 23.1758C100.869 17.1068 104.662 11.1018 102.491 5.52653C100.621 0.724772 98.2494 -2.07033 96.0829 -4.62453C95.4118 -5.41525 94.761 -6.18301 94.1507 -6.9798C94.1418 -6.9914 94.128 -6.99821 94.1134 -6.99821C94.0745 -6.99821 94.0525 -6.9537 94.0762 -6.9229C94.6796 -6.1381 95.3212 -5.38088 95.9832 -4.60122C98.1485 -2.04881 100.518 0.743899 102.384 5.53848C104.549 11.0988 100.76 17.0972 96.9312 23.1591C91.6549 31.5115 86.3018 39.9852 96.3145 47.6192C111.09 58.885 103.632 72.1378 97.212 83.546C92.0068 92.7968 87.4824 100.837 96.0291 105.638C99.1423 107.387 101.562 112.962 102.111 118.69C102.59 123.678 101.65 128.78 98.5142 131.568C92.8873 136.571 90.3571 141.22 89.9523 145.713C89.948 145.761 89.9857 145.801 90.0335 145.801L90.0531 145.801C90.0534 145.801 90.0536 145.801 90.0539 145.801ZM87.7292 145.801C87.7297 145.801 87.7301 145.8 87.7301 145.8C88.1098 141.288 90.6316 136.621 96.2835 131.596C99.4312 128.797 100.375 123.684 99.8954 118.686C99.3441 112.947 96.914 107.357 93.7835 105.599C85.2793 100.82 89.7945 92.795 94.9917 83.5609C101.419 72.1408 108.885 58.8737 94.0792 47.5857C84.0975 39.9751 89.4414 31.5151 94.7097 23.1758C98.544 17.1068 102.337 11.1018 100.166 5.52653C98.2964 0.724772 95.9247 -2.07033 93.7583 -4.62453C93.0872 -5.41525 92.4363 -6.18301 91.826 -6.9798C91.8171 -6.9914 91.8033 -6.99821 91.7887 -6.99821C91.7499 -6.99821 91.7279 -6.95371 91.7516 -6.92291C92.355 -6.1381 92.9965 -5.38088 93.6586 -4.60122C95.8239 -2.04881 98.1932 0.743898 100.059 5.53848C102.225 11.0988 98.4351 17.0972 94.6065 23.1591C89.3302 31.5115 83.9771 39.9852 93.9898 47.6192C108.765 58.885 101.308 72.1378 94.8874 83.546C89.6821 92.7968 85.1578 100.837 93.7044 105.638C96.8177 107.387 99.2375 112.962 99.7866 118.69C100.266 123.678 99.3257 128.78 96.1895 131.568C90.5627 136.571 88.0324 141.22 87.6277 145.713C87.6234 145.761 87.661 145.801 87.7088 145.801L87.7285 145.801C87.7287 145.801 87.729 145.801 87.7292 145.801ZM85.4057 145.801C85.4055 145.801 85.4052 145.801 85.405 145.801L85.3853 145.801C85.3375 145.801 85.2999 145.76 85.3042 145.712C85.7089 141.219 88.2392 136.57 93.866 131.567C97.0011 128.779 97.941 123.677 97.463 118.689C96.9128 112.962 94.4942 107.387 91.3809 105.638C82.8343 100.836 87.3586 92.7956 92.5639 83.5454C98.9842 72.1372 106.442 58.8844 91.6663 47.6186C81.6536 39.9846 87.0067 31.5115 92.283 23.1585C96.1127 17.0966 99.9012 11.0982 97.7359 5.53789C95.8686 0.743302 93.4992 -2.04941 91.3351 -4.60181C90.6742 -5.38148 90.0315 -6.1387 89.4281 -6.92351C89.4044 -6.9543 89.4264 -6.99881 89.4652 -6.99881C89.4798 -6.99881 89.4936 -6.992 89.5025 -6.9804C90.1128 -6.18361 90.7637 -5.41584 91.4348 -4.62513C93.6024 -2.07033 95.9729 0.724771 97.8425 5.52593C100.014 11.1012 96.2193 17.1068 92.3862 23.1752C87.1179 31.5145 81.774 39.9745 91.7557 47.5851C106.561 58.8731 99.0953 72.1396 92.6682 83.5603C87.4721 92.7944 82.9558 100.82 91.46 105.598C94.5893 107.357 97.0206 112.946 97.5719 118.686C98.0522 123.683 97.1077 128.797 93.96 131.595C88.3081 136.621 85.7851 141.288 85.4066 145.799C85.4065 145.8 85.4062 145.8 85.4057 145.801ZM83.0807 145.8C83.0807 145.801 83.0805 145.801 83.0801 145.801L83.0286 145.801C82.998 145.801 82.974 145.775 82.9767 145.744C83.3723 141.241 85.9012 136.582 91.5414 131.567C94.6764 128.779 95.6164 123.677 95.1384 118.689C94.5882 112.962 92.1696 107.387 89.0563 105.638C80.5096 100.836 85.034 92.7956 90.2392 83.5454C96.6595 72.1372 104.117 58.8844 89.3417 47.6186C79.329 39.9846 84.6821 31.5115 89.9584 23.1585C93.7881 17.0966 97.5765 11.0982 95.4112 5.53789C93.5439 0.743302 91.1746 -2.04941 89.0093 -4.60181C88.3484 -5.38148 87.7057 -6.13869 87.1023 -6.9235C87.0786 -6.9543 87.1006 -6.99881 87.1394 -6.99881C87.1541 -6.99881 87.1678 -6.992 87.1767 -6.9804C87.7871 -6.1836 88.4379 -5.41584 89.109 -4.62513C91.2766 -2.07033 93.6471 0.724771 95.5167 5.52593C97.6877 11.1012 93.8936 17.1068 90.0604 23.1752C84.7921 31.5145 79.4482 39.9745 89.43 47.5851C104.235 58.8731 96.7696 72.1396 90.3424 83.5603C85.1463 92.7944 80.63 100.82 89.1342 105.598C92.2635 107.357 94.6948 112.946 95.2462 118.686C95.7264 123.683 94.7819 128.797 91.6342 131.595C85.982 136.622 83.459 141.289 83.0807 145.8ZM80.7564 145.801C80.7562 145.801 80.756 145.801 80.7557 145.801L80.7361 145.801C80.6882 145.801 80.6506 145.76 80.6549 145.712C81.0596 141.219 83.5899 136.57 89.2167 131.567C92.3518 128.779 93.2917 123.677 92.8137 118.689C92.2635 112.962 89.8449 107.387 86.7316 105.638C78.185 100.836 82.7093 92.7956 87.9146 83.5454C94.3349 72.1372 101.793 58.8844 87.017 47.6186C77.0043 39.9846 82.3574 31.5115 87.6337 23.1585C91.4634 17.0966 95.2519 11.0982 93.0866 5.53789C91.2193 0.743302 88.8499 -2.04941 86.6858 -4.60181C86.0249 -5.38148 85.3822 -6.13869 84.7788 -6.9235C84.7551 -6.9543 84.7771 -6.99881 84.8159 -6.99881C84.8306 -6.99881 84.8443 -6.992 84.8532 -6.9804C85.4636 -6.1836 86.1144 -5.41584 86.7855 -4.62513C88.9531 -2.07033 91.3236 0.724771 93.1932 5.52593C95.3642 11.1012 91.5701 17.1068 87.7369 23.1752C82.4686 31.5145 77.1247 39.9745 87.1065 47.5851C101.912 58.8731 94.4461 72.1396 88.0189 83.5603C82.8228 92.7944 78.3065 100.82 86.8107 105.598C89.94 107.357 92.3713 112.946 92.9227 118.686C93.4029 123.683 92.4584 128.797 89.3107 131.595C83.6588 136.621 81.1358 141.288 80.7573 145.799C80.7573 145.8 80.7569 145.8 80.7564 145.801ZM78.4306 145.801C78.4311 145.801 78.4315 145.8 78.4315 145.8C78.8112 141.288 81.333 136.621 86.9849 131.596C90.1326 128.797 91.076 123.684 90.5969 118.686C90.0455 112.947 87.6154 107.357 84.4849 105.599C75.9807 100.82 80.4959 92.795 85.6931 83.5609C92.1203 72.1408 99.5859 58.8737 84.7807 47.5857C74.7989 39.9751 80.1428 31.5151 85.4111 23.1758C89.2454 17.1068 93.0384 11.1018 90.8674 5.52653C88.9978 0.724771 86.6262 -2.07033 84.4597 -4.62453C83.7886 -5.41525 83.1378 -6.18301 82.5274 -6.9798C82.5185 -6.9914 82.5048 -6.99821 82.4901 -6.99821C82.4513 -6.99821 82.4293 -6.9537 82.453 -6.9229C83.0564 -6.1381 83.6979 -5.38088 84.36 -4.60122C86.5253 -2.04881 88.8946 0.743898 90.7608 5.53848C92.9261 11.0988 89.1365 17.0972 85.3079 23.1591C80.0316 31.5115 74.6785 39.9852 84.6912 47.6192C99.4667 58.885 92.0091 72.1378 85.5888 83.546C80.3836 92.7968 75.8592 100.837 84.4058 105.638C87.5191 107.387 89.9378 112.962 90.488 118.69C90.9671 123.678 90.0272 128.78 86.891 131.568C81.2641 136.571 78.7339 141.22 78.3291 145.713C78.3248 145.761 78.3624 145.801 78.4103 145.801L78.4299 145.801C78.4302 145.801 78.4304 145.801 78.4306 145.801ZM76.106 145.801C76.1065 145.801 76.1068 145.8 76.1069 145.8C76.4865 141.288 79.0084 136.621 84.6603 131.596C87.8068 128.797 88.7514 123.684 88.2722 118.686C87.7209 112.947 85.2908 107.357 82.1603 105.599C73.6561 100.82 78.1712 92.795 83.3685 83.5609C89.7956 72.1408 97.2613 58.8737 82.456 47.5857C72.4742 39.9751 77.8182 31.5151 83.0865 23.1758C86.9196 17.1068 90.7138 11.1018 88.5427 5.52653C86.6732 0.724771 84.3015 -2.07033 82.1351 -4.62453C81.4639 -5.41525 80.8131 -6.18301 80.2028 -6.9798C80.1939 -6.9914 80.1801 -6.99821 80.1655 -6.99821C80.1266 -6.99821 80.1047 -6.95371 80.1283 -6.92291C80.7317 -6.1381 81.3733 -5.38088 82.0353 -4.60122C84.2007 -2.04881 86.57 0.743898 88.4361 5.53848C90.6015 11.0988 86.8119 17.0972 82.9833 23.1591C77.707 31.5115 72.3539 39.9852 82.3666 47.6192C97.1421 58.885 89.6844 72.1378 83.2641 83.546C78.0589 92.7968 73.5345 100.837 82.0812 105.638C85.1945 107.387 87.6143 112.962 88.1633 118.69C88.6425 123.678 87.7025 128.78 84.5663 131.568C78.9395 136.571 76.4092 141.22 76.0044 145.713C76.0001 145.761 76.0378 145.801 76.0856 145.801L76.1052 145.801C76.1055 145.801 76.1058 145.801 76.106 145.801ZM73.7822 145.801C74.1616 141.289 76.6834 136.622 82.3357 131.596C85.4822 128.797 86.4267 123.684 85.9476 118.686C85.3962 112.947 82.9661 107.357 79.8356 105.599C71.3314 100.82 75.8466 92.795 81.0438 83.5609C87.471 72.1408 94.9367 58.8737 80.1314 47.5857C70.1496 39.9751 75.4935 31.5151 80.7618 23.1758C84.595 17.1068 88.3891 11.1018 86.2181 5.52653C84.3485 0.724771 81.9769 -2.07033 79.8104 -4.62453C79.1393 -5.41525 78.4885 -6.18301 77.8781 -6.9798C77.8692 -6.9914 77.8555 -6.99821 77.8409 -6.99821C77.802 -6.99821 77.78 -6.9537 77.8037 -6.9229C78.4071 -6.1381 79.0487 -5.38088 79.7107 -4.60122C81.876 -2.04881 84.2454 0.743898 86.1126 5.53848C88.2779 11.0988 84.4884 17.0972 80.6598 23.1591C75.3835 31.5115 70.0304 39.9852 80.0431 47.6192C94.8186 58.885 87.3609 72.1378 80.9406 83.546C75.7354 92.7968 71.2099 100.837 79.7577 105.638C82.871 107.387 85.2908 112.962 85.8398 118.69C86.319 123.678 85.379 128.78 82.2428 131.568C76.6026 136.583 74.0737 141.242 73.6781 145.745C73.6754 145.775 73.6994 145.801 73.73 145.801L73.7816 145.801C73.7819 145.801 73.7822 145.801 73.7822 145.801ZM71.4567 145.801C71.4572 145.801 71.4575 145.8 71.4576 145.8C71.8373 141.288 74.3591 136.621 80.011 131.596C83.1587 128.797 84.1021 123.684 83.6229 118.686C83.0716 112.947 80.6415 107.357 77.511 105.599C69.0068 100.82 73.5219 92.795 78.7192 83.5609C85.1463 72.1408 92.612 58.8737 77.8067 47.5857C67.825 39.9751 73.1689 31.5151 78.4372 23.1758C82.2703 17.1068 86.0645 11.1018 83.8934 5.52653C82.0239 0.724771 79.6522 -2.07033 77.4858 -4.62453C76.8146 -5.41525 76.1638 -6.18301 75.5535 -6.9798C75.5446 -6.9914 75.5308 -6.99821 75.5162 -6.99821C75.4774 -6.99821 75.4554 -6.9537 75.479 -6.9229C76.0824 -6.1381 76.724 -5.38088 77.386 -4.60122C79.5514 -2.04881 81.9207 0.743898 83.7868 5.53848C85.9522 11.0988 82.1626 17.0972 78.334 23.1591C73.0577 31.5115 67.7046 39.9852 77.7173 47.6192C92.4928 58.885 85.0351 72.1378 78.6148 83.546C73.4096 92.7968 68.8841 100.837 77.4319 105.638C80.5452 107.387 82.965 112.962 83.514 118.69C83.9932 123.678 83.0532 128.78 79.917 131.568C74.2901 136.571 71.7599 141.22 71.3552 145.713C71.3509 145.761 71.3885 145.801 71.4363 145.801L71.456 145.801C71.4562 145.801 71.4565 145.801 71.4567 145.801ZM69.1332 145.801C69.133 145.801 69.1327 145.801 69.1325 145.801L69.1128 145.801C69.065 145.801 69.0274 145.76 69.0316 145.712C69.4364 141.219 71.9667 136.57 77.5935 131.567C80.7286 128.779 81.6685 123.677 81.1905 118.689C80.6403 112.962 78.2217 107.387 75.1084 105.638C66.5618 100.836 71.0861 92.7956 76.2913 83.5454C82.7116 72.1372 90.1693 58.8844 75.3938 47.6186C65.3811 39.9846 70.7342 31.5115 76.0105 23.1585C79.8402 17.0966 83.6287 11.0982 81.4634 5.53789C79.5961 0.743301 77.2267 -2.04941 75.0625 -4.60181C74.4016 -5.38148 73.759 -6.13869 73.1555 -6.9235C73.1319 -6.9543 73.1539 -6.99881 73.1927 -6.99881C73.2073 -6.99881 73.2211 -6.992 73.23 -6.9804C73.8403 -6.1836 74.4911 -5.41584 75.1623 -4.62513C77.3299 -2.07033 79.7004 0.72477 81.5699 5.52593C83.741 11.1012 79.9468 17.1068 76.1137 23.1752C70.8454 31.5145 65.5015 39.9745 75.4832 47.5851C90.2885 58.8731 82.8228 72.1396 76.3957 83.5603C71.1996 92.7944 66.6833 100.82 75.1875 105.598C78.3168 107.357 80.7481 112.946 81.2994 118.686C81.7797 123.683 80.8352 128.797 77.6875 131.595C72.0356 136.621 69.5137 141.288 69.1341 145.799C69.134 145.8 69.1337 145.8 69.1332 145.801ZM66.8086 145.801C66.8083 145.801 66.8081 145.801 66.8078 145.801L66.7882 145.801C66.7403 145.801 66.7027 145.76 66.707 145.712C67.1118 141.219 69.642 136.57 75.2689 131.567C78.4039 128.779 79.345 123.677 78.8659 118.689C78.3157 112.962 75.897 107.387 72.7837 105.638C64.2371 100.836 68.7615 92.7956 73.9667 83.5454C80.387 72.1372 87.8446 58.8844 73.0692 47.6186C63.0564 39.9846 68.4096 31.5115 73.6859 23.1585C77.5156 17.0966 81.304 11.0982 79.1387 5.53788C77.2714 0.743301 74.9021 -2.04941 72.7379 -4.60181C72.077 -5.38148 71.4344 -6.1387 70.8309 -6.92351C70.8072 -6.9543 70.8292 -6.99881 70.8681 -6.99881C70.8827 -6.99881 70.8964 -6.992 70.9053 -6.9804C71.5157 -6.18361 72.1665 -5.41585 72.8376 -4.62513C75.0052 -2.07033 77.3757 0.72477 79.2453 5.52593C81.4163 11.1012 77.6222 17.1068 73.789 23.1752C68.5208 31.5145 63.1768 39.9745 73.1586 47.5851C87.9639 58.8731 80.4982 72.1396 74.071 83.5603C68.8749 92.7944 64.3586 100.82 72.8628 105.598C75.9922 107.357 78.4234 112.946 78.9748 118.686C79.4551 123.683 78.5105 128.797 75.3629 131.595C69.7109 136.621 67.1891 141.288 66.8094 145.799C66.8094 145.8 66.8091 145.8 66.8086 145.801ZM64.4839 145.801C64.4837 145.801 64.4834 145.801 64.4832 145.801L64.4634 145.801C64.4156 145.801 64.3781 145.76 64.3823 145.713C64.7871 141.219 67.3173 136.57 72.9442 131.567C76.0793 128.779 77.0192 123.677 76.5412 118.689C75.991 112.962 73.5724 107.387 70.4591 105.638C61.9125 100.836 66.4368 92.7956 71.6421 83.5454C78.0623 72.1372 85.52 58.8844 70.7445 47.6186C60.7318 39.9846 66.0849 31.5115 71.3612 23.1585C75.1909 17.0966 78.9794 11.0982 76.8141 5.53788C74.9468 0.743301 72.5774 -2.04941 70.4133 -4.60181C69.7523 -5.38148 69.1097 -6.13869 68.5063 -6.9235C68.4826 -6.9543 68.5046 -6.99881 68.5434 -6.99881C68.558 -6.99881 68.5718 -6.992 68.5807 -6.9804C69.191 -6.1836 69.8418 -5.41585 70.513 -4.62513C72.6806 -2.07033 75.0511 0.72477 76.9207 5.52593C79.0917 11.1012 75.2975 17.1068 71.4644 23.1752C66.1961 31.5145 60.8522 39.9745 70.8339 47.5851C85.6392 58.8731 78.1735 72.1396 71.7464 83.5603C66.5503 92.7944 62.034 100.82 70.5382 105.598C73.6675 107.357 76.0988 112.946 76.6501 118.686C77.1304 123.683 76.1859 128.797 73.0382 131.595C67.3863 136.621 64.8644 141.288 64.4848 145.799C64.4847 145.8 64.4844 145.8 64.4839 145.801ZM62.1581 145.801C62.1586 145.801 62.159 145.8 62.159 145.8C62.5387 141.288 65.0605 136.621 70.7124 131.596C73.8601 128.797 74.8035 123.684 74.3243 118.686C73.773 112.947 71.3429 107.357 68.2124 105.599C59.7082 100.82 64.2234 92.795 69.4206 83.5609C75.8477 72.1408 83.3134 58.8737 68.5081 47.5857C58.5264 39.9751 63.8703 31.5151 69.1386 23.1758C72.9717 17.1068 76.7659 11.1018 74.5949 5.52653C72.7253 0.72477 70.3536 -2.07033 68.1872 -4.62453C67.5161 -5.41525 66.8652 -6.18301 66.2549 -6.9798C66.246 -6.9914 66.2322 -6.99821 66.2176 -6.99821C66.1788 -6.99821 66.1568 -6.9537 66.1805 -6.9229C66.7839 -6.1381 67.4254 -5.38088 68.0875 -4.60122C70.2528 -2.04881 72.6221 0.743897 74.4883 5.53848C76.6536 11.0988 72.864 17.0972 69.0354 23.1591C63.7591 31.5115 58.406 39.9852 68.4187 47.6192C83.1942 58.885 75.7365 72.1378 69.3163 83.546C64.1099 92.7968 59.5855 100.837 68.1333 105.638C71.2466 107.387 73.6652 112.962 74.2154 118.69C74.6946 123.678 73.7546 128.78 70.6184 131.568C64.9916 136.571 62.4613 141.22 62.0566 145.713C62.0523 145.761 62.0899 145.801 62.1377 145.801L62.1574 145.801C62.1576 145.801 62.1579 145.801 62.1581 145.801ZM59.8335 145.801C59.834 145.801 59.8343 145.8 59.8343 145.8C60.214 141.288 62.7359 136.621 68.3878 131.596C71.5354 128.797 72.4788 123.684 71.9997 118.686C71.4483 112.947 69.0182 107.357 65.8878 105.599C57.3835 100.82 61.8987 92.795 67.0959 83.5609C73.5231 72.1408 80.9888 58.8737 66.1835 47.5857C56.2017 39.9751 61.5457 31.5151 66.8139 23.1758C70.6471 17.1068 74.4413 11.1018 72.2702 5.52653C70.4006 0.72477 68.029 -2.07033 65.8625 -4.62453C65.1914 -5.41525 64.5406 -6.18301 63.9303 -6.9798C63.9214 -6.9914 63.9076 -6.99821 63.893 -6.99821C63.8541 -6.99821 63.8321 -6.9537 63.8558 -6.9229C64.4592 -6.1381 65.1008 -5.38088 65.7628 -4.60122C67.9281 -2.04881 70.2975 0.743897 72.1636 5.53848C74.3289 11.0988 70.5393 17.0972 66.7108 23.1591C61.4345 31.5115 56.0814 39.9852 66.0941 47.6192C80.8696 58.885 73.4119 72.1378 66.9916 83.546C61.7852 92.7968 57.2609 100.837 65.8087 105.638C68.9219 107.387 71.3417 112.962 71.8908 118.69C72.3699 123.678 71.43 128.78 68.2938 131.568C62.6669 136.571 60.1367 141.22 59.7319 145.713C59.7276 145.761 59.7653 145.801 59.8131 145.801L59.8327 145.801C59.833 145.801 59.8332 145.801 59.8335 145.801ZM57.5088 145.801C57.5093 145.801 57.5097 145.8 57.5097 145.8C57.8894 141.288 60.4112 136.621 66.0631 131.596C69.2108 128.797 70.1542 123.684 69.675 118.686C69.1237 112.947 66.6936 107.357 63.5631 105.599C55.0589 100.82 59.5741 92.795 64.7713 83.5609C71.1984 72.1408 78.6641 58.8737 63.8588 47.5857C53.8771 39.9751 59.221 31.5151 64.4893 23.1758C68.3236 17.1068 72.1166 11.1018 69.9456 5.52653C68.076 0.72477 65.7044 -2.07033 63.5379 -4.62453C62.8668 -5.41525 62.2159 -6.18301 61.6056 -6.9798C61.5967 -6.9914 61.5829 -6.99821 61.5683 -6.99821C61.5295 -6.99821 61.5075 -6.95371 61.5312 -6.92291C62.1346 -6.1381 62.7761 -5.38089 63.4382 -4.60122C65.6035 -2.04881 67.9728 0.743897 69.839 5.53848C72.0043 11.0988 68.2147 17.0972 64.3861 23.1591C59.1098 31.5115 53.7567 39.9852 63.7694 47.6192C78.5449 58.885 71.0873 72.1378 64.667 83.546C59.4606 92.7968 54.9374 100.837 63.484 105.638C66.5973 107.387 69.0171 112.962 69.5661 118.69C70.0453 123.678 69.1053 128.78 65.9691 131.568C60.3423 136.571 57.812 141.22 57.4073 145.713C57.403 145.761 57.4406 145.801 57.4885 145.801L57.5081 145.801C57.5083 145.801 57.5086 145.801 57.5088 145.801ZM55.1853 145.801C55.1851 145.801 55.1849 145.801 55.1846 145.801L55.1648 145.801C55.117 145.801 55.0795 145.76 55.0838 145.713C55.4885 141.219 58.0187 136.57 63.6456 131.567C66.7807 128.779 67.7206 123.677 67.2426 118.689C66.6924 112.962 64.2738 107.387 61.1605 105.638C52.6139 100.836 57.1382 92.7956 62.3435 83.5454C68.7638 72.1372 76.2214 58.8844 61.4459 47.6186C51.4332 39.9846 56.7863 31.5115 62.0626 23.1585C65.8923 17.0966 69.6808 11.0982 67.5155 5.53788C65.6482 0.743301 63.2788 -2.04941 61.1147 -4.60182C60.4538 -5.38148 59.8111 -6.1387 59.2077 -6.9235C59.184 -6.9543 59.206 -6.99881 59.2448 -6.99881C59.2595 -6.99881 59.2732 -6.992 59.2821 -6.9804C59.8924 -6.18361 60.5433 -5.41585 61.2144 -4.62513C63.382 -2.07033 65.7525 0.72477 67.6221 5.52593C69.7931 11.1012 65.9989 17.1068 62.1658 23.1752C56.8975 31.5145 51.5536 39.9745 61.5353 47.5851C76.3406 58.8731 68.875 72.1396 62.4478 83.5603C57.2517 92.7944 52.7354 100.82 61.2396 105.598C64.3689 107.357 66.8002 112.946 67.3515 118.686C67.8318 123.683 66.8873 128.797 63.7396 131.595C58.0877 136.621 55.5659 141.288 55.1862 145.799C55.1862 145.8 55.1858 145.8 55.1853 145.801ZM52.8607 145.801C52.8605 145.801 52.8602 145.801 52.8599 145.801L52.8403 145.801C52.7925 145.801 52.7548 145.76 52.7591 145.712C53.1639 141.219 55.6941 136.57 61.321 131.567C64.456 128.779 65.396 123.677 64.918 118.689C64.3678 112.962 61.9492 107.387 58.8359 105.638C50.2892 100.836 54.8136 92.7956 60.0188 83.5454C66.4391 72.1372 73.8968 58.8844 59.1213 47.6186C49.1086 39.9846 54.4617 31.5115 59.738 23.1585C63.5677 17.0966 67.3561 11.0982 65.1908 5.53788C63.3235 0.7433 60.9542 -2.04941 58.79 -4.60182C58.1291 -5.38148 57.4865 -6.1387 56.883 -6.9235C56.8593 -6.9543 56.8813 -6.99881 56.9202 -6.99881C56.9348 -6.99881 56.9486 -6.992 56.9575 -6.9804C57.5678 -6.18361 58.2186 -5.41585 58.8897 -4.62513C61.0574 -2.07033 63.4279 0.72477 65.2974 5.52593C67.4685 11.1012 63.6743 17.1068 59.8412 23.1752C54.5729 31.5145 49.2289 39.9745 59.2107 47.5851C74.016 58.8731 66.5503 72.1396 60.1231 83.5603C54.9271 92.7944 50.4107 100.82 58.915 105.598C62.0443 107.357 64.4756 112.946 65.0269 118.686C65.5072 123.683 64.5627 128.797 61.415 131.595C55.7631 136.621 53.2412 141.288 52.8616 145.799C52.8615 145.8 52.8612 145.8 52.8607 145.801ZM50.536 145.801C50.5358 145.801 50.5356 145.801 50.5353 145.801L50.5157 145.801C50.4678 145.801 50.4302 145.76 50.4345 145.712C50.8393 141.219 53.3695 136.57 58.9964 131.567C62.1314 128.779 63.0713 123.677 62.5933 118.689C62.0431 112.962 59.6245 107.387 56.5112 105.638C47.9646 100.836 52.4889 92.7956 57.6942 83.5454C64.1145 72.1372 71.5721 58.8844 56.7966 47.6186C46.7839 39.9846 52.137 31.5115 57.4133 23.1585C61.243 17.0966 65.0315 11.0982 62.8662 5.53788C60.9989 0.7433 58.6295 -2.04941 56.4654 -4.60182C55.8045 -5.38148 55.1618 -6.1387 54.5584 -6.9235C54.5347 -6.9543 54.5567 -6.99881 54.5955 -6.99881C54.6102 -6.99881 54.6239 -6.992 54.6328 -6.9804C55.2431 -6.18361 55.894 -5.41585 56.5651 -4.62513C58.7327 -2.07033 61.1032 0.724769 62.9728 5.52593C65.1438 11.1012 61.3497 17.1068 57.5165 23.1752C52.2482 31.5145 46.9043 39.9745 56.8861 47.5851C71.6913 58.8731 64.2257 72.1396 57.7985 83.5603C52.6024 92.7944 48.0861 100.82 56.5903 105.598C59.7196 107.357 62.1509 112.946 62.7023 118.686C63.1825 123.683 62.238 128.797 59.0903 131.595C53.4384 136.621 50.9154 141.288 50.5369 145.799C50.5369 145.8 50.5365 145.8 50.536 145.801ZM48.211 145.8C48.211 145.801 48.2108 145.801 48.2104 145.801L48.1589 145.801C48.1283 145.801 48.1043 145.775 48.107 145.744C48.5026 141.241 51.0315 136.582 56.6717 131.567C59.8068 128.779 60.7467 123.677 60.2687 118.689C59.7185 112.962 57.2999 107.387 54.1866 105.638C45.6399 100.836 50.1643 92.7956 55.3695 83.5454C61.7898 72.1372 69.2475 58.8844 54.472 47.6186C44.4593 39.9846 49.8124 31.5115 55.0887 23.1585C58.9184 17.0966 62.7068 11.0982 60.5415 5.53788C58.6743 0.7433 56.3049 -2.04941 54.1396 -4.60182C53.4787 -5.38148 52.836 -6.1387 52.2326 -6.92351C52.2089 -6.95431 52.2309 -6.99881 52.2697 -6.99881C52.2844 -6.99881 52.2981 -6.992 52.307 -6.9804C52.9174 -6.18361 53.5682 -5.41585 54.2393 -4.62513C56.4069 -2.07033 58.7774 0.724769 60.647 5.52593C62.818 11.1012 59.0239 17.1068 55.1907 23.1752C49.9224 31.5145 44.5785 39.9745 54.5603 47.5851C69.3656 58.8731 61.8999 72.1396 55.4727 83.5603C50.2766 92.7944 45.7603 100.82 54.2645 105.598C57.3939 107.357 59.8251 112.946 60.3765 118.686C60.8567 123.683 59.9122 128.797 56.7645 131.595C51.1123 136.622 48.5893 141.289 48.211 145.8ZM45.8856 145.801C45.8861 145.801 45.8864 145.8 45.8865 145.8C46.2661 141.288 48.788 136.621 54.4399 131.596C57.5864 128.797 58.531 123.684 58.0518 118.686C57.5005 112.947 55.0704 107.357 51.9399 105.599C43.4357 100.82 47.9508 92.795 53.1481 83.5609C59.5752 72.1408 67.0409 58.8737 52.2356 47.5857C42.2539 39.9751 47.5978 31.5151 52.8661 23.1758C56.6992 17.1068 60.4934 11.1018 58.3223 5.52653C56.4528 0.72477 54.0811 -2.07033 51.9147 -4.62453C51.2435 -5.41525 50.5927 -6.18301 49.9824 -6.9798C49.9735 -6.9914 49.9597 -6.99821 49.9451 -6.99821C49.9063 -6.99821 49.8843 -6.9537 49.9079 -6.9229C50.5113 -6.1381 51.1529 -5.38088 51.8149 -4.60122C53.9803 -2.04881 56.3496 0.743897 58.2157 5.53848C60.381 11.0988 56.5915 17.0972 52.7629 23.1591C47.4866 31.5115 42.1335 39.9852 52.1462 47.6192C66.9217 58.885 59.464 72.1378 53.0437 83.546C47.8374 92.7968 43.3142 100.837 51.8608 105.638C54.9741 107.387 57.3939 112.962 57.9429 118.69C58.4221 123.678 57.4821 128.78 54.3459 131.568C48.719 136.571 46.1888 141.22 45.784 145.713C45.7797 145.761 45.8173 145.801 45.8651 145.801L45.8849 145.801C45.8851 145.801 45.8854 145.801 45.8856 145.801ZM43.561 145.801C43.5615 145.801 43.5618 145.8 43.5618 145.8C43.9415 141.288 46.4633 136.621 52.1153 131.596C55.2629 128.797 56.2063 123.684 55.7272 118.686C55.1758 112.947 52.7457 107.357 49.6152 105.599C41.111 100.82 45.6262 92.795 50.8234 83.5609C57.2506 72.1408 64.7163 58.8737 49.911 47.5857C39.9292 39.9751 45.2732 31.5151 50.5414 23.1758C54.3757 17.1068 58.1687 11.1018 55.9977 5.52653C54.1281 0.72477 51.7565 -2.07033 49.59 -4.62453C48.9189 -5.41525 48.2681 -6.18301 47.6577 -6.9798C47.6488 -6.9914 47.6351 -6.99821 47.6205 -6.99821C47.5816 -6.99821 47.5596 -6.9537 47.5833 -6.9229C48.1867 -6.1381 48.8283 -5.38088 49.4903 -4.60122C51.6556 -2.04881 54.025 0.743897 55.8911 5.53848C58.0564 11.0988 54.2668 17.0972 50.4383 23.1591C45.162 31.5115 39.8089 39.9852 49.8216 47.6192C64.5971 58.885 57.1394 72.1378 50.7191 83.546C45.5139 92.7968 40.9895 100.837 49.5361 105.638C52.6494 107.387 55.0681 112.962 55.6183 118.69C56.0974 123.678 55.1575 128.78 52.0213 131.568C46.3944 136.571 43.8642 141.22 43.4594 145.713C43.4551 145.761 43.4927 145.801 43.5406 145.801L43.5602 145.801C43.5605 145.801 43.5607 145.801 43.561 145.801ZM41.2363 145.801C41.2368 145.801 41.2371 145.8 41.2372 145.8C41.6169 141.288 44.1387 136.621 49.7906 131.596C52.9383 128.797 53.8817 123.684 53.4025 118.686C52.8512 112.947 50.4211 107.357 47.2906 105.599C38.7864 100.82 43.3015 92.795 48.4988 83.5609C54.9259 72.1408 62.3916 58.8737 47.5863 47.5857C37.6046 39.9751 42.9485 31.5151 48.2168 23.1758C52.0499 17.1068 55.8441 11.1018 53.673 5.52653C51.8035 0.72477 49.4318 -2.07033 47.2654 -4.62453C46.5942 -5.41525 45.9434 -6.18301 45.3331 -6.9798C45.3242 -6.9914 45.3104 -6.99821 45.2958 -6.99821C45.257 -6.99821 45.235 -6.9537 45.2586 -6.9229C45.862 -6.1381 46.5036 -5.38088 47.1656 -4.60122C49.331 -2.04881 51.7003 0.743896 53.5664 5.53848C55.7317 11.0988 51.9422 17.0972 48.1136 23.1591C42.8373 31.5115 37.4842 39.9852 47.4969 47.6192C62.2724 58.885 54.8147 72.1378 48.3944 83.546C43.1892 92.7968 38.6649 100.837 47.2115 105.638C50.3248 107.387 52.7434 112.962 53.2936 118.69C53.7728 123.678 52.8328 128.78 49.6966 131.568C44.0698 136.571 41.5395 141.22 41.1348 145.713C41.1305 145.761 41.1681 145.801 41.2159 145.801L41.2356 145.801C41.2358 145.801 41.2361 145.801 41.2363 145.801ZM38.9128 145.801C38.9126 145.801 38.9123 145.801 38.9121 145.801L38.8924 145.801C38.8446 145.801 38.807 145.76 38.8112 145.712C39.216 141.219 41.7463 136.57 47.3731 131.567C50.5082 128.779 51.4481 123.677 50.9701 118.689C50.4199 112.962 48.0013 107.387 44.888 105.638C36.3414 100.836 40.8657 92.7956 46.071 83.5454C52.4912 72.1372 59.9489 58.8844 45.1734 47.6186C35.1607 39.9846 40.5138 31.5115 45.7901 23.1585C49.6198 17.0966 53.4083 11.0982 51.2429 5.53788C49.3757 0.7433 47.0063 -2.04941 44.8421 -4.60182C44.1812 -5.38148 43.5386 -6.1387 42.9351 -6.9235C42.9115 -6.9543 42.9335 -6.99881 42.9723 -6.99881C42.9869 -6.99881 43.0007 -6.992 43.0096 -6.9804C43.6199 -6.18361 44.2707 -5.41585 44.9419 -4.62513C47.1095 -2.07033 49.48 0.724769 51.3495 5.52593C53.5206 11.1012 49.7264 17.1068 45.8933 23.1752C40.625 31.5145 35.2811 39.9745 45.2628 47.5851C60.0681 58.8731 52.6024 72.1396 46.1753 83.5603C40.9792 92.7944 36.4629 100.82 44.9671 105.598C48.0964 107.357 50.5277 112.946 51.079 118.686C51.5593 123.683 50.6148 128.797 47.4671 131.595C41.8152 136.621 39.2934 141.288 38.9137 145.799C38.9136 145.8 38.9133 145.8 38.9128 145.801ZM36.5882 145.801C36.5879 145.801 36.5877 145.801 36.5874 145.801L36.5678 145.801C36.52 145.801 36.4823 145.76 36.4866 145.712C36.8914 141.219 39.4216 136.57 45.0485 131.567C48.1835 128.779 49.1235 123.677 48.6455 118.689C48.0953 112.962 45.6766 107.387 42.5633 105.638C34.0167 100.836 38.5411 92.7956 43.7463 83.5454C50.1666 72.1372 57.6242 58.8844 42.8488 47.6186C32.836 39.9846 38.1892 31.5115 43.4655 23.1585C47.2952 17.0966 51.0836 11.0982 48.9183 5.53788C47.051 0.7433 44.6817 -2.04941 42.5175 -4.60182C41.8566 -5.38149 41.214 -6.1387 40.6105 -6.92351C40.5868 -6.95431 40.6088 -6.99881 40.6477 -6.99881C40.6623 -6.99881 40.676 -6.992 40.6849 -6.9804C41.2953 -6.18361 41.9461 -5.41585 42.6172 -4.62513C44.7848 -2.07033 47.1553 0.724769 49.0249 5.52593C51.1959 11.1012 47.4018 17.1068 43.5686 23.1752C38.3004 31.5145 32.9564 39.9745 42.9382 47.5851C57.7435 58.8731 50.2778 72.1396 43.8506 83.5603C38.6546 92.7944 34.1382 100.82 42.6424 105.598C45.7718 107.357 48.203 112.946 48.7544 118.686C49.2347 123.683 48.2901 128.797 45.1425 131.595C39.4905 136.621 36.9676 141.288 36.589 145.799C36.589 145.8 36.5887 145.8 36.5882 145.801ZM34.2635 145.801C34.2633 145.801 34.263 145.801 34.2628 145.801L34.2431 145.801C34.1953 145.801 34.1577 145.76 34.162 145.712C34.5667 141.219 37.097 136.57 42.7238 131.567C45.8589 128.779 46.7988 123.677 46.3208 118.689C45.7706 112.962 43.352 107.387 40.2387 105.638C31.6921 100.836 36.2164 92.7956 41.4217 83.5454C47.8419 72.1372 55.2996 58.8844 40.5241 47.6186C30.5114 39.9846 35.8645 31.5115 41.1408 23.1585C44.9705 17.0966 48.759 11.0982 46.5937 5.53788C44.7264 0.7433 42.357 -2.04941 40.1929 -4.60182C39.5319 -5.38148 38.8893 -6.1387 38.2859 -6.9235C38.2622 -6.9543 38.2842 -6.99881 38.323 -6.99881C38.3376 -6.99881 38.3514 -6.992 38.3603 -6.9804C38.9706 -6.18361 39.6214 -5.41585 40.2926 -4.62513C42.4602 -2.07033 44.8307 0.724769 46.7003 5.52593C48.8713 11.1012 45.0771 17.1068 41.244 23.1752C35.9757 31.5145 30.6318 39.9745 40.6135 47.5851C55.4188 58.8731 47.9531 72.1396 41.526 83.5603C36.3299 92.7944 31.8136 100.82 40.3178 105.598C43.4471 107.357 45.8784 112.946 46.4297 118.686C46.91 123.683 45.9655 128.797 42.8178 131.595C37.1659 136.621 34.6429 141.288 34.2644 145.799C34.2643 145.8 34.264 145.8 34.2635 145.801ZM31.9377 145.801C31.9382 145.801 31.9386 145.8 31.9386 145.8C32.3183 141.288 34.8401 136.621 40.492 131.596C43.6397 128.797 44.5831 123.684 44.1039 118.686C43.5526 112.947 41.1225 107.357 37.992 105.599C29.4878 100.82 34.003 92.795 39.2002 83.5609C45.6273 72.1408 53.093 58.8737 38.2877 47.5857C28.306 39.9751 33.6499 31.5151 38.9182 23.1758C42.7513 17.1068 46.5455 11.1018 44.3745 5.52653C42.5049 0.724769 40.1332 -2.07033 37.9668 -4.62453C37.2957 -5.41525 36.6448 -6.18301 36.0345 -6.9798C36.0256 -6.9914 36.0118 -6.99821 35.9972 -6.99821C35.9584 -6.99821 35.9364 -6.9537 35.9601 -6.9229C36.5635 -6.1381 37.205 -5.38088 37.8671 -4.60122C40.0324 -2.04881 42.4017 0.743896 44.2679 5.53848C46.4332 11.0988 42.6436 17.0972 38.815 23.1591C33.5387 31.5115 28.1856 39.9852 38.1983 47.6192C52.9738 58.885 45.5161 72.1378 39.0959 83.546C33.8906 92.7968 29.3663 100.837 37.9129 105.638C41.0262 107.387 43.4448 112.962 43.995 118.69C44.4742 123.678 43.5343 128.78 40.398 131.568C34.7712 136.571 32.2409 141.22 31.8362 145.713C31.8319 145.761 31.8695 145.801 31.9173 145.801L31.937 145.801C31.9372 145.801 31.9375 145.801 31.9377 145.801ZM29.6131 145.801C29.6136 145.801 29.6139 145.8 29.6139 145.8C29.9936 141.288 32.5155 136.621 38.1674 131.596C41.315 128.797 42.2584 123.684 41.7793 118.686C41.2279 112.947 38.7978 107.357 35.6674 105.599C27.1631 100.82 31.6783 92.795 36.8755 83.5609C43.3027 72.1408 50.7684 58.8737 35.9631 47.5857C25.9813 39.9751 31.3253 31.5151 36.5936 23.1758C40.4278 17.1068 44.2209 11.1018 42.0498 5.52653C40.1802 0.724769 37.8086 -2.07033 35.6421 -4.62453C34.971 -5.41525 34.3202 -6.18301 33.7099 -6.9798C33.701 -6.9914 33.6872 -6.99821 33.6726 -6.99821C33.6337 -6.99821 33.6117 -6.95371 33.6354 -6.92291C34.2388 -6.1381 34.8804 -5.38089 35.5424 -4.60122C37.7077 -2.04881 40.0771 0.743896 41.9432 5.53848C44.1085 11.0988 40.3189 17.0972 36.4904 23.1591C31.2141 31.5115 25.861 39.9852 35.8737 47.6192C50.6492 58.885 43.1915 72.1378 36.7712 83.546C31.566 92.7968 27.0416 100.837 35.5883 105.638C38.7015 107.387 41.1202 112.962 41.6704 118.69C42.1495 123.678 41.2096 128.78 38.0734 131.568C32.4465 136.571 29.9163 141.22 29.5115 145.713C29.5072 145.761 29.5449 145.801 29.5927 145.801L29.6123 145.801C29.6126 145.801 29.6128 145.801 29.6131 145.801ZM27.2884 145.801C27.2889 145.801 27.2893 145.8 27.2893 145.8C27.669 141.288 30.1908 136.621 35.8427 131.596C38.9904 128.797 39.9338 123.684 39.4546 118.686C38.9033 112.947 36.4732 107.357 33.3427 105.599C24.8385 100.82 29.3537 92.795 34.5509 83.5609C40.9781 72.1408 48.4437 58.8737 33.6384 47.5857C23.6567 39.9751 29.0006 31.5151 34.2689 23.1758C38.102 17.1068 41.8962 11.1018 39.7252 5.52653C37.8556 0.724769 35.484 -2.07033 33.3175 -4.62453C32.6464 -5.41525 31.9956 -6.18301 31.3852 -6.9798C31.3763 -6.9914 31.3626 -6.99821 31.3479 -6.99821C31.3091 -6.99821 31.2871 -6.9537 31.3108 -6.9229C31.9142 -6.1381 32.5557 -5.38088 33.2178 -4.60122C35.3831 -2.04881 37.7524 0.743896 39.6186 5.53848C41.7839 11.0988 37.9943 17.0972 34.1657 23.1591C28.8894 31.5115 23.5363 39.9852 33.549 47.6192C48.3245 58.885 40.8669 72.1378 34.4466 83.546C29.2402 92.7968 24.7158 100.837 33.2636 105.638C36.3769 107.387 38.7967 112.962 39.3458 118.69C39.8249 123.678 38.885 128.78 35.7487 131.568C30.1219 136.571 27.5916 141.22 27.1869 145.713C27.1826 145.761 27.2202 145.801 27.2681 145.801L27.2877 145.801C27.2879 145.801 27.2882 145.801 27.2884 145.801ZM24.9638 145.801C24.9643 145.801 24.9646 145.8 24.9647 145.8C25.3443 141.288 27.8662 136.621 33.5181 131.596C36.6646 128.797 37.6091 123.684 37.13 118.686C36.5786 112.947 34.1485 107.357 31.0181 105.599C22.5139 100.82 27.029 92.795 32.2262 83.5609C38.6534 72.1408 46.1191 58.8737 31.3138 47.5857C21.3321 39.9751 26.676 31.5151 31.9443 23.1758C35.7774 17.1068 39.5716 11.1018 37.4005 5.52653C35.531 0.724769 33.1593 -2.07033 30.9929 -4.62453C30.3217 -5.41525 29.6709 -6.18301 29.0606 -6.9798C29.0517 -6.9914 29.0379 -6.99821 29.0233 -6.99821C28.9844 -6.99821 28.9624 -6.9537 28.9861 -6.9229C29.5895 -6.1381 30.2311 -5.38088 30.8931 -4.60122C33.0584 -2.04881 35.4278 0.743896 37.2939 5.53848C39.4592 11.0988 35.6697 17.0972 31.8411 23.1591C26.5648 31.5115 21.2117 39.9852 31.2244 47.6192C45.9999 58.885 38.5422 72.1378 32.1219 83.546C26.9167 92.7968 22.3912 100.837 30.939 105.638C34.0523 107.387 36.472 112.962 37.0211 118.69C37.5002 123.678 36.5603 128.78 33.4241 131.568C27.7972 136.571 25.267 141.22 24.8622 145.713C24.8579 145.761 24.8956 145.801 24.9434 145.801L24.963 145.801C24.9633 145.801 24.9636 145.801 24.9638 145.801ZM22.6403 145.801C22.6401 145.801 22.6398 145.801 22.6395 145.801L22.6199 145.801C22.5721 145.801 22.5344 145.76 22.5387 145.712C22.9435 141.219 25.4737 136.57 31.1006 131.567C34.2357 128.779 35.1756 123.677 34.6976 118.689C34.1474 112.962 31.7288 107.387 28.6155 105.638C20.0689 100.836 24.5932 92.7956 29.7984 83.5454C36.2187 72.1372 43.6764 58.8844 28.9009 47.6186C18.8882 39.9846 24.2413 31.5115 29.5176 23.1585C33.3473 17.0966 37.1357 11.0982 34.9704 5.53788C33.1031 0.743299 30.7338 -2.04941 28.5696 -4.60182C27.9087 -5.38148 27.2661 -6.1387 26.6626 -6.9235C26.6389 -6.9543 26.6609 -6.99881 26.6998 -6.99881C26.7144 -6.99881 26.7282 -6.992 26.7371 -6.9804C27.3474 -6.18361 27.9982 -5.41585 28.6693 -4.62513C30.837 -2.07033 33.2075 0.724768 35.077 5.52593C37.2481 11.1012 33.4539 17.1068 29.6208 23.1752C24.3525 31.5145 19.0086 39.9745 28.9903 47.5851C43.7956 58.8731 36.3299 72.1396 29.9027 83.5603C24.7067 92.7944 20.1903 100.82 28.6946 105.598C31.8239 107.357 34.2551 112.946 34.8065 118.686C35.2868 123.683 34.3423 128.797 31.1946 131.595C25.5427 136.621 23.0197 141.288 22.6412 145.799C22.6411 145.8 22.6408 145.8 22.6403 145.801ZM20.3156 145.801C20.3154 145.801 20.3152 145.801 20.3149 145.801L20.2953 145.801C20.2474 145.801 20.2098 145.76 20.2141 145.712C20.6189 141.219 23.1491 136.57 28.776 131.567C31.911 128.779 32.851 123.677 32.373 118.689C31.8228 112.962 29.4041 107.387 26.2908 105.638C17.7442 100.836 22.2686 92.7956 27.4738 83.5454C33.8941 72.1372 41.3517 58.8844 26.5762 47.6186C16.5635 39.9846 21.9166 31.5115 27.1929 23.1585C31.0227 17.0966 34.8111 11.0982 32.6458 5.53788C30.7785 0.743299 28.4091 -2.04941 26.245 -4.60182C25.5841 -5.38148 24.9414 -6.1387 24.338 -6.9235C24.3143 -6.9543 24.3363 -6.99881 24.3751 -6.99881C24.3898 -6.99881 24.4035 -6.992 24.4124 -6.9804C25.0228 -6.18361 25.6736 -5.41585 26.3447 -4.62513C28.5123 -2.07033 30.8828 0.724768 32.7524 5.52593C34.9234 11.1012 31.1293 17.1068 27.2961 23.1752C22.0278 31.5145 16.6839 39.9745 26.6657 47.5851C41.471 58.8731 34.0053 72.1396 27.5781 83.5603C22.382 92.7944 17.8657 100.82 26.3699 105.598C29.4993 107.357 31.9305 112.946 32.4819 118.686C32.9621 123.683 32.0176 128.797 28.8699 131.595C23.218 136.621 20.695 141.288 20.3165 145.799C20.3165 145.8 20.3161 145.8 20.3156 145.801ZM17.991 145.801C17.9908 145.801 17.9905 145.801 17.9902 145.801L17.9706 145.801C17.9228 145.801 17.8851 145.76 17.8894 145.712C18.2942 141.219 20.8244 136.57 26.4513 131.567C29.5864 128.779 30.5263 123.677 30.0483 118.689C29.4981 112.962 27.0795 107.387 23.9662 105.638C15.4196 100.836 19.9439 92.7956 25.1491 83.5454C31.5694 72.1372 39.0271 58.8844 24.2516 47.6186C14.2389 39.9846 19.592 31.5115 24.8683 23.1585C28.698 17.0966 32.4864 11.0982 30.3211 5.53788C28.4539 0.743299 26.0845 -2.04941 23.9203 -4.60182C23.2594 -5.38149 22.6168 -6.1387 22.0133 -6.92351C21.9897 -6.95431 22.0117 -6.99881 22.0505 -6.99881C22.0651 -6.99881 22.0789 -6.992 22.0878 -6.9804C22.6981 -6.18361 23.3489 -5.41585 24.0201 -4.62513C26.1877 -2.07033 28.5582 0.724768 30.4277 5.52593C32.5988 11.1012 28.8046 17.1068 24.9715 23.1752C19.7032 31.5145 14.3593 39.9745 24.341 47.5851C39.1463 58.8731 31.6806 72.1396 25.2534 83.5603C20.0574 92.7944 15.5411 100.82 24.0453 105.598C27.1746 107.357 29.6059 112.946 30.1572 118.686C30.6375 123.683 29.693 128.797 26.5453 131.595C20.8934 136.621 18.3715 141.288 17.9919 145.799C17.9918 145.8 17.9915 145.8 17.991 145.801ZM15.6652 145.801C15.6657 145.801 15.666 145.8 15.6661 145.8C16.0458 141.288 18.5676 136.621 24.2195 131.596C27.366 128.797 28.3106 123.684 27.8314 118.686C27.2801 112.947 24.85 107.357 21.7195 105.599C13.2153 100.82 17.7304 92.795 22.9277 83.5609C29.3548 72.1408 36.8205 58.8737 22.0152 47.5857C12.0335 39.9751 17.3774 31.5151 22.6457 23.1758C26.4788 17.1068 30.273 11.1018 28.102 5.52653C26.2324 0.724768 23.8607 -2.07033 21.6943 -4.62453C21.0231 -5.41525 20.3723 -6.18301 19.762 -6.9798C19.7531 -6.9914 19.7393 -6.99821 19.7247 -6.99821C19.6859 -6.99821 19.6639 -6.9537 19.6875 -6.9229C20.2909 -6.1381 20.9325 -5.38088 21.5945 -4.60122C23.7599 -2.04881 26.1292 0.743895 27.9953 5.53848C30.1607 11.0988 26.3711 17.0972 22.5425 23.1591C17.2662 31.5115 11.9131 39.9852 21.9258 47.6192C36.7013 58.885 29.2436 72.1378 22.8233 83.546C17.6181 92.7968 13.0938 100.837 21.6404 105.638C24.7537 107.387 27.1723 112.962 27.7225 118.69C28.2017 123.678 27.2617 128.78 24.1255 131.568C18.4987 136.571 15.9684 141.22 15.5636 145.713C15.5594 145.761 15.597 145.801 15.6448 145.801L15.6645 145.801C15.6647 145.801 15.665 145.801 15.6652 145.801ZM13.3414 145.801C13.7208 141.289 16.2426 136.622 21.8949 131.596C25.0414 128.797 25.9859 123.684 25.5068 118.686C24.9554 112.947 22.5253 107.357 19.3948 105.599C10.8906 100.82 15.4058 92.795 20.603 83.5609C27.0302 72.1408 34.4959 58.8737 19.6906 47.5857C9.70881 39.9751 15.0527 31.5151 20.321 23.1758C24.1542 17.1068 27.9483 11.1018 25.7773 5.52653C23.9077 0.724768 21.5361 -2.07033 19.3696 -4.62453C18.6985 -5.41525 18.0477 -6.18301 17.4373 -6.9798C17.4285 -6.9914 17.4147 -6.99821 17.4001 -6.99821C17.3612 -6.99821 17.3392 -6.9537 17.3629 -6.9229C17.9663 -6.1381 18.6079 -5.38088 19.2699 -4.60122C21.4352 -2.04881 23.8046 0.743895 25.6718 5.53848C27.8371 11.0988 24.0476 17.0972 20.219 23.1591C14.9427 31.5115 9.5896 39.9852 19.6023 47.6192C34.3778 58.885 26.9201 72.1378 20.4998 83.546C15.2946 92.7968 10.7691 100.837 19.3169 105.638C22.4302 107.387 24.8488 112.962 25.399 118.69C25.8782 123.678 24.9382 128.78 21.802 131.568C16.1618 136.583 13.6329 141.242 13.2373 145.745C13.2346 145.775 13.2587 145.801 13.2892 145.801L13.3408 145.801C13.3411 145.801 13.3414 145.801 13.3414 145.801ZM11.0159 145.801C11.0164 145.801 11.0167 145.8 11.0168 145.8C11.3965 141.288 13.9183 136.621 19.5702 131.596C22.7167 128.797 23.6613 123.684 23.1821 118.686C22.6308 112.947 20.2007 107.357 17.0702 105.599C8.56597 100.82 13.0811 92.795 18.2784 83.5609C24.7055 72.1408 32.1712 58.8737 17.3659 47.5857C7.38417 39.9751 12.7281 31.5151 17.9964 23.1758C21.8295 17.1068 25.6237 11.1018 23.4527 5.52653C21.5831 0.724768 19.2114 -2.07033 17.045 -4.62453C16.3738 -5.41525 15.723 -6.18301 15.1127 -6.9798C15.1038 -6.9914 15.09 -6.99821 15.0754 -6.99821C15.0366 -6.99821 15.0146 -6.9537 15.0382 -6.9229C15.6416 -6.1381 16.2832 -5.38088 16.9452 -4.60122C19.1106 -2.04881 21.4799 0.743895 23.3461 5.53848C25.5114 11.0988 21.7218 17.0972 17.8932 23.1591C12.6169 31.5115 7.26381 39.9852 17.2765 47.6192C32.052 58.885 24.5943 72.1378 18.1741 83.546C12.9677 92.7968 8.44447 100.837 16.9911 105.638C20.1044 107.387 22.523 112.962 23.0732 118.69C23.5524 123.678 22.6124 128.78 19.4762 131.568C13.8494 136.571 11.3191 141.22 10.9144 145.713C10.9101 145.761 10.9477 145.801 10.9955 145.801L11.0152 145.801C11.0154 145.801 11.0157 145.801 11.0159 145.801ZM8.69241 145.801C8.69218 145.801 8.69192 145.801 8.69166 145.801L8.67204 145.801C8.6242 145.801 8.58656 145.76 8.59086 145.712C8.99563 141.219 11.5259 136.57 17.1527 131.567C20.2878 128.779 21.2277 123.677 20.7497 118.689C20.1995 112.962 17.7809 107.387 14.6676 105.638C6.12097 100.836 10.6453 92.7956 15.8506 83.5454C22.2708 72.1372 29.7285 58.8844 14.953 47.6186C4.94031 39.9846 10.2934 31.5115 15.5697 23.1585C19.3994 17.0966 23.1879 11.0982 21.0226 5.53788C19.1553 0.743299 16.7859 -2.04941 14.6217 -4.60182C13.9608 -5.38149 13.3182 -6.1387 12.7148 -6.92351C12.6911 -6.95431 12.7131 -6.99881 12.7519 -6.99881C12.7665 -6.99881 12.7803 -6.992 12.7892 -6.9804C13.3995 -6.18361 14.0503 -5.41585 14.7215 -4.62513C16.8891 -2.07033 19.2596 0.724768 21.1291 5.52593C23.3002 11.1012 19.506 17.1068 15.6729 23.1752C10.4046 31.5145 5.06067 39.9745 15.0424 47.5851C29.8477 58.8731 22.382 72.1396 15.9549 83.5603C10.7588 92.7944 6.24247 100.82 14.7467 105.598C17.876 107.357 20.3073 112.946 20.8586 118.686C21.3389 123.683 20.3944 128.797 17.2467 131.595C11.5948 136.621 9.07296 141.288 8.69328 145.799C8.69323 145.8 8.69291 145.8 8.69241 145.801ZM6.36778 145.801C6.36755 145.801 6.36729 145.801 6.36703 145.801L6.34721 145.801C6.29948 145.801 6.26191 145.76 6.26618 145.713C6.67092 141.219 9.20115 136.57 14.8281 131.567C17.9631 128.779 18.9031 123.677 18.4251 118.689C17.8749 112.962 15.4562 107.387 12.343 105.638C3.79634 100.836 8.32067 92.7956 13.5259 83.5454C19.9462 72.1372 27.4039 58.8844 12.6284 47.6186C2.61567 39.9846 7.96878 31.5115 13.2451 23.1585C17.0748 17.0966 20.8632 11.0982 18.6979 5.53788C16.8306 0.743298 14.4613 -2.04941 12.2971 -4.60182C11.6362 -5.38148 10.9936 -6.1387 10.3901 -6.9235C10.3664 -6.9543 10.3884 -6.99881 10.4273 -6.99881C10.4419 -6.99881 10.4557 -6.992 10.4646 -6.9804C11.0749 -6.18361 11.7257 -5.41585 12.3968 -4.62513C14.5644 -2.07033 16.9349 0.724768 18.8045 5.52593C20.9756 11.1012 17.1814 17.1068 13.3482 23.1752C8.07995 31.5145 2.73602 39.9745 12.7178 47.5851C27.5231 58.8731 20.0574 72.1396 13.6302 83.5603C8.43415 92.7944 3.91783 100.82 12.422 105.598C15.5514 107.357 17.9826 112.946 18.534 118.686C19.0143 123.683 18.0697 128.797 14.9221 131.595C9.27015 136.621 6.7483 141.288 6.36863 145.799C6.36858 145.8 6.36826 145.8 6.36778 145.801ZM4.04313 145.801C4.0429 145.801 4.04264 145.801 4.04237 145.801L4.02274 145.801C3.97491 145.801 3.93726 145.76 3.94155 145.712C4.34634 141.219 6.87657 136.57 12.5034 131.567C15.6385 128.779 16.5784 123.677 16.1004 118.689C15.5502 112.962 13.1316 107.387 10.0183 105.638C1.47167 100.836 5.99603 92.7956 11.2013 83.5454C17.6215 72.1372 25.0792 58.8844 10.3037 47.6186C0.291014 39.9846 5.64412 31.5115 10.9204 23.1585C14.7501 17.0966 18.5386 11.0982 16.3733 5.53788C14.506 0.743298 12.1366 -2.04941 9.97246 -4.60182C9.31154 -5.38148 8.66891 -6.1387 8.06546 -6.9235C8.04178 -6.9543 8.06377 -6.99881 8.10263 -6.99881C8.11723 -6.99881 8.13101 -6.992 8.13991 -6.9804C8.75023 -6.18361 9.40105 -5.41585 10.0722 -4.62513C12.2398 -2.07033 14.6103 0.724767 16.4799 5.52593C18.6509 11.1012 14.8567 17.1068 11.0236 23.1752C5.75531 31.5145 0.411375 39.9745 10.3931 47.5851C25.1984 58.8731 17.7327 72.1396 11.3056 83.5603C6.10951 92.7944 1.59318 100.82 10.0974 105.598C13.2267 107.357 15.658 112.946 16.2093 118.686C16.6896 123.683 15.7451 128.797 12.5974 131.595C6.94552 136.621 4.42367 141.288 4.044 145.799C4.04395 145.8 4.04362 145.8 4.04313 145.801ZM1.71848 145.801C1.71824 145.801 1.71798 145.801 1.71772 145.801L1.6981 145.801C1.65026 145.801 1.61263 145.76 1.61692 145.712C2.02169 141.219 4.55193 136.57 10.1788 131.567C13.3139 128.779 14.2538 123.677 13.7758 118.689C13.2256 112.962 10.8069 107.387 7.69366 105.638C-0.852971 100.836 3.67137 92.7956 8.87661 83.5454C15.2969 72.1372 22.7546 58.8844 7.97908 47.6186C-2.03363 39.9846 3.31947 31.5115 8.59578 23.1585C12.4255 17.0966 16.2139 11.0982 14.0486 5.53788C12.1813 0.743298 9.81198 -2.04941 7.64781 -4.60182C6.98689 -5.38148 6.34427 -6.1387 5.74081 -6.9235C5.71713 -6.9543 5.73912 -6.99881 5.77798 -6.99881C5.79259 -6.99881 5.80637 -6.992 5.81525 -6.9804C6.42558 -6.18361 7.0764 -5.41585 7.74753 -4.62513C9.91515 -2.07033 12.2856 0.724767 14.1552 5.52593C16.3263 11.1012 12.5321 17.1068 8.69894 23.1752C3.43066 31.5145 -1.91327 39.9745 8.06849 47.5851C22.8738 58.8731 15.4081 72.1396 8.98092 83.5603C3.78486 92.7944 -0.731465 100.82 7.77275 105.598C10.9021 107.357 13.3333 112.946 13.8847 118.686C14.365 123.683 13.4204 128.797 10.2728 131.595C4.62086 136.621 2.09788 141.288 1.71934 145.799C1.71929 145.8 1.71897 145.8 1.71848 145.801ZM-0.607322 145.801C-0.606818 145.801 -0.606498 145.8 -0.606452 145.8C-0.226783 141.288 2.29507 136.621 7.94698 131.596C11.0946 128.797 12.038 123.684 11.5589 118.686C11.0075 112.947 8.57743 107.357 5.44696 105.599C-3.05726 100.82 1.45791 92.795 6.65513 83.5609C13.0823 72.1408 20.548 58.8737 5.7427 47.5857C-4.23906 39.9751 1.10487 31.5151 6.37315 23.1758C10.2063 17.1068 14.0005 11.1018 11.8294 5.52652C9.95984 0.724768 7.58821 -2.07033 5.42175 -4.62453C4.75061 -5.41525 4.09979 -6.18301 3.48946 -6.97981C3.48058 -6.9914 3.4668 -6.99821 3.45218 -6.99821C3.41333 -6.99821 3.39134 -6.95371 3.41502 -6.92291C4.01842 -6.1381 4.66 -5.38089 5.32202 -4.60122C7.48733 -2.04881 9.85669 0.743895 11.7228 5.53848C13.8881 11.0988 10.0985 17.0972 6.26999 23.1591C0.993681 31.5115 -4.35942 39.9852 5.65329 47.6192C20.4288 58.885 12.9711 72.1378 6.55082 83.546C1.34559 92.7968 -3.17991 100.837 5.36785 105.638C8.48115 107.387 10.9009 112.962 11.45 118.69C11.9291 123.678 10.9892 128.78 7.85299 131.568C2.22613 136.571 -0.304099 141.22 -0.708869 145.713C-0.713172 145.761 -0.675529 145.801 -0.627707 145.801L-0.608069 145.801C-0.60781 145.801 -0.607551 145.801 -0.607322 145.801ZM-0.996833 139.544C-0.997702 139.544 -0.998542 139.543 -0.998542 139.542L-0.998542 139.371C-0.998542 139.349 -0.992896 139.326 -0.98194 139.307C0.40426 136.807 2.52566 134.238 5.52949 131.567C8.66454 128.779 9.6045 123.677 9.12651 118.689C8.57629 112.961 6.15765 107.386 3.04435 105.637C1.02008 104.5 -0.270497 103.18 -0.992467 101.707C-0.995717 101.7 -0.997395 101.693 -0.997395 101.685C-0.997395 101.633 -0.92368 101.617 -0.900746 101.664C-0.185231 103.141 1.10092 104.462 3.12461 105.598C6.25393 107.357 8.68518 112.946 9.23654 118.686C9.71682 123.683 8.7723 128.797 5.62463 131.595C2.53677 134.34 0.384149 136.979 -0.995978 139.543C-0.996161 139.543 -0.996466 139.544 -0.996833 139.544ZM-0.917136 135.961C-0.944174 135.995 -0.998541 135.976 -0.998541 135.932C-0.998541 135.922 -0.995001 135.912 -0.988471 135.904C0.157022 134.485 1.54531 133.042 3.2037 131.567C6.33875 128.779 7.2787 123.677 6.8007 118.689C6.2505 112.961 3.83186 107.386 0.718577 105.637C0.079768 105.278 -0.484899 104.901 -0.983235 104.506C-0.992925 104.499 -0.99854 104.487 -0.99854 104.475C-0.99854 104.441 -0.958959 104.422 -0.932332 104.443C-0.427739 104.846 0.146571 105.232 0.797664 105.598C3.927 107.357 6.35826 112.946 6.90962 118.686C7.3899 123.683 6.44537 128.797 3.29769 131.595C1.62824 133.08 0.231134 134.533 -0.917136 135.961ZM-0.998541 133.461C-0.998541 133.461 -0.998282 133.461 -0.998129 133.461C-0.388419 132.844 0.267099 132.223 0.973047 131.595C4.12072 128.797 5.0641 123.683 4.58496 118.686C4.06945 113.313 1.90557 108.071 -0.936452 105.981C-0.962529 105.962 -0.99854 105.981 -0.99854 106.013C-0.99854 106.026 -0.992757 106.038 -0.982671 106.045C1.82591 108.144 3.9635 113.35 4.47607 118.689C4.95521 123.677 4.01527 128.779 0.879053 131.567C0.242807 132.132 -0.353049 132.694 -0.91149 133.251C-0.967337 133.306 -0.998541 133.382 -0.998541 133.461ZM-0.998541 131.156C-0.998541 131.195 -0.951407 131.214 -0.924063 131.186C1.88081 128.318 2.7171 123.449 2.26031 118.686C1.89982 114.926 0.73112 111.231 -0.911779 108.634C-0.9372 108.594 -0.99854 108.612 -0.99854 108.66C-0.99854 108.669 -0.996038 108.678 -0.991247 108.685C0.634928 111.272 1.79203 114.948 2.15142 118.689C2.60581 123.424 1.78134 128.261 -0.986151 131.125C-0.994101 131.133 -0.998541 131.144 -0.998541 131.156ZM-0.998541 127.235C-0.998541 127.295 -0.917761 127.309 -0.898016 127.253C-0.000478779 124.702 0.222101 121.673 -0.0654657 118.686C-0.21343 117.142 -0.497808 115.609 -0.895254 114.158C-0.911794 114.098 -0.99854 114.11 -0.99854 114.172C-0.99854 114.177 -0.9979 114.182 -0.996633 114.187C-0.603307 115.629 -0.322012 117.154 -0.174383 118.689C0.110727 121.663 -0.108542 124.677 -0.99555 127.218C-0.997534 127.223 -0.998541 127.229 -0.998541 127.235ZM-0.99854 94.5906C-0.99854 94.5908 -0.998402 94.5908 -0.998372 94.5907C0.00927305 91.2416 2.10684 87.5118 4.33049 83.5603C10.7577 72.1402 18.2233 58.8731 3.41804 47.5851C1.38469 46.0346 -0.0108665 44.4486 -0.902392 42.8355C-0.927706 42.7897 -0.998537 42.8076 -0.998537 42.86C-0.998537 42.8685 -0.996386 42.8769 -0.992235 42.8843C-0.0967277 44.4908 1.30107 46.0716 3.32866 47.6174C18.1041 58.8832 10.6465 72.136 4.22618 83.5442C2.1519 87.2302 0.186626 90.724 -0.887288 93.8973C-0.962834 94.1206 -0.99854 94.355 -0.99854 94.5906ZM-0.998539 89.071C-0.998539 89.0711 -0.998341 89.0712 -0.998265 89.0711C-0.0962108 87.2965 0.939907 85.4544 2.00584 83.5603C8.43301 72.1402 15.8987 58.8731 1.09341 47.5851C0.334379 47.0063 -0.335986 46.4219 -0.924746 45.8337C-0.951937 45.8066 -0.998537 45.8258 -0.998537 45.8642C-0.998537 45.8756 -0.994006 45.8866 -0.985873 45.8947C-0.403231 46.4732 0.256315 47.0476 1.004 47.6174C15.7795 58.8832 8.32182 72.136 1.90153 83.5442C0.915844 85.2955 -0.0454448 87.0036 -0.897679 88.6543C-0.964177 88.7831 -0.998539 88.926 -0.998539 89.071ZM-0.998539 84.7702C-0.998539 84.6373 -0.964436 84.5066 -0.899433 84.3908C-0.741795 84.1097 -0.583241 83.8278 -0.423115 83.5442C5.94665 72.2251 13.3347 59.0909 -0.982516 47.8821C-0.992358 47.8744 -0.998538 47.8623 -0.998538 47.8498C-0.998538 47.816 -0.95798 47.7983 -0.931323 47.8191C13.4674 59.0562 6.06292 72.2182 -0.318806 83.5597C-0.546711 83.9652 -0.773472 84.3678 -0.997959 84.7679C-0.998341 84.7686 -0.998539 84.7694 -0.998539 84.7702ZM-0.905537 80.4439C-0.930241 80.489 -0.998539 80.4712 -0.998539 80.4199C-0.998539 80.4115 -0.996449 80.4033 -0.992435 80.396C4.41406 70.5273 9.05661 59.5967 -0.984835 49.8949C-0.993411 49.8866 -0.998538 49.8749 -0.998538 49.863C-0.998538 49.8243 -0.950762 49.806 -0.922915 49.8328C9.19642 59.5725 4.52102 70.5439 -0.905537 80.4439ZM-0.998539 76.1565C-0.998539 76.1561 -0.998447 76.1557 -0.998279 76.1554C2.79399 68.3365 4.9566 60.0766 -0.915347 52.4269C-0.942095 52.3921 -0.998538 52.4098 -0.998538 52.4537C-0.998538 52.4638 -0.995074 52.4739 -0.988909 52.4819C4.73221 59.9686 2.75578 68.0429 -0.898075 75.714C-0.963886 75.8522 -0.998539 76.0035 -0.998539 76.1565ZM-0.998539 70.2442C-0.998539 70.3049 -0.914432 70.3182 -0.89571 70.2605C0.605939 65.6329 1.02118 60.9445 -0.900332 56.4011C-0.922259 56.3492 -0.998538 56.3644 -0.998538 56.4207C-0.998538 56.4277 -0.997134 56.4346 -0.994433 56.441C0.906018 60.9597 0.494473 65.6232 -0.995929 70.2277C-0.997654 70.233 -0.998539 70.2386 -0.998539 70.2442ZM-0.998537 32.3029C-0.998537 32.1186 -0.963136 31.9358 -0.891512 31.766C0.313338 28.9082 2.13258 26.0257 3.94534 23.1573C7.77505 17.0955 11.5635 11.097 9.39818 5.53669C7.53088 0.742102 5.16154 -2.0506 2.99738 -4.60301C2.33646 -5.38268 1.69383 -6.13989 1.09038 -6.9247C1.0667 -6.9555 1.08868 -7.00001 1.12755 -7.00001C1.14215 -7.00001 1.15593 -6.9932 1.16483 -6.9816C1.77515 -6.1848 2.42596 -5.41704 3.09711 -4.62633C5.26471 -2.07153 7.63521 0.723572 9.50478 5.52473C11.6758 11.1 7.88165 17.1056 4.04851 23.174C2.12643 26.2162 0.196349 29.2739 -0.998094 32.3006C-0.998384 32.3013 -0.998537 32.3021 -0.998537 32.3029ZM-0.998537 27.6153C-0.998537 27.4857 -0.964372 27.3584 -0.898988 27.2465C-0.102266 25.8831 0.760222 24.5182 1.61955 23.1567C5.44926 17.0949 9.23769 11.0964 7.07237 5.53609C5.20509 0.741503 2.83575 -2.0512 0.671585 -4.60361C0.0997161 -5.27787 -0.458572 -5.93559 -0.988647 -6.60905C-0.995056 -6.6172 -0.998535 -6.62726 -0.998535 -6.63763C-0.998535 -6.68164 -0.94278 -6.70083 -0.915604 -6.66622C-0.377289 -5.98079 0.190323 -5.31248 0.772461 -4.62633C2.94006 -2.07153 5.31056 0.723572 7.18013 5.52473C9.35118 11.1 5.55701 17.1056 1.72386 23.174C0.789763 24.6521 -0.145494 26.1337 -0.998231 27.6142C-0.99843 27.6145 -0.998537 27.6149 -0.998537 27.6153ZM-0.997804 23.8046C-0.998125 23.8046 -0.998308 23.8043 -0.99814 23.804L-0.600786 23.1752C3.2335 17.1062 7.02653 11.1012 4.85548 5.52593C3.16687 1.18914 1.06871 -1.51063 -0.918198 -3.87509C-0.945587 -3.90768 -0.998535 -3.88812 -0.998535 -3.84555C-0.998535 -3.83481 -0.994782 -3.82446 -0.987869 -3.81623C0.988571 -1.4629 3.07147 1.22865 4.74889 5.53668C6.9142 11.097 3.1246 17.0955 -0.70395 23.1573L-0.975572 23.5877C-0.989824 23.6103 -0.997392 23.6365 -0.997392 23.6632L-0.997392 23.8042C-0.997392 23.8045 -0.997575 23.8046 -0.997804 23.8046ZM-0.998536 19.9024C-0.998536 19.9522 -0.932939 19.9701 -0.907274 19.9275C2.07365 14.9723 4.31349 10.1035 2.53084 5.52533C1.49709 2.86967 0.309051 0.828033 -0.912476 -0.898436C-0.939255 -0.936275 -0.998535 -0.917171 -0.998535 -0.870818C-0.998535 -0.860978 -0.995514 -0.85142 -0.989853 -0.843378C0.221008 0.873749 1.39848 2.9033 2.42424 5.53668C4.19726 10.0915 1.97613 14.9406 -0.991487 19.877C-0.99608 19.8847 -0.998536 19.8935 -0.998536 19.9024ZM-0.998536 15.8396C-0.998536 15.8397 -0.998338 15.8398 -0.998277 15.8396C0.679687 12.3011 1.49455 8.83731 0.205047 5.52473C-0.148682 4.61733 -0.519043 3.78187 -0.903336 3.0061C-0.927033 2.95828 -0.998536 2.97524 -0.998536 3.02861C-0.998536 3.03641 -0.99675 3.04408 -0.993287 3.05107C-0.614609 3.81738 -0.249558 4.64179 0.0984492 5.53549C1.33047 8.69872 0.634856 12.0034 -0.898179 15.3806C-0.963609 15.5248 -0.998536 15.6813 -0.998536 15.8396Z" fill="#A7B6CE"/>
</g>
<defs>
<linearGradient id="paint0_linear_489_47102" x1="14.671" y1="144.439" x2="146.35" y2="98.3366" gradientUnits="userSpaceOnUse">
<stop stop-color="#FFB6D5"/>
<stop offset="0.1" stop-color="#FFE3C0"/>
<stop offset="0.29" stop-color="#C7FBDB"/>
<stop offset="0.43" stop-color="#C7CDF4"/>
<stop offset="0.54" stop-color="#FFBCD4"/>
<stop offset="0.66" stop-color="#FFE0C3"/>
<stop offset="0.76" stop-color="#B0F1D4"/>
<stop offset="0.84" stop-color="#C9CEEC"/>
<stop offset="0.91" stop-color="#FFC1DA"/>
<stop offset="1" stop-color="#BDFFE3"/>
</linearGradient>
<linearGradient id="paint1_linear_489_47102" x1="14.671" y1="144.439" x2="146.35" y2="98.3366" gradientUnits="userSpaceOnUse">
<stop stop-color="#FFB6D5"/>
<stop offset="0.1" stop-color="#FFE3C0"/>
<stop offset="0.29" stop-color="#C7FBDB"/>
<stop offset="0.43" stop-color="#C7CDF4"/>
<stop offset="0.54" stop-color="#FFBCD4"/>
<stop offset="0.66" stop-color="#FFE0C3"/>
<stop offset="0.76" stop-color="#B0F1D4"/>
<stop offset="0.84" stop-color="#C9CEEC"/>
<stop offset="0.91" stop-color="#FFC1DA"/>
<stop offset="1" stop-color="#BDFFE3"/>
</linearGradient>
</defs>
</svg>
