<svg width="196" height="195" viewBox="0 0 196 195" fill="none" xmlns="http://www.w3.org/2000/svg">
<path d="M21.6119 12.812C23.5539 11.5764 25.5201 10.3795 27.4332 9.10501C32.9799 5.40284 39.0519 2.97996 45.4997 1.41477C51.0898 0.0531102 56.757 -0.126184 62.4579 0.0628016C64.5734 0.130642 65.9806 1.26455 65.9998 3.00418C66.0191 4.77289 64.3035 6.34777 62.347 6.23631C54.7282 5.80989 47.331 6.86142 40.1988 9.5799C35.6111 11.3292 31.2547 13.5437 27.4429 16.7177C25.3466 18.4573 22.966 19.9402 21.1926 21.9657C18.3783 25.1881 15.7182 28.6092 13.4436 32.2339C9.89202 37.8889 7.80539 44.2126 6.85604 50.8126C6.36932 54.2095 6.51871 57.7033 6.42715 61.1534C6.35486 63.9591 4.17185 65.7909 2.06594 64.6618C0.514216 63.8283 0.0371333 62.3358 0.0082192 60.5865C-0.150808 49.9597 1.98884 39.8757 7.21265 30.5912C8.98123 27.4414 11.2173 24.5582 13.2268 21.5441C13.3376 21.3794 13.3183 21.1322 13.3617 20.919C16.1134 18.2151 18.865 15.5111 21.6167 12.8072L21.6119 12.812Z" fill="url(#paint0_radial_1613_76594)"/>
<path d="M113.498 194.945C91.5453 194.945 69.5868 194.873 47.6344 194.994C41.5204 195.03 35.1886 190.225 33.7554 184.967C33.199 182.922 32.7878 180.756 32.7817 178.65C32.7152 151.021 32.812 123.392 32.6789 95.7635C32.6547 90.3902 34.8379 86.2937 38.1882 82.4513C42.5847 77.4169 46.8543 72.2675 51.2206 67.2028C54.3774 63.5359 57.6249 59.9477 60.7756 56.2747C64.9423 51.4158 68.9821 46.4419 73.2093 41.6374C76.3056 38.1218 79.027 34.0192 84.1976 33.1842C85.9514 32.8998 87.7293 32.5549 89.4952 32.5549C119.068 32.5186 148.646 32.5186 178.218 32.5307C185.614 32.5307 191.656 36.0523 193.984 43.0352C194.607 44.8989 194.952 46.9441 194.958 48.9046C195.012 92.1571 195.018 135.416 194.982 178.668C194.976 187.073 190.434 192.38 182.506 194.8C181.399 195.139 180.111 194.939 178.914 194.939C157.112 194.939 135.305 194.939 113.504 194.939L113.498 194.945ZM113.588 187.218C135.087 187.218 156.592 187.145 178.091 187.266C183.498 187.297 187.271 183.775 187.259 178.069C187.174 140.099 187.217 102.129 187.217 64.1592C187.217 58.9493 187.205 53.7394 187.217 48.5355C187.235 43.7673 183.213 40.4393 179.5 40.4393C149.021 40.4514 118.541 40.4151 88.062 40.5422C86.3384 40.5482 84.3548 41.5708 82.9699 42.7084C80.9077 44.4027 79.2144 46.569 77.4667 48.6202C71.6732 55.4276 65.9644 62.3015 60.1527 69.0907C54.2866 75.9404 48.2694 82.6631 42.5001 89.5915C41.4115 90.8985 40.6072 92.9074 40.6011 94.5956C40.4862 122.975 40.5104 151.36 40.5346 179.745C40.5346 180.61 40.6858 181.524 41.0003 182.323C42.3489 185.76 45.034 187.218 48.6201 187.218C70.2702 187.218 91.9263 187.218 113.576 187.218H113.588Z" fill="url(#paint1_radial_1613_76594)"/>
<path d="M28.3432 28.405C35.6076 21.6006 44.0355 17.3432 53.9 16.1868C56.8546 15.8428 59.9097 16.0244 62.8834 16.3254C64.5259 16.4926 65.2825 18.1459 64.9042 19.6224C64.435 21.4621 63.1133 22.4034 61.399 22.2696C53.1099 21.6198 45.4673 23.5598 38.6292 28.2951C36.3211 29.891 34.056 31.6495 32.1215 33.6659C26.7247 39.2948 23.3679 45.9892 22.5251 53.8065C22.2713 56.1527 22.2857 58.5275 22.1659 60.888C22.075 62.6846 20.9018 63.9413 19.2736 63.9987C17.7509 64.0512 16.1898 62.5461 16.0892 60.9023C15.4763 51.0829 18.019 42.1665 23.8132 34.1963C25.2546 32.2133 26.83 30.3306 28.3432 28.405Z" fill="url(#paint2_radial_1613_76594)"/>
<path d="M39.9782 38.6895C45.1047 33.4384 52.1947 30.9065 60.3423 31.0026C62.2617 31.0267 63.8824 32.3142 63.9901 33.7555C64.137 35.7877 62.6387 37.2338 60.4549 37.3683C58.1927 37.5076 55.818 37.4356 53.7077 38.1082C50.9461 38.9873 48.0866 40.1163 45.8098 41.8315C39.9978 46.1986 37.104 52.1511 37.2215 59.4343C37.2558 61.5915 35.7281 63.1432 33.9067 62.9895C32.1195 62.8406 31.1059 61.7212 31.0276 59.8187C30.6946 51.7571 33.3583 44.8678 39.9782 38.6943V38.6895Z" fill="url(#paint3_radial_1613_76594)"/>
<path d="M129.366 121.559C128.774 126.678 126.584 130.514 121.704 132.36C120.894 132.669 119.993 132.868 119.128 132.886C115.808 132.941 112.451 132.584 109.18 132.971C104.414 133.534 98.8566 127.864 98.4152 123.205C97.9918 118.733 97.5867 114.334 98.9655 109.989C100.296 105.796 104.299 102.081 109.446 102.498C112.591 102.759 115.79 102.692 118.946 102.51C123.301 102.256 128.393 107.049 128.834 111.151C128.925 112.004 129.257 112.827 129.511 113.771C132.819 113.771 136.055 113.771 139.29 113.771C139.732 113.771 140.167 113.717 140.742 113.687V86.7295C139.913 86.7295 139.115 86.7295 138.317 86.7295C128.284 86.7295 118.245 86.8929 108.218 86.6327C105.073 86.554 104.239 88.932 102.763 90.4871C99.2376 94.2085 96.0627 98.2626 92.7366 102.178C90.9526 104.277 89.1322 106.347 87.3845 108.471C87.0761 108.846 86.8765 109.433 86.8765 109.923C86.8463 120.101 86.8523 130.284 86.8523 140.734H89.1867C109.784 140.734 130.376 140.656 150.968 140.807C154.85 140.837 156.387 138.538 156.38 135.373C156.332 115.75 156.362 96.1206 156.35 76.4973C156.35 72.8122 154.869 71.3055 151.27 71.3055C134.676 71.2995 118.076 71.2632 101.481 71.3721C100.169 71.3781 98.4938 72.0437 97.6169 72.9877C94.0852 76.7998 90.8134 80.854 87.4208 84.7992C84.3608 88.3572 81.2765 91.891 78.2044 95.4308C76.1543 97.7907 74.0619 100.12 72.0904 102.547C71.6368 103.109 71.4191 104.023 71.4131 104.78C71.3707 120.482 71.3586 136.178 71.3828 151.88C71.3828 155.19 72.671 156.249 76.2934 156.249C106.168 156.249 136.037 156.249 165.911 156.249C170.628 156.249 171.802 155.069 171.802 150.319C171.802 120.73 171.771 91.1406 171.832 61.5513C171.838 57.2249 169.697 55.7968 166.069 55.821C142.308 55.9481 118.541 55.9179 94.7806 55.8392C92.5128 55.8331 90.9344 56.6137 89.5556 58.2535C83.9072 64.9822 78.2649 71.717 72.5621 78.3912C67.5729 84.2304 62.5111 90.0091 57.4494 95.7878C56.3124 97.0888 55.8952 98.5047 55.8952 100.229C55.9315 122.346 55.9194 144.462 55.9194 166.578C55.9194 170.602 57.0926 171.758 61.1867 171.758C97.3206 171.758 133.46 171.758 169.594 171.758C171.402 171.758 173.217 171.734 175.025 171.764C177.644 171.806 179.488 173.422 179.506 175.637C179.524 177.815 177.559 179.533 174.952 179.533C154.657 179.546 134.368 179.533 114.072 179.533C96.1171 179.533 78.1621 179.455 60.207 179.582C54.7159 179.618 49.9444 176.314 48.5293 171.032C48.36 170.402 48.233 169.743 48.233 169.095C48.2148 145.472 48.1423 121.843 48.3358 98.2203C48.3539 95.9451 49.6239 93.3493 51.0572 91.4734C54.9397 86.4027 59.1971 81.6164 63.3638 76.7696C66.6174 72.9816 69.9798 69.2845 73.2576 65.5087C77.1642 61.0067 81.077 56.5048 84.893 51.9303C86.7314 49.7338 89.0476 48.6022 91.7932 48.2089C92.6096 48.0939 93.4441 48.0516 94.2726 48.0516C118.565 48.0455 142.858 48.0334 167.145 48.0516C171.91 48.0516 175.853 49.8306 178.006 54.272C178.871 56.0631 179.446 58.1991 179.446 60.1777C179.536 90.826 179.524 121.468 179.494 152.116C179.488 159.329 173.858 164.109 167.369 164.109C136.889 164.091 106.416 164.019 75.9366 164.164C68.9638 164.194 63.4183 158.736 63.5271 151.82C63.763 136.729 63.7206 121.626 63.5271 106.534C63.4666 102.117 64.9422 98.6439 67.7241 95.461C73.7111 88.6113 79.674 81.7435 85.6126 74.8514C87.7958 72.316 89.7491 69.5689 92.0411 67.1424C94.1577 64.9036 96.8428 63.5602 100.066 63.5602C117.495 63.5602 134.918 63.5058 152.347 63.5905C154.034 63.5966 155.824 64.1533 157.39 64.8552C161.799 66.8338 164.025 70.5249 164.049 75.2205C164.152 95.8241 164.176 116.434 164.049 137.037C164.006 144.038 158.612 148.577 152.292 148.613C130.491 148.74 108.69 148.583 86.8886 148.728C82.6856 148.758 78.912 144.48 78.9664 140.886C79.1357 130.169 79.0632 119.447 79.0148 108.731C79.0027 105.542 81.2524 103.666 82.988 101.548C87.191 96.4171 91.5331 91.4069 95.8631 86.3906C97.6229 84.3514 99.3465 82.2275 101.384 80.503C102.449 79.6014 104.166 79.0689 105.594 79.0508C117.132 78.9358 128.677 78.8571 140.222 79.0447C145.707 79.1355 148.519 82.0218 148.634 87.4616C148.821 95.9875 148.688 104.519 148.682 113.051C148.682 117.868 145.229 121.795 140.022 121.577C136.563 121.432 133.092 121.547 129.354 121.547L129.366 121.559ZM113.6 110.25C112.318 110.25 111.036 110.25 109.754 110.25C107.704 110.256 106.253 111.563 106.192 113.644C106.114 116.355 106.102 119.078 106.198 121.789C106.277 123.967 107.613 125.165 109.797 125.19C112.361 125.22 114.919 125.226 117.483 125.19C119.757 125.153 121.492 123.411 121.547 121.099C121.601 118.836 121.607 116.573 121.547 114.316C121.474 111.454 120.235 110.268 117.435 110.256C116.152 110.25 114.87 110.256 113.588 110.256L113.6 110.25Z" fill="url(#paint4_radial_1613_76594)"/>
<defs>
<radialGradient id="paint0_radial_1613_76594" cx="0" cy="0" r="1" gradientUnits="userSpaceOnUse" gradientTransform="translate(165.212 45.7647) rotate(-32.1334) scale(418.984 223.521)">
<stop stop-color="#FFB6D5"/>
<stop offset="0.1" stop-color="#FFE3C0"/>
<stop offset="0.29" stop-color="#C7FBDB"/>
<stop offset="0.43" stop-color="#C7CDF4"/>
<stop offset="0.54" stop-color="#FFBCD4"/>
<stop offset="0.66" stop-color="#FFE0C3"/>
<stop offset="0.76" stop-color="#B0F1D4"/>
<stop offset="0.84" stop-color="#C9CEEC"/>
<stop offset="0.91" stop-color="#FFC1DA"/>
<stop offset="1" stop-color="#BDFFE3"/>
</radialGradient>
<radialGradient id="paint1_radial_1613_76594" cx="0" cy="0" r="1" gradientUnits="userSpaceOnUse" gradientTransform="translate(165.212 45.7647) rotate(-32.1334) scale(418.984 223.521)">
<stop stop-color="#FFB6D5"/>
<stop offset="0.1" stop-color="#FFE3C0"/>
<stop offset="0.29" stop-color="#C7FBDB"/>
<stop offset="0.43" stop-color="#C7CDF4"/>
<stop offset="0.54" stop-color="#FFBCD4"/>
<stop offset="0.66" stop-color="#FFE0C3"/>
<stop offset="0.76" stop-color="#B0F1D4"/>
<stop offset="0.84" stop-color="#C9CEEC"/>
<stop offset="0.91" stop-color="#FFC1DA"/>
<stop offset="1" stop-color="#BDFFE3"/>
</radialGradient>
<radialGradient id="paint2_radial_1613_76594" cx="0" cy="0" r="1" gradientUnits="userSpaceOnUse" gradientTransform="translate(165.212 45.7647) rotate(-32.1334) scale(418.984 223.521)">
<stop stop-color="#FFB6D5"/>
<stop offset="0.1" stop-color="#FFE3C0"/>
<stop offset="0.29" stop-color="#C7FBDB"/>
<stop offset="0.43" stop-color="#C7CDF4"/>
<stop offset="0.54" stop-color="#FFBCD4"/>
<stop offset="0.66" stop-color="#FFE0C3"/>
<stop offset="0.76" stop-color="#B0F1D4"/>
<stop offset="0.84" stop-color="#C9CEEC"/>
<stop offset="0.91" stop-color="#FFC1DA"/>
<stop offset="1" stop-color="#BDFFE3"/>
</radialGradient>
<radialGradient id="paint3_radial_1613_76594" cx="0" cy="0" r="1" gradientUnits="userSpaceOnUse" gradientTransform="translate(165.212 45.7647) rotate(-32.1334) scale(418.984 223.521)">
<stop stop-color="#FFB6D5"/>
<stop offset="0.1" stop-color="#FFE3C0"/>
<stop offset="0.29" stop-color="#C7FBDB"/>
<stop offset="0.43" stop-color="#C7CDF4"/>
<stop offset="0.54" stop-color="#FFBCD4"/>
<stop offset="0.66" stop-color="#FFE0C3"/>
<stop offset="0.76" stop-color="#B0F1D4"/>
<stop offset="0.84" stop-color="#C9CEEC"/>
<stop offset="0.91" stop-color="#FFC1DA"/>
<stop offset="1" stop-color="#BDFFE3"/>
</radialGradient>
<radialGradient id="paint4_radial_1613_76594" cx="0" cy="0" r="1" gradientUnits="userSpaceOnUse" gradientTransform="translate(165.212 45.7647) rotate(-32.1334) scale(418.984 223.521)">
<stop stop-color="#FFB6D5"/>
<stop offset="0.1" stop-color="#FFE3C0"/>
<stop offset="0.29" stop-color="#C7FBDB"/>
<stop offset="0.43" stop-color="#C7CDF4"/>
<stop offset="0.54" stop-color="#FFBCD4"/>
<stop offset="0.66" stop-color="#FFE0C3"/>
<stop offset="0.76" stop-color="#B0F1D4"/>
<stop offset="0.84" stop-color="#C9CEEC"/>
<stop offset="0.91" stop-color="#FFC1DA"/>
<stop offset="1" stop-color="#BDFFE3"/>
</radialGradient>
</defs>
</svg>
