<svg width="137" height="8" viewBox="0 0 137 8" fill="none" xmlns="http://www.w3.org/2000/svg">
<path d="M0.333333 4C0.333333 5.47276 1.52724 6.66667 3 6.66667C4.47276 6.66667 5.66667 5.47276 5.66667 4C5.66667 2.52724 4.47276 1.33333 3 1.33333C1.52724 1.33333 0.333333 2.52724 0.333333 4ZM136.354 4.35354C136.549 4.15828 136.549 3.8417 136.354 3.64643L133.172 0.464455C132.976 0.269193 132.66 0.269193 132.464 0.464455C132.269 0.659717 132.269 0.976299 132.464 1.17156L135.293 3.99999L132.464 6.82842C132.269 7.02368 132.269 7.34026 132.464 7.53552C132.66 7.73078 132.976 7.73078 133.172 7.53552L136.354 4.35354ZM4.95588 4.5C5.23202 4.5 5.45588 4.27614 5.45588 4C5.45588 3.72386 5.23202 3.5 4.95588 3.5L4.95588 4.5ZM8.86765 3.5C8.59151 3.5 8.36765 3.72386 8.36765 4C8.36765 4.27614 8.59151 4.5 8.86765 4.5L8.86765 3.5ZM12.7794 4.5C13.0556 4.5 13.2794 4.27614 13.2794 4C13.2794 3.72386 13.0556 3.5 12.7794 3.5L12.7794 4.5ZM16.6912 3.5C16.415 3.5 16.1912 3.72386 16.1912 4C16.1912 4.27614 16.415 4.5 16.6912 4.5L16.6912 3.5ZM20.6029 4.5C20.8791 4.5 21.1029 4.27614 21.1029 4C21.1029 3.72386 20.8791 3.5 20.6029 3.5L20.6029 4.5ZM24.5147 3.5C24.2386 3.5 24.0147 3.72386 24.0147 4C24.0147 4.27614 24.2386 4.5 24.5147 4.5L24.5147 3.5ZM28.4265 4.5C28.7026 4.5 28.9265 4.27614 28.9265 4C28.9265 3.72386 28.7026 3.5 28.4265 3.5L28.4265 4.5ZM32.3382 3.5C32.0621 3.5 31.8382 3.72386 31.8382 4C31.8382 4.27614 32.0621 4.5 32.3382 4.5L32.3382 3.5ZM36.25 4.5C36.5261 4.5 36.75 4.27614 36.75 4C36.75 3.72385 36.5261 3.5 36.25 3.5L36.25 4.5ZM40.1618 3.5C39.8856 3.5 39.6618 3.72385 39.6618 4C39.6618 4.27614 39.8856 4.5 40.1618 4.5L40.1618 3.5ZM44.0735 4.5C44.3497 4.5 44.5735 4.27614 44.5735 4C44.5735 3.72385 44.3497 3.5 44.0735 3.5L44.0735 4.5ZM47.9853 3.5C47.7092 3.5 47.4853 3.72385 47.4853 4C47.4853 4.27614 47.7092 4.5 47.9853 4.5L47.9853 3.5ZM51.8971 4.5C52.1732 4.5 52.3971 4.27614 52.3971 4C52.3971 3.72385 52.1732 3.5 51.8971 3.5L51.8971 4.5ZM55.8088 3.5C55.5327 3.5 55.3088 3.72385 55.3088 4C55.3088 4.27614 55.5327 4.5 55.8088 4.5L55.8088 3.5ZM59.7206 4.5C59.9967 4.5 60.2206 4.27614 60.2206 3.99999C60.2206 3.72385 59.9967 3.5 59.7206 3.5L59.7206 4.5ZM63.6324 3.49999C63.3562 3.49999 63.1324 3.72385 63.1324 3.99999C63.1324 4.27614 63.3562 4.49999 63.6324 4.49999L63.6324 3.49999ZM67.5441 4.49999C67.8203 4.49999 68.0441 4.27614 68.0441 3.99999C68.0441 3.72385 67.8203 3.49999 67.5441 3.49999L67.5441 4.49999ZM71.4559 3.49999C71.1797 3.49999 70.9559 3.72385 70.9559 3.99999C70.9559 4.27614 71.1797 4.49999 71.4559 4.49999L71.4559 3.49999ZM75.3677 4.49999C75.6438 4.49999 75.8677 4.27614 75.8677 3.99999C75.8677 3.72385 75.6438 3.49999 75.3677 3.49999L75.3677 4.49999ZM79.2794 3.49999C79.0033 3.49999 78.7794 3.72385 78.7794 3.99999C78.7794 4.27614 79.0033 4.49999 79.2794 4.49999L79.2794 3.49999ZM83.1912 4.49999C83.4673 4.49999 83.6912 4.27614 83.6912 3.99999C83.6912 3.72385 83.4673 3.49999 83.1912 3.49999L83.1912 4.49999ZM87.103 3.49999C86.8268 3.49999 86.603 3.72385 86.603 3.99999C86.603 4.27614 86.8268 4.49999 87.103 4.49999L87.103 3.49999ZM91.0147 4.49999C91.2909 4.49999 91.5147 4.27613 91.5147 3.99999C91.5147 3.72385 91.2909 3.49999 91.0147 3.49999L91.0147 4.49999ZM94.9265 3.49999C94.6503 3.49999 94.4265 3.72385 94.4265 3.99999C94.4265 4.27613 94.6503 4.49999 94.9265 4.49999L94.9265 3.49999ZM98.8382 4.49999C99.1144 4.49999 99.3382 4.27613 99.3382 3.99999C99.3382 3.72385 99.1144 3.49999 98.8382 3.49999L98.8382 4.49999ZM102.75 3.49999C102.474 3.49999 102.25 3.72385 102.25 3.99999C102.25 4.27613 102.474 4.49999 102.75 4.49999L102.75 3.49999ZM106.662 4.49999C106.938 4.49999 107.162 4.27613 107.162 3.99999C107.162 3.72385 106.938 3.49999 106.662 3.49999L106.662 4.49999ZM110.574 3.49999C110.297 3.49999 110.074 3.72385 110.074 3.99999C110.074 4.27613 110.297 4.49999 110.574 4.49999L110.574 3.49999ZM114.485 4.49999C114.761 4.49999 114.985 4.27613 114.985 3.99999C114.985 3.72385 114.761 3.49999 114.485 3.49999L114.485 4.49999ZM118.397 3.49999C118.121 3.49999 117.897 3.72385 117.897 3.99999C117.897 4.27613 118.121 4.49999 118.397 4.49999L118.397 3.49999ZM122.309 4.49999C122.585 4.49999 122.809 4.27613 122.809 3.99999C122.809 3.72385 122.585 3.49999 122.309 3.49999L122.309 4.49999ZM126.221 3.49999C125.944 3.49999 125.721 3.72385 125.721 3.99999C125.721 4.27613 125.944 4.49999 126.221 4.49999L126.221 3.49999ZM130.132 4.49999C130.409 4.49999 130.632 4.27613 130.632 3.99999C130.632 3.72385 130.409 3.49999 130.132 3.49999L130.132 4.49999ZM134.044 3.49999C133.768 3.49999 133.544 3.72385 133.544 3.99999C133.544 4.27613 133.768 4.49999 134.044 4.49999L134.044 3.49999ZM3 4.5L4.95588 4.5L4.95588 3.5L3 3.5L3 4.5ZM8.86765 4.5L12.7794 4.5L12.7794 3.5L8.86765 3.5L8.86765 4.5ZM16.6912 4.5L20.6029 4.5L20.6029 3.5L16.6912 3.5L16.6912 4.5ZM24.5147 4.5L28.4265 4.5L28.4265 3.5L24.5147 3.5L24.5147 4.5ZM32.3382 4.5L36.25 4.5L36.25 3.5L32.3382 3.5L32.3382 4.5ZM40.1618 4.5L44.0735 4.5L44.0735 3.5L40.1618 3.5L40.1618 4.5ZM47.9853 4.5L51.8971 4.5L51.8971 3.5L47.9853 3.5L47.9853 4.5ZM55.8088 4.5L59.7206 4.5L59.7206 3.5L55.8088 3.5L55.8088 4.5ZM63.6324 4.49999L67.5441 4.49999L67.5441 3.49999L63.6324 3.49999L63.6324 4.49999ZM71.4559 4.49999L75.3677 4.49999L75.3677 3.49999L71.4559 3.49999L71.4559 4.49999ZM79.2794 4.49999L83.1912 4.49999L83.1912 3.49999L79.2794 3.49999L79.2794 4.49999ZM87.103 4.49999L91.0147 4.49999L91.0147 3.49999L87.103 3.49999L87.103 4.49999ZM94.9265 4.49999L98.8382 4.49999L98.8382 3.49999L94.9265 3.49999L94.9265 4.49999ZM102.75 4.49999L106.662 4.49999L106.662 3.49999L102.75 3.49999L102.75 4.49999ZM110.574 4.49999L114.485 4.49999L114.485 3.49999L110.574 3.49999L110.574 4.49999ZM118.397 4.49999L122.309 4.49999L122.309 3.49999L118.397 3.49999L118.397 4.49999ZM126.221 4.49999L130.132 4.49999L130.132 3.49999L126.221 3.49999L126.221 4.49999ZM134.044 4.49999L136 4.49999L136 3.49999L134.044 3.49999L134.044 4.49999Z" fill="#222222"/>
</svg>
