<svg width="240" height="57" viewBox="0 0 240 57" fill="none" xmlns="http://www.w3.org/2000/svg">
<path d="M105.245 -1.57343C105.245 -1.57333 105.245 -1.57334 105.244 -1.57344C102.865 -2.82867 100.109 -3.83625 97.1359 -4.70089C96.6624 -4.83863 96.1707 -4.93533 95.6704 -5.00354C93.8999 -5.24493 92.186 -5.53874 90.5575 -5.91131C90.5205 -5.91692 90.499 -5.86633 90.5332 -5.85417C93.1899 -4.90879 95.6411 -3.84354 97.7596 -2.58447C110.54 5.01311 116.266 23.9639 132.958 27.6427C139.13 29.0029 145.558 28.0007 152.03 26.1369C148.561 26.7446 145.096 26.8807 141.652 26.2787C125.207 23.4026 118.205 5.26477 105.246 -1.57341C105.246 -1.57351 105.245 -1.57352 105.245 -1.57343Z" fill="#222222"/>
<path d="M190.664 13.3654C190.664 13.3654 190.664 13.3653 190.664 13.3653C187.819 13.6993 184.931 14.4346 182.011 15.3968C181.927 15.4245 181.845 15.4595 181.766 15.5006C180.201 16.3161 178.617 17.0623 177.007 17.6989C176.946 17.7284 176.972 17.81 177.036 17.7938C179.553 17.1599 182.034 16.7035 184.461 16.5241C201.306 15.2803 223.589 25.6908 238.197 19.9027C240.712 18.9062 242.796 17.5099 244.577 15.832C245.257 15.1913 243.815 14.0262 242.954 14.417C229.255 20.6341 206.879 11.4622 190.664 13.3655C190.664 13.3655 190.664 13.3654 190.664 13.3654Z" fill="#222222"/>
<path d="M152.029 26.1375C152.029 26.1375 152.029 26.1375 152.029 26.1375C154.934 25.6286 157.841 24.7892 160.742 23.7746C159.694 24.0277 158.643 24.2368 157.589 24.3933C157.482 24.4092 157.375 24.4349 157.271 24.4706C155.523 25.0691 153.774 25.6345 152.029 26.1372C152.029 26.1372 152.029 26.1374 152.029 26.1375Z" fill="#222222"/>
<path d="M160.742 23.7746C160.742 23.7748 160.742 23.7749 160.742 23.7749C163.539 23.0992 166.313 22.1097 169.068 20.9625C168.321 21.1969 167.57 21.4081 166.816 21.5931C166.249 21.7322 165.687 21.9028 165.14 22.1207C163.676 22.7034 162.21 23.2614 160.742 23.7745C160.742 23.7745 160.742 23.7746 160.742 23.7746Z" fill="#222222"/>
<path d="M119.859 -0.750245C119.859 -0.750179 119.858 -0.750081 119.858 -0.750115C116.164 -2.26051 111.727 -3.15281 107.033 -3.82856C105.325 -3.92267 103.648 -4.04834 102.023 -4.22854C105.918 -3.40863 109.554 -2.39642 112.624 -0.965994C125.686 5.12214 133.854 22.4044 149.983 24.5101C152.455 24.8328 154.908 24.7721 157.343 24.4289C157.399 24.421 157.455 24.4074 157.51 24.3886C157.695 24.3249 157.88 24.2609 158.065 24.1965C158.877 23.9139 158.737 22.433 157.92 22.3619C142.171 20.9903 132.949 4.60242 119.859 -0.750376C119.859 -0.75041 119.858 -0.750312 119.859 -0.750245Z" fill="#222222"/>
<path d="M201.666 6.3748C201.666 6.37493 201.665 6.37503 201.665 6.37506C197.862 7.16422 194.102 8.76118 190.335 10.6548C189.037 11.4883 187.725 12.2852 186.39 13.0155C189.747 11.6265 193.083 10.5102 196.404 9.97275C211.943 7.45813 234.294 15.4183 247.068 8.82874C248.861 7.90382 250.346 6.75257 251.6 5.43087C251.674 5.35283 251.734 5.26536 251.779 5.17264C251.931 4.85767 252.082 4.54126 252.232 4.22373C252.593 3.46034 251.317 2.72123 250.54 3.17416C238.702 10.0794 216.49 3.29898 201.666 6.37455C201.666 6.37458 201.666 6.37468 201.666 6.3748Z" fill="#222222"/>
<path d="M175.016 18.422C174.433 18.6147 173.857 18.8317 173.297 19.0911C171.892 19.7424 170.482 20.373 169.067 20.9626C171.475 20.2063 173.847 19.2113 176.193 18.0917C176.243 18.0679 176.223 18.0037 176.17 18.018C175.787 18.1593 175.402 18.2942 175.016 18.422Z" fill="#222222"/>
<path d="M165.858 21.3819C165.524 21.5029 165.59 21.8712 165.933 21.7968C165.952 21.7927 165.971 21.7868 165.99 21.7794C167.987 20.9718 169.978 20.1255 171.961 19.2922C171.976 19.2859 171.971 19.265 171.955 19.2684C169.938 19.9198 167.903 20.6403 165.858 21.3819Z" fill="#222222"/>
<path d="M180.481 15.919C180.481 15.919 180.481 15.9189 180.481 15.9189C180.877 15.779 181.272 15.6428 181.667 15.5105C181.811 15.4621 181.952 15.4025 182.088 15.331C182.925 14.889 183.757 14.4277 184.584 13.9539C183.735 14.3704 182.876 14.7565 182.004 15.1039C181.498 15.3774 180.99 15.6493 180.481 15.9192C180.481 15.9192 180.481 15.9191 180.481 15.919Z" fill="#222222"/>
<path d="M178.211 16.755C178.212 16.7549 178.211 16.7548 178.211 16.7549C177.506 17.0939 176.799 17.434 176.091 17.7726C175.937 17.8462 176.006 18.0615 176.169 18.018C176.449 17.915 176.727 17.8084 177.005 17.6989C177.553 17.4303 178.1 17.1557 178.645 16.8765C178.84 16.7768 178.748 16.5515 178.544 16.6288C178.433 16.6707 178.322 16.7128 178.212 16.7551C178.212 16.7551 178.211 16.755 178.211 16.755Z" fill="#222222"/>
<path d="M172.22 19.1841C172.22 19.1842 172.22 19.1843 172.22 19.1843C172.218 19.1851 172.216 19.186 172.214 19.1868C172.199 19.1931 172.204 19.2134 172.22 19.2098C172.862 19.0617 173.5 18.891 174.133 18.7011C174.136 18.7001 174.139 18.6988 174.142 18.6973C174.211 18.6651 174.183 18.5782 174.11 18.5996C173.482 18.7864 172.852 18.9816 172.22 19.1838C172.22 19.1838 172.22 19.1839 172.22 19.1841Z" fill="#222222"/>
<path d="M255.584 -8.19335C255.584 -8.19341 255.584 -8.19346 255.584 -8.19341C245.622 -0.82523 224.01 -5.36487 210.711 -1.32174C205.91 0.13773 201.425 3.07962 196.915 6.18893C195.96 6.90144 194.996 7.59626 194.018 8.25938C198.11 5.83047 202.203 3.67949 206.438 2.60039C220.513 -0.984952 242.477 4.65314 253.377 -2.51126C254.814 -3.4559 255.969 -4.56522 256.907 -5.80116C256.972 -5.88623 257.028 -5.97578 257.077 -6.06805C257.677 -7.70207 258.289 -9.32739 258.959 -10.9055C259.022 -11.1307 258.561 -11.2502 258.416 -11.0499C257.66 -10.0006 256.73 -9.04113 255.584 -8.19328C255.584 -8.19324 255.584 -8.19328 255.584 -8.19335Z" fill="#222222"/>
<path d="M172.492 17.0392C172.492 17.0391 172.492 17.039 172.492 17.039C157.676 17.017 146.694 2.50304 133.755 -1.43449C128.674 -2.98093 122.435 -3.29886 116.091 -3.49945C114.735 -3.50136 113.393 -3.5186 112.074 -3.564C117.468 -3.1003 122.642 -2.42846 126.915 -0.910858C139.964 3.7237 150.123 19.1867 165.433 19.8627C167.671 19.9617 169.84 19.7362 171.956 19.2694C172.044 19.2407 172.133 19.2126 172.221 19.1842C174.228 18.3414 176.227 17.5138 178.212 16.7553C178.98 16.3864 179.747 16.0187 180.513 15.656C177.962 16.525 175.304 17.0434 172.492 17.0394C172.492 17.0394 172.492 17.0393 172.492 17.0392Z" fill="#222222"/>
<path d="M184.584 13.9538C185.192 13.6561 185.793 13.3424 186.391 13.0153C185.936 13.2031 185.496 13.4271 185.069 13.6743C184.908 13.7679 184.746 13.8611 184.584 13.9538Z" fill="#222222"/>
<path d="M188.775 11.4541C189.295 11.1831 189.815 10.9161 190.335 10.6548C190.886 10.3006 191.435 9.93946 191.981 9.57441C191.286 10.0002 190.581 10.4048 189.866 10.7846C189.503 11.0076 189.14 11.231 188.777 11.4534C188.776 11.4537 188.776 11.454 188.775 11.4541Z" fill="#222222"/>
<path d="M184.954 13.6252C185.456 13.4073 185.946 13.1624 186.416 12.8822C187.206 12.4119 187.992 11.934 188.775 11.454C187.102 12.3264 185.427 13.2429 183.744 14.1596C184.148 13.9785 184.551 13.8003 184.954 13.6252Z" fill="#222222"/>
<path d="M182.004 15.1037C182.585 14.7904 183.165 14.4749 183.744 14.1595C182.669 14.6417 181.592 15.1435 180.512 15.6554C181.013 15.4845 181.511 15.3004 182.004 15.1037Z" fill="#222222"/>
<path d="M191.981 9.57409C191.981 9.5741 191.981 9.57409 191.981 9.57405C192.667 9.15385 193.346 8.71404 194.017 8.25879C193.757 8.41289 193.497 8.56822 193.237 8.72449C192.82 9.00944 192.401 9.2929 191.98 9.57371C191.98 9.57382 191.98 9.57405 191.981 9.57409Z" fill="#222222"/>
<path d="M214.481 -5.3623C214.481 -5.36222 214.481 -5.36214 214.481 -5.36216C226.981 -9.80953 248.145 -6.32093 257.176 -13.8382C259.544 -15.8093 260.786 -18.2948 261.41 -21.0632C261.544 -22.1972 261.677 -23.3326 261.827 -24.4581C261.887 -25.7124 261.928 -26.9763 261.981 -28.2346C261.892 -34.3945 260.978 -40.9387 263.316 -46.0136C267.612 -55.336 285.94 -63.7441 284.961 -74.2205C284.691 -77.1092 282.993 -79.7213 280.55 -82.1759C279.592 -83.0108 278.634 -83.8432 277.7 -84.675C276.539 -85.5889 275.36 -86.4966 274.197 -87.403C268.207 -91.7233 261.355 -95.7974 258.232 -100.43C252.014 -109.654 256.511 -125.136 246.15 -131.853C243.434 -133.615 240.03 -134.556 236.247 -135.048C234.7 -135.16 233.15 -135.271 231.614 -135.395C229.903 -135.455 228.179 -135.5 226.463 -135.555C218.065 -135.565 209.154 -134.975 202.205 -136.753C189.442 -140.018 177.753 -153.566 163.481 -152.977C159.545 -152.814 156.005 -151.601 152.688 -149.839C151.561 -149.146 150.438 -148.454 149.316 -147.779C148.084 -146.939 146.861 -146.085 145.639 -145.243C139.823 -140.902 134.352 -135.926 128.073 -133.692C115.573 -129.245 94.4089 -132.733 85.3779 -125.216C83.0097 -123.245 81.7679 -120.759 81.1441 -117.991C81.0098 -116.857 80.8775 -115.722 80.7271 -114.596C80.6674 -113.342 80.6266 -112.078 80.5732 -110.82C80.6617 -104.66 81.5759 -98.1155 79.238 -93.0406C74.9427 -83.7181 56.6145 -75.31 57.5934 -64.8337C57.8635 -61.945 59.5608 -59.3329 62.0041 -56.8783C62.9626 -56.0433 63.9197 -55.2109 64.8538 -54.3791C66.0148 -53.4652 67.1941 -52.5576 68.3575 -51.6512C74.3469 -47.3312 81.1993 -43.2567 84.3221 -38.6239C90.5397 -29.4 86.0432 -13.9178 96.4037 -7.20084C99.1203 -5.43944 102.524 -4.49795 106.307 -4.00634C107.855 -3.89393 109.404 -3.78291 110.941 -3.65874C112.652 -3.59955 114.375 -3.55405 116.092 -3.49944C124.489 -3.48866 133.401 -4.07885 140.349 -2.30148C153.112 0.963904 164.802 14.5117 179.074 13.9224C183.009 13.7598 186.549 12.5468 189.866 10.7848C190.993 10.0919 192.116 9.4001 193.239 8.72512C194.47 7.8847 195.693 7.03079 196.915 6.18855C202.731 1.84819 208.203 -3.1282 214.481 -5.36242C214.481 -5.36245 214.481 -5.36239 214.481 -5.3623ZM185.157 10.5426C171.472 11.6971 159.192 -0.873136 146.664 -3.49367C133.677 -6.2105 114.496 -0.361197 104.016 -6.40588C93.5363 -12.4506 96.6778 -27.5502 89.9918 -36.18C83.5423 -44.5049 64.0184 -50.2775 62.2762 -60.3296C60.534 -70.3817 77.522 -79.2354 80.9409 -88.393C84.4856 -97.8862 76.2746 -112.028 84.3874 -119.641C92.5003 -127.254 113.126 -124.764 124.811 -129.563C136.082 -134.191 143.713 -148.442 157.397 -149.597C171.081 -150.751 183.361 -138.181 195.889 -135.56C208.877 -132.843 228.057 -138.693 238.537 -132.648C249.017 -126.603 245.876 -111.504 252.562 -102.874C259.011 -94.549 278.535 -88.7763 280.277 -78.7243C282.019 -68.6722 265.031 -59.8185 261.612 -50.6609C258.068 -41.1677 266.279 -27.0258 258.166 -19.4126C250.053 -11.7995 229.427 -14.2895 217.743 -9.4911C206.471 -4.86248 198.841 9.38818 185.157 10.5426Z" fill="#222222"/>
<path d="M258.571 -24.8856C258.571 -24.8855 258.572 -24.8855 258.572 -24.8856C265.784 -32.543 256.816 -45.8104 259.496 -55.0884C262.082 -64.0386 277.725 -73.2538 275.284 -82.8523C272.843 -92.4512 253.647 -97.2028 246.815 -104.947C239.734 -112.975 241.599 -127.63 231.07 -133.014C220.541 -138.399 202.561 -131.984 189.878 -134.064C177.643 -136.071 164.886 -147.659 151.829 -145.986C138.772 -144.313 132.529 -130.291 122.054 -125.374C111.196 -120.279 91.1916 -121.827 83.9794 -114.17C76.7672 -106.512 85.7347 -93.2445 83.0545 -83.9665C80.4688 -75.0163 64.8255 -65.8011 67.267 -56.2026C69.7082 -46.6037 88.904 -41.8521 95.7358 -34.1085C102.817 -26.0808 100.952 -11.4257 111.481 -6.04113C122.01 -0.65655 139.99 -7.07154 152.673 -4.99147C164.908 -2.98475 177.665 8.60354 190.722 6.9306C203.779 5.25781 210.022 -8.76467 220.496 -13.6809C231.354 -18.7767 251.358 -17.2286 258.571 -24.8856C258.571 -24.8857 258.571 -24.8857 258.571 -24.8856ZM195.757 3.12073C183.36 5.26315 170.24 -5.34585 158.351 -6.77119C146.027 -8.24927 129.269 -1.34959 118.759 -6.09027C108.249 -10.831 108.922 -24.9852 101.517 -32.4061C94.3736 -39.5647 75.5982 -43.3418 72.5247 -52.4621C69.4513 -61.5824 83.7543 -71.076 85.5522 -79.7795C87.416 -88.8019 77.8026 -101.179 84.1371 -108.83C90.4717 -116.482 109.778 -115.814 119.806 -121.155C129.478 -126.307 134.397 -140.033 146.795 -142.175C159.192 -144.318 172.312 -133.709 184.201 -132.283C196.525 -130.805 213.283 -137.705 223.793 -132.964C234.303 -128.224 233.631 -114.069 241.035 -106.649C248.179 -99.49 266.954 -95.7128 270.027 -86.5925C273.101 -77.4722 258.797 -67.9787 257 -59.2751C255.136 -50.2527 264.749 -37.8757 258.415 -30.2243C252.08 -22.5728 232.774 -23.2402 222.747 -17.8995C213.074 -12.7478 208.155 0.978286 195.757 3.12073Z" fill="#222222"/>
<path d="M257.719 -35.4013C263.204 -42.999 253.055 -54.4756 254.153 -63.2049C255.212 -71.6258 268.188 -81.316 264.551 -89.9374C260.913 -98.5587 242.645 -101.412 235.259 -107.985C227.603 -114.799 227.17 -128.402 216.743 -132.518C206.317 -136.634 190.794 -129.331 178.878 -130.244C167.384 -131.124 154.012 -140.762 142.302 -138.199C130.592 -135.637 126.925 -122.271 118.054 -116.935C108.858 -111.402 90.3167 -111.251 84.833 -103.654C79.3487 -96.056 89.497 -84.5793 88.3991 -75.85C87.3398 -67.4292 74.364 -57.7389 78.0015 -49.1176C81.639 -40.4962 99.9074 -37.6427 107.293 -31.0695C114.949 -24.2556 115.382 -10.6531 125.809 -6.53718C136.236 -2.42084 151.759 -9.72402 163.674 -8.81133C175.169 -7.9308 188.54 1.70656 200.25 -0.855712C211.961 -3.41799 215.627 -16.7836 224.498 -22.1204C233.694 -27.653 252.236 -27.8035 257.719 -35.4013ZM204.194 -4.96609C193.193 -2.03434 179.677 -10.7141 168.621 -11.0875C157.16 -11.4743 142.874 -3.84806 132.594 -7.36239C122.313 -10.8768 120.866 -23.8822 113.029 -30.0926C105.468 -36.0836 87.7868 -38.0691 83.6541 -46.1741C79.5214 -54.2792 91.19 -64.0872 91.5632 -72.1929C91.9497 -80.5953 81.3761 -91.1684 86.0414 -98.6661C90.7068 -106.164 108.421 -107.066 116.792 -112.739C124.868 -118.211 127.358 -131.157 138.358 -134.089C149.358 -137.02 162.874 -128.341 173.93 -127.967C185.391 -127.58 199.677 -135.207 209.958 -131.692C220.238 -128.178 221.686 -115.172 229.523 -108.962C237.083 -102.971 254.765 -100.986 258.897 -92.8805C263.03 -84.7751 251.362 -74.9675 250.988 -66.8618C250.602 -58.4594 261.175 -47.8863 256.51 -40.3886C251.845 -32.8904 234.13 -31.9884 225.759 -26.3158C217.684 -20.8438 215.194 -7.89796 204.194 -4.96609Z" fill="#222222"/>
<path d="M254.817 -45.1602C258.701 -52.5156 247.809 -62.1872 247.541 -70.2323C247.282 -77.9927 257.674 -87.8411 253.116 -95.4179C248.557 -102.995 231.535 -104.17 223.867 -109.587C215.917 -115.202 213.549 -127.571 203.473 -130.509C193.397 -133.448 180.344 -125.578 169.378 -125.48C158.8 -125.386 145.245 -133.129 134.97 -129.879C124.695 -126.628 123.302 -114.156 116.011 -108.597C108.453 -102.835 91.6176 -101.25 87.7344 -93.8951C83.8512 -86.5398 94.7425 -76.8681 95.0105 -68.823C95.2694 -61.0626 84.8788 -51.2142 89.4363 -43.6374C93.9944 -36.0606 111.017 -34.885 118.685 -29.4684C126.635 -23.8535 129.002 -11.4848 139.079 -8.54592C149.155 -5.60702 162.208 -13.4773 173.174 -13.5751C183.752 -13.6696 197.307 -5.92659 207.582 -9.17662C217.857 -12.4271 219.25 -24.8994 226.541 -30.4579C234.099 -36.22 250.934 -37.8049 254.817 -45.1602ZM226.858 -34.5203C220.336 -28.9226 219.953 -16.9722 210.415 -13.4541C200.877 -9.93603 187.383 -16.768 177.317 -16.2478C166.882 -15.708 155.048 -7.67113 145.23 -10.0635C135.412 -12.456 132.222 -24.1544 124.227 -29.1851C116.515 -34.0381 100.216 -34.4665 95.3024 -41.5061C90.3884 -48.5456 99.5377 -58.3601 98.7046 -65.7504C97.8404 -73.4115 86.7371 -82.1909 89.8784 -89.3634C93.0197 -96.5359 108.931 -98.7323 115.692 -104.535C122.214 -110.133 122.597 -122.083 132.135 -125.601C141.673 -129.119 155.167 -122.287 165.233 -122.808C175.668 -123.347 187.502 -131.384 197.32 -128.992C207.138 -126.599 210.328 -114.901 218.323 -109.87C226.035 -105.017 242.334 -104.589 247.248 -97.5493C252.162 -90.5097 243.012 -80.6952 243.845 -73.3049C244.71 -65.6438 255.813 -56.8644 252.672 -49.6919C249.53 -42.5194 233.619 -40.323 226.858 -34.5203Z" fill="#222222"/>
<path d="M239.939 -76.0688C238.589 -83.0661 246.54 -92.7758 241.34 -99.2739C236.14 -105.772 220.623 -105.517 212.929 -109.822C204.953 -114.284 201.039 -125.285 191.531 -127.162C182.023 -129.039 171.386 -120.912 161.513 -119.975C151.989 -119.071 138.653 -125.023 129.857 -121.288C121.061 -117.554 121.599 -106.168 115.824 -100.577C109.839 -94.7812 94.8877 -92.045 92.4449 -85.0936C90.002 -78.1421 101.214 -70.2393 102.613 -62.9859C103.963 -55.9886 96.0116 -46.2789 101.212 -39.7808C106.412 -33.2826 121.929 -33.5373 129.623 -29.2328C137.599 -24.7707 141.513 -13.77 151.021 -11.8926C160.529 -10.0152 171.166 -18.1424 181.039 -19.0798C190.563 -19.984 203.899 -14.0319 212.695 -17.7665C221.491 -21.5011 220.953 -32.887 226.728 -38.4778C232.714 -44.2735 247.664 -47.0097 250.107 -53.9611C252.55 -60.9125 241.338 -68.8153 239.939 -76.0688ZM226.167 -42.3058C221.116 -36.7659 222.483 -25.9815 214.428 -22.0809C206.373 -18.1803 193.286 -23.2887 184.328 -22.0446C175.042 -20.755 165.573 -12.6106 156.421 -14.007C147.269 -15.4035 142.73 -25.6852 134.836 -29.5966C127.22 -33.3699 112.533 -32.4994 107.116 -38.456C101.699 -44.4126 108.503 -53.9498 106.696 -60.5364C104.824 -67.3639 93.603 -74.4097 95.3945 -81.1061C97.186 -87.8025 111.149 -91.0052 116.385 -96.7481C121.436 -102.288 120.069 -113.072 128.123 -116.973C136.178 -120.874 149.266 -115.765 158.224 -117.009C167.51 -118.299 176.979 -126.443 186.131 -125.047C195.283 -123.65 199.821 -113.369 207.716 -109.457C215.331 -105.684 230.019 -106.554 235.436 -100.598C240.853 -94.6413 234.049 -85.1041 235.855 -78.5175C237.728 -71.6899 248.949 -64.6442 247.157 -57.9478C245.366 -51.2513 231.403 -48.0487 226.167 -42.3058Z" fill="#222222"/>
</svg>
