<svg width="178" height="44" viewBox="0 0 178 44" fill="none" xmlns="http://www.w3.org/2000/svg">
<path d="M166.944 -16.9118C166.945 -16.9121 166.945 -16.9123 166.945 -16.9125C170.222 -19.8303 173.122 -23.4263 175.804 -27.4076C176.167 -27.9457 176.467 -28.5229 176.718 -29.1211C177.777 -31.6399 178.924 -34.0492 180.205 -36.2917C180.234 -36.3566 180.145 -36.4105 180.101 -36.3548C177.384 -32.9224 174.496 -29.8441 171.33 -27.3389C152.228 -12.2287 112.916 -12.5902 100.322 10.0086C95.6648 18.3646 95.5996 28.1754 97.2245 38.4471C97.1276 33.1209 97.9623 28.0173 100.25 23.2833C111.179 0.675447 149.289 -1.1931 166.944 -16.9111C166.944 -16.9113 166.944 -16.9115 166.944 -16.9118Z" fill="url(#paint0_radial_1223_2161)"/>
<path d="M97.2245 38.4467C97.2245 38.4468 97.2245 38.4468 97.2245 38.4468C97.3058 42.9058 98.0401 47.5206 99.1229 52.207C98.9598 50.6046 98.8809 49.0165 98.9018 47.4473C98.905 47.2101 98.882 46.9732 98.8306 46.7416C98.2121 43.9566 97.6585 41.1852 97.225 38.4468C97.225 38.4465 97.2246 38.4465 97.2245 38.4467Z" fill="url(#paint1_radial_1223_2161)"/>
<path d="M160.661 3.97262C160.661 3.97251 160.661 3.97225 160.661 3.97208C164.826 -0.709669 168.004 -6.75643 170.837 -13.277C171.567 -15.7183 172.35 -18.1003 173.224 -20.3816C170.361 -15.0916 167.201 -10.2655 163.393 -6.4552C147.189 9.75688 110.4 13.7142 101.096 36.2159C99.6757 39.6507 99.0139 43.2321 98.9128 46.9172C98.9097 47.0317 98.9211 47.1461 98.9462 47.2578C99.0634 47.7792 99.1828 48.3011 99.304 48.8233C99.6152 50.1645 102.365 50.0505 102.816 48.7497C110.547 26.4638 145.902 20.5644 160.661 3.97315C160.661 3.97299 160.661 3.97273 160.661 3.97262Z" fill="url(#paint2_radial_1223_2161)"/>
<path d="M108.703 72.3913C108.703 72.3915 108.704 72.3913 108.704 72.3909C113.468 50.8448 145.677 41.524 157.587 24.5048C162.265 17.8214 164.882 8.88985 167.3 -0.24808C167.735 -2.22002 168.197 -4.16548 168.707 -6.06323C166.072 1.57114 163.094 8.79181 158.731 14.3121C145.406 31.1719 111.582 38.8607 105.366 60.826C104.457 64.0361 104.212 67.2954 104.461 70.5882C104.49 70.7297 104.518 70.8715 104.546 71.0126C105.573 74.32 106.574 77.6071 107.441 80.8443C107.927 82.1305 108.409 83.4154 108.883 84.6952C107.977 80.5863 107.798 76.4807 108.702 72.3917C108.702 72.3913 108.702 72.3911 108.703 72.3913Z" fill="url(#paint3_radial_1223_2161)"/>
<path d="M421.022 76.901C421.022 76.9011 421.022 76.901 421.022 76.9008C416.207 56.674 429.85 27.4811 417.857 10.8934C414.713 6.54364 410.192 3.59677 404.914 1.41935C402.714 0.703874 400.51 -0.00942571 398.331 -0.744545C395.869 -1.40672 393.382 -2.04584 390.91 -2.70068C378.697 -5.39735 365.46 -7.06901 356.166 -12.7984C339.094 -23.3241 328.301 -53.8475 307.265 -57.2286C301.465 -58.1607 295.757 -56.8893 290.123 -54.4603C288.166 -53.4487 286.215 -52.438 284.272 -51.4605C282.094 -50.1905 279.923 -48.891 277.759 -47.6141C267.305 -40.8816 257.063 -32.7802 246.903 -30.3617C226.677 -25.5463 197.483 -39.1901 180.896 -27.197C176.546 -24.0524 173.599 -19.5313 171.421 -14.2538C170.706 -12.0534 169.993 -9.8497 169.258 -7.67116C168.595 -5.20896 167.956 -2.72198 167.301 -0.249727C164.605 11.9634 162.933 25.1999 157.204 34.4939C146.678 51.5665 116.155 62.3597 112.774 83.3951C111.841 89.1954 113.113 94.9032 115.542 100.537C116.553 102.494 117.564 104.446 118.542 106.389C119.812 108.566 121.111 110.738 122.388 112.901C129.121 123.355 137.222 133.598 139.64 143.757C144.456 163.984 130.812 193.177 142.805 209.765C145.95 214.115 150.471 217.061 155.748 219.239C157.949 219.954 160.152 220.668 162.331 221.403C164.793 222.065 167.28 222.704 169.752 223.359C181.966 226.056 195.202 227.727 204.496 233.457C221.569 243.982 232.362 274.506 253.397 277.887C259.197 278.819 264.905 277.547 270.539 275.119C272.496 274.107 274.448 273.096 276.391 272.119C278.568 270.849 280.74 269.549 282.903 268.272C293.357 261.539 303.6 253.438 313.759 251.02C333.986 246.204 363.179 259.848 379.767 247.855C384.117 244.711 387.064 240.19 389.241 234.912C389.956 232.712 390.67 230.508 391.405 228.329C392.067 225.867 392.706 223.38 393.361 220.908C396.058 208.695 397.729 195.458 403.459 186.164C413.984 169.092 444.508 158.298 447.889 137.263C448.821 131.463 447.55 125.755 445.121 120.121C444.109 118.164 443.098 116.213 442.121 114.27C440.851 112.092 439.551 109.921 438.274 107.757C431.542 97.3037 423.441 87.0608 421.021 76.9012C421.021 76.9011 421.021 76.901 421.022 76.901ZM443.141 126.862C441.065 147.302 412.287 159.403 403.112 176.429C393.601 194.078 399.061 224.669 383.765 237.144C368.469 249.619 339.601 238.122 320.4 243.892C301.877 249.457 284.238 275.215 263.799 273.14C243.359 271.064 231.258 242.286 214.232 233.111C196.583 223.599 165.992 229.059 153.517 213.763C141.042 198.467 152.539 169.599 146.769 150.398C141.204 131.875 115.446 114.236 117.522 93.7971C119.597 73.3577 148.375 61.2561 157.55 44.2304C167.062 26.5809 161.602 -4.00956 176.898 -16.4846C192.194 -28.9597 221.062 -17.4629 240.263 -23.2324C258.786 -28.7975 276.425 -54.5561 296.864 -52.4802C317.303 -50.4043 329.405 -21.6263 346.431 -12.4514C364.08 -2.9396 394.671 -8.39948 407.146 6.89643C419.621 22.1923 408.124 51.0604 413.893 70.2614C419.459 88.7839 445.217 106.423 443.141 126.862Z" fill="url(#paint4_radial_1223_2161)"/>
<path d="M396.45 3.7955C396.45 3.79543 396.45 3.79507 396.45 3.79486C383.6 -10.2103 354.499 -3.24895 337 -11.4042C320.119 -19.2716 306.874 -46.2589 287.109 -47.1094C267.343 -47.9604 251.828 -22.211 234.333 -15.8233C216.197 -9.20234 187.802 -18.6382 173.796 -5.78866C159.79 7.06083 166.752 36.1629 158.597 53.6622C150.729 70.5431 123.742 83.7882 122.891 103.553C122.04 123.319 147.79 138.833 154.177 156.329C160.798 174.464 151.363 202.86 164.212 216.866C177.062 230.872 206.164 223.91 223.663 232.065C240.544 239.933 253.789 266.92 273.554 267.77C293.319 268.621 308.834 242.872 326.329 236.484C344.464 229.863 372.86 239.299 386.866 226.449C400.872 213.6 393.91 184.498 402.065 166.998C409.933 150.117 436.92 136.872 437.771 117.108C438.621 97.3419 412.872 81.8272 406.484 64.3329C399.863 46.1971 409.299 17.8021 396.45 3.79613C396.45 3.79592 396.45 3.79559 396.45 3.7955ZM431.838 108.033C432.127 127.054 406.961 141.276 400.354 157.92C393.503 175.174 401.813 202.72 389.087 215.838C376.361 228.955 348.577 221.484 331.538 228.854C315.102 235.963 301.648 261.548 282.628 261.836C263.608 262.125 249.385 236.96 232.741 230.352C215.487 223.502 187.941 231.811 174.824 219.085C161.706 206.359 169.177 178.575 161.808 161.536C154.698 145.1 129.114 131.646 128.825 112.626C128.537 93.6057 153.702 79.383 160.31 62.7392C167.16 45.4855 158.85 17.9395 171.576 4.82196C184.302 -8.29557 212.087 -0.824488 229.126 -8.19445C245.562 -15.3036 259.015 -40.8885 278.035 -41.1768C297.056 -41.4652 311.278 -16.2995 327.922 -9.69228C345.176 -2.84201 372.722 -11.1518 385.84 1.57432C398.957 14.3004 391.486 42.085 398.856 59.1236C405.965 75.5599 431.55 89.0131 431.838 108.033Z" fill="url(#paint5_radial_1223_2161)"/>
<path d="M375.376 0.21213C362.094 -11.2523 336.159 -1.75108 319.241 -7.35265C302.921 -12.7564 287.886 -36.0804 269.673 -34.7426C251.46 -33.4048 239.995 -8.13384 224.64 -0.403368C208.722 7.61108 181.677 2.00183 170.213 15.2842C158.748 28.5662 168.25 54.5016 162.648 71.4195C157.244 87.7395 133.92 102.774 135.258 120.987C136.596 139.2 161.867 150.665 169.597 166.02C177.612 181.938 172.003 208.984 185.285 220.448C198.567 231.912 224.502 222.411 241.42 228.012C257.74 233.416 272.775 256.74 290.988 255.402C309.201 254.064 320.666 228.794 336.021 221.063C351.939 213.049 378.985 218.658 390.448 205.376C401.913 192.094 392.412 166.158 398.013 149.24C403.417 132.92 426.741 117.886 425.403 99.6725C424.065 81.4595 398.794 69.9947 391.064 54.6393C383.049 38.7212 388.659 11.6758 375.376 0.21213ZM418.529 92.0499C420.823 109.4 399.348 125.083 395.087 140.999C390.67 157.497 401.205 181.78 390.978 195.125C380.75 208.471 354.563 204.612 339.781 213.166C325.521 221.418 315.961 246.233 298.611 248.528C281.262 250.823 265.578 229.347 249.663 225.086C233.165 220.67 208.881 231.204 195.536 220.977C182.19 210.75 186.049 184.562 177.495 169.781C169.244 155.521 144.428 145.96 142.133 128.611C139.838 111.261 161.314 95.5775 165.575 79.6622C169.991 63.1644 159.457 38.8809 169.684 25.5356C179.911 12.1897 206.099 16.049 220.881 7.49488C235.14 -0.756686 244.701 -25.572 262.05 -27.8672C279.4 -30.162 295.084 -8.6863 310.999 -4.42528C327.497 -0.00886891 351.78 -10.5433 365.126 -0.316308C378.472 9.91104 374.612 36.0984 383.166 50.8802C391.418 65.1398 416.233 74.7006 418.529 92.0499Z" fill="url(#paint6_radial_1223_2161)"/>
<path d="M355.148 -0.0418791C341.835 -9.06562 319.234 2.34441 303.234 -0.95581C287.8 -4.13873 271.63 -23.7749 255.189 -20.6184C238.749 -17.462 231.001 6.76599 217.843 15.4385C204.203 24.4289 178.982 22.2005 169.958 35.5132C160.935 48.8259 172.345 71.4275 169.044 87.4271C165.862 102.861 146.225 119.031 149.382 135.472C152.538 151.912 176.766 159.66 185.439 172.818C194.429 186.458 192.201 211.679 205.514 220.703C218.826 229.726 241.428 218.316 257.427 221.617C272.861 224.799 289.032 244.435 305.472 241.279C321.912 238.123 329.661 213.895 342.818 205.222C356.458 196.232 381.679 198.46 390.703 185.148C399.727 171.835 388.317 149.233 391.617 133.234C394.8 117.8 414.435 101.629 411.279 85.1891C408.123 68.749 383.895 61.0004 375.223 47.8427C366.232 34.203 368.461 8.98186 355.148 -0.0418791ZM367.288 45.5177C376.283 57.5746 399.8 63.6145 403.721 79.1052C407.641 94.596 389.828 111.095 387.65 125.98C385.393 141.41 397.521 162.314 389.661 175.501C381.8 188.689 357.643 187.964 345.144 197.289C333.088 206.284 327.048 229.801 311.557 233.722C296.066 237.643 279.567 219.829 264.682 217.651C249.252 215.394 228.348 227.522 215.161 219.662C201.974 211.802 202.698 187.644 193.373 175.146C184.378 163.089 160.861 157.049 156.94 141.558C153.02 126.067 170.833 109.568 173.011 94.6837C175.268 79.2538 163.14 58.3495 171 45.1622C178.861 31.9749 203.018 32.6991 215.516 23.3744C227.573 14.3793 233.613 -9.1379 249.104 -13.0585C264.595 -16.9791 281.094 0.834511 295.978 3.01228C311.408 5.26901 332.313 -6.85885 345.5 1.00152C358.687 8.8619 357.963 33.0192 367.288 45.5177Z" fill="url(#paint7_radial_1223_2161)"/>
<path d="M289.266 7.42764C274.994 6.18197 258.32 -9.84072 243.81 -5.25548C229.299 -0.670251 224.859 22.0238 213.893 31.2435C202.525 40.8011 179.518 41.4505 172.775 54.423C166.032 67.3956 178.72 86.6003 177.429 101.394C176.183 115.666 160.16 132.34 164.746 146.851C169.331 161.361 192.025 165.801 201.244 176.767C210.802 188.135 211.451 211.143 224.424 217.886C237.397 224.628 256.601 211.941 271.395 213.232C285.667 214.477 302.341 230.5 316.852 225.915C331.362 221.33 335.802 198.636 346.768 189.416C358.136 179.858 381.144 179.209 387.887 166.236C394.629 153.264 381.942 134.059 383.233 119.265C384.478 104.993 400.501 88.3194 395.916 73.8086C391.331 59.2979 368.637 54.858 359.417 43.8919C349.859 32.5244 349.21 9.51658 336.237 2.77371C323.265 -3.96916 304.06 8.71855 289.266 7.42764ZM351.666 42.9522C361.015 52.8423 382.784 55.7994 387.934 69.3082C393.083 82.817 378.809 99.5152 378.416 113.12C378.008 127.222 391.102 144.734 385.424 157.41C379.746 170.086 357.962 171.972 347.709 181.665C337.819 191.014 334.862 212.783 321.353 217.932C307.844 223.082 291.146 208.807 277.542 208.414C263.439 208.007 245.927 221.101 233.252 215.423C220.576 209.745 218.689 187.96 208.997 177.708C199.648 167.818 177.879 164.861 172.729 151.352C167.58 137.843 181.854 121.145 182.247 107.54C182.655 93.438 169.56 75.9258 175.239 63.2502C180.917 50.5745 202.701 48.6877 212.954 38.9955C222.844 29.6462 225.801 7.87758 239.31 2.72794C252.818 -2.4217 269.516 11.8528 283.121 12.2458C297.223 12.6532 314.736 -0.440971 327.411 5.23715C340.087 10.9153 341.974 32.6997 351.666 42.9522Z" fill="url(#paint8_radial_1223_2161)"/>
<path d="M277.566 17.412C264.678 17.7899 248.1 5.20926 235.607 10.8239C223.115 16.4385 221.517 37.1889 212.678 46.5764C203.516 56.3073 183.017 59.2919 178.345 71.5933C173.672 83.8942 187.021 99.7348 187.413 113.096C187.791 125.984 175.21 142.562 180.825 155.054C186.439 167.547 207.19 169.145 216.577 177.984C226.308 187.146 229.293 207.645 241.594 212.317C253.895 216.99 269.736 203.641 283.097 203.249C295.985 202.871 312.563 215.452 325.055 209.837C337.548 204.222 339.146 183.472 347.984 174.084C357.147 164.354 377.646 161.369 382.318 149.068C386.991 136.767 373.642 120.926 373.25 107.565C372.872 94.6773 385.453 78.0987 379.838 65.6065C374.223 53.1143 353.473 51.5163 344.085 42.6774C334.355 33.5148 331.37 13.0157 319.069 8.34381C306.767 3.67196 290.927 17.0198 277.566 17.412ZM336.726 43.0442C346.062 50.8623 365.714 51.2289 371.694 62.6989C377.674 74.1689 366.722 90.4911 367.786 102.621C368.889 115.196 382.345 129.398 378.615 141.253C374.885 153.108 355.721 157.048 347.617 166.726C339.799 176.061 339.433 195.714 327.963 201.694C316.493 207.674 300.17 196.722 288.04 197.786C275.465 198.889 261.263 212.344 249.408 208.614C237.553 204.885 233.613 185.721 223.936 177.617C214.6 169.799 194.948 169.432 188.968 157.962C182.987 146.492 193.939 130.17 192.875 118.04C191.772 105.465 178.317 91.263 182.047 79.4078C185.777 67.5533 204.94 63.6131 213.044 53.9357C220.863 44.5998 221.229 24.9476 232.699 18.9674C244.169 12.9873 260.491 23.9392 272.621 22.875C285.196 21.772 299.398 8.31683 311.254 12.0469C323.108 15.7766 327.048 34.94 336.726 43.0442Z" fill="url(#paint9_radial_1223_2161)"/>
<path d="M268.301 28.5808C256.962 30.2443 241.027 20.8483 230.577 27.0942C220.127 33.3401 220.858 51.8253 214.023 61.025C206.938 70.5624 189.148 75.3125 186.292 86.6544C183.436 97.997 196.856 110.605 198.58 122.36C200.244 133.699 190.848 149.634 197.093 160.084C203.339 170.534 221.825 169.803 231.024 176.638C240.562 183.723 245.311 201.513 256.654 204.369C267.996 207.225 280.604 193.805 292.359 192.081C303.698 190.418 319.633 199.814 330.083 193.568C340.533 187.322 339.802 168.836 346.637 159.637C353.722 150.099 371.513 145.349 374.368 134.007C377.224 122.665 363.805 110.057 362.08 98.302C360.417 86.9631 369.813 71.0277 363.567 60.5777C357.321 50.1277 338.836 50.8587 329.636 44.0236C320.099 36.9386 315.349 19.1482 304.007 16.2928C292.664 13.4369 280.056 26.8565 268.301 28.5808ZM322.862 45.5849C331.844 51.4802 349.105 49.789 355.52 59.2278C361.936 68.6671 354.01 84.0933 356.185 94.6151C358.44 105.522 371.686 116.591 369.632 127.362C367.577 138.134 351.187 143.549 345.075 152.861C339.18 161.843 340.871 179.104 331.432 185.519C321.993 191.935 306.567 184.009 296.045 186.184C285.138 188.439 274.069 201.685 263.298 199.631C252.526 197.576 247.111 181.186 237.799 175.074C228.817 169.179 211.556 170.87 205.141 161.431C198.725 151.992 206.651 136.566 204.476 126.044C202.221 115.137 188.975 104.068 191.029 93.2968C193.084 82.5253 209.474 77.1096 215.586 67.7985C221.481 58.816 219.79 41.5553 229.229 35.1402C238.668 28.7244 254.094 36.6505 264.616 34.4749C275.523 32.2204 286.592 18.9737 297.363 21.0282C308.135 23.0827 313.55 39.4734 322.862 45.5849Z" fill="url(#paint10_radial_1223_2161)"/>
<path d="M261.572 40.5055C251.887 43.1033 237.084 36.5552 228.636 43.0454C220.189 49.5353 222.701 65.526 217.695 74.2154C212.507 83.2233 197.528 89.1591 196.199 99.3061C194.869 109.454 207.813 119.048 210.505 129.089C213.103 138.774 206.555 153.577 213.045 162.025C219.535 170.472 235.526 167.959 244.215 172.966C253.223 178.154 259.159 193.133 269.306 194.462C279.454 195.791 289.047 182.848 299.088 180.156C308.774 177.558 323.577 184.106 332.025 177.616C340.472 171.126 337.959 155.135 342.965 146.446C348.154 137.438 363.133 131.502 364.462 121.355C365.791 111.207 352.848 101.613 350.155 91.5724C347.558 81.8868 354.106 67.0838 347.615 58.6358C341.125 50.1889 325.135 52.7015 316.445 47.6955C307.438 42.5069 301.502 27.5283 291.355 26.1992C281.207 24.8696 271.613 37.813 261.572 40.5055ZM310.427 50.3182C318.752 54.489 333.439 51.2969 339.911 58.7768C346.384 66.2567 341.113 80.3327 344.044 89.1714C347.082 98.3335 359.599 106.528 358.915 116.007C358.23 125.485 344.666 131.796 340.342 140.426C336.171 148.752 339.363 163.439 331.883 169.911C324.403 176.383 310.327 171.113 301.489 174.044C292.327 177.082 284.132 189.599 274.653 188.914C265.175 188.23 258.864 174.665 250.234 170.342C241.908 166.171 227.221 169.363 220.749 161.883C214.277 154.403 219.547 140.327 216.616 131.488C213.578 122.326 201.061 114.131 201.746 104.653C202.43 95.1745 215.995 88.8638 220.318 80.2334C224.489 71.9081 221.297 57.2207 228.777 50.7486C236.257 44.2765 250.333 49.547 259.172 46.6157C268.334 43.5777 276.529 31.0608 286.007 31.7454C295.486 32.43 301.796 45.9944 310.427 50.3182Z" fill="url(#paint11_radial_1223_2161)"/>
<defs>
<radialGradient id="paint0_radial_1223_2161" cx="0" cy="0" r="1" gradientUnits="userSpaceOnUse" gradientTransform="translate(141.087 -40.0943) rotate(-76.6564) scale(200.765 62.2576)">
<stop stop-color="#FFB6D5"/>
<stop offset="0.1" stop-color="#FFE3C0"/>
<stop offset="0.29" stop-color="#C7FBDB"/>
<stop offset="0.43" stop-color="#C7CDF4"/>
<stop offset="0.54" stop-color="#FFBCD4"/>
<stop offset="0.66" stop-color="#FFE0C3"/>
<stop offset="0.76" stop-color="#B0F1D4"/>
<stop offset="0.84" stop-color="#C9CEEC"/>
<stop offset="0.91" stop-color="#FFC1DA"/>
<stop offset="1" stop-color="#BDFFE3"/>
</radialGradient>
<radialGradient id="paint1_radial_1223_2161" cx="0" cy="0" r="1" gradientUnits="userSpaceOnUse" gradientTransform="translate(98.1128 40.8817) rotate(-86.1858) scale(22.3343 10.2258)">
<stop stop-color="#FFB6D5"/>
<stop offset="0.1" stop-color="#FFE3C0"/>
<stop offset="0.29" stop-color="#C7FBDB"/>
<stop offset="0.43" stop-color="#C7CDF4"/>
<stop offset="0.54" stop-color="#FFBCD4"/>
<stop offset="0.66" stop-color="#FFE0C3"/>
<stop offset="0.76" stop-color="#B0F1D4"/>
<stop offset="0.84" stop-color="#C9CEEC"/>
<stop offset="0.91" stop-color="#FFC1DA"/>
<stop offset="1" stop-color="#BDFFE3"/>
</radialGradient>
<radialGradient id="paint2_radial_1223_2161" cx="0" cy="0" r="1" gradientUnits="userSpaceOnUse" gradientTransform="translate(142.156 -19.7419) rotate(-73.8058) scale(191.639 49.5287)">
<stop stop-color="#FFB6D5"/>
<stop offset="0.1" stop-color="#FFE3C0"/>
<stop offset="0.29" stop-color="#C7FBDB"/>
<stop offset="0.43" stop-color="#C7CDF4"/>
<stop offset="0.54" stop-color="#FFBCD4"/>
<stop offset="0.66" stop-color="#FFE0C3"/>
<stop offset="0.76" stop-color="#B0F1D4"/>
<stop offset="0.84" stop-color="#C9CEEC"/>
<stop offset="0.91" stop-color="#FFC1DA"/>
<stop offset="1" stop-color="#BDFFE3"/>
</radialGradient>
<radialGradient id="paint3_radial_1223_2161" cx="0" cy="0" r="1" gradientUnits="userSpaceOnUse" gradientTransform="translate(146.052 0.27044) rotate(-70.3516) scale(199.963 38.4888)">
<stop stop-color="#FFB6D5"/>
<stop offset="0.1" stop-color="#FFE3C0"/>
<stop offset="0.29" stop-color="#C7FBDB"/>
<stop offset="0.43" stop-color="#C7CDF4"/>
<stop offset="0.54" stop-color="#FFBCD4"/>
<stop offset="0.66" stop-color="#FFE0C3"/>
<stop offset="0.76" stop-color="#B0F1D4"/>
<stop offset="0.84" stop-color="#C9CEEC"/>
<stop offset="0.91" stop-color="#FFC1DA"/>
<stop offset="1" stop-color="#BDFFE3"/>
</radialGradient>
<radialGradient id="paint4_radial_1223_2161" cx="0" cy="0" r="1" gradientUnits="userSpaceOnUse" gradientTransform="translate(260.14 -28.9078) rotate(-93.0027) scale(691.782 369.06)">
<stop stop-color="#FFB6D5"/>
<stop offset="0.1" stop-color="#FFE3C0"/>
<stop offset="0.29" stop-color="#C7FBDB"/>
<stop offset="0.43" stop-color="#C7CDF4"/>
<stop offset="0.54" stop-color="#FFBCD4"/>
<stop offset="0.66" stop-color="#FFE0C3"/>
<stop offset="0.76" stop-color="#B0F1D4"/>
<stop offset="0.84" stop-color="#C9CEEC"/>
<stop offset="0.91" stop-color="#FFC1DA"/>
<stop offset="1" stop-color="#BDFFE3"/>
</radialGradient>
<radialGradient id="paint5_radial_1223_2161" cx="0" cy="0" r="1" gradientUnits="userSpaceOnUse" gradientTransform="translate(261.431 -20.0023) rotate(-93.0026) scale(647.542 345.458)">
<stop stop-color="#FFB6D5"/>
<stop offset="0.1" stop-color="#FFE3C0"/>
<stop offset="0.29" stop-color="#C7FBDB"/>
<stop offset="0.43" stop-color="#C7CDF4"/>
<stop offset="0.54" stop-color="#FFBCD4"/>
<stop offset="0.66" stop-color="#FFE0C3"/>
<stop offset="0.76" stop-color="#B0F1D4"/>
<stop offset="0.84" stop-color="#C9CEEC"/>
<stop offset="0.91" stop-color="#FFC1DA"/>
<stop offset="1" stop-color="#BDFFE3"/>
</radialGradient>
<radialGradient id="paint6_radial_1223_2161" cx="0" cy="0" r="1" gradientUnits="userSpaceOnUse" gradientTransform="translate(262.413 -13.2329) rotate(-93.0027) scale(613.907 327.514)">
<stop stop-color="#FFB6D5"/>
<stop offset="0.1" stop-color="#FFE3C0"/>
<stop offset="0.29" stop-color="#C7FBDB"/>
<stop offset="0.43" stop-color="#C7CDF4"/>
<stop offset="0.54" stop-color="#FFBCD4"/>
<stop offset="0.66" stop-color="#FFE0C3"/>
<stop offset="0.76" stop-color="#B0F1D4"/>
<stop offset="0.84" stop-color="#C9CEEC"/>
<stop offset="0.91" stop-color="#FFC1DA"/>
<stop offset="1" stop-color="#BDFFE3"/>
</radialGradient>
<radialGradient id="paint7_radial_1223_2161" cx="0" cy="0" r="1" gradientUnits="userSpaceOnUse" gradientTransform="translate(263.662 -4.6163) rotate(-93.0027) scale(571.099 304.676)">
<stop stop-color="#FFB6D5"/>
<stop offset="0.1" stop-color="#FFE3C0"/>
<stop offset="0.29" stop-color="#C7FBDB"/>
<stop offset="0.43" stop-color="#C7CDF4"/>
<stop offset="0.54" stop-color="#FFBCD4"/>
<stop offset="0.66" stop-color="#FFE0C3"/>
<stop offset="0.76" stop-color="#B0F1D4"/>
<stop offset="0.84" stop-color="#C9CEEC"/>
<stop offset="0.91" stop-color="#FFC1DA"/>
<stop offset="1" stop-color="#BDFFE3"/>
</radialGradient>
<radialGradient id="paint8_radial_1223_2161" cx="0" cy="0" r="1" gradientUnits="userSpaceOnUse" gradientTransform="translate(265.133 5.52526) rotate(-93.0027) scale(520.708 277.793)">
<stop stop-color="#FFB6D5"/>
<stop offset="0.1" stop-color="#FFE3C0"/>
<stop offset="0.29" stop-color="#C7FBDB"/>
<stop offset="0.43" stop-color="#C7CDF4"/>
<stop offset="0.54" stop-color="#FFBCD4"/>
<stop offset="0.66" stop-color="#FFE0C3"/>
<stop offset="0.76" stop-color="#B0F1D4"/>
<stop offset="0.84" stop-color="#C9CEEC"/>
<stop offset="0.91" stop-color="#FFC1DA"/>
<stop offset="1" stop-color="#BDFFE3"/>
</radialGradient>
<radialGradient id="paint9_radial_1223_2161" cx="0" cy="0" r="1" gradientUnits="userSpaceOnUse" gradientTransform="translate(266.774 16.8361) rotate(-93.0027) scale(464.515 247.815)">
<stop stop-color="#FFB6D5"/>
<stop offset="0.1" stop-color="#FFE3C0"/>
<stop offset="0.29" stop-color="#C7FBDB"/>
<stop offset="0.43" stop-color="#C7CDF4"/>
<stop offset="0.54" stop-color="#FFBCD4"/>
<stop offset="0.66" stop-color="#FFE0C3"/>
<stop offset="0.76" stop-color="#B0F1D4"/>
<stop offset="0.84" stop-color="#C9CEEC"/>
<stop offset="0.91" stop-color="#FFC1DA"/>
<stop offset="1" stop-color="#BDFFE3"/>
</radialGradient>
<radialGradient id="paint10_radial_1223_2161" cx="0" cy="0" r="1" gradientUnits="userSpaceOnUse" gradientTransform="translate(268.526 28.9277) rotate(-93.0027) scale(404.442 215.766)">
<stop stop-color="#FFB6D5"/>
<stop offset="0.1" stop-color="#FFE3C0"/>
<stop offset="0.29" stop-color="#C7FBDB"/>
<stop offset="0.43" stop-color="#C7CDF4"/>
<stop offset="0.54" stop-color="#FFBCD4"/>
<stop offset="0.66" stop-color="#FFE0C3"/>
<stop offset="0.76" stop-color="#B0F1D4"/>
<stop offset="0.84" stop-color="#C9CEEC"/>
<stop offset="0.91" stop-color="#FFC1DA"/>
<stop offset="1" stop-color="#BDFFE3"/>
</radialGradient>
<radialGradient id="paint11_radial_1223_2161" cx="0" cy="0" r="1" gradientUnits="userSpaceOnUse" gradientTransform="translate(270.335 41.4011) rotate(-93.0027) scale(342.468 182.704)">
<stop stop-color="#FFB6D5"/>
<stop offset="0.1" stop-color="#FFE3C0"/>
<stop offset="0.29" stop-color="#C7FBDB"/>
<stop offset="0.43" stop-color="#C7CDF4"/>
<stop offset="0.54" stop-color="#FFBCD4"/>
<stop offset="0.66" stop-color="#FFE0C3"/>
<stop offset="0.76" stop-color="#B0F1D4"/>
<stop offset="0.84" stop-color="#C9CEEC"/>
<stop offset="0.91" stop-color="#FFC1DA"/>
<stop offset="1" stop-color="#BDFFE3"/>
</radialGradient>
</defs>
</svg>
