<svg width="129" height="56" viewBox="0 0 129 56" fill="none" xmlns="http://www.w3.org/2000/svg">
<path d="M95.4416 26.1338C95.4414 26.134 95.4412 26.1341 95.4409 26.134C92.7909 25.2118 89.8888 24.6971 86.8402 24.4213C86.194 24.3628 85.5438 24.3837 84.8984 24.4516C83.213 24.629 81.5592 24.7278 79.9526 24.7109C79.9058 24.7151 79.9033 24.7839 79.9498 24.7915C82.8117 25.2566 85.5242 25.9352 87.9946 26.9592C102.896 33.1383 115.363 56 132.5 56C138.837 56 144.534 52.8741 149.953 48.6218C146.903 50.3953 143.681 51.5581 140.204 51.7609C123.599 52.7277 110.23 31.2805 95.4423 26.1337C95.442 26.1336 95.4418 26.1336 95.4416 26.1338Z" fill="url(#paint0_radial_2764_2411)"/>
<path d="M30.8894 -31.3119C30.8895 -31.3119 30.8896 -31.3119 30.8895 -31.312C29.6486 -33.8726 27.8781 -36.3242 25.8057 -38.7213C25.7416 -38.7954 25.6702 -38.863 25.5931 -38.9234C24.0942 -40.0974 22.6794 -41.3152 21.3986 -42.5981C21.3408 -42.6461 21.2592 -42.5699 21.303 -42.5088C22.8311 -40.3756 24.1206 -38.2116 25.0402 -35.9944C31.4457 -20.5466 24.3378 4.37837 35.9792 16.0204C38.1019 18.143 40.6663 19.6422 43.5344 20.7137C44.3393 21.0144 45.0657 19.041 44.4239 18.4698C32.487 7.84657 37.9676 -16.7053 30.8893 -31.3119C30.8893 -31.3119 30.8894 -31.312 30.8894 -31.3119Z" fill="url(#paint1_radial_2764_2411)"/>
<path d="M52.8306 22.8311C52.8309 22.8311 52.8313 22.8311 52.8317 22.8312C55.6514 23.6078 58.7166 23.9915 61.9143 24.1649C61.2327 24.037 60.5632 23.8869 59.9074 23.7119C59.0894 23.4936 58.2569 23.327 57.4124 23.2672C55.8599 23.1573 54.3283 23.0176 52.8306 22.8311Z" fill="url(#paint2_radial_2764_2411)"/>
<path d="M61.9148 24.1646C64.7514 24.6964 67.7995 24.8427 70.9559 24.792C70.2509 24.7218 69.5571 24.6282 68.8755 24.5085C68.1438 24.3801 67.4044 24.2936 66.6616 24.2906C65.0568 24.2841 63.4704 24.2492 61.9148 24.1646Z" fill="url(#paint3_radial_2764_2411)"/>
<path d="M43.058 -23.5239C43.0579 -23.5239 43.0577 -23.524 43.0576 -23.5241C40.9545 -26.8222 37.8195 -29.7791 34.299 -32.6324C32.8522 -33.5474 31.4486 -34.49 30.1245 -35.4788C32.8758 -32.8254 35.2688 -30.0902 36.9092 -27.1539C44.5852 -13.4128 40.6637 10.664 52.8185 20.2749C54.5426 21.6383 56.476 22.6187 58.5663 23.3116C58.6452 23.3377 58.7272 23.3532 58.8102 23.3582C59.3977 23.3935 59.9876 23.4254 60.5793 23.4548C61.412 23.4962 61.7987 21.9267 61.1157 21.4486C48.8192 12.8386 51.2558 -10.667 43.0585 -23.5237C43.0584 -23.5238 43.0582 -23.5239 43.058 -23.5239Z" fill="url(#paint4_radial_2764_2411)"/>
<path d="M109.551 23.0351C109.551 23.0351 109.551 23.0353 109.551 23.0353C105.5 22.1353 100.976 22.246 96.29 22.7098C94.6421 23.0745 93.0115 23.3897 91.4097 23.6196C95.3935 23.5701 99.205 23.8426 102.637 24.8169C117.243 28.9649 131.395 48.9744 147.415 47.1018C149.86 46.8159 152.145 46.0439 154.31 44.9141C154.377 44.879 154.44 44.8355 154.496 44.7849C154.76 44.549 155.024 44.3118 155.286 44.0734C155.963 43.4605 155.01 41.9063 154.111 42.0647C138.724 44.778 123.91 26.2243 109.552 23.0349C109.551 23.0348 109.551 23.035 109.551 23.0351Z" fill="url(#paint5_radial_2764_2411)"/>
<path d="M77.7968 24.6144C77.1757 24.5629 76.5518 24.5424 75.9297 24.5815C74.2521 24.6868 72.5894 24.766 70.9558 24.7922C73.6269 25.0592 76.4551 24.9945 79.3643 24.7608C79.4008 24.7579 79.4026 24.706 79.3665 24.7006C78.8376 24.6855 78.3143 24.6572 77.7968 24.6144Z" fill="url(#paint6_radial_2764_2411)"/>
<path d="M65.5281 23.6624C65.5285 23.6624 65.5288 23.6624 65.5292 23.6625C66.2323 23.9019 66.9541 24.1034 67.6915 24.2707C67.7498 24.2839 67.8094 24.2903 67.8692 24.2901C70.1356 24.281 72.4316 24.2256 74.7204 24.1832C74.7329 24.183 74.7346 24.1651 74.7224 24.1625C71.7204 23.9049 68.6251 23.7816 65.5281 23.6624Z" fill="url(#paint7_radial_2764_2411)"/>
<path d="M86.0015 24.0189C85.9491 24.0258 85.8967 24.0327 85.8443 24.0396C85.6757 24.0618 85.6848 24.328 85.8544 24.3405C85.8634 24.3412 85.8724 24.341 85.8813 24.3399C86.8887 24.2175 87.9058 24.07 88.9309 23.9048C87.9393 23.9878 86.9621 24.0287 86.0021 24.0189H86.0015Z" fill="url(#paint8_radial_2764_2411)"/>
<path d="M81.7105 24.1555C80.9327 24.2161 80.1545 24.2774 79.3773 24.3368C79.1746 24.3523 79.1649 24.6696 79.366 24.7C79.5607 24.7058 79.7561 24.7092 79.952 24.711C80.5403 24.6595 81.1317 24.6015 81.7255 24.5384C81.9964 24.5096 81.9823 24.161 81.7099 24.1555H81.7105Z" fill="url(#paint9_radial_2764_2411)"/>
<path d="M74.9232 24.1795C74.9231 24.1797 74.9228 24.1798 74.9226 24.1798C74.9211 24.1798 74.9195 24.1798 74.918 24.1799C74.9036 24.1801 74.9017 24.2005 74.9157 24.2034C75.552 24.336 76.2 24.4403 76.8583 24.5189C76.863 24.5195 76.8677 24.5196 76.8723 24.5193C76.9635 24.513 76.9666 24.384 76.8758 24.3738C76.2303 24.3016 75.5793 24.2372 74.924 24.1792C74.9237 24.1792 74.9234 24.1793 74.9232 24.1795Z" fill="url(#paint10_radial_2764_2411)"/>
<path d="M77.2446 21.9784C77.2446 21.9786 77.2445 21.9786 77.2444 21.9786C64.8841 15.3136 64.5954 -6.79128 55.5821 -17.8466C52.3283 -21.8379 47.2486 -24.9788 41.9459 -28.081C40.7531 -28.7171 39.5806 -29.3688 38.4443 -30.0464C42.7491 -27.0859 46.6949 -24.0211 49.2958 -20.4228C57.9387 -8.46333 56.9079 14.3827 69.2719 22.0092C70.9584 23.0499 72.7866 23.7396 74.7232 24.1619C74.7901 24.1677 74.8563 24.1734 74.9232 24.1792C77.206 24.1377 79.4809 24.1101 81.7113 24.155C81.9538 24.1361 81.9687 23.6358 81.7306 23.5866C80.1637 23.2627 78.6632 22.7428 77.2449 21.9783C77.2448 21.9782 77.2446 21.9783 77.2446 21.9784Z" fill="url(#paint11_radial_2764_2411)"/>
<path d="M165.892 31.0355C165.892 31.0354 165.892 31.0353 165.892 31.0353C151.889 35.2268 136.11 19.5966 122.422 18.193C117.047 17.6416 111.035 19.0077 104.969 20.5554C103.687 20.9392 102.413 21.2993 101.15 21.6162C106.417 20.6793 111.555 20.0737 116.156 20.8182C130.208 23.0912 145.563 40.1823 160.276 36.6952C162.427 36.1858 164.391 35.2766 166.216 34.0706C166.289 34.0084 166.362 33.9467 166.435 33.8851C168.017 32.2239 169.596 30.5852 171.189 29.0393C171.777 28.3438 172.365 27.6501 172.953 26.9633C170.867 28.8128 168.549 30.24 165.892 31.0357C165.892 31.0358 165.892 31.0357 165.892 31.0355Z" fill="url(#paint12_radial_2764_2411)"/>
<path d="M88.9304 23.9045C88.9304 23.9047 88.9306 23.9048 88.9307 23.9048C89.7483 23.8363 90.575 23.7395 91.4098 23.6196C91.1582 23.6226 90.9063 23.6272 90.6535 23.6328C90.5663 23.6347 90.4793 23.6433 90.3933 23.6583C89.9043 23.7436 89.4168 23.8259 88.9307 23.9042C88.9305 23.9042 88.9304 23.9044 88.9304 23.9045Z" fill="url(#paint13_radial_2764_2411)"/>
<path d="M94.3604 22.9181C94.3604 22.918 94.3605 22.9179 94.3606 22.9179C95.0064 22.843 95.65 22.7727 96.2906 22.7099C96.9037 22.5745 97.5196 22.4316 98.1367 22.2847C97.2615 22.4506 96.3949 22.5872 95.5375 22.688C95.1452 22.7652 94.753 22.8424 94.3607 22.9184C94.3605 22.9184 94.3604 22.9183 94.3604 22.9181Z" fill="url(#paint14_radial_2764_2411)"/>
<path d="M89.7725 23.6569C90.2716 23.6407 90.7695 23.5929 91.2609 23.5039C92.2902 23.3175 93.3241 23.1195 94.3598 22.9177C92.3247 23.154 90.2671 23.4386 88.2124 23.7198C88.7346 23.6949 89.2548 23.6737 89.7725 23.6569Z" fill="url(#paint15_radial_2764_2411)"/>
<path d="M86.0015 24.0188C86.7373 23.9214 87.4748 23.8206 88.2124 23.7197C87.478 23.7546 86.74 23.7968 85.9994 23.8441C85.8547 23.8533 85.8565 24.0174 86.0015 24.0188Z" fill="url(#paint16_radial_2764_2411)"/>
<path d="M98.1367 22.2843C98.1367 22.2842 98.1368 22.2841 98.1369 22.284C99.132 22.0956 100.137 21.8692 101.15 21.6157C100.781 21.6814 100.413 21.7482 100.044 21.8168C99.4068 21.9764 98.7713 22.1331 98.1371 22.2846C98.1369 22.2846 98.1367 22.2845 98.1367 22.2843Z" fill="url(#paint17_radial_2764_2411)"/>
<path d="M197.209 -9.87692C197.209 -9.87682 197.209 -9.87675 197.209 -9.87683C207.359 -19.1851 228.649 -20.7046 234.379 -32.9924C235.882 -36.2144 236.129 -39.7805 235.687 -43.5361C235.392 -45.04 235.094 -46.545 234.817 -48.0426C234.406 -49.6807 233.974 -51.3257 233.555 -52.9673C231.178 -60.9032 227.877 -69.1007 228.195 -76.3256C228.779 -89.5976 242.96 -105.685 238.133 -118.946C236.802 -122.603 234.226 -125.495 231.004 -127.972C229.787 -128.778 228.573 -129.581 227.381 -130.39C225.944 -131.24 224.492 -132.078 223.056 -132.918C215.789 -136.795 207.799 -140.109 203.124 -145.207C193.815 -155.357 192.296 -176.648 180.008 -182.378C176.786 -183.881 173.22 -184.128 169.464 -183.686C167.96 -183.39 166.455 -183.093 164.958 -182.815C163.32 -182.405 161.675 -181.972 160.033 -181.554C152.097 -179.176 143.9 -175.875 136.675 -176.193C123.403 -176.778 107.316 -190.958 94.0544 -186.131C90.3979 -184.8 87.5054 -182.224 85.0289 -179.002C84.2228 -177.786 83.4196 -176.572 82.6106 -175.38C81.7602 -173.943 80.923 -172.491 80.0829 -171.054C76.2057 -163.788 72.8914 -155.798 67.7932 -151.122C57.643 -141.814 36.3526 -140.295 30.6224 -128.007C29.1197 -124.785 28.8725 -121.219 29.3144 -117.463C29.61 -115.959 29.9079 -114.454 30.1851 -112.957C30.5959 -111.318 31.028 -109.673 31.4464 -108.032C33.8243 -100.096 37.1253 -91.8984 36.8073 -84.6735C36.2224 -71.4014 22.0423 -55.3141 26.8691 -42.053C28.2001 -38.3965 30.7762 -35.504 33.9983 -33.0275C35.2147 -32.2214 36.4287 -31.4182 37.6208 -30.6092C39.0579 -29.7588 40.5099 -28.9216 41.9463 -28.0815C49.2127 -24.2043 57.2028 -20.89 61.878 -15.7918C71.1864 -5.64162 72.7059 15.6487 84.9938 21.379C88.2158 22.8817 91.7819 23.1289 95.5375 22.687C97.0414 22.3914 98.5464 22.0935 100.044 21.8163C101.682 21.4055 103.327 20.9734 104.969 20.555C112.905 18.1771 121.102 14.8761 128.327 15.1941C141.599 15.779 157.686 29.9591 170.947 25.1323C174.604 23.8013 177.496 21.2251 179.973 18.0031C180.779 16.7867 181.582 15.5727 182.391 14.3805C183.242 12.9435 184.079 11.4915 184.919 10.0551C188.796 2.78879 192.11 -5.20119 197.208 -9.87703C197.208 -9.87711 197.209 -9.87704 197.209 -9.87692ZM175.434 19.0316C162.939 24.4213 146.657 11.673 133.848 11.8545C120.569 12.0424 104.63 25.0655 92.4802 20.2381C80.33 15.4108 77.6732 -4.99916 68.1436 -14.2482C58.951 -23.1706 38.3595 -25.0703 32.9698 -37.5656C27.5801 -50.061 40.3284 -66.3425 40.1469 -79.1518C39.959 -92.4308 26.9359 -108.369 31.7633 -120.52C36.5906 -132.67 57.0005 -135.327 66.2496 -144.856C75.172 -154.049 77.0717 -174.64 89.567 -180.03C102.062 -185.42 118.344 -172.672 131.153 -172.853C144.432 -173.041 160.371 -186.064 172.521 -181.237C184.671 -176.409 187.328 -155.999 196.858 -146.75C206.05 -137.828 226.642 -135.928 232.031 -123.433C237.421 -110.938 224.673 -94.656 224.854 -81.8467C225.042 -68.5677 238.065 -52.6291 233.238 -40.4789C228.411 -28.3287 208.001 -25.6718 198.752 -16.1422C189.829 -6.94957 187.93 13.6419 175.434 19.0316Z" fill="url(#paint18_radial_2764_2411)"/>
<path d="M231.583 -47.6673C231.583 -47.6672 231.583 -47.6673 231.583 -47.6674C235.543 -59.6182 222.131 -74.2113 221.207 -86.9658C220.316 -99.2698 231.659 -115.635 225.778 -127.345C219.897 -139.056 199.996 -139.73 190.658 -147.792C180.979 -156.15 177.283 -175.622 165.332 -179.583C153.381 -183.543 138.788 -170.131 126.033 -169.206C113.729 -168.315 97.3633 -179.659 85.6534 -173.777C73.9428 -167.896 73.2692 -147.995 65.2065 -138.658C56.8483 -128.979 37.3764 -125.282 33.4162 -113.331C29.456 -101.38 42.8681 -86.7872 43.7923 -74.0325C44.6837 -61.7285 33.3402 -45.3629 39.2214 -33.6529C45.1026 -21.9423 65.0037 -21.2688 74.3409 -13.2067C84.0198 -4.84839 87.7167 14.6235 99.6675 18.5837C111.618 22.5439 126.212 9.13181 138.966 8.20758C151.27 7.31621 167.636 18.6597 179.346 12.7785C191.056 6.89732 191.73 -13.0038 199.792 -22.341C208.15 -32.0198 227.622 -35.7167 231.582 -47.6673C231.582 -47.6674 231.583 -47.6675 231.583 -47.6673ZM182.683 6.42023C171.771 12.7203 155.428 2.74585 143.667 4.29004C131.475 5.89014 118.217 19.5805 106.524 16.4472C94.8304 13.3138 90.1938 -5.17105 80.4353 -12.6529C71.0221 -19.8703 51.8809 -19.4042 45.5808 -30.3161C39.2807 -41.2281 49.2546 -57.5718 47.711 -69.3325C46.1109 -81.5242 32.4206 -94.7824 35.5539 -106.476C38.6872 -118.169 57.1721 -122.806 64.654 -132.564C71.8714 -141.977 71.4052 -161.118 82.3172 -167.419C93.2292 -173.719 109.573 -163.745 121.334 -165.288C133.525 -166.888 146.783 -180.579 158.477 -177.445C170.17 -174.312 174.807 -155.827 184.565 -148.345C193.978 -141.128 213.119 -141.594 219.42 -130.682C225.72 -119.77 215.745 -103.426 217.289 -91.6658C218.889 -79.4741 232.58 -66.2159 229.447 -54.5226C226.313 -42.8293 207.828 -38.1927 200.346 -28.4343C193.129 -19.021 193.595 0.120132 182.683 6.42023Z" fill="url(#paint19_radial_2764_2411)"/>
<path d="M226.861 -61.0157C229.212 -72.3972 215.351 -84.3394 213.137 -95.9342C211.001 -107.119 219.648 -123.339 213.001 -133.446C206.354 -143.552 188.036 -142.037 178.611 -148.428C168.841 -155.054 163.366 -172.511 151.984 -174.861C140.603 -177.211 128.661 -163.351 117.066 -161.136C105.881 -159 89.6609 -167.647 79.5545 -161C69.448 -154.353 70.9634 -136.035 64.5717 -126.611C57.946 -116.841 40.4891 -111.365 38.1394 -99.9837C35.7891 -88.6021 49.6494 -76.6599 51.8637 -65.0652C53.9997 -53.8801 45.3528 -37.6603 51.9997 -27.5538C58.6467 -17.4474 76.965 -18.9628 86.3893 -12.5711C96.1592 -5.9454 101.635 11.5115 113.016 13.8613C124.398 16.2115 136.34 2.35121 147.935 0.136902C159.12 -1.99905 175.34 6.6479 185.446 0.000930786C195.553 -6.64604 194.037 -24.9644 200.429 -34.3886C207.055 -44.1586 224.512 -49.6341 226.861 -61.0157ZM187.64 -6.43459C178.341 0.487808 162.342 -6.88055 151.76 -4.21394C140.79 -1.44936 130.137 12.4761 119.118 10.8622C108.098 9.24826 101.887 -7.14792 92.1708 -12.9421C82.7984 -18.5318 65.3576 -16.0616 58.4352 -25.3597C51.5128 -34.6577 58.8812 -50.6575 56.2146 -61.2398C53.45 -72.2094 39.5246 -82.8626 41.1385 -93.8818C42.7524 -104.901 59.1486 -111.113 64.9428 -120.829C70.5324 -130.201 68.0623 -147.642 77.3603 -154.564C86.6589 -161.487 102.658 -154.118 113.24 -156.785C124.21 -159.549 134.863 -173.475 145.882 -171.861C156.902 -170.247 163.113 -153.851 172.829 -148.057C182.202 -142.467 199.642 -144.937 206.565 -135.639C213.487 -126.34 206.119 -110.341 208.785 -99.7589C211.55 -88.7894 225.476 -78.1361 223.862 -67.117C222.248 -56.0973 205.852 -49.8859 200.057 -40.1702C194.468 -30.7978 196.938 -13.357 187.64 -6.43459Z" fill="url(#paint20_radial_2764_2411)"/>
<path d="M220.486 -72.8018C221.414 -83.4141 207.524 -92.8119 204.274 -103.133C201.139 -113.089 207.286 -128.777 200.159 -137.272C193.031 -145.766 176.515 -142.437 167.254 -147.253C157.654 -152.246 150.811 -167.557 140.198 -168.485C129.586 -169.413 120.188 -155.524 109.867 -152.274C99.9107 -149.139 84.2227 -155.286 75.7285 -148.158C67.2342 -141.031 70.5635 -124.514 65.747 -115.253C60.7543 -105.653 45.4431 -98.8101 44.5149 -88.1977C43.5866 -77.5854 57.4764 -68.1877 60.7261 -57.8663C63.8612 -47.9102 57.7149 -32.2222 64.8419 -23.728C71.9694 -15.2337 88.486 -18.563 97.7465 -13.7466C107.347 -8.75385 114.19 6.55734 124.802 7.4856C135.415 8.41385 144.812 -5.47589 155.134 -8.72562C165.09 -11.8607 180.778 -5.71443 189.272 -12.8414C197.766 -19.9689 194.437 -36.4855 199.253 -45.7461C204.246 -55.346 219.557 -62.1895 220.486 -72.8018ZM198.04 -51.0868C193.965 -41.9945 198.053 -26.4401 190.355 -19.1766C182.656 -11.9131 167.366 -16.8995 158.052 -13.3599C148.396 -9.69017 140.212 4.06761 130.047 3.77203C119.883 3.47644 112.512 -10.7342 103.087 -14.9589C93.9944 -19.0343 78.44 -14.9456 71.1765 -22.6441C63.913 -30.3427 68.8994 -45.6331 65.3598 -54.9473C61.6901 -64.6026 47.9323 -72.7868 48.2279 -82.9515C48.5235 -93.1161 62.7341 -100.487 66.9588 -109.912C71.0342 -119.004 66.9455 -134.559 74.6441 -141.822C82.3426 -149.086 97.633 -144.099 106.947 -147.639C116.602 -151.309 124.787 -165.067 134.951 -164.771C145.116 -164.475 152.487 -150.265 161.912 -146.04C171.004 -141.965 186.559 -146.053 193.822 -138.355C201.086 -130.656 196.099 -115.366 199.639 -106.052C203.309 -96.3964 217.066 -88.2121 216.771 -78.0475C216.475 -67.8828 202.265 -60.5122 198.04 -51.0868Z" fill="url(#paint21_radial_2764_2411)"/>
<path d="M194.919 -108.511C191.038 -117.17 194.932 -131.984 187.6 -138.902C180.268 -145.819 165.706 -141.07 156.835 -144.442C147.64 -147.937 139.845 -161.039 130.165 -160.758C120.485 -160.476 113.465 -146.942 104.489 -142.919C95.8296 -139.038 81.0157 -142.931 74.0984 -135.599C67.1812 -128.267 71.9302 -113.705 68.5583 -104.835C65.0632 -95.6392 51.9605 -87.8445 52.2423 -78.1644C52.524 -68.4843 66.0577 -61.464 70.0812 -52.4881C73.9625 -43.829 70.0685 -29.0151 77.4006 -22.0979C84.7327 -15.1807 99.2948 -19.9297 108.165 -16.5578C117.361 -13.0626 125.156 0.0400543 134.836 -0.241699C144.516 -0.523453 151.536 -14.0571 160.512 -18.0806C169.171 -21.9619 183.985 -18.068 190.902 -25.4C197.819 -32.7321 193.07 -47.2942 196.442 -56.1647C199.937 -65.3602 213.04 -73.155 212.758 -82.835C212.477 -92.5151 198.943 -99.5354 194.919 -108.511ZM194.487 -60.9523C191.779 -52.3538 197.088 -38.8052 190.932 -31.4697C184.777 -24.1341 170.512 -27.0088 162.514 -22.8492C154.223 -18.5376 148.313 -5.3145 139.148 -4.51244C129.983 -3.71037 121.867 -15.7061 112.953 -18.5128C104.355 -21.2203 90.8063 -15.9118 83.4708 -22.0673C76.1353 -28.2228 79.0099 -42.4871 74.8504 -50.4852C70.5387 -58.7761 57.3157 -64.6861 56.5136 -73.851C55.7115 -83.016 67.7073 -91.1322 70.5139 -100.046C73.2215 -108.644 67.913 -122.193 74.0685 -129.529C80.224 -136.864 94.4882 -133.99 102.486 -138.149C110.777 -142.461 116.687 -155.684 125.852 -156.486C135.017 -157.288 143.133 -145.292 152.047 -142.485C160.646 -139.778 174.194 -145.086 181.53 -138.931C188.865 -132.775 185.991 -118.511 190.15 -110.513C194.462 -102.222 207.685 -96.3122 208.487 -87.1473C209.289 -77.9823 197.293 -69.8661 194.487 -60.9523Z" fill="url(#paint22_radial_2764_2411)"/>
<defs>
<radialGradient id="paint0_radial_2764_2411" cx="0" cy="0" r="1" gradientUnits="userSpaceOnUse" gradientTransform="translate(139.208 31.7716) rotate(-15.7878) scale(132.982 41.2373)">
<stop stop-color="#FFB6D5"/>
<stop offset="0.1" stop-color="#FFE3C0"/>
<stop offset="0.29" stop-color="#C7FBDB"/>
<stop offset="0.43" stop-color="#C7CDF4"/>
<stop offset="0.54" stop-color="#FFBCD4"/>
<stop offset="0.66" stop-color="#FFE0C3"/>
<stop offset="0.76" stop-color="#B0F1D4"/>
<stop offset="0.84" stop-color="#C9CEEC"/>
<stop offset="0.91" stop-color="#FFC1DA"/>
<stop offset="1" stop-color="#BDFFE3"/>
<animateTransform xmlns="http://www.w3.org/2000/svg" attributeName="gradientTransform" attributeType="XML" type="scale" 
values="188.8954 108.3446; 368.8954 216.3446; 188.8954 108.3446" 
dur="5s" keyTimes="0; 0.5; 1" repeatCount="indefinite"/>
</radialGradient>
<radialGradient id="paint1_radial_2764_2411" cx="0" cy="0" r="1" gradientUnits="userSpaceOnUse" gradientTransform="translate(47.9664 -27.5022) rotate(-52.3788) scale(94.8954 54.3446)">
<stop stop-color="#FFB6D5"/>
<stop offset="0.1" stop-color="#FFE3C0"/>
<stop offset="0.29" stop-color="#C7FBDB"/>
<stop offset="0.43" stop-color="#C7CDF4"/>
<stop offset="0.54" stop-color="#FFBCD4"/>
<stop offset="0.66" stop-color="#FFE0C3"/>
<stop offset="0.76" stop-color="#B0F1D4"/>
<stop offset="0.84" stop-color="#C9CEEC"/>
<stop offset="0.91" stop-color="#FFC1DA"/>
<stop offset="1" stop-color="#BDFFE3"/>
<animateTransform xmlns="http://www.w3.org/2000/svg" attributeName="gradientTransform" attributeType="XML" type="scale" 
values="188.8954 108.3446; 94.8954 54.3446; 188.8954 108.3446" 
dur="5s" keyTimes="0; 0.5; 1" repeatCount="indefinite"/>
<animateTransform xmlns="http://www.w3.org/2000/svg" attributeName="gradientTransform" attributeType="XML" type="scale" 
values="188.8954 108.3446; 368.8954 216.3446; 188.8954 108.3446" 
dur="5s" keyTimes="0; 0.5; 1" repeatCount="indefinite"/>
</radialGradient>
<radialGradient id="paint2_radial_2764_2411" cx="0" cy="0" r="1" gradientUnits="userSpaceOnUse" gradientTransform="translate(60.5265 23.1441) rotate(-5.26992) scale(16.5974 1.79796)">
<stop stop-color="#FFB6D5"/>
<stop offset="0.1" stop-color="#FFE3C0"/>
<stop offset="0.29" stop-color="#C7FBDB"/>
<stop offset="0.43" stop-color="#C7CDF4"/>
<stop offset="0.54" stop-color="#FFBCD4"/>
<stop offset="0.66" stop-color="#FFE0C3"/>
<stop offset="0.76" stop-color="#B0F1D4"/>
<stop offset="0.84" stop-color="#C9CEEC"/>
<stop offset="0.91" stop-color="#FFC1DA"/>
<stop offset="1" stop-color="#BDFFE3"/>
<animateTransform xmlns="http://www.w3.org/2000/svg" attributeName="gradientTransform" attributeType="XML" type="scale" 
values="188.8954 108.3446; 368.8954 216.3446; 188.8954 108.3446" 
dur="5s" keyTimes="0; 0.5; 1" repeatCount="indefinite"/>
</radialGradient>
<radialGradient id="paint3_radial_2764_2411" cx="0" cy="0" r="1" gradientUnits="userSpaceOnUse" gradientTransform="translate(69.5746 24.314) rotate(-2.53364) scale(16.4658 0.861286)">
<stop stop-color="#FFB6D5"/>
<stop offset="0.1" stop-color="#FFE3C0"/>
<stop offset="0.29" stop-color="#C7FBDB"/>
<stop offset="0.43" stop-color="#C7CDF4"/>
<stop offset="0.54" stop-color="#FFBCD4"/>
<stop offset="0.66" stop-color="#FFE0C3"/>
<stop offset="0.76" stop-color="#B0F1D4"/>
<stop offset="0.84" stop-color="#C9CEEC"/>
<stop offset="0.91" stop-color="#FFC1DA"/>
<stop offset="1" stop-color="#BDFFE3"/>
<animateTransform xmlns="http://www.w3.org/2000/svg" attributeName="gradientTransform" attributeType="XML" type="scale" 
values="188.8954 108.3446; 368.8954 216.3446; 188.8954 108.3446" 
dur="5s" keyTimes="0; 0.5; 1" repeatCount="indefinite"/>
</radialGradient>
<radialGradient id="paint4_radial_2764_2411" cx="0" cy="0" r="1" gradientUnits="userSpaceOnUse" gradientTransform="translate(60.1198 -21.5987) rotate(-46.3773) scale(93.3692 55.2308)">
<stop stop-color="#FFB6D5"/>
<stop offset="0.1" stop-color="#FFE3C0"/>
<stop offset="0.29" stop-color="#C7FBDB"/>
<stop offset="0.43" stop-color="#C7CDF4"/>
<stop offset="0.54" stop-color="#FFBCD4"/>
<stop offset="0.66" stop-color="#FFE0C3"/>
<stop offset="0.76" stop-color="#B0F1D4"/>
<stop offset="0.84" stop-color="#C9CEEC"/>
<stop offset="0.91" stop-color="#FFC1DA"/>
<stop offset="1" stop-color="#BDFFE3"/>
<animateTransform xmlns="http://www.w3.org/2000/svg" attributeName="gradientTransform" attributeType="XML" type="scale" 
values="188.8954 108.3446; 368.8954 216.3446; 188.8954 108.3446" 
dur="5s" keyTimes="0; 0.5; 1" repeatCount="indefinite"/>
</radialGradient>
<radialGradient id="paint5_radial_2764_2411" cx="0" cy="0" r="1" gradientUnits="userSpaceOnUse" gradientTransform="translate(149.017 28.1941) rotate(-12.9376) scale(126.936 32.8066)">
<stop stop-color="#FFB6D5"/>
<stop offset="0.1" stop-color="#FFE3C0"/>
<stop offset="0.29" stop-color="#C7FBDB"/>
<stop offset="0.43" stop-color="#C7CDF4"/>
<stop offset="0.54" stop-color="#FFBCD4"/>
<stop offset="0.66" stop-color="#FFE0C3"/>
<stop offset="0.76" stop-color="#B0F1D4"/>
<stop offset="0.84" stop-color="#C9CEEC"/>
<stop offset="0.91" stop-color="#FFC1DA"/>
<stop offset="1" stop-color="#BDFFE3"/>
<animateTransform xmlns="http://www.w3.org/2000/svg" attributeName="gradientTransform" attributeType="XML" type="scale" 
values="188.8954 108.3446; 368.8954 216.3446; 188.8954 108.3446" 
dur="5s" keyTimes="0; 0.5; 1" repeatCount="indefinite"/>
</radialGradient>
<radialGradient id="paint6_radial_2764_2411" cx="0" cy="0" r="1" gradientUnits="userSpaceOnUse" gradientTransform="translate(78.2973 24.6249) rotate(-1.85065) scale(15.7744 0.603062)">
<stop stop-color="#FFB6D5"/>
<stop offset="0.1" stop-color="#FFE3C0"/>
<stop offset="0.29" stop-color="#C7FBDB"/>
<stop offset="0.43" stop-color="#C7CDF4"/>
<stop offset="0.54" stop-color="#FFBCD4"/>
<stop offset="0.66" stop-color="#FFE0C3"/>
<stop offset="0.76" stop-color="#B0F1D4"/>
<stop offset="0.84" stop-color="#C9CEEC"/>
<stop offset="0.91" stop-color="#FFC1DA"/>
<stop offset="1" stop-color="#BDFFE3"/>
<animateTransform xmlns="http://www.w3.org/2000/svg" attributeName="gradientTransform" attributeType="XML" type="scale" 
values="188.8954 108.3446; 368.8954 216.3446; 188.8954 108.3446" 
dur="5s" keyTimes="0; 0.5; 1" repeatCount="indefinite"/>
</radialGradient>
<radialGradient id="paint7_radial_2764_2411" cx="0" cy="0" r="1" gradientUnits="userSpaceOnUse" gradientTransform="translate(73.3929 23.8098) rotate(-2.43352) scale(16.9053 0.849415)">
<stop stop-color="#FFB6D5"/>
<stop offset="0.1" stop-color="#FFE3C0"/>
<stop offset="0.29" stop-color="#C7FBDB"/>
<stop offset="0.43" stop-color="#C7CDF4"/>
<stop offset="0.54" stop-color="#FFBCD4"/>
<stop offset="0.66" stop-color="#FFE0C3"/>
<stop offset="0.76" stop-color="#B0F1D4"/>
<stop offset="0.84" stop-color="#C9CEEC"/>
<stop offset="0.91" stop-color="#FFC1DA"/>
<stop offset="1" stop-color="#BDFFE3"/>
<animateTransform xmlns="http://www.w3.org/2000/svg" attributeName="gradientTransform" attributeType="XML" type="scale" 
values="188.8954 108.3446; 368.8954 216.3446; 188.8954 108.3446" 
dur="5s" keyTimes="0; 0.5; 1" repeatCount="indefinite"/>
</radialGradient>
<radialGradient id="paint8_radial_2764_2411" cx="0" cy="0" r="1" gradientUnits="userSpaceOnUse" gradientTransform="translate(88.218 24.0073) rotate(-3.36468) scale(8.50421 0.590155)">
<stop stop-color="#FFB6D5"/>
<stop offset="0.1" stop-color="#FFE3C0"/>
<stop offset="0.29" stop-color="#C7FBDB"/>
<stop offset="0.43" stop-color="#C7CDF4"/>
<stop offset="0.54" stop-color="#FFBCD4"/>
<stop offset="0.66" stop-color="#FFE0C3"/>
<stop offset="0.76" stop-color="#B0F1D4"/>
<stop offset="0.84" stop-color="#C9CEEC"/>
<stop offset="0.91" stop-color="#FFC1DA"/>
<stop offset="1" stop-color="#BDFFE3"/>
<animateTransform xmlns="http://www.w3.org/2000/svg" attributeName="gradientTransform" attributeType="XML" type="scale" 
values="188.8954 108.3446; 368.8954 216.3446; 188.8954 108.3446" 
dur="5s" keyTimes="0; 0.5; 1" repeatCount="indefinite"/>
</radialGradient>
<radialGradient id="paint9_radial_2764_2411" cx="0" cy="0" r="1" gradientUnits="userSpaceOnUse" gradientTransform="translate(83.2538 24.2859) rotate(-3.01988) scale(12.0497 0.750844)">
<stop stop-color="#FFB6D5"/>
<stop offset="0.1" stop-color="#FFE3C0"/>
<stop offset="0.29" stop-color="#C7FBDB"/>
<stop offset="0.43" stop-color="#C7CDF4"/>
<stop offset="0.54" stop-color="#FFBCD4"/>
<stop offset="0.66" stop-color="#FFE0C3"/>
<stop offset="0.76" stop-color="#B0F1D4"/>
<stop offset="0.84" stop-color="#C9CEEC"/>
<stop offset="0.91" stop-color="#FFC1DA"/>
<stop offset="1" stop-color="#BDFFE3"/>
<animateTransform xmlns="http://www.w3.org/2000/svg" attributeName="gradientTransform" attributeType="XML" type="scale" 
values="188.8954 108.3446; 368.8954 216.3446; 188.8954 108.3446" 
dur="5s" keyTimes="0; 0.5; 1" repeatCount="indefinite"/>
</radialGradient>
<radialGradient id="paint10_radial_2764_2411" cx="0" cy="0" r="1" gradientUnits="userSpaceOnUse" gradientTransform="translate(77.2179 24.2591) rotate(-4.30722) scale(5.18196 0.459664)">
<stop stop-color="#FFB6D5"/>
<stop offset="0.1" stop-color="#FFE3C0"/>
<stop offset="0.29" stop-color="#C7FBDB"/>
<stop offset="0.43" stop-color="#C7CDF4"/>
<stop offset="0.54" stop-color="#FFBCD4"/>
<stop offset="0.66" stop-color="#FFE0C3"/>
<stop offset="0.76" stop-color="#B0F1D4"/>
<stop offset="0.84" stop-color="#C9CEEC"/>
<stop offset="0.91" stop-color="#FFC1DA"/>
<stop offset="1" stop-color="#BDFFE3"/>
<animateTransform xmlns="http://www.w3.org/2000/svg" attributeName="gradientTransform" attributeType="XML" type="scale" 
values="188.8954 108.3446; 368.8954 216.3446; 188.8954 108.3446" 
dur="5s" keyTimes="0; 0.5; 1" repeatCount="indefinite"/>
</radialGradient>
<radialGradient id="paint11_radial_2764_2411" cx="0" cy="0" r="1" gradientUnits="userSpaceOnUse" gradientTransform="translate(77.3759 -17.32) rotate(-36.5469) scale(104.071 58.9686)">
<stop stop-color="#FFB6D5"/>
<stop offset="0.1" stop-color="#FFE3C0"/>
<stop offset="0.29" stop-color="#C7FBDB"/>
<stop offset="0.43" stop-color="#C7CDF4"/>
<stop offset="0.54" stop-color="#FFBCD4"/>
<stop offset="0.66" stop-color="#FFE0C3"/>
<stop offset="0.76" stop-color="#B0F1D4"/>
<stop offset="0.84" stop-color="#C9CEEC"/>
<stop offset="0.91" stop-color="#FFC1DA"/>
<stop offset="1" stop-color="#BDFFE3"/>
<animateTransform xmlns="http://www.w3.org/2000/svg" attributeName="gradientTransform" attributeType="XML" type="scale" 
values="188.8954 108.3446; 368.8954 216.3446; 188.8954 108.3446" 
dur="5s" keyTimes="0; 0.5; 1" repeatCount="indefinite"/>
</radialGradient>
<radialGradient id="paint12_radial_2764_2411" cx="0" cy="0" r="1" gradientUnits="userSpaceOnUse" gradientTransform="translate(161.983 22.5497) rotate(-9.48309) scale(132.45 25.4935)">
<stop stop-color="#FFB6D5"/>
<stop offset="0.1" stop-color="#FFE3C0"/>
<stop offset="0.29" stop-color="#C7FBDB"/>
<stop offset="0.43" stop-color="#C7CDF4"/>
<stop offset="0.54" stop-color="#FFBCD4"/>
<stop offset="0.66" stop-color="#FFE0C3"/>
<stop offset="0.76" stop-color="#B0F1D4"/>
<stop offset="0.84" stop-color="#C9CEEC"/>
<stop offset="0.91" stop-color="#FFC1DA"/>
<stop offset="1" stop-color="#BDFFE3"/>
<animateTransform xmlns="http://www.w3.org/2000/svg" attributeName="gradientTransform" attributeType="XML" type="scale" 
values="188.8954 108.3446; 368.8954 216.3446; 188.8954 108.3446" 
dur="5s" keyTimes="0; 0.5; 1" repeatCount="indefinite"/>
</radialGradient>
<radialGradient id="paint13_radial_2764_2411" cx="0" cy="0" r="1" gradientUnits="userSpaceOnUse" gradientTransform="translate(91.031 23.6866) rotate(-4.13307) scale(4.52283 0.385089)">
<stop stop-color="#FFB6D5"/>
<stop offset="0.1" stop-color="#FFE3C0"/>
<stop offset="0.29" stop-color="#C7FBDB"/>
<stop offset="0.43" stop-color="#C7CDF4"/>
<stop offset="0.54" stop-color="#FFBCD4"/>
<stop offset="0.66" stop-color="#FFE0C3"/>
<stop offset="0.76" stop-color="#B0F1D4"/>
<stop offset="0.84" stop-color="#C9CEEC"/>
<stop offset="0.91" stop-color="#FFC1DA"/>
<stop offset="1" stop-color="#BDFFE3"/>
<animateTransform xmlns="http://www.w3.org/2000/svg" attributeName="gradientTransform" attributeType="XML" type="scale" 
values="188.8954 108.3446; 368.8954 216.3446; 188.8954 108.3446" 
dur="5s" keyTimes="0; 0.5; 1" repeatCount="indefinite"/>
</radialGradient>
<radialGradient id="paint14_radial_2764_2411" cx="0" cy="0" r="1" gradientUnits="userSpaceOnUse" gradientTransform="translate(97.5598 22.4334) rotate(-6.01812) scale(6.90898 0.853223)">
<stop stop-color="#FFB6D5"/>
<stop offset="0.1" stop-color="#FFE3C0"/>
<stop offset="0.29" stop-color="#C7FBDB"/>
<stop offset="0.43" stop-color="#C7CDF4"/>
<stop offset="0.54" stop-color="#FFBCD4"/>
<stop offset="0.66" stop-color="#FFE0C3"/>
<stop offset="0.76" stop-color="#B0F1D4"/>
<stop offset="0.84" stop-color="#C9CEEC"/>
<stop offset="0.91" stop-color="#FFC1DA"/>
<stop offset="1" stop-color="#BDFFE3"/>
<animateTransform xmlns="http://www.w3.org/2000/svg" attributeName="gradientTransform" attributeType="XML" type="scale" 
values="188.8954 108.3446; 368.8954 216.3446; 188.8954 108.3446" 
dur="5s" keyTimes="0; 0.5; 1" repeatCount="indefinite"/>
</radialGradient>
<radialGradient id="paint15_radial_2764_2411" cx="0" cy="0" r="1" gradientUnits="userSpaceOnUse" gradientTransform="translate(93.4206 23.106) rotate(-4.6851) scale(11.2224 1.08206)">
<stop stop-color="#FFB6D5"/>
<stop offset="0.1" stop-color="#FFE3C0"/>
<stop offset="0.29" stop-color="#C7FBDB"/>
<stop offset="0.43" stop-color="#C7CDF4"/>
<stop offset="0.54" stop-color="#FFBCD4"/>
<stop offset="0.66" stop-color="#FFE0C3"/>
<stop offset="0.76" stop-color="#B0F1D4"/>
<stop offset="0.84" stop-color="#C9CEEC"/>
<stop offset="0.91" stop-color="#FFC1DA"/>
<stop offset="1" stop-color="#BDFFE3"/>
<animateTransform xmlns="http://www.w3.org/2000/svg" attributeName="gradientTransform" attributeType="XML" type="scale" 
values="188.8954 108.3446; 368.8954 216.3446; 188.8954 108.3446" 
dur="5s" keyTimes="0; 0.5; 1" repeatCount="indefinite"/>
</radialGradient>
<radialGradient id="paint16_radial_2764_2411" cx="0" cy="0" r="1" gradientUnits="userSpaceOnUse" gradientTransform="translate(87.6293 23.7899) rotate(-2.81821) scale(6.95164 0.404341)">
<stop stop-color="#FFB6D5"/>
<stop offset="0.1" stop-color="#FFE3C0"/>
<stop offset="0.29" stop-color="#C7FBDB"/>
<stop offset="0.43" stop-color="#C7CDF4"/>
<stop offset="0.54" stop-color="#FFBCD4"/>
<stop offset="0.66" stop-color="#FFE0C3"/>
<stop offset="0.76" stop-color="#B0F1D4"/>
<stop offset="0.84" stop-color="#C9CEEC"/>
<stop offset="0.91" stop-color="#FFC1DA"/>
<stop offset="1" stop-color="#BDFFE3"/>
<animateTransform xmlns="http://www.w3.org/2000/svg" attributeName="gradientTransform" attributeType="XML" type="scale" 
values="188.8954 108.3446; 368.8954 216.3446; 188.8954 108.3446" 
dur="5s" keyTimes="0; 0.5; 1" repeatCount="indefinite"/>
</radialGradient>
<radialGradient id="paint17_radial_2764_2411" cx="0" cy="0" r="1" gradientUnits="userSpaceOnUse" gradientTransform="translate(100.689 21.7727) rotate(-7.93947) scale(5.53489 0.896838)">
<stop stop-color="#FFB6D5"/>
<stop offset="0.1" stop-color="#FFE3C0"/>
<stop offset="0.29" stop-color="#C7FBDB"/>
<stop offset="0.43" stop-color="#C7CDF4"/>
<stop offset="0.54" stop-color="#FFBCD4"/>
<stop offset="0.66" stop-color="#FFE0C3"/>
<stop offset="0.76" stop-color="#B0F1D4"/>
<stop offset="0.84" stop-color="#C9CEEC"/>
<stop offset="0.91" stop-color="#FFC1DA"/>
<stop offset="1" stop-color="#BDFFE3"/>
<animateTransform xmlns="http://www.w3.org/2000/svg" attributeName="gradientTransform" attributeType="XML" type="scale" 
values="188.8954 108.3446; 368.8954 216.3446; 188.8954 108.3446" 
dur="5s" keyTimes="0; 0.5; 1" repeatCount="indefinite"/>
</radialGradient>
<radialGradient id="paint18_radial_2764_2411" cx="0" cy="0" r="1" gradientUnits="userSpaceOnUse" gradientTransform="translate(206.551 -137.08) rotate(-32.1344) scale(458.22 244.456)">
<stop stop-color="#FFB6D5"/>
<stop offset="0.1" stop-color="#FFE3C0"/>
<stop offset="0.29" stop-color="#C7FBDB"/>
<stop offset="0.43" stop-color="#C7CDF4"/>
<stop offset="0.54" stop-color="#FFBCD4"/>
<stop offset="0.66" stop-color="#FFE0C3"/>
<stop offset="0.76" stop-color="#B0F1D4"/>
<stop offset="0.84" stop-color="#C9CEEC"/>
<stop offset="0.91" stop-color="#FFC1DA"/>
<stop offset="1" stop-color="#BDFFE3"/>
<animateTransform xmlns="http://www.w3.org/2000/svg" attributeName="gradientTransform" attributeType="XML" type="scale" 
values="188.8954 108.3446; 368.8954 216.3446; 188.8954 108.3446" 
dur="5s" keyTimes="0; 0.5; 1" repeatCount="indefinite"/>
</radialGradient>
<radialGradient id="paint19_radial_2764_2411" cx="0" cy="0" r="1" gradientUnits="userSpaceOnUse" gradientTransform="translate(201.814 -133.461) rotate(-32.1343) scale(428.916 228.823)">
<stop stop-color="#FFB6D5"/>
<stop offset="0.1" stop-color="#FFE3C0"/>
<stop offset="0.29" stop-color="#C7FBDB"/>
<stop offset="0.43" stop-color="#C7CDF4"/>
<stop offset="0.54" stop-color="#FFBCD4"/>
<stop offset="0.66" stop-color="#FFE0C3"/>
<stop offset="0.76" stop-color="#B0F1D4"/>
<stop offset="0.84" stop-color="#C9CEEC"/>
<stop offset="0.91" stop-color="#FFC1DA"/>
<stop offset="1" stop-color="#BDFFE3"/>
<animateTransform xmlns="http://www.w3.org/2000/svg" attributeName="gradientTransform" attributeType="XML" type="scale" 
values="188.8954 108.3446; 368.8954 216.3446; 188.8954 108.3446" 
dur="5s" keyTimes="0; 0.5; 1" repeatCount="indefinite"/>
</radialGradient>
<radialGradient id="paint20_radial_2764_2411" cx="0" cy="0" r="1" gradientUnits="userSpaceOnUse" gradientTransform="translate(198.214 -130.711) rotate(-32.1344) scale(406.637 216.937)">
<stop stop-color="#FFB6D5"/>
<stop offset="0.1" stop-color="#FFE3C0"/>
<stop offset="0.29" stop-color="#C7FBDB"/>
<stop offset="0.43" stop-color="#C7CDF4"/>
<stop offset="0.54" stop-color="#FFBCD4"/>
<stop offset="0.66" stop-color="#FFE0C3"/>
<stop offset="0.76" stop-color="#B0F1D4"/>
<stop offset="0.84" stop-color="#C9CEEC"/>
<stop offset="0.91" stop-color="#FFC1DA"/>
<stop offset="1" stop-color="#BDFFE3"/>
<animateTransform xmlns="http://www.w3.org/2000/svg" attributeName="gradientTransform" attributeType="XML" type="scale" 
values="188.8954 108.3446; 368.8954 216.3446; 188.8954 108.3446" 
dur="5s" keyTimes="0; 0.5; 1" repeatCount="indefinite"/>
</radialGradient>
<radialGradient id="paint21_radial_2764_2411" cx="0" cy="0" r="1" gradientUnits="userSpaceOnUse" gradientTransform="translate(193.632 -127.209) rotate(-32.1344) scale(378.282 201.81)">
<stop stop-color="#FFB6D5"/>
<stop offset="0.1" stop-color="#FFE3C0"/>
<stop offset="0.29" stop-color="#C7FBDB"/>
<stop offset="0.43" stop-color="#C7CDF4"/>
<stop offset="0.54" stop-color="#FFBCD4"/>
<stop offset="0.66" stop-color="#FFE0C3"/>
<stop offset="0.76" stop-color="#B0F1D4"/>
<stop offset="0.84" stop-color="#C9CEEC"/>
<stop offset="0.91" stop-color="#FFC1DA"/>
<stop offset="1" stop-color="#BDFFE3"/>
<animateTransform xmlns="http://www.w3.org/2000/svg" attributeName="gradientTransform" attributeType="XML" type="scale" 
values="188.8954 108.3446; 368.8954 216.3446; 188.8954 108.3446" 
dur="5s" keyTimes="0; 0.5; 1" repeatCount="indefinite"/>
</radialGradient>
<radialGradient id="paint22_radial_2764_2411" cx="0" cy="0" r="1" gradientUnits="userSpaceOnUse" gradientTransform="translate(188.238 -123.088) rotate(-32.1344) scale(344.905 184.004)">
<stop stop-color="#FFB6D5"/>
<stop offset="0.1" stop-color="#FFE3C0"/>
<stop offset="0.29" stop-color="#C7FBDB"/>
<stop offset="0.43" stop-color="#C7CDF4"/>
<stop offset="0.54" stop-color="#FFBCD4"/>
<stop offset="0.66" stop-color="#FFE0C3"/>
<stop offset="0.76" stop-color="#B0F1D4"/>
<stop offset="0.84" stop-color="#C9CEEC"/>
<stop offset="0.91" stop-color="#FFC1DA"/>
<stop offset="1" stop-color="#BDFFE3"/>
<animateTransform xmlns="http://www.w3.org/2000/svg" attributeName="gradientTransform" attributeType="XML" type="scale" 
values="188.8954 108.3446; 368.8954 216.3446; 188.8954 108.3446" 
dur="5s" keyTimes="0; 0.5; 1" repeatCount="indefinite"/>
</radialGradient>
</defs>
</svg>
