<svg width="255" height="96" viewBox="0 0 255 96" fill="none" xmlns="http://www.w3.org/2000/svg">
<path d="M187.85 29.0752C187.85 29.0754 187.85 29.0756 187.85 29.0756C185.051 29.2821 182.184 29.9628 179.277 30.9208C178.66 31.1239 178.072 31.4013 177.507 31.72C176.03 32.5525 174.552 33.3002 173.071 33.9229V33.9229C173.03 33.9453 173.055 34.0095 173.1 33.998C175.911 33.2878 178.67 32.8329 181.344 32.7912C197.474 32.5416 217.998 48.5687 233.724 41.7603C239.539 39.243 243.526 34.1109 246.81 28.0556C244.715 30.8951 242.22 33.2422 239.11 34.8096C224.256 42.2936 203.466 27.9232 187.851 29.0748C187.851 29.0748 187.85 29.0749 187.85 29.0752V29.0752Z" fill="url(#paint0_radial_4_18678)"/>
<path d="M265.003 -9.79829C265.003 -9.79836 265.003 -9.79842 265.003 -9.79836C263.147 -7.64353 261.601 -5.04643 260.225 -2.19415C260.181 -2.10272 260.146 -2.00698 260.121 -1.90878C259.639 -0.0687126 259.084 1.71176 258.416 3.39519V3.39519C258.395 3.46731 258.497 3.51194 258.536 3.44751C259.887 1.1977 261.36 -0.845446 263.03 -2.57022C274.661 -14.5857 300.358 -17.9651 306.417 -33.2736C307.522 -36.0648 307.879 -39.0138 307.723 -42.0716C307.679 -42.9296 305.579 -42.8123 305.31 -41.9963V-41.9963C300.304 -26.8215 275.595 -22.0969 265.003 -9.79821C265.003 -9.79815 265.003 -9.79821 265.003 -9.79829V-9.79829Z" fill="url(#paint1_radial_4_18678)"/>
<path d="M105.789 2.00292C105.789 2.00295 105.789 2.00286 105.789 2.00281C103.633 0.145991 101.034 -1.40044 98.1798 -2.77694C98.0916 -2.8195 97.9992 -2.85313 97.9044 -2.87793C96.0625 -3.35981 94.2803 -3.91526 92.5953 -4.58382V-4.58382C92.5231 -4.60491 92.4785 -4.50254 92.5429 -4.46387C94.7927 -3.11332 96.8359 -1.63968 98.5607 0.0296815C110.576 11.6612 113.956 37.3586 129.264 43.4174C132.055 44.5221 135.004 44.8791 138.062 44.7229C138.92 44.6791 138.803 42.5795 137.987 42.3103V42.3103C122.812 37.3038 118.087 12.5953 105.789 2.00304C105.789 2.00299 105.789 2.0029 105.789 2.00292V2.00292Z" fill="url(#paint2_radial_4_18678)"/>
<path d="M147.434 42.9729C147.435 42.9727 147.435 42.9726 147.435 42.9726C150.332 42.565 153.297 41.6994 156.3 40.5882C155.624 40.7415 154.95 40.8697 154.279 40.9697C153.441 41.0943 152.611 41.2723 151.812 41.5529C150.344 42.0688 148.883 42.5491 147.434 42.9729V42.9729Z" fill="url(#paint3_radial_4_18678)"/>
<path d="M246.81 28.0563C246.81 28.0563 246.81 28.0562 246.81 28.0562C248.563 25.679 250.036 22.9568 251.355 20.0565C250.795 20.9647 250.197 21.8316 249.554 22.6482C249.457 22.7716 249.373 22.9054 249.307 23.0479C248.51 24.7614 247.685 26.4416 246.81 28.056C246.809 28.0562 246.81 28.0563 246.81 28.0563V28.0563Z" fill="url(#paint4_radial_4_18678)"/>
<path d="M251.355 20.0566C251.355 20.0568 251.356 20.0568 251.356 20.0567C252.886 17.5749 254.13 14.7816 255.225 11.8371C254.89 12.4998 254.537 13.144 254.163 13.7672C253.796 14.3776 253.465 15.0094 253.203 15.6717C252.615 17.1631 252.003 18.6313 251.355 20.0564C251.355 20.0565 251.355 20.0566 251.355 20.0566V20.0566Z" fill="url(#paint5_radial_4_18678)"/>
<path d="M156.301 40.5876C159.115 39.9488 161.971 38.8721 164.847 37.5716C164.172 37.7872 163.498 37.977 162.825 38.1379C162.103 38.3107 161.39 38.5251 160.707 38.8175C159.232 39.4491 157.762 40.0473 156.301 40.5876Z" fill="url(#paint6_radial_4_18678)"/>
<path d="M120.05 4.31554C120.05 4.31561 120.05 4.31559 120.05 4.31549C116.809 2.12443 112.758 0.656338 108.393 -0.563444C106.702 -0.828331 105.04 -1.13576 103.432 -1.51709C107.011 -0.175162 110.293 1.38423 112.965 3.42713C125.469 12.9877 131.435 36.6409 146.408 40.6318C148.532 41.198 150.696 41.3297 152.889 41.135C152.972 41.1277 153.053 41.1093 153.131 41.0809C153.685 40.8799 154.239 40.6748 154.793 40.4667C155.574 40.1739 155.305 38.5799 154.488 38.4126V38.4126C139.783 35.3964 132.681 12.8574 120.051 4.31559C120.051 4.31549 120.05 4.31547 120.05 4.31554V4.31554Z" fill="url(#paint7_radial_4_18678)"/>
<path d="M199.568 20.6259C199.568 20.6259 199.568 20.6261 199.568 20.6261C195.492 21.4099 191.385 23.3086 187.269 25.5959C185.901 26.5853 184.53 27.5224 183.151 28.3698C186.788 26.7416 190.394 25.4774 193.931 25.0079C208.982 23.0121 229.919 35.7521 243.876 27.6694C246.006 26.4355 247.797 24.8191 249.335 22.9223C249.383 22.8633 249.423 22.7985 249.454 22.7296C249.603 22.4084 249.75 22.0861 249.897 21.7629C250.274 20.9318 248.782 19.8841 248.02 20.3865V20.3865C234.977 28.9895 214.012 17.8482 199.568 20.6257C199.568 20.6257 199.568 20.6259 199.568 20.6259V20.6259Z" fill="url(#paint8_radial_4_18678)"/>
<path d="M257.514 5.4567C257.254 5.99547 257.02 6.54733 256.839 7.11725C256.329 8.71657 255.797 10.2973 255.224 11.8372C256.396 9.51204 257.335 6.961 258.147 4.29666C258.164 4.24084 258.088 4.20789 258.059 4.25855V4.25855C257.885 4.66427 257.703 5.0639 257.514 5.4567Z" fill="url(#paint9_radial_4_18678)"/>
<path d="M171.054 34.6908C170.464 34.8903 169.883 35.1194 169.328 35.4024C167.83 36.1656 166.336 36.8988 164.847 37.5719C167.404 36.7557 169.974 35.5727 172.551 34.2025C172.583 34.1853 172.564 34.1369 172.529 34.1463V34.1463C172.038 34.3426 171.546 34.5246 171.054 34.6908Z" fill="url(#paint10_radial_4_18678)"/>
<path d="M159.417 38.6912C159.417 38.691 159.418 38.6909 159.418 38.6909C160.158 38.6312 160.901 38.5294 161.644 38.3899C161.703 38.3789 161.76 38.3611 161.815 38.3371C163.891 37.4284 165.976 36.4654 168.06 35.5172C168.071 35.512 168.066 35.4949 168.053 35.4974V35.4974C165.196 36.4537 162.307 37.5702 159.417 38.6912V38.6912Z" fill="url(#paint11_radial_4_18678)"/>
<path d="M253.112 14.4369C252.956 14.7921 253.359 15.0276 253.573 14.7041V14.7041C253.586 14.6842 253.597 14.6627 253.606 14.6405C254.42 12.5296 255.198 10.3821 255.98 8.25398C255.986 8.23749 255.962 8.22552 255.952 8.24016V8.24016C254.97 10.2386 254.036 12.3234 253.112 14.4369Z" fill="url(#paint12_radial_4_18678)"/>
<path d="M178.347 30.8847C178.302 30.9119 178.256 30.9391 178.211 30.9662C178.065 31.0536 178.179 31.2943 178.34 31.2384V31.2384C178.348 31.2354 178.356 31.2316 178.364 31.2271C179.24 30.7145 180.115 30.1751 180.99 29.6162C180.113 30.0863 179.232 30.5121 178.348 30.8845L178.347 30.8847Z" fill="url(#paint13_radial_4_18678)"/>
<path d="M174.464 32.715C173.774 33.0795 173.084 33.445 172.394 33.8083C172.215 33.903 172.332 34.198 172.528 34.1461V34.1461C172.709 34.074 172.89 33.9996 173.07 33.9233C173.59 33.6424 174.11 33.3542 174.629 33.0604C174.867 32.9263 174.715 32.612 174.463 32.7152V32.7152L174.464 32.715Z" fill="url(#paint14_radial_4_18678)"/>
<path d="M168.244 35.4333C168.244 35.4335 168.244 35.4337 168.244 35.4338C168.242 35.4344 168.241 35.4351 168.24 35.4357C168.227 35.4416 168.233 35.4611 168.247 35.4582C168.883 35.3271 169.52 35.1654 170.155 34.976C170.159 34.9746 170.164 34.9729 170.168 34.9707V34.9707C170.249 34.9288 170.201 34.8092 170.113 34.8359C169.492 35.026 168.869 35.2256 168.245 35.4327C168.245 35.4328 168.244 35.433 168.244 35.4333V35.4333Z" fill="url(#paint15_radial_4_18678)"/>
<path d="M169.5 32.491C169.5 32.4911 169.5 32.4913 169.5 32.4912C155.509 31.2853 146.462 11.1145 133.799 4.54995C129.227 2.17983 123.318 1.31559 117.219 0.575378C115.871 0.465466 114.537 0.333259 113.225 0.162842C118.351 1.16945 123.19 2.41439 127.006 4.68325C139.689 12.2247 147.82 33.6 162.196 35.6868C164.157 35.9717 166.109 35.8783 168.054 35.4965C168.117 35.4752 168.18 35.4542 168.244 35.4329C170.323 34.4879 172.399 33.5588 174.464 32.7139V32.7139C174.679 32.6003 174.494 32.1352 174.256 32.1846C172.689 32.5099 171.106 32.6289 169.5 32.4908C169.5 32.4907 169.5 32.4909 169.5 32.491V32.491Z" fill="url(#paint16_radial_4_18678)"/>
<path d="M254.45 5.58453C254.45 5.5844 254.45 5.58437 254.449 5.58446C243.265 14.994 222.575 6.91897 209.456 11.0689C204.304 12.6984 199.33 16.3404 194.377 20.1709C193.354 21.0321 192.327 21.869 191.295 22.6613C195.756 19.7091 200.23 17.1121 204.748 15.9674C218.546 12.4709 239.428 22.0548 251.545 13.0094C253.316 11.6876 254.758 10.0726 255.953 8.24095C255.995 8.155 256.038 8.06936 256.08 7.98394C256.872 5.8309 257.67 3.69962 258.518 1.64798C258.781 0.776267 259.045 -0.0938807 259.312 -0.957666C258.133 1.56804 256.573 3.79866 254.45 5.58461C254.45 5.5847 254.45 5.58466 254.45 5.58453V5.58453Z" fill="url(#paint17_radial_4_18678)"/>
<path d="M90.4054 -8.55018C90.4057 -8.55029 90.4057 -8.55063 90.4056 -8.55085C80.9963 -19.7358 89.0712 -40.4255 84.9213 -53.5444C83.2918 -58.6964 79.6498 -63.6703 75.8193 -68.6229C74.9581 -69.6464 74.1212 -70.673 73.3288 -71.7056C76.2811 -67.2443 78.8781 -62.7699 80.0228 -58.2519C83.5193 -44.4537 73.9354 -23.572 82.9803 -11.455C84.302 -9.68395 85.917 -8.24207 87.7487 -7.04657C87.8347 -7.00467 87.9203 -6.96201 88.0057 -6.91987C90.1588 -6.12783 92.29 -5.3295 94.3417 -4.48162C95.2134 -4.21857 96.0835 -3.95483 96.9473 -3.68835C94.4217 -4.86708 92.1912 -6.42717 90.4052 -8.54951C90.4051 -8.54973 90.4051 -8.55006 90.4054 -8.55018V-8.55018Z" fill="url(#paint18_radial_4_18678)"/>
<path d="M180.989 29.6162C180.989 29.6163 180.99 29.6164 180.99 29.6163C181.713 29.2286 182.433 28.8113 183.152 28.3697C182.922 28.4724 182.692 28.5767 182.463 28.6822C182.383 28.7187 182.307 28.7612 182.234 28.8091C181.819 29.0816 181.404 29.3508 180.99 29.6158C180.989 29.6159 180.989 29.616 180.989 29.6162V29.6162Z" fill="url(#paint19_radial_4_18678)"/>
<path d="M106.571 -1.05493C107.183 -0.894964 107.791 -0.731355 108.393 -0.563179C109.112 -0.450509 109.836 -0.346331 110.563 -0.246629C109.678 -0.406658 108.809 -0.591869 107.96 -0.80567C107.497 -0.888437 107.034 -0.970964 106.572 -1.05449C106.572 -1.05458 106.571 -1.05473 106.571 -1.05493V-1.05493Z" fill="url(#paint20_radial_4_18678)"/>
<path d="M185.581 26.5537C185.58 26.5536 185.581 26.5535 185.581 26.5534C186.144 26.2281 186.706 25.9079 187.269 25.5958C187.778 25.228 188.286 24.8521 188.794 24.4721C188.057 24.9721 187.316 25.4417 186.569 25.8749C186.24 26.1016 185.911 26.3282 185.581 26.5539C185.581 26.554 185.581 26.5539 185.581 26.5537V26.5537Z" fill="url(#paint21_radial_4_18678)"/>
<path d="M181.664 29.0544C182.115 28.8412 182.553 28.5995 182.969 28.3226C183.839 27.7427 184.71 27.1502 185.58 26.5536C183.806 27.5789 182.031 28.6576 180.257 29.7319C180.726 29.5016 181.195 29.2755 181.664 29.0544Z" fill="url(#paint22_radial_4_18678)"/>
<path d="M101.996 -2.03869C102.466 -1.87278 102.946 -1.73644 103.435 -1.64076C104.476 -1.43736 105.523 -1.2442 106.57 -1.05506C104.6 -1.56996 102.582 -2.04874 100.559 -2.53296C101.041 -2.37084 101.521 -2.20628 101.996 -2.03869Z" fill="url(#paint23_radial_4_18678)"/>
<path d="M178.347 30.8848C178.984 30.5031 179.62 30.1175 180.257 29.732C179.597 30.0557 178.937 30.3876 178.276 30.7252C178.147 30.7912 178.213 30.9411 178.347 30.8848V30.8848Z" fill="url(#paint24_radial_4_18678)"/>
<path d="M110.563 -0.246908C110.563 -0.246831 110.563 -0.246776 110.563 -0.246761C111.436 -0.0886682 112.325 0.0465165 113.225 0.16298C112.899 0.0991059 112.573 0.0359299 112.245 -0.0262711C111.683 -0.097506 111.122 -0.17049 110.563 -0.247254C110.563 -0.247281 110.563 -0.247086 110.563 -0.246908V-0.246908Z" fill="url(#paint25_radial_4_18678)"/>
<path d="M188.794 24.4717C188.794 24.4716 188.794 24.4715 188.795 24.4714C189.633 23.9032 190.465 23.2962 191.294 22.6612C190.982 22.8677 190.67 23.0756 190.359 23.285C189.838 23.6846 189.317 24.0808 188.795 24.4718C188.795 24.4719 188.795 24.4719 188.794 24.4717V24.4717Z" fill="url(#paint26_radial_4_18678)"/>
<path d="M266.935 -44.4024C266.935 -44.4023 266.935 -44.4023 266.935 -44.4024C272.552 -56.9771 291.486 -66.8298 291.863 -80.3828C291.962 -83.9367 290.772 -87.3074 288.875 -90.5784C288.006 -91.841 287.135 -93.1038 286.285 -94.368C285.258 -95.7081 284.207 -97.046 283.171 -98.3863C277.836 -104.724 271.55 -110.936 268.972 -117.692C264.236 -130.104 270.857 -150.501 261.159 -160.753C258.485 -163.58 254.972 -165.211 251.031 -166.204C249.595 -166.46 248.162 -166.715 246.746 -166.984C245.09 -167.193 243.424 -167.385 241.773 -167.585C233.564 -168.257 224.915 -168.123 218.599 -170.944C206.024 -176.561 196.171 -195.496 182.618 -195.872C179.064 -195.971 175.694 -194.781 172.423 -192.884C171.16 -192.015 169.897 -191.144 168.633 -190.295C167.293 -189.267 165.955 -188.217 164.615 -187.181C158.277 -181.846 152.065 -175.559 145.309 -172.981C132.897 -168.245 112.5 -174.867 102.248 -165.169C99.421 -162.495 97.79 -158.981 96.7974 -155.041C96.5409 -153.604 96.2861 -152.171 96.0174 -150.755C95.8078 -149.099 95.6164 -147.434 95.4161 -145.782C94.7448 -137.573 94.8777 -128.924 92.0565 -122.608C86.4398 -110.033 67.5054 -100.181 67.1285 -86.6274C67.0296 -83.0735 68.2195 -79.7028 70.1171 -76.4318C70.9858 -75.1692 71.8571 -73.9064 72.7064 -72.6422C73.7342 -71.3021 74.7843 -69.9642 75.8204 -68.6239C81.1555 -62.2859 87.4415 -56.0745 90.02 -49.3179C94.7561 -36.9058 88.1343 -16.509 97.8322 -6.25698C100.506 -3.43019 104.02 -1.79924 107.96 -0.806664C109.397 -0.55015 110.83 -0.295354 112.246 -0.0265808C113.902 0.182975 115.567 0.374413 117.219 0.57468C125.428 1.24595 134.077 1.11311 140.393 3.93427C152.968 9.551 162.82 28.4854 176.374 28.8622C179.927 28.9612 183.298 27.7713 186.569 25.8737C187.832 25.005 189.095 24.1337 190.359 23.2844C191.699 22.2566 193.037 21.2064 194.377 20.1704C200.715 14.8353 206.926 8.54925 213.683 5.97079C226.095 1.23472 246.492 7.8565 256.744 -1.84144C259.571 -4.51558 261.202 -8.02885 262.194 -11.9696C262.451 -13.4061 262.706 -14.8393 262.974 -16.2547C263.184 -17.9114 263.375 -19.5765 263.576 -21.2284C264.247 -29.437 264.114 -38.0861 266.935 -44.4024C266.935 -44.4025 266.935 -44.4025 266.935 -44.4024V-44.4024ZM258.438 -9.22259C249.112 0.687731 229.106 -4.54292 217.423 0.712603C205.312 6.16051 195.859 24.444 182.791 24.841C169.723 25.2381 159.176 7.56348 146.756 2.86165C134.775 -1.67429 115.124 4.76301 105.214 -4.56265C95.3033 -13.8883 100.534 -33.8945 95.2784 -45.5775C89.8305 -57.6889 71.547 -67.1418 71.15 -80.2098C70.7529 -93.2778 88.4275 -103.825 93.1294 -116.244C97.6653 -128.225 91.228 -147.877 100.554 -157.787C109.879 -167.697 129.885 -162.467 141.568 -167.722C153.68 -173.17 163.133 -191.453 176.201 -191.85C189.269 -192.247 199.816 -174.573 212.235 -169.871C224.216 -165.335 243.867 -171.772 253.778 -162.447C263.688 -153.121 258.457 -133.115 263.713 -121.432C269.161 -109.321 287.444 -99.8676 287.841 -86.7996C288.238 -73.7316 270.564 -63.1849 265.862 -50.765C261.326 -38.7843 267.763 -19.1329 258.438 -9.22259Z" fill="url(#paint27_radial_4_18678)"/>
<path d="M283.467 -92.7387C283.467 -92.7386 283.467 -92.7388 283.467 -92.739C282.353 -105.279 264.247 -113.343 258.332 -124.681C252.626 -135.618 256.534 -155.143 246.485 -163.553C236.435 -171.963 217.904 -164.675 206.132 -168.364C193.929 -172.189 182.801 -188.59 170.26 -187.476C157.72 -186.363 149.656 -168.257 138.318 -162.341C127.381 -156.635 107.856 -160.543 99.4462 -150.494C91.036 -140.444 98.3243 -121.913 94.6347 -110.142C90.8097 -97.9386 74.4091 -86.8102 75.5228 -74.2696C76.6364 -61.7291 94.7423 -53.6653 100.658 -42.3276C106.364 -31.3904 102.456 -11.8651 112.505 -3.45544C122.555 4.95477 141.085 -2.33353 152.857 1.35549C165.06 5.18055 176.189 21.5811 188.729 20.4675C201.27 19.3538 209.333 1.24797 220.671 -4.6674C231.608 -10.3736 251.134 -6.46552 259.543 -16.5149C267.953 -26.5645 260.665 -45.0953 264.354 -56.8669C268.179 -69.0697 284.579 -80.1981 283.466 -92.7384C283.466 -92.7386 283.466 -92.7388 283.467 -92.7387V-92.7387ZM260.08 -23.6757C252.569 -13.559 233.608 -16.2194 223.428 -10.13C212.876 -3.81802 206.148 14.0129 194.172 15.783C182.196 17.5531 170.598 2.43165 158.67 -0.557567C147.164 -3.44119 129.784 4.59107 119.667 -2.91985C109.55 -10.4308 112.21 -29.3918 106.121 -39.5713C99.8091 -50.1238 81.9782 -56.8519 80.2081 -68.8276C78.438 -80.8033 93.5594 -92.402 96.5486 -104.33C99.4323 -115.836 91.4 -133.216 98.9109 -143.333C106.422 -153.45 125.383 -150.79 135.562 -156.879C146.115 -163.191 152.843 -181.021 164.819 -182.792C176.794 -184.562 188.393 -169.44 200.321 -166.451C211.827 -163.567 229.207 -171.6 239.324 -164.089C249.441 -156.578 246.78 -137.617 252.87 -127.437C259.182 -116.885 277.013 -110.157 278.783 -98.181C280.553 -86.2053 265.431 -74.6066 262.442 -62.6789C259.558 -51.173 267.591 -33.7925 260.08 -23.6757Z" fill="url(#paint28_radial_4_18678)"/>
<path d="M273.83 -103.113C271.465 -114.491 254.001 -119.944 247.363 -129.705C240.959 -139.121 242.451 -157.441 232.336 -164.075C222.22 -170.709 206.012 -162.04 194.824 -164.162C183.226 -166.361 171.266 -180.206 159.887 -177.84C148.509 -175.475 143.056 -158.011 133.295 -151.373C123.879 -144.969 105.559 -146.46 98.9252 -136.345C92.2913 -126.23 100.96 -110.022 98.8381 -98.8338C96.6392 -87.2357 82.7944 -75.2755 85.1598 -63.8971C87.5246 -52.5186 104.989 -47.0658 111.627 -37.3051C118.031 -27.8892 116.54 -9.569 126.655 -2.93511C136.77 3.69878 152.978 -4.96948 164.166 -2.84793C175.764 -0.649049 187.725 13.1957 199.103 10.8304C210.481 8.46549 215.934 -8.99853 225.695 -15.637C235.111 -22.0408 253.431 -20.5495 260.065 -30.6645C266.699 -40.7795 258.031 -56.9881 260.152 -68.176C262.351 -79.7741 276.196 -91.7344 273.83 -103.113ZM259.521 -37.4418C253.738 -27.395 236.128 -27.8006 227.476 -21.1493C218.508 -14.2542 214.264 2.75751 203.511 5.65415C192.757 8.55103 180.542 -4.02798 169.324 -5.48537C158.503 -6.89147 143.479 2.30433 133.432 -3.47827C123.386 -9.26088 123.791 -26.8711 117.14 -35.5231C110.245 -44.4915 93.2329 -48.7356 90.3362 -59.489C87.4393 -70.2429 100.018 -82.457 101.476 -93.675C102.882 -104.497 93.686 -119.521 99.4686 -129.567C105.252 -139.614 122.861 -139.208 131.513 -145.86C140.482 -152.755 144.726 -169.767 155.479 -172.663C166.233 -175.56 178.447 -162.981 189.665 -161.524C200.487 -160.118 215.511 -169.313 225.558 -163.531C235.605 -157.748 235.199 -140.138 241.85 -131.486C248.745 -122.518 265.757 -118.274 268.654 -107.52C271.55 -96.7662 258.971 -84.5521 257.514 -73.3341C256.108 -62.5124 265.304 -47.4884 259.521 -37.4418Z" fill="url(#paint29_radial_4_18678)"/>
<path d="M263.297 -111.396C259.933 -121.503 243.453 -124.609 236.37 -132.79C229.538 -140.681 228.946 -157.52 219.03 -162.484C209.115 -167.447 195.28 -157.83 184.868 -158.571C174.075 -159.339 161.712 -170.671 151.604 -167.307C141.497 -163.943 138.391 -147.462 130.21 -140.38C122.319 -133.547 105.48 -132.956 100.516 -123.04C95.5529 -113.124 105.17 -99.2899 104.429 -88.8781C103.661 -78.0847 92.3289 -65.7216 95.6932 -55.6139C99.0574 -45.5062 115.538 -42.4002 122.62 -34.2194C129.453 -26.3283 130.045 -9.48962 139.96 -4.52591C149.875 0.437567 163.71 -9.17946 174.122 -8.43856C184.915 -7.67068 197.278 3.66154 207.386 0.297268C217.494 -3.067 220.6 -19.5471 228.781 -26.6299C236.672 -33.4623 253.51 -34.0545 258.474 -43.9695C263.438 -53.8851 253.821 -67.7196 254.561 -78.1315C255.329 -88.9249 266.662 -101.288 263.297 -111.396ZM251.326 -82.5506C251.198 -72.5875 261.13 -59.9377 256.951 -50.2135C252.772 -40.4893 236.759 -38.9906 229.617 -32.042C222.214 -24.8384 220.17 -8.96144 210.724 -5.19445C201.279 -1.42746 188.869 -11.5403 178.541 -11.6727C168.578 -11.8004 155.928 -1.86874 146.204 -6.04796C136.48 -10.2272 134.981 -26.2402 128.032 -33.3815C120.829 -40.7842 104.952 -42.8291 101.185 -52.2746C97.4178 -61.72 107.531 -74.1297 107.663 -84.4578C107.791 -94.4209 97.8591 -107.071 102.038 -116.795C106.218 -126.519 122.231 -128.018 129.372 -134.966C136.775 -142.17 138.819 -158.047 148.265 -161.814C157.71 -165.581 170.12 -155.468 180.448 -155.336C190.411 -155.208 203.061 -165.14 212.785 -160.96C222.509 -156.781 224.008 -140.768 230.957 -133.627C238.16 -126.224 254.037 -124.179 257.804 -114.734C261.571 -105.288 251.458 -92.8786 251.326 -82.5506Z" fill="url(#paint30_radial_4_18678)"/>
<path d="M225.648 -134.009C218.646 -140.414 216.335 -155.555 206.858 -158.99C197.381 -162.425 185.904 -152.282 176.424 -151.852C166.597 -151.406 154.238 -160.334 145.467 -156.23C136.695 -152.125 135.63 -136.916 128.991 -129.658C122.587 -122.656 107.445 -120.344 104.01 -110.868C100.575 -101.391 110.718 -89.9139 111.148 -80.4339C111.594 -70.6067 102.666 -58.248 106.771 -49.4766C110.875 -40.7052 126.084 -39.6393 133.342 -33.0007C140.344 -26.5963 142.656 -11.4546 152.133 -8.01959C161.609 -4.58462 173.086 -14.7281 182.566 -15.1578C192.394 -15.6035 204.752 -6.67602 213.524 -10.7803C222.295 -14.8846 223.361 -30.0935 230 -37.3519C236.404 -44.3538 251.546 -46.6657 254.981 -56.1424C258.416 -65.6191 248.272 -77.096 247.842 -86.576C247.397 -96.4033 256.324 -108.762 252.22 -117.533C248.116 -126.305 232.907 -127.371 225.648 -134.009ZM244.146 -90.1927C245.077 -81.2262 255.331 -70.9016 252.597 -61.7244C249.862 -52.5471 235.63 -49.5182 229.943 -42.5234C224.047 -35.2728 223.877 -20.7901 215.785 -16.413C207.693 -12.0358 195.479 -19.8198 186.184 -18.8542C177.217 -17.9228 166.893 -7.6686 157.715 -10.4032C148.538 -13.1377 145.509 -27.37 138.514 -33.0574C131.264 -38.9529 116.781 -39.1232 112.404 -47.2151C108.027 -55.3071 115.811 -67.5211 114.845 -76.8162C113.914 -85.7827 103.66 -96.1072 106.394 -105.284C109.129 -114.462 123.361 -117.491 129.048 -124.485C134.944 -131.736 135.114 -146.219 143.206 -150.596C151.298 -154.973 163.512 -147.189 172.807 -148.155C181.774 -149.086 192.098 -159.34 201.276 -156.606C210.453 -153.871 213.482 -139.639 220.476 -133.951C227.727 -128.056 242.21 -127.886 246.587 -119.794C250.964 -111.702 243.18 -99.4878 244.146 -90.1927Z" fill="url(#paint31_radial_4_18678)"/>
<path d="M215.475 -133.473C208.546 -138.466 204.898 -151.76 196.067 -153.84C187.237 -155.921 178.038 -145.655 169.609 -144.28C160.871 -142.855 148.89 -149.544 141.478 -144.958C134.066 -140.373 134.703 -126.666 129.527 -119.483C124.533 -112.555 111.24 -108.906 109.159 -100.076C107.079 -91.2463 117.345 -82.0466 118.72 -73.6175C120.145 -64.8797 113.456 -52.8993 118.042 -45.4872C122.627 -38.0749 136.333 -38.7118 143.516 -33.5354C150.445 -28.5421 154.093 -15.2486 162.923 -13.168C171.753 -11.0875 180.953 -21.3539 189.382 -22.7289C198.12 -24.1539 210.1 -17.4649 217.512 -22.0506C224.925 -26.6358 224.288 -40.3421 229.464 -47.525C234.457 -54.4535 247.751 -58.102 249.832 -66.9321C251.912 -75.7621 241.646 -84.9619 240.271 -93.391C238.846 -102.129 245.535 -114.109 240.949 -121.521C236.363 -128.933 222.657 -128.297 215.475 -133.473ZM236.253 -96.1631C238.012 -88.2914 248.198 -80.1816 246.721 -71.7417C245.244 -63.3018 232.911 -59.132 228.583 -52.3255C224.097 -45.2694 225.45 -32.3817 218.713 -27.6512C211.976 -22.9208 200.313 -28.5693 192.154 -26.746C184.282 -24.987 176.172 -14.8018 167.732 -16.2784C159.292 -17.755 155.123 -30.0888 148.316 -34.416C141.26 -38.9021 128.372 -37.549 123.642 -44.2862C118.911 -51.0229 124.56 -62.686 122.737 -70.8457C120.978 -78.7174 110.792 -86.8272 112.269 -95.2671C113.746 -103.707 126.079 -107.877 130.407 -114.683C134.893 -121.739 133.54 -134.627 140.277 -139.358C147.013 -144.088 158.677 -138.439 166.836 -140.263C174.708 -142.022 182.818 -152.207 191.258 -150.73C199.698 -149.254 203.867 -136.92 210.674 -132.593C217.73 -128.107 230.618 -129.46 235.348 -122.723C240.079 -115.986 234.43 -104.323 236.253 -96.1631Z" fill="url(#paint32_radial_4_18678)"/>
<path d="M206.104 -131.333C199.472 -135.027 194.879 -146.387 186.868 -147.312C178.857 -148.238 171.795 -138.225 164.495 -136.141C156.928 -133.981 145.66 -138.65 139.589 -133.837C133.518 -129.024 135.495 -116.989 131.666 -110.114C127.973 -103.482 116.613 -98.8886 115.687 -90.8779C114.761 -82.8673 124.775 -75.8047 126.858 -68.5048C129.018 -60.9374 124.349 -49.6704 129.162 -43.5993C133.975 -37.5283 146.01 -39.5049 152.885 -35.6758C159.517 -31.9825 164.111 -20.6225 172.121 -19.6966C180.132 -18.7707 187.195 -28.7844 194.494 -30.8678C202.062 -33.0282 213.329 -28.3587 219.4 -33.1717C225.471 -37.9849 223.494 -50.02 227.323 -56.8953C231.017 -63.5272 242.377 -68.1205 243.303 -76.1311C244.228 -84.1417 234.215 -91.2044 232.131 -98.5043C229.971 -106.072 234.641 -117.339 229.828 -123.41C225.014 -129.481 212.979 -127.504 206.104 -131.333ZM227.94 -100.413C230.288 -93.6943 240.045 -87.6298 239.615 -80.0827C239.186 -72.535 228.804 -67.6173 225.709 -61.2087C222.5 -54.5655 225.006 -43.4094 219.587 -38.5737C214.167 -33.7379 203.367 -37.4936 196.403 -35.06C189.685 -32.7123 183.62 -22.9555 176.073 -23.3851C168.525 -23.8145 163.608 -34.1965 157.199 -37.2914C150.556 -40.5002 139.4 -37.9943 134.564 -43.4139C129.728 -48.8336 133.484 -59.6333 131.05 -66.5976C128.702 -73.316 118.946 -79.3804 119.375 -86.9276C119.805 -94.4752 130.187 -99.3929 133.282 -105.802C136.49 -112.445 133.985 -123.601 139.404 -128.437C144.824 -133.272 155.623 -129.517 162.588 -131.95C169.306 -134.298 175.371 -144.055 182.918 -143.625C190.465 -143.196 195.383 -132.814 201.792 -129.719C208.435 -126.51 219.591 -129.016 224.427 -123.596C229.263 -118.177 225.507 -107.377 227.94 -100.413Z" fill="url(#paint33_radial_4_18678)"/>
<defs>
<radialGradient id="paint0_radial_4_18678" cx="0" cy="0" r="1" gradientUnits="userSpaceOnUse" gradientTransform="translate(230.254 16.8612) rotate(-39.1963) scale(132.982 41.2373)">
<stop stop-color="#FFB6D5"/>
<stop offset="0.1" stop-color="#FFE3C0"/>
<stop offset="0.29" stop-color="#C7FBDB"/>
<stop offset="0.43" stop-color="#C7CDF4"/>
<stop offset="0.54" stop-color="#FFBCD4"/>
<stop offset="0.66" stop-color="#FFE0C3"/>
<stop offset="0.76" stop-color="#B0F1D4"/>
<stop offset="0.84" stop-color="#C9CEEC"/>
<stop offset="0.91" stop-color="#FFC1DA"/>
<stop offset="1" stop-color="#BDFFE3"/>
</radialGradient>
<radialGradient id="paint1_radial_4_18678" cx="0" cy="0" r="1" gradientUnits="userSpaceOnUse" gradientTransform="translate(299.72 -40.5944) rotate(-40.322) scale(125.071 41.2331)">
<stop stop-color="#FFB6D5"/>
<stop offset="0.1" stop-color="#FFE3C0"/>
<stop offset="0.29" stop-color="#C7FBDB"/>
<stop offset="0.43" stop-color="#C7CDF4"/>
<stop offset="0.54" stop-color="#FFBCD4"/>
<stop offset="0.66" stop-color="#FFE0C3"/>
<stop offset="0.76" stop-color="#B0F1D4"/>
<stop offset="0.84" stop-color="#C9CEEC"/>
<stop offset="0.91" stop-color="#FFC1DA"/>
<stop offset="1" stop-color="#BDFFE3"/>
</radialGradient>
<radialGradient id="paint2_radial_4_18678" cx="0" cy="0" r="1" gradientUnits="userSpaceOnUse" gradientTransform="translate(122.974 -1.28532) rotate(-75.7874) scale(94.8954 54.3446)">
<stop stop-color="#FFB6D5"/>
<stop offset="0.1" stop-color="#FFE3C0"/>
<stop offset="0.29" stop-color="#C7FBDB"/>
<stop offset="0.43" stop-color="#C7CDF4"/>
<stop offset="0.54" stop-color="#FFBCD4"/>
<stop offset="0.66" stop-color="#FFE0C3"/>
<stop offset="0.76" stop-color="#B0F1D4"/>
<stop offset="0.84" stop-color="#C9CEEC"/>
<stop offset="0.91" stop-color="#FFC1DA"/>
<stop offset="1" stop-color="#BDFFE3"/>
</radialGradient>
<radialGradient id="paint3_radial_4_18678" cx="0" cy="0" r="1" gradientUnits="userSpaceOnUse" gradientTransform="translate(154.621 40.2027) rotate(-28.6785) scale(16.5974 1.79796)">
<stop stop-color="#FFB6D5"/>
<stop offset="0.1" stop-color="#FFE3C0"/>
<stop offset="0.29" stop-color="#C7FBDB"/>
<stop offset="0.43" stop-color="#C7CDF4"/>
<stop offset="0.54" stop-color="#FFBCD4"/>
<stop offset="0.66" stop-color="#FFE0C3"/>
<stop offset="0.76" stop-color="#B0F1D4"/>
<stop offset="0.84" stop-color="#C9CEEC"/>
<stop offset="0.91" stop-color="#FFC1DA"/>
<stop offset="1" stop-color="#BDFFE3"/>
</radialGradient>
<radialGradient id="paint4_radial_4_18678" cx="0" cy="0" r="1" gradientUnits="userSpaceOnUse" gradientTransform="translate(250.841 21.6949) rotate(-48.7261) scale(14.7937 6.77336)">
<stop stop-color="#FFB6D5"/>
<stop offset="0.1" stop-color="#FFE3C0"/>
<stop offset="0.29" stop-color="#C7FBDB"/>
<stop offset="0.43" stop-color="#C7CDF4"/>
<stop offset="0.54" stop-color="#FFBCD4"/>
<stop offset="0.66" stop-color="#FFE0C3"/>
<stop offset="0.76" stop-color="#B0F1D4"/>
<stop offset="0.84" stop-color="#C9CEEC"/>
<stop offset="0.91" stop-color="#FFC1DA"/>
<stop offset="1" stop-color="#BDFFE3"/>
</radialGradient>
<radialGradient id="paint5_radial_4_18678" cx="0" cy="0" r="1" gradientUnits="userSpaceOnUse" gradientTransform="translate(254.829 13.5445) rotate(-52.3723) scale(14.1749 7.11339)">
<stop stop-color="#FFB6D5"/>
<stop offset="0.1" stop-color="#FFE3C0"/>
<stop offset="0.29" stop-color="#C7FBDB"/>
<stop offset="0.43" stop-color="#C7CDF4"/>
<stop offset="0.54" stop-color="#FFBCD4"/>
<stop offset="0.66" stop-color="#FFE0C3"/>
<stop offset="0.76" stop-color="#B0F1D4"/>
<stop offset="0.84" stop-color="#C9CEEC"/>
<stop offset="0.91" stop-color="#FFC1DA"/>
<stop offset="1" stop-color="#BDFFE3"/>
</radialGradient>
<radialGradient id="paint6_radial_4_18678" cx="0" cy="0" r="1" gradientUnits="userSpaceOnUse" gradientTransform="translate(163.39 37.6817) rotate(-25.9422) scale(16.4658 0.861286)">
<stop stop-color="#FFB6D5"/>
<stop offset="0.1" stop-color="#FFE3C0"/>
<stop offset="0.29" stop-color="#C7FBDB"/>
<stop offset="0.43" stop-color="#C7CDF4"/>
<stop offset="0.54" stop-color="#FFBCD4"/>
<stop offset="0.66" stop-color="#FFE0C3"/>
<stop offset="0.76" stop-color="#B0F1D4"/>
<stop offset="0.84" stop-color="#C9CEEC"/>
<stop offset="0.91" stop-color="#FFC1DA"/>
<stop offset="1" stop-color="#BDFFE3"/>
</radialGradient>
<radialGradient id="paint7_radial_4_18678" cx="0" cy="0" r="1" gradientUnits="userSpaceOnUse" gradientTransform="translate(136.472 -0.696083) rotate(-69.7858) scale(93.3692 55.2308)">
<stop stop-color="#FFB6D5"/>
<stop offset="0.1" stop-color="#FFE3C0"/>
<stop offset="0.29" stop-color="#C7FBDB"/>
<stop offset="0.43" stop-color="#C7CDF4"/>
<stop offset="0.54" stop-color="#FFBCD4"/>
<stop offset="0.66" stop-color="#FFE0C3"/>
<stop offset="0.76" stop-color="#B0F1D4"/>
<stop offset="0.84" stop-color="#C9CEEC"/>
<stop offset="0.91" stop-color="#FFC1DA"/>
<stop offset="1" stop-color="#BDFFE3"/>
</radialGradient>
<radialGradient id="paint8_radial_4_18678" cx="0" cy="0" r="1" gradientUnits="userSpaceOnUse" gradientTransform="translate(237.835 9.68127) rotate(-36.3461) scale(126.936 32.8066)">
<stop stop-color="#FFB6D5"/>
<stop offset="0.1" stop-color="#FFE3C0"/>
<stop offset="0.29" stop-color="#C7FBDB"/>
<stop offset="0.43" stop-color="#C7CDF4"/>
<stop offset="0.54" stop-color="#FFBCD4"/>
<stop offset="0.66" stop-color="#FFE0C3"/>
<stop offset="0.76" stop-color="#B0F1D4"/>
<stop offset="0.84" stop-color="#C9CEEC"/>
<stop offset="0.91" stop-color="#FFC1DA"/>
<stop offset="1" stop-color="#BDFFE3"/>
</radialGradient>
<radialGradient id="paint9_radial_4_18678" cx="0" cy="0" r="1" gradientUnits="userSpaceOnUse" gradientTransform="translate(257.999 5.57106) rotate(-56.1048) scale(12.8499 6.91876)">
<stop stop-color="#FFB6D5"/>
<stop offset="0.1" stop-color="#FFE3C0"/>
<stop offset="0.29" stop-color="#C7FBDB"/>
<stop offset="0.43" stop-color="#C7CDF4"/>
<stop offset="0.54" stop-color="#FFBCD4"/>
<stop offset="0.66" stop-color="#FFE0C3"/>
<stop offset="0.76" stop-color="#B0F1D4"/>
<stop offset="0.84" stop-color="#C9CEEC"/>
<stop offset="0.91" stop-color="#FFC1DA"/>
<stop offset="1" stop-color="#BDFFE3"/>
</radialGradient>
<radialGradient id="paint10_radial_4_18678" cx="0" cy="0" r="1" gradientUnits="userSpaceOnUse" gradientTransform="translate(171.518 34.5016) rotate(-25.2592) scale(15.7744 0.603062)">
<stop stop-color="#FFB6D5"/>
<stop offset="0.1" stop-color="#FFE3C0"/>
<stop offset="0.29" stop-color="#C7FBDB"/>
<stop offset="0.43" stop-color="#C7CDF4"/>
<stop offset="0.54" stop-color="#FFBCD4"/>
<stop offset="0.66" stop-color="#FFE0C3"/>
<stop offset="0.76" stop-color="#B0F1D4"/>
<stop offset="0.84" stop-color="#C9CEEC"/>
<stop offset="0.91" stop-color="#FFC1DA"/>
<stop offset="1" stop-color="#BDFFE3"/>
</radialGradient>
<radialGradient id="paint11_radial_4_18678" cx="0" cy="0" r="1" gradientUnits="userSpaceOnUse" gradientTransform="translate(166.693 35.7019) rotate(-25.8421) scale(16.9053 0.849415)">
<stop stop-color="#FFB6D5"/>
<stop offset="0.1" stop-color="#FFE3C0"/>
<stop offset="0.29" stop-color="#C7FBDB"/>
<stop offset="0.43" stop-color="#C7CDF4"/>
<stop offset="0.54" stop-color="#FFBCD4"/>
<stop offset="0.66" stop-color="#FFE0C3"/>
<stop offset="0.76" stop-color="#B0F1D4"/>
<stop offset="0.84" stop-color="#C9CEEC"/>
<stop offset="0.91" stop-color="#FFC1DA"/>
<stop offset="1" stop-color="#BDFFE3"/>
</radialGradient>
<radialGradient id="paint12_radial_4_18678" cx="0" cy="0" r="1" gradientUnits="userSpaceOnUse" gradientTransform="translate(255.64 9.89515) rotate(-53.0082) scale(14.4877 7.36967)">
<stop stop-color="#FFB6D5"/>
<stop offset="0.1" stop-color="#FFE3C0"/>
<stop offset="0.29" stop-color="#C7FBDB"/>
<stop offset="0.43" stop-color="#C7CDF4"/>
<stop offset="0.54" stop-color="#FFBCD4"/>
<stop offset="0.66" stop-color="#FFE0C3"/>
<stop offset="0.76" stop-color="#B0F1D4"/>
<stop offset="0.84" stop-color="#C9CEEC"/>
<stop offset="0.91" stop-color="#FFC1DA"/>
<stop offset="1" stop-color="#BDFFE3"/>
</radialGradient>
<radialGradient id="paint13_radial_4_18678" cx="0" cy="0" r="1" gradientUnits="userSpaceOnUse" gradientTransform="translate(180.377 29.9935) rotate(-26.7732) scale(8.50421 0.590155)">
<stop stop-color="#FFB6D5"/>
<stop offset="0.1" stop-color="#FFE3C0"/>
<stop offset="0.29" stop-color="#C7FBDB"/>
<stop offset="0.43" stop-color="#C7CDF4"/>
<stop offset="0.54" stop-color="#FFBCD4"/>
<stop offset="0.66" stop-color="#FFE0C3"/>
<stop offset="0.76" stop-color="#B0F1D4"/>
<stop offset="0.84" stop-color="#C9CEEC"/>
<stop offset="0.91" stop-color="#FFC1DA"/>
<stop offset="1" stop-color="#BDFFE3"/>
</radialGradient>
<radialGradient id="paint14_radial_4_18678" cx="0" cy="0" r="1" gradientUnits="userSpaceOnUse" gradientTransform="translate(175.932 32.2215) rotate(-26.4284) scale(12.0497 0.750844)">
<stop stop-color="#FFB6D5"/>
<stop offset="0.1" stop-color="#FFE3C0"/>
<stop offset="0.29" stop-color="#C7FBDB"/>
<stop offset="0.43" stop-color="#C7CDF4"/>
<stop offset="0.54" stop-color="#FFBCD4"/>
<stop offset="0.66" stop-color="#FFE0C3"/>
<stop offset="0.76" stop-color="#B0F1D4"/>
<stop offset="0.84" stop-color="#C9CEEC"/>
<stop offset="0.91" stop-color="#FFC1DA"/>
<stop offset="1" stop-color="#BDFFE3"/>
</radialGradient>
<radialGradient id="paint15_radial_4_18678" cx="0" cy="0" r="1" gradientUnits="userSpaceOnUse" gradientTransform="translate(170.382 34.5947) rotate(-27.7158) scale(5.18196 0.459664)">
<stop stop-color="#FFB6D5"/>
<stop offset="0.1" stop-color="#FFE3C0"/>
<stop offset="0.29" stop-color="#C7FBDB"/>
<stop offset="0.43" stop-color="#C7CDF4"/>
<stop offset="0.54" stop-color="#FFBCD4"/>
<stop offset="0.66" stop-color="#FFE0C3"/>
<stop offset="0.76" stop-color="#B0F1D4"/>
<stop offset="0.84" stop-color="#C9CEEC"/>
<stop offset="0.91" stop-color="#FFC1DA"/>
<stop offset="1" stop-color="#BDFFE3"/>
</radialGradient>
<radialGradient id="paint16_radial_4_18678" cx="0" cy="0" r="1" gradientUnits="userSpaceOnUse" gradientTransform="translate(154.008 -3.62511) rotate(-59.9555) scale(104.071 58.9686)">
<stop stop-color="#FFB6D5"/>
<stop offset="0.1" stop-color="#FFE3C0"/>
<stop offset="0.29" stop-color="#C7FBDB"/>
<stop offset="0.43" stop-color="#C7CDF4"/>
<stop offset="0.54" stop-color="#FFBCD4"/>
<stop offset="0.66" stop-color="#FFE0C3"/>
<stop offset="0.76" stop-color="#B0F1D4"/>
<stop offset="0.84" stop-color="#C9CEEC"/>
<stop offset="0.91" stop-color="#FFC1DA"/>
<stop offset="1" stop-color="#BDFFE3"/>
</radialGradient>
<radialGradient id="paint17_radial_4_18678" cx="0" cy="0" r="1" gradientUnits="userSpaceOnUse" gradientTransform="translate(247.491 -0.649846) rotate(-32.8916) scale(132.45 25.4935)">
<stop stop-color="#FFB6D5"/>
<stop offset="0.1" stop-color="#FFE3C0"/>
<stop offset="0.29" stop-color="#C7FBDB"/>
<stop offset="0.43" stop-color="#C7CDF4"/>
<stop offset="0.54" stop-color="#FFBCD4"/>
<stop offset="0.66" stop-color="#FFE0C3"/>
<stop offset="0.76" stop-color="#B0F1D4"/>
<stop offset="0.84" stop-color="#C9CEEC"/>
<stop offset="0.91" stop-color="#FFC1DA"/>
<stop offset="1" stop-color="#BDFFE3"/>
</radialGradient>
<radialGradient id="paint18_radial_4_18678" cx="0" cy="0" r="1" gradientUnits="userSpaceOnUse" gradientTransform="translate(80.6024 -56.4915) rotate(-90.4621) scale(89.1112 37.8931)">
<stop stop-color="#FFB6D5"/>
<stop offset="0.1" stop-color="#FFE3C0"/>
<stop offset="0.29" stop-color="#C7FBDB"/>
<stop offset="0.43" stop-color="#C7CDF4"/>
<stop offset="0.54" stop-color="#FFBCD4"/>
<stop offset="0.66" stop-color="#FFE0C3"/>
<stop offset="0.76" stop-color="#B0F1D4"/>
<stop offset="0.84" stop-color="#C9CEEC"/>
<stop offset="0.91" stop-color="#FFC1DA"/>
<stop offset="1" stop-color="#BDFFE3"/>
</radialGradient>
<radialGradient id="paint19_radial_4_18678" cx="0" cy="0" r="1" gradientUnits="userSpaceOnUse" gradientTransform="translate(182.831 28.5816) rotate(-27.5416) scale(4.52283 0.385089)">
<stop stop-color="#FFB6D5"/>
<stop offset="0.1" stop-color="#FFE3C0"/>
<stop offset="0.29" stop-color="#C7FBDB"/>
<stop offset="0.43" stop-color="#C7CDF4"/>
<stop offset="0.54" stop-color="#FFBCD4"/>
<stop offset="0.66" stop-color="#FFE0C3"/>
<stop offset="0.76" stop-color="#B0F1D4"/>
<stop offset="0.84" stop-color="#C9CEEC"/>
<stop offset="0.91" stop-color="#FFC1DA"/>
<stop offset="1" stop-color="#BDFFE3"/>
</radialGradient>
<radialGradient id="paint20_radial_4_18678" cx="0" cy="0" r="1" gradientUnits="userSpaceOnUse" gradientTransform="translate(109.386 -1.67862) rotate(-47.0356) scale(6.63793 2.88687)">
<stop stop-color="#FFB6D5"/>
<stop offset="0.1" stop-color="#FFE3C0"/>
<stop offset="0.29" stop-color="#C7FBDB"/>
<stop offset="0.43" stop-color="#C7CDF4"/>
<stop offset="0.54" stop-color="#FFBCD4"/>
<stop offset="0.66" stop-color="#FFE0C3"/>
<stop offset="0.76" stop-color="#B0F1D4"/>
<stop offset="0.84" stop-color="#C9CEEC"/>
<stop offset="0.91" stop-color="#FFC1DA"/>
<stop offset="1" stop-color="#BDFFE3"/>
</radialGradient>
<radialGradient id="paint21_radial_4_18678" cx="0" cy="0" r="1" gradientUnits="userSpaceOnUse" gradientTransform="translate(188.324 24.8378) rotate(-29.4267) scale(6.90898 0.853223)">
<stop stop-color="#FFB6D5"/>
<stop offset="0.1" stop-color="#FFE3C0"/>
<stop offset="0.29" stop-color="#C7FBDB"/>
<stop offset="0.43" stop-color="#C7CDF4"/>
<stop offset="0.54" stop-color="#FFBCD4"/>
<stop offset="0.66" stop-color="#FFE0C3"/>
<stop offset="0.76" stop-color="#B0F1D4"/>
<stop offset="0.84" stop-color="#C9CEEC"/>
<stop offset="0.91" stop-color="#FFC1DA"/>
<stop offset="1" stop-color="#BDFFE3"/>
</radialGradient>
<radialGradient id="paint22_radial_4_18678" cx="0" cy="0" r="1" gradientUnits="userSpaceOnUse" gradientTransform="translate(184.793 27.0994) rotate(-28.0936) scale(11.2224 1.08206)">
<stop stop-color="#FFB6D5"/>
<stop offset="0.1" stop-color="#FFE3C0"/>
<stop offset="0.29" stop-color="#C7FBDB"/>
<stop offset="0.43" stop-color="#C7CDF4"/>
<stop offset="0.54" stop-color="#FFBCD4"/>
<stop offset="0.66" stop-color="#FFE0C3"/>
<stop offset="0.76" stop-color="#B0F1D4"/>
<stop offset="0.84" stop-color="#C9CEEC"/>
<stop offset="0.91" stop-color="#FFC1DA"/>
<stop offset="1" stop-color="#BDFFE3"/>
</radialGradient>
<radialGradient id="paint23_radial_4_18678" cx="0" cy="0" r="1" gradientUnits="userSpaceOnUse" gradientTransform="translate(104.741 -3.38579) rotate(-48.9153) scale(9.93835 4.57488)">
<stop stop-color="#FFB6D5"/>
<stop offset="0.1" stop-color="#FFE3C0"/>
<stop offset="0.29" stop-color="#C7FBDB"/>
<stop offset="0.43" stop-color="#C7CDF4"/>
<stop offset="0.54" stop-color="#FFBCD4"/>
<stop offset="0.66" stop-color="#FFE0C3"/>
<stop offset="0.76" stop-color="#B0F1D4"/>
<stop offset="0.84" stop-color="#C9CEEC"/>
<stop offset="0.91" stop-color="#FFC1DA"/>
<stop offset="1" stop-color="#BDFFE3"/>
</radialGradient>
<radialGradient id="paint24_radial_4_18678" cx="0" cy="0" r="1" gradientUnits="userSpaceOnUse" gradientTransform="translate(179.75 30.028) rotate(-26.2268) scale(6.95164 0.404341)">
<stop stop-color="#FFB6D5"/>
<stop offset="0.1" stop-color="#FFE3C0"/>
<stop offset="0.29" stop-color="#C7FBDB"/>
<stop offset="0.43" stop-color="#C7CDF4"/>
<stop offset="0.54" stop-color="#FFBCD4"/>
<stop offset="0.66" stop-color="#FFE0C3"/>
<stop offset="0.76" stop-color="#B0F1D4"/>
<stop offset="0.84" stop-color="#C9CEEC"/>
<stop offset="0.91" stop-color="#FFC1DA"/>
<stop offset="1" stop-color="#BDFFE3"/>
</radialGradient>
<radialGradient id="paint25_radial_4_18678" cx="0" cy="0" r="1" gradientUnits="userSpaceOnUse" gradientTransform="translate(112.469 -0.705854) rotate(-44.9677) scale(4.46038 1.80549)">
<stop stop-color="#FFB6D5"/>
<stop offset="0.1" stop-color="#FFE3C0"/>
<stop offset="0.29" stop-color="#C7FBDB"/>
<stop offset="0.43" stop-color="#C7CDF4"/>
<stop offset="0.54" stop-color="#FFBCD4"/>
<stop offset="0.66" stop-color="#FFE0C3"/>
<stop offset="0.76" stop-color="#B0F1D4"/>
<stop offset="0.84" stop-color="#C9CEEC"/>
<stop offset="0.91" stop-color="#FFC1DA"/>
<stop offset="1" stop-color="#BDFFE3"/>
</radialGradient>
<radialGradient id="paint26_radial_4_18678" cx="0" cy="0" r="1" gradientUnits="userSpaceOnUse" gradientTransform="translate(190.934 22.9881) rotate(-31.348) scale(5.53489 0.896838)">
<stop stop-color="#FFB6D5"/>
<stop offset="0.1" stop-color="#FFE3C0"/>
<stop offset="0.29" stop-color="#C7FBDB"/>
<stop offset="0.43" stop-color="#C7CDF4"/>
<stop offset="0.54" stop-color="#FFBCD4"/>
<stop offset="0.66" stop-color="#FFE0C3"/>
<stop offset="0.76" stop-color="#B0F1D4"/>
<stop offset="0.84" stop-color="#C9CEEC"/>
<stop offset="0.91" stop-color="#FFC1DA"/>
<stop offset="1" stop-color="#BDFFE3"/>
</radialGradient>
<radialGradient id="paint27_radial_4_18678" cx="0" cy="0" r="1" gradientUnits="userSpaceOnUse" gradientTransform="translate(224.973 -164.847) rotate(-55.5429) scale(458.22 244.456)">
<stop stop-color="#FFB6D5"/>
<stop offset="0.1" stop-color="#FFE3C0"/>
<stop offset="0.29" stop-color="#C7FBDB"/>
<stop offset="0.43" stop-color="#C7CDF4"/>
<stop offset="0.54" stop-color="#FFBCD4"/>
<stop offset="0.66" stop-color="#FFE0C3"/>
<stop offset="0.76" stop-color="#B0F1D4"/>
<stop offset="0.84" stop-color="#C9CEEC"/>
<stop offset="0.91" stop-color="#FFC1DA"/>
<stop offset="1" stop-color="#BDFFE3"/>
</radialGradient>
<radialGradient id="paint28_radial_4_18678" cx="0" cy="0" r="1" gradientUnits="userSpaceOnUse" gradientTransform="translate(222.063 -159.645) rotate(-55.5428) scale(428.916 228.823)">
<stop stop-color="#FFB6D5"/>
<stop offset="0.1" stop-color="#FFE3C0"/>
<stop offset="0.29" stop-color="#C7FBDB"/>
<stop offset="0.43" stop-color="#C7CDF4"/>
<stop offset="0.54" stop-color="#FFBCD4"/>
<stop offset="0.66" stop-color="#FFE0C3"/>
<stop offset="0.76" stop-color="#B0F1D4"/>
<stop offset="0.84" stop-color="#C9CEEC"/>
<stop offset="0.91" stop-color="#FFC1DA"/>
<stop offset="1" stop-color="#BDFFE3"/>
</radialGradient>
<radialGradient id="paint29_radial_4_18678" cx="0" cy="0" r="1" gradientUnits="userSpaceOnUse" gradientTransform="translate(219.853 -155.69) rotate(-55.5429) scale(406.637 216.937)">
<stop stop-color="#FFB6D5"/>
<stop offset="0.1" stop-color="#FFE3C0"/>
<stop offset="0.29" stop-color="#C7FBDB"/>
<stop offset="0.43" stop-color="#C7CDF4"/>
<stop offset="0.54" stop-color="#FFBCD4"/>
<stop offset="0.66" stop-color="#FFE0C3"/>
<stop offset="0.76" stop-color="#B0F1D4"/>
<stop offset="0.84" stop-color="#C9CEEC"/>
<stop offset="0.91" stop-color="#FFC1DA"/>
<stop offset="1" stop-color="#BDFFE3"/>
</radialGradient>
<radialGradient id="paint30_radial_4_18678" cx="0" cy="0" r="1" gradientUnits="userSpaceOnUse" gradientTransform="translate(217.039 -150.657) rotate(-55.5429) scale(378.282 201.81)">
<stop stop-color="#FFB6D5"/>
<stop offset="0.1" stop-color="#FFE3C0"/>
<stop offset="0.29" stop-color="#C7FBDB"/>
<stop offset="0.43" stop-color="#C7CDF4"/>
<stop offset="0.54" stop-color="#FFBCD4"/>
<stop offset="0.66" stop-color="#FFE0C3"/>
<stop offset="0.76" stop-color="#B0F1D4"/>
<stop offset="0.84" stop-color="#C9CEEC"/>
<stop offset="0.91" stop-color="#FFC1DA"/>
<stop offset="1" stop-color="#BDFFE3"/>
</radialGradient>
<radialGradient id="paint31_radial_4_18678" cx="0" cy="0" r="1" gradientUnits="userSpaceOnUse" gradientTransform="translate(213.726 -144.732) rotate(-55.5429) scale(344.905 184.004)">
<stop stop-color="#FFB6D5"/>
<stop offset="0.1" stop-color="#FFE3C0"/>
<stop offset="0.29" stop-color="#C7FBDB"/>
<stop offset="0.43" stop-color="#C7CDF4"/>
<stop offset="0.54" stop-color="#FFBCD4"/>
<stop offset="0.66" stop-color="#FFE0C3"/>
<stop offset="0.76" stop-color="#B0F1D4"/>
<stop offset="0.84" stop-color="#C9CEEC"/>
<stop offset="0.91" stop-color="#FFC1DA"/>
<stop offset="1" stop-color="#BDFFE3"/>
</radialGradient>
<radialGradient id="paint32_radial_4_18678" cx="0" cy="0" r="1" gradientUnits="userSpaceOnUse" gradientTransform="translate(210.032 -138.124) rotate(-55.5429) scale(307.684 164.147)">
<stop stop-color="#FFB6D5"/>
<stop offset="0.1" stop-color="#FFE3C0"/>
<stop offset="0.29" stop-color="#C7FBDB"/>
<stop offset="0.43" stop-color="#C7CDF4"/>
<stop offset="0.54" stop-color="#FFBCD4"/>
<stop offset="0.66" stop-color="#FFE0C3"/>
<stop offset="0.76" stop-color="#B0F1D4"/>
<stop offset="0.84" stop-color="#C9CEEC"/>
<stop offset="0.91" stop-color="#FFC1DA"/>
<stop offset="1" stop-color="#BDFFE3"/>
</radialGradient>
<radialGradient id="paint33_radial_4_18678" cx="0" cy="0" r="1" gradientUnits="userSpaceOnUse" gradientTransform="translate(206.082 -131.06) rotate(-55.5429) scale(267.893 142.918)">
<stop stop-color="#FFB6D5"/>
<stop offset="0.1" stop-color="#FFE3C0"/>
<stop offset="0.29" stop-color="#C7FBDB"/>
<stop offset="0.43" stop-color="#C7CDF4"/>
<stop offset="0.54" stop-color="#FFBCD4"/>
<stop offset="0.66" stop-color="#FFE0C3"/>
<stop offset="0.76" stop-color="#B0F1D4"/>
<stop offset="0.84" stop-color="#C9CEEC"/>
<stop offset="0.91" stop-color="#FFC1DA"/>
<stop offset="1" stop-color="#BDFFE3"/>
</radialGradient>
</defs>
</svg>
