<svg width="316" height="141" viewBox="0 0 316 141" fill="none" xmlns="http://www.w3.org/2000/svg">
<path d="M279.899 66.44C279.899 66.4399 279.899 66.4398 279.9 66.4398C284.665 66.0881 289.553 64.8957 294.51 63.2259C295.124 63.0187 295.714 62.7433 296.277 62.421C298.871 60.9365 301.468 59.6063 304.071 58.512V58.512C304.138 58.4753 304.097 58.3703 304.023 58.3892C299.425 59.5507 294.913 60.2946 290.54 60.3628C264.158 60.7706 230.592 34.5584 204.872 45.693C195.361 49.8102 188.841 58.2037 183.471 68.107C186.897 63.4631 190.977 59.6244 196.064 57.0609C220.357 44.8208 254.36 68.3237 279.898 66.4402C279.898 66.4402 279.898 66.4401 279.899 66.44V66.44Z" fill="url(#paint0_radial_640_54812)"/>
<path d="M153.717 130.017C153.717 130.017 153.717 130.017 153.717 130.017C156.754 126.491 159.283 122.24 161.534 117.572C161.604 117.428 161.659 117.277 161.699 117.122C162.488 114.109 163.396 111.195 164.489 108.439V108.439C164.524 108.321 164.356 108.248 164.293 108.353C162.084 112.033 159.674 115.374 156.944 118.195C137.921 137.846 95.8926 143.373 85.9833 168.41C84.1767 172.976 83.5928 177.799 83.8482 182.8C83.9199 184.203 87.3537 184.011 87.7941 182.677V182.677C95.9822 157.858 136.393 150.131 153.717 130.017C153.717 130.016 153.717 130.017 153.717 130.017V130.017Z" fill="url(#paint1_radial_640_54812)"/>
<path d="M183.472 68.1055C183.472 68.1055 183.472 68.1056 183.472 68.1056C180.604 71.9935 178.195 76.4456 176.038 81.189C176.954 79.7037 177.932 78.286 178.984 76.9504C179.143 76.7485 179.279 76.5297 179.388 76.2967C180.691 73.4943 182.041 70.7463 183.472 68.1059C183.473 68.1057 183.472 68.1054 183.472 68.1055V68.1055Z" fill="url(#paint2_radial_640_54812)"/>
<path d="M176.038 81.1908C176.037 81.1905 176.037 81.1905 176.037 81.1908C173.535 85.2498 171.5 89.8182 169.709 94.6339C170.36 93.3429 171.055 92.0949 171.801 90.8964C172.177 90.2919 172.507 89.659 172.766 88.9959C173.806 86.339 174.886 83.7234 176.038 81.1912C176.038 81.1911 176.038 81.1909 176.038 81.1908V81.1908Z" fill="url(#paint3_radial_640_54812)"/>
<path d="M260.735 80.2593C260.735 80.259 260.736 80.2588 260.736 80.2587C267.402 78.9768 274.119 75.8715 280.851 72.1306C283.087 70.5124 285.33 68.9798 287.585 67.594C281.638 70.2569 275.74 72.3244 269.955 73.0922C245.339 76.3565 211.096 55.5201 188.27 68.7394C184.786 70.7575 181.857 73.4011 179.342 76.5034C179.264 76.5998 179.198 76.7057 179.146 76.8183C178.903 77.3439 178.662 77.8713 178.422 78.4002C177.806 79.7586 180.246 81.4723 181.491 80.651V80.651C202.823 66.5808 237.112 84.8025 260.735 80.2598C260.735 80.2597 260.736 80.2595 260.735 80.2593V80.2593Z" fill="url(#paint4_radial_640_54812)"/>
<path d="M149.934 153.342C149.934 153.342 149.934 153.341 149.934 153.341C153.518 148.042 155.919 141.415 157.914 134.277C158.347 131.511 158.85 128.792 159.473 126.162C157.279 132.016 154.728 137.385 151.387 141.755C135.751 162.204 97.066 171.962 90.5388 196.45C89.6128 199.924 89.3975 203.463 89.7158 207.05C89.7278 207.185 89.7578 207.318 89.8042 207.446C90.1329 208.351 90.4684 209.257 90.8087 210.164C91.2872 211.44 93.8949 211 94.1683 209.666V209.666C99.1013 185.616 135.964 174 149.934 153.343C149.934 153.343 149.934 153.342 149.934 153.342V153.342Z" fill="url(#paint5_radial_640_54812)"/>
<path d="M307.935 57.0697C308.529 56.8783 309.109 56.6477 309.663 56.3636C312.29 55.018 314.912 53.7247 317.522 52.5445C313.34 53.8793 309.137 55.814 304.922 58.0551C304.869 58.0832 304.9 58.1623 304.958 58.1469V58.1469C305.95 57.7507 306.942 57.3902 307.935 57.0697Z" fill="url(#paint6_radial_640_54812)"/>
<path d="M166.217 104.555C166.484 104.019 166.716 103.467 166.896 102.896C167.783 100.095 168.709 97.3254 169.71 94.6323C167.793 98.4351 166.258 102.607 164.93 106.965C164.902 107.056 165.026 107.11 165.074 107.027V107.027C165.435 106.186 165.815 105.361 166.217 104.555Z" fill="url(#paint7_radial_640_54812)"/>
<path d="M173.165 90.3796C173.419 89.7987 172.76 89.4136 172.411 89.9427V89.9427C172.389 89.9752 172.371 90.0104 172.357 90.0467C171.025 93.499 169.753 97.0112 168.474 100.492C168.464 100.519 168.503 100.538 168.519 100.514V100.514C170.125 97.2459 171.653 93.8363 173.165 90.3796Z" fill="url(#paint8_radial_640_54812)"/>
<path d="M326.402 50.7136C326.402 50.7139 326.401 50.714 326.401 50.7141C325.19 50.8117 323.976 50.9782 322.76 51.2063C322.664 51.2243 322.57 51.2535 322.481 51.2927C319.085 52.7789 315.675 54.3538 312.267 55.9047C312.249 55.9132 312.258 55.941 312.278 55.9371V55.9371C316.951 54.3731 321.677 52.5469 326.402 50.7136V50.7136Z" fill="url(#paint9_radial_640_54812)"/>
<path d="M162.095 117.496C162.159 117.238 161.764 117.099 161.649 117.339V117.339C161.643 117.351 161.638 117.364 161.635 117.378C161.184 119.12 160.772 120.895 160.388 122.689C160.852 121.098 161.371 119.547 161.96 118.05C162.005 117.865 162.05 117.68 162.095 117.496Z" fill="url(#paint10_radial_640_54812)"/>
<path d="M295.442 63.4813C295.516 63.4368 295.591 63.3923 295.665 63.3478C295.903 63.2047 295.717 62.8114 295.454 62.9029V62.9029C295.44 62.9077 295.427 62.9139 295.414 62.9214C293.982 63.7596 292.551 64.6419 291.12 65.5559C292.554 64.7871 293.994 64.0907 295.441 63.4817L295.442 63.4813Z" fill="url(#paint11_radial_640_54812)"/>
<path d="M164.325 111.298C164.325 111.299 164.325 111.299 164.325 111.298C164.733 109.945 165.142 108.588 165.554 107.233C165.64 106.951 165.222 106.773 165.075 107.028V107.028C164.875 107.493 164.68 107.965 164.491 108.44C164.169 109.544 163.858 110.658 163.556 111.779C163.462 112.131 163.912 112.287 164.053 111.95C164.144 111.733 164.234 111.516 164.324 111.298C164.324 111.298 164.325 111.298 164.325 111.298V111.298Z" fill="url(#paint12_radial_640_54812)"/>
<path d="M301.792 60.4888C302.92 59.8926 304.049 59.2949 305.176 58.7007C305.471 58.5457 305.279 58.0633 304.957 58.1482V58.1482C304.661 58.2661 304.366 58.3878 304.071 58.5125C303.221 58.9721 302.371 59.4433 301.521 59.9239C301.133 60.1431 301.381 60.6572 301.793 60.4885V60.4885L301.792 60.4888Z" fill="url(#paint13_radial_640_54812)"/>
<path d="M311.966 56.0424C311.966 56.042 311.966 56.0417 311.967 56.0416C311.969 56.0406 311.971 56.0395 311.973 56.0385C311.995 56.0289 311.984 55.9969 311.961 56.0016C310.92 56.2161 309.88 56.4806 308.841 56.7903C308.834 56.7925 308.826 56.7954 308.82 56.7989V56.7989C308.687 56.8675 308.766 57.0631 308.909 57.0194C309.925 56.7085 310.944 56.3822 311.965 56.0433C311.965 56.0431 311.966 56.0428 311.966 56.0424V56.0424Z" fill="url(#paint14_radial_640_54812)"/>
<path d="M168.312 100.934C168.311 100.934 168.311 100.934 168.312 100.934C168.313 100.931 168.314 100.928 168.315 100.925C168.325 100.896 168.285 100.876 168.269 100.902C167.687 101.818 167.143 102.767 166.631 103.744C166.627 103.75 166.625 103.757 166.623 103.763V103.763C166.581 103.895 166.76 103.969 166.824 103.847C167.329 102.892 167.824 101.92 168.312 100.935C168.312 100.935 168.312 100.935 168.312 100.934V100.934Z" fill="url(#paint15_radial_640_54812)"/>
<path d="M309.911 60.8523C309.911 60.8524 309.911 60.8528 309.911 60.8528C332.793 62.8255 347.589 95.8145 368.3 106.551C375.777 110.427 385.442 111.841 395.418 113.051C397.621 113.231 399.804 113.447 401.95 113.725C393.566 112.079 385.652 110.043 379.41 106.331C358.667 93.9974 345.37 59.0382 321.857 55.6252C318.65 55.1592 315.458 55.312 312.278 55.936C312.174 55.9708 312.07 56.0052 311.966 56.04C308.567 57.5856 305.171 59.1052 301.794 60.487V60.487C301.442 60.6729 301.745 61.4335 302.134 61.3526C304.696 60.8206 307.286 60.626 309.911 60.8519C309.911 60.8519 309.912 60.8522 309.911 60.8523V60.8523Z" fill="url(#paint16_radial_640_54812)"/>
<path d="M170.977 104.859C170.977 104.859 170.978 104.859 170.978 104.859C189.271 89.4701 223.109 102.677 244.565 95.8894C252.991 93.2243 261.126 87.2679 269.226 81.0031C270.9 79.5945 272.579 78.2259 274.268 76.93C266.971 81.7584 259.653 86.0057 252.264 87.8779C229.697 93.5964 195.545 77.922 175.728 92.7149C172.831 94.8766 170.473 97.5179 168.518 100.514C168.449 100.654 168.38 100.794 168.311 100.934C167.015 104.455 165.71 107.941 164.323 111.296C163.893 112.722 163.461 114.145 163.025 115.558C164.953 111.427 167.505 107.779 170.976 104.858C170.976 104.858 170.977 104.858 170.977 104.859V104.859Z" fill="url(#paint17_radial_640_54812)"/>
<path d="M291.121 65.5555C291.121 65.5553 291.12 65.5551 291.12 65.5553C289.938 66.1894 288.76 66.8718 287.585 67.5941C287.96 67.4262 288.336 67.2556 288.711 67.0829C288.841 67.0234 288.966 66.9539 289.085 66.8755C289.764 66.4298 290.442 65.9896 291.121 65.5561C291.121 65.556 291.121 65.5557 291.121 65.5555V65.5555Z" fill="url(#paint18_radial_640_54812)"/>
<path d="M160.387 122.687C160.055 123.825 159.753 124.984 159.474 126.161C159.536 125.996 159.598 125.83 159.659 125.665C159.831 125.2 159.963 124.722 160.063 124.237C160.169 123.719 160.277 123.202 160.387 122.687Z" fill="url(#paint19_radial_640_54812)"/>
<path d="M283.612 70.5643C283.613 70.5645 283.612 70.5648 283.612 70.5649C282.692 71.0969 281.771 71.6206 280.851 72.1311C280.019 72.7327 279.187 73.3474 278.356 73.9689C279.562 73.1511 280.774 72.3831 281.995 71.6746C282.534 71.3039 283.072 70.9332 283.612 70.5641C283.612 70.564 283.612 70.5641 283.612 70.5643V70.5643Z" fill="url(#paint20_radial_640_54812)"/>
<path d="M158.719 131.297C158.719 131.297 158.718 131.297 158.718 131.297C158.457 132.298 158.189 133.293 157.914 134.277C157.73 135.453 157.559 136.636 157.396 137.825C157.658 136.378 157.961 134.957 158.311 133.568C158.446 132.812 158.581 132.054 158.719 131.297C158.719 131.297 158.719 131.297 158.719 131.297V131.297Z" fill="url(#paint21_radial_640_54812)"/>
<path d="M160.168 124.262C160 124.732 159.864 125.212 159.768 125.701C159.401 127.556 159.056 129.425 158.718 131.296C159.56 128.072 160.343 124.772 161.135 121.463C160.819 122.405 160.497 123.339 160.168 124.262Z" fill="url(#paint22_radial_640_54812)"/>
<path d="M289.586 66.6759C289.134 66.8876 288.696 67.1298 288.28 67.4059C286.724 68.4383 285.169 69.4967 283.613 70.5632C286.514 68.8863 289.417 67.1221 292.318 65.365C291.407 65.8124 290.496 66.25 289.586 66.6759Z" fill="url(#paint23_radial_640_54812)"/>
<path d="M295.442 63.4795C294.401 64.1037 293.36 64.7343 292.318 65.3648C293.398 64.8354 294.478 64.2925 295.559 63.7403C295.77 63.6324 295.661 63.3873 295.442 63.4795V63.4795Z" fill="url(#paint24_radial_640_54812)"/>
<path d="M161.96 118.05C161.682 119.187 161.409 120.326 161.136 121.465C161.786 119.527 162.412 117.554 163.027 115.56C162.648 116.372 162.292 117.203 161.96 118.05Z" fill="url(#paint25_radial_640_54812)"/>
<path d="M157.397 137.826C157.397 137.826 157.397 137.826 157.397 137.827C157.138 139.255 156.917 140.708 156.727 142.18C156.831 141.648 156.934 141.113 157.036 140.577C157.153 139.658 157.272 138.741 157.398 137.827C157.398 137.826 157.397 137.826 157.397 137.826V137.826Z" fill="url(#paint26_radial_640_54812)"/>
<path d="M278.356 73.9689C278.356 73.9689 278.356 73.969 278.356 73.969C276.985 74.8984 275.624 75.8912 274.269 76.9298C274.779 76.592 275.289 76.2521 275.798 75.9092C276.651 75.2558 277.503 74.6079 278.356 73.9685C278.356 73.9683 278.357 73.9686 278.356 73.9689V73.9689Z" fill="url(#paint27_radial_640_54812)"/>
<path d="M436.573 314.517C436.573 314.517 436.574 314.517 436.574 314.517C445.76 293.951 476.727 277.837 477.343 255.671C477.505 249.859 475.559 244.346 472.455 238.996C471.034 236.931 469.609 234.866 468.22 232.798C466.54 230.607 464.822 228.418 463.128 226.226C454.402 215.86 444.121 205.702 439.904 194.651C432.158 174.351 442.988 140.992 427.127 124.225C422.754 119.602 417.008 116.935 410.563 115.311C408.213 114.892 405.869 114.475 403.554 114.035C400.845 113.693 398.122 113.38 395.42 113.052C381.994 111.953 367.849 112.171 357.519 107.557C336.953 98.3713 320.839 67.4041 298.673 66.7878C292.861 66.626 287.348 68.572 281.998 71.6756C279.933 73.0964 277.868 74.5214 275.8 75.9104C273.608 77.5914 271.42 79.3089 269.228 81.0033C258.862 89.7288 248.704 100.01 237.653 104.227C217.353 111.973 183.994 101.143 167.227 117.004C162.604 121.377 159.936 127.123 158.313 133.568C157.894 135.918 157.477 138.262 157.037 140.577C156.695 143.286 156.382 146.009 156.054 148.711C154.956 162.136 155.173 176.282 150.559 186.612C141.373 207.178 110.406 223.292 109.79 245.458C109.628 251.27 111.574 256.783 114.677 262.133C116.098 264.198 117.523 266.263 118.912 268.331C120.593 270.522 122.311 272.711 124.005 274.903C132.731 285.269 143.012 295.427 147.229 306.478C154.974 326.778 144.145 360.137 160.006 376.904C164.379 381.527 170.125 384.194 176.57 385.818C178.92 386.237 181.264 386.654 183.578 387.094C186.288 387.436 189.011 387.749 191.713 388.077C205.138 389.175 219.284 388.958 229.614 393.572C250.18 402.758 266.294 433.725 288.46 434.341C294.272 434.503 299.785 432.557 305.135 429.453C307.2 428.033 309.265 426.608 311.333 425.219C313.524 423.538 315.713 421.82 317.905 420.126C328.27 411.4 338.429 401.119 349.48 396.902C369.779 389.156 403.138 399.986 419.906 384.125C424.529 379.752 427.196 374.006 428.82 367.561C429.239 365.211 429.656 362.867 430.095 360.552C430.438 357.843 430.751 355.12 431.079 352.418C432.177 338.993 431.959 324.847 436.573 314.517C436.573 314.517 436.573 314.517 436.573 314.517V314.517ZM422.676 372.053C407.424 388.262 374.704 379.707 355.596 388.303C335.788 397.213 320.328 427.115 298.955 427.765C277.582 428.414 260.333 399.507 240.02 391.817C220.426 384.399 188.286 394.927 172.078 379.675C155.869 364.423 164.424 331.703 155.829 312.595C146.919 292.787 117.016 277.327 116.367 255.954C115.717 234.581 144.624 217.332 152.314 197.019C159.733 177.425 149.204 145.285 164.456 129.077C179.709 112.868 212.429 121.423 231.536 112.828C251.344 103.918 266.805 74.0151 288.177 73.3658C309.55 72.7164 326.799 101.623 347.112 109.313C366.706 116.732 398.846 106.203 415.055 121.455C431.263 136.708 422.708 169.428 431.304 188.535C440.214 208.343 470.116 223.804 470.766 245.176C471.415 266.549 442.508 283.798 434.818 304.111C427.4 323.705 437.928 355.845 422.676 372.053Z" fill="url(#paint28_radial_640_54812)"/>
<path d="M463.61 235.462C463.611 235.462 463.611 235.462 463.611 235.462C461.789 214.952 432.177 201.764 422.503 183.221C413.17 165.333 419.562 133.4 403.126 119.646C386.69 105.891 356.383 117.811 337.13 111.777C317.172 105.521 298.972 78.6975 278.462 80.5189C257.952 82.3403 244.764 111.952 226.221 121.627C208.333 130.959 176.399 124.568 162.645 141.004C148.89 157.44 160.81 187.747 154.776 207C148.52 226.957 121.697 245.158 123.519 265.668C125.34 286.178 154.952 299.366 164.627 317.909C173.959 335.797 167.567 367.731 184.003 381.485C200.439 395.24 230.746 383.32 249.999 389.353C269.957 395.609 288.157 422.432 308.667 420.611C329.177 418.789 342.366 389.177 360.908 379.503C378.796 370.17 410.73 376.562 424.484 360.126C438.239 343.69 426.319 313.383 432.352 294.13C438.608 274.173 465.431 255.972 463.61 235.462C463.61 235.462 463.61 235.462 463.61 235.462V235.462ZM425.361 348.414C413.077 364.96 382.066 360.609 365.418 370.568C348.159 380.892 337.156 410.054 317.569 412.949C297.983 415.844 279.013 391.113 259.506 386.224C240.688 381.508 212.262 394.645 195.716 382.361C179.17 370.077 183.52 339.066 173.562 322.417C163.239 305.159 134.076 294.155 131.181 274.569C128.286 254.982 153.017 236.013 157.906 216.505C162.622 197.687 149.486 169.261 161.77 152.715C174.054 136.169 205.065 140.52 221.713 130.561C238.972 120.238 249.976 91.0756 269.562 88.1805C289.148 85.2855 308.118 110.017 327.626 114.905C346.443 119.622 374.869 106.485 391.415 118.769C407.961 131.053 403.61 162.064 413.569 178.712C423.893 195.971 453.055 206.975 455.95 226.561C458.845 246.147 434.114 265.117 429.225 284.625C424.509 303.443 437.646 331.869 425.361 348.414Z" fill="url(#paint29_radial_640_54812)"/>
<path d="M447.85 218.496C443.982 199.886 415.42 190.968 404.563 175.005C394.089 159.605 396.529 129.642 379.985 118.793C363.442 107.943 336.933 122.12 318.635 118.65C299.667 115.054 280.106 92.4106 261.496 96.2792C242.887 100.147 233.969 128.709 218.005 139.567C202.605 150.04 172.643 147.601 161.793 164.144C150.943 180.687 165.12 207.196 161.65 225.494C158.054 244.463 135.411 264.024 139.28 282.633C143.147 301.243 171.71 310.161 182.567 326.124C193.04 341.524 190.601 371.487 207.144 382.336C223.687 393.186 250.197 379.009 268.494 382.479C287.463 386.075 307.024 408.718 325.633 404.85C344.243 400.982 353.161 372.42 369.125 361.562C384.524 351.089 414.487 353.528 425.337 336.985C436.186 320.442 422.01 293.933 425.479 275.635C429.076 256.666 451.719 237.105 447.85 218.496ZM424.448 325.901C414.989 342.332 386.189 341.669 372.038 352.547C357.37 363.824 350.429 391.647 332.842 396.384C315.254 401.122 295.278 380.549 276.931 378.165C259.232 375.866 234.66 390.905 218.229 381.448C201.798 371.991 202.461 343.189 191.583 329.039C180.306 314.371 152.483 307.43 147.746 289.843C143.008 272.255 163.581 252.278 165.964 233.931C168.264 216.232 153.224 191.661 162.682 175.23C172.14 158.798 200.941 159.461 215.091 148.583C229.759 137.306 236.7 109.484 254.287 104.746C271.875 100.008 291.851 120.581 310.198 122.965C327.897 125.264 352.469 110.225 368.9 119.682C385.332 129.141 384.668 157.941 395.547 172.091C406.824 186.759 434.646 193.7 439.384 211.288C444.121 228.876 423.549 248.852 421.165 267.199C418.865 284.898 433.905 309.469 424.448 325.901Z" fill="url(#paint30_radial_640_54812)"/>
<path d="M430.624 204.948C425.121 188.417 398.168 183.337 386.584 169.957C375.41 157.051 374.442 129.511 358.225 121.394C342.008 113.276 319.382 129.005 302.353 127.793C284.701 126.537 264.481 108.003 247.95 113.505C231.419 119.008 226.339 145.961 212.959 157.545C200.053 168.719 172.513 169.687 164.395 185.904C156.278 202.121 172.006 224.747 170.795 241.776C169.539 259.428 151.005 279.648 156.507 296.179C162.009 312.71 188.963 317.79 200.547 331.17C211.721 344.076 212.69 371.615 228.905 379.733C245.122 387.851 267.749 372.123 284.777 373.334C302.43 374.59 322.65 393.124 339.181 387.622C355.712 382.12 360.792 355.166 374.172 343.582C387.077 332.408 414.617 331.439 422.735 315.223C430.853 299.007 415.124 276.38 416.336 259.352C417.592 241.699 436.126 221.479 430.624 204.948ZM411.045 252.124C410.836 268.419 427.079 289.108 420.244 305.011C413.409 320.915 387.219 323.366 375.54 334.731C363.433 346.512 360.088 372.479 344.64 378.64C329.192 384.801 308.896 368.261 292.005 368.045C275.71 367.836 255.021 384.079 239.117 377.244C223.213 370.409 220.762 344.22 209.398 332.54C197.616 320.433 171.65 317.089 165.489 301.641C159.328 286.192 175.867 265.896 176.084 249.005C176.293 232.71 160.05 212.022 166.885 196.118C173.72 180.214 199.909 177.763 211.589 166.398C223.696 154.617 227.04 128.65 242.488 122.489C257.936 116.328 278.232 132.868 295.124 133.084C311.418 133.293 332.107 117.05 348.011 123.885C363.915 130.72 366.366 156.909 377.731 168.589C389.512 180.696 415.479 184.041 421.64 199.489C427.801 214.937 411.261 235.233 411.045 252.124Z" fill="url(#paint31_radial_640_54812)"/>
<path d="M369.048 167.964C357.596 157.49 353.815 132.726 338.316 127.108C322.817 121.49 304.047 138.079 288.542 138.782C272.47 139.511 252.257 124.91 237.911 131.623C223.566 138.335 221.823 163.209 210.965 175.081C200.491 186.532 175.726 190.313 170.108 205.812C164.491 221.312 181.08 240.082 181.783 255.587C182.512 271.659 167.911 291.872 174.624 306.217C181.336 320.563 206.21 322.306 218.081 333.164C229.533 343.638 233.314 368.402 248.813 374.02C264.312 379.638 283.083 363.048 298.587 362.346C314.66 361.617 334.872 376.218 349.218 369.505C363.564 362.792 365.307 337.918 376.164 326.047C386.639 314.596 411.403 310.815 417.021 295.315C422.639 279.816 406.049 261.046 405.346 245.541C404.617 229.469 419.218 209.256 412.506 194.911C405.793 180.565 380.919 178.822 369.048 167.964ZM399.3 239.626C400.824 254.291 417.595 271.177 413.122 286.186C408.65 301.195 385.373 306.149 376.071 317.589C366.429 329.448 366.151 353.134 352.916 360.293C339.682 367.452 319.706 354.721 304.504 356.3C289.839 357.823 272.953 374.594 257.944 370.122C242.934 365.649 237.981 342.373 226.541 333.071C214.682 323.429 190.996 323.15 183.837 309.916C176.678 296.681 189.409 276.706 187.83 261.503C186.306 246.839 169.536 229.953 174.008 214.944C178.48 199.934 201.757 194.98 211.059 183.54C220.701 171.682 220.98 147.996 234.214 140.837C247.448 133.678 267.424 146.409 282.626 144.829C297.291 143.306 314.177 126.535 329.186 131.008C344.196 135.48 349.15 158.757 360.589 168.059C372.448 177.701 396.134 177.979 403.293 191.214C410.452 204.448 397.721 224.424 399.3 239.626Z" fill="url(#paint32_radial_640_54812)"/>
<path d="M352.41 168.841C341.078 160.674 335.111 138.933 320.669 135.53C306.228 132.127 291.182 148.918 277.396 151.167C263.105 153.497 243.511 142.557 231.389 150.057C219.266 157.557 220.308 179.973 211.842 191.721C203.675 203.052 181.933 209.019 178.531 223.461C175.128 237.903 191.919 252.949 194.167 266.735C196.498 281.025 185.558 300.619 193.058 312.742C200.557 324.865 222.974 323.823 234.722 332.289C246.053 340.455 252.02 362.197 266.462 365.6C280.903 369.002 295.95 352.212 309.735 349.963C324.026 347.632 343.62 358.572 355.742 351.072C367.865 343.573 366.824 321.156 375.29 309.409C383.456 298.077 405.198 292.11 408.6 277.669C412.003 263.227 395.212 248.181 392.964 234.395C390.633 220.104 401.573 200.51 394.073 188.388C386.573 176.265 364.157 177.307 352.41 168.841ZM386.393 229.861C389.27 242.735 405.928 255.999 403.513 269.802C401.098 283.606 380.926 290.426 373.849 301.558C366.512 313.098 368.725 334.176 357.706 341.912C346.688 349.649 327.613 340.411 314.268 343.393C301.394 346.27 288.131 362.928 274.327 360.513C260.524 358.098 253.704 337.926 242.572 330.849C231.032 323.512 209.954 325.725 202.217 314.706C194.481 303.688 203.719 284.613 200.737 271.268C197.86 258.394 181.202 245.13 183.617 231.327C186.032 217.523 206.204 210.704 213.281 199.572C220.618 188.031 218.405 166.954 229.424 159.217C240.442 151.48 259.517 160.718 272.862 157.736C285.736 154.859 298.999 138.202 312.803 140.617C326.606 143.031 333.426 163.203 344.558 170.281C356.098 177.618 377.176 175.405 384.913 186.423C392.649 197.441 383.411 216.516 386.393 229.861Z" fill="url(#paint33_radial_640_54812)"/>
<path d="M337.084 172.341C326.237 166.3 318.725 147.721 305.623 146.207C292.522 144.692 280.971 161.07 269.032 164.477C256.656 168.01 238.228 160.373 228.299 168.245C218.37 176.117 221.603 195.8 215.34 207.045C209.3 217.891 190.721 225.404 189.206 238.505C187.692 251.607 204.069 263.157 207.477 275.097C211.01 287.473 203.373 305.9 211.245 315.829C219.117 325.759 238.8 322.526 250.045 328.788C260.891 334.829 268.404 353.408 281.505 354.922C294.606 356.437 306.157 340.059 318.096 336.652C330.473 333.118 348.901 340.755 358.829 332.884C368.758 325.012 365.525 305.328 371.788 294.084C377.828 283.237 396.408 275.725 397.922 262.624C399.436 249.522 383.059 237.971 379.651 226.032C376.118 213.656 383.755 195.228 375.883 185.299C368.011 175.37 348.328 178.603 337.084 172.341ZM372.797 222.911C376.637 233.899 392.594 243.817 391.891 256.161C391.189 268.505 374.209 276.548 369.148 287.029C363.9 297.894 367.998 316.14 359.134 324.049C350.271 331.958 332.608 325.815 321.217 329.795C310.23 333.635 300.311 349.592 287.968 348.89C275.624 348.187 267.581 331.208 257.099 326.146C246.235 320.898 227.989 324.996 220.08 316.133C212.171 307.269 218.313 289.606 214.333 278.216C210.494 267.228 194.536 257.309 195.239 244.966C195.941 232.622 212.921 224.579 217.983 214.098C223.231 203.233 219.132 184.987 227.996 177.078C236.86 169.169 254.523 175.312 265.913 171.331C276.901 167.492 286.819 151.535 299.163 152.237C311.507 152.939 319.55 169.919 330.031 174.981C340.896 180.229 359.142 176.13 367.051 184.994C374.959 193.858 368.817 211.521 372.797 222.911Z" fill="url(#paint34_radial_640_54812)"/>
<path d="M323.44 178.162C313.4 174.014 304.985 158.63 293.444 158.645C281.904 158.66 273.529 174.066 263.499 178.24C253.102 182.567 236.311 177.802 228.482 185.652C220.653 193.503 225.462 210.28 221.161 220.689C217.014 230.729 201.63 239.144 201.644 250.685C201.66 262.225 217.066 270.6 221.24 280.63C225.567 291.027 220.802 307.818 228.652 315.647C236.502 323.476 253.28 318.667 263.689 322.968C273.729 327.115 282.144 342.499 293.685 342.485C305.224 342.469 313.6 327.063 323.63 322.889C334.027 318.562 350.818 323.327 358.646 315.477C366.476 307.627 361.667 290.849 365.967 280.44C370.115 270.4 385.499 261.985 385.484 250.444C385.469 238.904 370.063 230.529 365.889 220.499C361.562 210.102 366.326 193.311 358.477 185.482C350.626 177.653 333.849 182.462 323.44 178.162ZM358.985 218.789C363.396 227.861 378.13 234.793 378.767 245.489C379.404 256.186 365.597 264.817 362.294 274.349C358.87 284.23 364.234 299.524 357.4 307.223C350.566 314.923 334.744 311.412 325.34 315.985C316.268 320.396 309.336 335.129 298.639 335.766C287.943 336.403 279.311 322.597 269.779 319.294C259.899 315.869 244.605 321.233 236.905 314.4C229.206 307.566 232.716 291.744 228.144 282.339C223.733 273.267 209 266.335 208.363 255.639C207.725 244.942 221.532 236.311 224.835 226.779C228.259 216.898 222.895 201.604 229.729 193.905C236.563 186.205 252.385 189.716 261.79 185.143C270.861 180.732 277.794 165.999 288.49 165.362C299.186 164.725 307.818 178.531 317.35 181.834C327.23 185.259 342.524 179.894 350.224 186.728C357.923 193.562 354.413 209.384 358.985 218.789Z" fill="url(#paint35_radial_640_54812)"/>
<defs>
<radialGradient id="paint0_radial_640_54812" cx="0" cy="0" r="1" gradientUnits="userSpaceOnUse" gradientTransform="translate(272.938 29.468) rotate(-39.1966) scale(217.492 67.4447)">
<stop stop-color="#FFB6D5"/>
<stop offset="0.1" stop-color="#FFE3C0"/>
<stop offset="0.29" stop-color="#C7FBDB"/>
<stop offset="0.43" stop-color="#C7CDF4"/>
<stop offset="0.54" stop-color="#FFBCD4"/>
<stop offset="0.66" stop-color="#FFE0C3"/>
<stop offset="0.76" stop-color="#B0F1D4"/>
<stop offset="0.84" stop-color="#C9CEEC"/>
<stop offset="0.91" stop-color="#FFC1DA"/>
<stop offset="1" stop-color="#BDFFE3"/>
</radialGradient>
<radialGradient id="paint1_radial_640_54812" cx="0" cy="0" r="1" gradientUnits="userSpaceOnUse" gradientTransform="translate(154.509 125.352) rotate(-40.322) scale(204.553 67.4367)">
<stop stop-color="#FFB6D5"/>
<stop offset="0.1" stop-color="#FFE3C0"/>
<stop offset="0.29" stop-color="#C7FBDB"/>
<stop offset="0.43" stop-color="#C7CDF4"/>
<stop offset="0.54" stop-color="#FFBCD4"/>
<stop offset="0.66" stop-color="#FFE0C3"/>
<stop offset="0.76" stop-color="#B0F1D4"/>
<stop offset="0.84" stop-color="#C9CEEC"/>
<stop offset="0.91" stop-color="#FFC1DA"/>
<stop offset="1" stop-color="#BDFFE3"/>
</radialGradient>
<radialGradient id="paint2_radial_640_54812" cx="0" cy="0" r="1" gradientUnits="userSpaceOnUse" gradientTransform="translate(182.632 70.7847) rotate(-48.726) scale(24.1951 11.0778)">
<stop stop-color="#FFB6D5"/>
<stop offset="0.1" stop-color="#FFE3C0"/>
<stop offset="0.29" stop-color="#C7FBDB"/>
<stop offset="0.43" stop-color="#C7CDF4"/>
<stop offset="0.54" stop-color="#FFBCD4"/>
<stop offset="0.66" stop-color="#FFE0C3"/>
<stop offset="0.76" stop-color="#B0F1D4"/>
<stop offset="0.84" stop-color="#C9CEEC"/>
<stop offset="0.91" stop-color="#FFC1DA"/>
<stop offset="1" stop-color="#BDFFE3"/>
</radialGradient>
<radialGradient id="paint3_radial_640_54812" cx="0" cy="0" r="1" gradientUnits="userSpaceOnUse" gradientTransform="translate(175.39 83.9825) rotate(-52.3722) scale(23.1831 11.6339)">
<stop stop-color="#FFB6D5"/>
<stop offset="0.1" stop-color="#FFE3C0"/>
<stop offset="0.29" stop-color="#C7FBDB"/>
<stop offset="0.43" stop-color="#C7CDF4"/>
<stop offset="0.54" stop-color="#FFBCD4"/>
<stop offset="0.66" stop-color="#FFE0C3"/>
<stop offset="0.76" stop-color="#B0F1D4"/>
<stop offset="0.84" stop-color="#C9CEEC"/>
<stop offset="0.91" stop-color="#FFC1DA"/>
<stop offset="1" stop-color="#BDFFE3"/>
</radialGradient>
<radialGradient id="paint4_radial_640_54812" cx="0" cy="0" r="1" gradientUnits="userSpaceOnUse" gradientTransform="translate(260.447 47.674) rotate(-36.346) scale(207.606 53.6552)">
<stop stop-color="#FFB6D5"/>
<stop offset="0.1" stop-color="#FFE3C0"/>
<stop offset="0.29" stop-color="#C7FBDB"/>
<stop offset="0.43" stop-color="#C7CDF4"/>
<stop offset="0.54" stop-color="#FFBCD4"/>
<stop offset="0.66" stop-color="#FFE0C3"/>
<stop offset="0.76" stop-color="#B0F1D4"/>
<stop offset="0.84" stop-color="#C9CEEC"/>
<stop offset="0.91" stop-color="#FFC1DA"/>
<stop offset="1" stop-color="#BDFFE3"/>
</radialGradient>
<radialGradient id="paint5_radial_640_54812" cx="0" cy="0" r="1" gradientUnits="userSpaceOnUse" gradientTransform="translate(151.311 144.504) rotate(-44.0161) scale(188.017 73.365)">
<stop stop-color="#FFB6D5"/>
<stop offset="0.1" stop-color="#FFE3C0"/>
<stop offset="0.29" stop-color="#C7FBDB"/>
<stop offset="0.43" stop-color="#C7CDF4"/>
<stop offset="0.54" stop-color="#FFBCD4"/>
<stop offset="0.66" stop-color="#FFE0C3"/>
<stop offset="0.76" stop-color="#B0F1D4"/>
<stop offset="0.84" stop-color="#C9CEEC"/>
<stop offset="0.91" stop-color="#FFC1DA"/>
<stop offset="1" stop-color="#BDFFE3"/>
</radialGradient>
<radialGradient id="paint6_radial_640_54812" cx="0" cy="0" r="1" gradientUnits="userSpaceOnUse" gradientTransform="translate(315.49 53.3009) rotate(-25.2592) scale(25.799 0.986286)">
<stop stop-color="#FFB6D5"/>
<stop offset="0.1" stop-color="#FFE3C0"/>
<stop offset="0.29" stop-color="#C7FBDB"/>
<stop offset="0.43" stop-color="#C7CDF4"/>
<stop offset="0.54" stop-color="#FFBCD4"/>
<stop offset="0.66" stop-color="#FFE0C3"/>
<stop offset="0.76" stop-color="#B0F1D4"/>
<stop offset="0.84" stop-color="#C9CEEC"/>
<stop offset="0.91" stop-color="#FFC1DA"/>
<stop offset="1" stop-color="#BDFFE3"/>
</radialGradient>
<radialGradient id="paint7_radial_640_54812" cx="0" cy="0" r="1" gradientUnits="userSpaceOnUse" gradientTransform="translate(169.273 97.3618) rotate(-56.1048) scale(21.016 11.3157)">
<stop stop-color="#FFB6D5"/>
<stop offset="0.1" stop-color="#FFE3C0"/>
<stop offset="0.29" stop-color="#C7FBDB"/>
<stop offset="0.43" stop-color="#C7CDF4"/>
<stop offset="0.54" stop-color="#FFBCD4"/>
<stop offset="0.66" stop-color="#FFE0C3"/>
<stop offset="0.76" stop-color="#B0F1D4"/>
<stop offset="0.84" stop-color="#C9CEEC"/>
<stop offset="0.91" stop-color="#FFC1DA"/>
<stop offset="1" stop-color="#BDFFE3"/>
</radialGradient>
<radialGradient id="paint8_radial_640_54812" cx="0" cy="0" r="1" gradientUnits="userSpaceOnUse" gradientTransform="translate(174.088 89.697) rotate(-53.0082) scale(23.6946 12.0531)">
<stop stop-color="#FFB6D5"/>
<stop offset="0.1" stop-color="#FFE3C0"/>
<stop offset="0.29" stop-color="#C7FBDB"/>
<stop offset="0.43" stop-color="#C7CDF4"/>
<stop offset="0.54" stop-color="#FFBCD4"/>
<stop offset="0.66" stop-color="#FFE0C3"/>
<stop offset="0.76" stop-color="#B0F1D4"/>
<stop offset="0.84" stop-color="#C9CEEC"/>
<stop offset="0.91" stop-color="#FFC1DA"/>
<stop offset="1" stop-color="#BDFFE3"/>
</radialGradient>
<radialGradient id="paint9_radial_640_54812" cx="0" cy="0" r="1" gradientUnits="userSpaceOnUse" gradientTransform="translate(323.962 50.9137) rotate(-25.842) scale(27.6485 1.38916)">
<stop stop-color="#FFB6D5"/>
<stop offset="0.1" stop-color="#FFE3C0"/>
<stop offset="0.29" stop-color="#C7FBDB"/>
<stop offset="0.43" stop-color="#C7CDF4"/>
<stop offset="0.54" stop-color="#FFBCD4"/>
<stop offset="0.66" stop-color="#FFE0C3"/>
<stop offset="0.76" stop-color="#B0F1D4"/>
<stop offset="0.84" stop-color="#C9CEEC"/>
<stop offset="0.91" stop-color="#FFC1DA"/>
<stop offset="1" stop-color="#BDFFE3"/>
</radialGradient>
<radialGradient id="paint10_radial_640_54812" cx="0" cy="0" r="1" gradientUnits="userSpaceOnUse" gradientTransform="translate(162.542 116.699) rotate(-59.9455) scale(11.6429 6.59641)">
<stop stop-color="#FFB6D5"/>
<stop offset="0.1" stop-color="#FFE3C0"/>
<stop offset="0.29" stop-color="#C7FBDB"/>
<stop offset="0.43" stop-color="#C7CDF4"/>
<stop offset="0.54" stop-color="#FFBCD4"/>
<stop offset="0.66" stop-color="#FFE0C3"/>
<stop offset="0.76" stop-color="#B0F1D4"/>
<stop offset="0.84" stop-color="#C9CEEC"/>
<stop offset="0.91" stop-color="#FFC1DA"/>
<stop offset="1" stop-color="#BDFFE3"/>
</radialGradient>
<radialGradient id="paint11_radial_640_54812" cx="0" cy="0" r="1" gradientUnits="userSpaceOnUse" gradientTransform="translate(296.836 62.4856) rotate(-26.7734) scale(13.9086 0.965253)">
<stop stop-color="#FFB6D5"/>
<stop offset="0.1" stop-color="#FFE3C0"/>
<stop offset="0.29" stop-color="#C7FBDB"/>
<stop offset="0.43" stop-color="#C7CDF4"/>
<stop offset="0.54" stop-color="#FFBCD4"/>
<stop offset="0.66" stop-color="#FFE0C3"/>
<stop offset="0.76" stop-color="#B0F1D4"/>
<stop offset="0.84" stop-color="#C9CEEC"/>
<stop offset="0.91" stop-color="#FFC1DA"/>
<stop offset="1" stop-color="#BDFFE3"/>
</radialGradient>
<radialGradient id="paint12_radial_640_54812" cx="0" cy="0" r="1" gradientUnits="userSpaceOnUse" gradientTransform="translate(165.991 107.027) rotate(-57.6102) scale(16.1556 8.89591)">
<stop stop-color="#FFB6D5"/>
<stop offset="0.1" stop-color="#FFE3C0"/>
<stop offset="0.29" stop-color="#C7FBDB"/>
<stop offset="0.43" stop-color="#C7CDF4"/>
<stop offset="0.54" stop-color="#FFBCD4"/>
<stop offset="0.66" stop-color="#FFE0C3"/>
<stop offset="0.76" stop-color="#B0F1D4"/>
<stop offset="0.84" stop-color="#C9CEEC"/>
<stop offset="0.91" stop-color="#FFC1DA"/>
<stop offset="1" stop-color="#BDFFE3"/>
</radialGradient>
<radialGradient id="paint13_radial_640_54812" cx="0" cy="0" r="1" gradientUnits="userSpaceOnUse" gradientTransform="translate(306.093 57.8694) rotate(-26.4284) scale(19.7073 1.22799)">
<stop stop-color="#FFB6D5"/>
<stop offset="0.1" stop-color="#FFE3C0"/>
<stop offset="0.29" stop-color="#C7FBDB"/>
<stop offset="0.43" stop-color="#C7CDF4"/>
<stop offset="0.54" stop-color="#FFBCD4"/>
<stop offset="0.66" stop-color="#FFE0C3"/>
<stop offset="0.76" stop-color="#B0F1D4"/>
<stop offset="0.84" stop-color="#C9CEEC"/>
<stop offset="0.91" stop-color="#FFC1DA"/>
<stop offset="1" stop-color="#BDFFE3"/>
</radialGradient>
<radialGradient id="paint14_radial_640_54812" cx="0" cy="0" r="1" gradientUnits="userSpaceOnUse" gradientTransform="translate(311.313 55.8612) rotate(-27.7157) scale(8.4751 0.751765)">
<stop stop-color="#FFB6D5"/>
<stop offset="0.1" stop-color="#FFE3C0"/>
<stop offset="0.29" stop-color="#C7FBDB"/>
<stop offset="0.43" stop-color="#C7CDF4"/>
<stop offset="0.54" stop-color="#FFBCD4"/>
<stop offset="0.66" stop-color="#FFE0C3"/>
<stop offset="0.76" stop-color="#B0F1D4"/>
<stop offset="0.84" stop-color="#C9CEEC"/>
<stop offset="0.91" stop-color="#FFC1DA"/>
<stop offset="1" stop-color="#BDFFE3"/>
</radialGradient>
<radialGradient id="paint15_radial_640_54812" cx="0" cy="0" r="1" gradientUnits="userSpaceOnUse" gradientTransform="translate(168.171 101.562) rotate(-50.9024) scale(7.38361 3.58135)">
<stop stop-color="#FFB6D5"/>
<stop offset="0.1" stop-color="#FFE3C0"/>
<stop offset="0.29" stop-color="#C7FBDB"/>
<stop offset="0.43" stop-color="#C7CDF4"/>
<stop offset="0.54" stop-color="#FFBCD4"/>
<stop offset="0.66" stop-color="#FFE0C3"/>
<stop offset="0.76" stop-color="#B0F1D4"/>
<stop offset="0.84" stop-color="#C9CEEC"/>
<stop offset="0.91" stop-color="#FFC1DA"/>
<stop offset="1" stop-color="#BDFFE3"/>
</radialGradient>
<radialGradient id="paint16_radial_640_54812" cx="0" cy="0" r="1" gradientUnits="userSpaceOnUse" gradientTransform="translate(364.449 56.0006) rotate(-59.9561) scale(170.207 96.4434)">
<stop stop-color="#FFB6D5"/>
<stop offset="0.1" stop-color="#FFE3C0"/>
<stop offset="0.29" stop-color="#C7FBDB"/>
<stop offset="0.43" stop-color="#C7CDF4"/>
<stop offset="0.54" stop-color="#FFBCD4"/>
<stop offset="0.66" stop-color="#FFE0C3"/>
<stop offset="0.76" stop-color="#B0F1D4"/>
<stop offset="0.84" stop-color="#C9CEEC"/>
<stop offset="0.91" stop-color="#FFC1DA"/>
<stop offset="1" stop-color="#BDFFE3"/>
</radialGradient>
<radialGradient id="paint17_radial_640_54812" cx="0" cy="0" r="1" gradientUnits="userSpaceOnUse" gradientTransform="translate(250.613 67.4496) rotate(-32.8918) scale(216.623 41.6955)">
<stop stop-color="#FFB6D5"/>
<stop offset="0.1" stop-color="#FFE3C0"/>
<stop offset="0.29" stop-color="#C7FBDB"/>
<stop offset="0.43" stop-color="#C7CDF4"/>
<stop offset="0.54" stop-color="#FFBCD4"/>
<stop offset="0.66" stop-color="#FFE0C3"/>
<stop offset="0.76" stop-color="#B0F1D4"/>
<stop offset="0.84" stop-color="#C9CEEC"/>
<stop offset="0.91" stop-color="#FFC1DA"/>
<stop offset="1" stop-color="#BDFFE3"/>
</radialGradient>
<radialGradient id="paint18_radial_640_54812" cx="0" cy="0" r="1" gradientUnits="userSpaceOnUse" gradientTransform="translate(290.596 65.9016) rotate(-27.5414) scale(7.39708 0.629782)">
<stop stop-color="#FFB6D5"/>
<stop offset="0.1" stop-color="#FFE3C0"/>
<stop offset="0.29" stop-color="#C7FBDB"/>
<stop offset="0.43" stop-color="#C7CDF4"/>
<stop offset="0.54" stop-color="#FFBCD4"/>
<stop offset="0.66" stop-color="#FFE0C3"/>
<stop offset="0.76" stop-color="#B0F1D4"/>
<stop offset="0.84" stop-color="#C9CEEC"/>
<stop offset="0.91" stop-color="#FFC1DA"/>
<stop offset="1" stop-color="#BDFFE3"/>
</radialGradient>
<radialGradient id="paint19_radial_640_54812" cx="0" cy="0" r="1" gradientUnits="userSpaceOnUse" gradientTransform="translate(160.34 123.43) rotate(-62.0677) scale(5.16869 2.9863)">
<stop stop-color="#FFB6D5"/>
<stop offset="0.1" stop-color="#FFE3C0"/>
<stop offset="0.29" stop-color="#C7FBDB"/>
<stop offset="0.43" stop-color="#C7CDF4"/>
<stop offset="0.54" stop-color="#FFBCD4"/>
<stop offset="0.66" stop-color="#FFE0C3"/>
<stop offset="0.76" stop-color="#B0F1D4"/>
<stop offset="0.84" stop-color="#C9CEEC"/>
<stop offset="0.91" stop-color="#FFC1DA"/>
<stop offset="1" stop-color="#BDFFE3"/>
</radialGradient>
<radialGradient id="paint20_radial_640_54812" cx="0" cy="0" r="1" gradientUnits="userSpaceOnUse" gradientTransform="translate(282.843 71.162) rotate(-29.4267) scale(11.2996 1.39545)">
<stop stop-color="#FFB6D5"/>
<stop offset="0.1" stop-color="#FFE3C0"/>
<stop offset="0.29" stop-color="#C7FBDB"/>
<stop offset="0.43" stop-color="#C7CDF4"/>
<stop offset="0.54" stop-color="#FFBCD4"/>
<stop offset="0.66" stop-color="#FFE0C3"/>
<stop offset="0.76" stop-color="#B0F1D4"/>
<stop offset="0.84" stop-color="#C9CEEC"/>
<stop offset="0.91" stop-color="#FFC1DA"/>
<stop offset="1" stop-color="#BDFFE3"/>
</radialGradient>
<radialGradient id="paint21_radial_640_54812" cx="0" cy="0" r="1" gradientUnits="userSpaceOnUse" gradientTransform="translate(158.694 132.705) rotate(-65.4569) scale(9.32816 5.49498)">
<stop stop-color="#FFB6D5"/>
<stop offset="0.1" stop-color="#FFE3C0"/>
<stop offset="0.29" stop-color="#C7FBDB"/>
<stop offset="0.43" stop-color="#C7CDF4"/>
<stop offset="0.54" stop-color="#FFBCD4"/>
<stop offset="0.66" stop-color="#FFE0C3"/>
<stop offset="0.76" stop-color="#B0F1D4"/>
<stop offset="0.84" stop-color="#C9CEEC"/>
<stop offset="0.91" stop-color="#FFC1DA"/>
<stop offset="1" stop-color="#BDFFE3"/>
</radialGradient>
<radialGradient id="paint22_radial_640_54812" cx="0" cy="0" r="1" gradientUnits="userSpaceOnUse" gradientTransform="translate(161.028 123.572) rotate(-62.9975) scale(14.4595 8.41086)">
<stop stop-color="#FFB6D5"/>
<stop offset="0.1" stop-color="#FFE3C0"/>
<stop offset="0.29" stop-color="#C7FBDB"/>
<stop offset="0.43" stop-color="#C7CDF4"/>
<stop offset="0.54" stop-color="#FFBCD4"/>
<stop offset="0.66" stop-color="#FFE0C3"/>
<stop offset="0.76" stop-color="#B0F1D4"/>
<stop offset="0.84" stop-color="#C9CEEC"/>
<stop offset="0.91" stop-color="#FFC1DA"/>
<stop offset="1" stop-color="#BDFFE3"/>
</radialGradient>
<radialGradient id="paint23_radial_640_54812" cx="0" cy="0" r="1" gradientUnits="userSpaceOnUse" gradientTransform="translate(291.031 66.2578) rotate(-28.0937) scale(18.3542 1.76972)">
<stop stop-color="#FFB6D5"/>
<stop offset="0.1" stop-color="#FFE3C0"/>
<stop offset="0.29" stop-color="#C7FBDB"/>
<stop offset="0.43" stop-color="#C7CDF4"/>
<stop offset="0.54" stop-color="#FFBCD4"/>
<stop offset="0.66" stop-color="#FFE0C3"/>
<stop offset="0.76" stop-color="#B0F1D4"/>
<stop offset="0.84" stop-color="#C9CEEC"/>
<stop offset="0.91" stop-color="#FFC1DA"/>
<stop offset="1" stop-color="#BDFFE3"/>
</radialGradient>
<radialGradient id="paint24_radial_640_54812" cx="0" cy="0" r="1" gradientUnits="userSpaceOnUse" gradientTransform="translate(297.022 62.9206) rotate(-26.2265) scale(11.3694 0.661245)">
<stop stop-color="#FFB6D5"/>
<stop offset="0.1" stop-color="#FFE3C0"/>
<stop offset="0.29" stop-color="#C7FBDB"/>
<stop offset="0.43" stop-color="#C7CDF4"/>
<stop offset="0.54" stop-color="#FFBCD4"/>
<stop offset="0.66" stop-color="#FFE0C3"/>
<stop offset="0.76" stop-color="#B0F1D4"/>
<stop offset="0.84" stop-color="#C9CEEC"/>
<stop offset="0.91" stop-color="#FFC1DA"/>
<stop offset="1" stop-color="#BDFFE3"/>
</radialGradient>
<radialGradient id="paint25_radial_640_54812" cx="0" cy="0" r="1" gradientUnits="userSpaceOnUse" gradientTransform="translate(162.89 116.813) rotate(-59.1) scale(9.14319 5.1314)">
<stop stop-color="#FFB6D5"/>
<stop offset="0.1" stop-color="#FFE3C0"/>
<stop offset="0.29" stop-color="#C7FBDB"/>
<stop offset="0.43" stop-color="#C7CDF4"/>
<stop offset="0.54" stop-color="#FFBCD4"/>
<stop offset="0.66" stop-color="#FFE0C3"/>
<stop offset="0.76" stop-color="#B0F1D4"/>
<stop offset="0.84" stop-color="#C9CEEC"/>
<stop offset="0.91" stop-color="#FFC1DA"/>
<stop offset="1" stop-color="#BDFFE3"/>
</radialGradient>
<radialGradient id="paint26_radial_640_54812" cx="0" cy="0" r="1" gradientUnits="userSpaceOnUse" gradientTransform="translate(157.416 138.771) rotate(-68.3686) scale(6.03108 3.57169)">
<stop stop-color="#FFB6D5"/>
<stop offset="0.1" stop-color="#FFE3C0"/>
<stop offset="0.29" stop-color="#C7FBDB"/>
<stop offset="0.43" stop-color="#C7CDF4"/>
<stop offset="0.54" stop-color="#FFBCD4"/>
<stop offset="0.66" stop-color="#FFE0C3"/>
<stop offset="0.76" stop-color="#B0F1D4"/>
<stop offset="0.84" stop-color="#C9CEEC"/>
<stop offset="0.91" stop-color="#FFC1DA"/>
<stop offset="1" stop-color="#BDFFE3"/>
</radialGradient>
<radialGradient id="paint27_radial_640_54812" cx="0" cy="0" r="1" gradientUnits="userSpaceOnUse" gradientTransform="translate(277.768 74.5025) rotate(-31.3466) scale(9.05397 1.4668)">
<stop stop-color="#FFB6D5"/>
<stop offset="0.1" stop-color="#FFE3C0"/>
<stop offset="0.29" stop-color="#C7FBDB"/>
<stop offset="0.43" stop-color="#C7CDF4"/>
<stop offset="0.54" stop-color="#FFBCD4"/>
<stop offset="0.66" stop-color="#FFE0C3"/>
<stop offset="0.76" stop-color="#B0F1D4"/>
<stop offset="0.84" stop-color="#C9CEEC"/>
<stop offset="0.91" stop-color="#FFC1DA"/>
<stop offset="1" stop-color="#BDFFE3"/>
</radialGradient>
<radialGradient id="paint28_radial_640_54812" cx="0" cy="0" r="1" gradientUnits="userSpaceOnUse" gradientTransform="translate(367.944 117.529) rotate(-55.5429) scale(749.419 399.808)">
<stop stop-color="#FFB6D5"/>
<stop offset="0.1" stop-color="#FFE3C0"/>
<stop offset="0.29" stop-color="#C7FBDB"/>
<stop offset="0.43" stop-color="#C7CDF4"/>
<stop offset="0.54" stop-color="#FFBCD4"/>
<stop offset="0.66" stop-color="#FFE0C3"/>
<stop offset="0.76" stop-color="#B0F1D4"/>
<stop offset="0.84" stop-color="#C9CEEC"/>
<stop offset="0.91" stop-color="#FFC1DA"/>
<stop offset="1" stop-color="#BDFFE3"/>
</radialGradient>
<radialGradient id="paint29_radial_640_54812" cx="0" cy="0" r="1" gradientUnits="userSpaceOnUse" gradientTransform="translate(363.186 126.037) rotate(-55.5428) scale(701.492 374.24)">
<stop stop-color="#FFB6D5"/>
<stop offset="0.1" stop-color="#FFE3C0"/>
<stop offset="0.29" stop-color="#C7FBDB"/>
<stop offset="0.43" stop-color="#C7CDF4"/>
<stop offset="0.54" stop-color="#FFBCD4"/>
<stop offset="0.66" stop-color="#FFE0C3"/>
<stop offset="0.76" stop-color="#B0F1D4"/>
<stop offset="0.84" stop-color="#C9CEEC"/>
<stop offset="0.91" stop-color="#FFC1DA"/>
<stop offset="1" stop-color="#BDFFE3"/>
</radialGradient>
<radialGradient id="paint30_radial_640_54812" cx="0" cy="0" r="1" gradientUnits="userSpaceOnUse" gradientTransform="translate(359.569 132.505) rotate(-55.5429) scale(665.055 354.801)">
<stop stop-color="#FFB6D5"/>
<stop offset="0.1" stop-color="#FFE3C0"/>
<stop offset="0.29" stop-color="#C7FBDB"/>
<stop offset="0.43" stop-color="#C7CDF4"/>
<stop offset="0.54" stop-color="#FFBCD4"/>
<stop offset="0.66" stop-color="#FFE0C3"/>
<stop offset="0.76" stop-color="#B0F1D4"/>
<stop offset="0.84" stop-color="#C9CEEC"/>
<stop offset="0.91" stop-color="#FFC1DA"/>
<stop offset="1" stop-color="#BDFFE3"/>
</radialGradient>
<radialGradient id="paint31_radial_640_54812" cx="0" cy="0" r="1" gradientUnits="userSpaceOnUse" gradientTransform="translate(354.967 140.737) rotate(-55.5429) scale(618.681 330.061)">
<stop stop-color="#FFB6D5"/>
<stop offset="0.1" stop-color="#FFE3C0"/>
<stop offset="0.29" stop-color="#C7FBDB"/>
<stop offset="0.43" stop-color="#C7CDF4"/>
<stop offset="0.54" stop-color="#FFBCD4"/>
<stop offset="0.66" stop-color="#FFE0C3"/>
<stop offset="0.76" stop-color="#B0F1D4"/>
<stop offset="0.84" stop-color="#C9CEEC"/>
<stop offset="0.91" stop-color="#FFC1DA"/>
<stop offset="1" stop-color="#BDFFE3"/>
</radialGradient>
<radialGradient id="paint32_radial_640_54812" cx="0" cy="0" r="1" gradientUnits="userSpaceOnUse" gradientTransform="translate(349.549 150.427) rotate(-55.5429) scale(564.091 300.938)">
<stop stop-color="#FFB6D5"/>
<stop offset="0.1" stop-color="#FFE3C0"/>
<stop offset="0.29" stop-color="#C7FBDB"/>
<stop offset="0.43" stop-color="#C7CDF4"/>
<stop offset="0.54" stop-color="#FFBCD4"/>
<stop offset="0.66" stop-color="#FFE0C3"/>
<stop offset="0.76" stop-color="#B0F1D4"/>
<stop offset="0.84" stop-color="#C9CEEC"/>
<stop offset="0.91" stop-color="#FFC1DA"/>
<stop offset="1" stop-color="#BDFFE3"/>
</radialGradient>
<radialGradient id="paint33_radial_640_54812" cx="0" cy="0" r="1" gradientUnits="userSpaceOnUse" gradientTransform="translate(343.508 161.235) rotate(-55.5429) scale(503.217 268.462)">
<stop stop-color="#FFB6D5"/>
<stop offset="0.1" stop-color="#FFE3C0"/>
<stop offset="0.29" stop-color="#C7FBDB"/>
<stop offset="0.43" stop-color="#C7CDF4"/>
<stop offset="0.54" stop-color="#FFBCD4"/>
<stop offset="0.66" stop-color="#FFE0C3"/>
<stop offset="0.76" stop-color="#B0F1D4"/>
<stop offset="0.84" stop-color="#C9CEEC"/>
<stop offset="0.91" stop-color="#FFC1DA"/>
<stop offset="1" stop-color="#BDFFE3"/>
</radialGradient>
<radialGradient id="paint34_radial_640_54812" cx="0" cy="0" r="1" gradientUnits="userSpaceOnUse" gradientTransform="translate(337.048 172.787) rotate(-55.5429) scale(438.139 233.743)">
<stop stop-color="#FFB6D5"/>
<stop offset="0.1" stop-color="#FFE3C0"/>
<stop offset="0.29" stop-color="#C7FBDB"/>
<stop offset="0.43" stop-color="#C7CDF4"/>
<stop offset="0.54" stop-color="#FFBCD4"/>
<stop offset="0.66" stop-color="#FFE0C3"/>
<stop offset="0.76" stop-color="#B0F1D4"/>
<stop offset="0.84" stop-color="#C9CEEC"/>
<stop offset="0.91" stop-color="#FFC1DA"/>
<stop offset="1" stop-color="#BDFFE3"/>
</radialGradient>
<radialGradient id="paint35_radial_640_54812" cx="0" cy="0" r="1" gradientUnits="userSpaceOnUse" gradientTransform="translate(330.385 184.705) rotate(-55.5429) scale(371.001 197.926)">
<stop stop-color="#FFB6D5"/>
<stop offset="0.1" stop-color="#FFE3C0"/>
<stop offset="0.29" stop-color="#C7FBDB"/>
<stop offset="0.43" stop-color="#C7CDF4"/>
<stop offset="0.54" stop-color="#FFBCD4"/>
<stop offset="0.66" stop-color="#FFE0C3"/>
<stop offset="0.76" stop-color="#B0F1D4"/>
<stop offset="0.84" stop-color="#C9CEEC"/>
<stop offset="0.91" stop-color="#FFC1DA"/>
<stop offset="1" stop-color="#BDFFE3"/>
</radialGradient>
</defs>
</svg>
