<svg width="130" height="10" viewBox="0 0 130 10" fill="none" xmlns="http://www.w3.org/2000/svg">
<path fill-rule="evenodd" clip-rule="evenodd" d="M0 1C0 0.447715 0.447715 0 1 0H9C9.55228 0 10 0.447715 10 1V9C10 9.55228 9.55229 10 9 10H1C0.447715 10 0 9.55229 0 9V1ZM15 1C15 0.447715 15.4477 0 16 0H24C24.5523 0 25 0.447715 25 1V9C25 9.55228 24.5523 10 24 10H16C15.4477 10 15 9.55229 15 9V1ZM31 0C30.4477 0 30 0.447715 30 1V9C30 9.55229 30.4477 10 31 10H39C39.5523 10 40 9.55228 40 9V1C40 0.447715 39.5523 0 39 0H31ZM45 1C45 0.447715 45.4477 0 46 0H54C54.5523 0 55 0.447715 55 1V9C55 9.55228 54.5523 10 54 10H46C45.4477 10 45 9.55229 45 9V1ZM61 0C60.4477 0 60 0.447715 60 1V9C60 9.55229 60.4477 10 61 10H69C69.5523 10 70 9.55228 70 9V1C70 0.447715 69.5523 0 69 0H61ZM75 1C75 0.447715 75.4477 0 76 0H84C84.5523 0 85 0.447715 85 1V9C85 9.55228 84.5523 10 84 10H76C75.4477 10 75 9.55229 75 9V1ZM91 0C90.4477 0 90 0.447715 90 1V9C90 9.55229 90.4477 10 91 10H99C99.5523 10 100 9.55228 100 9V1C100 0.447715 99.5523 0 99 0H91ZM105 1C105 0.447715 105.448 0 106 0H114C114.552 0 115 0.447715 115 1V9C115 9.55228 114.552 10 114 10H106C105.448 10 105 9.55229 105 9V1ZM121 0C120.448 0 120 0.447715 120 1V9C120 9.55229 120.448 10 121 10H129C129.552 10 130 9.55228 130 9V1C130 0.447715 129.552 0 129 0H121Z" fill="url(#paint0_radial_466_220963)"/>
<defs>
<radialGradient id="paint0_radial_466_220963" cx="0" cy="0" r="1" gradientUnits="userSpaceOnUse" gradientTransform="translate(110.139 2.34694) rotate(-2.76627) scale(236.804 13.5206)">
<stop stop-color="#FFB6D5"/>
<stop offset="0.1" stop-color="#FFE3C0"/>
<stop offset="0.29" stop-color="#C7FBDB"/>
<stop offset="0.43" stop-color="#C7CDF4"/>
<stop offset="0.54" stop-color="#FFBCD4"/>
<stop offset="0.66" stop-color="#FFE0C3"/>
<stop offset="0.76" stop-color="#B0F1D4"/>
<stop offset="0.84" stop-color="#C9CEEC"/>
<stop offset="0.91" stop-color="#FFC1DA"/>
<stop offset="1" stop-color="#BDFFE3"/>
</radialGradient>
</defs>
</svg>
