<svg width="197" height="55" viewBox="0 0 197 55" fill="none" xmlns="http://www.w3.org/2000/svg">
<path d="M-22.7651 -6.35535C-22.7654 -6.35525 -22.7656 -6.35525 -22.7658 -6.35536C-25.2666 -7.67485 -28.1659 -8.73308 -31.2926 -9.6409C-31.7662 -9.77842 -32.2578 -9.87523 -32.7582 -9.94323C-34.6252 -10.197 -36.4325 -10.5062 -38.1491 -10.8989C-38.1878 -10.9048 -38.2104 -10.8518 -38.1746 -10.839C-35.3919 -9.84884 -32.8245 -8.73309 -30.6055 -7.41433C-17.2193 0.543455 -11.2218 20.3927 6.26209 24.2459C12.7267 25.6706 19.4585 24.6209 26.2375 22.6688C22.6039 23.3053 18.9748 23.4478 15.3681 22.8173C-1.8568 19.8048 -9.19122 0.807047 -22.7644 -6.35533C-22.7646 -6.35544 -22.7649 -6.35544 -22.7651 -6.35535Z" fill="url(#paint0_linear_2009_109128)"/>
<path d="M66.7036 9.29138C66.7037 9.29135 66.7037 9.29126 66.7036 9.29127C63.7233 9.64114 60.6983 10.4113 57.6401 11.4191C57.552 11.4481 57.466 11.4847 57.3833 11.5278C55.7441 12.3819 54.0848 13.1635 52.3986 13.8303C52.3355 13.8612 52.3621 13.9467 52.4296 13.9297C55.0662 13.2658 57.6639 12.7878 60.2066 12.5999C77.8503 11.2971 101.19 22.2011 116.49 16.1387C119.124 15.0948 121.307 13.6323 123.173 11.8749C123.885 11.2038 122.374 9.9835 121.472 10.3929C107.124 16.9047 83.6869 7.29795 66.7036 9.29148C66.7036 9.29149 66.7036 9.2914 66.7036 9.29138Z" fill="url(#paint1_linear_2009_109128)"/>
<path d="M130.124 1.90873C129.942 2.27078 130.337 2.44937 130.553 2.09984C130.764 1.75833 130.968 1.41158 131.167 1.06008C131.308 0.811079 130.872 0.612256 130.671 0.828859C130.654 0.847868 130.639 0.868823 130.628 0.891181C130.462 1.23215 130.295 1.57145 130.124 1.90873Z" fill="url(#paint2_linear_2009_109128)"/>
<path d="M26.237 22.6693C26.237 22.6693 26.237 22.6693 26.2371 22.6693C29.279 22.1363 32.3239 21.2571 35.3627 20.1943C34.2654 20.4594 33.1644 20.6785 32.0604 20.8424C31.9479 20.8591 31.8361 20.886 31.7268 20.9234C29.8964 21.5502 28.0649 22.1424 26.237 22.669C26.2369 22.669 26.2368 22.6692 26.237 22.6693Z" fill="url(#paint3_linear_2009_109128)"/>
<path d="M35.3631 20.1941C35.363 20.1943 35.3631 20.1944 35.3633 20.1944C38.2925 19.4867 41.1981 18.4503 44.0832 17.2487C43.301 17.4941 42.5152 17.7154 41.7253 17.9091C41.1315 18.0548 40.5429 18.2336 39.9696 18.4618C38.4365 19.0721 36.9006 19.6565 35.3632 20.194C35.3631 20.194 35.3631 20.1941 35.3631 20.1941Z" fill="url(#paint4_linear_2009_109128)"/>
<path d="M-7.45895 -5.49344C-7.4589 -5.49337 -7.45899 -5.49327 -7.45908 -5.4933C-11.3282 -7.07531 -15.9758 -8.00991 -20.893 -8.7177C-22.6815 -8.81627 -24.4378 -8.9479 -26.1396 -9.13664C-22.0607 -8.27786 -18.2522 -7.21766 -15.0368 -5.71942C-1.35553 0.657355 7.20003 18.759 24.0941 20.9645C26.6831 21.3025 29.2519 21.2389 31.8026 20.8795C31.8615 20.8712 31.9201 20.857 31.9774 20.8373C32.1712 20.7706 32.365 20.7035 32.5587 20.6361C33.4098 20.34 33.2624 18.789 32.4071 18.7144C15.9109 17.2778 6.25257 0.113 -7.45882 -5.49358C-7.45891 -5.49361 -7.45901 -5.49351 -7.45895 -5.49344Z" fill="url(#paint5_linear_2009_109128)"/>
<path d="M78.2267 1.96946C78.2266 1.96959 78.2265 1.96969 78.2263 1.96972C74.2432 2.7963 70.3046 4.46898 66.3585 6.45238C64.9996 7.32543 63.6252 8.16003 62.2271 8.92499C65.7432 7.47014 69.2373 6.30092 72.7153 5.73799C88.9913 3.10415 112.402 11.4417 125.781 4.53974C127.66 3.57096 129.215 2.36513 130.528 0.98077C130.606 0.899036 130.669 0.80742 130.716 0.7103C130.876 0.380392 131.034 0.0489897 131.191 -0.283596C131.568 -1.08318 130.232 -1.85733 129.419 -1.38293C117.019 5.84969 93.754 -1.2522 78.227 1.96919C78.2269 1.96922 78.2267 1.96933 78.2267 1.96946Z" fill="url(#paint6_linear_2009_109128)"/>
<path d="M50.272 14.6016C49.6891 14.7935 49.1128 15.0107 48.5534 15.2701C47.0685 15.9589 45.5784 16.6258 44.0829 17.2488C46.6052 16.4567 49.0894 15.4146 51.5465 14.2419C51.5988 14.2169 51.5778 14.1497 51.5223 14.1647C51.1074 14.3178 50.6906 14.4637 50.272 14.6016Z" fill="url(#paint7_linear_2009_109128)"/>
<path d="M40.721 17.6882C40.3713 17.815 40.4403 18.2007 40.8003 18.1228C40.8203 18.1185 40.84 18.1124 40.8593 18.1046C42.9511 17.2587 45.0371 16.3723 47.1137 15.4995C47.1296 15.4928 47.1242 15.4709 47.1076 15.4745C44.9949 16.1568 42.8636 16.9114 40.721 17.6882Z" fill="url(#paint8_linear_2009_109128)"/>
<path d="M56.0379 11.9665C56.0379 11.9665 56.038 11.9664 56.038 11.9664C56.4527 11.8199 56.8667 11.6772 57.28 11.5387C57.4312 11.488 57.5789 11.4255 57.7206 11.3507C58.5974 10.8876 59.4691 10.4045 60.3356 9.90826C59.4461 10.3445 58.546 10.749 57.6333 11.1128C57.1026 11.3992 56.5712 11.6841 56.0381 11.9667C56.038 11.9668 56.0379 11.9667 56.0379 11.9665Z" fill="url(#paint9_linear_2009_109128)"/>
<path d="M53.6605 12.8417C53.6606 12.8417 53.6605 12.8416 53.6604 12.8416C52.9214 13.1968 52.1811 13.553 51.4396 13.9076C51.2782 13.9847 51.3505 14.2103 51.5217 14.1647C51.8141 14.0568 52.106 13.9451 52.3972 13.8304C52.9711 13.5491 53.5436 13.2615 54.1148 12.9691C54.319 12.8646 54.2225 12.6287 54.0086 12.7096C53.8926 12.7534 53.7767 12.7975 53.6607 12.8419C53.6606 12.8419 53.6605 12.8418 53.6605 12.8417Z" fill="url(#paint10_linear_2009_109128)"/>
<path d="M47.3853 15.386C47.3853 15.3862 47.3852 15.3863 47.385 15.3863C47.383 15.3872 47.381 15.388 47.379 15.3888C47.3632 15.3955 47.3686 15.4168 47.3851 15.413C48.0578 15.2579 48.7255 15.0791 49.3883 14.8802C49.3919 14.8791 49.3953 14.8778 49.3987 14.8762C49.4707 14.8425 49.4409 14.7514 49.3652 14.7739C48.7072 14.9695 48.0473 15.174 47.3857 15.3857C47.3855 15.3858 47.3854 15.3859 47.3853 15.386Z" fill="url(#paint11_linear_2009_109128)"/>
<path d="M134.702 -13.2892C134.702 -13.2893 134.702 -13.2893 134.702 -13.2893C124.268 -5.57177 101.63 -10.3266 87.7013 -6.09182C82.6725 -4.56316 77.9746 -1.4818 73.2503 1.77493C72.2506 2.52122 71.241 3.24898 70.2163 3.94354C74.5024 1.39948 78.7894 -0.853487 83.2252 -1.98374C97.9679 -5.73907 120.973 0.166328 132.389 -7.33774C133.895 -8.32716 135.105 -9.48908 136.087 -10.7836C136.155 -10.8727 136.214 -10.9665 136.265 -11.0632C136.894 -12.7746 137.534 -14.477 138.236 -16.13C138.302 -16.3659 137.819 -16.491 137.668 -16.2811C136.876 -15.1822 135.902 -14.1772 134.702 -13.2891C134.702 -13.2891 134.702 -13.2891 134.702 -13.2892Z" fill="url(#paint12_linear_2009_109128)"/>
<path d="M47.6699 13.1397C47.67 13.1395 47.6699 13.1394 47.6698 13.1394C32.1514 13.1164 20.6488 -2.08567 7.09659 -6.20988C1.77464 -7.82964 -4.7601 -8.16264 -11.4046 -8.37275C-12.8249 -8.37475 -14.2311 -8.3928 -15.6122 -8.44036C-9.96321 -7.95467 -4.54327 -7.25098 -0.0681567 -5.66143C13.5995 -0.807147 24.2405 15.3889 40.2766 16.097C42.6203 16.2007 44.8922 15.9645 47.1085 15.4756C47.2009 15.4455 47.2936 15.416 47.3858 15.3864C49.4885 14.5035 51.5816 13.6368 53.6616 12.8423C54.4657 12.4559 55.2693 12.0708 56.0708 11.6908C53.3996 12.601 50.6151 13.144 47.6701 13.1399C47.67 13.1399 47.6699 13.1398 47.6699 13.1397Z" fill="url(#paint13_linear_2009_109128)"/>
<path d="M60.3356 9.90766C60.9716 9.59581 61.6015 9.26718 62.2273 8.9246C61.7509 9.12134 61.2901 9.35593 60.8435 9.61481C60.6743 9.71291 60.505 9.81055 60.3356 9.90766Z" fill="url(#paint14_linear_2009_109128)"/>
<path d="M64.7253 7.28961C65.2699 7.0057 65.8146 6.72603 66.3589 6.45234C66.9365 6.08139 67.5106 5.70311 68.083 5.32076C67.3545 5.76677 66.6162 6.19056 65.8677 6.58829C65.4876 6.82186 65.1073 7.05586 64.7268 7.28887C64.7263 7.28916 64.7259 7.28941 64.7253 7.28961Z" fill="url(#paint15_linear_2009_109128)"/>
<path d="M60.7584 9.54836C61.2601 9.33064 61.7506 9.08565 62.2209 8.80561C63.0589 8.30659 63.8934 7.7993 64.7252 7.28972C62.9727 8.20349 61.2178 9.16345 59.4553 10.1236C59.8901 9.92859 60.3244 9.73668 60.7584 9.54836Z" fill="url(#paint16_linear_2009_109128)"/>
<path d="M57.6329 11.1123C58.2415 10.7842 58.8485 10.4538 59.4554 10.1234C58.3298 10.6285 57.2012 11.154 56.0703 11.6902C56.5952 11.5112 57.1165 11.3184 57.6329 11.1123Z" fill="url(#paint17_linear_2009_109128)"/>
<path d="M68.0824 5.32048C68.0825 5.32049 68.0826 5.32048 68.0826 5.32044C68.8018 4.88032 69.5125 4.41966 70.2155 3.94282C69.9435 4.10422 69.6711 4.26691 69.3989 4.4306C68.9612 4.72905 68.5228 5.02596 68.0824 5.32008C68.0822 5.32019 68.0822 5.32043 68.0824 5.32048Z" fill="url(#paint18_linear_2009_109128)"/>
<path d="M91.6497 -10.3241C91.6496 -10.324 91.6497 -10.324 91.6498 -10.324C104.742 -14.9822 126.91 -11.3282 136.369 -19.2019C138.85 -21.2665 140.15 -23.8698 140.804 -26.7695C140.944 -27.9573 141.083 -29.1464 141.24 -30.3253C141.303 -31.6391 141.346 -32.9628 141.402 -34.2809C141.309 -40.7327 140.351 -47.5872 142.8 -52.9027C147.299 -62.6671 166.496 -71.4739 165.471 -82.4469C165.188 -85.4726 163.41 -88.2085 160.851 -90.7795C159.847 -91.654 158.845 -92.5259 157.866 -93.3971C156.65 -94.3543 155.415 -95.3051 154.196 -96.2544C147.923 -100.78 140.746 -105.047 137.475 -109.899C130.963 -119.561 135.672 -135.777 124.821 -142.812C121.975 -144.657 118.41 -145.643 114.448 -146.158C112.827 -146.276 111.204 -146.392 109.594 -146.522C107.802 -146.584 105.997 -146.632 104.199 -146.689C95.4036 -146.7 86.0696 -146.082 78.7921 -147.944C65.4234 -151.364 53.1799 -165.554 38.2313 -164.937C34.1094 -164.767 30.401 -163.496 26.927 -161.65C25.747 -160.925 24.5705 -160.2 23.3947 -159.493C22.1045 -158.613 20.8234 -157.718 19.544 -156.836C13.4518 -152.29 7.72123 -147.078 1.14528 -144.738C-11.9472 -140.08 -34.1151 -143.734 -43.5743 -135.86C-46.0547 -133.796 -47.3554 -131.192 -48.0088 -128.293C-48.1494 -127.105 -48.288 -125.916 -48.4455 -124.737C-48.5081 -123.423 -48.5508 -122.099 -48.6067 -120.781C-48.514 -114.329 -47.5565 -107.475 -50.0053 -102.159C-54.5042 -92.3949 -73.7013 -83.5881 -72.676 -72.6151C-72.3932 -69.5894 -70.6153 -66.8535 -68.0562 -64.2825C-67.0523 -63.408 -66.0498 -62.5361 -65.0714 -61.6649C-63.8554 -60.7077 -62.6201 -59.7569 -61.4016 -58.8076C-55.1282 -54.2828 -47.9509 -50.0151 -44.6801 -45.1626C-38.1678 -35.5015 -42.8775 -19.2853 -32.0258 -12.2499C-29.1803 -10.4049 -25.6148 -9.41881 -21.6532 -8.9039C-20.032 -8.78616 -18.409 -8.66988 -16.7996 -8.53982C-15.0076 -8.47783 -13.2022 -8.43016 -11.4044 -8.37297C-2.60875 -8.36169 6.7252 -8.97984 14.0028 -7.11821C27.3714 -3.69802 39.6149 10.4921 54.5635 9.87485C58.6854 9.70457 62.3939 8.43409 65.8678 6.58845C67.0479 5.86276 68.2243 5.13815 69.4002 4.43115C70.6904 3.55089 71.9714 2.65649 73.2509 1.77432C79.3429 -2.77182 85.0735 -7.98414 91.6495 -10.3243C91.6496 -10.3243 91.6497 -10.3242 91.6497 -10.3241ZM60.9349 6.33484C46.602 7.54403 33.7394 -5.62215 20.6175 -8.36694C7.01461 -11.2126 -13.0757 -5.08594 -24.0524 -11.4172C-35.029 -17.7485 -31.7386 -33.5639 -38.7417 -42.6029C-45.4969 -51.3225 -65.9464 -57.3688 -67.7712 -67.8975C-69.596 -78.4261 -51.8027 -87.6996 -48.2216 -97.2913C-44.5089 -107.235 -53.1092 -122.047 -44.6117 -130.021C-36.1142 -137.995 -14.5101 -135.387 -2.27197 -140.413C9.53377 -145.261 17.5263 -160.187 31.8592 -161.397C46.192 -162.606 59.0547 -149.44 72.1766 -146.695C85.7795 -143.849 105.87 -149.976 116.846 -143.644C127.823 -137.313 124.533 -121.498 131.536 -112.459C138.291 -103.739 158.74 -97.6929 160.565 -87.1642C162.39 -76.6356 144.597 -67.3621 141.016 -57.7704C137.303 -47.8271 145.903 -33.0147 137.406 -25.0406C128.908 -17.0666 107.304 -19.6746 95.0661 -14.6487C83.2603 -9.80065 75.2678 5.12565 60.9349 6.33484Z" fill="url(#paint19_linear_2009_109128)"/>
<path d="M137.83 -30.7728C137.83 -30.7727 137.831 -30.7727 137.831 -30.7728C145.384 -38.7932 135.992 -52.6897 138.799 -62.4075C141.508 -71.7821 157.892 -81.4341 155.335 -91.4877C152.778 -101.542 132.672 -106.519 125.517 -114.63C118.1 -123.038 120.053 -138.388 109.025 -144.028C97.9968 -149.668 79.1648 -142.948 65.8803 -145.127C53.0653 -147.229 39.7038 -159.367 26.0276 -157.614C12.3509 -155.862 5.81228 -141.175 -5.15891 -136.026C-16.5321 -130.688 -37.485 -132.31 -45.0391 -124.29C-52.5933 -116.269 -43.2006 -102.373 -46.0078 -92.6547C-48.7161 -83.2801 -65.1011 -73.6281 -62.5439 -63.5745C-59.9868 -53.5205 -39.8811 -48.5437 -32.7254 -40.433C-25.3082 -32.0246 -27.2617 -16.6748 -16.2334 -11.0349C-5.20519 -5.39503 13.6268 -12.1142 26.9112 -9.93548C39.7263 -7.83362 53.0878 4.30406 66.764 2.55183C80.4407 0.799717 86.9793 -13.8876 97.9499 -19.0369C109.323 -24.3743 130.275 -22.7528 137.83 -30.7728C137.83 -30.7729 137.83 -30.7729 137.83 -30.7728ZM72.0383 -1.43868C59.0532 0.805313 45.3115 -10.3067 32.8588 -11.7996C19.95 -13.3477 2.39819 -6.12093 -8.6104 -11.0864C-19.619 -16.0518 -18.9144 -30.8771 -26.6705 -38.6498C-34.1521 -46.1478 -53.8176 -50.104 -57.0368 -59.6567C-60.256 -69.2094 -45.2748 -79.1531 -43.3918 -88.2692C-41.4396 -97.7193 -51.5087 -110.683 -44.8739 -118.697C-38.239 -126.712 -18.0169 -126.013 -7.51439 -131.606C2.61678 -137.002 7.76917 -151.379 20.7543 -153.623C33.7394 -155.867 47.4813 -144.756 59.9338 -143.262C72.8426 -141.714 90.3944 -148.941 101.403 -143.976C112.412 -139.01 111.707 -124.185 119.463 -116.412C126.945 -108.914 146.61 -104.958 149.829 -95.4052C153.049 -85.8525 138.067 -75.909 136.184 -66.7928C134.232 -57.3426 144.301 -44.3788 137.666 -36.3646C131.032 -28.3503 110.809 -29.0493 100.307 -23.4555C90.1758 -18.0596 85.0234 -3.68269 72.0383 -1.43868Z" fill="url(#paint20_linear_2009_109128)"/>
<path d="M136.938 -41.787C142.682 -49.7449 132.053 -61.7656 133.203 -70.9088C134.312 -79.7289 147.903 -89.8785 144.093 -98.9086C140.283 -107.939 121.149 -110.928 113.413 -117.812C105.394 -124.949 104.94 -139.197 94.0191 -143.508C83.0983 -147.819 66.8392 -140.17 54.3588 -141.126C42.3193 -142.048 28.3137 -152.142 16.0484 -149.459C3.78312 -146.775 -0.0568626 -132.776 -9.34886 -127.186C-18.9812 -121.391 -38.4013 -121.233 -44.145 -113.275C-49.8893 -105.317 -39.2598 -93.2966 -40.4098 -84.1534C-41.5193 -75.3333 -55.1103 -65.1837 -51.3003 -56.1536C-47.4904 -47.1235 -28.3558 -44.1346 -20.6203 -37.2498C-12.6007 -30.1129 -12.1471 -15.8655 -1.22617 -11.5544C9.69464 -7.24291 25.9537 -14.8923 38.4342 -13.9364C50.4736 -13.0141 64.4792 -2.91983 76.7445 -5.60358C89.0098 -8.28734 92.8498 -22.2866 102.142 -27.8764C111.774 -33.6713 131.194 -33.829 136.938 -41.787ZM80.8746 -9.90884C69.3525 -6.83808 55.1961 -15.9294 43.6156 -16.3205C31.6112 -16.7256 16.648 -8.7378 5.88041 -12.4187C-4.88774 -16.0998 -6.40391 -29.7218 -14.6126 -36.2266C-22.5312 -42.5016 -41.0511 -44.5813 -45.3797 -53.0706C-49.7084 -61.5598 -37.4866 -71.8329 -37.0957 -80.3229C-36.6909 -89.1236 -47.7658 -100.198 -42.8793 -108.051C-37.9927 -115.905 -19.4385 -116.85 -10.6704 -122.791C-2.2119 -128.523 0.395998 -142.082 11.9175 -145.153C23.4396 -148.224 37.596 -139.132 49.1766 -138.741C61.181 -138.336 76.1442 -146.324 86.9117 -142.643C97.6799 -138.962 99.1961 -125.34 107.405 -118.835C115.323 -112.56 133.843 -110.481 138.172 -101.991C142.5 -93.5016 130.279 -83.229 129.888 -74.739C129.483 -65.9382 140.558 -54.8639 135.671 -47.0107C130.785 -39.157 112.231 -38.2123 103.463 -32.2708C95.0041 -26.5394 92.3962 -12.9797 80.8746 -9.90884Z" fill="url(#paint21_linear_2009_109128)"/>
<path d="M133.898 -52.0087C137.966 -59.7127 126.558 -69.8429 126.277 -78.2694C126.006 -86.3978 136.89 -96.713 132.116 -104.649C127.342 -112.585 109.512 -113.816 101.48 -119.49C93.1539 -125.371 90.6739 -138.326 80.1198 -141.404C69.5656 -144.483 55.8938 -136.239 44.4081 -136.137C33.3288 -136.038 19.1307 -144.148 8.36892 -140.744C-2.39286 -137.339 -3.85252 -124.275 -11.4892 -118.453C-19.4056 -112.418 -37.0387 -110.758 -41.106 -103.054C-45.1733 -95.35 -33.7657 -85.2198 -33.485 -76.7933C-33.2138 -68.665 -44.0971 -58.3496 -39.3234 -50.4137C-34.5492 -42.4776 -16.7195 -41.2463 -8.68772 -35.5729C-0.361493 -29.6917 2.11856 -16.7367 12.6727 -13.6584C23.2268 -10.5802 36.8986 -18.8237 48.3843 -18.926C59.4636 -19.0251 73.6619 -10.9149 84.4235 -14.3191C95.1853 -17.7236 96.645 -30.7873 104.282 -36.6092C112.198 -42.6446 129.831 -44.3046 133.898 -52.0087ZM104.614 -40.8643C97.7827 -35.0011 97.3808 -22.4842 87.3908 -18.7993C77.4009 -15.1145 63.2672 -22.2704 52.7238 -21.7254C41.7942 -21.1601 29.3992 -12.7422 19.1158 -15.248C8.8324 -17.7539 5.49088 -30.0069 -2.88306 -35.2761C-10.9611 -40.3592 -28.0323 -40.8079 -33.1793 -48.1812C-38.3262 -55.5546 -28.7431 -65.8343 -29.6157 -73.575C-30.5209 -81.5993 -42.1506 -90.795 -38.8604 -98.3075C-35.5702 -105.82 -18.9049 -108.121 -11.8234 -114.198C-4.99219 -120.062 -4.59024 -132.579 5.3997 -136.263C15.3896 -139.948 29.5234 -132.792 40.0667 -133.337C50.9963 -133.903 63.3913 -142.321 73.6747 -139.815C83.9581 -137.309 87.2996 -125.056 95.6736 -119.787C103.752 -114.703 120.823 -114.255 125.97 -106.881C131.117 -99.5081 121.534 -89.2284 122.406 -81.4877C123.311 -73.4634 134.941 -64.2677 131.651 -56.7552C128.361 -49.2427 111.695 -46.9421 104.614 -40.8643Z" fill="url(#paint22_linear_2009_109128)"/>
<path d="M118.314 -84.3827C116.901 -91.7118 125.229 -101.882 119.782 -108.688C114.336 -115.494 98.0827 -115.227 90.0241 -119.736C81.6703 -124.41 77.5703 -135.932 67.6115 -137.898C57.6528 -139.865 46.5112 -131.352 36.1706 -130.37C26.1951 -129.423 12.2264 -135.658 3.01339 -131.746C-6.19958 -127.834 -5.63612 -115.909 -11.6844 -110.053C-17.954 -103.982 -33.6136 -101.116 -36.1723 -93.8354C-38.731 -86.5544 -26.9877 -78.2769 -25.5219 -70.6796C-24.108 -63.3506 -32.4364 -53.1805 -26.9898 -46.3743C-21.5432 -39.5681 -5.29011 -39.8349 2.76846 -35.3262C11.1223 -30.6526 15.2223 -19.1304 25.1811 -17.164C35.1398 -15.1976 46.2814 -23.7101 56.622 -24.6919C66.5974 -25.6389 80.5662 -19.4047 89.7792 -23.3164C98.9922 -27.228 98.4287 -39.1537 104.477 -45.0095C110.747 -51.08 126.406 -53.9459 128.965 -61.2269C131.524 -68.5079 119.78 -76.7854 118.314 -84.3827ZM103.889 -49.019C98.599 -43.2165 100.031 -31.9208 91.5944 -27.8353C83.1575 -23.7498 69.4499 -29.1004 60.0669 -27.7973C50.3405 -26.4466 40.423 -17.916 30.8368 -19.3786C21.2506 -20.8413 16.4972 -31.6105 8.22833 -35.7073C0.251893 -39.6595 -15.1317 -38.7477 -20.8058 -44.9867C-26.4799 -51.2257 -19.353 -61.2151 -21.2451 -68.1139C-23.2063 -75.2652 -34.9592 -82.645 -33.0828 -89.6589C-31.2064 -96.6728 -16.5815 -100.027 -11.0972 -106.042C-5.80672 -111.845 -7.23898 -123.141 1.19787 -127.226C9.63472 -131.312 23.3424 -125.961 32.7254 -127.264C42.4517 -128.615 52.3692 -137.145 61.9554 -135.683C71.5416 -134.22 76.295 -123.451 84.5639 -119.354C92.5403 -115.402 107.924 -116.314 113.598 -110.075C119.272 -103.836 112.145 -93.8464 114.037 -86.9475C115.999 -79.7963 127.751 -72.4165 125.875 -65.4026C123.999 -58.3887 109.374 -55.0342 103.889 -49.019Z" fill="url(#paint23_linear_2009_109128)"/>
<defs>
<linearGradient id="paint0_linear_2009_109128" x1="-43.9431" y1="15.9399" x2="14.3545" y2="-19.079" gradientUnits="userSpaceOnUse">
<stop stop-color="#FFB6D5"/>
<stop offset="0.1" stop-color="#FFE3C0"/>
<stop offset="0.29" stop-color="#C7FBDB"/>
<stop offset="0.43" stop-color="#C7CDF4"/>
<stop offset="0.54" stop-color="#FFBCD4"/>
<stop offset="0.66" stop-color="#FFE0C3"/>
<stop offset="0.76" stop-color="#B0F1D4"/>
<stop offset="0.84" stop-color="#C9CEEC"/>
<stop offset="0.91" stop-color="#FFC1DA"/>
<stop offset="1" stop-color="#BDFFE3"/>
</linearGradient>
<linearGradient id="paint1_linear_2009_109128" x1="55.3631" y1="17.5869" x2="113.422" y2="-14.0062" gradientUnits="userSpaceOnUse">
<stop stop-color="#FFB6D5"/>
<stop offset="0.1" stop-color="#FFE3C0"/>
<stop offset="0.29" stop-color="#C7FBDB"/>
<stop offset="0.43" stop-color="#C7CDF4"/>
<stop offset="0.54" stop-color="#FFBCD4"/>
<stop offset="0.66" stop-color="#FFE0C3"/>
<stop offset="0.76" stop-color="#B0F1D4"/>
<stop offset="0.84" stop-color="#C9CEEC"/>
<stop offset="0.91" stop-color="#FFC1DA"/>
<stop offset="1" stop-color="#BDFFE3"/>
</linearGradient>
<linearGradient id="paint2_linear_2009_109128" x1="128.196" y1="5.85353" x2="129.884" y2="6.38243" gradientUnits="userSpaceOnUse">
<stop stop-color="#FFB6D5"/>
<stop offset="0.1" stop-color="#FFE3C0"/>
<stop offset="0.29" stop-color="#C7FBDB"/>
<stop offset="0.43" stop-color="#C7CDF4"/>
<stop offset="0.54" stop-color="#FFBCD4"/>
<stop offset="0.66" stop-color="#FFE0C3"/>
<stop offset="0.76" stop-color="#B0F1D4"/>
<stop offset="0.84" stop-color="#C9CEEC"/>
<stop offset="0.91" stop-color="#FFC1DA"/>
<stop offset="1" stop-color="#BDFFE3"/>
</linearGradient>
<linearGradient id="paint3_linear_2009_109128" x1="26.5573" y1="23.2222" x2="35.0379" y2="21.0774" gradientUnits="userSpaceOnUse">
<stop stop-color="#FFB6D5"/>
<stop offset="0.1" stop-color="#FFE3C0"/>
<stop offset="0.29" stop-color="#C7FBDB"/>
<stop offset="0.43" stop-color="#C7CDF4"/>
<stop offset="0.54" stop-color="#FFBCD4"/>
<stop offset="0.66" stop-color="#FFE0C3"/>
<stop offset="0.76" stop-color="#B0F1D4"/>
<stop offset="0.84" stop-color="#C9CEEC"/>
<stop offset="0.91" stop-color="#FFC1DA"/>
<stop offset="1" stop-color="#BDFFE3"/>
</linearGradient>
<linearGradient id="paint4_linear_2009_109128" x1="35.6329" y1="20.7773" x2="43.9249" y2="19.3708" gradientUnits="userSpaceOnUse">
<stop stop-color="#FFB6D5"/>
<stop offset="0.1" stop-color="#FFE3C0"/>
<stop offset="0.29" stop-color="#C7FBDB"/>
<stop offset="0.43" stop-color="#C7CDF4"/>
<stop offset="0.54" stop-color="#FFBCD4"/>
<stop offset="0.66" stop-color="#FFE0C3"/>
<stop offset="0.76" stop-color="#B0F1D4"/>
<stop offset="0.84" stop-color="#C9CEEC"/>
<stop offset="0.91" stop-color="#FFC1DA"/>
<stop offset="1" stop-color="#BDFFE3"/>
</linearGradient>
<linearGradient id="paint5_linear_2009_109128" x1="-29.2794" y1="11.4685" x2="16.4679" y2="-24.0249" gradientUnits="userSpaceOnUse">
<stop stop-color="#FFB6D5"/>
<stop offset="0.1" stop-color="#FFE3C0"/>
<stop offset="0.29" stop-color="#C7FBDB"/>
<stop offset="0.43" stop-color="#C7CDF4"/>
<stop offset="0.54" stop-color="#FFBCD4"/>
<stop offset="0.66" stop-color="#FFE0C3"/>
<stop offset="0.76" stop-color="#B0F1D4"/>
<stop offset="0.84" stop-color="#C9CEEC"/>
<stop offset="0.91" stop-color="#FFC1DA"/>
<stop offset="1" stop-color="#BDFFE3"/>
</linearGradient>
<linearGradient id="paint6_linear_2009_109128" x1="65.0976" y1="12.6424" x2="125.916" y2="-11.2756" gradientUnits="userSpaceOnUse">
<stop stop-color="#FFB6D5"/>
<stop offset="0.1" stop-color="#FFE3C0"/>
<stop offset="0.29" stop-color="#C7FBDB"/>
<stop offset="0.43" stop-color="#C7CDF4"/>
<stop offset="0.54" stop-color="#FFBCD4"/>
<stop offset="0.66" stop-color="#FFE0C3"/>
<stop offset="0.76" stop-color="#B0F1D4"/>
<stop offset="0.84" stop-color="#C9CEEC"/>
<stop offset="0.91" stop-color="#FFC1DA"/>
<stop offset="1" stop-color="#BDFFE3"/>
</linearGradient>
<linearGradient id="paint7_linear_2009_109128" x1="44.2918" y1="17.8241" x2="51.7746" y2="17.0779" gradientUnits="userSpaceOnUse">
<stop stop-color="#FFB6D5"/>
<stop offset="0.1" stop-color="#FFE3C0"/>
<stop offset="0.29" stop-color="#C7FBDB"/>
<stop offset="0.43" stop-color="#C7CDF4"/>
<stop offset="0.54" stop-color="#FFBCD4"/>
<stop offset="0.66" stop-color="#FFE0C3"/>
<stop offset="0.76" stop-color="#B0F1D4"/>
<stop offset="0.84" stop-color="#C9CEEC"/>
<stop offset="0.91" stop-color="#FFC1DA"/>
<stop offset="1" stop-color="#BDFFE3"/>
</linearGradient>
<linearGradient id="paint8_linear_2009_109128" x1="38.6099" y1="19.161" x2="47.0917" y2="17.8314" gradientUnits="userSpaceOnUse">
<stop stop-color="#FFB6D5"/>
<stop offset="0.1" stop-color="#FFE3C0"/>
<stop offset="0.29" stop-color="#C7FBDB"/>
<stop offset="0.43" stop-color="#C7CDF4"/>
<stop offset="0.54" stop-color="#FFBCD4"/>
<stop offset="0.66" stop-color="#FFE0C3"/>
<stop offset="0.76" stop-color="#B0F1D4"/>
<stop offset="0.84" stop-color="#C9CEEC"/>
<stop offset="0.91" stop-color="#FFC1DA"/>
<stop offset="1" stop-color="#BDFFE3"/>
</linearGradient>
<linearGradient id="paint9_linear_2009_109128" x1="56.1326" y1="12.3109" x2="60.1779" y2="12.1515" gradientUnits="userSpaceOnUse">
<stop stop-color="#FFB6D5"/>
<stop offset="0.1" stop-color="#FFE3C0"/>
<stop offset="0.29" stop-color="#C7FBDB"/>
<stop offset="0.43" stop-color="#C7CDF4"/>
<stop offset="0.54" stop-color="#FFBCD4"/>
<stop offset="0.66" stop-color="#FFE0C3"/>
<stop offset="0.76" stop-color="#B0F1D4"/>
<stop offset="0.84" stop-color="#C9CEEC"/>
<stop offset="0.91" stop-color="#FFC1DA"/>
<stop offset="1" stop-color="#BDFFE3"/>
</linearGradient>
<linearGradient id="paint10_linear_2009_109128" x1="50.1765" y1="15.0359" x2="55.8859" y2="14.6082" gradientUnits="userSpaceOnUse">
<stop stop-color="#FFB6D5"/>
<stop offset="0.1" stop-color="#FFE3C0"/>
<stop offset="0.29" stop-color="#C7FBDB"/>
<stop offset="0.43" stop-color="#C7CDF4"/>
<stop offset="0.54" stop-color="#FFBCD4"/>
<stop offset="0.66" stop-color="#FFE0C3"/>
<stop offset="0.76" stop-color="#B0F1D4"/>
<stop offset="0.84" stop-color="#C9CEEC"/>
<stop offset="0.91" stop-color="#FFC1DA"/>
<stop offset="1" stop-color="#BDFFE3"/>
</linearGradient>
<linearGradient id="paint11_linear_2009_109128" x1="47.3367" y1="15.6236" x2="49.9652" y2="15.095" gradientUnits="userSpaceOnUse">
<stop stop-color="#FFB6D5"/>
<stop offset="0.1" stop-color="#FFE3C0"/>
<stop offset="0.29" stop-color="#C7FBDB"/>
<stop offset="0.43" stop-color="#C7CDF4"/>
<stop offset="0.54" stop-color="#FFBCD4"/>
<stop offset="0.66" stop-color="#FFE0C3"/>
<stop offset="0.76" stop-color="#B0F1D4"/>
<stop offset="0.84" stop-color="#C9CEEC"/>
<stop offset="0.91" stop-color="#FFC1DA"/>
<stop offset="1" stop-color="#BDFFE3"/>
</linearGradient>
<linearGradient id="paint12_linear_2009_109128" x1="72.4217" y1="8.43334" x2="137.637" y2="-3.9197" gradientUnits="userSpaceOnUse">
<stop stop-color="#FFB6D5"/>
<stop offset="0.1" stop-color="#FFE3C0"/>
<stop offset="0.29" stop-color="#C7FBDB"/>
<stop offset="0.43" stop-color="#C7CDF4"/>
<stop offset="0.54" stop-color="#FFBCD4"/>
<stop offset="0.66" stop-color="#FFE0C3"/>
<stop offset="0.76" stop-color="#B0F1D4"/>
<stop offset="0.84" stop-color="#C9CEEC"/>
<stop offset="0.91" stop-color="#FFC1DA"/>
<stop offset="1" stop-color="#BDFFE3"/>
</linearGradient>
<linearGradient id="paint13_linear_2009_109128" x1="-15.9432" y1="5.74959" x2="16.7473" y2="-29.6673" gradientUnits="userSpaceOnUse">
<stop stop-color="#FFB6D5"/>
<stop offset="0.1" stop-color="#FFE3C0"/>
<stop offset="0.29" stop-color="#C7FBDB"/>
<stop offset="0.43" stop-color="#C7CDF4"/>
<stop offset="0.54" stop-color="#FFBCD4"/>
<stop offset="0.66" stop-color="#FFE0C3"/>
<stop offset="0.76" stop-color="#B0F1D4"/>
<stop offset="0.84" stop-color="#C9CEEC"/>
<stop offset="0.91" stop-color="#FFC1DA"/>
<stop offset="1" stop-color="#BDFFE3"/>
</linearGradient>
<linearGradient id="paint14_linear_2009_109128" x1="60.3725" y1="10.0663" x2="62.1318" y2="10.0485" gradientUnits="userSpaceOnUse">
<stop stop-color="#FFB6D5"/>
<stop offset="0.1" stop-color="#FFE3C0"/>
<stop offset="0.29" stop-color="#C7FBDB"/>
<stop offset="0.43" stop-color="#C7CDF4"/>
<stop offset="0.54" stop-color="#FFBCD4"/>
<stop offset="0.66" stop-color="#FFE0C3"/>
<stop offset="0.76" stop-color="#B0F1D4"/>
<stop offset="0.84" stop-color="#C9CEEC"/>
<stop offset="0.91" stop-color="#FFC1DA"/>
<stop offset="1" stop-color="#BDFFE3"/>
</linearGradient>
<linearGradient id="paint15_linear_2009_109128" x1="64.7767" y1="7.59217" x2="67.8214" y2="7.6904" gradientUnits="userSpaceOnUse">
<stop stop-color="#FFB6D5"/>
<stop offset="0.1" stop-color="#FFE3C0"/>
<stop offset="0.29" stop-color="#C7FBDB"/>
<stop offset="0.43" stop-color="#C7CDF4"/>
<stop offset="0.54" stop-color="#FFBCD4"/>
<stop offset="0.66" stop-color="#FFE0C3"/>
<stop offset="0.76" stop-color="#B0F1D4"/>
<stop offset="0.84" stop-color="#C9CEEC"/>
<stop offset="0.91" stop-color="#FFC1DA"/>
<stop offset="1" stop-color="#BDFFE3"/>
</linearGradient>
<linearGradient id="paint16_linear_2009_109128" x1="59.5521" y1="10.5745" x2="64.4226" y2="10.5844" gradientUnits="userSpaceOnUse">
<stop stop-color="#FFB6D5"/>
<stop offset="0.1" stop-color="#FFE3C0"/>
<stop offset="0.29" stop-color="#C7FBDB"/>
<stop offset="0.43" stop-color="#C7CDF4"/>
<stop offset="0.54" stop-color="#FFBCD4"/>
<stop offset="0.66" stop-color="#FFE0C3"/>
<stop offset="0.76" stop-color="#B0F1D4"/>
<stop offset="0.84" stop-color="#C9CEEC"/>
<stop offset="0.91" stop-color="#FFC1DA"/>
<stop offset="1" stop-color="#BDFFE3"/>
</linearGradient>
<linearGradient id="paint17_linear_2009_109128" x1="56.1484" y1="11.9561" x2="59.3471" y2="11.7901" gradientUnits="userSpaceOnUse">
<stop stop-color="#FFB6D5"/>
<stop offset="0.1" stop-color="#FFE3C0"/>
<stop offset="0.29" stop-color="#C7FBDB"/>
<stop offset="0.43" stop-color="#C7CDF4"/>
<stop offset="0.54" stop-color="#FFBCD4"/>
<stop offset="0.66" stop-color="#FFE0C3"/>
<stop offset="0.76" stop-color="#B0F1D4"/>
<stop offset="0.84" stop-color="#C9CEEC"/>
<stop offset="0.91" stop-color="#FFC1DA"/>
<stop offset="1" stop-color="#BDFFE3"/>
</linearGradient>
<linearGradient id="paint18_linear_2009_109128" x1="68.1066" y1="5.52446" x2="69.9899" y2="5.64682" gradientUnits="userSpaceOnUse">
<stop stop-color="#FFB6D5"/>
<stop offset="0.1" stop-color="#FFE3C0"/>
<stop offset="0.29" stop-color="#C7FBDB"/>
<stop offset="0.43" stop-color="#C7CDF4"/>
<stop offset="0.54" stop-color="#FFBCD4"/>
<stop offset="0.66" stop-color="#FFE0C3"/>
<stop offset="0.76" stop-color="#B0F1D4"/>
<stop offset="0.84" stop-color="#C9CEEC"/>
<stop offset="0.91" stop-color="#FFC1DA"/>
<stop offset="1" stop-color="#BDFFE3"/>
</linearGradient>
<linearGradient id="paint19_linear_2009_109128" x1="-86.0996" y1="-1.73276" x2="181.273" y2="-30.9951" gradientUnits="userSpaceOnUse">
<stop stop-color="#FFB6D5"/>
<stop offset="0.1" stop-color="#FFE3C0"/>
<stop offset="0.29" stop-color="#C7FBDB"/>
<stop offset="0.43" stop-color="#C7CDF4"/>
<stop offset="0.54" stop-color="#FFBCD4"/>
<stop offset="0.66" stop-color="#FFE0C3"/>
<stop offset="0.76" stop-color="#B0F1D4"/>
<stop offset="0.84" stop-color="#C9CEEC"/>
<stop offset="0.91" stop-color="#FFC1DA"/>
<stop offset="1" stop-color="#BDFFE3"/>
</linearGradient>
<linearGradient id="paint20_linear_2009_109128" x1="-77.6279" y1="-6.58068" x2="172.646" y2="-33.972" gradientUnits="userSpaceOnUse">
<stop stop-color="#FFB6D5"/>
<stop offset="0.1" stop-color="#FFE3C0"/>
<stop offset="0.29" stop-color="#C7FBDB"/>
<stop offset="0.43" stop-color="#C7CDF4"/>
<stop offset="0.54" stop-color="#FFBCD4"/>
<stop offset="0.66" stop-color="#FFE0C3"/>
<stop offset="0.76" stop-color="#B0F1D4"/>
<stop offset="0.84" stop-color="#C9CEEC"/>
<stop offset="0.91" stop-color="#FFC1DA"/>
<stop offset="1" stop-color="#BDFFE3"/>
</linearGradient>
<linearGradient id="paint21_linear_2009_109128" x1="-71.1851" y1="-10.2656" x2="166.089" y2="-36.2338" gradientUnits="userSpaceOnUse">
<stop stop-color="#FFB6D5"/>
<stop offset="0.1" stop-color="#FFE3C0"/>
<stop offset="0.29" stop-color="#C7FBDB"/>
<stop offset="0.43" stop-color="#C7CDF4"/>
<stop offset="0.54" stop-color="#FFBCD4"/>
<stop offset="0.66" stop-color="#FFE0C3"/>
<stop offset="0.76" stop-color="#B0F1D4"/>
<stop offset="0.84" stop-color="#C9CEEC"/>
<stop offset="0.91" stop-color="#FFC1DA"/>
<stop offset="1" stop-color="#BDFFE3"/>
</linearGradient>
<linearGradient id="paint22_linear_2009_109128" x1="-62.9863" y1="-14.9564" x2="157.743" y2="-39.1138" gradientUnits="userSpaceOnUse">
<stop stop-color="#FFB6D5"/>
<stop offset="0.1" stop-color="#FFE3C0"/>
<stop offset="0.29" stop-color="#C7FBDB"/>
<stop offset="0.43" stop-color="#C7CDF4"/>
<stop offset="0.54" stop-color="#FFBCD4"/>
<stop offset="0.66" stop-color="#FFE0C3"/>
<stop offset="0.76" stop-color="#B0F1D4"/>
<stop offset="0.84" stop-color="#C9CEEC"/>
<stop offset="0.91" stop-color="#FFC1DA"/>
<stop offset="1" stop-color="#BDFFE3"/>
</linearGradient>
<linearGradient id="paint23_linear_2009_109128" x1="-53.3349" y1="-20.4774" x2="147.918" y2="-42.5034" gradientUnits="userSpaceOnUse">
<stop stop-color="#FFB6D5"/>
<stop offset="0.1" stop-color="#FFE3C0"/>
<stop offset="0.29" stop-color="#C7FBDB"/>
<stop offset="0.43" stop-color="#C7CDF4"/>
<stop offset="0.54" stop-color="#FFBCD4"/>
<stop offset="0.66" stop-color="#FFE0C3"/>
<stop offset="0.76" stop-color="#B0F1D4"/>
<stop offset="0.84" stop-color="#C9CEEC"/>
<stop offset="0.91" stop-color="#FFC1DA"/>
<stop offset="1" stop-color="#BDFFE3"/>
</linearGradient>
</defs>
</svg>
