<svg width="362" height="97" viewBox="0 0 362 97" fill="none" xmlns="http://www.w3.org/2000/svg">
<path d="M76.1691 48.3843C76.1692 48.3844 76.1694 48.3843 76.1694 48.3841C73.4603 42.794 69.595 37.4418 65.0706 32.2085C64.9307 32.0467 64.7748 31.8992 64.6064 31.7673C61.3342 29.2043 58.2453 26.5457 55.4493 23.7448C55.3231 23.64 55.1449 23.8064 55.2405 23.9398C58.5765 28.5969 61.3917 33.3213 63.3994 38.1618C77.3836 71.8866 61.866 126.302 87.2809 151.718C91.915 156.352 97.5136 159.625 103.775 161.964C105.532 162.62 107.118 158.312 105.717 157.065C79.6569 133.873 91.6218 80.2727 76.1689 48.3844C76.1688 48.3843 76.169 48.3841 76.1691 48.3843Z" fill="url(#paint0_radial_1223_3944)"/>
<path d="M28.1923 -4.85254C28.1919 -4.85254 28.1916 -4.85206 28.1919 -4.8517C31.8372 0.365826 36.3542 5.2815 41.3038 10.0286C39.9891 8.45247 38.7604 6.841 37.6315 5.18886C37.2298 4.60096 36.7793 4.04743 36.2732 3.5465C33.4804 0.781764 30.762 -2.01204 28.1927 -4.85236C28.1926 -4.85248 28.1925 -4.85254 28.1923 -4.85254Z" fill="url(#paint1_radial_1223_3944)"/>
<path d="M102.735 65.3873C102.734 65.3873 102.734 65.3871 102.734 65.3868C98.1425 58.1867 91.2983 51.7312 83.6126 45.5022C80.454 43.5046 77.3897 41.4467 74.499 39.2881C80.5056 45.0808 85.7297 51.0521 89.311 57.4625C106.069 87.4613 97.5076 140.025 124.043 161.007C127.807 163.983 132.028 166.124 136.592 167.636C136.764 167.693 136.943 167.727 137.124 167.738C138.407 167.815 139.695 167.885 140.986 167.949C142.804 168.039 143.648 164.613 142.157 163.569C115.312 144.772 120.632 93.4559 102.736 65.3879C102.736 65.3876 102.735 65.3873 102.735 65.3873Z" fill="url(#paint2_radial_1223_3944)"/>
<path d="M51.4129 19.3376C51.0298 18.8781 50.6145 18.4461 50.1625 18.0542C47.1224 15.4179 44.1428 12.7503 41.3037 10.0283C44.9459 14.3922 49.2428 18.4853 53.8764 22.423C53.9735 22.5055 54.1052 22.3824 54.0288 22.2804C53.1201 21.3176 52.2464 20.3373 51.4129 19.3376Z" fill="url(#paint3_radial_1223_3944)"/>
<path d="M37.9281 3.5409C37.3513 2.92155 36.53 3.52465 36.9929 4.23319C37.0213 4.27673 37.0547 4.31759 37.0918 4.35404C40.6142 7.81715 44.2422 11.2374 47.8278 14.6497C47.8556 14.6761 47.9002 14.6387 47.8793 14.6066C44.7269 10.9064 41.3605 7.22654 37.9281 3.5409Z" fill="url(#paint4_radial_1223_3944)"/>
<path d="M62.632 29.4639C62.6321 29.4639 62.6322 29.4639 62.6322 29.464C63.2532 30.1446 63.864 30.827 64.464 31.511C64.7288 31.8129 65.0204 32.0904 65.3382 32.3359C67.0909 33.6896 68.8936 35.0184 70.7281 36.3271C69.0249 34.9144 67.4009 33.4565 65.8788 31.942C64.7923 31.1195 63.7095 30.2945 62.6317 29.4645C62.6314 29.4643 62.6316 29.4639 62.632 29.4639Z" fill="url(#paint5_radial_1223_3944)"/>
<path d="M58.8621 25.4632C58.8623 25.4632 58.8624 25.4629 58.8622 25.4628C57.4207 24.2446 55.9751 23.0245 54.5337 21.8004C54.2342 21.5461 53.794 21.9642 54.0286 22.2794C54.4927 22.7712 54.967 23.2593 55.4487 23.7436C56.6297 24.7234 57.8294 25.6945 59.0429 26.6586C59.4244 26.9617 59.8536 26.4924 59.516 26.1411C59.2988 25.9152 59.0808 25.6893 58.8619 25.4636C58.8617 25.4635 58.8618 25.4632 58.8621 25.4632Z" fill="url(#paint6_radial_1223_3944)"/>
<path d="M48.2828 15.0834C48.2825 15.0834 48.2821 15.0833 48.2818 15.083C48.2787 15.08 48.2756 15.0771 48.2725 15.0741C48.2431 15.0461 48.1972 15.0849 48.22 15.1184C49.0341 16.3169 49.9083 17.4873 50.8336 18.6328C50.8393 18.6398 50.8455 18.6463 50.8524 18.6522C50.9915 18.7726 51.1777 18.5937 51.0624 18.4502C50.1591 17.3254 49.2314 16.2036 48.2839 15.0839C48.2837 15.0836 48.2833 15.0834 48.2828 15.0834Z" fill="url(#paint7_radial_1223_3944)"/>
<path d="M177.369 164.725C177.369 164.726 177.369 164.726 177.368 164.726C150.384 150.175 149.754 101.917 130.076 77.7814C122.973 69.0678 111.883 62.2109 100.306 55.4382C97.7025 54.0495 95.1426 52.6268 92.662 51.1475C102.06 57.6106 110.674 64.3015 116.352 72.1572C135.221 98.2665 132.971 148.143 159.963 164.793C163.645 167.065 167.636 168.57 171.864 169.492C172.01 169.505 172.155 169.517 172.301 169.53C177.285 169.439 182.251 169.379 187.12 169.477C187.65 169.436 187.682 168.344 187.162 168.236C183.742 167.529 180.466 166.394 177.369 164.725C177.369 164.725 177.369 164.725 177.369 164.725Z" fill="url(#paint8_radial_1223_3944)"/>
<path d="M54.5019 13.8994C54.5025 13.8994 54.503 13.8988 54.5028 13.8982C45.3527 -16.6714 79.4754 -51.1189 82.5396 -81.0016C83.7435 -92.7367 80.7609 -105.861 77.3822 -119.105C76.5444 -121.903 75.7582 -124.685 75.0663 -127.441C77.1117 -115.943 78.4338 -104.726 76.8086 -94.6815C71.8461 -64.0046 34.5337 -30.4811 42.1454 1.63977C43.2574 6.3343 45.2424 10.6238 47.8752 14.6076C48.0111 14.7661 48.1457 14.9259 48.2803 15.0844C51.9068 18.5386 55.4844 21.9866 58.8593 25.4647C60.3777 26.7478 61.8922 28.0309 63.3916 29.3139C59.354 24.7619 56.2383 19.7016 54.501 13.9006C54.5008 13.9 54.5013 13.8994 54.5019 13.8994Z" fill="url(#paint9_radial_1223_3944)"/>
<path d="M70.7275 36.3271C71.9452 37.3373 73.2044 38.3222 74.4988 39.2883C74.2699 39.0672 74.0399 38.8466 73.8086 38.6263C73.45 38.2847 73.0641 37.973 72.6581 37.6893C72.011 37.2371 71.3671 36.7829 70.7275 36.3271Z" fill="url(#paint10_radial_1223_3944)"/>
<path d="M80.3867 42.9355C81.4748 43.7872 82.5516 44.6425 83.612 45.5017C84.9542 46.3508 86.314 47.1873 87.6839 48.0175C86.0499 46.9294 84.4699 45.8048 82.9541 44.64C82.0992 44.073 81.2431 43.506 80.3895 42.9378C80.3885 42.9371 80.3876 42.9364 80.3867 42.9355Z" fill="url(#paint11_radial_1223_3944)"/>
<path d="M72.7235 37.6014C73.0875 37.9421 73.4746 38.2574 73.8849 38.5408C76.0296 40.0223 78.2055 41.4838 80.3877 42.9359C76.8857 40.1949 73.2579 37.4854 69.625 34.7607C70.6742 35.7044 71.7081 36.6508 72.7235 37.6014Z" fill="url(#paint12_radial_1223_3944)"/>
<path d="M65.8779 31.9403C67.1233 32.8837 68.3736 33.8221 69.624 34.7605C67.595 32.9366 65.5094 31.1226 63.3936 29.3125C64.1873 30.2069 65.0163 31.0836 65.8779 31.9403Z" fill="url(#paint13_radial_1223_3944)"/>
<path d="M87.6844 48.0176C87.6844 48.0178 87.6845 48.0179 87.6847 48.018C89.2973 49.0922 90.9602 50.1337 92.662 51.1475C92.0658 50.7375 91.4657 50.3274 90.8632 49.9186C89.7993 49.2885 88.7391 48.656 87.6853 48.0171C87.6849 48.0169 87.6844 48.0171 87.6844 48.0176Z" fill="url(#paint14_radial_1223_3944)"/>
<path d="M439.269 95.1805C439.269 95.1808 439.269 95.1809 439.269 95.1807C461.429 74.8594 507.908 71.5422 520.418 44.716C523.699 37.6817 524.238 29.8965 523.273 21.6974C522.628 18.4142 521.978 15.1286 521.373 11.8592C520.476 8.28296 519.532 4.69162 518.619 1.10782C513.428 -16.2175 506.221 -34.1139 506.916 -49.8869C508.192 -78.8618 539.15 -113.983 528.612 -142.934C525.706 -150.917 520.082 -157.231 513.048 -162.638C510.392 -164.398 507.742 -166.151 505.139 -167.917C502.002 -169.774 498.832 -171.602 495.696 -173.436C479.833 -181.902 462.389 -189.136 452.182 -200.266C431.861 -222.425 428.544 -268.905 401.717 -281.415C394.683 -284.696 386.898 -285.236 378.699 -284.271C375.415 -283.626 372.13 -282.975 368.86 -282.37C365.284 -281.473 361.693 -280.53 358.109 -279.617C340.784 -274.425 322.887 -267.219 307.114 -267.913C278.139 -269.19 243.018 -300.147 214.067 -289.609C206.085 -286.704 199.77 -281.079 194.363 -274.045C192.604 -271.39 190.85 -268.739 189.084 -266.137C187.227 -262.999 185.4 -259.829 183.565 -256.694C175.101 -240.83 167.865 -223.386 156.735 -213.18C134.576 -192.858 88.0958 -189.541 75.5859 -162.715C72.3052 -155.68 71.7656 -147.895 72.7304 -139.696C73.3757 -136.413 74.026 -133.127 74.6311 -129.858C75.528 -126.281 76.4714 -122.69 77.3847 -119.106C82.5761 -101.781 89.7827 -83.8846 89.0883 -68.1116C87.8116 -39.1367 56.8542 -4.01569 67.3918 24.9353C70.2976 32.918 75.9217 39.2328 82.956 44.6393C85.6115 46.3991 88.2619 48.1526 90.8645 49.9188C94.0018 51.7755 97.1717 53.6032 100.308 55.4373C116.171 63.9018 133.615 71.1373 143.822 82.2674C164.143 104.427 167.46 150.907 194.287 163.417C201.321 166.697 209.106 167.237 217.305 166.272C220.588 165.627 223.874 164.977 227.143 164.372C230.72 163.475 234.311 162.531 237.895 161.618C255.22 156.427 273.117 149.22 288.89 149.914C317.864 151.191 352.986 182.148 381.936 171.611C389.919 168.705 396.234 163.081 401.64 156.047C403.4 153.391 405.154 150.741 406.92 148.138C408.777 145.001 410.604 141.831 412.438 138.695C420.903 122.832 428.138 105.388 439.268 95.1803C439.268 95.1801 439.269 95.1803 439.269 95.1805ZM391.732 158.292C364.453 170.059 328.908 142.227 300.943 142.624C271.953 143.034 237.156 171.465 210.631 160.926C184.105 150.387 178.305 105.829 157.5 85.6373C137.431 66.1585 92.4772 62.0111 80.7106 34.7319C68.9441 7.45273 96.7755 -28.0922 96.3792 -56.057C95.9691 -85.047 67.5377 -119.843 78.0765 -146.369C88.6154 -172.895 133.173 -178.695 153.365 -199.5C172.844 -219.569 176.992 -264.523 204.271 -276.289C231.55 -288.056 267.095 -260.224 295.06 -260.621C324.05 -261.031 358.846 -289.462 385.372 -278.923C411.898 -268.385 417.698 -223.827 438.502 -203.635C458.571 -184.156 503.525 -180.008 515.292 -152.729C527.059 -125.45 499.227 -89.905 499.623 -61.9402C500.033 -32.9503 528.465 1.84622 517.926 28.3719C507.387 54.8976 462.829 60.6978 442.637 81.5025C423.158 101.571 419.011 146.526 391.732 158.292Z" fill="url(#paint15_radial_1223_3944)"/>
<path d="M514.313 12.6789C514.313 12.6792 514.313 12.679 514.314 12.6786C522.958 -13.4117 493.678 -45.2705 491.661 -73.1155C489.715 -99.977 514.479 -135.706 501.64 -161.27C488.8 -186.836 445.353 -188.307 424.968 -205.909C403.838 -224.156 395.767 -266.666 369.677 -275.312C343.586 -283.957 311.727 -254.677 283.882 -252.659C257.02 -250.713 221.292 -275.478 195.727 -262.638C170.161 -249.799 168.69 -206.352 151.088 -185.967C132.841 -164.836 90.3311 -156.766 81.6854 -130.675C73.0397 -104.585 102.32 -72.7255 104.338 -44.8803C106.284 -18.0187 81.5193 17.7099 94.3589 43.2745C107.198 68.8405 150.646 70.3109 171.03 87.9117C192.161 106.159 200.231 148.669 226.322 157.315C252.412 165.96 284.272 136.68 312.117 134.662C338.978 132.716 374.707 157.481 400.272 144.641C425.838 131.802 427.308 88.3545 444.909 67.97C463.156 46.8397 505.665 38.7689 514.312 12.6791C514.312 12.6787 514.312 12.6786 514.313 12.6789ZM407.558 130.76C383.735 144.514 348.054 122.738 322.379 126.11C295.763 129.603 266.818 159.491 241.29 152.65C215.762 145.81 205.639 105.455 184.335 89.1206C163.785 73.3639 121.997 74.3816 108.243 50.5591C94.4885 26.7367 116.263 -8.94409 112.893 -34.6194C109.4 -61.2357 79.5117 -90.1804 86.3523 -115.709C93.1928 -141.237 133.548 -151.359 149.882 -172.663C165.639 -193.214 164.621 -235.002 188.444 -248.756C212.266 -262.51 247.947 -240.735 273.622 -244.105C300.238 -247.599 329.183 -277.487 354.711 -270.646C380.239 -263.806 390.362 -223.45 411.666 -207.116C432.217 -191.36 474.005 -192.377 487.759 -168.555C501.513 -144.732 479.737 -109.052 483.108 -83.3763C486.601 -56.7601 516.489 -27.8154 509.649 -2.2872C502.808 23.241 462.453 33.3634 446.119 54.6675C430.362 75.2181 431.38 117.006 407.558 130.76Z" fill="url(#paint16_radial_1223_3944)"/>
<path d="M504.004 -16.4628C509.136 -41.3105 478.876 -67.3821 474.042 -92.6951C469.379 -117.114 488.257 -152.524 473.745 -174.588C459.234 -196.652 419.242 -193.344 398.668 -207.298C377.339 -221.762 365.385 -259.874 340.537 -265.003C315.689 -270.134 289.618 -239.875 264.305 -235.041C239.886 -230.378 204.476 -249.255 182.412 -234.744C160.348 -220.233 163.656 -180.241 149.702 -159.667C135.237 -138.337 97.1262 -126.383 91.9964 -101.536C86.8654 -76.6881 117.125 -50.6165 121.959 -25.3035C126.622 -0.884766 107.744 34.5256 122.256 56.5894C136.767 78.6533 176.759 75.345 197.333 89.299C218.662 103.764 230.616 141.875 255.464 147.005C280.312 152.136 306.383 121.877 331.696 117.042C356.115 112.379 391.525 131.257 413.589 116.746C435.653 102.234 432.345 62.2425 446.299 41.668C460.764 20.3388 498.875 8.3848 504.004 -16.4628ZM418.378 102.696C398.078 117.808 363.149 101.722 340.046 107.544C316.098 113.579 292.84 143.981 268.784 140.457C244.726 136.934 231.166 101.139 209.955 88.489C189.494 76.2859 151.418 81.6786 136.305 61.3796C121.193 41.0806 137.279 6.15076 131.457 -16.9522C125.422 -40.9004 95.0205 -64.158 98.5439 -88.2144C102.067 -112.272 137.863 -125.832 150.512 -147.043C162.715 -167.505 157.323 -205.581 177.622 -220.693C197.922 -235.806 232.85 -219.72 255.953 -225.541C279.902 -231.577 303.159 -261.978 327.216 -258.455C351.273 -254.931 364.834 -219.136 386.045 -206.486C406.506 -194.283 444.582 -199.676 459.694 -179.377C474.807 -159.077 458.721 -124.148 464.542 -101.045C470.578 -77.0969 500.979 -53.8393 497.456 -29.7829C493.932 -5.72525 458.137 7.83508 445.487 29.0461C433.284 49.5074 438.677 87.5833 418.378 102.696Z" fill="url(#paint17_radial_1223_3944)"/>
<path d="M490.086 -42.1937C492.112 -65.362 461.789 -85.8786 454.694 -108.412C447.85 -130.147 461.269 -164.397 445.709 -182.941C430.149 -201.485 394.09 -194.217 373.873 -204.732C352.915 -215.632 337.975 -249.058 314.806 -251.085C291.638 -253.111 271.121 -222.788 248.588 -215.693C226.853 -208.849 192.603 -222.268 174.059 -206.708C155.515 -191.147 162.783 -155.089 152.268 -134.872C141.368 -113.914 107.942 -98.9736 105.915 -75.8052C103.889 -52.6369 134.212 -32.1203 141.307 -9.5872C148.151 12.1483 134.733 46.3976 150.292 64.9419C165.853 83.4861 201.911 76.2178 222.128 86.7328C243.086 97.6326 258.026 131.059 281.195 133.086C304.363 135.112 324.88 104.789 347.413 97.6942C369.148 90.8499 403.398 104.268 421.942 88.709C440.486 73.1485 433.218 37.0903 443.733 16.8731C454.633 -4.08508 488.059 -19.0253 490.086 -42.1937ZM441.084 5.21344C432.186 25.0634 441.113 59.0208 424.306 74.8782C407.498 90.7355 374.117 79.8494 353.783 87.5768C332.704 95.5885 314.837 125.624 292.646 124.978C270.455 124.333 254.363 93.3091 233.786 84.0861C213.936 75.1888 179.979 84.1151 164.122 67.308C148.264 50.501 159.15 17.1196 151.423 -3.2146C143.411 -24.2935 113.376 -42.161 114.021 -64.3519C114.667 -86.5428 145.691 -102.634 154.914 -123.211C163.811 -143.061 154.885 -177.018 171.692 -192.876C188.499 -208.733 221.88 -197.847 242.214 -205.574C263.293 -213.586 281.161 -243.621 303.352 -242.976C325.543 -242.331 341.634 -211.307 362.211 -202.084C382.061 -193.186 416.018 -202.113 431.876 -185.306C447.733 -168.499 436.847 -135.117 444.574 -114.783C452.586 -93.7041 482.621 -75.8367 481.976 -53.6458C481.331 -31.4548 450.307 -15.3636 441.084 5.21344Z" fill="url(#paint18_radial_1223_3944)"/>
<path d="M434.271 -120.153C425.797 -139.057 434.298 -171.398 418.291 -186.5C402.284 -201.601 370.493 -191.233 351.127 -198.594C331.052 -206.225 314.035 -234.83 292.902 -234.215C271.769 -233.6 256.443 -204.054 236.847 -195.27C217.943 -186.796 185.602 -195.297 170.5 -179.29C155.399 -163.283 165.767 -131.492 158.406 -112.126C150.775 -92.0513 122.17 -75.0342 122.785 -53.9012C123.4 -32.7682 152.946 -17.4418 161.73 2.15407C170.204 21.058 161.703 53.3991 177.71 68.5004C193.717 83.6017 225.508 73.2339 244.874 80.5953C264.949 88.2258 281.966 116.831 303.099 116.216C324.232 115.601 339.558 86.0547 359.154 77.2706C378.058 68.7973 410.399 77.2983 425.5 61.2913C440.602 45.2843 430.234 13.493 437.595 -5.87268C445.226 -25.9478 473.831 -42.9649 473.216 -64.0979C472.601 -85.2309 443.055 -100.557 434.271 -120.153ZM433.326 -16.3247C427.415 2.44717 439.004 32.0258 425.566 48.0404C412.128 64.0549 380.986 57.7792 363.525 66.8601C345.425 76.2731 332.523 105.141 312.514 106.892C292.506 108.643 274.787 82.4545 255.327 76.3272C236.555 70.4162 206.976 82.0054 190.962 68.5671C174.947 55.1288 181.223 23.9877 172.142 6.52658C162.729 -11.5736 133.861 -24.476 132.11 -44.4845C130.359 -64.4929 156.548 -82.2119 162.675 -101.672C168.586 -120.444 156.997 -150.022 170.435 -166.037C183.873 -182.052 215.014 -175.776 232.476 -184.857C250.576 -194.27 263.478 -223.138 283.487 -224.889C303.495 -226.64 321.214 -200.451 340.674 -194.324C359.446 -188.413 389.025 -200.002 405.039 -186.564C421.054 -173.125 414.778 -141.984 423.859 -124.523C433.272 -106.423 462.14 -93.5206 463.891 -73.5122C465.642 -53.5037 439.453 -35.7847 433.326 -16.3247Z" fill="url(#paint19_radial_1223_3944)"/>
<path d="M413.424 -127.903C403.874 -143.916 408.094 -173.714 392.208 -185.541C376.321 -197.368 348.986 -184.778 330.906 -189.335C312.164 -194.058 293.963 -217.85 275.136 -215.092C256.309 -212.334 245.697 -184.322 229.096 -174.421C213.083 -164.871 183.285 -169.091 171.458 -153.205C159.631 -137.318 172.221 -109.983 167.664 -91.9026C162.941 -73.1609 139.149 -54.9601 141.907 -36.1328C144.665 -17.3056 172.677 -6.69377 182.578 9.90695C192.128 25.9202 187.908 55.7178 203.794 67.5447C219.681 79.3717 247.016 66.7824 265.096 71.3386C283.838 76.0621 302.039 99.8543 320.866 97.0957C339.693 94.3383 350.305 66.3258 366.906 56.4247C382.919 46.8747 412.717 51.0949 424.544 35.2087C436.371 19.3224 423.781 -8.01332 428.338 -26.0934C433.061 -44.8351 456.853 -63.0359 454.095 -81.8631C451.336 -100.69 423.325 -111.302 413.424 -127.903ZM422.693 -35.1315C419.39 -17.8351 432.762 7.24648 422.483 22.8748C412.205 38.5032 383.878 36.1597 369.305 46.0432C354.197 56.2889 345.73 83.2825 328.129 86.9167C310.53 90.5508 292.062 69.1184 274.133 65.6943C256.837 62.3911 231.755 75.7627 216.127 65.4843C200.499 55.2058 202.842 26.8788 192.959 12.3058C182.713 -2.80177 155.719 -11.2688 152.085 -28.8696C148.451 -46.4691 169.883 -64.9366 173.308 -82.8657C176.611 -100.162 163.239 -125.244 173.518 -140.872C183.796 -156.5 212.123 -154.157 226.696 -164.04C241.804 -174.286 250.271 -201.28 267.871 -204.914C285.471 -208.548 303.938 -187.116 321.868 -183.692C339.164 -180.388 364.245 -193.76 379.874 -183.481C395.502 -173.203 393.159 -144.876 403.042 -130.303C413.288 -115.195 440.282 -106.728 443.916 -89.1276C447.55 -71.5281 426.117 -53.0606 422.693 -35.1315Z" fill="url(#paint20_radial_1223_3944)"/>
<path d="M392.793 -131.744C382.71 -144.895 383.36 -171.639 368.114 -180.441C352.868 -189.244 330.033 -175.308 313.601 -177.465C296.567 -179.701 278.042 -198.828 261.706 -194.451C245.368 -190.073 238.89 -164.247 225.255 -153.794C212.104 -143.71 185.36 -144.361 176.557 -129.115C167.755 -113.869 181.691 -91.0337 179.534 -74.6016C177.298 -57.5668 158.17 -39.044 162.548 -22.7062C166.926 -6.36836 192.752 0.109909 203.205 13.7445C213.289 26.896 212.638 53.6393 227.884 62.4422C243.13 71.2451 265.965 57.3087 282.397 59.466C299.432 61.7013 317.956 80.8292 334.293 76.4516C350.631 72.0741 357.109 46.2478 370.743 35.7945C383.895 25.711 410.638 26.3614 419.441 11.1154C428.244 -4.13054 414.308 -26.9655 416.465 -43.3977C418.7 -60.4324 437.828 -78.9565 433.451 -95.293C429.073 -111.631 403.247 -118.109 392.793 -131.744ZM409.724 -50.8559C408.6 -35.3596 422.888 -14.7473 415.481 0.000473022C408.075 14.7496 383.009 15.5974 371.25 25.7525C359.06 36.2788 354.404 60.8031 339.352 65.7908C324.3 70.7784 305.92 53.8871 289.857 52.7223C274.361 51.599 253.748 65.8864 239 58.4798C224.251 51.0732 223.404 26.0079 213.248 14.2489C202.722 2.05843 178.198 -2.59714 173.21 -17.6494C168.223 -32.7016 185.114 -51.081 186.279 -67.1446C187.402 -82.6409 173.115 -103.253 180.521 -118.001C187.928 -132.75 212.993 -133.598 224.752 -143.753C236.943 -154.279 241.598 -178.804 256.65 -183.791C271.703 -188.779 290.082 -171.888 306.146 -170.723C321.642 -169.599 342.254 -183.887 357.002 -176.48C371.751 -169.074 372.599 -144.008 382.754 -132.249C393.28 -120.059 417.805 -115.403 422.792 -100.351C427.78 -85.2989 410.889 -66.9194 409.724 -50.8559Z" fill="url(#paint21_radial_1223_3944)"/>
<path d="M372.994 -131.848C362.894 -142.254 360.744 -165.562 346.599 -171.664C332.455 -177.765 314.025 -163.334 299.525 -163.54C284.494 -163.753 266.452 -178.495 252.699 -173.03C238.945 -167.566 235.938 -144.463 225.151 -133.993C214.745 -123.893 191.437 -121.744 185.335 -107.598C179.234 -93.4543 193.665 -75.0246 193.459 -60.5246C193.246 -45.4937 178.505 -27.4514 183.969 -13.6986C189.433 0.055481 212.536 3.0619 223.006 13.8498C233.106 24.2553 235.255 47.5632 249.401 53.6654C263.545 59.7663 281.974 45.3355 296.475 45.5418C311.505 45.7544 329.548 60.4959 343.3 55.0315C357.055 49.5671 360.061 26.4642 370.849 15.9946C381.254 5.89474 404.562 3.74498 410.664 -10.4003C416.765 -24.5443 402.335 -42.9741 402.541 -57.4741C402.753 -72.505 417.495 -90.5472 412.031 -104.3C406.566 -118.054 383.463 -121.061 372.994 -131.848ZM394.991 -63.2303C395.583 -49.7781 409.955 -33.473 405.063 -20.0322C400.171 -6.59132 378.681 -3.33963 369.58 6.58533C360.145 16.8726 358.606 38.4521 346.151 44.2599C333.696 50.0677 316.176 37.3766 302.231 37.9905C288.779 38.583 272.473 52.9547 259.033 48.0627C245.592 43.1706 242.34 21.6804 232.415 12.5793C222.128 3.14494 200.548 1.60526 194.74 -10.8494C188.933 -23.304 201.624 -40.8243 201.01 -54.7696C200.417 -68.2217 186.046 -84.5269 190.938 -97.9677C195.83 -111.409 217.32 -114.66 226.421 -124.585C235.855 -134.872 237.395 -156.452 249.85 -162.26C262.304 -168.068 279.825 -155.377 293.77 -155.99C307.222 -156.583 323.527 -170.955 336.968 -166.063C350.409 -161.17 353.661 -139.68 363.586 -130.579C373.873 -121.145 395.452 -119.605 401.26 -107.15C407.068 -94.6959 394.377 -77.1756 394.991 -63.2303Z" fill="url(#paint22_radial_1223_3944)"/>
<path d="M390.571 -108.912C390.57 -108.912 390.57 -108.912 390.57 -108.913C384.549 -120.077 364.581 -120.339 354.595 -128.48C344.962 -136.333 340.811 -155.963 328.162 -159.75C315.514 -163.536 301.261 -149.417 288.895 -148.149C276.077 -146.835 259.251 -157.589 248.086 -151.569C236.921 -145.549 236.659 -125.581 228.518 -115.594C220.665 -105.961 201.035 -101.81 197.248 -89.1616C193.462 -76.5132 207.581 -62.2598 208.849 -49.8945C210.163 -37.0763 199.41 -20.2504 205.43 -9.08511C211.45 2.08015 231.418 2.34056 241.405 10.483C251.038 18.3362 255.189 37.966 267.838 41.7523C280.486 45.5387 294.74 31.4198 307.105 30.1518C319.923 28.8373 336.749 39.5912 347.914 33.5721C359.079 27.5517 359.34 7.58353 367.482 -2.40308C375.336 -12.0362 394.965 -16.1873 398.752 -28.8357C402.538 -41.484 388.419 -55.7375 387.151 -68.1028C385.837 -80.9208 396.59 -97.7463 390.572 -108.912C390.572 -108.912 390.571 -108.912 390.571 -108.912ZM391.805 -36.7668C389.014 -24.9902 371.272 -20.146 364.599 -10.9116C357.681 -1.33887 358.506 16.9475 348.61 23.0522C338.714 29.1568 322.742 20.2118 311.082 22.0974C299.835 23.9163 287.544 37.5974 275.768 34.8061C263.991 32.0148 259.147 14.2731 249.912 7.59988C240.34 0.681335 222.053 1.50655 215.949 -8.38948C209.844 -18.2855 218.789 -34.2573 216.903 -45.9169C215.084 -57.164 201.403 -69.4551 204.195 -81.2317C206.986 -93.0083 224.728 -97.8526 231.401 -107.087C238.319 -116.66 237.494 -134.946 247.39 -141.051C257.286 -147.155 273.258 -138.21 284.918 -140.096C296.165 -141.915 308.456 -155.596 320.232 -152.805C332.009 -150.013 336.853 -132.272 346.088 -125.598C355.66 -118.68 373.947 -119.505 380.051 -109.609C386.156 -99.713 377.211 -83.7412 379.097 -72.0816C380.916 -60.8346 394.597 -48.5435 391.805 -36.7668Z" fill="url(#paint23_radial_1223_3944)"/>
<path d="M369.789 -109.267C363.726 -117.926 347.175 -116.211 338.121 -121.984C329.388 -127.552 324.054 -143.397 313.218 -145.308C302.383 -147.219 291.952 -134.154 281.841 -131.907C271.359 -129.579 256.392 -136.852 247.734 -130.79C239.075 -124.727 240.79 -108.175 235.017 -99.1222C229.449 -90.3885 213.604 -85.0549 211.693 -74.2192C209.782 -63.3835 222.847 -52.9529 225.094 -42.8417C227.422 -32.3595 220.149 -17.3928 226.211 -8.73454C232.274 -0.0762939 248.826 -1.79085 257.879 3.98172C266.613 9.55052 271.946 25.3953 282.782 27.306C293.617 29.2168 304.048 16.1508 314.159 13.9055C324.641 11.577 339.608 18.8503 348.266 12.7884C356.925 6.72525 355.21 -9.82643 360.983 -18.8797C366.551 -27.6134 382.396 -32.947 384.307 -43.7826C386.218 -54.6183 373.152 -65.049 370.906 -75.1601C368.578 -85.6423 375.851 -100.609 369.789 -109.267ZM376.341 -49.8433C375.191 -40.0076 361.234 -34.3872 356.688 -26.2485C351.976 -17.8129 354.384 -3.03114 346.92 2.86975C339.458 8.77063 325.63 3.01817 316.334 5.65854C307.368 8.20583 298.678 20.4894 288.844 19.3396C279.008 18.1899 273.388 4.23332 265.249 -0.31279C256.813 -5.02495 242.032 -2.61731 236.131 -10.0805C230.23 -17.5425 235.982 -31.3708 233.342 -40.6668C230.795 -49.6332 218.511 -58.3229 219.661 -68.1573C220.81 -77.993 234.767 -83.6133 239.313 -91.7521C244.025 -100.188 241.618 -114.969 249.081 -120.87C256.543 -126.771 270.371 -121.019 279.667 -123.659C288.634 -126.206 297.323 -138.49 307.158 -137.34C316.993 -136.19 322.614 -122.234 330.752 -117.688C339.188 -112.976 353.97 -115.383 359.871 -107.92C365.772 -100.458 360.019 -86.6298 362.66 -77.3338C365.207 -68.3674 377.49 -59.6777 376.341 -49.8433Z" fill="url(#paint24_radial_1223_3944)"/>
<path d="M350.373 -105.608C344.751 -111.925 331.759 -109.024 324.03 -112.77C316.574 -116.384 310.864 -128.478 302.076 -128.99C293.29 -129.502 286.214 -118.152 278.389 -115.428C270.276 -112.606 257.708 -116.995 251.391 -111.373C245.074 -105.751 247.975 -92.7595 244.229 -85.0296C240.615 -77.5739 228.521 -71.8642 228.009 -63.0764C227.497 -54.2899 238.847 -47.2141 241.571 -39.3886C244.393 -31.2763 240.004 -18.7085 245.626 -12.3912C251.248 -6.07393 264.24 -8.97469 271.969 -5.22862C279.425 -1.61462 285.135 10.479 293.923 10.991C302.709 11.5029 309.785 0.152771 317.61 -2.57063C325.723 -5.39339 338.291 -1.00452 344.608 -6.62614C350.925 -12.2478 348.024 -25.2396 351.77 -32.9695C355.384 -40.4251 367.478 -46.1361 367.99 -54.9226C368.502 -63.7092 357.152 -70.785 354.428 -78.6105C351.606 -86.7228 355.995 -99.2906 350.373 -105.608ZM346.292 -38.9999C343.413 -32.0575 346.608 -20.8557 341.376 -15.624C336.145 -10.3924 324.943 -13.5862 318 -10.7081C311.303 -7.93063 305.7 2.34277 297.999 2.34277C290.299 2.34277 284.696 -7.93063 277.999 -10.7081C271.056 -13.5875 259.854 -10.3924 254.623 -15.624C249.391 -20.8557 252.585 -32.0575 249.707 -38.9999C246.929 -45.6971 236.656 -51.2998 236.656 -59.0008C236.656 -66.7018 246.929 -72.3045 249.707 -79.0017C252.586 -85.9441 249.391 -97.1459 254.623 -102.378C259.854 -107.609 271.056 -104.415 277.999 -107.293C284.696 -110.071 290.299 -120.344 297.999 -120.344C305.7 -120.344 311.303 -110.071 318 -107.293C324.943 -104.414 336.145 -107.609 341.376 -102.378C346.608 -97.1459 343.414 -85.9441 346.292 -79.0017C349.07 -72.3045 359.343 -66.7018 359.343 -59.0008C359.343 -51.2998 349.07 -45.6971 346.292 -38.9999Z" fill="url(#paint25_radial_1223_3944)"/>
<defs>
<radialGradient id="paint0_radial_1223_3944" cx="0" cy="0" r="1" gradientUnits="userSpaceOnUse" gradientTransform="translate(113.451 56.7015) rotate(-52.3788) scale(207.171 118.642)">
<stop stop-color="#FFB6D5"/>
<stop offset="0.1" stop-color="#FFE3C0"/>
<stop offset="0.29" stop-color="#C7FBDB"/>
<stop offset="0.43" stop-color="#C7CDF4"/>
<stop offset="0.54" stop-color="#FFBCD4"/>
<stop offset="0.66" stop-color="#FFE0C3"/>
<stop offset="0.76" stop-color="#B0F1D4"/>
<stop offset="0.84" stop-color="#C9CEEC"/>
<stop offset="0.91" stop-color="#FFC1DA"/>
<stop offset="1" stop-color="#BDFFE3"/>
</radialGradient>
<radialGradient id="paint1_radial_1223_3944" cx="0" cy="0" r="1" gradientUnits="userSpaceOnUse" gradientTransform="translate(39.3005 -1.36002) rotate(-35.4835) scale(29.2988 16.4026)">
<stop stop-color="#FFB6D5"/>
<stop offset="0.1" stop-color="#FFE3C0"/>
<stop offset="0.29" stop-color="#C7FBDB"/>
<stop offset="0.43" stop-color="#C7CDF4"/>
<stop offset="0.54" stop-color="#FFBCD4"/>
<stop offset="0.66" stop-color="#FFE0C3"/>
<stop offset="0.76" stop-color="#B0F1D4"/>
<stop offset="0.84" stop-color="#C9CEEC"/>
<stop offset="0.91" stop-color="#FFC1DA"/>
<stop offset="1" stop-color="#BDFFE3"/>
</radialGradient>
<radialGradient id="paint2_radial_1223_3944" cx="0" cy="0" r="1" gradientUnits="userSpaceOnUse" gradientTransform="translate(139.983 69.5903) rotate(-46.3773) scale(203.839 120.577)">
<stop stop-color="#FFB6D5"/>
<stop offset="0.1" stop-color="#FFE3C0"/>
<stop offset="0.29" stop-color="#C7FBDB"/>
<stop offset="0.43" stop-color="#C7CDF4"/>
<stop offset="0.54" stop-color="#FFBCD4"/>
<stop offset="0.66" stop-color="#FFE0C3"/>
<stop offset="0.76" stop-color="#B0F1D4"/>
<stop offset="0.84" stop-color="#C9CEEC"/>
<stop offset="0.91" stop-color="#FFC1DA"/>
<stop offset="1" stop-color="#BDFFE3"/>
</radialGradient>
<radialGradient id="paint3_radial_1223_3944" cx="0" cy="0" r="1" gradientUnits="userSpaceOnUse" gradientTransform="translate(52.5376 13.0736) rotate(-31.5777) scale(28.3184 14.9633)">
<stop stop-color="#FFB6D5"/>
<stop offset="0.1" stop-color="#FFE3C0"/>
<stop offset="0.29" stop-color="#C7FBDB"/>
<stop offset="0.43" stop-color="#C7CDF4"/>
<stop offset="0.54" stop-color="#FFBCD4"/>
<stop offset="0.66" stop-color="#FFE0C3"/>
<stop offset="0.76" stop-color="#B0F1D4"/>
<stop offset="0.84" stop-color="#C9CEEC"/>
<stop offset="0.91" stop-color="#FFC1DA"/>
<stop offset="1" stop-color="#BDFFE3"/>
</radialGradient>
<radialGradient id="paint4_radial_1223_3944" cx="0" cy="0" r="1" gradientUnits="userSpaceOnUse" gradientTransform="translate(45.9544 3.28669) rotate(-34.7819) scale(30.2819 16.8047)">
<stop stop-color="#FFB6D5"/>
<stop offset="0.1" stop-color="#FFE3C0"/>
<stop offset="0.29" stop-color="#C7FBDB"/>
<stop offset="0.43" stop-color="#C7CDF4"/>
<stop offset="0.54" stop-color="#FFBCD4"/>
<stop offset="0.66" stop-color="#FFE0C3"/>
<stop offset="0.76" stop-color="#B0F1D4"/>
<stop offset="0.84" stop-color="#C9CEEC"/>
<stop offset="0.91" stop-color="#FFC1DA"/>
<stop offset="1" stop-color="#BDFFE3"/>
</radialGradient>
<radialGradient id="paint5_radial_1223_3944" cx="0" cy="0" r="1" gradientUnits="userSpaceOnUse" gradientTransform="translate(69.491 31.0746) rotate(-28.0312) scale(16.6903 8.20045)">
<stop stop-color="#FFB6D5"/>
<stop offset="0.1" stop-color="#FFE3C0"/>
<stop offset="0.29" stop-color="#C7FBDB"/>
<stop offset="0.43" stop-color="#C7CDF4"/>
<stop offset="0.54" stop-color="#FFBCD4"/>
<stop offset="0.66" stop-color="#FFE0C3"/>
<stop offset="0.76" stop-color="#B0F1D4"/>
<stop offset="0.84" stop-color="#C9CEEC"/>
<stop offset="0.91" stop-color="#FFC1DA"/>
<stop offset="1" stop-color="#BDFFE3"/>
</radialGradient>
<radialGradient id="paint6_radial_1223_3944" cx="0" cy="0" r="1" gradientUnits="userSpaceOnUse" gradientTransform="translate(61.0097 21.9599) rotate(-30.1366) scale(22.3147 11.476)">
<stop stop-color="#FFB6D5"/>
<stop offset="0.1" stop-color="#FFE3C0"/>
<stop offset="0.29" stop-color="#C7FBDB"/>
<stop offset="0.43" stop-color="#C7CDF4"/>
<stop offset="0.54" stop-color="#FFBCD4"/>
<stop offset="0.66" stop-color="#FFE0C3"/>
<stop offset="0.76" stop-color="#B0F1D4"/>
<stop offset="0.84" stop-color="#C9CEEC"/>
<stop offset="0.91" stop-color="#FFC1DA"/>
<stop offset="1" stop-color="#BDFFE3"/>
</radialGradient>
<radialGradient id="paint7_radial_1223_3944" cx="0" cy="0" r="1" gradientUnits="userSpaceOnUse" gradientTransform="translate(51.415 15.9823) rotate(-37.1668) scale(9.09015 5.18334)">
<stop stop-color="#FFB6D5"/>
<stop offset="0.1" stop-color="#FFE3C0"/>
<stop offset="0.29" stop-color="#C7FBDB"/>
<stop offset="0.43" stop-color="#C7CDF4"/>
<stop offset="0.54" stop-color="#FFBCD4"/>
<stop offset="0.66" stop-color="#FFE0C3"/>
<stop offset="0.76" stop-color="#B0F1D4"/>
<stop offset="0.84" stop-color="#C9CEEC"/>
<stop offset="0.91" stop-color="#FFC1DA"/>
<stop offset="1" stop-color="#BDFFE3"/>
</radialGradient>
<radialGradient id="paint8_radial_1223_3944" cx="0" cy="0" r="1" gradientUnits="userSpaceOnUse" gradientTransform="translate(177.655 78.9311) rotate(-36.5469) scale(227.202 128.737)">
<stop stop-color="#FFB6D5"/>
<stop offset="0.1" stop-color="#FFE3C0"/>
<stop offset="0.29" stop-color="#C7FBDB"/>
<stop offset="0.43" stop-color="#C7CDF4"/>
<stop offset="0.54" stop-color="#FFBCD4"/>
<stop offset="0.66" stop-color="#FFE0C3"/>
<stop offset="0.76" stop-color="#B0F1D4"/>
<stop offset="0.84" stop-color="#C9CEEC"/>
<stop offset="0.91" stop-color="#FFC1DA"/>
<stop offset="1" stop-color="#BDFFE3"/>
</radialGradient>
<radialGradient id="paint9_radial_1223_3944" cx="0" cy="0" r="1" gradientUnits="userSpaceOnUse" gradientTransform="translate(76.443 -90.6519) rotate(-67.0536) scale(194.543 82.7263)">
<stop stop-color="#FFB6D5"/>
<stop offset="0.1" stop-color="#FFE3C0"/>
<stop offset="0.29" stop-color="#C7FBDB"/>
<stop offset="0.43" stop-color="#C7CDF4"/>
<stop offset="0.54" stop-color="#FFBCD4"/>
<stop offset="0.66" stop-color="#FFE0C3"/>
<stop offset="0.76" stop-color="#B0F1D4"/>
<stop offset="0.84" stop-color="#C9CEEC"/>
<stop offset="0.91" stop-color="#FFC1DA"/>
<stop offset="1" stop-color="#BDFFE3"/>
</radialGradient>
<radialGradient id="paint10_radial_1223_3944" cx="0" cy="0" r="1" gradientUnits="userSpaceOnUse" gradientTransform="translate(73.9226 37.0221) rotate(-26.2528) scale(7.65071 3.59485)">
<stop stop-color="#FFB6D5"/>
<stop offset="0.1" stop-color="#FFE3C0"/>
<stop offset="0.29" stop-color="#C7FBDB"/>
<stop offset="0.43" stop-color="#C7CDF4"/>
<stop offset="0.54" stop-color="#FFBCD4"/>
<stop offset="0.66" stop-color="#FFE0C3"/>
<stop offset="0.76" stop-color="#B0F1D4"/>
<stop offset="0.84" stop-color="#C9CEEC"/>
<stop offset="0.91" stop-color="#FFC1DA"/>
<stop offset="1" stop-color="#BDFFE3"/>
</radialGradient>
<radialGradient id="paint11_radial_1223_3944" cx="0" cy="0" r="1" gradientUnits="userSpaceOnUse" gradientTransform="translate(86.5691 44.1283) rotate(-23.6271) scale(14.4916 6.30248)">
<stop stop-color="#FFB6D5"/>
<stop offset="0.1" stop-color="#FFE3C0"/>
<stop offset="0.29" stop-color="#C7FBDB"/>
<stop offset="0.43" stop-color="#C7CDF4"/>
<stop offset="0.54" stop-color="#FFBCD4"/>
<stop offset="0.66" stop-color="#FFE0C3"/>
<stop offset="0.76" stop-color="#B0F1D4"/>
<stop offset="0.84" stop-color="#C9CEEC"/>
<stop offset="0.91" stop-color="#FFC1DA"/>
<stop offset="1" stop-color="#BDFFE3"/>
</radialGradient>
<radialGradient id="paint12_radial_1223_3944" cx="0" cy="0" r="1" gradientUnits="userSpaceOnUse" gradientTransform="translate(78.7434 36.6794) rotate(-25.5068) scale(21.6969 9.98766)">
<stop stop-color="#FFB6D5"/>
<stop offset="0.1" stop-color="#FFE3C0"/>
<stop offset="0.29" stop-color="#C7FBDB"/>
<stop offset="0.43" stop-color="#C7CDF4"/>
<stop offset="0.54" stop-color="#FFBCD4"/>
<stop offset="0.66" stop-color="#FFE0C3"/>
<stop offset="0.76" stop-color="#B0F1D4"/>
<stop offset="0.84" stop-color="#C9CEEC"/>
<stop offset="0.91" stop-color="#FFC1DA"/>
<stop offset="1" stop-color="#BDFFE3"/>
</radialGradient>
<radialGradient id="paint13_radial_1223_3944" cx="0" cy="0" r="1" gradientUnits="userSpaceOnUse" gradientTransform="translate(68.6721 30.5911) rotate(-28.778) scale(12.9334 6.46383)">
<stop stop-color="#FFB6D5"/>
<stop offset="0.1" stop-color="#FFE3C0"/>
<stop offset="0.29" stop-color="#C7FBDB"/>
<stop offset="0.43" stop-color="#C7CDF4"/>
<stop offset="0.54" stop-color="#FFBCD4"/>
<stop offset="0.66" stop-color="#FFE0C3"/>
<stop offset="0.76" stop-color="#B0F1D4"/>
<stop offset="0.84" stop-color="#C9CEEC"/>
<stop offset="0.91" stop-color="#FFC1DA"/>
<stop offset="1" stop-color="#BDFFE3"/>
</radialGradient>
<radialGradient id="paint14_radial_1223_3944" cx="0" cy="0" r="1" gradientUnits="userSpaceOnUse" gradientTransform="translate(91.9016 48.7514) rotate(-21.5591) scale(9.73769 3.94165)">
<stop stop-color="#FFB6D5"/>
<stop offset="0.1" stop-color="#FFE3C0"/>
<stop offset="0.29" stop-color="#C7FBDB"/>
<stop offset="0.43" stop-color="#C7CDF4"/>
<stop offset="0.54" stop-color="#FFBCD4"/>
<stop offset="0.66" stop-color="#FFE0C3"/>
<stop offset="0.76" stop-color="#B0F1D4"/>
<stop offset="0.84" stop-color="#C9CEEC"/>
<stop offset="0.91" stop-color="#FFC1DA"/>
<stop offset="1" stop-color="#BDFFE3"/>
</radialGradient>
<radialGradient id="paint15_radial_1223_3944" cx="0" cy="0" r="1" gradientUnits="userSpaceOnUse" gradientTransform="translate(459.664 -182.522) rotate(-32.1344) scale(1000.36 533.685)">
<stop stop-color="#FFB6D5"/>
<stop offset="0.1" stop-color="#FFE3C0"/>
<stop offset="0.29" stop-color="#C7FBDB"/>
<stop offset="0.43" stop-color="#C7CDF4"/>
<stop offset="0.54" stop-color="#FFBCD4"/>
<stop offset="0.66" stop-color="#FFE0C3"/>
<stop offset="0.76" stop-color="#B0F1D4"/>
<stop offset="0.84" stop-color="#C9CEEC"/>
<stop offset="0.91" stop-color="#FFC1DA"/>
<stop offset="1" stop-color="#BDFFE3"/>
</radialGradient>
<radialGradient id="paint16_radial_1223_3944" cx="0" cy="0" r="1" gradientUnits="userSpaceOnUse" gradientTransform="translate(449.323 -174.622) rotate(-32.1343) scale(936.389 499.555)">
<stop stop-color="#FFB6D5"/>
<stop offset="0.1" stop-color="#FFE3C0"/>
<stop offset="0.29" stop-color="#C7FBDB"/>
<stop offset="0.43" stop-color="#C7CDF4"/>
<stop offset="0.54" stop-color="#FFBCD4"/>
<stop offset="0.66" stop-color="#FFE0C3"/>
<stop offset="0.76" stop-color="#B0F1D4"/>
<stop offset="0.84" stop-color="#C9CEEC"/>
<stop offset="0.91" stop-color="#FFC1DA"/>
<stop offset="1" stop-color="#BDFFE3"/>
</radialGradient>
<radialGradient id="paint17_radial_1223_3944" cx="0" cy="0" r="1" gradientUnits="userSpaceOnUse" gradientTransform="translate(441.464 -168.617) rotate(-32.1344) scale(887.75 473.607)">
<stop stop-color="#FFB6D5"/>
<stop offset="0.1" stop-color="#FFE3C0"/>
<stop offset="0.29" stop-color="#C7FBDB"/>
<stop offset="0.43" stop-color="#C7CDF4"/>
<stop offset="0.54" stop-color="#FFBCD4"/>
<stop offset="0.66" stop-color="#FFE0C3"/>
<stop offset="0.76" stop-color="#B0F1D4"/>
<stop offset="0.84" stop-color="#C9CEEC"/>
<stop offset="0.91" stop-color="#FFC1DA"/>
<stop offset="1" stop-color="#BDFFE3"/>
</radialGradient>
<radialGradient id="paint18_radial_1223_3944" cx="0" cy="0" r="1" gradientUnits="userSpaceOnUse" gradientTransform="translate(431.46 -160.974) rotate(-32.1344) scale(825.847 440.582)">
<stop stop-color="#FFB6D5"/>
<stop offset="0.1" stop-color="#FFE3C0"/>
<stop offset="0.29" stop-color="#C7FBDB"/>
<stop offset="0.43" stop-color="#C7CDF4"/>
<stop offset="0.54" stop-color="#FFBCD4"/>
<stop offset="0.66" stop-color="#FFE0C3"/>
<stop offset="0.76" stop-color="#B0F1D4"/>
<stop offset="0.84" stop-color="#C9CEEC"/>
<stop offset="0.91" stop-color="#FFC1DA"/>
<stop offset="1" stop-color="#BDFFE3"/>
</radialGradient>
<radialGradient id="paint19_radial_1223_3944" cx="0" cy="0" r="1" gradientUnits="userSpaceOnUse" gradientTransform="translate(419.684 -151.976) rotate(-32.1344) scale(752.978 401.708)">
<stop stop-color="#FFB6D5"/>
<stop offset="0.1" stop-color="#FFE3C0"/>
<stop offset="0.29" stop-color="#C7FBDB"/>
<stop offset="0.43" stop-color="#C7CDF4"/>
<stop offset="0.54" stop-color="#FFBCD4"/>
<stop offset="0.66" stop-color="#FFE0C3"/>
<stop offset="0.76" stop-color="#B0F1D4"/>
<stop offset="0.84" stop-color="#C9CEEC"/>
<stop offset="0.91" stop-color="#FFC1DA"/>
<stop offset="1" stop-color="#BDFFE3"/>
</radialGradient>
<radialGradient id="paint20_radial_1223_3944" cx="0" cy="0" r="1" gradientUnits="userSpaceOnUse" gradientTransform="translate(406.553 -141.941) rotate(-32.1344) scale(671.72 358.357)">
<stop stop-color="#FFB6D5"/>
<stop offset="0.1" stop-color="#FFE3C0"/>
<stop offset="0.29" stop-color="#C7FBDB"/>
<stop offset="0.43" stop-color="#C7CDF4"/>
<stop offset="0.54" stop-color="#FFBCD4"/>
<stop offset="0.66" stop-color="#FFE0C3"/>
<stop offset="0.76" stop-color="#B0F1D4"/>
<stop offset="0.84" stop-color="#C9CEEC"/>
<stop offset="0.91" stop-color="#FFC1DA"/>
<stop offset="1" stop-color="#BDFFE3"/>
</radialGradient>
<radialGradient id="paint21_radial_1223_3944" cx="0" cy="0" r="1" gradientUnits="userSpaceOnUse" gradientTransform="translate(392.513 -131.216) rotate(-32.1344) scale(584.85 312.012)">
<stop stop-color="#FFB6D5"/>
<stop offset="0.1" stop-color="#FFE3C0"/>
<stop offset="0.29" stop-color="#C7FBDB"/>
<stop offset="0.43" stop-color="#C7CDF4"/>
<stop offset="0.54" stop-color="#FFBCD4"/>
<stop offset="0.66" stop-color="#FFE0C3"/>
<stop offset="0.76" stop-color="#B0F1D4"/>
<stop offset="0.84" stop-color="#C9CEEC"/>
<stop offset="0.91" stop-color="#FFC1DA"/>
<stop offset="1" stop-color="#BDFFE3"/>
</radialGradient>
<radialGradient id="paint22_radial_1223_3944" cx="0" cy="0" r="1" gradientUnits="userSpaceOnUse" gradientTransform="translate(378.031 -120.15) rotate(-32.1344) scale(495.231 264.201)">
<stop stop-color="#FFB6D5"/>
<stop offset="0.1" stop-color="#FFE3C0"/>
<stop offset="0.29" stop-color="#C7FBDB"/>
<stop offset="0.43" stop-color="#C7CDF4"/>
<stop offset="0.54" stop-color="#FFBCD4"/>
<stop offset="0.66" stop-color="#FFE0C3"/>
<stop offset="0.76" stop-color="#B0F1D4"/>
<stop offset="0.84" stop-color="#C9CEEC"/>
<stop offset="0.91" stop-color="#FFC1DA"/>
<stop offset="1" stop-color="#BDFFE3"/>
</radialGradient>
<radialGradient id="paint23_radial_1223_3944" cx="0" cy="0" r="1" gradientUnits="userSpaceOnUse" gradientTransform="translate(368.413 -112.8) rotate(-32.1342) scale(435.713 232.448)">
<stop stop-color="#FFB6D5"/>
<stop offset="0.1" stop-color="#FFE3C0"/>
<stop offset="0.29" stop-color="#C7FBDB"/>
<stop offset="0.43" stop-color="#C7CDF4"/>
<stop offset="0.54" stop-color="#FFBCD4"/>
<stop offset="0.66" stop-color="#FFE0C3"/>
<stop offset="0.76" stop-color="#B0F1D4"/>
<stop offset="0.84" stop-color="#C9CEEC"/>
<stop offset="0.91" stop-color="#FFC1DA"/>
<stop offset="1" stop-color="#BDFFE3"/>
</radialGradient>
<radialGradient id="paint24_radial_1223_3944" cx="0" cy="0" r="1" gradientUnits="userSpaceOnUse" gradientTransform="translate(358.067 -104.897) rotate(-32.1344) scale(371.696 198.297)">
<stop stop-color="#FFB6D5"/>
<stop offset="0.1" stop-color="#FFE3C0"/>
<stop offset="0.29" stop-color="#C7FBDB"/>
<stop offset="0.43" stop-color="#C7CDF4"/>
<stop offset="0.54" stop-color="#FFBCD4"/>
<stop offset="0.66" stop-color="#FFE0C3"/>
<stop offset="0.76" stop-color="#B0F1D4"/>
<stop offset="0.84" stop-color="#C9CEEC"/>
<stop offset="0.91" stop-color="#FFC1DA"/>
<stop offset="1" stop-color="#BDFFE3"/>
</radialGradient>
<radialGradient id="paint25_radial_1223_3944" cx="0" cy="0" r="1" gradientUnits="userSpaceOnUse" gradientTransform="translate(346.616 -96.1463) rotate(-32.1344) scale(300.836 160.493)">
<stop stop-color="#FFB6D5"/>
<stop offset="0.1" stop-color="#FFE3C0"/>
<stop offset="0.29" stop-color="#C7FBDB"/>
<stop offset="0.43" stop-color="#C7CDF4"/>
<stop offset="0.54" stop-color="#FFBCD4"/>
<stop offset="0.66" stop-color="#FFE0C3"/>
<stop offset="0.76" stop-color="#B0F1D4"/>
<stop offset="0.84" stop-color="#C9CEEC"/>
<stop offset="0.91" stop-color="#FFC1DA"/>
<stop offset="1" stop-color="#BDFFE3"/>
</radialGradient>
</defs>
</svg>
