<svg width="86" height="97" viewBox="0 0 86 97" fill="none" xmlns="http://www.w3.org/2000/svg">
<path d="M76.1686 48.3843C76.1687 48.3844 76.1689 48.3843 76.1689 48.3841C73.4598 42.794 69.5945 37.4418 65.0701 32.2085C64.9302 32.0467 64.7743 31.8992 64.6059 31.7673C61.3337 29.2043 58.2448 26.5457 55.4488 23.7448C55.3226 23.64 55.1444 23.8064 55.24 23.9398C58.576 28.5969 61.3913 33.3213 63.3989 38.1618C77.3831 71.8866 61.8655 126.302 87.2804 151.718C91.9145 156.352 97.5131 159.625 103.775 161.964C105.532 162.62 107.118 158.312 105.716 157.065C79.6564 133.873 91.6213 80.2727 76.1684 48.3844C76.1683 48.3843 76.1685 48.3841 76.1686 48.3843Z" fill="url(#paint0_radial_291_34413)"/>
<path d="M28.1922 -4.85254C28.1918 -4.85254 28.1915 -4.85206 28.1917 -4.8517C31.8371 0.365826 36.3541 5.2815 41.3037 10.0286C39.989 8.45247 38.7603 6.841 37.6314 5.18886C37.2297 4.60096 36.7791 4.04743 36.2731 3.5465C33.4803 0.781764 30.7619 -2.01204 28.1926 -4.85236C28.1925 -4.85248 28.1923 -4.85254 28.1922 -4.85254Z" fill="url(#paint1_radial_291_34413)"/>
<path d="M102.735 65.3873C102.734 65.3873 102.734 65.3871 102.734 65.3868C98.1425 58.1867 91.2983 51.7312 83.6126 45.5022C80.454 43.5046 77.3897 41.4467 74.499 39.2881C80.5056 45.0808 85.7297 51.0521 89.311 57.4625C106.069 87.4613 97.5076 140.025 124.043 161.007C127.807 163.983 132.028 166.124 136.592 167.636C136.764 167.693 136.943 167.727 137.124 167.738C138.407 167.815 139.695 167.885 140.986 167.949C142.804 168.039 143.648 164.613 142.157 163.569C115.312 144.772 120.632 93.4559 102.736 65.3879C102.736 65.3876 102.735 65.3873 102.735 65.3873Z" fill="url(#paint2_radial_291_34413)"/>
<path d="M51.4129 19.3376C51.0298 18.8781 50.6145 18.4461 50.1625 18.0542C47.1224 15.4179 44.1428 12.7503 41.3037 10.0283C44.9459 14.3922 49.2428 18.4853 53.8764 22.423C53.9735 22.5055 54.1052 22.3824 54.0288 22.2804C53.1201 21.3176 52.2464 20.3373 51.4129 19.3376Z" fill="url(#paint3_radial_291_34413)"/>
<path d="M37.9276 3.5409C37.3508 2.92155 36.5295 3.52465 36.9924 4.23319C37.0208 4.27673 37.0543 4.31759 37.0913 4.35404C40.6137 7.81715 44.2417 11.2374 47.8273 14.6497C47.8551 14.6761 47.8997 14.6387 47.8788 14.6066C44.7264 10.9064 41.3601 7.22654 37.9276 3.5409Z" fill="url(#paint4_radial_291_34413)"/>
<path d="M62.6317 29.4639C62.6318 29.4639 62.6319 29.4639 62.632 29.464C63.2529 30.1446 63.8637 30.827 64.4637 31.511C64.7286 31.8129 65.0202 32.0904 65.338 32.3359C67.0906 33.6896 68.8934 35.0184 70.7278 36.3271C69.0246 34.9144 67.4006 33.4565 65.8786 31.942C64.792 31.1195 63.7092 30.2945 62.6315 29.4645C62.6312 29.4643 62.6314 29.4639 62.6317 29.4639Z" fill="url(#paint5_radial_291_34413)"/>
<path d="M58.8621 25.4632C58.8623 25.4632 58.8624 25.4629 58.8622 25.4628C57.4207 24.2446 55.9751 23.0245 54.5337 21.8004C54.2342 21.5461 53.794 21.9642 54.0286 22.2794C54.4927 22.7712 54.967 23.2593 55.4487 23.7436C56.6297 24.7234 57.8294 25.6945 59.0429 26.6586C59.4244 26.9617 59.8536 26.4924 59.516 26.1411C59.2988 25.9152 59.0808 25.6893 58.8619 25.4636C58.8617 25.4635 58.8618 25.4632 58.8621 25.4632Z" fill="url(#paint6_radial_291_34413)"/>
<path d="M48.2833 15.0834C48.2829 15.0834 48.2826 15.0833 48.2823 15.083C48.2792 15.08 48.2761 15.0771 48.2729 15.0741C48.2436 15.0461 48.1977 15.0849 48.2205 15.1184C49.0346 16.3169 49.9088 17.4873 50.8341 18.6328C50.8397 18.6398 50.846 18.6463 50.8529 18.6522C50.992 18.7726 51.1782 18.5937 51.0629 18.4502C50.1596 17.3254 49.2319 16.2036 48.2844 15.0839C48.2842 15.0836 48.2838 15.0834 48.2833 15.0834Z" fill="url(#paint7_radial_291_34413)"/>
<path d="M54.5018 13.8994C54.5024 13.8994 54.5029 13.8988 54.5027 13.8982C45.3526 -16.6714 79.4753 -51.1189 82.5395 -81.0016C83.7433 -92.7367 80.7608 -105.861 77.382 -119.105C76.5443 -121.903 75.7581 -124.685 75.0662 -127.441C77.1116 -115.943 78.4337 -104.726 76.8084 -94.6815C71.846 -64.0046 34.5336 -30.4811 42.1453 1.63977C43.2573 6.3343 45.2423 10.6238 47.8751 14.6076C48.0109 14.7661 48.1455 14.9259 48.2801 15.0844C51.9067 18.5386 55.4842 21.9866 58.8592 25.4647C60.3775 26.7478 61.8921 28.0309 63.3915 29.3139C59.3539 24.7619 56.2382 19.7016 54.5009 13.9006C54.5007 13.9 54.5012 13.8994 54.5018 13.8994Z" fill="url(#paint8_radial_291_34413)"/>
<path d="M70.7278 36.3271C71.9454 37.3373 73.2046 38.3222 74.499 39.2883C74.2702 39.0672 74.0401 38.8466 73.8089 38.6263C73.4502 38.2847 73.0643 37.973 72.6584 37.6893C72.0112 37.2371 71.3673 36.7829 70.7278 36.3271Z" fill="url(#paint9_radial_291_34413)"/>
<path d="M80.3872 42.9355C81.4753 43.7872 82.5521 44.6425 83.6125 45.5017C84.9547 46.3508 86.3145 47.1873 87.6844 48.0175C86.0504 46.9294 84.4704 45.8048 82.9546 44.64C82.0997 44.073 81.2436 43.506 80.3899 42.9378C80.389 42.9371 80.388 42.9364 80.3872 42.9355Z" fill="url(#paint10_radial_291_34413)"/>
<path d="M72.723 37.6014C73.087 37.9421 73.4741 38.2574 73.8844 38.5408C76.0291 40.0223 78.2051 41.4838 80.3873 42.9359C76.8852 40.1949 73.2574 37.4854 69.6245 34.7607C70.6737 35.7044 71.7076 36.6508 72.723 37.6014Z" fill="url(#paint11_radial_291_34413)"/>
<path d="M65.8784 31.9403C67.1238 32.8837 68.3741 33.8221 69.6245 34.7605C67.5955 32.9366 65.5099 31.1226 63.394 29.3125C64.1878 30.2069 65.0168 31.0836 65.8784 31.9403Z" fill="url(#paint12_radial_291_34413)"/>
<path d="M439.269 95.1805C439.269 95.1808 439.269 95.1809 439.269 95.1807C461.429 74.8594 507.908 71.5422 520.418 44.716C523.699 37.6817 524.238 29.8965 523.273 21.6974C522.628 18.4142 521.978 15.1286 521.373 11.8592C520.476 8.28296 519.532 4.69162 518.619 1.10782C513.428 -16.2175 506.221 -34.1139 506.916 -49.8869C508.192 -78.8618 539.15 -113.983 528.612 -142.934C525.706 -150.917 520.082 -157.231 513.048 -162.638C510.392 -164.398 507.742 -166.151 505.139 -167.917C502.002 -169.774 498.832 -171.602 495.696 -173.436C479.833 -181.902 462.389 -189.136 452.182 -200.266C431.861 -222.425 428.544 -268.905 401.717 -281.415C394.683 -284.696 386.898 -285.236 378.699 -284.271C375.415 -283.626 372.13 -282.975 368.86 -282.37C365.284 -281.473 361.693 -280.53 358.109 -279.617C340.784 -274.425 322.887 -267.219 307.114 -267.913C278.139 -269.19 243.018 -300.147 214.067 -289.609C206.085 -286.704 199.77 -281.079 194.363 -274.045C192.604 -271.39 190.85 -268.739 189.084 -266.137C187.227 -262.999 185.4 -259.829 183.565 -256.694C175.101 -240.83 167.865 -223.386 156.735 -213.18C134.576 -192.858 88.0958 -189.541 75.5859 -162.715C72.3052 -155.68 71.7656 -147.895 72.7304 -139.696C73.3757 -136.413 74.026 -133.127 74.6311 -129.858C75.528 -126.281 76.4714 -122.69 77.3847 -119.106C82.5761 -101.781 89.7827 -83.8846 89.0883 -68.1116C87.8116 -39.1367 56.8542 -4.01569 67.3918 24.9353C70.2976 32.918 75.9217 39.2328 82.956 44.6393C85.6115 46.3991 88.2619 48.1526 90.8645 49.9188C94.0018 51.7755 97.1717 53.6032 100.308 55.4373C116.171 63.9018 133.615 71.1373 143.822 82.2674C164.143 104.427 167.46 150.907 194.287 163.417C201.321 166.697 209.106 167.237 217.305 166.272C220.588 165.627 223.874 164.977 227.143 164.372C230.72 163.475 234.311 162.531 237.895 161.618C255.22 156.427 273.117 149.22 288.89 149.914C317.864 151.191 352.986 182.148 381.936 171.611C389.919 168.705 396.234 163.081 401.64 156.047C403.4 153.391 405.154 150.741 406.92 148.138C408.777 145.001 410.604 141.831 412.438 138.695C420.903 122.832 428.138 105.388 439.268 95.1803C439.268 95.1801 439.269 95.1803 439.269 95.1805ZM391.732 158.292C364.453 170.059 328.908 142.227 300.943 142.624C271.953 143.034 237.156 171.465 210.631 160.926C184.105 150.387 178.305 105.829 157.5 85.6373C137.431 66.1585 92.4772 62.0111 80.7106 34.7319C68.9441 7.45273 96.7755 -28.0922 96.3792 -56.057C95.9691 -85.047 67.5377 -119.843 78.0765 -146.369C88.6154 -172.895 133.173 -178.695 153.365 -199.5C172.844 -219.569 176.992 -264.523 204.271 -276.289C231.55 -288.056 267.095 -260.224 295.06 -260.621C324.05 -261.031 358.846 -289.462 385.372 -278.923C411.898 -268.385 417.698 -223.827 438.502 -203.635C458.571 -184.156 503.525 -180.008 515.292 -152.729C527.059 -125.45 499.227 -89.905 499.623 -61.9402C500.033 -32.9503 528.465 1.84622 517.926 28.3719C507.387 54.8976 462.829 60.6978 442.637 81.5025C423.158 101.571 419.011 146.526 391.732 158.292Z" fill="url(#paint13_radial_291_34413)"/>
<path d="M514.312 12.6789C514.313 12.6792 514.313 12.679 514.313 12.6786C522.958 -13.4117 493.678 -45.2705 491.661 -73.1155C489.715 -99.977 514.479 -135.706 501.64 -161.27C488.8 -186.836 445.353 -188.307 424.968 -205.909C403.838 -224.156 395.767 -266.666 369.677 -275.312C343.586 -283.957 311.727 -254.677 283.882 -252.659C257.02 -250.713 221.291 -275.478 195.727 -262.638C170.161 -249.799 168.69 -206.352 151.088 -185.967C132.841 -164.836 90.3309 -156.766 81.6853 -130.675C73.0396 -104.585 102.32 -72.7255 104.338 -44.8803C106.284 -18.0187 81.5192 17.7099 94.3588 43.2745C107.198 68.8405 150.646 70.3109 171.03 87.9117C192.161 106.159 200.231 148.669 226.322 157.315C252.412 165.96 284.272 136.68 312.117 134.662C338.978 132.716 374.707 157.481 400.272 144.641C425.838 131.802 427.308 88.3545 444.909 67.97C463.156 46.8397 505.665 38.7689 514.312 12.6791C514.312 12.6787 514.312 12.6786 514.312 12.6789ZM407.557 130.76C383.735 144.514 348.054 122.738 322.379 126.11C295.763 129.603 266.818 159.491 241.29 152.65C215.762 145.81 205.639 105.455 184.335 89.1206C163.784 73.3639 121.996 74.3816 108.242 50.5591C94.4884 26.7367 116.263 -8.94409 112.893 -34.6194C109.4 -61.2357 79.5116 -90.1804 86.3521 -115.709C93.1927 -141.237 133.548 -151.359 149.882 -172.663C165.639 -193.214 164.621 -235.002 188.443 -248.756C212.266 -262.51 247.947 -240.735 273.622 -244.105C300.238 -247.599 329.183 -277.487 354.711 -270.646C380.239 -263.806 390.362 -223.45 411.666 -207.116C432.216 -191.36 474.004 -192.377 487.758 -168.555C501.513 -144.732 479.737 -109.052 483.108 -83.3763C486.601 -56.7601 516.489 -27.8154 509.649 -2.2872C502.808 23.241 462.453 33.3634 446.119 54.6675C430.362 75.2181 431.38 117.006 407.557 130.76Z" fill="url(#paint14_radial_291_34413)"/>
<defs>
<radialGradient id="paint0_radial_291_34413" cx="0" cy="0" r="1" gradientUnits="userSpaceOnUse" gradientTransform="translate(113.45 56.7015) rotate(-52.3788) scale(207.171 118.642)">
<stop stop-color="#FFB6D5"/>
<stop offset="0.1" stop-color="#FFE3C0"/>
<stop offset="0.29" stop-color="#C7FBDB"/>
<stop offset="0.43" stop-color="#C7CDF4"/>
<stop offset="0.54" stop-color="#FFBCD4"/>
<stop offset="0.66" stop-color="#FFE0C3"/>
<stop offset="0.76" stop-color="#B0F1D4"/>
<stop offset="0.84" stop-color="#C9CEEC"/>
<stop offset="0.91" stop-color="#FFC1DA"/>
<stop offset="1" stop-color="#BDFFE3"/>
</radialGradient>
<radialGradient id="paint1_radial_291_34413" cx="0" cy="0" r="1" gradientUnits="userSpaceOnUse" gradientTransform="translate(39.3004 -1.36002) rotate(-35.4835) scale(29.2988 16.4026)">
<stop stop-color="#FFB6D5"/>
<stop offset="0.1" stop-color="#FFE3C0"/>
<stop offset="0.29" stop-color="#C7FBDB"/>
<stop offset="0.43" stop-color="#C7CDF4"/>
<stop offset="0.54" stop-color="#FFBCD4"/>
<stop offset="0.66" stop-color="#FFE0C3"/>
<stop offset="0.76" stop-color="#B0F1D4"/>
<stop offset="0.84" stop-color="#C9CEEC"/>
<stop offset="0.91" stop-color="#FFC1DA"/>
<stop offset="1" stop-color="#BDFFE3"/>
</radialGradient>
<radialGradient id="paint2_radial_291_34413" cx="0" cy="0" r="1" gradientUnits="userSpaceOnUse" gradientTransform="translate(139.983 69.5903) rotate(-46.3773) scale(203.839 120.577)">
<stop stop-color="#FFB6D5"/>
<stop offset="0.1" stop-color="#FFE3C0"/>
<stop offset="0.29" stop-color="#C7FBDB"/>
<stop offset="0.43" stop-color="#C7CDF4"/>
<stop offset="0.54" stop-color="#FFBCD4"/>
<stop offset="0.66" stop-color="#FFE0C3"/>
<stop offset="0.76" stop-color="#B0F1D4"/>
<stop offset="0.84" stop-color="#C9CEEC"/>
<stop offset="0.91" stop-color="#FFC1DA"/>
<stop offset="1" stop-color="#BDFFE3"/>
</radialGradient>
<radialGradient id="paint3_radial_291_34413" cx="0" cy="0" r="1" gradientUnits="userSpaceOnUse" gradientTransform="translate(52.5376 13.0736) rotate(-31.5777) scale(28.3184 14.9633)">
<stop stop-color="#FFB6D5"/>
<stop offset="0.1" stop-color="#FFE3C0"/>
<stop offset="0.29" stop-color="#C7FBDB"/>
<stop offset="0.43" stop-color="#C7CDF4"/>
<stop offset="0.54" stop-color="#FFBCD4"/>
<stop offset="0.66" stop-color="#FFE0C3"/>
<stop offset="0.76" stop-color="#B0F1D4"/>
<stop offset="0.84" stop-color="#C9CEEC"/>
<stop offset="0.91" stop-color="#FFC1DA"/>
<stop offset="1" stop-color="#BDFFE3"/>
</radialGradient>
<radialGradient id="paint4_radial_291_34413" cx="0" cy="0" r="1" gradientUnits="userSpaceOnUse" gradientTransform="translate(45.9539 3.28669) rotate(-34.7819) scale(30.2819 16.8047)">
<stop stop-color="#FFB6D5"/>
<stop offset="0.1" stop-color="#FFE3C0"/>
<stop offset="0.29" stop-color="#C7FBDB"/>
<stop offset="0.43" stop-color="#C7CDF4"/>
<stop offset="0.54" stop-color="#FFBCD4"/>
<stop offset="0.66" stop-color="#FFE0C3"/>
<stop offset="0.76" stop-color="#B0F1D4"/>
<stop offset="0.84" stop-color="#C9CEEC"/>
<stop offset="0.91" stop-color="#FFC1DA"/>
<stop offset="1" stop-color="#BDFFE3"/>
</radialGradient>
<radialGradient id="paint5_radial_291_34413" cx="0" cy="0" r="1" gradientUnits="userSpaceOnUse" gradientTransform="translate(69.4908 31.0746) rotate(-28.0312) scale(16.6903 8.20045)">
<stop stop-color="#FFB6D5"/>
<stop offset="0.1" stop-color="#FFE3C0"/>
<stop offset="0.29" stop-color="#C7FBDB"/>
<stop offset="0.43" stop-color="#C7CDF4"/>
<stop offset="0.54" stop-color="#FFBCD4"/>
<stop offset="0.66" stop-color="#FFE0C3"/>
<stop offset="0.76" stop-color="#B0F1D4"/>
<stop offset="0.84" stop-color="#C9CEEC"/>
<stop offset="0.91" stop-color="#FFC1DA"/>
<stop offset="1" stop-color="#BDFFE3"/>
</radialGradient>
<radialGradient id="paint6_radial_291_34413" cx="0" cy="0" r="1" gradientUnits="userSpaceOnUse" gradientTransform="translate(61.0097 21.9599) rotate(-30.1366) scale(22.3147 11.476)">
<stop stop-color="#FFB6D5"/>
<stop offset="0.1" stop-color="#FFE3C0"/>
<stop offset="0.29" stop-color="#C7FBDB"/>
<stop offset="0.43" stop-color="#C7CDF4"/>
<stop offset="0.54" stop-color="#FFBCD4"/>
<stop offset="0.66" stop-color="#FFE0C3"/>
<stop offset="0.76" stop-color="#B0F1D4"/>
<stop offset="0.84" stop-color="#C9CEEC"/>
<stop offset="0.91" stop-color="#FFC1DA"/>
<stop offset="1" stop-color="#BDFFE3"/>
</radialGradient>
<radialGradient id="paint7_radial_291_34413" cx="0" cy="0" r="1" gradientUnits="userSpaceOnUse" gradientTransform="translate(51.4155 15.9823) rotate(-37.1668) scale(9.09015 5.18334)">
<stop stop-color="#FFB6D5"/>
<stop offset="0.1" stop-color="#FFE3C0"/>
<stop offset="0.29" stop-color="#C7FBDB"/>
<stop offset="0.43" stop-color="#C7CDF4"/>
<stop offset="0.54" stop-color="#FFBCD4"/>
<stop offset="0.66" stop-color="#FFE0C3"/>
<stop offset="0.76" stop-color="#B0F1D4"/>
<stop offset="0.84" stop-color="#C9CEEC"/>
<stop offset="0.91" stop-color="#FFC1DA"/>
<stop offset="1" stop-color="#BDFFE3"/>
</radialGradient>
<radialGradient id="paint8_radial_291_34413" cx="0" cy="0" r="1" gradientUnits="userSpaceOnUse" gradientTransform="translate(76.4429 -90.6519) rotate(-67.0536) scale(194.543 82.7263)">
<stop stop-color="#FFB6D5"/>
<stop offset="0.1" stop-color="#FFE3C0"/>
<stop offset="0.29" stop-color="#C7FBDB"/>
<stop offset="0.43" stop-color="#C7CDF4"/>
<stop offset="0.54" stop-color="#FFBCD4"/>
<stop offset="0.66" stop-color="#FFE0C3"/>
<stop offset="0.76" stop-color="#B0F1D4"/>
<stop offset="0.84" stop-color="#C9CEEC"/>
<stop offset="0.91" stop-color="#FFC1DA"/>
<stop offset="1" stop-color="#BDFFE3"/>
</radialGradient>
<radialGradient id="paint9_radial_291_34413" cx="0" cy="0" r="1" gradientUnits="userSpaceOnUse" gradientTransform="translate(73.9229 37.0221) rotate(-26.2528) scale(7.65071 3.59485)">
<stop stop-color="#FFB6D5"/>
<stop offset="0.1" stop-color="#FFE3C0"/>
<stop offset="0.29" stop-color="#C7FBDB"/>
<stop offset="0.43" stop-color="#C7CDF4"/>
<stop offset="0.54" stop-color="#FFBCD4"/>
<stop offset="0.66" stop-color="#FFE0C3"/>
<stop offset="0.76" stop-color="#B0F1D4"/>
<stop offset="0.84" stop-color="#C9CEEC"/>
<stop offset="0.91" stop-color="#FFC1DA"/>
<stop offset="1" stop-color="#BDFFE3"/>
</radialGradient>
<radialGradient id="paint10_radial_291_34413" cx="0" cy="0" r="1" gradientUnits="userSpaceOnUse" gradientTransform="translate(86.5695 44.1283) rotate(-23.6271) scale(14.4916 6.30248)">
<stop stop-color="#FFB6D5"/>
<stop offset="0.1" stop-color="#FFE3C0"/>
<stop offset="0.29" stop-color="#C7FBDB"/>
<stop offset="0.43" stop-color="#C7CDF4"/>
<stop offset="0.54" stop-color="#FFBCD4"/>
<stop offset="0.66" stop-color="#FFE0C3"/>
<stop offset="0.76" stop-color="#B0F1D4"/>
<stop offset="0.84" stop-color="#C9CEEC"/>
<stop offset="0.91" stop-color="#FFC1DA"/>
<stop offset="1" stop-color="#BDFFE3"/>
</radialGradient>
<radialGradient id="paint11_radial_291_34413" cx="0" cy="0" r="1" gradientUnits="userSpaceOnUse" gradientTransform="translate(78.7429 36.6794) rotate(-25.5068) scale(21.6969 9.98766)">
<stop stop-color="#FFB6D5"/>
<stop offset="0.1" stop-color="#FFE3C0"/>
<stop offset="0.29" stop-color="#C7FBDB"/>
<stop offset="0.43" stop-color="#C7CDF4"/>
<stop offset="0.54" stop-color="#FFBCD4"/>
<stop offset="0.66" stop-color="#FFE0C3"/>
<stop offset="0.76" stop-color="#B0F1D4"/>
<stop offset="0.84" stop-color="#C9CEEC"/>
<stop offset="0.91" stop-color="#FFC1DA"/>
<stop offset="1" stop-color="#BDFFE3"/>
</radialGradient>
<radialGradient id="paint12_radial_291_34413" cx="0" cy="0" r="1" gradientUnits="userSpaceOnUse" gradientTransform="translate(68.6726 30.5911) rotate(-28.778) scale(12.9334 6.46383)">
<stop stop-color="#FFB6D5"/>
<stop offset="0.1" stop-color="#FFE3C0"/>
<stop offset="0.29" stop-color="#C7FBDB"/>
<stop offset="0.43" stop-color="#C7CDF4"/>
<stop offset="0.54" stop-color="#FFBCD4"/>
<stop offset="0.66" stop-color="#FFE0C3"/>
<stop offset="0.76" stop-color="#B0F1D4"/>
<stop offset="0.84" stop-color="#C9CEEC"/>
<stop offset="0.91" stop-color="#FFC1DA"/>
<stop offset="1" stop-color="#BDFFE3"/>
</radialGradient>
<radialGradient id="paint13_radial_291_34413" cx="0" cy="0" r="1" gradientUnits="userSpaceOnUse" gradientTransform="translate(459.664 -182.522) rotate(-32.1344) scale(1000.36 533.685)">
<stop stop-color="#FFB6D5"/>
<stop offset="0.1" stop-color="#FFE3C0"/>
<stop offset="0.29" stop-color="#C7FBDB"/>
<stop offset="0.43" stop-color="#C7CDF4"/>
<stop offset="0.54" stop-color="#FFBCD4"/>
<stop offset="0.66" stop-color="#FFE0C3"/>
<stop offset="0.76" stop-color="#B0F1D4"/>
<stop offset="0.84" stop-color="#C9CEEC"/>
<stop offset="0.91" stop-color="#FFC1DA"/>
<stop offset="1" stop-color="#BDFFE3"/>
</radialGradient>
<radialGradient id="paint14_radial_291_34413" cx="0" cy="0" r="1" gradientUnits="userSpaceOnUse" gradientTransform="translate(449.323 -174.622) rotate(-32.1343) scale(936.389 499.555)">
<stop stop-color="#FFB6D5"/>
<stop offset="0.1" stop-color="#FFE3C0"/>
<stop offset="0.29" stop-color="#C7FBDB"/>
<stop offset="0.43" stop-color="#C7CDF4"/>
<stop offset="0.54" stop-color="#FFBCD4"/>
<stop offset="0.66" stop-color="#FFE0C3"/>
<stop offset="0.76" stop-color="#B0F1D4"/>
<stop offset="0.84" stop-color="#C9CEEC"/>
<stop offset="0.91" stop-color="#FFC1DA"/>
<stop offset="1" stop-color="#BDFFE3"/>
</radialGradient>
</defs>
</svg>
