<svg width="301" height="419" viewBox="0 0 301 419" fill="none" xmlns="http://www.w3.org/2000/svg">
<path d="M165.334 306.667C166.904 307.538 166.904 308.988 165.334 309.916C163.765 310.787 161.265 310.787 159.695 309.916C158.126 309.046 158.126 307.596 159.695 306.667C161.265 305.797 163.765 305.797 165.334 306.667Z" fill="#222222"/>
<path d="M180.042 298.198C181.612 299.068 181.612 300.518 180.042 301.446C178.473 302.317 175.973 302.317 174.403 301.446C172.834 300.576 172.834 299.126 174.403 298.198C175.973 297.327 178.473 297.327 180.042 298.198Z" fill="#222222"/>
<path d="M194.751 289.727C196.32 290.597 196.32 292.047 194.751 292.976C193.181 293.846 190.681 293.846 189.112 292.976C187.542 292.105 187.542 290.655 189.112 289.727C190.681 288.857 193.181 288.857 194.751 289.727Z" fill="#222222"/>
<path d="M135.918 306.668C137.488 307.538 137.488 308.988 135.918 309.917C134.349 310.787 131.849 310.787 130.279 309.917C128.71 309.046 128.71 307.596 130.279 306.668C131.849 305.739 134.349 305.797 135.918 306.668Z" fill="#222222"/>
<path d="M150.627 298.198C152.196 299.068 152.196 300.518 150.627 301.446C149.057 302.317 146.557 302.317 144.988 301.446C143.418 300.576 143.418 299.126 144.988 298.198C146.557 297.327 149.057 297.327 150.627 298.198Z" fill="#222222"/>
<path d="M165.334 289.727C166.904 290.597 166.904 292.047 165.334 292.976C163.765 293.846 161.265 293.846 159.695 292.976C158.126 292.105 158.126 290.655 159.695 289.727C161.265 288.857 163.765 288.857 165.334 289.727Z" fill="#222222"/>
<path d="M180.042 281.199C181.612 282.069 181.612 283.519 180.042 284.447C178.473 285.318 175.973 285.318 174.403 284.447C172.834 283.577 172.834 282.127 174.403 281.199C175.973 280.328 178.473 280.328 180.042 281.199Z" fill="#222222"/>
<path d="M194.751 272.728C196.32 273.598 196.32 275.048 194.751 275.977C193.181 276.847 190.681 276.847 189.112 275.977C187.542 275.106 187.542 273.656 189.112 272.728C190.681 271.858 193.181 271.858 194.751 272.728Z" fill="#222222"/>
<path d="M121.152 298.198C122.722 299.068 122.722 300.518 121.152 301.446C119.583 302.317 117.083 302.317 115.513 301.446C113.943 300.576 113.943 299.126 115.513 298.198C117.083 297.327 119.583 297.327 121.152 298.198Z" fill="#222222"/>
<path d="M135.918 289.727C137.488 290.597 137.488 292.047 135.918 292.976C134.349 293.846 131.849 293.846 130.279 292.976C128.71 292.105 128.71 290.655 130.279 289.727C131.849 288.857 134.349 288.857 135.918 289.727Z" fill="#222222"/>
<path d="M150.627 281.199C152.196 282.069 152.196 283.519 150.627 284.447C149.057 285.318 146.557 285.318 144.987 284.447C143.418 283.577 143.418 282.127 144.987 281.199C146.557 280.328 149.057 280.328 150.627 281.199Z" fill="#222222"/>
<path d="M165.334 272.728C166.904 273.598 166.904 275.048 165.334 275.977C163.765 276.847 161.265 276.847 159.695 275.977C158.126 275.106 158.126 273.656 159.695 272.728C161.265 271.858 163.765 271.858 165.334 272.728Z" fill="#222222"/>
<path d="M180.042 264.258C181.612 265.128 181.612 266.579 180.042 267.507C178.473 268.377 175.973 268.377 174.403 267.507C172.834 266.637 178.473 263.388 180.042 264.258Z" fill="#222222"/>
<path d="M106.444 289.727C108.014 290.597 108.014 292.047 106.444 292.976C104.874 293.846 102.375 293.846 100.805 292.976C99.2354 292.105 99.2354 290.655 100.805 289.727C102.375 288.857 104.874 288.857 106.444 289.727Z" fill="#222222"/>
<path d="M121.152 281.199C122.722 282.069 122.722 283.519 121.152 284.447C119.582 285.318 117.083 285.318 115.513 284.447C113.943 283.577 113.943 282.127 115.513 281.199C117.083 280.328 119.582 280.328 121.152 281.199Z" fill="#222222"/>
<path d="M135.918 272.728C137.488 273.598 137.488 275.048 135.918 275.977C134.349 276.847 131.849 276.847 130.279 275.977C128.71 275.106 128.71 273.656 130.279 272.728C131.849 271.858 134.349 271.858 135.918 272.728Z" fill="#222222"/>
<path d="M150.627 264.258C152.196 265.128 152.196 266.579 150.627 267.507C149.057 268.377 146.557 268.377 144.987 267.507C143.418 266.637 143.418 265.186 144.987 264.258C146.557 263.388 149.057 263.388 150.627 264.258Z" fill="#222222"/>
<path d="M106.444 272.728C108.014 273.598 108.014 275.048 106.444 275.977C104.875 276.847 102.375 276.847 100.805 275.977C99.2355 275.106 99.2355 273.656 100.805 272.728C102.375 271.858 104.875 271.858 106.444 272.728Z" fill="#222222"/>
<path d="M121.152 264.258C122.722 265.128 122.722 266.579 121.152 267.507C119.582 268.377 117.083 268.377 115.513 267.507C113.943 266.637 113.943 265.186 115.513 264.258C117.083 263.388 119.582 263.388 121.152 264.258Z" fill="#222222"/>
<path d="M276.778 414.171C278.348 415.041 278.348 416.492 276.778 417.42C275.209 418.29 272.709 418.29 271.139 417.42C269.57 416.55 269.57 415.099 271.139 414.171C272.709 413.301 275.209 413.301 276.778 414.171Z" fill="#222222"/>
<path d="M291.486 405.7C293.056 406.571 293.056 408.021 291.486 408.949C289.917 409.82 287.417 409.82 285.847 408.949C284.278 408.079 284.278 406.629 285.847 405.7C287.417 404.83 289.917 404.83 291.486 405.7Z" fill="#222222"/>
<path d="M247.362 414.171C248.932 415.041 248.932 416.492 247.362 417.42C245.792 418.29 243.293 418.29 241.723 417.42C240.153 416.55 240.153 415.099 241.723 414.171C243.293 413.301 245.792 413.301 247.362 414.171Z" fill="#222222"/>
<path d="M262.07 405.7C263.64 406.571 263.64 408.021 262.07 408.949C260.501 409.82 258.001 409.82 256.431 408.949C254.862 408.079 254.862 406.629 256.431 405.7C258.001 404.83 260.501 404.83 262.07 405.7Z" fill="#222222"/>
<path d="M276.778 397.173C278.348 398.043 278.348 399.493 276.778 400.421C275.209 401.292 272.709 401.292 271.139 400.421C269.57 399.551 269.57 398.101 271.139 397.173C272.709 396.244 275.209 396.302 276.778 397.173Z" fill="#222222"/>
<path d="M291.486 388.702C293.056 389.573 293.056 391.023 291.486 391.951C289.917 392.822 287.417 392.822 285.847 391.951C284.278 391.081 284.278 389.631 285.847 388.702C287.417 387.832 289.917 387.832 291.486 388.702Z" fill="#222222"/>
<path d="M232.654 405.7C234.224 406.571 234.224 408.021 232.654 408.949C231.085 409.82 228.585 409.82 227.015 408.949C225.446 408.079 225.446 406.629 227.015 405.7C228.585 404.83 231.085 404.83 232.654 405.7Z" fill="#222222"/>
<path d="M247.362 397.173C248.932 398.043 248.932 399.494 247.362 400.422C245.793 401.292 243.293 401.292 241.723 400.422C240.154 399.552 240.154 398.101 241.723 397.173C243.293 396.303 245.793 396.303 247.362 397.173Z" fill="#222222"/>
<path d="M232.654 388.702C234.224 389.573 234.224 391.023 232.654 391.951C231.085 392.822 228.585 392.822 227.015 391.951C225.446 391.081 225.446 389.631 227.015 388.702C228.585 387.832 231.085 387.832 232.654 388.702Z" fill="#222222"/>
<path d="M229.166 360.275C219.516 354.705 204.401 354.705 194.751 360.275L157.719 381.625C150.103 386.034 137.197 386.034 129.524 381.625C126.384 379.826 124.582 377.506 124.582 375.301C124.582 373.096 126.384 370.776 129.524 368.977L172.253 344.378C177.427 341.362 180.275 337.243 180.275 332.659C180.275 328.076 177.427 323.957 172.253 320.94L171.322 320.418C161.672 314.848 146.557 314.848 136.907 320.418L54.3558 367.991C46.7402 372.4 33.8343 372.4 26.1605 367.991L11.1618 359.347C8.02256 357.548 6.22039 355.227 6.22039 353.023C6.22039 350.818 8.02256 348.498 11.1618 346.699L140.627 272.555C145.511 274.643 152.429 274.411 156.847 271.859C161.73 269.074 161.73 264.491 156.847 261.706C151.964 258.921 144.057 258.921 139.174 261.706C136.151 263.446 134.988 265.883 135.744 268.146L8.02256 341.246C2.84859 344.262 0 348.382 0 352.965C0 357.548 2.84859 361.667 8.02256 364.684L23.0213 373.328C32.6716 378.898 47.7866 378.898 57.4369 373.328L139.988 325.755C147.604 321.346 160.509 321.346 168.183 325.755L169.113 326.278C172.253 328.076 174.055 330.397 174.055 332.601C174.055 334.806 172.253 337.127 169.113 338.925L126.384 363.524C121.21 366.541 118.362 370.66 118.362 375.243C118.362 379.826 121.21 383.945 126.384 386.962C136.035 392.532 151.15 392.532 160.8 386.962L197.832 365.612C205.447 361.203 218.411 361.203 225.969 365.612L237.945 372.922L240.909 364.626L229.108 360.275H229.166Z" fill="#222222"/>
<path d="M229.922 355.054C220.272 349.484 205.157 349.484 195.506 355.054L158.475 376.404C150.859 380.813 137.953 380.813 130.279 376.404C127.14 374.605 125.338 372.284 125.338 370.08C125.338 367.875 127.14 365.555 130.279 363.756L173.008 339.157C178.182 336.141 181.031 332.021 181.031 327.438C181.031 322.855 178.182 318.736 173.008 315.719L172.078 315.197C162.428 309.627 147.313 309.627 137.663 315.197L55.1115 362.77C47.4959 367.179 34.59 367.179 26.9163 362.77L11.9176 354.126C8.7783 352.327 6.97613 350.006 6.97613 347.802C6.97613 345.597 8.7783 343.277 11.9176 341.478L142.72 266.522C147.371 267.798 153.068 267.334 156.847 265.129C161.73 262.344 161.73 257.761 156.847 254.976C151.964 252.192 144.057 252.192 139.174 254.976C135.453 257.123 134.581 260.256 136.5 262.867L8.7783 336.083C3.60433 339.099 0.755737 343.219 0.755737 347.802C0.755737 352.385 3.60433 356.504 8.7783 359.521L23.777 368.165C33.4273 373.735 48.5423 373.735 58.1926 368.165L140.744 320.592C148.359 316.183 161.265 316.183 168.939 320.592L169.869 321.115C173.008 322.913 174.81 325.234 174.81 327.438C174.81 329.643 173.008 331.963 169.869 333.762L127.14 358.361C121.966 361.378 119.118 365.497 119.118 370.08C119.118 374.663 121.966 378.782 127.14 381.799C136.79 387.369 151.905 387.369 161.556 381.799L198.587 360.449C206.203 356.04 219.167 356.04 226.725 360.449L238.7 367.759L245.618 364.626L229.864 355.054H229.922Z" fill="url(#paint0_linear_1_2220)"/>
<path d="M265.791 373.387C262.477 371.472 257.187 371.472 253.873 373.387C250.56 375.301 250.56 378.376 253.873 380.233C257.187 382.147 262.477 382.147 265.791 380.233C269.047 378.318 269.047 375.243 265.791 373.387Z" fill="#222222"/>
<path d="M278.755 364.626C268.175 358.534 251.548 358.534 240.968 364.626C235.503 367.759 232.48 372.11 232.48 376.809C232.48 381.509 235.503 385.86 240.968 388.993C246.258 392.067 253.06 393.576 259.861 393.576C266.663 393.576 273.465 392.067 278.755 388.993C284.22 385.86 287.243 381.509 287.243 376.809C287.243 372.11 284.22 367.759 278.755 364.626ZM276.488 385.106C267.303 390.385 252.362 390.385 243.177 385.106C239.165 382.785 236.956 379.826 236.956 376.809C236.956 373.792 239.165 370.834 243.177 368.513C247.769 365.844 253.815 364.568 259.803 364.568C265.791 364.568 271.837 365.902 276.43 368.513C280.441 370.834 282.65 373.792 282.65 376.809C282.65 379.826 280.441 382.785 276.43 385.106H276.488Z" fill="#222222"/>
<path d="M265.791 368.861C262.477 366.946 257.187 366.946 253.873 368.861C250.56 370.775 250.56 373.85 253.873 375.707C257.187 377.621 262.477 377.621 265.791 375.707C269.105 373.792 269.105 370.717 265.791 368.861Z" fill="url(#paint1_linear_1_2220)"/>
<path d="M278.755 360.101C268.175 354.009 251.548 354.009 240.968 360.101C235.503 363.234 232.48 367.585 232.48 372.284C232.48 376.984 235.503 381.335 240.968 384.468C246.258 387.543 253.06 389.051 259.861 389.051C266.663 389.051 273.465 387.543 278.755 384.468C284.22 381.335 287.243 376.984 287.243 372.284C287.243 367.585 284.22 363.234 278.755 360.101ZM276.488 380.581C267.302 385.86 252.362 385.86 243.177 380.581C239.165 378.26 236.956 375.301 236.956 372.284C236.956 369.268 239.165 366.309 243.177 363.988C247.769 361.319 253.815 360.043 259.803 360.043C265.791 360.043 271.837 361.377 276.43 363.988C280.441 366.309 282.65 369.268 282.65 372.284C282.65 375.301 280.441 378.26 276.43 380.581H276.488Z" fill="url(#paint2_linear_1_2220)"/>
<path d="M256.315 235.424C238.584 243.605 222.655 268.319 221.143 291.178C220.562 300.344 222.364 307.712 225.969 312.76L251.548 361.145L263.814 367.12C264.919 364.626 282.824 279.632 283.638 277.08C285.556 271.104 298.637 267.333 298.753 261.532C299.102 240.24 273.697 227.476 256.373 235.482L256.315 235.424ZM254.048 289.959C247.071 293.44 241.723 289.147 242.13 280.503C242.537 271.916 248.467 262.402 255.327 259.153C262.07 255.962 267.302 260.023 267.012 268.377C266.721 276.848 260.966 286.536 254.048 289.959Z" fill="url(#paint3_radial_1_2220)"/>
<path d="M258.524 239.776C240.793 247.956 224.864 272.671 223.352 295.529C223.062 299.88 223.352 303.767 224.108 307.248C244.339 319.432 259.512 318.677 275.383 329.468C280.324 306.61 285.382 282.766 285.847 281.373C287.766 275.398 297.59 270.93 297.648 265.129C297.997 243.837 275.848 231.828 258.582 239.776H258.524ZM256.257 294.311C249.28 297.792 243.932 293.499 244.339 284.854C244.746 276.268 250.676 266.753 257.536 263.504C264.279 260.313 269.511 264.375 269.221 272.729C268.93 281.199 263.175 290.888 256.257 294.311Z" fill="url(#paint4_linear_1_2220)"/>
<path d="M264.454 368.919L250.56 362.132L250.327 361.725L224.748 313.34C220.911 308.003 219.167 300.229 219.807 291.062C221.318 268.146 237.479 242.619 255.792 234.207C264.977 229.971 277.069 231.19 286.487 237.339C295.265 243.083 300.207 251.843 300.032 261.532C299.974 265.303 295.905 268.03 292.01 270.699C288.87 272.845 285.615 275.05 284.859 277.428C284.51 278.415 281.197 293.963 277.65 310.381C270.674 342.928 265.617 366.135 264.977 367.585L264.396 368.861L264.454 368.919ZM252.536 360.101L262.942 365.206C264.57 358.593 270.558 330.745 275.092 309.859C279.394 289.96 282.01 277.719 282.359 276.674C283.406 273.425 287.068 270.931 290.556 268.494C293.87 266.231 297.358 263.853 297.416 261.474C297.532 252.772 293.056 244.824 285.092 239.602C276.43 233.975 265.384 232.814 257.013 236.643C239.514 244.707 224.05 269.19 222.597 291.236C222.016 299.823 223.585 306.958 227.131 311.948L252.594 360.101H252.536ZM249.455 292.513C247.885 292.513 246.374 292.106 245.095 291.236C242.13 289.322 240.561 285.377 240.851 280.387C241.316 271.279 247.42 261.416 254.803 257.877C258.292 256.253 261.605 256.253 264.163 257.877C267.012 259.734 268.581 263.563 268.465 268.32C268.174 277.254 262.012 287.465 254.745 291.062C252.943 291.99 251.141 292.397 249.513 292.397L249.455 292.513ZM259.745 259.385C258.582 259.385 257.303 259.734 255.966 260.372C249.513 263.447 243.99 272.497 243.584 280.561C243.409 284.564 244.514 287.639 246.607 289.032C248.409 290.192 250.85 290.134 253.525 288.8C260.036 285.551 265.5 276.384 265.733 268.378C265.849 264.607 264.744 261.648 262.652 260.256C261.838 259.734 260.849 259.444 259.745 259.444V259.385Z" fill="#222222"/>
<path d="M298.985 265.188C299.334 243.896 285.905 233.453 268.581 241.459C250.85 249.639 234.921 274.354 233.41 297.212C232.828 306.379 234.631 313.747 238.235 318.794L263.814 367.179L292.998 290.715C294.102 288.22 295.09 285.667 295.904 283.114C297.823 277.139 298.927 271.047 299.044 265.246L298.985 265.188Z" fill="#222222"/>
<path d="M264.454 368.919L262.826 368.107L237.014 319.316C233.177 313.978 231.433 306.204 232.073 297.038C233.584 274.122 249.746 248.595 268.058 240.182C276.255 236.411 284.045 236.469 290.033 240.356C296.893 244.824 300.555 253.642 300.381 265.187C300.265 271.047 299.218 277.138 297.183 283.462C296.37 286.073 295.381 288.626 294.219 291.178L264.454 368.919ZM279.685 240.066C276.429 240.066 272.825 240.936 269.163 242.619C251.664 250.683 236.2 275.166 234.747 297.212C234.166 305.798 235.735 312.934 239.281 317.924L263.524 363.814L291.661 290.134C292.765 287.639 293.754 285.087 294.509 282.592C296.428 276.558 297.474 270.699 297.59 265.129C297.765 254.686 294.451 246.506 288.463 242.619C285.905 240.936 282.882 240.124 279.627 240.124L279.685 240.066Z" fill="#222222"/>
<path d="M264.802 312.586L251.78 303.767C249.978 302.549 250.094 298.894 252.071 295.645C254.047 292.396 257.129 290.772 258.989 291.99L265.558 296.457L277.65 271.917C279.336 268.552 282.417 266.405 284.51 267.159C286.603 267.914 286.893 271.279 285.208 274.701L267.07 311.251C266.488 312.412 265.384 313.05 264.802 312.644V312.586Z" fill="url(#paint5_radial_1_2220)"/>
<path d="M102.491 262.111V208.736L148.011 235.25V288.624L102.491 262.111Z" fill="url(#paint6_radial_1_2220)"/>
<path d="M102.491 208.738L150.801 180.658L196.96 206.881L148.011 235.251L102.491 208.738Z" fill="url(#paint7_radial_1_2220)"/>
<path d="M102.491 212.102L150.801 183.964L196.96 210.187L148.011 238.615L102.491 212.102Z" fill="url(#paint8_linear_1_2220)"/>
<path d="M197.716 207.287V206.416L196.96 206.01L150.801 179.787L102.491 207.925L101.736 208.331V209.201V262.576L147.255 289.089L148.011 289.495L148.766 289.089L197.716 260.719V207.345V207.287ZM104.003 208.737L150.801 181.47L195.448 206.822L147.953 234.322L122.141 219.296L103.945 208.737H104.003ZM103.247 261.705V210.071L122.606 221.326L147.313 235.714V287.407L103.305 261.764L103.247 261.705Z" fill="#222222"/>
<path d="M180.741 238.21L166.091 246.68C164.114 247.84 162.486 246.622 162.486 243.953C162.486 241.284 164.114 238.21 166.091 237.049L180.741 228.579C182.717 227.419 184.345 228.637 184.345 231.306C184.345 233.974 182.717 237.049 180.741 238.21Z" fill="url(#paint9_linear_1_2220)"/>
<path d="M166.091 237.107C164.114 238.267 162.486 241.342 162.486 244.011C162.486 244.359 162.777 244.591 162.835 244.939C163.068 244.881 163.068 244.823 163.358 244.707L178.008 236.237C179.985 235.077 181.613 232.002 181.613 229.333C181.613 228.985 181.613 228.637 181.555 228.347C181.322 228.405 181.031 228.521 180.799 228.695L166.149 237.165L166.091 237.107Z" fill="url(#paint10_radial_1_2220)"/>
<path d="M183.531 227.766C183.124 227.534 182.659 227.418 182.136 227.418H182.02C181.496 227.418 180.973 227.65 180.392 227.94L165.742 236.411C163.475 237.687 161.731 241.052 161.731 244.011C161.731 244.011 161.731 244.011 161.731 244.069C161.731 245.693 162.37 246.911 163.358 247.55C163.765 247.782 164.23 247.898 164.696 247.898C165.277 247.898 165.916 247.724 166.498 247.376L181.148 238.905C183.415 237.629 185.159 234.264 185.159 231.305C185.159 229.623 184.578 228.346 183.531 227.708V227.766ZM163.3 243.663C163.475 241.4 164.87 238.789 166.498 237.803L180.857 229.507C180.799 231.827 179.345 234.612 177.601 235.598L163.242 243.895C163.242 243.895 163.242 243.779 163.242 243.663H163.3ZM180.392 237.629L165.742 246.099C165.277 246.331 164.637 246.621 164.114 246.273C163.882 246.099 163.649 245.867 163.533 245.519C163.591 245.519 163.649 245.461 163.707 245.403L178.357 236.933C180.624 235.656 182.368 232.291 182.368 229.333C182.368 229.217 182.368 229.101 182.368 228.985C182.485 228.985 182.659 228.985 182.775 229.101C183.299 229.391 183.647 230.261 183.647 231.363C183.647 233.742 182.136 236.585 180.392 237.629Z" fill="#222222"/>
<path d="M169.578 192.203L120.92 220.341V234.265L131.907 240.705V226.665L180.682 198.527L169.578 192.203Z" fill="url(#paint11_radial_1_2220)"/>
<path d="M180.101 196.438L167.486 189.244L118.827 217.382L118.071 217.788V218.658V232.582L130.57 239.892V225.04L180.101 196.438ZM167.486 190.985L177.136 196.438L129.873 223.764L120.338 218.252L167.544 190.985H167.486ZM119.583 231.77V219.529L129.117 225.04V237.339L119.583 231.77Z" fill="#222222"/>
<path d="M139.988 277.719L130.687 272.382C129.582 271.743 128.71 270.119 128.71 268.669V259.386C128.71 257.936 129.582 257.297 130.687 257.936L139.988 263.273C141.093 263.911 141.965 265.536 141.965 266.986V276.269C141.965 277.719 141.093 278.357 139.988 277.719Z" fill="url(#paint12_linear_1_2220)"/>
<path d="M139.116 275.398C138.767 275.398 138.36 275.282 137.953 275.05L128.652 269.712C127.373 268.958 126.326 267.044 126.326 265.361V256.079C126.326 255.034 126.733 254.222 127.373 253.874C127.954 253.526 128.71 253.584 129.408 253.99L138.709 259.328C139.988 260.082 141.034 261.996 141.034 263.679V272.961C141.034 274.006 140.628 274.818 139.988 275.166C139.697 275.34 139.407 275.398 139.116 275.398ZM128.303 255.092H128.187C128.012 255.15 127.896 255.499 127.896 256.021V265.303C127.896 266.464 128.652 267.914 129.466 268.378L138.767 273.715C138.767 273.715 139.174 273.89 139.29 273.832C139.465 273.774 139.581 273.425 139.581 272.903V263.621C139.581 262.46 138.825 261.01 138.011 260.546L128.71 255.208C128.71 255.208 128.477 255.092 128.303 255.092Z" fill="#222222"/>
<path d="M149.755 190.926C137.546 190.926 128.07 200.208 128.07 208.157C128.07 216.105 137.779 223.009 149.755 223.009C161.73 223.009 171.439 216.337 171.439 208.157C171.439 199.976 161.963 190.926 149.755 190.926Z" fill="#222222"/>
<path d="M167.66 203.747C167.66 210.419 159.638 215.814 149.755 215.814C139.872 215.814 131.849 210.419 131.849 203.747C131.849 197.075 139.872 191.68 149.755 191.68C159.638 191.68 167.66 197.075 167.66 203.747Z" fill="url(#paint13_radial_1_2220)"/>
<path d="M167.66 206.996C167.66 206.996 159.638 215.815 149.755 215.815C139.872 215.815 131.849 206.996 131.849 206.996C131.849 200.324 139.872 194.929 149.755 194.929C159.638 194.929 167.66 200.324 167.66 206.996Z" fill="url(#paint14_linear_1_2220)"/>
<path d="M149.755 216.511C139.465 216.511 131.093 210.768 131.093 203.69C131.093 196.612 139.465 190.868 149.755 190.868C160.044 190.868 168.416 196.612 168.416 203.69C168.416 210.768 160.044 216.511 149.755 216.511ZM149.755 192.377C140.279 192.377 132.605 197.482 132.605 203.69C132.605 209.898 140.337 215.003 149.755 215.003C159.172 215.003 166.904 209.898 166.904 203.69C166.904 197.482 159.172 192.377 149.755 192.377Z" fill="#222222"/>
<path d="M149.754 128.211C148.185 128.211 146.906 129.546 146.906 131.112V201.543C146.906 203.168 148.185 204.444 149.754 204.444C151.324 204.444 152.603 203.11 152.603 201.543V131.112C152.603 129.488 151.324 128.211 149.754 128.211Z" fill="#222222"/>
<path d="M76.8536 61.0872L78.6558 39.5634H54.2393L56.0415 61.0872C56.0415 61.0872 56.0415 61.2033 56.0415 61.2613C56.0415 61.4353 56.0996 61.6674 56.1578 61.8414V62.3056H56.2159C56.9716 65.6705 61.2736 68.2812 66.5057 68.2812C71.7378 68.2812 76.0398 65.6705 76.7955 62.3056V61.8414C76.7955 61.8414 76.9118 61.4353 76.9118 61.2613C76.9118 61.2613 76.9118 61.1453 76.9118 61.0872H76.8536Z" fill="url(#paint15_radial_1_2220)"/>
<path d="M79.4691 38.8094H54.2968C53.8317 38.8094 53.4829 39.2156 53.5411 39.6797L55.3432 61.0295V61.2616C55.3432 61.2616 55.3432 61.6097 55.4014 61.8998L55.6339 63.0021C56.7966 66.541 61.2148 68.9777 66.5051 68.9777C71.7953 68.9777 76.2135 66.483 77.3762 63.0021L77.6669 61.7257C77.6669 61.7257 77.725 61.4356 77.725 61.2036V61.0295L79.5272 38.8094H79.4691ZM76.1554 61.0295V61.2616C76.1554 61.2616 76.1554 61.3776 76.1554 61.4937C76.1554 61.6097 76.1554 61.6677 76.1554 61.7837V62.1318C75.8066 63.4082 74.8764 64.5685 73.5975 65.4967L74.9927 45.3072L70.7489 47.8019H66.5051V67.5853C61.738 67.5853 57.6105 65.2647 56.9129 62.1898V62.0738V61.8417C56.9129 61.7257 56.9129 61.6677 56.9129 61.5517C56.9129 61.4937 56.9129 61.4356 56.9129 61.4356V61.2616L55.227 40.4339H78.0738L76.3298 61.1456L76.1554 61.0295Z" fill="#222222"/>
<path d="M78.6557 39.5628C78.6557 44.088 73.1911 47.801 66.4474 47.801C59.7038 47.801 54.2392 44.146 54.2392 39.5628C54.2392 34.9795 59.7038 29.9322 66.4474 29.9322C73.1911 29.9322 78.6557 35.0376 78.6557 39.5628Z" fill="url(#paint16_radial_1_2220)"/>
<path d="M66.4475 48.5557C59.2969 48.5557 53.4835 44.5526 53.4835 39.5633C53.4835 34.5739 59.1225 29.1784 66.4475 29.1784C73.7724 29.1784 79.4115 34.748 79.4115 39.5633C79.4115 44.3786 73.598 48.5557 66.4475 48.5557ZM66.4475 30.6868C60.1108 30.6868 54.995 35.5602 54.995 39.5633C54.995 43.5664 60.1689 47.0473 66.4475 47.0473C72.726 47.0473 77.9 43.6824 77.9 39.5633C77.9 35.4441 72.7841 30.6868 66.4475 30.6868Z" fill="#222222"/>
<path d="M66.447 43.972C72.2262 43.972 76.9112 40.8291 76.9112 36.9521C76.9112 33.0751 72.2262 29.9322 66.447 29.9322C60.6678 29.9322 55.9828 33.0751 55.9828 36.9521C55.9828 40.8291 60.6678 43.972 66.447 43.972Z" fill="url(#paint17_linear_1_2220)"/>
<path d="M66.447 44.7267C60.2848 44.7267 55.2271 41.2457 55.2271 36.9526C55.2271 32.6594 60.2267 29.1784 66.447 29.1784C72.6674 29.1784 77.667 32.6594 77.667 36.9526C77.667 41.2457 72.6674 44.7267 66.447 44.7267ZM66.447 30.6288C61.0987 30.6288 56.7386 33.4716 56.7386 36.8945C56.7386 40.3175 61.0987 43.1603 66.447 43.1603C71.7954 43.1603 76.1555 40.3175 76.1555 36.8945C76.1555 33.4716 71.7954 30.6288 66.447 30.6288Z" fill="#222222"/>
<path d="M69.0053 30.0482C68.0751 29.8161 67.5519 30.6283 67.0868 31.3245C66.9124 31.5566 66.5636 32.0787 66.5055 32.1367C66.3311 32.0787 65.9823 31.6146 65.8079 31.3245C65.3428 30.6863 64.7615 29.8161 63.8894 30.0482C61.2734 30.7443 59.6456 34.7474 59.6456 36.3139C59.6456 38.6345 62.6686 40.491 66.4474 40.491C70.2261 40.491 73.2491 38.6345 73.2491 36.3139C73.2491 34.8055 71.4469 30.7443 68.9471 30.0482H69.0053Z" fill="#222222"/>
<path d="M11.6262 35.4435C10.1147 35.5595 9.18453 36.2557 9.35893 37.358C9.6496 39.4466 11.1611 43.3917 17.2071 48.7871C22.9624 53.9505 29.0084 56.5032 32.4965 57.6636C34.2405 58.2437 35.8683 58.1277 36.7403 57.4315L64.296 34.1091C64.9937 33.529 63.6566 32.3686 62.3776 32.4267L11.6262 35.3855V35.4435Z" fill="url(#paint18_linear_1_2220)"/>
<path d="M39.0656 64.6835C38.7168 64.6835 38.368 64.6835 38.0192 64.6255C34.5893 64.2194 27.9038 62.885 20.9858 58.8239C13.9515 54.7048 11.5099 51.0498 10.696 48.7291C10.4635 48.149 10.5216 47.5108 10.8123 46.9887C11.1611 46.2925 11.975 45.7123 13.0795 45.4222L62.2613 32.4847C63.3659 32.1946 64.7611 32.6588 65.2843 33.471C65.575 33.9351 65.575 34.5153 65.2843 34.9794L42.9025 63.2911C42.2049 64.1614 40.8097 64.6835 39.1819 64.6835H39.0656ZM62.9589 33.9351C62.9589 33.9351 62.7264 33.9351 62.6101 33.9351L13.4283 46.8726C12.7888 47.0467 12.2656 47.3368 12.0912 47.6849C12.0331 47.8589 11.975 48.033 12.0912 48.207C12.7307 49.8895 14.7654 53.3704 21.7416 57.4895C28.427 61.4346 34.9381 62.711 38.1936 63.1171C39.9377 63.3491 41.2166 62.885 41.6236 62.3049L63.8891 34.1672C63.8891 34.1672 63.3077 33.8771 62.9589 33.8771V33.9351Z" fill="#222222"/>
<path d="M120.396 30.0479C121.908 29.9899 122.838 29.2357 122.722 28.1914C122.431 26.1028 120.978 22.1577 114.99 16.7042C109.293 11.5408 103.247 8.93012 99.7584 7.71179C98.0144 7.13163 96.3866 7.18964 95.5146 7.88583L67.4357 30.9181C66.738 31.4983 68.0751 32.6586 69.296 32.6006L120.28 29.9899L120.396 30.0479Z" fill="url(#paint19_linear_1_2220)"/>
<path d="M68.8308 32.775C67.9007 32.775 66.9124 32.3689 66.5054 31.7307C66.2148 31.2666 66.2148 30.6865 66.5636 30.2223L89.5267 2.14265C90.3987 1.09836 92.259 0.576222 94.2937 0.866301C97.7237 1.33043 104.409 2.66479 111.269 6.7259C118.245 10.903 120.629 14.5 121.443 16.8207C121.617 17.4008 121.617 17.981 121.326 18.5611C120.919 19.2573 120.105 19.8375 119.059 20.1276L69.5866 32.717C69.5866 32.717 69.1215 32.775 68.8889 32.775H68.8308ZM67.9007 31.0345C67.9007 31.0345 68.7145 31.3826 69.1796 31.2666L118.652 18.6772C119.35 18.5031 119.815 18.213 119.989 17.8649C120.105 17.6909 120.105 17.5169 119.989 17.3428C119.408 15.6603 117.373 12.1794 110.455 8.00225C103.828 4.05717 97.3749 2.72281 94.0612 2.3167C92.3172 2.08463 91.0382 2.54876 90.6313 3.0709L67.8425 31.0345H67.9007Z" fill="#222222"/>
<path d="M70.6908 32.7164C70.6908 34.0508 68.7724 35.0951 66.447 35.0951C64.1216 35.0951 62.2032 34.0508 62.2032 32.7164C62.2032 31.3821 64.1216 30.3378 66.447 30.3378C68.7724 30.3378 70.6908 31.3821 70.6908 32.7164Z" fill="url(#paint20_linear_1_2220)"/>
<path d="M66.4472 35.8496C63.6567 35.8496 61.4476 34.4572 61.4476 32.7167C61.4476 30.9762 63.6567 29.5839 66.4472 29.5839C69.2377 29.5839 71.3886 30.9762 71.3886 32.7167C71.3886 34.4572 69.1795 35.8496 66.4472 35.8496ZM66.4472 31.0923C64.4706 31.0923 62.9591 31.9625 62.9591 32.7167C62.9591 33.4709 64.4706 34.3412 66.4472 34.3412C68.4238 34.3412 69.9353 33.4709 69.9353 32.7167C69.9353 31.9625 68.4238 31.0923 66.4472 31.0923Z" fill="#222222"/>
<path d="M241.258 60.7397L243.06 39.2158H218.644L220.446 60.7397C220.446 60.7397 220.446 60.8557 220.446 60.9138C220.446 61.0878 220.504 61.3199 220.562 61.4939V61.958H220.62C221.376 65.323 225.678 67.9337 230.91 67.9337C236.142 67.9337 240.444 65.323 241.2 61.958V61.4939C241.2 61.4939 241.316 61.0878 241.316 60.9138C241.316 60.9138 241.316 60.7977 241.316 60.7397H241.258Z" fill="url(#paint21_radial_1_2220)"/>
<path d="M243.816 38.4609H218.644C218.179 38.4609 217.83 38.867 217.888 39.3312L219.69 60.681V60.9131C219.69 60.9131 219.69 61.2612 219.748 61.5513L219.981 62.6536C221.143 66.1925 225.562 68.6292 230.852 68.6292C236.142 68.6292 240.56 66.1345 241.723 62.6536L242.014 61.3772C242.014 61.3772 242.072 61.0291 242.072 60.8551V60.681L243.874 38.4609H243.816ZM240.502 60.681V60.9131C240.502 60.9131 240.502 61.0291 240.502 61.1451C240.502 61.2612 240.502 61.3192 240.502 61.4352V61.7833C240.153 63.0597 239.223 64.22 237.944 65.1482L239.339 44.9587L235.096 47.4534H230.852V67.2368C226.085 67.2368 221.957 64.9162 221.26 61.8413V61.7253V61.4932C221.26 61.3772 221.26 61.3192 221.26 61.2032C221.26 61.1451 221.26 61.0871 221.26 61.0871V60.9131L219.574 40.0854H242.421L240.677 60.797L240.502 60.681Z" fill="#222222"/>
<path d="M243.002 39.2136C243.002 43.7389 237.537 47.4519 230.794 47.4519C224.05 47.4519 218.586 43.7969 218.586 39.2136C218.586 34.6304 224.05 29.583 230.794 29.583C237.537 29.583 243.002 34.6884 243.002 39.2136Z" fill="url(#paint22_radial_1_2220)"/>
<path d="M230.794 48.1488C223.643 48.1488 217.83 44.1457 217.83 39.1563C217.83 34.167 223.469 28.7715 230.794 28.7715C238.119 28.7715 243.758 34.341 243.758 39.1563C243.758 43.9716 237.944 48.1488 230.794 48.1488ZM230.794 30.2799C224.457 30.2799 219.341 35.1532 219.341 39.1563C219.341 43.1594 224.515 46.6404 230.794 46.6404C237.072 46.6404 242.246 43.2754 242.246 39.1563C242.246 35.0372 237.13 30.2799 230.794 30.2799Z" fill="#222222"/>
<path d="M241.258 36.6039C241.258 40.491 236.607 43.6239 230.794 43.6239C224.98 43.6239 220.33 40.491 220.33 36.6039C220.33 32.7169 224.98 29.584 230.794 29.584C236.607 29.584 241.258 32.7169 241.258 36.6039Z" fill="url(#paint23_linear_1_2220)"/>
<path d="M230.794 44.3784C224.632 44.3784 219.574 40.8974 219.574 36.6042C219.574 32.3111 224.573 28.8301 230.794 28.8301C237.014 28.8301 242.014 32.3111 242.014 36.6042C242.014 40.8974 237.014 44.3784 230.794 44.3784ZM230.794 30.2805C225.445 30.2805 221.085 33.1233 221.085 36.5462C221.085 39.9692 225.445 42.8119 230.794 42.8119C236.142 42.8119 240.502 39.9692 240.502 36.5462C240.502 33.1233 236.142 30.2805 230.794 30.2805Z" fill="#222222"/>
<path d="M233.352 29.6428C232.421 29.4108 231.898 30.223 231.433 30.9192C231.259 31.1512 230.91 31.6734 230.852 31.7314C230.677 31.6734 230.329 31.2093 230.154 30.9192C229.689 30.281 229.108 29.4108 228.236 29.6428C225.62 30.339 223.992 34.3421 223.992 35.9085C223.992 38.2292 227.015 40.0857 230.794 40.0857C234.572 40.0857 237.595 38.2292 237.595 35.9085C237.595 34.4001 235.793 30.339 233.293 29.6428H233.352Z" fill="#222222"/>
<path d="M202.134 6.84211C201.32 6.14592 199.692 6.02989 198.006 6.55203C194.692 7.59632 188.879 10.033 182.6 15.3704C176.671 20.4178 175.101 24.4789 174.694 26.6835C174.52 27.7858 175.392 28.54 176.961 28.6561L227.596 32.079C228.875 32.137 230.213 30.9767 229.515 30.3965L202.134 6.7841V6.84211Z" fill="url(#paint24_linear_1_2220)"/>
<path d="M228.236 32.3112C228.236 32.3112 227.771 32.3112 227.538 32.1952L178.415 19.3157C177.31 19.0256 176.554 18.5035 176.148 17.7493C175.857 17.2271 175.857 16.5889 176.031 15.9508C176.961 13.4561 179.461 9.74308 186.263 5.91403C193.355 1.91094 199.459 0.518556 203.354 0.0544296C205.389 -0.177634 207.191 0.344509 208.063 1.38879L230.503 29.7005C230.852 30.1647 230.852 30.6868 230.503 31.2089C230.096 31.8471 229.108 32.2532 228.178 32.2532L228.236 32.3112ZM204.343 1.56284C204.343 1.56284 203.82 1.56284 203.529 1.56284C200.448 1.91094 194.227 3.12927 187.019 7.2484C180.275 11.0194 178.124 14.6744 177.485 16.5309C177.426 16.763 177.426 16.937 177.485 17.1111C177.659 17.4592 178.124 17.7493 178.822 17.9233L227.945 30.8028C228.469 30.9189 228.992 30.7448 229.224 30.5708L206.901 2.37506C206.552 1.91094 205.622 1.56284 204.343 1.56284Z" fill="#222222"/>
<path d="M259.28 57.8385C260.094 58.5347 261.722 58.7087 263.407 58.1866C266.721 57.1423 272.593 54.7636 278.871 49.4262C284.859 44.4368 286.487 40.3177 286.894 38.1131C287.068 37.0108 286.196 36.2566 284.685 36.1405L234.282 32.3695C233.061 32.2535 231.666 33.4138 232.364 33.994L259.222 57.8965L259.28 57.8385Z" fill="url(#paint25_linear_1_2220)"/>
<path d="M257.071 64.6264C255.443 64.6264 254.048 64.1043 253.35 63.176L231.491 34.6902C231.143 34.2261 231.143 33.704 231.491 33.1818C232.015 32.3696 233.41 31.9635 234.514 32.2536L283.289 45.4812C284.336 45.7713 285.15 46.3514 285.498 47.0476C285.789 47.6278 285.789 48.2079 285.557 48.8461C284.568 51.3408 282.01 55.0538 275.209 58.8248C268.058 62.7699 261.954 64.1043 258.059 64.5684C257.768 64.5684 257.419 64.5684 257.129 64.5684L257.071 64.6264ZM254.513 62.3058C254.92 62.8279 256.082 63.2921 257.826 63.118C261.605 62.7119 267.477 61.3775 274.395 57.5485C281.196 53.7775 283.406 50.1225 284.103 48.324C284.161 48.0919 284.161 47.9179 284.103 47.7438C283.929 47.3957 283.464 47.1056 282.824 46.9316L234.049 33.704C233.526 33.5299 232.945 33.762 232.712 33.936L254.455 62.3058H254.513Z" fill="#222222"/>
<path d="M235.038 32.3692C235.038 33.7035 233.119 34.7478 230.794 34.7478C228.468 34.7478 226.55 33.7035 226.55 32.3692C226.55 31.0348 228.468 29.9905 230.794 29.9905C233.119 29.9905 235.038 31.0348 235.038 32.3692Z" fill="url(#paint26_linear_1_2220)"/>
<path d="M230.794 35.5022C228.004 35.5022 225.794 34.1098 225.794 32.3693C225.794 30.6289 228.004 29.2365 230.794 29.2365C233.584 29.2365 235.735 30.6289 235.735 32.3693C235.735 34.1098 233.526 35.5022 230.794 35.5022ZM230.794 30.7449C228.817 30.7449 227.306 31.6151 227.306 32.3693C227.306 33.1235 228.817 33.9938 230.794 33.9938C232.771 33.9938 234.282 33.1235 234.282 32.3693C234.282 31.6151 232.771 30.7449 230.794 30.7449Z" fill="#222222"/>
<path d="M118.652 95.6071L70.6331 56.9105C69.3541 55.9243 69.0053 54.1258 69.8192 52.6174C70.6912 51.167 72.4353 50.5868 74.0049 51.283L129 77.0421L126.733 81.7994L87.434 63.4083C87.434 63.4083 87.2014 63.5244 87.3177 63.5824L120.222 90.0376L118.652 95.5491V95.6071Z" fill="#222222"/>
<path d="M118.943 96.5351L70.2843 57.3164C68.7728 56.1561 68.3659 54.0095 69.3542 52.385C70.3425 50.7026 72.3772 50.0064 74.2375 50.8186L129.756 76.8097L127.082 82.5533L90.457 65.4386L120.861 89.9213L118.943 96.5931V96.5351ZM72.6678 51.5148C71.7377 51.5148 70.8075 52.0369 70.2843 52.9072C69.5867 54.1255 69.8192 55.6339 70.9238 56.4461L118.362 94.6206L119.582 90.2114L86.9689 63.9302C86.9689 63.9302 86.6201 63.35 86.8527 63.0599C87.0271 62.7699 87.3759 62.6538 87.6665 62.8279L126.5 80.9868L128.303 77.1578L73.7724 51.6308C73.4236 51.4568 73.0166 51.3988 72.6678 51.3988V51.5148Z" fill="url(#paint27_radial_1_2220)"/>
<path d="M181.612 94.2142L178.298 90.0951L211.783 63.1177L171.787 81.8568L169.52 77.0995L224.457 51.3985C226.084 50.7023 227.829 51.2825 228.701 52.7329C229.573 54.1833 229.224 55.9818 227.887 57.0261L181.67 94.2722L181.612 94.2142Z" fill="#222222"/>
<path d="M181.496 94.9683L177.484 90.037L177.891 89.6889L208.005 65.4383L171.438 82.5529L168.706 76.8094L224.108 50.8763C225.968 50.0641 228.061 50.7022 229.05 52.3847C230.038 54.0672 229.631 56.2137 228.061 57.3741L181.437 94.9683H181.496ZM178.996 90.211L181.612 93.4599L227.364 56.5618C228.526 55.6916 228.817 54.1832 228.061 52.9649C227.306 51.7465 225.852 51.2824 224.515 51.8626L170.101 77.3315L171.903 81.1606L211.842 62.4795L212.365 63.2337L212.016 63.5818L178.938 90.211H178.996Z" fill="url(#paint28_radial_1_2220)"/>
<path d="M180.74 104.541C175.566 96.2452 163.707 90.8497 150.336 90.8497C136.267 90.8497 123.884 96.8254 119.234 105.76L115.048 103.787L117.606 116.261C119.873 127.98 134.116 137.204 150.103 137.204C166.09 137.204 180.042 128.386 182.833 117.015C182.891 116.725 182.949 116.435 183.007 116.145L185.449 104.425L180.682 104.541H180.74Z" fill="#222222"/>
<path d="M184.461 98.5071V98.2751C184.286 97.985 184.228 97.6369 184.112 97.3468L182.019 90.0948H179.752C173.648 83.481 162.777 79.0138 150.336 79.0138C137.895 79.0138 127.024 83.423 120.92 90.0948H118.246L116.269 98.4491C116.269 98.4491 116.211 98.7392 116.153 98.8552V99.0293C115.92 100.074 115.804 101.118 115.804 102.22C115.804 115.042 131.268 125.485 150.336 125.485C169.404 125.485 184.868 115.1 184.868 102.22C184.868 100.944 184.693 99.7255 184.403 98.5071H184.461Z" fill="url(#paint29_radial_1_2220)"/>
<path d="M150.394 126.181C130.919 126.181 115.106 115.448 115.106 102.22C115.106 101.408 115.164 100.596 115.281 99.7838L115.571 98.3914L117.722 89.3409H120.687C127.198 82.437 138.302 78.2599 150.394 78.2599C162.486 78.2599 173.589 82.379 180.101 89.3409H182.6L184.809 97.115C184.926 97.4051 184.984 97.7532 185.1 98.1013L185.449 99.2616H185.391C185.565 100.248 185.681 101.234 185.681 102.22C185.681 115.448 169.869 126.181 150.394 126.181ZM116.966 98.9135V99.1456C116.734 100.19 116.618 101.176 116.618 102.22C116.618 114.636 131.791 124.731 150.394 124.731C168.997 124.731 184.17 114.636 184.17 102.22C184.17 101.06 184.054 99.8418 183.763 98.6815V98.4494C183.647 98.1593 183.53 97.8112 183.472 97.5212L181.554 90.7913H179.519L179.287 90.5593C173.066 83.7714 162.311 79.7683 150.452 79.7683C138.592 79.7683 127.779 83.8294 121.617 90.5593L121.385 90.7913H118.943L117.025 98.9715L116.966 98.9135Z" fill="#222222"/>
<path d="M182.425 93.3445C182.425 105.354 168.008 115.042 150.161 115.042C132.314 115.042 117.896 105.354 117.896 93.3445C117.896 81.3353 132.314 71.6466 150.161 71.6466C168.008 71.6466 182.425 81.3353 182.425 93.3445Z" fill="url(#paint30_radial_1_2220)"/>
<path d="M150.161 115.796C131.965 115.796 117.14 105.701 117.14 93.3439C117.14 80.9865 131.965 70.8917 150.161 70.8917C168.357 70.8917 183.123 80.9865 183.123 93.3439C183.123 105.701 168.299 115.796 150.161 115.796ZM150.161 72.4001C132.779 72.4001 118.652 81.7987 118.652 93.3439C118.652 104.889 132.779 114.288 150.161 114.288C167.543 114.288 181.67 104.889 181.67 93.3439C181.67 81.7987 167.543 72.4001 150.161 72.4001Z" fill="#222222"/>
<path d="M150.394 66.715C134.814 66.715 122.722 78.5502 122.722 88.703C122.722 98.8558 135.163 107.558 150.394 107.558C165.625 107.558 178.066 99.0878 178.066 88.703C178.066 78.3181 165.974 66.715 150.394 66.715Z" fill="#222222"/>
<path d="M173.415 82.9593C173.415 91.5456 163.125 98.4495 150.394 98.4495C137.662 98.4495 127.373 91.4876 127.373 82.9593C127.373 74.4309 137.662 67.469 150.394 67.469C163.125 67.469 173.415 74.4309 173.415 82.9593Z" fill="url(#paint31_radial_1_2220)"/>
<path d="M173.183 87.4844C173.183 87.4844 164.695 98.4494 150.336 98.4494C135.163 98.4494 127.315 86.9623 127.315 86.9623C127.315 79.8264 137.43 72.5744 150.162 72.5744C162.893 72.5744 173.183 78.8981 173.183 87.4844Z" fill="url(#paint32_linear_1_2220)"/>
<path d="M150.394 99.204C137.255 99.204 126.617 91.894 126.617 82.9596C126.617 74.0251 137.314 66.7151 150.394 66.7151C163.474 66.7151 174.171 74.0251 174.171 82.9596C174.171 91.894 163.474 99.204 150.394 99.204ZM150.394 68.1655C138.069 68.1655 128.07 74.7793 128.07 82.9596C128.07 91.1398 138.069 97.7536 150.394 97.7536C162.718 97.7536 172.717 91.1398 172.717 82.9596C172.717 74.7793 162.718 68.1655 150.394 68.1655Z" fill="#222222"/>
<path d="M227.945 169.229C227.189 169.229 226.433 168.997 225.794 168.532L173.938 129.14C172.775 128.269 172.543 126.587 173.415 125.427C174.287 124.266 175.973 124.034 177.135 124.905L210.272 150.083L174.17 113.127C173.182 112.083 173.182 110.401 174.228 109.414C175.275 108.428 176.961 108.428 177.949 109.472L230.27 163.137C231.549 164.471 231.782 166.56 230.619 168.01C229.921 168.823 228.933 169.287 227.945 169.287V169.229Z" fill="#222222"/>
<path d="M227.887 169.809C227.015 169.809 226.143 169.519 225.445 168.996L173.589 129.604C172.892 129.082 172.485 128.327 172.368 127.515C172.252 126.645 172.485 125.833 173.008 125.136C173.531 124.44 174.287 124.034 175.101 123.918C175.973 123.802 176.787 124.034 177.484 124.556L204.807 145.326L173.822 113.533C173.24 112.895 172.892 112.141 172.95 111.271C172.95 110.4 173.299 109.646 173.938 109.066C175.217 107.848 177.194 107.906 178.414 109.124L230.735 162.789C232.247 164.355 232.421 166.792 231.084 168.358C230.329 169.287 229.166 169.809 228.003 169.809H227.887ZM175.508 124.962C175.508 124.962 175.333 124.962 175.217 124.962C174.636 125.02 174.171 125.311 173.822 125.775C173.473 126.239 173.357 126.761 173.415 127.341C173.473 127.921 173.764 128.385 174.229 128.733L226.085 168.126C227.306 169.054 229.166 168.88 230.154 167.662C231.084 166.502 230.968 164.703 229.805 163.543L177.484 109.878C176.67 109.066 175.333 109.008 174.519 109.878C174.112 110.284 173.88 110.807 173.88 111.329C173.88 111.909 174.054 112.431 174.461 112.837L210.563 149.793L209.865 150.605L176.729 125.427C176.38 125.136 175.915 125.02 175.45 125.02L175.508 124.962Z" fill="url(#paint33_radial_1_2220)"/>
<path d="M70.6331 169.285C69.6448 169.285 68.5984 168.821 67.9008 168.009C66.7381 166.617 66.9706 164.47 68.2496 163.136L121.501 109.471C122.547 108.427 124.175 108.427 125.221 109.471C126.268 110.515 126.268 112.14 125.221 113.184L88.306 150.372L122.547 124.961C123.71 124.091 125.396 124.323 126.268 125.483C127.14 126.644 126.907 128.326 125.745 129.196L72.726 168.589C72.0865 169.053 71.3307 169.285 70.575 169.285H70.6331Z" fill="#222222"/>
<path d="M70.6331 169.808C69.4122 169.808 68.3077 169.286 67.4938 168.358C66.1567 166.792 66.3311 164.297 67.9008 162.788L121.152 109.124C121.733 108.544 122.547 108.196 123.419 108.196C124.233 108.196 125.047 108.544 125.686 109.124C126.268 109.704 126.617 110.516 126.617 111.386C126.617 112.257 126.268 113.011 125.686 113.649L93.8287 145.732L122.257 124.614C123.652 123.57 125.686 123.86 126.733 125.252C127.256 125.948 127.43 126.761 127.314 127.631C127.198 128.443 126.733 129.197 126.035 129.719L73.0166 169.112C72.319 169.634 71.447 169.924 70.5749 169.924L70.6331 169.808ZM123.419 109.182C122.896 109.182 122.315 109.414 121.908 109.82L68.6565 163.485C67.4938 164.645 67.3194 166.443 68.3077 167.604C69.296 168.822 71.1563 168.996 72.4352 168.068L125.454 128.675C125.919 128.327 126.21 127.863 126.268 127.283C126.326 126.703 126.21 126.18 125.861 125.716C125.163 124.788 123.826 124.614 122.896 125.31L88.6548 150.721L87.9572 149.909L124.873 112.721C125.686 111.909 125.686 110.574 124.873 109.762C124.466 109.356 123.942 109.182 123.419 109.182Z" fill="url(#paint34_radial_1_2220)"/>
<path d="M143.185 122.061L135.802 120.205C134.465 119.857 133.651 118.522 134 117.188C134.348 115.854 135.686 115.041 137.023 115.389L144.406 117.246C145.743 117.594 146.557 118.928 146.208 120.263C145.859 121.597 144.522 122.409 143.185 122.061Z" fill="url(#paint35_linear_1_2220)"/>
<path d="M143.941 112.837L139.464 111.967C138.302 111.735 137.604 110.691 137.778 109.53C138.011 108.37 139.057 107.674 140.22 107.848L144.696 108.718C145.859 108.95 146.557 109.994 146.382 111.155C146.15 112.315 145.103 113.011 143.941 112.837Z" fill="url(#paint36_linear_1_2220)"/>
<path d="M144.58 132.33L139.116 131.75C137.72 131.634 136.732 130.415 136.848 129.023C136.965 127.631 138.185 126.644 139.581 126.76L145.045 127.341C146.441 127.457 147.429 128.675 147.313 130.067C147.196 131.46 145.975 132.446 144.58 132.33Z" fill="url(#paint37_radial_1_2220)"/>
<path d="M146.964 101.931C146.964 103.323 145.801 104.483 144.406 104.483C143.011 104.483 141.848 103.323 141.848 101.931C141.848 100.538 143.011 99.3781 144.406 99.3781C145.801 99.3781 146.964 100.538 146.964 101.931Z" fill="url(#paint38_radial_1_2220)"/>
<path d="M151.033 92.8798C151.498 93.1699 151.498 93.576 151.033 93.8661C150.568 94.1561 149.813 94.1561 149.348 93.8661C148.882 93.576 148.882 93.1699 149.348 92.8798C149.813 92.5897 150.568 92.5897 151.033 92.8798Z" fill="#222222"/>
<path d="M155.393 90.3858C155.859 90.6759 155.859 91.082 155.393 91.3721C154.928 91.6622 154.173 91.6622 153.708 91.3721C153.243 91.082 153.243 90.6759 153.708 90.3858C154.173 90.0957 154.928 90.0957 155.393 90.3858Z" fill="#222222"/>
<path d="M159.812 87.8327C160.277 88.1228 160.277 88.5289 159.812 88.8189C159.347 89.109 158.591 89.109 158.126 88.8189C157.661 88.5289 157.661 88.1228 158.126 87.8327C158.591 87.5426 159.347 87.5426 159.812 87.8327Z" fill="#222222"/>
<path d="M164.23 85.2802C164.695 85.5703 164.695 85.9764 164.23 86.2665C163.765 86.5565 163.009 86.5565 162.544 86.2665C162.079 85.9764 162.079 85.5703 162.544 85.2802C163.009 84.9901 163.765 84.9901 164.23 85.2802Z" fill="#222222"/>
<path d="M146.615 90.3858C147.08 90.6759 147.08 91.082 146.615 91.3721C146.15 91.6622 145.394 91.6622 144.929 91.3721C144.464 91.082 144.464 90.6759 144.929 90.3858C145.394 90.0957 146.15 90.0957 146.615 90.3858Z" fill="#222222"/>
<path d="M151.033 87.8327C151.498 88.1228 151.498 88.5289 151.033 88.8189C150.568 89.109 149.813 89.109 149.347 88.8189C148.882 88.5289 148.882 88.1228 149.347 87.8327C149.813 87.5426 150.568 87.5426 151.033 87.8327Z" fill="#222222"/>
<path d="M155.393 85.2802C155.858 85.5703 155.858 85.9764 155.393 86.2665C154.928 86.5565 154.172 86.5565 153.707 86.2665C153.242 85.9764 153.242 85.5703 153.707 85.2802C154.172 84.9901 154.928 84.9901 155.393 85.2802Z" fill="#222222"/>
<path d="M159.812 82.7273C160.277 83.0174 160.277 83.4235 159.812 83.7136C159.347 84.0037 158.591 84.0037 158.126 83.7136C157.661 83.4235 157.661 83.0174 158.126 82.7273C158.591 82.4372 159.347 82.4372 159.812 82.7273Z" fill="#222222"/>
<path d="M142.197 87.8327C142.662 88.1228 142.662 88.5289 142.197 88.8189C141.732 89.109 140.976 89.109 140.511 88.8189C140.046 88.5289 140.046 88.1228 140.511 87.8327C140.976 87.5426 141.732 87.5426 142.197 87.8327Z" fill="#222222"/>
<path d="M146.615 85.2802C147.08 85.5703 147.08 85.9764 146.615 86.2665C146.15 86.5565 145.394 86.5565 144.929 86.2665C144.464 85.9764 144.464 85.5703 144.929 85.2802C145.394 84.9901 146.15 84.9901 146.615 85.2802Z" fill="#222222"/>
<path d="M151.033 82.7273C151.498 83.0174 151.498 83.4235 151.033 83.7136C150.568 84.0037 149.813 84.0037 149.347 83.7136C148.882 83.4235 148.882 83.0174 149.347 82.7273C149.813 82.4372 150.568 82.4372 151.033 82.7273Z" fill="#222222"/>
<path d="M155.393 80.1747C155.858 80.4648 155.858 80.8709 155.393 81.161C154.928 81.4511 154.172 81.4511 153.707 81.161C153.242 80.8709 153.242 80.4648 153.707 80.1747C154.172 79.8846 154.928 79.8846 155.393 80.1747Z" fill="#222222"/>
<path d="M137.779 85.2802C138.244 85.5703 138.244 85.9764 137.779 86.2665C137.313 86.5565 136.558 86.5565 136.093 86.2665C135.628 85.9764 135.628 85.5703 136.093 85.2802C136.558 84.9901 137.313 84.9901 137.779 85.2802Z" fill="#222222"/>
<path d="M142.197 82.7273C142.662 83.0174 142.662 83.4235 142.197 83.7136C141.732 84.0037 140.976 84.0037 140.511 83.7136C140.046 83.4235 140.046 83.0174 140.511 82.7273C140.976 82.4372 141.732 82.4372 142.197 82.7273Z" fill="#222222"/>
<path d="M146.615 80.1747C147.08 80.4648 147.08 80.8709 146.615 81.161C146.15 81.4511 145.394 81.4511 144.929 81.161C144.464 80.8709 144.464 80.4648 144.929 80.1747C145.394 79.8846 146.15 79.8846 146.615 80.1747Z" fill="#222222"/>
<path d="M151.033 77.622C151.498 77.9121 151.498 78.3182 151.033 78.6082C150.568 78.8983 149.813 78.8983 149.347 78.6082C148.882 78.3182 148.882 77.9121 149.347 77.622C149.813 77.3319 150.568 77.3319 151.033 77.622Z" fill="#222222"/>
<path d="M77.5511 181.239L79.3533 159.715H54.9368L56.7389 181.239C56.7389 181.239 56.7389 181.355 56.7389 181.413C56.7389 181.587 56.7971 181.819 56.8552 181.993V182.457H56.9133C57.6691 185.822 61.971 188.432 67.2032 188.432C72.4353 188.432 76.7372 185.822 77.493 182.457V181.993C77.493 181.993 77.6092 181.587 77.6092 181.413C77.6092 181.413 77.6092 181.297 77.6092 181.239H77.5511Z" fill="url(#paint39_radial_1_2220)"/>
<path d="M80.1673 158.96H54.9951C54.53 158.96 54.1812 159.366 54.2393 159.83L56.0415 181.18V181.412C56.0415 181.412 56.0415 181.76 56.0996 182.05L56.3322 183.153C57.4948 186.692 61.9131 189.128 67.2033 189.128C72.4935 189.128 76.9118 186.634 78.0745 183.153L78.3651 181.876C78.3651 181.876 78.4233 181.586 78.4233 181.354V181.18L80.2254 158.96H80.1673ZM76.8536 181.18V181.412C76.8536 181.412 76.8536 181.528 76.8536 181.644C76.8536 181.76 76.8536 181.818 76.8536 181.934V182.282C76.5048 183.559 75.5747 184.719 74.2957 185.647L75.6909 165.458L71.4471 167.953H67.2033V187.736C62.4363 187.736 58.3087 185.415 57.6111 182.341V182.224V181.992C57.6111 181.876 57.6111 181.818 57.6111 181.702C57.6111 181.644 57.6111 181.586 57.6111 181.586V181.412L55.9252 160.585H78.7721L77.028 181.296L76.8536 181.18Z" fill="#222222"/>
<path d="M79.3534 159.714C79.3534 164.239 73.8887 167.952 67.1451 167.952C60.4015 167.952 54.9369 164.297 54.9369 159.714C54.9369 155.131 60.4015 150.083 67.1451 150.083C73.8887 150.083 79.3534 155.189 79.3534 159.714Z" fill="url(#paint40_radial_1_2220)"/>
<path d="M67.145 168.649C59.9945 168.649 54.181 164.646 54.181 159.656C54.181 154.667 59.8201 149.272 67.145 149.272C74.47 149.272 80.109 154.841 80.109 159.656C80.109 164.472 74.2956 168.649 67.145 168.649ZM67.145 150.78C60.8084 150.78 55.6925 155.653 55.6925 159.656C55.6925 163.66 60.8665 167.141 67.145 167.141C73.4236 167.141 78.5975 163.776 78.5975 159.656C78.5975 155.537 73.4817 150.78 67.145 150.78Z" fill="#222222"/>
<path d="M67.1451 164.124C72.9243 164.124 77.6093 160.981 77.6093 157.104C77.6093 153.227 72.9243 150.084 67.1451 150.084C61.3659 150.084 56.6809 153.227 56.6809 157.104C56.6809 160.981 61.3659 164.124 67.1451 164.124Z" fill="url(#paint41_linear_1_2220)"/>
<path d="M67.1451 164.878C60.9828 164.878 55.9251 161.397 55.9251 157.104C55.9251 152.811 60.9247 149.33 67.1451 149.33C73.3655 149.33 78.3651 152.811 78.3651 157.104C78.3651 161.397 73.3655 164.878 67.1451 164.878ZM67.1451 150.78C61.7967 150.78 57.4366 153.623 57.4366 157.046C57.4366 160.469 61.7967 163.312 67.1451 163.312C72.4935 163.312 76.8536 160.469 76.8536 157.046C76.8536 153.623 72.4935 150.78 67.1451 150.78Z" fill="#222222"/>
<path d="M69.7027 150.142C68.7726 149.91 68.2493 150.722 67.7843 151.418C67.6099 151.65 67.2611 152.173 67.2029 152.231C67.0285 152.173 66.6797 151.708 66.5053 151.418C66.0402 150.78 65.4589 149.91 64.5869 150.142C61.9708 150.838 60.343 154.841 60.343 156.408C60.343 158.728 63.366 160.585 67.1448 160.585C70.9235 160.585 73.9465 158.728 73.9465 156.408C73.9465 154.899 72.1444 150.838 69.6446 150.142H69.7027Z" fill="#222222"/>
<path d="M38.4847 127.342C37.6708 126.646 36.0431 126.53 34.3572 127.052C31.0435 128.096 25.2301 130.533 18.9515 135.87C13.0218 140.918 11.4522 144.979 11.0452 147.184C10.8708 148.286 11.7428 149.04 13.3125 149.156L63.9476 152.579C65.2266 152.637 66.5637 151.477 65.8661 150.897L38.4847 127.284V127.342Z" fill="url(#paint42_linear_1_2220)"/>
<path d="M64.5873 152.811C64.5873 152.811 64.1222 152.811 63.8897 152.695L14.766 139.816C13.6615 139.526 12.9057 139.003 12.4988 138.249C12.2081 137.727 12.2081 137.089 12.3825 136.451C13.3127 133.956 15.8124 130.243 22.6142 126.414C29.7066 122.411 35.8107 121.019 39.7057 120.554C41.7404 120.322 43.5426 120.845 44.4146 121.889L66.8546 150.201C67.2034 150.665 67.2034 151.187 66.8546 151.709C66.4476 152.347 65.4593 152.753 64.5292 152.753L64.5873 152.811ZM40.694 122.005C40.694 122.005 40.1708 122.005 39.8801 122.005C36.799 122.353 30.5786 123.571 23.3699 127.69C16.6263 131.461 14.4754 135.116 13.8359 136.973C13.7777 137.205 13.7777 137.379 13.8359 137.553C14.0103 137.901 14.4754 138.191 15.173 138.365L64.2966 151.245C64.8198 151.361 65.3431 151.187 65.5756 151.013L43.2519 122.817C42.9031 122.353 41.973 122.005 40.694 122.005Z" fill="#222222"/>
<path d="M95.631 178.338C96.4449 179.035 98.0727 179.209 99.7586 178.686C103.072 177.642 108.944 175.264 115.222 169.926C121.21 164.937 122.838 160.818 123.245 158.613C123.419 157.511 122.547 156.756 121.036 156.64L70.6332 152.869C69.4124 152.753 68.0171 153.914 68.7148 154.494L95.5729 178.396L95.631 178.338Z" fill="url(#paint43_linear_1_2220)"/>
<path d="M93.4216 185.126C91.7939 185.126 90.3986 184.604 89.701 183.676L67.8424 155.19C67.4936 154.726 67.4936 154.204 67.8424 153.682C68.3657 152.87 69.7609 152.464 70.8654 152.754L119.64 165.981C120.687 166.271 121.501 166.851 121.849 167.548C122.14 168.128 122.14 168.708 121.908 169.346C120.919 171.841 118.361 175.554 111.56 179.325C104.409 183.27 98.3049 184.604 94.4099 185.068C94.1192 185.068 93.7704 185.068 93.4798 185.068L93.4216 185.126ZM90.8637 182.806C91.2707 183.328 92.4333 183.792 94.1774 183.618C97.9561 183.212 103.828 181.878 110.746 178.049C117.547 174.278 119.757 170.623 120.454 168.824C120.512 168.592 120.512 168.418 120.454 168.244C120.28 167.896 119.815 167.606 119.175 167.432L70.4004 154.204C69.8772 154.03 69.2958 154.262 69.0633 154.436L90.8056 182.806H90.8637Z" fill="#222222"/>
<path d="M71.3889 152.869C71.3889 154.203 69.4705 155.248 67.1451 155.248C64.8197 155.248 62.9013 154.203 62.9013 152.869C62.9013 151.535 64.8197 150.49 67.1451 150.49C69.4705 150.49 71.3889 151.535 71.3889 152.869Z" fill="url(#paint44_linear_1_2220)"/>
<path d="M67.1451 156.002C64.3547 156.002 62.1456 154.61 62.1456 152.869C62.1456 151.129 64.3547 149.736 67.1451 149.736C69.9356 149.736 72.0866 151.129 72.0866 152.869C72.0866 154.61 69.8775 156.002 67.1451 156.002ZM67.1451 151.245C65.1686 151.245 63.6571 152.115 63.6571 152.869C63.6571 153.623 65.1686 154.494 67.1451 154.494C69.1217 154.494 70.6332 153.623 70.6332 152.869C70.6332 152.115 69.1217 151.245 67.1451 151.245Z" fill="#222222"/>
<path d="M242.77 181.993L244.572 160.469H220.155L221.957 181.993C221.957 181.993 221.957 182.109 221.957 182.167C221.957 182.341 222.016 182.573 222.074 182.747V183.211H222.132C222.888 186.576 227.19 189.187 232.422 189.187C237.654 189.187 241.956 186.576 242.711 183.211V182.747C242.711 182.747 242.828 182.341 242.828 182.167C242.828 182.167 242.828 182.051 242.828 181.993H242.77Z" fill="url(#paint45_radial_1_2220)"/>
<path d="M245.385 159.715H220.213C219.748 159.715 219.399 160.121 219.457 160.585L221.26 181.935V182.167C221.26 182.167 221.259 182.515 221.318 182.805L221.55 183.908C222.713 187.447 227.131 189.883 232.421 189.883C237.712 189.883 242.13 187.389 243.292 183.908L243.583 182.631C243.583 182.631 243.641 182.283 243.641 182.109V181.935L245.443 159.715H245.385ZM242.072 181.935V182.167C242.072 182.167 242.072 182.283 242.072 182.399C242.072 182.515 242.072 182.573 242.072 182.689V183.037C241.723 184.314 240.793 185.474 239.514 186.402L240.909 166.213L236.665 168.708H232.421V188.491C227.654 188.491 223.527 186.17 222.829 183.095V182.979V182.747C222.829 182.631 222.829 182.573 222.829 182.457C222.829 182.399 222.829 182.341 222.829 182.341V182.167L221.143 161.34H243.99L242.246 182.051L242.072 181.935Z" fill="#222222"/>
<path d="M244.572 160.468C244.572 164.993 239.107 168.706 232.364 168.706C225.62 168.706 220.155 165.051 220.155 160.468C220.155 155.885 225.62 150.837 232.364 150.837C239.107 150.837 244.572 155.943 244.572 160.468Z" fill="url(#paint46_radial_1_2220)"/>
<path d="M232.364 169.403C225.213 169.403 219.4 165.4 219.4 160.41C219.4 155.421 225.039 150.026 232.364 150.026C239.688 150.026 245.328 155.595 245.328 160.41C245.328 165.226 239.514 169.403 232.364 169.403ZM232.364 151.534C226.027 151.534 220.911 156.407 220.911 160.41C220.911 164.414 226.085 167.895 232.364 167.895C238.642 167.895 243.816 164.53 243.816 160.41C243.816 156.291 238.7 151.534 232.364 151.534Z" fill="#222222"/>
<path d="M242.827 157.858C242.827 161.745 238.177 164.878 232.363 164.878C226.55 164.878 221.899 161.745 221.899 157.858C221.899 153.971 226.608 150.838 232.363 150.838C238.119 150.838 242.827 153.971 242.827 157.858Z" fill="url(#paint47_linear_1_2220)"/>
<path d="M232.363 165.632C226.201 165.632 221.143 162.151 221.143 157.858C221.143 153.565 226.143 150.084 232.363 150.084C238.584 150.084 243.583 153.565 243.583 157.858C243.583 162.151 238.584 165.632 232.363 165.632ZM232.363 151.535C227.015 151.535 222.655 154.377 222.655 157.8C222.655 161.223 227.015 164.066 232.363 164.066C237.712 164.066 242.072 161.223 242.072 157.8C242.072 154.377 237.712 151.535 232.363 151.535Z" fill="#222222"/>
<path d="M234.921 150.896C233.991 150.664 233.468 151.476 233.003 152.172C232.829 152.404 232.48 152.927 232.422 152.985C232.247 152.927 231.898 152.462 231.724 152.172C231.259 151.534 230.678 150.664 229.806 150.896C227.19 151.592 225.562 155.595 225.562 157.162C225.562 159.482 228.585 161.339 232.364 161.339C236.142 161.339 239.165 159.482 239.165 157.162C239.165 155.653 237.363 151.592 234.863 150.896H234.921Z" fill="#222222"/>
<path d="M177.542 156.35C176.031 156.466 175.101 157.162 175.275 158.265C175.566 160.353 177.077 164.298 183.123 169.694C188.879 174.857 194.925 177.41 198.413 178.57C200.157 179.15 201.784 179.034 202.656 178.338L230.212 155.016C230.91 154.436 229.573 153.275 228.294 153.333L177.542 156.292V156.35Z" fill="url(#paint48_linear_1_2220)"/>
<path d="M204.982 185.532C204.633 185.532 204.284 185.532 203.935 185.474C200.505 185.068 193.82 183.733 186.902 179.672C179.867 175.553 177.426 171.898 176.612 169.577C176.379 168.997 176.438 168.359 176.728 167.837C177.077 167.141 177.891 166.561 178.995 166.27L228.177 153.333C229.282 153.043 230.677 153.507 231.2 154.319C231.491 154.783 231.491 155.364 231.2 155.828L208.818 184.139C208.121 185.01 206.726 185.532 205.098 185.532H204.982ZM228.875 154.783C228.875 154.783 228.642 154.783 228.526 154.783L179.344 167.721C178.705 167.895 178.182 168.185 178.007 168.533C177.949 168.707 177.891 168.881 178.007 169.055C178.647 170.738 180.681 174.219 187.657 178.338C194.343 182.283 200.854 183.559 204.11 183.965C205.854 184.197 207.133 183.733 207.54 183.153L229.805 155.015C229.805 155.015 229.224 154.725 228.875 154.725V154.783Z" fill="#222222"/>
<path d="M286.312 150.955C287.823 150.897 288.753 150.142 288.637 149.098C288.347 147.01 286.893 143.064 280.905 137.611C275.208 132.448 269.162 129.837 265.674 128.619C263.93 128.038 262.302 128.096 261.43 128.793L233.351 151.825C232.654 152.405 233.991 153.565 235.212 153.507L286.196 150.897L286.312 150.955Z" fill="url(#paint49_linear_1_2220)"/>
<path d="M234.688 153.682C233.758 153.682 232.77 153.276 232.363 152.637C232.072 152.173 232.072 151.593 232.421 151.129L255.384 123.049C256.256 122.005 258.116 121.483 260.151 121.773C263.581 122.237 270.267 123.571 277.126 127.633C284.103 131.81 286.486 135.407 287.3 137.727C287.532 138.307 287.474 138.888 287.184 139.468C286.777 140.164 285.963 140.744 284.916 141.034L235.444 153.624C235.444 153.624 234.979 153.682 234.746 153.682H234.688ZM233.758 151.941C233.758 151.941 234.572 152.289 235.037 152.173L284.509 139.584C285.207 139.41 285.672 139.12 285.847 138.772C285.963 138.598 285.963 138.423 285.847 138.249C285.265 136.567 283.231 133.086 276.371 128.909C269.743 124.964 263.29 123.629 259.977 123.223C258.233 122.991 256.954 123.455 256.547 123.978L233.758 151.941Z" fill="#222222"/>
<path d="M236.607 153.623C236.607 154.957 234.689 156.002 232.363 156.002C230.038 156.002 228.119 154.957 228.119 153.623C228.119 152.289 230.038 151.244 232.363 151.244C234.689 151.244 236.607 152.289 236.607 153.623Z" fill="url(#paint50_linear_1_2220)"/>
<path d="M232.363 156.756C229.573 156.756 227.364 155.364 227.364 153.623C227.364 151.883 229.573 150.49 232.363 150.49C235.154 150.49 237.305 151.883 237.305 153.623C237.305 155.364 235.095 156.756 232.363 156.756ZM232.363 151.999C230.387 151.999 228.875 152.869 228.875 153.623C228.875 154.377 230.387 155.248 232.363 155.248C234.34 155.248 235.851 154.377 235.851 153.623C235.851 152.869 234.34 151.999 232.363 151.999Z" fill="#222222"/>
<defs>
<linearGradient id="paint0_linear_1_2220" x1="16.9463" y1="400.285" x2="227.518" y2="254.12" gradientUnits="userSpaceOnUse">
<stop stop-color="#FFB6D5"/>
<stop offset="0.1" stop-color="#FFE3C0"/>
<stop offset="0.29" stop-color="#C7FBDB"/>
<stop offset="0.43" stop-color="#C7CDF4"/>
<stop offset="0.54" stop-color="#FFBCD4"/>
<stop offset="0.66" stop-color="#FFE0C3"/>
<stop offset="0.76" stop-color="#B0F1D4"/>
<stop offset="0.84" stop-color="#C9CEEC"/>
<stop offset="0.91" stop-color="#FFC1DA"/>
<stop offset="1" stop-color="#BDFFE3"/>
</linearGradient>
<linearGradient id="paint1_linear_1_2220" x1="252.505" y1="378.187" x2="267.555" y2="368.319" gradientUnits="userSpaceOnUse">
<stop stop-color="#FFB6D5"/>
<stop offset="0.1" stop-color="#FFE3C0"/>
<stop offset="0.29" stop-color="#C7FBDB"/>
<stop offset="0.43" stop-color="#C7CDF4"/>
<stop offset="0.54" stop-color="#FFBCD4"/>
<stop offset="0.66" stop-color="#FFE0C3"/>
<stop offset="0.76" stop-color="#B0F1D4"/>
<stop offset="0.84" stop-color="#C9CEEC"/>
<stop offset="0.91" stop-color="#FFC1DA"/>
<stop offset="1" stop-color="#BDFFE3"/>
</linearGradient>
<linearGradient id="paint2_linear_1_2220" x1="236.101" y1="392.655" x2="286.671" y2="361.483" gradientUnits="userSpaceOnUse">
<stop stop-color="#FFB6D5"/>
<stop offset="0.1" stop-color="#FFE3C0"/>
<stop offset="0.29" stop-color="#C7FBDB"/>
<stop offset="0.43" stop-color="#C7CDF4"/>
<stop offset="0.54" stop-color="#FFBCD4"/>
<stop offset="0.66" stop-color="#FFE0C3"/>
<stop offset="0.76" stop-color="#B0F1D4"/>
<stop offset="0.84" stop-color="#C9CEEC"/>
<stop offset="0.91" stop-color="#FFC1DA"/>
<stop offset="1" stop-color="#BDFFE3"/>
</linearGradient>
<radialGradient id="paint3_radial_1_2220" cx="0" cy="0" r="1" gradientUnits="userSpaceOnUse" gradientTransform="translate(286.883 264.532) rotate(-47.2918) scale(208.485 123.073)">
<stop stop-color="#FFB6D5"/>
<stop offset="0.1" stop-color="#FFE3C0"/>
<stop offset="0.29" stop-color="#C7FBDB"/>
<stop offset="0.43" stop-color="#C7CDF4"/>
<stop offset="0.54" stop-color="#FFBCD4"/>
<stop offset="0.66" stop-color="#FFE0C3"/>
<stop offset="0.76" stop-color="#B0F1D4"/>
<stop offset="0.84" stop-color="#C9CEEC"/>
<stop offset="0.91" stop-color="#FFC1DA"/>
<stop offset="1" stop-color="#BDFFE3"/>
</radialGradient>
<linearGradient id="paint4_linear_1_2220" x1="228.162" y1="339.377" x2="314.932" y2="312.944" gradientUnits="userSpaceOnUse">
<stop stop-color="#FFB6D5"/>
<stop offset="0.1" stop-color="#FFE3C0"/>
<stop offset="0.29" stop-color="#C7FBDB"/>
<stop offset="0.43" stop-color="#C7CDF4"/>
<stop offset="0.54" stop-color="#FFBCD4"/>
<stop offset="0.66" stop-color="#FFE0C3"/>
<stop offset="0.76" stop-color="#B0F1D4"/>
<stop offset="0.84" stop-color="#C9CEEC"/>
<stop offset="0.91" stop-color="#FFC1DA"/>
<stop offset="1" stop-color="#BDFFE3"/>
</linearGradient>
<radialGradient id="paint5_radial_1_2220" cx="0" cy="0" r="1" gradientUnits="userSpaceOnUse" gradientTransform="translate(280.831 277.748) rotate(-38.7629) scale(83.5249 48.297)">
<stop stop-color="#FFB6D5"/>
<stop offset="0.1" stop-color="#FFE3C0"/>
<stop offset="0.29" stop-color="#C7FBDB"/>
<stop offset="0.43" stop-color="#C7CDF4"/>
<stop offset="0.54" stop-color="#FFBCD4"/>
<stop offset="0.66" stop-color="#FFE0C3"/>
<stop offset="0.76" stop-color="#B0F1D4"/>
<stop offset="0.84" stop-color="#C9CEEC"/>
<stop offset="0.91" stop-color="#FFC1DA"/>
<stop offset="1" stop-color="#BDFFE3"/>
</radialGradient>
<radialGradient id="paint6_radial_1_2220" cx="0" cy="0" r="1" gradientUnits="userSpaceOnUse" gradientTransform="translate(141.056 227.486) rotate(-47.7884) scale(123.268 72.6554)">
<stop stop-color="#FFB6D5"/>
<stop offset="0.1" stop-color="#FFE3C0"/>
<stop offset="0.29" stop-color="#C7FBDB"/>
<stop offset="0.43" stop-color="#C7CDF4"/>
<stop offset="0.54" stop-color="#FFBCD4"/>
<stop offset="0.66" stop-color="#FFE0C3"/>
<stop offset="0.76" stop-color="#B0F1D4"/>
<stop offset="0.84" stop-color="#C9CEEC"/>
<stop offset="0.91" stop-color="#FFC1DA"/>
<stop offset="1" stop-color="#BDFFE3"/>
</radialGradient>
<radialGradient id="paint7_radial_1_2220" cx="0" cy="0" r="1" gradientUnits="userSpaceOnUse" gradientTransform="translate(182.527 193.471) rotate(-19.9507) scale(182.854 69.464)">
<stop stop-color="#FFB6D5"/>
<stop offset="0.1" stop-color="#FFE3C0"/>
<stop offset="0.29" stop-color="#C7FBDB"/>
<stop offset="0.43" stop-color="#C7CDF4"/>
<stop offset="0.54" stop-color="#FFBCD4"/>
<stop offset="0.66" stop-color="#FFE0C3"/>
<stop offset="0.76" stop-color="#B0F1D4"/>
<stop offset="0.84" stop-color="#C9CEEC"/>
<stop offset="0.91" stop-color="#FFC1DA"/>
<stop offset="1" stop-color="#BDFFE3"/>
</radialGradient>
<linearGradient id="paint8_linear_1_2220" x1="108.738" y1="244.49" x2="193.198" y2="189.409" gradientUnits="userSpaceOnUse">
<stop stop-color="#FFB6D5"/>
<stop offset="0.1" stop-color="#FFE3C0"/>
<stop offset="0.29" stop-color="#C7FBDB"/>
<stop offset="0.43" stop-color="#C7CDF4"/>
<stop offset="0.54" stop-color="#FFBCD4"/>
<stop offset="0.66" stop-color="#FFE0C3"/>
<stop offset="0.76" stop-color="#B0F1D4"/>
<stop offset="0.84" stop-color="#C9CEEC"/>
<stop offset="0.91" stop-color="#FFC1DA"/>
<stop offset="1" stop-color="#BDFFE3"/>
</linearGradient>
<linearGradient id="paint9_linear_1_2220" x1="163.932" y1="249.159" x2="187.362" y2="238.978" gradientUnits="userSpaceOnUse">
<stop stop-color="#FFB6D5"/>
<stop offset="0.1" stop-color="#FFE3C0"/>
<stop offset="0.29" stop-color="#C7FBDB"/>
<stop offset="0.43" stop-color="#C7CDF4"/>
<stop offset="0.54" stop-color="#FFBCD4"/>
<stop offset="0.66" stop-color="#FFE0C3"/>
<stop offset="0.76" stop-color="#B0F1D4"/>
<stop offset="0.84" stop-color="#C9CEEC"/>
<stop offset="0.91" stop-color="#FFC1DA"/>
<stop offset="1" stop-color="#BDFFE3"/>
</linearGradient>
<radialGradient id="paint10_radial_1_2220" cx="0" cy="0" r="1" gradientUnits="userSpaceOnUse" gradientTransform="translate(178.691 232.241) rotate(-28.587) scale(39.6304 19.7221)">
<stop stop-color="#FFB6D5"/>
<stop offset="0.1" stop-color="#FFE3C0"/>
<stop offset="0.29" stop-color="#C7FBDB"/>
<stop offset="0.43" stop-color="#C7CDF4"/>
<stop offset="0.54" stop-color="#FFBCD4"/>
<stop offset="0.66" stop-color="#FFE0C3"/>
<stop offset="0.76" stop-color="#B0F1D4"/>
<stop offset="0.84" stop-color="#C9CEEC"/>
<stop offset="0.91" stop-color="#FFC1DA"/>
<stop offset="1" stop-color="#BDFFE3"/>
</radialGradient>
<radialGradient id="paint11_radial_1_2220" cx="0" cy="0" r="1" gradientUnits="userSpaceOnUse" gradientTransform="translate(171.552 203.586) rotate(-27.0114) scale(122.048 58.4913)">
<stop stop-color="#FFB6D5"/>
<stop offset="0.1" stop-color="#FFE3C0"/>
<stop offset="0.29" stop-color="#C7FBDB"/>
<stop offset="0.43" stop-color="#C7CDF4"/>
<stop offset="0.54" stop-color="#FFBCD4"/>
<stop offset="0.66" stop-color="#FFE0C3"/>
<stop offset="0.76" stop-color="#B0F1D4"/>
<stop offset="0.84" stop-color="#C9CEEC"/>
<stop offset="0.91" stop-color="#FFC1DA"/>
<stop offset="1" stop-color="#BDFFE3"/>
</radialGradient>
<linearGradient id="paint12_linear_1_2220" x1="129.587" y1="280.146" x2="145.509" y2="276.22" gradientUnits="userSpaceOnUse">
<stop stop-color="#FFB6D5"/>
<stop offset="0.1" stop-color="#FFE3C0"/>
<stop offset="0.29" stop-color="#C7FBDB"/>
<stop offset="0.43" stop-color="#C7CDF4"/>
<stop offset="0.54" stop-color="#FFBCD4"/>
<stop offset="0.66" stop-color="#FFE0C3"/>
<stop offset="0.76" stop-color="#B0F1D4"/>
<stop offset="0.84" stop-color="#C9CEEC"/>
<stop offset="0.91" stop-color="#FFC1DA"/>
<stop offset="1" stop-color="#BDFFE3"/>
</linearGradient>
<radialGradient id="paint13_radial_1_2220" cx="0" cy="0" r="1" gradientUnits="userSpaceOnUse" gradientTransform="translate(162.189 197.344) rotate(-22.9444) scale(70.7536 30.0847)">
<stop stop-color="#FFB6D5"/>
<stop offset="0.1" stop-color="#FFE3C0"/>
<stop offset="0.29" stop-color="#C7FBDB"/>
<stop offset="0.43" stop-color="#C7CDF4"/>
<stop offset="0.54" stop-color="#FFBCD4"/>
<stop offset="0.66" stop-color="#FFE0C3"/>
<stop offset="0.76" stop-color="#B0F1D4"/>
<stop offset="0.84" stop-color="#C9CEEC"/>
<stop offset="0.91" stop-color="#FFC1DA"/>
<stop offset="1" stop-color="#BDFFE3"/>
</radialGradient>
<linearGradient id="paint14_linear_1_2220" x1="134.217" y1="218.06" x2="166.389" y2="197.249" gradientUnits="userSpaceOnUse">
<stop stop-color="#FFB6D5"/>
<stop offset="0.1" stop-color="#FFE3C0"/>
<stop offset="0.29" stop-color="#C7FBDB"/>
<stop offset="0.43" stop-color="#C7CDF4"/>
<stop offset="0.54" stop-color="#FFBCD4"/>
<stop offset="0.66" stop-color="#FFE0C3"/>
<stop offset="0.76" stop-color="#B0F1D4"/>
<stop offset="0.84" stop-color="#C9CEEC"/>
<stop offset="0.91" stop-color="#FFC1DA"/>
<stop offset="1" stop-color="#BDFFE3"/>
</linearGradient>
<radialGradient id="paint15_radial_1_2220" cx="0" cy="0" r="1" gradientUnits="userSpaceOnUse" gradientTransform="translate(74.9255 46.3033) rotate(-36.4567) scale(55.2332 31.2662)">
<stop stop-color="#FFB6D5"/>
<stop offset="0.1" stop-color="#FFE3C0"/>
<stop offset="0.29" stop-color="#C7FBDB"/>
<stop offset="0.43" stop-color="#C7CDF4"/>
<stop offset="0.54" stop-color="#FFBCD4"/>
<stop offset="0.66" stop-color="#FFE0C3"/>
<stop offset="0.76" stop-color="#B0F1D4"/>
<stop offset="0.84" stop-color="#C9CEEC"/>
<stop offset="0.91" stop-color="#FFC1DA"/>
<stop offset="1" stop-color="#BDFFE3"/>
</radialGradient>
<radialGradient id="paint16_radial_1_2220" cx="0" cy="0" r="1" gradientUnits="userSpaceOnUse" gradientTransform="translate(74.9254 34.1259) rotate(-24.6879) scale(48.8935 21.9771)">
<stop stop-color="#FFB6D5"/>
<stop offset="0.1" stop-color="#FFE3C0"/>
<stop offset="0.29" stop-color="#C7FBDB"/>
<stop offset="0.43" stop-color="#C7CDF4"/>
<stop offset="0.54" stop-color="#FFBCD4"/>
<stop offset="0.66" stop-color="#FFE0C3"/>
<stop offset="0.76" stop-color="#B0F1D4"/>
<stop offset="0.84" stop-color="#C9CEEC"/>
<stop offset="0.91" stop-color="#FFC1DA"/>
<stop offset="1" stop-color="#BDFFE3"/>
</radialGradient>
<linearGradient id="paint17_linear_1_2220" x1="57.3666" y1="45.4815" x2="77.6277" y2="34.0869" gradientUnits="userSpaceOnUse">
<stop stop-color="#FFB6D5"/>
<stop offset="0.1" stop-color="#FFE3C0"/>
<stop offset="0.29" stop-color="#C7FBDB"/>
<stop offset="0.43" stop-color="#C7CDF4"/>
<stop offset="0.54" stop-color="#FFBCD4"/>
<stop offset="0.66" stop-color="#FFE0C3"/>
<stop offset="0.76" stop-color="#B0F1D4"/>
<stop offset="0.84" stop-color="#C9CEEC"/>
<stop offset="0.91" stop-color="#FFC1DA"/>
<stop offset="1" stop-color="#BDFFE3"/>
</linearGradient>
<linearGradient id="paint18_linear_1_2220" x1="12.9846" y1="60.7885" x2="55.3193" y2="26.3943" gradientUnits="userSpaceOnUse">
<stop stop-color="#FFB6D5"/>
<stop offset="0.1" stop-color="#FFE3C0"/>
<stop offset="0.29" stop-color="#C7FBDB"/>
<stop offset="0.43" stop-color="#C7CDF4"/>
<stop offset="0.54" stop-color="#FFBCD4"/>
<stop offset="0.66" stop-color="#FFE0C3"/>
<stop offset="0.76" stop-color="#B0F1D4"/>
<stop offset="0.84" stop-color="#C9CEEC"/>
<stop offset="0.91" stop-color="#FFC1DA"/>
<stop offset="1" stop-color="#BDFFE3"/>
</linearGradient>
<linearGradient id="paint19_linear_1_2220" x1="70.9125" y1="35.3213" x2="112.866" y2="0.588472" gradientUnits="userSpaceOnUse">
<stop stop-color="#FFB6D5"/>
<stop offset="0.1" stop-color="#FFE3C0"/>
<stop offset="0.29" stop-color="#C7FBDB"/>
<stop offset="0.43" stop-color="#C7CDF4"/>
<stop offset="0.54" stop-color="#FFBCD4"/>
<stop offset="0.66" stop-color="#FFE0C3"/>
<stop offset="0.76" stop-color="#B0F1D4"/>
<stop offset="0.84" stop-color="#C9CEEC"/>
<stop offset="0.91" stop-color="#FFC1DA"/>
<stop offset="1" stop-color="#BDFFE3"/>
</linearGradient>
<linearGradient id="paint20_linear_1_2220" x1="62.7644" y1="35.6065" x2="70.2078" y2="30.5963" gradientUnits="userSpaceOnUse">
<stop stop-color="#FFB6D5"/>
<stop offset="0.1" stop-color="#FFE3C0"/>
<stop offset="0.29" stop-color="#C7FBDB"/>
<stop offset="0.43" stop-color="#C7CDF4"/>
<stop offset="0.54" stop-color="#FFBCD4"/>
<stop offset="0.66" stop-color="#FFE0C3"/>
<stop offset="0.76" stop-color="#B0F1D4"/>
<stop offset="0.84" stop-color="#C9CEEC"/>
<stop offset="0.91" stop-color="#FFC1DA"/>
<stop offset="1" stop-color="#BDFFE3"/>
</linearGradient>
<radialGradient id="paint21_radial_1_2220" cx="0" cy="0" r="1" gradientUnits="userSpaceOnUse" gradientTransform="translate(239.33 45.9557) rotate(-36.4567) scale(55.2332 31.2662)">
<stop stop-color="#FFB6D5"/>
<stop offset="0.1" stop-color="#FFE3C0"/>
<stop offset="0.29" stop-color="#C7FBDB"/>
<stop offset="0.43" stop-color="#C7CDF4"/>
<stop offset="0.54" stop-color="#FFBCD4"/>
<stop offset="0.66" stop-color="#FFE0C3"/>
<stop offset="0.76" stop-color="#B0F1D4"/>
<stop offset="0.84" stop-color="#C9CEEC"/>
<stop offset="0.91" stop-color="#FFC1DA"/>
<stop offset="1" stop-color="#BDFFE3"/>
</radialGradient>
<radialGradient id="paint22_radial_1_2220" cx="0" cy="0" r="1" gradientUnits="userSpaceOnUse" gradientTransform="translate(239.272 33.7767) rotate(-24.6879) scale(48.8935 21.9771)">
<stop stop-color="#FFB6D5"/>
<stop offset="0.1" stop-color="#FFE3C0"/>
<stop offset="0.29" stop-color="#C7FBDB"/>
<stop offset="0.43" stop-color="#C7CDF4"/>
<stop offset="0.54" stop-color="#FFBCD4"/>
<stop offset="0.66" stop-color="#FFE0C3"/>
<stop offset="0.76" stop-color="#B0F1D4"/>
<stop offset="0.84" stop-color="#C9CEEC"/>
<stop offset="0.91" stop-color="#FFC1DA"/>
<stop offset="1" stop-color="#BDFFE3"/>
</radialGradient>
<linearGradient id="paint23_linear_1_2220" x1="221.713" y1="45.1333" x2="241.974" y2="33.7387" gradientUnits="userSpaceOnUse">
<stop stop-color="#FFB6D5"/>
<stop offset="0.1" stop-color="#FFE3C0"/>
<stop offset="0.29" stop-color="#C7FBDB"/>
<stop offset="0.43" stop-color="#C7CDF4"/>
<stop offset="0.54" stop-color="#FFBCD4"/>
<stop offset="0.66" stop-color="#FFE0C3"/>
<stop offset="0.76" stop-color="#B0F1D4"/>
<stop offset="0.84" stop-color="#C9CEEC"/>
<stop offset="0.91" stop-color="#FFC1DA"/>
<stop offset="1" stop-color="#BDFFE3"/>
</linearGradient>
<linearGradient id="paint24_linear_1_2220" x1="178.311" y1="34.8607" x2="220.944" y2="0.62158" gradientUnits="userSpaceOnUse">
<stop stop-color="#FFB6D5"/>
<stop offset="0.1" stop-color="#FFE3C0"/>
<stop offset="0.29" stop-color="#C7FBDB"/>
<stop offset="0.43" stop-color="#C7CDF4"/>
<stop offset="0.54" stop-color="#FFBCD4"/>
<stop offset="0.66" stop-color="#FFE0C3"/>
<stop offset="0.76" stop-color="#B0F1D4"/>
<stop offset="0.84" stop-color="#C9CEEC"/>
<stop offset="0.91" stop-color="#FFC1DA"/>
<stop offset="1" stop-color="#BDFFE3"/>
</linearGradient>
<linearGradient id="paint25_linear_1_2220" x1="235.796" y1="61.2993" x2="278.73" y2="27.3655" gradientUnits="userSpaceOnUse">
<stop stop-color="#FFB6D5"/>
<stop offset="0.1" stop-color="#FFE3C0"/>
<stop offset="0.29" stop-color="#C7FBDB"/>
<stop offset="0.43" stop-color="#C7CDF4"/>
<stop offset="0.54" stop-color="#FFBCD4"/>
<stop offset="0.66" stop-color="#FFE0C3"/>
<stop offset="0.76" stop-color="#B0F1D4"/>
<stop offset="0.84" stop-color="#C9CEEC"/>
<stop offset="0.91" stop-color="#FFC1DA"/>
<stop offset="1" stop-color="#BDFFE3"/>
</linearGradient>
<linearGradient id="paint26_linear_1_2220" x1="227.111" y1="35.2593" x2="234.555" y2="30.249" gradientUnits="userSpaceOnUse">
<stop stop-color="#FFB6D5"/>
<stop offset="0.1" stop-color="#FFE3C0"/>
<stop offset="0.29" stop-color="#C7FBDB"/>
<stop offset="0.43" stop-color="#C7CDF4"/>
<stop offset="0.54" stop-color="#FFBCD4"/>
<stop offset="0.66" stop-color="#FFE0C3"/>
<stop offset="0.76" stop-color="#B0F1D4"/>
<stop offset="0.84" stop-color="#C9CEEC"/>
<stop offset="0.91" stop-color="#FFC1DA"/>
<stop offset="1" stop-color="#BDFFE3"/>
</linearGradient>
<radialGradient id="paint27_radial_1_2220" cx="0" cy="0" r="1" gradientUnits="userSpaceOnUse" gradientTransform="translate(120.446 61.3022) rotate(-25.4221) scale(122.765 56.3766)">
<stop stop-color="#FFB6D5"/>
<stop offset="0.1" stop-color="#FFE3C0"/>
<stop offset="0.29" stop-color="#C7FBDB"/>
<stop offset="0.43" stop-color="#C7CDF4"/>
<stop offset="0.54" stop-color="#FFBCD4"/>
<stop offset="0.66" stop-color="#FFE0C3"/>
<stop offset="0.76" stop-color="#B0F1D4"/>
<stop offset="0.84" stop-color="#C9CEEC"/>
<stop offset="0.91" stop-color="#FFC1DA"/>
<stop offset="1" stop-color="#BDFFE3"/>
</radialGradient>
<radialGradient id="paint28_radial_1_2220" cx="0" cy="0" r="1" gradientUnits="userSpaceOnUse" gradientTransform="translate(220.284 60.9561) rotate(-24.6336) scale(121.857 54.6842)">
<stop stop-color="#FFB6D5"/>
<stop offset="0.1" stop-color="#FFE3C0"/>
<stop offset="0.29" stop-color="#C7FBDB"/>
<stop offset="0.43" stop-color="#C7CDF4"/>
<stop offset="0.54" stop-color="#FFBCD4"/>
<stop offset="0.66" stop-color="#FFE0C3"/>
<stop offset="0.76" stop-color="#B0F1D4"/>
<stop offset="0.84" stop-color="#C9CEEC"/>
<stop offset="0.91" stop-color="#FFC1DA"/>
<stop offset="1" stop-color="#BDFFE3"/>
</radialGradient>
<radialGradient id="paint29_radial_1_2220" cx="0" cy="0" r="1" gradientUnits="userSpaceOnUse" gradientTransform="translate(174.316 89.9202) rotate(-22.9114) scale(136.42 57.9417)">
<stop stop-color="#FFB6D5"/>
<stop offset="0.1" stop-color="#FFE3C0"/>
<stop offset="0.29" stop-color="#C7FBDB"/>
<stop offset="0.43" stop-color="#C7CDF4"/>
<stop offset="0.54" stop-color="#FFBCD4"/>
<stop offset="0.66" stop-color="#FFE0C3"/>
<stop offset="0.76" stop-color="#B0F1D4"/>
<stop offset="0.84" stop-color="#C9CEEC"/>
<stop offset="0.91" stop-color="#FFC1DA"/>
<stop offset="1" stop-color="#BDFFE3"/>
</radialGradient>
<radialGradient id="paint30_radial_1_2220" cx="0" cy="0" r="1" gradientUnits="userSpaceOnUse" gradientTransform="translate(172.567 81.8313) rotate(-22.9002) scale(127.453 54.1123)">
<stop stop-color="#FFB6D5"/>
<stop offset="0.1" stop-color="#FFE3C0"/>
<stop offset="0.29" stop-color="#C7FBDB"/>
<stop offset="0.43" stop-color="#C7CDF4"/>
<stop offset="0.54" stop-color="#FFBCD4"/>
<stop offset="0.66" stop-color="#FFE0C3"/>
<stop offset="0.76" stop-color="#B0F1D4"/>
<stop offset="0.84" stop-color="#C9CEEC"/>
<stop offset="0.91" stop-color="#FFC1DA"/>
<stop offset="1" stop-color="#BDFFE3"/>
</radialGradient>
<radialGradient id="paint31_radial_1_2220" cx="0" cy="0" r="1" gradientUnits="userSpaceOnUse" gradientTransform="translate(166.381 74.74) rotate(-22.9114) scale(90.9468 38.6278)">
<stop stop-color="#FFB6D5"/>
<stop offset="0.1" stop-color="#FFE3C0"/>
<stop offset="0.29" stop-color="#C7FBDB"/>
<stop offset="0.43" stop-color="#C7CDF4"/>
<stop offset="0.54" stop-color="#FFBCD4"/>
<stop offset="0.66" stop-color="#FFE0C3"/>
<stop offset="0.76" stop-color="#B0F1D4"/>
<stop offset="0.84" stop-color="#C9CEEC"/>
<stop offset="0.91" stop-color="#FFC1DA"/>
<stop offset="1" stop-color="#BDFFE3"/>
</radialGradient>
<linearGradient id="paint32_linear_1_2220" x1="130.347" y1="101.231" x2="170.734" y2="74.2214" gradientUnits="userSpaceOnUse">
<stop stop-color="#FFB6D5"/>
<stop offset="0.1" stop-color="#FFE3C0"/>
<stop offset="0.29" stop-color="#C7FBDB"/>
<stop offset="0.43" stop-color="#C7CDF4"/>
<stop offset="0.54" stop-color="#FFBCD4"/>
<stop offset="0.66" stop-color="#FFE0C3"/>
<stop offset="0.76" stop-color="#B0F1D4"/>
<stop offset="0.84" stop-color="#C9CEEC"/>
<stop offset="0.91" stop-color="#FFC1DA"/>
<stop offset="1" stop-color="#BDFFE3"/>
</linearGradient>
<radialGradient id="paint33_radial_1_2220" cx="0" cy="0" r="1" gradientUnits="userSpaceOnUse" gradientTransform="translate(222.874 122.644) rotate(-32.9829) scale(129.378 69.9768)">
<stop stop-color="#FFB6D5"/>
<stop offset="0.1" stop-color="#FFE3C0"/>
<stop offset="0.29" stop-color="#C7FBDB"/>
<stop offset="0.43" stop-color="#C7CDF4"/>
<stop offset="0.54" stop-color="#FFBCD4"/>
<stop offset="0.66" stop-color="#FFE0C3"/>
<stop offset="0.76" stop-color="#B0F1D4"/>
<stop offset="0.84" stop-color="#C9CEEC"/>
<stop offset="0.91" stop-color="#FFC1DA"/>
<stop offset="1" stop-color="#BDFFE3"/>
</radialGradient>
<radialGradient id="paint34_radial_1_2220" cx="0" cy="0" r="1" gradientUnits="userSpaceOnUse" gradientTransform="translate(118.067 122.683) rotate(-32.5473) scale(131.13 70.4353)">
<stop stop-color="#FFB6D5"/>
<stop offset="0.1" stop-color="#FFE3C0"/>
<stop offset="0.29" stop-color="#C7FBDB"/>
<stop offset="0.43" stop-color="#C7CDF4"/>
<stop offset="0.54" stop-color="#FFBCD4"/>
<stop offset="0.66" stop-color="#FFE0C3"/>
<stop offset="0.76" stop-color="#B0F1D4"/>
<stop offset="0.84" stop-color="#C9CEEC"/>
<stop offset="0.91" stop-color="#FFC1DA"/>
<stop offset="1" stop-color="#BDFFE3"/>
</radialGradient>
<linearGradient id="paint35_linear_1_2220" x1="134.737" y1="122.877" x2="145.486" y2="115.535" gradientUnits="userSpaceOnUse">
<stop stop-color="#FFB6D5"/>
<stop offset="0.1" stop-color="#FFE3C0"/>
<stop offset="0.29" stop-color="#C7FBDB"/>
<stop offset="0.43" stop-color="#C7CDF4"/>
<stop offset="0.54" stop-color="#FFBCD4"/>
<stop offset="0.66" stop-color="#FFE0C3"/>
<stop offset="0.76" stop-color="#B0F1D4"/>
<stop offset="0.84" stop-color="#C9CEEC"/>
<stop offset="0.91" stop-color="#FFC1DA"/>
<stop offset="1" stop-color="#BDFFE3"/>
</linearGradient>
<linearGradient id="paint36_linear_1_2220" x1="138.324" y1="113.406" x2="146.095" y2="108.372" gradientUnits="userSpaceOnUse">
<stop stop-color="#FFB6D5"/>
<stop offset="0.1" stop-color="#FFE3C0"/>
<stop offset="0.29" stop-color="#C7FBDB"/>
<stop offset="0.43" stop-color="#C7CDF4"/>
<stop offset="0.54" stop-color="#FFBCD4"/>
<stop offset="0.66" stop-color="#FFE0C3"/>
<stop offset="0.76" stop-color="#B0F1D4"/>
<stop offset="0.84" stop-color="#C9CEEC"/>
<stop offset="0.91" stop-color="#FFC1DA"/>
<stop offset="1" stop-color="#BDFFE3"/>
</linearGradient>
<radialGradient id="paint37_radial_1_2220" cx="0" cy="0" r="1" gradientUnits="userSpaceOnUse" gradientTransform="translate(145.72 128.063) rotate(-18.5126) scale(20.1136 7.17276)">
<stop stop-color="#FFB6D5"/>
<stop offset="0.1" stop-color="#FFE3C0"/>
<stop offset="0.29" stop-color="#C7FBDB"/>
<stop offset="0.43" stop-color="#C7CDF4"/>
<stop offset="0.54" stop-color="#FFBCD4"/>
<stop offset="0.66" stop-color="#FFE0C3"/>
<stop offset="0.76" stop-color="#B0F1D4"/>
<stop offset="0.84" stop-color="#C9CEEC"/>
<stop offset="0.91" stop-color="#FFC1DA"/>
<stop offset="1" stop-color="#BDFFE3"/>
</radialGradient>
<radialGradient id="paint38_radial_1_2220" cx="0" cy="0" r="1" gradientUnits="userSpaceOnUse" gradientTransform="translate(146.182 100.576) rotate(-32.0816) scale(10.9856 5.8555)">
<stop stop-color="#FFB6D5"/>
<stop offset="0.1" stop-color="#FFE3C0"/>
<stop offset="0.29" stop-color="#C7FBDB"/>
<stop offset="0.43" stop-color="#C7CDF4"/>
<stop offset="0.54" stop-color="#FFBCD4"/>
<stop offset="0.66" stop-color="#FFE0C3"/>
<stop offset="0.76" stop-color="#B0F1D4"/>
<stop offset="0.84" stop-color="#C9CEEC"/>
<stop offset="0.91" stop-color="#FFC1DA"/>
<stop offset="1" stop-color="#BDFFE3"/>
</radialGradient>
<radialGradient id="paint39_radial_1_2220" cx="0" cy="0" r="1" gradientUnits="userSpaceOnUse" gradientTransform="translate(75.623 166.455) rotate(-36.4567) scale(55.2332 31.2662)">
<stop stop-color="#FFB6D5"/>
<stop offset="0.1" stop-color="#FFE3C0"/>
<stop offset="0.29" stop-color="#C7FBDB"/>
<stop offset="0.43" stop-color="#C7CDF4"/>
<stop offset="0.54" stop-color="#FFBCD4"/>
<stop offset="0.66" stop-color="#FFE0C3"/>
<stop offset="0.76" stop-color="#B0F1D4"/>
<stop offset="0.84" stop-color="#C9CEEC"/>
<stop offset="0.91" stop-color="#FFC1DA"/>
<stop offset="1" stop-color="#BDFFE3"/>
</radialGradient>
<radialGradient id="paint40_radial_1_2220" cx="0" cy="0" r="1" gradientUnits="userSpaceOnUse" gradientTransform="translate(75.6231 154.277) rotate(-24.6879) scale(48.8935 21.9771)">
<stop stop-color="#FFB6D5"/>
<stop offset="0.1" stop-color="#FFE3C0"/>
<stop offset="0.29" stop-color="#C7FBDB"/>
<stop offset="0.43" stop-color="#C7CDF4"/>
<stop offset="0.54" stop-color="#FFBCD4"/>
<stop offset="0.66" stop-color="#FFE0C3"/>
<stop offset="0.76" stop-color="#B0F1D4"/>
<stop offset="0.84" stop-color="#C9CEEC"/>
<stop offset="0.91" stop-color="#FFC1DA"/>
<stop offset="1" stop-color="#BDFFE3"/>
</radialGradient>
<linearGradient id="paint41_linear_1_2220" x1="58.0647" y1="165.633" x2="78.3258" y2="154.238" gradientUnits="userSpaceOnUse">
<stop stop-color="#FFB6D5"/>
<stop offset="0.1" stop-color="#FFE3C0"/>
<stop offset="0.29" stop-color="#C7FBDB"/>
<stop offset="0.43" stop-color="#C7CDF4"/>
<stop offset="0.54" stop-color="#FFBCD4"/>
<stop offset="0.66" stop-color="#FFE0C3"/>
<stop offset="0.76" stop-color="#B0F1D4"/>
<stop offset="0.84" stop-color="#C9CEEC"/>
<stop offset="0.91" stop-color="#FFC1DA"/>
<stop offset="1" stop-color="#BDFFE3"/>
</linearGradient>
<linearGradient id="paint42_linear_1_2220" x1="14.6622" y1="155.361" x2="57.2952" y2="121.122" gradientUnits="userSpaceOnUse">
<stop stop-color="#FFB6D5"/>
<stop offset="0.1" stop-color="#FFE3C0"/>
<stop offset="0.29" stop-color="#C7FBDB"/>
<stop offset="0.43" stop-color="#C7CDF4"/>
<stop offset="0.54" stop-color="#FFBCD4"/>
<stop offset="0.66" stop-color="#FFE0C3"/>
<stop offset="0.76" stop-color="#B0F1D4"/>
<stop offset="0.84" stop-color="#C9CEEC"/>
<stop offset="0.91" stop-color="#FFC1DA"/>
<stop offset="1" stop-color="#BDFFE3"/>
</linearGradient>
<linearGradient id="paint43_linear_1_2220" x1="72.1475" y1="181.799" x2="115.081" y2="147.865" gradientUnits="userSpaceOnUse">
<stop stop-color="#FFB6D5"/>
<stop offset="0.1" stop-color="#FFE3C0"/>
<stop offset="0.29" stop-color="#C7FBDB"/>
<stop offset="0.43" stop-color="#C7CDF4"/>
<stop offset="0.54" stop-color="#FFBCD4"/>
<stop offset="0.66" stop-color="#FFE0C3"/>
<stop offset="0.76" stop-color="#B0F1D4"/>
<stop offset="0.84" stop-color="#C9CEEC"/>
<stop offset="0.91" stop-color="#FFC1DA"/>
<stop offset="1" stop-color="#BDFFE3"/>
</linearGradient>
<linearGradient id="paint44_linear_1_2220" x1="63.4625" y1="155.759" x2="70.9059" y2="150.749" gradientUnits="userSpaceOnUse">
<stop stop-color="#FFB6D5"/>
<stop offset="0.1" stop-color="#FFE3C0"/>
<stop offset="0.29" stop-color="#C7FBDB"/>
<stop offset="0.43" stop-color="#C7CDF4"/>
<stop offset="0.54" stop-color="#FFBCD4"/>
<stop offset="0.66" stop-color="#FFE0C3"/>
<stop offset="0.76" stop-color="#B0F1D4"/>
<stop offset="0.84" stop-color="#C9CEEC"/>
<stop offset="0.91" stop-color="#FFC1DA"/>
<stop offset="1" stop-color="#BDFFE3"/>
</linearGradient>
<radialGradient id="paint45_radial_1_2220" cx="0" cy="0" r="1" gradientUnits="userSpaceOnUse" gradientTransform="translate(240.841 167.209) rotate(-36.4567) scale(55.2332 31.2662)">
<stop stop-color="#FFB6D5"/>
<stop offset="0.1" stop-color="#FFE3C0"/>
<stop offset="0.29" stop-color="#C7FBDB"/>
<stop offset="0.43" stop-color="#C7CDF4"/>
<stop offset="0.54" stop-color="#FFBCD4"/>
<stop offset="0.66" stop-color="#FFE0C3"/>
<stop offset="0.76" stop-color="#B0F1D4"/>
<stop offset="0.84" stop-color="#C9CEEC"/>
<stop offset="0.91" stop-color="#FFC1DA"/>
<stop offset="1" stop-color="#BDFFE3"/>
</radialGradient>
<radialGradient id="paint46_radial_1_2220" cx="0" cy="0" r="1" gradientUnits="userSpaceOnUse" gradientTransform="translate(240.842 155.031) rotate(-24.6879) scale(48.8935 21.9771)">
<stop stop-color="#FFB6D5"/>
<stop offset="0.1" stop-color="#FFE3C0"/>
<stop offset="0.29" stop-color="#C7FBDB"/>
<stop offset="0.43" stop-color="#C7CDF4"/>
<stop offset="0.54" stop-color="#FFBCD4"/>
<stop offset="0.66" stop-color="#FFE0C3"/>
<stop offset="0.76" stop-color="#B0F1D4"/>
<stop offset="0.84" stop-color="#C9CEEC"/>
<stop offset="0.91" stop-color="#FFC1DA"/>
<stop offset="1" stop-color="#BDFFE3"/>
</radialGradient>
<linearGradient id="paint47_linear_1_2220" x1="223.283" y1="166.388" x2="243.544" y2="154.993" gradientUnits="userSpaceOnUse">
<stop stop-color="#FFB6D5"/>
<stop offset="0.1" stop-color="#FFE3C0"/>
<stop offset="0.29" stop-color="#C7FBDB"/>
<stop offset="0.43" stop-color="#C7CDF4"/>
<stop offset="0.54" stop-color="#FFBCD4"/>
<stop offset="0.66" stop-color="#FFE0C3"/>
<stop offset="0.76" stop-color="#B0F1D4"/>
<stop offset="0.84" stop-color="#C9CEEC"/>
<stop offset="0.91" stop-color="#FFC1DA"/>
<stop offset="1" stop-color="#BDFFE3"/>
</linearGradient>
<linearGradient id="paint48_linear_1_2220" x1="178.901" y1="181.695" x2="221.235" y2="147.301" gradientUnits="userSpaceOnUse">
<stop stop-color="#FFB6D5"/>
<stop offset="0.1" stop-color="#FFE3C0"/>
<stop offset="0.29" stop-color="#C7FBDB"/>
<stop offset="0.43" stop-color="#C7CDF4"/>
<stop offset="0.54" stop-color="#FFBCD4"/>
<stop offset="0.66" stop-color="#FFE0C3"/>
<stop offset="0.76" stop-color="#B0F1D4"/>
<stop offset="0.84" stop-color="#C9CEEC"/>
<stop offset="0.91" stop-color="#FFC1DA"/>
<stop offset="1" stop-color="#BDFFE3"/>
</linearGradient>
<linearGradient id="paint49_linear_1_2220" x1="236.828" y1="156.228" x2="278.782" y2="121.495" gradientUnits="userSpaceOnUse">
<stop stop-color="#FFB6D5"/>
<stop offset="0.1" stop-color="#FFE3C0"/>
<stop offset="0.29" stop-color="#C7FBDB"/>
<stop offset="0.43" stop-color="#C7CDF4"/>
<stop offset="0.54" stop-color="#FFBCD4"/>
<stop offset="0.66" stop-color="#FFE0C3"/>
<stop offset="0.76" stop-color="#B0F1D4"/>
<stop offset="0.84" stop-color="#C9CEEC"/>
<stop offset="0.91" stop-color="#FFC1DA"/>
<stop offset="1" stop-color="#BDFFE3"/>
</linearGradient>
<linearGradient id="paint50_linear_1_2220" x1="228.681" y1="156.513" x2="236.124" y2="151.503" gradientUnits="userSpaceOnUse">
<stop stop-color="#FFB6D5"/>
<stop offset="0.1" stop-color="#FFE3C0"/>
<stop offset="0.29" stop-color="#C7FBDB"/>
<stop offset="0.43" stop-color="#C7CDF4"/>
<stop offset="0.54" stop-color="#FFBCD4"/>
<stop offset="0.66" stop-color="#FFE0C3"/>
<stop offset="0.76" stop-color="#B0F1D4"/>
<stop offset="0.84" stop-color="#C9CEEC"/>
<stop offset="0.91" stop-color="#FFC1DA"/>
<stop offset="1" stop-color="#BDFFE3"/>
</linearGradient>
</defs>
</svg>
