<svg width="26" height="35" viewBox="0 0 26 35" fill="none" xmlns="http://www.w3.org/2000/svg">
<path d="M8.89896 31.4677C8.55256 31.4787 8.20908 31.4011 7.90107 31.2423C7.63679 31.0992 7.41242 30.8924 7.24834 30.6406C7.08035 30.3776 6.96105 30.0865 6.89615 29.7812C6.75214 29.121 6.75214 28.4375 6.89615 27.7773C6.96132 27.4701 7.0825 27.1776 7.25362 26.9144C7.41941 26.6628 7.6446 26.456 7.90929 26.3121C8.2173 26.1532 8.56078 26.0757 8.90718 26.0867C9.3027 26.079 9.6927 26.1805 10.0342 26.3802C10.2081 26.4869 10.3541 26.6334 10.4604 26.8075C10.5986 27.0382 10.7043 27.2869 10.7744 27.5466L9.74599 27.7931C9.68108 27.5949 9.57529 27.4125 9.43547 27.2578C9.36188 27.1846 9.27359 27.1279 9.17643 27.0915C9.07928 27.0551 8.9755 27.0397 8.87196 27.0464C8.74312 27.0437 8.61575 27.0742 8.50215 27.1351C8.39804 27.1932 8.30789 27.2733 8.23801 27.3699C8.16531 27.4712 8.10722 27.5823 8.06543 27.6998C8.02071 27.8235 7.98654 27.9507 7.9633 28.0801C7.94005 28.208 7.92476 28.3372 7.91751 28.467C7.91105 28.5949 7.90753 28.7106 7.90753 28.8151C7.88137 29.2549 7.96614 29.6943 8.15407 30.0929C8.22412 30.2278 8.33203 30.3394 8.46456 30.4138C8.59709 30.4883 8.74848 30.5224 8.90013 30.512C9.01899 30.5143 9.13723 30.4944 9.24881 30.4533C9.3421 30.4178 9.42733 30.3639 9.49945 30.2949C9.5715 30.2227 9.63403 30.1416 9.68553 30.0536C9.74542 29.9535 9.79951 29.85 9.84754 29.7437L10.9041 30.0184C10.8186 30.2527 10.7051 30.4758 10.566 30.6829C10.4479 30.8525 10.3016 31.0006 10.1334 31.1208C9.76892 31.3639 9.33676 31.4854 8.89896 31.4677ZM13.0977 31.4677C12.706 31.4652 12.3216 31.3608 11.9824 31.1648C11.7929 31.0636 11.6234 30.9288 11.4823 30.7668C11.3262 30.5798 11.2004 30.3694 11.1096 30.1434L12.0487 29.7325C12.1019 29.8482 12.1631 29.96 12.2319 30.0671C12.2937 30.1638 12.37 30.2505 12.4579 30.3242C12.5451 30.3964 12.6445 30.4525 12.7514 30.4897C12.8724 30.5311 12.9998 30.5509 13.1276 30.5484C13.2239 30.5494 13.32 30.5409 13.4147 30.5232C13.5028 30.5066 13.5873 30.4744 13.6641 30.4281C13.7369 30.3835 13.7965 30.3203 13.8367 30.245C13.8826 30.1542 13.9047 30.0531 13.9007 29.9515C13.898 29.8617 13.8719 29.7741 13.825 29.6975C13.778 29.6209 13.7119 29.5579 13.633 29.5147C13.4101 29.3706 13.1714 29.2524 12.9216 29.1626C12.4844 29.014 12.0731 28.7977 11.703 28.5216C11.5617 28.399 11.4502 28.2458 11.3769 28.0738C11.3036 27.9017 11.2704 27.7152 11.2798 27.5284C11.2763 27.3293 11.3191 27.1322 11.4048 26.9526C11.4904 26.7729 11.6166 26.6155 11.7735 26.4929C12.1218 26.2126 12.5593 26.0668 13.0061 26.082C13.399 26.076 13.7856 26.181 14.1214 26.3849C14.2877 26.4856 14.4352 26.6143 14.5575 26.7653C14.6995 26.9456 14.8159 27.1447 14.9033 27.357L13.8672 27.6739C13.7952 27.4905 13.6861 27.3238 13.5468 27.1844C13.472 27.1194 13.3851 27.0698 13.2911 27.0383C13.1972 27.0069 13.0979 26.9943 12.9991 27.0013C12.9219 27.0015 12.845 27.0097 12.7696 27.0259C12.6958 27.0409 12.6248 27.0671 12.5588 27.1034C12.4913 27.1398 12.4354 27.1944 12.3973 27.261C12.3592 27.3276 12.3406 27.4036 12.3434 27.4802C12.3443 27.5537 12.3679 27.625 12.4109 27.6845C12.4717 27.7643 12.5498 27.8293 12.6393 27.8747C12.8833 28.0094 13.1386 28.1226 13.4024 28.2128C13.7885 28.342 14.1504 28.5349 14.473 28.7834C14.639 28.9092 14.7715 29.074 14.8588 29.2632C14.946 29.4524 14.9853 29.6601 14.9731 29.8681C14.9859 30.0909 14.9482 30.3136 14.8628 30.5198C14.7775 30.7259 14.6466 30.9101 14.4801 31.0585C14.0818 31.3534 13.5923 31.4983 13.0977 31.4677ZM16.6191 31.3972L15.2314 26.1566H16.3508L17.199 29.6856L18.0865 26.1566H19.2136L17.8189 31.3972H16.6191ZM5.08411 5.07422H12.7167V7.42336H5.08411V5.07422ZM13.8907 15.6442H20.7438V17.9933H13.8907V15.6442ZM13.8907 12.121H20.7438V14.4702H13.8907V12.121ZM5.08411 8.59734H12.7167V10.9465H5.08411V8.59734Z" fill="#787878"/>
<path d="M25.7337 8.64637C25.7219 8.63463 25.7102 8.61702 25.6984 8.60528C25.6865 8.58817 25.6727 8.57242 25.6574 8.55832L17.2693 0.170227C17.2575 0.158487 17.2399 0.146748 17.2282 0.135008C17.2164 0.123268 17.193 0.105658 17.1812 0.0939185L17.0932 0H2.34796C1.72524 0 1.12803 0.247374 0.687702 0.687702C0.247374 1.12803 0 1.72524 0 2.34796V31.6975C0 32.3202 0.247374 32.9174 0.687702 33.3577C1.12803 33.7981 1.72524 34.0455 2.34796 34.0455H23.4796C24.1023 34.0455 24.6996 33.7981 25.1399 33.3577C25.5802 32.9174 25.8276 32.3202 25.8276 31.6975V8.73442L25.7337 8.64637ZM17.4395 2.00164L23.8259 8.3881H18.6135C18.3024 8.38717 18.0043 8.26318 17.7844 8.04322C17.5644 7.82326 17.4404 7.52519 17.4395 7.21411V2.00164ZM3.90994 11.5344V4.49048C3.90994 4.3348 3.97179 4.18549 4.08187 4.07541C4.19195 3.96533 4.34125 3.90349 4.49693 3.90349H13.3018C13.4575 3.90349 13.6068 3.96533 13.7169 4.07541C13.8269 4.18549 13.8888 4.3348 13.8888 4.49048V10.9474H21.3307C21.4863 10.9474 21.6356 11.0092 21.7457 11.1193C21.8558 11.2294 21.9176 11.3787 21.9176 11.5344V18.5812C21.9176 18.7369 21.8558 18.8862 21.7457 18.9963C21.6356 19.1063 21.4863 19.1682 21.3307 19.1682H4.49693C4.34125 19.1682 4.19195 19.1063 4.08187 18.9963C3.97179 18.8862 3.90994 18.7369 3.90994 18.5812V11.5344ZM24.6536 31.6975C24.6527 32.0086 24.5287 32.3066 24.3087 32.5266C24.0888 32.7466 23.7907 32.8705 23.4796 32.8715H2.34796C2.03689 32.8705 1.73882 32.7466 1.51886 32.5266C1.2989 32.3066 1.17491 32.0086 1.17398 31.6975V22.5757H9.23336L10.8182 24.3895C10.8728 24.4526 10.9404 24.5032 11.0164 24.5377C11.0924 24.5721 11.175 24.5897 11.2585 24.589H24.6536V31.6975Z" fill="#787878"/>
<path d="M5.08411 12.1211H12.7167V14.4702H5.08411V12.1211ZM5.08411 15.6442H12.7167V17.9933H5.08411V15.6442Z" fill="#787878"/>
</svg>
