<svg width="87" height="107" viewBox="0 0 87 107" fill="none" xmlns="http://www.w3.org/2000/svg">
<path d="M67.1855 14.249V33.8137H86.7502L67.1855 14.249Z" fill="#222222"/>
<path d="M84.5843 106.465H18.4157C17.0815 106.465 16 105.384 16 104.05V78.3955H87V104.05C87 105.384 85.9185 106.465 84.5843 106.465Z" fill="#222222"/>
<path d="M40.9004 99.819C40.2828 100.42 39.5827 100.872 38.8017 101.173C38.0191 101.475 37.177 101.624 36.2738 101.624C35.2798 101.624 34.3667 101.444 33.5312 101.082C32.6957 100.721 31.9659 100.187 31.3418 99.4788C30.7176 98.7705 30.2272 97.8838 29.8739 96.8155C29.5205 95.7472 29.3439 94.5121 29.3439 93.1136C29.3439 91.7151 29.5205 90.4833 29.8739 89.4233C30.2272 88.3616 30.716 87.4782 31.3418 86.7715C31.9659 86.0631 32.699 85.5265 33.5428 85.1567C34.3849 84.7868 35.2963 84.6035 36.2738 84.6035C37.177 84.6035 38.0191 84.7538 38.8017 85.0543C39.5844 85.3565 40.2828 85.8072 40.9004 86.4082L39.0263 88.0792C38.6498 87.6417 38.2321 87.3263 37.7731 87.1314C37.314 86.9366 36.8368 86.8375 36.3398 86.8375C35.7834 86.8375 35.2517 86.9416 34.7481 87.1529C34.2429 87.3643 33.7921 87.7209 33.3942 88.2245C32.9946 88.7298 32.6825 89.3787 32.458 90.1778C32.2334 90.977 32.1112 91.9528 32.0964 93.112C32.1112 94.2414 32.2285 95.204 32.4464 96.0015C32.6644 96.799 32.9649 97.4496 33.3496 97.9548C33.7343 98.4601 34.1702 98.8266 34.659 99.0611C35.1477 99.2956 35.6629 99.4111 36.2061 99.4111C36.7493 99.4111 37.2562 99.3121 37.7301 99.1172C38.204 98.9224 38.6366 98.6054 39.0279 98.1695L40.9004 99.819Z" fill="url(#paint0_radial_1613_78582)"/>
<path d="M54.1972 96.9509C54.1972 97.5519 54.0734 98.1364 53.824 98.7011C53.5747 99.2658 53.2263 99.7628 52.7739 100.19C52.3215 100.618 51.7651 100.962 51.1029 101.218C50.4408 101.473 49.6879 101.601 48.8458 101.601C48.4842 101.601 48.1127 101.581 47.728 101.544C47.3432 101.508 46.9569 101.442 46.5655 101.353C46.1742 101.262 45.8011 101.138 45.4477 100.98C45.0944 100.821 44.7889 100.63 44.533 100.403L45.0068 98.4617C45.2165 98.5823 45.484 98.6995 45.8077 98.8118C46.1313 98.9241 46.4648 99.0297 46.8116 99.1271C47.1567 99.2262 47.5034 99.3038 47.8501 99.3649C48.1952 99.4244 48.5189 99.4557 48.821 99.4557C49.7391 99.4557 50.4425 99.2411 50.9312 98.8118C51.42 98.3825 51.6643 97.7468 51.6643 96.9047C51.6643 96.3928 51.491 95.9569 51.1459 95.5953C50.7991 95.2337 50.3665 94.9068 49.8481 94.6129C49.3296 94.319 48.7682 94.0267 48.1655 93.7328C47.5628 93.4389 46.9981 93.0921 46.4731 92.6942C45.9464 92.2963 45.5104 91.8257 45.1637 91.2841C44.817 90.7425 44.6452 90.0656 44.6452 89.2532C44.6452 88.5168 44.7806 87.8613 45.0514 87.29C45.3222 86.7187 45.6871 86.2316 46.1461 85.8336C46.6052 85.4357 47.1401 85.1302 47.7494 84.9189C48.3587 84.7075 49.0027 84.6035 49.6796 84.6035C50.3715 84.6035 51.0716 84.6679 51.7783 84.7951C52.485 84.9222 53.0563 85.1302 53.4938 85.4159C53.403 85.6107 53.2973 85.8254 53.1784 86.0598C53.0579 86.2943 52.944 86.5106 52.84 86.7137C52.7343 86.9168 52.6435 87.0869 52.5692 87.2223C52.4932 87.3577 52.4486 87.4336 52.4338 87.4485C52.343 87.4039 52.2422 87.3444 52.1283 87.2685C52.0144 87.1925 51.8526 87.1182 51.6429 87.0423C51.4315 86.9663 51.1541 86.9151 50.8074 86.8838C50.4606 86.8524 50.0165 86.8607 49.4749 86.9069C49.1727 86.9383 48.8887 87.0225 48.6163 87.1661C48.3438 87.3098 48.1044 87.4848 47.8931 87.6961C47.6817 87.9075 47.5166 88.1436 47.3961 88.4078C47.2755 88.6703 47.2161 88.9246 47.2161 89.164C47.2161 89.7651 47.3878 90.2505 47.7346 90.6204C48.0797 90.9902 48.509 91.3122 49.0208 91.5912C49.5327 91.8703 50.0891 92.1411 50.6918 92.4036C51.2928 92.6661 51.8542 92.9881 52.3743 93.3629C52.8944 93.7377 53.3254 94.21 53.6721 94.773C54.0238 95.3377 54.1972 96.0626 54.1972 96.9509Z" fill="url(#paint1_radial_1613_78582)"/>
<path d="M61.4663 101.602L56.2965 84.874H59.3891L63.2496 99.2309L67.3362 84.874H70.4057L64.9882 101.602H61.4663Z" fill="url(#paint2_radial_1613_78582)"/>
<path d="M44.0694 40.4191V33.8145H24.2555V40.4191V43.7214V47.0238V50.3261V53.6284V56.9307V60.2331V63.5354V70.14H40.7671H44.0694H78.7439V63.5354V60.2331V56.9307V53.6284V50.3261V47.0238V40.4191H44.0694ZM27.5578 37.1168H40.7671V40.4191H27.5578V37.1168ZM27.5578 43.7214H40.7671V47.0238H27.5578V43.7214ZM27.5578 50.3261H40.7671V53.6284H27.5578V50.3261ZM27.5578 56.9307H40.7671V60.2331H27.5578V56.9307ZM40.7671 66.8377H27.5578V63.5354H40.7671V66.8377ZM75.4415 66.8377H44.0694V63.5354H75.4415V66.8377ZM75.4415 60.2331H44.0694V56.9307H75.4415V60.2331ZM75.4415 53.6284H44.0694V50.3261H75.4415V53.6284ZM44.0694 47.0238V43.7214H75.4415V47.0238H44.0694Z" fill="#222222"/>
<path d="M18.4157 14.5H66.3357C66.5874 14.5 66.8305 14.6006 67.0098 14.7786C67.01 14.7787 67.0101 14.7788 67.0102 14.779L86.221 33.9898C86.2212 33.99 86.2214 33.9902 86.2216 33.9903C86.3437 34.1133 86.5 34.3053 86.5 35.4288V104.813C86.4999 104.813 86.4987 104.831 86.4839 104.87C86.4678 104.912 86.4397 104.967 86.3955 105.033C86.3065 105.165 86.1677 105.316 85.9846 105.459C85.6162 105.747 85.1177 105.965 84.5843 105.965H18.4157C17.8823 105.965 17.3838 105.747 17.0154 105.459C16.8323 105.316 16.6935 105.165 16.6045 105.033C16.5603 104.967 16.5322 104.912 16.5161 104.87C16.5013 104.831 16.5001 104.813 16.5 104.813L16.5 17.1801C16.5 16.213 16.749 15.5407 17.094 15.1203C17.4329 14.7073 17.893 14.5 18.4157 14.5Z" stroke="#222222"/>
<circle cx="14.5" cy="14.5" r="14.5" fill="#222222"/>
<path d="M11 16.3469C10.4477 16.3469 10 15.8991 10 15.3469V14.6531C10 14.1009 10.4477 13.6531 11 13.6531H19C19.5523 13.6531 20 14.1009 20 14.6531V15.3469C20 15.8991 19.5523 16.3469 19 16.3469H11ZM13.5662 11C13.5662 10.4477 14.0139 10 14.5662 10H15.4338C15.9861 10 16.4338 10.4477 16.4338 11V19C16.4338 19.5523 15.9861 20 15.4338 20H14.5662C14.0139 20 13.5662 19.5523 13.5662 19V11Z" fill="url(#paint3_linear_1613_78582)"/>
<defs>
<radialGradient id="paint0_radial_1613_78582" cx="0" cy="0" r="1" gradientUnits="userSpaceOnUse" gradientTransform="translate(39.1348 88.5981) rotate(-42.7721) scale(28.6439 16.9121)">
<stop stop-color="#FFB6D5"/>
<stop offset="0.1" stop-color="#FFE3C0"/>
<stop offset="0.29" stop-color="#C7FBDB"/>
<stop offset="0.43" stop-color="#C7CDF4"/>
<stop offset="0.54" stop-color="#FFBCD4"/>
<stop offset="0.66" stop-color="#FFE0C3"/>
<stop offset="0.76" stop-color="#B0F1D4"/>
<stop offset="0.84" stop-color="#C9CEEC"/>
<stop offset="0.91" stop-color="#FFC1DA"/>
<stop offset="1" stop-color="#BDFFE3"/>
</radialGradient>
<radialGradient id="paint1_radial_1613_78582" cx="0" cy="0" r="1" gradientUnits="userSpaceOnUse" gradientTransform="translate(52.7207 88.5926) rotate(-47.8488) scale(26.2016 15.4403)">
<stop stop-color="#FFB6D5"/>
<stop offset="0.1" stop-color="#FFE3C0"/>
<stop offset="0.29" stop-color="#C7FBDB"/>
<stop offset="0.43" stop-color="#C7CDF4"/>
<stop offset="0.54" stop-color="#FFBCD4"/>
<stop offset="0.66" stop-color="#FFE0C3"/>
<stop offset="0.76" stop-color="#B0F1D4"/>
<stop offset="0.84" stop-color="#C9CEEC"/>
<stop offset="0.91" stop-color="#FFC1DA"/>
<stop offset="1" stop-color="#BDFFE3"/>
</radialGradient>
<radialGradient id="paint2_radial_1613_78582" cx="0" cy="0" r="1" gradientUnits="userSpaceOnUse" gradientTransform="translate(68.2501 88.8) rotate(-36.6758) scale(32.0075 18.1607)">
<stop stop-color="#FFB6D5"/>
<stop offset="0.1" stop-color="#FFE3C0"/>
<stop offset="0.29" stop-color="#C7FBDB"/>
<stop offset="0.43" stop-color="#C7CDF4"/>
<stop offset="0.54" stop-color="#FFBCD4"/>
<stop offset="0.66" stop-color="#FFE0C3"/>
<stop offset="0.76" stop-color="#B0F1D4"/>
<stop offset="0.84" stop-color="#C9CEEC"/>
<stop offset="0.91" stop-color="#FFC1DA"/>
<stop offset="1" stop-color="#BDFFE3"/>
</radialGradient>
<linearGradient id="paint3_linear_1613_78582" x1="10.6612" y1="21.0751" x2="21.8165" y2="16.8665" gradientUnits="userSpaceOnUse">
<stop stop-color="#FFB6D5"/>
<stop offset="0.1" stop-color="#FFE3C0"/>
<stop offset="0.29" stop-color="#C7FBDB"/>
<stop offset="0.43" stop-color="#C7CDF4"/>
<stop offset="0.54" stop-color="#FFBCD4"/>
<stop offset="0.66" stop-color="#FFE0C3"/>
<stop offset="0.76" stop-color="#B0F1D4"/>
<stop offset="0.84" stop-color="#C9CEEC"/>
<stop offset="0.91" stop-color="#FFC1DA"/>
<stop offset="1" stop-color="#BDFFE3"/>
</linearGradient>
</defs>
</svg>
