<svg width="35" height="9" viewBox="0 0 35 9" fill="none" xmlns="http://www.w3.org/2000/svg">
<path d="M3.45 5.92L5.51 1H6.87L3.45 8.39L0.03 1H1.39L3.45 5.92ZM8.79352 8.1C8.32685 8.1 7.91352 8 7.55352 7.8C7.20018 7.6 6.92685 7.32 6.73352 6.96C6.54018 6.6 6.44352 6.18 6.44352 5.7C6.44352 5.21333 6.54018 4.79 6.73352 4.43C6.93352 4.07 7.21352 3.79333 7.57352 3.6C7.93352 3.4 8.35685 3.3 8.84352 3.3C9.33018 3.3 9.74352 3.39333 10.0835 3.58C10.4235 3.76667 10.6835 4.03667 10.8635 4.39C11.0502 4.73667 11.1435 5.15667 11.1435 5.65C11.1435 5.70333 11.1402 5.76 11.1335 5.82C11.1335 5.88 11.1302 5.92333 11.1235 5.95H7.08352V5.21H10.2035L9.87352 5.67C9.89352 5.63 9.91352 5.57667 9.93352 5.51C9.96018 5.43667 9.97352 5.37667 9.97352 5.33C9.97352 5.08333 9.92352 4.87 9.82352 4.69C9.73018 4.51 9.59685 4.37 9.42352 4.27C9.25685 4.17 9.06018 4.12 8.83352 4.12C8.56018 4.12 8.32685 4.18 8.13352 4.3C7.94018 4.42 7.79352 4.59333 7.69352 4.82C7.59352 5.04667 7.54018 5.32667 7.53352 5.66C7.53352 5.99333 7.58352 6.27667 7.68352 6.51C7.78352 6.73667 7.93018 6.91 8.12352 7.03C8.32352 7.15 8.56352 7.21 8.84352 7.21C9.13685 7.21 9.39352 7.15 9.61352 7.03C9.83352 6.91 10.0168 6.72667 10.1635 6.48L11.0935 6.86C10.8535 7.27333 10.5435 7.58333 10.1635 7.79C9.78352 7.99667 9.32685 8.1 8.79352 8.1ZM13.2444 3.4V8H12.1744V3.4H13.2444ZM14.6144 4.55C14.5144 4.47 14.421 4.41 14.3344 4.37C14.2477 4.33 14.1377 4.31 14.0044 4.31C13.8244 4.31 13.6777 4.35667 13.5644 4.45C13.451 4.54333 13.3677 4.67333 13.3144 4.84C13.2677 5 13.2444 5.19 13.2444 5.41L12.8844 5.2C12.8844 4.83333 12.951 4.51 13.0844 4.23C13.2244 3.94333 13.401 3.71667 13.6144 3.55C13.8344 3.38333 14.061 3.3 14.2944 3.3C14.461 3.3 14.6177 3.32667 14.7644 3.38C14.911 3.42667 15.0344 3.51333 15.1344 3.64L14.6144 4.55ZM15.8355 1.57C15.8355 1.38333 15.9022 1.22667 16.0355 1.1C16.1755 0.973333 16.3355 0.909999 16.5155 0.909999C16.7089 0.909999 16.8689 0.973333 16.9955 1.1C17.1289 1.22667 17.1955 1.38333 17.1955 1.57C17.1955 1.75 17.1289 1.90667 16.9955 2.04C16.8689 2.16667 16.7089 2.23 16.5155 2.23C16.3355 2.23 16.1755 2.16667 16.0355 2.04C15.9022 1.90667 15.8355 1.75 15.8355 1.57ZM15.9855 3.4H17.0455V8H15.9855V3.4ZM18.1518 3.4H20.7918V4.35H18.1518V3.4ZM20.6718 1.36C20.6051 1.25333 20.5285 1.18333 20.4418 1.15C20.3618 1.11667 20.2785 1.1 20.1918 1.1C20.0918 1.1 20.0051 1.12667 19.9318 1.18C19.8651 1.23333 19.8118 1.32 19.7718 1.44C19.7318 1.56 19.7118 1.71667 19.7118 1.91V8H18.6518V1.7C18.6518 1.34 18.7085 1.04333 18.8218 0.81C18.9418 0.569999 19.1118 0.389999 19.3318 0.269999C19.5518 0.143333 19.8218 0.0799994 20.1418 0.0799994C20.3218 0.0799994 20.4785 0.103333 20.6118 0.15C20.7451 0.196666 20.8585 0.253333 20.9518 0.32C21.0518 0.386667 21.1285 0.453333 21.1818 0.52L20.6718 1.36ZM21.5777 1.57C21.5777 1.38333 21.6444 1.22667 21.7777 1.1C21.9177 0.973333 22.0777 0.909999 22.2577 0.909999C22.4511 0.909999 22.6111 0.973333 22.7377 1.1C22.8711 1.22667 22.9377 1.38333 22.9377 1.57C22.9377 1.75 22.8711 1.90667 22.7377 2.04C22.6111 2.16667 22.4511 2.23 22.2577 2.23C22.0777 2.23 21.9177 2.16667 21.7777 2.04C21.6444 1.90667 21.5777 1.75 21.5777 1.57ZM21.7277 3.4H22.7877V8H21.7277V3.4ZM26.274 8.1C25.8073 8.1 25.394 8 25.034 7.8C24.6807 7.6 24.4073 7.32 24.214 6.96C24.0207 6.6 23.924 6.18 23.924 5.7C23.924 5.21333 24.0207 4.79 24.214 4.43C24.414 4.07 24.694 3.79333 25.054 3.6C25.414 3.4 25.8373 3.3 26.324 3.3C26.8107 3.3 27.224 3.39333 27.564 3.58C27.904 3.76667 28.164 4.03667 28.344 4.39C28.5307 4.73667 28.624 5.15667 28.624 5.65C28.624 5.70333 28.6207 5.76 28.614 5.82C28.614 5.88 28.6107 5.92333 28.604 5.95H24.564V5.21H27.684L27.354 5.67C27.374 5.63 27.394 5.57667 27.414 5.51C27.4407 5.43667 27.454 5.37667 27.454 5.33C27.454 5.08333 27.404 4.87 27.304 4.69C27.2107 4.51 27.0773 4.37 26.904 4.27C26.7373 4.17 26.5407 4.12 26.314 4.12C26.0407 4.12 25.8073 4.18 25.614 4.3C25.4207 4.42 25.274 4.59333 25.174 4.82C25.074 5.04667 25.0207 5.32667 25.014 5.66C25.014 5.99333 25.064 6.27667 25.164 6.51C25.264 6.73667 25.4107 6.91 25.604 7.03C25.804 7.15 26.044 7.21 26.324 7.21C26.6173 7.21 26.874 7.15 27.094 7.03C27.314 6.91 27.4973 6.72667 27.644 6.48L28.574 6.86C28.334 7.27333 28.024 7.58333 27.644 7.79C27.264 7.99667 26.8073 8.1 26.274 8.1ZM33.1148 0.2H34.2048V8H33.1148V0.2ZM29.3048 5.7C29.3048 5.19333 29.4082 4.76333 29.6148 4.41C29.8215 4.05 30.0948 3.77667 30.4348 3.59C30.7815 3.39667 31.1515 3.3 31.5448 3.3C31.9315 3.3 32.2682 3.39667 32.5548 3.59C32.8482 3.78333 33.0782 4.06 33.2448 4.42C33.4182 4.77333 33.5048 5.2 33.5048 5.7C33.5048 6.19333 33.4182 6.62 33.2448 6.98C33.0782 7.34 32.8482 7.61667 32.5548 7.81C32.2682 8.00333 31.9315 8.1 31.5448 8.1C31.1515 8.1 30.7815 8.00667 30.4348 7.82C30.0948 7.62667 29.8215 7.35 29.6148 6.99C29.4082 6.63 29.3048 6.2 29.3048 5.7ZM30.4248 5.7C30.4248 6.00667 30.4882 6.27 30.6148 6.49C30.7415 6.71 30.9082 6.87667 31.1148 6.99C31.3282 7.10333 31.5582 7.16 31.8048 7.16C32.0115 7.16 32.2148 7.10333 32.4148 6.99C32.6215 6.87667 32.7882 6.71333 32.9148 6.5C33.0482 6.28 33.1148 6.01333 33.1148 5.7C33.1148 5.38667 33.0482 5.12333 32.9148 4.91C32.7882 4.69 32.6215 4.52333 32.4148 4.41C32.2148 4.29667 32.0115 4.24 31.8048 4.24C31.5582 4.24 31.3282 4.29667 31.1148 4.41C30.9082 4.52333 30.7415 4.69 30.6148 4.91C30.4882 5.13 30.4248 5.39333 30.4248 5.7Z" fill="#59783E"/>
</svg>
