<svg width="16" height="54" viewBox="0 0 16 54" fill="none" xmlns="http://www.w3.org/2000/svg">
<g filter="url(#filter0_d_663_47817)">
<rect x="9" y="0.460938" width="45" height="8" rx="4" transform="rotate(90 9 0.460938)" fill="#222222"/>
</g>
<mask id="mask0_663_47817" style="mask-type:alpha" maskUnits="userSpaceOnUse" x="1" y="0" width="8" height="46">
<rect x="9" y="0.460938" width="45" height="8" rx="4" transform="rotate(90 9 0.460938)" fill="#222222"/>
</mask>
<g mask="url(#mask0_663_47817)">
<path d="M58.8459 63.3038C58.8459 63.3038 58.846 63.3039 58.846 63.3038C62.2729 60.1613 69.4606 59.6483 71.3952 55.4998C71.9025 54.412 71.986 53.2081 71.8368 51.9401C71.737 51.4324 71.6364 50.9243 71.5428 50.4187C71.4041 49.8657 71.2582 49.3103 71.117 48.7561C70.3142 46.0769 69.1997 43.3093 69.3071 40.8701C69.5046 36.3893 74.2919 30.9581 72.6623 26.481C72.213 25.2465 71.3432 24.27 70.2554 23.4339C69.8448 23.1618 69.4349 22.8906 69.0324 22.6175C68.5473 22.3304 68.0571 22.0477 67.5721 21.7641C65.1189 20.4549 62.4214 19.3362 60.843 17.615C57.7004 14.1882 57.1874 7.00035 53.0389 5.06577C51.9511 4.55844 50.7471 4.47498 49.4792 4.62419C48.9715 4.72398 48.4634 4.82455 47.9578 4.91812C47.4048 5.05682 46.8494 5.20271 46.2952 5.34394C43.6159 6.14676 40.8484 7.26122 38.4092 7.15384C33.9284 6.95639 28.4972 2.16904 24.0201 3.79861C22.7856 4.24797 21.8091 5.11771 20.973 6.20551C20.7008 6.61616 20.4297 7.02603 20.1566 7.42851C19.8694 7.91366 19.5868 8.40388 19.3032 8.88884C17.9942 11.342 16.8752 14.0396 15.1541 15.618C11.7272 18.7606 4.53942 19.2735 2.60483 23.4221C2.0975 24.5099 2.01405 25.7138 2.16325 26.9817C2.26304 27.4895 2.36361 27.9976 2.45718 28.5031C2.59588 29.0562 2.74178 29.6116 2.883 30.1658C3.68582 32.845 4.80028 35.6126 4.6929 38.0518C4.49545 42.5325 -0.291896 47.9638 1.33767 52.4409C1.78703 53.6753 2.65677 54.6519 3.74457 55.4879C4.15522 55.7601 4.56509 56.0313 4.96757 56.3044C5.45273 56.5915 5.94294 56.8742 6.4279 57.1578C8.8811 58.4668 11.5786 59.5857 13.157 61.3069C16.2996 64.7337 16.8126 71.9215 20.9611 73.8561C22.0489 74.3634 23.2529 74.4469 24.5208 74.2977C25.0285 74.1979 25.5366 74.0973 26.0422 74.0038C26.5953 73.8651 27.1506 73.7192 27.7048 73.5779C30.3841 72.7751 33.1516 71.6607 35.5908 71.768C40.0716 71.9655 45.5028 76.7528 49.9799 75.1233C51.2144 74.6739 52.1909 73.8042 53.027 72.7164C53.2992 72.3057 53.5703 71.8958 53.8435 71.4934C54.1306 71.0082 54.4132 70.518 54.6968 70.033C56.0058 67.5799 57.1247 64.8824 58.8459 63.3038C58.8459 63.3038 58.8459 63.3038 58.8459 63.3038ZM51.4947 73.0636C47.2762 74.8832 41.7794 70.5793 37.4548 70.6405C32.9717 70.704 27.5907 75.1007 23.4886 73.4709C19.3866 71.8412 18.4896 64.9506 15.2723 61.828C12.1688 58.8157 5.21696 58.1744 3.39734 53.9558C1.57772 49.7373 5.88166 44.2405 5.82039 39.9159C5.75697 35.4328 1.36024 30.0518 2.99 25.9498C4.61976 21.8477 11.5103 20.9508 14.6329 17.7335C17.6452 14.63 18.2866 7.67809 22.5051 5.85847C26.7236 4.03885 32.2204 8.34279 36.545 8.28152C41.0281 8.2181 46.4092 3.82137 50.5112 5.45113C54.6132 7.08089 55.5102 13.9715 58.7275 17.094C61.831 20.1063 68.7829 20.7477 70.6025 24.9662C72.4221 29.1848 68.1181 34.6816 68.1794 39.0061C68.2428 43.4892 72.6396 48.8703 71.0098 52.9723C69.3801 57.0743 62.4895 57.9713 59.3669 61.1886C56.3546 64.2921 55.7133 71.244 51.4947 73.0636Z" fill="url(#paint0_radial_663_47817)"/>
<path d="M70.7514 50.9803C70.7515 50.9804 70.7515 50.9804 70.7516 50.9803C72.1004 46.9693 67.5318 42.0714 67.217 37.7906C66.9134 33.6611 70.7774 28.1683 68.7741 24.2381C66.7707 20.3077 59.9916 20.0816 56.811 17.3755C53.514 14.5702 52.2547 8.03491 48.1838 6.70576C44.1129 5.37661 39.1419 9.87809 34.7972 10.1883C30.606 10.4875 25.0313 6.68023 21.0424 8.65414C17.0533 10.628 16.8239 17.3074 14.0775 20.4413C11.2303 23.6898 4.59746 24.9306 3.24848 28.9416C1.89949 32.9527 6.46814 37.8506 6.78296 42.1314C7.0866 46.261 3.22257 51.7538 5.22593 55.684C7.22929 59.6144 14.0084 59.8405 17.189 62.5463C20.486 65.3516 21.7453 71.887 25.8162 73.2161C29.8871 74.5453 34.8581 70.0438 39.2028 69.7336C43.394 69.4344 48.9687 73.2416 52.9576 71.2677C56.9466 69.2938 57.1761 62.6144 59.9223 59.4806C62.7695 56.2321 69.4022 54.9913 70.7513 50.9804C70.7513 50.9803 70.7514 50.9803 70.7514 50.9803ZM54.0944 69.1337C50.3774 71.2482 44.8101 67.9005 40.804 68.4188C36.651 68.9558 32.1348 73.5507 28.1516 72.499C24.1684 71.4474 22.589 65.2433 19.265 62.7322C16.0584 60.3098 9.53825 60.4663 7.3922 56.8039C5.24615 53.1415 8.64363 47.6561 8.11782 43.7089C7.57277 39.617 2.90932 35.1672 3.97665 31.2426C5.04398 27.318 11.3406 25.7618 13.8892 22.4866C16.3477 19.3272 16.189 12.9029 19.906 10.7884C23.623 8.67386 29.1903 12.0214 33.1964 11.5033C37.3494 10.9663 41.8656 6.37139 45.8488 7.42304C49.8319 8.47468 51.4114 14.6787 54.7354 17.1899C57.9419 19.6122 64.4621 19.4558 66.6082 23.1182C68.7542 26.7805 65.3566 32.266 65.8826 36.2132C66.4276 40.3051 71.0911 44.7549 70.0237 48.6795C68.9564 52.6041 62.6598 54.1603 60.1112 57.4355C57.6526 60.5949 57.8114 67.0192 54.0944 69.1337Z" fill="url(#paint1_radial_663_47817)"/>
<path d="M68.9096 46.0497C69.7044 42.2009 65.0173 38.1625 64.2685 34.2415C63.5462 30.4591 66.4703 24.9741 64.2225 21.5565C61.9747 18.1388 55.7801 18.6513 52.5932 16.4898C49.2893 14.2493 47.4377 8.34593 43.5888 7.55133C39.74 6.75655 35.7015 11.4436 31.7806 12.1924C27.9982 12.9147 22.5132 9.99065 19.0955 12.2384C15.6779 14.4862 16.1903 20.6808 14.0289 23.8678C11.7883 27.1716 5.88499 29.0233 5.0904 32.8721C4.29561 36.721 8.9827 40.7594 9.7315 44.6804C10.4538 48.4628 7.52971 53.9478 9.77748 57.3654C12.0253 60.783 18.2199 60.2706 21.4068 62.432C24.7107 64.6726 26.5623 70.5759 30.4112 71.3705C34.26 72.1653 38.2985 67.4782 42.2194 66.7294C46.0018 66.0071 51.4868 68.9312 54.9045 66.6835C58.3221 64.4357 57.8097 58.241 59.9711 55.0541C62.2117 51.7502 68.115 49.8986 68.9096 46.0497ZM55.6462 64.5072C52.5018 66.8481 47.0914 64.3564 43.5128 65.2581C39.8033 66.193 36.2007 70.9021 32.4744 70.3564C28.748 69.8106 26.6475 64.266 23.3619 62.3066C20.1925 60.4163 14.2947 61.2517 11.9537 58.1074C9.61284 54.9631 12.1046 49.5525 11.2028 45.974C10.2679 42.2644 5.55881 38.6619 6.10458 34.9356C6.65036 31.2091 12.195 29.1086 14.1544 25.8231C16.0446 22.6537 15.2093 16.7558 18.3536 14.4149C21.498 12.074 26.9084 14.5657 30.487 13.6639C34.1965 12.7291 37.7991 8.01995 41.5254 8.56572C45.2518 9.11149 47.3523 14.6561 50.6379 16.6155C53.8073 18.5057 59.7051 17.6704 62.0461 20.8147C64.387 23.9592 61.8952 29.3695 62.797 32.9481C63.7319 36.6576 68.441 40.2602 67.8952 43.9865C67.3495 47.713 61.8048 49.8134 59.8454 53.099C57.9552 56.2684 58.7905 62.1663 55.6462 64.5072Z" fill="url(#paint2_radial_663_47817)"/>
</g>
<defs>
<filter id="filter0_d_663_47817" x="0" y="0.460938" width="16" height="53" filterUnits="userSpaceOnUse" color-interpolation-filters="sRGB">
<feFlood flood-opacity="0" result="BackgroundImageFix"/>
<feColorMatrix in="SourceAlpha" type="matrix" values="0 0 0 0 0 0 0 0 0 0 0 0 0 0 0 0 0 0 127 0" result="hardAlpha"/>
<feOffset dx="3" dy="4"/>
<feGaussianBlur stdDeviation="2"/>
<feComposite in2="hardAlpha" operator="out"/>
<feColorMatrix type="matrix" values="0 0 0 0 0.593372 0 0 0 0 0.523611 0 0 0 0 0.604167 0 0 0 0.13 0"/>
<feBlend mode="normal" in2="BackgroundImageFix" result="effect1_dropShadow_663_47817"/>
<feBlend mode="normal" in="SourceGraphic" in2="effect1_dropShadow_663_47817" result="shape"/>
</filter>
<radialGradient id="paint0_radial_663_47817" cx="0" cy="0" r="1" gradientUnits="userSpaceOnUse" gradientTransform="translate(62 20.3589) rotate(-32.1344) scale(154.7 82.5308)">
<stop stop-color="#FFB6D5"/>
<stop offset="0.1" stop-color="#FFE3C0"/>
<stop offset="0.29" stop-color="#C7FBDB"/>
<stop offset="0.43" stop-color="#C7CDF4"/>
<stop offset="0.54" stop-color="#FFBCD4"/>
<stop offset="0.66" stop-color="#FFE0C3"/>
<stop offset="0.76" stop-color="#B0F1D4"/>
<stop offset="0.84" stop-color="#C9CEEC"/>
<stop offset="0.91" stop-color="#FFC1DA"/>
<stop offset="1" stop-color="#BDFFE3"/>
</radialGradient>
<radialGradient id="paint1_radial_663_47817" cx="0" cy="0" r="1" gradientUnits="userSpaceOnUse" gradientTransform="translate(60.6111 22.1854) rotate(-31.7533) scale(145.5 77.1187)">
<stop stop-color="#FFB6D5"/>
<stop offset="0.1" stop-color="#FFE3C0"/>
<stop offset="0.29" stop-color="#C7FBDB"/>
<stop offset="0.43" stop-color="#C7CDF4"/>
<stop offset="0.54" stop-color="#FFBCD4"/>
<stop offset="0.66" stop-color="#FFE0C3"/>
<stop offset="0.76" stop-color="#B0F1D4"/>
<stop offset="0.84" stop-color="#C9CEEC"/>
<stop offset="0.91" stop-color="#FFC1DA"/>
<stop offset="1" stop-color="#BDFFE3"/>
</radialGradient>
<radialGradient id="paint2_radial_663_47817" cx="0" cy="0" r="1" gradientUnits="userSpaceOnUse" gradientTransform="translate(59.2222 22.4813) rotate(-32.1344) scale(137.511 73.3608)">
<stop stop-color="#FFB6D5"/>
<stop offset="0.1" stop-color="#FFE3C0"/>
<stop offset="0.29" stop-color="#C7FBDB"/>
<stop offset="0.43" stop-color="#C7CDF4"/>
<stop offset="0.54" stop-color="#FFBCD4"/>
<stop offset="0.66" stop-color="#FFE0C3"/>
<stop offset="0.76" stop-color="#B0F1D4"/>
<stop offset="0.84" stop-color="#C9CEEC"/>
<stop offset="0.91" stop-color="#FFC1DA"/>
<stop offset="1" stop-color="#BDFFE3"/>
</radialGradient>
</defs>
</svg>
