<svg width="208" height="164" viewBox="0 0 208 164" fill="none" xmlns="http://www.w3.org/2000/svg">
<path d="M21.2907 103.641C21.291 103.641 21.2913 103.641 21.2916 103.641C25.6511 105.942 30.7268 107.772 36.2017 109.339C36.6762 109.475 37.1675 109.572 37.6684 109.639C41.0098 110.08 44.2419 110.624 47.3036 111.324C47.3691 111.334 47.4072 111.244 47.3467 111.223C42.6413 109.549 38.3 107.662 34.548 105.432C11.9123 91.9751 1.771 58.4116 -27.7918 51.8964C-38.723 49.4874 -50.1058 51.2623 -61.5686 54.5633C-55.4246 53.4869 -49.288 53.246 -43.1893 54.3121C-14.0634 59.4061 -1.66153 91.5297 21.2897 103.641C21.29 103.641 21.2903 103.641 21.2907 103.641Z" fill="#222222"/>
<path d="M104.091 200.61C104.091 200.61 104.091 200.61 104.091 200.611C104.959 204.31 106.794 208.073 109.176 211.883C109.251 212.002 109.339 212.113 109.438 212.215C111.443 214.267 113.28 216.342 114.853 218.448C114.928 218.53 115.089 218.427 115.041 218.328C113.477 215.073 112.336 211.869 111.854 208.738C108.484 186.826 133.138 158.104 118.843 139C113.651 132.061 104.206 127.575 93.158 124.007C98.1866 126.31 102.434 129.119 105.493 132.701C120.804 150.633 99.1427 179.504 104.092 200.61C104.092 200.61 104.091 200.611 104.091 200.61Z" fill="#222222"/>
<path d="M93.1573 124.006C88.6788 121.955 83.5814 120.305 78.1499 118.871C79.6472 119.437 81.0866 120.045 82.4585 120.703C83.0329 120.978 83.6354 121.21 84.2671 121.383C87.3076 122.213 90.2867 123.079 93.1573 124.006Z" fill="#222222"/>
<path d="M78.1497 118.87C73.5206 117.121 68.3351 115.778 62.8647 114.642C64.4031 115.106 65.8891 115.613 67.3156 116.17C67.8369 116.373 68.3774 116.542 68.9374 116.666C72.077 117.357 75.1631 118.081 78.1497 118.87Z" fill="#222222"/>
<path d="M-4.59183 102.184C-4.59176 102.184 -4.59152 102.183 -4.59134 102.184C1.95101 104.859 9.80984 106.439 18.1246 107.636C21.1488 107.802 24.1185 108.025 26.9962 108.344C20.0989 106.892 13.6591 105.099 8.22218 102.566C-14.9117 91.7834 -29.3785 61.1751 -57.9449 57.4456C-62.3228 56.8742 -66.6664 56.9817 -70.9794 57.5894C-71.079 57.6034 -71.1781 57.6275 -71.2748 57.6608C-71.6028 57.7737 -71.9308 57.8872 -72.2588 58.0013C-73.697 58.5017 -73.4479 61.1242 -72.0026 61.2501C-44.1087 63.6793 -27.7773 92.7038 -4.59232 102.184C-4.59214 102.184 -4.59191 102.184 -4.59183 102.184Z" fill="#222222"/>
<path d="M86.9707 186.164C86.971 186.164 86.9712 186.164 86.9714 186.165C88.9598 191.122 92.898 196.042 97.5527 200.978C99.5937 202.682 101.546 204.404 103.339 206.154C99.9119 201.763 97.1436 197.404 95.7735 193.079C89.363 172.836 108.098 143.971 91.9081 127.233C89.5951 124.841 86.7228 122.859 83.4319 121.183C83.3552 121.144 83.2731 121.113 83.1873 121.089C82.0451 120.782 80.8952 120.479 79.7399 120.179C78.6518 119.897 77.4012 121.886 78.1779 122.598C95.1103 138.129 79.2206 166.838 86.97 186.164C86.9701 186.164 86.9704 186.164 86.9707 186.164Z" fill="#222222"/>
<path d="M51.8588 112.528C52.311 112.666 52.7749 112.779 53.2507 112.859C56.5149 113.411 59.7365 113.993 62.8647 114.643C58.3891 113.29 53.4774 112.296 48.3417 111.485C48.2912 111.477 48.2625 111.544 48.3096 111.56C49.5227 111.855 50.7068 112.177 51.8588 112.528Z" fill="#222222"/>
<path d="M71.6662 118.13C71.6656 118.13 71.665 118.13 71.6644 118.13C70.5531 117.552 69.3893 117.015 68.1803 116.518C68.1235 116.494 68.0639 116.476 68.0022 116.462C64.0673 115.607 60.057 114.8 56.0658 113.978C56.0488 113.975 56.0378 113.998 56.0535 114.004C61.1042 115.47 66.3827 116.802 71.6662 118.13Z" fill="#222222"/>
<path d="M36.5245 109.897C37.5638 110.02 38.6 110.146 39.6319 110.275C38.9596 110.099 38.2924 109.921 37.6304 109.739C37.1539 109.608 36.664 109.508 36.162 109.447C34.5992 109.255 33.0151 109.084 31.4142 108.927C33.1661 109.2 34.8723 109.519 36.5235 109.897L36.5245 109.897Z" fill="#222222"/>
<path d="M43.9939 111.355C45.3686 111.575 46.7443 111.794 48.1173 112.015C48.3971 112.06 48.5698 111.65 48.3093 111.56C47.9761 111.479 47.6409 111.4 47.3038 111.324C44.7877 110.94 42.2219 110.597 39.632 110.274C41.0663 110.648 42.5224 111.007 43.9949 111.355L43.9939 111.355Z" fill="#222222"/>
<path d="M55.7156 113.906C55.716 113.906 55.7164 113.906 55.7168 113.906C55.7184 113.907 55.7201 113.907 55.7217 113.907C55.7417 113.911 55.7546 113.885 55.7361 113.877C54.7042 113.468 53.6381 113.09 52.5414 112.741C52.5368 112.74 52.532 112.739 52.5271 112.738C52.4009 112.717 52.3314 112.884 52.451 112.921C53.5263 113.257 54.6149 113.585 55.7143 113.906C55.7147 113.906 55.7152 113.906 55.7156 113.906Z" fill="#222222"/>
<path d="M50.6182 115.799C50.618 115.799 50.6178 115.799 50.618 115.799C68.6269 128.901 58.1353 156.88 68.188 174.245C71.8168 180.515 79.0185 186.406 86.625 192.333C88.3664 193.589 90.0652 194.856 91.6885 196.143C85.7341 190.773 80.4509 185.409 77.7532 179.883C68.7889 161.519 81.9256 133.107 64.3878 118.791C61.9957 116.837 59.1846 115.273 56.0547 114.004C55.9423 113.971 55.8308 113.939 55.7184 113.906C51.7595 113.091 47.8214 112.261 43.9959 111.356C42.4156 111.103 40.8358 110.849 39.2633 110.59C43.5558 111.794 47.4055 113.461 50.6184 115.798C50.6186 115.798 50.6184 115.799 50.6182 115.799Z" fill="#222222"/>
<path d="M-97.8081 70.6765C-97.8082 70.6768 -97.808 70.6772 -97.8076 70.6772C-71.5675 70.7164 -52.1177 96.4216 -29.2021 103.395C-20.2031 106.134 -9.15337 106.697 2.082 107.052C4.48347 107.056 6.86126 107.086 9.19669 107.167C-0.355348 106.346 -9.52002 105.156 -17.0871 102.468C-40.1979 94.2597 -58.1911 66.8735 -85.3065 65.6755C-89.2694 65.5001 -93.111 65.8995 -96.8586 66.7262C-97.0148 66.777 -97.1717 66.8269 -97.3276 66.877C-100.883 68.3699 -104.422 69.8355 -107.939 71.1788C-109.299 71.8322 -110.658 72.4834 -112.013 73.1259C-107.497 71.5869 -102.788 70.6687 -97.8086 70.6757C-97.8082 70.6757 -97.8079 70.6761 -97.8081 70.6765Z" fill="#222222"/>
<path d="M31.4151 108.927C31.4152 108.927 31.4151 108.926 31.4149 108.926C29.9704 108.702 28.496 108.51 26.9963 108.343C27.5069 108.451 28.0197 108.556 28.5351 108.661C29.4998 108.745 30.4599 108.834 31.4146 108.927C31.4149 108.927 31.4151 108.927 31.4151 108.927Z" fill="#222222"/>
<path d="M21.5572 108.106C21.5571 108.106 21.5569 108.106 21.5567 108.106C20.4053 107.955 19.2602 107.799 18.1237 107.635C16.9988 107.572 15.8651 107.518 14.7275 107.469C16.3199 107.593 17.8828 107.75 19.412 107.949C20.1272 108.001 20.8423 108.052 21.5569 108.106C21.5571 108.106 21.5573 108.106 21.5572 108.106Z" fill="#222222"/>
<path d="M28.5351 108.661C26.2282 108.459 23.897 108.28 21.558 108.107C25.1863 108.583 28.8774 109.007 32.5619 109.433C31.2066 109.185 29.8633 108.929 28.5351 108.661Z" fill="#222222"/>
<path d="M36.5246 109.897C35.2068 109.74 33.8844 109.587 32.5619 109.434C34.7706 109.838 37.009 110.22 39.2613 110.59C38.3672 110.34 37.4544 110.109 36.5246 109.897Z" fill="#222222"/>
<path d="M14.7275 107.47C14.7274 107.47 14.7274 107.47 14.7273 107.47C12.917 107.329 11.0709 107.233 9.19744 107.167C9.86527 107.224 10.5347 107.28 11.2059 107.334C12.3842 107.375 13.5581 107.419 14.7274 107.469C14.7278 107.469 14.7278 107.47 14.7275 107.47Z" fill="#222222"/>
<path d="M-19.1366 337.635C-19.1366 337.635 -19.1365 337.636 -19.1363 337.636C3.00206 329.759 40.4858 335.938 56.4803 322.624C60.6746 319.133 62.874 314.731 63.9787 309.828C64.2165 307.819 64.4509 305.808 64.7173 303.815C64.823 301.594 64.8953 299.355 64.9898 297.126C64.833 286.217 63.2139 274.627 67.3546 265.638C74.962 249.128 107.423 234.236 105.689 215.682C105.211 210.566 102.205 205.939 97.8773 201.592C96.1797 200.113 94.4846 198.639 92.8302 197.166C90.774 195.547 88.6853 193.94 86.6249 192.334C76.0174 184.683 63.8809 177.467 58.3502 169.262C47.3384 152.926 55.3021 125.505 36.9528 113.609C32.1413 110.489 26.1123 108.822 19.4136 107.951C16.6723 107.752 13.9279 107.556 11.2067 107.336C8.17643 107.231 5.12369 107.15 2.08379 107.054C-12.789 107.034 -28.5719 108.08 -40.8777 104.932C-63.4829 99.1486 -84.1857 75.1543 -109.463 76.198C-116.432 76.4859 -122.703 78.6342 -128.577 81.755C-130.573 82.9821 -132.562 84.2074 -134.55 85.4029C-136.732 86.8913 -138.898 88.4037 -141.061 89.8953C-151.363 97.5826 -161.053 106.396 -172.172 110.352C-194.31 118.229 -231.794 112.051 -247.789 125.364C-251.983 128.855 -254.183 133.257 -255.287 138.161C-255.525 140.169 -255.76 142.18 -256.026 144.173C-256.132 146.395 -256.204 148.633 -256.299 150.862C-256.142 161.771 -254.523 173.362 -258.663 182.35C-266.271 198.861 -298.731 213.752 -296.998 232.306C-296.519 237.423 -293.513 242.049 -289.186 246.396C-287.488 247.875 -285.793 249.349 -284.139 250.822C-282.083 252.441 -279.994 254.049 -277.934 255.654C-267.326 263.305 -255.19 270.521 -249.659 278.726C-238.647 295.063 -246.611 322.483 -228.261 334.379C-223.45 337.499 -217.421 339.166 -210.722 340.037C-207.981 340.236 -205.237 340.433 -202.515 340.652C-199.485 340.757 -196.432 340.838 -193.392 340.935C-178.52 340.954 -162.737 339.908 -150.431 343.056C-127.826 348.84 -107.123 372.834 -81.8461 371.79C-74.8764 371.502 -68.6057 369.354 -62.7315 366.233C-60.7362 365.006 -58.7469 363.781 -56.7586 362.585C-54.577 361.097 -52.4108 359.584 -50.2474 358.093C-39.9462 350.406 -30.2563 341.592 -19.1368 337.635C-19.1366 337.635 -19.1365 337.635 -19.1366 337.635ZM-71.0727 365.804C-95.3084 367.849 -117.058 345.586 -139.246 340.945C-162.247 336.133 -196.218 346.493 -214.779 335.787C-233.34 325.081 -227.776 298.339 -239.618 283.055C-251.04 268.31 -285.618 258.087 -288.704 240.284C-291.79 222.481 -261.703 206.8 -255.647 190.581C-249.369 173.768 -263.912 148.721 -249.543 135.238C-235.175 121.754 -198.644 126.164 -177.95 117.666C-157.988 109.468 -144.473 84.229 -120.237 82.1844C-96.0016 80.1397 -74.252 102.403 -52.0639 107.044C-29.0626 111.856 4.90845 101.496 23.4691 112.202C42.0298 122.907 36.4659 149.65 48.3075 164.934C59.73 179.678 94.3084 189.902 97.3941 207.705C100.48 225.508 70.3926 241.189 64.3373 257.408C58.0594 274.221 72.6018 299.268 58.2332 312.751C43.8647 326.234 7.33398 321.824 -13.3597 330.323C-33.3222 338.521 -46.837 363.76 -71.0727 365.804Z" fill="#222222"/>
<path d="M58.9517 303.058C58.9519 303.059 58.9523 303.059 58.9525 303.058C71.7251 289.496 55.8433 265.999 60.5901 249.567C65.1696 233.715 92.8752 217.394 88.5511 200.394C84.2274 183.394 50.2302 174.979 38.1308 161.263C25.5889 147.045 28.8922 121.09 10.2443 111.554C-8.40352 102.017 -40.2469 113.379 -62.7098 109.695C-84.379 106.14 -106.972 85.6167 -130.097 88.5796C-153.224 91.5422 -164.28 116.377 -182.831 125.084C-202.062 134.109 -237.492 131.367 -250.265 144.929C-263.039 158.491 -247.157 181.989 -251.903 198.421C-256.483 214.273 -284.189 230.594 -279.865 247.593C-275.541 264.594 -241.544 273.009 -229.444 286.724C-216.902 300.942 -220.205 326.897 -201.557 336.434C-182.91 345.97 -151.066 334.609 -128.603 338.293C-106.934 341.847 -84.3409 362.37 -61.2157 359.408C-38.0894 356.445 -27.0332 331.61 -8.48278 322.903C10.7481 313.878 46.1771 316.62 58.9509 303.058C58.9511 303.058 58.9515 303.058 58.9517 303.058ZM-52.2972 352.66C-74.254 356.454 -97.49 337.665 -118.546 335.14C-140.374 332.523 -170.053 344.743 -188.667 336.346C-207.282 327.95 -206.091 302.882 -219.206 289.739C-231.856 277.061 -265.109 270.371 -270.553 254.218C-275.996 238.065 -250.664 221.251 -247.48 205.837C-244.179 189.857 -261.205 167.937 -249.986 154.385C-238.767 140.834 -204.573 142.016 -186.814 132.557C-169.683 123.433 -160.971 99.1228 -139.014 95.3283C-117.057 91.5339 -93.8211 110.323 -72.7649 112.848C-50.9371 115.466 -21.2585 103.246 -2.6439 111.642C15.9707 120.038 14.7794 145.106 27.8942 158.249C40.545 170.928 73.7978 177.617 79.2412 193.77C84.6846 209.923 59.3516 226.737 56.1685 242.152C52.8675 258.131 69.8936 280.052 58.6746 293.603C47.4557 307.155 13.2616 305.973 -4.49719 315.431C-21.6281 324.555 -30.3404 348.865 -52.2972 352.66Z" fill="#222222"/>
<path d="M57.4426 284.434C67.1557 270.978 49.1821 250.652 51.1267 235.192C53.0028 220.278 75.984 203.115 69.5417 187.846C63.0994 172.577 30.7444 167.523 17.6642 155.882C4.10386 143.814 3.33685 119.722 -15.1296 112.433C-33.5958 105.142 -61.0886 118.077 -82.1919 116.46C-102.55 114.901 -126.232 97.8324 -146.972 102.37C-167.711 106.908 -174.204 130.58 -189.916 140.032C-206.204 149.831 -239.042 150.097 -248.754 163.554C-258.467 177.01 -240.493 197.336 -242.438 212.796C-244.314 227.71 -267.295 244.872 -260.853 260.142C-254.41 275.411 -222.056 280.465 -208.975 292.106C-195.415 304.174 -194.648 328.265 -176.181 335.555C-157.715 342.845 -130.222 329.911 -109.119 331.527C-88.7615 333.087 -65.0791 350.155 -44.3395 345.617C-23.5999 341.079 -17.1068 317.408 -1.39479 307.956C14.8926 298.157 47.7304 297.891 57.4426 284.434ZM-37.3558 338.338C-56.8387 343.53 -80.776 328.157 -100.358 327.496C-120.656 326.811 -145.958 340.318 -164.165 334.093C-182.373 327.869 -184.937 304.836 -198.817 293.836C-212.206 283.226 -243.522 279.709 -250.842 265.355C-258.161 251 -237.495 233.629 -236.834 219.273C-236.149 204.392 -254.876 185.666 -246.614 172.387C-238.351 159.107 -206.977 157.51 -192.151 147.463C-177.848 137.772 -173.439 114.843 -153.957 109.651C-134.474 104.458 -110.536 119.831 -90.9546 120.492C-70.6561 121.177 -45.3546 107.671 -27.1475 113.895C-8.93947 120.119 -6.37575 143.153 7.50454 154.152C20.8941 164.762 52.2098 168.279 59.5292 182.634C66.8482 196.989 46.1825 214.359 45.5215 228.715C44.837 243.596 63.5638 262.322 55.3012 275.601C47.0383 288.881 15.6646 290.479 0.838477 300.525C-13.4641 310.217 -17.8738 333.145 -37.3558 338.338Z" fill="#222222"/>
<path d="M52.3037 267.15C59.1812 254.123 39.8919 236.994 39.4171 222.746C38.9586 209.001 57.3623 191.559 49.2895 178.14C41.2167 164.721 11.0682 162.639 -2.51297 153.045C-16.5919 143.101 -20.7855 121.195 -38.6317 115.99C-56.4778 110.785 -79.5957 124.724 -99.0171 124.897C-117.751 125.064 -141.759 111.35 -159.956 117.107C-178.154 122.864 -180.622 144.953 -193.535 154.798C-206.921 165.003 -236.737 167.81 -243.614 180.837C-250.492 193.864 -231.203 210.993 -230.728 225.242C-230.269 238.986 -248.672 256.428 -240.6 269.847C-232.527 283.267 -202.379 285.349 -188.798 294.942C-174.719 304.886 -170.525 326.792 -152.679 331.997C-134.833 337.202 -111.715 323.263 -92.2937 323.09C-73.5595 322.923 -49.5513 336.636 -31.3544 330.88C-13.1571 325.124 -10.6889 303.034 2.22414 293.19C15.61 282.984 45.4262 280.177 52.3037 267.15ZM2.78601 285.995C-8.76509 295.909 -9.44474 317.074 -26.3369 323.305C-43.2291 329.535 -67.128 317.435 -84.956 318.357C-103.437 319.313 -124.396 333.547 -141.784 329.31C-159.173 325.072 -164.823 304.354 -178.983 295.444C-192.642 286.849 -221.508 286.09 -230.211 273.622C-238.914 261.155 -222.71 243.772 -224.185 230.683C-225.716 217.115 -245.381 201.566 -239.817 188.863C-234.254 176.16 -206.074 172.27 -194.1 161.993C-182.549 152.079 -181.869 130.913 -164.977 124.683C-148.085 118.452 -124.186 130.552 -106.358 129.63C-87.8769 128.674 -66.9181 114.44 -49.5297 118.678C-32.1413 122.915 -26.4911 143.634 -12.3314 152.544C1.32785 161.139 30.1939 161.897 38.8969 174.365C47.5999 186.833 31.3958 204.215 32.8713 217.304C34.4018 230.872 54.0668 246.421 48.5033 259.124C42.9398 271.827 14.7601 275.717 2.78601 285.995Z" fill="#222222"/>
<path d="M25.9522 212.409C23.5615 200.016 37.6441 182.819 28.4344 171.31C19.2246 159.802 -8.25803 160.253 -21.8844 152.629C-36.0101 144.726 -42.9428 125.243 -59.7823 121.918C-76.6217 118.593 -95.4613 132.987 -112.946 134.647C-129.814 136.249 -153.434 125.707 -169.012 132.321C-184.591 138.936 -183.638 159.101 -193.865 169.003C-204.466 179.267 -230.946 184.113 -235.272 196.425C-239.599 208.736 -219.742 222.733 -217.263 235.579C-214.872 247.972 -228.955 265.169 -219.745 276.678C-210.536 288.186 -183.053 287.735 -169.427 295.359C-155.301 303.262 -148.368 322.745 -131.529 326.07C-114.689 329.395 -95.8497 315.001 -78.3646 313.341C-61.497 311.739 -37.8769 322.281 -22.2986 315.667C-6.72019 309.052 -7.67296 288.887 2.55413 278.985C13.1555 268.721 39.6346 263.875 43.9612 251.563C48.2877 239.252 28.4308 225.255 25.9522 212.409ZM1.56073 272.206C-7.38508 282.017 -4.96323 301.117 -19.2292 308.026C-33.4953 314.934 -56.6738 305.886 -72.5397 308.09C-88.9861 310.374 -105.756 324.798 -121.965 322.325C-138.175 319.852 -146.212 301.642 -160.194 294.715C-173.682 288.032 -199.694 289.574 -209.289 279.024C-218.883 268.474 -206.832 251.583 -210.031 239.918C-213.348 227.826 -233.221 215.347 -230.048 203.487C-226.875 191.627 -202.146 185.955 -192.872 175.784C-183.926 165.972 -186.348 146.872 -172.082 139.964C-157.816 133.056 -134.638 142.103 -118.772 139.9C-102.325 137.616 -85.5558 123.191 -69.3463 125.664C-53.1368 128.138 -45.0992 146.347 -31.1172 153.275C-17.6297 159.958 8.38267 158.416 17.9771 168.965C27.5715 179.515 15.5206 196.406 18.7199 208.072C22.0362 220.164 41.9094 232.642 38.7365 244.502C35.5636 256.362 10.8342 262.035 1.56073 272.206Z" fill="#222222"/>
<path d="M11.2433 204.302C7.34352 193.391 17.4642 176.918 7.60423 167.321C-2.25576 157.724 -26.7235 160.234 -39.9728 154.454C-53.7069 148.463 -62.671 131.553 -78.1766 129.867C-93.6819 128.181 -108.447 142.51 -123.819 145.337C-138.648 148.064 -161.233 140.437 -174.196 147.552C-187.16 154.667 -183.437 172.646 -191.155 182.294C-199.155 192.295 -222.101 198.662 -224.209 210.016C-226.317 221.369 -206.598 232.376 -202.555 243.687C-198.655 254.598 -208.776 271.071 -198.916 280.668C-189.056 290.265 -164.588 287.755 -151.339 293.534C-137.605 299.526 -128.641 316.436 -113.135 318.122C-97.6298 319.808 -82.865 305.479 -67.4923 302.652C-52.6637 299.925 -30.0787 307.551 -17.1152 300.437C-4.15172 293.322 -7.87457 275.343 -0.156887 265.695C7.84369 255.694 30.7893 249.326 32.897 237.973C35.0046 226.62 15.2867 215.613 11.2433 204.302ZM-2.55873 259.492C-9.10791 268.906 -4.25344 285.719 -15.9346 292.955C-27.6157 300.19 -49.4661 293.904 -63.2325 297.074C-77.5038 300.36 -90.3418 314.474 -105.078 313.508C-119.812 312.542 -129.525 296.948 -142.912 291.849C-155.828 286.929 -178.693 290.283 -188.701 281.626C-198.71 272.968 -190.407 257.017 -194.899 246.88C-199.554 236.371 -218.957 226.78 -217.82 215.983C-216.684 205.186 -195.542 198.253 -188.754 188.495C-182.204 179.082 -187.059 162.269 -175.378 155.033C-163.697 147.797 -141.846 154.084 -128.08 150.914C-113.809 147.628 -100.971 133.514 -86.2348 134.48C-71.5 135.446 -61.7878 151.04 -48.3999 156.139C-35.4845 161.059 -12.6198 157.705 -2.61096 166.362C7.3979 175.02 -0.904878 190.971 3.58634 201.108C8.24209 211.617 27.6443 221.208 26.5078 232.005C25.3715 242.802 4.22998 249.735 -2.55873 259.492Z" fill="#222222"/>
<path d="M-4.18394 198.492C-9.1569 189.141 -2.55274 173.809 -12.5955 166.071C-22.6381 158.332 -43.8562 162.404 -56.3496 158.296C-69.3014 154.039 -79.5832 139.766 -93.4893 139.449C-107.396 139.132 -118.397 152.919 -131.552 156.581C-144.24 160.114 -165.225 155.081 -175.653 162.353C-186.081 169.624 -180.269 185.239 -185.715 194.353C-191.361 203.801 -210.694 211.167 -210.956 221.365C-211.217 231.562 -192.284 239.801 -187.129 249.496C-182.156 258.847 -188.76 274.178 -178.718 281.917C-168.675 289.656 -147.457 285.584 -134.964 289.691C-122.012 293.949 -111.73 308.221 -97.8239 308.538C-83.9168 308.855 -72.9162 295.069 -59.7616 291.406C-47.0729 287.873 -26.0883 292.906 -15.6603 285.634C-5.23222 278.363 -11.0446 262.748 -5.59779 253.634C0.0478983 244.186 19.3813 236.819 19.6425 226.623C19.904 216.425 0.971271 208.186 -4.18394 198.492ZM-9.22623 248.153C-13.6429 256.907 -7.04694 271.299 -16.2582 278.526C-25.4698 285.754 -45.4695 281.878 -57.0741 285.695C-69.1042 289.651 -78.368 303.003 -91.3982 303.263C-104.428 303.522 -115.105 290.566 -127.533 287.096C-139.523 283.748 -159.064 288.41 -169.031 281.564C-178.999 274.718 -173.961 260.095 -179.308 251.536C-184.85 242.663 -203.169 235.703 -203.682 226.142C-204.195 216.581 -186.662 208.908 -182.084 199.834C-177.667 191.08 -184.263 176.688 -175.052 169.461C-165.84 162.233 -145.84 166.109 -134.236 162.292C-122.206 158.336 -112.942 144.984 -99.9118 144.725C-86.8816 144.466 -76.2048 157.421 -63.7766 160.891C-51.7872 164.239 -32.2457 159.577 -22.2786 166.423C-12.3106 173.269 -17.3487 187.892 -12.002 196.451C-6.46025 205.325 11.8587 212.284 12.3721 221.845C12.8855 231.407 -4.6476 239.079 -9.22623 248.153Z" fill="#222222"/>
<path d="M-19.8057 194.983C-25.4169 187.215 -21.8077 173.38 -31.5957 167.393C-41.383 161.406 -59.2326 166.531 -70.6436 163.886C-82.4726 161.146 -93.3726 149.491 -105.484 150.251C-117.597 151.012 -125.234 163.83 -136.143 167.998C-146.666 172.019 -165.573 169.201 -173.617 176.307C-181.659 183.413 -174.452 196.57 -177.917 204.908C-181.508 213.551 -197.266 221.403 -196.08 230.297C-194.894 239.192 -177.323 244.951 -171.506 253.005C-165.895 260.773 -169.504 274.608 -159.716 280.595C-149.929 286.582 -132.079 281.457 -120.669 284.102C-108.84 286.842 -97.9395 298.497 -85.8276 297.737C-73.7147 296.976 -66.0777 284.158 -55.1689 279.99C-44.6464 275.969 -25.7388 278.787 -17.6956 271.681C-9.65359 264.575 -16.8598 251.418 -13.3947 243.08C-9.80373 234.437 5.95386 226.585 4.76781 217.691C3.58207 208.796 -13.9893 203.037 -19.8057 194.983ZM-18.0499 238.441C-20.6452 246.313 -13.0018 258.232 -19.9284 265.143C-26.855 272.053 -44.5772 270.188 -54.0291 274.335C-63.8269 278.633 -69.9579 290.827 -81.1222 292.012C-92.2865 293.198 -103.241 282.817 -114.4 280.743C-125.165 278.743 -141.322 284.203 -150.829 279.037C-160.336 273.871 -158.012 260.894 -163.782 253.91C-169.762 246.67 -186.464 242.023 -188.217 233.819C-189.97 225.614 -175.952 217.707 -173.261 209.546C-170.666 201.674 -178.309 189.755 -171.382 182.845C-164.456 175.935 -146.734 177.799 -137.282 173.652C-127.484 169.354 -121.353 157.16 -110.189 155.975C-99.0243 154.79 -88.0699 165.17 -76.9105 167.244C-66.1457 169.245 -49.9884 163.785 -40.4815 168.951C-30.9746 174.116 -33.2991 187.093 -27.5289 194.078C-21.5484 201.318 -4.8468 205.965 -3.09377 214.169C-1.34073 222.373 -15.3592 230.281 -18.0499 238.441Z" fill="#222222"/>
<path d="M-11.139 211.29C-11.1393 211.29 -11.1395 211.29 -11.1396 211.289C-13.3548 203.793 -29.0736 200.165 -35.1109 193.724C-40.9346 187.511 -39.7445 175.452 -48.877 171.062C-58.0095 166.673 -72.4879 172.345 -82.5478 170.924C-92.9761 169.45 -103.823 160.31 -114.017 161.841C-124.21 163.374 -128.965 174.86 -137.672 179.21C-146.071 183.405 -162.528 182.384 -168.401 189.029C-174.273 195.674 -166.362 206.364 -168.176 213.726C-170.057 221.358 -182.386 229.202 -180.172 236.699C-177.957 244.195 -162.237 247.823 -156.2 254.264C-150.376 260.477 -151.566 272.537 -142.434 276.926C-133.301 281.315 -118.823 275.644 -108.763 277.065C-98.3349 278.538 -87.488 287.679 -77.2944 286.147C-67.1005 284.614 -62.3474 273.128 -53.6389 268.779C-45.2395 264.583 -28.7827 265.604 -22.9103 258.959C-17.0379 252.314 -24.9487 241.624 -23.1347 234.262C-21.2544 226.631 -8.92533 218.786 -11.1383 211.29C-11.1384 211.29 -11.1387 211.29 -11.139 211.29ZM-26.5931 253.169C-31.4807 259.484 -46.6034 259.192 -53.9796 263.363C-61.6266 267.686 -65.1389 278.391 -74.349 280.193C-83.5591 281.995 -94.143 274.048 -103.786 273.106C-113.088 272.198 -125.916 277.958 -134.586 274.295C-143.256 270.632 -143.044 259.543 -148.821 254.081C-154.81 248.418 -169.448 245.71 -172.018 238.932C-174.588 232.154 -163.883 224.488 -162.717 217.426C-161.593 210.614 -169.605 201.133 -164.718 194.818C-159.83 188.503 -144.707 188.795 -137.331 184.625C-129.684 180.301 -126.172 169.597 -116.962 167.795C-107.752 165.993 -97.1677 173.94 -87.5249 174.882C-78.2232 175.79 -65.3951 170.029 -56.7248 173.692C-48.0546 177.355 -48.267 188.445 -42.4897 193.907C-36.5008 199.569 -21.863 202.277 -19.2927 209.055C-16.7224 215.834 -27.4281 223.5 -28.5933 230.562C-29.7173 237.374 -21.7055 246.854 -26.5931 253.169Z" fill="#222222"/>
</svg>
