<svg width="259" height="128" viewBox="0 0 259 128" fill="none" xmlns="http://www.w3.org/2000/svg">
<path d="M207.694 39.3977C207.693 39.398 207.693 39.3983 207.693 39.3983C204.595 39.6718 201.42 40.5742 198.201 41.8441C197.529 42.1094 196.886 42.472 196.27 42.8881C194.633 43.9926 192.995 44.9845 191.353 45.8104C191.302 45.8434 191.329 45.9269 191.384 45.91C194.493 44.9704 197.544 44.3686 200.5 44.3134C218.334 43.9832 241.026 65.184 258.414 56.1779C261.57 54.5428 264.24 52.0739 266.569 49.0359C267.256 48.1403 265.295 46.4241 264.368 46.9833C247.945 56.8833 224.959 37.8739 207.694 39.3972C207.694 39.3972 207.694 39.3974 207.694 39.3977Z" fill="url(#paint0_radial_219_15167)"/>
<path d="M116.963 3.58539C116.963 3.58542 116.963 3.58531 116.963 3.58525C114.578 1.12774 111.703 -0.918749 108.545 -2.74033C108.451 -2.79473 108.351 -2.83812 108.247 -2.87057C106.21 -3.50813 104.239 -4.24305 102.376 -5.12766C102.297 -5.15519 102.235 -5.02839 102.303 -4.97945C104.796 -3.19006 107.061 -1.23742 108.971 0.975152C122.256 16.3615 125.992 50.3544 142.918 58.3692C145.932 59.7963 149.112 60.2801 152.409 60.1094C153.474 60.0543 153.535 57.2886 152.562 56.9046C135.784 50.2819 130.561 17.5972 116.963 3.58553C116.963 3.58546 116.963 3.58535 116.963 3.58539Z" fill="url(#paint1_radial_219_15167)"/>
<path d="M163.009 57.7812C163.009 57.781 163.01 57.7809 163.01 57.7808C165.089 57.4308 167.2 56.8255 169.334 56.0416C169.656 55.9234 169.546 55.2933 169.215 55.3313C169.189 55.3342 169.165 55.341 169.14 55.3515C167.082 56.2435 165.034 57.0722 163.009 57.7812Z" fill="url(#paint2_radial_219_15167)"/>
<path d="M178.762 51.7262C178.223 52.0074 178.379 52.5796 178.926 52.3238C180.034 51.8058 181.146 51.2393 182.261 50.6363C181.13 51.0685 180.002 51.4222 178.876 51.6837C178.837 51.6927 178.798 51.7072 178.762 51.7262Z" fill="url(#paint3_radial_219_15167)"/>
<path d="M132.731 6.64518C132.73 6.64528 132.73 6.64526 132.73 6.64514C129.147 3.74676 124.668 1.80474 119.842 0.191185C117.972 -0.159212 116.134 -0.565886 114.356 -1.07031C118.314 0.704811 121.943 2.7676 124.897 5.46998C138.721 18.1168 145.318 49.4056 161.873 54.6849C164.211 55.4306 166.592 55.6065 169.007 55.3539C169.119 55.3421 169.231 55.3118 169.338 55.265C169.892 55.0242 170.447 54.7788 171.002 54.5302C171.978 54.0929 171.785 51.989 170.807 51.7493C154.548 47.7594 146.696 17.9445 132.731 6.64522C132.731 6.6451 132.731 6.64509 132.731 6.64518Z" fill="url(#paint4_radial_219_15167)"/>
<path d="M220.65 28.2205C220.65 28.2206 220.65 28.2208 220.65 28.2208C216.144 29.2577 211.603 31.7693 207.052 34.795C206.647 35.1449 207.145 36.212 207.619 36.0167C209.905 35.0759 212.174 34.3735 214.418 34.0172C231.059 31.377 254.208 48.2298 269.639 37.5378C271.99 35.9083 273.968 33.7744 275.666 31.2706C275.724 31.1844 275.773 31.0911 275.811 30.9932C276.012 30.4728 276.211 29.9501 276.409 29.4258C276.818 28.3413 275.098 27.2117 274.221 27.9038C259.8 39.284 236.62 24.5461 220.65 28.2202C220.65 28.2203 220.65 28.2205 220.65 28.2205Z" fill="url(#paint5_radial_219_15167)"/>
<path d="M189.111 46.8308C188.467 47.0909 187.833 47.3905 187.226 47.7602C185.567 48.7722 183.911 49.7444 182.261 50.6368C185.088 49.5573 187.929 47.9925 190.778 46.1801C190.818 46.1548 190.798 46.0916 190.755 46.1055C190.207 46.3671 189.66 46.6095 189.111 46.8308Z" fill="url(#paint6_radial_219_15167)"/>
<path d="M176.257 52.1172C176.257 52.117 176.258 52.1169 176.258 52.1168C177.068 52.0387 177.881 51.9059 178.694 51.7244C178.776 51.7061 178.856 51.6763 178.932 51.6362C181.22 50.4378 183.517 49.1684 185.813 47.9184C185.827 47.9108 185.821 47.8886 185.806 47.8922C185.806 47.8923 185.805 47.8925 185.805 47.8928C182.646 49.1577 179.451 50.6345 176.257 52.1172Z" fill="url(#paint7_radial_219_15167)"/>
<path d="M197.188 41.791C197.187 41.7912 197.187 41.7914 197.187 41.7916C197.135 41.8289 197.083 41.8662 197.031 41.9034C196.851 42.032 196.978 42.3431 197.175 42.2606C197.187 42.2557 197.199 42.2493 197.21 42.2417C198.177 41.5644 199.143 40.8517 200.109 40.1133C199.14 40.7351 198.166 41.2984 197.188 41.791Z" fill="url(#paint8_radial_219_15167)"/>
<path d="M106.865 -3.67604C106.865 -3.67607 106.865 -3.67607 106.865 -3.67604C107.297 -3.44373 107.724 -3.20795 108.146 -2.96853C108.318 -2.8711 108.499 -2.79184 108.688 -2.73437C109.779 -2.40206 110.888 -2.09589 112.008 -1.80868C110.933 -2.18417 109.884 -2.60394 108.872 -3.07969C108.202 -3.27547 107.533 -3.47354 106.865 -3.67563C106.865 -3.67568 106.865 -3.67595 106.865 -3.67604Z" fill="url(#paint9_radial_219_15167)"/>
<path d="M192.892 44.2121C192.13 44.6937 191.369 45.1765 190.607 45.6565C190.385 45.7965 190.51 46.1818 190.752 46.1052C190.952 46.0099 191.152 45.9114 191.351 45.8106C191.927 45.438 192.503 45.0559 193.079 44.6663C193.372 44.4685 193.203 44.0599 192.891 44.2124L192.892 44.2121Z" fill="url(#paint10_radial_219_15167)"/>
<path d="M186.017 47.808C186.016 47.8083 186.016 47.8086 186.016 47.8087C186.014 47.8097 186.012 47.8107 186.01 47.8118C185.994 47.8204 186.001 47.8456 186.018 47.8414C186.721 47.668 187.425 47.4542 188.127 47.2038C188.133 47.2015 188.139 47.1986 188.145 47.1949C188.245 47.1332 188.193 46.9774 188.086 47.0167C187.398 47.2685 186.709 47.5328 186.017 47.8073C186.017 47.8074 186.017 47.8077 186.017 47.808Z" fill="url(#paint11_radial_219_15167)"/>
<path d="M187.405 43.9156C187.405 43.9157 187.405 43.9159 187.405 43.9159C171.936 42.3207 161.933 15.6384 147.932 6.9547C142.877 3.81947 136.344 2.67624 129.601 1.69708C128.111 1.55168 126.635 1.3768 125.185 1.15137C130.853 2.48293 136.202 4.12975 140.422 7.13103C154.445 17.107 163.434 45.3825 179.329 48.143C181.424 48.5072 183.51 48.4041 185.589 47.9409C185.733 47.9087 185.876 47.8632 186.016 47.8072C188.314 46.5571 190.61 45.328 192.893 44.2104C193.159 44.0422 192.962 43.4359 192.669 43.5089C190.935 43.9402 189.182 44.0982 187.405 43.9152C187.405 43.9152 187.405 43.9154 187.405 43.9156Z" fill="url(#paint12_radial_219_15167)"/>
<path d="M281.329 8.32383C281.329 8.32366 281.328 8.32363 281.328 8.32376C268.962 20.7708 246.086 10.089 231.581 15.5787C225.885 17.7342 220.386 22.5518 214.91 27.6189C213.778 28.7581 212.643 29.8651 211.502 30.9133C216.434 27.008 221.381 23.5727 226.377 22.0585C241.632 17.4332 264.72 30.1109 278.117 18.1455C280.075 16.3971 281.669 14.2608 282.991 11.8378C283.037 11.7241 283.084 11.6108 283.131 11.4978C284.007 8.64973 284.889 5.83043 285.827 3.1165C286.118 1.96338 286.409 0.812335 286.704 -0.330293C285.401 3.01073 283.676 5.96143 281.329 8.3239C281.329 8.32404 281.329 8.324 281.329 8.32383Z" fill="url(#paint13_radial_219_15167)"/>
<path d="M99.9548 -10.3735C99.955 -10.3737 99.9552 -10.3741 99.955 -10.3744C89.5517 -25.17 98.4796 -52.5387 93.8913 -69.8926C92.0897 -76.7077 88.063 -83.2873 83.8278 -89.8386C82.8756 -91.1926 81.9504 -92.5505 81.0743 -93.9165C84.3384 -88.0151 87.2097 -82.0962 88.4753 -76.1197C92.3412 -57.8673 81.7449 -30.2446 91.7453 -14.216C93.2067 -11.8733 94.9922 -9.96598 97.0174 -8.38455C97.1125 -8.32912 97.2072 -8.27269 97.3016 -8.21695C99.6821 -7.16922 102.038 -6.11317 104.307 -4.99159C105.271 -4.64363 106.233 -4.29475 107.188 -3.94224C104.395 -5.50149 101.929 -7.56522 99.9545 -10.3727C99.9544 -10.373 99.9545 -10.3734 99.9548 -10.3735Z" fill="url(#paint14_radial_219_15167)"/>
<path d="M200.108 40.1134C200.108 40.1136 200.108 40.1137 200.108 40.1136C200.628 39.7799 201.147 39.4297 201.665 39.0648C201.741 39.0108 201.691 38.9027 201.61 38.9474C201.607 38.9495 201.603 38.9518 201.6 38.9545C201.102 39.3462 200.605 39.7328 200.108 40.1129C200.108 40.113 200.107 40.1132 200.108 40.1134Z" fill="url(#paint15_radial_219_15167)"/>
<path d="M117.828 -0.458984C118.505 -0.247377 119.178 -0.0309522 119.843 0.191514C120.638 0.340556 121.438 0.478363 122.242 0.610251C121.264 0.398563 120.303 0.153562 119.364 -0.129258C118.853 -0.238741 118.341 -0.347907 117.83 -0.458391C117.829 -0.458521 117.829 -0.45872 117.828 -0.458984Z" fill="url(#paint16_radial_219_15167)"/>
<path d="M205.185 36.062C205.184 36.0618 205.185 36.0616 205.185 36.0615C205.807 35.6312 206.429 35.2077 207.052 34.7948C207.614 34.3082 208.176 33.811 208.738 33.3084C207.923 33.9698 207.103 34.591 206.278 35.164C205.914 35.4638 205.55 35.7636 205.185 36.0621C205.185 36.0622 205.185 36.0622 205.185 36.062Z" fill="url(#paint17_radial_219_15167)"/>
<path d="M200.864 39.3645C201.357 39.0866 201.833 38.7718 202.284 38.4124C203.251 37.642 204.217 36.855 205.184 36.0623C203.223 37.4186 201.26 38.8455 199.299 40.2666C199.821 39.9599 200.343 39.6589 200.864 39.3645Z" fill="url(#paint18_radial_219_15167)"/>
<path d="M112.897 -1.70688C113.332 -1.52208 113.782 -1.3702 114.243 -1.26172C115.433 -0.982402 116.63 -0.717894 117.829 -0.459075C115.649 -1.14019 113.418 -1.77353 111.182 -2.41406C111.758 -2.18243 112.33 -1.94703 112.897 -1.70688Z" fill="url(#paint19_radial_219_15167)"/>
<path d="M197.176 41.7963C197.183 41.7928 197.19 41.7885 197.197 41.7838C197.897 41.2812 198.598 40.7736 199.299 40.266C198.565 40.6963 197.831 41.1377 197.097 41.5866C196.938 41.6836 197.012 41.8792 197.176 41.7963Z" fill="url(#paint20_radial_219_15167)"/>
<path d="M122.241 0.609929C122.241 0.610021 122.242 0.610087 122.242 0.610106C123.207 0.819234 124.19 0.998059 125.185 1.15212C124.825 1.06763 124.464 0.984055 124.101 0.901775C123.48 0.807547 122.86 0.711006 122.242 0.609465C122.242 0.609427 122.241 0.609694 122.241 0.609929Z" fill="url(#paint21_radial_219_15167)"/>
<path d="M208.738 33.3077C208.738 33.3076 208.738 33.3074 208.738 33.3073C209.665 32.5556 210.585 31.7527 211.501 30.9127C211.157 31.1859 210.812 31.4609 210.468 31.7379C209.891 32.2664 209.316 32.7906 208.739 33.3078C208.738 33.308 208.738 33.3079 208.738 33.3077Z" fill="url(#paint22_radial_219_15167)"/>
<path d="M295.133 -57.7997C295.133 -57.7996 295.133 -57.7996 295.133 -57.7997C301.344 -74.4337 322.278 -87.467 322.695 -105.395C322.804 -110.096 321.488 -114.555 319.39 -118.882C318.43 -120.552 317.467 -122.223 316.528 -123.895C315.391 -125.668 314.23 -127.437 313.085 -129.21C307.186 -137.594 300.236 -145.811 297.385 -154.749C292.149 -171.168 299.47 -198.149 288.747 -211.71C285.791 -215.45 281.906 -217.607 277.549 -218.92C275.961 -219.259 274.377 -219.596 272.812 -219.952C270.98 -220.229 269.139 -220.482 267.312 -220.747C258.236 -221.636 248.674 -221.46 241.691 -225.192C227.788 -232.621 216.894 -257.668 201.909 -258.167C197.98 -258.298 194.253 -256.724 190.637 -254.213C189.241 -253.064 187.844 -251.912 186.447 -250.788C184.965 -249.429 183.486 -248.039 182.004 -246.669C174.996 -239.612 168.129 -231.296 160.658 -227.885C146.935 -221.62 124.384 -230.38 113.049 -217.551C109.923 -214.014 108.12 -209.367 107.023 -204.154C106.739 -202.253 106.457 -200.358 106.16 -198.485C105.928 -196.294 105.717 -194.091 105.495 -191.906C104.753 -181.047 104.9 -169.606 101.781 -161.251C95.5709 -144.617 74.6363 -131.584 74.2196 -113.656C74.1102 -108.954 75.4258 -104.496 77.5239 -100.169C78.4844 -98.4984 79.4477 -96.828 80.3867 -95.1557C81.5231 -93.3831 82.6842 -91.6132 83.8297 -89.8402C89.7283 -81.4562 96.6784 -73.2397 99.5293 -64.3019C104.766 -47.8831 97.4444 -20.9019 108.167 -7.3403C111.123 -3.601 115.008 -1.44354 119.365 -0.130551C120.953 0.208776 122.538 0.545826 124.103 0.901359C125.934 1.17856 127.775 1.43181 129.602 1.69671C138.678 2.58469 148.24 2.40895 155.223 6.14082C169.127 13.5707 180.02 38.6175 195.005 39.1159C198.934 39.2468 202.661 37.6728 206.278 35.1626C207.674 34.0134 209.07 32.8609 210.468 31.7375C211.949 30.3779 213.428 28.9887 214.91 27.6182C221.918 20.5609 228.785 12.2456 236.256 8.83478C249.979 2.56982 272.53 11.3292 283.865 -1.49937C286.991 -5.03677 288.794 -9.68416 289.892 -14.8971C290.175 -16.7973 290.457 -18.6932 290.754 -20.5655C290.986 -22.7569 291.197 -24.9595 291.419 -27.1448C292.161 -38.0032 292.014 -49.4443 295.133 -57.7997C295.133 -57.7998 295.133 -57.7998 295.133 -57.7997ZM285.738 -11.2633C275.427 1.84627 253.308 -5.07293 240.391 1.87916C227 9.08574 216.548 33.2714 202.1 33.7966C187.651 34.3218 175.991 10.9416 162.259 4.72195C149.012 -1.27825 127.285 7.2371 116.328 -5.09902C105.371 -17.4352 111.154 -43.8996 105.343 -59.3541C99.3198 -75.3752 79.1049 -87.8797 78.6659 -105.166C78.2269 -122.453 97.7686 -136.404 102.967 -152.833C107.982 -168.682 100.865 -194.677 111.176 -207.786C121.486 -220.896 143.606 -213.977 156.523 -220.929C169.914 -228.135 180.366 -252.321 194.814 -252.846C209.262 -253.372 220.923 -229.991 234.655 -223.772C247.901 -217.771 269.629 -226.287 280.586 -213.951C291.543 -201.615 285.76 -175.15 291.571 -159.696C297.594 -143.674 317.809 -131.17 318.248 -113.883C318.687 -96.5968 299.145 -82.6454 293.947 -66.2163C288.932 -50.368 296.049 -24.3728 285.738 -11.2633Z" fill="url(#paint23_radial_219_15167)"/>
<path d="M313.412 -121.74C313.412 -121.74 313.412 -121.74 313.412 -121.74C312.181 -138.329 292.162 -148.996 285.622 -163.993C279.313 -178.461 283.634 -204.29 272.523 -215.414C261.412 -226.539 240.924 -216.898 227.908 -221.779C214.416 -226.839 202.112 -248.533 188.247 -247.06C174.382 -245.587 165.466 -221.636 152.931 -213.812C140.838 -206.263 119.25 -211.433 109.952 -198.139C100.653 -184.846 108.712 -160.333 104.632 -144.761C100.403 -128.619 82.2702 -113.898 83.5015 -97.3089C84.7327 -80.7201 104.751 -70.0532 111.292 -55.0555C117.601 -40.5876 113.28 -14.7593 124.391 -3.6348C135.502 7.49037 155.99 -2.15071 169.005 2.72919C182.497 7.78904 194.801 29.484 208.667 28.0108C222.532 26.5377 231.447 2.58695 243.983 -5.23799C256.075 -12.7863 277.663 -7.61657 286.961 -20.91C296.26 -34.2038 288.202 -58.7166 292.281 -74.2884C296.51 -90.4304 314.642 -105.151 313.411 -121.74C313.411 -121.74 313.412 -121.74 313.412 -121.74ZM287.555 -30.3825C279.25 -16.9999 258.286 -20.5192 247.031 -12.464C235.364 -4.11441 227.925 19.4725 214.685 21.8141C201.444 24.1556 188.62 4.15274 175.432 0.198565C162.711 -3.61595 143.494 7.00926 132.309 -2.92631C121.123 -12.8619 124.064 -37.9438 117.332 -51.4094C110.353 -65.3685 90.6388 -74.2684 88.6818 -90.1101C86.7247 -105.952 103.443 -121.295 106.748 -137.073C109.937 -152.293 101.056 -175.284 109.36 -188.667C117.665 -202.049 138.629 -198.531 149.883 -206.585C161.551 -214.935 168.99 -238.522 182.23 -240.863C195.471 -243.205 208.295 -223.202 221.483 -219.248C234.204 -215.433 253.421 -226.059 264.606 -216.123C275.792 -206.188 272.85 -181.105 279.583 -167.64C286.562 -153.681 306.276 -144.781 308.233 -128.939C310.19 -113.098 293.471 -97.7546 290.166 -81.9765C286.978 -66.7563 295.859 -43.7651 287.555 -30.3825Z" fill="url(#paint24_radial_219_15167)"/>
<path d="M302.757 -135.463C300.142 -150.514 280.833 -157.727 273.493 -170.639C266.413 -183.095 268.062 -207.329 256.878 -216.104C245.695 -224.88 227.774 -213.413 215.404 -216.22C202.581 -219.128 189.357 -237.442 176.777 -234.313C164.196 -231.185 158.168 -208.083 147.376 -199.302C136.965 -190.831 116.71 -192.804 109.375 -179.423C102.04 -166.043 111.624 -144.602 109.279 -129.802C106.848 -114.46 91.5402 -98.6391 94.1555 -83.5877C96.7702 -68.536 116.079 -61.3229 123.419 -48.4113C130.499 -35.9558 128.85 -11.7215 140.034 -2.94613C151.217 5.82927 169.138 -5.63724 181.508 -2.83082C194.331 0.0778961 207.555 18.392 220.135 15.263C232.716 12.1347 238.745 -10.9669 249.536 -19.7484C259.947 -28.2195 280.202 -26.2467 287.537 -39.627C294.872 -53.0073 285.288 -74.4483 287.633 -89.2479C290.065 -104.59 305.372 -120.411 302.757 -135.463ZM286.936 -48.5921C280.542 -35.302 261.072 -35.8387 251.506 -27.0401C241.59 -17.9192 236.898 4.58415 225.008 8.41587C213.119 12.2479 199.614 -4.39182 187.211 -6.31966C175.246 -8.17967 158.635 3.98468 147.527 -3.66465C136.419 -11.314 136.868 -34.6091 129.514 -46.0541C121.89 -57.9176 103.081 -63.5317 99.8788 -77.7565C96.6759 -91.9819 110.584 -108.139 112.195 -122.978C113.75 -137.293 103.582 -157.167 109.976 -170.457C116.37 -183.747 135.84 -183.211 145.406 -192.009C155.322 -201.13 160.014 -223.633 171.903 -227.465C183.793 -231.297 197.298 -214.658 209.701 -212.73C221.666 -210.87 238.277 -223.034 249.385 -215.385C260.493 -207.735 260.044 -184.44 267.398 -172.995C275.022 -161.132 293.83 -155.518 297.033 -141.293C300.236 -127.067 286.328 -110.91 284.717 -96.071C283.162 -81.7559 293.329 -61.882 286.936 -48.5921Z" fill="url(#paint25_radial_219_15167)"/>
<path d="M291.111 -146.42C287.391 -159.791 269.17 -163.899 261.339 -174.721C253.785 -185.16 253.131 -207.434 242.168 -214C231.205 -220.566 215.909 -207.844 204.397 -208.824C192.464 -209.84 178.795 -224.831 167.619 -220.38C156.444 -215.93 153.01 -194.13 143.965 -184.761C135.24 -175.723 116.622 -174.94 111.134 -161.823C105.647 -148.707 116.28 -130.406 115.46 -116.633C114.611 -102.356 102.082 -86.0017 105.802 -72.6311C109.521 -59.2606 127.742 -55.1518 135.573 -44.3301C143.128 -33.8916 143.782 -11.6172 154.745 -5.05115C165.708 1.51462 181.004 -11.2069 192.515 -10.2268C204.449 -9.21109 218.118 5.77933 229.294 1.32903C240.469 -3.12128 243.903 -24.9214 252.948 -34.2907C261.673 -43.3287 280.29 -44.1121 285.778 -57.2278C291.266 -70.3442 280.633 -88.6448 281.452 -102.418C282.301 -116.695 294.831 -133.05 291.111 -146.42ZM277.875 -108.263C277.734 -95.084 288.715 -78.3507 284.094 -65.4874C279.473 -52.6241 261.769 -50.6416 253.873 -41.4499C245.688 -31.9208 243.427 -10.9185 232.984 -5.9355C222.541 -0.952459 208.82 -14.3299 197.401 -14.505C186.386 -14.674 172.4 -1.53619 161.648 -7.06453C150.897 -12.5929 149.24 -33.7751 141.557 -43.2218C133.593 -53.0142 116.038 -55.7192 111.874 -68.2138C107.709 -80.7084 118.89 -97.1242 119.036 -110.786C119.177 -123.966 108.196 -140.699 112.817 -153.562C117.438 -166.426 135.142 -168.408 143.038 -177.6C151.223 -187.129 153.484 -208.131 163.927 -213.114C174.37 -218.097 188.091 -204.72 199.51 -204.545C210.526 -204.376 224.512 -217.513 235.263 -211.985C246.014 -206.457 247.671 -185.275 255.354 -175.828C263.319 -166.035 280.873 -163.33 285.038 -150.836C289.203 -138.341 278.022 -121.925 277.875 -108.263Z" fill="url(#paint26_radial_219_15167)"/>
<path d="M249.486 -176.334C241.745 -184.806 239.188 -204.835 228.711 -209.379C218.233 -213.923 205.544 -200.505 195.062 -199.937C184.197 -199.347 170.532 -211.157 160.834 -205.727C151.137 -200.298 149.958 -180.18 142.618 -170.578C135.537 -161.316 118.796 -158.258 114.998 -145.722C111.2 -133.186 122.415 -118.004 122.89 -105.464C123.383 -92.4639 113.513 -76.1157 118.051 -64.5127C122.588 -52.9098 139.404 -51.4999 147.429 -42.7181C155.171 -34.2463 157.727 -14.2166 168.204 -9.67276C178.682 -5.12892 191.372 -18.5468 201.853 -19.1153C212.718 -19.7049 226.383 -7.89546 236.081 -13.3247C245.779 -18.7539 246.957 -38.8724 254.297 -48.4739C261.378 -57.7362 278.119 -60.7944 281.917 -73.3304C285.715 -85.8663 274.5 -101.048 274.025 -113.588C273.532 -126.588 283.402 -142.936 278.865 -154.539C274.327 -166.142 257.511 -167.552 249.486 -176.334ZM269.937 -118.373C270.967 -106.512 282.305 -92.8541 279.281 -80.7143C276.258 -68.5745 260.522 -64.5677 254.234 -55.315C247.716 -45.7238 247.527 -26.5658 238.581 -20.7757C229.634 -14.9855 216.13 -25.2823 205.853 -24.005C195.939 -22.7729 184.524 -9.20845 174.377 -12.8258C164.23 -16.4431 160.881 -35.2698 153.148 -42.7931C145.131 -50.5918 129.119 -50.8171 124.279 -61.5212C119.439 -72.2254 128.046 -88.3823 126.978 -100.678C125.948 -112.539 114.611 -126.196 117.634 -138.336C120.658 -150.476 136.394 -154.483 142.682 -163.736C149.2 -173.327 149.388 -192.485 158.335 -198.275C167.282 -204.065 180.786 -193.768 191.063 -195.046C200.977 -196.278 212.392 -209.842 222.539 -206.225C232.685 -202.607 236.034 -183.781 243.768 -176.257C251.784 -168.459 267.797 -168.234 272.637 -157.529C277.476 -146.825 268.87 -130.668 269.937 -118.373Z" fill="url(#paint27_radial_219_15167)"/>
<path d="M238.236 -175.624C230.576 -182.23 226.542 -199.815 216.779 -202.567C207.016 -205.319 196.845 -191.738 187.525 -189.919C177.864 -188.034 164.618 -196.883 156.423 -190.817C148.228 -184.751 148.932 -166.62 143.209 -157.119C137.688 -147.954 122.99 -143.127 120.69 -131.447C118.39 -119.766 129.741 -107.597 131.261 -96.4464C132.836 -84.888 125.441 -69.0401 130.511 -59.2353C135.581 -49.4301 150.735 -50.2727 158.676 -43.4253C166.337 -36.82 170.371 -19.2352 180.134 -16.4829C189.896 -13.7308 200.068 -27.3114 209.388 -29.1302C219.048 -31.0153 232.294 -22.1669 240.489 -28.233C248.685 -34.2984 247.981 -52.4293 253.704 -61.9309C259.225 -71.0961 273.922 -75.9223 276.223 -87.6029C278.523 -99.2835 267.172 -111.453 265.652 -122.603C264.076 -134.162 271.472 -150.01 266.402 -159.814C261.332 -169.619 246.178 -168.777 238.236 -175.624ZM261.21 -126.27C263.155 -115.857 274.416 -105.13 272.783 -93.9652C271.151 -82.8007 257.514 -77.2849 252.73 -68.2811C247.77 -58.9472 249.266 -41.8992 241.817 -35.6415C234.369 -29.3841 221.474 -36.8561 212.452 -34.4441C203.749 -32.1172 194.782 -18.6442 185.451 -20.5974C176.119 -22.5506 171.509 -38.8661 163.983 -44.5902C156.182 -50.5244 141.933 -48.7345 136.703 -57.6466C131.472 -66.558 137.718 -81.9861 135.702 -92.7799C133.757 -103.193 122.496 -113.92 124.128 -125.085C125.761 -136.249 139.398 -141.765 144.182 -150.769C149.142 -160.103 147.646 -177.151 155.095 -183.409C162.543 -189.666 175.438 -182.194 184.46 -184.606C193.163 -186.933 202.13 -200.406 211.461 -198.453C220.793 -196.499 225.403 -180.184 232.928 -174.46C240.73 -168.526 254.979 -170.316 260.209 -161.403C265.439 -152.492 259.194 -137.064 261.21 -126.27Z" fill="url(#paint28_radial_219_15167)"/>
<path d="M227.877 -172.794C220.544 -177.679 215.466 -192.707 206.609 -193.931C197.752 -195.156 189.943 -181.91 181.872 -179.154C173.505 -176.296 161.048 -182.473 154.336 -176.106C147.623 -169.739 149.809 -153.819 145.575 -144.724C141.492 -135.952 128.932 -129.876 127.908 -119.279C126.884 -108.682 137.956 -99.3398 140.259 -89.6834C142.648 -79.6731 137.485 -64.769 142.807 -56.7381C148.128 -48.7072 161.435 -51.3219 169.036 -46.2568C176.369 -41.3712 181.447 -26.344 190.304 -25.1192C199.161 -23.8944 206.97 -37.1407 215.041 -39.8967C223.408 -42.7544 235.865 -36.5775 242.577 -42.9442C249.29 -49.3113 247.104 -65.2314 251.338 -74.3262C255.421 -83.0989 267.981 -89.1751 269.005 -99.7717C270.029 -110.368 258.957 -119.711 256.654 -129.367C254.265 -139.377 259.428 -154.282 254.106 -162.313C248.785 -170.343 235.478 -167.729 227.877 -172.794ZM252.02 -131.892C254.616 -123.004 265.403 -114.982 264.928 -104.999C264.453 -95.0147 252.975 -88.5095 249.553 -80.032C246.005 -71.2444 248.776 -56.4869 242.784 -50.0901C236.791 -43.6933 224.851 -48.6614 217.151 -45.4422C209.723 -42.3365 203.018 -29.4301 194.673 -29.9984C186.328 -30.5664 180.891 -44.2999 173.805 -48.3939C166.461 -52.6385 154.126 -49.3237 148.779 -56.4929C143.433 -63.662 147.585 -77.948 144.895 -87.1606C142.299 -96.0477 131.511 -104.07 131.986 -114.053C132.461 -124.038 143.94 -130.543 147.362 -139.02C150.909 -147.808 148.139 -162.565 154.131 -168.962C160.123 -175.359 172.064 -170.391 179.764 -173.61C187.192 -176.716 193.897 -189.622 202.241 -189.054C210.586 -188.486 216.023 -174.752 223.109 -170.658C230.454 -166.414 242.789 -169.729 248.135 -162.559C253.482 -155.39 249.329 -141.104 252.02 -131.892Z" fill="url(#paint29_radial_219_15167)"/>
<defs>
<radialGradient id="paint0_radial_219_15167" cx="0" cy="0" r="1" gradientUnits="userSpaceOnUse" gradientTransform="translate(254.577 23.2409) rotate(-44.294) scale(159.194 50.381)">
<stop stop-color="#FFB6D5"/>
<stop offset="0.1" stop-color="#FFE3C0"/>
<stop offset="0.29" stop-color="#C7FBDB"/>
<stop offset="0.43" stop-color="#C7CDF4"/>
<stop offset="0.54" stop-color="#FFBCD4"/>
<stop offset="0.66" stop-color="#FFE0C3"/>
<stop offset="0.76" stop-color="#B0F1D4"/>
<stop offset="0.84" stop-color="#C9CEEC"/>
<stop offset="0.91" stop-color="#FFC1DA"/>
<stop offset="1" stop-color="#BDFFE3"/>
</radialGradient>
<radialGradient id="paint1_radial_219_15167" cx="0" cy="0" r="1" gradientUnits="userSpaceOnUse" gradientTransform="translate(135.963 -0.764349) rotate(-78.0475) scale(124.384 60.6388)">
<stop stop-color="#FFB6D5"/>
<stop offset="0.1" stop-color="#FFE3C0"/>
<stop offset="0.29" stop-color="#C7FBDB"/>
<stop offset="0.43" stop-color="#C7CDF4"/>
<stop offset="0.54" stop-color="#FFBCD4"/>
<stop offset="0.66" stop-color="#FFE0C3"/>
<stop offset="0.76" stop-color="#B0F1D4"/>
<stop offset="0.84" stop-color="#C9CEEC"/>
<stop offset="0.91" stop-color="#FFC1DA"/>
<stop offset="1" stop-color="#BDFFE3"/>
</radialGradient>
<radialGradient id="paint2_radial_219_15167" cx="0" cy="0" r="1" gradientUnits="userSpaceOnUse" gradientTransform="translate(170.955 54.1168) rotate(-33.2024) scale(19.2408 2.26834)">
<stop stop-color="#FFB6D5"/>
<stop offset="0.1" stop-color="#FFE3C0"/>
<stop offset="0.29" stop-color="#C7FBDB"/>
<stop offset="0.43" stop-color="#C7CDF4"/>
<stop offset="0.54" stop-color="#FFBCD4"/>
<stop offset="0.66" stop-color="#FFE0C3"/>
<stop offset="0.76" stop-color="#B0F1D4"/>
<stop offset="0.84" stop-color="#C9CEEC"/>
<stop offset="0.91" stop-color="#FFC1DA"/>
<stop offset="1" stop-color="#BDFFE3"/>
</radialGradient>
<radialGradient id="paint3_radial_219_15167" cx="0" cy="0" r="1" gradientUnits="userSpaceOnUse" gradientTransform="translate(180.649 50.782) rotate(-30.2013) scale(18.9419 1.09501)">
<stop stop-color="#FFB6D5"/>
<stop offset="0.1" stop-color="#FFE3C0"/>
<stop offset="0.29" stop-color="#C7FBDB"/>
<stop offset="0.43" stop-color="#C7CDF4"/>
<stop offset="0.54" stop-color="#FFBCD4"/>
<stop offset="0.66" stop-color="#FFE0C3"/>
<stop offset="0.76" stop-color="#B0F1D4"/>
<stop offset="0.84" stop-color="#C9CEEC"/>
<stop offset="0.91" stop-color="#FFC1DA"/>
<stop offset="1" stop-color="#BDFFE3"/>
</radialGradient>
<radialGradient id="paint4_radial_219_15167" cx="0" cy="0" r="1" gradientUnits="userSpaceOnUse" gradientTransform="translate(150.888 0.015728) rotate(-72.8939) scale(121.268 62.1945)">
<stop stop-color="#FFB6D5"/>
<stop offset="0.1" stop-color="#FFE3C0"/>
<stop offset="0.29" stop-color="#C7FBDB"/>
<stop offset="0.43" stop-color="#C7CDF4"/>
<stop offset="0.54" stop-color="#FFBCD4"/>
<stop offset="0.66" stop-color="#FFE0C3"/>
<stop offset="0.76" stop-color="#B0F1D4"/>
<stop offset="0.84" stop-color="#C9CEEC"/>
<stop offset="0.91" stop-color="#FFC1DA"/>
<stop offset="1" stop-color="#BDFFE3"/>
</radialGradient>
<radialGradient id="paint5_radial_219_15167" cx="0" cy="0" r="1" gradientUnits="userSpaceOnUse" gradientTransform="translate(262.959 13.7428) rotate(-41.359) scale(150.605 40.4409)">
<stop stop-color="#FFB6D5"/>
<stop offset="0.1" stop-color="#FFE3C0"/>
<stop offset="0.29" stop-color="#C7FBDB"/>
<stop offset="0.43" stop-color="#C7CDF4"/>
<stop offset="0.54" stop-color="#FFBCD4"/>
<stop offset="0.66" stop-color="#FFE0C3"/>
<stop offset="0.76" stop-color="#B0F1D4"/>
<stop offset="0.84" stop-color="#C9CEEC"/>
<stop offset="0.91" stop-color="#FFC1DA"/>
<stop offset="1" stop-color="#BDFFE3"/>
</radialGradient>
<radialGradient id="paint6_radial_219_15167" cx="0" cy="0" r="1" gradientUnits="userSpaceOnUse" gradientTransform="translate(189.637 46.5754) rotate(-29.445) scale(18.1129 0.768138)">
<stop stop-color="#FFB6D5"/>
<stop offset="0.1" stop-color="#FFE3C0"/>
<stop offset="0.29" stop-color="#C7FBDB"/>
<stop offset="0.43" stop-color="#C7CDF4"/>
<stop offset="0.54" stop-color="#FFBCD4"/>
<stop offset="0.66" stop-color="#FFE0C3"/>
<stop offset="0.76" stop-color="#B0F1D4"/>
<stop offset="0.84" stop-color="#C9CEEC"/>
<stop offset="0.91" stop-color="#FFC1DA"/>
<stop offset="1" stop-color="#BDFFE3"/>
</radialGradient>
<radialGradient id="paint7_radial_219_15167" cx="0" cy="0" r="1" gradientUnits="userSpaceOnUse" gradientTransform="translate(184.302 48.1629) rotate(-30.0906) scale(19.4421 1.08022)">
<stop stop-color="#FFB6D5"/>
<stop offset="0.1" stop-color="#FFE3C0"/>
<stop offset="0.29" stop-color="#C7FBDB"/>
<stop offset="0.43" stop-color="#C7CDF4"/>
<stop offset="0.54" stop-color="#FFBCD4"/>
<stop offset="0.66" stop-color="#FFE0C3"/>
<stop offset="0.76" stop-color="#B0F1D4"/>
<stop offset="0.84" stop-color="#C9CEEC"/>
<stop offset="0.91" stop-color="#FFC1DA"/>
<stop offset="1" stop-color="#BDFFE3"/>
</radialGradient>
<radialGradient id="paint8_radial_219_15167" cx="0" cy="0" r="1" gradientUnits="userSpaceOnUse" gradientTransform="translate(199.431 40.6123) rotate(-31.1176) scale(9.80552 0.748586)">
<stop stop-color="#FFB6D5"/>
<stop offset="0.1" stop-color="#FFE3C0"/>
<stop offset="0.29" stop-color="#C7FBDB"/>
<stop offset="0.43" stop-color="#C7CDF4"/>
<stop offset="0.54" stop-color="#FFBCD4"/>
<stop offset="0.66" stop-color="#FFE0C3"/>
<stop offset="0.76" stop-color="#B0F1D4"/>
<stop offset="0.84" stop-color="#C9CEEC"/>
<stop offset="0.91" stop-color="#FFC1DA"/>
<stop offset="1" stop-color="#BDFFE3"/>
</radialGradient>
<radialGradient id="paint9_radial_219_15167" cx="0" cy="0" r="1" gradientUnits="userSpaceOnUse" gradientTransform="translate(110.377 -4.43152) rotate(-56.3253) scale(9.50242 4.41991)">
<stop stop-color="#FFB6D5"/>
<stop offset="0.1" stop-color="#FFE3C0"/>
<stop offset="0.29" stop-color="#C7FBDB"/>
<stop offset="0.43" stop-color="#C7CDF4"/>
<stop offset="0.54" stop-color="#FFBCD4"/>
<stop offset="0.66" stop-color="#FFE0C3"/>
<stop offset="0.76" stop-color="#B0F1D4"/>
<stop offset="0.84" stop-color="#C9CEEC"/>
<stop offset="0.91" stop-color="#FFC1DA"/>
<stop offset="1" stop-color="#BDFFE3"/>
</radialGradient>
<radialGradient id="paint10_radial_219_15167" cx="0" cy="0" r="1" gradientUnits="userSpaceOnUse" gradientTransform="translate(194.515 43.5593) rotate(-30.7379) scale(13.8803 0.953324)">
<stop stop-color="#FFB6D5"/>
<stop offset="0.1" stop-color="#FFE3C0"/>
<stop offset="0.29" stop-color="#C7FBDB"/>
<stop offset="0.43" stop-color="#C7CDF4"/>
<stop offset="0.54" stop-color="#FFBCD4"/>
<stop offset="0.66" stop-color="#FFE0C3"/>
<stop offset="0.76" stop-color="#B0F1D4"/>
<stop offset="0.84" stop-color="#C9CEEC"/>
<stop offset="0.91" stop-color="#FFC1DA"/>
<stop offset="1" stop-color="#BDFFE3"/>
</radialGradient>
<radialGradient id="paint11_radial_219_15167" cx="0" cy="0" r="1" gradientUnits="userSpaceOnUse" gradientTransform="translate(188.38 46.6987) rotate(-32.1518) scale(5.99074 0.581521)">
<stop stop-color="#FFB6D5"/>
<stop offset="0.1" stop-color="#FFE3C0"/>
<stop offset="0.29" stop-color="#C7FBDB"/>
<stop offset="0.43" stop-color="#C7CDF4"/>
<stop offset="0.54" stop-color="#FFBCD4"/>
<stop offset="0.66" stop-color="#FFE0C3"/>
<stop offset="0.76" stop-color="#B0F1D4"/>
<stop offset="0.84" stop-color="#C9CEEC"/>
<stop offset="0.91" stop-color="#FFC1DA"/>
<stop offset="1" stop-color="#BDFFE3"/>
</radialGradient>
<radialGradient id="paint12_radial_219_15167" cx="0" cy="0" r="1" gradientUnits="userSpaceOnUse" gradientTransform="translate(170.276 -3.85939) rotate(-64.1996) scale(132.364 67.8098)">
<stop stop-color="#FFB6D5"/>
<stop offset="0.1" stop-color="#FFE3C0"/>
<stop offset="0.29" stop-color="#C7FBDB"/>
<stop offset="0.43" stop-color="#C7CDF4"/>
<stop offset="0.54" stop-color="#FFBCD4"/>
<stop offset="0.66" stop-color="#FFE0C3"/>
<stop offset="0.76" stop-color="#B0F1D4"/>
<stop offset="0.84" stop-color="#C9CEEC"/>
<stop offset="0.91" stop-color="#FFC1DA"/>
<stop offset="1" stop-color="#BDFFE3"/>
</radialGradient>
<radialGradient id="paint13_radial_219_15167" cx="0" cy="0" r="1" gradientUnits="userSpaceOnUse" gradientTransform="translate(273.635 0.0768931) rotate(-37.7311) scale(155.48 31.763)">
<stop stop-color="#FFB6D5"/>
<stop offset="0.1" stop-color="#FFE3C0"/>
<stop offset="0.29" stop-color="#C7FBDB"/>
<stop offset="0.43" stop-color="#C7CDF4"/>
<stop offset="0.54" stop-color="#FFBCD4"/>
<stop offset="0.66" stop-color="#FFE0C3"/>
<stop offset="0.76" stop-color="#B0F1D4"/>
<stop offset="0.84" stop-color="#C9CEEC"/>
<stop offset="0.91" stop-color="#FFC1DA"/>
<stop offset="1" stop-color="#BDFFE3"/>
</radialGradient>
<radialGradient id="paint14_radial_219_15167" cx="0" cy="0" r="1" gradientUnits="userSpaceOnUse" gradientTransform="translate(89.1162 -73.7911) rotate(-90.3863) scale(117.877 41.8964)">
<stop stop-color="#FFB6D5"/>
<stop offset="0.1" stop-color="#FFE3C0"/>
<stop offset="0.29" stop-color="#C7FBDB"/>
<stop offset="0.43" stop-color="#C7CDF4"/>
<stop offset="0.54" stop-color="#FFBCD4"/>
<stop offset="0.66" stop-color="#FFE0C3"/>
<stop offset="0.76" stop-color="#B0F1D4"/>
<stop offset="0.84" stop-color="#C9CEEC"/>
<stop offset="0.91" stop-color="#FFC1DA"/>
<stop offset="1" stop-color="#BDFFE3"/>
</radialGradient>
<radialGradient id="paint15_radial_219_15167" cx="0" cy="0" r="1" gradientUnits="userSpaceOnUse" gradientTransform="translate(202.143 38.7449) rotate(-31.9611) scale(5.22616 0.487417)">
<stop stop-color="#FFB6D5"/>
<stop offset="0.1" stop-color="#FFE3C0"/>
<stop offset="0.29" stop-color="#C7FBDB"/>
<stop offset="0.43" stop-color="#C7CDF4"/>
<stop offset="0.54" stop-color="#FFBCD4"/>
<stop offset="0.66" stop-color="#FFE0C3"/>
<stop offset="0.76" stop-color="#B0F1D4"/>
<stop offset="0.84" stop-color="#C9CEEC"/>
<stop offset="0.91" stop-color="#FFC1DA"/>
<stop offset="1" stop-color="#BDFFE3"/>
</radialGradient>
<radialGradient id="paint16_radial_219_15167" cx="0" cy="0" r="1" gradientUnits="userSpaceOnUse" gradientTransform="translate(120.941 -1.28401) rotate(-52.1012) scale(8.14293 3.44185)">
<stop stop-color="#FFB6D5"/>
<stop offset="0.1" stop-color="#FFE3C0"/>
<stop offset="0.29" stop-color="#C7FBDB"/>
<stop offset="0.43" stop-color="#C7CDF4"/>
<stop offset="0.54" stop-color="#FFBCD4"/>
<stop offset="0.66" stop-color="#FFE0C3"/>
<stop offset="0.76" stop-color="#B0F1D4"/>
<stop offset="0.84" stop-color="#C9CEEC"/>
<stop offset="0.91" stop-color="#FFC1DA"/>
<stop offset="1" stop-color="#BDFFE3"/>
</radialGradient>
<radialGradient id="paint17_radial_219_15167" cx="0" cy="0" r="1" gradientUnits="userSpaceOnUse" gradientTransform="translate(208.218 33.7921) rotate(-34.0149) scale(8.02674 1.07411)">
<stop stop-color="#FFB6D5"/>
<stop offset="0.1" stop-color="#FFE3C0"/>
<stop offset="0.29" stop-color="#C7FBDB"/>
<stop offset="0.43" stop-color="#C7CDF4"/>
<stop offset="0.54" stop-color="#FFBCD4"/>
<stop offset="0.66" stop-color="#FFE0C3"/>
<stop offset="0.76" stop-color="#B0F1D4"/>
<stop offset="0.84" stop-color="#C9CEEC"/>
<stop offset="0.91" stop-color="#FFC1DA"/>
<stop offset="1" stop-color="#BDFFE3"/>
</radialGradient>
<radialGradient id="paint18_radial_219_15167" cx="0" cy="0" r="1" gradientUnits="userSpaceOnUse" gradientTransform="translate(204.313 36.7844) rotate(-32.5649) scale(12.9879 1.36745)">
<stop stop-color="#FFB6D5"/>
<stop offset="0.1" stop-color="#FFE3C0"/>
<stop offset="0.29" stop-color="#C7FBDB"/>
<stop offset="0.43" stop-color="#C7CDF4"/>
<stop offset="0.54" stop-color="#FFBCD4"/>
<stop offset="0.66" stop-color="#FFE0C3"/>
<stop offset="0.76" stop-color="#B0F1D4"/>
<stop offset="0.84" stop-color="#C9CEEC"/>
<stop offset="0.91" stop-color="#FFC1DA"/>
<stop offset="1" stop-color="#BDFFE3"/>
</radialGradient>
<radialGradient id="paint19_radial_219_15167" cx="0" cy="0" r="1" gradientUnits="userSpaceOnUse" gradientTransform="translate(115.806 -3.5422) rotate(-53.9177) scale(12.2611 5.42345)">
<stop stop-color="#FFB6D5"/>
<stop offset="0.1" stop-color="#FFE3C0"/>
<stop offset="0.29" stop-color="#C7FBDB"/>
<stop offset="0.43" stop-color="#C7CDF4"/>
<stop offset="0.54" stop-color="#FFBCD4"/>
<stop offset="0.66" stop-color="#FFE0C3"/>
<stop offset="0.76" stop-color="#B0F1D4"/>
<stop offset="0.84" stop-color="#C9CEEC"/>
<stop offset="0.91" stop-color="#FFC1DA"/>
<stop offset="1" stop-color="#BDFFE3"/>
</radialGradient>
<radialGradient id="paint20_radial_219_15167" cx="0" cy="0" r="1" gradientUnits="userSpaceOnUse" gradientTransform="translate(198.738 40.6576) rotate(-30.5155) scale(8.00325 0.513666)">
<stop stop-color="#FFB6D5"/>
<stop offset="0.1" stop-color="#FFE3C0"/>
<stop offset="0.29" stop-color="#C7FBDB"/>
<stop offset="0.43" stop-color="#C7CDF4"/>
<stop offset="0.54" stop-color="#FFBCD4"/>
<stop offset="0.66" stop-color="#FFE0C3"/>
<stop offset="0.76" stop-color="#B0F1D4"/>
<stop offset="0.84" stop-color="#C9CEEC"/>
<stop offset="0.91" stop-color="#FFC1DA"/>
<stop offset="1" stop-color="#BDFFE3"/>
</radialGradient>
<radialGradient id="paint21_radial_219_15167" cx="0" cy="0" r="1" gradientUnits="userSpaceOnUse" gradientTransform="translate(124.349 0.00281114) rotate(-50.0786) scale(5.43699 2.16631)">
<stop stop-color="#FFB6D5"/>
<stop offset="0.1" stop-color="#FFE3C0"/>
<stop offset="0.29" stop-color="#C7FBDB"/>
<stop offset="0.43" stop-color="#C7CDF4"/>
<stop offset="0.54" stop-color="#FFBCD4"/>
<stop offset="0.66" stop-color="#FFE0C3"/>
<stop offset="0.76" stop-color="#B0F1D4"/>
<stop offset="0.84" stop-color="#C9CEEC"/>
<stop offset="0.91" stop-color="#FFC1DA"/>
<stop offset="1" stop-color="#BDFFE3"/>
</radialGradient>
<radialGradient id="paint22_radial_219_15167" cx="0" cy="0" r="1" gradientUnits="userSpaceOnUse" gradientTransform="translate(211.103 31.3452) rotate(-36.0851) scale(6.467 1.12262)">
<stop stop-color="#FFB6D5"/>
<stop offset="0.1" stop-color="#FFE3C0"/>
<stop offset="0.29" stop-color="#C7FBDB"/>
<stop offset="0.43" stop-color="#C7CDF4"/>
<stop offset="0.54" stop-color="#FFBCD4"/>
<stop offset="0.66" stop-color="#FFE0C3"/>
<stop offset="0.76" stop-color="#B0F1D4"/>
<stop offset="0.84" stop-color="#C9CEEC"/>
<stop offset="0.91" stop-color="#FFC1DA"/>
<stop offset="1" stop-color="#BDFFE3"/>
</radialGradient>
<radialGradient id="paint23_radial_219_15167" cx="0" cy="0" r="1" gradientUnits="userSpaceOnUse" gradientTransform="translate(248.738 -217.126) rotate(-60.1648) scale(576.158 284.345)">
<stop stop-color="#FFB6D5"/>
<stop offset="0.1" stop-color="#FFE3C0"/>
<stop offset="0.29" stop-color="#C7FBDB"/>
<stop offset="0.43" stop-color="#C7CDF4"/>
<stop offset="0.54" stop-color="#FFBCD4"/>
<stop offset="0.66" stop-color="#FFE0C3"/>
<stop offset="0.76" stop-color="#B0F1D4"/>
<stop offset="0.84" stop-color="#C9CEEC"/>
<stop offset="0.91" stop-color="#FFC1DA"/>
<stop offset="1" stop-color="#BDFFE3"/>
</radialGradient>
<radialGradient id="paint24_radial_219_15167" cx="0" cy="0" r="1" gradientUnits="userSpaceOnUse" gradientTransform="translate(245.522 -210.244) rotate(-60.1647) scale(539.312 266.161)">
<stop stop-color="#FFB6D5"/>
<stop offset="0.1" stop-color="#FFE3C0"/>
<stop offset="0.29" stop-color="#C7FBDB"/>
<stop offset="0.43" stop-color="#C7CDF4"/>
<stop offset="0.54" stop-color="#FFBCD4"/>
<stop offset="0.66" stop-color="#FFE0C3"/>
<stop offset="0.76" stop-color="#B0F1D4"/>
<stop offset="0.84" stop-color="#C9CEEC"/>
<stop offset="0.91" stop-color="#FFC1DA"/>
<stop offset="1" stop-color="#BDFFE3"/>
</radialGradient>
<radialGradient id="paint25_radial_219_15167" cx="0" cy="0" r="1" gradientUnits="userSpaceOnUse" gradientTransform="translate(243.077 -205.013) rotate(-60.1648) scale(511.298 252.336)">
<stop stop-color="#FFB6D5"/>
<stop offset="0.1" stop-color="#FFE3C0"/>
<stop offset="0.29" stop-color="#C7FBDB"/>
<stop offset="0.43" stop-color="#C7CDF4"/>
<stop offset="0.54" stop-color="#FFBCD4"/>
<stop offset="0.66" stop-color="#FFE0C3"/>
<stop offset="0.76" stop-color="#B0F1D4"/>
<stop offset="0.84" stop-color="#C9CEEC"/>
<stop offset="0.91" stop-color="#FFC1DA"/>
<stop offset="1" stop-color="#BDFFE3"/>
</radialGradient>
<radialGradient id="paint26_radial_219_15167" cx="0" cy="0" r="1" gradientUnits="userSpaceOnUse" gradientTransform="translate(239.966 -198.355) rotate(-60.1648) scale(475.645 234.741)">
<stop stop-color="#FFB6D5"/>
<stop offset="0.1" stop-color="#FFE3C0"/>
<stop offset="0.29" stop-color="#C7FBDB"/>
<stop offset="0.43" stop-color="#C7CDF4"/>
<stop offset="0.54" stop-color="#FFBCD4"/>
<stop offset="0.66" stop-color="#FFE0C3"/>
<stop offset="0.76" stop-color="#B0F1D4"/>
<stop offset="0.84" stop-color="#C9CEEC"/>
<stop offset="0.91" stop-color="#FFC1DA"/>
<stop offset="1" stop-color="#BDFFE3"/>
</radialGradient>
<radialGradient id="paint27_radial_219_15167" cx="0" cy="0" r="1" gradientUnits="userSpaceOnUse" gradientTransform="translate(236.304 -190.518) rotate(-60.1648) scale(433.677 214.028)">
<stop stop-color="#FFB6D5"/>
<stop offset="0.1" stop-color="#FFE3C0"/>
<stop offset="0.29" stop-color="#C7FBDB"/>
<stop offset="0.43" stop-color="#C7CDF4"/>
<stop offset="0.54" stop-color="#FFBCD4"/>
<stop offset="0.66" stop-color="#FFE0C3"/>
<stop offset="0.76" stop-color="#B0F1D4"/>
<stop offset="0.84" stop-color="#C9CEEC"/>
<stop offset="0.91" stop-color="#FFC1DA"/>
<stop offset="1" stop-color="#BDFFE3"/>
</radialGradient>
<radialGradient id="paint28_radial_219_15167" cx="0" cy="0" r="1" gradientUnits="userSpaceOnUse" gradientTransform="translate(232.219 -181.776) rotate(-60.1648) scale(386.876 190.931)">
<stop stop-color="#FFB6D5"/>
<stop offset="0.1" stop-color="#FFE3C0"/>
<stop offset="0.29" stop-color="#C7FBDB"/>
<stop offset="0.43" stop-color="#C7CDF4"/>
<stop offset="0.54" stop-color="#FFBCD4"/>
<stop offset="0.66" stop-color="#FFE0C3"/>
<stop offset="0.76" stop-color="#B0F1D4"/>
<stop offset="0.84" stop-color="#C9CEEC"/>
<stop offset="0.91" stop-color="#FFC1DA"/>
<stop offset="1" stop-color="#BDFFE3"/>
</radialGradient>
<radialGradient id="paint29_radial_219_15167" cx="0" cy="0" r="1" gradientUnits="userSpaceOnUse" gradientTransform="translate(227.853 -172.433) rotate(-60.1648) scale(336.844 166.239)">
<stop stop-color="#FFB6D5"/>
<stop offset="0.1" stop-color="#FFE3C0"/>
<stop offset="0.29" stop-color="#C7FBDB"/>
<stop offset="0.43" stop-color="#C7CDF4"/>
<stop offset="0.54" stop-color="#FFBCD4"/>
<stop offset="0.66" stop-color="#FFE0C3"/>
<stop offset="0.76" stop-color="#B0F1D4"/>
<stop offset="0.84" stop-color="#C9CEEC"/>
<stop offset="0.91" stop-color="#FFC1DA"/>
<stop offset="1" stop-color="#BDFFE3"/>
</radialGradient>
</defs>
</svg>
