<svg width="573" height="141" viewBox="0 0 573 141" fill="none" xmlns="http://www.w3.org/2000/svg">
<path d="M248.35 -45.1381C248.349 -45.1378 248.349 -45.1378 248.348 -45.1382C242.527 -49.2606 235.747 -52.5394 228.433 -55.3445C227.839 -55.5724 227.223 -55.7372 226.596 -55.8481C222.124 -56.6399 217.799 -57.6142 213.702 -58.8721C213.594 -58.8942 213.542 -58.7401 213.642 -58.6923C219.911 -55.6989 225.694 -52.3259 230.692 -48.3391C260.84 -24.2847 274.348 35.7147 313.725 47.3618C328.284 51.6683 343.445 48.4954 358.713 42.5945C350.53 44.5186 342.356 44.9493 334.233 43.0435C295.439 33.9374 278.921 -23.4879 248.352 -45.138C248.351 -45.1383 248.35 -45.1384 248.35 -45.1381Z" fill="#222222"/>
<path d="M449.849 2.15949C449.85 2.1594 449.849 2.15915 449.849 2.15918C443.147 3.21515 436.345 5.53759 429.468 8.57695C429.249 8.67404 429.039 8.79314 428.842 8.93074C425.156 11.5082 421.424 13.8668 417.632 15.8795C417.483 15.977 417.599 16.2145 417.768 16.1577C423.683 14.1625 429.512 12.7261 435.217 12.1602C474.954 8.22224 527.519 41.1824 561.978 22.8571C568.239 19.5274 573.368 14.7883 577.719 9.07936C578.968 7.44034 574.958 4.41731 573.198 5.48898C540.884 25.1727 488.099 -3.8661 449.849 2.15981C449.849 2.15984 449.849 2.15958 449.849 2.15949Z" fill="#222222"/>
<path d="M358.712 42.5975C358.712 42.5975 358.712 42.5976 358.713 42.5975C365.564 40.9865 372.421 38.3288 379.265 35.1164C376.846 35.9008 374.419 36.5517 371.986 37.0435C371.628 37.1159 371.279 37.2273 370.947 37.3796C366.868 39.2524 362.786 41.0217 358.712 42.5967C358.712 42.5969 358.712 42.5974 358.712 42.5975Z" fill="#222222"/>
<path d="M379.265 35.1151C379.265 35.1155 379.265 35.116 379.266 35.1158C385.863 32.9767 392.407 29.8438 398.904 26.2118C396.815 27.0919 394.714 27.8691 392.6 28.5266C391.923 28.7371 391.265 29.0052 390.642 29.3412C386.856 31.3804 383.063 33.333 379.265 35.1147C379.265 35.1148 379.265 35.1149 379.265 35.1151Z" fill="#222222"/>
<path d="M282.823 -42.5316C282.823 -42.5313 282.823 -42.5311 282.822 -42.5312C274.108 -47.3132 263.641 -50.1382 252.567 -52.2777C248.539 -52.5756 244.583 -52.9735 240.75 -53.544C249.937 -50.9482 258.514 -47.7434 265.756 -43.2146C296.569 -23.9393 315.837 30.7773 353.886 37.4442C359.696 38.4619 365.46 38.275 371.184 37.1991C371.358 37.1663 371.528 37.1115 371.689 37.037C372.425 36.6971 373.16 36.354 373.896 36.0083C375.857 35.086 374.762 30.8947 372.609 30.6428C335.456 26.3002 313.704 -25.5846 282.823 -42.5319C282.823 -42.5321 282.823 -42.5318 282.823 -42.5316Z" fill="#222222"/>
<path d="M475.802 -19.9731C475.802 -19.9727 475.802 -19.9724 475.801 -19.9722C466.831 -17.4737 457.96 -12.4176 449.073 -6.42232C446.012 -3.78331 442.917 -1.26053 439.768 1.05174C447.687 -3.3459 455.556 -6.88017 463.389 -8.58176C500.046 -16.5432 552.772 8.65905 582.905 -12.2038C587.176 -15.1611 590.707 -18.8493 593.682 -23.0861C593.799 -23.2517 593.892 -23.4324 593.961 -23.6227C594.424 -24.9046 594.882 -26.1941 595.335 -27.4891C595.994 -29.3747 592.667 -31.3372 591.096 -30.1065C563.169 -8.24413 510.773 -29.7113 475.803 -19.9739C475.803 -19.9738 475.802 -19.9735 475.802 -19.9731Z" fill="#222222"/>
<path d="M411.694 18.7063C411.144 18.9372 410.61 19.2079 410.104 19.5252C406.386 21.8575 402.653 24.1174 398.905 26.2133C404.601 23.8123 410.211 20.6515 415.76 17.0947C415.876 17.02 415.79 16.8436 415.66 16.8906C414.346 17.541 413.025 18.1484 411.694 18.7063Z" fill="#222222"/>
<path d="M391.074 27.6686C390.248 28.0706 390.615 29.1162 391.497 28.8602C391.551 28.8445 391.604 28.8229 391.653 28.7961C396.366 26.238 401.066 23.5574 405.745 20.9182C405.781 20.8978 405.757 20.8393 405.716 20.8509C400.873 22.9503 395.986 25.2762 391.074 27.6686Z" fill="#222222"/>
<path d="M425.829 10.2459C425.829 10.2458 425.829 10.2457 425.829 10.2456C426.736 9.81553 427.641 9.39641 428.545 8.98904C428.939 8.81148 429.317 8.59862 429.669 8.34856C431.627 6.95986 433.573 5.51162 435.508 4.02431C433.505 5.34289 431.478 6.56553 429.422 7.66539C428.227 8.53108 427.03 9.39207 425.829 10.2463C425.829 10.2465 425.829 10.2463 425.829 10.2459Z" fill="#222222"/>
<path d="M420.475 12.8913C420.475 12.8911 420.475 12.8909 420.475 12.891C418.759 13.9974 417.041 15.1072 415.32 16.2115C414.96 16.4423 415.256 17.0341 415.658 16.8902C416.316 16.5641 416.974 16.2265 417.63 15.8799C419.013 14.9701 420.392 14.0386 421.768 13.0908C422.205 12.7895 421.852 12.1912 421.378 12.4313C421.077 12.5838 420.776 12.7373 420.475 12.8916C420.475 12.8918 420.475 12.8916 420.475 12.8913Z" fill="#222222"/>
<path d="M406.341 20.5822C406.341 20.5826 406.341 20.5829 406.341 20.5831C406.337 20.5854 406.333 20.5878 406.328 20.5901C406.29 20.6116 406.316 20.6714 406.358 20.6585C407.867 20.191 409.364 19.6527 410.851 19.0538C410.86 19.0501 410.869 19.0457 410.877 19.0405C411.046 18.9344 410.919 18.6845 410.734 18.7585C409.274 19.3416 407.81 19.9509 406.342 20.5813C406.342 20.5814 406.342 20.5818 406.341 20.5822Z" fill="#222222"/>
<path d="M602.995 -66.096C602.995 -66.0961 602.994 -66.0963 602.994 -66.0961C579.495 -42.7681 528.512 -57.1408 497.141 -44.3401C485.815 -39.7193 475.234 -30.4051 464.594 -20.5609C462.343 -18.305 460.069 -16.1052 457.761 -14.0057C467.414 -21.6958 477.069 -28.5059 487.06 -31.9224C520.263 -43.2738 572.075 -25.4233 597.787 -48.1062C601.294 -51.2 604.09 -54.8519 606.342 -58.9283C606.4 -59.075 606.457 -59.2204 606.515 -59.3671C607.931 -64.5406 609.374 -69.6864 610.954 -74.6829C611.073 -75.2526 609.937 -75.6265 609.662 -75.1142C607.88 -71.8023 605.691 -68.7732 602.995 -66.0958C602.995 -66.0957 602.994 -66.0958 602.995 -66.096Z" fill="#222222"/>
<path d="M406.982 13.7916C406.982 13.7913 406.982 13.7909 406.981 13.7909C372.031 13.7211 346.125 -32.2308 315.603 -44.6972C303.617 -49.5933 288.9 -50.5999 273.935 -51.235C270.736 -51.241 267.569 -51.2956 264.458 -51.4394C277.181 -49.9713 289.388 -47.8442 299.467 -43.0394C330.249 -28.3661 354.214 20.5905 390.331 22.7309C395.609 23.0443 400.726 22.3304 405.717 20.8526C405.925 20.7617 406.134 20.6725 406.342 20.5829C411.078 17.9143 415.792 15.2943 420.476 12.8929C422.287 11.7248 424.097 10.5607 425.902 9.41215C419.886 12.1635 413.615 13.8048 406.982 13.7922C406.982 13.7922 406.982 13.7919 406.982 13.7916Z" fill="#222222"/>
<path d="M435.508 4.02229C436.941 3.07967 438.359 2.0863 439.769 1.05075C439.449 1.22805 439.129 1.40689 438.809 1.58725C438.377 1.83132 437.965 2.11023 437.574 2.41693C436.886 2.95655 436.197 3.49203 435.508 4.02229Z" fill="#222222"/>
<path d="M437.508 2.32946C437.942 2.08033 438.358 1.80118 438.75 1.49045C440.975 -0.274276 443.189 -2.07808 445.394 -3.89147C441.447 -1.12937 437.495 1.77234 433.525 4.67459C434.855 3.87444 436.182 3.09148 437.508 2.32946Z" fill="#222222"/>
<path d="M429.421 7.66397C430.791 6.67202 432.158 5.67328 433.525 4.67457C430.99 6.20145 428.448 7.78993 425.901 9.41072C427.084 8.86971 428.258 8.28685 429.421 7.66397Z" fill="#222222"/>
<path d="M506.033 -57.1326C506.032 -57.1323 506.033 -57.1321 506.033 -57.1322C535.52 -71.2128 585.446 -60.1677 606.749 -83.9678C612.336 -90.2085 615.265 -98.0778 616.737 -106.843C617.053 -110.433 617.365 -114.028 617.72 -117.591C617.861 -121.562 617.957 -125.564 618.083 -129.548C617.874 -149.05 615.718 -169.769 621.233 -185.837C631.366 -215.352 674.601 -241.973 672.292 -275.142C671.655 -284.287 667.651 -292.557 661.887 -300.329C659.626 -302.972 657.368 -305.608 655.165 -308.241C652.426 -311.135 649.644 -314.008 646.9 -316.878C632.771 -330.557 616.606 -343.455 609.24 -358.123C594.573 -387.327 605.18 -436.344 580.74 -457.61C574.331 -463.187 566.301 -466.168 557.379 -467.724C553.728 -468.08 550.072 -468.432 546.448 -468.825C542.412 -469.012 538.346 -469.156 534.297 -469.329C514.487 -469.363 493.465 -467.495 477.075 -473.122C446.966 -483.46 419.391 -526.354 385.724 -524.488C376.441 -523.973 368.089 -520.133 360.265 -514.554C357.607 -512.36 354.958 -510.17 352.309 -508.033C349.404 -505.372 346.519 -502.668 343.637 -500.002C329.916 -486.26 317.01 -470.504 302.2 -463.432C272.713 -449.351 222.787 -460.396 201.483 -436.596C195.896 -430.355 192.967 -422.486 191.495 -413.721C191.179 -410.131 190.867 -406.536 190.512 -402.973C190.371 -399.002 190.275 -395 190.149 -391.016C190.358 -371.514 192.514 -350.795 186.999 -334.727C176.866 -305.212 133.631 -278.591 135.94 -245.422C136.577 -236.277 140.581 -228.007 146.345 -220.235C148.606 -217.592 150.864 -214.956 153.067 -212.323C155.806 -209.429 158.588 -206.555 161.332 -203.686C175.461 -190.009 191.626 -177.108 198.992 -162.441C213.659 -133.237 203.052 -84.2199 227.492 -62.9535C233.901 -57.3768 241.931 -54.396 250.853 -52.8396C254.504 -52.4837 258.16 -52.1322 261.784 -51.739C265.82 -51.5516 269.886 -51.4076 273.935 -51.2347C293.745 -51.2006 314.767 -53.0691 331.157 -47.4419C361.266 -37.1035 388.841 5.78975 422.508 3.92387C431.791 3.40916 440.143 -0.431191 447.967 -6.01008C450.625 -8.20364 453.274 -10.394 455.922 -12.5311C458.828 -15.1918 461.713 -17.8954 464.595 -20.562C478.315 -34.3038 491.222 -50.0593 506.032 -57.1329C506.032 -57.133 506.033 -57.1328 506.033 -57.1326ZM436.857 -6.77667C404.577 -3.12158 375.608 -42.9197 346.055 -51.2164C315.418 -59.818 270.171 -41.2988 245.45 -60.4366C220.728 -79.5745 228.139 -127.381 212.367 -154.703C197.153 -181.06 151.097 -199.337 146.987 -231.162C142.877 -262.988 182.951 -291.019 191.016 -320.012C199.378 -350.069 180.008 -394.843 199.146 -418.946C218.284 -443.05 266.941 -435.166 294.503 -450.358C321.092 -465.013 339.093 -510.131 371.373 -513.786C403.653 -517.441 432.623 -477.643 462.176 -469.347C492.812 -460.745 538.059 -479.264 562.78 -460.126C587.502 -440.989 580.091 -393.182 595.863 -365.86C611.077 -339.503 657.134 -321.226 661.244 -289.401C665.353 -257.575 625.279 -229.544 617.214 -200.551C608.852 -170.494 628.222 -125.72 609.084 -101.617C589.946 -77.5132 541.29 -85.3967 513.727 -70.2046C487.138 -55.5502 469.137 -10.4318 436.857 -6.77667Z" fill="#222222"/>
<path d="M610.041 -118.945C610.041 -118.945 610.042 -118.945 610.042 -118.945C627.054 -143.189 605.901 -185.194 612.223 -214.569C618.323 -242.906 655.225 -272.082 649.465 -302.471C643.706 -332.862 598.424 -347.906 582.309 -372.423C565.604 -397.84 570.004 -444.239 545.166 -461.286C520.328 -478.334 477.915 -458.024 447.996 -464.61C419.134 -470.963 389.041 -507.652 358.24 -502.356C327.437 -497.059 312.711 -452.664 288.002 -437.099C262.387 -420.965 215.198 -425.867 198.184 -401.623C181.171 -377.38 202.325 -335.374 196.003 -305.999C189.903 -277.662 153.001 -248.486 158.76 -218.097C164.519 -187.706 209.801 -172.662 225.917 -148.146C242.622 -122.729 238.222 -76.3305 263.06 -59.2826C287.898 -42.2347 330.311 -62.5449 360.23 -55.9593C389.092 -49.6059 419.185 -12.9168 449.986 -18.2133C480.789 -23.5095 495.515 -67.9055 520.223 -83.4706C545.837 -99.6043 593.026 -94.7027 610.04 -118.945C610.04 -118.946 610.041 -118.946 610.041 -118.945ZM461.865 -30.2757C432.62 -23.4926 401.671 -57.0813 373.625 -61.594C344.552 -66.2737 305.022 -44.4289 280.229 -59.4382C255.435 -74.4475 257.022 -119.26 239.554 -142.756C222.704 -165.42 178.414 -177.379 171.163 -206.254C163.913 -235.13 197.653 -265.187 201.894 -292.742C206.291 -321.308 183.614 -360.494 198.557 -384.719C213.499 -408.944 259.044 -406.831 282.697 -423.74C305.514 -440.051 317.119 -483.508 346.364 -490.291C375.608 -497.074 406.558 -463.487 434.603 -458.973C463.676 -454.293 503.206 -476.138 528 -461.129C552.793 -446.119 551.206 -401.307 568.674 -377.811C585.524 -355.147 629.815 -343.188 637.065 -314.313C644.315 -285.437 610.574 -255.381 606.334 -227.825C601.937 -199.259 624.615 -160.073 609.672 -135.848C594.729 -111.623 549.185 -113.736 525.531 -96.827C502.714 -80.5164 491.11 -37.0587 461.865 -30.2757Z" fill="#222222"/>
<path d="M608.031 -152.238C620.968 -176.293 597.028 -212.629 599.619 -240.266C602.117 -266.927 632.727 -297.607 624.146 -324.903C615.565 -352.198 572.471 -361.233 555.049 -382.044C536.987 -403.617 535.966 -446.683 511.369 -459.715C486.774 -472.747 450.155 -449.625 422.047 -452.515C394.932 -455.302 363.389 -485.815 335.765 -477.703C308.141 -469.59 299.493 -427.274 278.565 -410.377C256.872 -392.861 213.134 -392.384 200.198 -368.329C187.261 -344.275 211.2 -307.939 208.61 -280.301C206.111 -253.641 175.502 -222.961 184.083 -195.665C192.663 -168.369 235.758 -159.335 253.18 -138.524C271.242 -116.951 272.263 -73.8842 296.859 -60.8529C321.455 -47.8204 358.074 -70.9427 386.182 -68.053C413.297 -65.2652 444.84 -34.7528 472.464 -42.8651C500.088 -50.9774 508.736 -93.2937 529.663 -110.19C551.357 -127.707 595.095 -128.183 608.031 -152.238ZM481.766 -55.8788C455.816 -46.5967 423.933 -74.0774 397.851 -75.2596C370.815 -76.4841 337.115 -52.339 312.865 -63.4656C288.613 -74.5926 285.198 -115.768 266.71 -135.431C248.876 -154.399 207.166 -160.685 197.417 -186.346C187.668 -212.007 215.194 -243.06 216.074 -268.723C216.986 -295.325 192.043 -328.8 203.049 -352.538C214.054 -376.278 255.842 -379.134 275.589 -397.093C294.639 -414.418 300.513 -455.405 326.461 -464.688C352.411 -473.97 384.294 -446.489 410.376 -445.307C437.412 -444.083 471.112 -468.228 495.362 -457.101C519.614 -445.974 523.029 -404.798 541.517 -385.136C559.351 -366.168 601.061 -359.882 610.81 -334.221C620.558 -308.559 593.033 -277.507 592.153 -251.844C591.241 -225.242 616.184 -191.767 605.179 -168.028C594.173 -144.289 552.385 -141.433 532.638 -123.473C513.588 -106.149 507.714 -65.1612 481.766 -55.8788Z" fill="#222222"/>
<path d="M601.186 -183.134C610.346 -206.422 584.654 -237.043 584.022 -262.514C583.411 -287.084 607.924 -318.264 597.171 -342.253C586.419 -366.242 546.263 -369.963 528.174 -387.113C509.422 -404.89 503.836 -444.05 480.066 -453.355C456.296 -462.659 425.505 -437.741 399.637 -437.432C374.684 -437.133 342.707 -461.649 318.47 -451.358C294.232 -441.067 290.945 -401.578 273.746 -383.98C255.917 -365.737 216.203 -360.719 207.043 -337.432C197.883 -314.144 223.575 -283.523 224.207 -258.052C224.818 -233.482 200.307 -202.301 211.058 -178.313C221.81 -154.324 261.966 -150.602 280.055 -133.453C298.807 -115.676 304.393 -76.5158 328.163 -67.211C351.933 -57.9063 382.724 -82.8242 408.592 -83.1337C433.545 -83.433 465.522 -58.9181 489.759 -69.2079C513.997 -79.499 517.284 -118.987 534.483 -136.586C552.313 -154.829 592.026 -159.847 601.186 -183.134ZM535.232 -149.447C519.847 -131.725 518.941 -93.889 496.442 -82.7506C473.943 -71.6122 442.111 -93.2428 418.365 -91.5955C393.75 -89.8867 365.834 -64.4414 342.674 -72.016C319.514 -79.5905 311.988 -116.628 293.128 -132.556C274.935 -147.921 236.487 -149.277 224.896 -171.565C213.304 -193.852 234.887 -224.926 232.921 -248.324C230.883 -272.579 204.69 -300.375 212.101 -323.084C219.511 -345.792 257.044 -352.746 272.993 -371.118C288.378 -388.841 289.283 -426.676 311.783 -437.815C334.282 -448.953 366.114 -427.323 389.859 -428.97C414.475 -430.679 442.391 -456.124 465.551 -448.55C488.711 -440.975 496.237 -403.937 515.096 -388.01C533.29 -372.645 571.737 -371.288 583.329 -349.001C594.921 -326.713 573.338 -295.64 575.303 -272.242C577.342 -247.986 603.534 -220.19 596.124 -197.482C588.714 -174.773 551.181 -167.819 535.232 -149.447Z" fill="#222222"/>
</svg>
