<svg width="238" height="79" viewBox="0 0 238 79" fill="none" xmlns="http://www.w3.org/2000/svg">
<path d="M129.398 -25.2493C129.398 -25.2491 129.397 -25.2491 129.397 -25.2493C125.037 -27.5495 119.962 -29.3802 114.487 -30.9467C114.012 -31.0824 113.521 -31.1802 113.02 -31.2465C109.679 -31.6883 106.447 -32.2316 103.385 -32.932C103.32 -32.942 103.281 -32.8524 103.342 -32.8308C108.047 -31.1565 112.389 -29.2698 116.141 -27.0399C138.776 -13.584 148.917 19.9795 178.481 26.4949C189.412 28.904 200.795 27.129 212.257 23.8281C206.113 24.9044 199.977 25.1454 193.878 24.0793C164.752 18.9853 152.35 -13.1383 129.399 -25.2493C129.399 -25.2494 129.398 -25.2495 129.398 -25.2493Z" fill="#222222"/>
<path d="M212.257 23.8292C212.257 23.8292 212.257 23.8292 212.257 23.8292C217.4 22.928 222.549 21.4412 227.687 19.6442C225.832 20.0925 223.97 20.4629 222.103 20.74C221.913 20.7682 221.724 20.8138 221.54 20.8771C218.444 21.937 215.347 22.9383 212.257 23.8287C212.256 23.8287 212.256 23.8291 212.257 23.8292Z" fill="#222222"/>
<path d="M227.688 19.6441C227.688 19.6443 227.688 19.6445 227.688 19.6445C232.641 18.4479 237.555 16.6953 242.433 14.6636C240.948 15.1295 239.455 15.5439 237.954 15.8988C237.276 16.0591 236.605 16.264 235.952 16.5255C233.202 17.6259 230.446 18.6796 227.688 19.6438C227.688 19.6439 227.688 19.6439 227.688 19.6441Z" fill="#222222"/>
<path d="M155.281 -23.7914C155.281 -23.7913 155.28 -23.7911 155.28 -23.7912C148.738 -26.4662 140.879 -28.0465 132.565 -29.2434C129.54 -29.41 126.571 -29.6326 123.693 -29.9518C130.59 -28.4996 137.03 -26.7069 142.467 -24.1735C165.601 -13.3909 180.068 17.2174 208.634 20.9468C213.012 21.5182 217.356 21.4108 221.669 20.8031C221.768 20.789 221.867 20.765 221.964 20.7316C222.292 20.6189 222.62 20.5054 222.947 20.3915C224.386 19.8908 224.137 17.2681 222.691 17.1421C194.797 14.7129 178.466 -14.3114 155.281 -23.7916C155.281 -23.7917 155.28 -23.7915 155.281 -23.7914Z" fill="#222222"/>
<path d="M236.748 15.4075C236.156 15.6219 236.273 16.2741 236.882 16.1423C236.916 16.135 236.949 16.1247 236.982 16.1115C240.519 14.6812 244.046 13.1823 247.557 11.7065C247.584 11.6953 247.575 11.6582 247.547 11.6643C243.975 12.818 240.371 14.094 236.748 15.4075Z" fill="#222222"/>
<path d="M248.498 7.71573C248.498 7.71555 248.498 7.71538 248.498 7.71538C222.257 7.67639 202.807 -18.029 179.892 -25.0027C170.893 -27.7416 159.843 -28.3047 148.608 -28.66C146.206 -28.6633 143.828 -28.6939 141.493 -28.7743C151.045 -27.953 160.21 -26.7632 167.777 -24.0753C190.888 -15.8672 208.881 11.5191 235.996 12.7164C239.959 12.8917 243.801 12.4924 247.549 11.6657C247.705 11.6148 247.862 11.5649 248.018 11.5148C251.573 10.022 255.112 8.55637 258.629 7.213C259.989 6.55961 261.348 5.90839 262.703 5.2659C258.186 6.80499 253.478 7.72313 248.498 7.71609C248.498 7.71609 248.498 7.71591 248.498 7.71573Z" fill="#222222"/>
<path d="M322.863 -31.9601C322.863 -31.96 322.863 -31.9599 322.863 -31.9599C345.002 -39.8366 382.485 -33.658 398.48 -46.9717C402.674 -50.4627 404.874 -54.8648 405.978 -59.7678C406.216 -61.7763 406.45 -63.787 406.717 -65.7804C406.823 -68.002 406.895 -70.2403 406.989 -72.469C406.833 -83.3785 405.213 -94.9689 409.354 -103.957C416.962 -120.468 449.422 -135.359 447.689 -153.914C447.21 -159.03 444.204 -163.656 439.877 -168.003C438.179 -169.482 436.484 -170.956 434.83 -172.43C432.774 -174.048 430.685 -175.656 428.625 -177.261C418.017 -184.913 405.88 -192.128 400.35 -200.334C389.338 -216.67 397.302 -244.09 378.952 -255.986C374.141 -259.106 368.112 -260.773 361.413 -261.644C358.672 -261.843 355.927 -262.04 353.206 -262.26C350.176 -262.365 347.123 -262.445 344.083 -262.542C329.211 -262.561 313.428 -261.516 301.122 -264.664C278.517 -270.447 257.814 -294.441 232.537 -293.397C225.567 -293.11 219.297 -290.961 213.422 -287.84C211.427 -286.613 209.438 -285.388 207.449 -284.193C205.268 -282.704 203.102 -281.192 200.938 -279.7C190.637 -272.013 180.947 -263.199 169.828 -259.243C147.689 -251.366 110.205 -257.545 94.2105 -244.231C90.0162 -240.74 87.8169 -236.338 86.7121 -231.435C86.4743 -229.426 86.24 -227.416 85.9736 -225.422C85.8679 -223.201 85.7955 -220.962 85.701 -218.734C85.8578 -207.824 87.4769 -196.234 83.3362 -187.246C75.7288 -170.735 43.2681 -155.843 45.0019 -137.289C45.4802 -132.173 48.4863 -127.547 52.8136 -123.199C54.5112 -121.721 56.2062 -120.246 57.8606 -118.773C59.9169 -117.154 62.0055 -115.547 64.0659 -113.942C74.6737 -106.291 86.8099 -99.0743 92.3407 -90.8692C103.352 -74.5329 95.3888 -47.1127 113.738 -35.2164C118.549 -32.0967 124.579 -30.4293 131.277 -29.5586C134.019 -29.3596 136.763 -29.1629 139.484 -28.943C142.514 -28.8382 145.567 -28.7576 148.607 -28.6609C163.48 -28.6418 179.263 -29.687 191.569 -26.5392C214.174 -20.7559 234.877 3.23845 260.153 2.19467C267.123 1.90675 273.394 -0.241533 279.268 -3.36235C281.263 -4.58942 283.253 -5.81468 285.241 -7.01014C287.423 -8.4986 289.589 -10.011 291.752 -11.5026C302.053 -19.1898 311.743 -28.0034 322.863 -31.9604C322.863 -31.9604 322.863 -31.9603 322.863 -31.9601ZM270.927 -3.79118C246.691 -1.74652 224.942 -24.0095 202.753 -28.6507C179.752 -33.4624 145.781 -23.1028 127.22 -33.8084C108.66 -44.5141 114.224 -71.2567 102.382 -86.5409C90.9596 -101.285 56.3811 -111.509 53.2955 -129.312C50.2098 -147.115 80.297 -162.796 86.3523 -179.014C92.6302 -195.828 78.0878 -220.874 92.4563 -234.358C106.825 -247.841 143.356 -243.431 164.049 -251.93C184.012 -260.127 197.527 -285.366 221.762 -287.411C245.998 -289.456 267.748 -267.193 289.936 -262.552C312.937 -257.74 346.908 -268.099 365.469 -257.394C384.029 -246.688 378.466 -219.946 390.307 -204.661C401.73 -189.917 436.308 -179.693 439.394 -161.89C442.479 -144.087 412.392 -128.407 406.337 -112.188C400.059 -95.3745 414.601 -70.328 400.233 -56.8445C385.864 -43.361 349.334 -47.771 328.64 -39.2726C308.677 -31.0749 295.163 -5.83581 270.927 -3.79118Z" fill="#222222"/>
<path d="M400.952 -66.5366C400.952 -66.5364 400.953 -66.5364 400.953 -66.5367C413.725 -80.0985 397.844 -103.596 402.59 -120.028C407.17 -135.88 434.875 -152.201 430.551 -169.2C426.228 -186.201 392.231 -194.616 380.131 -208.332C367.589 -222.549 370.893 -248.505 352.245 -258.041C333.597 -267.578 301.753 -256.216 279.291 -259.9C257.621 -263.454 235.028 -283.978 211.903 -281.015C188.777 -278.053 177.72 -253.218 159.169 -244.511C139.938 -235.486 104.508 -238.228 91.7349 -224.666C78.9614 -211.104 94.8437 -187.606 90.0968 -171.174C85.5174 -155.322 57.8118 -139.001 62.1358 -122.002C66.4595 -105.001 100.457 -96.5857 112.556 -82.8712C125.098 -68.6534 121.795 -42.698 140.443 -33.1615C159.091 -23.6249 190.934 -34.9864 213.397 -31.3024C235.066 -27.7484 257.659 -7.22454 280.785 -10.1874C303.911 -13.1501 314.967 -37.9851 333.518 -46.6922C352.748 -55.7173 388.177 -52.9754 400.951 -66.5366C400.951 -66.5369 400.952 -66.5369 400.952 -66.5366ZM289.703 -16.9351C267.746 -13.1406 244.51 -31.9301 223.454 -34.4545C201.626 -37.0723 171.947 -24.8524 153.333 -33.2485C134.718 -41.6447 135.91 -66.7129 122.795 -79.856C110.144 -92.5345 76.8911 -99.2241 71.4477 -115.377C66.0043 -131.53 91.3363 -148.344 94.5204 -163.758C97.8214 -179.738 80.7953 -201.658 92.0143 -215.21C103.233 -228.761 137.427 -227.579 155.186 -237.038C172.317 -246.162 181.029 -270.472 202.986 -274.267C224.943 -278.061 248.179 -259.272 269.235 -256.747C291.063 -254.129 320.742 -266.349 339.356 -257.953C357.971 -249.557 356.78 -224.489 369.894 -211.346C382.545 -198.667 415.798 -191.978 421.241 -175.825C426.685 -159.672 401.352 -142.858 398.169 -127.443C394.868 -111.464 411.894 -89.5433 400.675 -75.9918C389.456 -62.4404 355.262 -63.6224 337.503 -54.1637C320.372 -45.0396 311.66 -20.7295 289.703 -16.9351Z" fill="#222222"/>
<path d="M399.442 -85.161C409.156 -98.6171 391.182 -118.943 393.127 -134.404C395.003 -149.318 417.984 -166.48 411.542 -181.749C405.099 -197.018 372.744 -202.072 359.664 -213.714C346.104 -225.782 345.337 -249.873 326.87 -257.162C308.404 -264.453 280.911 -251.518 259.808 -253.135C239.45 -254.694 215.768 -271.763 195.028 -267.225C174.289 -262.687 167.796 -239.015 152.084 -229.563C135.796 -219.765 102.958 -219.498 93.2462 -206.042C83.533 -192.586 101.507 -172.259 99.562 -156.799C97.6859 -141.885 74.7048 -124.723 81.1471 -109.454C87.5894 -94.1845 119.944 -89.1306 133.025 -77.489C146.585 -65.4211 147.352 -41.3299 165.818 -34.0402C184.285 -26.7498 211.777 -39.6844 232.881 -38.0679C253.238 -36.5084 276.921 -19.4398 297.66 -23.9778C318.4 -28.5159 324.893 -52.1875 340.605 -61.6393C356.892 -71.4381 389.73 -71.7046 399.442 -85.161ZM304.644 -31.2577C285.161 -26.0653 261.224 -41.438 241.642 -42.0992C221.344 -42.7843 196.042 -29.2775 177.835 -35.5017C159.627 -41.7261 157.063 -64.7597 143.183 -75.7588C129.793 -86.3694 98.4776 -89.886 91.1583 -104.241C83.839 -118.595 104.505 -135.966 105.166 -150.322C105.85 -165.203 87.1237 -183.929 95.3863 -197.208C103.649 -210.488 135.023 -212.086 149.849 -222.132C164.152 -231.824 168.561 -254.752 188.043 -259.944C207.526 -265.137 231.464 -249.764 251.045 -249.103C271.344 -248.418 296.645 -261.925 314.852 -255.7C333.06 -249.476 335.624 -226.442 349.504 -215.443C362.894 -204.833 394.21 -201.316 401.529 -186.962C408.848 -172.606 388.182 -155.236 387.521 -140.88C386.837 -125.999 405.564 -107.273 397.301 -93.9938C389.038 -80.714 357.664 -79.1165 342.838 -69.0699C328.536 -59.3785 324.126 -36.4503 304.644 -31.2577Z" fill="#222222"/>
<path d="M394.303 -102.445C401.181 -115.472 381.891 -132.601 381.417 -146.85C380.958 -160.594 399.362 -178.036 391.289 -191.455C383.216 -204.875 353.068 -206.957 339.487 -216.55C325.408 -226.494 321.214 -248.4 303.368 -253.605C285.522 -258.811 262.404 -244.872 242.982 -244.698C224.248 -244.531 200.24 -258.245 182.043 -252.488C163.846 -246.732 161.378 -224.642 148.465 -214.798C135.079 -204.592 105.263 -201.785 98.3851 -188.758C91.5076 -175.731 110.797 -158.602 111.272 -144.354C111.73 -130.609 93.3275 -113.167 101.399 -99.7478C109.472 -86.3286 139.621 -84.2466 153.202 -74.6533C167.281 -64.7088 171.474 -42.8028 189.32 -37.5978C207.167 -32.3927 230.285 -46.3317 249.706 -46.5049C268.44 -46.6723 292.448 -32.9587 310.645 -38.7148C328.843 -44.4716 331.311 -66.5612 344.224 -76.4057C357.61 -86.611 387.426 -89.4179 394.303 -102.445ZM344.786 -83.6005C333.234 -73.6865 332.555 -52.5213 315.663 -46.2906C298.771 -40.0598 274.872 -52.1598 257.044 -51.2384C238.562 -50.2825 217.604 -36.0484 200.215 -40.2856C182.827 -44.5228 177.177 -65.2417 163.017 -74.1515C149.358 -82.7466 120.492 -83.5053 111.789 -95.973C103.086 -108.441 119.29 -125.823 117.814 -138.912C116.284 -152.48 96.6187 -168.029 102.182 -180.732C107.746 -193.435 135.925 -197.325 147.9 -207.603C159.451 -217.517 160.13 -238.682 177.022 -244.913C193.915 -251.143 217.814 -239.043 235.641 -239.965C254.123 -240.921 275.081 -255.155 292.47 -250.918C309.858 -246.68 315.508 -225.961 329.668 -217.052C343.327 -208.457 372.193 -207.698 380.896 -195.23C389.599 -182.763 373.395 -165.38 374.871 -152.291C376.401 -138.723 396.066 -123.174 390.503 -110.471C384.939 -97.7678 356.76 -93.8777 344.786 -83.6005Z" fill="#222222"/>
</svg>
