<svg width="15" height="54" viewBox="0 0 15 54" fill="none" xmlns="http://www.w3.org/2000/svg">
<mask id="mask0_177_169445" style="mask-type:alpha" maskUnits="userSpaceOnUse" x="0" y="0" width="8" height="46">
<rect x="8" y="0.460938" width="45" height="8" rx="4" transform="rotate(90 8 0.460938)" fill="#222222"/>
</mask>
<g mask="url(#mask0_177_169445)">
<path d="M57.8459 63.3038C57.8459 63.3038 57.846 63.3039 57.846 63.3038C61.2729 60.1613 68.4606 59.6483 70.3952 55.4998C70.9025 54.412 70.986 53.2081 70.8368 51.9401C70.737 51.4324 70.6364 50.9243 70.5428 50.4187C70.4041 49.8657 70.2582 49.3103 70.117 48.7561C69.3142 46.0769 68.1997 43.3093 68.3071 40.8701C68.5046 36.3893 73.2919 30.9581 71.6623 26.481C71.213 25.2465 70.3432 24.27 69.2554 23.4339C68.8448 23.1618 68.4349 22.8906 68.0324 22.6175C67.5473 22.3304 67.0571 22.0477 66.5721 21.7641C64.1189 20.4549 61.4214 19.3362 59.843 17.615C56.7004 14.1882 56.1874 7.00035 52.0389 5.06577C50.9511 4.55844 49.7471 4.47498 48.4792 4.62419C47.9715 4.72398 47.4634 4.82455 46.9578 4.91812C46.4048 5.05682 45.8494 5.20271 45.2952 5.34394C42.6159 6.14676 39.8484 7.26122 37.4092 7.15384C32.9284 6.95639 27.4972 2.16904 23.0201 3.79861C21.7856 4.24797 20.8091 5.11771 19.973 6.20551C19.7008 6.61616 19.4297 7.02603 19.1566 7.42851C18.8694 7.91366 18.5868 8.40388 18.3032 8.88884C16.9942 11.342 15.8752 14.0396 14.1541 15.618C10.7272 18.7606 3.53942 19.2735 1.60483 23.4221C1.0975 24.5099 1.01405 25.7138 1.16325 26.9817C1.26304 27.4895 1.36361 27.9976 1.45718 28.5031C1.59588 29.0562 1.74178 29.6116 1.883 30.1658C2.68582 32.845 3.80028 35.6126 3.6929 38.0518C3.49545 42.5325 -1.2919 47.9638 0.33767 52.4409C0.787031 53.6753 1.65677 54.6519 2.74457 55.4879C3.15522 55.7601 3.56509 56.0313 3.96757 56.3044C4.45273 56.5915 4.94294 56.8742 5.4279 57.1578C7.8811 58.4668 10.5786 59.5857 12.157 61.3069C15.2996 64.7337 15.8126 71.9215 19.9611 73.8561C21.0489 74.3634 22.2529 74.4469 23.5208 74.2977C24.0285 74.1979 24.5366 74.0973 25.0422 74.0038C25.5953 73.8651 26.1506 73.7192 26.7048 73.5779C29.3841 72.7751 32.1516 71.6607 34.5908 71.768C39.0716 71.9655 44.5028 76.7528 48.9799 75.1233C50.2144 74.6739 51.1909 73.8042 52.027 72.7164C52.2992 72.3057 52.5703 71.8958 52.8435 71.4934C53.1306 71.0082 53.4132 70.518 53.6968 70.033C55.0058 67.5799 56.1247 64.8824 57.8459 63.3038C57.8459 63.3038 57.8459 63.3038 57.8459 63.3038ZM50.4947 73.0636C46.2762 74.8832 40.7794 70.5793 36.4548 70.6405C31.9717 70.704 26.5907 75.1007 22.4886 73.4709C18.3866 71.8412 17.4896 64.9506 14.2723 61.828C11.1688 58.8157 4.21696 58.1744 2.39734 53.9558C0.577718 49.7373 4.88166 44.2405 4.82039 39.9159C4.75697 35.4328 0.360235 30.0518 1.99 25.9498C3.61976 21.8477 10.5103 20.9508 13.6329 17.7335C16.6452 14.63 17.2866 7.67809 21.5051 5.85847C25.7236 4.03885 31.2204 8.34279 35.545 8.28152C40.0281 8.2181 45.4092 3.82137 49.5112 5.45113C53.6132 7.08089 54.5102 13.9715 57.7275 17.094C60.831 20.1063 67.7829 20.7477 69.6025 24.9662C71.4221 29.1848 67.1181 34.6816 67.1794 39.0061C67.2428 43.4892 71.6396 48.8703 70.0098 52.9723C68.3801 57.0743 61.4895 57.9713 58.3669 61.1886C55.3546 64.2921 54.7133 71.244 50.4947 73.0636Z" fill="url(#paint0_radial_177_169445)"/>
<path d="M69.7514 50.9803C69.7515 50.9804 69.7515 50.9804 69.7516 50.9803C71.1004 46.9693 66.5318 42.0714 66.217 37.7906C65.9134 33.6611 69.7774 28.1683 67.7741 24.2381C65.7707 20.3077 58.9916 20.0816 55.811 17.3755C52.514 14.5702 51.2547 8.03491 47.1838 6.70576C43.1129 5.37661 38.1419 9.87809 33.7972 10.1883C29.606 10.4875 24.0313 6.68023 20.0424 8.65414C16.0533 10.628 15.8239 17.3074 13.0775 20.4413C10.2303 23.6898 3.59746 24.9306 2.24848 28.9416C0.899493 32.9527 5.46814 37.8506 5.78296 42.1314C6.0866 46.261 2.22257 51.7538 4.22593 55.684C6.22929 59.6144 13.0084 59.8405 16.189 62.5463C19.486 65.3516 20.7453 71.887 24.8162 73.2161C28.8871 74.5453 33.8581 70.0438 38.2028 69.7336C42.394 69.4344 47.9687 73.2416 51.9576 71.2677C55.9466 69.2938 56.1761 62.6144 58.9223 59.4806C61.7695 56.2321 68.4022 54.9913 69.7513 50.9804C69.7513 50.9803 69.7514 50.9803 69.7514 50.9803ZM53.0944 69.1337C49.3774 71.2482 43.8101 67.9005 39.804 68.4188C35.651 68.9558 31.1348 73.5507 27.1516 72.499C23.1684 71.4474 21.589 65.2433 18.265 62.7322C15.0584 60.3098 8.53825 60.4663 6.3922 56.8039C4.24615 53.1415 7.64363 47.6561 7.11782 43.7089C6.57277 39.617 1.90932 35.1672 2.97665 31.2426C4.04398 27.318 10.3406 25.7618 12.8892 22.4866C15.3477 19.3272 15.189 12.9029 18.906 10.7884C22.623 8.67386 28.1903 12.0214 32.1964 11.5033C36.3494 10.9663 40.8656 6.37139 44.8488 7.42304C48.8319 8.47468 50.4114 14.6787 53.7354 17.1899C56.9419 19.6122 63.4621 19.4558 65.6082 23.1182C67.7542 26.7805 64.3566 32.266 64.8826 36.2132C65.4276 40.3051 70.0911 44.7549 69.0237 48.6795C67.9564 52.6041 61.6598 54.1603 59.1112 57.4355C56.6526 60.5949 56.8114 67.0192 53.0944 69.1337Z" fill="url(#paint1_radial_177_169445)"/>
<path d="M67.9096 46.0497C68.7044 42.2009 64.0173 38.1625 63.2685 34.2415C62.5462 30.4591 65.4703 24.9741 63.2225 21.5565C60.9747 18.1388 54.7801 18.6513 51.5932 16.4898C48.2893 14.2493 46.4377 8.34593 42.5888 7.55133C38.74 6.75655 34.7015 11.4436 30.7806 12.1924C26.9982 12.9147 21.5132 9.99065 18.0955 12.2384C14.6779 14.4862 15.1903 20.6808 13.0289 23.8678C10.7883 27.1716 4.88499 29.0233 4.0904 32.8721C3.29561 36.721 7.9827 40.7594 8.7315 44.6804C9.4538 48.4628 6.52971 53.9478 8.77748 57.3654C11.0253 60.783 17.2199 60.2706 20.4068 62.432C23.7107 64.6726 25.5623 70.5759 29.4112 71.3705C33.26 72.1653 37.2985 67.4782 41.2194 66.7294C45.0018 66.0071 50.4868 68.9312 53.9045 66.6835C57.3221 64.4357 56.8097 58.241 58.9711 55.0541C61.2117 51.7502 67.115 49.8986 67.9096 46.0497ZM54.6462 64.5072C51.5018 66.8481 46.0914 64.3564 42.5128 65.2581C38.8033 66.193 35.2007 70.9021 31.4744 70.3564C27.748 69.8106 25.6475 64.266 22.3619 62.3066C19.1925 60.4163 13.2947 61.2517 10.9537 58.1074C8.61284 54.9631 11.1046 49.5525 10.2028 45.974C9.26792 42.2644 4.55881 38.6619 5.10458 34.9356C5.65036 31.2091 11.195 29.1086 13.1544 25.8231C15.0446 22.6537 14.2093 16.7558 17.3536 14.4149C20.498 12.074 25.9084 14.5657 29.487 13.6639C33.1965 12.7291 36.7991 8.01995 40.5254 8.56572C44.2518 9.11149 46.3523 14.6561 49.6379 16.6155C52.8073 18.5057 58.7051 17.6704 61.0461 20.8147C63.387 23.9592 60.8952 29.3695 61.797 32.9481C62.7319 36.6576 67.441 40.2602 66.8952 43.9865C66.3495 47.713 60.8048 49.8134 58.8454 53.099C56.9552 56.2684 57.7905 62.1663 54.6462 64.5072Z" fill="url(#paint2_radial_177_169445)"/>
</g>
<defs>
<radialGradient id="paint0_radial_177_169445" cx="0" cy="0" r="1" gradientUnits="userSpaceOnUse" gradientTransform="translate(61 20.3589) rotate(-32.1344) scale(154.7 82.5308)">
<stop stop-color="#FFB6D5"/>
<stop offset="0.1" stop-color="#FFE3C0"/>
<stop offset="0.29" stop-color="#C7FBDB"/>
<stop offset="0.43" stop-color="#C7CDF4"/>
<stop offset="0.54" stop-color="#FFBCD4"/>
<stop offset="0.66" stop-color="#FFE0C3"/>
<stop offset="0.76" stop-color="#B0F1D4"/>
<stop offset="0.84" stop-color="#C9CEEC"/>
<stop offset="0.91" stop-color="#FFC1DA"/>
<stop offset="1" stop-color="#BDFFE3"/>
</radialGradient>
<radialGradient id="paint1_radial_177_169445" cx="0" cy="0" r="1" gradientUnits="userSpaceOnUse" gradientTransform="translate(59.6111 22.1854) rotate(-31.7533) scale(145.5 77.1187)">
<stop stop-color="#FFB6D5"/>
<stop offset="0.1" stop-color="#FFE3C0"/>
<stop offset="0.29" stop-color="#C7FBDB"/>
<stop offset="0.43" stop-color="#C7CDF4"/>
<stop offset="0.54" stop-color="#FFBCD4"/>
<stop offset="0.66" stop-color="#FFE0C3"/>
<stop offset="0.76" stop-color="#B0F1D4"/>
<stop offset="0.84" stop-color="#C9CEEC"/>
<stop offset="0.91" stop-color="#FFC1DA"/>
<stop offset="1" stop-color="#BDFFE3"/>
</radialGradient>
<radialGradient id="paint2_radial_177_169445" cx="0" cy="0" r="1" gradientUnits="userSpaceOnUse" gradientTransform="translate(58.2222 22.4813) rotate(-32.1344) scale(137.511 73.3608)">
<stop stop-color="#FFB6D5"/>
<stop offset="0.1" stop-color="#FFE3C0"/>
<stop offset="0.29" stop-color="#C7FBDB"/>
<stop offset="0.43" stop-color="#C7CDF4"/>
<stop offset="0.54" stop-color="#FFBCD4"/>
<stop offset="0.66" stop-color="#FFE0C3"/>
<stop offset="0.76" stop-color="#B0F1D4"/>
<stop offset="0.84" stop-color="#C9CEEC"/>
<stop offset="0.91" stop-color="#FFC1DA"/>
<stop offset="1" stop-color="#BDFFE3"/>
</radialGradient>
</defs>
</svg>
