<svg width="476" height="166" viewBox="0 0 476 166" fill="none" xmlns="http://www.w3.org/2000/svg">
<path d="M586.66 134.491C592.961 137.802 600.351 140.239 608.328 142.202C613.341 142.572 618.186 143.128 622.754 143.988C623.026 144.015 623.296 144.044 623.568 144.072C616.751 141.856 610.47 139.254 605.075 136.012C573.73 117.172 559.948 65.7211 518.906 58.3906C503.73 55.6801 487.886 59.5485 471.917 65.8083C480.47 63.5356 489.004 62.5683 497.474 63.6464C537.923 68.799 554.861 117.783 586.658 134.491L586.66 134.491Z" fill="#222222"/>
<path d="M376.565 107.73C383.679 106.3 390.908 103.721 398.221 100.497C402.184 97.9006 406.195 95.4994 410.271 93.4122C410.637 93.1862 411.002 92.9614 411.369 92.738C404.758 95.1229 398.25 96.9658 391.894 97.9332C350.391 104.247 295.694 79.2461 259.624 97.7496C246.525 104.47 238.117 115.784 231.464 128.83C235.778 122.816 241.06 117.639 247.819 113.737C281.657 94.2013 336.606 115.76 376.567 107.729L376.565 107.73Z" fill="#222222"/>
<path d="M471.917 65.8079C464.757 67.7108 457.584 70.5288 450.423 73.8305C453.139 72.9068 455.863 72.1168 458.595 71.4885C463.038 69.4707 467.483 67.5471 471.919 65.8081L471.917 65.8079Z" fill="#222222"/>
<path d="M231.462 128.832C227.619 134.188 224.544 140.207 221.88 146.584C223.16 144.432 224.559 142.371 226.101 140.417C227.789 136.458 229.554 132.573 231.462 128.83L231.462 128.832Z" fill="#222222"/>
<path d="M450.424 73.8289C443.526 76.1749 436.677 79.3856 429.875 83.0291C432.412 81.9612 434.965 81.0133 437.536 80.2081C441.824 77.97 446.122 75.8127 450.424 73.8301L450.424 73.8289Z" fill="#222222"/>
<path d="M221.878 146.585C218.609 152.08 216.115 158.166 214.017 164.555C215.041 162.409 216.178 160.34 217.452 158.361C218.832 154.352 220.281 150.405 221.878 146.585Z" fill="#222222"/>
<path d="M550.686 134.706C559.757 138.254 570.67 139.966 582.219 141.035C586.423 141.004 590.55 141.066 594.548 141.288C584.971 139.683 576.034 137.503 568.499 134.069C536.436 119.454 516.612 73.0363 476.928 69.9612C470.776 69.4847 464.666 70.0899 458.595 71.4885C453.52 73.7935 448.448 76.2226 443.395 78.6413C447.981 77.6294 452.628 77.1221 457.346 77.2574C496.107 78.3663 518.539 122.131 550.686 134.707L550.686 134.706Z" fill="#222222"/>
<path d="M349.354 128.944C358.733 126.113 368.019 121.053 377.329 115.172C380.538 112.645 383.783 110.217 387.082 107.969C378.792 112.384 370.558 116.041 362.372 118.094C324.064 127.7 269.157 109.49 237.591 129.898C233.029 132.848 229.265 136.406 226.099 140.417C224.182 144.911 222.364 149.5 220.54 154.089C222.92 151.154 225.692 148.482 228.945 146.133C258.214 125.012 312.797 139.982 349.354 128.945L349.354 128.944Z" fill="#222222"/>
<path d="M210.513 176.589C211.591 172.507 212.729 168.473 214.017 164.553C211.425 169.982 209.558 175.897 208.049 182.055C208.14 181.89 208.231 181.725 208.321 181.558C208.976 179.857 209.702 178.199 210.513 176.589Z" fill="#222222"/>
<path d="M417.351 90.1547C421.509 87.6821 425.683 85.2743 429.874 83.0287C423.62 85.6627 417.461 89.0211 411.368 92.7384C411.691 92.6218 412.013 92.5052 412.334 92.3861C413.994 91.585 415.666 90.8378 417.351 90.1547Z" fill="#222222"/>
<path d="M443.396 78.6414C441.431 79.0745 439.479 79.6 437.535 80.2085C432.477 82.8486 427.432 85.6009 422.41 88.3106C422.518 88.2755 422.626 88.2418 422.735 88.2081C429.553 85.2686 436.455 81.9652 443.396 78.6414Z" fill="#222222"/>
<path d="M220.541 154.089C219.431 155.458 218.404 156.884 217.454 158.361C215.838 163.055 214.318 167.835 212.77 172.592C212.806 172.536 212.842 172.478 212.878 172.421C215.606 166.476 218.078 160.284 220.541 154.088L220.541 154.089Z" fill="#222222"/>
<path d="M401.683 98.9288C400.526 99.4667 399.372 99.9902 398.22 100.498C395.981 101.965 393.756 103.495 391.545 105.065C393.644 103.768 395.766 102.553 397.918 101.443C399.171 100.6 400.425 99.761 401.683 98.9288Z" fill="#222222"/>
<path d="M407.285 96.23C410.133 94.5004 412.991 92.7624 415.855 91.0478C414.678 91.5092 413.505 91.9565 412.334 92.3871C411.645 92.7196 410.957 93.0622 410.271 93.4124C407.395 95.1892 404.534 97.0401 401.684 98.9276C403.546 98.0613 405.414 97.1591 407.285 96.2289L407.285 96.23Z" fill="#222222"/>
<path d="M422.081 88.4878C422.191 88.4285 422.3 88.3689 422.409 88.3107C420.71 88.8579 419.024 89.4766 417.351 90.1556C416.852 90.4517 416.354 90.7492 415.855 91.0479C417.922 90.2367 419.997 89.3801 422.08 88.489L422.081 88.4878Z" fill="#222222"/>
<path d="M216.333 178.443C240.988 156.36 294.133 165.234 326.95 151.781C338.797 146.924 349.892 138.021 361.051 128.651C363.413 126.517 365.798 124.431 368.22 122.428C358.102 129.846 347.987 136.494 337.54 140.202C302.819 152.521 248.827 140.668 221.867 162.347C218.188 165.304 215.251 168.697 212.877 172.423C212.817 172.555 212.756 172.687 212.695 172.819C211.189 177.442 209.656 182.042 207.98 186.523C207.516 188.36 207.051 190.197 206.576 192.026C208.815 186.977 211.937 182.383 216.334 178.443L216.333 178.443Z" fill="#222222"/>
<path d="M421.377 94.4677C457.861 92.0017 484.66 130.282 516.456 138.968C528.943 142.38 544.301 142.196 559.919 141.669C563.258 141.443 566.564 141.262 569.811 141.163C556.537 140.8 543.806 139.823 533.31 136.353C501.255 125.757 476.497 84.7118 438.807 85.4512C433.298 85.5588 427.953 86.5525 422.735 88.2046C422.517 88.2991 422.298 88.3922 422.081 88.4855C417.123 91.1596 412.188 93.7897 407.286 96.2267C405.389 97.3782 403.493 98.5262 401.603 99.6603C407.898 96.8212 414.453 94.9337 421.377 94.4653L421.377 94.4677Z" fill="#222222"/>
<path d="M391.546 105.064C390.046 105.991 388.56 106.961 387.083 107.968C387.644 107.67 388.206 107.367 388.767 107.061C389.692 106.389 390.619 105.723 391.546 105.064Z" fill="#222222"/>
<path d="M381.183 112.695C379.898 113.534 378.613 114.361 377.328 115.172C375.965 116.246 374.609 117.339 373.257 118.442C374.977 117.145 376.72 115.906 378.486 114.733C379.384 114.054 380.282 113.374 381.182 112.696L381.183 112.695Z" fill="#222222"/>
<path d="M388.767 107.061C386.226 108.907 383.7 110.796 381.184 112.694C385.32 109.995 389.461 107.174 393.62 104.351C392 105.276 390.383 106.182 388.767 107.061Z" fill="#222222"/>
<path d="M397.92 101.444C396.484 102.41 395.051 103.381 393.619 104.353C396.274 102.835 398.935 101.264 401.603 99.6632C400.366 100.221 399.137 100.816 397.92 101.444Z" fill="#222222"/>
<path d="M373.258 118.442C371.56 119.722 369.881 121.054 368.221 122.428C368.863 121.958 369.506 121.484 370.149 121.007C371.183 120.147 372.218 119.291 373.259 118.443L373.258 118.442Z" fill="#222222"/>
<path d="M528.227 503.887C559.083 489.452 611.142 495.494 633.507 473.157C639.372 467.301 642.472 460.213 644.055 452.448C644.404 449.288 644.749 446.124 645.139 442.985C645.307 439.505 645.429 436.001 645.581 432.511C645.467 415.485 643.326 397.537 649.168 383.098C659.902 356.576 705.177 330.189 702.943 301.374C702.326 293.428 698.19 286.492 692.215 280.118C689.869 277.971 687.526 275.832 685.24 273.69C682.396 271.359 679.507 269.049 676.658 266.74C661.982 255.81 645.175 245.707 637.563 233.423C622.408 208.966 633.741 165.368 608.341 148.552C601.68 144.143 593.313 142.119 584.008 141.404C580.198 141.357 576.384 141.314 572.603 141.232C568.39 141.36 564.147 141.528 559.921 141.67C539.242 143.072 517.287 146.224 500.207 142.492C468.832 135.635 440.274 100.149 405.119 104.213C395.426 105.333 386.686 109.293 378.489 114.733C375.703 116.842 372.926 118.947 370.15 121.006C367.102 123.541 364.076 126.112 361.054 128.65C346.658 141.65 333.101 156.35 317.603 163.6C286.747 178.036 234.688 171.993 212.322 194.33C206.458 200.187 203.358 207.275 201.775 215.04C201.425 218.2 201.081 221.363 200.691 224.503C200.523 227.983 200.401 231.486 200.249 234.976C200.363 252.002 202.504 269.951 196.662 284.389C185.928 310.912 140.653 337.298 142.887 366.113C143.504 374.059 147.639 380.996 153.615 387.37C155.961 389.516 158.304 391.656 160.59 393.798C163.434 396.128 166.323 398.438 169.172 400.747C183.849 411.677 200.655 421.78 208.267 434.064C223.422 458.522 212.089 502.119 237.489 518.935C244.15 523.345 252.516 525.369 261.822 526.084C265.632 526.131 269.446 526.174 273.227 526.255C277.44 526.127 281.683 525.959 285.909 525.817C306.588 524.415 328.543 521.263 345.623 524.995C376.998 531.852 405.556 567.339 440.711 563.275C450.404 562.154 459.144 558.194 467.341 552.754C470.127 550.645 472.904 548.54 475.68 546.481C478.728 543.946 481.754 541.375 484.776 538.837C499.172 525.837 512.729 511.137 528.227 503.886L528.227 503.887ZM455.747 552.887C422.03 558.415 392.001 525.733 361.194 520.62C329.259 515.319 281.927 534.771 256.222 519.836C230.517 504.901 238.507 462.592 222.187 439.858C206.445 417.927 158.464 405.287 154.343 377.775C150.222 350.264 192.204 322.873 200.777 296.956C209.666 270.089 189.684 232.366 209.79 209.921C229.896 187.476 280.646 190.847 309.5 175.58C337.334 160.853 356.364 120.128 390.081 114.601C423.798 109.074 453.827 141.755 484.634 146.868C516.569 152.169 563.901 132.717 589.606 147.652C615.311 162.588 607.322 204.896 623.641 227.63C639.383 249.561 687.364 262.201 691.485 289.713C695.607 317.225 653.624 344.615 645.051 370.532C636.163 397.399 656.145 435.122 636.038 457.567C615.932 480.012 565.182 476.641 536.328 491.908C508.495 506.635 489.464 547.36 455.747 552.887Z" fill="#222222"/>
<path d="M637.13 442.36C655.019 419.946 633.159 384.771 639.915 358.646C646.433 333.445 685.11 305.284 679.259 279.146C673.409 253.007 626.219 243.135 609.526 222.877C592.223 201.876 597.062 161.015 571.224 147.914C545.387 134.813 501.004 155.626 469.806 152.034C439.711 148.569 408.492 118.686 376.311 125.541C344.128 132.395 328.519 172.252 302.643 187.639C275.818 203.588 226.582 202.716 208.693 225.129C190.804 247.543 212.664 282.718 205.908 308.843C199.39 334.044 160.713 362.205 166.564 388.343C172.414 414.482 219.604 424.354 236.298 444.611C253.601 465.612 248.762 506.473 274.599 519.574C300.437 532.675 344.82 511.862 376.017 515.453C406.113 518.919 437.331 548.802 469.513 541.947C501.696 535.093 517.304 495.236 543.18 479.849C570.004 463.9 619.24 464.772 637.129 442.358L637.13 442.36ZM481.977 530.549C451.412 538.59 419.283 511.477 390.03 509.562C359.706 507.574 318.324 529.519 292.522 518.197C266.72 506.874 268.614 467.602 250.504 448.335C233.035 429.749 186.864 422.501 179.448 397.794C172.033 373.087 207.415 344.385 211.988 320C216.73 294.722 193.265 262.121 208.992 239.873C224.72 217.625 272.252 216.179 297.034 199.695C320.939 183.793 333.284 144.982 363.849 136.941C394.413 128.9 426.543 156.011 455.796 157.928C486.12 159.915 527.502 137.97 553.304 149.293C579.106 160.616 577.211 199.887 595.322 219.154C612.791 237.74 658.962 244.988 666.377 269.695C673.793 294.402 638.41 323.104 633.838 347.489C629.096 372.767 652.561 405.369 636.834 427.616C621.106 449.864 573.574 451.31 548.792 467.795C524.887 483.696 512.542 522.508 481.977 530.549Z" fill="#222222"/>
<path d="M635.209 413.412C648.842 391.458 624.045 361.439 626.895 337.103C629.645 313.626 661.761 284.606 652.949 261.375C644.137 238.145 599.198 233.365 581.122 216.44C562.382 198.896 561.544 161.339 535.938 151.73C510.331 142.12 471.982 164.971 442.656 164.478C414.365 164.002 381.599 139.621 352.719 148.706C323.84 157.792 314.587 195.392 292.651 211.669C269.912 228.543 224.252 232.121 210.62 254.075C196.987 276.029 221.785 306.049 218.934 330.385C216.184 353.862 184.068 382.882 192.88 406.113C201.693 429.343 246.631 434.122 264.708 451.047C283.448 468.592 284.285 506.149 309.892 515.758C335.498 525.368 373.847 502.516 403.174 503.01C431.465 503.485 464.231 527.867 493.11 518.781C521.99 509.696 531.242 472.095 553.178 455.819C575.917 438.945 621.578 435.367 635.209 413.412ZM502.889 506.738C475.751 516.724 442.614 495.017 415.394 495.869C387.178 496.753 351.87 520.287 326.614 512.318C301.356 504.348 298.01 468.616 278.816 452.772C260.299 437.487 216.791 435.009 206.751 413.292C196.71 391.574 225.609 362.451 226.664 339.963C227.757 316.652 201.897 289.205 213.512 267.667C225.127 246.128 268.764 240.612 289.474 223.492C309.452 206.976 315.801 170.737 342.938 160.751C370.077 150.764 403.213 172.472 430.434 171.62C458.65 170.735 493.958 147.201 519.214 155.171C544.471 163.14 547.817 198.872 567.012 214.717C585.528 230.002 629.037 232.479 639.077 254.197C649.117 275.916 620.219 305.038 619.163 327.526C618.07 350.837 643.93 378.284 632.316 399.821C620.701 421.36 577.064 426.876 556.354 443.997C536.376 460.512 530.027 496.751 502.889 506.738Z" fill="#222222"/>
<path d="M628.227 386.909C637.913 365.899 611.256 341 610.731 318.789C610.224 297.364 635.978 268.347 624.881 248.163C613.784 227.979 571.885 227.63 553.093 213.953C533.612 199.775 527.989 165.961 503.225 159.549C478.461 153.137 446.186 177.135 419.18 179.276C393.131 181.341 359.88 162.231 334.524 172.975C309.168 183.719 305.526 218.461 287.478 235.082C268.77 252.312 227.286 259.567 217.6 280.577C207.914 301.588 234.571 326.487 235.096 348.698C235.603 370.123 209.851 399.14 220.946 419.323C232.043 439.507 273.942 439.857 292.734 453.534C312.215 467.712 317.838 501.526 342.602 507.938C367.366 514.35 399.642 490.351 426.647 488.211C452.697 486.146 485.948 505.255 511.303 494.512C536.66 483.767 540.301 449.025 558.349 432.405C577.058 415.175 618.541 407.92 628.227 386.909ZM559.198 421.112C543.044 437.71 541.898 470.836 518.352 482.195C494.806 493.554 461.691 476.955 436.894 480.11C411.189 483.383 381.913 507.635 357.776 502.69C333.639 497.746 325.98 465.927 306.377 453.373C287.466 441.262 247.338 442.856 235.356 424.22C223.373 405.583 246.069 376.871 244.141 356.568C242.142 335.521 214.948 313.127 222.804 292.749C230.66 272.37 269.878 263.581 286.624 246.375C302.779 229.777 303.925 196.651 327.471 185.292C351.017 173.933 384.132 190.532 408.928 187.377C434.634 184.104 463.91 159.852 488.047 164.797C512.184 169.741 519.843 201.56 539.446 214.114C558.356 226.225 598.485 224.631 610.467 243.268C622.449 261.904 599.754 290.616 601.681 310.919C603.681 331.966 630.875 354.361 623.019 374.739C615.163 395.117 575.945 403.906 559.198 421.112Z" fill="#222222"/>
<path d="M592.108 303.939C588.901 284.812 608.645 256.594 595.949 239.504C583.253 222.414 545.037 225.764 526.163 215.168C506.598 204.184 497.143 174.418 473.761 170.846C450.379 167.273 424.048 191.571 399.721 195.848C376.253 199.973 343.511 185.781 321.788 197.613C300.065 209.444 301.198 240.851 286.885 257.303C272.047 274.357 235.184 284.476 229.052 304.123C222.919 323.771 250.396 343.722 253.72 363.55C256.926 382.677 237.182 410.895 249.878 427.985C262.574 445.075 300.791 441.724 319.665 452.321C339.23 463.305 348.684 493.071 372.066 496.643C395.448 500.216 421.78 475.918 446.107 471.641C469.575 467.516 502.316 481.708 524.039 469.876C545.762 458.045 544.629 426.638 558.943 410.186C573.781 393.132 610.643 383.013 616.776 363.365C622.908 343.718 595.432 323.767 592.108 303.939ZM557.626 399.692C545.095 415.879 548.281 445.481 528.379 457.645C508.478 469.81 476.337 457.909 454.256 462.878C431.367 468.029 407.913 492.175 385.399 489.873C362.885 487.57 351.882 459.9 332.507 450.425C313.817 441.285 277.635 446.198 264.395 430.643C251.155 415.088 268.071 387.544 263.734 369.63C259.238 351.061 231.724 333.483 236.248 314.652C240.772 295.821 275.21 284.58 288.201 267.799C300.732 251.612 297.546 222.01 317.447 209.846C337.348 197.682 369.49 209.582 391.571 204.613C414.46 199.462 437.913 175.316 460.428 177.618C482.942 179.921 493.945 207.591 513.32 217.066C532.009 226.206 568.192 221.293 581.432 236.848C594.671 252.403 577.756 279.948 582.093 297.861C586.589 316.43 614.103 334.009 609.578 352.84C605.054 371.67 570.616 382.912 557.626 399.692Z" fill="#222222"/>
<path d="M571.734 292.693C566.415 276.026 580.643 249.319 567.025 235.279C553.407 221.238 519.363 227.514 500.996 219.761C481.957 211.725 469.653 186.174 448.11 185.034C426.568 183.893 405.903 207.697 384.502 213.593C363.858 219.28 332.528 209.542 314.436 221.903C296.344 234.265 301.35 261.99 290.527 277.803C279.308 294.195 247.344 306.351 244.306 324.288C241.266 342.225 268.579 357.519 274.093 374.798C279.412 391.466 265.184 418.172 278.802 432.213C292.42 446.253 326.464 439.977 344.831 447.73C363.87 455.767 376.174 481.317 397.717 482.457C419.259 483.598 439.924 459.794 461.326 453.898C481.969 448.211 513.299 457.949 531.391 445.588C549.483 433.226 544.478 405.501 555.3 389.688C566.519 373.296 598.483 361.14 601.521 343.203C604.56 325.266 577.248 309.972 571.734 292.693ZM552.019 380.231C542.824 395.565 549.414 421.361 533.104 433.788C516.794 446.214 486.472 438.498 467.301 444.775C447.427 451.282 429.443 474.565 408.964 474.475C388.485 474.384 375.13 450.962 356.563 444.285C338.653 437.844 306.83 445.285 292.995 432.725C279.161 420.166 290.857 394.45 284.708 379.048C278.335 363.081 251.449 349.969 253.132 332.993C254.814 316.019 284.275 303.155 293.807 287.259C303.002 271.924 296.412 246.129 312.722 233.702C329.033 221.275 359.354 228.991 378.525 222.714C398.399 216.207 416.383 192.924 436.862 193.015C457.341 193.106 470.696 216.528 489.263 223.205C507.174 229.646 538.997 222.205 552.831 234.765C566.665 247.324 554.969 273.039 561.118 288.441C567.491 304.408 594.377 317.521 592.694 334.496C591.012 351.47 561.551 364.335 552.019 380.231Z" fill="#222222"/>
</svg>
