<svg width="37" height="43" viewBox="0 0 37 43" fill="none" xmlns="http://www.w3.org/2000/svg">
<path d="M18.4258 41.9998L35.8575 31.7499V11.25L18.4258 21.4999V41.9998Z" fill="#D0E1EE" stroke="#222222" stroke-width="2" stroke-linecap="round" stroke-linejoin="round"/>
<path d="M26.2656 37.3872L28.0081 36.3622V15.8623L26.2656 16.8873V37.3872Z" fill="#222222"/>
<path d="M35.8575 22.5246V20.4746L18.4258 30.7245V32.7745L35.8575 22.5246Z" fill="#222222"/>
<path d="M18.4283 21.4999L35.86 11.2499L18.4283 1L1 11.2499L18.4283 21.4999Z" fill="#D0E1EE" stroke="#222222" stroke-width="2" stroke-linecap="round" stroke-linejoin="round"/>
<path d="M26.2716 16.8872L28.0141 15.8622L10.5858 5.6123L8.83984 6.6373L26.2716 16.8872Z" fill="#222222"/>
<path d="M28.0141 6.6373L26.2716 5.6123L8.83984 15.8622L10.5858 16.8872L28.0141 6.6373Z" fill="#222222"/>
<path d="M1 31.7499L18.4283 41.9998V21.4999L1 11.25V31.7499Z" fill="#D0E1EE" stroke="#222222" stroke-width="2" stroke-linecap="round" stroke-linejoin="round"/>
<path d="M8.83984 36.3622L10.5858 37.3872V16.8873L8.83984 15.8623V36.3622Z" fill="#222222"/>
<path d="M18.4283 32.7745V30.7245L1 20.4746V22.5246L18.4283 32.7745Z" fill="#222222"/>
<path d="M16.8921 29.1986L10.7422 25.6501V18.5469L16.8921 22.1016V29.1986Z" fill="white"/>
<path d="M15.8634 24.5187L14.2891 23.6084V21.7881L15.8634 22.6983V24.5187ZM14.4305 23.5285L15.722 24.2727V22.7844L14.4305 22.0402V23.5285Z" fill="#222222"/>
<path d="M12.9266 22.3243L12.207 21.9123V21.082L12.9266 21.4941V22.3243Z" fill="#222222"/>
<path d="M13.7785 21.9912L13.4219 21.7822V21.3701L13.7785 21.5792V21.9912Z" fill="#222222"/>
<path d="M14.1442 22.6133L13.7812 22.4043V21.9922L14.1442 22.2013V22.6133Z" fill="#222222"/>
<path d="M13.7785 22.8162L13.4219 22.6132V22.2012L13.7785 22.4041V22.8162Z" fill="#222222"/>
<path d="M14.1442 23.4366L13.7812 23.2336V22.8154L14.1442 23.0245V23.4366Z" fill="#222222"/>
<path d="M13.7785 23.6465L13.4219 23.4374V23.0254L13.7785 23.2345V23.6465Z" fill="#222222"/>
<path d="M13.7785 24.0577L13.4219 23.8547V23.4365L13.7785 23.6456V24.0577Z" fill="#222222"/>
<path d="M14.1442 24.6778L13.7812 24.4748V24.0566L14.1442 24.2657V24.6778Z" fill="#222222"/>
<path d="M13.7785 24.8878L13.4219 24.6787V24.2666L13.7785 24.4757V24.8878Z" fill="#222222"/>
<path d="M14.1442 25.0967L13.7812 24.8876V24.4756L14.1442 24.6785V25.0967Z" fill="#222222"/>
<path d="M13.8824 25.3614L13.5195 25.1523V24.7402L13.8824 24.9432V25.3614Z" fill="#222222"/>
<path d="M14.1442 25.921L13.7812 25.718V25.2998L14.1442 25.5089V25.921Z" fill="#222222"/>
<path d="M13.9075 26.2042L13.5508 25.995V25.583L13.9075 25.7921V26.2042Z" fill="#222222"/>
<path d="M14.5012 24.4766L14.1445 24.2675V23.8555L14.5012 24.0584V24.4766Z" fill="#222222"/>
<path d="M14.8567 24.4766L14.5 24.2675V23.8555L14.8567 24.0584V24.4766Z" fill="#222222"/>
<path d="M15.2122 25.0967L14.8555 24.8876V24.4756L15.2122 24.6785V25.0967Z" fill="#222222"/>
<path d="M15.5777 24.8878L15.2148 24.6787V24.2666L15.5777 24.4757V24.8878Z" fill="#222222"/>
<path d="M13.4231 23.7081L13.0664 23.499V23.0869L13.4231 23.2899V23.7081Z" fill="#222222"/>
<path d="M13.0716 23.7081L12.7148 23.499V23.0869L13.0716 23.2899V23.7081Z" fill="#222222"/>
<path d="M12.7144 23.2335L12.3516 23.0244V22.6123L12.7144 22.8153V23.2335Z" fill="#222222"/>
<path d="M12.3489 23.2647L11.9922 23.0556V22.6436L12.3489 22.8465V23.2647Z" fill="#222222"/>
<path d="M12.7144 23.6465L12.3516 23.4374V23.0254L12.7144 23.2345V23.6465Z" fill="#222222"/>
<path d="M14.1442 23.8546L13.7812 23.6454V23.2334L14.1442 23.4364V23.8546Z" fill="#222222"/>
<path d="M13.3596 23.0684L11.7852 22.1583V20.3379L13.3596 21.2481V23.0684ZM11.9267 22.0783L13.2181 22.8225V21.3342L11.9267 20.59V22.0783Z" fill="#222222"/>
<path d="M11.5247 20.6875L11.457 20.6445V19.7773L12.2073 20.214V20.294L11.5247 19.9004V20.6875Z" fill="#222222"/>
<path d="M16.1878 23.3758L16.114 23.3389V22.5517L15.4375 22.1581V22.0781L16.1878 22.5086V23.3758Z" fill="#222222"/>
<path d="M12.2073 25.6749L11.457 25.2382V24.3711L11.5247 24.4141V25.2013L12.2073 25.5888V25.6749Z" fill="#222222"/>
<path d="M16.1878 27.9688L15.4375 27.5383V27.4522L16.114 27.8458V27.0586L16.1878 27.1016V27.9688Z" fill="#222222"/>
<path d="M15.4344 23.7684L14.7148 23.3563V22.5322L15.4344 22.9443V23.7684Z" fill="#222222"/>
<path d="M12.9266 25.2188L12.207 24.8068V23.9766L12.9266 24.3886V25.2188Z" fill="#222222"/>
<path d="M13.3596 25.964L11.7852 25.0538V23.2334L13.3596 24.1436V25.964ZM11.9267 24.9738L13.2181 25.718V24.2297L11.9267 23.4856V24.9738Z" fill="#222222"/>
<path d="M15.4344 26.6649L14.7148 26.2528V25.4287L15.4344 25.8407V26.6649Z" fill="#222222"/>
<path d="M15.8634 27.4161L14.2891 26.5059V24.6855L15.8634 25.5958V27.4161ZM14.4305 26.426L15.722 27.1702V25.6818L14.4305 24.9377V26.426Z" fill="#222222"/>
</svg>
