<svg width="422" height="395" viewBox="0 0 422 395" fill="none" xmlns="http://www.w3.org/2000/svg">
<path d="M58.3321 192.292V196.22L94.5472 175.493V171.586L115.26 159.736L118.365 161.711L115.26 177.099L40.7239 223.48L37.6191 221.505V204.142L58.3321 192.292Z" fill="#000F20"/>
<path d="M60.9149 195.15V198.195V199.057L61.6631 198.629L97.8999 177.902L98.1517 177.758V177.468V173.852L117.865 162.574V178.784L41.2236 222.618V206.407L60.9149 195.15Z" fill="url(#paint0_linear_2211_31347)" stroke="#222222"/>
<path d="M186.94 294.863C186.94 289.922 189.575 285.349 193.848 282.84H193.868L193.983 282.774L206.458 275.645L253.973 302.728L240.139 322.092L240.099 322.148L240.076 322.211L234.396 337.737L186.897 310.591L186.94 294.864V294.863Z" fill="#222222" stroke="url(#paint1_linear_2211_31347)"/>
<path d="M244.767 308.84L244.767 308.84L254.223 303.43V326.694L235.184 337.582V325.357C235.184 318.526 238.844 312.224 244.767 308.84Z" fill="#222222" stroke="url(#paint2_linear_2211_31347)"/>
<path d="M58.4493 217.77C58.4493 217.77 50.6331 221.004 50.3291 232.767L55.6485 229.967L63.4647 223.716L69.0012 220.396L71.4546 217.162C68.6538 212.474 58.4493 217.77 58.4493 217.77Z" fill="url(#paint3_linear_2211_31347)"/>
<path d="M60.7944 220.027L74.6247 212.04C75.3195 211.498 76.0794 211.064 76.8611 210.738H76.8828C79.9875 209.457 83.7871 209.805 87.8906 212.084C98.3773 217.922 106.888 234.156 106.888 248.35C106.888 256.402 104.153 262.067 99.8754 264.411H99.8972L83.57 273.765L83.8522 270.314L86.9353 263.391C86.9353 263.391 87.0438 263.282 87.2175 263.109C77.013 256.988 68.8712 241.123 68.8712 227.211C68.8712 225.692 68.9797 224.238 69.1534 222.892H66.8954L60.751 220.005L60.7944 220.027Z" fill="black"/>
<path d="M52.4355 236.674C52.4355 250.868 60.9465 267.124 71.4333 272.94C81.92 278.779 90.431 271.985 90.431 257.791C90.431 243.597 81.92 227.341 71.4333 221.525C60.9465 215.686 52.4355 222.48 52.4355 236.674Z" fill="#222222"/>
<path d="M58.3193 239.951C58.3193 249.761 64.2032 260.982 71.4332 264.997C78.6849 269.034 84.5471 264.346 84.5471 254.536C84.5471 244.726 78.6632 233.505 71.4332 229.49C64.1815 225.453 58.3193 230.141 58.3193 239.951Z" fill="url(#paint4_linear_2211_31347)"/>
<path d="M60.7725 241.318C60.7725 249.283 65.549 258.399 71.4329 261.676C77.3168 264.953 82.0933 261.134 82.0933 253.168C82.0933 245.203 77.3168 236.088 71.4329 232.81C65.549 229.533 60.7725 233.353 60.7725 241.318Z" fill="#000F20"/>
<path d="M62.3359 242.186C62.3359 249.001 66.4177 256.771 71.4548 259.571C76.492 262.371 80.5738 259.115 80.5738 252.3C80.5738 245.485 76.492 237.716 71.4548 234.916C66.4177 232.116 62.3359 235.372 62.3359 242.186Z" fill="#222222"/>
<path d="M63 242.759C63 248.727 66.5824 255.564 70.9899 258.016C75.3974 260.469 78.9798 257.625 78.9798 251.635C78.9798 245.645 75.3974 238.83 70.9899 236.378C66.5824 233.925 63 236.768 63 242.759Z" fill="#222222"/>
<path d="M68.1328 245.398C68.1328 247.873 69.6092 250.694 71.433 251.714C73.2568 252.734 74.7332 251.541 74.7332 249.066C74.7332 246.592 73.2568 243.771 71.433 242.751C69.6092 241.731 68.1328 242.924 68.1328 245.398Z" fill="#D7F0FF"/>
<path d="M67.3291 245.985C67.3291 248.329 68.7404 251.02 70.4773 251.975C72.2142 252.93 73.6255 251.823 73.6255 249.479C73.6255 247.135 72.2142 244.444 70.4773 243.489C68.7404 242.534 67.3291 243.641 67.3291 245.985Z" fill="url(#paint5_linear_2211_31347)"/>
<path d="M64.8974 238.258C64.7671 238.193 64.6586 238.106 64.5283 237.997C65.0277 237.108 65.679 236.435 66.4607 236.022C66.5258 236.305 66.5692 236.608 66.5692 236.891C66.5692 238.149 65.8093 238.757 64.8757 238.236L64.8974 238.258Z" fill="url(#paint6_linear_2211_31347)"/>
<path d="M65.5056 249.891C66.4392 250.412 67.1991 251.866 67.1991 253.125C67.1991 253.407 67.1557 253.668 67.0906 253.863C66.2221 252.604 65.4622 251.193 64.876 249.696C65.0714 249.696 65.2885 249.761 65.5273 249.869L65.5056 249.891Z" fill="url(#paint7_linear_2211_31347)"/>
<path d="M71.4543 236.435C71.9971 236.739 72.5399 237.108 73.061 237.542C72.8439 238.345 72.2142 238.67 71.4543 238.258C70.6944 237.846 70.0648 236.804 69.8477 235.762C70.3687 235.914 70.9115 236.131 71.4543 236.435Z" fill="url(#paint8_linear_2211_31347)"/>
<path d="M64.8978 242.816C64.8978 243.923 64.3116 244.53 63.5517 244.313C63.5083 243.814 63.4648 243.293 63.4648 242.794C63.4648 241.774 63.5734 240.862 63.7688 240.038C64.4202 240.71 64.8978 241.817 64.8978 242.816Z" fill="url(#paint9_linear_2211_31347)"/>
<path d="M75.9488 258.681C75.7968 258.269 75.71 257.813 75.71 257.4C75.71 256.142 76.4699 255.534 77.4035 256.055C77.6857 256.207 77.968 256.467 78.1851 256.771C77.5989 257.704 76.839 258.355 75.9271 258.703L75.9488 258.681Z" fill="url(#paint10_linear_2211_31347)"/>
<path d="M71.4548 256.033C72.2581 256.489 72.9312 257.618 73.1049 258.746C72.5621 258.594 72.0193 258.377 71.4548 258.052C70.8903 257.726 70.3258 257.357 69.8047 256.901C69.9784 255.968 70.6514 255.577 71.4548 256.033Z" fill="url(#paint11_linear_2211_31347)"/>
<path d="M78.0332 250.608C78.0332 249.566 78.5326 249.002 79.2273 249.088C79.3576 249.956 79.4445 250.825 79.4445 251.671C79.4445 252.322 79.401 252.952 79.3142 253.538C78.576 252.886 78.0332 251.671 78.0332 250.608Z" fill="url(#paint12_linear_2211_31347)"/>
<path d="M77.4259 244.812C76.4923 244.292 75.7324 242.837 75.7324 241.579C75.7324 241.231 75.7976 240.949 75.8844 240.71C76.7746 242.013 77.5345 243.467 78.1207 245.008C77.9036 245.008 77.6648 244.964 77.4259 244.834V244.812Z" fill="url(#paint13_linear_2211_31347)"/>
<path d="M109.478 239.011C110.085 241.082 110.644 244.094 110.465 247.892L93.8324 255.404C93.8235 255.233 93.812 255.034 93.7971 254.809C93.7401 253.952 93.6336 252.72 93.4353 251.217C93.0388 248.211 92.2743 244.111 90.8012 239.742C87.8585 231.013 82.0581 221.124 70.6326 216.805L70.6322 216.805L70.6307 216.804L70.6261 216.803L70.6101 216.797C70.5964 216.792 70.5767 216.785 70.5513 216.776C70.5004 216.757 70.4264 216.732 70.3311 216.7C70.1404 216.637 69.8639 216.551 69.5151 216.455C68.818 216.264 67.8296 216.034 66.6585 215.882C65.6031 215.744 64.3916 215.667 63.1067 215.739L68.6693 213.253L108.256 235.89C108.269 235.914 108.284 235.942 108.3 235.974C108.371 236.109 108.473 236.315 108.596 236.588C108.841 237.134 109.166 237.949 109.478 239.011Z" fill="#222222" stroke="url(#paint14_linear_2211_31347)"/>
<path d="M105.998 244.576C105.998 244.576 98.1819 247.81 97.8779 259.573L103.197 256.773L111.014 250.523L116.55 247.202L119.003 243.968C116.203 239.28 105.998 244.576 105.998 244.576Z" fill="url(#paint15_linear_2211_31347)"/>
<path d="M108.343 246.833L122.174 238.846C122.868 238.303 123.628 237.869 124.41 237.544H124.432C127.536 236.263 131.336 236.61 135.439 238.889C145.926 244.727 154.437 260.962 154.437 275.156C154.437 283.208 151.701 288.873 147.424 291.217H147.446L131.119 300.571L131.401 297.12L134.484 290.196C134.484 290.196 134.593 290.088 134.766 289.914C124.562 283.794 116.42 267.929 116.42 254.017C116.42 252.497 116.529 251.043 116.702 249.698H114.444L108.3 246.811L108.343 246.833Z" fill="black"/>
<path d="M129.996 301.119C138.549 297.644 140.553 282.701 134.471 267.744C128.389 252.786 116.524 243.478 107.971 246.953C99.4174 250.429 97.4138 265.372 103.496 280.329C109.578 295.287 121.442 304.595 129.996 301.119Z" fill="#222222"/>
<path d="M105.868 266.757C105.868 276.567 111.752 287.788 118.982 291.803C126.234 295.84 132.096 291.152 132.096 281.342C132.096 271.532 126.212 260.311 118.982 256.296C111.73 252.259 105.868 256.947 105.868 266.757Z" fill="url(#paint16_linear_2211_31347)"/>
<path d="M108.321 268.124C108.321 276.089 113.098 285.205 118.982 288.482C124.866 291.759 129.642 287.939 129.642 279.974C129.642 272.009 124.866 262.893 118.982 259.616C113.098 256.339 108.321 260.159 108.321 268.124Z" fill="#000F20"/>
<path d="M109.885 268.992C109.885 275.807 113.967 283.577 119.004 286.377C124.041 289.176 128.123 285.921 128.123 279.106C128.123 272.291 124.041 264.521 119.004 261.721C113.967 258.922 109.885 262.177 109.885 268.992Z" fill="#222222"/>
<path d="M123.619 285.437C127.218 283.974 128.06 277.685 125.5 271.389C122.94 265.092 117.947 261.174 114.348 262.636C110.749 264.099 109.906 270.388 112.467 276.684C115.027 282.98 120.02 286.899 123.619 285.437Z" fill="#222222"/>
<path d="M115.682 272.204C115.682 274.678 117.158 277.5 118.982 278.52C120.806 279.54 122.282 278.346 122.282 275.872C122.282 273.398 120.806 270.576 118.982 269.556C117.158 268.536 115.682 269.73 115.682 272.204Z" fill="#D7F0FF"/>
<path d="M114.856 272.79C114.856 275.134 116.268 277.826 118.005 278.781C119.742 279.735 121.153 278.629 121.153 276.285C121.153 273.941 119.742 271.249 118.005 270.294C116.268 269.339 114.856 270.446 114.856 272.79Z" fill="url(#paint17_linear_2211_31347)"/>
<path d="M112.424 265.064C112.294 264.998 112.185 264.912 112.055 264.803C112.554 263.913 113.205 263.24 113.987 262.828C114.052 263.11 114.096 263.414 114.096 263.696C114.096 264.955 113.336 265.563 112.402 265.042L112.424 265.064Z" fill="url(#paint18_linear_2211_31347)"/>
<path d="M113.032 276.697C113.966 277.218 114.725 278.672 114.725 279.931C114.725 280.213 114.682 280.473 114.617 280.669C113.748 279.41 112.989 277.999 112.402 276.501C112.598 276.501 112.815 276.567 113.054 276.675L113.032 276.697Z" fill="url(#paint19_linear_2211_31347)"/>
<path d="M118.981 263.241C119.523 263.545 120.066 263.913 120.587 264.348C120.37 265.151 119.741 265.476 118.981 265.064C118.221 264.651 117.591 263.61 117.374 262.568C117.895 262.72 118.438 262.937 118.981 263.241Z" fill="url(#paint20_linear_2211_31347)"/>
<path d="M112.424 269.621C112.424 270.728 111.838 271.336 111.078 271.119C111.035 270.62 110.991 270.099 110.991 269.6C110.991 268.58 111.1 267.668 111.295 266.843C111.947 267.516 112.424 268.623 112.424 269.621Z" fill="url(#paint21_linear_2211_31347)"/>
<path d="M123.498 285.487C123.346 285.074 123.259 284.618 123.259 284.206C123.259 282.947 124.019 282.34 124.952 282.86C125.235 283.012 125.517 283.273 125.734 283.577C125.148 284.51 124.388 285.161 123.476 285.508L123.498 285.487Z" fill="url(#paint22_linear_2211_31347)"/>
<path d="M118.981 282.839C119.784 283.295 120.458 284.423 120.631 285.552C120.088 285.4 119.546 285.183 118.981 284.857C118.417 284.532 117.852 284.163 117.331 283.707C117.505 282.774 118.178 282.383 118.981 282.839Z" fill="url(#paint23_linear_2211_31347)"/>
<path d="M125.56 277.413C125.56 276.371 126.059 275.807 126.754 275.894C126.884 276.762 126.971 277.63 126.971 278.477C126.971 279.128 126.927 279.757 126.841 280.343C126.102 279.692 125.56 278.477 125.56 277.413Z" fill="url(#paint24_linear_2211_31347)"/>
<path d="M124.952 271.618C124.019 271.097 123.259 269.643 123.259 268.384C123.259 268.037 123.324 267.755 123.411 267.516C124.301 268.818 125.061 270.272 125.647 271.813C125.43 271.813 125.191 271.77 124.952 271.64V271.618Z" fill="url(#paint25_linear_2211_31347)"/>
<path d="M158.013 275.195C158.193 271.397 157.634 268.385 157.027 266.314C156.715 265.251 156.39 264.436 156.145 263.891C156.022 263.618 155.92 263.412 155.849 263.277C155.833 263.245 155.818 263.217 155.805 263.193L116.218 240.556L110.656 243.042C111.94 242.97 113.152 243.047 114.207 243.184C115.378 243.337 116.367 243.566 117.064 243.758C117.413 243.853 117.689 243.94 117.88 244.003C117.975 244.034 118.049 244.06 118.1 244.078C118.126 244.087 118.145 244.094 118.159 244.099L118.175 244.105L118.18 244.107L118.181 244.108L118.181 244.108L158.013 275.195ZM158.013 275.195L141.381 282.707C141.372 282.536 141.361 282.337 141.346 282.112C141.289 281.255 141.182 280.023 140.984 278.519C140.588 275.513 139.823 271.414 138.35 267.044C135.407 258.316 129.607 248.427 118.182 244.108L158.013 275.195Z" fill="#222222" stroke="url(#paint26_linear_2211_31347)"/>
<path d="M3 61.1701L233.006 192.628V305.065L3 173.607V61.1701Z" fill="#222222" stroke="url(#paint27_linear_2211_31347)" stroke-width="6"/>
<g style="mix-blend-mode:multiply">
<path d="M4.16864 62.9622L231.837 193.097V302.852L4.16864 172.717V62.9622ZM0 55.7783V175.126L236.006 310.014V190.666L0 55.7783Z" fill="#222222"/>
</g>
<path d="M98.009 3.45441L327.941 134.502L235.982 187.103L6.05085 56.0346L98.009 3.45441Z" fill="#222222" stroke="url(#paint28_linear_2211_31347)" stroke-width="6"/>
<path d="M98.0498 4.79649L325.632 134.519L236.006 185.761L8.42391 56.0386L98.0498 4.79649ZM98.0498 0L0.0214844 56.0386L235.984 190.536L333.991 134.497L98.028 0H98.0498Z" fill="#222222"/>
<path d="M331.012 252.192L239.006 304.82V192.297L331.012 139.669V252.192Z" fill="#222222" stroke="url(#paint29_linear_2211_31347)" stroke-width="6"/>
<path d="M329.844 141.681V251.523L240.153 302.83V192.988L329.844 141.681ZM334.012 134.497L236.006 190.557V309.992L334.012 253.932V134.497Z" fill="#222222"/>
<path d="M392.44 269.86L395.068 271.553V233.268L392.44 231.575V269.86Z" fill="#263652"/>
<path d="M395.068 233.246L409.962 224.912L407.313 223.306L392.44 231.64L395.068 233.246Z" fill="url(#paint30_linear_2211_31347)"/>
<path d="M395.067 271.553L409.962 263.219V224.912L395.067 233.246V271.553Z" fill="#001E1A"/>
<path d="M330.628 177.576L398.188 216.326L311.566 265.864L244.006 227.114L330.628 177.576Z" fill="url(#paint31_linear_2211_31347)" stroke="#222222"/>
<path d="M247.125 347.59L254.681 343.987L268.707 334.372L278.933 327.123V321.654L256.396 309.478L245.128 307.221V312.669" fill="#000508"/>
<path d="M258.046 332.875L271.877 324.888C272.571 324.345 273.331 323.911 274.113 323.586H274.135C277.24 322.305 281.039 322.652 285.143 324.931C295.629 330.77 304.14 347.004 304.14 361.198C304.14 369.25 301.405 374.915 297.127 377.259H297.149L280.822 386.613L281.104 383.162L284.187 376.238C284.187 376.238 284.296 376.13 284.469 375.956C274.265 369.836 266.123 353.971 266.123 340.059C266.123 338.539 266.232 337.085 266.405 335.74H264.147L258.003 332.853L258.046 332.875Z" fill="#000F20"/>
<path d="M268.442 334.831L268.443 334.831C273.574 337.677 278.264 343.107 281.674 349.618C285.081 356.123 287.183 363.657 287.183 370.66C287.183 377.675 285.079 382.745 281.805 385.356C278.564 387.941 274.043 388.22 268.928 385.373L268.928 385.372C263.797 382.526 259.107 377.097 255.697 370.586C252.289 364.08 250.188 356.547 250.188 349.543C250.188 342.528 252.292 337.459 255.566 334.847C258.806 332.262 263.327 331.983 268.442 334.831Z" fill="#222222" stroke="url(#paint32_linear_2211_31347)"/>
<path d="M255.571 352.799C255.571 362.609 261.455 373.83 268.685 377.845C275.937 381.882 281.799 377.194 281.799 367.384C281.799 357.574 275.915 346.353 268.685 342.338C261.433 338.301 255.571 342.989 255.571 352.799Z" fill="url(#paint33_linear_2211_31347)"/>
<path d="M258.024 354.166C258.024 362.131 262.801 371.247 268.685 374.524C274.569 377.801 279.345 373.981 279.345 366.016C279.345 358.051 274.569 348.935 268.685 345.658C262.801 342.381 258.024 346.201 258.024 354.166Z" fill="#000F20"/>
<path d="M259.588 355.034C259.588 361.849 263.67 369.619 268.707 372.419C273.744 375.218 277.826 371.963 277.826 365.148C277.826 358.333 273.744 350.563 268.707 347.763C263.67 344.964 259.588 348.219 259.588 355.034Z" fill="white"/>
<path d="M273.344 371.486C276.944 370.024 277.786 363.735 275.226 357.438C272.666 351.142 267.673 347.224 264.073 348.686C260.474 350.148 259.632 356.438 262.192 362.734C264.752 369.03 269.745 372.949 273.344 371.486Z" fill="#222222"/>
<path d="M270.63 364.811C272.119 364.206 272.466 361.601 271.404 358.991C270.343 356.382 268.277 354.757 266.788 355.361C265.299 355.966 264.953 358.572 266.014 361.181C267.075 363.791 269.142 365.416 270.63 364.811Z" fill="#D7F0FF"/>
<path d="M264.582 358.854C264.582 361.198 265.993 363.889 267.73 364.844C269.467 365.799 270.878 364.692 270.878 362.348C270.878 360.004 269.467 357.313 267.73 356.358C265.993 355.403 264.582 356.51 264.582 358.854Z" fill="white"/>
<path d="M262.149 351.106C262.019 351.04 261.911 350.954 261.78 350.845C262.28 349.955 262.931 349.282 263.713 348.87C263.778 349.152 263.821 349.456 263.821 349.738C263.821 350.997 263.061 351.605 262.128 351.084L262.149 351.106Z" fill="url(#paint34_linear_2211_31347)"/>
<path d="M262.758 362.739C263.691 363.26 264.451 364.714 264.451 365.973C264.451 366.255 264.408 366.515 264.343 366.711C263.474 365.452 262.714 364.041 262.128 362.543C262.323 362.543 262.54 362.609 262.779 362.717L262.758 362.739Z" fill="url(#paint35_linear_2211_31347)"/>
<path d="M268.706 349.283C269.249 349.587 269.792 349.955 270.313 350.39C270.096 351.193 269.466 351.518 268.706 351.106C267.946 350.693 267.317 349.652 267.1 348.61C267.621 348.762 268.163 348.979 268.706 349.283Z" fill="url(#paint36_linear_2211_31347)"/>
<path d="M262.15 355.663C262.15 356.77 261.564 357.378 260.804 357.161C260.76 356.662 260.717 356.141 260.717 355.642C260.717 354.622 260.825 353.71 261.021 352.885C261.672 353.558 262.15 354.665 262.15 355.663Z" fill="url(#paint37_linear_2211_31347)"/>
<path d="M273.201 371.529C273.049 371.116 272.962 370.66 272.962 370.248C272.962 368.989 273.722 368.382 274.655 368.902C274.938 369.054 275.22 369.315 275.437 369.619C274.851 370.552 274.091 371.203 273.179 371.55L273.201 371.529Z" fill="url(#paint38_linear_2211_31347)"/>
<path d="M268.707 368.903C269.51 369.359 270.183 370.487 270.357 371.616C269.814 371.464 269.271 371.247 268.707 370.921C268.142 370.596 267.578 370.227 267.057 369.771C267.23 368.838 267.903 368.447 268.707 368.903Z" fill="url(#paint39_linear_2211_31347)"/>
<path d="M275.285 363.477C275.285 362.435 275.784 361.871 276.479 361.957C276.61 362.826 276.696 363.694 276.696 364.54C276.696 365.191 276.653 365.821 276.566 366.407C275.828 365.756 275.285 364.54 275.285 363.477Z" fill="url(#paint40_linear_2211_31347)"/>
<path d="M274.677 357.682C273.743 357.161 272.983 355.707 272.983 354.448C272.983 354.101 273.049 353.819 273.135 353.58C274.026 354.882 274.785 356.336 275.372 357.877C275.155 357.877 274.916 357.834 274.677 357.704V357.682Z" fill="url(#paint41_linear_2211_31347)"/>
<path d="M275.177 324.81V324.642L274.905 324.503L257.275 315.474L256.923 315.294L256.666 315.596L246.744 327.272L246.625 327.412V327.596V346.83L243.5 345.038V227.867L311.213 267.023L331.295 315.029L326.767 392.891L293.346 373.715C291.89 358.214 287.347 345.987 283.155 337.619C281.047 333.412 279.028 330.179 277.533 327.996C276.785 326.905 276.169 326.075 275.738 325.517C275.523 325.238 275.354 325.027 275.238 324.885C275.216 324.857 275.196 324.833 275.177 324.81Z" fill="#D0E1EE" stroke="#222222"/>
<path d="M278.34 310.371L265.356 303.708C259.082 300.995 255 294.831 255 287.995V245L305.545 274.213L314.946 312.802L317.052 356.469L295.536 344.12C290.043 325.325 278.34 310.371 278.34 310.371Z" fill="#B1C8DA"/>
<path d="M299.516 274.449L308.005 309.305L308.483 318.681L267.99 295.415V256.37L299.516 274.449Z" fill="black"/>
<path d="M269.358 294.742V258.627L298.517 275.339L306.659 308.763L307.028 316.381L269.358 294.742Z" fill="#161C21"/>
<path d="M421.297 320.83L412.634 316.293V319.809L412.981 321.741L415.261 323.022" fill="#133E93"/>
<path d="M327.198 381.925L414.826 331.812C414.826 331.812 414.327 289.294 412.416 275.144C410.419 260.45 399.215 216.349 399.215 216.349L311.587 266.462C311.587 266.462 321.9 303.966 323.593 316.467C325.808 332.832 327.198 381.925 327.198 381.925Z" fill="#B1C8DA"/>
<path d="M324.895 329.61C324.504 324.163 324.091 319.388 323.635 316.002C321.942 303.501 311.629 265.997 311.629 265.997L399.257 215.884C399.257 215.884 410.46 259.985 412.458 274.679C412.675 276.22 412.849 278.086 413.044 280.213L324.916 329.632L324.895 329.61Z" fill="#161C21"/>
<path d="M412.676 280.387L324.678 326.659L321.161 294.624L383.191 262.633L412.676 279.692V280.387Z" fill="#0F101B"/>
<path d="M311.913 266.067L399.074 216.221L399.12 216.4C399.202 216.727 399.324 217.208 399.479 217.825C399.789 219.059 400.234 220.839 400.775 223.021C401.856 227.384 403.319 233.356 404.844 239.785C407.895 252.651 411.192 267.337 412.189 274.669L412.189 274.67C412.4 276.166 412.59 277.972 412.76 280.03L325.116 329.178C324.734 323.893 324.33 319.259 323.883 315.947L323.883 315.947C323.034 309.679 320.029 297.163 317.24 286.228C315.844 280.758 314.502 275.678 313.509 271.966C313.012 270.11 312.602 268.596 312.317 267.546C312.174 267.021 312.063 266.612 311.987 266.334L311.913 266.067ZM314.853 267.408V267.839L314.957 267.779C317.351 276.55 324.887 304.831 326.341 315.58L326.341 315.581C326.666 317.896 326.969 320.951 327.273 324.704L327.304 325.092L327.644 324.902L410.019 278.717L410.161 278.637L410.145 278.474C410.015 277.149 409.884 275.973 409.753 274.993L409.753 274.992C408.144 263.125 400.323 231.312 397.568 220.316L397.487 219.996L397.201 220.159L314.979 267.191L315.062 267.336L314.853 267.365V267.408Z" fill="url(#paint42_linear_2211_31347)" stroke="#222222" stroke-width="0.5"/>
<path d="M331.148 392.898L327.674 394.764L301.663 375.86L298.189 356.761L301.663 354.917L331.148 371.954V392.898Z" fill="url(#paint43_linear_2211_31347)"/>
<path d="M324.2 392.746L327.653 394.895L417.865 339.464L421.339 320.365L417.865 318.52L324.179 372.084L324.2 392.746Z" fill="#222222"/>
<path d="M409.483 323.316L417.864 318.52L421.338 320.387L417.864 339.486L411.264 343.544C412.241 336.903 411.264 329.849 409.483 323.338V323.316Z" fill="url(#paint44_linear_2211_31347)"/>
<path d="M343.567 361.016L400.105 328.677C401.928 336.491 402.449 345.454 396.5 351.423C391.507 356.436 384.277 358.845 377.59 360.625C369.817 362.687 361.827 366.441 353.685 366.658C348.93 366.789 345.521 364.445 343.567 361.016Z" fill="black"/>
<path d="M334.47 366.203C337.336 371.238 341.939 375.166 347.888 376.534C350.84 377.206 353.837 377.271 356.833 376.968L327.652 394.895L324.2 392.746V372.084L334.47 366.203Z" fill="#222222"/>
<path d="M349.169 357.803L352.643 359.648L349.169 362.513L392.874 337.532V332.801L417.865 318.52V339.464L327.652 394.895L324.179 392.746L322.789 370.652L327.804 370.023L349.169 357.803Z" fill="url(#paint45_linear_2211_31347)"/>
<path d="M352.643 359.648V364.38L396.348 339.377V334.667L421.338 320.365V341.309L327.652 394.895V373.951L352.643 359.648Z" fill="#222222"/>
<path d="M392.874 332.801L396.348 334.667V339.377L392.874 337.532V332.801Z" fill="#93D7FF"/>
<path d="M341.092 211.847L366.147 226.345V220.181L341.092 210.35V211.847Z" fill="white"/>
<path d="M366.147 220.159L374.94 215.081L349.885 205.336L341.113 210.415L366.147 220.159Z" fill="#222222"/>
<path d="M366.147 226.345L374.941 221.267V215.081L366.147 220.16V226.345Z" fill="#222222"/>
<path d="M367.189 224.631L374.072 220.702V216.774L367.189 220.724V224.631Z" fill="url(#paint46_linear_2211_31347)"/>
<path d="M317.058 224.869L342.113 239.367V233.203L317.058 223.372V224.869Z" fill="white"/>
<path d="M342.113 233.181L350.906 228.103L325.851 218.358L317.079 223.437L342.113 233.181Z" fill="#222222"/>
<path d="M342.113 239.367L350.907 234.289V228.103L342.113 233.182V239.367Z" fill="#222222"/>
<path d="M343.155 237.653L350.038 233.724V229.796L343.155 233.746V237.653Z" fill="url(#paint47_linear_2211_31347)"/>
<path d="M293.022 237.892L318.078 252.39V246.226L293.022 236.394V237.892Z" fill="white"/>
<path d="M318.078 246.204L326.871 241.125L301.816 231.38L293.022 236.459L318.078 246.204Z" fill="#222222"/>
<path d="M318.078 252.39L326.871 247.311V241.125L318.078 246.204V252.39Z" fill="#222222"/>
<path d="M319.12 250.675L326.003 246.747V242.818L319.12 246.768V250.675Z" fill="url(#paint48_linear_2211_31347)"/>
<g opacity="0.1">
<path d="M322.55 265.693L332.016 260.267L370.75 299.008L361.24 304.347L322.55 265.693Z" fill="white"/>
<path d="M370.273 238.39L404.881 272.986C404.99 273.615 405.076 274.223 405.142 274.765C405.315 276.067 405.489 277.674 405.641 279.475L380.26 293.712L341.439 254.907L370.294 238.412L370.273 238.39Z" fill="white"/>
<path d="M323.483 282.101L351.318 309.925L347.236 312.226L325.655 290.652C324.938 287.744 324.2 284.836 323.505 282.123L323.483 282.101Z" fill="white"/>
</g>
<path d="M404.729 321.746L336.794 360.609V335.608L404.729 296.745V321.746Z" fill="url(#paint49_linear_2211_31347)" stroke="#222222"/>
<path d="M401.776 316.502L339.746 351.987V355.828L401.776 320.343V316.502ZM339.746 336.99V340.831L401.776 305.346V301.504L339.746 336.99ZM401.776 308.992L339.746 344.477V348.319L401.776 312.834V308.992Z" fill="black"/>
<path d="M327.674 394.764L298.189 377.705V356.761L327.674 373.82V394.764Z" fill="#222222"/>
<path d="M285.597 323.642L288.246 325.357V287.071L285.597 285.357V323.642Z" fill="url(#paint50_linear_2211_31347)"/>
<path d="M288.246 287.028L303.118 278.694L300.491 277.109L285.597 285.422L288.246 287.028Z" fill="url(#paint51_linear_2211_31347)"/>
<path d="M288.245 325.356L303.118 317.022V278.694L288.245 287.028V325.356Z" fill="#001208"/>
<path d="M294.824 325.074C294.954 325.074 295.106 325.031 295.236 324.966L316.731 312.92C317.122 312.703 317.274 312.182 317.057 311.792C316.839 311.401 316.318 311.249 315.928 311.466L295.671 322.817V320.365C295.671 319.909 295.301 319.54 294.846 319.54C294.39 319.54 294.021 319.909 294.021 320.365V324.249C294.021 324.553 294.172 324.814 294.433 324.966C294.563 325.031 294.715 325.074 294.846 325.074H294.824Z" fill="#001208"/>
<path d="M294.824 282.904C295.28 282.904 295.649 282.535 295.649 282.079V278.173L307.07 271.77C307.46 271.553 307.612 271.032 307.395 270.642C307.178 270.251 306.657 270.099 306.266 270.316L294.412 276.957C294.151 277.109 293.978 277.391 293.978 277.674V282.079C293.978 282.535 294.347 282.904 294.803 282.904H294.824Z" fill="#001208"/>
<path d="M341.027 369.74C343.003 368.633 345.326 368.655 347.258 369.805C349.212 370.934 350.363 372.974 350.363 375.209V375.426L331.452 386.018V375.101L341.027 369.74Z" fill="url(#paint52_linear_2211_31347)"/>
<path d="M331.821 385.388L349.994 375.209C349.994 370.695 345.131 367.852 341.201 370.066L331.821 375.318V385.388Z" fill="#222222"/>
<path d="M331.821 390.272L339.746 385.844V382.675L331.821 387.103V390.272Z" fill="url(#paint53_linear_2211_31347)"/>
<path d="M339.225 376.555C339.225 378.66 340.549 379.615 342.177 378.66C343.806 377.705 345.13 375.231 345.13 373.126C345.13 371.02 343.806 370.065 342.177 371.02C340.549 371.975 339.225 374.45 339.225 376.555Z" fill="#FFFFFD"/>
<path d="M334.601 379.441C334.601 380.635 335.361 381.178 336.272 380.635C337.206 380.092 337.944 378.682 337.944 377.488C337.944 376.294 337.184 375.752 336.272 376.294C335.339 376.837 334.601 378.248 334.601 379.441Z" fill="#FFFFFD"/>
<path d="M410.005 329.523C411.98 328.416 419.341 324.119 419.341 324.119V335.21L400.43 345.801V344.716C400.43 338.639 403.708 333.039 409.028 330.066L410.005 329.523Z" fill="url(#paint54_linear_2211_31347)"/>
<path d="M400.799 345.172L418.972 334.993V324.922L409.592 330.175C404.164 333.213 400.799 338.943 400.799 345.172Z" fill="#222222"/>
<path d="M410.916 344.846L418.841 340.418V337.271L410.916 341.699V344.846Z" fill="url(#paint55_linear_2211_31347)"/>
<path d="M411.09 334.515C411.09 336.62 412.414 337.575 414.043 336.62C415.671 335.666 416.995 333.191 416.995 331.086C416.995 328.981 415.671 328.026 414.043 328.981C412.414 329.936 411.09 332.41 411.09 334.515Z" fill="#FFFFFD"/>
<path d="M406.118 337.966C406.118 339.159 406.878 339.702 407.79 339.159C408.724 338.617 409.462 337.206 409.462 336.012C409.462 334.819 408.702 334.276 407.79 334.819C406.856 335.361 406.118 336.772 406.118 337.966Z" fill="#FFFFFD"/>
<path d="M277.824 304.825L268.771 299.898V297.164L277.824 302.069V304.825Z" fill="black"/>
<path d="M111.488 47.4325L86.2756 61.9875L80.5678 58.6924L91.4232 52.4257L81.1281 46.4823L70.2728 52.7491L64.565 49.454L89.7773 34.8989L95.4851 38.194L85.9605 43.6926L96.2555 49.6359L105.78 44.1374L111.488 47.4325Z" fill="white"/>
<path d="M120.275 70.7815C114.462 74.1373 106.058 73.9351 99.9653 70.4177C93.8373 66.88 93.5222 62.0485 99.335 58.6927C105.113 55.3572 113.517 55.5189 119.645 59.0566C125.738 62.5741 126.053 67.446 120.275 70.7815ZM114.637 67.5269C118.629 65.2223 118.349 63.4029 115.233 61.6037C112.081 59.7844 108.965 59.6429 104.973 61.9474C100.946 64.2722 101.226 66.0511 104.377 67.8705C107.494 69.6697 110.611 69.8516 114.637 67.5269Z" fill="white"/>
<path d="M127.175 80.5066L122.762 83.0537L121.887 82.5483C116.985 79.7182 116.705 76.605 121.082 74.0781L142.372 61.7871L147.8 64.9205L126.684 77.1104C124.583 78.3233 124.723 79.0915 126.579 80.1629L127.175 80.5066Z" fill="white"/>
<path d="M186.669 98.275L170.211 107.776C163.873 111.435 157.29 111.718 149.796 107.392C144.193 104.158 144.298 101.186 146.714 98.2548L151.932 101.267C150.952 102.48 151.827 103.592 154.173 104.946C157.78 107.028 160.091 107.352 164.153 105.007L165.694 104.117C163.138 104.461 160.686 104.218 157.465 102.359C152.667 99.589 152.037 94.7778 157.36 91.705C162.822 88.5514 170.946 88.6727 176.059 91.6242C179.14 93.4031 179.385 95.2023 178.79 96.5567L181.241 95.1416L186.669 98.275ZM173.748 99.4677C175.393 97.5877 175.604 96.4152 172.347 94.5352C169.686 92.9988 166.534 92.918 162.997 94.9597C159.041 97.244 159.461 98.8613 162.192 100.438C165.694 102.46 167.76 102.278 170.806 101.166L173.748 99.4677Z" fill="white"/>
<path d="M203.827 108.1L198.784 111.011C198.469 110.546 197.769 109.98 196.718 109.374C193.637 107.595 190.1 107.251 186.143 109.536L177.389 114.59L171.961 111.456L190.73 100.621L196.158 103.754L193.427 105.331C196.333 104.745 199.555 105.189 202.076 106.645C202.881 107.11 203.547 107.656 203.827 108.1Z" fill="white"/>
<path d="M210.76 128.76L206.348 131.308L205.543 130.843C202.461 129.064 202.146 127.952 202.811 126.638C200.36 127.083 196.648 126.234 193.602 124.475C189.75 122.251 187.929 118.976 192.131 116.55C196.263 114.165 202.356 115.621 206.383 117.945C207.865 118.771 208.982 119.79 209.64 120.917L211.04 120.108C213.211 118.855 213.386 117.945 210.76 116.429C208.939 115.378 207.714 114.994 205.893 115.519L200.605 112.467C206.103 110.829 210.83 111.699 214.857 114.023C220.53 117.298 220.95 120.654 216.258 123.363L210.41 126.739C209.184 127.446 209.394 127.972 210.305 128.498L210.76 128.76ZM206.138 122.938C205.858 122.009 205.367 121.281 203.161 120.007C200.92 118.713 199.555 118.693 197.909 119.643C196.368 120.533 196.403 121.321 198.434 122.494C200.535 123.707 201.936 124.192 204.317 123.99L206.138 122.938Z" fill="white"/>
<path d="M250.014 124.132L245.637 126.659C244.951 125.938 244.09 125.278 243.081 124.698C241.435 123.748 239.684 123.627 237.688 124.779L235.132 126.255L240.385 129.287L235.972 131.834L230.72 128.802L216.363 137.09L210.935 133.957L225.292 125.668L221.58 123.526L225.993 120.978L229.704 123.121L232.296 121.625C236.428 119.24 242.661 119.361 246.618 121.645C247.922 122.391 249.062 123.226 250.014 124.132Z" fill="white"/>
<path d="M154.983 90.1253C149.369 93.3663 141.181 93.13 135.199 89.6766C129.181 86.2024 128.806 81.4954 134.42 78.2544C140.001 75.0329 148.188 75.2298 154.206 78.704C160.188 82.1594 160.564 86.9038 154.983 90.1253Z" fill="#222222" stroke="url(#paint56_radial_2211_31347)" stroke-miterlimit="10" stroke-linecap="square"/>
<path d="M140.384 88.6853C143.203 90.3126 146.806 91.4089 150.705 91.8259C145.676 93.0813 139.787 92.3275 135.198 89.6781C132.975 88.3947 131.523 86.9417 130.857 85.458C131.955 85.3845 133.07 85.4567 134.12 85.669C135.17 85.8813 136.126 86.2281 136.916 86.6832L140.384 88.6853ZM143.795 86.7163L140.327 84.7141C139.05 83.9767 137.509 83.4095 135.817 83.0532C134.125 82.697 132.324 82.5606 130.542 82.654C130.437 83.1231 130.412 83.5977 130.467 84.0711C131.941 83.966 133.443 84.0582 134.856 84.3406C136.27 84.6231 137.557 85.0882 138.619 85.7001L142.087 87.7023C145.273 89.5419 149.567 90.593 154.036 90.6272C154.36 90.4703 154.674 90.3045 154.98 90.1278C155.517 89.8185 156.011 89.4855 156.458 89.1318C154.183 89.3341 151.849 89.2206 149.648 88.8006C147.446 88.3806 145.44 87.6662 143.795 86.7163ZM152.321 81.7942C152.781 82.0593 153.401 82.2099 154.046 82.213C154.69 82.2161 155.306 82.0714 155.759 81.8108L157.188 80.9859C156.388 80.1476 155.382 79.3791 154.203 78.7046C149.807 76.1664 144.254 75.3797 139.405 76.3939C142.954 77.0939 146.187 78.2571 148.85 79.7921L152.321 81.7942ZM148.91 83.7633C150.23 84.5225 151.99 84.9696 153.837 85.0145C155.684 85.0594 157.48 84.6987 158.863 84.0051C158.756 83.4528 158.548 82.9076 158.241 82.3789L157.492 82.8114C156.587 83.3326 155.354 83.6217 154.064 83.6155C152.775 83.6093 151.534 83.3082 150.613 82.7782L147.147 80.7771C144.169 79.0567 140.409 77.8607 136.317 77.3329C135.64 77.6084 135.005 77.9172 134.419 78.2559C134.272 78.3408 134.129 78.4238 133.993 78.5137C138.312 78.8286 142.345 79.973 145.441 81.7621L148.91 83.7633ZM142.032 83.7301L145.5 85.7323C147.123 86.6679 149.161 87.326 151.382 87.6317C153.603 87.9374 155.917 87.8783 158.062 87.4612C158.445 86.9054 158.705 86.323 158.837 85.7276C156.998 86.3144 154.868 86.5362 152.769 86.3593C150.671 86.1825 148.718 85.6165 147.206 84.7473L143.738 82.7451C140.67 80.9762 136.571 79.9359 132.272 79.8353C131.806 80.2758 131.42 80.7437 131.122 81.2315C133.128 81.193 135.134 81.3951 137.011 81.8252C138.889 82.2552 140.598 82.9039 142.032 83.7301Z" fill="url(#paint57_radial_2211_31347)"/>
<path d="M154.983 90.1253C149.369 93.3663 141.181 93.13 135.199 89.6766C129.181 86.2024 128.806 81.4954 134.42 78.2544C140.001 75.0329 148.188 75.2298 154.206 78.704C160.188 82.1594 160.564 86.9038 154.983 90.1253Z" stroke="url(#paint58_radial_2211_31347)" stroke-miterlimit="10" stroke-linecap="square"/>
<path d="M243.44 139.467C246.335 141.952 249.508 145.044 245.319 147.462C240.848 150.043 234.86 148.415 230.422 145.853C225.214 142.847 224.425 140.034 227.636 137.051L232.773 140.016C231.785 140.99 231.64 141.76 234.401 143.354C236.777 144.726 238.248 145.128 239.41 144.457C240.747 143.685 240.47 143.24 238.063 141.159C235.306 138.796 231.785 135.422 236.08 132.942C240.058 130.646 245.768 131.869 250.311 134.492C254.994 137.196 255.958 140.109 253.03 142.809L247.892 139.843C248.6 138.869 248.533 138.262 246.332 136.991C243.99 135.639 242.693 135.46 241.602 136.09C240.581 136.679 240.963 137.347 243.44 139.467Z" fill="white"/>
<g opacity="0.3">
<path d="M108.85 195.418C116.611 201.333 124.706 203.192 131.475 200.632C130.69 203.605 129.598 206.106 128.243 208.142C121.788 208.665 114.726 206.208 107.926 201.029L99.2008 194.394C97.2248 192.882 95.1622 191.981 93.2021 191.743C91.3897 191.533 89.7144 191.885 88.241 192.781C87.1286 190.838 86.1339 188.84 85.2714 186.791C87.2637 185.505 89.5864 184.97 92.0747 185.249C94.7107 185.555 97.4805 186.761 100.142 188.772L108.867 195.407L108.85 195.418Z" fill="#0E0E0E"/>
<path d="M132.933 197.115L133.627 197.647L133.469 198.55L132.789 198.022L132.933 197.115Z" fill="url(#paint59_linear_2211_31347)"/>
<path d="M124.067 162.801L124.359 161.035C125.742 163.245 126.952 165.56 128.026 167.94C128.006 168.043 127.975 168.129 127.943 168.215C127.894 168.389 127.865 168.46 127.848 168.549C127.799 168.723 127.768 168.809 127.739 168.88C127.675 169.052 127.643 169.137 127.629 169.211C127.566 169.383 127.537 169.454 127.505 169.539C127.442 169.711 127.413 169.782 127.384 169.853C127.305 170.022 127.276 170.093 127.247 170.164C127.169 170.332 127.14 170.403 127.111 170.474C127.033 170.643 126.989 170.711 126.963 170.768C126.87 170.933 126.844 170.99 126.815 171.061C126.722 171.227 126.696 171.283 126.655 171.336C126.565 171.487 126.521 171.556 126.495 171.612C126.405 171.763 126.364 171.816 126.323 171.87C126.133 172.14 125.988 172.341 125.842 172.543C125.757 172.665 125.719 172.703 125.681 172.742C125.661 172.768 125.623 172.807 125.602 172.834C125.564 172.872 125.526 172.911 125.503 172.953C125.465 172.991 125.444 173.018 125.406 173.057C125.368 173.095 125.33 173.134 125.307 173.175C125.269 173.214 125.246 173.255 125.21 173.279C125.172 173.318 125.137 173.342 125.114 173.383C125.076 173.422 125.038 173.461 125.003 173.484C124.965 173.523 124.929 173.547 124.906 173.588C124.868 173.627 124.83 173.666 124.795 173.69C124.76 173.713 124.722 173.752 124.686 173.776C124.648 173.815 124.613 173.838 124.575 173.877C124.54 173.901 124.502 173.94 124.467 173.963C124.429 174.002 124.394 174.026 124.341 174.062C124.306 174.086 124.27 174.109 124.232 174.148C124.194 174.187 124.144 174.208 124.106 174.246C124.071 174.27 124.036 174.294 124.001 174.318C123.963 174.357 123.913 174.378 123.875 174.416C123.839 174.44 123.804 174.464 123.769 174.488C123.719 174.509 123.681 174.548 123.631 174.569C123.596 174.593 123.561 174.616 123.525 174.64C123.475 174.661 123.437 174.7 123.387 174.721C123.352 174.745 123.32 174.754 123.285 174.778C123.235 174.799 123.182 174.835 123.132 174.856C123.097 174.88 123.064 174.889 123.029 174.913C122.979 174.934 122.926 174.969 122.876 174.99C122.844 174.999 122.809 175.023 122.776 175.032C122.726 175.053 122.659 175.086 122.609 175.107C122.441 175.183 122.344 175.21 122.262 175.24C119.363 176.307 115.918 175.508 112.604 172.989L103.875 166.369C103.754 166.284 103.635 166.185 103.513 166.1C103.327 165.957 103.246 165.896 103.152 165.832C103.098 165.791 103.057 165.768 103.003 165.727C102.938 165.668 102.855 165.622 102.787 165.578C102.733 165.537 102.68 165.496 102.624 165.47C102.556 165.426 102.49 165.368 102.422 165.324C102.369 165.283 102.301 165.24 102.247 165.199C102.179 165.155 102.126 165.114 102.057 165.071C101.989 165.027 101.936 164.986 101.868 164.942C101.814 164.901 101.746 164.858 101.693 164.817C101.639 164.776 101.571 164.732 101.518 164.691C101.464 164.651 101.396 164.607 101.343 164.566C101.274 164.522 101.221 164.481 101.153 164.438C101.099 164.397 101.031 164.353 100.975 164.327C100.907 164.283 100.854 164.243 100.785 164.199C100.732 164.158 100.676 164.132 100.622 164.091C100.554 164.047 100.486 164.004 100.433 163.963C100.379 163.922 100.323 163.896 100.269 163.855C100.201 163.811 100.133 163.767 100.062 163.739C100.006 163.712 99.9525 163.672 99.8962 163.645C99.8281 163.602 99.7599 163.558 99.6889 163.529C99.6327 163.503 99.594 163.465 99.5378 163.439C99.4696 163.395 99.4014 163.351 99.3157 163.32C99.2594 163.294 99.218 163.27 99.1646 163.229C99.0964 163.186 99.0134 163.139 98.9424 163.11C98.901 163.087 98.8447 163.061 98.8033 163.038C98.7351 162.994 98.6521 162.947 98.5811 162.918C98.5397 162.895 98.4834 162.869 98.442 162.846C98.3738 162.802 98.288 162.77 98.2198 162.727C98.1755 162.718 98.1369 162.68 98.0807 162.654C97.9977 162.607 97.9267 162.579 97.8438 162.532C97.7995 162.524 97.7608 162.485 97.7194 162.462C97.6364 162.416 97.5654 162.387 97.4825 162.34C97.4382 162.332 97.3995 162.294 97.3581 162.27C97.2751 162.224 97.2041 162.195 97.1212 162.148C97.0769 162.14 97.0382 162.102 96.9939 162.093C96.911 162.047 96.84 162.018 96.757 161.971C96.7127 161.963 96.6713 161.94 96.6446 161.919C96.5616 161.873 96.4758 161.841 96.3901 161.809C96.3458 161.801 96.3191 161.78 96.2776 161.757C96.1918 161.725 96.1089 161.679 96.0231 161.647C95.8396 161.566 95.7419 161.516 95.6561 161.485C95.4727 161.403 95.3869 161.372 95.2892 161.322C95.1205 161.244 95.0199 161.209 94.9194 161.175C94.7478 161.111 94.6501 161.062 94.5643 161.03C94.3928 160.967 94.2923 160.932 94.1946 160.883C94.0378 160.822 93.9372 160.787 93.8367 160.753C93.6947 160.695 93.5794 160.657 93.4788 160.623C93.3487 160.583 93.2334 160.545 93.121 160.493C89.0613 159.147 85.1008 158.801 81.3697 159.494C81.4173 159.166 81.4648 158.838 81.5271 158.514C81.8761 156.376 82.3739 154.419 82.9854 152.669C83.0916 152.674 83.1858 152.661 83.2773 152.663C83.4159 152.659 83.5073 152.662 83.6163 152.652C83.7549 152.648 83.8464 152.65 83.9378 152.652C84.0911 152.651 84.1826 152.653 84.2593 152.653C84.4126 152.652 84.504 152.654 84.5955 152.656C84.7488 152.655 84.8403 152.657 84.9289 152.674C85.0794 152.688 85.1708 152.69 85.2623 152.692C85.4128 152.706 85.5042 152.708 85.5957 152.71C85.7462 152.724 85.8376 152.726 85.9291 152.728C86.0796 152.742 86.171 152.744 86.2596 152.761C86.4073 152.789 86.4987 152.792 86.5902 152.794C86.7526 152.825 86.8441 152.827 86.9355 152.829C87.0832 152.858 87.1746 152.86 87.278 152.88C87.4257 152.908 87.529 152.928 87.6205 152.93C87.7829 152.961 87.8715 152.978 87.9602 152.995C88.1078 153.024 88.2112 153.044 88.2998 153.061C88.4623 153.092 88.5509 153.109 88.6395 153.126C88.8019 153.157 88.8905 153.174 88.9791 153.191C89.1268 153.219 89.2302 153.239 89.3188 153.256C89.4665 153.284 89.5551 153.301 89.6585 153.321C89.7914 153.347 89.8947 153.367 89.9981 153.386C90.131 153.412 90.2344 153.432 90.3349 153.466C91.6056 153.787 92.8473 154.178 94.1044 154.649C94.2197 154.686 94.3174 154.736 94.4179 154.77C94.5452 154.825 94.6457 154.86 94.7463 154.894C94.8883 154.952 94.9888 154.987 95.0865 155.036C95.2433 155.097 95.3262 155.144 95.4268 155.178C95.5955 155.256 95.6813 155.288 95.767 155.32C95.9505 155.401 96.0363 155.433 96.1045 155.477C96.1488 155.485 96.1755 155.506 96.2169 155.529C96.3027 155.561 96.3709 155.604 96.4567 155.636C96.501 155.645 96.5277 155.665 96.5691 155.688C96.6401 155.717 96.7231 155.764 96.7941 155.793C96.8384 155.801 96.8799 155.824 96.9213 155.848C96.9923 155.877 97.0753 155.923 97.1463 155.952C97.1906 155.961 97.2292 155.999 97.2735 156.007C97.3445 156.036 97.4127 156.08 97.4837 156.109C97.528 156.117 97.5814 156.158 97.6229 156.181C97.6939 156.21 97.7621 156.254 97.8331 156.283C97.8774 156.291 97.9308 156.332 97.9723 156.356C98.0433 156.384 98.1114 156.428 98.1825 156.457C98.2239 156.48 98.2802 156.506 98.3216 156.53C98.3898 156.573 98.4608 156.602 98.529 156.646C98.5852 156.672 98.6267 156.695 98.6829 156.722C98.7511 156.765 98.8221 156.794 98.8903 156.838C98.9465 156.864 98.988 156.887 99.0442 156.913C99.1124 156.957 99.1834 156.986 99.2516 157.03C99.3078 157.056 99.3493 157.079 99.4027 157.12C99.4709 157.164 99.5419 157.193 99.5953 157.233C99.6515 157.26 99.6902 157.298 99.7464 157.324C99.8146 157.367 99.8856 157.396 99.939 157.437C99.9952 157.463 100.034 157.501 100.09 157.527C100.158 157.571 100.214 157.597 100.283 157.641C100.339 157.667 100.392 157.708 100.449 157.734C100.517 157.778 100.573 157.804 100.641 157.848C100.695 157.888 100.751 157.914 100.804 157.955C100.858 157.996 100.929 158.025 100.982 158.066C101.035 158.107 101.092 158.133 101.16 158.177C101.213 158.218 101.284 158.246 101.338 158.287C101.391 158.328 101.447 158.354 101.501 158.395C101.554 158.436 101.622 158.48 101.678 158.506C101.732 158.547 101.788 158.573 101.842 158.614C101.895 158.655 101.963 158.698 102.019 158.724C102.073 158.765 102.129 158.791 102.182 158.832C102.236 158.873 102.304 158.917 102.357 158.958C102.411 158.999 102.479 159.042 102.532 159.083C102.586 159.124 102.639 159.165 102.71 159.194C102.764 159.235 102.832 159.278 102.9 159.322C102.953 159.363 103.007 159.404 103.063 159.43C103.131 159.474 103.185 159.514 103.253 159.558C103.306 159.599 103.36 159.64 103.416 159.666C103.484 159.71 103.549 159.768 103.617 159.812C103.656 159.85 103.712 159.876 103.751 159.914C103.819 159.958 103.884 160.016 103.953 160.06C104.006 160.101 104.048 160.124 104.101 160.165C104.181 160.226 104.261 160.288 104.329 160.331C104.371 160.355 104.395 160.39 104.436 160.413C104.558 160.498 104.665 160.579 104.783 160.679L113.494 167.311C115.805 169.071 118.221 169.565 120.208 168.706C122.192 167.862 123.573 165.692 124.081 162.727L124.067 162.801Z" fill="url(#paint60_linear_2211_31347)"/>
<path d="M113.498 167.372L104.787 160.74C97.5181 155.211 89.9552 152.413 82.9707 152.665C83.8272 150.196 84.9316 148.111 86.2513 146.419C92.64 147.278 99.2959 150.254 105.722 155.147L114.45 161.767C115.599 162.645 116.804 162.907 117.791 162.469C118.791 162.048 119.487 160.972 119.729 159.472L120.399 155.421C121.835 157.197 123.161 159.059 124.38 161.008L124.087 162.773C123.58 165.738 122.199 167.908 120.215 168.752C118.228 169.611 115.826 169.12 113.5 167.357L113.498 167.372Z" fill="#0E0E0E"/>
<path d="M122.28 195.178C126.135 195.52 129.713 194.583 132.74 192.377C132.649 193.967 132.484 195.543 132.216 197.1C132.008 198.346 131.752 199.522 131.463 200.63C124.694 203.19 116.598 201.33 108.837 195.416L100.112 188.781C97.4506 186.77 94.6836 185.55 92.0448 185.259C89.5565 184.98 87.2366 185.5 85.2414 186.801C85.1243 186.534 85.022 186.269 84.9049 186.002C84.1561 184.158 83.5044 182.288 82.9498 180.39C85.4214 178.92 88.266 178.378 91.2923 178.806C94.4838 179.25 97.8103 180.745 101.017 183.183L109.743 189.818C113.873 192.953 118.157 194.801 122.251 195.172L122.28 195.178Z" fill="url(#paint61_linear_2211_31347)"/>
<path d="M129.555 169.228C133.29 178.411 134.723 188.501 133.174 197.85C131.626 207.199 127.532 213.135 121.93 215.199C116.313 217.261 109.195 215.497 101.579 209.703C93.9629 203.908 87.8669 195.619 84.1292 186.45C80.3915 177.281 78.9882 167.197 80.5454 157.804C82.1026 148.41 86.1529 142.542 91.7548 140.478C97.3624 138.384 104.486 140.119 112.156 145.954C119.769 151.763 125.82 160.044 129.552 169.242L129.555 169.228ZM131.474 200.647C131.763 199.539 132.019 198.363 132.228 197.117C133.726 188.111 132.347 178.46 128.768 169.658C125.175 160.854 119.376 152.851 111.959 147.218C104.542 141.584 97.6396 139.892 92.2643 141.893C88.1741 143.42 84.9497 147.058 82.9797 152.697C82.3682 154.448 81.8704 156.404 81.5215 158.542C81.4592 158.867 81.4116 159.195 81.364 159.522C81.0373 161.864 80.8907 164.224 80.9094 166.601C80.9337 168.948 81.1437 171.285 81.4895 173.633C81.8318 175.919 82.3479 178.177 82.9907 180.413C83.5452 182.311 84.1941 184.196 84.9457 186.025C85.0481 186.289 85.1652 186.557 85.2823 186.824C86.1595 188.876 87.1543 190.874 88.2519 192.814C91.7145 198.868 96.3104 204.282 101.802 208.459C109.216 214.108 116.08 215.761 121.45 213.791C124.12 212.802 126.423 210.932 128.268 208.178C129.624 206.141 130.716 203.641 131.501 200.668" fill="url(#paint62_linear_2211_31347)"/>
<path d="M81.1608 158.749L82.3096 151.804L83.2294 152.516L82.0835 159.447L81.1608 158.749Z" fill="url(#paint63_linear_2211_31347)"/>
<path d="M99.2028 194.394L107.928 201.029C114.728 206.208 121.805 208.668 128.245 208.142C126.414 210.899 124.108 212.784 121.426 213.755C116.056 215.726 109.192 214.072 101.778 208.424C96.2867 204.246 91.7055 198.835 88.2282 192.779C89.6868 191.879 91.3797 191.515 93.1893 191.74C95.1494 191.978 97.212 192.879 99.188 194.391L99.2028 194.394Z" fill="url(#paint64_linear_2211_31347)"/>
<path d="M92.2518 141.876C97.6095 139.887 104.491 141.529 111.947 147.201C115.059 149.574 117.894 152.353 120.396 155.436L119.725 159.488C119.484 160.988 118.787 162.064 117.788 162.484C116.8 162.923 115.595 162.661 114.447 161.782L105.719 155.162C105.52 155.001 105.303 154.853 105.104 154.692C105.036 154.648 104.971 154.59 104.917 154.549C104.784 154.447 104.636 154.342 104.502 154.24C104.422 154.178 104.327 154.114 104.247 154.053C104.125 153.968 104.004 153.884 103.882 153.799C103.787 153.735 103.707 153.674 103.612 153.61C103.491 153.525 103.384 153.443 103.26 153.374C103.165 153.309 103.07 153.245 102.975 153.181C102.865 153.114 102.759 153.032 102.649 152.965C102.554 152.901 102.444 152.834 102.35 152.77C102.24 152.703 102.13 152.636 102.023 152.555C101.929 152.49 101.819 152.423 101.724 152.359C101.614 152.292 101.52 152.228 101.41 152.161C101.3 152.094 101.205 152.03 101.096 151.963C100.986 151.896 100.891 151.832 100.779 151.78C100.669 151.713 100.574 151.649 100.462 151.597C100.367 151.532 100.254 151.48 100.16 151.416C100.05 151.349 99.9374 151.297 99.8425 151.233C99.7448 151.183 99.65 151.119 99.5375 151.067C99.4278 151 99.3154 150.948 99.2057 150.881C99.108 150.832 99.0131 150.767 98.9154 150.718C98.8058 150.651 98.6933 150.599 98.5808 150.547C98.4831 150.497 98.3854 150.448 98.2877 150.399C98.1752 150.346 98.0656 150.279 97.9531 150.227C97.8554 150.178 97.7725 150.131 97.6747 150.082C97.5623 150.03 97.4526 149.963 97.3401 149.91C97.2424 149.861 97.1595 149.815 97.059 149.78C96.9465 149.728 96.834 149.676 96.7215 149.623C96.6238 149.574 96.538 149.542 96.4403 149.493C96.3279 149.441 96.2006 149.386 96.0881 149.333C96.0024 149.302 95.9194 149.255 95.8189 149.221C95.6916 149.166 95.5792 149.113 95.4519 149.058C95.3661 149.026 95.2832 148.98 95.1974 148.948C95.0702 148.893 94.9577 148.841 94.8276 148.801C94.7419 148.769 94.6561 148.737 94.5851 148.708C94.4578 148.653 94.3278 148.613 94.2153 148.561C94.1295 148.529 94.0585 148.5 93.9727 148.468C93.8455 148.413 93.7154 148.373 93.5882 148.318C93.5143 148.304 93.4461 148.26 93.3723 148.246C93.2451 148.191 93.1002 148.148 92.9701 148.107C92.8963 148.093 92.8401 148.067 92.7691 148.038C92.6242 147.995 92.4822 147.937 92.3374 147.894C92.2783 147.883 92.2192 147.872 92.163 147.845C92.0181 147.802 91.8613 147.742 91.7165 147.699C91.6722 147.69 91.6427 147.684 91.5984 147.676C90.6287 147.383 89.6535 147.119 88.6816 146.917C88.4896 146.88 88.3272 146.849 88.15 146.815C88.1204 146.81 88.0761 146.801 88.0466 146.795C87.8989 146.767 87.7365 146.736 87.5888 146.708C87.5445 146.699 87.4854 146.688 87.4411 146.679C87.2934 146.651 87.1605 146.625 87.0128 146.597C86.9538 146.586 86.8947 146.574 86.8356 146.563C86.7027 146.538 86.5698 146.512 86.4341 146.501C86.3898 146.493 86.3307 146.481 86.2864 146.473C87.9739 144.301 89.9969 142.775 92.3052 141.917L92.2518 141.876Z" fill="url(#paint65_linear_2211_31347)"/>
<path d="M101.065 183.176C97.8579 180.738 94.5313 179.243 91.3398 178.799C88.3136 178.371 85.4662 178.927 82.9974 180.383C82.3546 178.147 81.8561 175.877 81.4962 173.603C84.3932 172.23 87.6548 171.829 91.0747 172.44C94.6865 173.087 98.4102 174.827 102.003 177.568L110.729 184.203C114.805 187.297 119.052 188.862 122.97 188.71C126.673 188.563 129.966 186.883 132.49 183.861C132.831 186.713 132.927 189.564 132.77 192.382C129.746 194.573 126.179 195.527 122.31 195.183C118.235 194.799 113.932 192.963 109.802 189.828L101.077 183.193L101.065 183.176Z" fill="#0E0E0E"/>
<path d="M122.902 182.038C126.236 181.422 128.979 179.177 130.811 175.609C131.576 178.328 132.134 181.084 132.475 183.859C129.947 186.896 126.672 188.564 122.954 188.708C119.036 188.86 114.789 187.295 110.713 184.201L101.987 177.566C98.3943 174.825 94.6707 173.084 91.0588 172.437C87.6389 171.827 84.3774 172.227 81.4803 173.601C81.117 171.265 80.9245 168.916 80.9002 166.569C87.5476 164.322 95.3896 166.225 102.925 171.958L111.651 178.593C115.448 181.465 119.398 182.667 122.905 182.023L122.902 182.038Z" fill="url(#paint66_linear_2211_31347)"/>
<path d="M111.634 178.604L102.908 171.97C95.3725 166.237 87.5306 164.334 80.8832 166.58C80.8498 164.201 80.9964 161.84 81.3378 159.502C88.3582 158.184 96.2424 160.585 103.829 166.374L112.557 172.994C115.871 175.513 119.319 176.297 122.215 175.245C124.95 174.238 126.994 171.645 128.012 167.936C128.27 168.506 128.513 169.073 128.739 169.652C129.527 171.61 130.218 173.596 130.78 175.617C128.947 179.185 126.204 181.43 122.87 182.046C119.363 182.69 115.414 181.489 111.616 178.616L111.634 178.604Z" fill="#0E0E0E"/>
</g>
<defs>
<linearGradient id="paint0_linear_2211_31347" x1="45.8573" y1="230.121" x2="126.631" y2="191.816" gradientUnits="userSpaceOnUse">
<stop stop-color="#FFB6D5"/>
<stop offset="0.1" stop-color="#FFE3C0"/>
<stop offset="0.29" stop-color="#C7FBDB"/>
<stop offset="0.43" stop-color="#C7CDF4"/>
<stop offset="0.54" stop-color="#FFBCD4"/>
<stop offset="0.66" stop-color="#FFE0C3"/>
<stop offset="0.76" stop-color="#B0F1D4"/>
<stop offset="0.84" stop-color="#C9CEEC"/>
<stop offset="0.91" stop-color="#FFC1DA"/>
<stop offset="1" stop-color="#BDFFE3"/>
</linearGradient>
<linearGradient id="paint1_linear_2211_31347" x1="190.913" y1="345.281" x2="265.612" y2="314.917" gradientUnits="userSpaceOnUse">
<stop stop-color="#FFB6D5"/>
<stop offset="0.1" stop-color="#FFE3C0"/>
<stop offset="0.29" stop-color="#C7FBDB"/>
<stop offset="0.43" stop-color="#C7CDF4"/>
<stop offset="0.54" stop-color="#FFBCD4"/>
<stop offset="0.66" stop-color="#FFE0C3"/>
<stop offset="0.76" stop-color="#B0F1D4"/>
<stop offset="0.84" stop-color="#C9CEEC"/>
<stop offset="0.91" stop-color="#FFC1DA"/>
<stop offset="1" stop-color="#BDFFE3"/>
</linearGradient>
<linearGradient id="paint2_linear_2211_31347" x1="236.009" y1="342.301" x2="260.46" y2="337.148" gradientUnits="userSpaceOnUse">
<stop stop-color="#FFB6D5"/>
<stop offset="0.1" stop-color="#FFE3C0"/>
<stop offset="0.29" stop-color="#C7FBDB"/>
<stop offset="0.43" stop-color="#C7CDF4"/>
<stop offset="0.54" stop-color="#FFBCD4"/>
<stop offset="0.66" stop-color="#FFE0C3"/>
<stop offset="0.76" stop-color="#B0F1D4"/>
<stop offset="0.84" stop-color="#C9CEEC"/>
<stop offset="0.91" stop-color="#FFC1DA"/>
<stop offset="1" stop-color="#BDFFE3"/>
</linearGradient>
<linearGradient id="paint3_linear_2211_31347" x1="51.7259" y1="234.653" x2="74.0398" y2="224.514" gradientUnits="userSpaceOnUse">
<stop stop-color="#FFB6D5"/>
<stop offset="0.1" stop-color="#FFE3C0"/>
<stop offset="0.29" stop-color="#C7FBDB"/>
<stop offset="0.43" stop-color="#C7CDF4"/>
<stop offset="0.54" stop-color="#FFBCD4"/>
<stop offset="0.66" stop-color="#FFE0C3"/>
<stop offset="0.76" stop-color="#B0F1D4"/>
<stop offset="0.84" stop-color="#C9CEEC"/>
<stop offset="0.91" stop-color="#FFC1DA"/>
<stop offset="1" stop-color="#BDFFE3"/>
</linearGradient>
<linearGradient id="paint4_linear_2211_31347" x1="60.0535" y1="270.575" x2="91.3951" y2="262.5" gradientUnits="userSpaceOnUse">
<stop stop-color="#FFB6D5"/>
<stop offset="0.1" stop-color="#FFE3C0"/>
<stop offset="0.29" stop-color="#C7FBDB"/>
<stop offset="0.43" stop-color="#C7CDF4"/>
<stop offset="0.54" stop-color="#FFBCD4"/>
<stop offset="0.66" stop-color="#FFE0C3"/>
<stop offset="0.76" stop-color="#B0F1D4"/>
<stop offset="0.84" stop-color="#C9CEEC"/>
<stop offset="0.91" stop-color="#FFC1DA"/>
<stop offset="1" stop-color="#BDFFE3"/>
</linearGradient>
<linearGradient id="paint5_linear_2211_31347" x1="67.7454" y1="253.304" x2="75.2646" y2="251.356" gradientUnits="userSpaceOnUse">
<stop stop-color="#FFB6D5"/>
<stop offset="0.1" stop-color="#FFE3C0"/>
<stop offset="0.29" stop-color="#C7FBDB"/>
<stop offset="0.43" stop-color="#C7CDF4"/>
<stop offset="0.54" stop-color="#FFBCD4"/>
<stop offset="0.66" stop-color="#FFE0C3"/>
<stop offset="0.76" stop-color="#B0F1D4"/>
<stop offset="0.84" stop-color="#C9CEEC"/>
<stop offset="0.91" stop-color="#FFC1DA"/>
<stop offset="1" stop-color="#BDFFE3"/>
</linearGradient>
<linearGradient id="paint6_linear_2211_31347" x1="64.6633" y1="238.681" x2="67.0214" y2="237.925" gradientUnits="userSpaceOnUse">
<stop stop-color="#FFB6D5"/>
<stop offset="0.1" stop-color="#FFE3C0"/>
<stop offset="0.29" stop-color="#C7FBDB"/>
<stop offset="0.43" stop-color="#C7CDF4"/>
<stop offset="0.54" stop-color="#FFBCD4"/>
<stop offset="0.66" stop-color="#FFE0C3"/>
<stop offset="0.76" stop-color="#B0F1D4"/>
<stop offset="0.84" stop-color="#C9CEEC"/>
<stop offset="0.91" stop-color="#FFC1DA"/>
<stop offset="1" stop-color="#BDFFE3"/>
</linearGradient>
<linearGradient id="paint7_linear_2211_31347" x1="65.0296" y1="254.311" x2="67.8646" y2="253.715" gradientUnits="userSpaceOnUse">
<stop stop-color="#FFB6D5"/>
<stop offset="0.1" stop-color="#FFE3C0"/>
<stop offset="0.29" stop-color="#C7FBDB"/>
<stop offset="0.43" stop-color="#C7CDF4"/>
<stop offset="0.54" stop-color="#FFBCD4"/>
<stop offset="0.66" stop-color="#FFE0C3"/>
<stop offset="0.76" stop-color="#B0F1D4"/>
<stop offset="0.84" stop-color="#C9CEEC"/>
<stop offset="0.91" stop-color="#FFC1DA"/>
<stop offset="1" stop-color="#BDFFE3"/>
</linearGradient>
<linearGradient id="paint8_linear_2211_31347" x1="70.0601" y1="238.725" x2="73.4571" y2="237.185" gradientUnits="userSpaceOnUse">
<stop stop-color="#FFB6D5"/>
<stop offset="0.1" stop-color="#FFE3C0"/>
<stop offset="0.29" stop-color="#C7FBDB"/>
<stop offset="0.43" stop-color="#C7CDF4"/>
<stop offset="0.54" stop-color="#FFBCD4"/>
<stop offset="0.66" stop-color="#FFE0C3"/>
<stop offset="0.76" stop-color="#B0F1D4"/>
<stop offset="0.84" stop-color="#C9CEEC"/>
<stop offset="0.91" stop-color="#FFC1DA"/>
<stop offset="1" stop-color="#BDFFE3"/>
</linearGradient>
<linearGradient id="paint9_linear_2211_31347" x1="63.5596" y1="244.821" x2="65.3575" y2="244.596" gradientUnits="userSpaceOnUse">
<stop stop-color="#FFB6D5"/>
<stop offset="0.1" stop-color="#FFE3C0"/>
<stop offset="0.29" stop-color="#C7FBDB"/>
<stop offset="0.43" stop-color="#C7CDF4"/>
<stop offset="0.54" stop-color="#FFBCD4"/>
<stop offset="0.66" stop-color="#FFE0C3"/>
<stop offset="0.76" stop-color="#B0F1D4"/>
<stop offset="0.84" stop-color="#C9CEEC"/>
<stop offset="0.91" stop-color="#FFC1DA"/>
<stop offset="1" stop-color="#BDFFE3"/>
</linearGradient>
<linearGradient id="paint10_linear_2211_31347" x1="75.8736" y1="259.007" x2="78.7189" y2="258.07" gradientUnits="userSpaceOnUse">
<stop stop-color="#FFB6D5"/>
<stop offset="0.1" stop-color="#FFE3C0"/>
<stop offset="0.29" stop-color="#C7FBDB"/>
<stop offset="0.43" stop-color="#C7CDF4"/>
<stop offset="0.54" stop-color="#FFBCD4"/>
<stop offset="0.66" stop-color="#FFE0C3"/>
<stop offset="0.76" stop-color="#B0F1D4"/>
<stop offset="0.84" stop-color="#C9CEEC"/>
<stop offset="0.91" stop-color="#FFC1DA"/>
<stop offset="1" stop-color="#BDFFE3"/>
</linearGradient>
<linearGradient id="paint11_linear_2211_31347" x1="70.0229" y1="259.058" x2="73.5751" y2="257.535" gradientUnits="userSpaceOnUse">
<stop stop-color="#FFB6D5"/>
<stop offset="0.1" stop-color="#FFE3C0"/>
<stop offset="0.29" stop-color="#C7FBDB"/>
<stop offset="0.43" stop-color="#C7CDF4"/>
<stop offset="0.54" stop-color="#FFBCD4"/>
<stop offset="0.66" stop-color="#FFE0C3"/>
<stop offset="0.76" stop-color="#B0F1D4"/>
<stop offset="0.84" stop-color="#C9CEEC"/>
<stop offset="0.91" stop-color="#FFC1DA"/>
<stop offset="1" stop-color="#BDFFE3"/>
</linearGradient>
<linearGradient id="paint12_linear_2211_31347" x1="78.1265" y1="254.017" x2="79.8996" y2="253.805" gradientUnits="userSpaceOnUse">
<stop stop-color="#FFB6D5"/>
<stop offset="0.1" stop-color="#FFE3C0"/>
<stop offset="0.29" stop-color="#C7FBDB"/>
<stop offset="0.43" stop-color="#C7CDF4"/>
<stop offset="0.54" stop-color="#FFBCD4"/>
<stop offset="0.66" stop-color="#FFE0C3"/>
<stop offset="0.76" stop-color="#B0F1D4"/>
<stop offset="0.84" stop-color="#C9CEEC"/>
<stop offset="0.91" stop-color="#FFC1DA"/>
<stop offset="1" stop-color="#BDFFE3"/>
</linearGradient>
<linearGradient id="paint13_linear_2211_31347" x1="75.8903" y1="245.47" x2="78.8056" y2="244.859" gradientUnits="userSpaceOnUse">
<stop stop-color="#FFB6D5"/>
<stop offset="0.1" stop-color="#FFE3C0"/>
<stop offset="0.29" stop-color="#C7FBDB"/>
<stop offset="0.43" stop-color="#C7CDF4"/>
<stop offset="0.54" stop-color="#FFBCD4"/>
<stop offset="0.66" stop-color="#FFE0C3"/>
<stop offset="0.76" stop-color="#B0F1D4"/>
<stop offset="0.84" stop-color="#C9CEEC"/>
<stop offset="0.91" stop-color="#FFC1DA"/>
<stop offset="1" stop-color="#BDFFE3"/>
</linearGradient>
<linearGradient id="paint14_linear_2211_31347" x1="61.9238" y1="260.839" x2="117.358" y2="235.558" gradientUnits="userSpaceOnUse">
<stop stop-color="#FFB6D5"/>
<stop offset="0.1" stop-color="#FFE3C0"/>
<stop offset="0.29" stop-color="#C7FBDB"/>
<stop offset="0.43" stop-color="#C7CDF4"/>
<stop offset="0.54" stop-color="#FFBCD4"/>
<stop offset="0.66" stop-color="#FFE0C3"/>
<stop offset="0.76" stop-color="#B0F1D4"/>
<stop offset="0.84" stop-color="#C9CEEC"/>
<stop offset="0.91" stop-color="#FFC1DA"/>
<stop offset="1" stop-color="#BDFFE3"/>
</linearGradient>
<linearGradient id="paint15_linear_2211_31347" x1="99.2748" y1="261.459" x2="121.589" y2="251.32" gradientUnits="userSpaceOnUse">
<stop stop-color="#FFB6D5"/>
<stop offset="0.1" stop-color="#FFE3C0"/>
<stop offset="0.29" stop-color="#C7FBDB"/>
<stop offset="0.43" stop-color="#C7CDF4"/>
<stop offset="0.54" stop-color="#FFBCD4"/>
<stop offset="0.66" stop-color="#FFE0C3"/>
<stop offset="0.76" stop-color="#B0F1D4"/>
<stop offset="0.84" stop-color="#C9CEEC"/>
<stop offset="0.91" stop-color="#FFC1DA"/>
<stop offset="1" stop-color="#BDFFE3"/>
</linearGradient>
<linearGradient id="paint16_linear_2211_31347" x1="107.602" y1="297.381" x2="138.944" y2="289.305" gradientUnits="userSpaceOnUse">
<stop stop-color="#FFB6D5"/>
<stop offset="0.1" stop-color="#FFE3C0"/>
<stop offset="0.29" stop-color="#C7FBDB"/>
<stop offset="0.43" stop-color="#C7CDF4"/>
<stop offset="0.54" stop-color="#FFBCD4"/>
<stop offset="0.66" stop-color="#FFE0C3"/>
<stop offset="0.76" stop-color="#B0F1D4"/>
<stop offset="0.84" stop-color="#C9CEEC"/>
<stop offset="0.91" stop-color="#FFC1DA"/>
<stop offset="1" stop-color="#BDFFE3"/>
</linearGradient>
<linearGradient id="paint17_linear_2211_31347" x1="115.273" y1="280.109" x2="122.792" y2="278.162" gradientUnits="userSpaceOnUse">
<stop stop-color="#FFB6D5"/>
<stop offset="0.1" stop-color="#FFE3C0"/>
<stop offset="0.29" stop-color="#C7FBDB"/>
<stop offset="0.43" stop-color="#C7CDF4"/>
<stop offset="0.54" stop-color="#FFBCD4"/>
<stop offset="0.66" stop-color="#FFE0C3"/>
<stop offset="0.76" stop-color="#B0F1D4"/>
<stop offset="0.84" stop-color="#C9CEEC"/>
<stop offset="0.91" stop-color="#FFC1DA"/>
<stop offset="1" stop-color="#BDFFE3"/>
</linearGradient>
<linearGradient id="paint18_linear_2211_31347" x1="112.19" y1="265.487" x2="114.548" y2="264.73" gradientUnits="userSpaceOnUse">
<stop stop-color="#FFB6D5"/>
<stop offset="0.1" stop-color="#FFE3C0"/>
<stop offset="0.29" stop-color="#C7FBDB"/>
<stop offset="0.43" stop-color="#C7CDF4"/>
<stop offset="0.54" stop-color="#FFBCD4"/>
<stop offset="0.66" stop-color="#FFE0C3"/>
<stop offset="0.76" stop-color="#B0F1D4"/>
<stop offset="0.84" stop-color="#C9CEEC"/>
<stop offset="0.91" stop-color="#FFC1DA"/>
<stop offset="1" stop-color="#BDFFE3"/>
</linearGradient>
<linearGradient id="paint19_linear_2211_31347" x1="112.556" y1="281.117" x2="115.391" y2="280.52" gradientUnits="userSpaceOnUse">
<stop stop-color="#FFB6D5"/>
<stop offset="0.1" stop-color="#FFE3C0"/>
<stop offset="0.29" stop-color="#C7FBDB"/>
<stop offset="0.43" stop-color="#C7CDF4"/>
<stop offset="0.54" stop-color="#FFBCD4"/>
<stop offset="0.66" stop-color="#FFE0C3"/>
<stop offset="0.76" stop-color="#B0F1D4"/>
<stop offset="0.84" stop-color="#C9CEEC"/>
<stop offset="0.91" stop-color="#FFC1DA"/>
<stop offset="1" stop-color="#BDFFE3"/>
</linearGradient>
<linearGradient id="paint20_linear_2211_31347" x1="117.586" y1="265.53" x2="120.983" y2="263.991" gradientUnits="userSpaceOnUse">
<stop stop-color="#FFB6D5"/>
<stop offset="0.1" stop-color="#FFE3C0"/>
<stop offset="0.29" stop-color="#C7FBDB"/>
<stop offset="0.43" stop-color="#C7CDF4"/>
<stop offset="0.54" stop-color="#FFBCD4"/>
<stop offset="0.66" stop-color="#FFE0C3"/>
<stop offset="0.76" stop-color="#B0F1D4"/>
<stop offset="0.84" stop-color="#C9CEEC"/>
<stop offset="0.91" stop-color="#FFC1DA"/>
<stop offset="1" stop-color="#BDFFE3"/>
</linearGradient>
<linearGradient id="paint21_linear_2211_31347" x1="111.086" y1="271.627" x2="112.884" y2="271.402" gradientUnits="userSpaceOnUse">
<stop stop-color="#FFB6D5"/>
<stop offset="0.1" stop-color="#FFE3C0"/>
<stop offset="0.29" stop-color="#C7FBDB"/>
<stop offset="0.43" stop-color="#C7CDF4"/>
<stop offset="0.54" stop-color="#FFBCD4"/>
<stop offset="0.66" stop-color="#FFE0C3"/>
<stop offset="0.76" stop-color="#B0F1D4"/>
<stop offset="0.84" stop-color="#C9CEEC"/>
<stop offset="0.91" stop-color="#FFC1DA"/>
<stop offset="1" stop-color="#BDFFE3"/>
</linearGradient>
<linearGradient id="paint22_linear_2211_31347" x1="123.422" y1="285.813" x2="126.268" y2="284.876" gradientUnits="userSpaceOnUse">
<stop stop-color="#FFB6D5"/>
<stop offset="0.1" stop-color="#FFE3C0"/>
<stop offset="0.29" stop-color="#C7FBDB"/>
<stop offset="0.43" stop-color="#C7CDF4"/>
<stop offset="0.54" stop-color="#FFBCD4"/>
<stop offset="0.66" stop-color="#FFE0C3"/>
<stop offset="0.76" stop-color="#B0F1D4"/>
<stop offset="0.84" stop-color="#C9CEEC"/>
<stop offset="0.91" stop-color="#FFC1DA"/>
<stop offset="1" stop-color="#BDFFE3"/>
</linearGradient>
<linearGradient id="paint23_linear_2211_31347" x1="117.549" y1="285.864" x2="121.101" y2="284.341" gradientUnits="userSpaceOnUse">
<stop stop-color="#FFB6D5"/>
<stop offset="0.1" stop-color="#FFE3C0"/>
<stop offset="0.29" stop-color="#C7FBDB"/>
<stop offset="0.43" stop-color="#C7CDF4"/>
<stop offset="0.54" stop-color="#FFBCD4"/>
<stop offset="0.66" stop-color="#FFE0C3"/>
<stop offset="0.76" stop-color="#B0F1D4"/>
<stop offset="0.84" stop-color="#C9CEEC"/>
<stop offset="0.91" stop-color="#FFC1DA"/>
<stop offset="1" stop-color="#BDFFE3"/>
</linearGradient>
<linearGradient id="paint24_linear_2211_31347" x1="125.653" y1="280.823" x2="127.426" y2="280.611" gradientUnits="userSpaceOnUse">
<stop stop-color="#FFB6D5"/>
<stop offset="0.1" stop-color="#FFE3C0"/>
<stop offset="0.29" stop-color="#C7FBDB"/>
<stop offset="0.43" stop-color="#C7CDF4"/>
<stop offset="0.54" stop-color="#FFBCD4"/>
<stop offset="0.66" stop-color="#FFE0C3"/>
<stop offset="0.76" stop-color="#B0F1D4"/>
<stop offset="0.84" stop-color="#C9CEEC"/>
<stop offset="0.91" stop-color="#FFC1DA"/>
<stop offset="1" stop-color="#BDFFE3"/>
</linearGradient>
<linearGradient id="paint25_linear_2211_31347" x1="123.417" y1="272.275" x2="126.332" y2="271.664" gradientUnits="userSpaceOnUse">
<stop stop-color="#FFB6D5"/>
<stop offset="0.1" stop-color="#FFE3C0"/>
<stop offset="0.29" stop-color="#C7FBDB"/>
<stop offset="0.43" stop-color="#C7CDF4"/>
<stop offset="0.54" stop-color="#FFBCD4"/>
<stop offset="0.66" stop-color="#FFE0C3"/>
<stop offset="0.76" stop-color="#B0F1D4"/>
<stop offset="0.84" stop-color="#C9CEEC"/>
<stop offset="0.91" stop-color="#FFC1DA"/>
<stop offset="1" stop-color="#BDFFE3"/>
</linearGradient>
<linearGradient id="paint26_linear_2211_31347" x1="109.473" y1="288.142" x2="164.907" y2="262.861" gradientUnits="userSpaceOnUse">
<stop stop-color="#FFB6D5"/>
<stop offset="0.1" stop-color="#FFE3C0"/>
<stop offset="0.29" stop-color="#C7FBDB"/>
<stop offset="0.43" stop-color="#C7CDF4"/>
<stop offset="0.54" stop-color="#FFBCD4"/>
<stop offset="0.66" stop-color="#FFE0C3"/>
<stop offset="0.76" stop-color="#B0F1D4"/>
<stop offset="0.84" stop-color="#C9CEEC"/>
<stop offset="0.91" stop-color="#FFC1DA"/>
<stop offset="1" stop-color="#BDFFE3"/>
</linearGradient>
<linearGradient id="paint27_linear_2211_31347" x1="15.6049" y1="337.569" x2="283.491" y2="243.748" gradientUnits="userSpaceOnUse">
<stop stop-color="#FFB6D5"/>
<stop offset="0.1" stop-color="#FFE3C0"/>
<stop offset="0.29" stop-color="#C7FBDB"/>
<stop offset="0.43" stop-color="#C7CDF4"/>
<stop offset="0.54" stop-color="#FFBCD4"/>
<stop offset="0.66" stop-color="#FFE0C3"/>
<stop offset="0.76" stop-color="#B0F1D4"/>
<stop offset="0.84" stop-color="#C9CEEC"/>
<stop offset="0.91" stop-color="#FFC1DA"/>
<stop offset="1" stop-color="#BDFFE3"/>
</linearGradient>
<linearGradient id="paint28_linear_2211_31347" x1="22.0838" y1="211.045" x2="318.207" y2="15.2304" gradientUnits="userSpaceOnUse">
<stop stop-color="#FFB6D5"/>
<stop offset="0.1" stop-color="#FFE3C0"/>
<stop offset="0.29" stop-color="#C7FBDB"/>
<stop offset="0.43" stop-color="#C7CDF4"/>
<stop offset="0.54" stop-color="#FFBCD4"/>
<stop offset="0.66" stop-color="#FFE0C3"/>
<stop offset="0.76" stop-color="#B0F1D4"/>
<stop offset="0.84" stop-color="#C9CEEC"/>
<stop offset="0.91" stop-color="#FFC1DA"/>
<stop offset="1" stop-color="#BDFFE3"/>
</linearGradient>
<linearGradient id="paint29_linear_2211_31347" x1="242.486" y1="328.86" x2="362.068" y2="303.665" gradientUnits="userSpaceOnUse">
<stop stop-color="#FFB6D5"/>
<stop offset="0.1" stop-color="#FFE3C0"/>
<stop offset="0.29" stop-color="#C7FBDB"/>
<stop offset="0.43" stop-color="#C7CDF4"/>
<stop offset="0.54" stop-color="#FFBCD4"/>
<stop offset="0.66" stop-color="#FFE0C3"/>
<stop offset="0.76" stop-color="#B0F1D4"/>
<stop offset="0.84" stop-color="#C9CEEC"/>
<stop offset="0.91" stop-color="#FFC1DA"/>
<stop offset="1" stop-color="#BDFFE3"/>
</linearGradient>
<linearGradient id="paint30_linear_2211_31347" x1="393.599" y1="234.315" x2="409.08" y2="224.02" gradientUnits="userSpaceOnUse">
<stop stop-color="#FFB6D5"/>
<stop offset="0.1" stop-color="#FFE3C0"/>
<stop offset="0.29" stop-color="#C7FBDB"/>
<stop offset="0.43" stop-color="#C7CDF4"/>
<stop offset="0.54" stop-color="#FFBCD4"/>
<stop offset="0.66" stop-color="#FFE0C3"/>
<stop offset="0.76" stop-color="#B0F1D4"/>
<stop offset="0.84" stop-color="#C9CEEC"/>
<stop offset="0.91" stop-color="#FFC1DA"/>
<stop offset="1" stop-color="#BDFFE3"/>
</linearGradient>
<linearGradient id="paint31_linear_2211_31347" x1="253.328" y1="276.056" x2="392.118" y2="184.613" gradientUnits="userSpaceOnUse">
<stop stop-color="#FFB6D5"/>
<stop offset="0.1" stop-color="#FFE3C0"/>
<stop offset="0.29" stop-color="#C7FBDB"/>
<stop offset="0.43" stop-color="#C7CDF4"/>
<stop offset="0.54" stop-color="#FFBCD4"/>
<stop offset="0.66" stop-color="#FFE0C3"/>
<stop offset="0.76" stop-color="#B0F1D4"/>
<stop offset="0.84" stop-color="#C9CEEC"/>
<stop offset="0.91" stop-color="#FFC1DA"/>
<stop offset="1" stop-color="#BDFFE3"/>
</linearGradient>
<linearGradient id="paint32_linear_2211_31347" x1="252.2" y1="393.881" x2="297.6" y2="382.176" gradientUnits="userSpaceOnUse">
<stop stop-color="#FFB6D5"/>
<stop offset="0.1" stop-color="#FFE3C0"/>
<stop offset="0.29" stop-color="#C7FBDB"/>
<stop offset="0.43" stop-color="#C7CDF4"/>
<stop offset="0.54" stop-color="#FFBCD4"/>
<stop offset="0.66" stop-color="#FFE0C3"/>
<stop offset="0.76" stop-color="#B0F1D4"/>
<stop offset="0.84" stop-color="#C9CEEC"/>
<stop offset="0.91" stop-color="#FFC1DA"/>
<stop offset="1" stop-color="#BDFFE3"/>
</linearGradient>
<linearGradient id="paint33_linear_2211_31347" x1="257.305" y1="383.423" x2="288.647" y2="375.347" gradientUnits="userSpaceOnUse">
<stop stop-color="#FFB6D5"/>
<stop offset="0.1" stop-color="#FFE3C0"/>
<stop offset="0.29" stop-color="#C7FBDB"/>
<stop offset="0.43" stop-color="#C7CDF4"/>
<stop offset="0.54" stop-color="#FFBCD4"/>
<stop offset="0.66" stop-color="#FFE0C3"/>
<stop offset="0.76" stop-color="#B0F1D4"/>
<stop offset="0.84" stop-color="#C9CEEC"/>
<stop offset="0.91" stop-color="#FFC1DA"/>
<stop offset="1" stop-color="#BDFFE3"/>
</linearGradient>
<linearGradient id="paint34_linear_2211_31347" x1="261.915" y1="351.529" x2="264.273" y2="350.772" gradientUnits="userSpaceOnUse">
<stop stop-color="#FFB6D5"/>
<stop offset="0.1" stop-color="#FFE3C0"/>
<stop offset="0.29" stop-color="#C7FBDB"/>
<stop offset="0.43" stop-color="#C7CDF4"/>
<stop offset="0.54" stop-color="#FFBCD4"/>
<stop offset="0.66" stop-color="#FFE0C3"/>
<stop offset="0.76" stop-color="#B0F1D4"/>
<stop offset="0.84" stop-color="#C9CEEC"/>
<stop offset="0.91" stop-color="#FFC1DA"/>
<stop offset="1" stop-color="#BDFFE3"/>
</linearGradient>
<linearGradient id="paint35_linear_2211_31347" x1="262.282" y1="367.159" x2="265.117" y2="366.562" gradientUnits="userSpaceOnUse">
<stop stop-color="#FFB6D5"/>
<stop offset="0.1" stop-color="#FFE3C0"/>
<stop offset="0.29" stop-color="#C7FBDB"/>
<stop offset="0.43" stop-color="#C7CDF4"/>
<stop offset="0.54" stop-color="#FFBCD4"/>
<stop offset="0.66" stop-color="#FFE0C3"/>
<stop offset="0.76" stop-color="#B0F1D4"/>
<stop offset="0.84" stop-color="#C9CEEC"/>
<stop offset="0.91" stop-color="#FFC1DA"/>
<stop offset="1" stop-color="#BDFFE3"/>
</linearGradient>
<linearGradient id="paint36_linear_2211_31347" x1="267.312" y1="351.572" x2="270.709" y2="350.033" gradientUnits="userSpaceOnUse">
<stop stop-color="#FFB6D5"/>
<stop offset="0.1" stop-color="#FFE3C0"/>
<stop offset="0.29" stop-color="#C7FBDB"/>
<stop offset="0.43" stop-color="#C7CDF4"/>
<stop offset="0.54" stop-color="#FFBCD4"/>
<stop offset="0.66" stop-color="#FFE0C3"/>
<stop offset="0.76" stop-color="#B0F1D4"/>
<stop offset="0.84" stop-color="#C9CEEC"/>
<stop offset="0.91" stop-color="#FFC1DA"/>
<stop offset="1" stop-color="#BDFFE3"/>
</linearGradient>
<linearGradient id="paint37_linear_2211_31347" x1="260.812" y1="357.669" x2="262.609" y2="357.444" gradientUnits="userSpaceOnUse">
<stop stop-color="#FFB6D5"/>
<stop offset="0.1" stop-color="#FFE3C0"/>
<stop offset="0.29" stop-color="#C7FBDB"/>
<stop offset="0.43" stop-color="#C7CDF4"/>
<stop offset="0.54" stop-color="#FFBCD4"/>
<stop offset="0.66" stop-color="#FFE0C3"/>
<stop offset="0.76" stop-color="#B0F1D4"/>
<stop offset="0.84" stop-color="#C9CEEC"/>
<stop offset="0.91" stop-color="#FFC1DA"/>
<stop offset="1" stop-color="#BDFFE3"/>
</linearGradient>
<linearGradient id="paint38_linear_2211_31347" x1="273.126" y1="371.855" x2="275.971" y2="370.918" gradientUnits="userSpaceOnUse">
<stop stop-color="#FFB6D5"/>
<stop offset="0.1" stop-color="#FFE3C0"/>
<stop offset="0.29" stop-color="#C7FBDB"/>
<stop offset="0.43" stop-color="#C7CDF4"/>
<stop offset="0.54" stop-color="#FFBCD4"/>
<stop offset="0.66" stop-color="#FFE0C3"/>
<stop offset="0.76" stop-color="#B0F1D4"/>
<stop offset="0.84" stop-color="#C9CEEC"/>
<stop offset="0.91" stop-color="#FFC1DA"/>
<stop offset="1" stop-color="#BDFFE3"/>
</linearGradient>
<linearGradient id="paint39_linear_2211_31347" x1="267.275" y1="371.928" x2="270.827" y2="370.405" gradientUnits="userSpaceOnUse">
<stop stop-color="#FFB6D5"/>
<stop offset="0.1" stop-color="#FFE3C0"/>
<stop offset="0.29" stop-color="#C7FBDB"/>
<stop offset="0.43" stop-color="#C7CDF4"/>
<stop offset="0.54" stop-color="#FFBCD4"/>
<stop offset="0.66" stop-color="#FFE0C3"/>
<stop offset="0.76" stop-color="#B0F1D4"/>
<stop offset="0.84" stop-color="#C9CEEC"/>
<stop offset="0.91" stop-color="#FFC1DA"/>
<stop offset="1" stop-color="#BDFFE3"/>
</linearGradient>
<linearGradient id="paint40_linear_2211_31347" x1="275.378" y1="366.886" x2="277.152" y2="366.674" gradientUnits="userSpaceOnUse">
<stop stop-color="#FFB6D5"/>
<stop offset="0.1" stop-color="#FFE3C0"/>
<stop offset="0.29" stop-color="#C7FBDB"/>
<stop offset="0.43" stop-color="#C7CDF4"/>
<stop offset="0.54" stop-color="#FFBCD4"/>
<stop offset="0.66" stop-color="#FFE0C3"/>
<stop offset="0.76" stop-color="#B0F1D4"/>
<stop offset="0.84" stop-color="#C9CEEC"/>
<stop offset="0.91" stop-color="#FFC1DA"/>
<stop offset="1" stop-color="#BDFFE3"/>
</linearGradient>
<linearGradient id="paint41_linear_2211_31347" x1="273.141" y1="358.339" x2="276.057" y2="357.728" gradientUnits="userSpaceOnUse">
<stop stop-color="#FFB6D5"/>
<stop offset="0.1" stop-color="#FFE3C0"/>
<stop offset="0.29" stop-color="#C7FBDB"/>
<stop offset="0.43" stop-color="#C7CDF4"/>
<stop offset="0.54" stop-color="#FFBCD4"/>
<stop offset="0.66" stop-color="#FFE0C3"/>
<stop offset="0.76" stop-color="#B0F1D4"/>
<stop offset="0.84" stop-color="#C9CEEC"/>
<stop offset="0.91" stop-color="#FFC1DA"/>
<stop offset="1" stop-color="#BDFFE3"/>
</linearGradient>
<linearGradient id="paint42_linear_2211_31347" x1="318.313" y1="341.818" x2="434.411" y2="302.766" gradientUnits="userSpaceOnUse">
<stop stop-color="#FFB6D5"/>
<stop offset="0.1" stop-color="#FFE3C0"/>
<stop offset="0.29" stop-color="#C7FBDB"/>
<stop offset="0.43" stop-color="#C7CDF4"/>
<stop offset="0.54" stop-color="#FFBCD4"/>
<stop offset="0.66" stop-color="#FFE0C3"/>
<stop offset="0.76" stop-color="#B0F1D4"/>
<stop offset="0.84" stop-color="#C9CEEC"/>
<stop offset="0.91" stop-color="#FFC1DA"/>
<stop offset="1" stop-color="#BDFFE3"/>
</linearGradient>
<linearGradient id="paint43_linear_2211_31347" x1="300.369" y1="399.048" x2="338.641" y2="387.106" gradientUnits="userSpaceOnUse">
<stop stop-color="#FFB6D5"/>
<stop offset="0.1" stop-color="#FFE3C0"/>
<stop offset="0.29" stop-color="#C7FBDB"/>
<stop offset="0.43" stop-color="#C7CDF4"/>
<stop offset="0.54" stop-color="#FFBCD4"/>
<stop offset="0.66" stop-color="#FFE0C3"/>
<stop offset="0.76" stop-color="#B0F1D4"/>
<stop offset="0.84" stop-color="#C9CEEC"/>
<stop offset="0.91" stop-color="#FFC1DA"/>
<stop offset="1" stop-color="#BDFFE3"/>
</linearGradient>
<linearGradient id="paint44_linear_2211_31347" x1="410.267" y1="346.235" x2="424.906" y2="343.618" gradientUnits="userSpaceOnUse">
<stop stop-color="#FFB6D5"/>
<stop offset="0.1" stop-color="#FFE3C0"/>
<stop offset="0.29" stop-color="#C7FBDB"/>
<stop offset="0.43" stop-color="#C7CDF4"/>
<stop offset="0.54" stop-color="#FFBCD4"/>
<stop offset="0.66" stop-color="#FFE0C3"/>
<stop offset="0.76" stop-color="#B0F1D4"/>
<stop offset="0.84" stop-color="#C9CEEC"/>
<stop offset="0.91" stop-color="#FFC1DA"/>
<stop offset="1" stop-color="#BDFFE3"/>
</linearGradient>
<linearGradient id="paint45_linear_2211_31347" x1="329.076" y1="403.106" x2="428.336" y2="356.488" gradientUnits="userSpaceOnUse">
<stop stop-color="#FFB6D5"/>
<stop offset="0.1" stop-color="#FFE3C0"/>
<stop offset="0.29" stop-color="#C7FBDB"/>
<stop offset="0.43" stop-color="#C7CDF4"/>
<stop offset="0.54" stop-color="#FFBCD4"/>
<stop offset="0.66" stop-color="#FFE0C3"/>
<stop offset="0.76" stop-color="#B0F1D4"/>
<stop offset="0.84" stop-color="#C9CEEC"/>
<stop offset="0.91" stop-color="#FFC1DA"/>
<stop offset="1" stop-color="#BDFFE3"/>
</linearGradient>
<linearGradient id="paint46_linear_2211_31347" x1="367.645" y1="225.475" x2="375.551" y2="222.862" gradientUnits="userSpaceOnUse">
<stop stop-color="#FFB6D5"/>
<stop offset="0.1" stop-color="#FFE3C0"/>
<stop offset="0.29" stop-color="#C7FBDB"/>
<stop offset="0.43" stop-color="#C7CDF4"/>
<stop offset="0.54" stop-color="#FFBCD4"/>
<stop offset="0.66" stop-color="#FFE0C3"/>
<stop offset="0.76" stop-color="#B0F1D4"/>
<stop offset="0.84" stop-color="#C9CEEC"/>
<stop offset="0.91" stop-color="#FFC1DA"/>
<stop offset="1" stop-color="#BDFFE3"/>
</linearGradient>
<linearGradient id="paint47_linear_2211_31347" x1="343.61" y1="238.497" x2="351.517" y2="235.884" gradientUnits="userSpaceOnUse">
<stop stop-color="#FFB6D5"/>
<stop offset="0.1" stop-color="#FFE3C0"/>
<stop offset="0.29" stop-color="#C7FBDB"/>
<stop offset="0.43" stop-color="#C7CDF4"/>
<stop offset="0.54" stop-color="#FFBCD4"/>
<stop offset="0.66" stop-color="#FFE0C3"/>
<stop offset="0.76" stop-color="#B0F1D4"/>
<stop offset="0.84" stop-color="#C9CEEC"/>
<stop offset="0.91" stop-color="#FFC1DA"/>
<stop offset="1" stop-color="#BDFFE3"/>
</linearGradient>
<linearGradient id="paint48_linear_2211_31347" x1="319.575" y1="251.52" x2="327.482" y2="248.907" gradientUnits="userSpaceOnUse">
<stop stop-color="#FFB6D5"/>
<stop offset="0.1" stop-color="#FFE3C0"/>
<stop offset="0.29" stop-color="#C7FBDB"/>
<stop offset="0.43" stop-color="#C7CDF4"/>
<stop offset="0.54" stop-color="#FFBCD4"/>
<stop offset="0.66" stop-color="#FFE0C3"/>
<stop offset="0.76" stop-color="#B0F1D4"/>
<stop offset="0.84" stop-color="#C9CEEC"/>
<stop offset="0.91" stop-color="#FFC1DA"/>
<stop offset="1" stop-color="#BDFFE3"/>
</linearGradient>
<linearGradient id="paint49_linear_2211_31347" x1="340.852" y1="368.523" x2="416.76" y2="338.423" gradientUnits="userSpaceOnUse">
<stop stop-color="#FFB6D5"/>
<stop offset="0.1" stop-color="#FFE3C0"/>
<stop offset="0.29" stop-color="#C7FBDB"/>
<stop offset="0.43" stop-color="#C7CDF4"/>
<stop offset="0.54" stop-color="#FFBCD4"/>
<stop offset="0.66" stop-color="#FFE0C3"/>
<stop offset="0.76" stop-color="#B0F1D4"/>
<stop offset="0.84" stop-color="#C9CEEC"/>
<stop offset="0.91" stop-color="#FFC1DA"/>
<stop offset="1" stop-color="#BDFFE3"/>
</linearGradient>
<linearGradient id="paint50_linear_2211_31347" x1="285.772" y1="329.657" x2="289.145" y2="329.573" gradientUnits="userSpaceOnUse">
<stop stop-color="#FFB6D5"/>
<stop offset="0.1" stop-color="#FFE3C0"/>
<stop offset="0.29" stop-color="#C7FBDB"/>
<stop offset="0.43" stop-color="#C7CDF4"/>
<stop offset="0.54" stop-color="#FFBCD4"/>
<stop offset="0.66" stop-color="#FFE0C3"/>
<stop offset="0.76" stop-color="#B0F1D4"/>
<stop offset="0.84" stop-color="#C9CEEC"/>
<stop offset="0.91" stop-color="#FFC1DA"/>
<stop offset="1" stop-color="#BDFFE3"/>
</linearGradient>
<linearGradient id="paint51_linear_2211_31347" x1="286.755" y1="288.094" x2="302.216" y2="277.79" gradientUnits="userSpaceOnUse">
<stop stop-color="#FFB6D5"/>
<stop offset="0.1" stop-color="#FFE3C0"/>
<stop offset="0.29" stop-color="#C7FBDB"/>
<stop offset="0.43" stop-color="#C7CDF4"/>
<stop offset="0.54" stop-color="#FFBCD4"/>
<stop offset="0.66" stop-color="#FFE0C3"/>
<stop offset="0.76" stop-color="#B0F1D4"/>
<stop offset="0.84" stop-color="#C9CEEC"/>
<stop offset="0.91" stop-color="#FFC1DA"/>
<stop offset="1" stop-color="#BDFFE3"/>
</linearGradient>
<linearGradient id="paint52_linear_2211_31347" x1="332.703" y1="387.855" x2="353.225" y2="379.289" gradientUnits="userSpaceOnUse">
<stop stop-color="#FFB6D5"/>
<stop offset="0.1" stop-color="#FFE3C0"/>
<stop offset="0.29" stop-color="#C7FBDB"/>
<stop offset="0.43" stop-color="#C7CDF4"/>
<stop offset="0.54" stop-color="#FFBCD4"/>
<stop offset="0.66" stop-color="#FFE0C3"/>
<stop offset="0.76" stop-color="#B0F1D4"/>
<stop offset="0.84" stop-color="#C9CEEC"/>
<stop offset="0.91" stop-color="#FFC1DA"/>
<stop offset="1" stop-color="#BDFFE3"/>
</linearGradient>
<linearGradient id="paint53_linear_2211_31347" x1="332.345" y1="391.088" x2="341.089" y2="387.647" gradientUnits="userSpaceOnUse">
<stop stop-color="#FFB6D5"/>
<stop offset="0.1" stop-color="#FFE3C0"/>
<stop offset="0.29" stop-color="#C7FBDB"/>
<stop offset="0.43" stop-color="#C7CDF4"/>
<stop offset="0.54" stop-color="#FFBCD4"/>
<stop offset="0.66" stop-color="#FFE0C3"/>
<stop offset="0.76" stop-color="#B0F1D4"/>
<stop offset="0.84" stop-color="#C9CEEC"/>
<stop offset="0.91" stop-color="#FFC1DA"/>
<stop offset="1" stop-color="#BDFFE3"/>
</linearGradient>
<linearGradient id="paint54_linear_2211_31347" x1="401.68" y1="348.132" x2="423.424" y2="340.977" gradientUnits="userSpaceOnUse">
<stop stop-color="#FFB6D5"/>
<stop offset="0.1" stop-color="#FFE3C0"/>
<stop offset="0.29" stop-color="#C7FBDB"/>
<stop offset="0.43" stop-color="#C7CDF4"/>
<stop offset="0.54" stop-color="#FFBCD4"/>
<stop offset="0.66" stop-color="#FFE0C3"/>
<stop offset="0.76" stop-color="#B0F1D4"/>
<stop offset="0.84" stop-color="#C9CEEC"/>
<stop offset="0.91" stop-color="#FFC1DA"/>
<stop offset="1" stop-color="#BDFFE3"/>
</linearGradient>
<linearGradient id="paint55_linear_2211_31347" x1="411.44" y1="345.66" x2="420.177" y2="342.212" gradientUnits="userSpaceOnUse">
<stop stop-color="#FFB6D5"/>
<stop offset="0.1" stop-color="#FFE3C0"/>
<stop offset="0.29" stop-color="#C7FBDB"/>
<stop offset="0.43" stop-color="#C7CDF4"/>
<stop offset="0.54" stop-color="#FFBCD4"/>
<stop offset="0.66" stop-color="#FFE0C3"/>
<stop offset="0.76" stop-color="#B0F1D4"/>
<stop offset="0.84" stop-color="#C9CEEC"/>
<stop offset="0.91" stop-color="#FFC1DA"/>
<stop offset="1" stop-color="#BDFFE3"/>
</linearGradient>
<radialGradient id="paint56_radial_2211_31347" cx="0" cy="0" r="1" gradientUnits="userSpaceOnUse" gradientTransform="translate(156.884 85.4006) rotate(8.70893) scale(59.8246 18.5773)">
<stop stop-color="#FFB6D5"/>
<stop offset="0.1" stop-color="#FFE3C0"/>
<stop offset="0.29" stop-color="#C7FBDB"/>
<stop offset="0.43" stop-color="#C7CDF4"/>
<stop offset="0.54" stop-color="#FFBCD4"/>
<stop offset="0.66" stop-color="#FFE0C3"/>
<stop offset="0.76" stop-color="#B0F1D4"/>
<stop offset="0.84" stop-color="#C9CEEC"/>
<stop offset="0.91" stop-color="#FFC1DA"/>
<stop offset="1" stop-color="#BDFFE3"/>
</radialGradient>
<radialGradient id="paint57_radial_2211_31347" cx="0" cy="0" r="1" gradientUnits="userSpaceOnUse" gradientTransform="translate(156.883 85.402) rotate(8.70883) scale(59.8247 18.5773)">
<stop stop-color="#FFB6D5"/>
<stop offset="0.1" stop-color="#FFE3C0"/>
<stop offset="0.29" stop-color="#C7FBDB"/>
<stop offset="0.43" stop-color="#C7CDF4"/>
<stop offset="0.54" stop-color="#FFBCD4"/>
<stop offset="0.66" stop-color="#FFE0C3"/>
<stop offset="0.76" stop-color="#B0F1D4"/>
<stop offset="0.84" stop-color="#C9CEEC"/>
<stop offset="0.91" stop-color="#FFC1DA"/>
<stop offset="1" stop-color="#BDFFE3"/>
</radialGradient>
<radialGradient id="paint58_radial_2211_31347" cx="0" cy="0" r="1" gradientUnits="userSpaceOnUse" gradientTransform="translate(156.884 85.4006) rotate(8.70893) scale(59.8246 18.5773)">
<stop stop-color="#FFB6D5"/>
<stop offset="0.1" stop-color="#FFE3C0"/>
<stop offset="0.29" stop-color="#C7FBDB"/>
<stop offset="0.43" stop-color="#C7CDF4"/>
<stop offset="0.54" stop-color="#FFBCD4"/>
<stop offset="0.66" stop-color="#FFE0C3"/>
<stop offset="0.76" stop-color="#B0F1D4"/>
<stop offset="0.84" stop-color="#C9CEEC"/>
<stop offset="0.91" stop-color="#FFC1DA"/>
<stop offset="1" stop-color="#BDFFE3"/>
</radialGradient>
<linearGradient id="paint59_linear_2211_31347" x1="132.711" y1="198.548" x2="133.7" y2="198.512" gradientUnits="userSpaceOnUse">
<stop stop-color="#FFB6D5"/>
<stop offset="0.1" stop-color="#FFE3C0"/>
<stop offset="0.29" stop-color="#C7FBDB"/>
<stop offset="0.43" stop-color="#C7CDF4"/>
<stop offset="0.54" stop-color="#FFBCD4"/>
<stop offset="0.66" stop-color="#FFE0C3"/>
<stop offset="0.76" stop-color="#B0F1D4"/>
<stop offset="0.84" stop-color="#C9CEEC"/>
<stop offset="0.91" stop-color="#FFC1DA"/>
<stop offset="1" stop-color="#BDFFE3"/>
</linearGradient>
<linearGradient id="paint60_linear_2211_31347" x1="82.4031" y1="170.521" x2="115.332" y2="146.154" gradientUnits="userSpaceOnUse">
<stop stop-color="#FFB6D5"/>
<stop offset="0.1" stop-color="#FFE3C0"/>
<stop offset="0.29" stop-color="#C7FBDB"/>
<stop offset="0.43" stop-color="#C7CDF4"/>
<stop offset="0.54" stop-color="#FFBCD4"/>
<stop offset="0.66" stop-color="#FFE0C3"/>
<stop offset="0.76" stop-color="#B0F1D4"/>
<stop offset="0.84" stop-color="#C9CEEC"/>
<stop offset="0.91" stop-color="#FFC1DA"/>
<stop offset="1" stop-color="#BDFFE3"/>
</linearGradient>
<linearGradient id="paint61_linear_2211_31347" x1="83.4423" y1="195.911" x2="116.592" y2="169.27" gradientUnits="userSpaceOnUse">
<stop stop-color="#FFB6D5"/>
<stop offset="0.1" stop-color="#FFE3C0"/>
<stop offset="0.29" stop-color="#C7FBDB"/>
<stop offset="0.43" stop-color="#C7CDF4"/>
<stop offset="0.54" stop-color="#FFBCD4"/>
<stop offset="0.66" stop-color="#FFE0C3"/>
<stop offset="0.76" stop-color="#B0F1D4"/>
<stop offset="0.84" stop-color="#C9CEEC"/>
<stop offset="0.91" stop-color="#FFC1DA"/>
<stop offset="1" stop-color="#BDFFE3"/>
</linearGradient>
<linearGradient id="paint62_linear_2211_31347" x1="73.394" y1="215.8" x2="145.036" y2="207.711" gradientUnits="userSpaceOnUse">
<stop stop-color="#FFB6D5"/>
<stop offset="0.1" stop-color="#FFE3C0"/>
<stop offset="0.29" stop-color="#C7FBDB"/>
<stop offset="0.43" stop-color="#C7CDF4"/>
<stop offset="0.54" stop-color="#FFBCD4"/>
<stop offset="0.66" stop-color="#FFE0C3"/>
<stop offset="0.76" stop-color="#B0F1D4"/>
<stop offset="0.84" stop-color="#C9CEEC"/>
<stop offset="0.91" stop-color="#FFC1DA"/>
<stop offset="1" stop-color="#BDFFE3"/>
</linearGradient>
<linearGradient id="paint63_linear_2211_31347" x1="80.8134" y1="160.029" x2="82.3499" y2="160.228" gradientUnits="userSpaceOnUse">
<stop stop-color="#FFB6D5"/>
<stop offset="0.1" stop-color="#FFE3C0"/>
<stop offset="0.29" stop-color="#C7FBDB"/>
<stop offset="0.43" stop-color="#C7CDF4"/>
<stop offset="0.54" stop-color="#FFBCD4"/>
<stop offset="0.66" stop-color="#FFE0C3"/>
<stop offset="0.76" stop-color="#B0F1D4"/>
<stop offset="0.84" stop-color="#C9CEEC"/>
<stop offset="0.91" stop-color="#FFC1DA"/>
<stop offset="1" stop-color="#BDFFE3"/>
</linearGradient>
<linearGradient id="paint64_linear_2211_31347" x1="87.5295" y1="211.227" x2="122.554" y2="190.828" gradientUnits="userSpaceOnUse">
<stop stop-color="#FFB6D5"/>
<stop offset="0.1" stop-color="#FFE3C0"/>
<stop offset="0.29" stop-color="#C7FBDB"/>
<stop offset="0.43" stop-color="#C7CDF4"/>
<stop offset="0.54" stop-color="#FFBCD4"/>
<stop offset="0.66" stop-color="#FFE0C3"/>
<stop offset="0.76" stop-color="#B0F1D4"/>
<stop offset="0.84" stop-color="#C9CEEC"/>
<stop offset="0.91" stop-color="#FFC1DA"/>
<stop offset="1" stop-color="#BDFFE3"/>
</linearGradient>
<linearGradient id="paint65_linear_2211_31347" x1="86.289" y1="158.846" x2="118.708" y2="143.109" gradientUnits="userSpaceOnUse">
<stop stop-color="#FFB6D5"/>
<stop offset="0.1" stop-color="#FFE3C0"/>
<stop offset="0.29" stop-color="#C7FBDB"/>
<stop offset="0.43" stop-color="#C7CDF4"/>
<stop offset="0.54" stop-color="#FFBCD4"/>
<stop offset="0.66" stop-color="#FFE0C3"/>
<stop offset="0.76" stop-color="#B0F1D4"/>
<stop offset="0.84" stop-color="#C9CEEC"/>
<stop offset="0.91" stop-color="#FFC1DA"/>
<stop offset="1" stop-color="#BDFFE3"/>
</linearGradient>
<linearGradient id="paint66_linear_2211_31347" x1="81.3936" y1="182.915" x2="114.541" y2="155.044" gradientUnits="userSpaceOnUse">
<stop stop-color="#FFB6D5"/>
<stop offset="0.1" stop-color="#FFE3C0"/>
<stop offset="0.29" stop-color="#C7FBDB"/>
<stop offset="0.43" stop-color="#C7CDF4"/>
<stop offset="0.54" stop-color="#FFBCD4"/>
<stop offset="0.66" stop-color="#FFE0C3"/>
<stop offset="0.76" stop-color="#B0F1D4"/>
<stop offset="0.84" stop-color="#C9CEEC"/>
<stop offset="0.91" stop-color="#FFC1DA"/>
<stop offset="1" stop-color="#BDFFE3"/>
</linearGradient>
</defs>
</svg>
