<svg width="8" height="52" viewBox="0 0 8 52" fill="none" xmlns="http://www.w3.org/2000/svg">
<path d="M4.5 1C4.5 0.723858 4.27614 0.5 4 0.5C3.72386 0.5 3.5 0.723858 3.5 1L4.5 1ZM3.64645 51.3536C3.84171 51.5488 4.15829 51.5488 4.35356 51.3536L7.53554 48.1716C7.7308 47.9763 7.7308 47.6597 7.53554 47.4645C7.34027 47.2692 7.02369 47.2692 6.82843 47.4645L4 50.2929L1.17157 47.4645C0.976313 47.2692 0.65973 47.2692 0.464468 47.4645C0.269206 47.6597 0.269206 47.9763 0.464468 48.1716L3.64645 51.3536ZM3.5 1L3.5 51L4.5 51L4.5 1L3.5 1Z" fill="#222222"/>
</svg>
