<svg width="2425" height="1648" viewBox="0 0 2425 1648" fill="none" xmlns="http://www.w3.org/2000/svg">
<g opacity="0.18" filter="url(#filter0_f_3079_62362)">
<path d="M984.919 1210.81C1213.17 1149.65 1369.41 992.607 1333.88 860.038C1298.36 727.469 1084.53 669.58 856.283 730.739C628.033 791.899 471.795 948.947 507.317 1081.52C542.839 1214.08 756.668 1271.97 984.919 1210.81Z" fill="#75DAFD"/>
</g>
<g opacity="0.18" filter="url(#filter1_f_3079_62362)">
<path d="M1675.26 413.804C1510.83 318.932 1322.81 743.912 1319.71 750.942C1319.61 751.161 1319.7 750.95 1319.62 751.175C1317.1 758.338 1222.72 1029.02 1319.67 1146.79C1439.1 1291.86 1660.2 1271.22 1801.02 1146.79C1960.28 1006.06 1887.14 797.008 1801.02 602.77C1765.09 521.741 1752.06 458.119 1675.26 413.804Z" fill="#B46FFF"/>
</g>
<g opacity="0.13" filter="url(#filter2_d_3079_62362)">
<path d="M849.439 487.032L890.473 594.083H864.938L857.115 571.965H811.063L803.24 594.083H778L819.033 487.032H849.439ZM816.672 553.239H851.358L834.089 507.971L816.672 553.239Z" fill="url(#paint0_linear_3079_62362)"/>
<path d="M971.217 538.346C981.844 541.147 990.553 550.142 990.553 562.086C990.553 583.319 974.759 594.083 950.257 594.083H902.877V487.917H948.486C974.612 487.917 986.42 500.45 986.42 515.491C986.42 525.812 980.958 533.48 971.217 538.346ZM926.198 507.528V529.646H950.7C959.261 529.646 963.246 527.287 963.246 518.587C963.246 510.625 959.556 507.528 949.519 507.528H926.198ZM950.848 574.324C961.032 574.324 966.493 571.228 966.493 562.086C966.493 551.322 962.803 548.225 951.438 548.225H926.198V574.324H950.848Z" fill="url(#paint1_linear_3079_62362)"/>
<path d="M1058.16 486C1089.45 486 1113.21 506.791 1113.21 541C1113.21 575.357 1089.45 596 1058.16 596C1027.01 596 1003.25 575.209 1003.25 541C1003.25 506.791 1027.01 486 1058.16 486ZM1058.16 575.651C1078.97 575.651 1088.41 564.592 1088.41 541C1088.41 517.555 1078.97 506.349 1058.16 506.349C1037.49 506.349 1028.04 517.555 1028.04 541C1028.04 564.592 1037.49 575.651 1058.16 575.651Z" fill="url(#paint2_linear_3079_62362)"/>
<path d="M1196.92 487.917H1220.98V551.469C1220.98 575.651 1207.4 596 1174.92 596C1142.6 596 1129.02 575.651 1129.02 551.469V487.917H1153.08V553.091C1153.08 569.311 1157.8 575.651 1174.92 575.651C1192.19 575.651 1196.92 569.311 1196.92 553.091V487.917Z" fill="url(#paint3_linear_3079_62362)"/>
<path d="M1234.1 487.917H1325.47V508.708H1291.81V594.083H1267.75V508.708H1234.1V487.917Z" fill="url(#paint4_linear_3079_62362)"/>
<path d="M1444.12 487.917H1468.18V551.469C1468.18 575.651 1454.6 596 1422.13 596C1389.8 596 1376.22 575.651 1376.22 551.469V487.917H1400.28V553.091C1400.28 569.311 1405.01 575.651 1422.13 575.651C1439.4 575.651 1444.12 569.311 1444.12 553.091V487.917Z" fill="url(#paint5_linear_3079_62362)"/>
<path d="M1509.94 516.965C1509.94 523.011 1514.37 525.37 1534.15 530.383C1559.83 536.871 1574 543.949 1574 564.003C1574 586.71 1553.93 596 1528.83 596C1501.67 596 1488.83 583.761 1483.67 563.265H1507.87C1509.5 572.408 1514.52 576.536 1528.54 576.536C1542.71 576.536 1549.5 574.029 1549.5 564.15C1549.5 557.22 1544.77 553.828 1525.29 549.11C1498.28 542.475 1485.73 534.512 1485.73 517.26C1485.73 495.29 1506.1 486 1527.8 486C1554.37 486 1567.8 497.649 1572.97 517.113H1549.06C1546.4 508.265 1541.53 505.316 1527.65 505.316C1515.7 505.316 1509.94 508.265 1509.94 516.965Z" fill="url(#paint6_linear_3079_62362)"/>
</g>
<g filter="url(#filter3_d_3079_62362)">
<mask id="path-4-inside-1_3079_62362" fill="white">
<path d="M849.439 487.032L890.473 594.083H864.938L857.115 571.965H811.063L803.24 594.083H778L819.033 487.032H849.439ZM816.672 553.239H851.358L834.089 507.971L816.672 553.239Z"/>
<path d="M971.217 538.346C981.844 541.147 990.553 550.142 990.553 562.086C990.553 583.319 974.759 594.083 950.257 594.083H902.877V487.917H948.486C974.612 487.917 986.42 500.45 986.42 515.491C986.42 525.812 980.958 533.48 971.217 538.346ZM926.198 507.528V529.646H950.7C959.261 529.646 963.246 527.287 963.246 518.587C963.246 510.625 959.556 507.528 949.519 507.528H926.198ZM950.848 574.324C961.032 574.324 966.493 571.228 966.493 562.086C966.493 551.322 962.803 548.225 951.438 548.225H926.198V574.324H950.848Z"/>
<path d="M1058.16 486C1089.45 486 1113.21 506.791 1113.21 541C1113.21 575.357 1089.45 596 1058.16 596C1027.01 596 1003.25 575.209 1003.25 541C1003.25 506.791 1027.01 486 1058.16 486ZM1058.16 575.651C1078.97 575.651 1088.41 564.592 1088.41 541C1088.41 517.555 1078.97 506.349 1058.16 506.349C1037.49 506.349 1028.04 517.555 1028.04 541C1028.04 564.592 1037.49 575.651 1058.16 575.651Z"/>
<path d="M1196.92 487.917H1220.98V551.469C1220.98 575.651 1207.4 596 1174.92 596C1142.6 596 1129.02 575.651 1129.02 551.469V487.917H1153.08V553.091C1153.08 569.311 1157.8 575.651 1174.92 575.651C1192.19 575.651 1196.92 569.311 1196.92 553.091V487.917Z"/>
<path d="M1234.1 487.917H1325.47V508.708H1291.81V594.083H1267.75V508.708H1234.1V487.917Z"/>
<path d="M1444.12 487.917H1468.18V551.469C1468.18 575.651 1454.6 596 1422.13 596C1389.8 596 1376.22 575.651 1376.22 551.469V487.917H1400.28V553.091C1400.28 569.311 1405.01 575.651 1422.13 575.651C1439.4 575.651 1444.12 569.311 1444.12 553.091V487.917Z"/>
<path d="M1509.94 516.965C1509.94 523.011 1514.37 525.37 1534.15 530.383C1559.83 536.871 1574 543.949 1574 564.003C1574 586.71 1553.93 596 1528.83 596C1501.67 596 1488.83 583.761 1483.67 563.265H1507.87C1509.5 572.408 1514.52 576.536 1528.54 576.536C1542.71 576.536 1549.5 574.029 1549.5 564.15C1549.5 557.22 1544.77 553.828 1525.29 549.11C1498.28 542.475 1485.73 534.512 1485.73 517.26C1485.73 495.29 1506.1 486 1527.8 486C1554.37 486 1567.8 497.649 1572.97 517.113H1549.06C1546.4 508.265 1541.53 505.316 1527.65 505.316C1515.7 505.316 1509.94 508.265 1509.94 516.965Z"/>
</mask>
<path d="M849.439 487.032L890.473 594.083H864.938L857.115 571.965H811.063L803.24 594.083H778L819.033 487.032H849.439ZM816.672 553.239H851.358L834.089 507.971L816.672 553.239Z" fill="white" fill-opacity="0.38" shape-rendering="crispEdges"/>
<path d="M971.217 538.346C981.844 541.147 990.553 550.142 990.553 562.086C990.553 583.319 974.759 594.083 950.257 594.083H902.877V487.917H948.486C974.612 487.917 986.42 500.45 986.42 515.491C986.42 525.812 980.958 533.48 971.217 538.346ZM926.198 507.528V529.646H950.7C959.261 529.646 963.246 527.287 963.246 518.587C963.246 510.625 959.556 507.528 949.519 507.528H926.198ZM950.848 574.324C961.032 574.324 966.493 571.228 966.493 562.086C966.493 551.322 962.803 548.225 951.438 548.225H926.198V574.324H950.848Z" fill="white" fill-opacity="0.38" shape-rendering="crispEdges"/>
<path d="M1058.16 486C1089.45 486 1113.21 506.791 1113.21 541C1113.21 575.357 1089.45 596 1058.16 596C1027.01 596 1003.25 575.209 1003.25 541C1003.25 506.791 1027.01 486 1058.16 486ZM1058.16 575.651C1078.97 575.651 1088.41 564.592 1088.41 541C1088.41 517.555 1078.97 506.349 1058.16 506.349C1037.49 506.349 1028.04 517.555 1028.04 541C1028.04 564.592 1037.49 575.651 1058.16 575.651Z" fill="white" fill-opacity="0.38" shape-rendering="crispEdges"/>
<path d="M1196.92 487.917H1220.98V551.469C1220.98 575.651 1207.4 596 1174.92 596C1142.6 596 1129.02 575.651 1129.02 551.469V487.917H1153.08V553.091C1153.08 569.311 1157.8 575.651 1174.92 575.651C1192.19 575.651 1196.92 569.311 1196.92 553.091V487.917Z" fill="white" fill-opacity="0.38" shape-rendering="crispEdges"/>
<path d="M1234.1 487.917H1325.47V508.708H1291.81V594.083H1267.75V508.708H1234.1V487.917Z" fill="white" fill-opacity="0.38" shape-rendering="crispEdges"/>
<path d="M1444.12 487.917H1468.18V551.469C1468.18 575.651 1454.6 596 1422.13 596C1389.8 596 1376.22 575.651 1376.22 551.469V487.917H1400.28V553.091C1400.28 569.311 1405.01 575.651 1422.13 575.651C1439.4 575.651 1444.12 569.311 1444.12 553.091V487.917Z" fill="white" fill-opacity="0.38" shape-rendering="crispEdges"/>
<path d="M1509.94 516.965C1509.94 523.011 1514.37 525.37 1534.15 530.383C1559.83 536.871 1574 543.949 1574 564.003C1574 586.71 1553.93 596 1528.83 596C1501.67 596 1488.83 583.761 1483.67 563.265H1507.87C1509.5 572.408 1514.52 576.536 1528.54 576.536C1542.71 576.536 1549.5 574.029 1549.5 564.15C1549.5 557.22 1544.77 553.828 1525.29 549.11C1498.28 542.475 1485.73 534.512 1485.73 517.26C1485.73 495.29 1506.1 486 1527.8 486C1554.37 486 1567.8 497.649 1572.97 517.113H1549.06C1546.4 508.265 1541.53 505.316 1527.65 505.316C1515.7 505.316 1509.94 508.265 1509.94 516.965Z" fill="white" fill-opacity="0.38" shape-rendering="crispEdges"/>
<path d="M849.439 487.032L890.473 594.083H864.938L857.115 571.965H811.063L803.24 594.083H778L819.033 487.032H849.439ZM816.672 553.239H851.358L834.089 507.971L816.672 553.239Z" stroke="white" stroke-width="4" shape-rendering="crispEdges" mask="url(#path-4-inside-1_3079_62362)"/>
<path d="M971.217 538.346C981.844 541.147 990.553 550.142 990.553 562.086C990.553 583.319 974.759 594.083 950.257 594.083H902.877V487.917H948.486C974.612 487.917 986.42 500.45 986.42 515.491C986.42 525.812 980.958 533.48 971.217 538.346ZM926.198 507.528V529.646H950.7C959.261 529.646 963.246 527.287 963.246 518.587C963.246 510.625 959.556 507.528 949.519 507.528H926.198ZM950.848 574.324C961.032 574.324 966.493 571.228 966.493 562.086C966.493 551.322 962.803 548.225 951.438 548.225H926.198V574.324H950.848Z" stroke="white" stroke-width="4" shape-rendering="crispEdges" mask="url(#path-4-inside-1_3079_62362)"/>
<path d="M1058.16 486C1089.45 486 1113.21 506.791 1113.21 541C1113.21 575.357 1089.45 596 1058.16 596C1027.01 596 1003.25 575.209 1003.25 541C1003.25 506.791 1027.01 486 1058.16 486ZM1058.16 575.651C1078.97 575.651 1088.41 564.592 1088.41 541C1088.41 517.555 1078.97 506.349 1058.16 506.349C1037.49 506.349 1028.04 517.555 1028.04 541C1028.04 564.592 1037.49 575.651 1058.16 575.651Z" stroke="white" stroke-width="4" shape-rendering="crispEdges" mask="url(#path-4-inside-1_3079_62362)"/>
<path d="M1196.92 487.917H1220.98V551.469C1220.98 575.651 1207.4 596 1174.92 596C1142.6 596 1129.02 575.651 1129.02 551.469V487.917H1153.08V553.091C1153.08 569.311 1157.8 575.651 1174.92 575.651C1192.19 575.651 1196.92 569.311 1196.92 553.091V487.917Z" stroke="white" stroke-width="4" shape-rendering="crispEdges" mask="url(#path-4-inside-1_3079_62362)"/>
<path d="M1234.1 487.917H1325.47V508.708H1291.81V594.083H1267.75V508.708H1234.1V487.917Z" stroke="white" stroke-width="4" shape-rendering="crispEdges" mask="url(#path-4-inside-1_3079_62362)"/>
<path d="M1444.12 487.917H1468.18V551.469C1468.18 575.651 1454.6 596 1422.13 596C1389.8 596 1376.22 575.651 1376.22 551.469V487.917H1400.28V553.091C1400.28 569.311 1405.01 575.651 1422.13 575.651C1439.4 575.651 1444.12 569.311 1444.12 553.091V487.917Z" stroke="white" stroke-width="4" shape-rendering="crispEdges" mask="url(#path-4-inside-1_3079_62362)"/>
<path d="M1509.94 516.965C1509.94 523.011 1514.37 525.37 1534.15 530.383C1559.83 536.871 1574 543.949 1574 564.003C1574 586.71 1553.93 596 1528.83 596C1501.67 596 1488.83 583.761 1483.67 563.265H1507.87C1509.5 572.408 1514.52 576.536 1528.54 576.536C1542.71 576.536 1549.5 574.029 1549.5 564.15C1549.5 557.22 1544.77 553.828 1525.29 549.11C1498.28 542.475 1485.73 534.512 1485.73 517.26C1485.73 495.29 1506.1 486 1527.8 486C1554.37 486 1567.8 497.649 1572.97 517.113H1549.06C1546.4 508.265 1541.53 505.316 1527.65 505.316C1515.7 505.316 1509.94 508.265 1509.94 516.965Z" stroke="white" stroke-width="4" shape-rendering="crispEdges" mask="url(#path-4-inside-1_3079_62362)"/>
</g>
<defs>
<filter id="filter0_f_3079_62362" x="102.282" y="306.363" width="1636.63" height="1328.82" filterUnits="userSpaceOnUse" color-interpolation-filters="sRGB">
<feFlood flood-opacity="0" result="BackgroundImageFix"/>
<feBlend mode="normal" in="SourceGraphic" in2="BackgroundImageFix" result="shape"/>
<feGaussianBlur stdDeviation="200" result="effect1_foregroundBlur_3079_62362"/>
</filter>
<filter id="filter1_f_3079_62362" x="876.002" y="0" width="1419" height="1648" filterUnits="userSpaceOnUse" color-interpolation-filters="sRGB">
<feFlood flood-opacity="0" result="BackgroundImageFix"/>
<feBlend mode="normal" in="SourceGraphic" in2="BackgroundImageFix" result="shape"/>
<feGaussianBlur stdDeviation="200" result="effect1_foregroundBlur_3079_62362"/>
</filter>
<filter id="filter2_d_3079_62362" x="777" y="486" width="804" height="118" filterUnits="userSpaceOnUse" color-interpolation-filters="sRGB">
<feFlood flood-opacity="0" result="BackgroundImageFix"/>
<feColorMatrix in="SourceAlpha" type="matrix" values="0 0 0 0 0 0 0 0 0 0 0 0 0 0 0 0 0 0 127 0" result="hardAlpha"/>
<feOffset dx="3" dy="4"/>
<feGaussianBlur stdDeviation="2"/>
<feComposite in2="hardAlpha" operator="out"/>
<feColorMatrix type="matrix" values="0 0 0 0 0.593372 0 0 0 0 0.523611 0 0 0 0 0.604167 0 0 0 0.13 0"/>
<feBlend mode="normal" in2="BackgroundImageFix" result="effect1_dropShadow_3079_62362"/>
<feBlend mode="normal" in="SourceGraphic" in2="effect1_dropShadow_3079_62362" result="shape"/>
</filter>
<filter id="filter3_d_3079_62362" x="777" y="486" width="804" height="118" filterUnits="userSpaceOnUse" color-interpolation-filters="sRGB">
<feFlood flood-opacity="0" result="BackgroundImageFix"/>
<feColorMatrix in="SourceAlpha" type="matrix" values="0 0 0 0 0 0 0 0 0 0 0 0 0 0 0 0 0 0 127 0" result="hardAlpha"/>
<feOffset dx="3" dy="4"/>
<feGaussianBlur stdDeviation="2"/>
<feComposite in2="hardAlpha" operator="out"/>
<feColorMatrix type="matrix" values="0 0 0 0 0.593372 0 0 0 0 0.523611 0 0 0 0 0.604167 0 0 0 0.13 0"/>
<feBlend mode="normal" in2="BackgroundImageFix" result="effect1_dropShadow_3079_62362"/>
<feBlend mode="normal" in="SourceGraphic" in2="effect1_dropShadow_3079_62362" result="shape"/>
</filter>
<linearGradient id="paint0_linear_3079_62362" x1="830.632" y1="607.826" x2="950.623" y2="280.237" gradientUnits="userSpaceOnUse">
<stop stop-color="#FFB6D5"/>
<stop offset="0.1" stop-color="#FFE3C0"/>
<stop offset="0.29" stop-color="#C7FBDB"/>
<stop offset="0.43" stop-color="#C7CDF4"/>
<stop offset="0.54" stop-color="#FFBCD4"/>
<stop offset="0.66" stop-color="#FFE0C3"/>
<stop offset="0.76" stop-color="#B0F1D4"/>
<stop offset="0.84" stop-color="#C9CEEC"/>
<stop offset="0.91" stop-color="#FFC1DA"/>
<stop offset="1" stop-color="#BDFFE3"/>
</linearGradient>
<linearGradient id="paint1_linear_3079_62362" x1="830.632" y1="607.826" x2="950.623" y2="280.237" gradientUnits="userSpaceOnUse">
<stop stop-color="#FFB6D5"/>
<stop offset="0.1" stop-color="#FFE3C0"/>
<stop offset="0.29" stop-color="#C7FBDB"/>
<stop offset="0.43" stop-color="#C7CDF4"/>
<stop offset="0.54" stop-color="#FFBCD4"/>
<stop offset="0.66" stop-color="#FFE0C3"/>
<stop offset="0.76" stop-color="#B0F1D4"/>
<stop offset="0.84" stop-color="#C9CEEC"/>
<stop offset="0.91" stop-color="#FFC1DA"/>
<stop offset="1" stop-color="#BDFFE3"/>
</linearGradient>
<linearGradient id="paint2_linear_3079_62362" x1="830.632" y1="607.826" x2="950.623" y2="280.237" gradientUnits="userSpaceOnUse">
<stop stop-color="#FFB6D5"/>
<stop offset="0.1" stop-color="#FFE3C0"/>
<stop offset="0.29" stop-color="#C7FBDB"/>
<stop offset="0.43" stop-color="#C7CDF4"/>
<stop offset="0.54" stop-color="#FFBCD4"/>
<stop offset="0.66" stop-color="#FFE0C3"/>
<stop offset="0.76" stop-color="#B0F1D4"/>
<stop offset="0.84" stop-color="#C9CEEC"/>
<stop offset="0.91" stop-color="#FFC1DA"/>
<stop offset="1" stop-color="#BDFFE3"/>
</linearGradient>
<linearGradient id="paint3_linear_3079_62362" x1="830.632" y1="607.826" x2="950.623" y2="280.237" gradientUnits="userSpaceOnUse">
<stop stop-color="#FFB6D5"/>
<stop offset="0.1" stop-color="#FFE3C0"/>
<stop offset="0.29" stop-color="#C7FBDB"/>
<stop offset="0.43" stop-color="#C7CDF4"/>
<stop offset="0.54" stop-color="#FFBCD4"/>
<stop offset="0.66" stop-color="#FFE0C3"/>
<stop offset="0.76" stop-color="#B0F1D4"/>
<stop offset="0.84" stop-color="#C9CEEC"/>
<stop offset="0.91" stop-color="#FFC1DA"/>
<stop offset="1" stop-color="#BDFFE3"/>
</linearGradient>
<linearGradient id="paint4_linear_3079_62362" x1="830.632" y1="607.826" x2="950.623" y2="280.237" gradientUnits="userSpaceOnUse">
<stop stop-color="#FFB6D5"/>
<stop offset="0.1" stop-color="#FFE3C0"/>
<stop offset="0.29" stop-color="#C7FBDB"/>
<stop offset="0.43" stop-color="#C7CDF4"/>
<stop offset="0.54" stop-color="#FFBCD4"/>
<stop offset="0.66" stop-color="#FFE0C3"/>
<stop offset="0.76" stop-color="#B0F1D4"/>
<stop offset="0.84" stop-color="#C9CEEC"/>
<stop offset="0.91" stop-color="#FFC1DA"/>
<stop offset="1" stop-color="#BDFFE3"/>
</linearGradient>
<linearGradient id="paint5_linear_3079_62362" x1="830.632" y1="607.826" x2="950.623" y2="280.237" gradientUnits="userSpaceOnUse">
<stop stop-color="#FFB6D5"/>
<stop offset="0.1" stop-color="#FFE3C0"/>
<stop offset="0.29" stop-color="#C7FBDB"/>
<stop offset="0.43" stop-color="#C7CDF4"/>
<stop offset="0.54" stop-color="#FFBCD4"/>
<stop offset="0.66" stop-color="#FFE0C3"/>
<stop offset="0.76" stop-color="#B0F1D4"/>
<stop offset="0.84" stop-color="#C9CEEC"/>
<stop offset="0.91" stop-color="#FFC1DA"/>
<stop offset="1" stop-color="#BDFFE3"/>
</linearGradient>
<linearGradient id="paint6_linear_3079_62362" x1="830.632" y1="607.826" x2="950.623" y2="280.237" gradientUnits="userSpaceOnUse">
<stop stop-color="#FFB6D5"/>
<stop offset="0.1" stop-color="#FFE3C0"/>
<stop offset="0.29" stop-color="#C7FBDB"/>
<stop offset="0.43" stop-color="#C7CDF4"/>
<stop offset="0.54" stop-color="#FFBCD4"/>
<stop offset="0.66" stop-color="#FFE0C3"/>
<stop offset="0.76" stop-color="#B0F1D4"/>
<stop offset="0.84" stop-color="#C9CEEC"/>
<stop offset="0.91" stop-color="#FFC1DA"/>
<stop offset="1" stop-color="#BDFFE3"/>
</linearGradient>
</defs>
</svg>
