<svg width="1229" height="572" viewBox="0 0 1229 572" fill="none" xmlns="http://www.w3.org/2000/svg">
<g clip-path="url(#clip0_3099_2820)">
<path d="M1056.95 27.652V29.254H1053.08V40H1051.32V29.254H1047.45V27.652H1056.95ZM1061.83 30.622C1062.68 30.622 1063.35 30.898 1063.83 31.45C1064.31 31.99 1064.55 32.674 1064.55 33.502L1064.49 34.186H1063V33.79C1063 33.43 1062.91 33.112 1062.73 32.836C1062.55 32.56 1062.32 32.35 1062.04 32.206C1061.77 32.05 1061.49 31.972 1061.22 31.972C1060.64 31.972 1060.19 32.2 1059.87 32.656C1059.54 33.112 1059.38 33.73 1059.38 34.51V40H1057.69V30.802H1058.89L1059.15 32.17C1059.22 31.93 1059.38 31.69 1059.63 31.45C1059.88 31.21 1060.2 31.012 1060.57 30.856C1060.95 30.7 1061.37 30.622 1061.83 30.622ZM1070.13 30.622C1071.34 30.622 1072.24 30.862 1072.83 31.342C1073.43 31.822 1073.73 32.518 1073.73 33.43V38.2C1073.73 38.416 1073.78 38.578 1073.87 38.686C1073.97 38.782 1074.09 38.83 1074.23 38.83C1074.51 38.83 1074.79 38.746 1075.06 38.578V39.82C1074.65 40.06 1074.19 40.18 1073.68 40.18C1073.16 40.18 1072.78 40.036 1072.52 39.748C1072.27 39.448 1072.13 39.04 1072.11 38.524C1071.37 39.628 1070.29 40.18 1068.89 40.18C1067.88 40.18 1067.12 39.964 1066.62 39.532C1066.13 39.088 1065.88 38.392 1065.88 37.444C1065.88 36.7 1066.07 36.118 1066.46 35.698C1066.84 35.266 1067.48 34.954 1068.37 34.762C1069.25 34.57 1070.48 34.474 1072.04 34.474V33.628C1072.04 33.016 1071.86 32.59 1071.5 32.35C1071.14 32.098 1070.62 31.972 1069.93 31.972C1069.28 31.972 1068.78 32.098 1068.42 32.35C1068.06 32.602 1067.88 32.956 1067.88 33.412V33.628H1066.22C1066.2 33.46 1066.19 33.262 1066.19 33.034C1066.19 32.614 1066.36 32.218 1066.69 31.846C1067.03 31.474 1067.48 31.18 1068.06 30.964C1068.64 30.736 1069.27 30.622 1069.97 30.622H1070.13ZM1072.04 35.788C1070.78 35.788 1069.82 35.854 1069.18 35.986C1068.54 36.106 1068.11 36.292 1067.9 36.544C1067.68 36.796 1067.57 37.144 1067.57 37.588C1067.57 38.416 1068.2 38.83 1069.46 38.83C1069.91 38.83 1070.33 38.722 1070.72 38.506C1071.12 38.278 1071.44 37.96 1071.68 37.552C1071.92 37.144 1072.04 36.676 1072.04 36.148V35.788ZM1080.64 30.622C1081.37 30.622 1082.03 30.784 1082.6 31.108C1083.19 31.42 1083.65 31.864 1083.97 32.44C1084.29 33.016 1084.46 33.676 1084.46 34.42H1082.78C1082.78 33.676 1082.59 33.082 1082.21 32.638C1081.83 32.194 1081.29 31.972 1080.59 31.972C1079.84 31.972 1079.25 32.224 1078.8 32.728C1078.37 33.22 1078.16 33.898 1078.16 34.762V35.734C1078.16 36.778 1078.37 37.558 1078.8 38.074C1079.24 38.578 1079.85 38.83 1080.64 38.83C1081.37 38.83 1081.92 38.614 1082.28 38.182C1082.65 37.738 1082.84 37.144 1082.84 36.4H1084.46C1084.46 37.552 1084.11 38.47 1083.41 39.154C1082.73 39.838 1081.81 40.18 1080.66 40.18H1080.51C1079.7 40.18 1078.98 39.994 1078.37 39.622C1077.76 39.238 1077.29 38.704 1076.95 38.02C1076.63 37.336 1076.46 36.538 1076.46 35.626V35.194C1076.46 34.282 1076.63 33.484 1076.97 32.8C1077.3 32.104 1077.78 31.57 1078.39 31.198C1079 30.814 1079.7 30.622 1080.5 30.622H1080.64ZM1088.52 27.04V35.932L1092.63 30.802H1094.48L1090.94 35.266L1094.72 40H1092.66L1089.91 36.58L1088.52 38.02V40H1086.83V27.04H1088.52ZM1104.93 39.64C1104.52 40.648 1104.14 41.416 1103.79 41.944C1103.45 42.484 1103.09 42.85 1102.73 43.042C1102.37 43.246 1101.95 43.348 1101.47 43.348C1101.03 43.348 1100.61 43.264 1100.21 43.096V41.71C1100.61 41.878 1100.91 41.962 1101.11 41.962C1101.6 41.962 1102.01 41.794 1102.34 41.458C1102.67 41.134 1102.95 40.618 1103.16 39.91L1099.58 30.802H1101.38L1104.03 37.588H1104.1L1106.71 30.802H1108.37L1104.93 39.64ZM1113.74 30.622C1115.03 30.622 1116.05 31.018 1116.82 31.81C1117.59 32.602 1117.97 33.688 1117.97 35.068V35.734C1117.97 37.114 1117.59 38.2 1116.84 38.992C1116.08 39.784 1115.05 40.18 1113.74 40.18C1112.43 40.18 1111.4 39.784 1110.65 38.992C1109.89 38.2 1109.51 37.114 1109.51 35.734V35.068C1109.51 33.688 1109.9 32.602 1110.66 31.81C1111.43 31.018 1112.46 30.622 1113.74 30.622ZM1113.74 31.972C1112.94 31.972 1112.31 32.248 1111.87 32.8C1111.43 33.352 1111.2 34.162 1111.2 35.23V35.572C1111.2 36.616 1111.42 37.42 1111.85 37.984C1112.3 38.548 1112.93 38.83 1113.74 38.83C1114.53 38.83 1115.15 38.554 1115.6 38.002C1116.05 37.438 1116.28 36.628 1116.28 35.572V35.23C1116.28 34.186 1116.06 33.382 1115.61 32.818C1115.18 32.254 1114.56 31.972 1113.74 31.972ZM1128.09 38.2C1128.09 38.416 1128.14 38.578 1128.24 38.686C1128.33 38.782 1128.45 38.83 1128.6 38.83C1128.86 38.83 1129.13 38.746 1129.41 38.578V39.82C1129.03 40.06 1128.66 40.18 1128.27 40.18C1127.62 40.18 1127.17 40.048 1126.9 39.784C1126.65 39.52 1126.51 39.148 1126.49 38.668C1126.17 39.148 1125.75 39.52 1125.23 39.784C1124.73 40.048 1124.14 40.18 1123.48 40.18C1122.56 40.18 1121.8 39.91 1121.2 39.37C1120.61 38.818 1120.32 38.026 1120.32 36.994V30.802H1122.01V36.688C1122.01 38.116 1122.66 38.83 1123.95 38.83C1124.37 38.83 1124.77 38.716 1125.14 38.488C1125.52 38.26 1125.83 37.954 1126.06 37.57C1126.29 37.174 1126.4 36.742 1126.4 36.274V30.802H1128.09V38.2ZM1135.67 30.622C1136.53 30.622 1137.19 30.898 1137.67 31.45C1138.15 31.99 1138.39 32.674 1138.39 33.502L1138.34 34.186H1136.84V33.79C1136.84 33.43 1136.75 33.112 1136.57 32.836C1136.39 32.56 1136.17 32.35 1135.89 32.206C1135.61 32.05 1135.34 31.972 1135.06 31.972C1134.49 31.972 1134.04 32.2 1133.71 32.656C1133.39 33.112 1133.23 33.73 1133.23 34.51V40H1131.53V30.802H1132.74L1132.99 32.17C1133.06 31.93 1133.23 31.69 1133.48 31.45C1133.73 31.21 1134.04 31.012 1134.41 30.856C1134.8 30.7 1135.22 30.622 1135.67 30.622ZM1148.86 27.652V29.254H1147.42V38.398H1148.86V40H1144.21V38.398H1145.65V29.254H1144.21V27.652H1148.86ZM1155.75 27.652C1156.79 27.652 1157.69 27.88 1158.45 28.336C1159.22 28.78 1159.82 29.422 1160.24 30.262C1160.66 31.09 1160.87 32.068 1160.87 33.196V34.456C1160.87 35.584 1160.66 36.568 1160.24 37.408C1159.82 38.236 1159.22 38.878 1158.45 39.334C1157.69 39.778 1156.79 40 1155.75 40H1151.47V27.652H1155.75ZM1153.23 29.254V38.398H1155.75C1156.82 38.398 1157.64 38.068 1158.22 37.408C1158.81 36.736 1159.1 35.752 1159.1 34.456V33.196C1159.1 31.924 1158.81 30.952 1158.24 30.28C1157.67 29.596 1156.85 29.254 1155.75 29.254H1153.23ZM1171.52 30.622C1172.81 30.622 1173.83 31.018 1174.6 31.81C1175.37 32.602 1175.75 33.688 1175.75 35.068V35.734C1175.75 37.114 1175.37 38.2 1174.62 38.992C1173.86 39.784 1172.83 40.18 1171.52 40.18C1170.21 40.18 1169.18 39.784 1168.43 38.992C1167.67 38.2 1167.29 37.114 1167.29 35.734V35.068C1167.29 33.688 1167.68 32.602 1168.44 31.81C1169.21 31.018 1170.24 30.622 1171.52 30.622ZM1171.52 31.972C1170.72 31.972 1170.09 32.248 1169.65 32.8C1169.21 33.352 1168.98 34.162 1168.98 35.23V35.572C1168.98 36.616 1169.2 37.42 1169.63 37.984C1170.08 38.548 1170.71 38.83 1171.52 38.83C1172.31 38.83 1172.93 38.554 1173.38 38.002C1173.83 37.438 1174.06 36.628 1174.06 35.572V35.23C1174.06 34.186 1173.84 33.382 1173.39 32.818C1172.96 32.254 1172.34 31.972 1171.52 31.972ZM1182.33 30.622C1183.18 30.622 1183.84 30.898 1184.32 31.45C1184.8 31.99 1185.04 32.674 1185.04 33.502L1184.99 34.186H1183.5V33.79C1183.5 33.43 1183.41 33.112 1183.23 32.836C1183.05 32.56 1182.82 32.35 1182.54 32.206C1182.27 32.05 1181.99 31.972 1181.71 31.972C1181.14 31.972 1180.69 32.2 1180.36 32.656C1180.04 33.112 1179.88 33.73 1179.88 34.51V40H1178.19V30.802H1179.39L1179.64 32.17C1179.72 31.93 1179.88 31.69 1180.13 31.45C1180.38 31.21 1180.69 31.012 1181.07 30.856C1181.45 30.7 1181.87 30.622 1182.33 30.622ZM1194.91 30.622C1195.6 30.622 1196.2 30.73 1196.73 30.946C1197.27 31.162 1197.69 31.462 1197.97 31.846C1198.27 32.23 1198.42 32.656 1198.42 33.124L1198.41 33.448H1196.73V33.286C1196.73 32.41 1196.05 31.972 1194.7 31.972C1193.35 31.972 1192.68 32.374 1192.68 33.178C1192.68 33.55 1192.87 33.826 1193.26 34.006C1193.64 34.174 1194.23 34.336 1195.02 34.492C1195.78 34.648 1196.4 34.81 1196.88 34.978C1197.37 35.146 1197.78 35.41 1198.12 35.77C1198.47 36.13 1198.64 36.616 1198.64 37.228C1198.64 38.212 1198.3 38.95 1197.63 39.442C1196.96 39.934 1195.99 40.18 1194.73 40.18H1194.46C1193.71 40.18 1193.05 40.066 1192.48 39.838C1191.92 39.598 1191.48 39.28 1191.17 38.884C1190.87 38.476 1190.73 38.02 1190.74 37.516V37.12H1192.41V37.3C1192.41 38.32 1193.27 38.83 1194.99 38.83C1195.49 38.83 1195.94 38.716 1196.34 38.488C1196.74 38.26 1196.95 37.948 1196.95 37.552C1196.95 37.216 1196.83 36.952 1196.61 36.76C1196.39 36.568 1196.12 36.424 1195.8 36.328C1195.47 36.232 1195.02 36.136 1194.45 36.04C1193.7 35.896 1193.1 35.752 1192.65 35.608C1192.19 35.452 1191.8 35.194 1191.48 34.834C1191.15 34.474 1190.99 33.982 1190.99 33.358C1190.99 32.506 1191.33 31.84 1192 31.36C1192.67 30.868 1193.59 30.622 1194.75 30.622H1194.91ZM1204.62 30.622C1205.35 30.622 1206.01 30.784 1206.58 31.108C1207.17 31.42 1207.63 31.864 1207.95 32.44C1208.27 33.016 1208.44 33.676 1208.44 34.42H1206.76C1206.76 33.676 1206.57 33.082 1206.19 32.638C1205.81 32.194 1205.27 31.972 1204.57 31.972C1203.82 31.972 1203.23 32.224 1202.78 32.728C1202.35 33.22 1202.14 33.898 1202.14 34.762V35.734C1202.14 36.778 1202.35 37.558 1202.78 38.074C1203.22 38.578 1203.83 38.83 1204.62 38.83C1205.35 38.83 1205.9 38.614 1206.26 38.182C1206.63 37.738 1206.82 37.144 1206.82 36.4H1208.44C1208.44 37.552 1208.09 38.47 1207.39 39.154C1206.71 39.838 1205.79 40.18 1204.64 40.18H1204.49C1203.68 40.18 1202.96 39.994 1202.35 39.622C1201.74 39.238 1201.27 38.704 1200.93 38.02C1200.61 37.336 1200.44 36.538 1200.44 35.626V35.194C1200.44 34.282 1200.61 33.484 1200.95 32.8C1201.28 32.104 1201.76 31.57 1202.37 31.198C1202.98 30.814 1203.68 30.622 1204.48 30.622H1204.62ZM1214.43 30.622C1215.64 30.622 1216.54 30.862 1217.13 31.342C1217.73 31.822 1218.03 32.518 1218.03 33.43V38.2C1218.03 38.416 1218.08 38.578 1218.17 38.686C1218.27 38.782 1218.39 38.83 1218.53 38.83C1218.81 38.83 1219.08 38.746 1219.36 38.578V39.82C1218.95 40.06 1218.49 40.18 1217.97 40.18C1217.46 40.18 1217.07 40.036 1216.82 39.748C1216.57 39.448 1216.43 39.04 1216.41 38.524C1215.66 39.628 1214.59 40.18 1213.19 40.18C1212.18 40.18 1211.42 39.964 1210.92 39.532C1210.43 39.088 1210.18 38.392 1210.18 37.444C1210.18 36.7 1210.37 36.118 1210.76 35.698C1211.14 35.266 1211.78 34.954 1212.66 34.762C1213.55 34.57 1214.78 34.474 1216.34 34.474V33.628C1216.34 33.016 1216.16 32.59 1215.8 32.35C1215.44 32.098 1214.91 31.972 1214.23 31.972C1213.58 31.972 1213.08 32.098 1212.72 32.35C1212.36 32.602 1212.18 32.956 1212.18 33.412V33.628H1210.52C1210.5 33.46 1210.49 33.262 1210.49 33.034C1210.49 32.614 1210.65 32.218 1210.99 31.846C1211.33 31.474 1211.78 31.18 1212.36 30.964C1212.93 30.736 1213.57 30.622 1214.27 30.622H1214.43ZM1216.34 35.788C1215.08 35.788 1214.12 35.854 1213.47 35.986C1212.84 36.106 1212.41 36.292 1212.2 36.544C1211.98 36.796 1211.87 37.144 1211.87 37.588C1211.87 38.416 1212.5 38.83 1213.76 38.83C1214.21 38.83 1214.63 38.722 1215.02 38.506C1215.42 38.278 1215.74 37.96 1215.98 37.552C1216.22 37.144 1216.34 36.676 1216.34 36.148V35.788ZM1225.88 30.622C1226.88 30.622 1227.68 30.892 1228.25 31.432C1228.83 31.972 1229.12 32.764 1229.12 33.808V40H1227.42V34.114C1227.42 32.686 1226.78 31.972 1225.48 31.972C1225.05 31.972 1224.65 32.086 1224.27 32.314C1223.9 32.542 1223.6 32.854 1223.37 33.25C1223.15 33.634 1223.03 34.06 1223.03 34.528V40H1221.34V30.802H1222.56L1222.8 32.152C1223.57 31.132 1224.59 30.622 1225.88 30.622ZM1056 57.802L1052.51 67H1050.71L1047.22 57.802H1049.02L1051.64 64.84H1051.72L1054.34 57.802H1056ZM1059.43 54.04V55.606H1057.67V54.04H1059.43ZM1059.4 57.802V67H1057.7V57.802H1059.4ZM1066 57.622C1067.21 57.622 1068.11 57.862 1068.7 58.342C1069.3 58.822 1069.6 59.518 1069.6 60.43V65.2C1069.6 65.416 1069.65 65.578 1069.74 65.686C1069.84 65.782 1069.96 65.83 1070.1 65.83C1070.38 65.83 1070.65 65.746 1070.93 65.578V66.82C1070.52 67.06 1070.06 67.18 1069.54 67.18C1069.03 67.18 1068.64 67.036 1068.39 66.748C1068.14 66.448 1068 66.04 1067.98 65.524C1067.23 66.628 1066.16 67.18 1064.76 67.18C1063.75 67.18 1062.99 66.964 1062.49 66.532C1062 66.088 1061.75 65.392 1061.75 64.444C1061.75 63.7 1061.94 63.118 1062.33 62.698C1062.71 62.266 1063.35 61.954 1064.23 61.762C1065.12 61.57 1066.35 61.474 1067.91 61.474V60.628C1067.91 60.016 1067.73 59.59 1067.37 59.35C1067.01 59.098 1066.48 58.972 1065.8 58.972C1065.15 58.972 1064.65 59.098 1064.29 59.35C1063.93 59.602 1063.75 59.956 1063.75 60.412V60.628H1062.09C1062.07 60.46 1062.06 60.262 1062.06 60.034C1062.06 59.614 1062.22 59.218 1062.56 58.846C1062.9 58.474 1063.35 58.18 1063.93 57.964C1064.5 57.736 1065.14 57.622 1065.84 57.622H1066ZM1067.91 62.788C1066.65 62.788 1065.69 62.854 1065.04 62.986C1064.41 63.106 1063.98 63.292 1063.77 63.544C1063.55 63.796 1063.44 64.144 1063.44 64.588C1063.44 65.416 1064.07 65.83 1065.33 65.83C1065.78 65.83 1066.2 65.722 1066.59 65.506C1066.99 65.278 1067.31 64.96 1067.55 64.552C1067.79 64.144 1067.91 63.676 1067.91 63.148V62.788ZM1082.02 54.472C1083.04 54.472 1083.93 54.694 1084.7 55.138C1085.47 55.582 1086.06 56.224 1086.48 57.064C1086.92 57.892 1087.13 58.876 1087.13 60.016V61.636C1087.13 63.136 1086.77 64.372 1086.05 65.344C1085.33 66.304 1084.33 66.886 1083.05 67.09C1083.15 67.498 1083.36 67.792 1083.68 67.972C1084 68.164 1084.38 68.26 1084.83 68.26C1085.37 68.26 1086 68.116 1086.72 67.828L1086.93 67.756V69.016C1086.24 69.412 1085.52 69.61 1084.79 69.61C1083.62 69.61 1082.78 69.382 1082.27 68.926C1081.77 68.482 1081.44 67.888 1081.3 67.144C1079.91 66.976 1078.83 66.412 1078.06 65.452C1077.29 64.48 1076.91 63.208 1076.91 61.636V60.016C1076.91 58.876 1077.12 57.892 1077.54 57.064C1077.97 56.224 1078.57 55.582 1079.34 55.138C1080.11 54.694 1081 54.472 1082.02 54.472ZM1082.02 56.074C1080.96 56.074 1080.14 56.41 1079.55 57.082C1078.97 57.754 1078.67 58.732 1078.67 60.016V61.636C1078.67 62.92 1078.95 63.898 1079.52 64.57C1080.09 65.242 1080.93 65.578 1082.02 65.578C1083.08 65.578 1083.9 65.248 1084.49 64.588C1085.07 63.916 1085.37 62.932 1085.37 61.636V60.016C1085.37 58.732 1085.08 57.754 1084.5 57.082C1083.94 56.41 1083.11 56.074 1082.02 56.074ZM1095.15 54.652C1096.24 54.652 1097.14 54.91 1097.83 55.426C1098.54 55.942 1098.89 56.65 1098.89 57.55C1098.89 58.354 1098.68 59.038 1098.25 59.602C1097.83 60.166 1097.3 60.508 1096.68 60.628V60.718C1097.26 60.946 1097.73 61.342 1098.1 61.906C1098.47 62.47 1098.66 63.148 1098.66 63.94C1098.66 64.6 1098.7 65.098 1098.77 65.434C1098.84 65.77 1098.94 66.004 1099.06 66.136C1099.18 66.268 1099.35 66.37 1099.58 66.442V66.946C1099.31 67.054 1099.03 67.108 1098.73 67.108C1098.16 67.108 1097.71 66.94 1097.38 66.604C1097.06 66.256 1096.9 65.608 1096.9 64.66C1096.9 63.688 1096.69 62.932 1096.28 62.392C1095.89 61.84 1095.39 61.564 1094.79 61.564H1091.66V67H1089.89V54.652H1095.15ZM1091.66 56.254V59.962H1095.17C1095.68 59.962 1096.14 59.788 1096.54 59.44C1096.93 59.092 1097.13 58.66 1097.13 58.144V58.072C1097.13 57.544 1096.95 57.112 1096.59 56.776C1096.23 56.428 1095.76 56.254 1095.17 56.254H1091.66Z" fill="#222222"/>
<path d="M124.229 464.652V477H122.465V466.722H122.357L118.091 477H116.597L112.349 466.722H112.259V477H110.657V464.652H113.429L117.407 474.372H117.479L121.475 464.652H124.229ZM131.006 467.622C132.218 467.622 133.118 467.862 133.706 468.342C134.306 468.822 134.606 469.518 134.606 470.43V475.2C134.606 475.416 134.654 475.578 134.75 475.686C134.846 475.782 134.966 475.83 135.11 475.83C135.386 475.83 135.662 475.746 135.938 475.578V476.82C135.53 477.06 135.068 477.18 134.552 477.18C134.036 477.18 133.652 477.036 133.4 476.748C133.148 476.448 133.01 476.04 132.986 475.524C132.242 476.628 131.168 477.18 129.764 477.18C128.756 477.18 128 476.964 127.496 476.532C127.004 476.088 126.758 475.392 126.758 474.444C126.758 473.7 126.95 473.118 127.334 472.698C127.718 472.266 128.354 471.954 129.242 471.762C130.13 471.57 131.354 471.474 132.914 471.474V470.628C132.914 470.016 132.734 469.59 132.374 469.35C132.014 469.098 131.492 468.972 130.808 468.972C130.16 468.972 129.656 469.098 129.296 469.35C128.936 469.602 128.756 469.956 128.756 470.412V470.628H127.1C127.076 470.46 127.064 470.262 127.064 470.034C127.064 469.614 127.232 469.218 127.568 468.846C127.904 468.474 128.36 468.18 128.936 467.964C129.512 467.736 130.148 467.622 130.844 467.622H131.006ZM132.914 472.788C131.654 472.788 130.7 472.854 130.052 472.986C129.416 473.106 128.99 473.292 128.774 473.544C128.558 473.796 128.45 474.144 128.45 474.588C128.45 475.416 129.08 475.83 130.34 475.83C130.784 475.83 131.204 475.722 131.6 475.506C131.996 475.278 132.314 474.96 132.554 474.552C132.794 474.144 132.914 473.676 132.914 473.148V472.788ZM142.453 467.622C143.461 467.622 144.253 467.892 144.829 468.432C145.405 468.972 145.693 469.764 145.693 470.808V477H144.001V471.114C144.001 469.686 143.353 468.972 142.057 468.972C141.625 468.972 141.223 469.086 140.851 469.314C140.479 469.542 140.179 469.854 139.951 470.25C139.723 470.634 139.609 471.06 139.609 471.528V477H137.917V467.802H139.141L139.375 469.152C140.143 468.132 141.169 467.622 142.453 467.622ZM152.205 467.622C153.417 467.622 154.317 467.862 154.905 468.342C155.505 468.822 155.805 469.518 155.805 470.43V475.2C155.805 475.416 155.853 475.578 155.949 475.686C156.045 475.782 156.165 475.83 156.309 475.83C156.585 475.83 156.861 475.746 157.137 475.578V476.82C156.729 477.06 156.267 477.18 155.751 477.18C155.235 477.18 154.851 477.036 154.599 476.748C154.347 476.448 154.209 476.04 154.185 475.524C153.441 476.628 152.367 477.18 150.963 477.18C149.955 477.18 149.199 476.964 148.695 476.532C148.203 476.088 147.957 475.392 147.957 474.444C147.957 473.7 148.149 473.118 148.533 472.698C148.917 472.266 149.553 471.954 150.441 471.762C151.329 471.57 152.553 471.474 154.113 471.474V470.628C154.113 470.016 153.933 469.59 153.573 469.35C153.213 469.098 152.691 468.972 152.007 468.972C151.359 468.972 150.855 469.098 150.495 469.35C150.135 469.602 149.955 469.956 149.955 470.412V470.628H148.299C148.275 470.46 148.263 470.262 148.263 470.034C148.263 469.614 148.431 469.218 148.767 468.846C149.103 468.474 149.559 468.18 150.135 467.964C150.711 467.736 151.347 467.622 152.043 467.622H152.205ZM154.113 472.788C152.853 472.788 151.899 472.854 151.251 472.986C150.615 473.106 150.189 473.292 149.973 473.544C149.757 473.796 149.649 474.144 149.649 474.588C149.649 475.416 150.279 475.83 151.539 475.83C151.983 475.83 152.403 475.722 152.799 475.506C153.195 475.278 153.513 474.96 153.753 474.552C153.993 474.144 154.113 473.676 154.113 473.148V472.788ZM167.54 466.146C167.54 466.758 167.378 467.274 167.054 467.694C166.73 468.102 166.28 468.366 165.704 468.486L165.668 468.54C166.268 469.068 166.568 469.728 166.568 470.52C166.568 471.384 166.244 472.08 165.596 472.608C164.948 473.136 164.066 473.4 162.95 473.4H161.726C161.366 473.4 161.066 473.496 160.826 473.688C160.586 473.868 160.466 474.102 160.466 474.39C160.466 474.678 160.58 474.906 160.808 475.074C161.036 475.242 161.342 475.326 161.726 475.326H165.2C165.908 475.326 166.472 475.548 166.892 475.992C167.324 476.436 167.54 477 167.54 477.684C167.54 478.5 167.228 479.154 166.604 479.646C165.992 480.138 165.164 480.384 164.12 480.384H160.502C160.094 480.384 159.716 480.276 159.368 480.06C159.032 479.844 158.762 479.568 158.558 479.232C158.366 478.908 158.27 478.572 158.27 478.224C158.27 477.72 158.39 477.282 158.63 476.91C158.882 476.538 159.212 476.262 159.62 476.082C159.068 475.746 158.792 475.248 158.792 474.588C158.792 474.156 158.918 473.784 159.17 473.472C159.422 473.16 159.776 472.926 160.232 472.77C159.428 472.326 159.026 471.576 159.026 470.52C159.026 469.632 159.35 468.93 159.998 468.414C160.658 467.886 161.57 467.622 162.734 467.622H162.806C163.478 467.622 164.09 467.724 164.642 467.928C165.494 467.508 165.98 466.914 166.1 466.146H167.54ZM162.788 468.972C162.152 468.972 161.642 469.098 161.258 469.35C160.886 469.59 160.7 469.98 160.7 470.52C160.7 471.06 160.886 471.45 161.258 471.69C161.642 471.93 162.152 472.05 162.788 472.05C163.424 472.05 163.934 471.93 164.318 471.69C164.702 471.45 164.894 471.06 164.894 470.52C164.894 469.98 164.702 469.59 164.318 469.35C163.934 469.098 163.424 468.972 162.788 468.972ZM160.988 476.946C160.7 476.946 160.454 477.048 160.25 477.252C160.046 477.456 159.944 477.702 159.944 477.99C159.944 478.278 160.046 478.524 160.25 478.728C160.454 478.932 160.7 479.034 160.988 479.034H164.462C164.846 479.034 165.176 478.92 165.452 478.692C165.728 478.476 165.866 478.224 165.866 477.936C165.866 477.636 165.764 477.396 165.56 477.216C165.356 477.036 165.068 476.946 164.696 476.946H160.988ZM173.037 467.622C173.793 467.622 174.459 467.784 175.035 468.108C175.623 468.42 176.079 468.87 176.403 469.458C176.727 470.046 176.889 470.73 176.889 471.51V472.788H170.463C170.487 473.76 170.715 474.51 171.147 475.038C171.579 475.566 172.221 475.83 173.073 475.83C173.829 475.83 174.387 475.608 174.747 475.164C175.107 474.72 175.287 474.192 175.287 473.58H176.889C176.889 474.3 176.721 474.93 176.385 475.47C176.061 476.01 175.605 476.43 175.017 476.73C174.441 477.03 173.781 477.18 173.037 477.18H172.965C171.669 477.18 170.643 476.766 169.887 475.938C169.143 475.098 168.771 473.982 168.771 472.59V472.23C168.771 471.318 168.939 470.514 169.275 469.818C169.611 469.122 170.091 468.582 170.715 468.198C171.339 467.814 172.071 467.622 172.911 467.622H173.037ZM172.947 468.972C172.263 468.972 171.705 469.182 171.273 469.602C170.853 470.022 170.595 470.646 170.499 471.474H175.215V471.258C175.215 470.574 175.005 470.022 174.585 469.602C174.177 469.182 173.631 468.972 172.947 468.972ZM187.811 476.64C187.403 477.648 187.025 478.416 186.677 478.944C186.329 479.484 185.975 479.85 185.615 480.042C185.255 480.246 184.835 480.348 184.355 480.348C183.911 480.348 183.491 480.264 183.095 480.096V478.71C183.491 478.878 183.791 478.962 183.995 478.962C184.487 478.962 184.895 478.794 185.219 478.458C185.555 478.134 185.831 477.618 186.047 476.91L182.465 467.802H184.265L186.911 474.588H186.983L189.593 467.802H191.249L187.811 476.64ZM196.626 467.622C197.91 467.622 198.936 468.018 199.704 468.81C200.472 469.602 200.856 470.688 200.856 472.068V472.734C200.856 474.114 200.478 475.2 199.722 475.992C198.966 476.784 197.934 477.18 196.626 477.18C195.318 477.18 194.286 476.784 193.53 475.992C192.774 475.2 192.396 474.114 192.396 472.734V472.068C192.396 470.688 192.78 469.602 193.548 468.81C194.316 468.018 195.342 467.622 196.626 467.622ZM196.626 468.972C195.822 468.972 195.198 469.248 194.754 469.8C194.31 470.352 194.088 471.162 194.088 472.23V472.572C194.088 473.616 194.304 474.42 194.736 474.984C195.18 475.548 195.81 475.83 196.626 475.83C197.418 475.83 198.036 475.554 198.48 475.002C198.936 474.438 199.164 473.628 199.164 472.572V472.23C199.164 471.186 198.942 470.382 198.498 469.818C198.066 469.254 197.442 468.972 196.626 468.972ZM210.976 475.2C210.976 475.416 211.024 475.578 211.12 475.686C211.216 475.782 211.336 475.83 211.48 475.83C211.744 475.83 212.014 475.746 212.29 475.578V476.82C211.918 477.06 211.54 477.18 211.156 477.18C210.508 477.18 210.052 477.048 209.788 476.784C209.536 476.52 209.398 476.148 209.374 475.668C209.05 476.148 208.63 476.52 208.114 476.784C207.61 477.048 207.028 477.18 206.368 477.18C205.444 477.18 204.682 476.91 204.082 476.37C203.494 475.818 203.2 475.026 203.2 473.994V467.802H204.892V473.688C204.892 475.116 205.54 475.83 206.836 475.83C207.256 475.83 207.652 475.716 208.024 475.488C208.408 475.26 208.714 474.954 208.942 474.57C209.17 474.174 209.284 473.742 209.284 473.274V467.802H210.976V475.2ZM218.557 467.622C219.409 467.622 220.075 467.898 220.555 468.45C221.035 468.99 221.275 469.674 221.275 470.502L221.221 471.186H219.727V470.79C219.727 470.43 219.637 470.112 219.457 469.836C219.277 469.56 219.049 469.35 218.773 469.206C218.497 469.05 218.221 468.972 217.945 468.972C217.369 468.972 216.919 469.2 216.595 469.656C216.271 470.112 216.109 470.73 216.109 471.51V477H214.417V467.802H215.623L215.875 469.17C215.947 468.93 216.109 468.69 216.361 468.45C216.613 468.21 216.925 468.012 217.297 467.856C217.681 467.7 218.101 467.622 218.557 467.622ZM112.223 491.04V492.606H110.459V491.04H112.223ZM112.187 494.802V504H110.495V494.802H112.187ZM119.707 494.622C120.715 494.622 121.507 494.892 122.083 495.432C122.659 495.972 122.947 496.764 122.947 497.808V504H121.255V498.114C121.255 496.686 120.607 495.972 119.311 495.972C118.879 495.972 118.477 496.086 118.105 496.314C117.733 496.542 117.433 496.854 117.205 497.25C116.977 497.634 116.863 498.06 116.863 498.528V504H115.171V494.802H116.395L116.629 496.152C117.397 495.132 118.423 494.622 119.707 494.622ZM133.259 494.802L129.767 504H127.967L124.475 494.802H126.275L128.903 501.84H128.975L131.603 494.802H133.259ZM138.654 494.622C139.41 494.622 140.076 494.784 140.652 495.108C141.24 495.42 141.696 495.87 142.02 496.458C142.344 497.046 142.506 497.73 142.506 498.51V499.788H136.08C136.104 500.76 136.332 501.51 136.764 502.038C137.196 502.566 137.838 502.83 138.69 502.83C139.446 502.83 140.004 502.608 140.364 502.164C140.724 501.72 140.904 501.192 140.904 500.58H142.506C142.506 501.3 142.338 501.93 142.002 502.47C141.678 503.01 141.222 503.43 140.634 503.73C140.058 504.03 139.398 504.18 138.654 504.18H138.582C137.286 504.18 136.26 503.766 135.504 502.938C134.76 502.098 134.388 500.982 134.388 499.59V499.23C134.388 498.318 134.556 497.514 134.892 496.818C135.228 496.122 135.708 495.582 136.332 495.198C136.956 494.814 137.688 494.622 138.528 494.622H138.654ZM138.564 495.972C137.88 495.972 137.322 496.182 136.89 496.602C136.47 497.022 136.212 497.646 136.116 498.474H140.832V498.258C140.832 497.574 140.622 497.022 140.202 496.602C139.794 496.182 139.248 495.972 138.564 495.972ZM149.502 494.622C150.51 494.622 151.302 494.892 151.878 495.432C152.454 495.972 152.742 496.764 152.742 497.808V504H151.05V498.114C151.05 496.686 150.402 495.972 149.106 495.972C148.674 495.972 148.272 496.086 147.9 496.314C147.528 496.542 147.228 496.854 147 497.25C146.772 497.634 146.658 498.06 146.658 498.528V504H144.966V494.802H146.19L146.424 496.152C147.192 495.132 148.218 494.622 149.502 494.622ZM157.528 494.802H159.67V496.152H157.528V501.642C157.528 502.074 157.612 502.386 157.78 502.578C157.948 502.77 158.206 502.866 158.554 502.866C158.866 502.866 159.238 502.776 159.67 502.596V503.856C159.238 504.072 158.68 504.18 157.996 504.18C157.288 504.18 156.748 503.97 156.376 503.55C156.016 503.13 155.836 502.464 155.836 501.552V496.152H154.828V494.802H155.89L156.466 491.868H157.528V494.802ZM165.442 494.622C166.726 494.622 167.752 495.018 168.52 495.81C169.288 496.602 169.672 497.688 169.672 499.068V499.734C169.672 501.114 169.294 502.2 168.538 502.992C167.782 503.784 166.75 504.18 165.442 504.18C164.134 504.18 163.102 503.784 162.346 502.992C161.59 502.2 161.212 501.114 161.212 499.734V499.068C161.212 497.688 161.596 496.602 162.364 495.81C163.132 495.018 164.158 494.622 165.442 494.622ZM165.442 495.972C164.638 495.972 164.014 496.248 163.57 496.8C163.126 497.352 162.904 498.162 162.904 499.23V499.572C162.904 500.616 163.12 501.42 163.552 501.984C163.996 502.548 164.626 502.83 165.442 502.83C166.234 502.83 166.852 502.554 167.296 502.002C167.752 501.438 167.98 500.628 167.98 499.572V499.23C167.98 498.186 167.758 497.382 167.314 496.818C166.882 496.254 166.258 495.972 165.442 495.972ZM176.246 494.622C177.098 494.622 177.764 494.898 178.244 495.45C178.724 495.99 178.964 496.674 178.964 497.502L178.91 498.186H177.416V497.79C177.416 497.43 177.326 497.112 177.146 496.836C176.966 496.56 176.738 496.35 176.462 496.206C176.186 496.05 175.91 495.972 175.634 495.972C175.058 495.972 174.608 496.2 174.284 496.656C173.96 497.112 173.798 497.73 173.798 498.51V504H172.106V494.802H173.312L173.564 496.17C173.636 495.93 173.798 495.69 174.05 495.45C174.302 495.21 174.614 495.012 174.986 494.856C175.37 494.7 175.79 494.622 176.246 494.622ZM182.659 491.04V492.606H180.895V491.04H182.659ZM182.623 494.802V504H180.931V494.802H182.623ZM189.296 494.622C190.052 494.622 190.718 494.784 191.294 495.108C191.882 495.42 192.338 495.87 192.662 496.458C192.986 497.046 193.148 497.73 193.148 498.51V499.788H186.722C186.746 500.76 186.974 501.51 187.406 502.038C187.838 502.566 188.48 502.83 189.332 502.83C190.088 502.83 190.646 502.608 191.006 502.164C191.366 501.72 191.546 501.192 191.546 500.58H193.148C193.148 501.3 192.98 501.93 192.644 502.47C192.32 503.01 191.864 503.43 191.276 503.73C190.7 504.03 190.04 504.18 189.296 504.18H189.224C187.928 504.18 186.902 503.766 186.146 502.938C185.402 502.098 185.03 500.982 185.03 499.59V499.23C185.03 498.318 185.198 497.514 185.534 496.818C185.87 496.122 186.35 495.582 186.974 495.198C187.598 494.814 188.33 494.622 189.17 494.622H189.296ZM189.206 495.972C188.522 495.972 187.964 496.182 187.532 496.602C187.112 497.022 186.854 497.646 186.758 498.474H191.474V498.258C191.474 497.574 191.264 497.022 190.844 496.602C190.436 496.182 189.89 495.972 189.206 495.972ZM199.118 494.622C199.802 494.622 200.408 494.73 200.936 494.946C201.476 495.162 201.89 495.462 202.178 495.846C202.478 496.23 202.628 496.656 202.628 497.124L202.61 497.448H200.936V497.286C200.936 496.41 200.258 495.972 198.902 495.972C197.558 495.972 196.886 496.374 196.886 497.178C196.886 497.55 197.078 497.826 197.462 498.006C197.846 498.174 198.434 498.336 199.226 498.492C199.982 498.648 200.6 498.81 201.08 498.978C201.572 499.146 201.986 499.41 202.322 499.77C202.67 500.13 202.844 500.616 202.844 501.228C202.844 502.212 202.508 502.95 201.836 503.442C201.164 503.934 200.198 504.18 198.938 504.18H198.668C197.912 504.18 197.252 504.066 196.688 503.838C196.124 503.598 195.686 503.28 195.374 502.884C195.074 502.476 194.93 502.02 194.942 501.516V501.12H196.616V501.3C196.616 502.32 197.474 502.83 199.19 502.83C199.694 502.83 200.144 502.716 200.54 502.488C200.948 502.26 201.152 501.948 201.152 501.552C201.152 501.216 201.038 500.952 200.81 500.76C200.594 500.568 200.324 500.424 200 500.328C199.676 500.232 199.226 500.136 198.65 500.04C197.906 499.896 197.306 499.752 196.85 499.608C196.394 499.452 196.004 499.194 195.68 498.834C195.356 498.474 195.194 497.982 195.194 497.358C195.194 496.506 195.53 495.84 196.202 495.36C196.874 494.868 197.792 494.622 198.956 494.622H199.118Z" fill="#222222"/>
<path d="M94.8181 118.652L90.2821 124.106L94.9621 131H92.9101L89.1661 125.456L87.4201 127.292V131H85.6561V118.652H87.4201V125.078L92.7841 118.652H94.8181ZM99.9068 121.622C100.663 121.622 101.329 121.784 101.905 122.108C102.493 122.42 102.949 122.87 103.273 123.458C103.597 124.046 103.759 124.73 103.759 125.51V126.788H97.3328C97.3568 127.76 97.5848 128.51 98.0168 129.038C98.4488 129.566 99.0908 129.83 99.9428 129.83C100.699 129.83 101.257 129.608 101.617 129.164C101.977 128.72 102.157 128.192 102.157 127.58H103.759C103.759 128.3 103.591 128.93 103.255 129.47C102.931 130.01 102.475 130.43 101.887 130.73C101.311 131.03 100.651 131.18 99.9068 131.18H99.8348C98.5388 131.18 97.5128 130.766 96.7568 129.938C96.0128 129.098 95.6408 127.982 95.6408 126.59V126.23C95.6408 125.318 95.8088 124.514 96.1448 123.818C96.4808 123.122 96.9608 122.582 97.5848 122.198C98.2088 121.814 98.9408 121.622 99.7808 121.622H99.9068ZM99.8168 122.972C99.1328 122.972 98.5748 123.182 98.1428 123.602C97.7228 124.022 97.4648 124.646 97.3688 125.474H102.085V125.258C102.085 124.574 101.875 124.022 101.455 123.602C101.047 123.182 100.501 122.972 99.8168 122.972ZM109.909 121.622C110.665 121.622 111.331 121.784 111.907 122.108C112.495 122.42 112.951 122.87 113.275 123.458C113.599 124.046 113.761 124.73 113.761 125.51V126.788H107.335C107.359 127.76 107.587 128.51 108.019 129.038C108.451 129.566 109.093 129.83 109.945 129.83C110.701 129.83 111.259 129.608 111.619 129.164C111.979 128.72 112.159 128.192 112.159 127.58H113.761C113.761 128.3 113.593 128.93 113.257 129.47C112.933 130.01 112.477 130.43 111.889 130.73C111.313 131.03 110.653 131.18 109.909 131.18H109.837C108.541 131.18 107.515 130.766 106.759 129.938C106.015 129.098 105.643 127.982 105.643 126.59V126.23C105.643 125.318 105.811 124.514 106.147 123.818C106.483 123.122 106.963 122.582 107.587 122.198C108.211 121.814 108.943 121.622 109.783 121.622H109.909ZM109.819 122.972C109.135 122.972 108.577 123.182 108.145 123.602C107.725 124.022 107.467 124.646 107.371 125.474H112.087V125.258C112.087 124.574 111.877 124.022 111.457 123.602C111.049 123.182 110.503 122.972 109.819 122.972ZM120.559 121.622C121.723 121.622 122.635 122.048 123.295 122.9C123.955 123.752 124.285 124.922 124.285 126.41V126.608C124.285 128.024 123.955 129.14 123.295 129.956C122.647 130.772 121.735 131.18 120.559 131.18C119.431 131.18 118.549 130.73 117.913 129.83V134.258H116.221V121.802H117.481C117.565 122.186 117.643 122.606 117.715 123.062C118.399 122.102 119.347 121.622 120.559 121.622ZM120.253 122.972C119.437 122.972 118.837 123.254 118.453 123.818C118.081 124.382 117.895 125.24 117.895 126.392C117.895 127.568 118.087 128.438 118.471 129.002C118.867 129.554 119.461 129.83 120.253 129.83C121.045 129.83 121.633 129.548 122.017 128.984C122.401 128.42 122.593 127.556 122.593 126.392C122.593 125.216 122.395 124.352 121.999 123.8C121.615 123.248 121.033 122.972 120.253 122.972ZM134.727 121.622C135.939 121.622 136.839 121.862 137.427 122.342C138.027 122.822 138.327 123.518 138.327 124.43V129.2C138.327 129.416 138.375 129.578 138.471 129.686C138.567 129.782 138.687 129.83 138.831 129.83C139.107 129.83 139.383 129.746 139.659 129.578V130.82C139.251 131.06 138.789 131.18 138.273 131.18C137.757 131.18 137.373 131.036 137.121 130.748C136.869 130.448 136.731 130.04 136.707 129.524C135.963 130.628 134.889 131.18 133.485 131.18C132.477 131.18 131.721 130.964 131.217 130.532C130.725 130.088 130.479 129.392 130.479 128.444C130.479 127.7 130.671 127.118 131.055 126.698C131.439 126.266 132.075 125.954 132.963 125.762C133.851 125.57 135.075 125.474 136.635 125.474V124.628C136.635 124.016 136.455 123.59 136.095 123.35C135.735 123.098 135.213 122.972 134.529 122.972C133.881 122.972 133.377 123.098 133.017 123.35C132.657 123.602 132.477 123.956 132.477 124.412V124.628H130.821C130.797 124.46 130.785 124.262 130.785 124.034C130.785 123.614 130.953 123.218 131.289 122.846C131.625 122.474 132.081 122.18 132.657 121.964C133.233 121.736 133.869 121.622 134.565 121.622H134.727ZM136.635 126.788C135.375 126.788 134.421 126.854 133.773 126.986C133.137 127.106 132.711 127.292 132.495 127.544C132.279 127.796 132.171 128.144 132.171 128.588C132.171 129.416 132.801 129.83 134.061 129.83C134.505 129.83 134.925 129.722 135.321 129.506C135.717 129.278 136.035 128.96 136.275 128.552C136.515 128.144 136.635 127.676 136.635 127.148V126.788ZM148.013 121.802H150.155V123.152H148.013V128.642C148.013 129.074 148.097 129.386 148.265 129.578C148.433 129.77 148.691 129.866 149.039 129.866C149.351 129.866 149.723 129.776 150.155 129.596V130.856C149.723 131.072 149.165 131.18 148.481 131.18C147.773 131.18 147.233 130.97 146.861 130.55C146.501 130.13 146.321 129.464 146.321 128.552V123.152H145.313V121.802H146.375L146.951 118.868H148.013V121.802ZM156.396 121.622C157.248 121.622 157.914 121.898 158.394 122.45C158.874 122.99 159.114 123.674 159.114 124.502L159.06 125.186H157.566V124.79C157.566 124.43 157.476 124.112 157.296 123.836C157.116 123.56 156.888 123.35 156.612 123.206C156.336 123.05 156.06 122.972 155.784 122.972C155.208 122.972 154.758 123.2 154.434 123.656C154.11 124.112 153.948 124.73 153.948 125.51V131H152.256V121.802H153.462L153.714 123.17C153.786 122.93 153.948 122.69 154.2 122.45C154.452 122.21 154.764 122.012 155.136 121.856C155.52 121.7 155.94 121.622 156.396 121.622ZM164.698 121.622C165.91 121.622 166.81 121.862 167.398 122.342C167.998 122.822 168.298 123.518 168.298 124.43V129.2C168.298 129.416 168.346 129.578 168.442 129.686C168.538 129.782 168.658 129.83 168.802 129.83C169.078 129.83 169.354 129.746 169.63 129.578V130.82C169.222 131.06 168.76 131.18 168.244 131.18C167.728 131.18 167.344 131.036 167.092 130.748C166.84 130.448 166.702 130.04 166.678 129.524C165.934 130.628 164.86 131.18 163.456 131.18C162.448 131.18 161.692 130.964 161.188 130.532C160.696 130.088 160.45 129.392 160.45 128.444C160.45 127.7 160.642 127.118 161.026 126.698C161.41 126.266 162.046 125.954 162.934 125.762C163.822 125.57 165.046 125.474 166.606 125.474V124.628C166.606 124.016 166.426 123.59 166.066 123.35C165.706 123.098 165.184 122.972 164.5 122.972C163.852 122.972 163.348 123.098 162.988 123.35C162.628 123.602 162.448 123.956 162.448 124.412V124.628H160.792C160.768 124.46 160.756 124.262 160.756 124.034C160.756 123.614 160.924 123.218 161.26 122.846C161.596 122.474 162.052 122.18 162.628 121.964C163.204 121.736 163.84 121.622 164.536 121.622H164.698ZM166.606 126.788C165.346 126.788 164.392 126.854 163.744 126.986C163.108 127.106 162.682 127.292 162.466 127.544C162.25 127.796 162.142 128.144 162.142 128.588C162.142 129.416 162.772 129.83 164.032 129.83C164.476 129.83 164.896 129.722 165.292 129.506C165.688 129.278 166.006 128.96 166.246 128.552C166.486 128.144 166.606 127.676 166.606 127.148V126.788ZM175.209 121.622C175.941 121.622 176.595 121.784 177.171 122.108C177.759 122.42 178.215 122.864 178.539 123.44C178.863 124.016 179.025 124.676 179.025 125.42H177.351C177.351 124.676 177.159 124.082 176.775 123.638C176.403 123.194 175.863 122.972 175.155 122.972C174.411 122.972 173.817 123.224 173.373 123.728C172.941 124.22 172.725 124.898 172.725 125.762V126.734C172.725 127.778 172.941 128.558 173.373 129.074C173.805 129.578 174.417 129.83 175.209 129.83C175.941 129.83 176.487 129.614 176.847 129.182C177.219 128.738 177.405 128.144 177.405 127.4H179.025C179.025 128.552 178.677 129.47 177.981 130.154C177.297 130.838 176.379 131.18 175.227 131.18H175.083C174.267 131.18 173.553 130.994 172.941 130.622C172.329 130.238 171.855 129.704 171.519 129.02C171.195 128.336 171.033 127.538 171.033 126.626V126.194C171.033 125.282 171.201 124.484 171.537 123.8C171.873 123.104 172.347 122.57 172.959 122.198C173.571 121.814 174.273 121.622 175.065 121.622H175.209ZM183.092 118.04V126.932L187.196 121.802H189.05L185.504 126.266L189.284 131H187.232L184.478 127.58L183.092 129.02V131H181.4V118.04H183.092ZM199.1 121.622C200.384 121.622 201.41 122.018 202.178 122.81C202.946 123.602 203.33 124.688 203.33 126.068V126.734C203.33 128.114 202.952 129.2 202.196 129.992C201.44 130.784 200.408 131.18 199.1 131.18C197.792 131.18 196.76 130.784 196.004 129.992C195.248 129.2 194.87 128.114 194.87 126.734V126.068C194.87 124.688 195.254 123.602 196.022 122.81C196.79 122.018 197.816 121.622 199.1 121.622ZM199.1 122.972C198.296 122.972 197.672 123.248 197.228 123.8C196.784 124.352 196.562 125.162 196.562 126.23V126.572C196.562 127.616 196.778 128.42 197.21 128.984C197.654 129.548 198.284 129.83 199.1 129.83C199.892 129.83 200.51 129.554 200.954 129.002C201.41 128.438 201.638 127.628 201.638 126.572V126.23C201.638 125.186 201.416 124.382 200.972 123.818C200.54 123.254 199.916 122.972 199.1 122.972ZM208.266 117.896C208.95 117.896 209.514 118.01 209.958 118.238V119.48C209.598 119.324 209.292 119.246 209.04 119.246C208.56 119.246 208.236 119.336 208.068 119.516C207.9 119.684 207.816 119.972 207.816 120.38V121.802H209.958V123.152H207.816V131H206.124V123.152H205.116V121.802H206.124V120.56C206.124 118.784 206.838 117.896 208.266 117.896ZM220.308 130.64C219.9 131.648 219.522 132.416 219.174 132.944C218.826 133.484 218.472 133.85 218.112 134.042C217.752 134.246 217.332 134.348 216.852 134.348C216.408 134.348 215.988 134.264 215.592 134.096V132.71C215.988 132.878 216.288 132.962 216.492 132.962C216.984 132.962 217.392 132.794 217.716 132.458C218.052 132.134 218.328 131.618 218.544 130.91L214.962 121.802H216.762L219.408 128.588H219.48L222.09 121.802H223.746L220.308 130.64ZM229.123 121.622C230.407 121.622 231.433 122.018 232.201 122.81C232.969 123.602 233.353 124.688 233.353 126.068V126.734C233.353 128.114 232.975 129.2 232.219 129.992C231.463 130.784 230.431 131.18 229.123 131.18C227.815 131.18 226.783 130.784 226.027 129.992C225.271 129.2 224.893 128.114 224.893 126.734V126.068C224.893 124.688 225.277 123.602 226.045 122.81C226.813 122.018 227.839 121.622 229.123 121.622ZM229.123 122.972C228.319 122.972 227.695 123.248 227.251 123.8C226.807 124.352 226.585 125.162 226.585 126.23V126.572C226.585 127.616 226.801 128.42 227.233 128.984C227.677 129.548 228.307 129.83 229.123 129.83C229.915 129.83 230.533 129.554 230.977 129.002C231.433 128.438 231.661 127.628 231.661 126.572V126.23C231.661 125.186 231.439 124.382 230.995 123.818C230.563 123.254 229.939 122.972 229.123 122.972ZM243.473 129.2C243.473 129.416 243.521 129.578 243.617 129.686C243.713 129.782 243.833 129.83 243.977 129.83C244.241 129.83 244.511 129.746 244.787 129.578V130.82C244.415 131.06 244.037 131.18 243.653 131.18C243.005 131.18 242.549 131.048 242.285 130.784C242.033 130.52 241.895 130.148 241.871 129.668C241.547 130.148 241.127 130.52 240.611 130.784C240.107 131.048 239.525 131.18 238.865 131.18C237.941 131.18 237.179 130.91 236.579 130.37C235.991 129.818 235.697 129.026 235.697 127.994V121.802H237.389V127.688C237.389 129.116 238.037 129.83 239.333 129.83C239.753 129.83 240.149 129.716 240.521 129.488C240.905 129.26 241.211 128.954 241.439 128.57C241.667 128.174 241.781 127.742 241.781 127.274V121.802H243.473V129.2ZM251.054 121.622C251.906 121.622 252.572 121.898 253.052 122.45C253.532 122.99 253.772 123.674 253.772 124.502L253.718 125.186H252.224V124.79C252.224 124.43 252.134 124.112 251.954 123.836C251.774 123.56 251.546 123.35 251.27 123.206C250.994 123.05 250.718 122.972 250.442 122.972C249.866 122.972 249.416 123.2 249.092 123.656C248.768 124.112 248.606 124.73 248.606 125.51V131H246.914V121.802H248.12L248.372 123.17C248.444 122.93 248.606 122.69 248.858 122.45C249.11 122.21 249.422 122.012 249.794 121.856C250.178 121.7 250.598 121.622 251.054 121.622ZM89.8321 148.622C90.9961 148.622 91.9081 149.048 92.5681 149.9C93.2281 150.752 93.5581 151.922 93.5581 153.41V153.608C93.5581 155.024 93.2281 156.14 92.5681 156.956C91.9201 157.772 91.0081 158.18 89.8321 158.18C88.7041 158.18 87.8221 157.73 87.1861 156.83V161.258H85.4941V148.802H86.7541C86.8381 149.186 86.9161 149.606 86.9881 150.062C87.6721 149.102 88.6201 148.622 89.8321 148.622ZM89.5261 149.972C88.7101 149.972 88.1101 150.254 87.7261 150.818C87.3541 151.382 87.1681 152.24 87.1681 153.392C87.1681 154.568 87.3601 155.438 87.7441 156.002C88.1401 156.554 88.7341 156.83 89.5261 156.83C90.3181 156.83 90.9061 156.548 91.2901 155.984C91.6741 155.42 91.8661 154.556 91.8661 153.392C91.8661 152.216 91.6681 151.352 91.2721 150.8C90.8881 150.248 90.3061 149.972 89.5261 149.972ZM100.128 148.622C100.98 148.622 101.646 148.898 102.126 149.45C102.606 149.99 102.846 150.674 102.846 151.502L102.792 152.186H101.298V151.79C101.298 151.43 101.208 151.112 101.028 150.836C100.848 150.56 100.62 150.35 100.344 150.206C100.068 150.05 99.7922 149.972 99.5162 149.972C98.9402 149.972 98.4902 150.2 98.1662 150.656C97.8422 151.112 97.6802 151.73 97.6802 152.51V158H95.9882V148.802H97.1942L97.4462 150.17C97.5182 149.93 97.6802 149.69 97.9322 149.45C98.1842 149.21 98.4962 149.012 98.8682 148.856C99.2522 148.7 99.6722 148.622 100.128 148.622ZM108.484 148.622C109.768 148.622 110.794 149.018 111.562 149.81C112.33 150.602 112.714 151.688 112.714 153.068V153.734C112.714 155.114 112.336 156.2 111.58 156.992C110.824 157.784 109.792 158.18 108.484 158.18C107.176 158.18 106.144 157.784 105.388 156.992C104.632 156.2 104.254 155.114 104.254 153.734V153.068C104.254 151.688 104.638 150.602 105.406 149.81C106.174 149.018 107.2 148.622 108.484 148.622ZM108.484 149.972C107.68 149.972 107.056 150.248 106.612 150.8C106.168 151.352 105.946 152.162 105.946 153.23V153.572C105.946 154.616 106.162 155.42 106.594 155.984C107.038 156.548 107.668 156.83 108.484 156.83C109.276 156.83 109.894 156.554 110.338 156.002C110.794 155.438 111.022 154.628 111.022 153.572V153.23C111.022 152.186 110.8 151.382 110.356 150.818C109.924 150.254 109.3 149.972 108.484 149.972ZM122.654 158H121.394C121.31 157.616 121.232 157.196 121.16 156.74C120.476 157.7 119.528 158.18 118.316 158.18C117.164 158.18 116.252 157.754 115.58 156.902C114.92 156.05 114.59 154.88 114.59 153.392V153.194C114.59 151.79 114.914 150.68 115.562 149.864C116.222 149.036 117.14 148.622 118.316 148.622C119.456 148.622 120.338 149.072 120.962 149.972V145.04H122.654V158ZM118.622 149.972C117.818 149.972 117.224 150.254 116.84 150.818C116.468 151.37 116.282 152.234 116.282 153.41C116.282 154.586 116.474 155.45 116.858 156.002C117.242 156.554 117.83 156.83 118.622 156.83C120.194 156.83 120.98 155.69 120.98 153.41C120.98 152.234 120.782 151.37 120.386 150.818C119.99 150.254 119.402 149.972 118.622 149.972ZM133.328 156.2C133.328 156.416 133.376 156.578 133.472 156.686C133.568 156.782 133.688 156.83 133.832 156.83C134.096 156.83 134.366 156.746 134.642 156.578V157.82C134.27 158.06 133.892 158.18 133.508 158.18C132.86 158.18 132.404 158.048 132.14 157.784C131.888 157.52 131.75 157.148 131.726 156.668C131.402 157.148 130.982 157.52 130.466 157.784C129.962 158.048 129.38 158.18 128.72 158.18C127.796 158.18 127.034 157.91 126.434 157.37C125.846 156.818 125.552 156.026 125.552 154.994V148.802H127.244V154.688C127.244 156.116 127.892 156.83 129.188 156.83C129.608 156.83 130.004 156.716 130.376 156.488C130.76 156.26 131.066 155.954 131.294 155.57C131.522 155.174 131.636 154.742 131.636 154.274V148.802H133.328V156.2ZM140.369 148.622C141.101 148.622 141.755 148.784 142.331 149.108C142.919 149.42 143.375 149.864 143.699 150.44C144.023 151.016 144.185 151.676 144.185 152.42H142.511C142.511 151.676 142.319 151.082 141.935 150.638C141.563 150.194 141.023 149.972 140.315 149.972C139.571 149.972 138.977 150.224 138.533 150.728C138.101 151.22 137.885 151.898 137.885 152.762V153.734C137.885 154.778 138.101 155.558 138.533 156.074C138.965 156.578 139.577 156.83 140.369 156.83C141.101 156.83 141.647 156.614 142.007 156.182C142.379 155.738 142.565 155.144 142.565 154.4H144.185C144.185 155.552 143.837 156.47 143.141 157.154C142.457 157.838 141.539 158.18 140.387 158.18H140.243C139.427 158.18 138.713 157.994 138.101 157.622C137.489 157.238 137.015 156.704 136.679 156.02C136.355 155.336 136.193 154.538 136.193 153.626V153.194C136.193 152.282 136.361 151.484 136.697 150.8C137.033 150.104 137.507 149.57 138.119 149.198C138.731 148.814 139.433 148.622 140.225 148.622H140.369ZM148.54 148.802H150.682V150.152H148.54V155.642C148.54 156.074 148.624 156.386 148.792 156.578C148.96 156.77 149.218 156.866 149.566 156.866C149.878 156.866 150.25 156.776 150.682 156.596V157.856C150.25 158.072 149.692 158.18 149.008 158.18C148.3 158.18 147.76 157.97 147.388 157.55C147.028 157.13 146.848 156.464 146.848 155.552V150.152H145.84V148.802H146.902L147.478 145.868H148.54V148.802ZM160.796 148.622C162.008 148.622 162.908 148.862 163.496 149.342C164.096 149.822 164.396 150.518 164.396 151.43V156.2C164.396 156.416 164.444 156.578 164.54 156.686C164.636 156.782 164.756 156.83 164.9 156.83C165.176 156.83 165.452 156.746 165.728 156.578V157.82C165.32 158.06 164.858 158.18 164.342 158.18C163.826 158.18 163.442 158.036 163.19 157.748C162.938 157.448 162.8 157.04 162.776 156.524C162.032 157.628 160.958 158.18 159.554 158.18C158.546 158.18 157.79 157.964 157.286 157.532C156.794 157.088 156.548 156.392 156.548 155.444C156.548 154.7 156.74 154.118 157.124 153.698C157.508 153.266 158.144 152.954 159.032 152.762C159.92 152.57 161.144 152.474 162.704 152.474V151.628C162.704 151.016 162.524 150.59 162.164 150.35C161.804 150.098 161.282 149.972 160.598 149.972C159.95 149.972 159.446 150.098 159.086 150.35C158.726 150.602 158.546 150.956 158.546 151.412V151.628H156.89C156.866 151.46 156.854 151.262 156.854 151.034C156.854 150.614 157.022 150.218 157.358 149.846C157.694 149.474 158.15 149.18 158.726 148.964C159.302 148.736 159.938 148.622 160.634 148.622H160.796ZM162.704 153.788C161.444 153.788 160.49 153.854 159.842 153.986C159.206 154.106 158.78 154.292 158.564 154.544C158.348 154.796 158.24 155.144 158.24 155.588C158.24 156.416 158.87 156.83 160.13 156.83C160.574 156.83 160.994 156.722 161.39 156.506C161.786 156.278 162.104 155.96 162.344 155.552C162.584 155.144 162.704 154.676 162.704 154.148V153.788ZM172.243 148.622C173.251 148.622 174.043 148.892 174.619 149.432C175.195 149.972 175.483 150.764 175.483 151.808V158H173.791V152.114C173.791 150.686 173.143 149.972 171.847 149.972C171.415 149.972 171.013 150.086 170.641 150.314C170.269 150.542 169.969 150.854 169.741 151.25C169.513 151.634 169.399 152.06 169.399 152.528V158H167.707V148.802H168.931L169.165 150.152C169.933 149.132 170.959 148.622 172.243 148.622ZM181.995 148.622C183.207 148.622 184.107 148.862 184.695 149.342C185.295 149.822 185.595 150.518 185.595 151.43V156.2C185.595 156.416 185.643 156.578 185.739 156.686C185.835 156.782 185.955 156.83 186.099 156.83C186.375 156.83 186.651 156.746 186.927 156.578V157.82C186.519 158.06 186.057 158.18 185.541 158.18C185.025 158.18 184.641 158.036 184.389 157.748C184.137 157.448 183.999 157.04 183.975 156.524C183.231 157.628 182.157 158.18 180.753 158.18C179.745 158.18 178.989 157.964 178.485 157.532C177.993 157.088 177.747 156.392 177.747 155.444C177.747 154.7 177.939 154.118 178.323 153.698C178.707 153.266 179.343 152.954 180.231 152.762C181.119 152.57 182.343 152.474 183.903 152.474V151.628C183.903 151.016 183.723 150.59 183.363 150.35C183.003 150.098 182.481 149.972 181.797 149.972C181.149 149.972 180.645 150.098 180.285 150.35C179.925 150.602 179.745 150.956 179.745 151.412V151.628H178.089C178.065 151.46 178.053 151.262 178.053 151.034C178.053 150.614 178.221 150.218 178.557 149.846C178.893 149.474 179.349 149.18 179.925 148.964C180.501 148.736 181.137 148.622 181.833 148.622H181.995ZM183.903 153.788C182.643 153.788 181.689 153.854 181.041 153.986C180.405 154.106 179.979 154.292 179.763 154.544C179.547 154.796 179.439 155.144 179.439 155.588C179.439 156.416 180.069 156.83 181.329 156.83C181.773 156.83 182.193 156.722 182.589 156.506C182.985 156.278 183.303 155.96 183.543 155.552C183.783 155.144 183.903 154.676 183.903 154.148V153.788ZM190.67 145.04V158H188.978V145.04H190.67ZM197.791 157.64C197.383 158.648 197.005 159.416 196.657 159.944C196.309 160.484 195.955 160.85 195.595 161.042C195.235 161.246 194.815 161.348 194.335 161.348C193.891 161.348 193.471 161.264 193.075 161.096V159.71C193.471 159.878 193.771 159.962 193.975 159.962C194.467 159.962 194.875 159.794 195.199 159.458C195.535 159.134 195.811 158.618 196.027 157.91L192.445 148.802H194.245L196.891 155.588H196.963L199.573 148.802H201.229L197.791 157.64ZM204.913 148.802H207.055V150.152H204.913V155.642C204.913 156.074 204.997 156.386 205.165 156.578C205.333 156.77 205.591 156.866 205.939 156.866C206.251 156.866 206.623 156.776 207.055 156.596V157.856C206.623 158.072 206.065 158.18 205.381 158.18C204.673 158.18 204.133 157.97 203.761 157.55C203.401 157.13 203.221 156.464 203.221 155.552V150.152H202.213V148.802H203.275L203.851 145.868H204.913V148.802ZM210.884 145.04V146.606H209.12V145.04H210.884ZM210.848 148.802V158H209.156V148.802H210.848ZM217.432 148.622C218.164 148.622 218.818 148.784 219.394 149.108C219.982 149.42 220.438 149.864 220.762 150.44C221.086 151.016 221.248 151.676 221.248 152.42H219.574C219.574 151.676 219.382 151.082 218.998 150.638C218.626 150.194 218.086 149.972 217.378 149.972C216.634 149.972 216.04 150.224 215.596 150.728C215.164 151.22 214.948 151.898 214.948 152.762V153.734C214.948 154.778 215.164 155.558 215.596 156.074C216.028 156.578 216.64 156.83 217.432 156.83C218.164 156.83 218.71 156.614 219.07 156.182C219.442 155.738 219.628 155.144 219.628 154.4H221.248C221.248 155.552 220.9 156.47 220.204 157.154C219.52 157.838 218.602 158.18 217.45 158.18H217.306C216.49 158.18 215.776 157.994 215.164 157.622C214.552 157.238 214.078 156.704 213.742 156.02C213.418 155.336 213.256 154.538 213.256 153.626V153.194C213.256 152.282 213.424 151.484 213.76 150.8C214.096 150.104 214.57 149.57 215.182 149.198C215.794 148.814 216.496 148.622 217.288 148.622H217.432ZM227.133 148.622C227.817 148.622 228.423 148.73 228.951 148.946C229.491 149.162 229.905 149.462 230.193 149.846C230.493 150.23 230.643 150.656 230.643 151.124L230.625 151.448H228.951V151.286C228.951 150.41 228.273 149.972 226.917 149.972C225.573 149.972 224.901 150.374 224.901 151.178C224.901 151.55 225.093 151.826 225.477 152.006C225.861 152.174 226.449 152.336 227.241 152.492C227.997 152.648 228.615 152.81 229.095 152.978C229.587 153.146 230.001 153.41 230.337 153.77C230.685 154.13 230.859 154.616 230.859 155.228C230.859 156.212 230.523 156.95 229.851 157.442C229.179 157.934 228.213 158.18 226.953 158.18H226.683C225.927 158.18 225.267 158.066 224.703 157.838C224.139 157.598 223.701 157.28 223.389 156.884C223.089 156.476 222.945 156.02 222.957 155.516V155.12H224.631V155.3C224.631 156.32 225.489 156.83 227.205 156.83C227.709 156.83 228.159 156.716 228.555 156.488C228.963 156.26 229.167 155.948 229.167 155.552C229.167 155.216 229.053 154.952 228.825 154.76C228.609 154.568 228.339 154.424 228.015 154.328C227.691 154.232 227.241 154.136 226.665 154.04C225.921 153.896 225.321 153.752 224.865 153.608C224.409 153.452 224.019 153.194 223.695 152.834C223.371 152.474 223.209 151.982 223.209 151.358C223.209 150.506 223.545 149.84 224.217 149.36C224.889 148.868 225.807 148.622 226.971 148.622H227.133Z" fill="#222222"/>
<path d="M1100.69 402.472C1101.55 402.472 1102.28 402.646 1102.88 402.994C1103.48 403.342 1103.93 403.792 1104.23 404.344C1104.53 404.896 1104.68 405.478 1104.68 406.09C1104.68 406.954 1104.51 407.662 1104.16 408.214C1103.81 408.766 1103.26 409.336 1102.49 409.924L1099.05 412.552C1098.77 412.744 1098.56 412.918 1098.4 413.074C1098.26 413.218 1098.19 413.326 1098.19 413.398H1104.74V415H1096.26V414.568C1096.26 413.956 1096.4 413.374 1096.69 412.822C1096.99 412.258 1097.41 411.778 1097.93 411.382L1101.52 408.682C1102.02 408.274 1102.38 407.872 1102.6 407.476C1102.81 407.08 1102.92 406.642 1102.92 406.162C1102.92 405.802 1102.83 405.466 1102.65 405.154C1102.47 404.83 1102.21 404.572 1101.86 404.38C1101.51 404.176 1101.09 404.074 1100.6 404.074C1100.09 404.074 1099.64 404.182 1099.25 404.398C1098.86 404.614 1098.56 404.902 1098.35 405.262C1098.13 405.622 1098.02 406.018 1098.02 406.45V406.702C1098.02 406.798 1098.03 406.87 1098.04 406.918H1096.28L1096.26 406.738V406.594C1096.26 405.898 1096.42 405.238 1096.73 404.614C1097.04 403.978 1097.53 403.462 1098.19 403.066C1098.85 402.67 1099.68 402.472 1100.69 402.472ZM1112.7 402.472C1112.36 403.672 1111.77 405.088 1110.93 406.72C1110.09 408.34 1109.33 409.552 1108.65 410.356H1112.79V406.774C1113.2 405.97 1113.52 405.148 1113.76 404.308H1114.55V410.356H1116.12V411.958H1114.55V415H1112.79V411.958H1106.97V410.338C1108.61 407.89 1109.88 405.268 1110.81 402.472H1112.7ZM1127.68 402.652L1118.88 418.078H1117.42L1126.24 402.652H1127.68ZM1137.93 403.606C1136.44 405.358 1135.28 407.128 1134.44 408.916C1133.61 410.704 1133.2 412.426 1133.2 414.082V414.496L1133.23 415H1131.18C1131.18 411.592 1132.68 408.01 1135.68 404.254H1129.26V402.652H1137.93V403.606ZM1154.23 402.652V415H1152.46V409.492H1146.83V415H1145.07V402.652H1146.83V407.89H1152.46V402.652H1154.23ZM1161.07 405.622C1161.83 405.622 1162.5 405.784 1163.07 406.108C1163.66 406.42 1164.12 406.87 1164.44 407.458C1164.76 408.046 1164.93 408.73 1164.93 409.51V410.788H1158.5C1158.52 411.76 1158.75 412.51 1159.18 413.038C1159.62 413.566 1160.26 413.83 1161.11 413.83C1161.87 413.83 1162.42 413.608 1162.78 413.164C1163.14 412.72 1163.32 412.192 1163.32 411.58H1164.93C1164.93 412.3 1164.76 412.93 1164.42 413.47C1164.1 414.01 1163.64 414.43 1163.05 414.73C1162.48 415.03 1161.82 415.18 1161.07 415.18H1161C1159.71 415.18 1158.68 414.766 1157.92 413.938C1157.18 413.098 1156.81 411.982 1156.81 410.59V410.23C1156.81 409.318 1156.98 408.514 1157.31 407.818C1157.65 407.122 1158.13 406.582 1158.75 406.198C1159.38 405.814 1160.11 405.622 1160.95 405.622H1161.07ZM1160.98 406.972C1160.3 406.972 1159.74 407.182 1159.31 407.602C1158.89 408.022 1158.63 408.646 1158.54 409.474H1163.25V409.258C1163.25 408.574 1163.04 408.022 1162.62 407.602C1162.21 407.182 1161.67 406.972 1160.98 406.972ZM1169.15 402.04V415H1167.46V402.04H1169.15ZM1176.54 405.622C1177.7 405.622 1178.62 406.048 1179.28 406.9C1179.94 407.752 1180.27 408.922 1180.27 410.41V410.608C1180.27 412.024 1179.94 413.14 1179.28 413.956C1178.63 414.772 1177.72 415.18 1176.54 415.18C1175.41 415.18 1174.53 414.73 1173.89 413.83V418.258H1172.2V405.802H1173.46C1173.55 406.186 1173.62 406.606 1173.7 407.062C1174.38 406.102 1175.33 405.622 1176.54 405.622ZM1176.23 406.972C1175.42 406.972 1174.82 407.254 1174.43 407.818C1174.06 408.382 1173.88 409.24 1173.88 410.392C1173.88 411.568 1174.07 412.438 1174.45 413.002C1174.85 413.554 1175.44 413.83 1176.23 413.83C1177.03 413.83 1177.61 413.548 1178 412.984C1178.38 412.42 1178.57 411.556 1178.57 410.392C1178.57 409.216 1178.38 408.352 1177.98 407.8C1177.6 407.248 1177.01 406.972 1176.23 406.972ZM1190.71 405.622C1191.92 405.622 1192.82 405.862 1193.41 406.342C1194.01 406.822 1194.31 407.518 1194.31 408.43V413.2C1194.31 413.416 1194.36 413.578 1194.45 413.686C1194.55 413.782 1194.67 413.83 1194.81 413.83C1195.09 413.83 1195.37 413.746 1195.64 413.578V414.82C1195.23 415.06 1194.77 415.18 1194.26 415.18C1193.74 415.18 1193.36 415.036 1193.1 414.748C1192.85 414.448 1192.71 414.04 1192.69 413.524C1191.95 414.628 1190.87 415.18 1189.47 415.18C1188.46 415.18 1187.7 414.964 1187.2 414.532C1186.71 414.088 1186.46 413.392 1186.46 412.444C1186.46 411.7 1186.65 411.118 1187.04 410.698C1187.42 410.266 1188.06 409.954 1188.95 409.762C1189.83 409.57 1191.06 409.474 1192.62 409.474V408.628C1192.62 408.016 1192.44 407.59 1192.08 407.35C1191.72 407.098 1191.2 406.972 1190.51 406.972C1189.86 406.972 1189.36 407.098 1189 407.35C1188.64 407.602 1188.46 407.956 1188.46 408.412V408.628H1186.8C1186.78 408.46 1186.77 408.262 1186.77 408.034C1186.77 407.614 1186.94 407.218 1187.27 406.846C1187.61 406.474 1188.06 406.18 1188.64 405.964C1189.22 405.736 1189.85 405.622 1190.55 405.622H1190.71ZM1192.62 410.788C1191.36 410.788 1190.4 410.854 1189.76 410.986C1189.12 411.106 1188.69 411.292 1188.48 411.544C1188.26 411.796 1188.15 412.144 1188.15 412.588C1188.15 413.416 1188.78 413.83 1190.04 413.83C1190.49 413.83 1190.91 413.722 1191.3 413.506C1191.7 413.278 1192.02 412.96 1192.26 412.552C1192.5 412.144 1192.62 411.676 1192.62 411.148V410.788ZM1202.16 405.622C1203.16 405.622 1203.96 405.892 1204.53 406.432C1205.11 406.972 1205.4 407.764 1205.4 408.808V415H1203.7V409.114C1203.7 407.686 1203.06 406.972 1201.76 406.972C1201.33 406.972 1200.93 407.086 1200.55 407.314C1200.18 407.542 1199.88 407.854 1199.65 408.25C1199.43 408.634 1199.31 409.06 1199.31 409.528V415H1197.62V405.802H1198.84L1199.08 407.152C1199.85 406.132 1200.87 405.622 1202.16 405.622ZM1215.8 415H1214.54C1214.45 414.616 1214.37 414.196 1214.3 413.74C1213.62 414.7 1212.67 415.18 1211.46 415.18C1210.31 415.18 1209.39 414.754 1208.72 413.902C1208.06 413.05 1207.73 411.88 1207.73 410.392V410.194C1207.73 408.79 1208.06 407.68 1208.7 406.864C1209.36 406.036 1210.28 405.622 1211.46 405.622C1212.6 405.622 1213.48 406.072 1214.1 406.972V402.04H1215.8V415ZM1211.76 406.972C1210.96 406.972 1210.37 407.254 1209.98 407.818C1209.61 408.37 1209.42 409.234 1209.42 410.41C1209.42 411.586 1209.62 412.45 1210 413.002C1210.38 413.554 1210.97 413.83 1211.76 413.83C1213.34 413.83 1214.12 412.69 1214.12 410.41C1214.12 409.234 1213.92 408.37 1213.53 407.818C1213.13 407.254 1212.54 406.972 1211.76 406.972ZM1100 432.622C1100.69 432.622 1101.29 432.73 1101.82 432.946C1102.36 433.162 1102.78 433.462 1103.06 433.846C1103.36 434.23 1103.51 434.656 1103.51 435.124L1103.5 435.448H1101.82V435.286C1101.82 434.41 1101.14 433.972 1099.79 433.972C1098.44 433.972 1097.77 434.374 1097.77 435.178C1097.77 435.55 1097.96 435.826 1098.35 436.006C1098.73 436.174 1099.32 436.336 1100.11 436.492C1100.87 436.648 1101.49 436.81 1101.97 436.978C1102.46 437.146 1102.87 437.41 1103.21 437.77C1103.56 438.13 1103.73 438.616 1103.73 439.228C1103.73 440.212 1103.39 440.95 1102.72 441.442C1102.05 441.934 1101.08 442.18 1099.82 442.18H1099.55C1098.8 442.18 1098.14 442.066 1097.57 441.838C1097.01 441.598 1096.57 441.28 1096.26 440.884C1095.96 440.476 1095.82 440.02 1095.83 439.516V439.12H1097.5V439.3C1097.5 440.32 1098.36 440.83 1100.08 440.83C1100.58 440.83 1101.03 440.716 1101.43 440.488C1101.83 440.26 1102.04 439.948 1102.04 439.552C1102.04 439.216 1101.92 438.952 1101.7 438.76C1101.48 438.568 1101.21 438.424 1100.89 438.328C1100.56 438.232 1100.11 438.136 1099.54 438.04C1098.79 437.896 1098.19 437.752 1097.74 437.608C1097.28 437.452 1096.89 437.194 1096.57 436.834C1096.24 436.474 1096.08 435.982 1096.08 435.358C1096.08 434.506 1096.42 433.84 1097.09 433.36C1097.76 432.868 1098.68 432.622 1099.84 432.622H1100ZM1113.8 440.2C1113.8 440.416 1113.84 440.578 1113.94 440.686C1114.04 440.782 1114.16 440.83 1114.3 440.83C1114.56 440.83 1114.83 440.746 1115.11 440.578V441.82C1114.74 442.06 1114.36 442.18 1113.98 442.18C1113.33 442.18 1112.87 442.048 1112.61 441.784C1112.36 441.52 1112.22 441.148 1112.19 440.668C1111.87 441.148 1111.45 441.52 1110.93 441.784C1110.43 442.048 1109.85 442.18 1109.19 442.18C1108.26 442.18 1107.5 441.91 1106.9 441.37C1106.31 440.818 1106.02 440.026 1106.02 438.994V432.802H1107.71V438.688C1107.71 440.116 1108.36 440.83 1109.66 440.83C1110.08 440.83 1110.47 440.716 1110.84 440.488C1111.23 440.26 1111.53 439.954 1111.76 439.57C1111.99 439.174 1112.1 438.742 1112.1 438.274V432.802H1113.8V440.2ZM1121.57 432.622C1122.74 432.622 1123.65 433.048 1124.31 433.9C1124.97 434.752 1125.3 435.922 1125.3 437.41V437.608C1125.3 439.024 1124.97 440.14 1124.31 440.956C1123.66 441.772 1122.75 442.18 1121.57 442.18C1120.45 442.18 1119.56 441.73 1118.93 440.83V445.258H1117.24V432.802H1118.5C1118.58 433.186 1118.66 433.606 1118.73 434.062C1119.41 433.102 1120.36 432.622 1121.57 432.622ZM1121.27 433.972C1120.45 433.972 1119.85 434.254 1119.47 434.818C1119.1 435.382 1118.91 436.24 1118.91 437.392C1118.91 438.568 1119.1 439.438 1119.49 440.002C1119.88 440.554 1120.48 440.83 1121.27 440.83C1122.06 440.83 1122.65 440.548 1123.03 439.984C1123.42 439.42 1123.61 438.556 1123.61 437.392C1123.61 436.216 1123.41 435.352 1123.01 434.8C1122.63 434.248 1122.05 433.972 1121.27 433.972ZM1132.07 432.622C1133.23 432.622 1134.14 433.048 1134.8 433.9C1135.46 434.752 1135.79 435.922 1135.79 437.41V437.608C1135.79 439.024 1135.46 440.14 1134.8 440.956C1134.16 441.772 1133.24 442.18 1132.07 442.18C1130.94 442.18 1130.06 441.73 1129.42 440.83V445.258H1127.73V432.802H1128.99C1129.07 433.186 1129.15 433.606 1129.22 434.062C1129.91 433.102 1130.86 432.622 1132.07 432.622ZM1131.76 433.972C1130.95 433.972 1130.35 434.254 1129.96 434.818C1129.59 435.382 1129.4 436.24 1129.4 437.392C1129.4 438.568 1129.6 439.438 1129.98 440.002C1130.38 440.554 1130.97 440.83 1131.76 440.83C1132.55 440.83 1133.14 440.548 1133.53 439.984C1133.91 439.42 1134.1 438.556 1134.1 437.392C1134.1 436.216 1133.9 435.352 1133.51 434.8C1133.12 434.248 1132.54 433.972 1131.76 433.972ZM1141.9 432.622C1143.18 432.622 1144.21 433.018 1144.97 433.81C1145.74 434.602 1146.13 435.688 1146.13 437.068V437.734C1146.13 439.114 1145.75 440.2 1144.99 440.992C1144.24 441.784 1143.2 442.18 1141.9 442.18C1140.59 442.18 1139.56 441.784 1138.8 440.992C1138.04 440.2 1137.67 439.114 1137.67 437.734V437.068C1137.67 435.688 1138.05 434.602 1138.82 433.81C1139.59 433.018 1140.61 432.622 1141.9 432.622ZM1141.9 433.972C1141.09 433.972 1140.47 434.248 1140.02 434.8C1139.58 435.352 1139.36 436.162 1139.36 437.23V437.572C1139.36 438.616 1139.57 439.42 1140.01 439.984C1140.45 440.548 1141.08 440.83 1141.9 440.83C1142.69 440.83 1143.31 440.554 1143.75 440.002C1144.21 439.438 1144.43 438.628 1144.43 437.572V437.23C1144.43 436.186 1144.21 435.382 1143.77 434.818C1143.34 434.254 1142.71 433.972 1141.9 433.972ZM1152.7 432.622C1153.55 432.622 1154.22 432.898 1154.7 433.45C1155.18 433.99 1155.42 434.674 1155.42 435.502L1155.36 436.186H1153.87V435.79C1153.87 435.43 1153.78 435.112 1153.6 434.836C1153.42 434.56 1153.19 434.35 1152.92 434.206C1152.64 434.05 1152.36 433.972 1152.09 433.972C1151.51 433.972 1151.06 434.2 1150.74 434.656C1150.41 435.112 1150.25 435.73 1150.25 436.51V442H1148.56V432.802H1149.77L1150.02 434.17C1150.09 433.93 1150.25 433.69 1150.5 433.45C1150.76 433.21 1151.07 433.012 1151.44 432.856C1151.82 432.7 1152.24 432.622 1152.7 432.622ZM1159.36 432.802H1161.51V434.152H1159.36V439.642C1159.36 440.074 1159.45 440.386 1159.62 440.578C1159.78 440.77 1160.04 440.866 1160.39 440.866C1160.7 440.866 1161.07 440.776 1161.51 440.596V441.856C1161.07 442.072 1160.52 442.18 1159.83 442.18C1159.12 442.18 1158.58 441.97 1158.21 441.55C1157.85 441.13 1157.67 440.464 1157.67 439.552V434.152H1156.66V432.802H1157.73L1158.3 429.868H1159.36V432.802Z" fill="#222222"/>
</g>
<defs>
<clipPath id="clip0_3099_2820">
<rect width="1229" height="572" fill="white"/>
</clipPath>
</defs>
</svg>
