<svg width="25" height="24" viewBox="0 0 25 24" fill="none" xmlns="http://www.w3.org/2000/svg">
<path d="M24.1141 10.8364L22.3958 7.24368C22.1778 6.78859 21.6537 6.56555 21.1766 6.72658L12.4978 9.62316L3.80712 6.72758C3.33002 6.56855 2.80592 6.78959 2.58788 7.24568L0.935549 10.7194C0.458455 11.5115 0.368437 12.4627 0.6885 13.3289C0.998562 14.1691 1.65269 14.8202 2.48986 15.1242L2.48386 17.4397C2.48386 19.5971 3.85713 21.5055 5.90353 22.1876L10.2694 23.6439C10.9835 23.881 11.7337 24 12.4838 24C13.234 24 13.9841 23.881 14.6983 23.6429L19.0681 22.1866C21.1125 21.5045 22.4868 19.6001 22.4878 17.4477L22.4938 15.1252C23.34 14.8292 24.0021 14.1801 24.3132 13.3369C24.6292 12.4787 24.5402 11.5365 24.1141 10.8364ZM2.6939 11.6666L4.01216 8.90301L11.0786 11.2575L9.45824 14.5141C9.21619 14.9202 8.72909 15.0982 8.284 14.9502L3.202 13.2549C2.90394 13.1559 2.67189 12.9308 2.56287 12.6368C2.45485 12.3437 2.48586 12.0206 2.6939 11.6666ZM6.53666 20.2913C5.30841 19.8812 4.48325 18.736 4.48425 17.4427L4.48825 15.7924L7.65288 16.8476C8.99915 17.2937 10.4464 16.7576 11.2126 15.4753L11.4896 14.9202L11.4856 21.9006C11.2886 21.8606 11.0946 21.8096 10.9035 21.7466L6.53766 20.2913H6.53666ZM18.435 20.2893L14.0651 21.7456C13.8751 21.8086 13.6811 21.8606 13.485 21.9006L13.489 14.9042L13.8081 15.5443C14.3652 16.4725 15.3404 17.0046 16.3706 17.0046C16.6887 17.0046 17.0137 16.9536 17.3308 16.8476L20.4914 15.7944L20.4874 17.4457C20.4874 18.738 19.6623 19.8802 18.435 20.2893ZM22.4358 12.6428C22.3308 12.9278 22.1047 13.1469 21.8167 13.2439L16.6977 14.9492C16.2596 15.0962 15.7625 14.9132 15.5614 14.5841L13.9071 11.2615L20.9725 8.90401L22.3548 11.7846C22.5108 12.0456 22.5418 12.3577 22.4358 12.6428ZM5.7145 5.89542C5.32342 5.50434 5.32342 4.87221 5.7145 4.48114L9.61227 0.584366C10.3914 -0.194789 11.6617 -0.194789 12.4408 0.584366L14.0371 2.18068C14.7903 1.79561 15.7755 1.91063 16.3906 2.52575L18.6461 4.7812C19.0371 5.17227 19.0371 5.8044 18.6461 6.19548C18.255 6.58655 17.6229 6.58655 17.2318 6.19548L14.9763 3.94003L11.8247 7.09165C11.6297 7.28669 11.3736 7.38471 11.1176 7.38471C10.8615 7.38471 10.6055 7.28669 10.4104 7.09165C10.0193 6.70058 10.0193 6.06845 10.4104 5.67737L12.5578 3.52995L11.0275 1.99965L7.12978 5.89642C6.93474 6.09146 6.67869 6.18948 6.42264 6.18948C6.16658 6.18948 5.91053 6.09146 5.7155 5.89642L5.7145 5.89542Z" fill="#222222"/>
</svg>
