<svg width="14" height="16" viewBox="0 0 14 16" fill="none" xmlns="http://www.w3.org/2000/svg">
<path d="M12.6667 2.66667H10.6C10.4453 1.91428 10.0359 1.23823 9.44084 0.752479C8.84579 0.266727 8.10147 0.000969683 7.33333 0L6 0C5.23186 0.000969683 4.48755 0.266727 3.8925 0.752479C3.29745 1.23823 2.88806 1.91428 2.73333 2.66667H0.666667C0.489856 2.66667 0.320286 2.73691 0.195262 2.86193C0.0702379 2.98695 0 3.15652 0 3.33333C0 3.51014 0.0702379 3.67971 0.195262 3.80474C0.320286 3.92976 0.489856 4 0.666667 4H1.33333V12.6667C1.33439 13.5504 1.68592 14.3976 2.31081 15.0225C2.93571 15.6474 3.78294 15.9989 4.66667 16H8.66667C9.5504 15.9989 10.3976 15.6474 11.0225 15.0225C11.6474 14.3976 11.9989 13.5504 12 12.6667V4H12.6667C12.8435 4 13.0131 3.92976 13.1381 3.80474C13.2631 3.67971 13.3333 3.51014 13.3333 3.33333C13.3333 3.15652 13.2631 2.98695 13.1381 2.86193C13.0131 2.73691 12.8435 2.66667 12.6667 2.66667ZM6 1.33333H7.33333C7.74685 1.33384 8.15009 1.46225 8.48774 1.70096C8.8254 1.93967 9.08095 2.27699 9.21934 2.66667H4.114C4.25239 2.27699 4.50793 1.93967 4.84559 1.70096C5.18325 1.46225 5.58648 1.33384 6 1.33333ZM10.6667 12.6667C10.6667 13.1971 10.456 13.7058 10.0809 14.0809C9.70581 14.456 9.1971 14.6667 8.66667 14.6667H4.66667C4.13623 14.6667 3.62753 14.456 3.25245 14.0809C2.87738 13.7058 2.66667 13.1971 2.66667 12.6667V4H10.6667V12.6667Z" fill="#222222"/>
<path d="M5.33366 12.0003C5.51047 12.0003 5.68004 11.9301 5.80506 11.8051C5.93009 11.68 6.00033 11.5105 6.00033 11.3337V7.33366C6.00033 7.15685 5.93009 6.98728 5.80506 6.86225C5.68004 6.73723 5.51047 6.66699 5.33366 6.66699C5.15685 6.66699 4.98728 6.73723 4.86225 6.86225C4.73723 6.98728 4.66699 7.15685 4.66699 7.33366V11.3337C4.66699 11.5105 4.73723 11.68 4.86225 11.8051C4.98728 11.9301 5.15685 12.0003 5.33366 12.0003Z" fill="#222222"/>
<path d="M7.99967 12.0003C8.17649 12.0003 8.34605 11.9301 8.47108 11.8051C8.5961 11.68 8.66634 11.5105 8.66634 11.3337V7.33366C8.66634 7.15685 8.5961 6.98728 8.47108 6.86225C8.34605 6.73723 8.17649 6.66699 7.99967 6.66699C7.82286 6.66699 7.65329 6.73723 7.52827 6.86225C7.40325 6.98728 7.33301 7.15685 7.33301 7.33366V11.3337C7.33301 11.5105 7.40325 11.68 7.52827 11.8051C7.65329 11.9301 7.82286 12.0003 7.99967 12.0003Z" fill="#222222"/>
</svg>
