<svg width="17" height="17" viewBox="0 0 17 17" fill="none" xmlns="http://www.w3.org/2000/svg">
<path d="M8.5 0C6.24641 0.00244534 4.08582 0.90167 2.49228 2.50037C0.898753 4.09907 0.00243743 6.26668 0 8.52758C0.425 19.8266 16.575 19.8217 17 8.52758C16.9976 6.26668 16.1012 4.09907 14.5077 2.50037C12.9142 0.90167 10.7536 0.00244534 8.5 0ZM8.5 1.42126C9.79789 1.42221 11.0706 1.78054 12.1795 2.45719C13.2884 3.13385 14.1909 4.10288 14.7886 5.25868L9.79554 6.26067C8.90721 6.43984 7.99221 6.43984 7.10388 6.26067L2.2015 5.27857C2.79731 4.11756 3.70017 3.14349 4.81116 2.46311C5.92214 1.78272 7.19838 1.42227 8.5 1.42126ZM1.46271 9.33628L4.22521 9.89057C4.5313 9.95177 4.82016 10.08 5.07116 10.2661C5.32216 10.4522 5.52913 10.6916 5.67729 10.9672L6.11929 11.7865C6.28726 12.0982 6.37514 12.447 6.375 12.8013V15.307C5.0697 14.8926 3.91159 14.1086 3.04008 13.0493C2.16857 11.99 1.6208 10.7006 1.46271 9.33628ZM7.79167 15.5984V12.8013C7.79212 12.2107 7.64606 11.6292 7.36667 11.1093L6.92183 10.2899C6.67499 9.83079 6.3301 9.432 5.91182 9.12206C5.49354 8.81212 5.01219 8.59869 4.50217 8.49702L1.44642 7.88375C1.48417 7.45712 1.56099 7.03488 1.67592 6.62238L6.82692 7.65564C7.8983 7.87167 9.00182 7.87167 10.0732 7.65564L15.3191 6.60319C15.4367 7.02134 15.5152 7.44957 15.5536 7.88233L12.4978 8.4956C11.9879 8.59729 11.5066 8.81064 11.0884 9.12044C10.6701 9.43025 10.3252 9.82885 10.0782 10.2878L9.63333 11.1093C9.35394 11.6292 9.20788 12.2107 9.20833 12.8013V15.5984C8.73727 15.6453 8.26273 15.6453 7.79167 15.5984ZM10.625 15.307V12.8013C10.6251 12.4469 10.7132 12.0982 10.8814 11.7865L11.3234 10.9665C11.4719 10.6912 11.679 10.4521 11.9299 10.2661C12.1809 10.0802 12.4696 9.95197 12.7755 9.89057L15.538 9.33628C15.3799 10.7007 14.832 11.9902 13.9603 13.0495C13.0887 14.1088 11.9304 14.8928 10.625 15.307Z" fill="#222222"/>
</svg>
