<svg width="16" height="15" viewBox="0 0 16 15" fill="none" xmlns="http://www.w3.org/2000/svg">
<path d="M7.95184 14.9965C5.96711 14.9965 3.98237 14.999 1.99764 14.9946C1.56414 14.9934 1.19136 14.8041 0.848931 14.543C0.394792 14.1964 0.145258 13.7179 0.0129017 13.1645C-0.00106249 13.1058 0.00136606 13.0415 0.00136606 12.9797C0.000151785 9.33267 -0.00166963 5.68505 0.00318748 2.03743C0.00318748 1.60708 0.181079 1.22858 0.43122 0.892548C0.908431 0.251715 1.55382 -0.00124458 2.32549 4.6019e-06C6.14379 0.00625053 9.96208 -0.00561673 13.7798 0.00812431C14.8981 0.0124965 15.8003 0.786992 15.9509 1.94249C15.9746 2.12487 15.9952 2.31037 15.9952 2.494C15.9976 5.89179 16.0061 9.28895 15.9922 12.6867C15.9879 13.7948 15.3686 14.6124 14.3438 14.9353C14.1695 14.9902 13.9765 14.9965 13.7919 14.9971C11.8448 15.0015 9.89772 14.9996 7.95124 14.9996V14.9965H7.95184ZM10.5431 1.50277V1.75636C10.5431 2.91248 10.5437 4.06798 10.5431 5.2241C10.5431 5.67693 10.2268 6.00109 9.78601 6.00172C8.58934 6.00297 7.39206 6.00234 6.19539 6.00172C5.73943 6.00172 5.45286 5.70254 5.45226 5.22722C5.45165 4.06361 5.45226 2.89999 5.45226 1.73575C5.45226 1.6608 5.45226 1.58647 5.45226 1.50402C4.31994 1.50402 3.21495 1.4984 2.10935 1.50715C1.75114 1.51027 1.45303 1.85817 1.45243 2.23542C1.45182 5.74251 1.45182 9.24897 1.45243 12.7561C1.45243 13.1858 1.7645 13.4993 2.18889 13.4993C6.03754 13.4993 9.88558 13.4956 13.7342 13.505C14.1683 13.5062 14.5423 13.1664 14.5423 12.6774C14.5435 9.22524 14.5484 5.77312 14.5375 2.32099C14.5357 1.80008 14.2691 1.52276 13.7749 1.51027C12.7082 1.48404 11.6402 1.50215 10.5431 1.50215V1.50277ZM9.08355 1.51652H6.91971V4.48895H9.08355V1.51589V1.51652Z" fill="#222222"/>
</svg>
