<svg width="30" height="29" viewBox="0 0 30 29" fill="none" xmlns="http://www.w3.org/2000/svg">
<path d="M28.5356 8.25913L26.9016 4.84381C26.4799 3.96158 25.7052 3.27755 24.777 2.96816L17.1669 0.431447C15.4411 -0.143816 13.5413 -0.143816 11.8155 0.431447L4.20656 2.96816C3.27719 3.27755 2.50252 3.96279 2.08074 4.84622L0.526567 8.11773C-0.0499041 9.07489 -0.158672 10.223 0.228059 11.2708C0.601496 12.286 1.39309 13.0715 2.40584 13.4413L2.3998 21.072C2.39738 23.68 4.05791 25.9859 6.53057 26.8101L11.8058 28.5686C12.6687 28.8562 13.5751 29 14.4815 29C15.3879 29 16.2943 28.8562 17.1572 28.5686L22.4373 26.8077C24.9063 25.9847 26.5669 23.6837 26.5693 21.0805L26.5753 13.4425C27.5977 13.0836 28.3978 12.2993 28.7737 11.2793C29.1568 10.2423 29.0504 9.1051 28.5356 8.25913ZM12.5805 2.72525C13.8132 2.31434 15.1704 2.31434 16.4019 2.72525L21.5357 4.43653L14.4996 6.79317L7.44905 4.43653L12.5805 2.72525ZM2.65238 9.26221L4.25611 5.90007C4.31412 5.93028 12.7847 8.76792 12.7847 8.76792L10.8257 12.7053C10.5369 13.1863 9.93743 13.4087 9.40809 13.2298L3.26752 11.1838C2.90859 11.0641 2.627 10.791 2.49527 10.4357C2.36354 10.0804 2.401 9.69124 2.65117 9.26342L2.65238 9.26221ZM7.29436 24.5175C5.81028 24.0233 4.81445 22.6395 4.81566 21.0756L4.8217 14.2498L8.64309 15.5236C10.2674 16.0651 12.0173 15.4185 12.9443 13.8667L13.2802 13.1936L13.2742 26.4645C13.0361 26.4162 12.8017 26.3545 12.572 26.2772L7.29557 24.5188L7.29436 24.5175ZM21.6723 24.5163L16.391 26.2772C16.1614 26.3533 15.9269 26.4162 15.6888 26.4645L15.6949 13.1767L16.0804 13.9501C16.7524 15.0716 17.9319 15.7134 19.1755 15.7134C19.561 15.7134 19.9526 15.6517 20.3357 15.5236L24.1558 14.251L24.1498 21.0805C24.1498 22.6419 23.1515 24.0233 21.6699 24.5175L21.6723 24.5163ZM26.5064 10.4442C26.3795 10.7886 26.1064 11.0533 25.7584 11.1693L19.5731 13.231C19.0437 13.4087 18.4443 13.1887 18.2002 12.7899L16.2001 8.77396C16.2001 8.77396 24.6671 5.9327 24.7251 5.90128L26.4086 9.40724C26.5983 9.72266 26.6333 10.1009 26.5064 10.4454V10.4442Z" fill="url(#paint0_linear_1725_151656)"/>
<defs>
<linearGradient id="paint0_linear_1725_151656" x1="1.91772" y1="32.1179" x2="34.2707" y2="19.9105" gradientUnits="userSpaceOnUse">
<stop stop-color="#FFB6D5"/>
<stop offset="0.1" stop-color="#FFE3C0"/>
<stop offset="0.29" stop-color="#C7FBDB"/>
<stop offset="0.43" stop-color="#C7CDF4"/>
<stop offset="0.54" stop-color="#FFBCD4"/>
<stop offset="0.66" stop-color="#FFE0C3"/>
<stop offset="0.76" stop-color="#B0F1D4"/>
<stop offset="0.84" stop-color="#C9CEEC"/>
<stop offset="0.91" stop-color="#FFC1DA"/>
<stop offset="1" stop-color="#BDFFE3"/>
</linearGradient>
</defs>
</svg>
