<svg width="36" height="9" viewBox="0 0 36 9" fill="none" xmlns="http://www.w3.org/2000/svg">
<path d="M1 4.10059C0.723858 4.10059 0.5 4.32444 0.5 4.60059C0.5 4.87673 0.723858 5.10059 1 5.10059L1 4.10059ZM35.3536 4.95414C35.5488 4.75888 35.5488 4.44229 35.3536 4.24703L32.1716 1.06505C31.9763 0.86979 31.6597 0.86979 31.4645 1.06505C31.2692 1.26031 31.2692 1.5769 31.4645 1.77216L34.2929 4.60059L31.4645 7.42901C31.2692 7.62428 31.2692 7.94086 31.4645 8.13612C31.6597 8.33138 31.9763 8.33138 32.1716 8.13612L35.3536 4.95414ZM1 5.10059L35 5.10059V4.10059L1 4.10059L1 5.10059Z" fill="#222222"/>
</svg>
