<svg width="50" height="52" viewBox="0 0 50 52" fill="none" xmlns="http://www.w3.org/2000/svg">
<rect width="50" height="52" rx="10" fill="#EFCFE4"/>
<path d="M21.3333 26H19.5C18.4889 26 17.6667 26.8223 17.6667 27.8333V29.6667C17.6667 30.6778 18.4889 31.5 19.5 31.5H21.3333C22.3444 31.5 23.1667 30.6778 23.1667 29.6667V27.8333C23.1667 26.8223 22.3444 26 21.3333 26ZM19.5 29.6667V27.8333H21.3333V29.6667H19.5ZM31.4167 16.8333H30.5V15.9167C30.5 15.4107 30.0903 15 29.5833 15C29.0764 15 28.6667 15.4107 28.6667 15.9167V16.8333H21.3333V15.9167C21.3333 15.4107 20.9236 15 20.4167 15C19.9097 15 19.5 15.4107 19.5 15.9167V16.8333H18.5833C16.0561 16.8333 14 18.8894 14 21.4167V32.4167C14 34.9439 16.0561 37 18.5833 37H31.4167C33.9439 37 36 34.9439 36 32.4167V21.4167C36 18.8894 33.9439 16.8333 31.4167 16.8333ZM18.5833 18.6667H31.4167C32.9328 18.6667 34.1667 19.9005 34.1667 21.4167V22.3333H15.8333V21.4167C15.8333 19.9005 17.0672 18.6667 18.5833 18.6667ZM31.4167 35.1667H18.5833C17.0672 35.1667 15.8333 33.9328 15.8333 32.4167V24.1667H34.1667V32.4167C34.1667 33.9328 32.9328 35.1667 31.4167 35.1667Z" fill="#222222"/>
</svg>
