<svg width="22" height="19" viewBox="0 0 22 19" fill="none" xmlns="http://www.w3.org/2000/svg">
<path d="M16.368 2.27829H18.0227C19.1171 2.27829 20.1117 2.72092 20.8322 3.43352C21.5525 4.14612 22 5.13028 22 6.21263V15.0656C22 16.1482 21.5526 17.1321 20.8323 17.8447C20.1119 18.5574 19.1171 19 18.0227 19H3.97732C2.88287 19 1.88829 18.5574 1.16792 17.8447C0.447456 17.1321 0 16.1482 0 15.0656V6.21263C0 5.12998 0.447456 4.14602 1.16792 3.43342C1.88829 2.72073 2.88287 2.27829 3.97732 2.27829H5.63214C5.78852 1.77708 6.09405 1.33614 6.46984 0.979687C7.1088 0.373228 7.98595 0 8.66506 0H13.3348C14.014 0 14.8912 0.373228 15.5301 0.979687C15.9058 1.33614 16.2113 1.77708 16.3679 2.27829H16.368ZM11 5.84397C12.3383 5.84397 13.5504 6.38083 14.4276 7.24852C15.3048 8.1163 15.8475 9.31532 15.8475 10.6392C15.8475 11.9631 15.3048 13.1621 14.4276 14.0299C13.5502 14.8976 12.3385 15.4344 11 15.4344C9.66155 15.4344 8.44976 14.8976 7.57242 14.0299C6.69527 13.162 6.15256 11.9632 6.15256 10.6392C6.15256 9.31522 6.69527 8.1164 7.57242 7.24852C8.44956 6.38083 9.66175 5.84397 11 5.84397ZM13.3732 8.29165C12.766 7.69105 11.9269 7.31961 11 7.31961C10.0732 7.31961 9.23396 7.69105 8.62682 8.29165C8.01987 8.89225 7.64418 9.72241 7.64418 10.6392C7.64418 11.556 8.01987 12.3862 8.62682 12.9867C9.23396 13.5872 10.0732 13.9589 11 13.9589C11.9267 13.9589 12.766 13.5872 13.3732 12.9867C13.9803 12.3862 14.3558 11.5561 14.3558 10.6392C14.3558 9.72231 13.9803 8.89225 13.3732 8.29165ZM18.0227 3.75383H15.7355C15.3237 3.75383 14.9898 3.42349 14.9898 3.01611C14.9898 2.65192 14.7831 2.30967 14.4988 2.0401C14.1308 1.6907 13.6673 1.47564 13.3349 1.47564H8.66516C8.33283 1.47564 7.86932 1.6907 7.50126 2.0401C7.217 2.30977 7.01034 2.65192 7.01034 3.01611C7.01034 3.42349 6.6764 3.75383 6.26458 3.75383H3.97742C3.29449 3.75383 2.67309 4.03075 2.22242 4.47656C1.77176 4.92247 1.49172 5.53717 1.49172 6.21273V15.0657C1.49172 15.741 1.77176 16.3559 2.22242 16.8017C2.67319 17.2475 3.29459 17.5246 3.97742 17.5246H18.0228C18.7057 17.5246 19.3273 17.2475 19.7779 16.8017C20.2286 16.3558 20.5085 15.7412 20.5085 15.0657V6.21273C20.5085 5.53736 20.2285 4.92247 19.7778 4.47676C19.327 4.03085 18.7056 3.75383 18.0228 3.75383H18.0227Z" fill="#222222"/>
</svg>
