<svg width="22" height="22" viewBox="0 0 22 22" fill="none" xmlns="http://www.w3.org/2000/svg">
<mask id="mask0_177_35681" style="mask-type:alpha" maskUnits="userSpaceOnUse" x="0" y="0" width="22" height="22">
<path d="M22 0V11.6471C22 17.3648 17.3648 22 11.6471 22H0V10.3529C0 4.63516 4.63517 0 10.3529 0H22Z" fill="#222222"/>
</mask>
<g mask="url(#mask0_177_35681)">
<path d="M74.8167 2.51306C74.8167 2.51306 74.8167 2.51301 74.8167 2.51297C71.1504 -1.48501 70.5519 -9.87071 65.712 -12.1277C64.4429 -12.7196 63.0383 -12.817 61.5591 -12.6429C60.9667 -12.5265 60.3739 -12.4091 59.7841 -12.3C59.1389 -12.1381 58.4909 -11.9679 57.8443 -11.8032C54.7186 -10.8665 51.4897 -9.56635 48.644 -9.69163C43.4165 -9.92198 37.08 -15.5072 31.8568 -13.6061C30.4165 -13.0818 29.2772 -12.0671 28.3018 -10.798C27.9843 -10.3189 27.6679 -9.84073 27.3493 -9.37117C27.0143 -8.80516 26.6846 -8.23325 26.3537 -7.66746C24.8263 -4.8054 23.5211 -1.65828 21.5131 0.183196C17.5151 3.84957 9.12931 4.44804 6.8723 9.28797C6.28041 10.5571 6.18305 11.9617 6.35712 13.4409C6.47355 14.0333 6.59088 14.6261 6.70004 15.2159C6.86186 15.8611 7.03207 16.5091 7.19684 17.1556C8.13346 20.2814 9.43366 23.5102 9.30838 26.356C9.07803 31.5835 3.49279 37.92 5.39395 43.1432C5.9182 44.5835 6.9329 45.7227 8.202 46.6982C8.68109 47.0157 9.15927 47.332 9.62883 47.6507C10.1948 47.9857 10.7668 48.3154 11.3325 48.6463C14.1946 50.1735 17.3417 51.4789 19.1832 53.4869C22.8496 57.4849 23.448 65.8707 28.288 68.1277C29.5571 68.7196 30.9617 68.8169 32.4409 68.6429C33.0333 68.5264 33.6261 68.4091 34.2159 68.3C34.8611 68.1381 35.5091 67.9679 36.1557 67.8032C39.2814 66.8665 42.5102 65.5663 45.356 65.6916C50.5835 65.922 56.92 71.5072 62.1432 69.606C63.5835 69.0818 64.7227 68.0671 65.6982 66.798C66.0157 66.3189 66.3321 65.8407 66.6507 65.3712C66.9857 64.8051 67.3154 64.2332 67.6463 63.6675C69.1735 60.8054 70.4789 57.6583 72.4869 55.8168C76.4849 52.1504 84.8707 51.552 87.1277 46.712C87.7196 45.4429 87.8169 44.0383 87.6429 42.5591C87.5264 41.9667 87.4091 41.3739 87.3 40.7841C87.1381 40.1389 86.9679 39.4909 86.8032 38.8443C85.8665 35.7186 84.5663 32.4897 84.6916 29.644C84.922 24.4165 90.5072 18.08 88.606 12.8568C88.0818 11.4165 87.0671 10.2772 85.798 9.30182C85.3189 8.98431 84.8407 8.66794 84.3712 8.3493C83.8052 8.01432 83.2332 7.68457 82.6675 7.35368C79.8054 5.82655 76.6584 4.52115 74.8166 2.51314C74.8166 2.51311 74.8166 2.51306 74.8167 2.51306ZM86.2031 11.0895C88.326 16.0111 83.3047 22.4241 83.3762 27.4694C83.4502 32.6997 88.5797 38.9776 86.6783 43.7633C84.777 48.549 76.7379 49.5954 73.0949 53.3489C69.5806 56.9697 68.8324 65.0802 63.9107 67.2031C58.9891 69.326 52.5762 64.3047 47.5308 64.3762C42.3005 64.4502 36.0227 69.5797 31.237 67.6783C26.4513 65.777 25.4048 57.7379 21.6513 54.0949C18.0305 50.5806 9.92001 49.8324 7.79712 44.9107C5.67423 39.9891 10.6955 33.5762 10.624 28.5308C10.55 23.3005 5.4205 17.0227 7.32189 12.237C9.22327 7.45126 17.2623 6.4048 20.9053 2.65127C24.4196 -0.969483 25.1679 -9.08 30.0895 -11.2029C35.0111 -13.3258 41.4241 -8.30451 46.4694 -8.376C51.6997 -8.44998 57.9776 -13.5795 62.7633 -11.6781C67.549 -9.77674 68.5954 -1.73771 72.3489 1.90529C75.9697 5.41961 84.0802 6.16786 86.2031 11.0895Z" fill="url(#paint0_radial_177_35681)"/>
<path d="M60.4393 -11.3768C60.4394 -11.3769 60.4393 -11.377 60.4393 -11.377C55.7597 -12.9506 50.0456 -7.62066 45.0513 -7.25337C40.2335 -6.89913 33.8252 -11.4072 29.24 -9.06991C24.6545 -6.73266 24.3908 1.17627 21.2337 4.88697C17.9609 8.73347 10.3363 10.2026 8.78563 14.952C7.23495 19.7014 12.4867 25.5009 12.8486 30.5697C13.1976 35.4595 8.75585 41.9634 11.0587 46.617C13.3616 51.2709 21.1543 51.5386 24.8104 54.7428C28.6004 58.0645 30.0479 65.8028 34.7275 67.3766C39.407 68.9504 45.1213 63.6203 50.1156 63.253C54.9334 62.8988 61.3417 67.4068 65.9269 65.0696C70.5124 62.7323 70.7761 54.8234 73.933 51.1127C77.2058 47.2662 84.8304 45.797 86.381 41.0476C87.9317 36.2983 82.68 30.4988 82.3181 25.4299C81.9691 20.5402 86.4108 14.0363 84.1079 9.38264C81.805 4.72875 74.0124 4.46106 70.3563 1.25709C66.5664 -2.06453 65.1188 -9.80273 60.4393 -11.3767C60.4393 -11.3767 60.4393 -11.3768 60.4393 -11.3768ZM81.6182 8.05636C84.0851 12.3929 80.1795 18.8881 80.7841 23.5619C81.4107 28.407 86.7714 33.6759 85.5444 38.323C84.3175 42.97 77.0795 44.8126 74.1498 48.6907C71.3237 52.4317 71.5062 60.0385 67.2335 62.5423C62.9607 65.046 56.561 61.0823 51.9559 61.6957C47.1821 62.3316 41.9906 67.7723 37.4119 66.5271C32.8332 65.2819 31.0176 57.9358 27.1966 54.9624C23.5106 52.0941 16.0156 52.2794 13.5487 47.9429C11.0817 43.6063 14.9872 37.1112 14.3828 32.4373C13.7562 27.5922 8.39553 22.3233 9.62244 17.6763C10.8494 13.0292 18.0874 11.1866 21.0171 7.30849C23.8432 3.56756 23.6607 -4.03933 27.9334 -6.54305C32.2062 -9.04678 38.6059 -5.08282 43.211 -5.6965C47.9848 -6.33239 53.1763 -11.7731 57.755 -10.5279C62.3337 -9.28264 64.1493 -1.93656 67.9703 1.03682C71.6563 3.90508 79.1513 3.71984 81.6182 8.05636Z" fill="url(#paint1_radial_177_35681)"/>
<path d="M54.6873 -9.22772C50.1969 -10.155 45.4854 -4.6867 40.911 -3.8131C36.4982 -2.97041 30.099 -6.38185 26.1118 -3.75945C22.1245 -1.13705 22.7224 6.09003 20.2007 9.80814C17.5867 13.6626 10.6995 15.8229 9.77245 20.3132C8.8452 24.8035 14.3135 29.515 15.1871 34.0895C16.0298 38.5023 12.6183 44.9014 15.2407 48.8887C17.8631 52.876 25.0902 52.2781 28.8083 54.7998C32.6628 57.4138 34.8231 64.301 39.3134 65.228C43.8037 66.1553 48.5152 60.687 53.0896 59.8134C57.5025 58.9707 63.9016 62.3822 67.8889 59.7598C71.8761 57.1374 71.2783 49.9103 73.8 46.1922C76.414 42.3377 83.3012 40.1774 84.2282 35.6871C85.1555 31.1968 79.6872 26.4853 78.8136 21.9108C77.9709 17.498 81.3823 11.0989 78.7599 7.11162C76.1375 3.12437 68.9105 3.72223 65.1923 1.20053C61.3379 -1.41347 59.1776 -8.30069 54.6873 -9.22772ZM76.221 6.2462C78.952 9.91475 76.045 16.2268 77.0971 20.4019C78.1878 24.7297 83.6817 28.9326 83.045 33.28C82.4083 37.6275 75.9395 40.0781 73.6536 43.9112C71.4483 47.6089 72.4228 54.4897 68.7545 57.2208C65.0862 59.9519 58.7739 57.0448 54.5988 58.0969C50.2711 59.1876 46.0681 64.6815 41.7207 64.0448C37.3732 63.4081 34.9226 56.9394 31.0895 54.6534C27.3918 52.4481 20.511 53.4227 17.7799 49.7543C15.0489 46.0858 17.9559 39.7737 16.9038 35.5987C15.8131 31.2709 10.3192 27.0679 10.9559 22.7206C11.5926 18.373 18.0614 15.9225 20.3473 12.0893C22.5526 8.39168 21.578 1.51083 25.2464 -1.22024C28.9149 -3.9513 35.227 -1.04429 39.402 -2.09635C43.7298 -3.18704 47.9328 -8.68101 52.2801 -8.04428C56.6277 -7.40754 59.0783 -0.938814 62.9114 1.34715C66.609 3.55242 73.4899 2.57788 76.221 6.2462Z" fill="url(#paint2_radial_177_35681)"/>
</g>
<defs>
<radialGradient id="paint0_radial_177_35681" cx="0" cy="0" r="1" gradientUnits="userSpaceOnUse" gradientTransform="translate(24.7143 -1.16667) rotate(-122.134) scale(180.483 96.286)">
<stop stop-color="#FFB6D5"/>
<stop offset="0.1" stop-color="#FFE3C0"/>
<stop offset="0.29" stop-color="#C7FBDB"/>
<stop offset="0.43" stop-color="#C7CDF4"/>
<stop offset="0.54" stop-color="#FFBCD4"/>
<stop offset="0.66" stop-color="#FFE0C3"/>
<stop offset="0.76" stop-color="#B0F1D4"/>
<stop offset="0.84" stop-color="#C9CEEC"/>
<stop offset="0.91" stop-color="#FFC1DA"/>
<stop offset="1" stop-color="#BDFFE3"/>
</radialGradient>
<radialGradient id="paint1_radial_177_35681" cx="0" cy="0" r="1" gradientUnits="userSpaceOnUse" gradientTransform="translate(26.8452 0.45354) rotate(-121.753) scale(169.75 89.9718)">
<stop stop-color="#FFB6D5"/>
<stop offset="0.1" stop-color="#FFE3C0"/>
<stop offset="0.29" stop-color="#C7FBDB"/>
<stop offset="0.43" stop-color="#C7CDF4"/>
<stop offset="0.54" stop-color="#FFBCD4"/>
<stop offset="0.66" stop-color="#FFE0C3"/>
<stop offset="0.76" stop-color="#B0F1D4"/>
<stop offset="0.84" stop-color="#C9CEEC"/>
<stop offset="0.91" stop-color="#FFC1DA"/>
<stop offset="1" stop-color="#BDFFE3"/>
</radialGradient>
<radialGradient id="paint2_radial_177_35681" cx="0" cy="0" r="1" gradientUnits="userSpaceOnUse" gradientTransform="translate(27.1908 2.07423) rotate(-122.134) scale(160.429 85.5875)">
<stop stop-color="#FFB6D5"/>
<stop offset="0.1" stop-color="#FFE3C0"/>
<stop offset="0.29" stop-color="#C7FBDB"/>
<stop offset="0.43" stop-color="#C7CDF4"/>
<stop offset="0.54" stop-color="#FFBCD4"/>
<stop offset="0.66" stop-color="#FFE0C3"/>
<stop offset="0.76" stop-color="#B0F1D4"/>
<stop offset="0.84" stop-color="#C9CEEC"/>
<stop offset="0.91" stop-color="#FFC1DA"/>
<stop offset="1" stop-color="#BDFFE3"/>
</radialGradient>
</defs>
</svg>
