<svg width="22" height="15" viewBox="0 0 22 15" fill="none" xmlns="http://www.w3.org/2000/svg">
<path d="M21.9811 10.1999C21.8307 11.5327 21.165 12.7638 20.1145 13.6516C19.064 14.5395 17.7045 15.0202 16.3026 14.9994H12.5693C11.9453 14.9994 11.3468 14.7623 10.9055 14.3404C10.4643 13.9185 10.2164 13.3463 10.2164 12.7496V9.7499L8.334 11.0998L7.39282 9.89989L10.5301 7.65012C10.6658 7.55277 10.831 7.50014 11.0007 7.50014C11.1704 7.50014 11.3355 7.55277 11.4713 7.65012L14.6085 9.89989L13.6673 11.0998L11.785 9.7499V12.7496C11.785 12.9485 11.8676 13.1392 12.0147 13.2799C12.1618 13.4205 12.3613 13.4995 12.5693 13.4995H16.3026C17.3104 13.5227 18.2909 13.1847 19.0513 12.5519C19.8118 11.9192 20.2973 11.0374 20.4125 10.0799C20.492 9.20303 20.2465 8.32737 19.7188 7.6062C19.1911 6.88504 18.415 6.36434 17.5262 6.13528C17.3985 6.10358 17.2813 6.0416 17.1853 5.95509C17.0894 5.86857 17.0178 5.76032 16.9772 5.64034C16.5646 4.44005 15.7662 3.39496 14.6958 2.65406C13.6254 1.91315 12.3378 1.51427 11.0164 1.51427C9.69496 1.51427 8.40728 1.91315 7.33693 2.65406C6.26657 3.39496 5.46817 4.44005 5.05556 5.64034C5.01495 5.76032 4.94336 5.86857 4.84739 5.95509C4.75143 6.0416 4.6342 6.10358 4.50654 6.13528C3.61193 6.35844 2.82855 6.87663 2.2947 7.59838C1.76085 8.32013 1.51087 9.19901 1.58889 10.0799C1.70408 11.0374 2.1896 11.9192 2.95005 12.5519C3.7105 13.1847 4.69092 13.5227 5.6987 13.4995H8.64773V14.9994H5.6987C4.2968 15.0202 2.93732 14.5395 1.88684 13.6516C0.836364 12.7638 0.170656 11.5327 0.0202544 10.1999C-0.0840732 9.0416 0.216669 7.88299 0.875305 6.90579C1.53394 5.92859 2.5132 5.18808 3.65948 4.80042C4.22955 3.38731 5.23377 2.17235 6.53996 1.31548C7.84615 0.458617 9.39308 0 10.9771 0C12.5612 0 14.1081 0.458617 15.4143 1.31548C16.7205 2.17235 17.7247 3.38731 18.2948 4.80042C19.4499 5.18013 20.4395 5.91726 21.1072 6.8952C21.7748 7.87314 22.0824 9.03602 21.9811 10.1999Z" fill="url(#paint0_radial_204_13444)"/>
<defs>
<radialGradient id="paint0_radial_204_13444" cx="0" cy="0" r="1" gradientUnits="userSpaceOnUse" gradientTransform="translate(18.6389 3.52041) rotate(-23.1842) scale(43.5442 18.6648)">
<stop stop-color="#FFB6D5"/>
<stop offset="0.1" stop-color="#FFE3C0"/>
<stop offset="0.29" stop-color="#C7FBDB"/>
<stop offset="0.43" stop-color="#C7CDF4"/>
<stop offset="0.54" stop-color="#FFBCD4"/>
<stop offset="0.66" stop-color="#FFE0C3"/>
<stop offset="0.76" stop-color="#B0F1D4"/>
<stop offset="0.84" stop-color="#C9CEEC"/>
<stop offset="0.91" stop-color="#FFC1DA"/>
<stop offset="1" stop-color="#BDFFE3"/>
</radialGradient>
</defs>
</svg>
