<svg width="15" height="19" viewBox="0 0 15 19" fill="none" xmlns="http://www.w3.org/2000/svg">
<path d="M14.25 18.2083C14.25 18.6461 13.914 19 13.5 19C13.086 19 12.75 18.6461 12.75 18.2083C12.75 16.4619 11.4045 15.0417 9.75 15.0417H5.25C3.5955 15.0417 2.25 16.4619 2.25 18.2083C2.25 18.6461 1.914 19 1.5 19C1.086 19 0.75 18.6461 0.75 18.2083C0.75 15.5887 2.76825 13.4583 5.25 13.4583H9.75C12.2318 13.4583 14.25 15.5887 14.25 18.2083ZM15 5.9375V7.52083C15 8.17554 14.4952 8.70833 13.875 8.70833H13.5C13.5 10.4548 12.1545 11.875 10.5 11.875H4.5C2.8455 11.875 1.5 10.4548 1.5 8.70833H1.125C0.50475 8.70833 0 8.17554 0 7.52083V5.9375C0 5.28279 0.50475 4.75 1.125 4.75H1.5C1.5 3.00358 2.8455 1.58333 4.5 1.58333H6.75V0.791667C6.75 0.353875 7.086 0 7.5 0C7.914 0 8.25 0.353875 8.25 0.791667V1.58333H10.5C12.1545 1.58333 13.5 3.00358 13.5 4.75H13.875C14.4952 4.75 15 5.28279 15 5.9375ZM12 4.75C12 3.87679 11.3273 3.16667 10.5 3.16667H4.5C3.67275 3.16667 3 3.87679 3 4.75V8.70833C3 9.58154 3.67275 10.2917 4.5 10.2917H10.5C11.3273 10.2917 12 9.58154 12 8.70833V4.75ZM5.625 5.54167C5.004 5.54167 4.5 6.07367 4.5 6.72917C4.5 7.38467 5.004 7.91667 5.625 7.91667C6.246 7.91667 6.75 7.38467 6.75 6.72917C6.75 6.07367 6.246 5.54167 5.625 5.54167ZM9.375 5.54167C8.754 5.54167 8.25 6.07367 8.25 6.72917C8.25 7.38467 8.754 7.91667 9.375 7.91667C9.996 7.91667 10.5 7.38467 10.5 6.72917C10.5 6.07367 9.996 5.54167 9.375 5.54167Z" fill="white"/>
</svg>
