<svg width="43" height="43" viewBox="0 0 43 43" fill="none" xmlns="http://www.w3.org/2000/svg">
<path d="M16 23.2509C15.4477 23.2509 15 22.8032 15 22.2509V20.7491C15 20.1968 15.4477 19.7491 16 19.7491H27C27.5523 19.7491 28 20.1968 28 20.7491V22.2509C28 22.8032 27.5523 23.2509 27 23.2509H16ZM19.636 16C19.636 15.4477 20.0837 15 20.636 15H22.364C22.9163 15 23.364 15.4477 23.364 16V27C23.364 27.5523 22.9163 28 22.364 28H20.636C20.0837 28 19.636 27.5523 19.636 27V16Z" fill="url(#paint0_linear_3305_56)"/>
<rect x="0.5" y="0.5" width="42" height="42" rx="7.5" stroke="url(#paint1_linear_3305_56)"/>
<defs>
<linearGradient id="paint0_linear_3305_56" x1="15.8596" y1="29.3977" x2="30.3614" y2="23.9264" gradientUnits="userSpaceOnUse">
<stop stop-color="#FFB6D5"/>
<stop offset="0.1" stop-color="#FFE3C0"/>
<stop offset="0.29" stop-color="#C7FBDB"/>
<stop offset="0.43" stop-color="#C7CDF4"/>
<stop offset="0.54" stop-color="#FFBCD4"/>
<stop offset="0.66" stop-color="#FFE0C3"/>
<stop offset="0.76" stop-color="#B0F1D4"/>
<stop offset="0.84" stop-color="#C9CEEC"/>
<stop offset="0.91" stop-color="#FFC1DA"/>
<stop offset="1" stop-color="#BDFFE3"/>
</linearGradient>
<linearGradient id="paint1_linear_3305_56" x1="2.8432" y1="47.623" x2="50.8108" y2="29.5259" gradientUnits="userSpaceOnUse">
<stop stop-color="#FFB6D5"/>
<stop offset="0.1" stop-color="#FFE3C0"/>
<stop offset="0.29" stop-color="#C7FBDB"/>
<stop offset="0.43" stop-color="#C7CDF4"/>
<stop offset="0.54" stop-color="#FFBCD4"/>
<stop offset="0.66" stop-color="#FFE0C3"/>
<stop offset="0.76" stop-color="#B0F1D4"/>
<stop offset="0.84" stop-color="#C9CEEC"/>
<stop offset="0.91" stop-color="#FFC1DA"/>
<stop offset="1" stop-color="#BDFFE3"/>
</linearGradient>
</defs>
</svg>
