<svg width="29" height="24" viewBox="0 0 29 24" fill="none" xmlns="http://www.w3.org/2000/svg">
<path d="M1.5 1C1.5 0.723858 1.27614 0.5 1 0.5C0.723858 0.5 0.5 0.723858 0.5 1H1.5ZM28.8536 19.8536C29.0488 19.6583 29.0488 19.3417 28.8536 19.1464L25.6716 15.9645C25.4763 15.7692 25.1597 15.7692 24.9645 15.9645C24.7692 16.1597 24.7692 16.4763 24.9645 16.6716L27.7929 19.5L24.9645 22.3284C24.7692 22.5237 24.7692 22.8403 24.9645 23.0355C25.1597 23.2308 25.4763 23.2308 25.6716 23.0355L28.8536 19.8536ZM0.5 1V12.5H1.5V1H0.5ZM8 20H28.5V19H8V20ZM0.5 12.5C0.5 16.6421 3.85786 20 8 20V19C4.41015 19 1.5 16.0899 1.5 12.5H0.5Z" fill="white"/>
</svg>
