<svg width="20" height="23" viewBox="0 0 20 23" fill="none" xmlns="http://www.w3.org/2000/svg">
<path d="M10 1C6.45529 1 3.57143 3.94394 3.57143 7.5625V9.53125H2.60714C2.18106 9.53177 1.77257 9.70479 1.47128 10.0124C1.17 10.3199 1.00051 10.7369 1 11.1719L1 20.3594C1 21.2637 1.72129 22 2.60714 22H17.3929C18.2787 22 19 21.2637 19 20.3594V11.1719C19 10.2676 18.2787 9.53125 17.3929 9.53125H16.4286V7.5625C16.4286 3.94394 13.5447 1 10 1ZM4.21429 7.5625C4.21429 4.30619 6.81014 1.65625 10 1.65625C13.1899 1.65625 15.7857 4.30619 15.7857 7.5625V9.53125H13.8571V7.5625C13.8571 5.39097 12.1272 3.625 10 3.625C7.87279 3.625 6.14286 5.39097 6.14286 7.5625V9.53125H4.21429V7.5625ZM13.2143 9.53125H6.78571V7.5625C6.78571 5.75322 8.22764 4.28125 10 4.28125C11.7724 4.28125 13.2143 5.75322 13.2143 7.5625V9.53125ZM8.90264 14.7812L5.68836 18.0625H2.74021L5.9545 14.7812H8.90264ZM12.7598 14.7812L9.5455 18.0625H6.59736L9.81164 14.7812H12.7598ZM16.6169 14.7812L13.4026 18.0625H10.4545L13.6688 14.7812H16.6169ZM18.3571 14.7812V18.0625H14.3116L17.5259 14.7812H18.3571ZM1.83121 18.0625H1.64286V14.7812H5.0455L1.83121 18.0625ZM17.3929 21.3438H2.60714C2.0755 21.3438 1.64286 20.9021 1.64286 20.3594V18.7188H18.3571V20.3594C18.3571 20.9021 17.9245 21.3438 17.3929 21.3438ZM18.3571 11.1719V14.125H1.64286V11.1719C1.64286 10.6292 2.0755 10.1875 2.60714 10.1875H17.3929C17.9245 10.1875 18.3571 10.6292 18.3571 11.1719Z" fill="#222222" stroke="#222222" stroke-width="0.5"/>
</svg>
