<svg width="24" height="24" viewBox="0 0 24 24" fill="none" xmlns="http://www.w3.org/2000/svg">
<path d="M23.4732 0.948421C22.8179 0.0934777 21.6237 -0.210894 20.2823 0.147897L2.37092 4.93566C1.14517 5.26442 0.331137 5.96324 0.0793076 6.90375C-0.174773 7.85215 0.186269 8.87523 1.09601 9.78459L7.78318 16.4718L14.2189 22.9071C14.9335 23.6224 15.7242 24 16.5045 24C17.7149 24 18.6741 23.1132 19.0731 21.6273L23.8473 3.7298C24.1412 2.63354 24.0087 1.64574 23.4732 0.948421ZM22.3972 3.34174L17.6222 21.2396C17.5205 21.6176 17.2082 22.4988 16.5041 22.4988C16.1356 22.4988 15.7006 22.2672 15.2799 21.8458L9.37523 15.9411L13.8868 11.4292C13.9585 11.3599 14.0156 11.2771 14.055 11.1855C14.0943 11.094 14.115 10.9955 14.1159 10.8958C14.1167 10.7961 14.0978 10.6973 14.06 10.605C14.0223 10.5128 13.9665 10.429 13.8961 10.3585C13.8256 10.288 13.7418 10.2323 13.6495 10.1946C13.5573 10.1568 13.4584 10.1378 13.3588 10.1387C13.2591 10.1396 13.1606 10.1603 13.069 10.1996C12.9775 10.2389 12.8946 10.2961 12.8254 10.3678L8.31386 14.8797L2.15737 8.72361C1.65033 8.21657 1.4214 7.6949 1.52911 7.29257C1.63494 6.89775 2.08343 6.56711 2.75936 6.38621L20.6711 1.59845C20.8996 1.53449 21.1354 1.50043 21.3726 1.49712C21.6601 1.49712 22.0508 1.56017 22.2823 1.86229C22.527 2.18092 22.5676 2.70597 22.3972 3.34174Z" fill="url(#paint0_linear_1406_80827)"/>
<path d="M18.0921 14.8787C17.9957 14.8541 17.8935 14.8685 17.8077 14.9189C17.7218 14.9693 17.6594 15.0516 17.6339 15.1477L17.5952 15.2952C17.5753 15.3898 17.5926 15.4884 17.6434 15.5706C17.6943 15.6528 17.7748 15.7123 17.8683 15.7367C17.9619 15.761 18.0612 15.7485 18.1457 15.7016C18.2302 15.6547 18.2934 15.577 18.3222 15.4848L18.3609 15.3369C18.3859 15.2405 18.3716 15.1381 18.3213 15.0522C18.2709 14.9663 18.1885 14.9039 18.0921 14.8787Z" fill="url(#paint1_linear_1406_80827)"/>
<path d="M17.8093 15.9677C17.7616 15.9552 17.7119 15.9524 17.663 15.9592C17.6142 15.966 17.5672 15.9823 17.5246 16.0073C17.4821 16.0323 17.4449 16.0654 17.4152 16.1048C17.3855 16.1442 17.3638 16.189 17.3515 16.2368L16.5513 19.3176C16.539 19.3654 16.5361 19.415 16.5429 19.4638C16.5498 19.5126 16.5661 19.5596 16.5911 19.6021C16.6161 19.6446 16.6492 19.6817 16.6886 19.7114C16.7279 19.7411 16.7727 19.7628 16.8204 19.7751C16.8681 19.7875 16.9178 19.7904 16.9666 19.7835C17.0154 19.7767 17.0624 19.7603 17.1049 19.7353C17.1474 19.7104 17.1845 19.6772 17.2142 19.6379C17.2439 19.5986 17.2655 19.5538 17.2779 19.506L18.0784 16.4252C18.1033 16.3288 18.089 16.2265 18.0385 16.1408C17.9881 16.055 17.9056 15.9927 17.8093 15.9677Z" fill="url(#paint2_linear_1406_80827)"/>
<defs>
<linearGradient id="paint0_linear_1406_80827" x1="1.58692" y1="26.5803" x2="28.3597" y2="16.4794" gradientUnits="userSpaceOnUse">
<stop stop-color="#FFB6D5"/>
<stop offset="0.1" stop-color="#FFE3C0"/>
<stop offset="0.29" stop-color="#C7FBDB"/>
<stop offset="0.43" stop-color="#C7CDF4"/>
<stop offset="0.54" stop-color="#FFBCD4"/>
<stop offset="0.66" stop-color="#FFE0C3"/>
<stop offset="0.76" stop-color="#B0F1D4"/>
<stop offset="0.84" stop-color="#C9CEEC"/>
<stop offset="0.91" stop-color="#FFC1DA"/>
<stop offset="1" stop-color="#BDFFE3"/>
</linearGradient>
<linearGradient id="paint1_linear_1406_80827" x1="17.6391" y1="15.8436" x2="18.5387" y2="15.5412" gradientUnits="userSpaceOnUse">
<stop stop-color="#FFB6D5"/>
<stop offset="0.1" stop-color="#FFE3C0"/>
<stop offset="0.29" stop-color="#C7FBDB"/>
<stop offset="0.43" stop-color="#C7CDF4"/>
<stop offset="0.54" stop-color="#FFBCD4"/>
<stop offset="0.66" stop-color="#FFE0C3"/>
<stop offset="0.76" stop-color="#B0F1D4"/>
<stop offset="0.84" stop-color="#C9CEEC"/>
<stop offset="0.91" stop-color="#FFC1DA"/>
<stop offset="1" stop-color="#BDFFE3"/>
</linearGradient>
<linearGradient id="paint2_linear_1406_80827" x1="16.6419" y1="20.1991" x2="18.5733" y2="19.9041" gradientUnits="userSpaceOnUse">
<stop stop-color="#FFB6D5"/>
<stop offset="0.1" stop-color="#FFE3C0"/>
<stop offset="0.29" stop-color="#C7FBDB"/>
<stop offset="0.43" stop-color="#C7CDF4"/>
<stop offset="0.54" stop-color="#FFBCD4"/>
<stop offset="0.66" stop-color="#FFE0C3"/>
<stop offset="0.76" stop-color="#B0F1D4"/>
<stop offset="0.84" stop-color="#C9CEEC"/>
<stop offset="0.91" stop-color="#FFC1DA"/>
<stop offset="1" stop-color="#BDFFE3"/>
</linearGradient>
</defs>
</svg>
