<svg width="63" height="8" viewBox="0 0 63 8" fill="none" xmlns="http://www.w3.org/2000/svg">
<path d="M62 4.5C62.2761 4.5 62.5 4.27614 62.5 4C62.5 3.72386 62.2761 3.5 62 3.5V4.5ZM0.646446 3.64645C0.451183 3.84171 0.451183 4.15829 0.646446 4.35355L3.82843 7.53553C4.02369 7.7308 4.34027 7.7308 4.53553 7.53553C4.73079 7.34027 4.73079 7.02369 4.53553 6.82843L1.7071 4L4.53553 1.17157C4.73079 0.976311 4.73079 0.659728 4.53553 0.464466C4.34027 0.269204 4.02369 0.269204 3.82843 0.464466L0.646446 3.64645ZM62 3.5L1 3.5V4.5L62 4.5V3.5Z" fill="url(#paint0_radial_677_22588)"/>
<defs>
<radialGradient id="paint0_radial_677_22588" cx="0" cy="0" r="1" gradientUnits="userSpaceOnUse" gradientTransform="translate(10.3194 3.76531) rotate(179.41) scale(110.992 1.35356)">
<stop stop-color="#FFB6D5"/>
<stop offset="0.1" stop-color="#FFE3C0"/>
<stop offset="0.29" stop-color="#C7FBDB"/>
<stop offset="0.43" stop-color="#C7CDF4"/>
<stop offset="0.54" stop-color="#FFBCD4"/>
<stop offset="0.66" stop-color="#FFE0C3"/>
<stop offset="0.76" stop-color="#B0F1D4"/>
<stop offset="0.84" stop-color="#C9CEEC"/>
<stop offset="0.91" stop-color="#FFC1DA"/>
<stop offset="1" stop-color="#BDFFE3"/>
</radialGradient>
</defs>
</svg>
