<svg width="19" height="19" viewBox="0 0 19 19" fill="none" xmlns="http://www.w3.org/2000/svg">
<path d="M9.5 0C6.98128 0.00273303 4.5665 1.00775 2.78549 2.79453C1.00449 4.58132 0.00272419 7.00393 0 9.53083C0.475 22.1592 18.525 22.1536 19 9.53083C18.9973 7.00393 17.9955 4.58132 16.2145 2.79453C14.4335 1.00775 12.0187 0.00273303 9.5 0ZM9.5 1.58847C10.9506 1.58953 12.373 1.99001 13.6124 2.74627C14.8517 3.50254 15.8604 4.58557 16.5284 5.87734L10.948 6.99722C9.95511 7.19746 8.93247 7.19746 7.93963 6.99722L2.4605 5.89958C3.1264 4.60198 4.13549 3.51332 5.37718 2.75289C6.61887 1.99245 8.04524 1.5896 9.5 1.58847ZM1.63479 10.4347L4.72229 11.0542C5.06439 11.1226 5.38723 11.2659 5.66777 11.4739C5.9483 11.6819 6.17962 11.9494 6.34521 12.2574L6.83921 13.1732C7.02694 13.5215 7.12516 13.9114 7.125 14.3074V17.1078C5.66614 16.6447 4.37178 15.7685 3.39774 14.5846C2.4237 13.4006 1.81148 11.9595 1.63479 10.4347ZM8.70833 17.4335V14.3074C8.70884 13.6472 8.5456 12.9973 8.23333 12.4163L7.73617 11.5005C7.46028 10.9874 7.07482 10.5416 6.60733 10.1952C6.13984 9.84884 5.60186 9.61031 5.03183 9.49667L1.61658 8.81125C1.65878 8.33442 1.74464 7.86251 1.87308 7.40148L7.63008 8.5563C8.82751 8.79775 10.0609 8.79775 11.2583 8.5563L17.1214 7.38004C17.2528 7.84738 17.3405 8.32599 17.3834 8.80966L13.9682 9.49509C13.3982 9.60873 12.8604 9.84719 12.3929 10.1934C11.9254 10.5397 11.5399 10.9852 11.2638 11.4981L10.7667 12.4163C10.4544 12.9973 10.2912 13.6472 10.2917 14.3074V17.4335C9.76518 17.4859 9.23482 17.4859 8.70833 17.4335ZM11.875 17.1078V14.3074C11.8751 13.9113 11.9736 13.5215 12.1616 13.1732L12.6556 12.2566C12.8215 11.949 13.053 11.6817 13.3334 11.4739C13.6139 11.2661 13.9366 11.1228 14.2785 11.0542L17.366 10.4347C17.1892 11.9596 16.5769 13.4008 15.6027 14.5847C14.6285 15.7687 13.334 16.6448 11.875 17.1078Z" fill="white"/>
</svg>
