<svg width="37" height="37" viewBox="0 0 37 37" fill="none" xmlns="http://www.w3.org/2000/svg">
<path d="M34.884 27.4964H28.5408V25.9844H26.9568V27.5108V36.662H36.468V27.518V25.9916H34.884V27.4964ZM28.5408 35.1428V29.0228H33.3V29.0444H34.884V35.1428H28.5408Z" fill="black" fill-opacity="0.63"/>
<path d="M36.4683 10.6992H34.8843V12.2328H36.4683V10.6992Z" fill="black" fill-opacity="0.63"/>
<path d="M36.468 0H26.9568V9.17282H36.468V0ZM34.884 7.64641H28.5408V1.5264H34.884V7.64641Z" fill="black" fill-opacity="0.63"/>
<path d="M31.7089 15.2852V13.7588H34.8769V12.2324H30.1177V13.7588H26.9425V16.8188H25.3585V15.2852H23.7745V13.7588H22.1905V15.2852H20.6065V16.8188H22.1905V25.9917H23.7745V27.5181H22.1905V30.5781H19.0225V33.6381H17.4385V35.1645H15.8545V36.6909H19.0297V33.6381H20.6137V32.1045H22.1977V33.6381H23.7817V32.1045H25.3657V24.4652H33.2929V25.9917H34.8769V22.9316H33.2929V21.4052H34.8769V22.9316H36.4609V19.8788H34.8769V18.3452H33.2929V19.8788H31.7089V18.3452H30.1249V21.4052H28.5409V22.9316H23.7817V21.4052H26.9497V19.8788H25.3657V18.3452H28.5409V15.2852H30.1249V16.8188H34.8841V18.3452H36.4681V15.2852H31.7089ZM23.7817 18.3452V16.8188H25.3657V18.3452H23.7817Z" fill="black" fill-opacity="0.63"/>
<path d="M33.2928 3.06055H30.1248V6.11335H33.2928V3.06055Z" fill="black" fill-opacity="0.63"/>
<path d="M33.2928 30.5566H30.1248V33.6094H33.2928V30.5566Z" fill="black" fill-opacity="0.63"/>
<path d="M28.5408 10.6992H26.9568V12.2328H28.5408V10.6992Z" fill="black" fill-opacity="0.63"/>
<path d="M25.3658 9.17383H23.7818V10.7002H22.1978V12.2338H23.7818V13.7602H25.3658V9.17383Z" fill="black" fill-opacity="0.63"/>
<path d="M25.3657 6.11328H23.7817V7.64688H25.3657V6.11328Z" fill="black" fill-opacity="0.63"/>
<path d="M25.3657 1.52734H23.7817V3.06095H25.3657V1.52734Z" fill="black" fill-opacity="0.63"/>
<path d="M22.1978 12.2324H20.6138V13.7588H22.1978V12.2324Z" fill="black" fill-opacity="0.63"/>
<path d="M20.6135 25.9922H19.0295V29.0522H20.6135V25.9922Z" fill="black" fill-opacity="0.63"/>
<path d="M17.4385 3.06001V6.11281H19.0297V7.64641H17.4385V10.6992H15.8545V7.64641H14.2705V12.2328H12.6865V15.2856H14.2705V16.8192H11.0953V13.7592H9.51127V15.2856H7.92727V13.7592H6.34326V15.2856H7.92727V16.8192H11.0953V18.3456H12.6865V19.8792H14.2705V18.3456H15.8545V16.8192H17.4385V15.2856H14.2705V13.7592H17.4385V15.2856H19.0297V12.2328H17.4385V10.6992H19.0297V9.17282H22.1977V6.11281H20.6137V3.06001H22.1977V0H20.6137V1.5264H19.0297V3.06001H17.4385Z" fill="black" fill-opacity="0.63"/>
<path d="M19.0299 29.0522H17.4387V25.9922H12.6867V29.0522H11.0955V32.105H12.6867V29.0522H14.2707V27.5186H15.8547V30.5786H19.0299V29.0522Z" fill="black" fill-opacity="0.63"/>
<path d="M20.6065 22.9316H17.4385V24.4652H20.6065V22.9316Z" fill="black" fill-opacity="0.63"/>
<path d="M19.0297 0H15.8545V1.5264H19.0297V0Z" fill="black" fill-opacity="0.63"/>
<path d="M20.6137 18.3457H15.8545V19.8793H17.4385V21.4057H19.0297V19.8793H20.6137V18.3457Z" fill="black" fill-opacity="0.63"/>
<path d="M17.4385 6.11328H15.8545V7.64688H17.4385V6.11328Z" fill="black" fill-opacity="0.63"/>
<path d="M15.8547 30.5781H14.2707V35.1645H12.6867V33.6381H11.0955V36.6909H14.2707V35.1645H15.8547V30.5781Z" fill="black" fill-opacity="0.63"/>
<path d="M15.8547 24.4663V21.4062H11.0955V22.9327H14.2707V24.4663H15.8547Z" fill="black" fill-opacity="0.63"/>
<path d="M14.2705 6.11328H12.6865V7.64688H14.2705V6.11328Z" fill="black" fill-opacity="0.63"/>
<path d="M14.2705 4.58735H15.8545V1.52734H12.6865V3.06095H14.2705V4.58735Z" fill="black" fill-opacity="0.63"/>
<path d="M12.6795 24.4648H11.0955V25.9912H12.6795V24.4648Z" fill="black" fill-opacity="0.63"/>
<path d="M12.6795 7.64648H11.0955V10.6993H12.6795V7.64648Z" fill="black" fill-opacity="0.63"/>
<path d="M12.6795 0H11.0955V1.5264H12.6795V0Z" fill="black" fill-opacity="0.63"/>
<path d="M6.34368 18.3457H4.75248V19.8793H3.16848V21.4057H4.75248V22.9321H3.16848V21.4057H1.58447V24.4657H4.75248V25.9921H6.34368V24.4657H11.0957V22.9321H6.34368V18.3457Z" fill="black" fill-opacity="0.63"/>
<path d="M11.0955 10.6992H9.51147V12.2328H11.0955V10.6992Z" fill="black" fill-opacity="0.63"/>
<path d="M7.92749 21.4057H9.51149V19.8793H11.0955V18.3457H7.92749V21.4057Z" fill="black" fill-opacity="0.63"/>
<path d="M9.51149 12.2324H7.92749V13.7588H9.51149V12.2324Z" fill="black" fill-opacity="0.63"/>
<path d="M0 36.6904H9.51122V27.5176H0V36.6904ZM1.584 29.0512H7.92721V35.164H1.584V29.0512Z" fill="black" fill-opacity="0.63"/>
<path d="M7.91996 10.6992H4.75195V12.2328H7.91996V10.6992Z" fill="black" fill-opacity="0.63"/>
<path d="M6.33597 3.06055H3.16797V6.11335H6.33597V3.06055Z" fill="black" fill-opacity="0.63"/>
<path d="M6.33597 30.5781H3.16797V33.6381H6.33597V30.5781Z" fill="black" fill-opacity="0.63"/>
<path d="M3.16801 16.8192V15.2856H4.75201V12.2328H3.16801V10.6992H0V12.2328H1.584V18.3456H0V19.8792H3.16801V18.3456H4.75201V16.8192H3.16801Z" fill="black" fill-opacity="0.63"/>
<path d="M9.51122 0H0V9.17282H9.51122V0ZM7.92721 7.64641H1.584V1.5264H7.92721V7.64641Z" fill="black" fill-opacity="0.63"/>
<path d="M34.8841 27.4964H28.5408V25.9844H26.9568V27.5108V36.662H36.4679V27.518V25.9916H34.8841V27.4964ZM28.5408 35.1427V29.0228H33.2999V29.0444H34.8841V35.1427H28.5408Z" fill="black" fill-opacity="0.63"/>
<path d="M36.4679 10.6992H34.8838V12.2328H36.4679V10.6992Z" fill="black" fill-opacity="0.63"/>
<path d="M36.4679 0H26.9568V9.17282H36.4679V0ZM34.8841 7.6464H28.5408V1.5264H34.8841V7.6464Z" fill="black" fill-opacity="0.63"/>
<path d="M31.709 15.2852V13.7588H34.877V12.2324H30.1177V13.7588H26.9425V16.8188H25.3585V15.2852H23.7745V13.7588H22.1905V15.2852H20.6065V16.8188H22.1905V25.9916H23.7745V27.5181H22.1905V30.5781H19.0225V33.6382H17.4385V35.1645H15.8545V36.6909H19.0297V33.6382H20.6137V32.1045H22.1977V33.6382H23.7817V32.1045H25.3657V24.4653H33.2928V25.9916H34.877V22.9317H33.2928V21.4052H34.877V22.9317H36.4608V19.8789H34.877V18.3452H33.2928V19.8789H31.709V18.3452H30.1249V21.4052H28.5409V22.9317H23.7817V21.4052H26.9497V19.8789H25.3657V18.3452H28.5409V15.2852H30.1249V16.8188H34.884V18.3452H36.4682V15.2852H31.709ZM23.7817 18.3452V16.8188H25.3657V18.3452H23.7817Z" fill="black" fill-opacity="0.63"/>
<path d="M33.2928 3.06055H30.1248V6.11335H33.2928V3.06055Z" fill="black" fill-opacity="0.63"/>
<path d="M33.2928 30.5566H30.1248V33.6096H33.2928V30.5566Z" fill="black" fill-opacity="0.63"/>
<path d="M28.5408 10.6992H26.9568V12.2328H28.5408V10.6992Z" fill="black" fill-opacity="0.63"/>
<path d="M25.3658 9.17383H23.7818V10.7002H22.1978V12.2338H23.7818V13.7602H25.3658V9.17383Z" fill="black" fill-opacity="0.63"/>
<path d="M25.3658 6.11328H23.7817V7.64688H25.3658V6.11328Z" fill="black" fill-opacity="0.63"/>
<path d="M25.3658 1.52734H23.7817V3.06095H25.3658V1.52734Z" fill="black" fill-opacity="0.63"/>
<path d="M22.1978 12.2324H20.6138V13.7588H22.1978V12.2324Z" fill="black" fill-opacity="0.63"/>
<path d="M20.6136 25.9922H19.0295V29.0522H20.6136V25.9922Z" fill="black" fill-opacity="0.63"/>
<path d="M17.4385 3.05999V6.11283H19.0297V7.6464H17.4385V10.6992H15.8545V7.6464H14.2705V12.2328H12.6865V15.2856H14.2705V16.8192H11.0953V13.7592H9.51128V15.2856H7.92725V13.7592H6.34326V15.2856H7.92725V16.8192H11.0953V18.3456H12.6865V19.8792H14.2705V18.3456H15.8545V16.8192H17.4385V15.2856H14.2705V13.7592H17.4385V15.2856H19.0297V12.2328H17.4385V10.6992H19.0297V9.17282H22.1977V6.11283H20.6137V3.05999H22.1977V0H20.6137V1.5264H19.0297V3.05999H17.4385Z" fill="black" fill-opacity="0.63"/>
<path d="M19.0299 29.0522H17.4387V25.9922H12.6867V29.0522H11.0955V32.105H12.6867V29.0522H14.2707V27.5186H15.8547V30.5787H19.0299V29.0522Z" fill="black" fill-opacity="0.63"/>
<path d="M20.6065 22.9316H17.4385V24.4652H20.6065V22.9316Z" fill="black" fill-opacity="0.63"/>
<path d="M19.0297 0H15.8545V1.5264H19.0297V0Z" fill="black" fill-opacity="0.63"/>
<path d="M20.6137 18.3457H15.8545V19.8793H17.4385V21.4057H19.0297V19.8793H20.6137V18.3457Z" fill="black" fill-opacity="0.63"/>
<path d="M17.4385 6.11328H15.8545V7.64688H17.4385V6.11328Z" fill="black" fill-opacity="0.63"/>
<path d="M15.8547 30.5781H14.2707V35.1645H12.6867V33.6382H11.0955V36.6909H14.2707V35.1645H15.8547V30.5781Z" fill="black" fill-opacity="0.63"/>
<path d="M15.8547 24.4663V21.4062H11.0955V22.9327H14.2707V24.4663H15.8547Z" fill="black" fill-opacity="0.63"/>
<path d="M14.2705 6.11328H12.6865V7.64688H14.2705V6.11328Z" fill="black" fill-opacity="0.63"/>
<path d="M14.2705 4.58734H15.8545V1.52734H12.6865V3.06095H14.2705V4.58734Z" fill="black" fill-opacity="0.63"/>
<path d="M12.6795 24.4648H11.0955V25.9913H12.6795V24.4648Z" fill="black" fill-opacity="0.63"/>
<path d="M12.6795 7.64648H11.0955V10.6993H12.6795V7.64648Z" fill="black" fill-opacity="0.63"/>
<path d="M12.6795 0H11.0955V1.5264H12.6795V0Z" fill="black" fill-opacity="0.63"/>
<path d="M6.34369 18.3457H4.75248V19.8793H3.16848V21.4057H4.75248V22.9321H3.16848V21.4057H1.58447V24.4657H4.75248V25.9921H6.34369V24.4657H11.0957V22.9321H6.34369V18.3457Z" fill="black" fill-opacity="0.63"/>
<path d="M11.0955 10.6992H9.51147V12.2328H11.0955V10.6992Z" fill="black" fill-opacity="0.63"/>
<path d="M7.92749 21.4057H9.51151V19.8793H11.0955V18.3457H7.92749V21.4057Z" fill="black" fill-opacity="0.63"/>
<path d="M9.51151 12.2324H7.92749V13.7588H9.51151V12.2324Z" fill="black" fill-opacity="0.63"/>
<path d="M0 36.6904H9.51121V27.5176H0V36.6904ZM1.584 29.0512H7.92722V35.164H1.584V29.0512Z" fill="black" fill-opacity="0.63"/>
<path d="M7.91997 10.6992H4.75195V12.2328H7.91997V10.6992Z" fill="black" fill-opacity="0.63"/>
<path d="M6.33595 3.06055H3.16797V6.11335H6.33595V3.06055Z" fill="black" fill-opacity="0.63"/>
<path d="M6.33595 30.5781H3.16797V33.6382H6.33595V30.5781Z" fill="black" fill-opacity="0.63"/>
<path d="M3.16799 16.8192V15.2856H4.75202V12.2328H3.16799V10.6992H0V12.2328H1.584V18.3456H0V19.8792H3.16799V18.3456H4.75202V16.8192H3.16799Z" fill="black" fill-opacity="0.63"/>
<path d="M9.51121 0H0V9.17282H9.51121V0ZM7.92722 7.6464H1.584V1.5264H7.92722V7.6464Z" fill="black" fill-opacity="0.63"/>
</svg>
