<svg width="20" height="21" viewBox="0 0 20 21" fill="none" xmlns="http://www.w3.org/2000/svg">
<path d="M19.7674 10.0263C19.6324 11.3033 19.0351 12.4828 18.0925 13.3335C17.15 14.1841 15.9301 14.6446 14.6722 14.6247H11.3224C11.1358 14.6247 10.9568 14.7004 10.8248 14.8351C10.6928 14.9699 10.6187 15.1526 10.6187 15.3432V18.2172L12.3077 16.9239L13.1522 18.0735L10.3372 20.2289C10.2154 20.3222 10.0672 20.3726 9.91492 20.3726C9.76265 20.3726 9.61449 20.3222 9.49267 20.2289L6.67769 18.0735L7.52219 16.9239L9.21118 18.2172V15.3432C9.21118 14.7715 9.43361 14.2232 9.82954 13.819C10.2255 13.4148 10.7625 13.1877 11.3224 13.1877H14.6722C15.5765 13.2099 16.4562 12.8861 17.1385 12.2798C17.8209 11.6736 18.2565 10.8288 18.3599 9.91136C18.4313 9.07126 18.211 8.2323 17.7375 7.54136C17.264 6.85041 16.5676 6.35154 15.7701 6.13208C15.6555 6.1017 15.5504 6.04232 15.4642 5.95943C15.3781 5.87655 15.3139 5.77283 15.2775 5.65787C14.9072 4.50789 14.1909 3.50659 13.2305 2.79674C12.2701 2.08689 11.1147 1.70472 9.929 1.70472C8.74334 1.70472 7.58794 2.08689 6.62754 2.79674C5.66713 3.50659 4.95075 4.50789 4.58053 5.65787C4.54409 5.77283 4.47985 5.87655 4.39375 5.95943C4.30764 6.04232 4.20245 6.1017 4.08791 6.13208C3.2852 6.34588 2.58229 6.84236 2.10328 7.53386C1.62427 8.22536 1.39997 9.06742 1.46997 9.91136C1.57334 10.8288 2.00897 11.6736 2.69131 12.2798C3.37364 12.8861 4.25334 13.2099 5.1576 13.1877H7.80369V14.6247H5.1576C3.89971 14.6446 2.67989 14.1841 1.73732 13.3335C0.794754 12.4828 0.197433 11.3033 0.0624809 10.0263C-0.0297446 8.91393 0.243149 7.80184 0.838169 6.86524C1.43319 5.92864 2.31651 5.22077 3.34897 4.85316C3.86048 3.49926 4.76154 2.33522 5.93355 1.51426C7.10556 0.693304 8.49359 0.253906 9.91492 0.253906C11.3363 0.253906 12.7243 0.693304 13.8963 1.51426C15.0683 2.33522 15.9694 3.49926 16.4809 4.85316C17.5133 5.22077 18.3967 5.92864 18.9917 6.86524C19.5867 7.80184 19.8596 8.91393 19.7674 10.0263Z" fill="url(#paint0_radial_177_173029)"/>
<defs>
<radialGradient id="paint0_radial_177_173029" cx="0" cy="0" r="1" gradientUnits="userSpaceOnUse" gradientTransform="translate(16.7691 4.97565) rotate(-32.6268) scale(42.6453 22.936)">
<stop stop-color="#FFB6D5"/>
<stop offset="0.1" stop-color="#FFE3C0"/>
<stop offset="0.29" stop-color="#C7FBDB"/>
<stop offset="0.43" stop-color="#C7CDF4"/>
<stop offset="0.54" stop-color="#FFBCD4"/>
<stop offset="0.66" stop-color="#FFE0C3"/>
<stop offset="0.76" stop-color="#B0F1D4"/>
<stop offset="0.84" stop-color="#C9CEEC"/>
<stop offset="0.91" stop-color="#FFC1DA"/>
<stop offset="1" stop-color="#BDFFE3"/>
</radialGradient>
</defs>
</svg>
