<svg width="14" height="14" viewBox="0 0 14 14" fill="none" xmlns="http://www.w3.org/2000/svg">
<path d="M5.10561 6.19331C4.98008 6.06777 4.80981 5.99725 4.63228 5.99725C4.45475 5.99725 4.28449 6.06777 4.15895 6.19331C4.03342 6.31884 3.96289 6.4891 3.96289 6.66664C3.96289 6.84417 4.03342 7.01443 4.15895 7.13997L6.15894 9.13996C6.22123 9.20174 6.29511 9.25063 6.37633 9.2838C6.45756 9.31698 6.54453 9.3338 6.63227 9.33329C6.72353 9.33039 6.81323 9.30878 6.8958 9.26979C6.97837 9.2308 7.05205 9.17526 7.11227 9.10662L11.7789 3.77332C11.8867 3.63954 11.9386 3.46933 11.9239 3.29818C11.9093 3.12703 11.8291 2.96815 11.7001 2.85467C11.5712 2.74119 11.4034 2.68186 11.2318 2.68906C11.0601 2.69627 10.8979 2.76944 10.7789 2.89333L6.63227 7.6933L5.10561 6.19331Z" fill="url(#paint0_linear_186_844)"/>
<path d="M12.632 5.99996C12.4552 5.99996 12.2856 6.0702 12.1606 6.19522C12.0355 6.32025 11.9653 6.48982 11.9653 6.66663C11.9653 8.08111 11.4034 9.43765 10.4032 10.4378C9.40302 11.438 8.04648 11.9999 6.632 11.9999C5.57873 11.9994 4.54918 11.6871 3.67319 11.1023C2.79719 10.5175 2.11397 9.68638 1.70968 8.71379C1.30539 7.74121 1.19813 6.67069 1.40142 5.63723C1.60472 4.60376 2.10947 3.65363 2.85202 2.90665C3.34582 2.40624 3.93447 2.00935 4.58351 1.7392C5.23256 1.46905 5.92897 1.33107 6.632 1.33333C7.05829 1.33599 7.48303 1.38517 7.89866 1.47999C7.98563 1.50689 8.0772 1.5157 8.16771 1.50586C8.25822 1.49602 8.34575 1.46774 8.42492 1.42278C8.50408 1.37781 8.57319 1.31711 8.628 1.24441C8.6828 1.17171 8.72214 1.08855 8.74357 1.00007C8.76501 0.911587 8.7681 0.81965 8.75264 0.729929C8.73719 0.640207 8.70352 0.554602 8.65371 0.478391C8.6039 0.40218 8.53902 0.336979 8.46305 0.286806C8.38708 0.236633 8.30163 0.202553 8.21199 0.186666C7.69409 0.0648281 7.16403 0.00220494 6.632 0C5.3149 0.00684231 4.02934 0.403678 2.93755 1.14043C1.84576 1.87718 0.996678 2.92082 0.497447 4.13966C-0.00178499 5.3585 -0.12879 6.69791 0.132459 7.98886C0.393708 9.2798 1.0315 10.4644 1.96536 11.3933C3.20314 12.6316 4.88111 13.3292 6.632 13.3333C8.4001 13.3333 10.0958 12.6309 11.346 11.3806C12.5962 10.1304 13.2986 8.43472 13.2986 6.66663C13.2986 6.48982 13.2284 6.32025 13.1034 6.19522C12.9783 6.0702 12.8088 5.99996 12.632 5.99996Z" fill="url(#paint1_linear_186_844)"/>
<defs>
<linearGradient id="paint0_linear_186_844" x1="4.48944" y1="10.0477" x2="12.9149" y2="6.23815" gradientUnits="userSpaceOnUse">
<stop stop-color="#FFB6D5"/>
<stop offset="0.1" stop-color="#FFE3C0"/>
<stop offset="0.29" stop-color="#C7FBDB"/>
<stop offset="0.43" stop-color="#C7CDF4"/>
<stop offset="0.54" stop-color="#FFBCD4"/>
<stop offset="0.66" stop-color="#FFE0C3"/>
<stop offset="0.76" stop-color="#B0F1D4"/>
<stop offset="0.84" stop-color="#C9CEEC"/>
<stop offset="0.91" stop-color="#FFC1DA"/>
<stop offset="1" stop-color="#BDFFE3"/>
</linearGradient>
<linearGradient id="paint1_linear_186_844" x1="0.879317" y1="14.7667" x2="15.7239" y2="9.18077" gradientUnits="userSpaceOnUse">
<stop stop-color="#FFB6D5"/>
<stop offset="0.1" stop-color="#FFE3C0"/>
<stop offset="0.29" stop-color="#C7FBDB"/>
<stop offset="0.43" stop-color="#C7CDF4"/>
<stop offset="0.54" stop-color="#FFBCD4"/>
<stop offset="0.66" stop-color="#FFE0C3"/>
<stop offset="0.76" stop-color="#B0F1D4"/>
<stop offset="0.84" stop-color="#C9CEEC"/>
<stop offset="0.91" stop-color="#FFC1DA"/>
<stop offset="1" stop-color="#BDFFE3"/>
</linearGradient>
</defs>
</svg>
