<svg width="15" height="19" viewBox="0 0 15 19" fill="none" xmlns="http://www.w3.org/2000/svg">
<path d="M7.49998 9.38869e-09C5.52379 -9.88026e-05 3.62742 0.779772 2.22303 2.17011C0.818651 3.56045 0.0197619 5.44888 0 7.42498C0 12.5625 6.60935 18.2812 6.8906 18.5249C7.06041 18.6702 7.27652 18.75 7.49998 18.75C7.72343 18.75 7.93954 18.6702 8.10935 18.5249C8.43747 18.2812 15 12.5625 15 7.42498C14.9802 5.44888 14.1813 3.56045 12.7769 2.17011C11.3725 0.779772 9.47617 -9.88026e-05 7.49998 9.38869e-09ZM7.49998 16.5468C5.93436 15.0562 1.87499 10.9218 1.87499 7.42498C1.87499 5.93314 2.46762 4.5024 3.52251 3.44751C4.5774 2.39262 6.00814 1.79999 7.49998 1.79999C8.99181 1.79999 10.4226 2.39262 11.4774 3.44751C12.5323 4.5024 13.125 5.93314 13.125 7.42498C13.125 10.8937 9.0656 15.0562 7.49998 16.5468Z" fill="#222222"/>
<path d="M7.49999 3.75C6.85102 3.75 6.21663 3.94244 5.67703 4.30299C5.13743 4.66354 4.71687 5.176 4.46852 5.77556C4.22017 6.37513 4.15519 7.03488 4.2818 7.67138C4.40841 8.30788 4.72092 8.89254 5.1798 9.35143C5.63869 9.81032 6.22335 10.1228 6.85985 10.2494C7.49635 10.376 8.1561 10.3111 8.75567 10.0627C9.35523 9.81436 9.86769 9.3938 10.2282 8.8542C10.5888 8.3146 10.7812 7.68021 10.7812 7.03124C10.7812 6.161 10.4355 5.3264 9.82018 4.71105C9.20483 4.0957 8.37023 3.75 7.49999 3.75ZM7.49999 8.43748C7.22186 8.43748 6.94998 8.35501 6.71872 8.20049C6.48747 8.04597 6.30723 7.82634 6.20079 7.56939C6.09435 7.31243 6.06651 7.02968 6.12077 6.75689C6.17503 6.48411 6.30896 6.23354 6.50563 6.03687C6.70229 5.84021 6.95286 5.70627 7.22565 5.65201C7.49843 5.59775 7.78118 5.6256 8.03814 5.73204C8.2951 5.83847 8.51472 6.01872 8.66924 6.24997C8.82376 6.48123 8.90624 6.75311 8.90624 7.03124C8.90624 7.4042 8.75808 7.76188 8.49436 8.02561C8.23063 8.28933 7.87295 8.43748 7.49999 8.43748Z" fill="#222222"/>
</svg>
