<svg width="21" height="21" viewBox="0 0 21 21" fill="none" xmlns="http://www.w3.org/2000/svg">
<path d="M4.25386 2.49829L5.61011 2.11154L5.99686 0.755295C6.05916 0.537669 6.19063 0.346248 6.37139 0.209978C6.55215 0.073708 6.77236 0 6.99873 0C7.2251 0 7.44531 0.073708 7.62607 0.209978C7.80683 0.346248 7.9383 0.537669 8.0006 0.755295L8.38735 2.11154L9.7436 2.49829C9.96123 2.5606 10.1526 2.69207 10.2889 2.87283C10.4252 3.05358 10.4989 3.2738 10.4989 3.50017C10.4989 3.72654 10.4252 3.94675 10.2889 4.12751C10.1526 4.30826 9.96123 4.43974 9.7436 4.50204L8.38735 4.88879L8.0006 6.24504C7.9383 6.46266 7.80683 6.65409 7.62607 6.79036C7.44531 6.92663 7.2251 7.00033 6.99873 7.00033C6.77236 7.00033 6.55215 6.92663 6.37139 6.79036C6.19063 6.65409 6.05916 6.46266 5.99686 6.24504L5.61011 4.88879L4.25386 4.50204C4.03623 4.43974 3.84481 4.30826 3.70854 4.12751C3.57227 3.94675 3.49856 3.72654 3.49856 3.50017C3.49856 3.2738 3.57227 3.05358 3.70854 2.87283C3.84481 2.69207 4.03623 2.5606 4.25386 2.49829ZM20.2436 12.9983L18.8873 12.6115L18.5006 11.2553C18.4383 11.0377 18.3068 10.8462 18.1261 10.71C17.9453 10.5737 17.7251 10.5 17.4987 10.5C17.2723 10.5 17.0521 10.5737 16.8714 10.71C16.6906 10.8462 16.5591 11.0377 16.4968 11.2553L16.1101 12.6115L14.7538 12.9983C14.5362 13.0606 14.3448 13.1921 14.2085 13.3728C14.0723 13.5536 13.9986 13.7738 13.9986 14.0002C13.9986 14.2265 14.0723 14.4467 14.2085 14.6275C14.3448 14.8083 14.5362 14.9397 14.7538 15.002L16.1101 15.3888L16.4968 16.745C16.5591 16.9627 16.6906 17.1541 16.8714 17.2903C17.0521 17.4266 17.2723 17.5003 17.4987 17.5003C17.7251 17.5003 17.9453 17.4266 18.1261 17.2903C18.3068 17.1541 18.4383 16.9627 18.5006 16.745L18.8873 15.3888L20.2436 15.002C20.4612 14.9397 20.6526 14.8083 20.7889 14.6275C20.9252 14.4467 20.9989 14.2265 20.9989 14.0002C20.9989 13.7738 20.9252 13.5536 20.7889 13.3728C20.6526 13.1921 20.4612 13.0606 20.2436 12.9983ZM15.5343 3.93767L16.7208 4.27629L17.0612 5.46366C17.1166 5.65282 17.2318 5.81894 17.3896 5.93712C17.5473 6.05529 17.7391 6.11917 17.9362 6.11917C18.1333 6.11917 18.3251 6.05529 18.4829 5.93712C18.6406 5.81894 18.7558 5.65282 18.8112 5.46366L19.1498 4.27804L20.3381 3.93767C20.5272 3.88227 20.6934 3.76707 20.8115 3.60932C20.9297 3.45157 20.9936 3.25977 20.9936 3.06267C20.9936 2.86556 20.9297 2.67377 20.8115 2.51602C20.6934 2.35827 20.5272 2.24306 20.3381 2.18767L19.1516 1.84904L18.8112 0.660795C18.7558 0.471635 18.6406 0.305521 18.4829 0.187344C18.3251 0.0691679 18.1333 0.00529383 17.9362 0.00529383C17.7391 0.00529383 17.5473 0.0691679 17.3896 0.187344C17.2318 0.305521 17.1166 0.471635 17.0612 0.660795L16.7226 1.84729L15.5343 2.18767C15.3452 2.24306 15.1791 2.35827 15.0609 2.51602C14.9427 2.67377 14.8788 2.86556 14.8788 3.06267C14.8788 3.25977 14.9427 3.45157 15.0609 3.60932C15.1791 3.76707 15.3452 3.88227 15.5343 3.93767ZM15.0093 11.0672L5.84898 20.0061C5.20379 20.6448 4.33203 21.0021 3.4242 21C2.51637 20.9979 1.64629 20.6365 1.00411 19.9948C0.36111 19.3503 0 18.477 0 17.5667C0 16.6562 0.36111 15.783 1.00411 15.1385L10.2126 6.15404C10.6972 5.68075 11.311 5.36141 11.9767 5.23623C12.6423 5.11104 13.3302 5.18561 13.9536 5.45053C14.577 5.71546 15.1081 6.15891 15.48 6.72504C15.8519 7.29118 16.048 7.95469 16.0436 8.63204C16.0423 9.08681 15.9499 9.53671 15.772 9.95523C15.5941 10.3737 15.3342 10.7524 15.0076 11.0689L15.0093 11.0672ZM9.60185 12.6763L8.45648 11.5344L2.84861 17.0058C2.70136 17.1582 2.62008 17.3625 2.62237 17.5744C2.62466 17.7863 2.71035 17.9888 2.86086 18.138C3.01452 18.2855 3.21925 18.3679 3.43223 18.3679C3.64522 18.3679 3.84995 18.2855 4.00361 18.138L9.60185 12.6763ZM13.4203 8.61454C13.4213 8.45511 13.375 8.29896 13.2875 8.16573C13.1999 8.0325 13.0749 7.92814 12.9282 7.86577C12.7814 7.80339 12.6196 7.78579 12.4629 7.81517C12.3061 7.84456 12.1616 7.91962 12.0475 8.03091L10.3369 9.69953L11.4805 10.8432L13.1753 9.18766C13.2517 9.11327 13.3125 9.02446 13.3543 8.92637C13.396 8.82829 13.4179 8.72289 13.4186 8.61629L13.4203 8.61454Z" fill="url(#paint0_radial_83_251855)"/>
<defs>
<radialGradient id="paint0_radial_83_251855" cx="0" cy="0" r="1" gradientUnits="userSpaceOnUse" gradientTransform="translate(17.7907 4.92857) rotate(-32.1357) scale(45.119 24.0711)">
<stop stop-color="#FFB6D5"/>
<stop offset="0.1" stop-color="#FFE3C0"/>
<stop offset="0.29" stop-color="#C7FBDB"/>
<stop offset="0.43" stop-color="#C7CDF4"/>
<stop offset="0.54" stop-color="#FFBCD4"/>
<stop offset="0.66" stop-color="#FFE0C3"/>
<stop offset="0.76" stop-color="#B0F1D4"/>
<stop offset="0.84" stop-color="#C9CEEC"/>
<stop offset="0.91" stop-color="#FFC1DA"/>
<stop offset="1" stop-color="#BDFFE3"/>
</radialGradient>
</defs>
</svg>
