<svg width="18" height="19" viewBox="0 0 18 19" fill="none" xmlns="http://www.w3.org/2000/svg">
<path d="M13.8621 4.08263C13.6259 4.02958 13.4189 3.78892 13.3349 3.47146C12.7949 1.42738 11.0122 0 8.99998 0C6.98776 0 5.20504 1.42738 4.66505 3.47146C4.58105 3.78892 4.37406 4.02958 4.13781 4.08263C1.66585 4.64629 -0.0733677 6.99596 0.00238099 9.67021C0.0863796 12.6318 2.52534 15.0417 5.43829 15.0417H8.24999V18.2083C8.24999 18.6461 8.58598 19 8.99998 19C9.41397 19 9.74996 18.6461 9.74996 18.2083V15.0417H11.8379C15.3186 15.0417 17.9091 12.7823 17.9976 9.67021C18.0741 6.99596 16.3349 4.64629 13.8621 4.08263ZM16.4983 9.62192C16.4338 11.8813 14.5176 13.4583 11.8379 13.4583H9.74996V12.2028L12.5302 9.26804C12.8234 8.9585 12.8234 8.45817 12.5302 8.14863C12.2369 7.83908 11.7629 7.83908 11.4697 8.14863L9.74996 9.96392V7.125C9.74996 6.68721 9.41397 6.33333 8.99998 6.33333C8.58598 6.33333 8.24999 6.68721 8.24999 7.125V9.96392L6.53027 8.14863C6.23702 7.83908 5.76303 7.83908 5.46979 8.14863C5.17654 8.45817 5.17654 8.9585 5.46979 9.26804L8.24999 12.2028V13.4583H5.43829C3.32782 13.4583 1.5616 11.7373 1.50161 9.62192C1.44761 7.71163 2.68883 6.0325 4.45355 5.63033C5.23954 5.45142 5.87478 4.788 6.10953 3.89658C6.46952 2.53413 7.6575 1.58333 8.99923 1.58333C10.341 1.58333 11.5289 2.53413 11.8889 3.89658C12.1244 4.788 12.7589 5.45221 13.5449 5.63033C15.3104 6.0325 16.5523 7.71163 16.4983 9.62192Z" fill="white"/>
</svg>
