<svg width="8" height="10" viewBox="0 0 8 10" fill="none" xmlns="http://www.w3.org/2000/svg">
<path d="M3.99999 5.0073e-09C2.94602 -5.26947e-05 1.93462 0.415878 1.18562 1.15739C0.436614 1.89891 0.0105397 2.90607 0 3.95999C0 6.69998 3.52499 9.74997 3.67499 9.87997C3.76555 9.95743 3.88081 10 3.99999 10C4.11916 10 4.23442 9.95743 4.32499 9.87997C4.49999 9.74997 7.99997 6.69998 7.99997 3.95999C7.98943 2.90607 7.56336 1.89891 6.81436 1.15739C6.06535 0.415878 5.05396 -5.26947e-05 3.99999 5.0073e-09ZM3.99999 8.82497C3.16499 8.02997 0.999997 5.82498 0.999997 3.95999C0.999997 3.16434 1.31607 2.40128 1.87867 1.83867C2.44128 1.27607 3.20434 0.959997 3.99999 0.959997C4.79563 0.959997 5.55869 1.27607 6.1213 1.83867C6.68391 2.40128 6.99998 3.16434 6.99998 3.95999C6.99998 5.80998 4.83498 8.02997 3.99999 8.82497Z" fill="url(#paint0_radial_78_8402)"/>
<path d="M4 2C3.65388 2 3.31554 2.10264 3.02775 2.29493C2.73997 2.48722 2.51566 2.76053 2.38321 3.0803C2.25076 3.40007 2.2161 3.75194 2.28363 4.0914C2.35115 4.43087 2.51782 4.74269 2.76256 4.98743C3.0073 5.23217 3.31912 5.39884 3.65859 5.46636C3.99805 5.53389 4.34992 5.49923 4.66969 5.36678C4.98946 5.23433 5.26277 5.01002 5.45506 4.72224C5.64735 4.43445 5.74999 4.09611 5.74999 3.74999C5.74999 3.28587 5.56562 2.84075 5.23743 2.51256C4.90924 2.18437 4.46412 2 4 2ZM4 4.49999C3.85166 4.49999 3.70666 4.45601 3.58332 4.37359C3.45998 4.29118 3.36385 4.17405 3.30709 4.03701C3.25032 3.89996 3.23547 3.74916 3.26441 3.60368C3.29335 3.45819 3.36478 3.32455 3.46967 3.21967C3.57456 3.11478 3.70819 3.04335 3.85368 3.01441C3.99916 2.98547 4.14996 3.00032 4.28701 3.05709C4.42405 3.11385 4.54118 3.20998 4.6236 3.33332C4.70601 3.45665 4.74999 3.60166 4.74999 3.74999C4.74999 3.94891 4.67098 4.13967 4.53032 4.28032C4.38967 4.42097 4.19891 4.49999 4 4.49999Z" fill="url(#paint1_radial_78_8402)"/>
<defs>
<radialGradient id="paint0_radial_78_8402" cx="0" cy="0" r="1" gradientUnits="userSpaceOnUse" gradientTransform="translate(6.77776 2.34694) rotate(-38.138) scale(18.5061 10.6467)">
<stop stop-color="#FFB6D5"/>
<stop offset="0.1" stop-color="#FFE3C0"/>
<stop offset="0.29" stop-color="#C7FBDB"/>
<stop offset="0.43" stop-color="#C7CDF4"/>
<stop offset="0.54" stop-color="#FFBCD4"/>
<stop offset="0.66" stop-color="#FFE0C3"/>
<stop offset="0.76" stop-color="#B0F1D4"/>
<stop offset="0.84" stop-color="#C9CEEC"/>
<stop offset="0.91" stop-color="#FFC1DA"/>
<stop offset="1" stop-color="#BDFFE3"/>
</radialGradient>
<radialGradient id="paint1_radial_78_8402" cx="0" cy="0" r="1" gradientUnits="userSpaceOnUse" gradientTransform="translate(5.21527 2.82143) rotate(-32.1344) scale(7.52009 4.0119)">
<stop stop-color="#FFB6D5"/>
<stop offset="0.1" stop-color="#FFE3C0"/>
<stop offset="0.29" stop-color="#C7FBDB"/>
<stop offset="0.43" stop-color="#C7CDF4"/>
<stop offset="0.54" stop-color="#FFBCD4"/>
<stop offset="0.66" stop-color="#FFE0C3"/>
<stop offset="0.76" stop-color="#B0F1D4"/>
<stop offset="0.84" stop-color="#C9CEEC"/>
<stop offset="0.91" stop-color="#FFC1DA"/>
<stop offset="1" stop-color="#BDFFE3"/>
</radialGradient>
</defs>
</svg>
