<svg width="22" height="23" viewBox="0 0 22 23" fill="none" xmlns="http://www.w3.org/2000/svg">
<path d="M22 10.3313C21.8674 8.18638 21.1101 6.12718 19.8214 4.40752C18.5326 2.68785 16.7688 1.3829 14.7474 0.653549C12.726 -0.0758062 10.5353 -0.197684 8.44549 0.302941C6.35564 0.803566 4.45797 1.90481 2.98643 3.4709C1.51489 5.037 0.533813 6.99949 0.16414 9.11643C-0.205533 11.2334 0.0523623 13.4122 0.906032 15.3843C1.7597 17.3565 3.17183 19.0357 4.96832 20.215C6.76481 21.3943 8.86713 22.0221 11.0161 22.021H17.4169C18.632 22.0198 19.7971 21.5365 20.6563 20.6773C21.5155 19.818 21.9988 18.653 22 17.4378V10.3313ZM20.1668 17.4378C20.1668 18.1672 19.877 18.8666 19.3613 19.3823C18.8456 19.898 18.1462 20.1877 17.4169 20.1877H11.0161C9.72268 20.1871 8.44391 19.9139 7.26316 19.386C6.08242 18.858 5.02622 18.087 4.16342 17.1234C3.29646 16.1603 2.64543 15.023 2.254 13.7877C1.86257 12.5523 1.73978 11.2476 1.89386 9.96095C2.13717 7.93149 3.04898 6.04072 4.48556 4.58672C5.92214 3.13271 7.80178 2.19816 9.82816 1.93041C10.2234 1.88087 10.6214 1.85577 11.0198 1.85525C13.1559 1.84942 15.226 2.59579 16.8669 3.96348C17.8253 4.75998 18.6119 5.74279 19.1791 6.85234C19.7463 7.96189 20.0823 9.17507 20.1668 10.4183V17.4378Z" fill="#222222"/>
<path d="M7.33362 8.27172H11.0001C11.2432 8.27172 11.4764 8.17515 11.6483 8.00325C11.8202 7.83135 11.9167 7.5982 11.9167 7.3551C11.9167 7.112 11.8202 6.87885 11.6483 6.70695C11.4764 6.53505 11.2432 6.43848 11.0001 6.43848H7.33362C7.09051 6.43848 6.85737 6.53505 6.68547 6.70695C6.51356 6.87885 6.41699 7.112 6.41699 7.3551C6.41699 7.5982 6.51356 7.83135 6.68547 8.00325C6.85737 8.17515 7.09051 8.27172 7.33362 8.27172Z" fill="#222222"/>
<path d="M14.6666 10.105H7.33362C7.09051 10.105 6.85737 10.2016 6.68547 10.3735C6.51356 10.5454 6.41699 10.7785 6.41699 11.0216C6.41699 11.2647 6.51356 11.4979 6.68547 11.6698C6.85737 11.8417 7.09051 11.9382 7.33362 11.9382H14.6666C14.9097 11.9382 15.1429 11.8417 15.3148 11.6698C15.4867 11.4979 15.5832 11.2647 15.5832 11.0216C15.5832 10.7785 15.4867 10.5454 15.3148 10.3735C15.1429 10.2016 14.9097 10.105 14.6666 10.105Z" fill="#222222"/>
<path d="M14.6666 13.7715H7.33362C7.09051 13.7715 6.85737 13.8681 6.68547 14.04C6.51356 14.2119 6.41699 14.445 6.41699 14.6881C6.41699 14.9312 6.51356 15.1644 6.68547 15.3363C6.85737 15.5082 7.09051 15.6047 7.33362 15.6047H14.6666C14.9097 15.6047 15.1429 15.5082 15.3148 15.3363C15.4867 15.1644 15.5832 14.9312 15.5832 14.6881C15.5832 14.445 15.4867 14.2119 15.3148 14.04C15.1429 13.8681 14.9097 13.7715 14.6666 13.7715Z" fill="#222222"/>
</svg>