<svg width="15" height="16" viewBox="0 0 15 16" fill="none" xmlns="http://www.w3.org/2000/svg">
<path d="M11.5518 3.438C11.3549 3.39333 11.1824 3.19067 11.1124 2.92333C10.6624 1.202 9.17683 0 7.49998 0C5.82313 0 4.33753 1.202 3.88754 2.92333C3.81754 3.19067 3.64505 3.39333 3.44817 3.438C1.38821 3.91267 -0.0611398 5.89133 0.00198416 8.14333C0.071983 10.6373 2.10445 12.6667 4.53191 12.6667H6.87499V15.3333C6.87499 15.702 7.15499 16 7.49998 16C7.84497 16 8.12497 15.702 8.12497 15.3333V12.6667H9.86494C12.7655 12.6667 14.9242 10.764 14.998 8.14333C15.0617 5.89133 13.6124 3.91267 11.5518 3.438ZM13.7486 8.10267C13.6949 10.0053 12.098 11.3333 9.86494 11.3333H8.12497V10.276L10.4418 7.80467C10.6862 7.544 10.6862 7.12267 10.4418 6.862C10.1974 6.60133 9.80244 6.60133 9.55807 6.862L8.12497 8.39067V6C8.12497 5.63133 7.84497 5.33333 7.49998 5.33333C7.15499 5.33333 6.87499 5.63133 6.87499 6V8.39067L5.44189 6.862C5.19752 6.60133 4.80253 6.60133 4.55816 6.862C4.31379 7.12267 4.31379 7.544 4.55816 7.80467L6.87499 10.276V11.3333H4.53191C2.77319 11.3333 1.30134 9.884 1.25134 8.10267C1.20634 6.494 2.2407 5.08 3.7113 4.74133C4.36628 4.59067 4.89565 4.032 5.09127 3.28133C5.39127 2.134 6.38125 1.33333 7.49936 1.33333C8.61746 1.33333 9.60744 2.134 9.90744 3.28133C10.1037 4.032 10.6324 4.59133 11.2874 4.74133C12.7586 5.08 13.7936 6.494 13.7486 8.10267Z" fill="#222222"/>
</svg>
