<svg width="17" height="15" viewBox="0 0 17 15" fill="none" xmlns="http://www.w3.org/2000/svg">
<path d="M15.6237 2.8963L10.4006 0.503626C9.25083 -0.156736 7.81981 -0.168453 6.65853 0.472976L1.37665 2.8963C1.35682 2.90585 1.33627 2.91607 1.31715 2.92695C0.0636956 3.61611 -0.371453 5.15186 0.345251 6.35714C0.588192 6.76573 0.945548 7.10051 1.37665 7.32341L2.83366 7.9909V11.3282C2.83452 12.8206 3.84437 14.139 5.32622 14.5825C6.35745 14.8694 7.42673 15.0098 8.50019 14.9993C9.57349 15.0109 10.6428 14.8716 11.6742 14.5859C13.156 14.1424 14.1659 12.824 14.1667 11.3317V7.98952L15.5834 7.33839V12.956C15.5834 13.3322 15.9005 13.6371 16.2917 13.6371C16.6829 13.6371 17 13.3322 17 12.956V4.78292C17.0047 3.98314 16.348 3.2443 15.6237 2.8963ZM12.7501 11.3317C12.7504 12.2243 12.1481 13.0138 11.2626 13.2816C10.3646 13.5283 9.43404 13.6481 8.50016 13.6371C7.56628 13.6481 6.63572 13.5283 5.73773 13.2816C4.85219 13.0138 4.24991 12.2243 4.25027 11.3317V8.63999L6.59976 9.71612C7.17947 10.0471 7.84156 10.2211 8.51577 10.2194C9.1575 10.2238 9.78844 10.0604 10.3411 9.74677L12.7501 8.63995V11.3317ZM15.0167 6.09403L9.67456 8.54596C8.9297 8.96302 8.00644 8.9512 7.27337 8.51532L2.0467 6.12468C1.4641 5.8226 1.24649 5.12357 1.56065 4.56339C1.6669 4.37394 1.82621 4.2169 2.0205 4.11001L7.32932 1.67171C8.07441 1.25558 8.99717 1.26736 9.7305 1.70236L14.9536 4.09504C15.3377 4.30013 15.5781 4.68743 15.5833 5.10987C15.584 5.51004 15.3697 5.88217 15.0167 6.09403Z" fill="#222222"/>
</svg>
