<svg width="17" height="22" viewBox="0 0 17 22" fill="none" xmlns="http://www.w3.org/2000/svg">
<path d="M69.8172 2.51306C69.8172 2.51306 69.8172 2.51301 69.8172 2.51297C66.1509 -1.48501 65.5524 -9.87071 60.7125 -12.1277C59.4434 -12.7196 58.0388 -12.817 56.5596 -12.6429C55.9672 -12.5265 55.3744 -12.4091 54.7846 -12.3C54.1394 -12.1381 53.4914 -11.9679 52.8448 -11.8032C49.7191 -10.8665 46.4902 -9.56635 43.6445 -9.69163C38.4169 -9.92198 32.0805 -15.5072 26.8573 -13.6061C25.417 -13.0818 24.2777 -12.0671 23.3023 -10.798C22.9848 -10.3189 22.6684 -9.84073 22.3498 -9.37117C22.0148 -8.80516 21.6851 -8.23325 21.3542 -7.66746C19.8268 -4.8054 18.5216 -1.65828 16.5136 0.183196C12.5156 3.84957 4.1298 4.44804 1.87279 9.28797C1.2809 10.5571 1.18354 11.9617 1.35761 13.4409C1.47403 14.0333 1.59137 14.6261 1.70053 15.2159C1.86235 15.8611 2.03256 16.5091 2.19732 17.1556C3.13395 20.2814 4.43414 23.5102 4.30887 26.356C4.07851 31.5835 -1.50672 37.92 0.394435 43.1432C0.91869 44.5835 1.93338 45.7227 3.20249 46.6982C3.68158 47.0157 4.15976 47.332 4.62932 47.6507C5.19534 47.9857 5.76725 48.3154 6.33304 48.6463C9.1951 50.1735 12.3422 51.4789 14.1837 53.4869C17.8501 57.4849 18.4485 65.8707 23.2885 68.1277C24.5576 68.7196 25.9622 68.8169 27.4414 68.6429C28.0338 68.5264 28.6266 68.4091 29.2164 68.3C29.8616 68.1381 30.5096 67.9679 31.1561 67.8032C34.2819 66.8665 37.5107 65.5663 40.3565 65.6916C45.584 65.922 51.9205 71.5072 57.1437 69.606C58.5839 69.0818 59.7232 68.0671 60.6987 66.798C61.0162 66.3189 61.3325 65.8407 61.6512 65.3712C61.9862 64.8051 62.3159 64.2332 62.6468 63.6675C64.1739 60.8054 65.4794 57.6583 67.4874 55.8168C71.4854 52.1504 79.8712 51.552 82.1282 46.712C82.7201 45.4429 82.8174 44.0383 82.6434 42.5591C82.5269 41.9667 82.4096 41.3739 82.3004 40.7841C82.1386 40.1389 81.9684 39.4909 81.8036 38.8443C80.867 35.7186 79.5668 32.4897 79.6921 29.644C79.9225 24.4165 85.5077 18.08 83.6065 12.8568C83.0823 11.4165 82.0676 10.2772 80.7985 9.30182C80.3194 8.98431 79.8412 8.66794 79.3716 8.3493C78.8056 8.01432 78.2337 7.68457 77.6679 7.35368C74.8059 5.82655 71.6588 4.52115 69.8171 2.51314C69.8171 2.51311 69.8171 2.51306 69.8172 2.51306ZM81.2036 11.0895C83.3265 16.0111 78.3052 22.4241 78.3767 27.4694C78.4507 32.6997 83.5802 38.9776 81.6788 43.7633C79.7774 48.549 71.7384 49.5954 68.0954 53.3489C64.5811 56.9697 63.8328 65.0802 58.9112 67.2031C53.9896 69.326 47.5766 64.3047 42.5313 64.3762C37.301 64.4502 31.0231 69.5797 26.2375 67.6783C21.4518 65.777 20.4053 57.7379 16.6518 54.0949C13.031 50.5806 4.9205 49.8324 2.79761 44.9107C0.674718 39.9891 5.69599 33.5762 5.6245 28.5308C5.55051 23.3005 0.420987 17.0227 2.32237 12.237C4.22376 7.45126 12.2628 6.4048 15.9058 2.65127C19.4201 -0.969483 20.1684 -9.08 25.09 -11.2029C30.0116 -13.3258 36.4246 -8.30451 41.4699 -8.376C46.7002 -8.44998 52.9781 -13.5795 57.7637 -11.6781C62.5494 -9.77674 63.5959 -1.73771 67.3494 1.90529C70.9702 5.41961 79.0807 6.16786 81.2036 11.0895Z" fill="#222222"/>
<path d="M55.4398 -11.3763C55.4398 -11.3764 55.4398 -11.3765 55.4398 -11.3765C50.7602 -12.9502 45.0461 -7.62017 40.0518 -7.25289C35.234 -6.89864 28.8257 -11.4067 24.2405 -9.06942C19.655 -6.73217 19.3912 1.17676 16.2342 4.88746C12.9613 8.73396 5.33679 10.2031 3.78611 14.9525C2.23544 19.7019 7.48716 25.5014 7.84905 30.5702C8.19809 35.46 3.75633 41.9639 6.05922 46.6175C8.36211 51.2714 16.1548 51.5391 19.8109 54.7433C23.6008 58.065 25.0484 65.8033 29.728 67.3771C34.4075 68.9509 40.1218 63.6208 45.1161 63.2535C49.9339 62.8993 56.3422 67.4073 60.9274 65.0701C65.5129 62.7328 65.7766 54.8239 68.9335 51.1132C72.2063 47.2667 79.8309 45.7975 81.3815 41.0481C82.9322 36.2988 77.6805 30.4992 77.3186 25.4304C76.9696 20.5407 81.4113 14.0368 79.1084 9.38313C76.8055 4.72923 69.0129 4.46154 65.3567 1.25758C61.5668 -2.06404 60.1193 -9.80224 55.4398 -11.3762C55.4398 -11.3762 55.4397 -11.3763 55.4398 -11.3763ZM76.6187 8.05685C79.0856 12.3934 75.18 18.8885 75.7846 23.5624C76.4111 28.4075 81.7718 33.6764 80.5449 38.3234C79.318 42.9705 72.0799 44.8131 69.1503 48.6912C66.3242 52.4321 66.5067 60.039 62.234 62.5428C57.9612 65.0465 51.5615 61.0828 46.9564 61.6962C42.1826 62.3321 36.9911 67.7728 32.4124 66.5276C27.8337 65.2823 26.0181 57.9363 22.197 54.9629C18.5111 52.0946 11.0161 52.2799 8.54915 47.9433C6.08224 43.6068 9.98769 37.1117 9.38326 32.4378C8.75672 27.5927 3.39602 22.3238 4.62293 17.6768C5.84985 13.0297 13.0879 11.1871 16.0176 7.30898C18.8437 3.56805 18.6611 -4.03884 22.9339 -6.54257C27.2067 -9.0463 33.6063 -5.08233 38.2114 -5.69601C42.9853 -6.3319 48.1768 -11.7726 52.7555 -10.5274C57.3342 -9.28215 59.1498 -1.93607 62.9708 1.03731C66.6568 3.90557 74.1518 3.72033 76.6187 8.05685Z" fill="#222222"/>
<path d="M49.6875 -9.2282C45.1972 -10.1555 40.4857 -4.68719 35.9112 -3.81358C31.4984 -2.9709 25.0993 -6.38234 21.112 -3.75993C17.1248 -1.13754 17.7226 6.08954 15.2009 9.80765C12.5869 13.6621 5.69972 15.8224 4.7727 20.3127C3.84544 24.803 9.31371 29.5146 10.1873 34.089C11.03 38.5018 7.61856 44.901 10.241 48.8882C12.8634 52.8755 20.0904 52.2776 23.8085 54.7993C27.663 57.4133 29.8233 64.3005 34.3136 65.2275C38.8039 66.1548 43.5155 60.6865 48.0899 59.8129C52.5027 58.9702 58.9019 62.3817 62.8891 59.7593C66.8764 57.1369 66.2785 49.9098 68.8002 46.1917C71.4142 42.3372 78.3014 40.1769 79.2284 35.6866C80.1557 31.1963 74.6874 26.4848 73.8138 21.9103C72.9711 17.4975 76.3826 11.0984 73.7602 7.11113C71.1378 3.12388 63.9107 3.72174 60.1926 1.20004C56.3381 -1.41396 54.1778 -8.30118 49.6875 -9.2282ZM71.2212 6.24571C73.9523 9.91426 71.0452 16.2264 72.0973 20.4014C73.188 24.7292 78.682 28.9321 78.0452 33.2795C77.4085 37.627 70.9398 40.0776 68.6538 43.9107C66.4485 47.6084 67.4231 54.4892 63.7548 57.2203C60.0864 59.9514 53.7741 57.0443 49.5991 58.0964C45.2713 59.1871 41.0683 64.6811 36.721 64.0443C32.3734 63.4076 29.9229 56.9389 26.0897 54.6529C22.3921 52.4476 15.5112 53.4222 12.7802 49.7539C10.0491 46.0853 12.9561 39.7732 11.9041 35.5982C10.8134 31.2704 5.31941 27.0674 5.95614 22.7201C6.59288 18.3725 13.0616 15.922 15.3476 12.0888C17.5528 8.39119 16.5783 1.51034 20.2466 -1.22073C23.9152 -3.95179 30.2273 -1.04478 34.4023 -2.09683C38.7301 -3.18753 42.9331 -8.6815 47.2804 -8.04476C51.6279 -7.40803 54.0785 -0.939303 57.9116 1.34666C61.6093 3.55193 68.4901 2.57739 71.2212 6.24571Z" fill="#222222"/>
</svg>
