<svg width="17" height="17" viewBox="0 0 17 17" fill="none" xmlns="http://www.w3.org/2000/svg">
<path d="M16.7926 0.207392C16.6598 0.074599 16.4796 0 16.2918 0C16.104 0 15.9239 0.074599 15.791 0.207392L10.5968 5.40164L9.77509 4.57926C9.11084 3.91676 8.21121 3.54437 7.27305 3.54357C6.3349 3.54278 5.43463 3.91364 4.76926 4.57501L1.03773 8.24988C0.707808 8.57821 0.446232 8.96868 0.268116 9.39871C0.0899998 9.82875 -0.00112407 10.2898 1.04651e-05 10.7553V13.4583C0.00113521 14.3973 0.374638 15.2975 1.03859 15.9614C1.70254 16.6254 2.60274 16.9989 3.54171 17H6.24473C6.71101 17.001 7.17285 16.9094 7.60351 16.7307C8.03418 16.552 8.42511 16.2896 8.75367 15.9587L12.4207 12.2343C13.0839 11.5695 13.4563 10.6689 13.4563 9.72995C13.4563 8.79099 13.0839 7.89036 12.4207 7.22562L11.5984 6.40324L16.7926 1.20898C16.9254 1.07615 17 0.896014 17 0.708188C17 0.520362 16.9254 0.340225 16.7926 0.207392ZM1.41669 13.4583V11.2341C2.13581 11.7302 2.98174 12.0103 3.85479 12.0416C4.2672 12.0431 4.67855 11.9999 5.08164 11.9127C4.99807 12.3043 4.95675 12.7037 4.95838 13.1041C4.98909 13.9911 5.27163 14.851 5.77297 15.5833H3.54171C2.97812 15.5833 2.43761 15.3594 2.03909 14.9609C1.64057 14.5624 1.41669 14.0219 1.41669 13.4583ZM11.4149 11.2362L7.74782 14.9607C7.62359 15.0853 7.48441 15.194 7.33345 15.2844C6.77404 14.6886 6.43577 13.9191 6.37506 13.1041C6.3497 12.6905 6.40732 12.2761 6.54454 11.8851C6.68176 11.4941 6.8958 11.1345 7.17407 10.8275L9.00088 9.00072C9.12991 8.86712 9.2013 8.68819 9.19969 8.50247C9.19808 8.31674 9.12358 8.13908 8.99225 8.00775C8.86092 7.87642 8.68326 7.80193 8.49753 7.80031C8.31181 7.7987 8.13288 7.87009 7.99929 7.99912L6.17248 9.82593C5.53525 10.387 4.70242 10.6741 3.85479 10.6249C3.05103 10.5675 2.29307 10.2292 1.71348 9.66939C1.80342 9.51872 1.91168 9.37977 2.03578 9.25572L5.76731 5.58085C5.96464 5.38349 6.19892 5.22693 6.45676 5.12012C6.7146 5.0133 6.99096 4.95832 7.27005 4.95832C7.54914 4.95832 7.8255 5.0133 8.08334 5.12012C8.34118 5.22693 8.57546 5.38349 8.77279 5.58085L11.4191 8.22721C11.6168 8.42488 11.7734 8.6596 11.8802 8.91792C11.987 9.17624 12.0417 9.45309 12.0413 9.7326C12.0409 10.0121 11.9854 10.2888 11.8779 10.5468C11.7704 10.8048 11.6131 11.0391 11.4149 11.2362Z" fill="#222222"/>
</svg>
