<svg width="21" height="19" viewBox="0 0 21 19" fill="none" xmlns="http://www.w3.org/2000/svg">
<path d="M16.625 3.45455H14V2.59091C14 1.90376 13.7234 1.24475 13.2312 0.75886C12.7389 0.27297 12.0712 0 11.375 0H9.625C8.92881 0 8.26113 0.27297 7.76884 0.75886C7.27656 1.24475 7 1.90376 7 2.59091V3.45455H4.375C3.2151 3.45592 2.10311 3.91131 1.28294 4.72083C0.462772 5.53035 0.00138938 6.6279 0 7.77273L0 14.6818C0.00138938 15.8267 0.462772 16.9242 1.28294 17.7337C2.10311 18.5432 3.2151 18.9986 4.375 19H16.625C17.7849 18.9986 18.8969 18.5432 19.7171 17.7337C20.5372 16.9242 20.9986 15.8267 21 14.6818V7.77273C20.9986 6.6279 20.5372 5.53035 19.7171 4.72083C18.8969 3.91131 17.7849 3.45592 16.625 3.45455ZM8.75 2.59091C8.75 2.36186 8.84219 2.14219 9.00628 1.98023C9.17038 1.81826 9.39294 1.72727 9.625 1.72727H11.375C11.6071 1.72727 11.8296 1.81826 11.9937 1.98023C12.1578 2.14219 12.25 2.36186 12.25 2.59091V3.45455H8.75V2.59091ZM19.25 14.6818C19.25 15.369 18.9734 16.028 18.4812 16.5139C17.9889 16.9998 17.3212 17.2727 16.625 17.2727H4.375C3.67881 17.2727 3.01113 16.9998 2.51884 16.5139C2.02656 16.028 1.75 15.369 1.75 14.6818V7.77273C1.75 7.08558 2.02656 6.42657 2.51884 5.94068C3.01113 5.45479 3.67881 5.18182 4.375 5.18182H16.625C17.3212 5.18182 17.9889 5.45479 18.4812 5.94068C18.9734 6.42657 19.25 7.08558 19.25 7.77273V14.6818ZM14 11.2273C14 11.4563 13.9078 11.676 13.7437 11.838C13.5796 11.9999 13.3571 12.0909 13.125 12.0909H11.375V13.8182C11.375 14.0472 11.2828 14.2669 11.1187 14.4289C10.9546 14.5908 10.7321 14.6818 10.5 14.6818C10.2679 14.6818 10.0454 14.5908 9.88128 14.4289C9.71719 14.2669 9.625 14.0472 9.625 13.8182V12.0909H7.875C7.64294 12.0909 7.42038 11.9999 7.25628 11.838C7.09219 11.676 7 11.4563 7 11.2273C7 10.9982 7.09219 10.7786 7.25628 10.6166C7.42038 10.4546 7.64294 10.3636 7.875 10.3636H9.625V8.63636C9.625 8.40731 9.71719 8.18764 9.88128 8.02568C10.0454 7.86372 10.2679 7.77273 10.5 7.77273C10.7321 7.77273 10.9546 7.86372 11.1187 8.02568C11.2828 8.18764 11.375 8.40731 11.375 8.63636V10.3636H13.125C13.3571 10.3636 13.5796 10.4546 13.7437 10.6166C13.9078 10.7786 14 10.9982 14 11.2273Z" fill="white"/>
</svg>
