<svg width="21" height="19" viewBox="0 0 21 19" fill="none" xmlns="http://www.w3.org/2000/svg">
<path d="M19.2998 3.66865L12.8478 0.637926C11.4275 -0.198532 9.65977 -0.213374 8.22524 0.599103L1.70056 3.66865C1.67608 3.68074 1.65069 3.69368 1.62706 3.70747C0.0786828 4.58041 -0.458854 6.52569 0.426486 8.05237C0.72659 8.56992 1.16803 8.99397 1.70056 9.27633L3.50041 10.1218V14.3491C3.50147 16.2394 4.74893 17.9094 6.57945 18.4712C7.85332 18.8345 9.1742 19.0124 10.5002 18.9992C11.8261 19.0138 13.147 18.8374 14.421 18.4755C16.2516 17.9138 17.499 16.2437 17.5001 14.3534V10.1201L19.25 9.29529V16.411C19.25 16.8874 19.6418 17.2737 20.125 17.2737C20.6082 17.2737 21 16.8874 21 16.411V6.05836C21.0058 5.0453 20.1945 4.10945 19.2998 3.66865ZM15.7501 14.3534C15.7505 15.4841 15.0065 16.4842 13.9126 16.8234C12.8033 17.1359 11.6538 17.2876 10.5002 17.2737C9.34658 17.2876 8.19707 17.1359 7.08779 16.8234C5.99389 16.4842 5.24988 15.4841 5.25033 14.3534V10.944L8.15265 12.3071C8.86876 12.7264 9.68663 12.9467 10.5195 12.9446C11.3122 12.9502 12.0916 12.7432 12.7743 12.3459L15.7501 10.9439V14.3534ZM18.55 7.71911L11.9509 10.8249C11.0308 11.3532 9.89031 11.3382 8.98475 10.7861L2.52828 7.75793C1.8086 7.37529 1.53979 6.48986 1.92787 5.7803C2.05911 5.54033 2.2559 5.34141 2.49592 5.20601L9.05386 2.1175C9.97427 1.59041 11.1141 1.60533 12.02 2.15632L18.4721 5.18705C18.9466 5.44683 19.2435 5.93741 19.25 6.47251C19.2508 6.97938 18.9861 7.45075 18.55 7.71911Z" fill="white"/>
</svg>
