<svg width="18" height="18" viewBox="0 0 18 18" fill="none" xmlns="http://www.w3.org/2000/svg">
<path d="M17.984 8.74327C17.8609 9.88578 17.3163 10.941 16.4568 11.7021C15.5973 12.4632 14.485 12.8752 13.338 12.8574H10.2834C10.1132 12.8574 9.95001 12.9251 9.82967 13.0456C9.70932 13.1662 9.64171 13.3297 9.64171 13.5002V16.0715L11.1818 14.9144L11.9519 15.9429L9.38503 17.8714C9.27395 17.9549 9.13885 18 9 18C8.86115 18 8.72605 17.9549 8.61497 17.8714L6.04812 15.9429L6.81817 14.9144L8.35829 16.0715V13.5002C8.35829 12.9887 8.56111 12.4982 8.92215 12.1366C9.28318 11.7749 9.77285 11.5717 10.2834 11.5717H13.338C14.1625 11.5916 14.9647 11.3018 15.5869 10.7595C16.2091 10.2171 16.6063 9.46122 16.7006 8.64041C16.7657 7.88879 16.5648 7.13818 16.133 6.52C15.7013 5.90182 15.0662 5.45548 14.3391 5.25913C14.2346 5.23195 14.1387 5.17883 14.0602 5.10467C13.9817 5.03051 13.9231 4.93772 13.8899 4.83487C13.5523 3.80599 12.899 2.91014 12.0233 2.27504C11.1475 1.63995 10.094 1.29802 9.01283 1.29802C7.93168 1.29802 6.87813 1.63995 6.00238 2.27504C5.12664 2.91014 4.4734 3.80599 4.13581 4.83487C4.10259 4.93772 4.04401 5.03051 3.96549 5.10467C3.88698 5.17883 3.79106 5.23195 3.68661 5.25913C2.95466 5.45042 2.31371 5.89461 1.87692 6.51329C1.44014 7.13197 1.2356 7.88535 1.29944 8.64041C1.39369 9.46122 1.79093 10.2171 2.41312 10.7595C3.0353 11.3018 3.83746 11.5916 4.66202 11.5717H7.07486V12.8574H4.66202C3.515 12.8752 2.40271 12.4632 1.54322 11.7021C0.683738 10.941 0.139068 9.88578 0.0160113 8.74327C-0.068085 7.74803 0.180754 6.75305 0.723325 5.91508C1.2659 5.07712 2.07136 4.4438 3.01281 4.1149C3.47923 2.90358 4.30087 1.86213 5.36957 1.12763C6.43827 0.393124 7.70395 0 9 0C10.2961 0 11.5617 0.393124 12.6304 1.12763C13.6991 1.86213 14.5208 2.90358 14.9872 4.1149C15.9286 4.4438 16.7341 5.07712 17.2767 5.91508C17.8192 6.75305 18.0681 7.74803 17.984 8.74327Z" fill="#222222"/>
</svg>
