<svg width="19" height="19" viewBox="0 0 19 19" fill="none" xmlns="http://www.w3.org/2000/svg">
<path d="M18.7682 0.231791C18.6197 0.0833754 18.4184 0 18.2085 0C17.9986 0 17.7972 0.0833754 17.6488 0.231791L11.8434 6.03713L10.9251 5.118C10.1827 4.37756 9.17723 3.96136 8.12871 3.96046C7.08018 3.95957 6.074 4.37407 5.33035 5.11325L1.15981 9.22045C0.79108 9.58742 0.49873 10.0238 0.299659 10.5044C0.100588 10.9851 -0.00125632 11.5004 1.16963e-05 12.0206V15.0416C0.00126876 16.0911 0.418713 17.0972 1.16078 17.8392C1.90284 18.5813 2.90894 18.9987 3.95838 19H6.9794C7.50054 19.0011 8.01671 18.8988 8.49804 18.699C8.97937 18.4993 9.4163 18.206 9.78351 17.8362L13.882 13.6736C14.6232 12.9307 15.0394 11.9241 15.0394 10.8747C15.0394 9.82523 14.6232 8.81864 13.882 8.07569L12.9629 7.15656L18.7682 1.35122C18.9166 1.20276 19 1.00143 19 0.791504C19 0.581581 18.9166 0.380252 18.7682 0.231791ZM1.58336 15.0416V12.5558C2.38709 13.1102 3.33253 13.4233 4.3083 13.4583C4.76922 13.46 5.22897 13.4117 5.67947 13.3142C5.58608 13.7519 5.5399 14.1983 5.54172 14.6458C5.57604 15.6371 5.89182 16.5982 6.45215 17.4166H3.95838C3.32848 17.4166 2.72439 17.1664 2.27899 16.721C1.83358 16.2756 1.58336 15.6715 1.58336 15.0416ZM12.7578 12.5581L8.65933 16.7208C8.52049 16.86 8.36493 16.9815 8.1962 17.0826C7.57098 16.4167 7.19292 15.5566 7.12507 14.6458C7.09672 14.1836 7.16112 13.7203 7.31448 13.2833C7.46785 12.8464 7.70707 12.4445 8.01808 12.1013L10.0598 10.0596C10.204 9.91031 10.2838 9.71033 10.282 9.50276C10.2802 9.29519 10.1969 9.09662 10.0502 8.94984C9.90338 8.80306 9.70481 8.7198 9.49724 8.718C9.28967 8.71619 9.08969 8.79599 8.94038 8.9402L6.89865 10.9819C6.18645 11.609 5.25565 11.9299 4.3083 11.8749C3.40998 11.8107 2.56284 11.4327 1.91507 10.807C2.01559 10.6386 2.13658 10.4833 2.27528 10.3446L6.44581 6.23743C6.66636 6.01684 6.9282 5.84186 7.21638 5.72248C7.50455 5.6031 7.81342 5.54166 8.12535 5.54166C8.43727 5.54166 8.74615 5.6031 9.03432 5.72248C9.3225 5.84186 9.58434 6.01684 9.80488 6.23743L12.7626 9.19512C12.9834 9.41605 13.1586 9.67838 13.2779 9.96709C13.3972 10.2558 13.4584 10.5652 13.458 10.8776C13.4575 11.19 13.3954 11.4993 13.2753 11.7876C13.1552 12.076 12.9793 12.3378 12.7578 12.5581Z" fill="white"/>
</svg>
