<svg width="22" height="23" viewBox="0 0 22 23" fill="none" xmlns="http://www.w3.org/2000/svg">
<path d="M21.6134 6.86613L20.3987 4.2752C20.0851 3.60592 19.5092 3.087 18.8192 2.85229L13.1617 0.927891C11.8787 0.491484 10.4663 0.491484 9.18332 0.927891L3.52666 2.85229C2.83575 3.087 2.25985 3.60684 1.94629 4.27703L0.790876 6.75886C0.362314 7.48498 0.281453 8.35596 0.568958 9.15084C0.84658 9.92097 1.43507 10.5169 2.18797 10.7975L2.18348 16.5863C2.18168 18.5647 3.41616 20.314 5.25439 20.9393L9.17614 22.2733C9.81763 22.4915 10.4915 22.6006 11.1653 22.6006C11.8391 22.6006 12.513 22.4915 13.1545 22.2733L17.0798 20.9375C18.9154 20.3131 20.1498 18.5675 20.1516 16.5927L20.1561 10.7984C20.9162 10.5261 21.511 9.93106 21.7904 9.15726C22.0752 8.37063 21.9962 7.5079 21.6134 6.86613ZM9.75204 2.66801C10.6685 2.3563 11.6774 2.3563 12.593 2.66801L16.4096 3.96623L11.1788 5.75403L5.93721 3.96623L9.75204 2.66801ZM2.37125 7.62709L3.5635 5.0765C3.60663 5.09942 9.90388 7.25211 9.90388 7.25211L8.44749 10.2391C8.23276 10.604 7.78713 10.7727 7.39361 10.637L2.82857 9.08483C2.56173 8.99407 2.35239 8.78687 2.25446 8.51732C2.15652 8.24778 2.18438 7.95256 2.37036 7.62801L2.37125 7.62709ZM5.82221 19.2001C4.71891 18.8251 3.97859 17.7754 3.97948 16.589L3.98398 11.4108L6.82488 12.3771C8.0324 12.7879 9.33336 12.2974 10.0225 11.1202L10.2722 10.6095L10.2678 20.6771C10.0908 20.6404 9.91646 20.5937 9.74575 20.535L5.82311 19.201L5.82221 19.2001ZM16.5111 19.1992L12.5849 20.535C12.4142 20.5928 12.2399 20.6404 12.0629 20.6771L12.0674 10.5967L12.354 11.1834C12.8535 12.0342 13.7304 12.5211 14.6549 12.5211C14.9415 12.5211 15.2326 12.4743 15.5174 12.3771L18.3574 11.4117L18.3529 16.5927C18.3529 17.7772 17.6108 18.8251 16.5093 19.2001L16.5111 19.1992ZM20.1049 8.52374C20.0106 8.78503 19.8075 8.98582 19.5488 9.07383L14.9505 10.6379C14.557 10.7727 14.1113 10.6058 13.9298 10.3033L12.4429 7.2567C12.4429 7.2567 18.7375 5.10125 18.7806 5.07742L20.0321 7.73711C20.1732 7.9764 20.1993 8.26336 20.1049 8.52466V8.52374Z" fill="#222222"/>
</svg>
