<svg width="22" height="22" viewBox="0 0 22 22" fill="none" xmlns="http://www.w3.org/2000/svg">
<path d="M21.214 6.26554L19.9993 3.67461C19.6857 3.00533 19.1098 2.48641 18.4198 2.25171L12.7623 0.327305C11.4793 -0.109102 10.0669 -0.109102 8.78391 0.327305L3.12725 2.25171C2.43634 2.48641 1.86043 3.00625 1.54687 3.67645L0.391462 6.15828C-0.0370999 6.8844 -0.117961 7.75538 0.169544 8.55026C0.447166 9.32039 1.03565 9.91632 1.78856 10.1969L1.78406 15.9857C1.78227 17.9642 3.01674 19.7135 4.85498 20.3387L8.77672 21.6727C9.41822 21.8909 10.0921 22 10.7659 22C11.4397 22 12.1136 21.8909 12.7551 21.6727L16.6804 20.3369C18.5159 19.7125 19.7504 17.9669 19.7522 15.9921L19.7567 10.1978C20.5168 9.92549 21.1116 9.33047 21.391 8.55668C21.6758 7.77005 21.5967 6.90732 21.214 6.26554ZM9.35263 2.06743C10.2691 1.75571 11.278 1.75571 12.1935 2.06743L16.0102 3.36564L10.7794 5.15344L5.5378 3.36564L9.35263 2.06743ZM1.97184 7.0265L3.16409 4.47591C3.20721 4.49883 9.50447 6.65153 9.50447 6.65153L8.04808 9.63852C7.83335 10.0034 7.38771 10.1721 6.99419 10.0364L2.42915 8.48425C2.16231 8.39348 1.95297 8.18628 1.85504 7.91674C1.75711 7.64719 1.78496 7.35198 1.97094 7.02742L1.97184 7.0265ZM5.4228 18.5995C4.3195 18.2245 3.57917 17.1748 3.58007 15.9884L3.58456 10.8102L6.42547 11.7765C7.63299 12.1873 8.93395 11.6968 9.62306 10.5196L9.87283 10.0089L9.86834 20.0765C9.69135 20.0398 9.51705 19.9931 9.34634 19.9344L5.4237 18.6004L5.4228 18.5995ZM16.1117 18.5986L12.1854 19.9344C12.0147 19.9922 11.8404 20.0398 11.6634 20.0765L11.6679 9.99608L11.9545 10.5828C12.4541 11.4337 13.331 11.9205 14.2555 11.9205C14.5421 11.9205 14.8332 11.8737 15.118 11.7765L17.958 10.8111L17.9535 15.9921C17.9535 17.1766 17.2114 18.2245 16.1099 18.5995L16.1117 18.5986ZM19.7055 7.92315C19.6112 8.18445 19.4081 8.38523 19.1494 8.47325L14.5511 10.0373C14.1576 10.1721 13.7119 10.0053 13.5304 9.7027L12.0435 6.65611C12.0435 6.65611 18.3381 4.50067 18.3812 4.47683L19.6327 7.13652C19.7738 7.37581 19.7998 7.66278 19.7055 7.92407V7.92315Z" fill="url(#paint0_linear_1667_227270)"/>
<defs>
<linearGradient id="paint0_linear_1667_227270" x1="1.42568" y1="24.3653" x2="25.5971" y2="15.4276" gradientUnits="userSpaceOnUse">
<stop stop-color="#FFB6D5"/>
<stop offset="0.1" stop-color="#FFE3C0"/>
<stop offset="0.29" stop-color="#C7FBDB"/>
<stop offset="0.43" stop-color="#C7CDF4"/>
<stop offset="0.54" stop-color="#FFBCD4"/>
<stop offset="0.66" stop-color="#FFE0C3"/>
<stop offset="0.76" stop-color="#B0F1D4"/>
<stop offset="0.84" stop-color="#C9CEEC"/>
<stop offset="0.91" stop-color="#FFC1DA"/>
<stop offset="1" stop-color="#BDFFE3"/>
</linearGradient>
</defs>
</svg>
