<svg width="23" height="22" viewBox="0 0 23 22" fill="none" xmlns="http://www.w3.org/2000/svg">
<path d="M21.6477 6.26554L20.4081 3.67461C20.0882 3.00533 19.5005 2.48641 18.7964 2.25171L13.0232 0.327305C11.7139 -0.109102 10.2727 -0.109102 8.96348 0.327305L3.19118 2.25171C2.48615 2.48641 1.89846 3.00625 1.57849 3.67645L0.399465 6.15828C-0.0378583 6.8844 -0.120372 7.75538 0.17301 8.55026C0.456307 9.32039 1.05682 9.91632 1.82512 10.1969L1.82054 15.9857C1.8187 17.9642 3.07841 19.7135 4.95422 20.3387L8.95614 21.6727C9.61075 21.8909 10.2984 22 10.986 22C11.6736 22 12.3612 21.8909 13.0158 21.6727L17.0214 20.3369C18.8945 19.7125 20.1542 17.9669 20.156 15.9921L20.1606 10.1978C20.9362 9.92549 21.5432 9.33047 21.8283 8.55668C22.1189 7.77005 22.0382 6.90732 21.6477 6.26554ZM9.54382 2.06743C10.479 1.75571 11.5086 1.75571 12.4428 2.06743L16.3375 3.36564L10.9997 5.15344L5.65101 3.36564L9.54382 2.06743ZM2.01215 7.0265L3.22877 4.47591C3.27278 4.49883 9.69877 6.65153 9.69877 6.65153L8.2126 9.63852C7.99348 10.0034 7.53874 10.1721 7.13717 10.0364L2.47881 8.48425C2.20652 8.39348 1.9929 8.18628 1.89296 7.91674C1.79303 7.64719 1.82145 7.35198 2.01123 7.02742L2.01215 7.0265ZM5.53365 18.5995C4.4078 18.2245 3.65234 17.1748 3.65326 15.9884L3.65784 10.8102L6.55683 11.7765C7.78903 12.1873 9.11659 11.6968 9.81979 10.5196L10.0747 10.0089L10.0701 20.0765C9.88946 20.0398 9.7116 19.9931 9.53741 19.9344L5.53457 18.6004L5.53365 18.5995ZM16.4411 18.5986L12.4346 19.9344C12.2604 19.9922 12.0825 20.0398 11.9019 20.0765L11.9065 9.99608L12.1989 10.5828C12.7087 11.4337 13.6035 11.9205 14.5469 11.9205C14.8394 11.9205 15.1364 11.8737 15.4271 11.7765L18.3251 10.8111L18.3205 15.9921C18.3205 17.1766 17.5632 18.2245 16.4392 18.5995L16.4411 18.5986ZM20.1083 7.92315C20.0121 8.18445 19.8049 8.38523 19.5408 8.47325L14.8485 10.0373C14.447 10.1721 13.9922 10.0053 13.807 9.7027L12.2897 6.65611C12.2897 6.65611 18.7129 4.50067 18.7569 4.47683L20.0341 7.13652C20.178 7.37581 20.2046 7.66278 20.1083 7.92407V7.92315Z" fill="#222222"/>
</svg>
