<svg width="16" height="53" viewBox="0 0 16 53" fill="none" xmlns="http://www.w3.org/2000/svg">
<g filter="url(#filter0_d_235_18)">
<rect x="9" width="45" height="8" rx="4" transform="rotate(90 9 0)" fill="#222222"/>
</g>
<mask id="mask0_235_18" style="mask-type:alpha" maskUnits="userSpaceOnUse" x="1" y="0" width="8" height="45">
<rect x="9" width="45" height="8" rx="4" transform="rotate(90 9 0)" fill="#222222"/>
</mask>
<g mask="url(#mask0_235_18)">
<path d="M58.8459 62.8429C58.8459 62.8429 58.846 62.8429 58.846 62.8429C62.2729 59.7004 69.4606 59.1874 71.3952 55.0389C71.9025 53.9511 71.986 52.7471 71.8368 51.4792C71.737 50.9715 71.6364 50.4634 71.5428 49.9578C71.4041 49.4047 71.2582 48.8494 71.117 48.2952C70.3142 45.6159 69.1997 42.8484 69.3071 40.4092C69.5046 35.9284 74.2919 30.4972 72.6623 26.0201C72.213 24.7856 71.3432 23.8091 70.2554 22.973C69.8448 22.7008 69.4349 22.4297 69.0324 22.1566C68.5473 21.8694 68.0571 21.5868 67.5721 21.3032C65.1189 19.994 62.4214 18.8752 60.843 17.1541C57.7004 13.7272 57.1874 6.53941 53.0389 4.60483C51.9511 4.0975 50.7471 4.01405 49.4792 4.16325C48.9715 4.26304 48.4634 4.36361 47.9578 4.45718C47.4048 4.59588 46.8494 4.74178 46.2952 4.883C43.6159 5.68582 40.8484 6.80028 38.4092 6.6929C33.9284 6.49545 28.4972 1.7081 24.0201 3.33767C22.7856 3.78703 21.8091 4.65677 20.973 5.74457C20.7008 6.15522 20.4297 6.56509 20.1566 6.96757C19.8694 7.45273 19.5868 7.94294 19.3032 8.4279C17.9942 10.8811 16.8752 13.5786 15.1541 15.157C11.7272 18.2996 4.53942 18.8126 2.60483 22.9611C2.0975 24.0489 2.01405 25.2529 2.16325 26.5208C2.26304 27.0285 2.36361 27.5366 2.45718 28.0422C2.59588 28.5953 2.74178 29.1506 2.883 29.7048C3.68582 32.3841 4.80028 35.1516 4.6929 37.5908C4.49545 42.0716 -0.291896 47.5028 1.33767 51.9799C1.78703 53.2144 2.65677 54.1909 3.74457 55.027C4.15522 55.2992 4.56509 55.5703 4.96757 55.8434C5.45273 56.1306 5.94294 56.4132 6.4279 56.6968C8.8811 58.0058 11.5786 59.1248 13.157 60.8459C16.2996 64.2728 16.8126 71.4606 20.9611 73.3952C22.0489 73.9025 23.2529 73.986 24.5208 73.8368C25.0285 73.737 25.5366 73.6364 26.0422 73.5428C26.5953 73.4041 27.1506 73.2582 27.7048 73.117C30.3841 72.3142 33.1516 71.1997 35.5908 71.3071C40.0716 71.5045 45.5028 76.2919 49.9799 74.6623C51.2144 74.213 52.1909 73.3432 53.027 72.2554C53.2992 71.8448 53.5703 71.4349 53.8435 71.0324C54.1306 70.5473 54.4132 70.0571 54.6968 69.5721C56.0058 67.1189 57.1247 64.4214 58.8459 62.8428C58.8459 62.8428 58.8459 62.8428 58.8459 62.8429V62.8429ZM51.4947 72.6027C47.2762 74.4223 41.7794 70.1183 37.4548 70.1796C32.9717 70.243 27.5907 74.6398 23.4886 73.01C19.3866 71.3802 18.4896 64.4897 15.2723 61.3671C12.1688 58.3548 5.21696 57.7134 3.39734 53.4949C1.57772 49.2764 5.88166 43.7796 5.82039 39.455C5.75697 34.9719 1.36024 29.5908 2.99 25.4888C4.61976 21.3868 11.5103 20.4898 14.6329 17.2725C17.6452 14.169 18.2866 7.21715 22.5051 5.39753C26.7236 3.57791 32.2204 7.88186 36.545 7.82058C41.0281 7.75716 46.4092 3.36043 50.5112 4.99019C54.6132 6.61995 55.5102 13.5105 58.7275 16.6331C61.831 19.6454 68.7829 20.2867 70.6025 24.5053C72.4221 28.7238 68.1181 34.2206 68.1794 38.5452C68.2428 43.0283 72.6396 48.4093 71.0098 52.5114C69.3801 56.6134 62.4895 57.5104 59.3669 60.7277C56.3546 63.8312 55.7133 70.783 51.4947 72.6027Z" fill="url(#paint0_radial_235_18)"/>
<path d="M70.7514 50.5194C70.7515 50.5194 70.7515 50.5194 70.7516 50.5194C72.1004 46.5083 67.5318 41.6105 67.217 37.3297C66.9134 33.2001 70.7774 27.7073 68.7741 23.7771C66.7707 19.8467 59.9916 19.6207 56.811 16.9146C53.514 14.1093 52.2547 7.57398 48.1838 6.24482C44.1129 4.91567 39.1419 9.41715 34.7972 9.72734C30.606 10.0265 25.0313 6.2193 21.0424 8.1932C17.0533 10.1671 16.8239 16.8465 14.0775 19.9804C11.2303 23.2289 4.59746 24.4696 3.24848 28.4807C1.89949 32.4917 6.46814 37.3897 6.78296 41.6705C7.0866 45.8001 3.22257 51.2929 5.22593 55.2231C7.22929 59.1535 14.0084 59.3795 17.189 62.0854C20.486 64.8907 21.7453 71.426 25.8162 72.7552C29.8871 74.0843 34.8581 69.5828 39.2028 69.2727C43.394 68.9735 48.9687 72.7807 52.9576 70.8068C56.9466 68.8329 57.1761 62.1535 59.9223 59.0196C62.7695 55.7712 69.4022 54.5304 70.7513 50.5194C70.7513 50.5194 70.7514 50.5194 70.7514 50.5194V50.5194ZM54.0944 68.6728C50.3774 70.7873 44.8101 67.4395 40.804 67.9578C36.651 68.4949 32.1348 73.0897 28.1516 72.0381C24.1684 70.9865 22.589 64.7824 19.265 62.2713C16.0584 59.8489 9.53825 60.0053 7.3922 56.343C5.24615 52.6806 8.64363 47.1952 8.11782 43.2479C7.57277 39.1561 2.90932 34.7062 3.97665 30.7816C5.04398 26.857 11.3406 25.3008 13.8892 22.0256C16.3477 18.8662 16.189 12.4419 19.906 10.3274C23.623 8.21293 29.1903 11.5605 33.1964 11.0424C37.3494 10.5053 41.8656 5.91046 45.8488 6.9621C49.8319 8.01374 51.4114 14.2178 54.7354 16.7289C57.9419 19.1513 64.4621 18.9948 66.6082 22.6572C68.7542 26.3196 65.3566 31.805 65.8826 35.7522C66.4276 39.8441 71.0911 44.294 70.0237 48.2186C68.9564 52.1432 62.6598 53.6994 60.1112 56.9746C57.6526 60.1339 57.8114 66.5583 54.0944 68.6728Z" fill="url(#paint1_radial_235_18)"/>
<path d="M68.9096 45.5888C69.7044 41.74 65.0173 37.7015 64.2685 33.7806C63.5462 29.9982 66.4703 24.5132 64.2225 21.0955C61.9747 17.6779 55.7801 18.1903 52.5932 16.0289C49.2893 13.7883 47.4377 7.88499 43.5888 7.0904C39.74 6.29561 35.7015 10.9827 31.7806 11.7315C27.9982 12.4538 22.5132 9.52971 19.0955 11.7775C15.6779 14.0253 16.1903 20.2199 14.0289 23.4068C11.7883 26.7107 5.88499 28.5623 5.0904 32.4112C4.29561 36.26 8.9827 40.2985 9.7315 44.2194C10.4538 48.0018 7.52971 53.4868 9.77748 56.9045C12.0253 60.3221 18.2199 59.8097 21.4068 61.9711C24.7107 64.2117 26.5623 70.115 30.4112 70.9096C34.26 71.7044 38.2985 67.0173 42.2194 66.2685C46.0018 65.5462 51.4868 68.4703 54.9045 66.2225C58.3221 63.9747 57.8097 57.7801 59.9711 54.5932C62.2117 51.2893 68.115 49.4377 68.9096 45.5888ZM55.6462 64.0463C52.5018 66.3872 47.0914 63.8954 43.5128 64.7972C39.8033 65.7321 36.2007 70.4412 32.4744 69.8954C28.748 69.3496 26.6475 63.805 23.3619 61.8456C20.1925 59.9554 14.2947 60.7907 11.9537 57.6464C9.61284 54.5022 12.1046 49.0916 11.2028 45.513C10.2679 41.8035 5.55881 38.2009 6.10458 34.4746C6.65036 30.7482 12.195 28.6477 14.1544 25.3621C16.0446 22.1927 15.2093 16.2949 18.3536 13.9539C21.498 11.613 26.9084 14.1048 30.487 13.203C34.1965 12.2681 37.7991 7.55901 41.5254 8.10478C45.2518 8.65055 47.3523 14.1952 50.6379 16.1546C53.8073 18.0448 59.7051 17.2095 62.0461 20.3538C64.387 23.4982 61.8952 28.9086 62.797 32.4872C63.7319 36.1967 68.441 39.7993 67.8952 43.5256C67.3495 47.252 61.8048 49.3525 59.8454 52.6381C57.9552 55.8075 58.7905 61.7053 55.6462 64.0463Z" fill="url(#paint2_radial_235_18)"/>
</g>
<defs>
<filter id="filter0_d_235_18" x="0" y="0" width="16" height="53" filterUnits="userSpaceOnUse" color-interpolation-filters="sRGB">
<feFlood flood-opacity="0" result="BackgroundImageFix"/>
<feColorMatrix in="SourceAlpha" type="matrix" values="0 0 0 0 0 0 0 0 0 0 0 0 0 0 0 0 0 0 127 0" result="hardAlpha"/>
<feOffset dx="3" dy="4"/>
<feGaussianBlur stdDeviation="2"/>
<feComposite in2="hardAlpha" operator="out"/>
<feColorMatrix type="matrix" values="0 0 0 0 0.593372 0 0 0 0 0.523611 0 0 0 0 0.604167 0 0 0 0.13 0"/>
<feBlend mode="normal" in2="BackgroundImageFix" result="effect1_dropShadow_235_18"/>
<feBlend mode="normal" in="SourceGraphic" in2="effect1_dropShadow_235_18" result="shape"/>
</filter>
<radialGradient id="paint0_radial_235_18" cx="0" cy="0" r="1" gradientUnits="userSpaceOnUse" gradientTransform="translate(62 19.898) rotate(-32.1344) scale(154.7 82.5308)">
<stop stop-color="#FFB6D5"/>
<stop offset="0.1" stop-color="#FFE3C0"/>
<stop offset="0.29" stop-color="#C7FBDB"/>
<stop offset="0.43" stop-color="#C7CDF4"/>
<stop offset="0.54" stop-color="#FFBCD4"/>
<stop offset="0.66" stop-color="#FFE0C3"/>
<stop offset="0.76" stop-color="#B0F1D4"/>
<stop offset="0.84" stop-color="#C9CEEC"/>
<stop offset="0.91" stop-color="#FFC1DA"/>
<stop offset="1" stop-color="#BDFFE3"/>
</radialGradient>
<radialGradient id="paint1_radial_235_18" cx="0" cy="0" r="1" gradientUnits="userSpaceOnUse" gradientTransform="translate(60.6111 21.7245) rotate(-31.7533) scale(145.5 77.1187)">
<stop stop-color="#FFB6D5"/>
<stop offset="0.1" stop-color="#FFE3C0"/>
<stop offset="0.29" stop-color="#C7FBDB"/>
<stop offset="0.43" stop-color="#C7CDF4"/>
<stop offset="0.54" stop-color="#FFBCD4"/>
<stop offset="0.66" stop-color="#FFE0C3"/>
<stop offset="0.76" stop-color="#B0F1D4"/>
<stop offset="0.84" stop-color="#C9CEEC"/>
<stop offset="0.91" stop-color="#FFC1DA"/>
<stop offset="1" stop-color="#BDFFE3"/>
</radialGradient>
<radialGradient id="paint2_radial_235_18" cx="0" cy="0" r="1" gradientUnits="userSpaceOnUse" gradientTransform="translate(59.2222 22.0204) rotate(-32.1344) scale(137.511 73.3608)">
<stop stop-color="#FFB6D5"/>
<stop offset="0.1" stop-color="#FFE3C0"/>
<stop offset="0.29" stop-color="#C7FBDB"/>
<stop offset="0.43" stop-color="#C7CDF4"/>
<stop offset="0.54" stop-color="#FFBCD4"/>
<stop offset="0.66" stop-color="#FFE0C3"/>
<stop offset="0.76" stop-color="#B0F1D4"/>
<stop offset="0.84" stop-color="#C9CEEC"/>
<stop offset="0.91" stop-color="#FFC1DA"/>
<stop offset="1" stop-color="#BDFFE3"/>
</radialGradient>
</defs>
</svg>
