<svg width="15" height="17" viewBox="0 0 15 17" fill="none" xmlns="http://www.w3.org/2000/svg">
<path d="M14.7581 4.27149L13.9131 2.50514C13.695 2.04886 13.2943 1.69509 12.8143 1.53509L8.87843 0.223137C7.98589 -0.0743791 7.00333 -0.0743791 6.11078 0.223137L2.17556 1.53509C1.69491 1.69509 1.29426 2.04949 1.07613 2.50639L0.272332 4.19836C-0.0258096 4.69339 -0.0820627 5.28717 0.117948 5.82907C0.311084 6.3541 0.720482 6.76038 1.24426 6.95164L1.24114 10.8981C1.23989 12.2469 2.09868 13.4395 3.3775 13.8658L6.10578 14.7752C6.55206 14.924 7.02083 14.9983 7.48961 14.9983C7.95838 14.9983 8.42716 14.924 8.87344 14.7752L11.6042 13.8645C12.8812 13.4389 13.74 12.2488 13.7412 10.9025L13.7443 6.95226C14.2731 6.76663 14.6869 6.36098 14.8813 5.83345C15.0794 5.29717 15.0244 4.70901 14.7581 4.27149ZM6.50643 1.40945C7.14396 1.19694 7.84588 1.19694 8.48279 1.40945L11.1379 2.2945L7.49898 3.51332L3.85253 2.2945L6.50643 1.40945ZM1.37177 4.79027L2.20119 3.05142C2.23119 3.06705 6.61206 4.53463 6.61206 4.53463L5.59888 6.57099C5.44949 6.81975 5.13948 6.93476 4.86571 6.84226L1.68991 5.78407C1.50428 5.72219 1.35864 5.58093 1.29051 5.39717C1.22238 5.21341 1.24176 5.01215 1.37114 4.79089L1.37177 4.79027ZM3.77253 12.6801C3.00498 12.4244 2.48996 11.7088 2.49058 10.9L2.49371 7.36978L4.47007 8.02857C5.31011 8.30859 6.21516 7.97419 6.69456 7.17165L6.86832 6.8235L6.8652 13.687C6.74207 13.662 6.62081 13.6301 6.50205 13.5901L3.77315 12.6807L3.77253 12.6801ZM11.2086 12.6795L8.47716 13.5901C8.35841 13.6295 8.23715 13.662 8.11402 13.687L8.11714 6.81475L8.31653 7.21478C8.66405 7.79481 9.27408 8.1267 9.91724 8.1267C10.1166 8.1267 10.3191 8.09482 10.5173 8.02857L12.493 7.37041L12.4899 10.9025C12.4899 11.71 11.9736 12.4244 11.2073 12.6801L11.2086 12.6795ZM13.7087 5.40155C13.6431 5.57968 13.5018 5.71657 13.3218 5.77657L10.1229 6.84288C9.84911 6.93476 9.5391 6.821 9.41284 6.61474L8.37841 4.53775C8.37841 4.53775 12.7574 3.0683 12.7874 3.05204L13.6581 4.86527C13.7562 5.0284 13.7743 5.22404 13.7087 5.40218V5.40155Z" fill="#222222"/>
<circle cx="7.5" cy="12.5" r="4.5" fill="#222222"/>
<path d="M6.05211 12.7819C5.89604 12.7819 5.76953 12.6554 5.76953 12.4993V12.4993C5.76953 12.3433 5.89604 12.2167 6.05211 12.2167H8.91317C9.06923 12.2167 9.19575 12.3433 9.19575 12.4993V12.4993C9.19575 12.6554 9.06923 12.7819 8.91317 12.7819H6.05211ZM7.1824 11.0688C7.1824 10.903 7.31682 10.7686 7.48264 10.7686V10.7686C7.64846 10.7686 7.78288 10.903 7.78288 11.0688V13.9299C7.78288 14.0957 7.64846 14.2301 7.48264 14.2301V14.2301C7.31682 14.2301 7.1824 14.0957 7.1824 13.9299V11.0688Z" fill="url(#paint0_linear_188_22056)"/>
<defs>
<linearGradient id="paint0_linear_188_22056" x1="5.99608" y1="14.6023" x2="9.8278" y2="13.1714" gradientUnits="userSpaceOnUse">
<stop stop-color="#FFB6D5"/>
<stop offset="0.1" stop-color="#FFE3C0"/>
<stop offset="0.29" stop-color="#C7FBDB"/>
<stop offset="0.43" stop-color="#C7CDF4"/>
<stop offset="0.54" stop-color="#FFBCD4"/>
<stop offset="0.66" stop-color="#FFE0C3"/>
<stop offset="0.76" stop-color="#B0F1D4"/>
<stop offset="0.84" stop-color="#C9CEEC"/>
<stop offset="0.91" stop-color="#FFC1DA"/>
<stop offset="1" stop-color="#BDFFE3"/>
</linearGradient>
</defs>
</svg>
