<svg width="18" height="18" viewBox="0 0 18 18" fill="none" xmlns="http://www.w3.org/2000/svg">
<path d="M17.7211 4.73361L16.6217 2.90823C16.3937 2.52666 16.0825 2.00491 15.6243 1.86023L10.464 0.228266C9.50185 -0.0760885 8.48495 -0.0760885 7.52279 0.228266L2.36251 1.86098C1.92756 1.99892 1.55784 2.28978 1.30961 2.70358L0.282957 4.70512C-0.0267641 5.21862 -0.0852587 5.83558 0.122472 6.39781C0.329453 6.96004 0.774912 7.39183 1.34411 7.58074L1.50159 7.63322L1.49709 13.3335C1.49634 14.7885 2.42326 16.0764 3.80463 16.536L7.45079 17.7511C7.948 17.9168 8.46995 18 8.99265 18C9.51535 18 10.0373 17.9175 10.5345 17.7511L14.1837 16.5352C15.565 16.0749 16.495 14.79 16.4957 13.3372V7.62947L16.6742 7.57025C17.2359 7.38284 17.6746 6.95779 17.8793 6.40306C18.0841 5.84832 18.0263 5.24036 17.7211 4.73361ZM0.825907 6.13843C0.697669 5.7906 0.733665 5.40903 0.937647 5.06945L1.9643 3.06716C2.0138 2.9847 2.07379 2.90973 2.14204 2.84376L8.44745 4.95175L6.96709 7.67969C6.67687 8.16321 6.10017 8.37611 5.56622 8.1977L1.58184 6.87008C1.23012 6.75239 0.954145 6.48627 0.825907 6.13843ZM8.61244 17.2331C8.29897 17.2046 7.98774 17.1402 7.68777 17.0405L4.04161 15.8253C2.96696 15.467 2.24553 14.4662 2.24628 13.3342L2.25003 7.88285L5.32699 8.90836C6.19991 9.19922 7.13657 8.85213 7.61653 8.05077L8.61619 6.2089L8.61094 17.2324L8.61244 17.2331ZM3.16119 2.39398L7.74927 0.942673C8.56294 0.685547 9.42386 0.685547 10.2383 0.942673L14.8391 2.39848L9.00015 4.34604L3.16119 2.39398ZM15.7458 13.3372C15.745 14.4669 15.0221 15.4662 13.9467 15.8245L10.2975 17.0405C9.99456 17.1417 9.68034 17.2061 9.36312 17.2339L9.36837 6.20515L10.3778 8.06501C10.7377 8.66547 11.3699 9.00956 12.0366 9.00956C12.2429 9.00956 12.4528 8.97657 12.6591 8.90761L15.7465 7.8791V13.3365L15.7458 13.3372ZM17.1759 6.14368C17.0507 6.48402 16.7814 6.74489 16.4372 6.85959L12.4213 8.1977C11.8859 8.37386 11.3107 8.16321 11.0287 7.69394L9.54235 4.95475L15.7225 2.89324C15.8238 3.03417 15.9168 3.1901 15.9783 3.2928L17.0792 5.12042C17.2666 5.43152 17.3019 5.80334 17.1759 6.14368Z" fill="white"/>
</svg>
