<svg width="17" height="18" viewBox="0 0 17 18" fill="none" xmlns="http://www.w3.org/2000/svg">
<path d="M8.24891 17.9993C7.23045 17.9993 6.26749 17.6085 5.54077 16.899L2.4269 14.0357C0.857964 12.4735 0 10.4103 0 8.21516C0 6.02 0.858714 3.95684 2.41715 2.40515C3.97483 0.854214 6.0455 0 8.24891 0C10.4523 0 12.523 0.854214 14.0814 2.4059C15.6398 3.95759 16.4986 6.0215 16.4986 8.21591C16.4986 10.4103 15.6398 12.4742 14.0814 14.0259L10.9495 16.9073C10.2296 17.6093 9.26736 18 8.24816 18L8.24891 17.9993ZM8.24891 0.749969C6.24574 0.749969 4.36182 1.52694 2.94513 2.93763C1.52919 4.34757 0.749219 6.22174 0.749219 8.21591C0.749219 10.2101 1.52919 12.0842 2.94513 13.4942L6.056 16.3546C7.24545 17.514 9.25911 17.5065 10.4343 16.3621L13.5632 13.4837C14.9686 12.0842 15.7486 10.2093 15.7486 8.21591C15.7486 6.22249 14.9686 4.34757 13.5527 2.93763C12.1352 1.52694 10.2521 0.749969 8.24891 0.749969ZM7.91817 10.1718L12.6377 5.51677C12.7847 5.37128 12.7862 5.13429 12.6415 4.98654C12.4945 4.8388 12.2575 4.8373 12.1105 4.98279L7.38944 9.63935C7.2447 9.78559 7.00471 9.78559 6.85546 9.6356L4.38582 7.23045C4.23957 7.0872 4.00108 7.08945 3.85559 7.23795C3.7116 7.38644 3.7146 7.62343 3.86309 7.76818L6.32899 10.1696C6.54873 10.3893 6.83671 10.4988 7.12545 10.4988C7.41269 10.4988 7.70068 10.3893 7.91892 10.1711L7.91817 10.1718Z" fill="white"/>
</svg>
