<svg width="20" height="20" viewBox="0 0 20 20" fill="none" xmlns="http://www.w3.org/2000/svg">
<path d="M4.05396 10.1173C3.88955 10.1333 3.7672 10.2835 3.78319 10.4479C3.79918 10.6123 3.94942 10.7346 4.11383 10.7186C4.11383 10.7186 4.11784 10.7183 4.12186 10.718L5.59214 10.6111C5.75684 10.5992 5.8881 10.4604 5.87583 10.2917C5.86386 10.1271 5.72509 9.99585 5.55637 10.0081C5.55637 10.0081 5.54834 10.0087 5.54432 10.009L4.07405 10.1159C4.07405 10.1159 4.05798 10.1171 4.04994 10.1176L4.05396 10.1173Z" fill="white"/>
<path d="M6.79727 7.07956C6.69772 7.09891 6.6097 7.16587 6.57223 7.26146L5.29517 10.1926C5.22964 10.3468 5.29931 10.5275 5.4535 10.593C5.60768 10.6585 5.78838 10.5888 5.8539 10.4347L6.81563 8.22083L8.44097 13.0244C8.49282 13.1821 8.66453 13.2665 8.8223 13.2147C8.89716 13.189 8.96166 13.1318 8.99687 13.0606C10.5291 9.75157 10.2031 10.4334 11.292 8.0246L12.8411 12.6681C12.889 12.8261 13.061 12.9146 13.219 12.8667C13.3059 12.8402 13.3779 12.7744 13.4122 12.6912L14.6276 9.96638L15.909 9.87321C16.0737 9.86124 16.205 9.7225 16.1927 9.55382C16.1808 9.38915 16.042 9.25793 15.8733 9.27019C15.8733 9.27019 15.8652 9.27078 15.8612 9.27107L14.3909 9.37796C14.2744 9.38643 14.1704 9.45456 14.1257 9.56278L13.1726 11.7275L11.6243 7.09605C11.5725 6.93832 11.4008 6.8539 11.243 6.90574C11.1681 6.93137 11.1036 6.98855 11.0684 7.05975C9.4149 10.7006 9.78896 9.90228 8.76326 12.1248L7.12411 7.29805C7.07773 7.16011 6.93816 7.07336 6.79442 7.09592L6.79727 7.07956Z" fill="white"/>
<path d="M9.34941 1.02354C4.39226 1.38393 0.663368 5.69653 1.02367 10.6526C1.38398 15.6086 5.69742 19.3365 10.6546 18.9762C15.6117 18.6158 19.3406 14.3032 18.9803 9.34713C18.62 4.39108 14.3026 0.663449 9.34941 1.02354ZM9.39233 1.61393C14.0201 1.27749 18.0333 4.7648 18.3697 9.39152C18.7061 14.0182 15.2382 18.0333 10.6105 18.3697C5.98273 18.7061 1.95085 15.2404 1.61419 10.6096C1.27754 5.97892 4.76057 1.95066 9.39233 1.61393Z" fill="white"/>
</svg>
