<svg width="20" height="18" viewBox="0 0 20 18" fill="none" xmlns="http://www.w3.org/2000/svg">
<path d="M9.66091 17.9958C7.2496 17.9958 4.83829 17.9988 2.42698 17.9935C1.90032 17.992 1.44741 17.7649 1.03139 17.4516C0.479643 17.0356 0.176478 16.4615 0.0156746 15.7975C-0.00129085 15.727 0.00165967 15.6498 0.00165967 15.5756C0.000184407 11.1992 -0.00202848 6.82206 0.00387255 2.44491C0.00387255 1.9285 0.219998 1.47429 0.523901 1.07106C1.10368 0.302059 1.88778 -0.0014935 2.8253 5.52228e-06C7.46425 0.00750064 12.1032 -0.00674008 16.7414 0.00974917C18.1001 0.0149957 19.1962 0.94439 19.3792 2.33099C19.4079 2.54984 19.433 2.77245 19.433 2.9928C19.436 7.07015 19.4463 11.1467 19.4293 15.2241C19.4242 16.5537 18.6718 17.5348 17.4267 17.9223C17.215 17.9883 16.9804 17.9958 16.7562 17.9965C14.3906 18.0018 12.025 17.9995 9.66017 17.9995V17.9958H9.66091ZM12.8091 1.80333V2.10763C12.8091 3.49498 12.8098 4.88157 12.8091 6.26892C12.8091 6.81231 12.4248 7.20131 11.8893 7.20206C10.4354 7.20356 8.98082 7.20281 7.52695 7.20206C6.97299 7.20206 6.62483 6.84304 6.62409 6.27267C6.62336 4.87633 6.62409 3.47999 6.62409 2.0829C6.62409 1.99296 6.62409 1.90376 6.62409 1.80483C5.24842 1.80483 3.90593 1.79808 2.56271 1.80858C2.12751 1.81232 1.76533 2.2298 1.76459 2.68251C1.76386 6.89101 1.76386 11.0988 1.76459 15.3073C1.76459 15.8229 2.14373 16.1992 2.65934 16.1992C7.33517 16.1992 12.0103 16.1947 16.6861 16.2059C17.2135 16.2074 17.6679 15.7997 17.6679 15.2128C17.6693 11.0703 17.6753 6.92774 17.662 2.78519C17.6598 2.1601 17.3359 1.82731 16.7355 1.81232C15.4395 1.78084 14.142 1.80258 12.8091 1.80258V1.80333ZM11.0359 1.81982H8.40694V5.38674H11.0359V1.81907V1.81982Z" fill="#222222"/>
<path d="M6.59691 14.4001C5.8615 14.4001 5.12682 14.4009 4.3914 14.4001C3.96358 14.4001 3.57042 14.0149 3.5269 13.6169C3.46199 13.0158 3.95104 12.6073 4.33313 12.6058C5.82167 12.5991 7.3102 12.5946 8.79874 12.6081C9.15206 12.6111 9.45006 12.7745 9.61087 13.1252C9.76429 13.461 9.74511 13.802 9.48768 14.0516C9.31508 14.2188 9.05691 14.3732 8.82898 14.3859C8.08693 14.4279 7.34118 14.4016 6.59691 14.4009V14.4001Z" fill="#222222"/>
</svg>
