<svg width="18" height="22" viewBox="0 0 18 22" fill="none" xmlns="http://www.w3.org/2000/svg">
<path d="M11.6364 9.74881C11.991 9.24476 12.2037 8.64928 12.251 8.02819C12.2983 7.4071 12.1783 6.7846 11.9044 6.22951C11.6305 5.67442 11.2132 5.20835 10.6988 4.88285C10.1843 4.55734 9.59275 4.38506 8.98941 4.38506C8.38607 4.38506 7.79448 4.55734 7.28005 4.88285C6.76561 5.20835 6.34836 5.67442 6.07443 6.22951C5.8005 6.7846 5.68056 7.4071 5.72786 8.02819C5.77516 8.64928 5.98787 9.24476 6.34247 9.74881C5.89267 10.0448 5.49222 10.414 5.15664 10.8421C5.06904 10.9591 5.00462 11.0928 4.96706 11.2355C4.9295 11.3782 4.91953 11.5272 4.93772 11.6739C4.9559 11.8206 5.0019 11.9622 5.07307 12.0905C5.14424 12.2188 5.23919 12.3315 5.35251 12.4219C5.46583 12.5124 5.59529 12.5789 5.73351 12.6177C5.87172 12.6565 6.01598 12.6667 6.15805 12.648C6.30011 12.6292 6.43721 12.5817 6.5615 12.5082C6.68579 12.4347 6.79485 12.3367 6.88245 12.2196C7.14102 11.8803 7.47057 11.6056 7.84643 11.4163C8.22229 11.227 8.63474 11.1279 9.05294 11.1264C9.47113 11.1279 9.88359 11.227 10.2594 11.4163C10.6353 11.6056 10.9649 11.8803 11.2234 12.2196C11.3231 12.3465 11.449 12.4487 11.5919 12.5187C11.7348 12.5887 11.8911 12.6247 12.0493 12.6242C12.2478 12.6232 12.442 12.5647 12.6098 12.4552C12.7776 12.3458 12.9123 12.1898 12.9984 12.0052C13.0845 11.8205 13.1186 11.6146 13.0968 11.4108C13.075 11.2071 12.9982 11.0138 12.8751 10.853C12.5245 10.4165 12.1058 10.0433 11.6364 9.74881ZM9 8.95071C8.77358 8.95055 8.55221 8.88163 8.36345 8.75251C8.1747 8.6234 8.02688 8.43981 7.93843 8.22459C7.84997 8.00938 7.82478 7.77205 7.86598 7.54215C7.90719 7.31226 8.01297 7.09996 8.17016 6.93169C8.32735 6.76342 8.529 6.64661 8.75001 6.59581C8.97102 6.54501 9.20161 6.56246 9.41308 6.64599C9.62456 6.72951 9.80757 6.87543 9.93932 7.06556C10.0711 7.2557 10.1458 7.48165 10.1541 7.71529C10.1598 7.87543 10.1341 8.03511 10.0787 8.18477C10.0232 8.33444 9.93913 8.47103 9.8314 8.58636C9.72366 8.70169 9.5945 8.7934 9.45165 8.856C9.3088 8.91861 9.15518 8.95082 9 8.95071ZM17.9573 8.40407C17.8086 6.80667 17.2619 5.27625 16.3703 3.96183C15.4788 2.6474 14.2728 1.59378 12.8698 0.903541C11.4668 0.213306 9.91466 -0.0900107 8.36443 0.0231263C6.81421 0.136263 5.31877 0.661998 4.02375 1.54914C2.91118 2.31733 1.97719 3.33043 1.28886 4.51566C0.600542 5.70089 0.174978 7.02882 0.0427421 8.40407C-0.0869768 9.7703 0.0794541 11.1492 0.52996 12.4408C0.980466 13.7324 1.70375 14.9042 2.64734 15.8712L8.25886 21.6766C8.35728 21.7791 8.47439 21.8604 8.60341 21.9159C8.73243 21.9714 8.87082 22 9.01059 22C9.15036 22 9.28875 21.9714 9.41777 21.9159C9.54679 21.8604 9.66389 21.7791 9.76232 21.6766L15.3527 15.8712C16.2963 14.9042 17.0195 13.7324 17.47 12.4408C17.9205 11.1492 18.087 9.7703 17.9573 8.40407ZM13.8704 14.3297L9 19.3588L4.12962 14.3297C3.41187 13.5885 2.86206 12.6923 2.51972 11.7055C2.17738 10.7188 2.05102 9.66594 2.14971 8.62272C2.24904 7.56344 2.57509 6.54018 3.10427 5.62694C3.63346 4.71369 4.35256 3.93328 5.20958 3.34213C6.33288 2.57162 7.65144 2.16061 9 2.16061C10.3486 2.16061 11.6671 2.57162 12.7904 3.34213C13.6448 3.931 14.3624 4.70796 14.8914 5.6172C15.4205 6.52644 15.7479 7.5454 15.8503 8.60086C15.9522 9.6476 15.8274 10.7046 15.485 11.6955C15.1426 12.6863 14.591 13.5861 13.8704 14.3297Z" fill="black"/>
</svg>
