<svg width="20" height="21" viewBox="0 0 20 21" fill="none" xmlns="http://www.w3.org/2000/svg">
<g id="Group 481730">
<path id="Vector" d="M2.55132 3.19824C2.55132 2.82947 2.82941 2.55132 3.19824 2.55132H6.80352V0H3.25139C1.47323 0 0 1.42008 0 3.19824V6.80352H2.55132V3.19824Z" fill="#222222"/>
<path id="Vector_2" d="M16.7885 0H13.1965V2.55132H16.7693C17.1381 2.55132 17.4487 2.82941 17.4487 3.19824V6.80352H20V3.19824C20 1.42008 18.5666 0 16.7885 0Z" fill="#222222"/>
<path id="Vector_3" d="M17.4487 17.1596C17.4487 17.5284 17.1706 17.8065 16.8018 17.8065H13.1965V20.411H16.8018C18.5799 20.411 20 18.9378 20 17.1596V13.6075H17.4487V17.1596Z" fill="#222222"/>
<path id="Vector_4" d="M3.19824 17.8065C2.82941 17.8065 2.55132 17.5285 2.55132 17.1596V13.6075H0V17.1596C0 18.9378 1.47323 20.411 3.25139 20.411H6.80352V17.8065H3.19824Z" fill="#222222"/>
</g>
</svg>
