<svg width="26" height="26" viewBox="0 0 26 26" fill="none" xmlns="http://www.w3.org/2000/svg">
<path d="M24.9177 19.4998H23.2926C22.9936 19.4998 22.7509 19.2561 22.7509 18.9581V4.87423C22.7509 4.27512 22.2656 3.79085 21.6676 3.79085C21.0695 3.79085 20.5842 4.27512 20.5842 4.87423V14.0829H17.2474L15.3016 4.3542C14.7968 1.83102 12.5629 -0.000976562 9.98983 -0.000976562H5.41689C2.43002 -0.000976562 0 2.42904 0 5.41592V22.2083C0 24.2992 1.7009 26.0001 3.79182 26.0001C5.88274 26.0001 7.58365 24.2992 7.58365 22.2083V21.6666H10.8338V22.2083C10.8338 24.2992 12.5347 26.0001 14.6256 26.0001C16.7165 26.0001 18.4174 24.2992 18.4174 22.2083V20.0415C18.4174 19.9711 18.4109 19.8985 18.3958 19.8292L17.6797 16.2497H20.5831V18.9581C20.5831 20.4521 21.7987 21.6666 23.2916 21.6666H24.9166C25.5146 21.6666 26 21.1823 26 20.5832C26 19.9841 25.5157 19.4998 24.9177 19.4998ZM5.41689 2.16578H9.98983C11.5336 2.16578 12.8738 3.26541 13.1771 4.77889L15.0384 14.0829H11.4849C10.9475 14.0829 10.4698 13.7211 10.3257 13.2032C9.9335 11.8078 8.64644 10.8328 7.1958 10.8328H2.16676V5.41592C2.16676 3.62401 3.62498 2.16578 5.41689 2.16578ZM5.41689 22.2083C5.41689 23.1042 4.68778 23.8333 3.79182 23.8333C2.89587 23.8333 2.16676 23.1042 2.16676 22.2083V21.6666H5.41689V22.2083ZM14.6256 23.8333C13.7297 23.8333 13.0005 23.1042 13.0005 22.2083V21.6666H16.2507V22.2083C16.2507 23.1042 15.5216 23.8333 14.6256 23.8333ZM16.1207 19.4998H2.16676V12.9996H7.1958C7.67899 12.9996 8.108 13.3246 8.23909 13.7893C8.64536 15.2378 9.98008 16.2497 11.4849 16.2497H15.4717L16.1207 19.4998Z" fill="url(#paint0_radial_1725_151676)"/>
<defs>
<radialGradient id="paint0_radial_1725_151676" cx="0" cy="0" r="1" gradientUnits="userSpaceOnUse" gradientTransform="translate(22.0278 6.10132) rotate(-32.1355) scale(55.8644 29.8037)">
<stop stop-color="#FFB6D5"/>
<stop offset="0.1" stop-color="#FFE3C0"/>
<stop offset="0.29" stop-color="#C7FBDB"/>
<stop offset="0.43" stop-color="#C7CDF4"/>
<stop offset="0.54" stop-color="#FFBCD4"/>
<stop offset="0.66" stop-color="#FFE0C3"/>
<stop offset="0.76" stop-color="#B0F1D4"/>
<stop offset="0.84" stop-color="#C9CEEC"/>
<stop offset="0.91" stop-color="#FFC1DA"/>
<stop offset="1" stop-color="#BDFFE3"/>
</radialGradient>
</defs>
</svg>
