<svg width="29" height="30" viewBox="0 0 29 30" fill="none" xmlns="http://www.w3.org/2000/svg">
<path d="M25.375 29.0054C23.3764 29.0054 21.75 27.379 21.75 25.3804V15.7138C21.75 15.048 21.2087 14.5054 20.5417 14.5054H8.45833C7.79133 14.5054 7.25 15.048 7.25 15.7138V25.3804C7.25 27.379 5.62358 29.0054 3.625 29.0054C1.62642 29.0054 0 27.379 0 25.3804V11.7553C0 9.7434 0.995667 7.87169 2.66196 6.74673L11.1203 1.03856C13.1733 -0.346187 15.8268 -0.346187 17.8797 1.03856L26.338 6.74673C28.0043 7.87169 29 9.7434 29 11.7553V25.3804C29 27.379 27.3736 29.0054 25.375 29.0054ZM8.45833 12.0888H20.5417C22.5403 12.0888 24.1667 13.7152 24.1667 15.7138V25.3804C24.1667 26.0462 24.708 26.5888 25.375 26.5888C26.042 26.5888 26.5833 26.0462 26.5833 25.3804V11.7553C26.5833 10.5481 25.9864 9.4244 24.9859 8.75015L16.5276 3.04198C15.2951 2.21065 13.7049 2.21065 12.4736 3.04198L4.01408 8.75015C3.01358 9.4244 2.41667 10.5481 2.41667 11.7553V25.3804C2.41667 26.0462 2.958 26.5888 3.625 26.5888C4.292 26.5888 4.83333 26.0462 4.83333 25.3804V15.7138C4.83333 13.7152 6.45975 12.0888 8.45833 12.0888ZM13.2917 27.7971V25.3804C13.2917 24.7134 12.7515 24.1721 12.0833 24.1721H10.875C10.2068 24.1721 9.66667 24.7134 9.66667 25.3804V27.7971C9.66667 28.4641 10.2068 29.0054 10.875 29.0054H12.0833C12.7515 29.0054 13.2917 28.4641 13.2917 27.7971ZM13.2917 20.5471V18.1304C13.2917 17.4634 12.7515 16.9221 12.0833 16.9221H10.875C10.2068 16.9221 9.66667 17.4634 9.66667 18.1304V20.5471C9.66667 21.2141 10.2068 21.7554 10.875 21.7554H12.0833C12.7515 21.7554 13.2917 21.2141 13.2917 20.5471ZM19.3333 27.7971V25.3804C19.3333 24.7134 18.7932 24.1721 18.125 24.1721H16.9167C16.2485 24.1721 15.7083 24.7134 15.7083 25.3804V27.7971C15.7083 28.4641 16.2485 29.0054 16.9167 29.0054H18.125C18.7932 29.0054 19.3333 28.4641 19.3333 27.7971Z" fill="url(#paint0_radial_1725_100361)"/>
<defs>
<radialGradient id="paint0_radial_1725_100361" cx="0" cy="0" r="1" gradientUnits="userSpaceOnUse" gradientTransform="translate(24.5694 6.8074) rotate(-32.1392) scale(62.3128 33.2461)">
<stop stop-color="#FFB6D5"/>
<stop offset="0.1" stop-color="#FFE3C0"/>
<stop offset="0.29" stop-color="#C7FBDB"/>
<stop offset="0.43" stop-color="#C7CDF4"/>
<stop offset="0.54" stop-color="#FFBCD4"/>
<stop offset="0.66" stop-color="#FFE0C3"/>
<stop offset="0.76" stop-color="#B0F1D4"/>
<stop offset="0.84" stop-color="#C9CEEC"/>
<stop offset="0.91" stop-color="#FFC1DA"/>
<stop offset="1" stop-color="#BDFFE3"/>
</radialGradient>
</defs>
</svg>
