<svg width="271" height="59" viewBox="0 0 271 59" fill="none" xmlns="http://www.w3.org/2000/svg">
<path d="M37.379 5.36719V46.4757H27.5519V28.7762H9.82705V46.4757H0V5.36719H9.82705V20.8971H27.5519V5.36719H37.379Z" fill="#222222"/>
<path d="M79.7616 31.1746C79.7616 40.6524 72.2255 47.2183 61.7353 47.2183C51.1848 47.2183 43.709 40.6524 43.709 31.1746C43.709 21.7539 51.1848 15.1309 61.7353 15.1309C72.2255 15.1309 79.7616 21.7539 79.7616 31.1746ZM70.0551 31.1746C70.0551 24.6658 67.101 22.3249 61.7353 22.3249C56.3093 22.3249 53.4155 24.6658 53.4155 31.1746C53.4155 37.7405 56.3093 40.0244 61.7353 40.0244C67.101 40.0244 70.0551 37.7405 70.0551 31.1746Z" fill="#222222"/>
<path d="M100.201 39.2808V46.4748H98.6939C90.2535 46.4748 85.3701 42.3068 85.3701 35.1699V0.456055H94.7149V34.8844C94.7149 38.3102 95.9809 39.2808 99.1762 39.2808H100.201Z" fill="#222222"/>
<path d="M177.912 15.8721V42.7068C177.912 53.0411 172.666 58.8077 159.765 58.8077C150.118 58.8077 145.778 54.5255 143.487 48.4164H152.47C153.434 50.9285 155.846 51.785 159.885 51.785C166.095 51.785 168.567 50.3576 168.567 43.7346V41.2224C166.879 43.7917 164.407 45.4474 158.86 45.4474C150.601 45.4474 142.884 39.1669 142.884 30.4885C142.884 21.5816 150.058 15.1299 158.86 15.1299C164.166 15.1299 167.06 17.4708 168.567 19.8688V15.8721H177.912ZM168.567 28.0905C167.18 24.0938 165.613 22.2668 160.006 22.2668C155.424 22.2668 152.59 24.7219 152.59 30.4885C152.59 36.9402 155.364 38.8815 160.066 38.8815C166.095 38.8815 167.602 36.9402 168.567 32.8865V28.0905Z" fill="#222222"/>
<path d="M140.095 28.5105C140.095 37.9883 132.558 44.5543 122.071 44.5543C111.521 44.5543 104.045 37.9883 104.045 28.5105C104.045 19.0898 111.521 12.4668 122.071 12.4668C132.561 12.4697 140.095 19.0898 140.095 28.5105Z" fill="url(#paint0_radial_2953_25639)"/>
<path d="M140.105 26.7474C139.923 25.3168 139.534 23.9628 138.988 22.711C138.962 22.6599 138.936 22.6088 138.936 22.5577C138.78 22.2001 138.598 21.868 138.416 21.5359C138.157 21.0505 137.845 20.5906 137.533 20.1563C134.311 15.3791 128.361 12.4668 120.982 12.4668C115.5 12.4668 110.563 14.1529 107.055 17.1929C106.042 18.0615 105.185 19.0578 104.457 20.1308C104.223 20.4629 103.989 20.7695 103.808 21.1271C103.6 21.4848 103.418 21.8169 103.262 22.1745C102.612 23.4519 102.171 24.8314 101.937 26.262C101.729 27.2839 101.625 28.3313 101.625 29.4042C101.625 29.6341 101.625 29.8641 101.651 30.094C101.677 31.3202 101.859 32.4698 102.145 33.5939C102.404 34.6924 102.794 35.7398 103.314 36.7361C104.171 38.5755 105.444 40.2105 107.055 41.6155C110.563 44.6556 115.5 46.3417 120.982 46.3417C126.464 46.3417 131.401 44.6556 134.883 41.6155C135.532 41.0535 136.13 40.4404 136.598 39.8017C136.831 39.5462 137.065 39.2908 137.273 39.0098C137.351 38.882 137.455 38.7798 137.533 38.6521C137.767 38.3456 137.975 38.0134 138.157 37.6813C138.52 37.0938 138.832 36.4551 139.066 35.7909C139.716 34.3347 140.105 32.7508 140.261 31.0903C140.313 30.5283 140.339 29.9663 140.339 29.4042C140.339 28.4845 140.261 27.616 140.105 26.7474ZM107.263 20.6928C110.615 19.6454 114.149 19.1345 117.708 19.1089H124.282C125.139 19.1089 125.971 18.8024 126.594 18.2403C127.218 17.6783 127.556 16.9375 127.556 16.1455V16.0178C128.673 16.3754 129.738 16.8353 130.7 17.3973C130.44 18.4958 129.816 19.5432 128.907 20.3607C127.686 21.4592 126.023 22.0979 124.282 22.0979H117.708C113.265 22.0979 108.926 23.0176 104.977 24.7547C105.47 23.273 106.25 21.8935 107.263 20.6928ZM104.223 29.4042C104.223 29.0977 104.223 28.7656 104.275 28.459C108.303 26.262 112.953 25.0868 117.708 25.0868H124.282C126.776 25.0613 129.167 24.2183 131.011 22.6599C132.103 21.7402 132.908 20.6162 133.454 19.3899C134.311 20.1819 135.065 21.076 135.662 22.0468C134.805 23.4263 133.61 24.6525 132.207 25.6233C129.92 27.2072 127.14 28.0503 124.282 28.0503H117.708C112.927 28.0503 108.277 29.4298 104.431 31.9333C104.301 31.1159 104.223 30.2728 104.223 29.4042ZM134.857 37.9113C131.531 39.2652 127.945 39.9805 124.282 39.9805H117.708C116.201 39.9805 114.72 40.2871 113.395 40.8747C112.849 41.1301 112.356 41.4111 111.862 41.7433C110.849 41.2323 109.913 40.6448 109.108 39.9294C109.939 39.2397 110.901 38.6777 111.914 38.2178C113.707 37.4259 115.682 36.9916 117.708 36.9916H124.282C128.933 36.9916 133.454 35.7142 137.221 33.3384C136.754 35.0245 135.948 36.5573 134.857 37.9113ZM133.246 32.0611C130.466 33.3384 127.4 34.0026 124.282 34.0026H117.708C115.292 34.0026 112.901 34.488 110.693 35.4332C109.316 36.0208 108.069 36.7872 106.925 37.7069C106.276 36.8894 105.756 35.9953 105.366 35.0245C106.718 34.0026 108.225 33.1851 109.81 32.5465C112.304 31.5501 114.98 31.0392 117.708 31.0392H124.282C127.348 31.0392 130.362 30.2473 132.96 28.7656C134.571 27.8459 136 26.6963 137.169 25.3679C137.533 26.543 137.715 27.8203 137.741 29.1743C136.416 30.3239 134.883 31.2947 133.246 32.0611Z" fill="#222222"/>
<path d="M207.333 15.7589V23.9806C206.368 23.5809 204.921 23.3526 203.112 23.3526C197.807 23.3526 194.25 25.7506 194.25 32.2023V46.4761H184.905V15.8731H194.25V20.3265C195.878 17.1292 199.314 15.1309 203.655 15.1309C205.042 15.1309 206.428 15.3592 207.333 15.7589Z" fill="#222222"/>
<path d="M244.109 39.2821V46.4761H242.723C237.417 46.4761 235.488 45.1629 234.101 42.7649C232.654 45.3913 228.193 47.2183 222.948 47.2183C216.316 47.2183 209.865 44.0781 209.865 37.2267C209.865 30.4895 217.281 27.5776 224.214 27.5776C226.721 27.5353 229.202 28.064 231.449 29.1192V26.8354C231.449 23.2955 230.243 21.8681 225.721 21.8681C222.586 21.8681 220.958 22.3248 220.175 24.5516H211.071C213.362 17.7572 218.728 15.1309 225.661 15.1309C235.428 15.1309 240.793 19.5272 240.793 27.1779V36.7128C240.793 38.7112 241.758 39.2821 243.325 39.2821H244.109ZM231.449 34.8287C229.821 33.7439 228.314 33.1158 224.515 33.1158C220.657 33.1158 219.451 34.2006 219.451 36.8841C219.451 39.3963 220.657 40.4811 224.154 40.4811C227.771 40.4811 229.7 40.0244 231.449 37.7976V34.8287Z" fill="#222222"/>
<path d="M271.001 0.74254V7.87944C269.336 7.42156 267.61 7.19085 265.876 7.1943C263.043 7.1943 261.354 8.45039 261.354 11.7048V15.8728H270.398V23.0668H261.354V46.4758H252.01V23.0668H245.619V15.8728H252.01V11.6477C252.01 4.91048 257.556 0.000300651 264.369 0.000300651C266.603 -0.00989735 268.83 0.239376 271.001 0.74254Z" fill="#222222"/>
<defs>
<radialGradient id="paint0_radial_2953_25639" cx="0" cy="0" r="1" gradientUnits="userSpaceOnUse" gradientTransform="translate(134.587 19.9975) rotate(-29.2095) scale(75.1457 37.9116)">
<stop stop-color="#FFB6D5"/>
<stop offset="0.1" stop-color="#FFE3C0"/>
<stop offset="0.29" stop-color="#C7FBDB"/>
<stop offset="0.43" stop-color="#C7CDF4"/>
<stop offset="0.54" stop-color="#FFBCD4"/>
<stop offset="0.66" stop-color="#FFE0C3"/>
<stop offset="0.76" stop-color="#B0F1D4"/>
<stop offset="0.84" stop-color="#C9CEEC"/>
<stop offset="0.91" stop-color="#FFC1DA"/>
<stop offset="1" stop-color="#BDFFE3"/>
</radialGradient>
</defs>
</svg>
