<svg width="187" height="39" viewBox="0 0 187 39" fill="none" xmlns="http://www.w3.org/2000/svg">
<path d="M23.1648 3.51123V30.4123H17.0747V18.8299H6.0901V30.4123H0V3.51123H6.0901V13.6739H17.0747V3.51123H23.1648Z" fill="#222222"/>
<path d="M49.4298 20.3998C49.4298 26.602 44.7594 30.8987 38.2583 30.8987C31.7199 30.8987 27.0869 26.602 27.0869 20.3998C27.0869 14.2349 31.7199 9.90088 38.2583 9.90088C44.7594 9.90088 49.4298 14.2349 49.4298 20.3998ZM43.4144 20.3998C43.4144 16.1404 41.5836 14.6086 38.2583 14.6086C34.8957 14.6086 33.1023 16.1404 33.1023 20.3998C33.1023 24.6965 34.8957 26.191 38.2583 26.191C41.5836 26.191 43.4144 24.6965 43.4144 20.3998Z" fill="#222222"/>
<path d="M62.0965 25.7049V30.4126H61.1624C55.9316 30.4126 52.9053 27.6851 52.9053 23.0148V0.29834H58.6965V22.828C58.6965 25.0698 59.4811 25.7049 61.4613 25.7049H62.0965Z" fill="#222222"/>
<path d="M110.257 10.3866V27.947C110.257 34.7096 107.007 38.4833 99.0113 38.4833C93.0333 38.4833 90.3432 35.6811 88.9234 31.6833H94.4905C95.0883 33.3272 96.5828 33.8877 99.0861 33.8877C102.934 33.8877 104.466 32.9536 104.466 28.6195V26.9756C103.42 28.6569 101.888 29.7404 98.4509 29.7404C93.3322 29.7404 88.5498 25.6305 88.5498 19.9514C88.5498 14.1229 92.996 9.90088 98.4509 9.90088C101.739 9.90088 103.532 11.4327 104.466 13.002V10.3866H110.257ZM104.466 18.3822C103.607 15.7668 102.636 14.5712 99.1608 14.5712C96.3212 14.5712 94.5652 16.1778 94.5652 19.9514C94.5652 24.1734 96.2839 25.4437 99.1981 25.4437C102.934 25.4437 103.868 24.1734 104.466 21.5207V18.3822Z" fill="#222222"/>
<path d="M128.49 10.3119V15.6921C127.892 15.4305 126.995 15.2811 125.874 15.2811C122.586 15.2811 120.382 16.8503 120.382 21.0723V30.4129H114.591V10.3866H120.382V13.3009C121.391 11.2086 123.52 9.90088 126.211 9.90088C127.07 9.90088 127.929 10.0503 128.49 10.3119Z" fill="#222222"/>
<path d="M151.282 25.7053V30.413H150.422C147.134 30.413 145.939 29.5536 145.079 27.9844C144.183 29.7031 141.418 30.8987 138.167 30.8987C134.057 30.8987 130.06 28.8437 130.06 24.3602C130.06 19.9514 134.655 18.0459 138.952 18.0459C140.506 18.0182 142.043 18.3642 143.435 19.0547V17.5602C143.435 15.2437 142.688 14.3097 139.886 14.3097C137.943 14.3097 136.934 14.6086 136.449 16.0657H130.807C132.227 11.6196 135.552 9.90088 139.849 9.90088C145.901 9.90088 149.227 12.7778 149.227 17.7844V24.0239C149.227 25.3316 149.824 25.7053 150.796 25.7053H151.282ZM143.435 22.791C142.427 22.0811 141.493 21.6701 139.139 21.6701C136.747 21.6701 136 22.38 136 24.136C136 25.78 136.747 26.4899 138.915 26.4899C141.156 26.4899 142.352 26.191 143.435 24.7338V22.791Z" fill="#222222"/>
<path d="M167.945 0.485912V5.15624C166.914 4.8566 165.844 4.70564 164.77 4.70789C163.014 4.70789 161.967 5.52986 161.967 7.65953V10.387H167.572V15.0947H161.967V30.4134H156.176V15.0947H152.216V10.387H156.176V7.62217C156.176 3.21338 159.614 0.000196743 163.836 0.000196743C165.22 -0.00647674 166.601 0.156646 167.945 0.485912Z" fill="#222222"/>
<path d="M85.821 19.7576C85.821 25.7477 81.2344 29.8975 74.8518 29.8975C68.4307 29.8975 63.8809 25.7477 63.8809 19.7576C63.8809 13.8036 68.4307 9.61768 74.8518 9.61768C81.2363 9.61948 85.821 13.8036 85.821 19.7576Z" fill="url(#paint0_linear_3044_25222)" stroke="#222222" stroke-miterlimit="10" stroke-linecap="square"/>
<path d="M76.7011 26.2143C79.7089 26.2143 82.6439 25.3054 85.1091 23.6108C83.5864 27.4539 79.7484 29.8986 74.8518 29.8986C72.4797 29.8986 70.3625 29.3303 68.6362 28.3145C69.1536 27.6613 69.8156 27.1327 70.5719 26.7688C71.3281 26.4049 72.1588 26.2153 73.0007 26.2143H76.7011ZM76.7011 22.5752H73.0007C71.6378 22.5752 70.2918 22.8727 69.06 23.4461C67.8281 24.0196 66.7409 24.8547 65.8769 25.8914C66.2543 26.3809 66.6795 26.833 67.1465 27.241C67.8355 26.3575 68.7218 25.6417 69.7369 25.1487C70.7519 24.6556 71.8686 24.3986 73.0007 24.3974H76.7011C80.1008 24.3978 83.3631 23.0783 85.7788 20.7258C85.8063 20.4082 85.821 20.0871 85.821 19.7605C85.8213 19.1885 85.7772 18.6173 85.6889 18.0519C84.6624 19.4522 83.3121 20.5926 81.7495 21.3791C80.1868 22.1655 78.4565 22.5755 76.7011 22.5752ZM76.7011 13.4781C77.1914 13.4776 77.6615 13.2859 78.0082 12.9449C78.3549 12.6039 78.5499 12.1416 78.5504 11.6594V10.1348C77.349 9.7869 76.1024 9.61306 74.85 9.61879C70.1589 9.61879 66.4695 11.8543 64.8202 15.378C67.3604 14.1315 70.16 13.4818 72.9989 13.4799L76.7011 13.4781ZM76.7011 17.1173C78.1066 17.1151 79.4589 16.5891 80.4857 15.6453C81.5125 14.7015 82.1373 13.41 82.2343 12.0311C81.6669 11.5777 81.0519 11.1851 80.3997 10.8601V11.6594C80.3982 12.6241 80.0079 13.5489 79.3143 14.2311C78.6206 14.9133 77.6803 15.2972 76.6993 15.2986H73.0007C69.8223 15.2973 66.7111 16.1982 64.0405 17.8931C63.9335 18.5094 63.8801 19.1335 63.8809 19.7587C63.8809 19.9157 63.8809 20.069 63.8919 20.2242C66.4867 18.2113 69.6958 17.1173 73.0007 17.1191L76.7011 17.1173ZM73.0007 20.7565H76.7011C78.4317 20.7551 80.1272 20.276 81.5945 19.3736C83.0618 18.4713 84.2421 17.1819 85.0009 15.6522C84.6913 14.9345 84.292 14.2575 83.8121 13.6369C83.3734 15.1602 82.4421 16.5014 81.159 17.4576C79.8759 18.4137 78.311 18.9327 76.7011 18.936H73.0007C69.7293 18.9379 66.5811 20.1635 64.1946 22.3641C64.353 23.0198 64.5799 23.6577 64.8716 24.2675C65.9063 23.1616 67.1629 22.2786 68.5621 21.6743C69.9612 21.07 71.4726 20.7575 73.0007 20.7565Z" fill="#222222"/>
<path d="M85.821 19.7576C85.821 25.7477 81.2344 29.8975 74.8518 29.8975C68.4307 29.8975 63.8809 25.7477 63.8809 19.7576C63.8809 13.8036 68.4307 9.61768 74.8518 9.61768C81.2363 9.61948 85.821 13.8036 85.821 19.7576Z" stroke="#222222" stroke-miterlimit="10" stroke-linecap="square"/>
<path d="M178.61 18.1645C182.451 18.9158 187 20.0802 187 24.5501C187 29.3205 182.302 31.0108 177.566 31.0108C172.01 31.0108 168.989 28.8322 167.945 24.3623H173.427C173.8 25.7896 174.434 26.5784 177.38 26.5784C179.915 26.5784 181.071 26.1652 181.071 24.9257C181.071 23.4983 180.512 23.2354 177.305 22.5969C173.651 21.8832 168.654 20.6436 168.654 16.0611C168.654 11.8165 172.83 9.90088 177.678 9.90088C182.675 9.90088 185.882 12.0795 186.814 16.1362H181.332C180.81 14.8591 180.214 14.3332 177.864 14.3332C175.366 14.3332 174.508 14.8591 174.508 16.0235C174.508 17.1128 175.329 17.526 178.61 18.1645Z" fill="#222222"/>
<defs>
<linearGradient id="paint0_linear_3044_25222" x1="65.3316" y1="32.0779" x2="89.2973" y2="22.2959" gradientUnits="userSpaceOnUse">
<stop stop-color="#FFB6D5"/>
<stop offset="0.1" stop-color="#FFE3C0"/>
<stop offset="0.29" stop-color="#C7FBDB"/>
<stop offset="0.43" stop-color="#C7CDF4"/>
<stop offset="0.54" stop-color="#FFBCD4"/>
<stop offset="0.66" stop-color="#FFE0C3"/>
<stop offset="0.76" stop-color="#B0F1D4"/>
<stop offset="0.84" stop-color="#C9CEEC"/>
<stop offset="0.91" stop-color="#FFC1DA"/>
<stop offset="1" stop-color="#BDFFE3"/>
</linearGradient>
</defs>
</svg>
