<svg width="430" height="272" viewBox="0 0 430 272" fill="none" xmlns="http://www.w3.org/2000/svg">
<path d="M305.417 266.879C305.417 266.878 305.418 266.877 305.418 266.877C311.073 263.298 316.672 258.127 322.237 252.07C322.639 251.632 323.016 251.136 323.366 250.598C326.178 246.278 329.033 242.237 331.956 238.632C332.023 238.533 331.949 238.377 331.87 238.451C326.74 243.23 321.613 247.241 316.489 250.009C285.579 266.703 239.939 242.118 212.337 276.801C202.131 289.625 196.449 307.967 192.474 328.2C195.405 318.162 199.295 309.107 204.668 301.629C230.332 265.917 275.844 285.593 305.416 266.881C305.417 266.88 305.417 266.88 305.417 266.879Z" fill="url(#paint0_radial_3196_31473)"/>
<path d="M473.616 261.414C473.616 261.414 473.616 261.414 473.616 261.414C478.477 264.482 484.069 266.24 490.087 267.27C490.274 267.302 490.465 267.305 490.656 267.28C494.383 266.805 498.023 266.595 501.521 266.798C501.668 266.786 501.703 266.451 501.562 266.406C496.721 264.851 492.229 262.746 488.273 259.779C460.685 239.082 444.267 170.385 412.501 168.577C400.964 167.921 389.369 176.202 377.745 187.843C383.82 183.334 389.948 180.532 396.161 180.331C427.264 179.32 445.886 243.911 473.616 261.413C473.617 261.413 473.617 261.414 473.616 261.414Z" fill="url(#paint1_radial_3196_31473)"/>
<path d="M377.742 187.84C377.742 187.841 377.741 187.841 377.74 187.842C372.33 191.856 366.964 197.224 361.62 203.317C363.353 201.78 365.096 200.385 366.851 199.157C367.434 198.749 367.995 198.258 368.518 197.672C371.594 194.229 374.669 190.917 377.742 187.84Z" fill="url(#paint2_radial_3196_31473)"/>
<path d="M361.621 203.317C356.458 207.899 351.385 213.749 346.357 220.248C347.986 218.539 349.63 216.962 351.291 215.537C351.783 215.115 352.255 214.632 352.693 214.08C355.665 210.34 358.639 206.716 361.621 203.317Z" fill="url(#paint3_radial_3196_31473)"/>
<path d="M445.31 269.069C445.311 269.069 445.311 269.069 445.311 269.069C452.386 271.999 460.741 272.097 469.602 271.19C472.955 270.255 476.27 269.469 479.508 268.943C472.11 268.73 465.198 267.613 459.273 264.535C431.546 250.128 410.945 189.728 380.623 193.385C376.314 193.904 372.097 195.686 367.948 198.415C367.806 198.508 367.671 198.628 367.545 198.77C366.523 199.922 365.502 201.088 364.48 202.263C363.166 203.774 364.372 207.948 365.946 207.62C395.378 201.495 417.732 257.645 445.309 269.069C445.31 269.07 445.31 269.069 445.31 269.069Z" fill="url(#paint4_radial_3196_31473)"/>
<path d="M286.155 302.188C286.155 302.188 286.155 302.187 286.155 302.187C293.687 295.948 300.849 286.552 307.879 276.058C310.125 271.928 312.399 267.941 314.722 264.198C308.361 272.369 301.917 279.489 295.299 284.312C267.137 304.832 221.971 289.874 198.263 326.375C194.641 331.951 191.821 338.264 189.597 345.114C189.531 345.315 189.482 345.527 189.448 345.743C189.303 346.69 189.159 347.64 189.016 348.59C188.611 351.297 191.864 353.022 193.108 350.903C214.859 313.85 259.462 324.298 286.155 302.188C286.155 302.188 286.155 302.188 286.155 302.188Z" fill="url(#paint5_radial_3196_31473)"/>
<path d="M336.55 233.405C336.943 232.998 337.319 232.549 337.669 232.056C340.556 227.983 343.448 224.006 346.356 220.247C341.755 225.071 337.272 230.936 332.847 237.334C332.795 237.41 332.85 237.527 332.912 237.469C334.113 236.034 335.325 234.677 336.55 233.405Z" fill="url(#paint6_radial_3196_31473)"/>
<path d="M356.363 211.727C356.363 211.727 356.362 211.728 356.361 211.728C354.956 212.633 353.562 213.659 352.183 214.793C352.084 214.873 351.992 214.969 351.905 215.078C348.26 219.691 344.619 224.465 340.975 229.196C340.956 229.22 340.973 229.263 340.995 229.245C346.118 223.73 351.242 217.735 356.363 211.727Z" fill="url(#paint7_radial_3196_31473)"/>
<path d="M322.989 252.383C323.065 252.264 323.14 252.145 323.216 252.025C323.451 251.654 323.138 251.086 322.864 251.387C322.851 251.402 322.838 251.419 322.826 251.437C321.34 253.744 319.866 256.125 318.399 258.56C319.903 256.373 321.431 254.306 322.988 252.384L322.989 252.383Z" fill="url(#paint8_radial_3196_31473)"/>
<path d="M329.746 243.4C330.932 241.693 332.117 239.984 333.303 238.28C333.597 237.858 333.254 237.145 332.914 237.469C332.593 237.85 332.275 238.238 331.957 238.631C331.068 239.932 330.181 241.254 329.296 242.592C328.911 243.174 329.324 243.912 329.747 243.399L329.746 243.4Z" fill="url(#paint9_radial_3196_31473)"/>
<path d="M340.652 229.614C340.652 229.613 340.652 229.612 340.653 229.612C340.655 229.609 340.657 229.606 340.66 229.603C340.681 229.575 340.661 229.526 340.636 229.547C339.463 230.546 338.303 231.63 337.155 232.792C337.147 232.799 337.14 232.807 337.134 232.816C337.001 233.005 337.142 233.294 337.292 233.14C338.412 231.992 339.532 230.815 340.651 229.616C340.652 229.615 340.652 229.614 340.652 229.614Z" fill="url(#paint10_radial_3196_31473)"/>
<path d="M339.373 239.107C339.372 239.107 339.373 239.107 339.373 239.107C366.733 228.615 391.911 276.197 418.788 282.045C428.491 284.157 440.185 280.72 452.194 276.748C454.826 275.72 457.444 274.767 460.031 273.944C449.788 276.206 440.006 277.513 431.794 274.936C404.502 266.368 380.621 214.5 352.18 222.905C348.3 224.05 344.584 226.248 340.993 229.247C340.879 229.369 340.765 229.491 340.651 229.614C337.021 234.324 333.388 238.988 329.745 243.404C328.38 245.37 327.013 247.332 325.646 249.279C329.952 244.544 334.492 240.981 339.372 239.108C339.373 239.108 339.373 239.108 339.373 239.107Z" fill="url(#paint11_radial_3196_31473)"/>
<path d="M186.466 398.78C186.466 398.78 186.467 398.78 186.467 398.78C204.335 361.307 247.224 363.432 270.84 338.788C280.115 329.111 288.27 313.968 296.311 298.317C297.946 294.888 299.597 291.524 301.276 288.278C293.84 300.979 286.241 312.697 277.998 320.386C252.824 343.871 208.983 337.707 189.184 375.082C186.29 380.544 184.141 386.502 182.55 392.823C182.503 393.105 182.454 393.388 182.406 393.669C181.715 400.491 181.003 407.258 180.165 413.851C179.996 416.556 179.825 419.257 179.646 421.943C180.937 413.693 183.075 405.892 186.466 398.78C186.466 398.779 186.466 398.779 186.466 398.78Z" fill="url(#paint12_radial_3196_31473)"/>
<path d="M318.396 258.559C318.396 258.559 318.396 258.558 318.395 258.559C317.155 260.363 315.932 262.247 314.721 264.198C315.127 263.677 315.532 263.152 315.937 262.623C316.067 262.452 316.19 262.268 316.305 262.073C317.001 260.892 317.698 259.72 318.396 258.56C318.396 258.56 318.396 258.559 318.396 258.559Z" fill="url(#paint13_radial_3196_31473)"/>
<path d="M310.753 271.698C310.753 271.698 310.753 271.699 310.753 271.699C309.796 273.169 308.838 274.625 307.877 276.058C307.04 277.594 306.208 279.152 305.378 280.721C306.603 278.588 307.846 276.537 309.114 274.582C309.66 273.62 310.205 272.657 310.752 271.698C310.752 271.697 310.753 271.697 310.753 271.698Z" fill="url(#paint14_radial_3196_31473)"/>
<path d="M316.568 261.796C316.279 262.177 316.005 262.585 315.75 263.021C314.079 265.874 312.416 268.778 310.755 271.698C313.769 267.065 316.764 262.28 319.76 257.509C318.697 258.961 317.633 260.391 316.568 261.796Z" fill="url(#paint15_radial_3196_31473)"/>
<path d="M322.986 252.382C321.91 254.084 320.835 255.796 319.76 257.508C321.727 254.822 323.687 252.065 325.645 249.277C324.749 250.263 323.863 251.3 322.986 252.382Z" fill="url(#paint16_radial_3196_31473)"/>
<path d="M181.762 551.307C181.761 551.307 181.761 551.307 181.761 551.307C175.819 592.132 143.226 638.531 147.734 676.903C148.916 686.965 152.504 695.236 157.415 702.525C159.572 705.204 161.735 707.88 163.855 710.583C166.349 713.321 168.884 716.031 171.393 718.761C184.095 731.241 198.577 742.422 206.142 758.809C220.038 788.913 215.184 852.665 237.784 871.792C244.016 877.066 251.399 878.155 259.357 877.031C262.218 876.326 265.071 875.619 267.896 874.969C271.161 873.914 274.436 872.799 277.689 871.723C293.728 865.466 310.302 856.516 323.532 858.163C349.873 861.442 376.123 904.759 402.321 892.376C409.191 889.13 415.211 882.451 420.766 873.888C422.858 870.2 424.949 866.505 427.052 862.87C429.231 858.66 431.397 854.389 433.574 850.155C443.697 828.913 453.211 805.129 465.203 791.2C487.234 765.614 528.999 763.955 544.962 726.599C549.364 716.298 551.143 704.831 551.529 692.798C551.468 688.516 551.404 684.245 551.374 680.01C551.138 675.158 550.863 670.3 550.61 665.469C548.731 641.789 545.137 617.671 548.121 597.166C554.063 556.341 586.657 509.942 582.149 471.569C580.967 461.507 577.378 453.236 572.467 445.947C570.31 443.269 568.148 440.592 566.027 437.89C563.534 435.152 560.999 432.442 558.49 429.711C545.787 417.232 531.306 406.05 523.74 389.663C509.844 359.56 514.699 295.807 492.098 276.68C485.867 271.406 478.483 270.317 470.525 271.442C467.665 272.147 464.811 272.854 461.987 273.504C458.721 274.559 455.446 275.673 452.193 276.75C436.155 283.007 419.58 291.956 406.35 290.309C380.009 287.03 353.759 243.714 327.561 256.096C320.691 259.343 314.671 266.021 309.116 274.585C307.024 278.273 304.933 281.968 302.831 285.602C300.652 289.813 298.485 294.084 296.309 298.317C286.185 319.56 276.672 343.343 264.679 357.272C242.648 382.858 200.883 384.518 184.92 421.874C180.519 432.174 178.74 443.641 178.353 455.674C178.415 459.956 178.478 464.227 178.508 468.462C178.745 473.314 179.02 478.173 179.272 483.003C181.151 506.683 184.746 530.801 181.762 551.307C181.762 551.307 181.762 551.307 181.762 551.307ZM184.514 444.248C198.614 407.215 239.091 402.042 259.52 375.723C280.698 348.439 291.811 287.805 316.778 273.733C341.745 259.662 368.843 298.759 394.532 299.626C419.314 300.463 454.604 262.929 477.255 279.249C499.906 295.568 497.575 356.846 512.188 384.39C527.337 412.945 566.132 421.319 571.941 457.564C577.749 493.809 547.845 540.904 543.602 580.388C539.508 618.476 559.469 667.19 545.369 704.222C531.268 741.255 490.792 746.428 470.363 772.747C449.184 800.031 438.072 860.665 413.105 874.737C388.137 888.808 361.04 849.711 335.35 848.844C310.569 848.007 275.278 885.541 252.628 869.221C229.977 852.902 232.308 791.624 217.694 764.08C202.546 735.525 163.751 727.151 157.942 690.906C152.134 654.661 182.037 607.566 186.281 568.082C190.375 529.994 170.413 481.28 184.514 444.248Z" fill="url(#paint17_radial_3196_31473)"/>
<path d="M168.645 703.219C168.645 703.219 168.645 703.219 168.645 703.22C175.628 737.275 213.545 741.93 229.293 767.851C244.484 792.858 244.51 851.476 267.075 865.09C289.64 878.704 322.447 839.895 346.501 838.567C371.435 837.191 399.159 872.139 422.835 856.581C446.512 841.024 455.023 782.265 474.533 754.438C493.355 727.594 532.396 719.191 544.682 682.676C556.969 646.161 535.805 601.433 538.352 564.77C540.994 526.764 568.224 479.3 561.242 445.245C554.259 411.189 516.342 406.534 500.593 380.612C485.402 355.606 485.376 296.988 462.812 283.374C440.246 269.759 407.439 308.568 383.386 309.898C358.452 311.274 330.728 276.326 307.051 291.884C283.375 307.441 274.864 366.2 255.354 394.027C236.532 420.871 197.49 429.274 185.204 465.789C172.918 502.304 194.082 547.032 191.535 583.694C188.894 621.7 161.664 669.162 168.646 703.218C168.646 703.218 168.646 703.219 168.645 703.219ZM186.938 486.397C197.47 450.586 234.946 439.243 252.162 412.077C270.011 383.916 276.06 327.252 298.397 310.415C320.734 293.577 348.868 324.472 372.951 321.025C396.182 317.701 426.491 277.947 448.838 288.974C471.185 300.001 473.392 355.799 489.027 378.302C505.235 401.629 542.108 402.812 550.134 434.633C558.16 466.454 533.571 513.967 532.43 550.373C531.329 585.491 553.479 626.257 542.947 662.068C532.414 697.88 494.939 709.224 477.722 736.389C459.874 764.55 453.825 821.214 431.487 838.051C409.15 854.889 381.016 823.994 356.934 827.441C333.703 830.765 303.393 870.519 281.046 859.492C258.699 848.465 256.493 792.666 240.857 770.164C224.65 746.837 187.776 745.654 179.75 713.833C171.724 682.012 196.314 634.499 197.455 598.093C198.556 562.975 176.405 522.209 186.938 486.397Z" fill="url(#paint18_radial_3196_31473)"/>
<path d="M191.177 722.75C200.115 752.307 235.791 750.278 252.321 771.061C268.266 791.111 272.472 843.954 294.477 852.523C316.483 861.093 344.294 820.718 366.619 815.572C389.763 810.237 418.099 837.194 439.058 819.28C460.018 801.367 463.757 746.996 479.957 718.705C495.585 691.414 531.377 677.429 540.224 642.492C549.071 607.554 526.151 570.706 525.91 537.234C525.659 502.537 547.655 455.275 538.715 425.719C529.776 396.162 494.1 398.191 477.571 377.408C461.625 357.358 457.419 304.515 435.414 295.946C413.409 287.376 385.598 327.751 363.273 332.897C340.129 338.232 311.793 311.275 290.833 329.19C269.874 347.103 266.134 401.473 249.934 429.764C234.307 457.055 198.514 471.04 189.667 505.977C180.82 540.915 203.741 577.764 203.982 611.235C204.233 645.933 182.237 693.194 191.177 722.75ZM193.329 524.44C200.567 490.537 234.574 474.213 248.638 446.985C263.216 418.761 264.806 366.857 284.359 348.073C303.913 329.287 332.248 352.444 354.375 345.406C375.72 338.618 401.05 297.938 422.595 304.189C444.14 310.44 450.16 360.216 466.286 377.878C483.003 396.185 517.343 391.216 527.062 418.493C536.783 445.771 517.318 492.489 518.847 525.386C520.323 557.121 543.8 590.126 536.563 624.027C529.325 657.93 495.317 674.254 481.254 701.481C466.676 729.706 465.085 781.61 445.533 800.394C425.979 819.179 397.644 796.023 375.517 803.06C354.171 809.849 328.841 850.528 307.296 844.278C285.751 838.026 279.732 788.251 263.606 770.589C246.889 752.281 212.549 757.251 202.829 729.974C193.109 702.695 212.574 655.978 211.044 623.08C209.569 591.346 186.092 558.341 193.329 524.44Z" fill="url(#paint19_radial_3196_31473)"/>
<path d="M214.62 735.528C224.989 760.531 257.868 752.898 274.641 768.811C290.822 784.161 298.46 830.785 319.437 834.869C340.414 838.953 363.295 798.272 383.595 790.025C404.64 781.475 432.78 800.989 450.911 781.534C469.042 762.079 468.65 712.794 481.642 684.824C494.173 657.843 526.313 639.487 532.026 606.765C537.74 574.043 513.912 544.792 511.316 514.865C508.625 483.842 525.636 437.943 515.266 412.94C504.897 387.937 472.018 395.57 455.245 379.657C439.064 364.307 431.425 317.684 410.449 313.599C389.473 309.515 366.591 350.196 346.291 358.443C325.246 366.993 297.106 347.479 278.975 366.934C260.844 386.389 261.236 435.675 248.245 463.644C235.713 490.625 203.573 508.982 197.86 541.703C192.147 574.425 215.974 603.677 218.57 633.603C221.261 664.626 204.25 710.525 214.62 735.528ZM226.495 642.785C222.894 614.724 198.919 589.106 203.199 557.699C207.478 526.291 237.681 506.211 248.726 479.648C260.175 452.111 257.976 405.569 274.679 385.641C291.381 365.714 319.14 381.762 339.045 371.892C358.246 362.371 378.728 321.983 399.034 324.058C419.34 326.133 428.404 369.542 444.518 382.674C461.223 396.286 492.533 386.276 503.421 409.023C514.309 431.77 499.66 476.591 503.393 505.679C506.994 533.739 530.969 559.357 526.69 590.765C522.41 622.173 492.207 642.252 481.162 668.816C469.713 696.353 471.912 742.894 455.21 762.822C438.507 782.749 410.748 766.701 390.843 776.571C371.642 786.092 351.16 826.481 330.854 824.406C310.548 822.331 301.485 778.921 285.37 765.789C268.665 752.177 237.355 762.187 226.468 739.44C215.58 716.693 230.228 671.873 226.495 642.785Z" fill="url(#paint20_radial_3196_31473)"/>
<path d="M295.721 761.598C311.653 772.612 321.943 812.772 341.487 813.006C361.03 813.239 379.175 773.42 397.233 762.815C415.951 751.821 443.155 764.596 458.432 744.391C473.708 724.187 469.885 680.489 479.844 653.556C489.452 627.574 517.666 606.078 520.611 576.102C523.555 546.126 499.625 524.006 495.139 497.853C490.488 470.743 502.878 427.24 491.602 406.718C480.326 386.195 450.679 398.288 434.163 386.872C418.231 375.859 407.941 335.699 388.398 335.465C368.855 335.231 350.709 375.051 332.652 385.656C313.933 396.65 286.729 383.874 271.453 404.079C256.176 424.284 259.999 467.982 250.04 494.915C240.432 520.897 212.218 542.393 209.274 572.369C206.33 602.344 230.259 624.464 234.745 650.617C239.396 677.728 227.006 721.23 238.282 741.753C249.558 762.275 279.205 750.183 295.721 761.598ZM243.248 657.092C237.995 632.876 214.298 614.097 216.011 585.655C217.725 557.213 243.914 534.608 252.146 509.358C260.68 483.184 255.416 442.41 269.281 422.114C283.146 401.818 309.63 411.53 327.125 399.606C344.002 388.104 359.889 349.117 378.586 347.684C397.283 346.25 408.601 383.15 424.242 392.16C440.456 401.5 468.362 387.616 479.9 405.963C491.438 424.311 481.191 466.273 486.636 491.376C491.888 515.592 515.585 534.371 513.872 562.813C512.158 591.255 485.969 613.859 477.737 639.11C469.203 665.284 474.467 706.058 460.602 726.354C446.737 746.65 420.253 736.938 402.758 748.862C385.881 760.364 369.994 799.351 351.297 800.784C332.6 802.218 321.282 765.318 305.641 756.308C289.427 746.969 261.521 760.852 249.983 742.505C238.445 724.158 248.692 682.195 243.248 657.092Z" fill="url(#paint21_radial_3196_31473)"/>
<path d="M315.073 750.007C330.32 757.137 342.465 790.79 360.243 787.868C378.02 784.945 391.741 747.039 407.413 734.826C423.659 722.166 449.272 729.041 461.749 708.834C474.228 688.629 467.712 650.832 474.889 625.56C481.813 601.184 505.958 577.773 506.548 550.953C507.139 524.133 483.852 508.52 477.955 486.25C471.842 463.166 480.075 422.943 468.398 406.709C456.722 390.474 430.621 405.851 414.815 398.46C399.568 391.33 387.423 357.677 369.645 360.599C351.868 363.522 338.147 401.428 322.475 413.641C306.229 426.301 280.617 419.426 268.139 439.633C255.66 459.838 262.176 497.635 254.999 522.907C248.075 547.283 223.93 570.694 223.34 597.514C222.749 624.334 246.036 639.947 251.934 662.217C258.046 685.302 249.813 725.524 261.49 741.758C273.167 757.992 299.267 742.617 315.073 750.007ZM260.726 666.005C254.306 645.68 231.596 633.041 231.176 607.914C230.756 582.787 252.855 558.867 258.546 535.492C264.445 511.261 256.868 476.469 267.993 456.526C279.116 436.584 303.717 440.855 318.698 427.652C333.151 414.915 344.808 378.318 361.602 374.089C378.396 369.86 391.173 400.305 405.928 405.688C421.224 411.269 445.475 394.696 457.17 408.895C468.863 423.092 462.508 461.393 469.164 482.462C475.584 502.788 498.294 515.426 498.714 540.553C499.134 565.68 477.034 589.601 471.344 612.975C465.445 637.206 473.021 671.998 461.897 691.941C450.773 711.884 426.173 707.612 411.192 720.815C396.739 733.552 385.082 770.15 368.288 774.379C351.494 778.608 338.717 748.162 323.962 742.779C308.666 737.198 284.415 753.771 272.72 739.572C261.026 725.375 267.381 687.075 260.726 666.005Z" fill="url(#paint22_radial_3196_31473)"/>
<defs>
<radialGradient id="paint0_radial_3196_31473" cx="0" cy="0" r="1" gradientUnits="userSpaceOnUse" gradientTransform="translate(228.62 343.17) rotate(116.123) scale(376.251 84.1307)">
<stop stop-color="#FFB6D5"/>
<stop offset="0.1" stop-color="#FFE3C0"/>
<stop offset="0.29" stop-color="#C7FBDB"/>
<stop offset="0.43" stop-color="#C7CDF4"/>
<stop offset="0.54" stop-color="#FFBCD4"/>
<stop offset="0.66" stop-color="#FFE0C3"/>
<stop offset="0.76" stop-color="#B0F1D4"/>
<stop offset="0.84" stop-color="#C9CEEC"/>
<stop offset="0.91" stop-color="#FFC1DA"/>
<stop offset="1" stop-color="#BDFFE3"/>
</radialGradient>
<radialGradient id="paint1_radial_3196_31473" cx="0" cy="0" r="1" gradientUnits="userSpaceOnUse" gradientTransform="translate(441.851 287.673) rotate(91.8897) scale(281.17 105.873)">
<stop stop-color="#FFB6D5"/>
<stop offset="0.1" stop-color="#FFE3C0"/>
<stop offset="0.29" stop-color="#C7FBDB"/>
<stop offset="0.43" stop-color="#C7CDF4"/>
<stop offset="0.54" stop-color="#FFBCD4"/>
<stop offset="0.66" stop-color="#FFE0C3"/>
<stop offset="0.76" stop-color="#B0F1D4"/>
<stop offset="0.84" stop-color="#C9CEEC"/>
<stop offset="0.91" stop-color="#FFC1DA"/>
<stop offset="1" stop-color="#BDFFE3"/>
</radialGradient>
<radialGradient id="paint2_radial_3196_31473" cx="0" cy="0" r="1" gradientUnits="userSpaceOnUse" gradientTransform="translate(364.996 202.733) rotate(124.122) scale(44.4168 3.87814)">
<stop stop-color="#FFB6D5"/>
<stop offset="0.1" stop-color="#FFE3C0"/>
<stop offset="0.29" stop-color="#C7FBDB"/>
<stop offset="0.43" stop-color="#C7CDF4"/>
<stop offset="0.54" stop-color="#FFBCD4"/>
<stop offset="0.66" stop-color="#FFE0C3"/>
<stop offset="0.76" stop-color="#B0F1D4"/>
<stop offset="0.84" stop-color="#C9CEEC"/>
<stop offset="0.91" stop-color="#FFC1DA"/>
<stop offset="1" stop-color="#BDFFE3"/>
</radialGradient>
<radialGradient id="paint3_radial_3196_31473" cx="0" cy="0" r="1" gradientUnits="userSpaceOnUse" gradientTransform="translate(349.116 218.494) rotate(126.366) scale(43.3127 1.89002)">
<stop stop-color="#FFB6D5"/>
<stop offset="0.1" stop-color="#FFE3C0"/>
<stop offset="0.29" stop-color="#C7FBDB"/>
<stop offset="0.43" stop-color="#C7CDF4"/>
<stop offset="0.54" stop-color="#FFBCD4"/>
<stop offset="0.66" stop-color="#FFE0C3"/>
<stop offset="0.76" stop-color="#B0F1D4"/>
<stop offset="0.84" stop-color="#C9CEEC"/>
<stop offset="0.91" stop-color="#FFC1DA"/>
<stop offset="1" stop-color="#BDFFE3"/>
</radialGradient>
<radialGradient id="paint4_radial_3196_31473" cx="0" cy="0" r="1" gradientUnits="userSpaceOnUse" gradientTransform="translate(415.677 299.404) rotate(95.7974) scale(279.073 106.664)">
<stop stop-color="#FFB6D5"/>
<stop offset="0.1" stop-color="#FFE3C0"/>
<stop offset="0.29" stop-color="#C7FBDB"/>
<stop offset="0.43" stop-color="#C7CDF4"/>
<stop offset="0.54" stop-color="#FFBCD4"/>
<stop offset="0.66" stop-color="#FFE0C3"/>
<stop offset="0.76" stop-color="#B0F1D4"/>
<stop offset="0.84" stop-color="#C9CEEC"/>
<stop offset="0.91" stop-color="#FFC1DA"/>
<stop offset="1" stop-color="#BDFFE3"/>
</radialGradient>
<radialGradient id="paint5_radial_3196_31473" cx="0" cy="0" r="1" gradientUnits="userSpaceOnUse" gradientTransform="translate(216.821 370.818) rotate(118.205) scale(354.382 67.8308)">
<stop stop-color="#FFB6D5"/>
<stop offset="0.1" stop-color="#FFE3C0"/>
<stop offset="0.29" stop-color="#C7FBDB"/>
<stop offset="0.43" stop-color="#C7CDF4"/>
<stop offset="0.54" stop-color="#FFBCD4"/>
<stop offset="0.66" stop-color="#FFE0C3"/>
<stop offset="0.76" stop-color="#B0F1D4"/>
<stop offset="0.84" stop-color="#C9CEEC"/>
<stop offset="0.91" stop-color="#FFC1DA"/>
<stop offset="1" stop-color="#BDFFE3"/>
</radialGradient>
<radialGradient id="paint6_radial_3196_31473" cx="0" cy="0" r="1" gradientUnits="userSpaceOnUse" gradientTransform="translate(334.718 235.47) rotate(126.938) scale(41.3095 1.32928)">
<stop stop-color="#FFB6D5"/>
<stop offset="0.1" stop-color="#FFE3C0"/>
<stop offset="0.29" stop-color="#C7FBDB"/>
<stop offset="0.43" stop-color="#C7CDF4"/>
<stop offset="0.54" stop-color="#FFBCD4"/>
<stop offset="0.66" stop-color="#FFE0C3"/>
<stop offset="0.76" stop-color="#B0F1D4"/>
<stop offset="0.84" stop-color="#C9CEEC"/>
<stop offset="0.91" stop-color="#FFC1DA"/>
<stop offset="1" stop-color="#BDFFE3"/>
</radialGradient>
<radialGradient id="paint7_radial_3196_31473" cx="0" cy="0" r="1" gradientUnits="userSpaceOnUse" gradientTransform="translate(343.531 227.322) rotate(126.449) scale(44.4397 1.86518)">
<stop stop-color="#FFB6D5"/>
<stop offset="0.1" stop-color="#FFE3C0"/>
<stop offset="0.29" stop-color="#C7FBDB"/>
<stop offset="0.43" stop-color="#C7CDF4"/>
<stop offset="0.54" stop-color="#FFBCD4"/>
<stop offset="0.66" stop-color="#FFE0C3"/>
<stop offset="0.76" stop-color="#B0F1D4"/>
<stop offset="0.84" stop-color="#C9CEEC"/>
<stop offset="0.91" stop-color="#FFC1DA"/>
<stop offset="1" stop-color="#BDFFE3"/>
</radialGradient>
<radialGradient id="paint8_radial_3196_31473" cx="0" cy="0" r="1" gradientUnits="userSpaceOnUse" gradientTransform="translate(319.432 256.894) rotate(125.676) scale(22.4897 1.28815)">
<stop stop-color="#FFB6D5"/>
<stop offset="0.1" stop-color="#FFE3C0"/>
<stop offset="0.29" stop-color="#C7FBDB"/>
<stop offset="0.43" stop-color="#C7CDF4"/>
<stop offset="0.54" stop-color="#FFBCD4"/>
<stop offset="0.66" stop-color="#FFE0C3"/>
<stop offset="0.76" stop-color="#B0F1D4"/>
<stop offset="0.84" stop-color="#C9CEEC"/>
<stop offset="0.91" stop-color="#FFC1DA"/>
<stop offset="1" stop-color="#BDFFE3"/>
</radialGradient>
<radialGradient id="paint9_radial_3196_31473" cx="0" cy="0" r="1" gradientUnits="userSpaceOnUse" gradientTransform="translate(327.114 246.239) rotate(125.961) scale(31.7958 1.64251)">
<stop stop-color="#FFB6D5"/>
<stop offset="0.1" stop-color="#FFE3C0"/>
<stop offset="0.29" stop-color="#C7FBDB"/>
<stop offset="0.43" stop-color="#C7CDF4"/>
<stop offset="0.54" stop-color="#FFBCD4"/>
<stop offset="0.66" stop-color="#FFE0C3"/>
<stop offset="0.76" stop-color="#B0F1D4"/>
<stop offset="0.84" stop-color="#C9CEEC"/>
<stop offset="0.91" stop-color="#FFC1DA"/>
<stop offset="1" stop-color="#BDFFE3"/>
</radialGradient>
<radialGradient id="paint10_radial_3196_31473" cx="0" cy="0" r="1" gradientUnits="userSpaceOnUse" gradientTransform="translate(336.867 234.084) rotate(124.903) scale(13.7855 0.997385)">
<stop stop-color="#FFB6D5"/>
<stop offset="0.1" stop-color="#FFE3C0"/>
<stop offset="0.29" stop-color="#C7FBDB"/>
<stop offset="0.43" stop-color="#C7CDF4"/>
<stop offset="0.54" stop-color="#FFBCD4"/>
<stop offset="0.66" stop-color="#FFE0C3"/>
<stop offset="0.76" stop-color="#B0F1D4"/>
<stop offset="0.84" stop-color="#C9CEEC"/>
<stop offset="0.91" stop-color="#FFC1DA"/>
<stop offset="1" stop-color="#BDFFE3"/>
</radialGradient>
<radialGradient id="paint11_radial_3196_31473" cx="0" cy="0" r="1" gradientUnits="userSpaceOnUse" gradientTransform="translate(383.097 325.004) rotate(102.128) scale(311.19 113.835)">
<stop stop-color="#FFB6D5"/>
<stop offset="0.1" stop-color="#FFE3C0"/>
<stop offset="0.29" stop-color="#C7FBDB"/>
<stop offset="0.43" stop-color="#C7CDF4"/>
<stop offset="0.54" stop-color="#FFBCD4"/>
<stop offset="0.66" stop-color="#FFE0C3"/>
<stop offset="0.76" stop-color="#B0F1D4"/>
<stop offset="0.84" stop-color="#C9CEEC"/>
<stop offset="0.91" stop-color="#FFC1DA"/>
<stop offset="1" stop-color="#BDFFE3"/>
</radialGradient>
<radialGradient id="paint12_radial_3196_31473" cx="0" cy="0" r="1" gradientUnits="userSpaceOnUse" gradientTransform="translate(202.25 409.359) rotate(120.809) scale(363.201 53.6646)">
<stop stop-color="#FFB6D5"/>
<stop offset="0.1" stop-color="#FFE3C0"/>
<stop offset="0.29" stop-color="#C7FBDB"/>
<stop offset="0.43" stop-color="#C7CDF4"/>
<stop offset="0.54" stop-color="#FFBCD4"/>
<stop offset="0.66" stop-color="#FFE0C3"/>
<stop offset="0.76" stop-color="#B0F1D4"/>
<stop offset="0.84" stop-color="#C9CEEC"/>
<stop offset="0.91" stop-color="#FFC1DA"/>
<stop offset="1" stop-color="#BDFFE3"/>
</radialGradient>
<radialGradient id="paint13_radial_3196_31473" cx="0" cy="0" r="1" gradientUnits="userSpaceOnUse" gradientTransform="translate(315.257 263.285) rotate(125.045) scale(12.0189 0.836481)">
<stop stop-color="#FFB6D5"/>
<stop offset="0.1" stop-color="#FFE3C0"/>
<stop offset="0.29" stop-color="#C7FBDB"/>
<stop offset="0.43" stop-color="#C7CDF4"/>
<stop offset="0.54" stop-color="#FFBCD4"/>
<stop offset="0.66" stop-color="#FFE0C3"/>
<stop offset="0.76" stop-color="#B0F1D4"/>
<stop offset="0.84" stop-color="#C9CEEC"/>
<stop offset="0.91" stop-color="#FFC1DA"/>
<stop offset="1" stop-color="#BDFFE3"/>
</radialGradient>
<radialGradient id="paint14_radial_3196_31473" cx="0" cy="0" r="1" gradientUnits="userSpaceOnUse" gradientTransform="translate(306.141 279.229) rotate(123.522) scale(18.5731 1.83208)">
<stop stop-color="#FFB6D5"/>
<stop offset="0.1" stop-color="#FFE3C0"/>
<stop offset="0.29" stop-color="#C7FBDB"/>
<stop offset="0.43" stop-color="#C7CDF4"/>
<stop offset="0.54" stop-color="#FFBCD4"/>
<stop offset="0.66" stop-color="#FFE0C3"/>
<stop offset="0.76" stop-color="#B0F1D4"/>
<stop offset="0.84" stop-color="#C9CEEC"/>
<stop offset="0.91" stop-color="#FFC1DA"/>
<stop offset="1" stop-color="#BDFFE3"/>
</radialGradient>
<radialGradient id="paint15_radial_3196_31473" cx="0" cy="0" r="1" gradientUnits="userSpaceOnUse" gradientTransform="translate(312.057 269.387) rotate(124.595) scale(29.9249 2.34238)">
<stop stop-color="#FFB6D5"/>
<stop offset="0.1" stop-color="#FFE3C0"/>
<stop offset="0.29" stop-color="#C7FBDB"/>
<stop offset="0.43" stop-color="#C7CDF4"/>
<stop offset="0.54" stop-color="#FFBCD4"/>
<stop offset="0.66" stop-color="#FFE0C3"/>
<stop offset="0.76" stop-color="#B0F1D4"/>
<stop offset="0.84" stop-color="#C9CEEC"/>
<stop offset="0.91" stop-color="#FFC1DA"/>
<stop offset="1" stop-color="#BDFFE3"/>
</radialGradient>
<radialGradient id="paint16_radial_3196_31473" cx="0" cy="0" r="1" gradientUnits="userSpaceOnUse" gradientTransform="translate(320.62 256.175) rotate(126.129) scale(18.3197 0.885663)">
<stop stop-color="#FFB6D5"/>
<stop offset="0.1" stop-color="#FFE3C0"/>
<stop offset="0.29" stop-color="#C7FBDB"/>
<stop offset="0.43" stop-color="#C7CDF4"/>
<stop offset="0.54" stop-color="#FFBCD4"/>
<stop offset="0.66" stop-color="#FFE0C3"/>
<stop offset="0.76" stop-color="#B0F1D4"/>
<stop offset="0.84" stop-color="#C9CEEC"/>
<stop offset="0.91" stop-color="#FFC1DA"/>
<stop offset="1" stop-color="#BDFFE3"/>
</radialGradient>
<radialGradient id="paint17_radial_3196_31473" cx="0" cy="0" r="1" gradientUnits="userSpaceOnUse" gradientTransform="translate(308.926 847.39) rotate(104.991) scale(1362.76 474.469)">
<stop stop-color="#FFB6D5"/>
<stop offset="0.1" stop-color="#FFE3C0"/>
<stop offset="0.29" stop-color="#C7FBDB"/>
<stop offset="0.43" stop-color="#C7CDF4"/>
<stop offset="0.54" stop-color="#FFBCD4"/>
<stop offset="0.66" stop-color="#FFE0C3"/>
<stop offset="0.76" stop-color="#B0F1D4"/>
<stop offset="0.84" stop-color="#C9CEEC"/>
<stop offset="0.91" stop-color="#FFC1DA"/>
<stop offset="1" stop-color="#BDFFE3"/>
</radialGradient>
<radialGradient id="paint18_radial_3196_31473" cx="0" cy="0" r="1" gradientUnits="userSpaceOnUse" gradientTransform="translate(312.51 829.917) rotate(104.991) scale(1275.61 444.125)">
<stop stop-color="#FFB6D5"/>
<stop offset="0.1" stop-color="#FFE3C0"/>
<stop offset="0.29" stop-color="#C7FBDB"/>
<stop offset="0.43" stop-color="#C7CDF4"/>
<stop offset="0.54" stop-color="#FFBCD4"/>
<stop offset="0.66" stop-color="#FFE0C3"/>
<stop offset="0.76" stop-color="#B0F1D4"/>
<stop offset="0.84" stop-color="#C9CEEC"/>
<stop offset="0.91" stop-color="#FFC1DA"/>
<stop offset="1" stop-color="#BDFFE3"/>
</radialGradient>
<radialGradient id="paint19_radial_3196_31473" cx="0" cy="0" r="1" gradientUnits="userSpaceOnUse" gradientTransform="translate(315.236 816.639) rotate(104.991) scale(1209.35 421.057)">
<stop stop-color="#FFB6D5"/>
<stop offset="0.1" stop-color="#FFE3C0"/>
<stop offset="0.29" stop-color="#C7FBDB"/>
<stop offset="0.43" stop-color="#C7CDF4"/>
<stop offset="0.54" stop-color="#FFBCD4"/>
<stop offset="0.66" stop-color="#FFE0C3"/>
<stop offset="0.76" stop-color="#B0F1D4"/>
<stop offset="0.84" stop-color="#C9CEEC"/>
<stop offset="0.91" stop-color="#FFC1DA"/>
<stop offset="1" stop-color="#BDFFE3"/>
</radialGradient>
<radialGradient id="paint20_radial_3196_31473" cx="0" cy="0" r="1" gradientUnits="userSpaceOnUse" gradientTransform="translate(318.7 799.735) rotate(104.991) scale(1125.02 391.696)">
<stop stop-color="#FFB6D5"/>
<stop offset="0.1" stop-color="#FFE3C0"/>
<stop offset="0.29" stop-color="#C7FBDB"/>
<stop offset="0.43" stop-color="#C7CDF4"/>
<stop offset="0.54" stop-color="#FFBCD4"/>
<stop offset="0.66" stop-color="#FFE0C3"/>
<stop offset="0.76" stop-color="#B0F1D4"/>
<stop offset="0.84" stop-color="#C9CEEC"/>
<stop offset="0.91" stop-color="#FFC1DA"/>
<stop offset="1" stop-color="#BDFFE3"/>
</radialGradient>
<radialGradient id="paint21_radial_3196_31473" cx="0" cy="0" r="1" gradientUnits="userSpaceOnUse" gradientTransform="translate(322.779 779.839) rotate(104.991) scale(1025.76 357.135)">
<stop stop-color="#FFB6D5"/>
<stop offset="0.1" stop-color="#FFE3C0"/>
<stop offset="0.29" stop-color="#C7FBDB"/>
<stop offset="0.43" stop-color="#C7CDF4"/>
<stop offset="0.54" stop-color="#FFBCD4"/>
<stop offset="0.66" stop-color="#FFE0C3"/>
<stop offset="0.76" stop-color="#B0F1D4"/>
<stop offset="0.84" stop-color="#C9CEEC"/>
<stop offset="0.91" stop-color="#FFC1DA"/>
<stop offset="1" stop-color="#BDFFE3"/>
</radialGradient>
<radialGradient id="paint22_radial_3196_31473" cx="0" cy="0" r="1" gradientUnits="userSpaceOnUse" gradientTransform="translate(327.331 757.65) rotate(104.991) scale(915.061 318.595)">
<stop stop-color="#FFB6D5"/>
<stop offset="0.1" stop-color="#FFE3C0"/>
<stop offset="0.29" stop-color="#C7FBDB"/>
<stop offset="0.43" stop-color="#C7CDF4"/>
<stop offset="0.54" stop-color="#FFBCD4"/>
<stop offset="0.66" stop-color="#FFE0C3"/>
<stop offset="0.76" stop-color="#B0F1D4"/>
<stop offset="0.84" stop-color="#C9CEEC"/>
<stop offset="0.91" stop-color="#FFC1DA"/>
<stop offset="1" stop-color="#BDFFE3"/>
</radialGradient>
</defs>
</svg>
