<svg width="38" height="30" viewBox="0 0 38 30" fill="none" xmlns="http://www.w3.org/2000/svg">
<mask id="path-1-outside-1_2970_27346" maskUnits="userSpaceOnUse" x="-0.568359" y="-0.654297" width="39" height="31" fill="black">
<rect fill="white" x="-0.568359" y="-0.654297" width="39" height="31"/>
<path d="M0.431641 22.4572C0.505692 22.0649 0.579743 21.6685 0.649896 21.2762C0.87205 20.0093 1.06302 18.7383 1.31636 17.4837C1.62425 15.9757 1.97892 14.4759 2.32579 12.9761C2.79738 10.9491 3.44825 8.98345 4.21604 7.05863C4.59019 6.11869 5.01891 5.20736 5.38527 4.26334C5.56065 3.80564 5.89193 3.56452 6.26219 3.33976C8.22649 2.16279 10.3194 1.30868 12.4942 0.687506C13.1061 0.51178 13.7491 0.430046 14.3844 0.368746C14.8794 0.319706 15.0587 0.564906 15.0937 1.08391C15.1171 1.41493 15.1951 1.74595 15.2613 2.13827C16.0057 2.08923 16.7579 2.03202 17.5102 1.99524C18.0675 1.96663 18.6248 1.95029 19.1821 1.96663C20.3007 2.00341 21.4232 2.05654 22.5417 2.12193C22.8886 2.14236 22.9743 1.98298 22.9821 1.66831C22.986 1.41902 23.0094 1.16973 23.0601 0.924533C23.1458 0.51178 23.4537 0.274753 23.8513 0.36466C24.8997 0.601686 25.9676 0.7815 26.9731 1.14521C28.3606 1.64787 29.7052 2.28131 31.0576 2.89022C31.5175 3.09864 31.993 3.33567 32.371 3.67078C32.6516 3.92006 32.827 4.32873 32.9829 4.70062C33.5364 6.04513 34.0859 7.38965 34.5926 8.75459C35.337 10.7652 35.867 12.8454 36.3191 14.95C36.6153 16.3354 36.9349 17.7167 37.1843 19.1102C37.4026 20.3199 37.4961 21.55 37.7222 22.7596C37.8196 23.2868 37.6481 23.5892 37.3247 23.908C36.171 25.0563 34.916 26.0453 33.513 26.8463C32.0943 27.6554 30.5821 28.1785 29.0426 28.6362C28.2826 28.861 27.4915 28.9591 26.712 29.1021C26.3456 29.1716 26.0767 29.049 25.8857 28.6771C25.4609 27.8516 24.9776 27.0547 24.5606 26.221C24.3345 25.7715 24.0111 26.0535 23.7577 26.0698C22.8925 26.127 22.0312 26.2946 21.162 26.3436C19.9928 26.409 18.8158 26.4499 17.6427 26.4172C16.6683 26.3886 15.694 26.2292 14.7235 26.127C14.4195 26.0943 14.1116 26.0576 13.7686 26.0208C13.3711 26.7319 12.9385 27.4511 12.5526 28.2031C11.9251 29.4291 11.777 29.1798 10.8806 29.004C9.66074 28.767 8.45644 28.4237 7.27552 28.0232C5.46321 27.4062 3.78343 26.4989 2.3141 25.2116C1.66323 24.6477 1.05523 24.0387 0.431641 23.4503C0.431641 23.1192 0.431641 22.7882 0.431641 22.4572ZM12.576 25.6979C12.4396 25.6775 12.3539 25.6775 12.2759 25.653C11.0677 25.2729 9.89848 24.7989 8.79161 24.1654C7.87182 23.6423 6.991 23.0579 6.2349 22.2937C5.9387 21.9954 5.92311 21.6603 6.16085 21.3824C6.34793 21.1658 6.79613 21.1699 7.04947 21.4028C8.42136 22.6615 10.0115 23.5116 11.7225 24.1409C12.7475 24.5169 13.7959 24.7989 14.8833 24.9051C15.7992 24.995 16.7112 25.183 17.6232 25.1912C19.0574 25.2075 20.4956 25.1421 21.9259 25.0441C22.7756 24.9868 23.6252 24.852 24.4554 24.664C26.9263 24.1082 29.2102 23.1192 31.1394 21.3497C31.385 21.1249 31.8293 21.1944 32.0475 21.456C32.2385 21.6889 32.219 21.9913 31.9462 22.2529C31.6188 22.5635 31.2836 22.87 30.9251 23.1356C29.3115 24.3412 27.5148 25.1258 25.6129 25.6979C25.9715 26.3477 26.3261 27.0057 26.7003 27.6514C26.747 27.7331 26.9029 27.8107 26.9848 27.7903C27.9475 27.5574 28.9101 27.3203 29.8611 27.0506C31.1472 26.6828 32.3671 26.1311 33.513 25.4159C34.577 24.7498 35.5747 23.9815 36.4438 23.0457C36.5062 22.9803 36.5413 22.8536 36.5335 22.7596C36.4945 22.2733 36.4633 21.787 36.3776 21.3088C36.1281 19.9235 35.8904 18.5381 35.5825 17.165C35.1343 15.1707 34.6822 13.1764 34.1444 11.2066C33.5636 9.09379 32.7452 7.07089 31.8488 5.08476C31.6851 4.71696 31.4512 4.50854 31.1278 4.32464C28.9257 3.09864 26.6379 2.1301 24.1436 1.66013C24.1436 1.78682 24.1825 1.92168 24.1358 2.0075C23.9448 2.35895 24.202 2.42434 24.4125 2.48155C26.5249 3.06186 28.5243 3.90372 30.3171 5.24006C30.6445 5.48526 30.738 5.81219 30.5431 6.13095C30.36 6.42928 30.0053 6.4538 29.6584 6.24538C28.8322 5.7468 28.0215 5.20736 27.1563 4.79461C25.2777 3.89554 23.3095 3.29072 21.2283 3.26211C19.6187 3.23759 18.009 3.31115 16.3955 3.3275C15.4484 3.33976 14.5286 3.49505 13.6283 3.78929C12.35 4.20613 11.0755 4.6434 9.91018 5.36266C9.423 5.66098 8.94361 5.98383 8.45254 6.27807C8.23039 6.41293 8.00044 6.48649 7.77049 6.24538C7.39634 5.84897 7.48208 5.48934 8.03551 5.08476C9.80494 3.79746 11.7887 3.02917 13.8427 2.42434C14.0843 2.35078 14.096 2.22409 14.0726 2.04428C14.0531 1.90533 13.9986 1.77456 13.9596 1.65605C13.7764 1.68057 13.6244 1.69283 13.4763 1.72961C11.2197 2.30174 9.06833 3.14768 7.02998 4.31647C6.71039 4.50037 6.49603 4.72922 6.34403 5.06433C5.28393 7.41417 4.39142 9.83347 3.72886 12.3386C3.28845 14.0141 2.90261 15.7101 2.55963 17.4102C2.22056 19.102 1.99061 20.8184 1.65933 22.5144C1.58918 22.8822 1.72948 23.0171 1.92046 23.2132C2.97276 24.3003 4.16148 25.1748 5.46711 25.8941C6.6948 26.5725 8.00433 27.0138 9.32946 27.4021C10.0076 27.6023 10.7091 27.7086 11.3756 27.8557C11.7926 27.1037 12.1746 26.4213 12.5799 25.6857L12.576 25.6979Z"/>
</mask>
<path d="M0.431641 22.4572C0.505692 22.0649 0.579743 21.6685 0.649896 21.2762C0.87205 20.0093 1.06302 18.7383 1.31636 17.4837C1.62425 15.9757 1.97892 14.4759 2.32579 12.9761C2.79738 10.9491 3.44825 8.98345 4.21604 7.05863C4.59019 6.11869 5.01891 5.20736 5.38527 4.26334C5.56065 3.80564 5.89193 3.56452 6.26219 3.33976C8.22649 2.16279 10.3194 1.30868 12.4942 0.687506C13.1061 0.51178 13.7491 0.430046 14.3844 0.368746C14.8794 0.319706 15.0587 0.564906 15.0937 1.08391C15.1171 1.41493 15.1951 1.74595 15.2613 2.13827C16.0057 2.08923 16.7579 2.03202 17.5102 1.99524C18.0675 1.96663 18.6248 1.95029 19.1821 1.96663C20.3007 2.00341 21.4232 2.05654 22.5417 2.12193C22.8886 2.14236 22.9743 1.98298 22.9821 1.66831C22.986 1.41902 23.0094 1.16973 23.0601 0.924533C23.1458 0.51178 23.4537 0.274753 23.8513 0.36466C24.8997 0.601686 25.9676 0.7815 26.9731 1.14521C28.3606 1.64787 29.7052 2.28131 31.0576 2.89022C31.5175 3.09864 31.993 3.33567 32.371 3.67078C32.6516 3.92006 32.827 4.32873 32.9829 4.70062C33.5364 6.04513 34.0859 7.38965 34.5926 8.75459C35.337 10.7652 35.867 12.8454 36.3191 14.95C36.6153 16.3354 36.9349 17.7167 37.1843 19.1102C37.4026 20.3199 37.4961 21.55 37.7222 22.7596C37.8196 23.2868 37.6481 23.5892 37.3247 23.908C36.171 25.0563 34.916 26.0453 33.513 26.8463C32.0943 27.6554 30.5821 28.1785 29.0426 28.6362C28.2826 28.861 27.4915 28.9591 26.712 29.1021C26.3456 29.1716 26.0767 29.049 25.8857 28.6771C25.4609 27.8516 24.9776 27.0547 24.5606 26.221C24.3345 25.7715 24.0111 26.0535 23.7577 26.0698C22.8925 26.127 22.0312 26.2946 21.162 26.3436C19.9928 26.409 18.8158 26.4499 17.6427 26.4172C16.6683 26.3886 15.694 26.2292 14.7235 26.127C14.4195 26.0943 14.1116 26.0576 13.7686 26.0208C13.3711 26.7319 12.9385 27.4511 12.5526 28.2031C11.9251 29.4291 11.777 29.1798 10.8806 29.004C9.66074 28.767 8.45644 28.4237 7.27552 28.0232C5.46321 27.4062 3.78343 26.4989 2.3141 25.2116C1.66323 24.6477 1.05523 24.0387 0.431641 23.4503C0.431641 23.1192 0.431641 22.7882 0.431641 22.4572ZM12.576 25.6979C12.4396 25.6775 12.3539 25.6775 12.2759 25.653C11.0677 25.2729 9.89848 24.7989 8.79161 24.1654C7.87182 23.6423 6.991 23.0579 6.2349 22.2937C5.9387 21.9954 5.92311 21.6603 6.16085 21.3824C6.34793 21.1658 6.79613 21.1699 7.04947 21.4028C8.42136 22.6615 10.0115 23.5116 11.7225 24.1409C12.7475 24.5169 13.7959 24.7989 14.8833 24.9051C15.7992 24.995 16.7112 25.183 17.6232 25.1912C19.0574 25.2075 20.4956 25.1421 21.9259 25.0441C22.7756 24.9868 23.6252 24.852 24.4554 24.664C26.9263 24.1082 29.2102 23.1192 31.1394 21.3497C31.385 21.1249 31.8293 21.1944 32.0475 21.456C32.2385 21.6889 32.219 21.9913 31.9462 22.2529C31.6188 22.5635 31.2836 22.87 30.9251 23.1356C29.3115 24.3412 27.5148 25.1258 25.6129 25.6979C25.9715 26.3477 26.3261 27.0057 26.7003 27.6514C26.747 27.7331 26.9029 27.8107 26.9848 27.7903C27.9475 27.5574 28.9101 27.3203 29.8611 27.0506C31.1472 26.6828 32.3671 26.1311 33.513 25.4159C34.577 24.7498 35.5747 23.9815 36.4438 23.0457C36.5062 22.9803 36.5413 22.8536 36.5335 22.7596C36.4945 22.2733 36.4633 21.787 36.3776 21.3088C36.1281 19.9235 35.8904 18.5381 35.5825 17.165C35.1343 15.1707 34.6822 13.1764 34.1444 11.2066C33.5636 9.09379 32.7452 7.07089 31.8488 5.08476C31.6851 4.71696 31.4512 4.50854 31.1278 4.32464C28.9257 3.09864 26.6379 2.1301 24.1436 1.66013C24.1436 1.78682 24.1825 1.92168 24.1358 2.0075C23.9448 2.35895 24.202 2.42434 24.4125 2.48155C26.5249 3.06186 28.5243 3.90372 30.3171 5.24006C30.6445 5.48526 30.738 5.81219 30.5431 6.13095C30.36 6.42928 30.0053 6.4538 29.6584 6.24538C28.8322 5.7468 28.0215 5.20736 27.1563 4.79461C25.2777 3.89554 23.3095 3.29072 21.2283 3.26211C19.6187 3.23759 18.009 3.31115 16.3955 3.3275C15.4484 3.33976 14.5286 3.49505 13.6283 3.78929C12.35 4.20613 11.0755 4.6434 9.91018 5.36266C9.423 5.66098 8.94361 5.98383 8.45254 6.27807C8.23039 6.41293 8.00044 6.48649 7.77049 6.24538C7.39634 5.84897 7.48208 5.48934 8.03551 5.08476C9.80494 3.79746 11.7887 3.02917 13.8427 2.42434C14.0843 2.35078 14.096 2.22409 14.0726 2.04428C14.0531 1.90533 13.9986 1.77456 13.9596 1.65605C13.7764 1.68057 13.6244 1.69283 13.4763 1.72961C11.2197 2.30174 9.06833 3.14768 7.02998 4.31647C6.71039 4.50037 6.49603 4.72922 6.34403 5.06433C5.28393 7.41417 4.39142 9.83347 3.72886 12.3386C3.28845 14.0141 2.90261 15.7101 2.55963 17.4102C2.22056 19.102 1.99061 20.8184 1.65933 22.5144C1.58918 22.8822 1.72948 23.0171 1.92046 23.2132C2.97276 24.3003 4.16148 25.1748 5.46711 25.8941C6.6948 26.5725 8.00433 27.0138 9.32946 27.4021C10.0076 27.6023 10.7091 27.7086 11.3756 27.8557C11.7926 27.1037 12.1746 26.4213 12.5799 25.6857L12.576 25.6979Z" fill="url(#paint0_radial_2970_27346)"/>
<path d="M0.431641 22.4572C0.505692 22.0649 0.579743 21.6685 0.649896 21.2762C0.87205 20.0093 1.06302 18.7383 1.31636 17.4837C1.62425 15.9757 1.97892 14.4759 2.32579 12.9761C2.79738 10.9491 3.44825 8.98345 4.21604 7.05863C4.59019 6.11869 5.01891 5.20736 5.38527 4.26334C5.56065 3.80564 5.89193 3.56452 6.26219 3.33976C8.22649 2.16279 10.3194 1.30868 12.4942 0.687506C13.1061 0.51178 13.7491 0.430046 14.3844 0.368746C14.8794 0.319706 15.0587 0.564906 15.0937 1.08391C15.1171 1.41493 15.1951 1.74595 15.2613 2.13827C16.0057 2.08923 16.7579 2.03202 17.5102 1.99524C18.0675 1.96663 18.6248 1.95029 19.1821 1.96663C20.3007 2.00341 21.4232 2.05654 22.5417 2.12193C22.8886 2.14236 22.9743 1.98298 22.9821 1.66831C22.986 1.41902 23.0094 1.16973 23.0601 0.924533C23.1458 0.51178 23.4537 0.274753 23.8513 0.36466C24.8997 0.601686 25.9676 0.7815 26.9731 1.14521C28.3606 1.64787 29.7052 2.28131 31.0576 2.89022C31.5175 3.09864 31.993 3.33567 32.371 3.67078C32.6516 3.92006 32.827 4.32873 32.9829 4.70062C33.5364 6.04513 34.0859 7.38965 34.5926 8.75459C35.337 10.7652 35.867 12.8454 36.3191 14.95C36.6153 16.3354 36.9349 17.7167 37.1843 19.1102C37.4026 20.3199 37.4961 21.55 37.7222 22.7596C37.8196 23.2868 37.6481 23.5892 37.3247 23.908C36.171 25.0563 34.916 26.0453 33.513 26.8463C32.0943 27.6554 30.5821 28.1785 29.0426 28.6362C28.2826 28.861 27.4915 28.9591 26.712 29.1021C26.3456 29.1716 26.0767 29.049 25.8857 28.6771C25.4609 27.8516 24.9776 27.0547 24.5606 26.221C24.3345 25.7715 24.0111 26.0535 23.7577 26.0698C22.8925 26.127 22.0312 26.2946 21.162 26.3436C19.9928 26.409 18.8158 26.4499 17.6427 26.4172C16.6683 26.3886 15.694 26.2292 14.7235 26.127C14.4195 26.0943 14.1116 26.0576 13.7686 26.0208C13.3711 26.7319 12.9385 27.4511 12.5526 28.2031C11.9251 29.4291 11.777 29.1798 10.8806 29.004C9.66074 28.767 8.45644 28.4237 7.27552 28.0232C5.46321 27.4062 3.78343 26.4989 2.3141 25.2116C1.66323 24.6477 1.05523 24.0387 0.431641 23.4503C0.431641 23.1192 0.431641 22.7882 0.431641 22.4572ZM12.576 25.6979C12.4396 25.6775 12.3539 25.6775 12.2759 25.653C11.0677 25.2729 9.89848 24.7989 8.79161 24.1654C7.87182 23.6423 6.991 23.0579 6.2349 22.2937C5.9387 21.9954 5.92311 21.6603 6.16085 21.3824C6.34793 21.1658 6.79613 21.1699 7.04947 21.4028C8.42136 22.6615 10.0115 23.5116 11.7225 24.1409C12.7475 24.5169 13.7959 24.7989 14.8833 24.9051C15.7992 24.995 16.7112 25.183 17.6232 25.1912C19.0574 25.2075 20.4956 25.1421 21.9259 25.0441C22.7756 24.9868 23.6252 24.852 24.4554 24.664C26.9263 24.1082 29.2102 23.1192 31.1394 21.3497C31.385 21.1249 31.8293 21.1944 32.0475 21.456C32.2385 21.6889 32.219 21.9913 31.9462 22.2529C31.6188 22.5635 31.2836 22.87 30.9251 23.1356C29.3115 24.3412 27.5148 25.1258 25.6129 25.6979C25.9715 26.3477 26.3261 27.0057 26.7003 27.6514C26.747 27.7331 26.9029 27.8107 26.9848 27.7903C27.9475 27.5574 28.9101 27.3203 29.8611 27.0506C31.1472 26.6828 32.3671 26.1311 33.513 25.4159C34.577 24.7498 35.5747 23.9815 36.4438 23.0457C36.5062 22.9803 36.5413 22.8536 36.5335 22.7596C36.4945 22.2733 36.4633 21.787 36.3776 21.3088C36.1281 19.9235 35.8904 18.5381 35.5825 17.165C35.1343 15.1707 34.6822 13.1764 34.1444 11.2066C33.5636 9.09379 32.7452 7.07089 31.8488 5.08476C31.6851 4.71696 31.4512 4.50854 31.1278 4.32464C28.9257 3.09864 26.6379 2.1301 24.1436 1.66013C24.1436 1.78682 24.1825 1.92168 24.1358 2.0075C23.9448 2.35895 24.202 2.42434 24.4125 2.48155C26.5249 3.06186 28.5243 3.90372 30.3171 5.24006C30.6445 5.48526 30.738 5.81219 30.5431 6.13095C30.36 6.42928 30.0053 6.4538 29.6584 6.24538C28.8322 5.7468 28.0215 5.20736 27.1563 4.79461C25.2777 3.89554 23.3095 3.29072 21.2283 3.26211C19.6187 3.23759 18.009 3.31115 16.3955 3.3275C15.4484 3.33976 14.5286 3.49505 13.6283 3.78929C12.35 4.20613 11.0755 4.6434 9.91018 5.36266C9.423 5.66098 8.94361 5.98383 8.45254 6.27807C8.23039 6.41293 8.00044 6.48649 7.77049 6.24538C7.39634 5.84897 7.48208 5.48934 8.03551 5.08476C9.80494 3.79746 11.7887 3.02917 13.8427 2.42434C14.0843 2.35078 14.096 2.22409 14.0726 2.04428C14.0531 1.90533 13.9986 1.77456 13.9596 1.65605C13.7764 1.68057 13.6244 1.69283 13.4763 1.72961C11.2197 2.30174 9.06833 3.14768 7.02998 4.31647C6.71039 4.50037 6.49603 4.72922 6.34403 5.06433C5.28393 7.41417 4.39142 9.83347 3.72886 12.3386C3.28845 14.0141 2.90261 15.7101 2.55963 17.4102C2.22056 19.102 1.99061 20.8184 1.65933 22.5144C1.58918 22.8822 1.72948 23.0171 1.92046 23.2132C2.97276 24.3003 4.16148 25.1748 5.46711 25.8941C6.6948 26.5725 8.00433 27.0138 9.32946 27.4021C10.0076 27.6023 10.7091 27.7086 11.3756 27.8557C11.7926 27.1037 12.1746 26.4213 12.5799 25.6857L12.576 25.6979Z" stroke="url(#paint1_radial_2970_27346)" stroke-width="0.5" mask="url(#path-1-outside-1_2970_27346)"/>
<mask id="path-2-outside-2_2970_27346" maskUnits="userSpaceOnUse" x="20.292" y="11.6602" width="8" height="9" fill="black">
<rect fill="white" x="20.292" y="11.6602" width="8" height="9"/>
<path d="M27.7953 16.23C27.7875 17.975 27.238 19.1561 25.9519 19.9039C24.845 20.5496 23.6875 20.4393 22.6858 19.5933C21.6842 18.7474 21.2321 17.5949 21.2983 16.2627C21.3685 14.8487 22.109 13.3489 23.5822 12.8299C25.0321 12.3231 26.6339 12.9566 27.429 14.6566C27.6979 15.2329 27.8382 15.8295 27.7953 16.23ZM26.6183 16.3976C26.6417 15.9562 26.5053 15.4699 26.2559 14.9999C25.6206 13.8107 24.0265 13.5001 23.1496 14.5872C22.2337 15.7233 22.2064 17.2884 23.1652 18.4C23.8239 19.1642 24.4786 19.2827 25.3361 18.8455C26.2481 18.3755 26.6378 17.5459 26.6183 16.3976Z"/>
</mask>
<path d="M27.7953 16.23C27.7875 17.975 27.238 19.1561 25.9519 19.9039C24.845 20.5496 23.6875 20.4393 22.6858 19.5933C21.6842 18.7474 21.2321 17.5949 21.2983 16.2627C21.3685 14.8487 22.109 13.3489 23.5822 12.8299C25.0321 12.3231 26.6339 12.9566 27.429 14.6566C27.6979 15.2329 27.8382 15.8295 27.7953 16.23ZM26.6183 16.3976C26.6417 15.9562 26.5053 15.4699 26.2559 14.9999C25.6206 13.8107 24.0265 13.5001 23.1496 14.5872C22.2337 15.7233 22.2064 17.2884 23.1652 18.4C23.8239 19.1642 24.4786 19.2827 25.3361 18.8455C26.2481 18.3755 26.6378 17.5459 26.6183 16.3976Z" fill="url(#paint2_radial_2970_27346)"/>
<path d="M27.7953 16.23C27.7875 17.975 27.238 19.1561 25.9519 19.9039C24.845 20.5496 23.6875 20.4393 22.6858 19.5933C21.6842 18.7474 21.2321 17.5949 21.2983 16.2627C21.3685 14.8487 22.109 13.3489 23.5822 12.8299C25.0321 12.3231 26.6339 12.9566 27.429 14.6566C27.6979 15.2329 27.8382 15.8295 27.7953 16.23ZM26.6183 16.3976C26.6417 15.9562 26.5053 15.4699 26.2559 14.9999C25.6206 13.8107 24.0265 13.5001 23.1496 14.5872C22.2337 15.7233 22.2064 17.2884 23.1652 18.4C23.8239 19.1642 24.4786 19.2827 25.3361 18.8455C26.2481 18.3755 26.6378 17.5459 26.6183 16.3976Z" stroke="url(#paint3_radial_2970_27346)" stroke-width="0.5" mask="url(#path-2-outside-2_2970_27346)"/>
<mask id="path-3-outside-3_2970_27346" maskUnits="userSpaceOnUse" x="9.34668" y="11.6533" width="8" height="9" fill="black">
<rect fill="white" x="9.34668" y="11.6533" width="8" height="9"/>
<path d="M16.8435 16.5444C16.9019 17.9175 16.064 19.5521 14.6064 20.1079C13.5502 20.5084 12.6109 20.3041 11.7495 19.5971C10.6583 18.7021 10.249 17.4802 10.366 16.0907C10.4985 14.5133 11.4339 13.0094 13.1019 12.7029C14.0023 12.5394 14.8441 12.7805 15.5573 13.4221C16.4654 14.2436 16.8941 15.2857 16.8474 16.5444H16.8435ZM15.682 16.7119C15.6937 15.6494 15.4053 14.9792 14.8324 14.407C14.3452 13.9166 13.2968 13.7409 12.6693 14.1782C11.4494 15.0282 11.161 16.7569 11.9717 18.0728C12.5992 19.0904 13.6437 19.3846 14.6531 18.6776C15.4131 18.1463 15.6392 17.3576 15.6781 16.7119H15.682Z"/>
</mask>
<path d="M16.8435 16.5444C16.9019 17.9175 16.064 19.5521 14.6064 20.1079C13.5502 20.5084 12.6109 20.3041 11.7495 19.5971C10.6583 18.7021 10.249 17.4802 10.366 16.0907C10.4985 14.5133 11.4339 13.0094 13.1019 12.7029C14.0023 12.5394 14.8441 12.7805 15.5573 13.4221C16.4654 14.2436 16.8941 15.2857 16.8474 16.5444H16.8435ZM15.682 16.7119C15.6937 15.6494 15.4053 14.9792 14.8324 14.407C14.3452 13.9166 13.2968 13.7409 12.6693 14.1782C11.4494 15.0282 11.161 16.7569 11.9717 18.0728C12.5992 19.0904 13.6437 19.3846 14.6531 18.6776C15.4131 18.1463 15.6392 17.3576 15.6781 16.7119H15.682Z" fill="url(#paint4_radial_2970_27346)"/>
<path d="M16.8435 16.5444C16.9019 17.9175 16.064 19.5521 14.6064 20.1079C13.5502 20.5084 12.6109 20.3041 11.7495 19.5971C10.6583 18.7021 10.249 17.4802 10.366 16.0907C10.4985 14.5133 11.4339 13.0094 13.1019 12.7029C14.0023 12.5394 14.8441 12.7805 15.5573 13.4221C16.4654 14.2436 16.8941 15.2857 16.8474 16.5444H16.8435ZM15.682 16.7119C15.6937 15.6494 15.4053 14.9792 14.8324 14.407C14.3452 13.9166 13.2968 13.7409 12.6693 14.1782C11.4494 15.0282 11.161 16.7569 11.9717 18.0728C12.5992 19.0904 13.6437 19.3846 14.6531 18.6776C15.4131 18.1463 15.6392 17.3576 15.6781 16.7119H15.682Z" stroke="url(#paint5_radial_2970_27346)" stroke-width="0.5" mask="url(#path-3-outside-3_2970_27346)"/>
<defs>
<radialGradient id="paint0_radial_2970_27346" cx="0" cy="0" r="1" gradientUnits="userSpaceOnUse" gradientTransform="translate(32.0481 7.10621) rotate(-25.8668) scale(75.4577 35.0857)">
<stop stop-color="#FFB6D5"/>
<stop offset="0.1" stop-color="#FFE3C0"/>
<stop offset="0.29" stop-color="#C7FBDB"/>
<stop offset="0.43" stop-color="#C7CDF4"/>
<stop offset="0.54" stop-color="#FFBCD4"/>
<stop offset="0.66" stop-color="#FFE0C3"/>
<stop offset="0.76" stop-color="#B0F1D4"/>
<stop offset="0.84" stop-color="#C9CEEC"/>
<stop offset="0.91" stop-color="#FFC1DA"/>
<stop offset="1" stop-color="#BDFFE3"/>
</radialGradient>
<radialGradient id="paint1_radial_2970_27346" cx="0" cy="0" r="1" gradientUnits="userSpaceOnUse" gradientTransform="translate(32.0481 7.10621) rotate(-25.8668) scale(75.4577 35.0857)">
<stop stop-color="#FFB6D5"/>
<stop offset="0.1" stop-color="#FFE3C0"/>
<stop offset="0.29" stop-color="#C7FBDB"/>
<stop offset="0.43" stop-color="#C7CDF4"/>
<stop offset="0.54" stop-color="#FFBCD4"/>
<stop offset="0.66" stop-color="#FFE0C3"/>
<stop offset="0.76" stop-color="#B0F1D4"/>
<stop offset="0.84" stop-color="#C9CEEC"/>
<stop offset="0.91" stop-color="#FFC1DA"/>
<stop offset="1" stop-color="#BDFFE3"/>
</radialGradient>
<radialGradient id="paint2_radial_2970_27346" cx="0" cy="0" r="1" gradientUnits="userSpaceOnUse" gradientTransform="translate(26.8082 14.4577) rotate(-36.4602) scale(14.7293 8.33821)">
<stop stop-color="#FFB6D5"/>
<stop offset="0.1" stop-color="#FFE3C0"/>
<stop offset="0.29" stop-color="#C7FBDB"/>
<stop offset="0.43" stop-color="#C7CDF4"/>
<stop offset="0.54" stop-color="#FFBCD4"/>
<stop offset="0.66" stop-color="#FFE0C3"/>
<stop offset="0.76" stop-color="#B0F1D4"/>
<stop offset="0.84" stop-color="#C9CEEC"/>
<stop offset="0.91" stop-color="#FFC1DA"/>
<stop offset="1" stop-color="#BDFFE3"/>
</radialGradient>
<radialGradient id="paint3_radial_2970_27346" cx="0" cy="0" r="1" gradientUnits="userSpaceOnUse" gradientTransform="translate(26.8082 14.4577) rotate(-36.4602) scale(14.7293 8.33821)">
<stop stop-color="#FFB6D5"/>
<stop offset="0.1" stop-color="#FFE3C0"/>
<stop offset="0.29" stop-color="#C7FBDB"/>
<stop offset="0.43" stop-color="#C7CDF4"/>
<stop offset="0.54" stop-color="#FFBCD4"/>
<stop offset="0.66" stop-color="#FFE0C3"/>
<stop offset="0.76" stop-color="#B0F1D4"/>
<stop offset="0.84" stop-color="#C9CEEC"/>
<stop offset="0.91" stop-color="#FFC1DA"/>
<stop offset="1" stop-color="#BDFFE3"/>
</radialGradient>
<radialGradient id="paint4_radial_2970_27346" cx="0" cy="0" r="1" gradientUnits="userSpaceOnUse" gradientTransform="translate(15.8571 14.4505) rotate(-36.4833) scale(14.7183 8.33402)">
<stop stop-color="#FFB6D5"/>
<stop offset="0.1" stop-color="#FFE3C0"/>
<stop offset="0.29" stop-color="#C7FBDB"/>
<stop offset="0.43" stop-color="#C7CDF4"/>
<stop offset="0.54" stop-color="#FFBCD4"/>
<stop offset="0.66" stop-color="#FFE0C3"/>
<stop offset="0.76" stop-color="#B0F1D4"/>
<stop offset="0.84" stop-color="#C9CEEC"/>
<stop offset="0.91" stop-color="#FFC1DA"/>
<stop offset="1" stop-color="#BDFFE3"/>
</radialGradient>
<radialGradient id="paint5_radial_2970_27346" cx="0" cy="0" r="1" gradientUnits="userSpaceOnUse" gradientTransform="translate(15.8571 14.4505) rotate(-36.4833) scale(14.7183 8.33402)">
<stop stop-color="#FFB6D5"/>
<stop offset="0.1" stop-color="#FFE3C0"/>
<stop offset="0.29" stop-color="#C7FBDB"/>
<stop offset="0.43" stop-color="#C7CDF4"/>
<stop offset="0.54" stop-color="#FFBCD4"/>
<stop offset="0.66" stop-color="#FFE0C3"/>
<stop offset="0.76" stop-color="#B0F1D4"/>
<stop offset="0.84" stop-color="#C9CEEC"/>
<stop offset="0.91" stop-color="#FFC1DA"/>
<stop offset="1" stop-color="#BDFFE3"/>
</radialGradient>
</defs>
</svg>
