<svg width="121" height="134" viewBox="0 0 121 134" fill="none" xmlns="http://www.w3.org/2000/svg">
<path d="M103.357 90.2514C102.625 89.8412 101.458 89.85 100.749 90.2713C100.041 90.6926 100.062 91.3672 100.794 91.7774C101.525 92.1877 102.692 92.1788 103.4 91.7575C104.108 91.3355 104.088 90.6609 103.357 90.2507" fill="#222222"/>
<path d="M107.981 92.8454C107.25 92.4352 106.083 92.444 105.374 92.8653C104.666 93.2866 104.687 93.9612 105.418 94.3714C106.15 94.7816 107.317 94.7728 108.025 94.3515C108.733 93.9295 108.713 93.2549 107.981 92.8447" fill="#222222"/>
<path d="M99.3736 92.6237C98.6421 92.2135 97.4743 92.2224 96.7663 92.6436C96.0584 93.0649 96.0783 93.7403 96.8099 94.1505C97.5414 94.5607 98.7092 94.5519 99.4172 94.1306C100.125 93.7093 100.105 93.034 99.3736 92.6237Z" fill="#222222"/>
<path d="M103.999 95.2177C103.267 94.8075 102.099 94.8163 101.391 95.2376C100.683 95.6589 100.703 96.3342 101.435 96.7445C102.166 97.1547 103.334 97.1459 104.042 96.7246C104.75 96.3033 104.73 95.628 103.999 95.2177Z" fill="#222222"/>
<path d="M86.1416 89.8088C85.4093 89.3979 84.243 89.4074 83.5343 89.8287C82.8264 90.25 82.8463 90.9246 83.5786 91.3348C84.3101 91.7451 85.4765 91.7362 86.1844 91.315C86.8923 90.8929 86.8731 90.2191 86.1416 89.8088Z" fill="#222222"/>
<path d="M95.3903 94.9961C94.6588 94.5858 93.4917 94.5947 92.7831 95.0159C92.0751 95.4372 92.0958 96.1118 92.8274 96.5221C93.5589 96.9323 94.726 96.9235 95.4339 96.5022C96.1418 96.0802 96.1219 95.4055 95.3903 94.9953" fill="#222222"/>
<path d="M100.015 97.59C99.2833 97.1798 98.1162 97.1887 97.4076 97.6099C96.6997 98.0312 96.7203 98.7058 97.4519 99.1161C98.1834 99.5263 99.3505 99.5174 100.058 99.0962C100.766 98.6742 100.746 97.9995 100.015 97.5893" fill="#222222"/>
<path d="M104.639 100.184C103.907 99.7729 102.741 99.7824 102.032 100.204C101.324 100.625 101.344 101.3 102.076 101.71C102.808 102.12 103.974 102.111 104.682 101.69C105.39 101.268 105.371 100.594 104.639 100.184Z" fill="#222222"/>
<path d="M82.1595 92.1807C81.4272 91.7697 80.2602 91.7793 79.5522 92.2005C78.8443 92.6218 78.8635 93.2964 79.5958 93.7074C80.3273 94.1176 81.4944 94.108 82.2023 93.6868C82.9102 93.2655 82.8911 92.5909 82.1595 92.1807Z" fill="#222222"/>
<path d="M86.7828 94.7744C86.0512 94.3641 84.8834 94.373 84.1755 94.7943C83.4676 95.2155 83.4875 95.8909 84.2191 96.3011C84.9513 96.7121 86.1184 96.7025 86.8263 96.2812C87.5342 95.86 87.5151 95.1853 86.7828 94.7744Z" fill="#222222"/>
<path d="M91.4083 97.3684C90.6767 96.9581 89.5089 96.967 88.801 97.3882C88.0931 97.8095 88.113 98.4849 88.8446 98.8951C89.5761 99.3053 90.7439 99.2965 91.4518 98.8752C92.1597 98.454 92.1398 97.7786 91.4083 97.3684Z" fill="#222222"/>
<path d="M96.0328 99.9614C95.3012 99.5512 94.1334 99.56 93.4255 99.9813C92.7176 100.403 92.7375 101.078 93.4691 101.488C94.2006 101.898 95.3684 101.89 96.0763 101.468C96.7843 101.047 96.7643 100.372 96.0328 99.9614Z" fill="#222222"/>
<path d="M100.657 102.555C99.9243 102.144 98.7572 102.154 98.0493 102.575C97.3414 102.997 97.3606 103.671 98.0929 104.082C98.8244 104.492 99.9915 104.483 100.699 104.062C101.407 103.64 101.388 102.966 100.657 102.555Z" fill="#222222"/>
<path d="M114.53 110.336C113.798 109.926 112.63 109.935 111.923 110.356C111.215 110.778 111.235 111.453 111.966 111.863C112.698 112.273 113.865 112.265 114.573 111.843C115.281 111.422 115.261 110.747 114.53 110.336Z" fill="#222222"/>
<path d="M119.155 112.93C118.423 112.52 117.255 112.529 116.548 112.95C115.84 113.372 115.86 114.047 116.591 114.457C117.323 114.867 118.49 114.859 119.198 114.437C119.906 114.016 119.886 113.341 119.155 112.93Z" fill="#222222"/>
<path d="M78.1759 94.5525C77.4436 94.1415 76.2773 94.1511 75.5693 94.5724C74.8614 94.9944 74.8806 95.6683 75.6129 96.0792C76.3444 96.4895 77.5108 96.4806 78.2194 96.0586C78.9273 95.6373 78.9074 94.9627 78.1759 94.5525Z" fill="#222222"/>
<path d="M82.8001 97.1467C82.0686 96.7365 80.9015 96.7453 80.1936 97.1666C79.4857 97.5886 79.5056 98.2632 80.2371 98.6734C80.9694 99.0844 82.1357 99.0748 82.8444 98.6535C83.5523 98.2323 83.5324 97.5577 82.8001 97.1474" fill="#222222"/>
<path d="M87.4246 99.7407C86.6931 99.3305 85.526 99.3393 84.8181 99.7606C84.1102 100.183 84.1301 100.857 84.8616 101.267C85.5932 101.678 86.7603 101.669 87.4689 101.248C88.1768 100.826 88.1562 100.152 87.4246 99.7414" fill="#222222"/>
<path d="M92.0491 102.334C91.3176 101.924 90.1505 101.933 89.4426 102.354C88.7347 102.776 88.7546 103.451 89.4862 103.861C90.2177 104.271 91.3848 104.263 92.0934 103.841C92.8013 103.42 92.7807 102.745 92.0491 102.335" fill="#222222"/>
<path d="M96.6734 104.927C95.9411 104.517 94.7748 104.526 94.0669 104.947C93.359 105.369 93.3782 106.043 94.1104 106.454C94.842 106.864 96.0083 106.856 96.717 106.434C97.4249 106.012 97.405 105.338 96.6734 104.927Z" fill="#222222"/>
<path d="M101.298 107.521C100.566 107.111 99.3993 107.12 98.6914 107.541C97.9835 107.963 98.0027 108.637 98.735 109.048C99.4665 109.458 100.633 109.45 101.341 109.028C102.049 108.606 102.029 107.932 101.298 107.521Z" fill="#222222"/>
<path d="M105.922 110.116C105.191 109.705 104.024 109.714 103.316 110.136C102.609 110.558 102.628 111.231 103.359 111.642C104.092 112.053 105.258 112.043 105.967 111.622C106.674 111.201 106.655 110.526 105.922 110.116Z" fill="#222222"/>
<path d="M110.547 112.709C109.815 112.298 108.648 112.307 107.94 112.729C107.232 113.151 107.252 113.825 107.984 114.235C108.715 114.646 109.882 114.637 110.591 114.216C111.299 113.794 111.278 113.12 110.547 112.709" fill="#222222"/>
<path d="M115.172 115.303C114.44 114.892 113.273 114.901 112.565 115.323C111.857 115.745 111.877 116.419 112.609 116.829C113.34 117.24 114.507 117.231 115.216 116.81C115.924 116.388 115.903 115.714 115.172 115.303" fill="#222222"/>
<path d="M119.796 117.896C119.064 117.486 117.898 117.495 117.19 117.916C116.482 118.338 116.501 119.012 117.233 119.423C117.965 119.833 119.132 119.825 119.841 119.403C120.549 118.982 120.528 118.307 119.796 117.897" fill="#222222"/>
<path d="M74.1932 96.9248C73.4609 96.5138 72.2939 96.5234 71.5859 96.9447C70.878 97.366 70.8972 98.0406 71.6295 98.4515C72.361 98.8618 73.5281 98.8522 74.236 98.4309C74.9439 98.0096 74.9247 97.335 74.1932 96.9248Z" fill="#222222"/>
<path d="M78.8174 99.5183C78.0859 99.108 76.9181 99.1169 76.2102 99.5382C75.5023 99.9594 75.5222 100.635 76.2537 101.045C76.986 101.456 78.1531 101.446 78.861 101.025C79.5689 100.604 79.5497 99.9292 78.8174 99.5183Z" fill="#222222"/>
<path d="M83.442 102.112C82.7104 101.702 81.5426 101.711 80.8347 102.132C80.1268 102.553 80.1467 103.229 80.8782 103.639C81.6098 104.049 82.7776 104.04 83.4855 103.619C84.1934 103.198 84.1735 102.522 83.442 102.112Z" fill="#222222"/>
<path d="M88.0674 104.706C87.3359 104.296 86.1681 104.304 85.4602 104.726C84.7523 105.147 84.7722 105.822 85.5037 106.233C86.2353 106.643 87.4031 106.634 88.1103 106.213C88.8182 105.791 88.7982 105.116 88.0667 104.706" fill="#222222"/>
<path d="M92.6908 107.3C91.9585 106.889 90.7914 106.898 90.0835 107.32C89.3756 107.741 89.3948 108.416 90.1271 108.827C90.8586 109.237 92.0257 109.227 92.7336 108.806C93.4415 108.385 93.4223 107.71 92.6908 107.3Z" fill="#222222"/>
<path d="M97.3158 109.894C96.5835 109.483 95.4164 109.492 94.7085 109.914C94.0006 110.335 94.0198 111.01 94.752 111.421C95.4836 111.831 96.6507 111.821 97.3586 111.4C98.0665 110.979 98.0473 110.304 97.3158 109.894Z" fill="#222222"/>
<path d="M101.94 112.487C101.208 112.077 100.041 112.086 99.3331 112.508C98.6252 112.929 98.6444 113.603 99.3759 114.014C100.108 114.425 101.275 114.415 101.983 113.994C102.691 113.572 102.672 112.898 101.94 112.487Z" fill="#222222"/>
<path d="M106.565 115.081C105.833 114.671 104.665 114.68 103.957 115.101C103.249 115.522 103.269 116.198 104.001 116.608C104.732 117.018 105.9 117.009 106.608 116.588C107.316 116.167 107.296 115.491 106.565 115.081Z" fill="#222222"/>
<path d="M111.189 117.675C110.457 117.265 109.29 117.273 108.582 117.695C107.874 118.116 107.894 118.791 108.625 119.202C109.357 119.612 110.525 119.603 111.233 119.182C111.94 118.76 111.921 118.085 111.189 117.675Z" fill="#222222"/>
<path d="M115.814 120.269C115.082 119.858 113.914 119.867 113.207 120.289C112.499 120.71 112.518 121.385 113.25 121.796C113.982 122.206 115.149 122.197 115.857 121.776C116.565 121.354 116.545 120.679 115.814 120.269Z" fill="#222222"/>
<path d="M120.438 122.862C119.706 122.451 118.539 122.46 117.831 122.882C117.123 123.303 117.142 123.978 117.875 124.389C118.606 124.799 119.773 124.789 120.481 124.368C121.189 123.947 121.17 123.272 120.438 122.862Z" fill="#222222"/>
<path d="M70.2105 99.2971C69.4783 98.8862 68.3119 98.8957 67.604 99.317C66.8961 99.739 66.9153 100.413 67.6476 100.824C68.3791 101.234 69.5454 101.225 70.2541 100.803C70.962 100.382 70.9421 99.7073 70.2105 99.2971Z" fill="#222222"/>
<path d="M74.8343 101.89C74.1027 101.48 72.9357 101.489 72.2278 101.91C71.5198 102.332 71.5398 103.007 72.2713 103.417C73.0036 103.828 74.1699 103.818 74.8786 103.397C75.5865 102.976 75.5666 102.301 74.8343 101.891" fill="#222222"/>
<path d="M79.4593 104.484C78.7277 104.074 77.5607 104.083 76.8528 104.504C76.1448 104.926 76.1648 105.601 76.8963 106.011C77.6279 106.421 78.7949 106.412 79.5036 105.991C80.2115 105.57 80.1908 104.895 79.4593 104.485" fill="#222222"/>
<path d="M84.0838 107.078C83.3523 106.668 82.1852 106.677 81.4773 107.098C80.7694 107.52 80.7893 108.195 81.5208 108.605C82.2524 109.015 83.4194 109.006 84.1281 108.585C84.836 108.164 84.8153 107.489 84.0838 107.079" fill="#222222"/>
<path d="M88.7081 109.672C87.9758 109.261 86.8095 109.271 86.1016 109.692C85.3936 110.114 85.4128 110.788 86.1451 111.199C86.8767 111.609 88.043 111.6 88.7516 111.178C89.4596 110.757 89.4396 110.082 88.7081 109.672Z" fill="#222222"/>
<path d="M93.3326 112.266C92.6003 111.855 91.434 111.865 90.7261 112.286C90.0182 112.708 90.0373 113.382 90.7696 113.793C91.5012 114.203 92.6675 114.194 93.3762 113.772C94.0841 113.351 94.0641 112.676 93.3326 112.266Z" fill="#222222"/>
<path d="M97.9565 114.859C97.2249 114.449 96.0586 114.458 95.3507 114.879C94.6428 115.301 94.6619 115.975 95.3935 116.385C96.1258 116.796 97.2921 116.786 98.0007 116.365C98.7087 115.944 98.6887 115.269 97.9565 114.859Z" fill="#222222"/>
<path d="M102.581 117.453C101.85 117.043 100.683 117.052 99.9748 117.473C99.2669 117.895 99.2868 118.57 100.018 118.98C100.75 119.39 101.917 119.381 102.626 118.96C103.334 118.539 103.313 117.864 102.581 117.454" fill="#222222"/>
<path d="M107.206 120.047C106.474 119.637 105.307 119.646 104.599 120.067C103.891 120.489 103.911 121.164 104.643 121.574C105.374 121.984 106.542 121.975 107.25 121.554C107.958 121.133 107.937 120.458 107.206 120.048" fill="#222222"/>
<path d="M111.831 122.641C111.098 122.23 109.932 122.239 109.224 122.661C108.516 123.083 108.535 123.757 109.268 124.168C109.999 124.578 111.166 124.569 111.875 124.148C112.583 123.726 112.562 123.052 111.831 122.642" fill="#222222"/>
<path d="M116.455 125.234C115.723 124.823 114.557 124.833 113.849 125.254C113.141 125.676 113.16 126.35 113.892 126.761C114.624 127.171 115.79 127.162 116.499 126.74C117.207 126.319 117.187 125.644 116.455 125.234Z" fill="#222222"/>
<path d="M66.2279 101.669C65.4956 101.258 64.3293 101.268 63.6206 101.689C62.9127 102.111 62.9319 102.785 63.6642 103.196C64.3957 103.606 65.5628 103.597 66.2707 103.176C66.9786 102.754 66.9594 102.08 66.2279 101.669Z" fill="#222222"/>
<path d="M70.8516 104.262C70.1201 103.852 68.953 103.861 68.2444 104.282C67.5364 104.704 67.5564 105.379 68.2879 105.789C69.0202 106.2 70.1873 106.191 70.8952 105.769C71.6031 105.347 71.5839 104.673 70.8516 104.262Z" fill="#222222"/>
<path d="M75.4766 106.856C74.7451 106.446 73.578 106.455 72.8694 106.876C72.1614 107.298 72.1814 107.973 72.9129 108.383C73.6444 108.793 74.8123 108.785 75.5202 108.363C76.2281 107.941 76.2082 107.267 75.4766 106.856Z" fill="#222222"/>
<path d="M80.1011 109.45C79.3696 109.04 78.2025 109.049 77.4939 109.47C76.786 109.892 76.8059 110.567 77.5374 110.977C78.269 111.387 79.4368 111.379 80.144 110.957C80.8519 110.535 80.8319 109.861 80.1004 109.45" fill="#222222"/>
<path d="M89.3499 114.637C88.6177 114.226 87.4513 114.236 86.7427 114.657C86.0348 115.079 86.054 115.753 86.7862 116.164C87.5178 116.574 88.6848 116.565 89.3928 116.144C90.1007 115.722 90.0815 115.048 89.3499 114.637Z" fill="#222222"/>
<path d="M93.9738 117.231C93.2423 116.821 92.0759 116.83 91.3673 117.252C90.6594 117.673 90.6786 118.348 91.4101 118.758C92.1424 119.169 93.3094 119.159 94.0166 118.738C94.7245 118.316 94.7053 117.642 93.9731 117.231" fill="#222222"/>
<path d="M98.5987 119.825C97.8672 119.415 96.7001 119.424 95.9914 119.845C95.2835 120.267 95.3034 120.942 96.035 121.352C96.7665 121.762 97.9343 121.754 98.6423 121.332C99.3502 120.91 99.3302 120.236 98.5987 119.825Z" fill="#222222"/>
<path d="M103.223 122.418C102.492 122.008 101.325 122.017 100.616 122.438C99.908 122.86 99.928 123.535 100.659 123.945C101.391 124.355 102.559 124.347 103.267 123.925C103.975 123.503 103.955 122.829 103.223 122.418Z" fill="#222222"/>
<path d="M107.848 125.012C107.116 124.601 105.949 124.611 105.241 125.032C104.533 125.454 104.552 126.128 105.284 126.539C106.016 126.949 107.184 126.941 107.892 126.519C108.599 126.097 108.58 125.423 107.848 125.012Z" fill="#222222"/>
<path d="M112.473 127.606C111.741 127.195 110.574 127.205 109.866 127.626C109.158 128.048 109.177 128.722 109.909 129.133C110.641 129.543 111.808 129.534 112.516 129.113C113.224 128.691 113.205 128.017 112.473 127.606Z" fill="#222222"/>
<path d="M117.097 130.199C116.365 129.789 115.199 129.798 114.49 130.22C113.782 130.641 113.802 131.316 114.533 131.726C115.265 132.137 116.432 132.127 117.14 131.706C117.848 131.284 117.829 130.61 117.097 130.199Z" fill="#222222"/>
<path d="M62.245 104.041C61.5127 103.63 60.3456 103.639 59.6377 104.061C58.9298 104.483 58.949 105.157 59.6812 105.568C60.4128 105.978 61.5791 105.969 62.2878 105.547C62.9957 105.126 62.9765 104.451 62.245 104.041Z" fill="#222222"/>
<path d="M66.8692 106.635C66.1377 106.224 64.9699 106.233 64.2619 106.655C63.554 107.077 63.5739 107.751 64.3055 108.161C65.0378 108.572 66.2041 108.563 66.9128 108.142C67.6207 107.72 67.6015 107.046 66.8692 106.635Z" fill="#222222"/>
<path d="M71.4937 109.228C70.7622 108.818 69.5944 108.827 68.8864 109.248C68.1785 109.67 68.1985 110.345 68.93 110.755C69.6615 111.165 70.8286 111.156 71.5373 110.735C72.2452 110.314 72.2253 109.638 71.4937 109.228Z" fill="#222222"/>
<path d="M76.1182 111.822C75.3867 111.412 74.2189 111.42 73.511 111.842C72.803 112.264 72.823 112.938 73.5545 113.348C74.2861 113.759 75.4531 113.75 76.1618 113.329C76.8697 112.907 76.8498 112.232 76.1182 111.822Z" fill="#222222"/>
<path d="M94.6158 122.197C93.8842 121.787 92.7164 121.795 92.0085 122.217C91.3006 122.639 91.3205 123.313 92.0521 123.723C92.7836 124.134 93.9507 124.125 94.6593 123.704C95.3673 123.282 95.3473 122.607 94.6158 122.197Z" fill="#222222"/>
<path d="M99.2413 124.791C98.5097 124.381 97.3419 124.389 96.634 124.811C95.9261 125.233 95.946 125.907 96.6776 126.317C97.4091 126.728 98.5762 126.719 99.2848 126.298C99.9927 125.876 99.9728 125.201 99.2413 124.791Z" fill="#222222"/>
<path d="M103.866 127.385C103.134 126.974 101.967 126.983 101.259 127.405C100.551 127.827 100.57 128.501 101.302 128.912C102.034 129.322 103.201 129.313 103.91 128.892C104.618 128.47 104.598 127.795 103.866 127.385Z" fill="#222222"/>
<path d="M108.491 129.979C107.758 129.568 106.591 129.577 105.883 129.999C105.175 130.421 105.195 131.095 105.927 131.505C106.658 131.916 107.825 131.907 108.533 131.485C109.241 131.064 109.222 130.389 108.491 129.979Z" fill="#222222"/>
<path d="M62.8859 109.007C62.1544 108.597 60.9873 108.606 60.2787 109.027C59.5708 109.448 59.5914 110.123 60.323 110.533C61.0552 110.944 62.2216 110.934 62.9295 110.513C63.6374 110.091 63.6182 109.417 62.8859 109.006" fill="#222222"/>
<path d="M67.5109 111.6C66.7794 111.19 65.6123 111.199 64.9037 111.62C64.1957 112.041 64.2164 112.716 64.948 113.126C65.6795 113.536 66.8466 113.527 67.5545 113.106C68.2624 112.684 68.2425 112.01 67.5109 111.599" fill="#222222"/>
<path d="M72.1354 114.194C71.4039 113.784 70.2368 113.793 69.5282 114.214C68.8203 114.635 68.8409 115.31 69.5725 115.72C70.304 116.13 71.4711 116.121 72.179 115.7C72.8869 115.278 72.867 114.604 72.1354 114.193" fill="#222222"/>
<path d="M76.7597 116.788C76.0275 116.377 74.8611 116.387 74.1525 116.808C73.4446 117.229 73.4645 117.904 74.1968 118.314C74.9283 118.724 76.0946 118.715 76.8026 118.294C77.5105 117.872 77.4913 117.198 76.7597 116.788Z" fill="#222222"/>
<path d="M95.2575 127.163C94.526 126.753 93.3589 126.762 92.6503 127.183C91.9423 127.604 91.963 128.279 92.6945 128.689C93.4261 129.099 94.5932 129.09 95.3011 128.669C96.009 128.247 95.9891 127.573 95.2575 127.162" fill="#222222"/>
<path d="M99.8823 129.757C99.15 129.346 97.9837 129.356 97.275 129.777C96.5671 130.198 96.587 130.873 97.3193 131.283C98.0509 131.693 99.2179 131.684 99.9259 131.263C100.634 130.841 100.614 130.167 99.8823 129.756" fill="#222222"/>
<path d="M63.5284 113.972C62.7968 113.562 61.629 113.571 60.9211 113.992C60.2132 114.414 60.2331 115.089 60.9647 115.499C61.6962 115.909 62.864 115.9 63.5719 115.479C64.2799 115.058 64.2599 114.383 63.5284 113.972Z" fill="#222222"/>
<path d="M68.1529 116.566C67.4214 116.156 66.2535 116.165 65.5456 116.586C64.8377 117.008 64.8576 117.683 65.5892 118.093C66.3207 118.503 67.4885 118.494 68.1957 118.073C68.9036 117.652 68.8837 116.977 68.1522 116.566" fill="#222222"/>
<path d="M72.7772 119.16C72.0449 118.749 70.8778 118.759 70.1699 119.18C69.462 119.602 69.4812 120.276 70.2135 120.687C70.945 121.097 72.1121 121.088 72.82 120.667C73.5279 120.245 73.5087 119.571 72.7772 119.16Z" fill="#222222"/>
<path d="M77.4017 121.754C76.6694 121.343 75.5024 121.353 74.7944 121.774C74.0865 122.195 74.1057 122.87 74.838 123.281C75.5695 123.691 76.7366 123.682 77.4445 123.26C78.1524 122.839 78.1332 122.164 77.4017 121.754Z" fill="#222222"/>
<path d="M64.1701 118.939C63.4386 118.528 62.2715 118.537 61.5628 118.959C60.8549 119.38 60.8756 120.054 61.6071 120.465C62.3387 120.875 63.5057 120.866 64.2137 120.445C64.9216 120.023 64.9017 119.348 64.1701 118.938" fill="#222222"/>
<path d="M68.7934 121.532C68.0612 121.122 66.8948 121.131 66.1862 121.552C65.4782 121.974 65.4982 122.648 66.2305 123.058C66.962 123.469 68.1283 123.46 68.8362 123.039C69.5442 122.617 69.525 121.943 68.7934 121.532Z" fill="#222222"/>
<path d="M73.4184 124.126C72.6862 123.715 71.5198 123.725 70.8112 124.146C70.1032 124.568 70.1232 125.242 70.8555 125.652C71.587 126.063 72.7533 126.054 73.4613 125.633C74.1692 125.211 74.15 124.537 73.4184 124.126Z" fill="#222222"/>
<path d="M78.0423 126.72C77.3107 126.309 76.1444 126.318 75.4358 126.74C74.7278 127.161 74.7478 127.836 75.4793 128.246C76.2116 128.657 77.3779 128.648 78.0858 128.226C78.7938 127.804 78.7746 127.131 78.0423 126.72Z" fill="#222222"/>
<path d="M82.6667 129.314C81.9352 128.903 80.7681 128.912 80.0594 129.334C79.3515 129.755 79.3722 130.429 80.1037 130.84C80.8353 131.25 82.0023 131.241 82.7102 130.82C83.4182 130.398 83.3982 129.723 82.6667 129.313" fill="#222222"/>
<path d="M87.2922 131.907C86.5606 131.497 85.3936 131.506 84.6849 131.927C83.977 132.348 83.9977 133.023 84.7292 133.433C85.4608 133.843 86.6278 133.835 87.3357 133.413C88.0437 132.991 88.0237 132.317 87.2922 131.906" fill="#222222"/>
<path d="M64.8114 123.904C64.0791 123.493 62.912 123.502 62.2041 123.924C61.4962 124.345 61.5154 125.02 62.2477 125.431C62.9792 125.841 64.1463 125.831 64.8542 125.41C65.5621 124.989 65.5429 124.314 64.8114 123.904Z" fill="#222222"/>
<path d="M69.4359 126.498C68.7036 126.087 67.5365 126.096 66.8286 126.518C66.1207 126.939 66.1399 127.614 66.8722 128.025C67.6037 128.435 68.7708 128.425 69.4787 128.004C70.1866 127.583 70.1674 126.908 69.4359 126.498Z" fill="#222222"/>
<path d="M74.0602 129.091C73.3287 128.681 72.1616 128.691 71.4537 129.112C70.7458 129.533 70.765 130.208 71.4965 130.618C72.2288 131.029 73.3959 131.019 74.1038 130.598C74.8117 130.177 74.7925 129.502 74.0602 129.091Z" fill="#222222"/>
<path d="M78.6846 131.685C77.9531 131.275 76.7853 131.284 76.0774 131.705C75.3694 132.126 75.3894 132.802 76.1209 133.212C76.8525 133.622 78.0203 133.613 78.7282 133.192C79.4361 132.771 79.4162 132.095 78.6846 131.685Z" fill="#222222"/>
<path d="M60.8292 126.276C60.0969 125.865 58.9306 125.875 58.2227 126.296C57.5147 126.718 57.5339 127.392 58.2662 127.803C58.9977 128.213 60.1641 128.204 60.8727 127.782C61.5807 127.361 61.5607 126.686 60.8292 126.276Z" fill="#222222"/>
<path d="M65.4527 128.87C64.7204 128.459 63.5541 128.469 62.8462 128.89C62.1383 129.312 62.1575 129.986 62.8897 130.397C63.6213 130.807 64.7876 130.798 65.4963 130.376C66.2042 129.955 66.1843 129.28 65.4527 128.87Z" fill="#222222"/>
<path d="M70.0766 131.464C69.345 131.054 68.1787 131.063 67.4708 131.484C66.7629 131.906 66.7821 132.58 67.5136 132.99C68.2459 133.401 69.4122 133.391 70.1209 132.97C70.8288 132.549 70.8089 131.874 70.0766 131.464Z" fill="#222222"/>
<path d="M56.8451 128.648C56.1128 128.237 54.9457 128.247 54.2378 128.668C53.5299 129.09 53.5491 129.764 54.2813 130.175C55.0129 130.585 56.18 130.576 56.8879 130.155C57.5958 129.733 57.5766 129.059 56.8451 128.648Z" fill="#222222"/>
<path d="M61.4701 131.242C60.7378 130.831 59.5707 130.841 58.8628 131.262C58.1549 131.684 58.1741 132.358 58.9063 132.769C59.6379 133.179 60.805 133.17 61.5129 132.749C62.2208 132.327 62.2016 131.653 61.4701 131.242Z" fill="#222222"/>
<path d="M52.8629 131.021C52.1306 130.61 50.9643 130.619 50.2563 131.041C49.5484 131.463 49.5676 132.137 50.2999 132.547C51.0314 132.958 52.1978 132.949 52.9064 132.527C53.6143 132.106 53.5944 131.431 52.8629 131.021Z" fill="#222222"/>
<path d="M74.791 108.357L82.7745 103.728L96.9151 111.873L88.9317 116.502L74.791 108.357Z" fill="url(#paint0_linear_663_88692)"/>
<path d="M88.9318 116.502L96.9152 111.874L96.8687 128.084L88.8853 132.713L88.9318 116.502Z" fill="#222222"/>
<path d="M74.7456 124.567L74.7914 108.356L88.932 116.502L88.8855 132.713L74.7456 124.567Z" fill="url(#paint1_radial_663_88692)"/>
<path d="M88.9545 116.739C88.9132 116.739 88.8726 116.729 88.8357 116.707L74.695 108.563C74.6212 108.52 74.5762 108.442 74.5762 108.357C74.5762 108.272 74.6212 108.194 74.695 108.151L82.6785 103.522C82.7523 103.479 82.8431 103.479 82.9177 103.522L97.0576 111.667C97.1314 111.71 97.1764 111.788 97.1764 111.872C97.1764 111.957 97.1314 112.036 97.0576 112.079L89.0741 116.707C89.0372 116.729 88.9959 116.74 88.9545 116.74V116.739ZM75.2893 108.356L88.9538 116.226L96.4626 111.873L82.7981 104.002L75.2893 108.356Z" fill="#222222"/>
<path d="M88.9091 132.951C88.8678 132.951 88.8272 132.941 88.7903 132.919C88.7164 132.876 88.6707 132.798 88.6714 132.713L88.7172 116.502C88.7172 116.417 88.7622 116.34 88.836 116.297L96.8195 111.669C96.8933 111.626 96.9841 111.626 97.0586 111.669C97.1325 111.711 97.1782 111.79 97.1775 111.875L97.1317 128.086C97.1317 128.17 97.0867 128.248 97.0129 128.29L89.0294 132.919C88.9925 132.941 88.9512 132.952 88.9098 132.952L88.9091 132.951ZM89.1933 116.639L89.149 132.299L96.6549 127.947L96.6992 112.287L89.1933 116.639Z" fill="#222222"/>
<path d="M88.9084 132.951C88.867 132.951 88.8264 132.94 88.7895 132.919L74.6496 124.774C74.5758 124.731 74.53 124.653 74.5308 124.568L74.5765 108.357C74.5765 108.272 74.6223 108.194 74.6961 108.152C74.7699 108.11 74.8607 108.11 74.9338 108.152L89.0745 116.296C89.1483 116.339 89.1941 116.418 89.1933 116.503L89.1476 132.714C89.1476 132.798 89.1018 132.876 89.028 132.919C88.9911 132.94 88.9505 132.951 88.9091 132.951H88.9084ZM75.0069 124.431L88.6714 132.302L88.7157 116.639L75.0512 108.768L75.0069 124.431Z" fill="#222222"/>
<path d="M73.3735 53.4167L81.357 48.7878L98.5493 58.6907L90.5658 63.3195L73.3735 53.4167Z" fill="url(#paint2_linear_663_88692)"/>
<path d="M90.5656 63.3193L98.549 58.6904L93.9649 105.38L85.9814 110.009L90.5656 63.3193Z" fill="#222222"/>
<path d="M85.9817 110.009L77.7229 105.252L73.3735 53.4167L90.5658 63.3196L85.9817 110.009Z" fill="url(#paint3_radial_663_88692)"/>
<path d="M90.5858 63.5574C90.5444 63.5574 90.5038 63.5471 90.4669 63.5257L73.2746 53.6229C73.2008 53.5801 73.1558 53.5021 73.1558 53.4174C73.1558 53.3327 73.2008 53.2539 73.2746 53.2112L81.2581 48.5823C81.3319 48.5396 81.4227 48.5396 81.4972 48.5823L98.6896 58.4852C98.7634 58.5279 98.8084 58.606 98.8084 58.6906C98.8084 58.7753 98.7634 58.8541 98.6896 58.8961L90.7061 63.525C90.6692 63.5463 90.6278 63.5574 90.5865 63.5574H90.5858ZM73.8688 53.4159L90.585 63.0448L98.0938 58.6914L81.3777 49.0625L73.8688 53.4159Z" fill="#222222"/>
<path d="M86.0018 110.247C85.9568 110.247 85.9125 110.235 85.8734 110.21C85.7981 110.162 85.756 110.076 85.7648 109.986L90.349 63.2966C90.3564 63.2208 90.3999 63.153 90.4663 63.114L98.4498 58.4852C98.5273 58.4402 98.6233 58.4424 98.6986 58.4903C98.7739 58.5382 98.8159 58.6251 98.8071 58.7135L94.223 105.403C94.2156 105.479 94.172 105.547 94.1056 105.586L86.1221 110.215C86.0852 110.236 86.0439 110.247 86.0025 110.247H86.0018ZM90.8111 63.4638L86.2838 109.57L93.7594 105.236L98.2867 59.1296L90.8111 63.4638Z" fill="#222222"/>
<path d="M86.0015 110.247C85.9602 110.247 85.9188 110.237 85.8826 110.216L77.6238 105.458C77.5559 105.419 77.5124 105.35 77.5057 105.272L73.1571 53.436C73.1497 53.3477 73.1918 53.263 73.2671 53.2158C73.3424 53.1687 73.4369 53.1665 73.5136 53.2107L90.7059 63.1135C90.7871 63.1599 90.8329 63.2498 90.824 63.3426L86.2399 110.032C86.2318 110.113 86.1838 110.183 86.1115 110.221C86.0775 110.239 86.0399 110.247 86.0022 110.247H86.0015ZM77.9693 105.109L85.8007 109.62L90.3339 63.4501L73.6694 53.8507L77.97 105.109H77.9693Z" fill="#222222"/>
<path d="M23.6113 95.073L39.252 86.051L61.0255 98.6582L45.3848 107.68L23.6113 95.073Z" fill="url(#paint4_linear_663_88692)"/>
<path d="M45.3843 107.68L61.0249 98.6584L61.0936 122.807L45.4529 131.828L45.3843 107.68Z" fill="#222222"/>
<path d="M23.68 119.222L23.6113 95.0732L45.3848 107.68L45.4535 131.828L23.68 119.222Z" fill="url(#paint5_radial_663_88692)"/>
<path d="M45.3503 107.918C45.309 107.918 45.2676 107.907 45.2307 107.885L23.4572 95.278C23.3834 95.2353 23.3384 95.1572 23.3384 95.0725C23.3384 94.9878 23.3841 94.909 23.4572 94.867L39.0979 85.845C39.1717 85.8023 39.2632 85.8023 39.337 85.845L61.1105 98.4523C61.1843 98.495 61.2294 98.573 61.2294 98.6577C61.2294 98.7424 61.1836 98.8212 61.1105 98.8632L45.4699 107.885C45.433 107.907 45.3916 107.917 45.3503 107.917V107.918ZM24.0522 95.0732L45.3503 107.405L60.5156 98.6577L39.2175 86.326L24.0522 95.0732Z" fill="#222222"/>
<path d="M45.4184 132.067C45.3771 132.067 45.3365 132.056 45.2996 132.035C45.2257 131.993 45.18 131.914 45.18 131.829L45.1113 107.681C45.1113 107.595 45.1564 107.516 45.2302 107.474L60.8708 98.4524C60.9446 98.4097 61.0354 98.4097 61.1085 98.4524C61.1823 98.4944 61.2281 98.5732 61.2281 98.6579L61.2968 122.807C61.2968 122.892 61.2517 122.971 61.1779 123.013L45.5373 132.035C45.5004 132.056 45.459 132.067 45.4177 132.067H45.4184ZM45.5882 107.817L45.6554 131.417L60.8206 122.67L60.7535 99.0696L45.5882 107.817Z" fill="#222222"/>
<path d="M45.4189 132.066C45.3776 132.066 45.3363 132.056 45.2994 132.034L23.5259 119.427C23.4528 119.384 23.4078 119.306 23.407 119.222L23.3384 95.0732C23.3384 94.9878 23.3834 94.909 23.4572 94.867C23.531 94.8243 23.6218 94.8243 23.6957 94.867L45.4691 107.474C45.5422 107.517 45.5873 107.595 45.588 107.679L45.6566 131.828C45.6566 131.913 45.6116 131.992 45.5378 132.034C45.5009 132.055 45.4595 132.066 45.4189 132.066V132.066ZM23.8832 119.084L45.179 131.415L45.1119 107.817L23.816 95.4864L23.8832 119.084Z" fill="#222222"/>
<path d="M44.7295 87.5169L60.3701 78.4949C59.7102 78.8756 59.2304 79.2844 58.9299 79.7211C57.9873 81.0917 57.5237 84.3632 57.5385 89.5334L41.8978 98.5554C41.883 93.3852 42.3459 90.1137 43.2893 88.7431C43.5897 88.3064 44.0695 87.8976 44.7295 87.5169Z" fill="#222222"/>
<path d="M41.8975 98.7934C41.8561 98.7934 41.8155 98.7831 41.7786 98.7617C41.7048 98.7198 41.659 98.641 41.659 98.5563C41.6443 93.2859 42.113 90.0321 43.0918 88.6085C43.4107 88.1445 43.9216 87.7078 44.6095 87.3108L60.2502 78.2888C60.3639 78.2233 60.51 78.2616 60.5757 78.3757C60.6414 78.4891 60.6023 78.635 60.4886 78.7005C59.8627 79.0614 59.4042 79.4503 59.1252 79.8553C58.215 81.1781 57.761 84.4333 57.7758 89.5328C57.7758 89.6182 57.7308 89.697 57.657 89.739L42.0163 98.761C41.9794 98.7824 41.9381 98.7927 41.8967 98.7927L41.8975 98.7934ZM44.7291 87.517L44.8487 87.7225C44.2227 88.0834 43.7643 88.4722 43.4853 88.8773C42.6002 90.164 42.1462 93.2808 42.1359 98.1431L57.2997 89.3965C57.2938 84.4392 57.7212 81.2893 58.6055 79.7868L44.848 87.7218L44.7284 87.5163L44.7291 87.517Z" fill="#222222"/>
<path d="M28.2793 66.0267L43.9199 57.0047C45.7506 55.9486 48.4332 54.9388 51.9676 53.977C53.5134 53.5616 54.8119 53.0505 55.8638 52.4443L40.2231 61.4663C39.1712 62.0732 37.8727 62.5836 36.327 62.999C32.7926 63.9608 30.11 64.9705 28.2793 66.0267Z" fill="url(#paint6_radial_663_88692)"/>
<path d="M28.2806 66.2647C28.1986 66.2647 28.1182 66.222 28.0739 66.1461C28.0082 66.0327 28.0473 65.8869 28.161 65.8213C28.1632 65.8199 28.1654 65.8191 28.1676 65.8177L43.8016 56.8001C45.6427 55.7381 48.3695 54.7114 51.9062 53.7488C53.4253 53.3408 54.7172 52.8326 55.7455 52.2397C55.8591 52.1742 56.0053 52.2125 56.071 52.3266C56.1367 52.4401 56.0976 52.5859 55.9839 52.6514C55.9839 52.6514 55.9787 52.6544 55.9765 52.6559L40.3432 61.6734C39.2788 62.2877 37.9486 62.8113 36.3903 63.2304C32.8942 64.1819 30.205 65.1924 28.3994 66.2338C28.3618 66.2551 28.3212 66.2654 28.2806 66.2654V66.2647ZM52.6244 54.0397C52.4303 54.0972 52.2324 54.1531 52.0309 54.2076C48.5349 55.1592 45.8457 56.1696 44.0401 57.211L32.2468 64.0133C33.4397 63.589 34.781 63.1737 36.2655 62.7701C37.7847 62.3613 39.0765 61.8539 40.1048 61.261L52.6244 54.0397Z" fill="#222222"/>
<path d="M24.3223 32.1629L39.963 23.1409C37.1306 24.7744 35.4386 29.1757 34.8887 36.3439L19.248 45.3659C19.7987 38.1977 21.4899 33.7964 24.3223 32.1629Z" fill="#222222"/>
<path d="M19.2476 45.6047C19.2034 45.6047 19.1598 45.5922 19.1207 45.5679C19.0461 45.5207 19.0033 45.4368 19.01 45.3484C19.286 41.758 19.8567 38.8157 20.7063 36.604C21.5685 34.3614 22.7444 32.7986 24.2023 31.9575L39.8393 22.9377C39.8393 22.9377 39.8415 22.9363 39.843 22.9355C39.9567 22.87 40.1028 22.9083 40.1685 23.0224C40.2342 23.1359 40.1951 23.2817 40.0814 23.3472C37.3346 24.9322 35.6671 29.3106 35.1253 36.3632C35.1193 36.4413 35.0751 36.512 35.0071 36.551L19.3665 45.573C19.3296 45.5944 19.2882 45.6047 19.2469 45.6047H19.2476ZM24.4415 32.3692C21.753 33.9195 20.0988 38.1463 19.5215 44.9345L34.6602 36.2019C34.9392 32.6682 35.5069 29.7687 36.3469 27.5828C36.8157 26.3624 37.3782 25.3431 38.0285 24.5322L24.4415 32.3692Z" fill="#222222"/>
<path d="M73.0773 27.8825L57.4366 36.9045C55.1025 33.2736 52.5616 29.9498 49.8126 26.9346C48.8087 25.8343 47.7775 24.7752 46.7197 23.7581C46.586 23.6285 46.451 23.5004 46.3159 23.3722C45.5747 22.6711 44.8196 21.9906 44.0519 21.3292C41.0379 18.7331 37.8172 16.4433 34.3898 14.4585C33.549 13.9717 32.7207 13.5195 31.9043 13.1004C31.5788 12.934 31.2562 12.7727 30.9358 12.6173C30.5121 12.4118 30.0913 12.2166 29.6742 12.0288C29.4609 11.9338 29.2491 11.8403 29.0372 11.7504C22.3633 8.89358 16.5634 8.49219 11.6367 10.5448C11.0971 10.7687 10.5767 11.0265 10.0732 11.3166L25.7146 2.29537C26.2173 2.00446 26.7385 1.74742 27.2781 1.52279C32.207 -0.53054 38.0106 -0.12768 44.6904 2.73432C44.7923 2.77777 44.8949 2.82196 44.9982 2.86689C45.5231 3.09667 46.0516 3.34119 46.5875 3.6019C46.806 3.70722 47.0253 3.81622 47.246 3.92743C48.1591 4.38774 49.0877 4.89002 50.0304 5.43723C53.4608 7.42428 56.6837 9.71624 59.7006 12.3153C60.6079 13.0967 61.4966 13.9061 62.3677 14.7443C62.3773 14.7516 62.3854 14.7612 62.395 14.7693C63.582 15.9116 64.7336 17.1069 65.8512 18.3531C68.4481 21.2504 70.8568 24.4269 73.0773 27.8818V27.8825Z" fill="url(#paint7_linear_663_88692)"/>
<path d="M74.0838 74.0094L58.4432 83.0314C64.0349 79.8063 66.8186 73.9269 66.7942 65.3932C66.7677 56.0648 63.6481 46.5671 57.437 36.9043L73.0777 27.8823C79.2887 37.5458 82.4083 47.0428 82.4349 56.3712C82.4592 64.9049 79.6756 70.7843 74.0838 74.0094Z" fill="#222222"/>
<path d="M57.437 36.9036C63.6481 46.5671 66.7676 56.0641 66.7942 65.3925C66.8274 76.9606 61.7 83.6508 51.4134 85.4648C46.9385 86.2801 44.2301 87.373 43.2889 88.7429C42.3463 90.1135 41.8827 93.385 41.8975 98.5552L24.0068 88.1964L23.998 85.1584C23.9707 75.4559 24.6121 69.7209 25.9224 67.9518C27.2327 66.1828 30.6999 64.5308 36.3279 62.9997C39.2784 62.2065 41.3291 61.0656 42.4784 59.5757C43.6278 58.0865 44.1984 55.7423 44.1888 52.5445C44.1777 48.5991 43.0822 44.8651 40.9031 41.3417C38.7225 37.8176 36.085 35.1596 32.9891 33.367C24.8063 28.6292 20.2251 32.629 19.247 45.3674L0.23877 31.2467C1.63615 20.0292 5.43633 13.129 11.6371 10.5439C17.8363 7.96107 25.4212 9.26539 34.3894 14.4584C43.5429 19.7582 51.2252 27.2394 57.437 36.9044V36.9036Z" fill="url(#paint8_radial_663_88692)"/>
<path d="M41.8974 98.7933C41.8561 98.7933 41.8147 98.7822 41.7778 98.7609L23.8872 88.4022C23.8141 88.3594 23.7691 88.2814 23.7683 88.1974L23.7595 85.1594C23.7314 75.314 24.3758 69.6394 25.7304 67.8106C27.0872 65.9783 30.533 64.33 36.2643 62.7701C39.1513 61.9939 41.1784 60.8707 42.2894 59.4301C43.4003 57.9903 43.9599 55.674 43.951 52.5447C43.9399 48.6619 42.8467 44.9346 40.7008 41.4664C38.5519 37.9924 35.9166 35.3366 32.8694 33.572C29.4841 31.6122 26.7085 31.174 24.6202 32.2699C21.7656 33.7679 20.0383 38.1802 19.4846 45.3845C19.478 45.4707 19.4248 45.5466 19.3459 45.5827C19.2669 45.6187 19.1746 45.6084 19.1052 45.5569L0.0962298 31.4376C0.0275786 31.3868 -0.00859241 31.3029 0.00174217 31.2174C0.700803 25.6054 2.02141 21.0053 3.92741 17.5438C5.84521 14.0609 8.40745 11.6327 11.5447 10.3247C14.6724 9.0211 18.195 8.69337 22.0151 9.35105C25.8175 10.0051 30.0215 11.6541 34.5089 14.2531C39.0812 16.9008 43.3457 20.1377 47.1828 23.8746C51.0191 27.6108 54.5366 31.951 57.6377 36.7765C60.7395 41.6027 63.1032 46.4554 64.6615 51.2006C66.222 55.951 67.0193 60.7256 67.0326 65.3928C67.0488 71.2037 65.7474 75.8597 63.163 79.2314C60.5742 82.6097 56.6352 84.786 51.4547 85.6992C47.0669 86.4983 44.3851 87.5685 43.4852 88.8779C42.575 90.2007 42.1211 93.4567 42.1358 98.5554C42.1358 98.6408 42.0908 98.7197 42.017 98.7616C41.9801 98.783 41.9387 98.7933 41.8981 98.7933H41.8974ZM24.2452 88.0597L41.659 98.1422C41.6693 93.115 42.1388 89.9937 43.0925 88.6084C44.0809 87.17 46.7893 86.0653 51.3712 85.2308C61.4807 83.4485 66.5889 76.7745 66.5572 65.3935C66.5306 56.1542 63.3955 46.6115 57.2376 37.032C51.076 27.4451 43.3487 19.9197 34.2712 14.6634C25.4123 9.53444 17.8289 8.22201 11.73 10.7629C5.66583 13.2905 1.88559 20.1458 0.491897 31.1386L19.0439 44.9198C19.3377 41.4458 19.9157 38.6007 20.7632 36.459C21.6579 34.1973 22.881 32.6462 24.3987 31.8501C26.6421 30.6724 29.5727 31.1136 33.1093 33.1618C36.2252 34.9662 38.9159 37.6764 41.1068 41.2175C43.2992 44.7622 44.4161 48.5728 44.4279 52.5447C44.4367 55.7816 43.8447 58.1965 42.6681 59.7218C41.4921 61.2463 39.3802 62.4269 36.3905 63.2304C30.8453 64.7395 27.3876 66.376 26.115 68.0949C24.8416 69.8146 24.2098 75.5556 24.2371 85.1594L24.2452 88.0612V88.0597Z" fill="#222222"/>
<path d="M57.4372 37.1418C57.3582 37.1418 57.2814 37.1027 57.2364 37.032C51.0747 27.4451 43.3474 19.9197 34.27 14.6634C25.411 9.53446 17.8277 8.22203 11.7288 10.7629C11.2047 10.9817 10.6909 11.235 10.2015 11.5171L10.1934 11.5222C10.0797 11.5878 9.93352 11.5495 9.86782 11.4353C9.80212 11.3219 9.84125 11.1761 9.95493 11.1105L25.5948 2.08855C26.1042 1.79469 26.6394 1.53029 27.1856 1.30272C30.3133 -0.000134574 33.8359 -0.327872 37.656 0.329076C41.4584 0.983079 45.6624 2.63208 50.1498 5.23115C54.7221 7.87883 58.9866 11.1157 62.8237 14.8526C66.66 18.5889 70.1775 22.929 73.2786 27.7545C73.314 27.809 73.3251 27.876 73.3096 27.9386C73.2941 28.0019 73.2535 28.0557 73.1974 28.0881L57.5567 37.1101C57.5191 37.1315 57.4785 37.1418 57.4379 37.1418H57.4372ZM18.289 9.02186C19.4952 9.02186 20.7383 9.1316 22.0146 9.35107C25.817 10.0051 30.021 11.6541 34.5084 14.2531C39.0807 16.9008 43.3452 20.1377 47.1823 23.8746C50.9677 27.5615 54.4431 31.8368 57.5139 36.585L72.7419 27.8016C66.6024 18.3141 58.9216 10.8601 49.9099 5.64211C41.0517 0.513199 33.4676 -0.799226 27.3694 1.74166C26.8424 1.96114 26.3256 2.2167 25.834 2.50025L13.3772 9.68544C14.9332 9.24354 16.5742 9.02186 18.289 9.02186Z" fill="#222222"/>
<path d="M58.443 83.2686C58.3611 83.2686 58.2806 83.2258 58.2363 83.15C58.1706 83.0366 58.2098 82.8907 58.3234 82.8252C63.8096 79.6605 66.5793 73.7958 66.5557 65.394C66.5291 56.1547 63.394 46.6127 57.2361 37.0325C57.2007 36.978 57.1896 36.911 57.2051 36.8484C57.2206 36.785 57.2612 36.7313 57.3173 36.6989L72.9579 27.6769C73.0679 27.6135 73.2089 27.6474 73.2776 27.7542C76.3794 32.5804 78.7431 37.4331 80.3014 42.1783C81.8612 46.9287 82.6591 51.7034 82.6724 56.3705C82.6842 60.6532 81.9808 64.3246 80.5804 67.2823C79.1742 70.2526 77.0283 72.585 74.2025 74.2149L58.5619 83.2369C58.5242 83.2582 58.4836 83.2686 58.443 83.2686ZM57.7713 36.9854C60.8074 41.7423 63.1246 46.5236 64.6607 51.2003C66.2213 55.9507 67.0185 60.7254 67.0318 65.3925C67.0436 69.6752 66.3401 73.3466 64.939 76.3043C64.1086 78.0579 63.0212 79.5891 61.6881 80.8845L73.9641 73.8039C79.4503 70.6392 82.2199 64.7746 82.1963 56.3727C82.1705 47.1946 79.076 37.7182 72.9993 28.2027L57.7713 36.9861V36.9854Z" fill="#222222"/>
<path d="M46.5872 3.60123L30.9347 12.6166C30.511 12.4111 30.0903 12.216 29.6732 12.0281C29.4599 11.9331 29.248 11.8396 29.0361 11.7498L44.6893 2.73291C44.7912 2.77636 44.8938 2.82055 44.9972 2.86548C45.522 3.09526 46.0505 3.33978 46.5865 3.60049L46.5872 3.60123Z" fill="#222222"/>
<path d="M62.3676 14.7444L46.7196 23.7583C46.5859 23.6286 46.4509 23.5005 46.3158 23.3723C45.5746 22.6712 44.8195 21.9907 44.0518 21.3293L59.7013 12.3154C60.6085 13.0968 61.4973 13.9062 62.3683 14.7444H62.3676Z" fill="#222222"/>
<defs>
<linearGradient id="paint0_linear_663_88692" x1="76.2539" y1="117.876" x2="96.0114" y2="104.966" gradientUnits="userSpaceOnUse">
<stop stop-color="#FFB6D5"/>
<stop offset="0.1" stop-color="#FFE3C0"/>
<stop offset="0.29" stop-color="#C7FBDB"/>
<stop offset="0.43" stop-color="#C7CDF4"/>
<stop offset="0.54" stop-color="#FFBCD4"/>
<stop offset="0.66" stop-color="#FFE0C3"/>
<stop offset="0.76" stop-color="#B0F1D4"/>
<stop offset="0.84" stop-color="#C9CEEC"/>
<stop offset="0.91" stop-color="#FFC1DA"/>
<stop offset="1" stop-color="#BDFFE3"/>
<animateTransform attributeName="gradientTransform" attributeType="XML" type="scale" values="0.9 0.9; 1.1 1.1; 0.9 0.9" dur="5s" keyTimes="0; 0.5; 1" repeatCount="indefinite" /> </linearGradient>
<radialGradient id="paint1_radial_663_88692" cx="0" cy="0" r="1" gradientUnits="userSpaceOnUse" gradientTransform="translate(86.7647 114.073) rotate(-47.1612) scale(37.9614 22.4174)">
<stop stop-color="#FFB6D5"/>
<stop offset="0.1" stop-color="#FFE3C0"/>
<stop offset="0.29" stop-color="#C7FBDB"/>
<stop offset="0.43" stop-color="#C7CDF4"/>
<stop offset="0.54" stop-color="#FFBCD4"/>
<stop offset="0.66" stop-color="#FFE0C3"/>
<stop offset="0.76" stop-color="#B0F1D4"/>
<stop offset="0.84" stop-color="#C9CEEC"/>
<stop offset="0.91" stop-color="#FFC1DA"/>
<stop offset="1" stop-color="#BDFFE3"/>
<animateTransform xmlns="http://www.w3.org/2000/svg" attributeName="gradientTransform" attributeType="XML" type="scale" 
values="208.8954 158.3446; 368.8954 216.3446; 208.8954 158.3446" 
dur="5s" keyTimes="0; 0.5; 1" repeatCount="indefinite"/>
</radialGradient>
<linearGradient id="paint2_linear_663_88692" x1="75.0382" y1="64.8819" x2="97.5165" y2="50.1894" gradientUnits="userSpaceOnUse">
<stop stop-color="#FFB6D5"/>
<stop offset="0.1" stop-color="#FFE3C0"/>
<stop offset="0.29" stop-color="#C7FBDB"/>
<stop offset="0.43" stop-color="#C7CDF4"/>
<stop offset="0.54" stop-color="#FFBCD4"/>
<stop offset="0.66" stop-color="#FFE0C3"/>
<stop offset="0.76" stop-color="#B0F1D4"/>
<stop offset="0.84" stop-color="#C9CEEC"/>
<stop offset="0.91" stop-color="#FFC1DA"/>
<stop offset="1" stop-color="#BDFFE3"/>
<animateTransform attributeName="gradientTransform" attributeType="XML" type="scale" values="0.9 0.9; 1.1 1.1; 0.9 0.9" dur="5s" keyTimes="0; 0.5; 1" repeatCount="indefinite" /> </linearGradient>
<radialGradient id="paint3_radial_663_88692" cx="0" cy="0" r="1" gradientUnits="userSpaceOnUse" gradientTransform="translate(87.9392 66.6987) rotate(-64.1898) scale(71.8444 33.3535)">
<stop stop-color="#FFB6D5"/>
<stop offset="0.1" stop-color="#FFE3C0"/>
<stop offset="0.29" stop-color="#C7FBDB"/>
<stop offset="0.43" stop-color="#C7CDF4"/>
<stop offset="0.54" stop-color="#FFBCD4"/>
<stop offset="0.66" stop-color="#FFE0C3"/>
<stop offset="0.76" stop-color="#B0F1D4"/>
<stop offset="0.84" stop-color="#C9CEEC"/>
<stop offset="0.91" stop-color="#FFC1DA"/>
<stop offset="1" stop-color="#BDFFE3"/>
<animateTransform xmlns="http://www.w3.org/2000/svg" attributeName="gradientTransform" attributeType="XML" type="scale" 
values="300.8444 132.3535; 400.8444 232.3535; 300.8444 132.3535" 
dur="5s" keyTimes="0; 0.5; 1" repeatCount="indefinite"/>
</radialGradient>
<linearGradient id="paint4_linear_663_88692" x1="26.0852" y1="110.006" x2="59.5216" y2="88.1846" gradientUnits="userSpaceOnUse">
<stop stop-color="#FFB6D5"/>
<stop offset="0.1" stop-color="#FFE3C0"/>
<stop offset="0.29" stop-color="#C7FBDB"/>
<stop offset="0.43" stop-color="#C7CDF4"/>
<stop offset="0.54" stop-color="#FFBCD4"/>
<stop offset="0.66" stop-color="#FFE0C3"/>
<stop offset="0.76" stop-color="#B0F1D4"/>
<stop offset="0.84" stop-color="#C9CEEC"/>
<stop offset="0.91" stop-color="#FFC1DA"/>
<stop offset="1" stop-color="#BDFFE3"/>
<animateTransform attributeName="gradientTransform" attributeType="XML" type="scale" values="0.9 0.9; 1.1 1.1; 0.9 0.9" dur="5s" keyTimes="0; 0.5; 1" repeatCount="indefinite" /> </linearGradient>
<radialGradient id="paint5_radial_663_88692" cx="0" cy="0" r="1" gradientUnits="userSpaceOnUse" gradientTransform="translate(42.1165 103.699) rotate(-46.5874) scale(57.8257 34.1927)">
<stop stop-color="#FFB6D5"/>
<stop offset="0.1" stop-color="#FFE3C0"/>
<stop offset="0.29" stop-color="#C7FBDB"/>
<stop offset="0.43" stop-color="#C7CDF4"/>
<stop offset="0.54" stop-color="#FFBCD4"/>
<stop offset="0.66" stop-color="#FFE0C3"/>
<stop offset="0.76" stop-color="#B0F1D4"/>
<stop offset="0.84" stop-color="#C9CEEC"/>
<stop offset="0.91" stop-color="#FFC1DA"/>
<stop offset="1" stop-color="#BDFFE3"/>
<animateTransform xmlns="http://www.w3.org/2000/svg" attributeName="gradientTransform" attributeType="XML" type="scale" 
values="188.8954 118.3446; 368.8954 216.3446; 188.8954 118.3446" 
dur="5s" keyTimes="0; 0.5; 1" repeatCount="indefinite"/>
</radialGradient>
<radialGradient id="paint6_radial_663_88692" cx="0" cy="0" r="1" gradientUnits="userSpaceOnUse" gradientTransform="translate(51.6495 55.632) rotate(-17.1862) scale(52.5341 17.5646)">
<stop stop-color="#FFB6D5"/>
<stop offset="0.1" stop-color="#FFE3C0"/>
<stop offset="0.29" stop-color="#C7FBDB"/>
<stop offset="0.43" stop-color="#C7CDF4"/>
<stop offset="0.54" stop-color="#FFBCD4"/>
<stop offset="0.66" stop-color="#FFE0C3"/>
<stop offset="0.76" stop-color="#B0F1D4"/>
<stop offset="0.84" stop-color="#C9CEEC"/>
<stop offset="0.91" stop-color="#FFC1DA"/>
<stop offset="1" stop-color="#BDFFE3"/>
</radialGradient>
<linearGradient id="paint7_linear_663_88692" x1="14.2391" y1="40.8469" x2="70.7707" y2="4.20117" gradientUnits="userSpaceOnUse">
<stop stop-color="#FFB6D5"/>
<stop offset="0.1" stop-color="#FFE3C0"/>
<stop offset="0.29" stop-color="#C7FBDB"/>
<stop offset="0.43" stop-color="#C7CDF4"/>
<stop offset="0.54" stop-color="#FFBCD4"/>
<stop offset="0.66" stop-color="#FFE0C3"/>
<stop offset="0.76" stop-color="#B0F1D4"/>
<stop offset="0.84" stop-color="#C9CEEC"/>
<stop offset="0.91" stop-color="#FFC1DA"/>
<stop offset="1" stop-color="#BDFFE3"/>
<animateTransform attributeName="gradientTransform" attributeType="XML" type="scale" values="0.9 0.9; 1.1 1.1; 0.9 0.9" dur="5s" keyTimes="0; 0.5; 1" repeatCount="indefinite" /> </linearGradient>
<radialGradient id="paint8_radial_663_88692" cx="0" cy="0" r="1" gradientUnits="userSpaceOnUse" gradientTransform="translate(56.6261 30.2146) rotate(-40.1234) scale(158.364 92.4299)">
<stop stop-color="#FFB6D5"/>
<stop offset="0.1" stop-color="#FFE3C0"/>
<stop offset="0.29" stop-color="#C7FBDB"/>
<stop offset="0.43" stop-color="#C7CDF4"/>
<stop offset="0.54" stop-color="#FFBCD4"/>
<stop offset="0.66" stop-color="#FFE0C3"/>
<stop offset="0.76" stop-color="#B0F1D4"/>
<stop offset="0.84" stop-color="#C9CEEC"/>
<stop offset="0.91" stop-color="#FFC1DA"/>
<stop offset="1" stop-color="#BDFFE3"/>
<animateTransform 
attributeName="gradientTransform"
attributeType="XML"
type="scale"
values="180.364 92.4299; 308.364 192.4299; 150.364 92.4299"
dur="5s"
keyTimes="0; 0.5; 1"
repeatCount="indefinite"
/>
</radialGradient>
</defs>
</svg>
