<svg width="414" height="123" viewBox="0 0 414 123" fill="none" xmlns="http://www.w3.org/2000/svg">
<path d="M307.481 76.4864C307.481 76.4868 307.481 76.4871 307.48 76.4871C302.715 76.8388 297.827 78.0312 292.871 79.7009C292.256 79.9081 291.666 80.1835 291.103 80.5058C288.51 81.9904 285.912 83.3206 283.309 84.4149C283.242 84.4516 283.283 84.5566 283.357 84.5377C287.955 83.3762 292.467 82.6323 296.84 82.564C323.221 82.1558 356.787 108.368 382.508 97.233C392.018 93.1159 398.539 84.7223 403.909 74.819C400.483 79.4628 396.403 83.3016 391.316 85.8651C367.023 98.1052 333.02 74.6024 307.482 76.4858C307.482 76.4858 307.481 76.4861 307.481 76.4864Z" fill="url(#paint0_radial_2764_8986)"/>
<path d="M109.692 -93.9728C109.692 -93.9731 109.692 -93.9734 109.692 -93.9737C109.34 -98.739 108.148 -103.627 106.478 -108.584C106.271 -109.198 105.995 -109.788 105.673 -110.351C104.188 -112.945 102.858 -115.542 101.764 -118.145C101.727 -118.212 101.622 -118.171 101.641 -118.097C102.803 -113.499 103.546 -108.987 103.615 -104.614C104.022 -78.2321 77.8102 -44.6658 88.9449 -18.9457C93.062 -9.43542 101.456 -2.9153 111.359 2.4552C106.715 -0.970704 102.876 -5.05117 100.313 -10.1376C88.0727 -34.4311 111.576 -68.4336 109.692 -93.9719C109.692 -93.9722 109.692 -93.9725 109.692 -93.9728Z" fill="url(#paint1_radial_2764_8986)"/>
<path d="M433.665 12.9097C433.665 12.9096 433.664 12.9095 433.664 12.9096C430.629 16.4338 428.101 20.6814 425.851 25.3463C425.779 25.4958 425.722 25.6524 425.68 25.813C424.892 28.8224 423.984 31.7344 422.892 34.4876C422.857 34.6056 423.025 34.6786 423.088 34.5732C425.297 30.8936 427.707 27.5521 430.437 24.7312C449.461 5.07987 491.489 -0.447152 501.398 -25.4841C503.205 -30.0492 503.789 -34.8723 503.533 -39.8732C503.461 -41.2766 500.028 -41.0846 499.587 -39.7502C491.399 -14.9317 450.988 -7.20461 433.665 12.9098C433.665 12.9099 433.665 12.9098 433.665 12.9097Z" fill="url(#paint2_radial_2764_8986)"/>
<path d="M173.27 32.2104C173.27 32.2105 173.27 32.2103 173.27 32.2102C169.744 29.1734 165.493 26.6442 160.825 24.393C160.681 24.3234 160.53 24.2684 160.375 24.2278C157.363 23.4397 154.448 22.5312 151.692 21.4378C151.574 21.4033 151.501 21.5707 151.606 21.634C155.286 23.8428 158.627 26.253 161.448 28.9832C181.1 48.0065 186.627 90.0346 211.664 99.9439C216.229 101.751 221.052 102.334 226.053 102.079C227.456 102.007 227.264 98.5735 225.93 98.1331C201.111 89.945 193.384 49.5343 173.27 32.2106C173.27 32.2105 173.27 32.2104 173.27 32.2104Z" fill="url(#paint3_radial_2764_8986)"/>
<path d="M111.359 2.45514C111.359 2.45519 111.359 2.45523 111.359 2.45526C115.247 5.32325 119.699 7.73234 124.442 9.88905C122.957 8.9735 121.539 7.99497 120.203 6.94304C120.002 6.78406 119.783 6.64773 119.55 6.53938C116.747 5.23622 113.999 3.88627 111.359 2.45476C111.359 2.45462 111.358 2.45488 111.359 2.45514Z" fill="url(#paint4_radial_2764_8986)"/>
<path d="M241.381 99.2173C241.382 99.217 241.383 99.2169 241.383 99.2168C246.12 98.5502 250.97 97.1345 255.882 95.3171C254.506 95.629 253.136 95.8774 251.773 96.0523C250.933 96.16 250.103 96.3408 249.306 96.6247C246.647 97.571 244.002 98.4507 241.381 99.2173Z" fill="url(#paint5_radial_2764_8986)"/>
<path d="M403.909 74.8209C403.909 74.8209 403.909 74.8209 403.909 74.8208C406.777 70.9329 409.186 66.4808 411.343 61.7374C410.427 63.2227 409.449 64.6404 408.397 65.976C408.238 66.1779 408.102 66.3967 407.993 66.6297C406.69 69.4322 405.34 72.1801 403.909 74.8205C403.909 74.8207 403.909 74.821 403.909 74.8209Z" fill="url(#paint6_radial_2764_8986)"/>
<path d="M124.442 9.88947C124.442 9.88959 124.442 9.89 124.442 9.89017C128.501 12.3922 133.07 14.4273 137.885 16.2178C136.594 15.5668 135.346 14.8718 134.148 14.1261C133.543 13.75 132.911 13.4203 132.247 13.1609C129.591 12.1214 126.975 11.0413 124.443 9.88947C124.443 9.88942 124.442 9.88942 124.442 9.88947Z" fill="url(#paint7_radial_2764_8986)"/>
<path d="M411.344 61.737C411.344 61.7373 411.345 61.7374 411.345 61.7371C413.847 57.6781 415.882 53.1097 417.672 48.294C417.021 49.585 416.326 50.833 415.581 52.0314C415.204 52.636 414.875 53.2689 414.615 53.932C413.576 56.5889 412.496 59.2044 411.344 61.7367C411.344 61.7368 411.344 61.7369 411.344 61.737Z" fill="url(#paint8_radial_2764_8986)"/>
<path d="M255.883 95.3149C260.486 94.27 265.155 92.5092 269.86 90.3822C268.525 90.8087 267.192 91.1735 265.861 91.4678C265.136 91.6282 264.423 91.8448 263.741 92.1393C261.109 93.2758 258.488 94.3516 255.883 95.3149Z" fill="url(#paint9_radial_2764_8986)"/>
<path d="M196.594 35.993C196.594 35.9931 196.594 35.9931 196.594 35.9929C191.294 32.4094 184.667 30.0084 177.53 28.0134C174.764 27.5802 172.045 27.0774 169.415 26.4537C175.268 28.6485 180.637 31.1988 185.007 34.54C205.456 50.1763 215.215 88.861 239.702 95.3883C243.176 96.3143 246.715 96.5296 250.302 96.2112C250.438 96.1992 250.571 96.1692 250.699 96.1228C251.603 95.794 252.51 95.4586 253.417 95.1183C254.693 94.6393 254.254 92.0324 252.918 91.7587C228.868 86.8257 217.252 49.9632 196.595 35.9931C196.595 35.9929 196.595 35.9929 196.594 35.993Z" fill="url(#paint10_radial_2764_8986)"/>
<path d="M326.645 62.6685C326.646 62.6686 326.646 62.6688 326.645 62.6689C319.98 63.9508 313.262 67.0561 306.53 70.797C304.294 72.4152 302.051 73.9478 299.796 75.3336C305.744 72.6707 311.641 70.6032 317.426 69.8354C342.042 66.5711 376.285 87.4075 399.111 74.1881C402.596 72.1702 405.524 69.5265 408.039 66.4242C408.118 66.3278 408.183 66.2218 408.235 66.1092C408.478 65.5838 408.719 65.0567 408.959 64.528C409.575 63.1688 407.135 61.4553 405.889 62.2769C384.558 76.3472 350.269 58.1256 326.645 62.6682C326.645 62.6682 326.645 62.6684 326.645 62.6685Z" fill="url(#paint11_radial_2764_8986)"/>
<path d="M123.511 -74.809C123.511 -74.8088 123.511 -74.8089 123.511 -74.809C122.229 -81.4749 119.124 -88.1924 115.383 -94.9242C113.765 -97.1606 112.232 -99.4032 110.846 -101.658C113.509 -95.7109 115.577 -89.8132 116.345 -84.0284C119.609 -59.4122 98.7725 -25.1695 111.992 -2.34302C114.01 1.14125 116.653 4.06992 119.756 6.58491C119.852 6.66307 119.958 6.72866 120.071 6.78071C120.596 7.02337 121.123 7.26445 121.652 7.50418C123.011 8.12058 124.725 5.68072 123.903 4.43483C109.833 -16.8966 128.054 -51.1859 123.512 -74.809C123.512 -74.8092 123.512 -74.8092 123.511 -74.809Z" fill="url(#paint12_radial_2764_8986)"/>
<path d="M437.446 -10.4148C437.446 -10.4145 437.446 -10.4142 437.446 -10.414C433.863 -5.1145 431.462 1.5121 429.467 8.64984C429.034 11.4159 428.531 14.135 427.907 16.7648C430.102 10.9113 432.652 5.54257 435.993 1.1726C451.63 -19.2767 490.314 -29.035 496.842 -53.5228C497.768 -56.9964 497.983 -60.5353 497.665 -64.1228C497.653 -64.2582 497.622 -64.3913 497.576 -64.5191C497.247 -65.4238 496.912 -66.33 496.572 -67.2372C496.093 -68.5138 493.486 -68.0743 493.212 -66.7386C488.279 -42.6885 451.417 -31.0726 437.446 -10.4156C437.446 -10.4154 437.446 -10.4151 437.446 -10.4148Z" fill="url(#paint13_radial_2764_8986)"/>
<path d="M421.164 38.3724C420.897 38.9078 420.666 39.4603 420.485 40.0306C419.598 42.8319 418.673 45.6015 417.672 48.2946C419.588 44.4918 421.123 40.3196 422.451 35.9621C422.479 35.8708 422.355 35.8169 422.308 35.8997C421.946 36.7408 421.566 37.5658 421.164 38.3724Z" fill="url(#paint14_radial_2764_8986)"/>
<path d="M279.446 85.858C278.853 86.0493 278.272 86.2799 277.718 86.5641C275.091 87.9097 272.47 89.2029 269.859 90.3832C274.042 89.0484 278.244 87.1136 282.459 84.8725C282.512 84.8445 282.481 84.7653 282.423 84.7807C281.431 85.1769 280.439 85.5374 279.446 85.858Z" fill="url(#paint15_radial_2764_8986)"/>
<path d="M147.807 19.7104C147.272 19.4436 146.719 19.2117 146.149 19.0311C143.347 18.1442 140.578 17.2188 137.885 16.218C141.688 18.1341 145.86 19.6692 150.217 20.9973C150.309 21.0251 150.363 20.9013 150.28 20.8539C149.439 20.4926 148.614 20.1122 147.807 19.7104Z" fill="url(#paint16_radial_2764_8986)"/>
<path d="M260.979 92.2139C260.98 92.2136 260.98 92.2135 260.981 92.2134C262.192 92.1158 263.406 91.9493 264.621 91.7212C264.717 91.7032 264.811 91.6741 264.901 91.6348C268.296 90.1486 271.706 88.5737 275.114 87.0228C275.133 87.0143 275.124 86.9865 275.104 86.9904C270.431 88.5544 265.705 90.3806 260.979 92.2139Z" fill="url(#paint17_radial_2764_8986)"/>
<path d="M133.633 12.7621C133.052 12.5079 132.667 13.167 133.196 13.5163C133.229 13.5378 133.264 13.556 133.3 13.57C136.753 14.9025 140.265 16.1741 143.745 17.4528C143.772 17.4627 143.792 17.4237 143.768 17.4079C140.5 15.8023 137.09 14.2743 133.633 12.7621Z" fill="url(#paint18_radial_2764_8986)"/>
<path d="M414.217 52.5461C413.962 53.1269 414.621 53.5121 414.971 52.983C414.992 52.9505 415.01 52.9153 415.024 52.879C416.357 49.4267 417.629 45.9145 418.907 42.4339C418.917 42.4069 418.878 42.3873 418.862 42.4113C417.257 45.6798 415.729 49.0893 414.217 52.5461Z" fill="url(#paint19_radial_2764_8986)"/>
<path d="M291.939 79.4461C291.865 79.4906 291.791 79.535 291.716 79.5794C291.478 79.7223 291.664 80.116 291.927 80.0245C291.941 80.0197 291.954 80.0135 291.967 80.0061C293.4 79.1678 294.83 78.2856 296.261 77.3715C294.827 78.1404 293.387 78.8367 291.94 79.4458L291.939 79.4461Z" fill="url(#paint20_radial_2764_8986)"/>
<path d="M158.332 23.2312C158.332 23.2312 158.333 23.2312 158.333 23.2312C158.962 23.5144 159.585 23.8017 160.201 24.0934C160.473 24.2221 160.756 24.3261 161.048 24.4003C162.656 24.8093 164.29 25.1863 165.941 25.54C164.35 25.0758 162.799 24.5568 161.302 23.9686C160.31 23.7265 159.32 23.4816 158.332 23.2318C158.332 23.2317 158.332 23.2313 158.332 23.2312Z" fill="url(#paint21_radial_2764_8986)"/>
<path d="M154.55 21.6032C154.55 21.6031 154.55 21.6029 154.55 21.6028C153.197 21.1944 151.84 20.7858 150.484 20.3733C150.203 20.2876 150.025 20.706 150.28 20.8529C150.745 21.0529 151.216 21.2473 151.692 21.4369C152.795 21.759 153.909 22.0696 155.03 22.3712C155.383 22.466 155.538 22.0156 155.201 21.8746C154.985 21.7839 154.768 21.6935 154.55 21.6035C154.55 21.6034 154.55 21.6032 154.55 21.6032Z" fill="url(#paint22_radial_2764_8986)"/>
<path d="M285.587 82.4399C284.459 83.0362 283.331 83.6339 282.203 84.2281C281.909 84.3831 282.101 84.8655 282.422 84.7806C282.718 84.6627 283.014 84.541 283.309 84.4163C284.159 83.9567 285.008 83.4855 285.859 83.0049C286.247 82.7857 285.999 82.2715 285.587 82.4403L285.587 82.4399Z" fill="url(#paint23_radial_2764_8986)"/>
<path d="M275.416 86.8862C275.416 86.8866 275.415 86.8869 275.415 86.887C275.413 86.888 275.411 86.8891 275.408 86.8901C275.387 86.8998 275.397 86.9317 275.42 86.927C276.461 86.7124 277.502 86.448 278.541 86.1382C278.548 86.136 278.555 86.1332 278.562 86.1296C278.695 86.0611 278.616 85.8654 278.473 85.9091C277.457 86.2201 276.438 86.5464 275.417 86.8853C275.416 86.8854 275.416 86.8857 275.416 86.8862Z" fill="url(#paint24_radial_2764_8986)"/>
<path d="M144.188 17.6148C144.188 17.6149 144.188 17.6149 144.187 17.6148C144.184 17.6137 144.181 17.6125 144.178 17.6114C144.15 17.601 144.13 17.6412 144.155 17.6575C145.072 18.2391 146.021 18.7836 146.998 19.2957C147.004 19.2989 147.01 19.3015 147.017 19.3035C147.148 19.3449 147.223 19.1665 147.101 19.1021C146.145 18.5977 145.174 18.1026 144.189 17.6148C144.189 17.6146 144.188 17.6146 144.188 17.6148Z" fill="url(#paint25_radial_2764_8986)"/>
<path d="M483.528 -91.2904C483.528 -91.2905 483.528 -91.2905 483.528 -91.2903C481.556 -68.4083 448.567 -53.6121 437.83 -32.9008C433.954 -25.4238 432.54 -15.7589 431.33 -5.78358C431.15 -3.58011 430.934 -1.3968 430.656 0.747629C432.302 -7.63692 434.338 -15.5505 438.049 -21.7922C450.383 -42.5351 485.342 -55.8324 488.755 -79.3447C489.221 -82.5522 489.069 -85.7443 488.445 -88.9245C488.41 -89.0285 488.375 -89.1317 488.341 -89.2358C486.795 -92.6352 485.275 -96.0315 483.894 -99.4083C483.708 -99.76 482.947 -99.4574 483.028 -99.0679C483.56 -96.5059 483.755 -93.9159 483.529 -91.2904C483.529 -91.2903 483.529 -91.2903 483.528 -91.2904Z" fill="url(#paint26_radial_2764_8986)"/>
<path d="M277.47 82.0742C277.47 82.0744 277.47 82.0747 277.47 82.0746C254.588 80.1024 239.791 47.113 219.08 36.3766C211.603 32.5003 201.938 31.0869 191.964 29.8762C189.76 29.6965 187.577 29.4803 185.431 29.2015C193.816 30.8479 201.729 32.8839 207.971 36.5947C228.714 48.9287 242.011 83.8879 265.524 87.3009C268.731 87.7669 271.923 87.6142 275.104 86.9897C275.208 86.955 275.312 86.9205 275.416 86.8858C278.815 85.3402 282.211 83.8206 285.588 82.4388C285.94 82.2529 285.637 81.4923 285.248 81.5732C282.686 82.1052 280.096 82.2997 277.47 82.0738C277.47 82.0738 277.47 82.074 277.47 82.0742Z" fill="url(#paint27_radial_2764_8986)"/>
<path d="M416.405 38.0677C416.405 38.0675 416.404 38.0674 416.404 38.0675C398.111 53.4569 364.273 40.2501 342.817 47.0374C334.391 49.7024 326.256 55.6588 318.156 61.9236C316.482 63.3322 314.803 64.7009 313.114 65.9968C320.411 61.1683 327.729 56.921 335.118 55.0489C357.685 49.3303 391.837 65.0047 411.654 50.211C414.55 48.0493 416.909 45.4079 418.864 42.4122C418.932 42.2717 419.002 42.1316 419.071 41.9919C420.366 38.4706 421.672 34.9849 423.059 31.6294C423.489 30.2037 423.92 28.7806 424.356 27.3679C422.428 31.4987 419.877 35.1469 416.405 38.0678C416.405 38.0679 416.405 38.0679 416.405 38.0677Z" fill="url(#paint28_radial_2764_8986)"/>
<path d="M148.111 14.9506C148.111 14.9505 148.111 14.9499 148.111 14.9495C132.722 -3.34342 145.929 -37.1814 139.142 -58.6374C136.476 -67.0635 130.52 -75.1983 124.255 -83.2982C122.847 -84.9722 121.478 -86.6512 120.182 -88.34C125.011 -81.0436 129.258 -73.7256 131.13 -66.3365C136.849 -43.7695 121.174 -9.61747 135.967 10.1999C138.129 13.0964 140.77 15.4545 143.766 17.4098C143.906 17.4783 144.046 17.5481 144.186 17.617C147.707 18.9124 151.193 20.2181 154.549 21.6048C155.974 22.035 157.397 22.4663 158.81 22.9022C154.679 20.9743 151.031 18.4228 148.111 14.9517C148.11 14.9514 148.11 14.9508 148.111 14.9506Z" fill="url(#paint29_radial_2764_8986)"/>
<path d="M165.94 25.5397C167.078 25.8717 168.237 26.1741 169.414 26.453C169.249 26.391 169.084 26.3293 168.918 26.2679C168.453 26.0961 167.975 25.9637 167.49 25.8642C166.972 25.7579 166.455 25.6497 165.94 25.5397Z" fill="url(#paint30_radial_2764_8986)"/>
<path d="M296.261 77.3713C296.261 77.3716 296.261 77.3717 296.261 77.3716C297.444 76.7375 298.622 76.055 299.797 75.3327C299.421 75.5006 299.046 75.6713 298.67 75.8439C298.541 75.9034 298.416 75.9729 298.296 76.0513C297.618 76.497 296.94 76.9373 296.261 77.3707C296.261 77.3708 296.261 77.3711 296.261 77.3713Z" fill="url(#paint31_radial_2764_8986)"/>
<path d="M174.548 27.209C175.55 27.4706 176.545 27.7382 177.529 28.0132C178.705 28.1975 179.889 28.3679 181.078 28.531C179.63 28.2692 178.209 27.9663 176.821 27.6167C176.064 27.4813 175.307 27.3463 174.551 27.2097C174.55 27.2096 174.549 27.2093 174.548 27.209Z" fill="url(#paint32_radial_2764_8986)"/>
<path d="M303.769 72.3639C303.769 72.3636 303.769 72.3634 303.77 72.3633C304.69 71.8312 305.61 71.3076 306.531 70.7971C307.363 70.1955 308.195 69.5808 309.026 68.9594C307.82 69.7771 306.608 70.5451 305.387 71.2536C304.848 71.6243 304.309 71.995 303.77 72.3641C303.77 72.3642 303.77 72.3641 303.769 72.3639Z" fill="url(#paint33_radial_2764_8986)"/>
<path d="M297.795 76.2498C298.247 76.038 298.685 75.7958 299.101 75.5197C300.657 74.4873 302.212 73.429 303.768 72.3625C300.867 74.0394 297.964 75.8035 295.063 77.5606C295.974 77.1133 296.885 76.6756 297.795 76.2498Z" fill="url(#paint34_radial_2764_8986)"/>
<path d="M167.515 25.7597C167.985 25.9272 168.465 26.063 168.954 26.1596C170.809 26.5262 172.678 26.8717 174.549 27.2093C171.325 26.3672 168.025 25.5842 164.716 24.7922C165.658 25.1085 166.592 25.4305 167.515 25.7597Z" fill="url(#paint35_radial_2764_8986)"/>
<path d="M291.938 79.4464C292.979 78.8221 294.021 78.1915 295.062 77.561C293.983 78.0904 292.902 78.6333 291.822 79.1855C291.61 79.2934 291.72 79.5385 291.938 79.4464Z" fill="url(#paint36_radial_2764_8986)"/>
<path d="M161.302 23.9684C162.439 24.2464 163.578 24.5194 164.716 24.7924C162.779 24.1423 160.805 23.516 158.812 22.9012C159.623 23.2799 160.454 23.6359 161.302 23.9684Z" fill="url(#paint37_radial_2764_8986)"/>
<path d="M181.078 28.5307C181.078 28.5308 181.078 28.5309 181.078 28.5309C182.507 28.7895 183.96 29.0106 185.432 29.2011C184.9 29.0966 184.365 28.9933 183.829 28.8915C182.91 28.775 181.993 28.6557 181.078 28.5301C181.078 28.5301 181.078 28.5304 181.078 28.5307Z" fill="url(#paint38_radial_2764_8986)"/>
<path d="M309.026 68.9576C309.026 68.9574 309.026 68.9572 309.026 68.957C310.397 68.0277 311.758 67.035 313.113 65.9964C312.603 66.3343 312.093 66.6742 311.584 67.0167C310.732 67.6702 309.88 68.3182 309.026 68.9578C309.026 68.958 309.026 68.9579 309.026 68.9576Z" fill="url(#paint39_radial_2764_8986)"/>
<path d="M436.825 -43.6859C436.825 -43.6857 436.825 -43.6857 436.825 -43.6859C446.012 -64.2517 476.978 -80.3658 477.595 -102.532C477.757 -108.344 475.81 -113.857 472.707 -119.207C471.286 -121.272 469.861 -123.337 468.472 -125.405C466.791 -127.596 465.074 -129.784 463.379 -131.976C454.654 -142.342 444.373 -152.501 440.156 -163.551C432.41 -183.851 443.24 -217.21 427.379 -233.977C423.005 -238.601 417.259 -241.268 410.814 -242.892C408.465 -243.311 406.121 -243.728 403.806 -244.167C401.097 -244.51 398.373 -244.823 395.671 -245.151C382.246 -246.249 368.1 -246.031 357.771 -250.645C337.205 -259.831 321.091 -290.799 298.925 -291.415C293.112 -291.577 287.599 -289.631 282.25 -286.527C280.185 -285.106 278.119 -283.681 276.052 -282.292C273.86 -280.611 271.672 -278.894 269.48 -277.199C259.114 -268.474 248.955 -258.193 237.905 -253.976C217.605 -246.23 184.246 -257.06 167.479 -241.199C162.856 -236.826 160.188 -231.08 158.565 -224.634C158.145 -222.285 157.729 -219.941 157.289 -217.626C156.946 -214.917 156.633 -212.193 156.306 -209.492C155.208 -196.066 155.425 -181.921 150.811 -171.591C141.625 -151.025 110.658 -134.911 110.041 -112.745C109.879 -106.932 111.826 -101.42 114.929 -96.0699C116.35 -94.0048 117.775 -91.9395 119.164 -89.872C120.845 -87.6803 122.562 -85.4921 124.257 -83.3C132.982 -72.9342 143.263 -62.7755 147.48 -51.7251C155.226 -31.4252 144.396 1.9338 160.257 18.701C164.631 23.3242 170.377 25.9916 176.822 27.615C179.171 28.0345 181.515 28.4512 183.83 28.8908C186.54 29.2336 189.263 29.5466 191.965 29.8742C205.39 30.9721 219.536 30.7548 229.865 35.3688C250.431 44.555 266.545 75.5222 288.711 76.1384C294.524 76.3003 300.037 74.3542 305.386 71.2507C307.451 69.8299 309.517 68.4049 311.584 67.0159C313.776 65.3349 315.964 63.6174 318.156 61.9229C328.522 53.1974 338.681 42.9166 349.731 38.6995C370.031 30.9537 403.39 41.7836 420.157 25.9226C424.781 21.5491 427.448 15.8031 429.071 9.35802C429.491 7.00864 429.908 4.66459 430.347 2.34966C430.69 -0.359754 431.003 -3.083 431.33 -5.78483C432.428 -19.2099 432.211 -33.3554 436.825 -43.6859C436.825 -43.686 436.825 -43.686 436.825 -43.6859ZM422.928 13.8508C407.675 30.0591 374.955 21.5043 355.848 30.0998C336.04 39.0098 320.579 68.9124 299.207 69.5618C277.834 70.2111 260.585 41.3043 240.272 33.6145C220.678 26.196 188.538 36.7242 172.329 21.4721C156.121 6.21997 164.676 -26.5001 156.08 -45.6076C147.17 -65.4158 117.268 -80.8761 116.618 -102.249C115.969 -123.622 144.876 -140.871 152.566 -161.183C159.984 -180.778 149.456 -212.918 164.708 -229.126C179.96 -245.334 212.68 -236.78 231.788 -245.375C251.596 -254.285 267.056 -284.188 288.429 -284.837C309.802 -285.486 327.051 -256.58 347.364 -248.89C366.958 -241.471 399.098 -251.999 415.306 -236.747C431.514 -221.495 422.96 -188.775 431.555 -169.668C440.465 -149.859 470.368 -134.399 471.017 -113.026C471.667 -91.6537 442.76 -74.4045 435.07 -54.0919C427.651 -34.4975 438.18 -2.35758 422.928 13.8508Z" fill="url(#paint40_radial_2764_8986)"/>
<path d="M463.862 -122.739C463.863 -122.739 463.863 -122.739 463.863 -122.74C462.041 -143.249 432.429 -156.437 422.755 -174.98C413.422 -192.868 419.814 -224.801 403.378 -238.555C386.942 -252.31 356.635 -240.39 337.382 -246.425C317.424 -252.681 299.224 -279.504 278.714 -277.682C258.204 -275.861 245.015 -246.249 226.473 -236.574C208.585 -227.242 176.651 -233.633 162.897 -217.198C149.142 -200.762 161.062 -170.454 155.028 -151.202C148.772 -131.244 121.949 -113.043 123.77 -92.533C125.592 -72.023 155.204 -58.8347 164.878 -40.2919C174.211 -22.4041 167.819 9.52947 184.255 23.2835C200.691 37.0384 230.998 25.1184 250.251 31.1518C270.209 37.4077 288.409 64.2308 308.919 62.4094C329.429 60.5881 342.618 30.9759 361.16 21.3014C379.048 11.9688 410.982 18.3605 424.736 1.9248C438.491 -14.5113 426.571 -44.8184 432.604 -64.071C438.86 -84.0286 465.682 -102.229 463.862 -122.739C463.862 -122.739 463.862 -122.739 463.862 -122.739ZM425.613 -9.78675C413.329 6.75914 382.318 2.40802 365.67 12.3673C348.411 22.6905 337.408 51.8529 317.821 54.7479C298.235 57.6429 279.265 32.9118 259.758 28.023C240.94 23.3068 212.514 36.4436 195.968 24.1595C179.422 11.8754 183.772 -19.1354 173.814 -35.7839C163.491 -53.0426 134.328 -64.0463 131.433 -83.6326C128.538 -103.219 153.269 -122.189 158.158 -141.696C162.874 -160.514 149.738 -188.94 162.022 -205.486C174.306 -222.032 205.317 -217.682 221.965 -227.64C239.224 -237.963 250.227 -267.126 269.814 -270.021C289.4 -272.916 308.37 -248.185 327.877 -243.296C346.695 -238.58 375.121 -251.716 391.667 -239.432C408.213 -227.148 403.862 -196.137 413.821 -179.489C424.144 -162.23 453.307 -151.226 456.202 -131.64C459.097 -112.054 434.366 -93.0841 429.477 -73.5764C424.761 -54.7585 437.897 -26.3327 425.613 -9.78675Z" fill="url(#paint41_radial_2764_8986)"/>
<path d="M448.102 -139.706C444.234 -158.316 415.672 -167.234 404.814 -183.197C394.341 -198.597 396.78 -228.56 380.237 -239.41C363.694 -250.259 337.185 -236.082 318.887 -239.552C299.918 -243.148 280.357 -265.792 261.748 -261.923C243.138 -258.055 234.22 -229.493 218.257 -218.636C202.857 -208.162 172.894 -210.601 162.045 -194.058C151.195 -177.515 165.372 -151.006 161.902 -132.708C158.306 -113.739 135.663 -94.1783 139.531 -75.5691C143.399 -56.9595 171.961 -48.0415 182.819 -32.0778C193.292 -16.6781 190.853 13.2845 207.396 24.1342C223.939 34.984 250.448 20.807 268.746 24.2768C287.715 27.8731 307.276 50.5162 325.885 46.6477C344.495 42.7799 353.413 14.2175 369.376 3.36028C384.776 -7.11315 414.739 -4.674 425.588 -21.2171C436.438 -37.7602 422.261 -64.2694 425.731 -82.5672C429.327 -101.536 451.97 -121.097 448.102 -139.706ZM424.699 -32.3014C415.241 -15.8698 386.44 -16.5333 372.29 -5.65502C357.622 5.62188 350.681 33.4445 333.094 38.182C315.506 42.9198 295.53 22.3468 277.182 19.9633C259.484 17.6636 234.912 32.7033 218.481 23.2459C202.049 13.7884 202.713 -15.0131 191.834 -29.1634C180.557 -43.8312 152.735 -50.7724 147.997 -68.3595C143.259 -85.9476 163.832 -105.924 166.216 -124.271C168.516 -141.97 153.476 -166.541 162.933 -182.973C172.392 -199.404 201.192 -198.741 215.343 -209.619C230.01 -220.896 236.952 -248.719 254.539 -253.456C272.127 -258.194 292.103 -237.621 310.45 -235.237C328.149 -232.938 352.721 -247.977 369.152 -238.52C385.583 -229.062 384.92 -200.261 395.798 -186.111C407.075 -171.443 434.898 -164.502 439.635 -146.915C444.373 -129.327 423.8 -109.35 421.417 -91.0032C419.117 -73.3044 434.157 -48.7326 424.699 -32.3014Z" fill="url(#paint42_radial_2764_8986)"/>
<path d="M430.875 -153.253C425.373 -169.784 398.42 -174.864 386.836 -188.244C375.661 -201.15 374.694 -228.69 358.477 -236.808C342.26 -244.925 319.633 -229.197 302.605 -230.409C284.952 -231.664 264.732 -250.198 248.201 -244.696C231.67 -239.194 226.59 -212.241 213.211 -200.657C200.305 -189.482 172.765 -188.515 164.647 -172.298C156.529 -156.081 172.258 -133.454 171.046 -116.426C169.79 -98.7733 151.256 -78.5534 156.759 -62.0223C162.261 -45.4913 189.214 -40.4113 200.798 -27.0316C211.972 -14.1257 212.941 13.4139 229.157 21.532C245.374 29.6498 268 13.9212 285.029 15.1329C302.681 16.3888 322.901 34.9226 339.432 29.4203C355.963 23.9181 361.043 -3.03513 374.423 -14.619C387.329 -25.7935 414.869 -26.762 422.987 -42.978C431.104 -59.1948 415.376 -81.8212 416.588 -98.8498C417.843 -116.502 436.377 -136.722 430.875 -153.253ZM411.296 -106.077C411.087 -89.7826 427.33 -69.0939 420.495 -53.19C413.66 -37.2861 387.471 -34.835 375.791 -23.4705C363.684 -11.689 360.34 14.2777 344.892 20.4387C329.444 26.5995 309.148 10.0601 292.256 9.84355C275.961 9.63462 255.273 25.8779 239.369 19.0427C223.465 12.2076 221.014 -13.9816 209.649 -25.6613C197.868 -37.7684 171.901 -41.1128 165.74 -56.5609C159.579 -72.0089 176.119 -92.305 176.335 -109.196C176.544 -125.491 160.301 -146.18 167.136 -162.084C173.971 -177.988 200.161 -180.439 211.84 -191.803C223.947 -203.585 227.292 -229.551 242.74 -235.712C258.188 -241.873 278.484 -225.334 295.375 -225.117C311.67 -224.908 332.359 -241.152 348.263 -234.316C364.167 -227.481 366.618 -201.292 377.982 -189.612C389.764 -177.505 415.73 -174.161 421.891 -158.713C428.052 -143.265 411.513 -122.969 411.296 -106.077Z" fill="url(#paint43_radial_2764_8986)"/>
<path d="M369.3 -190.238C357.849 -200.712 354.068 -225.476 338.568 -231.094C323.069 -236.712 304.299 -220.122 288.794 -219.42C272.722 -218.691 252.509 -233.292 238.164 -226.579C223.818 -219.866 222.075 -194.992 211.217 -183.121C200.743 -171.67 175.979 -167.888 170.361 -152.389C164.743 -136.89 181.332 -118.12 182.035 -102.615C182.764 -86.5427 168.163 -66.3301 174.876 -51.9844C181.588 -37.6388 206.462 -35.8957 218.334 -25.0381C229.785 -14.5637 233.566 10.2005 249.065 15.8184C264.565 21.4363 283.335 4.8467 298.84 4.14384C314.912 3.4149 335.125 18.0158 349.47 11.3032C363.816 4.59063 365.559 -20.2834 376.417 -32.1545C386.891 -43.6061 411.655 -47.3873 417.273 -62.8864C422.891 -78.3855 406.302 -97.156 405.599 -112.661C404.87 -128.733 419.471 -148.946 412.758 -163.291C406.045 -177.637 381.171 -179.38 369.3 -190.238ZM399.553 -118.576C401.076 -103.911 417.847 -87.0251 413.374 -72.0157C408.902 -57.0063 385.625 -52.0525 376.323 -40.6126C366.681 -28.7542 366.403 -5.06777 353.168 2.09104C339.934 9.24985 319.958 -3.48089 304.756 -1.90158C290.091 -0.378311 273.205 16.3925 258.196 11.9201C243.187 7.4477 238.233 -15.8292 226.793 -25.1308C214.935 -34.773 191.248 -35.0515 184.089 -48.2859C176.93 -61.5203 189.661 -81.4963 188.082 -96.6984C186.559 -111.363 169.788 -128.249 174.26 -143.258C178.733 -158.268 202.01 -163.221 211.311 -174.661C220.953 -186.52 221.232 -210.206 234.466 -217.365C247.701 -224.524 267.677 -211.793 282.879 -213.372C297.543 -214.896 314.429 -231.666 329.439 -227.194C344.448 -222.722 349.402 -199.445 360.842 -190.143C372.7 -180.501 396.387 -180.223 403.545 -166.988C410.704 -153.754 397.973 -133.778 399.553 -118.576Z" fill="url(#paint44_radial_2764_8986)"/>
<path d="M352.661 -189.361C341.33 -197.527 335.363 -219.269 320.921 -222.672C306.48 -226.074 291.434 -209.284 277.648 -207.035C263.357 -204.704 243.763 -215.644 231.641 -208.144C219.518 -200.645 220.56 -178.228 212.094 -166.481C203.927 -155.149 182.185 -149.182 178.783 -134.741C175.38 -120.299 192.171 -105.253 194.419 -91.4669C196.75 -77.1764 185.81 -57.5824 193.31 -45.4599C200.809 -33.337 223.226 -34.3788 234.973 -25.9128C246.305 -17.7461 252.272 3.9954 266.714 7.39815C281.155 10.8009 296.201 -5.98988 309.987 -8.23861C324.278 -10.5693 343.872 0.37062 355.994 -7.12935C368.117 -14.6284 367.075 -37.0451 375.541 -48.7927C383.708 -60.1243 405.45 -66.0913 408.852 -80.5329C412.255 -94.9745 395.464 -110.021 393.216 -123.807C390.885 -138.097 401.825 -157.691 394.325 -169.814C386.825 -181.936 364.409 -180.895 352.661 -189.361ZM386.645 -128.34C389.522 -115.466 406.18 -102.203 403.765 -88.3991C401.35 -74.5956 381.178 -67.7759 374.101 -56.6439C366.764 -45.1037 368.977 -24.0259 357.958 -16.289C346.94 -8.55258 327.865 -17.7907 314.52 -14.8086C301.646 -11.9317 288.382 4.72604 274.579 2.31112C260.776 -0.103817 253.956 -20.2758 242.824 -27.353C231.284 -34.6899 210.206 -32.4769 202.469 -43.4957C194.732 -54.5135 203.971 -73.5885 200.988 -86.9336C198.112 -99.8078 181.454 -113.071 183.869 -126.875C186.284 -140.678 206.456 -147.498 213.533 -158.63C220.87 -170.17 218.657 -191.248 229.676 -198.985C240.693 -206.721 259.768 -197.483 273.114 -200.465C285.988 -203.342 299.251 -220 313.055 -217.585C326.858 -215.17 333.678 -194.998 344.81 -187.921C356.35 -180.584 377.428 -182.797 385.165 -171.778C392.901 -160.76 383.663 -141.685 386.645 -128.34Z" fill="url(#paint45_radial_2764_8986)"/>
<path d="M337.336 -185.86C326.489 -191.901 318.977 -210.48 305.876 -211.994C292.774 -213.509 281.223 -197.131 269.284 -193.724C256.908 -190.191 238.48 -197.828 228.552 -189.956C218.622 -182.084 221.855 -162.401 215.593 -151.156C209.552 -140.31 190.973 -132.797 189.459 -119.696C187.944 -106.594 204.322 -95.0435 207.729 -83.1045C211.262 -70.7281 203.625 -52.3009 211.497 -42.3717C219.369 -32.4425 239.053 -35.6753 250.297 -29.4129C261.144 -23.3725 268.656 -4.79317 281.757 -3.27884C294.859 -1.76452 306.41 -18.1419 318.349 -21.5494C330.725 -25.0826 349.153 -17.4456 359.081 -25.3173C369.011 -33.1894 365.778 -52.8727 372.04 -64.1172C378.081 -74.9637 396.66 -82.4761 398.174 -95.5775C399.689 -108.679 383.311 -120.23 379.904 -132.169C376.371 -144.545 384.008 -162.973 376.136 -172.902C368.264 -182.831 348.58 -179.598 337.336 -185.86ZM373.05 -135.29C376.889 -124.302 392.846 -114.384 392.144 -102.04C391.442 -89.6961 374.462 -81.6531 369.4 -71.1718C364.152 -60.307 368.251 -42.0612 359.387 -34.1523C350.523 -26.2434 332.86 -32.3859 321.47 -28.4057C310.482 -24.5659 300.564 -8.60879 288.22 -9.31144C275.876 -10.0137 267.833 -26.9934 257.352 -32.0552C246.487 -37.3031 228.241 -33.2047 220.332 -42.0685C212.423 -50.9323 218.566 -68.5952 214.586 -79.9855C210.746 -90.9733 194.789 -100.892 195.491 -113.235C196.194 -125.579 213.173 -133.622 218.235 -144.103C223.483 -154.968 219.385 -173.214 228.248 -181.123C237.112 -189.032 254.775 -182.889 266.165 -186.87C277.153 -190.709 287.072 -206.667 299.415 -205.964C311.759 -205.262 319.802 -188.282 330.283 -183.22C341.148 -177.972 359.394 -182.071 367.303 -173.207C375.212 -164.343 369.069 -146.68 373.05 -135.29Z" fill="url(#paint46_radial_2764_8986)"/>
<path d="M323.692 -180.04C313.652 -184.188 305.237 -199.572 293.696 -199.557C282.157 -199.542 273.781 -184.136 263.751 -179.962C253.355 -175.635 236.563 -180.4 228.735 -172.55C220.905 -164.699 225.714 -147.922 221.414 -137.513C217.266 -127.473 201.882 -119.058 201.897 -107.517C201.912 -95.9773 217.318 -87.602 221.492 -77.572C225.819 -67.1752 221.055 -50.3839 228.904 -42.5554C236.755 -34.7259 253.533 -39.535 263.941 -35.2345C273.981 -31.0868 282.396 -15.7027 293.937 -15.7175C305.477 -15.7328 313.852 -31.139 323.882 -35.3127C334.279 -39.6401 351.07 -34.8753 358.899 -42.7252C366.728 -50.5755 361.919 -67.3532 366.22 -77.7617C370.367 -87.8022 385.752 -96.2171 385.737 -107.758C385.721 -119.298 370.315 -127.673 366.141 -137.703C361.814 -148.1 366.579 -164.891 358.729 -172.72C350.879 -180.549 334.101 -175.74 323.692 -180.04ZM359.238 -139.413C363.649 -130.341 378.382 -123.409 379.019 -112.713C379.656 -102.016 365.85 -93.3847 362.547 -83.8527C359.122 -73.9724 364.487 -58.6785 357.653 -50.9789C350.819 -43.2793 334.997 -46.7898 325.592 -42.2173C316.52 -37.8063 309.588 -23.0731 298.892 -22.436C288.195 -21.7989 279.564 -35.6054 270.032 -38.9084C260.151 -42.3326 244.857 -36.9686 237.158 -43.8024C229.458 -50.6363 232.969 -66.4585 228.396 -75.863C223.985 -84.9349 209.252 -91.8671 208.615 -102.564C207.978 -113.26 221.784 -121.891 225.087 -131.423C228.512 -141.304 223.147 -156.598 229.981 -164.297C236.815 -171.997 252.637 -168.486 262.042 -173.059C271.114 -177.47 278.046 -192.203 288.742 -192.84C299.439 -193.477 308.07 -179.671 317.602 -176.368C327.483 -172.943 342.777 -178.308 350.476 -171.474C358.176 -164.64 354.665 -148.818 359.238 -139.413Z" fill="url(#paint47_radial_2764_8986)"/>
<defs>
<radialGradient id="paint0_radial_2764_8986" cx="0" cy="0" r="1" gradientUnits="userSpaceOnUse" gradientTransform="translate(376.833 56.5104) rotate(-39.1963) scale(217.491 67.4436)">
<stop stop-color="#FFB6D5"/>
<stop offset="0.1" stop-color="#FFE3C0"/>
<stop offset="0.29" stop-color="#C7FBDB"/>
<stop offset="0.43" stop-color="#C7CDF4"/>
<stop offset="0.54" stop-color="#FFBCD4"/>
<stop offset="0.66" stop-color="#FFE0C3"/>
<stop offset="0.76" stop-color="#B0F1D4"/>
<stop offset="0.84" stop-color="#C9CEEC"/>
<stop offset="0.91" stop-color="#FFC1DA"/>
<stop offset="1" stop-color="#BDFFE3"/>
<animateTransform 
attributeName="gradientTransform"
attributeType="XML"
type="scale"
values="427.491 134.4436; 827.491 234.4436; 427.491 134.4436"
dur="5s"
keyTimes="0; 0.5; 1"
repeatCount="indefinite"
/>
</radialGradient>
<radialGradient id="paint1_radial_2764_8986" cx="0" cy="0" r="1" gradientUnits="userSpaceOnUse" gradientTransform="translate(105.569 -90.9648) rotate(-77.7823) scale(161.731 90.6979)">
<stop stop-color="#FFB6D5"/>
<stop offset="0.1" stop-color="#FFE3C0"/>
<stop offset="0.29" stop-color="#C7FBDB"/>
<stop offset="0.43" stop-color="#C7CDF4"/>
<stop offset="0.54" stop-color="#FFBCD4"/>
<stop offset="0.66" stop-color="#FFE0C3"/>
<stop offset="0.76" stop-color="#B0F1D4"/>
<stop offset="0.84" stop-color="#C9CEEC"/>
<stop offset="0.91" stop-color="#FFC1DA"/>
<stop offset="1" stop-color="#BDFFE3"/>
</radialGradient>
<radialGradient id="paint2_radial_2764_8986" cx="0" cy="0" r="1" gradientUnits="userSpaceOnUse" gradientTransform="translate(490.444 -37.4574) rotate(-40.322) scale(204.553 67.4367)">
<stop stop-color="#FFB6D5"/>
<stop offset="0.1" stop-color="#FFE3C0"/>
<stop offset="0.29" stop-color="#C7FBDB"/>
<stop offset="0.43" stop-color="#C7CDF4"/>
<stop offset="0.54" stop-color="#FFBCD4"/>
<stop offset="0.66" stop-color="#FFE0C3"/>
<stop offset="0.76" stop-color="#B0F1D4"/>
<stop offset="0.84" stop-color="#C9CEEC"/>
<stop offset="0.91" stop-color="#FFC1DA"/>
<stop offset="1" stop-color="#BDFFE3"/>
</radialGradient>
<radialGradient id="paint3_radial_2764_8986" cx="0" cy="0" r="1" gradientUnits="userSpaceOnUse" gradientTransform="translate(201.376 26.8325) rotate(-75.7874) scale(155.201 88.8806)">
<stop stop-color="#FFB6D5"/>
<stop offset="0.1" stop-color="#FFE3C0"/>
<stop offset="0.29" stop-color="#C7FBDB"/>
<stop offset="0.43" stop-color="#C7CDF4"/>
<stop offset="0.54" stop-color="#FFBCD4"/>
<stop offset="0.66" stop-color="#FFE0C3"/>
<stop offset="0.76" stop-color="#B0F1D4"/>
<stop offset="0.84" stop-color="#C9CEEC"/>
<stop offset="0.91" stop-color="#FFC1DA"/>
<stop offset="1" stop-color="#BDFFE3"/>
<animateTransform 
attributeName="gradientTransform"
attributeType="XML"
type="scale"
values="310.201 135.8806; 620.201 270.8806; 310.201 135.8806"
dur="5s"
keyTimes="0; 0.5; 1"
repeatCount="indefinite"
/>
</radialGradient>
<radialGradient id="paint4_radial_2764_8986" cx="0" cy="0" r="1" gradientUnits="userSpaceOnUse" gradientTransform="translate(119.518 1.99612) rotate(-63.2376) scale(21.449 12.4961)">
<stop stop-color="#FFB6D5"/>
<stop offset="0.1" stop-color="#FFE3C0"/>
<stop offset="0.29" stop-color="#C7FBDB"/>
<stop offset="0.43" stop-color="#C7CDF4"/>
<stop offset="0.54" stop-color="#FFBCD4"/>
<stop offset="0.66" stop-color="#FFE0C3"/>
<stop offset="0.76" stop-color="#B0F1D4"/>
<stop offset="0.84" stop-color="#C9CEEC"/>
<stop offset="0.91" stop-color="#FFC1DA"/>
<stop offset="1" stop-color="#BDFFE3"/>
</radialGradient>
<radialGradient id="paint5_radial_2764_8986" cx="0" cy="0" r="1" gradientUnits="userSpaceOnUse" gradientTransform="translate(253.136 94.6867) rotate(-28.6785) scale(27.1451 2.94056)">
<stop stop-color="#FFB6D5"/>
<stop offset="0.1" stop-color="#FFE3C0"/>
<stop offset="0.29" stop-color="#C7FBDB"/>
<stop offset="0.43" stop-color="#C7CDF4"/>
<stop offset="0.54" stop-color="#FFBCD4"/>
<stop offset="0.66" stop-color="#FFE0C3"/>
<stop offset="0.76" stop-color="#B0F1D4"/>
<stop offset="0.84" stop-color="#C9CEEC"/>
<stop offset="0.91" stop-color="#FFC1DA"/>
<stop offset="1" stop-color="#BDFFE3"/>
</radialGradient>
<radialGradient id="paint6_radial_2764_8986" cx="0" cy="0" r="1" gradientUnits="userSpaceOnUse" gradientTransform="translate(410.502 64.4169) rotate(-48.7261) scale(24.1951 11.0778)">
<stop stop-color="#FFB6D5"/>
<stop offset="0.1" stop-color="#FFE3C0"/>
<stop offset="0.29" stop-color="#C7FBDB"/>
<stop offset="0.43" stop-color="#C7CDF4"/>
<stop offset="0.54" stop-color="#FFBCD4"/>
<stop offset="0.66" stop-color="#FFE0C3"/>
<stop offset="0.76" stop-color="#B0F1D4"/>
<stop offset="0.84" stop-color="#C9CEEC"/>
<stop offset="0.91" stop-color="#FFC1DA"/>
<stop offset="1" stop-color="#BDFFE3"/>
</radialGradient>
<radialGradient id="paint7_radial_2764_8986" cx="0" cy="0" r="1" gradientUnits="userSpaceOnUse" gradientTransform="translate(133.119 8.98446) rotate(-58.8921) scale(21.9491 12.288)">
<stop stop-color="#FFB6D5"/>
<stop offset="0.1" stop-color="#FFE3C0"/>
<stop offset="0.29" stop-color="#C7FBDB"/>
<stop offset="0.43" stop-color="#C7CDF4"/>
<stop offset="0.54" stop-color="#FFBCD4"/>
<stop offset="0.66" stop-color="#FFE0C3"/>
<stop offset="0.76" stop-color="#B0F1D4"/>
<stop offset="0.84" stop-color="#C9CEEC"/>
<stop offset="0.91" stop-color="#FFC1DA"/>
<stop offset="1" stop-color="#BDFFE3"/>
</radialGradient>
<radialGradient id="paint8_radial_2764_8986" cx="0" cy="0" r="1" gradientUnits="userSpaceOnUse" gradientTransform="translate(417.025 51.0864) rotate(-52.3723) scale(23.1831 11.6339)">
<stop stop-color="#FFB6D5"/>
<stop offset="0.1" stop-color="#FFE3C0"/>
<stop offset="0.29" stop-color="#C7FBDB"/>
<stop offset="0.43" stop-color="#C7CDF4"/>
<stop offset="0.54" stop-color="#FFBCD4"/>
<stop offset="0.66" stop-color="#FFE0C3"/>
<stop offset="0.76" stop-color="#B0F1D4"/>
<stop offset="0.84" stop-color="#C9CEEC"/>
<stop offset="0.91" stop-color="#FFC1DA"/>
<stop offset="1" stop-color="#BDFFE3"/>
</radialGradient>
<radialGradient id="paint9_radial_2764_8986" cx="0" cy="0" r="1" gradientUnits="userSpaceOnUse" gradientTransform="translate(267.476 90.5623) rotate(-25.9422) scale(26.9298 1.40863)">
<stop stop-color="#FFB6D5"/>
<stop offset="0.1" stop-color="#FFE3C0"/>
<stop offset="0.29" stop-color="#C7FBDB"/>
<stop offset="0.43" stop-color="#C7CDF4"/>
<stop offset="0.54" stop-color="#FFBCD4"/>
<stop offset="0.66" stop-color="#FFE0C3"/>
<stop offset="0.76" stop-color="#B0F1D4"/>
<stop offset="0.84" stop-color="#C9CEEC"/>
<stop offset="0.91" stop-color="#FFC1DA"/>
<stop offset="1" stop-color="#BDFFE3"/>
</radialGradient>
<radialGradient id="paint10_radial_2764_8986" cx="0" cy="0" r="1" gradientUnits="userSpaceOnUse" gradientTransform="translate(223.453 27.7965) rotate(-69.7858) scale(152.705 90.3299)">
<stop stop-color="#FFB6D5"/>
<stop offset="0.1" stop-color="#FFE3C0"/>
<stop offset="0.29" stop-color="#C7FBDB"/>
<stop offset="0.43" stop-color="#C7CDF4"/>
<stop offset="0.54" stop-color="#FFBCD4"/>
<stop offset="0.66" stop-color="#FFE0C3"/>
<stop offset="0.76" stop-color="#B0F1D4"/>
<stop offset="0.84" stop-color="#C9CEEC"/>
<stop offset="0.91" stop-color="#FFC1DA"/>
<stop offset="1" stop-color="#BDFFE3"/>
<animateTransform 
attributeName="gradientTransform"
attributeType="XML"
type="scale"
values="300.171 180.642; 600.171 360.642; 300.171 180.642"
dur="5s"
keyTimes="0; 0.5; 1"
repeatCount="indefinite"
/>
</radialGradient>
<radialGradient id="paint11_radial_2764_8986" cx="0" cy="0" r="1" gradientUnits="userSpaceOnUse" gradientTransform="translate(389.231 44.7686) rotate(-36.3461) scale(207.604 53.6552)">
<stop stop-color="#FFB6D5"/>
<stop offset="0.1" stop-color="#FFE3C0"/>
<stop offset="0.29" stop-color="#C7FBDB"/>
<stop offset="0.43" stop-color="#C7CDF4"/>
<stop offset="0.54" stop-color="#FFBCD4"/>
<stop offset="0.66" stop-color="#FFE0C3"/>
<stop offset="0.76" stop-color="#B0F1D4"/>
<stop offset="0.84" stop-color="#C9CEEC"/>
<stop offset="0.91" stop-color="#FFC1DA"/>
<stop offset="1" stop-color="#BDFFE3"/>
<animateTransform 
attributeName="gradientTransform"
attributeType="XML"
type="scale"
values="407.604 103.6552; 807.604 203.6552; 407.604 103.6552"
dur="5s"
keyTimes="0; 0.5; 1"
repeatCount="indefinite"
/>
</radialGradient>
<radialGradient id="paint12_radial_2764_8986" cx="0" cy="0" r="1" gradientUnits="userSpaceOnUse" gradientTransform="translate(117.407 -76.0578) rotate(-83.1993) scale(147.066 75.742)">
<stop stop-color="#FFB6D5"/>
<stop offset="0.1" stop-color="#FFE3C0"/>
<stop offset="0.29" stop-color="#C7FBDB"/>
<stop offset="0.43" stop-color="#C7CDF4"/>
<stop offset="0.54" stop-color="#FFBCD4"/>
<stop offset="0.66" stop-color="#FFE0C3"/>
<stop offset="0.76" stop-color="#B0F1D4"/>
<stop offset="0.84" stop-color="#C9CEEC"/>
<stop offset="0.91" stop-color="#FFC1DA"/>
<stop offset="1" stop-color="#BDFFE3"/>
<animateTransform xmlns="http://www.w3.org/2000/svg" attributeName="gradientTransform" attributeType="XML" type="scale" 
values="340.207 186.4431; 680.207 372.4431; 340.207 186.4431" 
dur="5s" keyTimes="0; 0.5; 1" repeatCount="indefinite"/>
</radialGradient>
<radialGradient id="paint13_radial_2764_8986" cx="0" cy="0" r="1" gradientUnits="userSpaceOnUse" gradientTransform="translate(485.505 -56.4585) rotate(-44.0161) scale(188.017 73.3649)">
<stop stop-color="#FFB6D5"/>
<stop offset="0.1" stop-color="#FFE3C0"/>
<stop offset="0.29" stop-color="#C7FBDB"/>
<stop offset="0.43" stop-color="#C7CDF4"/>
<stop offset="0.54" stop-color="#FFBCD4"/>
<stop offset="0.66" stop-color="#FFE0C3"/>
<stop offset="0.76" stop-color="#B0F1D4"/>
<stop offset="0.84" stop-color="#C9CEEC"/>
<stop offset="0.91" stop-color="#FFC1DA"/>
<stop offset="1" stop-color="#BDFFE3"/>
</radialGradient>
<radialGradient id="paint14_radial_2764_8986" cx="0" cy="0" r="1" gradientUnits="userSpaceOnUse" gradientTransform="translate(422.209 38.0463) rotate(-56.1048) scale(21.0159 11.3156)">
<stop stop-color="#FFB6D5"/>
<stop offset="0.1" stop-color="#FFE3C0"/>
<stop offset="0.29" stop-color="#C7FBDB"/>
<stop offset="0.43" stop-color="#C7CDF4"/>
<stop offset="0.54" stop-color="#FFBCD4"/>
<stop offset="0.66" stop-color="#FFE0C3"/>
<stop offset="0.76" stop-color="#B0F1D4"/>
<stop offset="0.84" stop-color="#C9CEEC"/>
<stop offset="0.91" stop-color="#FFC1DA"/>
<stop offset="1" stop-color="#BDFFE3"/>
</radialGradient>
<radialGradient id="paint15_radial_2764_8986" cx="0" cy="0" r="1" gradientUnits="userSpaceOnUse" gradientTransform="translate(280.769 85.3618) rotate(-25.2592) scale(25.799 0.986307)">
<stop stop-color="#FFB6D5"/>
<stop offset="0.1" stop-color="#FFE3C0"/>
<stop offset="0.29" stop-color="#C7FBDB"/>
<stop offset="0.43" stop-color="#C7CDF4"/>
<stop offset="0.54" stop-color="#FFBCD4"/>
<stop offset="0.66" stop-color="#FFE0C3"/>
<stop offset="0.76" stop-color="#B0F1D4"/>
<stop offset="0.84" stop-color="#C9CEEC"/>
<stop offset="0.91" stop-color="#FFC1DA"/>
<stop offset="1" stop-color="#BDFFE3"/>
</radialGradient>
<radialGradient id="paint16_radial_2764_8986" cx="0" cy="0" r="1" gradientUnits="userSpaceOnUse" gradientTransform="translate(146.514 14.9681) rotate(-54.9862) scale(21.2146 11.2097)">
<stop stop-color="#FFB6D5"/>
<stop offset="0.1" stop-color="#FFE3C0"/>
<stop offset="0.29" stop-color="#C7FBDB"/>
<stop offset="0.43" stop-color="#C7CDF4"/>
<stop offset="0.54" stop-color="#FFBCD4"/>
<stop offset="0.66" stop-color="#FFE0C3"/>
<stop offset="0.76" stop-color="#B0F1D4"/>
<stop offset="0.84" stop-color="#C9CEEC"/>
<stop offset="0.91" stop-color="#FFC1DA"/>
<stop offset="1" stop-color="#BDFFE3"/>
</radialGradient>
<radialGradient id="paint17_radial_2764_8986" cx="0" cy="0" r="1" gradientUnits="userSpaceOnUse" gradientTransform="translate(272.879 87.3249) rotate(-25.8421) scale(27.6485 1.38922)">
<stop stop-color="#FFB6D5"/>
<stop offset="0.1" stop-color="#FFE3C0"/>
<stop offset="0.29" stop-color="#C7FBDB"/>
<stop offset="0.43" stop-color="#C7CDF4"/>
<stop offset="0.54" stop-color="#FFBCD4"/>
<stop offset="0.66" stop-color="#FFE0C3"/>
<stop offset="0.76" stop-color="#B0F1D4"/>
<stop offset="0.84" stop-color="#C9CEEC"/>
<stop offset="0.91" stop-color="#FFC1DA"/>
<stop offset="1" stop-color="#BDFFE3"/>
</radialGradient>
<radialGradient id="paint18_radial_2764_8986" cx="0" cy="0" r="1" gradientUnits="userSpaceOnUse" gradientTransform="translate(139.076 10.1985) rotate(-58.1905) scale(22.6856 12.5892)">
<stop stop-color="#FFB6D5"/>
<stop offset="0.1" stop-color="#FFE3C0"/>
<stop offset="0.29" stop-color="#C7FBDB"/>
<stop offset="0.43" stop-color="#C7CDF4"/>
<stop offset="0.54" stop-color="#FFBCD4"/>
<stop offset="0.66" stop-color="#FFE0C3"/>
<stop offset="0.76" stop-color="#B0F1D4"/>
<stop offset="0.84" stop-color="#C9CEEC"/>
<stop offset="0.91" stop-color="#FFC1DA"/>
<stop offset="1" stop-color="#BDFFE3"/>
</radialGradient>
<radialGradient id="paint19_radial_2764_8986" cx="0" cy="0" r="1" gradientUnits="userSpaceOnUse" gradientTransform="translate(418.351 45.118) rotate(-53.0082) scale(23.6946 12.0531)">
<stop stop-color="#FFB6D5"/>
<stop offset="0.1" stop-color="#FFE3C0"/>
<stop offset="0.29" stop-color="#C7FBDB"/>
<stop offset="0.43" stop-color="#C7CDF4"/>
<stop offset="0.54" stop-color="#FFBCD4"/>
<stop offset="0.66" stop-color="#FFE0C3"/>
<stop offset="0.76" stop-color="#B0F1D4"/>
<stop offset="0.84" stop-color="#C9CEEC"/>
<stop offset="0.91" stop-color="#FFC1DA"/>
<stop offset="1" stop-color="#BDFFE3"/>
</radialGradient>
<radialGradient id="paint20_radial_2764_8986" cx="0" cy="0" r="1" gradientUnits="userSpaceOnUse" gradientTransform="translate(295.258 77.9886) rotate(-26.7732) scale(13.9086 0.965199)">
<stop stop-color="#FFB6D5"/>
<stop offset="0.1" stop-color="#FFE3C0"/>
<stop offset="0.29" stop-color="#C7FBDB"/>
<stop offset="0.43" stop-color="#C7CDF4"/>
<stop offset="0.54" stop-color="#FFBCD4"/>
<stop offset="0.66" stop-color="#FFE0C3"/>
<stop offset="0.76" stop-color="#B0F1D4"/>
<stop offset="0.84" stop-color="#C9CEEC"/>
<stop offset="0.91" stop-color="#FFC1DA"/>
<stop offset="1" stop-color="#BDFFE3"/>
</radialGradient>
<radialGradient id="paint21_radial_2764_8986" cx="0" cy="0" r="1" gradientUnits="userSpaceOnUse" gradientTransform="translate(163.527 22.2972) rotate(-51.4397) scale(12.5035 6.14334)">
<stop stop-color="#FFB6D5"/>
<stop offset="0.1" stop-color="#FFE3C0"/>
<stop offset="0.29" stop-color="#C7FBDB"/>
<stop offset="0.43" stop-color="#C7CDF4"/>
<stop offset="0.54" stop-color="#FFBCD4"/>
<stop offset="0.66" stop-color="#FFE0C3"/>
<stop offset="0.76" stop-color="#B0F1D4"/>
<stop offset="0.84" stop-color="#C9CEEC"/>
<stop offset="0.91" stop-color="#FFC1DA"/>
<stop offset="1" stop-color="#BDFFE3"/>
</radialGradient>
<radialGradient id="paint22_radial_2764_8986" cx="0" cy="0" r="1" gradientUnits="userSpaceOnUse" gradientTransform="translate(154.984 18.5555) rotate(-53.5451) scale(16.7169 8.59718)">
<stop stop-color="#FFB6D5"/>
<stop offset="0.1" stop-color="#FFE3C0"/>
<stop offset="0.29" stop-color="#C7FBDB"/>
<stop offset="0.43" stop-color="#C7CDF4"/>
<stop offset="0.54" stop-color="#FFBCD4"/>
<stop offset="0.66" stop-color="#FFE0C3"/>
<stop offset="0.76" stop-color="#B0F1D4"/>
<stop offset="0.84" stop-color="#C9CEEC"/>
<stop offset="0.91" stop-color="#FFC1DA"/>
<stop offset="1" stop-color="#BDFFE3"/>
</radialGradient>
<radialGradient id="paint23_radial_2764_8986" cx="0" cy="0" r="1" gradientUnits="userSpaceOnUse" gradientTransform="translate(287.988 81.6328) rotate(-26.4284) scale(19.7073 1.228)">
<stop stop-color="#FFB6D5"/>
<stop offset="0.1" stop-color="#FFE3C0"/>
<stop offset="0.29" stop-color="#C7FBDB"/>
<stop offset="0.43" stop-color="#C7CDF4"/>
<stop offset="0.54" stop-color="#FFBCD4"/>
<stop offset="0.66" stop-color="#FFE0C3"/>
<stop offset="0.76" stop-color="#B0F1D4"/>
<stop offset="0.84" stop-color="#C9CEEC"/>
<stop offset="0.91" stop-color="#FFC1DA"/>
<stop offset="1" stop-color="#BDFFE3"/>
</radialGradient>
<radialGradient id="paint24_radial_2764_8986" cx="0" cy="0" r="1" gradientUnits="userSpaceOnUse" gradientTransform="translate(278.912 85.5147) rotate(-27.7158) scale(8.47509 0.75178)">
<stop stop-color="#FFB6D5"/>
<stop offset="0.1" stop-color="#FFE3C0"/>
<stop offset="0.29" stop-color="#C7FBDB"/>
<stop offset="0.43" stop-color="#C7CDF4"/>
<stop offset="0.54" stop-color="#FFBCD4"/>
<stop offset="0.66" stop-color="#FFE0C3"/>
<stop offset="0.76" stop-color="#B0F1D4"/>
<stop offset="0.84" stop-color="#C9CEEC"/>
<stop offset="0.91" stop-color="#FFC1DA"/>
<stop offset="1" stop-color="#BDFFE3"/>
</radialGradient>
<radialGradient id="paint25_radial_2764_8986" cx="0" cy="0" r="1" gradientUnits="userSpaceOnUse" gradientTransform="translate(146.609 17.3005) rotate(-60.5753) scale(6.80986 3.88308)">
<stop stop-color="#FFB6D5"/>
<stop offset="0.1" stop-color="#FFE3C0"/>
<stop offset="0.29" stop-color="#C7FBDB"/>
<stop offset="0.43" stop-color="#C7CDF4"/>
<stop offset="0.54" stop-color="#FFBCD4"/>
<stop offset="0.66" stop-color="#FFE0C3"/>
<stop offset="0.76" stop-color="#B0F1D4"/>
<stop offset="0.84" stop-color="#C9CEEC"/>
<stop offset="0.91" stop-color="#FFC1DA"/>
<stop offset="1" stop-color="#BDFFE3"/>
</radialGradient>
<radialGradient id="paint26_radial_2764_8986" cx="0" cy="0" r="1" gradientUnits="userSpaceOnUse" gradientTransform="translate(476.759 -81.8847) rotate(-51.4344) scale(182.795 89.8011)">
<stop stop-color="#FFB6D5"/>
<stop offset="0.1" stop-color="#FFE3C0"/>
<stop offset="0.29" stop-color="#C7FBDB"/>
<stop offset="0.43" stop-color="#C7CDF4"/>
<stop offset="0.54" stop-color="#FFBCD4"/>
<stop offset="0.66" stop-color="#FFE0C3"/>
<stop offset="0.76" stop-color="#B0F1D4"/>
<stop offset="0.84" stop-color="#C9CEEC"/>
<stop offset="0.91" stop-color="#FFC1DA"/>
<stop offset="1" stop-color="#BDFFE3"/>
</radialGradient>
<radialGradient id="paint27_radial_2764_8986" cx="0" cy="0" r="1" gradientUnits="userSpaceOnUse" gradientTransform="translate(252.133 23.0064) rotate(-59.9555) scale(170.207 96.4431)">
<stop stop-color="#FFB6D5"/>
<stop offset="0.1" stop-color="#FFE3C0"/>
<stop offset="0.29" stop-color="#C7FBDB"/>
<stop offset="0.43" stop-color="#C7CDF4"/>
<stop offset="0.54" stop-color="#FFBCD4"/>
<stop offset="0.66" stop-color="#FFE0C3"/>
<stop offset="0.76" stop-color="#B0F1D4"/>
<stop offset="0.84" stop-color="#C9CEEC"/>
<stop offset="0.91" stop-color="#FFC1DA"/>
<stop offset="1" stop-color="#BDFFE3"/>
<animateTransform 
attributeName="gradientTransform"
attributeType="XML"
type="scale"
values="340.207 186.4431; 680.207 372.4431; 340.207 186.4431"
dur="5s"
keyTimes="0; 0.5; 1"
repeatCount="indefinite"
/>
</radialGradient>
<radialGradient id="paint28_radial_2764_8986" cx="0" cy="0" r="1" gradientUnits="userSpaceOnUse" gradientTransform="translate(405.024 27.8713) rotate(-32.8916) scale(216.623 41.6946)">
<stop stop-color="#FFB6D5"/>
<stop offset="0.1" stop-color="#FFE3C0"/>
<stop offset="0.29" stop-color="#C7FBDB"/>
<stop offset="0.43" stop-color="#C7CDF4"/>
<stop offset="0.54" stop-color="#FFBCD4"/>
<stop offset="0.66" stop-color="#FFE0C3"/>
<stop offset="0.76" stop-color="#B0F1D4"/>
<stop offset="0.84" stop-color="#C9CEEC"/>
<stop offset="0.91" stop-color="#FFC1DA"/>
<stop offset="1" stop-color="#BDFFE3"/>
<animateTransform 
attributeName="gradientTransform"
attributeType="XML"
type="scale"
values="433.246 83.3892; 866.492 166.7784; 433.246 83.3892"
dur="5s"
keyTimes="0; 0.5; 1"
repeatCount="indefinite"
/>
</radialGradient>
<radialGradient id="paint29_radial_2764_8986" cx="0" cy="0" r="1" gradientUnits="userSpaceOnUse" gradientTransform="translate(132.078 -63.4574) rotate(-90.4621) scale(145.741 61.9742)">
<stop stop-color="#FFB6D5"/>
<stop offset="0.1" stop-color="#FFE3C0"/>
<stop offset="0.29" stop-color="#C7FBDB"/>
<stop offset="0.43" stop-color="#C7CDF4"/>
<stop offset="0.54" stop-color="#FFBCD4"/>
<stop offset="0.66" stop-color="#FFE0C3"/>
<stop offset="0.76" stop-color="#B0F1D4"/>
<stop offset="0.84" stop-color="#C9CEEC"/>
<stop offset="0.91" stop-color="#FFC1DA"/>
<stop offset="1" stop-color="#BDFFE3"/>
<animateTransform xmlns="http://www.w3.org/2000/svg" attributeName="gradientTransform" attributeType="XML" type="scale" 
values="340.207 186.4431; 680.207 372.4431; 340.207 186.4431" 
dur="5s" keyTimes="0; 0.5; 1" repeatCount="indefinite"/>
</radialGradient>
<radialGradient id="paint30_radial_2764_8986" cx="0" cy="0" r="1" gradientUnits="userSpaceOnUse" gradientTransform="translate(168.344 25.0665) rotate(-49.6614) scale(5.73151 2.69307)">
<stop stop-color="#FFB6D5"/>
<stop offset="0.1" stop-color="#FFE3C0"/>
<stop offset="0.29" stop-color="#C7FBDB"/>
<stop offset="0.43" stop-color="#C7CDF4"/>
<stop offset="0.54" stop-color="#FFBCD4"/>
<stop offset="0.66" stop-color="#FFE0C3"/>
<stop offset="0.76" stop-color="#B0F1D4"/>
<stop offset="0.84" stop-color="#C9CEEC"/>
<stop offset="0.91" stop-color="#FFC1DA"/>
<stop offset="1" stop-color="#BDFFE3"/>
</radialGradient>
<radialGradient id="paint31_radial_2764_8986" cx="0" cy="0" r="1" gradientUnits="userSpaceOnUse" gradientTransform="translate(299.272 75.6793) rotate(-27.5416) scale(7.39708 0.629813)">
<stop stop-color="#FFB6D5"/>
<stop offset="0.1" stop-color="#FFE3C0"/>
<stop offset="0.29" stop-color="#C7FBDB"/>
<stop offset="0.43" stop-color="#C7CDF4"/>
<stop offset="0.54" stop-color="#FFBCD4"/>
<stop offset="0.66" stop-color="#FFE0C3"/>
<stop offset="0.76" stop-color="#B0F1D4"/>
<stop offset="0.84" stop-color="#C9CEEC"/>
<stop offset="0.91" stop-color="#FFC1DA"/>
<stop offset="1" stop-color="#BDFFE3"/>
</radialGradient>
<radialGradient id="paint32_radial_2764_8986" cx="0" cy="0" r="1" gradientUnits="userSpaceOnUse" gradientTransform="translate(179.154 26.1889) rotate(-47.0356) scale(10.8563 4.72148)">
<stop stop-color="#FFB6D5"/>
<stop offset="0.1" stop-color="#FFE3C0"/>
<stop offset="0.29" stop-color="#C7FBDB"/>
<stop offset="0.43" stop-color="#C7CDF4"/>
<stop offset="0.54" stop-color="#FFBCD4"/>
<stop offset="0.66" stop-color="#FFE0C3"/>
<stop offset="0.76" stop-color="#B0F1D4"/>
<stop offset="0.84" stop-color="#C9CEEC"/>
<stop offset="0.91" stop-color="#FFC1DA"/>
<stop offset="1" stop-color="#BDFFE3"/>
</radialGradient>
<radialGradient id="paint33_radial_2764_8986" cx="0" cy="0" r="1" gradientUnits="userSpaceOnUse" gradientTransform="translate(308.256 69.5575) rotate(-29.4267) scale(11.2996 1.39545)">
<stop stop-color="#FFB6D5"/>
<stop offset="0.1" stop-color="#FFE3C0"/>
<stop offset="0.29" stop-color="#C7FBDB"/>
<stop offset="0.43" stop-color="#C7CDF4"/>
<stop offset="0.54" stop-color="#FFBCD4"/>
<stop offset="0.66" stop-color="#FFE0C3"/>
<stop offset="0.76" stop-color="#B0F1D4"/>
<stop offset="0.84" stop-color="#C9CEEC"/>
<stop offset="0.91" stop-color="#FFC1DA"/>
<stop offset="1" stop-color="#BDFFE3"/>
</radialGradient>
<radialGradient id="paint34_radial_2764_8986" cx="0" cy="0" r="1" gradientUnits="userSpaceOnUse" gradientTransform="translate(302.481 73.2552) rotate(-28.0936) scale(18.3542 1.76972)">
<stop stop-color="#FFB6D5"/>
<stop offset="0.1" stop-color="#FFE3C0"/>
<stop offset="0.29" stop-color="#C7FBDB"/>
<stop offset="0.43" stop-color="#C7CDF4"/>
<stop offset="0.54" stop-color="#FFBCD4"/>
<stop offset="0.66" stop-color="#FFE0C3"/>
<stop offset="0.76" stop-color="#B0F1D4"/>
<stop offset="0.84" stop-color="#C9CEEC"/>
<stop offset="0.91" stop-color="#FFC1DA"/>
<stop offset="1" stop-color="#BDFFE3"/>
</radialGradient>
<radialGradient id="paint35_radial_2764_8986" cx="0" cy="0" r="1" gradientUnits="userSpaceOnUse" gradientTransform="translate(171.556 23.3974) rotate(-48.9154) scale(16.2542 7.48222)">
<stop stop-color="#FFB6D5"/>
<stop offset="0.1" stop-color="#FFE3C0"/>
<stop offset="0.29" stop-color="#C7FBDB"/>
<stop offset="0.43" stop-color="#C7CDF4"/>
<stop offset="0.54" stop-color="#FFBCD4"/>
<stop offset="0.66" stop-color="#FFE0C3"/>
<stop offset="0.76" stop-color="#B0F1D4"/>
<stop offset="0.84" stop-color="#C9CEEC"/>
<stop offset="0.91" stop-color="#FFC1DA"/>
<stop offset="1" stop-color="#BDFFE3"/>
</radialGradient>
<radialGradient id="paint36_radial_2764_8986" cx="0" cy="0" r="1" gradientUnits="userSpaceOnUse" gradientTransform="translate(294.233 78.0451) rotate(-26.2268) scale(11.3694 0.661299)">
<stop stop-color="#FFB6D5"/>
<stop offset="0.1" stop-color="#FFE3C0"/>
<stop offset="0.29" stop-color="#C7FBDB"/>
<stop offset="0.43" stop-color="#C7CDF4"/>
<stop offset="0.54" stop-color="#FFBCD4"/>
<stop offset="0.66" stop-color="#FFE0C3"/>
<stop offset="0.76" stop-color="#B0F1D4"/>
<stop offset="0.84" stop-color="#C9CEEC"/>
<stop offset="0.91" stop-color="#FFC1DA"/>
<stop offset="1" stop-color="#BDFFE3"/>
</radialGradient>
<radialGradient id="paint37_radial_2764_8986" cx="0" cy="0" r="1" gradientUnits="userSpaceOnUse" gradientTransform="translate(162.821 22.2092) rotate(-52.1865) scale(9.68898 4.84236)">
<stop stop-color="#FFB6D5"/>
<stop offset="0.1" stop-color="#FFE3C0"/>
<stop offset="0.29" stop-color="#C7FBDB"/>
<stop offset="0.43" stop-color="#C7CDF4"/>
<stop offset="0.54" stop-color="#FFBCD4"/>
<stop offset="0.66" stop-color="#FFE0C3"/>
<stop offset="0.76" stop-color="#B0F1D4"/>
<stop offset="0.84" stop-color="#C9CEEC"/>
<stop offset="0.91" stop-color="#FFC1DA"/>
<stop offset="1" stop-color="#BDFFE3"/>
</radialGradient>
<radialGradient id="paint38_radial_2764_8986" cx="0" cy="0" r="1" gradientUnits="userSpaceOnUse" gradientTransform="translate(184.196 27.7801) rotate(-44.9677) scale(7.29496 2.95287)">
<stop stop-color="#FFB6D5"/>
<stop offset="0.1" stop-color="#FFE3C0"/>
<stop offset="0.29" stop-color="#C7FBDB"/>
<stop offset="0.43" stop-color="#C7CDF4"/>
<stop offset="0.54" stop-color="#FFBCD4"/>
<stop offset="0.66" stop-color="#FFE0C3"/>
<stop offset="0.76" stop-color="#B0F1D4"/>
<stop offset="0.84" stop-color="#C9CEEC"/>
<stop offset="0.91" stop-color="#FFC1DA"/>
<stop offset="1" stop-color="#BDFFE3"/>
</radialGradient>
<radialGradient id="paint39_radial_2764_8986" cx="0" cy="0" r="1" gradientUnits="userSpaceOnUse" gradientTransform="translate(312.525 66.5312) rotate(-31.348) scale(9.05231 1.46678)">
<stop stop-color="#FFB6D5"/>
<stop offset="0.1" stop-color="#FFE3C0"/>
<stop offset="0.29" stop-color="#C7FBDB"/>
<stop offset="0.43" stop-color="#C7CDF4"/>
<stop offset="0.54" stop-color="#FFBCD4"/>
<stop offset="0.66" stop-color="#FFE0C3"/>
<stop offset="0.76" stop-color="#B0F1D4"/>
<stop offset="0.84" stop-color="#C9CEEC"/>
<stop offset="0.91" stop-color="#FFC1DA"/>
<stop offset="1" stop-color="#BDFFE3"/>
</radialGradient>
<radialGradient id="paint40_radial_2764_8986" cx="0" cy="0" r="1" gradientUnits="userSpaceOnUse" gradientTransform="translate(368.195 -240.674) rotate(-55.5429) scale(749.419 399.808)">
<stop stop-color="#FFB6D5"/>
<stop offset="0.1" stop-color="#FFE3C0"/>
<stop offset="0.29" stop-color="#C7FBDB"/>
<stop offset="0.43" stop-color="#C7CDF4"/>
<stop offset="0.54" stop-color="#FFBCD4"/>
<stop offset="0.66" stop-color="#FFE0C3"/>
<stop offset="0.76" stop-color="#B0F1D4"/>
<stop offset="0.84" stop-color="#C9CEEC"/>
<stop offset="0.91" stop-color="#FFC1DA"/>
<stop offset="1" stop-color="#BDFFE3"/>
<animateTransform xmlns="http://www.w3.org/2000/svg" attributeName="gradientTransform" attributeType="XML" type="scale" 
values="340.207 186.4431; 680.207 372.4431; 340.207 186.4431" 
dur="5s" keyTimes="0; 0.5; 1" repeatCount="indefinite"/>
</radialGradient>
<radialGradient id="paint41_radial_2764_8986" cx="0" cy="0" r="1" gradientUnits="userSpaceOnUse" gradientTransform="translate(363.437 -232.164) rotate(-55.5428) scale(701.492 374.24)">
<stop stop-color="#FFB6D5"/>
<stop offset="0.1" stop-color="#FFE3C0"/>
<stop offset="0.29" stop-color="#C7FBDB"/>
<stop offset="0.43" stop-color="#C7CDF4"/>
<stop offset="0.54" stop-color="#FFBCD4"/>
<stop offset="0.66" stop-color="#FFE0C3"/>
<stop offset="0.76" stop-color="#B0F1D4"/>
<stop offset="0.84" stop-color="#C9CEEC"/>
<stop offset="0.91" stop-color="#FFC1DA"/>
<stop offset="1" stop-color="#BDFFE3"/>
<animateTransform xmlns="http://www.w3.org/2000/svg" attributeName="gradientTransform" attributeType="XML" type="scale" 
values="340.207 186.4431; 680.207 372.4431; 340.207 186.4431" 
dur="5s" keyTimes="0; 0.5; 1" repeatCount="indefinite"/>
</radialGradient>
<radialGradient id="paint42_radial_2764_8986" cx="0" cy="0" r="1" gradientUnits="userSpaceOnUse" gradientTransform="translate(359.821 -225.697) rotate(-55.5429) scale(665.055 354.801)">
<stop stop-color="#FFB6D5"/>
<stop offset="0.1" stop-color="#FFE3C0"/>
<stop offset="0.29" stop-color="#C7FBDB"/>
<stop offset="0.43" stop-color="#C7CDF4"/>
<stop offset="0.54" stop-color="#FFBCD4"/>
<stop offset="0.66" stop-color="#FFE0C3"/>
<stop offset="0.76" stop-color="#B0F1D4"/>
<stop offset="0.84" stop-color="#C9CEEC"/>
<stop offset="0.91" stop-color="#FFC1DA"/>
<stop offset="1" stop-color="#BDFFE3"/>
<animateTransform xmlns="http://www.w3.org/2000/svg" attributeName="gradientTransform" attributeType="XML" type="scale" 
values="340.207 186.4431; 680.207 372.4431; 340.207 186.4431" 
dur="5s" keyTimes="0; 0.5; 1" repeatCount="indefinite"/>
</radialGradient>
<radialGradient id="paint43_radial_2764_8986" cx="0" cy="0" r="1" gradientUnits="userSpaceOnUse" gradientTransform="translate(355.219 -217.465) rotate(-55.5429) scale(618.681 330.061)">
<stop stop-color="#FFB6D5"/>
<stop offset="0.1" stop-color="#FFE3C0"/>
<stop offset="0.29" stop-color="#C7FBDB"/>
<stop offset="0.43" stop-color="#C7CDF4"/>
<stop offset="0.54" stop-color="#FFBCD4"/>
<stop offset="0.66" stop-color="#FFE0C3"/>
<stop offset="0.76" stop-color="#B0F1D4"/>
<stop offset="0.84" stop-color="#C9CEEC"/>
<stop offset="0.91" stop-color="#FFC1DA"/>
<stop offset="1" stop-color="#BDFFE3"/>
<animateTransform xmlns="http://www.w3.org/2000/svg" attributeName="gradientTransform" attributeType="XML" type="scale" 
values="340.207 186.4431; 680.207 372.4431; 340.207 186.4431" 
dur="5s" keyTimes="0; 0.5; 1" repeatCount="indefinite"/>
</radialGradient>
<radialGradient id="paint44_radial_2764_8986" cx="0" cy="0" r="1" gradientUnits="userSpaceOnUse" gradientTransform="translate(349.801 -207.774) rotate(-55.5429) scale(564.091 300.938)">
<stop stop-color="#FFB6D5"/>
<stop offset="0.1" stop-color="#FFE3C0"/>
<stop offset="0.29" stop-color="#C7FBDB"/>
<stop offset="0.43" stop-color="#C7CDF4"/>
<stop offset="0.54" stop-color="#FFBCD4"/>
<stop offset="0.66" stop-color="#FFE0C3"/>
<stop offset="0.76" stop-color="#B0F1D4"/>
<stop offset="0.84" stop-color="#C9CEEC"/>
<stop offset="0.91" stop-color="#FFC1DA"/>
<stop offset="1" stop-color="#BDFFE3"/>
<animateTransform xmlns="http://www.w3.org/2000/svg" attributeName="gradientTransform" attributeType="XML" type="scale" 
values="340.207 186.4431; 680.207 372.4431; 340.207 186.4431" 
dur="5s" keyTimes="0; 0.5; 1" repeatCount="indefinite"/>
</radialGradient>
<radialGradient id="paint45_radial_2764_8986" cx="0" cy="0" r="1" gradientUnits="userSpaceOnUse" gradientTransform="translate(343.76 -196.967) rotate(-55.5429) scale(503.217 268.462)">
<stop stop-color="#FFB6D5"/>
<stop offset="0.1" stop-color="#FFE3C0"/>
<stop offset="0.29" stop-color="#C7FBDB"/>
<stop offset="0.43" stop-color="#C7CDF4"/>
<stop offset="0.54" stop-color="#FFBCD4"/>
<stop offset="0.66" stop-color="#FFE0C3"/>
<stop offset="0.76" stop-color="#B0F1D4"/>
<stop offset="0.84" stop-color="#C9CEEC"/>
<stop offset="0.91" stop-color="#FFC1DA"/>
<stop offset="1" stop-color="#BDFFE3"/>
<animateTransform xmlns="http://www.w3.org/2000/svg" attributeName="gradientTransform" attributeType="XML" type="scale" 
values="340.207 186.4431; 680.207 372.4431; 340.207 186.4431" 
dur="5s" keyTimes="0; 0.5; 1" repeatCount="indefinite"/>
</radialGradient>
<radialGradient id="paint46_radial_2764_8986" cx="0" cy="0" r="1" gradientUnits="userSpaceOnUse" gradientTransform="translate(337.3 -185.414) rotate(-55.5429) scale(438.139 233.743)">
<stop stop-color="#FFB6D5"/>
<stop offset="0.1" stop-color="#FFE3C0"/>
<stop offset="0.29" stop-color="#C7FBDB"/>
<stop offset="0.43" stop-color="#C7CDF4"/>
<stop offset="0.54" stop-color="#FFBCD4"/>
<stop offset="0.66" stop-color="#FFE0C3"/>
<stop offset="0.76" stop-color="#B0F1D4"/>
<stop offset="0.84" stop-color="#C9CEEC"/>
<stop offset="0.91" stop-color="#FFC1DA"/>
<stop offset="1" stop-color="#BDFFE3"/>
</radialGradient>
<radialGradient id="paint47_radial_2764_8986" cx="0" cy="0" r="1" gradientUnits="userSpaceOnUse" gradientTransform="translate(330.637 -173.497) rotate(-55.5429) scale(371.001 197.926)">
<stop stop-color="#FFB6D5"/>
<stop offset="0.1" stop-color="#FFE3C0"/>
<stop offset="0.29" stop-color="#C7FBDB"/>
<stop offset="0.43" stop-color="#C7CDF4"/>
<stop offset="0.54" stop-color="#FFBCD4"/>
<stop offset="0.66" stop-color="#FFE0C3"/>
<stop offset="0.76" stop-color="#B0F1D4"/>
<stop offset="0.84" stop-color="#C9CEEC"/>
<stop offset="0.91" stop-color="#FFC1DA"/>
<stop offset="1" stop-color="#BDFFE3"/>
</radialGradient>
</defs>
</svg>
