<svg width="593" height="130" viewBox="0 0 593 130" fill="none" xmlns="http://www.w3.org/2000/svg">
<path d="M259.54 -4.99798C259.539 -4.99769 259.538 -4.99767 259.538 -4.99793C253.454 -8.19449 246.355 -10.5768 238.693 -12.5041C238.147 -12.6416 237.58 -12.7295 237.003 -12.7748C232.298 -13.1436 227.748 -13.6845 223.444 -14.494C223.341 -14.5045 223.287 -14.3636 223.382 -14.3322C229.909 -12.1698 235.927 -9.64068 241.123 -6.51857C272.468 12.3206 286.249 63.7711 327.293 71.1018C342.469 73.8123 358.313 69.9439 374.282 63.6841C365.729 65.9568 357.194 66.9241 348.725 65.846C308.276 60.6934 291.338 11.7098 259.541 -4.99804C259.541 -4.9983 259.54 -4.99828 259.54 -4.99798Z" fill="#222222"/>
<path d="M469.634 21.7639C469.634 21.7639 469.634 21.7636 469.634 21.7637C462.628 23.1715 455.512 25.6944 448.313 28.8495C448.091 28.9471 447.876 29.0639 447.672 29.1969C443.809 31.7164 439.9 34.0479 435.929 36.0812C435.776 36.1759 435.868 36.3853 436.037 36.3259C442.234 34.1494 448.337 32.4687 454.306 31.5602C495.808 25.2468 550.506 50.2473 586.575 31.7439C592.987 28.4543 598.275 24.0642 602.783 18.9091C604.254 17.2278 600.351 14.6191 598.38 15.7567C564.543 35.292 509.595 13.7339 469.634 21.7642C469.634 21.7643 469.634 21.764 469.634 21.7639Z" fill="#222222"/>
<path d="M374.281 63.6852C374.281 63.6852 374.281 63.6852 374.282 63.6852C381.442 61.7823 388.615 58.9643 395.776 55.6626C393.221 56.5316 390.658 57.2823 388.089 57.8913C387.767 57.9677 387.449 58.0748 387.143 58.2133C382.854 60.1549 378.563 62.0057 374.281 63.6845C374.281 63.6847 374.281 63.6852 374.281 63.6852Z" fill="#222222"/>
<path d="M395.776 55.663C395.776 55.6634 395.777 55.6637 395.777 55.6636C402.675 53.3176 409.523 50.1071 416.325 46.4637C414.134 47.3858 411.932 48.2184 409.717 48.9469C409.018 49.1766 408.334 49.458 407.676 49.7992C403.716 51.8533 399.748 53.8324 395.777 55.6626C395.777 55.6627 395.777 55.6628 395.776 55.663Z" fill="#222222"/>
<path d="M295.512 -5.21241C295.512 -5.21222 295.512 -5.21196 295.512 -5.21204C286.441 -8.7606 275.529 -10.4724 263.98 -11.5414C259.776 -11.5105 255.649 -11.5723 251.651 -11.7937C261.227 -10.1895 270.164 -8.00932 277.7 -4.57557C309.763 10.0397 329.587 56.4576 369.271 59.5327C375.34 60.0028 381.368 59.4201 387.359 58.0614C387.522 58.0245 387.682 57.97 387.836 57.8998C388.457 57.6173 389.078 57.3329 389.699 57.047C391.746 56.1045 390.998 52.2978 388.851 52.2362C350.091 51.1274 327.659 7.36333 295.513 -5.21278C295.512 -5.21286 295.512 -5.2126 295.512 -5.21241Z" fill="#222222"/>
<path d="M496.844 0.548151C496.844 0.548512 496.844 0.548804 496.843 0.548922C487.465 3.38059 478.179 8.43975 468.869 14.3208C465.661 16.848 462.416 19.2762 459.117 21.5242C467.406 17.1092 475.64 13.4521 483.826 11.399C522.134 1.79261 577.041 20.0027 608.607 -0.405215C613.064 -3.28647 616.758 -6.7481 619.878 -10.6459C620.025 -10.8301 620.144 -11.0301 620.233 -11.2389C620.68 -12.2904 621.122 -13.347 621.56 -14.4074C622.342 -16.3016 619.022 -17.9176 617.253 -16.6406C587.984 4.48128 533.402 -10.4889 496.845 0.54738C496.845 0.547499 496.844 0.547791 496.844 0.548151Z" fill="#222222"/>
<path d="M429.728 38.9748C429.144 39.22 428.573 39.5016 428.026 39.8256C424.141 42.1269 420.24 44.3662 416.325 46.4639C422.277 43.9572 428.143 40.7946 433.947 37.2909C434.07 37.2163 434 37.0567 433.865 37.1066C432.494 37.768 431.116 38.3926 429.728 38.9748Z" fill="#222222"/>
<path d="M408.269 48.2418C407.418 48.6465 407.693 49.5887 408.585 49.3103C408.638 49.2939 408.689 49.2725 408.739 49.2467C413.671 46.6715 418.59 43.9901 423.487 41.3465C423.525 41.3259 423.506 41.2732 423.465 41.2859C418.439 43.4526 413.368 45.8171 408.269 48.2418Z" fill="#222222"/>
<path d="M444.517 30.5649C444.517 30.5648 444.517 30.5647 444.517 30.5646C445.478 30.1175 446.438 29.6803 447.396 29.2537C447.784 29.0811 448.159 28.8782 448.513 28.644C450.572 27.2845 452.619 25.8734 454.654 24.4288C452.555 25.7258 450.433 26.9406 448.281 28.0503C447.029 28.8931 445.775 29.732 444.517 30.5652C444.517 30.5654 444.516 30.5652 444.517 30.5649Z" fill="#222222"/>
<path d="M438.913 33.2646C438.913 33.2643 438.913 33.2642 438.913 33.2643C437.141 34.3403 435.365 35.4195 433.587 36.4943C433.206 36.7246 433.448 37.2598 433.863 37.1069C434.553 36.7744 435.241 36.4319 435.927 36.0816C437.334 35.2124 438.737 34.3255 440.137 33.4253C440.609 33.122 440.307 32.5765 439.804 32.8242C439.507 32.9703 439.21 33.1172 438.914 33.2648C438.913 33.2649 438.913 33.2648 438.913 33.2646Z" fill="#222222"/>
<path d="M424.119 41.0059C424.118 41.0062 424.118 41.0065 424.118 41.0067C424.113 41.0092 424.109 41.0116 424.104 41.0141C424.065 41.0351 424.085 41.0878 424.127 41.0741C425.707 40.5558 427.276 39.9761 428.835 39.3442C428.844 39.3405 428.853 39.3361 428.861 39.3311C429.036 39.2274 428.934 39.0061 428.746 39.0817C427.208 39.7008 425.666 40.3434 424.119 41.005C424.119 41.0052 424.119 41.0055 424.119 41.0059Z" fill="#222222"/>
<path d="M629.865 -48.9473C629.865 -48.9475 629.865 -48.9476 629.864 -48.9474C605.209 -26.8649 552.065 -35.7383 519.248 -22.2853C507.401 -17.4291 496.306 -8.52559 485.147 0.845376C482.785 2.97926 480.399 5.06582 477.979 7.06714C488.097 -0.350149 498.212 -6.99871 508.659 -10.7062C543.38 -23.0251 597.372 -11.1728 624.333 -32.8515C627.887 -35.7092 630.75 -38.9741 633.081 -42.5521C633.242 -42.8005 633.382 -43.0585 633.504 -43.3222C635.01 -47.945 636.543 -52.5457 638.219 -57.0258C638.361 -57.5864 637.198 -57.8338 636.878 -57.3185C634.999 -54.2923 632.697 -51.4842 629.865 -48.9472C629.865 -48.947 629.865 -48.9471 629.865 -48.9473Z" fill="#222222"/>
<path d="M424.823 35.0272C424.823 35.0269 424.823 35.0266 424.823 35.0267C388.338 37.4921 361.539 -0.787543 329.743 -9.47424C317.257 -12.886 301.899 -12.7016 286.281 -12.1748C282.942 -11.9489 279.636 -11.7676 276.389 -11.6684C289.663 -11.3053 302.394 -10.329 312.89 -6.85917C344.945 3.73704 369.703 44.7825 407.394 44.0419C412.902 43.9343 418.247 42.9406 423.466 41.2884C423.683 41.194 423.902 41.1009 424.119 41.0076C429.077 38.3335 434.012 35.7034 438.915 33.2664C440.811 32.1149 442.707 30.9669 444.597 29.8328C438.303 32.6717 431.747 34.5592 424.824 35.0277C424.823 35.0277 424.823 35.0275 424.823 35.0272Z" fill="#222222"/>
<path d="M454.653 24.43C456.154 23.5028 457.64 22.5323 459.117 21.5255C458.794 21.6969 458.472 21.8696 458.15 22.0435C457.672 22.3013 457.213 22.5926 456.774 22.9102C456.068 23.4205 455.361 23.9274 454.653 24.43Z" fill="#222222"/>
<path d="M465.016 16.7993C466.3 15.9608 467.586 15.1334 468.87 14.3219C470.234 13.2481 471.589 12.1555 472.941 11.0524C471.221 12.3491 469.479 13.5886 467.713 14.761C466.815 15.4398 465.917 16.1197 465.019 16.7971C465.018 16.7979 465.017 16.7987 465.016 16.7993Z" fill="#222222"/>
<path d="M456.713 22.8247C457.192 22.5618 457.655 22.2701 458.096 21.9484C460.413 20.256 462.719 18.5309 465.016 16.7981C460.881 19.497 456.74 22.3181 452.58 25.1411C453.96 24.353 455.337 23.5798 456.713 22.8247Z" fill="#222222"/>
<path d="M448.279 28.0505C449.715 27.0847 451.148 26.1132 452.58 25.1417C449.925 26.6591 447.263 28.2309 444.596 29.8312C445.833 29.273 447.062 28.6788 448.279 28.0505Z" fill="#222222"/>
<path d="M472.941 11.0506C472.941 11.0507 472.942 11.0506 472.942 11.0505C474.64 9.77097 476.318 8.43854 477.978 7.06465C477.336 7.53524 476.693 8.0093 476.051 8.48595C475.017 9.34553 473.981 10.2011 472.941 11.0497C472.941 11.05 472.941 11.0506 472.941 11.0506Z" fill="#222222"/>
<path d="M528.598 -34.1078C528.598 -34.1076 528.599 -34.1074 528.599 -34.1075C559.455 -48.5425 611.514 -42.5004 633.879 -64.8367C639.744 -70.6935 642.844 -77.7814 644.426 -85.5465C644.776 -88.7066 645.121 -91.87 645.51 -95.0094C645.678 -98.4896 645.8 -101.993 645.953 -105.483C645.838 -122.509 643.697 -140.458 649.54 -154.896C660.274 -181.419 705.549 -207.805 703.314 -236.62C702.698 -244.566 698.562 -251.503 692.587 -257.877C690.24 -260.023 687.898 -262.163 685.611 -264.304C682.768 -266.635 679.879 -268.945 677.029 -271.254C662.353 -282.185 645.547 -292.287 637.935 -304.571C622.779 -329.028 634.112 -372.626 608.712 -389.442C602.052 -393.851 593.685 -395.876 584.379 -396.591C580.57 -396.638 576.756 -396.68 572.974 -396.762C568.762 -396.634 564.518 -396.466 560.292 -396.324C539.613 -394.922 517.659 -391.77 500.579 -395.502C469.203 -402.359 440.646 -437.846 405.491 -433.782C395.797 -432.661 387.058 -428.701 378.861 -423.261C376.075 -421.152 373.297 -419.047 370.521 -416.988C367.474 -414.453 364.448 -411.882 361.426 -409.344C347.03 -396.344 333.473 -381.644 317.975 -374.394C287.119 -359.958 235.059 -366.001 212.694 -343.664C206.829 -337.807 203.729 -330.72 202.147 -322.955C201.797 -319.794 201.452 -316.631 201.063 -313.492C200.895 -310.011 200.773 -306.508 200.62 -303.018C200.735 -285.992 202.876 -268.043 197.033 -253.605C186.299 -227.082 141.024 -200.696 143.259 -171.881C143.875 -163.935 148.011 -156.998 153.986 -150.624C156.333 -148.478 158.676 -146.338 160.962 -144.197C163.805 -141.866 166.694 -139.556 169.544 -137.247C184.22 -126.318 201.026 -116.214 208.638 -103.93C223.794 -79.4726 212.461 -35.8749 237.861 -19.0592C244.521 -14.6496 252.888 -12.6255 262.194 -11.9105C266.003 -11.8634 269.817 -11.8205 273.599 -11.739C277.811 -11.867 282.055 -12.0351 286.281 -12.1767C306.96 -13.5789 328.914 -16.7311 345.994 -12.999C377.37 -6.14182 405.927 29.3446 441.082 25.2805C450.776 24.1597 459.515 20.2002 467.712 14.7599C470.498 12.6511 473.276 10.5457 476.052 8.48688C479.099 5.95184 482.125 3.38095 485.148 0.842655C499.543 -12.1567 513.1 -26.8566 528.598 -34.1081C528.598 -34.1082 528.599 -34.108 528.598 -34.1078ZM456.119 14.8932C422.402 20.4204 392.372 -12.2607 361.566 -17.374C329.631 -22.6754 282.299 -3.22272 256.593 -18.1581C230.888 -33.0935 238.878 -75.4018 222.559 -98.1358C206.817 -120.067 158.836 -132.707 154.715 -160.219C150.593 -187.731 192.575 -215.121 201.149 -241.038C210.037 -267.905 190.055 -305.628 210.161 -328.073C230.267 -350.518 281.018 -347.147 309.871 -362.414C337.705 -377.141 356.736 -417.866 390.453 -423.393C424.169 -428.921 454.199 -396.239 485.005 -391.126C516.941 -385.825 564.273 -405.277 589.978 -390.342C615.683 -375.407 607.693 -333.098 624.013 -310.364C639.755 -288.433 687.736 -275.793 691.857 -248.281C695.978 -220.77 653.996 -193.379 645.423 -167.462C636.534 -140.595 656.516 -102.872 636.41 -80.427C616.304 -57.9821 565.553 -61.3534 536.7 -46.0862C508.866 -31.3593 489.836 9.36594 456.119 14.8932Z" fill="#222222"/>
<path d="M637.501 -95.6353C637.501 -95.635 637.502 -95.635 637.502 -95.6354C655.39 -118.049 633.531 -153.224 640.287 -179.348C646.805 -204.55 685.482 -232.711 679.631 -258.848C673.78 -284.987 626.59 -294.859 609.898 -315.117C592.594 -336.118 597.434 -376.979 571.596 -390.08C545.758 -403.181 501.375 -382.368 470.178 -385.96C440.083 -389.425 408.864 -419.308 376.682 -412.454C344.499 -405.599 328.891 -365.742 303.014 -350.356C276.189 -334.406 226.954 -335.278 209.065 -312.865C191.176 -290.451 213.036 -255.276 206.28 -229.151C199.762 -203.95 161.085 -175.789 166.936 -149.651C172.786 -123.512 219.976 -113.64 236.669 -93.3831C253.972 -72.3821 249.133 -31.5212 274.971 -18.4204C300.808 -5.31956 345.191 -26.1324 376.389 -22.5407C406.484 -19.0755 437.703 10.8078 469.885 3.95318C502.068 -2.9012 517.676 -42.7584 543.551 -58.1451C570.376 -74.0942 619.61 -73.2224 637.5 -95.6352C637.5 -95.6356 637.501 -95.6356 637.501 -95.6353ZM482.349 -7.44541C451.784 0.595584 419.655 -26.5167 390.402 -28.4325C360.077 -30.42 318.696 -8.47472 292.894 -19.7974C267.092 -31.1202 268.986 -70.392 250.876 -89.6591C233.407 -108.245 187.235 -115.493 179.82 -140.2C172.405 -164.907 207.786 -193.609 212.36 -217.994C217.101 -243.272 193.636 -275.873 209.364 -298.121C225.091 -320.369 272.624 -321.815 297.405 -338.299C321.311 -354.201 333.655 -393.012 364.22 -401.053C394.785 -409.094 426.915 -381.983 456.167 -380.066C486.492 -378.079 527.873 -400.024 553.675 -388.701C579.477 -377.379 577.583 -338.107 595.693 -318.84C613.163 -300.254 659.334 -293.006 666.749 -268.299C674.164 -243.592 638.782 -214.89 634.209 -190.505C629.468 -165.227 652.933 -132.626 637.205 -110.378C621.478 -88.13 573.946 -86.6841 549.164 -70.1996C525.258 -54.2981 512.914 -15.4864 482.349 -7.44541Z" fill="#222222"/>
<path d="M635.58 -124.582C649.213 -146.536 624.416 -176.555 627.266 -200.892C630.016 -224.368 662.133 -253.389 653.32 -276.619C644.508 -299.85 599.569 -304.629 581.493 -321.554C562.753 -339.099 561.915 -376.656 536.309 -386.264C510.702 -395.874 472.353 -373.023 443.027 -373.516C414.736 -373.992 381.97 -398.373 353.09 -389.288C324.211 -380.203 314.958 -342.602 293.022 -326.325C270.283 -309.451 224.623 -305.873 210.991 -283.919C197.358 -261.965 222.156 -231.946 219.305 -207.609C216.555 -184.132 184.439 -155.112 193.252 -131.881C202.064 -108.651 247.002 -103.872 265.079 -86.9469C283.819 -69.4021 284.656 -31.845 310.263 -22.2364C335.869 -12.6266 374.218 -35.4777 403.545 -34.9846C431.836 -34.5087 464.602 -10.1274 493.481 -19.2127C522.361 -28.298 531.614 -65.8987 553.549 -82.1755C576.289 -99.0495 621.949 -102.628 635.58 -124.582ZM503.261 -31.2563C476.122 -21.2698 442.985 -42.9776 415.765 -42.1252C387.549 -41.2408 352.241 -17.7069 326.985 -25.6763C301.727 -33.6458 298.381 -69.3778 279.187 -85.2223C260.67 -100.507 217.162 -102.985 207.122 -124.702C197.081 -146.42 225.98 -175.543 227.036 -198.031C228.129 -221.342 202.269 -248.789 213.883 -270.327C225.498 -291.866 269.135 -297.382 289.845 -314.502C309.823 -331.018 316.172 -367.257 343.309 -377.243C370.448 -387.23 403.584 -365.522 430.805 -366.374C459.021 -367.259 494.329 -390.793 519.585 -382.823C544.842 -374.854 548.188 -339.122 567.383 -323.277C585.899 -307.993 629.408 -305.515 639.448 -283.797C649.488 -262.078 620.59 -232.956 619.534 -210.468C618.441 -187.158 644.301 -159.711 632.687 -138.173C621.072 -116.634 577.435 -111.118 556.725 -93.9972C536.747 -77.482 530.398 -41.243 503.261 -31.2563Z" fill="#222222"/>
<path d="M628.599 -151.085C638.285 -172.095 611.628 -196.994 611.103 -219.205C610.596 -240.63 636.35 -269.647 625.253 -289.831C614.156 -310.015 572.257 -310.364 553.465 -324.041C533.984 -338.219 528.361 -372.033 503.597 -378.445C478.833 -384.858 446.558 -360.859 419.552 -358.718C393.503 -356.653 360.252 -375.764 334.896 -365.019C309.54 -354.275 305.898 -319.533 287.851 -302.912C269.142 -285.683 227.659 -278.427 217.972 -257.417C208.286 -236.406 234.944 -211.507 235.468 -189.296C235.975 -167.872 210.223 -138.854 221.318 -118.671C232.415 -98.4868 274.314 -98.1374 293.106 -84.4602C312.588 -70.2821 318.21 -36.4684 342.974 -30.0562C367.738 -23.6441 400.014 -47.643 427.019 -49.7833C453.069 -51.8486 486.32 -32.7393 511.676 -43.4824C537.032 -54.2267 540.673 -88.9688 558.721 -105.589C577.43 -122.819 618.913 -130.074 628.599 -151.085ZM559.571 -116.882C543.416 -100.284 542.27 -67.158 518.724 -55.799C495.178 -44.44 462.063 -61.0395 437.266 -57.8837C411.561 -54.6111 382.285 -30.3593 358.148 -35.3037C334.011 -40.2481 326.352 -72.0674 306.749 -84.6214C287.838 -96.7319 247.71 -95.1377 235.728 -113.775C223.745 -132.411 246.441 -161.123 244.514 -181.426C242.514 -202.473 215.32 -224.868 223.176 -245.246C231.032 -265.624 270.25 -274.413 286.996 -291.619C303.151 -308.217 304.297 -341.343 327.843 -352.702C351.389 -364.061 384.504 -347.462 409.301 -350.618C435.006 -353.89 464.282 -378.142 488.419 -373.197C512.556 -368.253 520.215 -336.434 539.818 -323.88C558.729 -311.769 598.857 -313.363 610.839 -294.727C622.822 -276.09 600.126 -247.378 602.053 -227.075C604.053 -206.028 631.247 -183.634 623.391 -163.256C615.535 -142.878 576.317 -134.088 559.571 -116.882Z" fill="#222222"/>
</svg>
