<svg width="22" height="27" viewBox="0 0 22 27" fill="none" xmlns="http://www.w3.org/2000/svg">
<path d="M17.7298 13.8512C17.7665 17.7967 21.1911 19.1096 21.229 19.1264C21.2001 19.219 20.6818 20.9975 19.4248 22.8346C18.3381 24.4228 17.2103 26.0052 15.4336 26.038C13.6879 26.0702 13.1266 25.0028 11.1307 25.0028C9.13543 25.0028 8.51175 26.0052 6.85922 26.0702C5.14431 26.1351 3.83842 24.3527 2.74272 22.7703C0.503799 19.5334 -1.2072 13.6236 1.09024 9.63436C2.23156 7.6533 4.27119 6.39881 6.48502 6.36664C8.16902 6.33452 9.75851 7.49958 10.788 7.49958C11.8168 7.49958 13.7483 6.09849 15.7789 6.30426C16.629 6.33964 19.0152 6.64764 20.5474 8.89043C20.424 8.96696 17.7002 10.5526 17.7298 13.8512ZM14.4489 4.16277C15.3594 3.0607 15.9722 1.52651 15.805 0C14.4926 0.052745 12.9057 0.874518 11.9644 1.97599C11.1208 2.95139 10.382 4.51258 10.5813 6.00887C12.0441 6.12204 13.5384 5.26554 14.4489 4.16277Z" fill="#222222"/>
</svg>
