<svg width="31" height="27" viewBox="0 0 31 27" fill="none" xmlns="http://www.w3.org/2000/svg">
<path d="M7.54492 13.8373C7.54492 12.5409 7.86431 11.4324 8.5031 10.5118C9.14187 9.5912 10.0155 8.89607 11.124 8.42636C12.1386 7.99425 13.3879 7.68425 14.8722 7.49636C15.3795 7.44 16.2061 7.36484 17.3522 7.27091V6.79182C17.3522 5.58938 17.2207 4.78152 16.9576 4.36818C16.5631 3.80454 15.9431 3.52273 15.0976 3.52273H14.8722C14.2522 3.57909 13.7167 3.77636 13.2658 4.11454C12.8149 4.45273 12.5237 4.92243 12.3922 5.52364C12.317 5.89938 12.1291 6.11545 11.8286 6.17182L8.58765 5.77727C8.26824 5.70211 8.10856 5.53302 8.10856 5.27C8.10856 5.21364 8.11794 5.14789 8.13674 5.07273C8.45612 3.40061 9.24051 2.16061 10.4899 1.35273C11.7393 0.544839 13.2001 0.09393 14.8722 0H15.5767C17.7186 0 19.3907 0.554252 20.5931 1.66273C20.7817 1.85146 20.956 2.05399 21.1145 2.26864C21.2741 2.48471 21.401 2.67727 21.4949 2.84636C21.5888 3.01545 21.6734 3.25971 21.7486 3.57909C21.8237 3.89847 21.8801 4.11925 21.9176 4.24136C21.9552 4.36347 21.9834 4.62652 22.0022 5.03045C22.021 5.43438 22.0304 5.67393 22.0304 5.74909V12.5691C22.0304 13.0576 22.1008 13.5038 22.2417 13.9077C22.3826 14.3117 22.5188 14.6029 22.6504 14.7814C22.7819 14.9598 22.9979 15.2464 23.2986 15.6409C23.4113 15.81 23.4676 15.9603 23.4676 16.0918C23.4676 16.2421 23.3925 16.3736 23.2422 16.4864C21.6828 17.8391 20.8373 18.5718 20.7058 18.6845C20.4804 18.8536 20.2079 18.8724 19.8886 18.7409C19.6255 18.5155 19.3954 18.2994 19.1981 18.0927C19.0008 17.8861 18.8599 17.7357 18.7754 17.6418C18.6908 17.5479 18.5546 17.3647 18.3667 17.0923C18.1788 16.8198 18.0473 16.6367 17.9722 16.5427C16.9201 17.6888 15.8867 18.4027 14.8722 18.6845C14.2334 18.8724 13.4443 18.9664 12.5049 18.9664C11.0582 18.9664 9.86992 18.5202 8.93992 17.6277C8.00992 16.7353 7.54492 15.4718 7.54492 13.8373ZM12.3922 13.2736C12.3922 14.0064 12.5754 14.5935 12.9417 15.035C13.3081 15.4765 13.8013 15.6973 14.4213 15.6973C14.4776 15.6973 14.5575 15.6879 14.6608 15.6691C14.7641 15.6503 14.8346 15.6409 14.8722 15.6409C15.6613 15.4342 16.2719 14.927 16.704 14.1191C16.9107 13.7621 17.0657 13.3723 17.169 12.9495C17.2723 12.5268 17.3287 12.1839 17.3381 11.9209C17.3475 11.6579 17.3522 11.2257 17.3522 10.6245V9.92C16.2625 9.92 15.4358 9.99516 14.8722 10.1455C13.2189 10.6152 12.3922 11.6579 12.3922 13.2736Z" fill="#222222"/>
<path d="M0.507273 19.6682C0.300587 19.5367 0.150294 19.5461 0.0563636 19.6964C0.0187691 19.7527 0 19.8091 0 19.8655C0 19.9594 0.0563636 20.0533 0.169091 20.1473C2.23575 22.0073 4.57484 23.4493 7.18636 24.4732C9.79786 25.4971 12.5691 26.0091 15.5 26.0091C17.3976 26.0091 19.3421 25.7461 21.3336 25.22C23.3251 24.6939 25.1288 23.9518 26.7445 22.9936C27.2706 22.6743 27.7027 22.3924 28.0409 22.1482C28.3039 21.9603 28.3556 21.7536 28.1959 21.5282C28.0362 21.3027 27.8155 21.2464 27.5336 21.3591C27.4585 21.3967 27.3317 21.453 27.1532 21.5282C26.9747 21.6033 26.8385 21.6597 26.7445 21.6973C23.156 23.0688 19.5206 23.7545 15.8382 23.7545C10.3145 23.7545 5.20422 22.3924 0.507273 19.6682Z" fill="#222222"/>
<path d="M25.3918 19.95C25.3167 20.0252 25.2603 20.1003 25.2227 20.1755C25.2039 20.213 25.1945 20.2412 25.1945 20.26C25.1757 20.2976 25.1851 20.3352 25.2227 20.3727C25.2603 20.4103 25.3355 20.4291 25.4482 20.4291C25.8427 20.3727 26.2748 20.3164 26.7445 20.26C27.1767 20.2224 27.5524 20.2036 27.8718 20.2036C28.736 20.2036 29.2621 20.3164 29.45 20.5418C29.5251 20.6357 29.5627 20.7861 29.5627 20.9927C29.5627 21.6315 29.2151 22.7682 28.52 24.4027C28.4636 24.553 28.4918 24.6564 28.6045 24.7127C28.6421 24.7315 28.6797 24.7409 28.7173 24.7409C28.7924 24.7409 28.877 24.7033 28.9709 24.6282C29.6097 24.0833 30.1076 23.3647 30.4645 22.4723C30.8215 21.5798 31 20.8048 31 20.1473V19.95C31 19.7245 30.9624 19.5555 30.8873 19.4427C30.7182 19.2361 30.2109 19.0952 29.3655 19.02C29.1964 18.9824 29.0179 18.973 28.83 18.9918C28.1536 19.0106 27.4585 19.1139 26.7445 19.3018C26.3124 19.4145 25.8615 19.6306 25.3918 19.95Z" fill="#222222"/>
</svg>
