<svg width="60" height="20" viewBox="0 0 60 20" fill="none" xmlns="http://www.w3.org/2000/svg">
<path d="M49.7223 17.117C49.7214 17.117 49.5382 17.2802 49.5382 17.2802C49.2765 17.5142 49.0073 17.7647 48.6822 17.6394C48.5924 17.6068 48.5292 17.4871 48.5141 17.3943C48.4993 16.7247 48.8008 16.1042 49.0932 15.5L49.1682 15.342C50.0094 13.9375 50.9871 12.2826 52.4231 11.1341C52.6651 10.9595 52.9277 10.8128 53.2048 10.9272C53.2686 10.987 53.3428 11.0905 53.3428 11.1938C53.3428 11.2266 53.3137 11.3137 53.2969 11.3407C52.8959 11.9889 52.5139 12.6693 52.1425 13.3225C51.4166 14.6128 50.6637 15.9462 49.7223 17.117ZM41.9416 13.807C41.8867 13.8453 40.9166 13.5186 40.7291 12.6204C40.5701 11.847 41.1026 11.2428 41.6179 10.9382C41.839 10.7639 42.1721 10.7041 42.4165 10.7909C42.6433 10.9435 42.7047 11.2159 42.7047 11.5095C42.7047 11.6895 42.6808 11.8744 42.6598 12.0431L42.6551 12.0813C42.4935 12.6854 42.2461 13.2789 41.9416 13.807ZM38.236 17.46C38.137 17.313 38.1042 17.1523 38.1009 16.9786C38.082 15.9111 39.2304 13.9995 40.0411 12.9581H40.0429C40.3826 13.702 41.1519 14.1801 41.6163 14.3816C41.0395 15.6665 39.0611 18.4181 38.236 17.46ZM52.2369 17.6496C52.0448 17.7802 51.7751 17.6798 51.876 17.3805C52.1272 16.6183 53.1259 15.0651 53.1259 15.0651L55.9077 10.1311H54.0022C53.9117 10.2799 53.718 10.6215 53.718 10.6215C53.6298 10.4747 53.3662 10.1481 53.2577 10.0776C52.7921 9.7834 52.1091 9.92251 51.6379 10.1892C49.5894 11.3871 48.0947 13.7538 46.9158 15.5992C46.9158 15.5992 45.675 17.6508 44.9862 17.8034C44.4484 17.847 44.5039 17.1226 44.5272 16.9539C44.7351 15.7342 45.218 14.5747 45.7045 13.524C46.6939 12.8381 47.8231 11.9399 48.8493 10.9545C51.0763 8.82571 52.9537 6.41392 53.228 5.87506C53.228 5.87506 52.931 5.93502 52.5802 5.94579C50.8669 8.33571 47.3609 11.8093 46.2981 12.3261C46.7689 11.1936 49.8112 5.78779 52.4002 3.20209L52.8076 2.80997C53.4376 2.19479 54.0903 1.5633 54.599 1.45984C54.6527 1.45443 54.7218 1.45984 54.7816 1.58526C54.8043 2.06426 54.6259 2.41816 54.4214 2.82098L54.1347 3.40903C54.1347 3.40903 54.5408 3.3328 54.8074 3.24547C55.1169 2.66322 55.4596 2.00975 55.3333 1.23142C55.2911 0.980938 55.1098 0.790447 54.8729 0.746856C54.1006 0.599867 53.2589 1.17131 52.5817 1.63421L52.5543 1.65042C49.073 4.37791 46.1332 8.30869 43.563 13.6765C43.3767 13.8178 42.657 13.9868 42.5347 13.905C42.7885 13.3825 43.108 12.68 43.268 11.9179C43.2956 11.7001 43.3214 11.477 43.3214 11.2593C43.3214 10.7907 43.2089 10.3499 42.7891 10.0451C42.297 9.8001 41.6887 9.9145 41.2786 10.0995C39.4414 10.8617 38.0684 12.7454 37.0775 14.2967C36.5446 15.2824 36.0132 16.338 35.8661 17.5469C35.7625 18.494 35.9735 19.1037 36.512 19.4087C37.0658 19.6916 37.7628 19.3975 38.0366 19.2561C39.8978 18.2762 41.1984 16.311 42.2234 14.5144C42.2642 14.509 42.8239 14.4928 43.2472 14.3838C43.2529 14.3838 43.2553 14.3838 43.2646 14.3895C43.2404 14.4708 43.0216 15.1243 43.0216 15.1243C42.3719 17.0295 42.0715 18.3253 42.6851 19.093C43.5621 20.1764 45.0139 19.055 46.195 17.574C45.9415 19.3487 46.8613 19.6265 47.5624 19.4905C48.3678 19.2729 49.2653 18.4125 49.6818 17.9717C49.548 18.4887 49.5844 19.4143 50.3171 19.5068C50.8193 19.5996 51.1951 19.3265 51.6299 19.0923C53.1897 18.2429 55.0571 15.4128 55.5418 14.5945H54.9062C54.217 15.636 53.34 17.0014 52.2369 17.6496ZM28.2065 7.08121H29.9917L30.9993 5.44469H29.2137L28.2065 7.08121ZM56.7239 2.73371C55.3627 3.50692 53.9516 4.00764 52.2434 3.83346C51.77 4.36714 51.3091 4.91692 50.8843 5.48304C53.2817 6.09278 55.8233 4.73723 57.2408 3.44715C58.7403 2.14596 59.5093 0.507448 59.5093 0.507448C59.5093 0.507448 58.3853 1.79206 56.7239 2.73371ZM41.7125 2.32012C41.4287 5.57561 38.8981 7.48677 38.272 7.63881C37.8925 7.71493 37.2451 7.54628 37.823 6.18002C38.6743 4.33974 40.1275 2.77754 41.6867 1.97713C41.7246 2.11326 41.7237 2.20021 41.7125 2.32012ZM36.7815 10.5242C36.6002 10.1323 36.1698 9.88183 35.7112 9.909C34.2217 10.0452 32.7649 11.27 31.9999 13.0285C31.5985 13.9323 31.3794 14.6781 31.2358 15.8648C31.6989 15.3314 32.6436 14.455 33.7157 13.9759C33.7157 13.9759 33.8615 12.8381 34.6054 11.8255C34.8869 11.4062 35.4502 10.7312 36.0827 10.9108C36.6354 11.096 36.4411 12.6258 35.7066 14.1062C35.1632 15.1951 34.3315 16.2842 33.4901 17.0353C32.7461 17.6669 31.6454 18.429 30.6824 17.8411C30.0758 17.4819 29.7665 16.7305 29.8318 15.7614C30.1216 13.0123 31.3731 10.6713 33.1638 8.00373C35.0104 5.52669 37.0459 2.98437 39.7881 1.62844C40.3475 1.34538 40.8654 1.28006 41.3131 1.45428C41.3131 1.45428 38.739 2.86972 37.5119 5.48846C37.1998 6.15273 36.7657 7.05074 37.2028 7.84564C37.4313 8.25929 37.8369 8.29203 38.1635 8.27024C39.6675 7.92175 40.6392 6.51723 41.4333 5.23256C41.8936 4.25809 42.3027 3.28903 42.3027 2.21095C42.3027 2.08032 42.2959 1.9062 42.2848 1.7754C43.0034 1.39447 44.4769 2.06937 44.4769 2.06937C45.6283 2.45059 48.0802 4.3289 48.9071 4.68805C49.3105 4.21994 49.9735 3.51228 50.3467 3.15835L49.8064 2.82622C48.9412 2.29813 48.0268 1.79724 47.1267 1.30188C45.0826 0.186005 43.4186 0.577878 42.5718 0.882777C42.239 1.00248 41.9348 1.10594 41.9348 1.10594C41.3064 0.420028 40.2757 0.485191 39.5163 0.670416C36.7853 1.45431 34.2497 3.36508 31.5313 6.68062C29.5326 9.27748 28.2928 11.5206 27.6322 13.7361C27.1229 15.2277 26.9681 17.4216 28.2112 18.7227C29.2682 19.8275 30.6697 19.5883 31.6595 19.1909C33.8039 18.1348 35.7312 15.859 36.6917 13.2405C36.9234 12.4622 37.1805 11.3626 36.7815 10.5242ZM13.0118 7.99834C13.0082 8.0092 12.6476 8.8366 12.6476 8.8366C12.5955 8.8801 12.5131 8.85841 12.4186 8.8366L12.2567 8.80923C11.7484 8.65144 11.365 8.31387 11.2468 7.91107C11.0838 7.12709 11.7535 6.51194 12.0486 6.28883C12.3317 6.09266 12.7719 5.98926 13.0275 6.19079C13.1851 6.37593 13.2448 6.61539 13.2448 6.87688C13.2449 7.23067 13.1356 7.62804 13.0118 7.99834ZM12.2371 9.57149C12.2371 9.57149 12.2208 9.62064 12.2127 9.63671C12.2106 9.63671 11.3929 10.9703 11.3929 10.9703C10.8994 11.6292 10.2833 12.4569 9.51307 12.8541C9.28479 12.9304 8.96921 12.9795 8.80842 12.7782C8.46748 12.3698 8.64322 11.8036 8.78595 11.3464L8.83647 11.183C9.24575 10.0726 9.89516 9.09243 10.5272 8.18312C10.5351 8.17777 10.5528 8.17235 10.5592 8.17235C10.5607 8.1778 10.5632 8.1778 10.5643 8.18872C10.9609 8.95074 11.7047 9.30447 12.2609 9.46803C12.2642 9.46803 12.2678 9.47344 12.2678 9.4844C12.2679 9.50061 12.2588 9.52269 12.2371 9.57149ZM22.4657 8.69506C22.8314 8.18886 23.896 6.83323 24.1555 6.60462C25.0284 5.83671 25.3773 6.1746 25.4075 6.41395C24.5928 7.8729 23.6314 9.54417 22.7275 11.0468C22.7292 11.0414 22.4446 11.4768 22.4446 11.4768C22.0453 12.0864 21.6433 12.6091 20.9876 12.9738C20.8941 13.0012 20.74 13.0121 20.6374 12.9356C20.5139 12.854 20.4652 12.7178 20.4791 12.5762C20.5184 12.1082 20.995 10.6767 22.4657 8.69506ZM13.4009 5.38512C12.2724 4.64475 10.0043 6.0602 8.18779 8.48796C6.52657 10.6658 5.80924 13.197 6.58989 14.3675C7.75116 15.7448 9.90697 13.7415 10.8237 12.6692L10.942 12.5438C11.5654 11.8742 12.0471 11.0684 12.5133 10.2953C12.5133 10.2953 12.9418 9.58759 12.9622 9.55485C13.2271 9.50606 13.546 9.42982 13.9055 9.32634C13.9003 9.34255 12.5303 11.6454 12.67 12.7886C12.7136 13.1374 12.6803 14.4112 13.9241 14.7977C15.5817 15.0755 16.9055 13.7905 18.0731 12.6473C18.0731 12.6473 18.2721 12.4569 18.3846 12.3482C18.3626 12.4369 18.3407 12.5256 18.319 12.6144C17.8337 14.3021 18.4879 14.6562 18.8971 14.7869C20.1338 15.1464 21.6112 13.3497 21.616 13.3497C21.5777 13.9157 21.4656 14.3838 22.0622 14.7595C22.6253 14.9611 23.1952 14.6538 23.6284 14.3652C25.1887 13.2656 26.4456 11.5445 27.4608 10.0567H26.8132C26.8055 10.0567 25.2151 12.3618 24.1824 12.8629C24.1809 12.8629 23.9929 12.9594 23.8846 12.883C23.7505 12.7686 23.8034 12.5309 23.886 12.3624C23.8913 12.3514 27.8735 5.44472 27.8735 5.44472H25.9933C25.9933 5.44472 25.7879 5.77702 25.7712 5.7988C25.7585 5.78794 25.7284 5.73081 25.7075 5.70343C24.5426 4.09206 21.9045 6.57064 19.9184 9.44482C19.1537 10.5501 18.1802 11.7945 17.1708 12.6929C17.1708 12.6929 15.6754 14.0637 15.0364 13.0788C14.8028 12.665 14.8747 12.06 15.0065 11.6627C15.7504 9.54498 17.0323 7.62316 18.4911 6.46332C18.9029 6.14232 19.3504 6.04948 19.5726 6.18564C19.7842 6.31106 19.8184 6.62111 19.6845 6.83347C19.3447 6.82261 19.0726 6.92586 18.8513 7.15452C18.4154 7.61186 18.2639 8.05289 18.4025 8.46672C19.0758 9.42483 20.4186 7.53027 20.3536 6.37613C20.3304 5.9623 20.1096 5.57043 19.7802 5.3797C19.2891 5.08587 18.54 5.16195 18.0553 5.39621C17.4063 5.6411 16.379 6.49572 15.7794 7.16003C15.0245 7.99311 13.7299 8.91849 13.3249 8.81485C13.4576 8.46082 14.5513 6.22325 13.4009 5.38512ZM22.8516 17.4981C20.6373 16.0716 17.632 15.8213 12.7855 17.1659C7.61887 18.3801 5.89606 19.1584 3.63379 17.5959C2.76465 16.8284 2.45303 15.5926 2.68574 13.8126C3.22544 10.9108 4.68385 8.11811 7.27455 5.02062C8.72058 3.40924 10.0618 2.02638 11.833 1.47115C13.1904 1.12278 13.0635 2.18958 12.8993 2.34214C12.726 2.34214 12.4348 2.36945 12.2098 2.51626C12.0272 2.6579 11.5259 3.11523 11.4989 3.73041C11.4601 4.67216 12.4347 4.47613 12.8551 3.95908C13.3082 3.37642 13.9778 2.26058 13.4511 1.22064C13.2303 0.850493 12.8489 0.594689 12.3752 0.507567C10.7534 0.41488 9.24293 1.18797 7.84891 2.04268C4.80111 4.16034 2.36239 7.09478 0.982658 10.3068C0.18707 12.2448 -0.532404 15.0209 0.546093 17.2805C1.38036 18.8483 3.1124 19.6811 5.17894 19.5069C6.62824 19.3546 8.38057 18.8862 9.55946 18.6034C10.7381 18.3201 16.7715 16.2461 18.754 19.8558C18.754 19.8558 19.4133 18.5761 21.0607 18.5488C22.4151 18.4238 24.3692 18.9409 25.792 19.986C25.318 19.273 23.9739 18.2223 22.8527 17.4981L22.8516 17.4981Z" fill="#222222"/>
</svg>
