<svg width="43" height="16" viewBox="0 0 43 16" fill="none" xmlns="http://www.w3.org/2000/svg">
<path fill-rule="evenodd" clip-rule="evenodd" d="M5.45823 1.2445C2.68545 4.50079 0.0268751 8.53887 0.000216437 11.5572C-0.0101664 12.6929 0.352392 13.6843 1.22203 14.4352C2.47358 15.5167 3.85253 15.8981 5.22475 15.9003C7.23005 15.9031 9.22131 15.0941 10.7804 14.4703C13.4062 13.4202 42.4313 0.815718 42.4313 0.815718C42.7113 0.675409 42.6589 0.500585 42.3084 0.587857C42.1669 0.623215 10.71 9.1481 10.71 9.1481C10.1141 9.31661 9.49844 9.40476 8.87924 9.41019C6.46172 9.4245 4.3105 8.08259 4.3279 5.25481C4.33464 4.14833 4.67334 2.814 5.45823 1.2445Z" fill="#222222"/>
</svg>
